<?xml version="1.0" standalone="no"?>
 <!DOCTYPE svg PUBLIC "-//W3C//DTD SVG 1.1//EN" 
 "http://www.w3.org/Graphics/SVG/1.1/DTD/svg11.dtd"> 
<svg xmlns="http://www.w3.org/2000/svg" version="1.1" 
    width="29.7002cm" height="21.0007cm" viewBox="0 0 116930 82680 ">
<title>SVG Picture created as ThermocoupleLogger-Eco1_User.svg date 2019/03/15 20:46:25 </title>
  <desc>Picture generated by PCBNEW </desc>
<g style="fill:#000000; fill-opacity:1;stroke:#000000; stroke-opacity:1;
stroke-linecap:round; stroke-linejoin:round; "
 transform="translate(0 0) scale(1 1)">
</g>
<g style="fill:#000000; fill-opacity:0.0; 
stroke:#000000; stroke-width:-0.000787402; stroke-opacity:1; 
stroke-linecap:round; stroke-linejoin:round;">
</g>
<g style="fill:#000000; fill-opacity:0.0; 
stroke:#000000; stroke-width:78.7402; stroke-opacity:1; 
stroke-linecap:round; stroke-linejoin:round;">
<path d="M93465 12845
L93465 73345
" />
<path d="M23465 68963
L23465 68963
" />
<path d="M23465 12845
L93465 12845
" />
<path d="M23465 73345
L93465 73345
" />
<path d="M23465 12845
L23465 73345
" />
<path d="M23465 13845
L23465 13845
" />
</g>
<g style="fill:#000000; fill-opacity:1.0; 
stroke:#000000; stroke-width:118.11; stroke-opacity:1; 
stroke-linecap:round; stroke-linejoin:round;">
<polyline style="fill-rule:evenodd;"
points="38965,35845
38965,38445
37865,38445
37865,35745
38965,35745
38965,35845
" /> 
</g>
<g style="fill:#000000; fill-opacity:0.0; 
stroke:#000000; stroke-width:118.11; stroke-opacity:1; 
stroke-linecap:round; stroke-linejoin:round;">
</g>
<g style="fill:#000000; fill-opacity:0.0; 
stroke:#000000; stroke-width:23.622; stroke-opacity:1; 
stroke-linecap:round; stroke-linejoin:round;">
<path d="M58473 23810
L58631 24046
" />
<path d="M58631 23810
L58473 24046
" />
<path d="M58710 24035
L58743 24046
L58800 24046
L58822 24035
L58833 24023
L58845 24001
L58845 23978
L58833 23956
L58822 23945
L58800 23933
L58755 23922
L58732 23911
L58721 23900
L58710 23877
L58710 23855
L58721 23832
L58732 23821
L58755 23810
L58811 23810
L58845 23821
" />
<path d="M59070 24046
L58935 24046
" />
<path d="M59002 24046
L59002 23810
L58980 23843
L58957 23866
L58935 23877
" />
</g> 
</svg>
