<?xml version="1.0" standalone="no"?>
 <!DOCTYPE svg PUBLIC "-//W3C//DTD SVG 1.1//EN" 
 "http://www.w3.org/Graphics/SVG/1.1/DTD/svg11.dtd"> 
<svg xmlns="http://www.w3.org/2000/svg" version="1.1" 
    width="29.7002cm" height="21.0007cm" viewBox="0 0 116930 82680 ">
<title>SVG Picture created as ThermocoupleLogger-Cmts_User.svg date 2019/03/15 20:46:25 </title>
  <desc>Picture generated by PCBNEW </desc>
<g style="fill:#000000; fill-opacity:1;stroke:#000000; stroke-opacity:1;
stroke-linecap:round; stroke-linejoin:round; "
 transform="translate(0 0) scale(1 1)">
</g>
<g style="fill:#000000; fill-opacity:0.0; 
stroke:#000000; stroke-width:-0.000787402; stroke-opacity:1; 
stroke-linecap:round; stroke-linejoin:round;">
</g>
<g style="fill:#000000; fill-opacity:0.0; 
stroke:#000000; stroke-width:78.7402; stroke-opacity:1; 
stroke-linecap:round; stroke-linejoin:round;">
<path d="M93465 12845
L93465 73345
" />
<path d="M23465 68963
L23465 68963
" />
<path d="M23465 12845
L93465 12845
" />
<path d="M23465 73345
L93465 73345
" />
<path d="M23465 12845
L23465 73345
" />
<path d="M23465 13845
L23465 13845
" />
</g>
<g style="fill:#000000; fill-opacity:0.0; 
stroke:#000000; stroke-width:39.3701; stroke-opacity:1; 
stroke-linecap:round; stroke-linejoin:round;">
<path d="M67517 13034
L65942 13034
" />
<path d="M65942 13034
L65155 13821
" />
<path d="M65155 13821
L57281 13821
" />
<path d="M57281 13821
L56494 13034
" />
<path d="M56494 13034
L53344 13034
" />
<path d="M33566 37419
L33566 37144
L33671 37144
L33697 37157
L33710 37170
L33723 37196
L33723 37236
L33710 37262
L33697 37275
L33671 37288
L33566 37288
" />
<path d="M33972 37419
L33841 37419
L33841 37144
" />
<path d="M34051 37341
L34182 37341
" />
<path d="M34025 37419
L34117 37144
L34209 37419
" />
<path d="M34301 37419
L34301 37144
L34458 37419
L34458 37144
" />
<path d="M34589 37275
L34681 37275
" />
<path d="M34720 37419
L34589 37419
L34589 37144
L34720 37144
" />
<path d="M33544 36633
L33518 36620
L33478 36620
L33439 36633
L33413 36659
L33400 36685
L33387 36738
L33387 36777
L33400 36830
L33413 36856
L33439 36882
L33478 36895
L33505 36895
L33544 36882
L33557 36869
L33557 36777
L33505 36777
" />
<path d="M33833 36895
L33741 36764
" />
<path d="M33675 36895
L33675 36620
L33780 36620
L33806 36633
L33820 36646
L33833 36672
L33833 36712
L33820 36738
L33806 36751
L33780 36764
L33675 36764
" />
<path d="M34003 36620
L34056 36620
L34082 36633
L34108 36659
L34121 36712
L34121 36803
L34108 36856
L34082 36882
L34056 36895
L34003 36895
L33977 36882
L33951 36856
L33938 36803
L33938 36712
L33951 36659
L33977 36633
L34003 36620
" />
<path d="M34240 36620
L34240 36843
L34253 36869
L34266 36882
L34292 36895
L34345 36895
L34371 36882
L34384 36869
L34397 36843
L34397 36620
" />
<path d="M34528 36895
L34528 36620
L34686 36895
L34686 36620
" />
<path d="M34817 36895
L34817 36620
L34883 36620
L34922 36633
L34948 36659
L34961 36685
L34974 36738
L34974 36777
L34961 36830
L34948 36856
L34922 36882
L34883 36895
L34817 36895
" />
<path d="M33754 36357
L33623 36357
L33623 36082
" />
<path d="M33898 36082
L33951 36082
L33977 36095
L34003 36121
L34016 36174
L34016 36265
L34003 36318
L33977 36344
L33951 36357
L33898 36357
L33872 36344
L33846 36318
L33833 36265
L33833 36174
L33846 36121
L33872 36095
L33898 36082
" />
<path d="M34292 36331
L34279 36344
L34240 36357
L34213 36357
L34174 36344
L34148 36318
L34135 36292
L34121 36239
L34121 36200
L34135 36147
L34148 36121
L34174 36095
L34213 36082
L34240 36082
L34279 36095
L34292 36108
" />
<path d="M34397 36279
L34528 36279
" />
<path d="M34371 36357
L34463 36082
L34555 36357
" />
<path d="M34778 36357
L34646 36357
L34646 36082
" />
<path d="M38454 38007
L38257 38007
L38454 37895
L38257 37895
" />
<path d="M38257 37763
L38257 37726
L38266 37707
L38285 37688
L38322 37679
L38388 37679
L38425 37688
L38444 37707
L38454 37726
L38454 37763
L38444 37782
L38425 37801
L38388 37810
L38322 37810
L38285 37801
L38266 37782
L38257 37763
" />
<path d="M38454 37332
L38360 37398
" />
<path d="M38454 37445
L38257 37445
L38257 37370
L38266 37351
L38275 37341
L38294 37332
L38322 37332
L38341 37341
L38350 37351
L38360 37370
L38360 37445
" />
<path d="M38257 37210
L38257 37173
L38266 37154
L38285 37135
L38322 37126
L38388 37126
L38425 37135
L38444 37154
L38454 37173
L38454 37210
L38444 37229
L38425 37248
L38388 37257
L38322 37257
L38285 37248
L38266 37229
L38257 37210
" />
<path d="M38257 37042
L38416 37042
L38435 37032
L38444 37023
L38454 37004
L38454 36967
L38444 36948
L38435 36938
L38416 36929
L38257 36929
" />
<path d="M38257 36863
L38257 36751
" />
<path d="M38454 36807
L38257 36807
" />
<path d="M38454 36685
L38257 36685
" />
<path d="M38454 36592
L38257 36592
L38454 36479
L38257 36479
" />
<path d="M38266 36282
L38257 36301
L38257 36329
L38266 36357
L38285 36376
L38304 36385
L38341 36395
L38369 36395
L38407 36385
L38425 36376
L38444 36357
L38454 36329
L38454 36310
L38444 36282
L38435 36273
L38369 36273
L38369 36310
" />
</g> 
</svg>
