<?xml version="1.0" standalone="no"?>
 <!DOCTYPE svg PUBLIC "-//W3C//DTD SVG 1.1//EN" 
 "http://www.w3.org/Graphics/SVG/1.1/DTD/svg11.dtd"> 
<svg xmlns="http://www.w3.org/2000/svg" version="1.1" 
    width="29.7002cm" height="21.0007cm" viewBox="0 0 116930 82680 ">
<title>SVG Picture created as ThermocoupleLogger-Cmts_User.svg date 2019/03/15 20:59:27 </title>
  <desc>Picture generated by PCBNEW </desc>
<g style="fill:#000000; fill-opacity:1;stroke:#000000; stroke-opacity:1;
stroke-linecap:round; stroke-linejoin:round; "
 transform="translate(0 0) scale(1 1)">
</g>
<g style="fill:#000000; fill-opacity:0.0; 
stroke:#000000; stroke-width:-0.000787402; stroke-opacity:1; 
stroke-linecap:round; stroke-linejoin:round;">
</g>
<g style="fill:#000000; fill-opacity:0.0; 
stroke:#000000; stroke-width:78.7402; stroke-opacity:1; 
stroke-linecap:round; stroke-linejoin:round;">
<path d="M93465 12875
L93465 73375
" />
<path d="M23465 68993
L23465 68993
" />
<path d="M23465 12875
L93465 12875
" />
<path d="M23465 73375
L93465 73375
" />
<path d="M23465 12875
L23465 73375
" />
<path d="M23465 13875
L23465 13875
" />
</g>
<g style="fill:#000000; fill-opacity:0.0; 
stroke:#000000; stroke-width:39.3701; stroke-opacity:1; 
stroke-linecap:round; stroke-linejoin:round;">
<path d="M56494 13064
L53344 13064
" />
<path d="M57281 13851
L56494 13064
" />
<path d="M65155 13851
L57281 13851
" />
<path d="M65942 13064
L65155 13851
" />
<path d="M67517 13064
L65942 13064
" />
<path d="M33566 37450
L33566 37174
L33671 37174
L33697 37187
L33710 37200
L33723 37227
L33723 37266
L33710 37292
L33697 37305
L33671 37318
L33566 37318
" />
<path d="M33972 37450
L33841 37450
L33841 37174
" />
<path d="M34051 37371
L34182 37371
" />
<path d="M34025 37450
L34117 37174
L34209 37450
" />
<path d="M34301 37450
L34301 37174
L34458 37450
L34458 37174
" />
<path d="M34589 37305
L34681 37305
" />
<path d="M34720 37450
L34589 37450
L34589 37174
L34720 37174
" />
<path d="M33544 36663
L33518 36650
L33478 36650
L33439 36663
L33413 36689
L33400 36716
L33387 36768
L33387 36807
L33400 36860
L33413 36886
L33439 36912
L33478 36926
L33505 36926
L33544 36912
L33557 36899
L33557 36807
L33505 36807
" />
<path d="M33833 36926
L33741 36794
" />
<path d="M33675 36926
L33675 36650
L33780 36650
L33806 36663
L33820 36676
L33833 36703
L33833 36742
L33820 36768
L33806 36781
L33780 36794
L33675 36794
" />
<path d="M34003 36650
L34056 36650
L34082 36663
L34108 36689
L34121 36742
L34121 36834
L34108 36886
L34082 36912
L34056 36926
L34003 36926
L33977 36912
L33951 36886
L33938 36834
L33938 36742
L33951 36689
L33977 36663
L34003 36650
" />
<path d="M34240 36650
L34240 36873
L34253 36899
L34266 36912
L34292 36926
L34345 36926
L34371 36912
L34384 36899
L34397 36873
L34397 36650
" />
<path d="M34528 36926
L34528 36650
L34686 36926
L34686 36650
" />
<path d="M34817 36926
L34817 36650
L34883 36650
L34922 36663
L34948 36689
L34961 36716
L34974 36768
L34974 36807
L34961 36860
L34948 36886
L34922 36912
L34883 36926
L34817 36926
" />
<path d="M33754 36388
L33623 36388
L33623 36112
" />
<path d="M33898 36112
L33951 36112
L33977 36125
L34003 36151
L34016 36204
L34016 36296
L34003 36348
L33977 36374
L33951 36388
L33898 36388
L33872 36374
L33846 36348
L33833 36296
L33833 36204
L33846 36151
L33872 36125
L33898 36112
" />
<path d="M34292 36361
L34279 36374
L34240 36388
L34213 36388
L34174 36374
L34148 36348
L34135 36322
L34121 36269
L34121 36230
L34135 36178
L34148 36151
L34174 36125
L34213 36112
L34240 36112
L34279 36125
L34292 36138
" />
<path d="M34397 36309
L34528 36309
" />
<path d="M34371 36388
L34463 36112
L34555 36388
" />
<path d="M34778 36388
L34646 36388
L34646 36112
" />
<path d="M38454 38037
L38257 38037
L38454 37925
L38257 37925
" />
<path d="M38257 37794
L38257 37756
L38266 37737
L38285 37719
L38322 37709
L38388 37709
L38425 37719
L38444 37737
L38454 37756
L38454 37794
L38444 37812
L38425 37831
L38388 37840
L38322 37840
L38285 37831
L38266 37812
L38257 37794
" />
<path d="M38454 37362
L38360 37428
" />
<path d="M38454 37475
L38257 37475
L38257 37400
L38266 37381
L38275 37372
L38294 37362
L38322 37362
L38341 37372
L38350 37381
L38360 37400
L38360 37475
" />
<path d="M38257 37241
L38257 37203
L38266 37184
L38285 37166
L38322 37156
L38388 37156
L38425 37166
L38444 37184
L38454 37203
L38454 37241
L38444 37259
L38425 37278
L38388 37287
L38322 37287
L38285 37278
L38266 37259
L38257 37241
" />
<path d="M38257 37072
L38416 37072
L38435 37062
L38444 37053
L38454 37034
L38454 36997
L38444 36978
L38435 36969
L38416 36959
L38257 36959
" />
<path d="M38257 36894
L38257 36781
" />
<path d="M38454 36837
L38257 36837
" />
<path d="M38454 36716
L38257 36716
" />
<path d="M38454 36622
L38257 36622
L38454 36509
L38257 36509
" />
<path d="M38266 36313
L38257 36331
L38257 36359
L38266 36388
L38285 36406
L38304 36416
L38341 36425
L38369 36425
L38407 36416
L38425 36406
L38444 36388
L38454 36359
L38454 36341
L38444 36313
L38435 36303
L38369 36303
L38369 36341
" />
</g> 
</svg>
