<?xml version="1.0" standalone="no"?>
 <!DOCTYPE svg PUBLIC "-//W3C//DTD SVG 1.1//EN" 
 "http://www.w3.org/Graphics/SVG/1.1/DTD/svg11.dtd"> 
<svg xmlns="http://www.w3.org/2000/svg" version="1.1" 
    width="29.7002cm" height="21.0007cm" viewBox="0 0 116930 82680 ">
<title>SVG Picture created as ThermocoupleLogger-F_CrtYd.svg date 2019/03/28 10:52:54 </title>
  <desc>Picture generated by PCBNEW </desc>
<g style="fill:#000000; fill-opacity:1;stroke:#000000; stroke-opacity:1;
stroke-linecap:round; stroke-linejoin:round; "
 transform="translate(0 0) scale(1 1)">
</g>
<g style="fill:#000000; fill-opacity:0.0; 
stroke:#000000; stroke-width:-0.000787402; stroke-opacity:1; 
stroke-linecap:round; stroke-linejoin:round;">
</g>
<g style="fill:#000000; fill-opacity:0.0; 
stroke:#000000; stroke-width:78.7402; stroke-opacity:1; 
stroke-linecap:round; stroke-linejoin:round;">
<path d="M93734 12646
L93734 73146
" />
<path d="M23734 68764
L23734 68764
" />
<path d="M23734 12646
L93734 12646
" />
<path d="M23734 73146
L93734 73146
" />
<path d="M23734 12646
L23734 73146
" />
<path d="M23734 13646
L23734 13646
" />
</g>
<g style="fill:#000000; fill-opacity:0.0; 
stroke:#000000; stroke-width:39.3701; stroke-opacity:1; 
stroke-linecap:round; stroke-linejoin:round;">
<path d="M29643 72390
L36257 72390
" />
<path d="M29643 67075
L29643 72390
" />
<path d="M36257 67075
L29643 67075
" />
<path d="M36257 72390
L36257 67075
" />
<path d="M29643 72390
L36257 72390
" />
<path d="M29643 67075
L29643 72390
" />
<path d="M36257 67075
L29643 67075
" />
<path d="M36257 72390
L36257 67075
" />
<path d="M36643 72390
L43257 72390
" />
<path d="M36643 67075
L36643 72390
" />
<path d="M43257 67075
L36643 67075
" />
<path d="M43257 72390
L43257 67075
" />
<path d="M43643 72390
L50257 72390
" />
<path d="M43643 67075
L43643 72390
" />
<path d="M50257 67075
L43643 67075
" />
<path d="M50257 72390
L50257 67075
" />
<path d="M50643 72390
L57257 72390
" />
<path d="M50643 67075
L50643 72390
" />
<path d="M57257 67075
L50643 67075
" />
<path d="M57257 72390
L57257 67075
" />
<path d="M64611 72390
L71225 72390
" />
<path d="M64611 67075
L64611 72390
" />
<path d="M71225 67075
L64611 67075
" />
<path d="M71225 72390
L71225 67075
" />
<path d="M71611 72390
L78225 72390
" />
<path d="M71611 67075
L71611 72390
" />
<path d="M78225 67075
L71611 67075
" />
<path d="M78225 72390
L78225 67075
" />
<path d="M78611 72390
L85225 72390
" />
<path d="M78611 67075
L78611 72390
" />
<path d="M85225 67075
L78611 67075
" />
<path d="M85225 72390
L85225 67075
" />
<path d="M35809 35502
L42659 35502
" />
<path d="M35809 39990
L35809 35502
" />
<path d="M42659 39990
L35809 39990
" />
<path d="M42659 35502
L42659 39990
" />
<path d="M41918 32329
L40461 32329
" />
<path d="M40461 32329
L40461 32959
" />
<path d="M40461 32959
L38807 32959
" />
<path d="M38807 32959
L38807 32329
" />
<path d="M38807 32329
L37351 32329
" />
<path d="M37351 28668
L37351 32329
" />
<path d="M41918 28668
L41918 32329
" />
<path d="M38256 27762
L37351 28668
" />
<path d="M41012 27762
L41918 28668
" />
<path d="M41012 27762
L40461 27762
" />
<path d="M38807 27762
L38256 27762
" />
<path d="M40461 27762
L40461 27132
" />
<path d="M40461 27132
L38807 27132
" />
<path d="M38807 27132
L38807 27762
" />
<path d="M57643 72390
L64257 72390
" />
<path d="M57643 67075
L57643 72390
" />
<path d="M64257 67075
L57643 67075
" />
<path d="M64257 72390
L64257 67075
" />
<path d="M44178 19854
L38863 19854
" />
<path d="M38863 19854
L38863 26468
" />
<path d="M38863 26468
L44178 26468
" />
<path d="M44178 26468
L44178 19854
" />
<path d="M40957 49490
L40957 44175
" />
<path d="M40957 44175
L26469 44175
" />
<path d="M26469 44175
L26469 49490
" />
<path d="M26469 49490
L40957 49490
" />
<path d="M66803 12835
L66803 15590
" />
<path d="M66803 15590
L67590 15590
" />
<path d="M67590 15590
L67590 17756
" />
<path d="M67590 17756
L66803 17756
" />
<path d="M66803 17756
L66803 23465
" />
<path d="M66803 23465
L67590 23465
" />
<path d="M67590 23465
L67590 25039
" />
<path d="M67590 25039
L66409 25039
" />
<path d="M66409 25039
L66409 25433
" />
<path d="M66409 25433
L58535 25433
" />
<path d="M58535 25433
L58535 24449
" />
<path d="M58535 24449
L56173 24449
" />
<path d="M56173 24449
L56173 25039
" />
<path d="M56173 25039
L54401 25039
" />
<path d="M54401 25039
L54401 23465
" />
<path d="M54401 23465
L54598 23465
" />
<path d="M54598 23465
L54598 17756
" />
<path d="M54598 17756
L53810 17756
" />
<path d="M53810 17756
L53810 15590
" />
<path d="M53810 15590
L54598 15590
" />
<path d="M54598 15590
L54598 12835
" />
<path d="M45994 12546
L53474 12546
" />
<path d="M45994 19633
L45994 12546
" />
<path d="M44419 19633
L45994 19633
" />
<path d="M44419 22783
L44419 19633
" />
<path d="M45994 22783
L44419 22783
" />
<path d="M45994 24357
L45994 22783
" />
<path d="M48159 24357
L45994 24357
" />
<path d="M48159 25145
L48159 24357
" />
<path d="M51309 25145
L48159 25145
" />
<path d="M51309 24357
L51309 25145
" />
<path d="M53277 24357
L51309 24357
" />
<path d="M53474 24357
L53474 12546
" />
<path d="M53277 24357
L53474 24357
" />
<path d="M26488 43117
L33181 43117
" />
<path d="M26488 40165
L26488 43117
" />
<path d="M33181 40165
L26488 40165
" />
<path d="M33181 43117
L33181 40165
" />
<path d="M75384 55166
L83100 55166
" />
<path d="M75384 40717
L75384 55166
" />
<path d="M83100 40717
L75384 40717
" />
<path d="M83100 55166
L83100 40717
" />
<path d="M53197 29586
L43071 29586
" />
<path d="M53197 32105
L53197 29586
" />
<path d="M43071 32105
L53197 32105
" />
<path d="M43071 29586
L43071 32105
" />
<path d="M54235 32230
L54235 26718
" />
<path d="M54432 26521
L61518 26521
" />
<path d="M61715 26718
L61715 32230
" />
<path d="M61518 32427
L54432 32427
" />
<path d="M61715 26521
L61518 26521
" />
<path d="M61715 26718
L61715 26521
" />
<path d="M61715 32427
L61518 32427
" />
<path d="M61715 32230
L61715 32427
" />
<path d="M54235 32427
L54235 32230
" />
<path d="M54432 32427
L54235 32427
" />
<path d="M54235 26521
L54235 26718
" />
<path d="M54432 26521
L54235 26521
" />
<path d="M67853 19073
L67853 13561
" />
<path d="M68050 13365
L75136 13365
" />
<path d="M75333 13561
L75333 19073
" />
<path d="M75136 19270
L68050 19270
" />
<path d="M75333 13365
L75136 13365
" />
<path d="M75333 13561
L75333 13365
" />
<path d="M75333 19270
L75136 19270
" />
<path d="M75333 19073
L75333 19270
" />
<path d="M67853 19270
L67853 19073
" />
<path d="M68050 19270
L67853 19270
" />
<path d="M67853 13365
L67853 13561
" />
<path d="M68050 13365
L67853 13365
" />
<path d="M73809 39463
L78651 39463
" />
<path d="M73809 32652
L73809 39463
" />
<path d="M78651 32652
L73809 32652
" />
<path d="M78651 39463
L78651 32652
" />
<path d="M30999 33310
L36669 33310
" />
<path d="M36669 33310
L36669 26381
" />
<path d="M36669 26381
L30999 26381
" />
<path d="M30999 26381
L30999 33310
" />
<path d="M31357 17812
L31357 26079
" />
<path d="M35223 17812
L31357 17812
" />
<path d="M35223 26079
L35223 17812
" />
<path d="M31357 26079
L35223 26079
" />
<path d="M39825 16707
L43243 16707
" />
<path d="M39825 16707
L39825 19384
" />
<path d="M43243 19384
L43243 16707
" />
<path d="M43243 19384
L39825 19384
" />
<circle cx="34634.6" cy="36698.1" r="1535.43" /> 
<path d="M43714 32995
L43714 40712
" />
<path d="M72139 32995
L43714 32995
" />
<path d="M72139 40712
L72139 32995
" />
<path d="M43714 40712
L72139 40712
" />
<path d="M71955 59580
L71955 45919
" />
<path d="M43529 59580
L71955 59580
" />
<path d="M43529 45919
L43529 59580
" />
<path d="M71955 45919
L43529 45919
" />
<path d="M57120 45450
L66490 45450
" />
<path d="M57120 41041
L57120 45450
" />
<path d="M66490 41041
L57120 41041
" />
<path d="M66490 45450
L66490 41041
" />
<path d="M36586 23442
L38082 23442
" />
<path d="M38082 23442
L38082 20923
" />
<path d="M36586 20923
L38082 20923
" />
<path d="M36586 23442
L36586 20923
" />
<path d="M73329 28696
L75140 28696
" />
<path d="M75140 24995
L75140 28696
" />
<path d="M73329 24995
L75140 24995
" />
<path d="M73329 28696
L73329 24995
" />
<path d="M70429 28696
L72240 28696
" />
<path d="M72240 24995
L72240 28696
" />
<path d="M70429 24995
L72240 24995
" />
<path d="M70429 28696
L70429 24995
" />
<path d="M67709 28696
L69520 28696
" />
<path d="M69520 24995
L69520 28696
" />
<path d="M67709 24995
L69520 24995
" />
<path d="M67709 28696
L67709 24995
" />
<path d="M36157 44094
L33511 44094
" />
<path d="M36157 42598
L36157 44094
" />
<path d="M33511 42598
L36157 42598
" />
<path d="M33511 44094
L33511 42598
" />
<path d="M36157 42344
L33511 42344
" />
<path d="M36157 40848
L36157 42344
" />
<path d="M33511 40848
L36157 40848
" />
<path d="M33511 42344
L33511 40848
" />
<path d="M50686 44768
L50686 42123
" />
<path d="M52182 44768
L50686 44768
" />
<path d="M52182 42123
L52182 44768
" />
<path d="M50686 42123
L52182 42123
" />
<path d="M39282 16723
L39282 19368
" />
<path d="M37786 16723
L39282 16723
" />
<path d="M37786 19368
L37786 16723
" />
<path d="M39282 19368
L37786 19368
" />
<path d="M67582 29823
L67582 32468
" />
<path d="M66086 29823
L67582 29823
" />
<path d="M66086 32468
L66086 29823
" />
<path d="M67582 32468
L66086 32468
" />
<path d="M63882 25823
L63882 28468
" />
<path d="M62386 25823
L63882 25823
" />
<path d="M62386 28468
L62386 25823
" />
<path d="M63882 28468
L62386 28468
" />
<path d="M69982 29823
L69982 32468
" />
<path d="M68486 29823
L69982 29823
" />
<path d="M68486 32468
L68486 29823
" />
<path d="M69982 32468
L68486 32468
" />
<path d="M28911 35898
L31557 35898
" />
<path d="M28911 37394
L28911 35898
" />
<path d="M31557 37394
L28911 37394
" />
<path d="M31557 35898
L31557 37394
" />
<path d="M62682 63823
L62682 66468
" />
<path d="M61186 63823
L62682 63823
" />
<path d="M61186 66468
L61186 63823
" />
<path d="M62682 66468
L61186 66468
" />
<path d="M73186 66468
L73186 63823
" />
<path d="M74682 66468
L73186 66468
" />
<path d="M74682 63823
L74682 66468
" />
<path d="M73186 63823
L74682 63823
" />
<path d="M34682 63783
L34682 66428
" />
<path d="M33186 63783
L34682 63783
" />
<path d="M33186 66428
L33186 63783
" />
<path d="M34682 66428
L33186 66428
" />
<path d="M31226 66428
L31226 63783
" />
<path d="M32722 66428
L31226 66428
" />
<path d="M32722 63783
L32722 66428
" />
<path d="M31226 63783
L32722 63783
" />
<path d="M38186 66468
L38186 63823
" />
<path d="M39682 66468
L38186 66468
" />
<path d="M39682 63823
L39682 66468
" />
<path d="M38186 63823
L39682 63823
" />
<path d="M45186 66468
L45186 63823
" />
<path d="M46682 66468
L45186 66468
" />
<path d="M46682 63823
L46682 66468
" />
<path d="M45186 63823
L46682 63823
" />
<path d="M52186 66468
L52186 63823
" />
<path d="M53682 66468
L52186 66468
" />
<path d="M53682 63823
L53682 66468
" />
<path d="M52186 63823
L53682 63823
" />
<path d="M59186 66468
L59186 63823
" />
<path d="M60682 66468
L59186 66468
" />
<path d="M60682 63823
L60682 66468
" />
<path d="M59186 63823
L60682 63823
" />
<path d="M66186 66468
L66186 63823
" />
<path d="M67682 66468
L66186 66468
" />
<path d="M67682 63823
L67682 66468
" />
<path d="M66186 63823
L67682 63823
" />
<path d="M80186 66468
L80186 63823
" />
<path d="M81682 66468
L80186 66468
" />
<path d="M81682 63823
L81682 66468
" />
<path d="M80186 63823
L81682 63823
" />
<path d="M41682 63823
L41682 66468
" />
<path d="M40186 63823
L41682 63823
" />
<path d="M40186 66468
L40186 63823
" />
<path d="M41682 66468
L40186 66468
" />
<path d="M48682 63823
L48682 66468
" />
<path d="M47186 63823
L48682 63823
" />
<path d="M47186 66468
L47186 63823
" />
<path d="M48682 66468
L47186 66468
" />
<path d="M55682 63823
L55682 66468
" />
<path d="M54186 63823
L55682 63823
" />
<path d="M54186 66468
L54186 63823
" />
<path d="M55682 66468
L54186 66468
" />
<path d="M69682 63823
L69682 66468
" />
<path d="M68186 63823
L69682 63823
" />
<path d="M68186 66468
L68186 63823
" />
<path d="M69682 66468
L68186 66468
" />
<path d="M76682 63823
L76682 66468
" />
<path d="M75186 63823
L76682 63823
" />
<path d="M75186 66468
L75186 63823
" />
<path d="M76682 66468
L75186 66468
" />
<path d="M83682 63823
L83682 66468
" />
<path d="M82186 63823
L83682 63823
" />
<path d="M82186 66468
L82186 63823
" />
<path d="M83682 66468
L82186 66468
" />
<path d="M34257 63494
L31611 63494
" />
<path d="M34257 61998
L34257 63494
" />
<path d="M31611 61998
L34257 61998
" />
<path d="M31611 63494
L31611 61998
" />
<path d="M69257 63494
L66611 63494
" />
<path d="M69257 61998
L69257 63494
" />
<path d="M66611 61998
L69257 61998
" />
<path d="M66611 63494
L66611 61998
" />
<path d="M62257 63494
L59611 63494
" />
<path d="M62257 61998
L62257 63494
" />
<path d="M59611 61998
L62257 61998
" />
<path d="M59611 63494
L59611 61998
" />
<path d="M41257 63494
L38611 63494
" />
<path d="M41257 61998
L41257 63494
" />
<path d="M38611 61998
L41257 61998
" />
<path d="M38611 63494
L38611 61998
" />
<path d="M48257 63494
L45611 63494
" />
<path d="M48257 61998
L48257 63494
" />
<path d="M45611 61998
L48257 61998
" />
<path d="M45611 63494
L45611 61998
" />
<path d="M55257 63494
L52611 63494
" />
<path d="M55257 61998
L55257 63494
" />
<path d="M52611 61998
L55257 61998
" />
<path d="M52611 63494
L52611 61998
" />
<path d="M76257 63494
L73611 63494
" />
<path d="M76257 61998
L76257 63494
" />
<path d="M73611 61998
L76257 61998
" />
<path d="M73611 63494
L73611 61998
" />
<path d="M83257 63494
L80611 63494
" />
<path d="M83257 61998
L83257 63494
" />
<path d="M80611 61998
L83257 61998
" />
<path d="M80611 63494
L80611 61998
" />
<path d="M37811 14498
L40457 14498
" />
<path d="M37811 15994
L37811 14498
" />
<path d="M40457 15994
L37811 15994
" />
<path d="M40457 14498
L40457 15994
" />
<path d="M54186 44568
L54186 41923
" />
<path d="M55682 44568
L54186 44568
" />
<path d="M55682 41923
L55682 44568
" />
<path d="M54186 41923
L55682 41923
" />
<path d="M73486 54268
L73486 51623
" />
<path d="M74982 54268
L73486 54268
" />
<path d="M74982 51623
L74982 54268
" />
<path d="M73486 51623
L74982 51623
" />
<path d="M31557 35394
L28911 35394
" />
<path d="M31557 33898
L31557 35394
" />
<path d="M28911 33898
L31557 33898
" />
<path d="M28911 35394
L28911 33898
" />
<path d="M67986 44368
L67986 41723
" />
<path d="M69482 44368
L67986 44368
" />
<path d="M69482 41723
L69482 44368
" />
<path d="M67986 41723
L69482 41723
" />
<path d="M29618 28814
L29618 18263
" />
<path d="M24303 28814
L29618 28814
" />
<path d="M24303 18263
L24303 28814
" />
<path d="M29618 18263
L24303 18263
" />
<path d="M31696 16472
L32444 16472
" />
<path d="M31696 14819
L31696 16472
" />
<path d="M32444 14819
L31696 14819
" />
<path d="M32444 16472
L32444 16630
" />
<path d="M32444 14661
L32444 14819
" />
<path d="M32444 14661
L33350 13756
" />
<path d="M32444 16630
L33350 17535
" />
<path d="M33350 13756
L36224 13756
" />
<path d="M33350 17535
L36224 17535
" />
<path d="M36224 16472
L36224 17535
" />
<path d="M36972 16472
L36224 16472
" />
<path d="M36972 14819
L36972 16472
" />
<path d="M36224 14819
L36972 14819
" />
<path d="M36224 13756
L36224 14819
" />
<path d="M81282 36523
L81282 39168
" />
<path d="M79786 36523
L81282 36523
" />
<path d="M79786 39168
L79786 36523
" />
<path d="M81282 39168
L79786 39168
" />
<g >
</g>
<g >
</g>
<g >
</g>
<g >
</g>
<g >
</g>
<g >
</g>
<g >
</g>
<g >
</g>
<g >
</g>
<g >
</g>
<g >
</g>
<g >
</g>
<g >
</g>
<g >
</g>
<g >
</g>
<g >
</g>
<g >
</g>
<g >
</g>
<g >
</g>
<g >
</g>
<g >
</g>
<g >
</g>
<g >
</g>
<g >
</g>
<g >
</g>
<g >
</g>
<g >
</g>
<g >
</g>
<g >
</g>
<g >
</g>
<g >
</g>
<g >
</g>
<g >
</g>
<g >
</g>
<g >
</g>
<g >
</g>
<g >
</g>
<g >
</g>
<g >
</g>
<g >
</g>
<g >
</g>
<g >
</g>
<g >
</g>
<g >
</g>
<g >
</g>
<g >
</g>
<g >
</g>
<g >
</g>
<g >
</g>
<g >
</g>
<g >
</g>
<g >
</g>
<g >
</g>
<g >
</g>
<g >
</g>
<g >
</g>
<g >
</g>
<g >
</g>
<g >
</g>
<g >
</g>
<g >
</g>
<g >
</g>
<g >
</g>
<g >
</g>
<g >
</g>
<g >
</g>
<g >
</g>
<g >
</g>
<g >
</g>
<g >
</g>
<g >
</g>
<g >
</g>
<g >
</g>
<g >
</g>
</g> 
</svg>
