<?xml version="1.0" standalone="no"?>
 <!DOCTYPE svg PUBLIC "-//W3C//DTD SVG 1.1//EN" 
 "http://www.w3.org/Graphics/SVG/1.1/DTD/svg11.dtd"> 
<svg xmlns="http://www.w3.org/2000/svg" version="1.1" 
    width="29.7002cm" height="21.0007cm" viewBox="0 0 116930 82680 ">
<title>SVG Picture created as ThermocoupleLogger-F_SilkS.svg date 2019/03/28 10:52:54 </title>
  <desc>Picture generated by PCBNEW </desc>
<g style="fill:#000000; fill-opacity:1;stroke:#000000; stroke-opacity:1;
stroke-linecap:round; stroke-linejoin:round; "
 transform="translate(0 0) scale(1 1)">
</g>
<g style="fill:#000000; fill-opacity:0.0; 
stroke:#000000; stroke-width:-0.000787402; stroke-opacity:1; 
stroke-linecap:round; stroke-linejoin:round;">
</g>
<g style="fill:#000000; fill-opacity:0.0; 
stroke:#000000; stroke-width:78.7402; stroke-opacity:1; 
stroke-linecap:round; stroke-linejoin:round;">
<path d="M93734 12646
L93734 73146
" />
<path d="M23734 68764
L23734 68764
" />
<path d="M23734 12646
L93734 12646
" />
</g>
<g style="fill:#000000; fill-opacity:0.0; 
stroke:#000000; stroke-width:196.85; stroke-opacity:1; 
stroke-linecap:round; stroke-linejoin:round;">
<path d="M25378 30324
L25415 30253
L25415 30103
L25378 30024
L25303 29939
L25228 29893
L25078 29874
L25003 29902
L24928 29968
L24890 30038
L24890 30188
L24928 30267
" />
<path d="M25678 30211
L25640 30019
L25528 29818
L25340 29682
L25153 29621
L24965 29635
L24778 29724
L24665 29897
L24628 30080
L24665 30272
L24778 30474
L24965 30610
L25153 30671
L25340 30657
L25528 30567
L25640 30394
L25678 30211
" />
<path d="M25490 31013
L25528 31055
L25565 31135
L25565 31322
L25528 31392
L25490 31425
L25415 31453
L25340 31444
L25228 31392
L24778 30886
L24778 31374
" />
<path d="M25565 31959
L25565 32034
L25528 32105
L25490 32138
L25415 32166
L25265 32184
L25078 32161
L24928 32105
L24853 32058
L24815 32016
L24778 31936
L24778 31861
L24815 31791
L24853 31758
L24928 31730
L25078 31711
L25265 31734
L25415 31791
L25490 31838
L25528 31880
L25565 31959
" />
<path d="M24778 32873
L24778 32423
" />
<path d="M24778 32648
L25565 32747
L25453 32658
L25378 32573
L25340 32494
" />
<path d="M25565 33234
L25565 33759
L24778 33323
" />
<path d="M24815 34003
L24778 33998
L24703 33951
L24665 33909
" />
<path d="M25565 35259
L25003 35189
L24890 35137
L24815 35053
L24778 34936
L24778 34861
" />
<path d="M24778 35536
L25565 35634
L25565 35934
L25528 36004
L25490 36037
L25415 36065
L25303 36051
L25228 36004
L25190 35962
L25153 35882
L25153 35582
" />
<path d="M25190 36974
L25190 37237
" />
<path d="M24778 37298
L24778 36923
L25565 37021
L25565 37396
" />
<path d="M25303 37701
L24778 37635
" />
<path d="M25228 37692
L25265 37734
L25303 37813
L25303 37926
L25265 37996
L25190 38024
L24778 37973
" />
<path d="M25303 38301
L25303 38601
" />
<path d="M25565 38446
L24890 38362
L24815 38390
L24778 38460
L24778 38535
" />
<path d="M24815 39102
L24778 39023
L24778 38873
L24815 38802
L24890 38774
L25190 38812
L25265 38859
L25303 38938
L25303 39088
L25265 39159
L25190 39187
L25115 39177
L25040 38793
" />
<path d="M24778 39473
L25303 39538
" />
<path d="M25153 39519
L25228 39566
L25265 39609
L25303 39688
L25303 39763
" />
<path d="M25303 40026
L24515 39927
" />
<path d="M25265 40021
L25303 40101
L25303 40251
L25265 40321
L25228 40354
L25153 40382
L24928 40354
L24853 40307
L24815 40265
L24778 40185
L24778 40035
L24815 39965
" />
<path d="M24778 40672
L25303 40738
" />
<path d="M25153 40719
L25228 40766
L25265 40808
L25303 40888
L25303 40963
" />
<path d="M24778 41160
L25303 41225
" />
<path d="M25565 41258
L25528 41216
L25490 41249
L25528 41291
L25565 41258
L25490 41249
" />
<path d="M24815 41502
L24778 41572
L24778 41722
L24815 41802
L24890 41849
L24928 41854
L25003 41825
L25040 41755
L25040 41643
L25078 41572
L25153 41544
L25190 41549
L25265 41596
L25303 41675
L25303 41788
L25265 41858
" />
<path d="M24815 42477
L24778 42397
L24778 42247
L24815 42177
L24890 42149
L25190 42186
L25265 42233
L25303 42313
L25303 42463
L25265 42533
L25190 42561
L25115 42552
L25040 42168
" />
<path d="M24815 42814
L24778 42885
L24778 43035
L24815 43114
L24890 43161
L24928 43166
L25003 43138
L25040 43067
L25040 42955
L25078 42885
L25153 42857
L25190 42861
L25265 42908
L25303 42988
L25303 43100
L25265 43171
" />
</g>
<g style="fill:#000000; fill-opacity:0.0; 
stroke:#000000; stroke-width:236.22; stroke-opacity:1; 
stroke-linecap:round; stroke-linejoin:round;">
<path d="M69384 14230
L70284 14230
" />
<path d="M74184 14230
L75084 14230
" />
<path d="M74634 14680
L74634 13780
" />
</g>
<g style="fill:#000000; fill-opacity:0.0; 
stroke:#000000; stroke-width:118.11; stroke-opacity:1; 
stroke-linecap:round; stroke-linejoin:round;">
<path d="M70559 20602
L70297 20227
" />
<path d="M70109 20602
L70109 19814
L70409 19814
L70484 19852
L70522 19889
L70559 19964
L70559 20077
L70522 20152
L70484 20189
L70409 20227
L70109 20227
" />
<path d="M71197 20564
L71122 20602
L70972 20602
L70897 20564
L70859 20489
L70859 20189
L70897 20114
L70972 20077
L71122 20077
L71197 20114
L71234 20189
L71234 20264
L70859 20339
" />
<path d="M71534 20564
L71609 20602
L71759 20602
L71834 20564
L71872 20489
L71872 20452
L71834 20377
L71759 20339
L71647 20339
L71572 20302
L71534 20227
L71534 20189
L71572 20114
L71647 20077
L71759 20077
L71834 20114
" />
<path d="M72509 20564
L72434 20602
L72284 20602
L72209 20564
L72171 20489
L72171 20189
L72209 20114
L72284 20077
L72434 20077
L72509 20114
L72546 20189
L72546 20264
L72171 20339
" />
<path d="M72771 20077
L73071 20077
" />
<path d="M72884 19814
L72884 20489
L72921 20564
L72996 20602
L73071 20602
" />
</g>
<g style="fill:#000000; fill-opacity:0.0; 
stroke:#000000; stroke-width:236.22; stroke-opacity:1; 
stroke-linecap:round; stroke-linejoin:round;">
<path d="M91393 67819
L91337 67931
L91281 67988
L91168 68044
L91112 68044
L91000 67988
L90944 67931
L90887 67819
L90887 67594
L90944 67481
L91000 67425
L91112 67369
L91168 67369
L91281 67425
L91337 67481
L91393 67594
L91393 67819
L91450 67931
L91506 67988
L91618 68044
L91843 68044
L91956 67988
L92012 67931
L92068 67819
L92068 67594
L92012 67481
L91956 67425
L91843 67369
L91618 67369
L91506 67425
L91450 67481
L91393 67594
" />
<path d="M91618 66863
L91618 65963
" />
<path d="M91956 64725
L92012 64782
L92068 64950
L92068 65063
L92012 65232
L91900 65344
L91787 65400
L91562 65457
L91393 65457
L91168 65400
L91056 65344
L90944 65232
L90887 65063
L90887 64950
L90944 64782
L91000 64725
" />
<path d="M92068 64219
L90887 64219
" />
<path d="M92068 63713
L91450 63713
L91337 63769
L91281 63882
L91281 64051
L91337 64163
L91393 64219
" />
<path d="M92068 62644
L91450 62644
L91337 62701
L91281 62813
L91281 63038
L91337 63151
" />
<path d="M92012 62644
L92068 62757
L92068 63038
L92012 63151
L91900 63207
L91787 63207
L91675 63151
L91618 63038
L91618 62757
L91562 62644
" />
<path d="M91281 62082
L92068 62082
" />
<path d="M91393 62082
L91337 62026
L91281 61913
L91281 61745
L91337 61632
L91450 61576
L92068 61576
" />
<path d="M91281 61013
L92068 61013
" />
<path d="M91393 61013
L91337 60957
L91281 60845
L91281 60676
L91337 60563
L91450 60507
L92068 60507
" />
<path d="M92012 59495
L92068 59607
L92068 59832
L92012 59945
L91900 60001
L91450 60001
L91337 59945
L91281 59832
L91281 59607
L91337 59495
L91450 59439
L91562 59439
L91675 60001
" />
<path d="M92068 58764
L92012 58876
L91900 58932
L90887 58932
" />
<path d="M90887 57583
L90887 56908
" />
<path d="M92068 57245
L90887 57245
" />
<path d="M92068 56514
L90887 56514
" />
<path d="M92068 56008
L91450 56008
L91337 56064
L91281 56177
L91281 56345
L91337 56458
L91393 56514
" />
<path d="M92012 54995
L92068 55108
L92068 55333
L92012 55445
L91900 55502
L91450 55502
L91337 55445
L91281 55333
L91281 55108
L91337 54995
L91450 54939
L91562 54939
L91675 55502
" />
<path d="M92068 54433
L91281 54433
" />
<path d="M91506 54433
L91393 54377
L91337 54321
L91281 54208
L91281 54096
" />
<path d="M92068 53702
L91281 53702
" />
<path d="M91393 53702
L91337 53646
L91281 53533
L91281 53364
L91337 53252
L91450 53196
L92068 53196
" />
<path d="M91450 53196
L91337 53139
L91281 53027
L91281 52858
L91337 52746
L91450 52689
L92068 52689
" />
<path d="M92068 51958
L92012 52071
L91956 52127
L91843 52183
L91506 52183
L91393 52127
L91337 52071
L91281 51958
L91281 51790
L91337 51677
L91393 51621
L91506 51565
L91843 51565
L91956 51621
L92012 51677
L92068 51790
L92068 51958
" />
<path d="M92012 50552
L92068 50665
L92068 50890
L92012 51002
L91956 51058
L91843 51115
L91506 51115
L91393 51058
L91337 51002
L91281 50890
L91281 50665
L91337 50552
" />
<path d="M92068 49877
L92012 49990
L91956 50046
L91843 50102
L91506 50102
L91393 50046
L91337 49990
L91281 49877
L91281 49709
L91337 49596
L91393 49540
L91506 49484
L91843 49484
L91956 49540
L92012 49596
L92068 49709
L92068 49877
" />
<path d="M91281 48471
L92068 48471
" />
<path d="M91281 48977
L91900 48977
L92012 48921
L92068 48809
L92068 48640
L92012 48527
L91956 48471
" />
<path d="M91281 47909
L92462 47909
" />
<path d="M91337 47909
L91281 47796
L91281 47571
L91337 47459
L91393 47403
L91506 47346
L91843 47346
L91956 47403
L92012 47459
L92068 47571
L92068 47796
L92012 47909
" />
<path d="M92068 46671
L92012 46784
L91900 46840
L90887 46840
" />
<path d="M92012 45772
L92068 45884
L92068 46109
L92012 46222
L91900 46278
L91450 46278
L91337 46222
L91281 46109
L91281 45884
L91337 45772
L91450 45715
L91562 45715
L91675 46278
" />
<path d="M92068 44141
L92012 44253
L91900 44309
L90887 44309
" />
<path d="M92068 43522
L92012 43634
L91956 43691
L91843 43747
L91506 43747
L91393 43691
L91337 43634
L91281 43522
L91281 43353
L91337 43241
L91393 43184
L91506 43128
L91843 43128
L91956 43184
L92012 43241
L92068 43353
L92068 43522
" />
<path d="M91281 42116
L92237 42116
L92350 42172
L92406 42228
L92462 42341
L92462 42509
L92406 42622
" />
<path d="M92012 42116
L92068 42228
L92068 42453
L92012 42566
L91956 42622
L91843 42678
L91506 42678
L91393 42622
L91337 42566
L91281 42453
L91281 42228
L91337 42116
" />
<path d="M91281 41047
L92237 41047
L92350 41103
L92406 41160
L92462 41272
L92462 41441
L92406 41553
" />
<path d="M92012 41047
L92068 41160
L92068 41385
L92012 41497
L91956 41553
L91843 41610
L91506 41610
L91393 41553
L91337 41497
L91281 41385
L91281 41160
L91337 41047
" />
<path d="M92012 40035
L92068 40147
L92068 40372
L92012 40485
L91900 40541
L91450 40541
L91337 40485
L91281 40372
L91281 40147
L91337 40035
L91450 39979
L91562 39979
L91675 40541
" />
<path d="M92068 39472
L91281 39472
" />
<path d="M91506 39472
L91393 39416
L91337 39360
L91281 39247
L91281 39135
" />
</g>
<g style="fill:#000000; fill-opacity:0.0; 
stroke:#000000; stroke-width:78.7402; stroke-opacity:1; 
stroke-linecap:round; stroke-linejoin:round;">
<path d="M23734 73146
L93734 73146
" />
<path d="M23734 12646
L23734 73146
" />
<path d="M23734 13646
L23734 13646
" />
</g>
<g style="fill:#000000; fill-opacity:0.0; 
stroke:#000000; stroke-width:118.11; stroke-opacity:1; 
stroke-linecap:round; stroke-linejoin:round;">
<path d="M30203 52002
L30203 51214
L30391 51214
L30503 51252
L30578 51327
L30616 51402
L30653 51552
L30653 51664
L30616 51814
L30578 51889
L30503 51964
L30391 52002
L30203 52002
" />
<path d="M30990 52002
L30990 51477
" />
<path d="M30990 51214
L30953 51252
L30990 51289
L31028 51252
L30990 51214
L30990 51289
" />
<path d="M31328 51964
L31403 52002
L31553 52002
L31628 51964
L31665 51889
L31665 51852
L31628 51777
L31553 51739
L31440 51739
L31365 51702
L31328 51627
L31328 51589
L31365 51514
L31440 51477
L31553 51477
L31628 51514
" />
<path d="M32003 51477
L32003 52264
" />
<path d="M32003 51514
L32078 51477
L32228 51477
L32303 51514
L32340 51552
L32378 51627
L32378 51852
L32340 51927
L32303 51964
L32228 52002
L32078 52002
L32003 51964
" />
<path d="M32828 52002
L32753 51964
L32715 51889
L32715 51214
" />
<path d="M33465 52002
L33465 51589
L33428 51514
L33353 51477
L33203 51477
L33128 51514
" />
<path d="M33465 51964
L33390 52002
L33203 52002
L33128 51964
L33090 51889
L33090 51814
L33128 51739
L33203 51702
L33390 51702
L33465 51664
" />
<path d="M33765 51477
L33953 52002
" />
<path d="M34140 51477
L33953 52002
L33878 52189
L33840 52227
L33765 52264
" />
</g>
<g style="fill:#000000; fill-opacity:0.0; 
stroke:#000000; stroke-width:94.4882; stroke-opacity:1; 
stroke-linecap:round; stroke-linejoin:round;">
<path d="M36178 72311
L36178 71327
" />
<path d="M35194 72311
L36178 72311
" />
<path d="M30548 67980
L32950 67980
" />
<path d="M30548 70303
L30548 67980
" />
<path d="M29958 70303
L30548 70303
" />
<path d="M35351 67980
L32950 67980
" />
<path d="M35351 70303
L35351 67980
" />
<path d="M35942 70303
L35351 70303
" />
<path d="M29958 72075
L31375 72075
" />
<path d="M29958 71484
L29958 72075
" />
<path d="M31375 71484
L29958 71484
" />
<path d="M31375 72075
L31375 71484
" />
<path d="M34525 72075
L35942 72075
" />
<path d="M34525 71484
L34525 72075
" />
<path d="M35942 71484
L34525 71484
" />
<path d="M35942 72075
L35942 71484
" />
<path d="M32556 72075
L33344 72075
" />
<path d="M32556 71484
L32556 72075
" />
<path d="M33344 71484
L32556 71484
" />
<path d="M33344 72075
L33344 71484
" />
<path d="M29950 72083
L35950 72083
" />
<path d="M29950 67382
L29950 72083
" />
<path d="M35950 67382
L29950 67382
" />
<path d="M35950 72083
L35950 67382
" />
<path d="M36178 72311
L36178 71327
" />
<path d="M35194 72311
L36178 72311
" />
<path d="M30548 67980
L32950 67980
" />
<path d="M30548 70303
L30548 67980
" />
<path d="M29958 70303
L30548 70303
" />
<path d="M35351 67980
L32950 67980
" />
<path d="M35351 70303
L35351 67980
" />
<path d="M35942 70303
L35351 70303
" />
<path d="M29958 72075
L31375 72075
" />
<path d="M29958 71484
L29958 72075
" />
<path d="M31375 71484
L29958 71484
" />
<path d="M31375 72075
L31375 71484
" />
<path d="M34525 72075
L35942 72075
" />
<path d="M34525 71484
L34525 72075
" />
<path d="M35942 71484
L34525 71484
" />
<path d="M35942 72075
L35942 71484
" />
<path d="M32556 72075
L33344 72075
" />
<path d="M32556 71484
L32556 72075
" />
<path d="M33344 71484
L32556 71484
" />
<path d="M33344 72075
L33344 71484
" />
<path d="M29950 72083
L35950 72083
" />
<path d="M29950 67382
L29950 72083
" />
<path d="M35950 67382
L29950 67382
" />
<path d="M35950 72083
L35950 67382
" />
<path d="M43178 72311
L43178 71327
" />
<path d="M42194 72311
L43178 72311
" />
<path d="M37548 67980
L39950 67980
" />
<path d="M37548 70303
L37548 67980
" />
<path d="M36958 70303
L37548 70303
" />
<path d="M42351 67980
L39950 67980
" />
<path d="M42351 70303
L42351 67980
" />
<path d="M42942 70303
L42351 70303
" />
<path d="M36958 72075
L38375 72075
" />
<path d="M36958 71484
L36958 72075
" />
<path d="M38375 71484
L36958 71484
" />
<path d="M38375 72075
L38375 71484
" />
<path d="M41525 72075
L42942 72075
" />
<path d="M41525 71484
L41525 72075
" />
<path d="M42942 71484
L41525 71484
" />
<path d="M42942 72075
L42942 71484
" />
<path d="M39556 72075
L40344 72075
" />
<path d="M39556 71484
L39556 72075
" />
<path d="M40344 71484
L39556 71484
" />
<path d="M40344 72075
L40344 71484
" />
<path d="M36950 72083
L42950 72083
" />
<path d="M36950 67382
L36950 72083
" />
<path d="M42950 67382
L36950 67382
" />
<path d="M42950 72083
L42950 67382
" />
<path d="M50178 72311
L50178 71327
" />
<path d="M49194 72311
L50178 72311
" />
<path d="M44548 67980
L46950 67980
" />
<path d="M44548 70303
L44548 67980
" />
<path d="M43958 70303
L44548 70303
" />
<path d="M49351 67980
L46950 67980
" />
<path d="M49351 70303
L49351 67980
" />
<path d="M49942 70303
L49351 70303
" />
<path d="M43958 72075
L45375 72075
" />
<path d="M43958 71484
L43958 72075
" />
<path d="M45375 71484
L43958 71484
" />
<path d="M45375 72075
L45375 71484
" />
<path d="M48525 72075
L49942 72075
" />
<path d="M48525 71484
L48525 72075
" />
<path d="M49942 71484
L48525 71484
" />
<path d="M49942 72075
L49942 71484
" />
<path d="M46556 72075
L47344 72075
" />
<path d="M46556 71484
L46556 72075
" />
<path d="M47344 71484
L46556 71484
" />
<path d="M47344 72075
L47344 71484
" />
<path d="M43950 72083
L49950 72083
" />
<path d="M43950 67382
L43950 72083
" />
<path d="M49950 67382
L43950 67382
" />
<path d="M49950 72083
L49950 67382
" />
<path d="M57178 72311
L57178 71327
" />
<path d="M56194 72311
L57178 72311
" />
<path d="M51548 67980
L53950 67980
" />
<path d="M51548 70303
L51548 67980
" />
<path d="M50958 70303
L51548 70303
" />
<path d="M56351 67980
L53950 67980
" />
<path d="M56351 70303
L56351 67980
" />
<path d="M56942 70303
L56351 70303
" />
<path d="M50958 72075
L52375 72075
" />
<path d="M50958 71484
L50958 72075
" />
<path d="M52375 71484
L50958 71484
" />
<path d="M52375 72075
L52375 71484
" />
<path d="M55525 72075
L56942 72075
" />
<path d="M55525 71484
L55525 72075
" />
<path d="M56942 71484
L55525 71484
" />
<path d="M56942 72075
L56942 71484
" />
<path d="M53556 72075
L54344 72075
" />
<path d="M53556 71484
L53556 72075
" />
<path d="M54344 71484
L53556 71484
" />
<path d="M54344 72075
L54344 71484
" />
<path d="M50950 72083
L56950 72083
" />
<path d="M50950 67382
L50950 72083
" />
<path d="M56950 67382
L50950 67382
" />
<path d="M56950 72083
L56950 67382
" />
<path d="M71147 72311
L71147 71327
" />
<path d="M70162 72311
L71147 72311
" />
<path d="M65517 67980
L67918 67980
" />
<path d="M65517 70303
L65517 67980
" />
<path d="M64926 70303
L65517 70303
" />
<path d="M70320 67980
L67918 67980
" />
<path d="M70320 70303
L70320 67980
" />
<path d="M70910 70303
L70320 70303
" />
<path d="M64926 72075
L66344 72075
" />
<path d="M64926 71484
L64926 72075
" />
<path d="M66344 71484
L64926 71484
" />
<path d="M66344 72075
L66344 71484
" />
<path d="M69493 72075
L70910 72075
" />
<path d="M69493 71484
L69493 72075
" />
<path d="M70910 71484
L69493 71484
" />
<path d="M70910 72075
L70910 71484
" />
<path d="M67525 72075
L68312 72075
" />
<path d="M67525 71484
L67525 72075
" />
<path d="M68312 71484
L67525 71484
" />
<path d="M68312 72075
L68312 71484
" />
<path d="M64918 72083
L70918 72083
" />
<path d="M64918 67382
L64918 72083
" />
<path d="M70918 67382
L64918 67382
" />
<path d="M70918 72083
L70918 67382
" />
<path d="M78147 72311
L78147 71327
" />
<path d="M77162 72311
L78147 72311
" />
<path d="M72517 67980
L74918 67980
" />
<path d="M72517 70303
L72517 67980
" />
<path d="M71926 70303
L72517 70303
" />
<path d="M77320 67980
L74918 67980
" />
<path d="M77320 70303
L77320 67980
" />
<path d="M77910 70303
L77320 70303
" />
<path d="M71926 72075
L73344 72075
" />
<path d="M71926 71484
L71926 72075
" />
<path d="M73344 71484
L71926 71484
" />
<path d="M73344 72075
L73344 71484
" />
<path d="M76493 72075
L77910 72075
" />
<path d="M76493 71484
L76493 72075
" />
<path d="M77910 71484
L76493 71484
" />
<path d="M77910 72075
L77910 71484
" />
<path d="M74525 72075
L75312 72075
" />
<path d="M74525 71484
L74525 72075
" />
<path d="M75312 71484
L74525 71484
" />
<path d="M75312 72075
L75312 71484
" />
<path d="M71918 72083
L77918 72083
" />
<path d="M71918 67382
L71918 72083
" />
<path d="M77918 67382
L71918 67382
" />
<path d="M77918 72083
L77918 67382
" />
<path d="M85147 72311
L85147 71327
" />
<path d="M84162 72311
L85147 72311
" />
<path d="M79517 67980
L81918 67980
" />
<path d="M79517 70303
L79517 67980
" />
<path d="M78926 70303
L79517 70303
" />
<path d="M84320 67980
L81918 67980
" />
<path d="M84320 70303
L84320 67980
" />
<path d="M84910 70303
L84320 70303
" />
<path d="M78926 72075
L80344 72075
" />
<path d="M78926 71484
L78926 72075
" />
<path d="M80344 71484
L78926 71484
" />
<path d="M80344 72075
L80344 71484
" />
<path d="M83493 72075
L84910 72075
" />
<path d="M83493 71484
L83493 72075
" />
<path d="M84910 71484
L83493 71484
" />
<path d="M84910 72075
L84910 71484
" />
<path d="M81525 72075
L82312 72075
" />
<path d="M81525 71484
L81525 72075
" />
<path d="M82312 71484
L81525 71484
" />
<path d="M82312 72075
L82312 71484
" />
<path d="M78918 72083
L84918 72083
" />
<path d="M78918 67382
L78918 72083
" />
<path d="M84918 67382
L78918 67382
" />
<path d="M84918 72083
L84918 67382
" />
</g>
<g style="fill:#000000; fill-opacity:0.0; 
stroke:#000000; stroke-width:118.11; stroke-opacity:1; 
stroke-linecap:round; stroke-linejoin:round;">
<path d="M35927 39876
L35927 36246
" />
<path d="M42541 39876
L35927 39876
" />
<path d="M42541 35616
L42541 39876
" />
<path d="M36557 35616
L42541 35616
" />
<path d="M35927 36246
L36557 35616
" />
</g>
<g style="fill:#000000; fill-opacity:0.0; 
stroke:#000000; stroke-width:94.4882; stroke-opacity:1; 
stroke-linecap:round; stroke-linejoin:round;">
<path d="M37461 32219
L38799 32219
" />
<path d="M41807 32219
L40469 32219
" />
<path d="M41807 28711
L41807 32219
" />
<path d="M37461 28711
L37461 32219
" />
<path d="M38299 27872
L38799 27872
" />
<path d="M40969 27872
L40469 27872
" />
<path d="M40969 27872
L41807 28711
" />
<path d="M38299 27872
L37461 28711
" />
<path d="M64178 72311
L64178 71327
" />
<path d="M63194 72311
L64178 72311
" />
<path d="M58548 67980
L60950 67980
" />
<path d="M58548 70303
L58548 67980
" />
<path d="M57958 70303
L58548 70303
" />
<path d="M63351 67980
L60950 67980
" />
<path d="M63351 70303
L63351 67980
" />
<path d="M63942 70303
L63351 70303
" />
<path d="M57958 72075
L59375 72075
" />
<path d="M57958 71484
L57958 72075
" />
<path d="M59375 71484
L57958 71484
" />
<path d="M59375 72075
L59375 71484
" />
<path d="M62525 72075
L63942 72075
" />
<path d="M62525 71484
L62525 72075
" />
<path d="M63942 71484
L62525 71484
" />
<path d="M63942 72075
L63942 71484
" />
<path d="M60556 72075
L61344 72075
" />
<path d="M60556 71484
L60556 72075
" />
<path d="M61344 71484
L60556 71484
" />
<path d="M61344 72075
L61344 71484
" />
<path d="M57950 72083
L63950 72083
" />
<path d="M57950 67382
L57950 72083
" />
<path d="M63950 67382
L57950 67382
" />
<path d="M63950 72083
L63950 67382
" />
<path d="M43871 20161
L39170 20161
" />
<path d="M39170 20161
L39170 26161
" />
<path d="M39170 26161
L43871 26161
" />
<path d="M43871 26161
L43871 20161
" />
<path d="M43863 22768
L43273 22768
" />
<path d="M43273 22768
L43273 23555
" />
<path d="M43273 23555
L43863 23555
" />
<path d="M43863 23555
L43863 22768
" />
<path d="M43863 20169
L43273 20169
" />
<path d="M43273 20169
L43273 21587
" />
<path d="M43273 21587
L43863 21587
" />
<path d="M43863 21587
L43863 20169
" />
<path d="M43863 24736
L43273 24736
" />
<path d="M43273 24736
L43273 26153
" />
<path d="M43273 26153
L43863 26153
" />
<path d="M43863 26153
L43863 24736
" />
<path d="M42092 20169
L42092 20760
" />
<path d="M42092 20760
L39769 20760
" />
<path d="M39769 20760
L39769 23161
" />
<path d="M42092 26153
L42092 25563
" />
<path d="M42092 25563
L39769 25563
" />
<path d="M39769 25563
L39769 23161
" />
<path d="M44099 20917
L44099 19933
" />
<path d="M44099 19933
L43115 19933
" />
<path d="M40650 49183
L40650 44482
" />
<path d="M40650 44482
L26776 44482
" />
<path d="M26776 44482
L26776 49183
" />
<path d="M26776 49183
L40650 49183
" />
<path d="M38044 49175
L38044 48584
" />
<path d="M38044 48584
L29382 48584
" />
<path d="M29382 48584
L29382 49175
" />
<path d="M29382 49175
L38044 49175
" />
<path d="M40642 49175
L40642 48584
" />
<path d="M40642 48584
L39225 48584
" />
<path d="M39225 48584
L39225 49175
" />
<path d="M39225 49175
L40642 49175
" />
<path d="M28201 49175
L28201 48584
" />
<path d="M28201 48584
L26784 48584
" />
<path d="M26784 48584
L26784 49175
" />
<path d="M26784 49175
L28201 49175
" />
<path d="M40642 47403
L40051 47403
" />
<path d="M40051 47403
L40051 46348
" />
<path d="M33713 45080
L39217 45080
" />
<path d="M26784 47403
L27374 47403
" />
<path d="M27374 47403
L27374 45080
" />
<path d="M27374 45080
L33713 45080
" />
<path d="M39894 49411
L40878 49411
" />
<path d="M40878 49411
L40878 48427
" />
</g>
<g style="fill:#000000; fill-opacity:0.0; 
stroke:#000000; stroke-width:118.11; stroke-opacity:1; 
stroke-linecap:round; stroke-linejoin:round;">
<path d="M66488 13779
L60700 13779
" />
<path d="M60700 13779
L59637 13740
" />
<path d="M59637 13740
L58732 13622
" />
<path d="M58732 13622
L57866 13465
" />
<path d="M57866 13465
L57039 13228
" />
<path d="M58495 24252
L58495 25276
" />
<path d="M66488 17795
L66488 23465
" />
<path d="M66488 15590
L66488 13779
" />
<path d="M57039 13228
L54913 13228
" />
<path d="M54913 13228
L54913 15590
" />
<path d="M54913 23465
L54913 17795
" />
<path d="M58850 23779
L59086 23779
" />
<path d="M59086 23779
L59086 23543
" />
<path d="M59086 23543
L58850 23543
" />
<path d="M58850 23543
L58850 23779
" />
<path d="M58495 24252
L56133 24252
" />
</g>
<g style="fill:#000000; fill-opacity:0.0; 
stroke:#000000; stroke-width:94.4882; stroke-opacity:1; 
stroke-linecap:round; stroke-linejoin:round;">
<path d="M53356 24279
L51309 24279
" />
<path d="M53356 12704
L53356 24279
" />
<path d="M46112 24279
L46112 22783
" />
<path d="M48238 24279
L46112 24279
" />
<path d="M46112 12704
L53356 12704
" />
<path d="M46112 19633
L46112 12704
" />
<path d="M53514 23609
L53514 24436
" />
<path d="M52687 24436
L53514 24436
" />
<path d="M28573 40920
L28573 40267
" />
<path d="M28573 43015
L28573 41771
" />
<path d="M31094 40519
L31094 40267
" />
<path d="M31094 43015
L31094 42172
" />
<path d="M26590 43015
L26590 40267
" />
<path d="M33078 43015
L33078 40267
" />
<path d="M33078 40267
L26590 40267
" />
<path d="M33078 43015
L26590 43015
" />
<path d="M77147 54993
L78447 54993
" />
<path d="M77147 40898
L77147 54993
" />
<path d="M81321 40898
L77147 40898
" />
<path d="M81321 54993
L81321 40898
" />
<path d="M80021 54993
L81321 54993
" />
<path d="M80022 54993.3 A787.402 787.402 0.0 0 0 78447.2 54993.3 " />
<path d="M46607 29688
L46607 32003
" />
<path d="M46795 29688
L46795 32003
" />
<path d="M46701 29688
L46701 32003
" />
<path d="M51079 30846
L50276 30846
" />
<path d="M45189 30846
L45992 30846
" />
<path d="M50276 29688
L45992 29688
" />
<path d="M50276 32003
L50276 29688
" />
<path d="M45992 32003
L50276 32003
" />
<path d="M45992 29688
L45992 32003
" />
<path d="M55219 28883
L55219 30065
" />
<path d="M56203 32033
L59747 32033
" />
<path d="M60731 30065
L60731 28883
" />
<path d="M59747 26915
L56203 26915
" />
<path d="M68837 15727
L68837 16908
" />
<path d="M69821 18876
L73365 18876
" />
<path d="M74349 16908
L74349 15727
" />
<path d="M73365 13758
L69821 13758
" />
<path d="M78281 39093
L77234 39093
" />
<path d="M78281 38046
L78281 39093
" />
<path d="M76234 39093
L74187 39093
" />
<path d="M76234 37046
L76234 39093
" />
<path d="M78281 37046
L76234 37046
" />
<path d="M74187 39093
L74187 32998
" />
<path d="M78281 37046
L78281 32998
" />
<path d="M78281 32998
L74187 32998
" />
<path d="M31149 33074
L31149 28342
" />
<path d="M36519 31302
L36519 28342
" />
<path d="M31149 28342
L32141 28342
" />
<path d="M36519 28342
L35527 28342
" />
<path d="M31459 20488
L32648 20488
" />
<path d="M31459 23402
L32648 23402
" />
<path d="M32648 25977
L32648 17914
" />
<path d="M31459 17914
L35114 17914
" />
<path d="M31459 25977
L35114 25977
" />
<path d="M35114 25977
L35114 17914
" />
<path d="M31459 25977
L31459 17914
" />
<path d="M40802 19235
L42715 19235
" />
<path d="M40786 19227
L40786 18439
" />
<path d="M40786 16825
L42243 16825
" />
<path d="M40786 17652
L40786 16825
" />
<path d="M34634.6 35359.5 A1338.58 1338.58 0.0 0 0 34634.6 38036.7 " />
<path d="M34634.6 38036.7 A1338.58 1338.58 0.0 0 0 34634.6 35359.5 " />
<path d="M43887 34759
L43887 36058
" />
<path d="M71981 34759
L43887 34759
" />
<path d="M71981 38932
L71981 34759
" />
<path d="M43887 38932
L71981 38932
" />
<path d="M43887 37633
L43887 38932
" />
<path d="M43887.3 37633.5 A787.402 787.402 0.0 0 0 43887.3 36058.7 " />
<path d="M71781 57832
L71781 53533
" />
<path d="M43687 57832
L71781 57832
" />
<path d="M43687 47659
L43687 57832
" />
<path d="M71781 47659
L43687 47659
" />
<path d="M71781 51958
L71781 47659
" />
<path d="M71781.8 51958.7 A787.402 787.402 0.0 0 0 71781.8 53533.5 " />
<path d="M59352.7 41257.9 A1988.19 1988.19 0.0 0 0 59352.7 45234.3 " />
<path d="M64273.9 45234.3 A1988.19 1988.19 0.0 0 0 64273.9 41257.9 " />
<path d="M64273 41257
L59352 41257
" />
<path d="M64273 45234
L59352 45234
" />
<path d="M36665 23364
L36665 21356
" />
<path d="M38003 23364
L38003 21356
" />
<path d="M36665 23364
L38003 23364
" />
<path d="M73447 28617
L73447 25546
" />
<path d="M75021 28617
L75021 25546
" />
<path d="M73447 28617
L75021 28617
" />
<path d="M70547 28617
L70547 25546
" />
<path d="M72121 28617
L72121 25546
" />
<path d="M70547 28617
L72121 28617
" />
<path d="M67827 28617
L67827 25546
" />
<path d="M69401 28617
L69401 25546
" />
<path d="M67827 28617
L69401 28617
" />
<path d="M34630 43905
L35038 43905
" />
<path d="M34630 42787
L35038 42787
" />
<path d="M34630 42155
L35038 42155
" />
<path d="M34630 41037
L35038 41037
" />
<path d="M50875 43242
L50875 43649
" />
<path d="M51993 43242
L51993 43649
" />
<path d="M39093 18249
L39093 17842
" />
<path d="M37975 18249
L37975 17842
" />
<path d="M67393 31349
L67393 30942
" />
<path d="M66275 31349
L66275 30942
" />
<path d="M63693 27349
L63693 26942
" />
<path d="M62575 27349
L62575 26942
" />
<path d="M69793 31349
L69793 30942
" />
<path d="M68675 31349
L68675 30942
" />
<path d="M30438 36087
L30030 36087
" />
<path d="M30438 37205
L30030 37205
" />
<path d="M62493 65349
L62493 64942
" />
<path d="M61375 65349
L61375 64942
" />
<path d="M73375 64942
L73375 65349
" />
<path d="M74493 64942
L74493 65349
" />
<path d="M34493 65309
L34493 64902
" />
<path d="M33375 65309
L33375 64902
" />
<path d="M31415 64902
L31415 65309
" />
<path d="M32533 64902
L32533 65309
" />
<path d="M38375 64942
L38375 65349
" />
<path d="M39493 64942
L39493 65349
" />
<path d="M45375 64942
L45375 65349
" />
<path d="M46493 64942
L46493 65349
" />
<path d="M52375 64942
L52375 65349
" />
<path d="M53493 64942
L53493 65349
" />
<path d="M59375 64942
L59375 65349
" />
<path d="M60493 64942
L60493 65349
" />
<path d="M66375 64942
L66375 65349
" />
<path d="M67493 64942
L67493 65349
" />
<path d="M80375 64942
L80375 65349
" />
<path d="M81493 64942
L81493 65349
" />
<path d="M41493 65349
L41493 64942
" />
<path d="M40375 65349
L40375 64942
" />
<path d="M48493 65349
L48493 64942
" />
<path d="M47375 65349
L47375 64942
" />
<path d="M55493 65349
L55493 64942
" />
<path d="M54375 65349
L54375 64942
" />
<path d="M69493 65349
L69493 64942
" />
<path d="M68375 65349
L68375 64942
" />
<path d="M76493 65349
L76493 64942
" />
<path d="M75375 65349
L75375 64942
" />
<path d="M83493 65349
L83493 64942
" />
<path d="M82375 65349
L82375 64942
" />
<path d="M32730 63305
L33138 63305
" />
<path d="M32730 62187
L33138 62187
" />
<path d="M67730 63305
L68138 63305
" />
<path d="M67730 62187
L68138 62187
" />
<path d="M60730 63305
L61138 63305
" />
<path d="M60730 62187
L61138 62187
" />
<path d="M39730 63305
L40138 63305
" />
<path d="M39730 62187
L40138 62187
" />
<path d="M46730 63305
L47138 63305
" />
<path d="M46730 62187
L47138 62187
" />
<path d="M53730 63305
L54138 63305
" />
<path d="M53730 62187
L54138 62187
" />
<path d="M74730 63305
L75138 63305
" />
<path d="M74730 62187
L75138 62187
" />
<path d="M81730 63305
L82138 63305
" />
<path d="M81730 62187
L82138 62187
" />
<path d="M39338 14687
L38930 14687
" />
<path d="M39338 15805
L38930 15805
" />
<path d="M54375 43042
L54375 43449
" />
<path d="M55493 43042
L55493 43449
" />
<path d="M73675 52742
L73675 53149
" />
<path d="M74793 52742
L74793 53149
" />
<path d="M30030 35205
L30438 35205
" />
<path d="M30030 34087
L30438 34087
" />
<path d="M68175 42842
L68175 43249
" />
<path d="M69293 42842
L69293 43249
" />
<path d="M29539 18342
L28555 18342
" />
<path d="M29539 19326
L29539 18342
" />
<path d="M25209 27908
L25209 23538
" />
<path d="M27532 27908
L25209 27908
" />
<path d="M27532 28499
L27532 27908
" />
<path d="M25209 19168
L25209 23538
" />
<path d="M27532 19168
L25209 19168
" />
<path d="M27532 18578
L27532 19168
" />
<path d="M29303 28499
L29303 27082
" />
<path d="M28713 28499
L29303 28499
" />
<path d="M28713 27082
L28713 28499
" />
<path d="M29303 27082
L28713 27082
" />
<path d="M29303 19995
L29303 18578
" />
<path d="M28713 19995
L29303 19995
" />
<path d="M28713 18578
L28713 19995
" />
<path d="M29303 18578
L28713 18578
" />
<path d="M29303 25901
L29303 21176
" />
<path d="M28713 25901
L29303 25901
" />
<path d="M28713 21176
L28713 25901
" />
<path d="M29303 21176
L28713 21176
" />
<path d="M29311 28507
L29311 18570
" />
<path d="M24610 28507
L29311 28507
" />
<path d="M24610 18570
L24610 28507
" />
<path d="M29311 18570
L24610 18570
" />
<path d="M32169 14220
L32169 14614
" />
<path d="M31972 14417
L32366 14417
" />
<path d="M32555 16587
L33393 17425
" />
<path d="M32555 14704
L33393 13866
" />
<path d="M32555 14704
L32555 14811
" />
<path d="M32555 16587
L32555 16480
" />
<path d="M33393 17425
L36114 17425
" />
<path d="M33393 13866
L36114 13866
" />
<path d="M36114 13866
L36114 14811
" />
<path d="M36114 17425
L36114 16480
" />
<path d="M81093 38049
L81093 37642
" />
<path d="M79975 38049
L79975 37642
" />
<g >
</g>
<g >
</g>
<g >
</g>
<g >
</g>
<g >
</g>
<g >
</g>
<g >
</g>
<g >
</g>
<g >
</g>
<g >
</g>
<g >
</g>
<g >
</g>
<g >
</g>
<g >
</g>
<g >
</g>
<g >
</g>
<g >
</g>
<g >
</g>
<g >
</g>
<g >
</g>
<g >
</g>
<g >
</g>
<g >
</g>
<g >
</g>
<g >
</g>
<g >
</g>
<g >
</g>
<g >
</g>
<g >
</g>
<g >
</g>
<g >
</g>
<g >
</g>
<g >
</g>
<g >
</g>
<g >
</g>
<g >
</g>
<g >
</g>
<g >
</g>
<g >
</g>
<g >
</g>
<g >
</g>
<g >
</g>
<g >
</g>
<g >
</g>
<g >
</g>
<g >
</g>
<g >
</g>
<g >
</g>
<g >
</g>
<g >
</g>
<g >
</g>
<g >
</g>
<g >
</g>
<g >
</g>
<g >
</g>
<g >
</g>
<g >
</g>
<g >
</g>
<g >
</g>
<g >
</g>
<g >
</g>
<g >
</g>
<g >
</g>
<g >
</g>
<g >
</g>
<g >
</g>
<g >
</g>
<g >
</g>
<g >
</g>
<g >
</g>
<g >
</g>
<g >
</g>
<g >
</g>
</g>
<g style="fill:#000000; fill-opacity:0.0; 
stroke:#000000; stroke-width:118.11; stroke-opacity:1; 
stroke-linecap:round; stroke-linejoin:round;">
<path d="M32350 72510
L32350 73147
L32387 73222
L32425 73260
L32500 73297
L32650 73297
L32725 73260
L32762 73222
L32800 73147
L32800 72510
" />
<path d="M33100 72510
L33587 72510
L33325 72810
L33437 72810
L33512 72847
L33550 72885
L33587 72960
L33587 73147
L33550 73222
L33512 73260
L33437 73297
L33212 73297
L33137 73260
L33100 73222
" />
<path d="M32350 72510
L32350 73147
L32387 73222
L32425 73260
L32500 73297
L32650 73297
L32725 73260
L32762 73222
L32800 73147
L32800 72510
" />
<path d="M33100 72510
L33587 72510
L33325 72810
L33437 72810
L33512 72847
L33550 72885
L33587 72960
L33587 73147
L33550 73222
L33512 73260
L33437 73297
L33212 73297
L33137 73260
L33100 73222
" />
<path d="M39350 72510
L39350 73147
L39387 73222
L39425 73260
L39500 73297
L39650 73297
L39725 73260
L39762 73222
L39800 73147
L39800 72510
" />
<path d="M40512 72772
L40512 73297
" />
<path d="M40325 72472
L40137 73035
L40625 73035
" />
<path d="M46350 72510
L46350 73147
L46387 73222
L46425 73260
L46500 73297
L46650 73297
L46725 73260
L46762 73222
L46800 73147
L46800 72510
" />
<path d="M47550 72510
L47175 72510
L47137 72885
L47175 72847
L47250 72810
L47437 72810
L47512 72847
L47550 72885
L47587 72960
L47587 73147
L47550 73222
L47512 73260
L47437 73297
L47250 73297
L47175 73260
L47137 73222
" />
<path d="M53350 72510
L53350 73147
L53387 73222
L53425 73260
L53500 73297
L53650 73297
L53725 73260
L53762 73222
L53800 73147
L53800 72510
" />
<path d="M54512 72510
L54362 72510
L54287 72547
L54250 72585
L54175 72697
L54137 72847
L54137 73147
L54175 73222
L54212 73260
L54287 73297
L54437 73297
L54512 73260
L54550 73222
L54587 73147
L54587 72960
L54550 72885
L54512 72847
L54437 72810
L54287 72810
L54212 72847
L54175 72885
L54137 72960
" />
<path d="M67318 72510
L67318 73147
L67356 73222
L67393 73260
L67468 73297
L67618 73297
L67693 73260
L67731 73222
L67768 73147
L67768 72510
" />
<path d="M68256 72847
L68181 72810
L68143 72772
L68106 72697
L68106 72660
L68143 72585
L68181 72547
L68256 72510
L68406 72510
L68481 72547
L68518 72585
L68556 72660
L68556 72697
L68518 72772
L68481 72810
L68406 72847
L68256 72847
L68181 72885
L68143 72922
L68106 72997
L68106 73147
L68143 73222
L68181 73260
L68256 73297
L68406 73297
L68481 73260
L68518 73222
L68556 73147
L68556 72997
L68518 72922
L68481 72885
L68406 72847
" />
<path d="M74318 72510
L74318 73147
L74356 73222
L74393 73260
L74468 73297
L74618 73297
L74693 73260
L74731 73222
L74768 73147
L74768 72510
" />
<path d="M75181 73297
L75331 73297
L75406 73260
L75443 73222
L75518 73110
L75556 72960
L75556 72660
L75518 72585
L75481 72547
L75406 72510
L75256 72510
L75181 72547
L75143 72585
L75106 72660
L75106 72847
L75143 72922
L75181 72960
L75256 72997
L75406 72997
L75481 72960
L75518 72922
L75556 72847
" />
<path d="M80943 72510
L80943 73147
L80981 73222
L81018 73260
L81093 73297
L81243 73297
L81318 73260
L81356 73222
L81393 73147
L81393 72510
" />
<path d="M82181 73297
L81731 73297
" />
<path d="M81956 73297
L81956 72510
L81881 72622
L81806 72697
L81731 72735
" />
<path d="M82668 72510
L82743 72510
L82818 72547
L82856 72585
L82893 72660
L82931 72810
L82931 72997
L82893 73147
L82856 73222
L82818 73260
L82743 73297
L82668 73297
L82593 73260
L82556 73222
L82518 73147
L82481 72997
L82481 72810
L82518 72660
L82556 72585
L82593 72547
L82668 72510
" />
<path d="M38259 34397
L38259 35035
L38297 35109
L38334 35147
L38409 35184
L38559 35184
L38634 35147
L38672 35109
L38709 35035
L38709 34397
" />
<path d="M39497 35184
L39047 35184
" />
<path d="M39272 35184
L39272 34397
L39197 34510
L39122 34585
L39047 34622
" />
<path d="M40209 34397
L39834 34397
L39796 34772
L39834 34735
L39909 34697
L40096 34697
L40171 34735
L40209 34772
L40246 34847
L40246 35035
L40209 35109
L40171 35147
L40096 35184
L39909 35184
L39834 35147
L39796 35109
" />
<path d="M42829 30177
L42866 30214
L42904 30327
L42904 30402
L42866 30514
L42791 30589
L42716 30627
L42566 30664
L42454 30664
L42304 30627
L42229 30589
L42154 30514
L42116 30402
L42116 30327
L42154 30214
L42191 30177
" />
<path d="M42191 29877
L42154 29839
L42116 29764
L42116 29577
L42154 29502
L42191 29464
L42266 29427
L42341 29427
L42454 29464
L42904 29914
L42904 29427
" />
<path d="M60350 72510
L60350 73147
L60387 73222
L60425 73260
L60500 73297
L60650 73297
L60725 73260
L60762 73222
L60800 73147
L60800 72510
" />
<path d="M61100 72510
L61625 72510
L61287 73297
" />
<path d="M44673 23780
L44711 23668
L44748 23630
L44823 23593
L44936 23593
L45011 23630
L45048 23668
L45086 23743
L45086 24042
L44298 24042
L44298 23780
L44336 23705
L44373 23668
L44448 23630
L44523 23630
L44598 23668
L44636 23705
L44673 23780
L44673 24042
" />
<path d="M44298 23368
L44298 22918
" />
<path d="M45086 23143
L44298 23143
" />
<path d="M45086 22243
L45086 22693
" />
<path d="M45086 22468
L44298 22468
L44411 22543
L44486 22618
L44523 22693
" />
<path d="M32738 49610
L32738 50247
L32775 50322
L32813 50360
L32888 50397
L33038 50397
L33113 50360
L33150 50322
L33188 50247
L33188 49610
" />
<path d="M33975 50397
L33525 50397
" />
<path d="M33750 50397
L33750 49610
L33675 49722
L33600 49797
L33525 49835
" />
<path d="M34275 49685
L34313 49647
L34388 49610
L34575 49610
L34650 49647
L34688 49685
L34725 49760
L34725 49835
L34688 49947
L34238 50397
L34725 50397
" />
<path d="M44775 17179
L45338 17179
L45450 17216
L45525 17291
L45563 17404
L45563 17479
" />
<path d="M45563 16392
L45563 16841
" />
<path d="M45563 16617
L44775 16617
L44888 16691
L44963 16766
L45000 16841
" />
<path d="M29759 44233
L29684 44196
L29609 44121
L29497 44009
L29422 43971
L29347 43971
" />
<path d="M29384 44159
L29309 44121
L29234 44046
L29197 43896
L29197 43634
L29234 43484
L29309 43409
L29384 43371
L29534 43371
L29609 43409
L29684 43484
L29722 43634
L29722 43896
L29684 44046
L29609 44121
L29534 44159
L29384 44159
" />
<path d="M30022 43446
L30059 43409
L30134 43371
L30322 43371
L30396 43409
L30434 43446
L30471 43521
L30471 43596
L30434 43709
L29984 44159
L30471 44159
" />
<path d="M83303 54120
L83940 54120
L84015 54083
L84053 54045
L84090 53971
L84090 53821
L84053 53746
L84015 53708
L83940 53671
L83303 53671
" />
<path d="M84090 52883
L84090 53333
" />
<path d="M84090 53108
L83303 53108
L83415 53183
L83490 53258
L83528 53333
" />
<path d="M83303 52621
L83303 52133
L83603 52396
L83603 52283
L83640 52208
L83678 52171
L83753 52133
L83940 52133
L84015 52171
L84053 52208
L84090 52283
L84090 52508
L84053 52583
L84015 52621
" />
<path d="M47553 29304
L47553 28517
L47740 28517
L47853 28554
L47928 28629
L47965 28704
L48003 28854
L48003 28967
L47965 29117
L47928 29192
L47853 29267
L47740 29304
L47553 29304
" />
<path d="M48753 29304
L48303 29304
" />
<path d="M48528 29304
L48528 28517
L48453 28629
L48378 28704
L48303 28742
" />
<path d="M43928 29548
L43928 28761
" />
<path d="M44378 29548
L44040 29098
" />
<path d="M44378 28761
L43928 29211
" />
<path d="M56925 33139
L57038 33177
L57225 33177
L57300 33139
L57338 33102
L57375 33027
L57375 32952
L57338 32877
L57300 32839
L57225 32802
L57075 32764
L57000 32727
L56963 32689
L56925 32614
L56925 32539
L56963 32464
L57000 32427
L57075 32389
L57263 32389
L57375 32427
" />
<path d="M57638 32389
L57825 33177
L57975 32614
L58125 33177
L58312 32389
" />
<path d="M58575 32464
L58612 32427
L58687 32389
L58875 32389
L58950 32427
L58987 32464
L59025 32539
L59025 32614
L58987 32727
L58537 33177
L59025 33177
" />
<path d="M70543 19982
L70656 20020
L70843 20020
L70918 19982
L70956 19945
L70993 19870
L70993 19795
L70956 19720
L70918 19682
L70843 19645
L70693 19607
L70618 19570
L70581 19532
L70543 19457
L70543 19382
L70581 19308
L70618 19270
L70693 19233
L70881 19233
L70993 19270
" />
<path d="M71256 19233
L71443 20020
L71593 19457
L71743 20020
L71931 19233
" />
<path d="M72643 20020
L72193 20020
" />
<path d="M72418 20020
L72418 19233
L72343 19345
L72268 19420
L72193 19457
" />
<path d="M75653 40236
L75653 39449
L75953 39449
L76028 39487
L76065 39524
L76103 39599
L76103 39712
L76065 39787
L76028 39824
L75953 39862
L75653 39862
" />
<path d="M76853 40236
L76403 40236
" />
<path d="M76628 40236
L76628 39449
L76553 39562
L76478 39637
L76403 39674
" />
<path d="M29860 30446
L30497 30446
L30572 30408
L30609 30371
L30647 30296
L30647 30146
L30609 30071
L30572 30033
L30497 29996
L29860 29996
" />
<path d="M30647 29208
L30647 29658
" />
<path d="M30647 29433
L29860 29433
L29972 29508
L30047 29583
L30085 29658
" />
<path d="M30241 22546
L30878 22546
L30953 22508
L30991 22471
L31028 22396
L31028 22246
L30991 22171
L30953 22133
L30878 22096
L30241 22096
" />
<path d="M30316 21758
L30278 21721
L30241 21646
L30241 21458
L30278 21383
L30316 21346
L30391 21308
L30466 21308
L30578 21346
L31028 21796
L31028 21308
" />
<path d="M41659 16577
L41584 16539
L41509 16464
L41397 16352
L41322 16314
L41247 16314
" />
<path d="M41284 16502
L41209 16464
L41134 16389
L41097 16239
L41097 15977
L41134 15827
L41209 15752
L41284 15714
L41434 15714
L41509 15752
L41584 15827
L41622 15977
L41622 16239
L41584 16389
L41509 16464
L41434 16502
L41284 16502
" />
<path d="M42371 16502
L41922 16502
" />
<path d="M42147 16502
L42147 15714
L42072 15827
L41997 15902
L41922 15939
" />
<path d="M32275 37073
L32650 37073
" />
<path d="M31863 37335
L32275 37073
L31863 36810
" />
<path d="M31938 36585
L31900 36548
L31863 36473
L31863 36285
L31900 36210
L31938 36173
L32013 36135
L32088 36135
L32200 36173
L32650 36623
L32650 36135
" />
<path d="M42621 37820
L43258 37820
L43333 37783
L43371 37745
L43408 37671
L43408 37521
L43371 37446
L43333 37408
L43258 37371
L42621 37371
" />
<path d="M43408 36583
L43408 37033
" />
<path d="M43408 36808
L42621 36808
L42733 36883
L42808 36958
L42846 37033
" />
<path d="M42883 35908
L43408 35908
" />
<path d="M42583 36096
L43146 36283
L43146 35796
" />
<path d="M72138 53720
L72775 53720
L72850 53683
L72887 53645
L72925 53571
L72925 53421
L72887 53346
L72850 53308
L72775 53271
L72138 53271
" />
<path d="M72925 52483
L72925 52933
" />
<path d="M72925 52708
L72138 52708
L72250 52783
L72325 52858
L72362 52933
" />
<path d="M72925 51733
L72925 52183
" />
<path d="M72925 51958
L72138 51958
L72250 52033
L72325 52108
L72362 52183
" />
<path d="M61438 46002
L61438 46377
" />
<path d="M61175 45590
L61438 46002
L61700 45590
" />
<path d="M62375 46377
L61925 46377
" />
<path d="M62150 46377
L62150 45590
L62075 45702
L62000 45777
L61925 45815
" />
<path d="M36234 22764
L35446 22764
L35446 22576
L35484 22464
L35559 22389
L35634 22351
L35784 22314
L35896 22314
L36046 22351
L36121 22389
L36196 22464
L36234 22576
L36234 22764
" />
<path d="M35521 22014
L35484 21976
L35446 21901
L35446 21714
L35484 21639
L35521 21601
L35596 21564
L35671 21564
L35784 21601
L36234 22051
L36234 21564
" />
<path d="M73015 27427
L72228 27427
L72228 27239
L72266 27127
L72341 27052
L72416 27014
L72566 26977
L72678 26977
L72828 27014
L72903 27052
L72978 27127
L73015 27239
L73015 27427
" />
<path d="M72491 26302
L73015 26302
" />
<path d="M72191 26489
L72753 26677
L72753 26189
" />
<path d="M70115 27427
L69328 27427
L69328 27239
L69366 27127
L69441 27052
L69516 27014
L69666 26977
L69778 26977
L69928 27014
L70003 27052
L70078 27127
L70115 27239
L70115 27427
" />
<path d="M69328 26714
L69328 26227
L69628 26489
L69628 26377
L69666 26302
L69703 26264
L69778 26227
L69965 26227
L70040 26264
L70078 26302
L70115 26377
L70115 26602
L70078 26677
L70040 26714
" />
<path d="M67395 27427
L66608 27427
L66608 27239
L66646 27127
L66721 27052
L66796 27014
L66946 26977
L67058 26977
L67208 27014
L67283 27052
L67358 27127
L67395 27239
L67395 27427
" />
<path d="M66608 26264
L66608 26639
L66983 26677
L66946 26639
L66908 26564
L66908 26377
L66946 26302
L66983 26264
L67058 26227
L67245 26227
L67320 26264
L67358 26302
L67395 26377
L67395 26564
L67358 26639
L67320 26677
" />
<path d="M34703 42403
L34440 42028
" />
<path d="M34253 42403
L34253 41615
L34553 41615
L34628 41653
L34665 41690
L34703 41765
L34703 41878
L34665 41953
L34628 41990
L34553 42028
L34253 42028
" />
<path d="M34965 41615
L35490 41615
L35153 42403
" />
<path d="M34703 40653
L34440 40278
" />
<path d="M34253 40653
L34253 39865
L34553 39865
L34628 39903
L34665 39940
L34703 40015
L34703 40128
L34665 40203
L34628 40240
L34553 40278
L34253 40278
" />
<path d="M35378 39865
L35228 39865
L35153 39903
L35115 39940
L35040 40053
L35003 40203
L35003 40503
L35040 40578
L35078 40615
L35153 40653
L35303 40653
L35378 40615
L35415 40578
L35453 40503
L35453 40315
L35415 40240
L35378 40203
L35303 40165
L35153 40165
L35078 40203
L35040 40240
L35003 40315
" />
<path d="M53089 43577
L52715 43839
" />
<path d="M53089 44027
L52302 44027
L52302 43727
L52340 43652
L52377 43614
L52452 43577
L52565 43577
L52640 43614
L52677 43652
L52715 43727
L52715 44027
" />
<path d="M52640 43127
L52602 43202
L52565 43239
L52490 43277
L52452 43277
L52377 43239
L52340 43202
L52302 43127
L52302 42977
L52340 42902
L52377 42864
L52452 42827
L52490 42827
L52565 42864
L52602 42902
L52640 42977
L52640 43127
L52677 43202
L52715 43239
L52790 43277
L52940 43277
L53014 43239
L53052 43202
L53089 43127
L53089 42977
L53052 42902
L53014 42864
L52940 42827
L52790 42827
L52715 42864
L52677 42902
L52640 42977
" />
<path d="M37591 18177
L37216 18439
" />
<path d="M37591 18627
L36804 18627
L36804 18327
L36841 18252
L36879 18214
L36954 18177
L37066 18177
L37141 18214
L37179 18252
L37216 18327
L37216 18627
" />
<path d="M37591 17427
L37591 17877
" />
<path d="M37591 17652
L36804 17652
L36916 17727
L36991 17802
L37029 17877
" />
<path d="M65891 31277
L65516 31539
" />
<path d="M65891 31727
L65104 31727
L65104 31427
L65141 31352
L65179 31314
L65254 31277
L65366 31277
L65441 31314
L65479 31352
L65516 31427
L65516 31727
" />
<path d="M65366 30602
L65891 30602
" />
<path d="M65066 30789
L65629 30977
L65629 30489
" />
<path d="M62191 27277
L61816 27539
" />
<path d="M62191 27727
L61404 27727
L61404 27427
L61441 27352
L61479 27314
L61554 27277
L61666 27277
L61741 27314
L61779 27352
L61816 27427
L61816 27727
" />
<path d="M61404 26564
L61404 26939
L61779 26977
L61741 26939
L61704 26864
L61704 26677
L61741 26602
L61779 26564
L61854 26527
L62041 26527
L62116 26564
L62154 26602
L62191 26677
L62191 26864
L62154 26939
L62116 26977
" />
<path d="M68291 31277
L67916 31539
" />
<path d="M68291 31727
L67504 31727
L67504 31427
L67541 31352
L67579 31314
L67654 31277
L67766 31277
L67841 31314
L67879 31352
L67916 31427
L67916 31727
" />
<path d="M67504 31014
L67504 30527
L67804 30789
L67804 30677
L67841 30602
L67879 30564
L67954 30527
L68141 30527
L68216 30564
L68254 30602
L68291 30677
L68291 30902
L68254 30977
L68216 31014
" />
<path d="M30103 38301
L29840 37926
" />
<path d="M29653 38301
L29653 37514
L29953 37514
L30028 37551
L30065 37589
L30103 37664
L30103 37776
L30065 37851
L30028 37889
L29953 37926
L29653 37926
" />
<path d="M30403 37589
L30440 37551
L30515 37514
L30703 37514
L30778 37551
L30815 37589
L30853 37664
L30853 37739
L30815 37851
L30365 38301
L30853 38301
" />
<path d="M63890 65652
L63890 66027
L63103 66027
" />
<path d="M63890 64977
L63890 65427
" />
<path d="M63890 65202
L63103 65202
L63215 65277
L63290 65352
L63328 65427
" />
<path d="M63103 64714
L63103 64227
L63403 64489
L63403 64377
L63440 64302
L63478 64264
L63553 64227
L63740 64227
L63815 64264
L63853 64302
L63890 64377
L63890 64602
L63853 64677
L63815 64714
" />
<path d="M72890 65277
L72890 65652
L72103 65652
" />
<path d="M72103 65089
L72103 64564
L72890 64902
" />
<path d="M35890 65177
L35890 65552
L35103 65552
" />
<path d="M35890 64877
L35890 64727
L35853 64652
L35815 64614
L35703 64539
L35553 64502
L35253 64502
L35178 64539
L35140 64577
L35103 64652
L35103 64802
L35140 64877
L35178 64914
L35253 64952
L35440 64952
L35515 64914
L35553 64877
L35590 64802
L35590 64652
L35553 64577
L35515 64539
L35440 64502
" />
<path d="M30690 65237
L30690 65612
L29903 65612
" />
<path d="M30690 64562
L30690 65012
" />
<path d="M30690 64787
L29903 64787
L30015 64862
L30090 64937
L30128 65012
" />
<path d="M37790 65277
L37790 65652
L37003 65652
" />
<path d="M37078 65052
L37040 65014
L37003 64939
L37003 64752
L37040 64677
L37078 64639
L37153 64602
L37228 64602
L37340 64639
L37790 65089
L37790 64602
" />
<path d="M44790 65277
L44790 65652
L44003 65652
" />
<path d="M44003 65089
L44003 64602
L44303 64864
L44303 64752
L44340 64677
L44378 64639
L44453 64602
L44640 64602
L44715 64639
L44753 64677
L44790 64752
L44790 64977
L44753 65052
L44715 65089
" />
<path d="M51890 65277
L51890 65652
L51103 65652
" />
<path d="M51365 64677
L51890 64677
" />
<path d="M51065 64864
L51628 65052
L51628 64564
" />
<path d="M58890 65277
L58890 65652
L58103 65652
" />
<path d="M58103 64639
L58103 65014
L58478 65052
L58440 65014
L58403 64939
L58403 64752
L58440 64677
L58478 64639
L58553 64602
L58740 64602
L58815 64639
L58853 64677
L58890 64752
L58890 64939
L58853 65014
L58815 65052
" />
<path d="M65890 65277
L65890 65652
L65103 65652
" />
<path d="M65103 64677
L65103 64827
L65140 64902
L65178 64939
L65290 65014
L65440 65052
L65740 65052
L65815 65014
L65853 64977
L65890 64902
L65890 64752
L65853 64677
L65815 64639
L65740 64602
L65553 64602
L65478 64639
L65440 64677
L65403 64752
L65403 64902
L65440 64977
L65478 65014
L65553 65052
" />
<path d="M79890 65277
L79890 65652
L79103 65652
" />
<path d="M79440 64902
L79403 64977
L79365 65014
L79290 65052
L79253 65052
L79178 65014
L79140 64977
L79103 64902
L79103 64752
L79140 64677
L79178 64639
L79253 64602
L79290 64602
L79365 64639
L79403 64677
L79440 64752
L79440 64902
L79478 64977
L79515 65014
L79590 65052
L79740 65052
L79815 65014
L79853 64977
L79890 64902
L79890 64752
L79853 64677
L79815 64639
L79740 64602
L79590 64602
L79515 64639
L79478 64677
L79440 64752
" />
<path d="M42890 65652
L42890 66027
L42103 66027
" />
<path d="M42890 64977
L42890 65427
" />
<path d="M42890 65202
L42103 65202
L42215 65277
L42290 65352
L42328 65427
" />
<path d="M42103 64489
L42103 64414
L42140 64339
L42178 64302
L42253 64264
L42403 64227
L42590 64227
L42740 64264
L42815 64302
L42853 64339
L42890 64414
L42890 64489
L42853 64564
L42815 64602
L42740 64639
L42590 64677
L42403 64677
L42253 64639
L42178 64602
L42140 64564
L42103 64489
" />
<path d="M49790 65652
L49790 66027
L49003 66027
" />
<path d="M49790 64977
L49790 65427
" />
<path d="M49790 65202
L49003 65202
L49115 65277
L49190 65352
L49228 65427
" />
<path d="M49790 64227
L49790 64677
" />
<path d="M49790 64452
L49003 64452
L49115 64527
L49190 64602
L49228 64677
" />
<path d="M56890 65652
L56890 66027
L56103 66027
" />
<path d="M56890 64977
L56890 65427
" />
<path d="M56890 65202
L56103 65202
L56215 65277
L56290 65352
L56328 65427
" />
<path d="M56178 64677
L56140 64639
L56103 64564
L56103 64377
L56140 64302
L56178 64264
L56253 64227
L56328 64227
L56440 64264
L56890 64714
L56890 64227
" />
<path d="M70790 65652
L70790 66027
L70003 66027
" />
<path d="M70790 64977
L70790 65427
" />
<path d="M70790 65202
L70003 65202
L70115 65277
L70190 65352
L70228 65427
" />
<path d="M70265 64302
L70790 64302
" />
<path d="M69965 64489
L70528 64677
L70528 64189
" />
<path d="M77790 65652
L77790 66027
L77003 66027
" />
<path d="M77790 64977
L77790 65427
" />
<path d="M77790 65202
L77003 65202
L77115 65277
L77190 65352
L77228 65427
" />
<path d="M77003 64264
L77003 64639
L77378 64677
L77340 64639
L77303 64564
L77303 64377
L77340 64302
L77378 64264
L77453 64227
L77640 64227
L77715 64264
L77753 64302
L77790 64377
L77790 64564
L77753 64639
L77715 64677
" />
<path d="M84890 65652
L84890 66027
L84103 66027
" />
<path d="M84890 64977
L84890 65427
" />
<path d="M84890 65202
L84103 65202
L84215 65277
L84290 65352
L84328 65427
" />
<path d="M84103 64302
L84103 64452
L84140 64527
L84178 64564
L84290 64639
L84440 64677
L84740 64677
L84815 64639
L84853 64602
L84890 64527
L84890 64377
L84853 64302
L84815 64264
L84740 64227
L84553 64227
L84478 64264
L84440 64302
L84403 64377
L84403 64527
L84440 64602
L84478 64639
L84553 64677
" />
<path d="M32803 61728
L32765 61765
L32653 61803
L32578 61803
L32465 61765
L32390 61690
L32353 61615
L32315 61465
L32315 61353
L32353 61203
L32390 61128
L32465 61053
L32578 61015
L32653 61015
L32765 61053
L32803 61090
" />
<path d="M33515 61015
L33140 61015
L33103 61390
L33140 61353
L33215 61315
L33403 61315
L33478 61353
L33515 61390
L33553 61465
L33553 61653
L33515 61728
L33478 61765
L33403 61803
L33215 61803
L33140 61765
L33103 61728
" />
<path d="M67428 61728
L67390 61765
L67278 61803
L67203 61803
L67090 61765
L67015 61690
L66978 61615
L66940 61465
L66940 61353
L66978 61203
L67015 61128
L67090 61053
L67203 61015
L67278 61015
L67390 61053
L67428 61090
" />
<path d="M68178 61803
L67728 61803
" />
<path d="M67953 61803
L67953 61015
L67878 61128
L67803 61203
L67728 61240
" />
<path d="M68665 61015
L68740 61015
L68815 61053
L68853 61090
L68890 61165
L68928 61315
L68928 61503
L68890 61653
L68853 61728
L68815 61765
L68740 61803
L68665 61803
L68590 61765
L68553 61728
L68515 61653
L68478 61503
L68478 61315
L68515 61165
L68553 61090
L68590 61053
L68665 61015
" />
<path d="M60803 61728
L60765 61765
L60653 61803
L60578 61803
L60465 61765
L60390 61690
L60353 61615
L60315 61465
L60315 61353
L60353 61203
L60390 61128
L60465 61053
L60578 61015
L60653 61015
L60765 61053
L60803 61090
" />
<path d="M61178 61803
L61328 61803
L61403 61765
L61440 61728
L61515 61615
L61553 61465
L61553 61165
L61515 61090
L61478 61053
L61403 61015
L61253 61015
L61178 61053
L61140 61090
L61103 61165
L61103 61353
L61140 61428
L61178 61465
L61253 61503
L61403 61503
L61478 61465
L61515 61428
L61553 61353
" />
<path d="M39803 61728
L39765 61765
L39653 61803
L39578 61803
L39465 61765
L39390 61690
L39353 61615
L39315 61465
L39315 61353
L39353 61203
L39390 61128
L39465 61053
L39578 61015
L39653 61015
L39765 61053
L39803 61090
" />
<path d="M40478 61015
L40328 61015
L40253 61053
L40215 61090
L40140 61203
L40103 61353
L40103 61653
L40140 61728
L40178 61765
L40253 61803
L40403 61803
L40478 61765
L40515 61728
L40553 61653
L40553 61465
L40515 61390
L40478 61353
L40403 61315
L40253 61315
L40178 61353
L40140 61390
L40103 61465
" />
<path d="M46803 61728
L46765 61765
L46653 61803
L46578 61803
L46465 61765
L46390 61690
L46353 61615
L46315 61465
L46315 61353
L46353 61203
L46390 61128
L46465 61053
L46578 61015
L46653 61015
L46765 61053
L46803 61090
" />
<path d="M47065 61015
L47590 61015
L47253 61803
" />
<path d="M53803 61728
L53765 61765
L53653 61803
L53578 61803
L53465 61765
L53390 61690
L53353 61615
L53315 61465
L53315 61353
L53353 61203
L53390 61128
L53465 61053
L53578 61015
L53653 61015
L53765 61053
L53803 61090
" />
<path d="M54253 61353
L54178 61315
L54140 61278
L54103 61203
L54103 61165
L54140 61090
L54178 61053
L54253 61015
L54403 61015
L54478 61053
L54515 61090
L54553 61165
L54553 61203
L54515 61278
L54478 61315
L54403 61353
L54253 61353
L54178 61390
L54140 61428
L54103 61503
L54103 61653
L54140 61728
L54178 61765
L54253 61803
L54403 61803
L54478 61765
L54515 61728
L54553 61653
L54553 61503
L54515 61428
L54478 61390
L54403 61353
" />
<path d="M74428 61728
L74390 61765
L74278 61803
L74203 61803
L74090 61765
L74015 61690
L73978 61615
L73940 61465
L73940 61353
L73978 61203
L74015 61128
L74090 61053
L74203 61015
L74278 61015
L74390 61053
L74428 61090
" />
<path d="M75178 61803
L74728 61803
" />
<path d="M74953 61803
L74953 61015
L74878 61128
L74803 61203
L74728 61240
" />
<path d="M75928 61803
L75478 61803
" />
<path d="M75703 61803
L75703 61015
L75628 61128
L75553 61203
L75478 61240
" />
<path d="M81428 61728
L81390 61765
L81278 61803
L81203 61803
L81090 61765
L81015 61690
L80978 61615
L80940 61465
L80940 61353
L80978 61203
L81015 61128
L81090 61053
L81203 61015
L81278 61015
L81390 61053
L81428 61090
" />
<path d="M82178 61803
L81728 61803
" />
<path d="M81953 61803
L81953 61015
L81878 61128
L81803 61203
L81728 61240
" />
<path d="M82478 61090
L82515 61053
L82590 61015
L82778 61015
L82853 61053
L82890 61090
L82928 61165
L82928 61240
L82890 61353
L82440 61803
L82928 61803
" />
<path d="M39003 16826
L38965 16864
L38853 16901
L38778 16901
L38665 16864
L38590 16789
L38553 16714
L38515 16564
L38515 16451
L38553 16301
L38590 16226
L38665 16151
L38778 16114
L38853 16114
L38965 16151
L39003 16189
" />
<path d="M39265 16114
L39753 16114
L39490 16414
L39603 16414
L39678 16451
L39715 16489
L39753 16564
L39753 16751
L39715 16826
L39678 16864
L39603 16901
L39378 16901
L39303 16864
L39265 16826
" />
<path d="M56514 43752
L56552 43789
L56589 43902
L56589 43977
L56552 44089
L56477 44164
L56402 44202
L56252 44239
L56140 44239
L55990 44202
L55915 44164
L55840 44089
L55802 43977
L55802 43902
L55840 43789
L55877 43752
" />
<path d="M56589 43002
L56589 43452
" />
<path d="M56589 43227
L55802 43227
L55915 43302
L55990 43377
L56027 43452
" />
<path d="M55802 42289
L55802 42664
L56177 42702
L56140 42664
L56102 42589
L56102 42402
L56140 42327
L56177 42289
L56252 42252
L56440 42252
L56514 42289
L56552 42327
L56589 42402
L56589 42589
L56552 42664
L56514 42702
" />
<path d="M75814 53452
L75852 53489
L75889 53602
L75889 53677
L75852 53789
L75777 53864
L75702 53902
L75552 53939
L75440 53939
L75290 53902
L75215 53864
L75140 53789
L75102 53677
L75102 53602
L75140 53489
L75177 53452
" />
<path d="M75889 52702
L75889 53152
" />
<path d="M75889 52927
L75102 52927
L75215 53002
L75290 53077
L75327 53152
" />
<path d="M75102 52439
L75102 51952
L75402 52214
L75402 52102
L75440 52027
L75477 51989
L75552 51952
L75740 51952
L75814 51989
L75852 52027
L75889 52102
L75889 52327
L75852 52402
L75814 52439
" />
<path d="M30103 33628
L30065 33665
L29953 33703
L29878 33703
L29765 33665
L29690 33590
L29653 33515
L29615 33365
L29615 33253
L29653 33103
L29690 33028
L29765 32953
L29878 32915
L29953 32915
L30065 32953
L30103 32990
" />
<path d="M30853 33703
L30403 33703
" />
<path d="M30628 33703
L30628 32915
L30553 33028
L30478 33103
L30403 33140
" />
<path d="M70314 43552
L70352 43589
L70389 43702
L70389 43777
L70352 43889
L70277 43964
L70202 44002
L70052 44039
L69940 44039
L69790 44002
L69715 43964
L69640 43889
L69602 43777
L69602 43702
L69640 43589
L69677 43552
" />
<path d="M70389 42802
L70389 43252
" />
<path d="M70389 43027
L69602 43027
L69715 43102
L69790 43177
L69827 43252
" />
<path d="M69865 42127
L70389 42127
" />
<path d="M69565 42314
L70127 42502
L70127 42014
" />
<path d="M30526 24120
L29738 24120
L29738 23820
L29776 23745
L29813 23707
L29888 23670
L30001 23670
L30076 23707
L30113 23745
L30151 23820
L30151 24120
" />
<path d="M29813 23370
L29776 23332
L29738 23257
L29738 23070
L29776 22995
L29813 22957
L29888 22920
L29963 22920
L30076 22957
L30526 23407
L30526 22920
" />
<path d="M31003 17527
L30965 17564
L30853 17602
L30778 17602
L30665 17564
L30590 17489
L30553 17414
L30515 17264
L30515 17152
L30553 17002
L30590 16927
L30665 16852
L30778 16814
L30853 16814
L30965 16852
L31003 16889
" />
<path d="M31678 17077
L31678 17602
" />
<path d="M31490 16777
L31303 17339
L31790 17339
" />
<path d="M79591 37977
L79216 38239
" />
<path d="M79591 38427
L78804 38427
L78804 38127
L78841 38052
L78879 38014
L78954 37977
L79066 37977
L79141 38014
L79179 38052
L79216 38127
L79216 38427
" />
<path d="M79591 37602
L79591 37452
L79554 37377
L79516 37339
L79404 37264
L79254 37227
L78954 37227
L78879 37264
L78841 37302
L78804 37377
L78804 37527
L78841 37602
L78879 37639
L78954 37677
L79141 37677
L79216 37639
L79254 37602
L79291 37527
L79291 37377
L79254 37302
L79216 37264
L79141 37227
" />
<g >
</g>
</g> 
</svg>
