<?xml version="1.0" standalone="no"?>
 <!DOCTYPE svg PUBLIC "-//W3C//DTD SVG 1.1//EN" 
 "http://www.w3.org/Graphics/SVG/1.1/DTD/svg11.dtd"> 
<svg xmlns="http://www.w3.org/2000/svg" version="1.1" 
    width="29.7002cm" height="21.0007cm" viewBox="0 0 116930 82680 ">
<title>SVG Picture created as ThermocoupleLogger-B_Mask.svg date 2019/03/28 10:52:54 </title>
  <desc>Picture generated by PCBNEW </desc>
<g style="fill:#000000; fill-opacity:1;stroke:#000000; stroke-opacity:1;
stroke-linecap:round; stroke-linejoin:round; "
 transform="translate(0 0) scale(1 1)">
</g>
<g style="fill:#000000; fill-opacity:0.0; 
stroke:#000000; stroke-width:-0.000787402; stroke-opacity:1; 
stroke-linecap:round; stroke-linejoin:round;">
</g>
<g style="fill:#000000; fill-opacity:0.0; 
stroke:#000000; stroke-width:78.7402; stroke-opacity:1; 
stroke-linecap:round; stroke-linejoin:round;">
<path d="M93734 12646
L93734 73146
" />
<path d="M23734 68764
L23734 68764
" />
<path d="M23734 12646
L93734 12646
" />
<path d="M23734 73146
L93734 73146
" />
<path d="M23734 12646
L23734 73146
" />
<path d="M23734 13646
L23734 13646
" />
</g>
<g style="fill:#000000; fill-opacity:1.0; 
stroke:#000000; stroke-width:0; stroke-opacity:1; 
stroke-linecap:round; stroke-linejoin:round;">
<path style="fill:#000000; fill-opacity:1.0; 
stroke:#000000; stroke-width:0; stroke-opacity:1; 
stroke-linecap:round; stroke-linejoin:round;fill-rule:evenodd;"
d="M 32097,69368
32160,69387
32223,69406
32223,69406
32339,69468
32441,69552
32525,69654
32587,69770
32625,69896
32635,69995
32635,70297
32625,70395
32587,70521
32525,70637
32441,70739
32339,70823
32223,70885
32097,70923
31966,70936
31834,70923
31742,70895
31708,70885
31650,70854
31592,70823
31490,70739
31406,70637
31344,70521
31306,70395
31296,70297
31296,69995
31306,69896
31344,69770
31406,69654
31490,69552
31592,69468
31708,69406
31708,69406
31771,69387
31834,69368
31966,69355
32097,69368
Z" /> 
<path style="fill:#000000; fill-opacity:1.0; 
stroke:#000000; stroke-width:0; stroke-opacity:1; 
stroke-linecap:round; stroke-linejoin:round;fill-rule:evenodd;"
d="M 39097,69368
39160,69387
39223,69406
39223,69406
39339,69468
39441,69552
39525,69654
39587,69770
39625,69896
39635,69995
39635,70297
39625,70395
39587,70521
39525,70637
39441,70739
39339,70823
39223,70885
39097,70923
38966,70936
38834,70923
38742,70895
38708,70885
38650,70854
38592,70823
38490,70739
38406,70637
38344,70521
38306,70395
38296,70297
38296,69995
38306,69896
38344,69770
38406,69654
38490,69552
38592,69468
38708,69406
38708,69406
38771,69387
38834,69368
38966,69355
39097,69368
Z" /> 
<path style="fill:#000000; fill-opacity:1.0; 
stroke:#000000; stroke-width:0; stroke-opacity:1; 
stroke-linecap:round; stroke-linejoin:round;fill-rule:evenodd;"
d="M 46097,69368
46160,69387
46223,69406
46223,69406
46339,69468
46441,69552
46525,69654
46587,69770
46625,69896
46635,69995
46635,70297
46625,70395
46587,70521
46525,70637
46441,70739
46339,70823
46223,70885
46097,70923
45966,70936
45834,70923
45742,70895
45708,70885
45650,70854
45592,70823
45490,70739
45406,70637
45344,70521
45306,70395
45296,70297
45296,69995
45306,69896
45344,69770
45406,69654
45490,69552
45592,69468
45708,69406
45708,69406
45771,69387
45834,69368
45966,69355
46097,69368
Z" /> 
<path style="fill:#000000; fill-opacity:1.0; 
stroke:#000000; stroke-width:0; stroke-opacity:1; 
stroke-linecap:round; stroke-linejoin:round;fill-rule:evenodd;"
d="M 53097,69368
53160,69387
53223,69406
53223,69406
53339,69468
53441,69552
53525,69654
53587,69770
53625,69896
53635,69995
53635,70297
53625,70395
53587,70521
53525,70637
53441,70739
53339,70823
53223,70885
53097,70923
52966,70936
52834,70923
52742,70895
52708,70885
52650,70854
52592,70823
52490,70739
52406,70637
52344,70521
52306,70395
52296,70297
52296,69995
52306,69896
52344,69770
52406,69654
52490,69552
52592,69468
52708,69406
52708,69406
52771,69387
52834,69368
52966,69355
53097,69368
Z" /> 
<path style="fill:#000000; fill-opacity:1.0; 
stroke:#000000; stroke-width:0; stroke-opacity:1; 
stroke-linecap:round; stroke-linejoin:round;fill-rule:evenodd;"
d="M 60097,69368
60160,69387
60223,69406
60223,69406
60339,69468
60441,69552
60525,69654
60587,69770
60625,69896
60635,69995
60635,70297
60625,70395
60587,70521
60525,70637
60441,70739
60339,70823
60223,70885
60097,70923
59966,70936
59834,70923
59742,70895
59708,70885
59650,70854
59592,70823
59490,70739
59406,70637
59344,70521
59306,70395
59296,70297
59296,69995
59306,69896
59344,69770
59406,69654
59490,69552
59592,69468
59708,69406
59708,69406
59771,69387
59834,69368
59966,69355
60097,69368
Z" /> 
<path style="fill:#000000; fill-opacity:1.0; 
stroke:#000000; stroke-width:0; stroke-opacity:1; 
stroke-linecap:round; stroke-linejoin:round;fill-rule:evenodd;"
d="M 67065,69368
67128,69387
67191,69406
67191,69406
67308,69468
67410,69552
67493,69654
67555,69770
67594,69896
67603,69995
67603,70297
67594,70395
67555,70521
67493,70637
67410,70739
67308,70823
67191,70885
67065,70923
66934,70936
66803,70923
66711,70895
66677,70885
66619,70854
66560,70823
66459,70739
66375,70637
66313,70521
66274,70395
66265,70297
66265,69995
66274,69896
66313,69770
66375,69654
66459,69552
66560,69468
66677,69406
66677,69406
66740,69387
66803,69368
66934,69355
67065,69368
Z" /> 
<path style="fill:#000000; fill-opacity:1.0; 
stroke:#000000; stroke-width:0; stroke-opacity:1; 
stroke-linecap:round; stroke-linejoin:round;fill-rule:evenodd;"
d="M 74065,69368
74128,69387
74191,69406
74191,69406
74308,69468
74410,69552
74493,69654
74555,69770
74594,69896
74603,69995
74603,70297
74594,70395
74555,70521
74493,70637
74410,70739
74308,70823
74191,70885
74065,70923
73934,70936
73803,70923
73711,70895
73677,70885
73619,70854
73560,70823
73459,70739
73375,70637
73313,70521
73274,70395
73265,70297
73265,69995
73274,69896
73313,69770
73375,69654
73459,69552
73560,69468
73677,69406
73677,69406
73740,69387
73803,69368
73934,69355
74065,69368
Z" /> 
<path style="fill:#000000; fill-opacity:1.0; 
stroke:#000000; stroke-width:0; stroke-opacity:1; 
stroke-linecap:round; stroke-linejoin:round;fill-rule:evenodd;"
d="M 81065,69368
81128,69387
81191,69406
81191,69406
81308,69468
81410,69552
81493,69654
81555,69770
81594,69896
81603,69995
81603,70297
81594,70395
81555,70521
81493,70637
81410,70739
81308,70823
81191,70885
81065,70923
80934,70936
80803,70923
80711,70895
80677,70885
80619,70854
80560,70823
80459,70739
80375,70637
80313,70521
80274,70395
80265,70297
80265,69995
80274,69896
80313,69770
80375,69654
80459,69552
80560,69468
80677,69406
80677,69406
80740,69387
80803,69368
80934,69355
81065,69368
Z" /> 
<path style="fill:#000000; fill-opacity:1.0; 
stroke:#000000; stroke-width:0; stroke-opacity:1; 
stroke-linecap:round; stroke-linejoin:round;fill-rule:evenodd;"
d="M 34501,69361
34525,69368
34546,69380
34566,69396
34581,69415
34593,69437
34600,69461
34603,69490
34603,70801
34600,70830
34593,70854
34581,70876
34566,70895
34546,70911
34525,70923
34501,70930
34471,70933
33397,70933
33367,70930
33344,70923
33322,70911
33302,70895
33287,70876
33275,70854
33268,70830
33265,70801
33265,69490
33268,69461
33275,69437
33287,69415
33302,69396
33322,69380
33344,69368
33367,69361
33397,69358
34471,69358
34501,69361
Z" /> 
<path style="fill:#000000; fill-opacity:1.0; 
stroke:#000000; stroke-width:0; stroke-opacity:1; 
stroke-linecap:round; stroke-linejoin:round;fill-rule:evenodd;"
d="M 62501,69361
62525,69368
62546,69380
62566,69396
62581,69415
62593,69437
62600,69461
62603,69490
62603,70801
62600,70830
62593,70854
62581,70876
62566,70895
62546,70911
62525,70923
62501,70930
62471,70933
61397,70933
61367,70930
61344,70923
61322,70911
61302,70895
61287,70876
61275,70854
61268,70830
61265,70801
61265,69490
61268,69461
61275,69437
61287,69415
61302,69396
61322,69380
61344,69368
61367,69361
61397,69358
62471,69358
62501,69361
Z" /> 
<path style="fill:#000000; fill-opacity:1.0; 
stroke:#000000; stroke-width:0; stroke-opacity:1; 
stroke-linecap:round; stroke-linejoin:round;fill-rule:evenodd;"
d="M 83469,69361
83493,69368
83515,69380
83534,69396
83550,69415
83562,69437
83569,69461
83572,69490
83572,70801
83569,70830
83562,70854
83550,70876
83534,70895
83515,70911
83493,70923
83469,70930
83440,70933
82365,70933
82336,70930
82312,70923
82290,70911
82271,70895
82255,70876
82243,70854
82236,70830
82233,70801
82233,69490
82236,69461
82243,69437
82255,69415
82271,69396
82290,69380
82312,69368
82336,69361
82365,69358
83440,69358
83469,69361
Z" /> 
<path style="fill:#000000; fill-opacity:1.0; 
stroke:#000000; stroke-width:0; stroke-opacity:1; 
stroke-linecap:round; stroke-linejoin:round;fill-rule:evenodd;"
d="M 76469,69361
76493,69368
76515,69380
76534,69396
76550,69415
76562,69437
76569,69461
76572,69490
76572,70801
76569,70830
76562,70854
76550,70876
76534,70895
76515,70911
76493,70923
76469,70930
76440,70933
75365,70933
75336,70930
75312,70923
75290,70911
75271,70895
75255,70876
75243,70854
75236,70830
75233,70801
75233,69490
75236,69461
75243,69437
75255,69415
75271,69396
75290,69380
75312,69368
75336,69361
75365,69358
76440,69358
76469,69361
Z" /> 
<path style="fill:#000000; fill-opacity:1.0; 
stroke:#000000; stroke-width:0; stroke-opacity:1; 
stroke-linecap:round; stroke-linejoin:round;fill-rule:evenodd;"
d="M 69469,69361
69493,69368
69515,69380
69534,69396
69550,69415
69562,69437
69569,69461
69572,69490
69572,70801
69569,70830
69562,70854
69550,70876
69534,70895
69515,70911
69493,70923
69469,70930
69440,70933
68365,70933
68336,70930
68312,70923
68290,70911
68271,70895
68255,70876
68243,70854
68236,70830
68233,70801
68233,69490
68236,69461
68243,69437
68255,69415
68271,69396
68290,69380
68312,69368
68336,69361
68365,69358
69440,69358
69469,69361
Z" /> 
<path style="fill:#000000; fill-opacity:1.0; 
stroke:#000000; stroke-width:0; stroke-opacity:1; 
stroke-linecap:round; stroke-linejoin:round;fill-rule:evenodd;"
d="M 55501,69361
55525,69368
55546,69380
55566,69396
55581,69415
55593,69437
55600,69461
55603,69490
55603,70801
55600,70830
55593,70854
55581,70876
55566,70895
55546,70911
55525,70923
55501,70930
55471,70933
54397,70933
54367,70930
54344,70923
54322,70911
54302,70895
54287,70876
54275,70854
54268,70830
54265,70801
54265,69490
54268,69461
54275,69437
54287,69415
54302,69396
54322,69380
54344,69368
54367,69361
54397,69358
55471,69358
55501,69361
Z" /> 
<path style="fill:#000000; fill-opacity:1.0; 
stroke:#000000; stroke-width:0; stroke-opacity:1; 
stroke-linecap:round; stroke-linejoin:round;fill-rule:evenodd;"
d="M 48501,69361
48525,69368
48546,69380
48566,69396
48581,69415
48593,69437
48600,69461
48603,69490
48603,70801
48600,70830
48593,70854
48581,70876
48566,70895
48546,70911
48525,70923
48501,70930
48471,70933
47397,70933
47367,70930
47344,70923
47322,70911
47302,70895
47287,70876
47275,70854
47268,70830
47265,70801
47265,69490
47268,69461
47275,69437
47287,69415
47302,69396
47322,69380
47344,69368
47367,69361
47397,69358
48471,69358
48501,69361
Z" /> 
<path style="fill:#000000; fill-opacity:1.0; 
stroke:#000000; stroke-width:0; stroke-opacity:1; 
stroke-linecap:round; stroke-linejoin:round;fill-rule:evenodd;"
d="M 41501,69361
41525,69368
41546,69380
41566,69396
41581,69415
41593,69437
41600,69461
41603,69490
41603,70801
41600,70830
41593,70854
41581,70876
41566,70895
41546,70911
41525,70923
41501,70930
41471,70933
40397,70933
40367,70930
40344,70923
40322,70911
40302,70895
40287,70876
40275,70854
40268,70830
40265,70801
40265,69490
40268,69461
40275,69437
40287,69415
40302,69396
40322,69380
40344,69368
40367,69361
40397,69358
41471,69358
41501,69361
Z" /> 
<path style="fill:#000000; fill-opacity:1.0; 
stroke:#000000; stroke-width:0; stroke-opacity:1; 
stroke-linecap:round; stroke-linejoin:round;fill-rule:evenodd;"
d="M 42379,57310
42594,57399
42594,57399
42691,57464
42787,57528
42951,57693
43081,57886
43170,58101
43215,58329
43215,58562
43170,58790
43088,58988
43081,59005
42951,59199
42787,59363
42594,59492
42594,59492
42594,59492
42379,59581
42150,59627
41918,59627
41690,59581
41475,59492
41475,59492
41475,59492
41281,59363
41117,59199
40987,59005
40980,58988
40898,58790
40853,58562
40853,58329
40898,58101
40987,57886
41117,57693
41281,57528
41377,57464
41475,57399
41475,57399
41690,57310
41918,57265
42150,57265
42379,57310
Z" /> 
<path style="fill:#000000; fill-opacity:1.0; 
stroke:#000000; stroke-width:0; stroke-opacity:1; 
stroke-linecap:round; stroke-linejoin:round;fill-rule:evenodd;"
d="M 27081,59627
24719,59627
24719,57265
27081,57265
27081,59627
Z" /> 
<path style="fill:#000000; fill-opacity:1.0; 
stroke:#000000; stroke-width:0; stroke-opacity:1; 
stroke-linecap:round; stroke-linejoin:round;fill-rule:evenodd;"
d="M 70796,58119
70858,58125
70976,58161
70976,58161
71086,58219
71086,58219
71086,58219
71182,58298
71260,58394
71319,58503
71355,58622
71367,58746
71355,58869
71319,58988
71319,58988
71260,59097
71182,59193
71086,59272
70976,59330
70976,59330
70858,59366
70796,59372
70765,59376
70703,59376
70672,59372
70611,59366
70492,59330
70492,59330
70382,59272
70286,59193
70208,59097
70149,58988
70149,58988
70113,58869
70101,58746
70113,58622
70149,58503
70208,58394
70286,58298
70382,58219
70382,58219
70382,58219
70492,58161
70492,58161
70611,58125
70672,58119
70703,58116
70765,58116
70796,58119
Z" /> 
<path style="fill:#000000; fill-opacity:1.0; 
stroke:#000000; stroke-width:0; stroke-opacity:1; 
stroke-linecap:round; stroke-linejoin:round;fill-rule:evenodd;"
d="M 66796,58119
66858,58125
66976,58161
66976,58161
67086,58219
67086,58219
67086,58219
67182,58298
67260,58394
67319,58503
67355,58622
67367,58746
67355,58869
67319,58988
67319,58988
67260,59097
67182,59193
67086,59272
66976,59330
66976,59330
66858,59366
66796,59372
66765,59376
66703,59376
66672,59372
66611,59366
66492,59330
66492,59330
66382,59272
66286,59193
66208,59097
66149,58988
66149,58988
66113,58869
66101,58746
66113,58622
66149,58503
66208,58394
66286,58298
66382,58219
66382,58219
66382,58219
66492,58161
66492,58161
66611,58125
66672,58119
66703,58116
66765,58116
66796,58119
Z" /> 
<path style="fill:#000000; fill-opacity:1.0; 
stroke:#000000; stroke-width:0; stroke-opacity:1; 
stroke-linecap:round; stroke-linejoin:round;fill-rule:evenodd;"
d="M 62796,58119
62858,58125
62976,58161
62976,58161
63086,58219
63086,58219
63086,58219
63182,58298
63260,58394
63319,58503
63355,58622
63367,58746
63355,58869
63319,58988
63319,58988
63260,59097
63182,59193
63086,59272
62976,59330
62976,59330
62858,59366
62796,59372
62765,59376
62703,59376
62672,59372
62611,59366
62492,59330
62492,59330
62382,59272
62286,59193
62208,59097
62149,58988
62149,58988
62113,58869
62101,58746
62113,58622
62149,58503
62208,58394
62286,58298
62382,58219
62382,58219
62382,58219
62492,58161
62492,58161
62611,58125
62672,58119
62703,58116
62765,58116
62796,58119
Z" /> 
<path style="fill:#000000; fill-opacity:1.0; 
stroke:#000000; stroke-width:0; stroke-opacity:1; 
stroke-linecap:round; stroke-linejoin:round;fill-rule:evenodd;"
d="M 60796,58119
60858,58125
60976,58161
60976,58161
61086,58219
61086,58219
61086,58219
61182,58298
61260,58394
61319,58503
61355,58622
61367,58746
61355,58869
61319,58988
61319,58988
61260,59097
61182,59193
61086,59272
60976,59330
60976,59330
60858,59366
60796,59372
60765,59376
60703,59376
60672,59372
60611,59366
60492,59330
60492,59330
60382,59272
60286,59193
60208,59097
60149,58988
60149,58988
60113,58869
60101,58746
60113,58622
60149,58503
60208,58394
60286,58298
60382,58219
60382,58219
60382,58219
60492,58161
60492,58161
60611,58125
60672,58119
60703,58116
60765,58116
60796,58119
Z" /> 
<path style="fill:#000000; fill-opacity:1.0; 
stroke:#000000; stroke-width:0; stroke-opacity:1; 
stroke-linecap:round; stroke-linejoin:round;fill-rule:evenodd;"
d="M 58796,58119
58858,58125
58976,58161
58976,58161
59086,58219
59086,58219
59086,58219
59182,58298
59260,58394
59319,58503
59355,58622
59367,58746
59355,58869
59319,58988
59319,58988
59260,59097
59182,59193
59086,59272
58976,59330
58976,59330
58858,59366
58796,59372
58765,59376
58703,59376
58672,59372
58611,59366
58492,59330
58492,59330
58382,59272
58286,59193
58208,59097
58149,58988
58149,58988
58113,58869
58101,58746
58113,58622
58149,58503
58208,58394
58286,58298
58382,58219
58382,58219
58382,58219
58492,58161
58492,58161
58611,58125
58672,58119
58703,58116
58765,58116
58796,58119
Z" /> 
<path style="fill:#000000; fill-opacity:1.0; 
stroke:#000000; stroke-width:0; stroke-opacity:1; 
stroke-linecap:round; stroke-linejoin:round;fill-rule:evenodd;"
d="M 56796,58119
56858,58125
56976,58161
56976,58161
57086,58219
57086,58219
57086,58219
57182,58298
57260,58394
57319,58503
57355,58622
57367,58746
57355,58869
57319,58988
57319,58988
57260,59097
57182,59193
57086,59272
56976,59330
56976,59330
56858,59366
56796,59372
56765,59376
56703,59376
56672,59372
56611,59366
56492,59330
56492,59330
56382,59272
56286,59193
56208,59097
56149,58988
56149,58988
56113,58869
56101,58746
56113,58622
56149,58503
56208,58394
56286,58298
56382,58219
56382,58219
56382,58219
56492,58161
56492,58161
56611,58125
56672,58119
56703,58116
56765,58116
56796,58119
Z" /> 
<path style="fill:#000000; fill-opacity:1.0; 
stroke:#000000; stroke-width:0; stroke-opacity:1; 
stroke-linecap:round; stroke-linejoin:round;fill-rule:evenodd;"
d="M 44796,58119
44858,58125
44976,58161
44976,58161
45086,58219
45086,58219
45086,58219
45182,58298
45260,58394
45319,58503
45355,58622
45367,58746
45355,58869
45319,58988
45319,58988
45260,59097
45182,59193
45086,59272
44976,59330
44976,59330
44858,59366
44796,59372
44765,59376
44703,59376
44672,59372
44611,59366
44492,59330
44492,59330
44382,59272
44286,59193
44208,59097
44149,58988
44149,58988
44113,58869
44101,58746
44113,58622
44149,58503
44208,58394
44286,58298
44382,58219
44382,58219
44382,58219
44492,58161
44492,58161
44611,58125
44672,58119
44703,58116
44765,58116
44796,58119
Z" /> 
<path style="fill:#000000; fill-opacity:1.0; 
stroke:#000000; stroke-width:0; stroke-opacity:1; 
stroke-linecap:round; stroke-linejoin:round;fill-rule:evenodd;"
d="M 46796,58119
46858,58125
46976,58161
46976,58161
47086,58219
47086,58219
47086,58219
47182,58298
47260,58394
47319,58503
47355,58622
47367,58746
47355,58869
47319,58988
47319,58988
47260,59097
47182,59193
47086,59272
46976,59330
46976,59330
46858,59366
46796,59372
46765,59376
46703,59376
46672,59372
46611,59366
46492,59330
46492,59330
46382,59272
46286,59193
46208,59097
46149,58988
46149,58988
46113,58869
46101,58746
46113,58622
46149,58503
46208,58394
46286,58298
46382,58219
46382,58219
46382,58219
46492,58161
46492,58161
46611,58125
46672,58119
46703,58116
46765,58116
46796,58119
Z" /> 
<path style="fill:#000000; fill-opacity:1.0; 
stroke:#000000; stroke-width:0; stroke-opacity:1; 
stroke-linecap:round; stroke-linejoin:round;fill-rule:evenodd;"
d="M 48796,58119
48858,58125
48976,58161
48976,58161
49086,58219
49086,58219
49086,58219
49182,58298
49260,58394
49319,58503
49355,58622
49367,58746
49355,58869
49319,58988
49319,58988
49260,59097
49182,59193
49086,59272
48976,59330
48976,59330
48858,59366
48796,59372
48765,59376
48703,59376
48672,59372
48611,59366
48492,59330
48492,59330
48382,59272
48286,59193
48208,59097
48149,58988
48149,58988
48113,58869
48101,58746
48113,58622
48149,58503
48208,58394
48286,58298
48382,58219
48382,58219
48382,58219
48492,58161
48492,58161
48611,58125
48672,58119
48703,58116
48765,58116
48796,58119
Z" /> 
<path style="fill:#000000; fill-opacity:1.0; 
stroke:#000000; stroke-width:0; stroke-opacity:1; 
stroke-linecap:round; stroke-linejoin:round;fill-rule:evenodd;"
d="M 50796,58119
50858,58125
50976,58161
50976,58161
51086,58219
51086,58219
51086,58219
51182,58298
51260,58394
51319,58503
51355,58622
51367,58746
51355,58869
51319,58988
51319,58988
51260,59097
51182,59193
51086,59272
50976,59330
50976,59330
50858,59366
50796,59372
50765,59376
50703,59376
50672,59372
50611,59366
50492,59330
50492,59330
50382,59272
50286,59193
50208,59097
50149,58988
50149,58988
50113,58869
50101,58746
50113,58622
50149,58503
50208,58394
50286,58298
50382,58219
50382,58219
50382,58219
50492,58161
50492,58161
50611,58125
50672,58119
50703,58116
50765,58116
50796,58119
Z" /> 
<path style="fill:#000000; fill-opacity:1.0; 
stroke:#000000; stroke-width:0; stroke-opacity:1; 
stroke-linecap:round; stroke-linejoin:round;fill-rule:evenodd;"
d="M 52796,58119
52858,58125
52976,58161
52976,58161
53086,58219
53086,58219
53086,58219
53182,58298
53260,58394
53319,58503
53355,58622
53367,58746
53355,58869
53319,58988
53319,58988
53260,59097
53182,59193
53086,59272
52976,59330
52976,59330
52858,59366
52796,59372
52765,59376
52703,59376
52672,59372
52611,59366
52492,59330
52492,59330
52382,59272
52286,59193
52208,59097
52149,58988
52149,58988
52113,58869
52101,58746
52113,58622
52149,58503
52208,58394
52286,58298
52382,58219
52382,58219
52382,58219
52492,58161
52492,58161
52611,58125
52672,58119
52703,58116
52765,58116
52796,58119
Z" /> 
<path style="fill:#000000; fill-opacity:1.0; 
stroke:#000000; stroke-width:0; stroke-opacity:1; 
stroke-linecap:round; stroke-linejoin:round;fill-rule:evenodd;"
d="M 54796,58119
54858,58125
54976,58161
54976,58161
55086,58219
55086,58219
55086,58219
55182,58298
55260,58394
55319,58503
55355,58622
55367,58746
55355,58869
55319,58988
55319,58988
55260,59097
55182,59193
55086,59272
54976,59330
54976,59330
54858,59366
54796,59372
54765,59376
54703,59376
54672,59372
54611,59366
54492,59330
54492,59330
54382,59272
54286,59193
54208,59097
54149,58988
54149,58988
54113,58869
54101,58746
54113,58622
54149,58503
54208,58394
54286,58298
54382,58219
54382,58219
54382,58219
54492,58161
54492,58161
54611,58125
54672,58119
54703,58116
54765,58116
54796,58119
Z" /> 
<path style="fill:#000000; fill-opacity:1.0; 
stroke:#000000; stroke-width:0; stroke-opacity:1; 
stroke-linecap:round; stroke-linejoin:round;fill-rule:evenodd;"
d="M 64796,58119
64858,58125
64976,58161
64976,58161
65086,58219
65086,58219
65086,58219
65182,58298
65260,58394
65319,58503
65355,58622
65367,58746
65355,58869
65319,58988
65319,58988
65260,59097
65182,59193
65086,59272
64976,59330
64976,59330
64858,59366
64796,59372
64765,59376
64703,59376
64672,59372
64611,59366
64492,59330
64492,59330
64382,59272
64286,59193
64208,59097
64149,58988
64149,58988
64113,58869
64101,58746
64113,58622
64149,58503
64208,58394
64286,58298
64382,58219
64382,58219
64382,58219
64492,58161
64492,58161
64611,58125
64672,58119
64703,58116
64765,58116
64796,58119
Z" /> 
<path style="fill:#000000; fill-opacity:1.0; 
stroke:#000000; stroke-width:0; stroke-opacity:1; 
stroke-linecap:round; stroke-linejoin:round;fill-rule:evenodd;"
d="M 68796,58119
68858,58125
68976,58161
68976,58161
69086,58219
69086,58219
69086,58219
69182,58298
69260,58394
69319,58503
69355,58622
69367,58746
69355,58869
69319,58988
69319,58988
69260,59097
69182,59193
69086,59272
68976,59330
68976,59330
68858,59366
68796,59372
68765,59376
68703,59376
68672,59372
68611,59366
68492,59330
68492,59330
68382,59272
68286,59193
68208,59097
68149,58988
68149,58988
68113,58869
68101,58746
68113,58622
68149,58503
68208,58394
68286,58298
68382,58219
68382,58219
68382,58219
68492,58161
68492,58161
68611,58125
68672,58119
68703,58116
68765,58116
68796,58119
Z" /> 
<path style="fill:#000000; fill-opacity:1.0; 
stroke:#000000; stroke-width:0; stroke-opacity:1; 
stroke-linecap:round; stroke-linejoin:round;fill-rule:evenodd;"
d="M 76296,53319
76358,53325
76476,53361
76476,53361
76586,53419
76586,53419
76586,53419
76682,53498
76760,53594
76819,53703
76855,53822
76867,53946
76855,54069
76819,54188
76819,54188
76760,54297
76682,54393
76586,54472
76476,54530
76476,54530
76358,54566
76296,54572
76265,54576
76203,54576
76172,54572
76111,54566
75992,54530
75992,54530
75882,54472
75786,54393
75708,54297
75649,54188
75649,54188
75613,54069
75601,53946
75613,53822
75649,53703
75708,53594
75786,53498
75882,53419
75882,53419
75882,53419
75992,53361
75992,53361
76111,53325
76172,53319
76203,53316
76265,53316
76296,53319
Z" /> 
<path style="fill:#000000; fill-opacity:1.0; 
stroke:#000000; stroke-width:0; stroke-opacity:1; 
stroke-linecap:round; stroke-linejoin:round;fill-rule:evenodd;"
d="M 82864,54576
81604,54576
81604,53316
82864,53316
82864,54576
Z" /> 
<path style="fill:#000000; fill-opacity:1.0; 
stroke:#000000; stroke-width:0; stroke-opacity:1; 
stroke-linecap:round; stroke-linejoin:round;fill-rule:evenodd;"
d="M 82296,51319
82358,51325
82476,51361
82476,51361
82586,51419
82586,51419
82586,51419
82682,51498
82760,51594
82819,51703
82855,51822
82867,51946
82855,52069
82819,52188
82819,52188
82760,52297
82682,52393
82586,52472
82476,52530
82476,52530
82358,52566
82296,52572
82265,52576
82203,52576
82172,52572
82111,52566
81992,52530
81992,52530
81882,52472
81786,52393
81708,52297
81649,52188
81649,52188
81613,52069
81601,51946
81613,51822
81649,51703
81708,51594
81786,51498
81882,51419
81882,51419
81882,51419
81992,51361
81992,51361
82111,51325
82172,51319
82203,51316
82265,51316
82296,51319
Z" /> 
<path style="fill:#000000; fill-opacity:1.0; 
stroke:#000000; stroke-width:0; stroke-opacity:1; 
stroke-linecap:round; stroke-linejoin:round;fill-rule:evenodd;"
d="M 76296,51319
76358,51325
76476,51361
76476,51361
76586,51419
76586,51419
76586,51419
76682,51498
76760,51594
76819,51703
76855,51822
76867,51946
76855,52069
76819,52188
76819,52188
76760,52297
76682,52393
76586,52472
76476,52530
76476,52530
76358,52566
76296,52572
76265,52576
76203,52576
76172,52572
76111,52566
75992,52530
75992,52530
75882,52472
75786,52393
75708,52297
75649,52188
75649,52188
75613,52069
75601,51946
75613,51822
75649,51703
75708,51594
75786,51498
75882,51419
75882,51419
75882,51419
75992,51361
75992,51361
76111,51325
76172,51319
76203,51316
76265,51316
76296,51319
Z" /> 
<path style="fill:#000000; fill-opacity:1.0; 
stroke:#000000; stroke-width:0; stroke-opacity:1; 
stroke-linecap:round; stroke-linejoin:round;fill-rule:evenodd;"
d="M 76296,49319
76358,49325
76476,49361
76476,49361
76586,49419
76586,49419
76586,49419
76682,49498
76760,49594
76819,49703
76855,49822
76867,49946
76855,50069
76819,50188
76819,50188
76760,50297
76682,50393
76586,50472
76476,50530
76476,50530
76358,50566
76296,50572
76265,50576
76203,50576
76172,50572
76111,50566
75992,50530
75992,50530
75882,50472
75786,50393
75708,50297
75649,50188
75649,50188
75613,50069
75601,49946
75613,49822
75649,49703
75708,49594
75786,49498
75882,49419
75882,49419
75882,49419
75992,49361
75992,49361
76111,49325
76172,49319
76203,49316
76265,49316
76296,49319
Z" /> 
<path style="fill:#000000; fill-opacity:1.0; 
stroke:#000000; stroke-width:0; stroke-opacity:1; 
stroke-linecap:round; stroke-linejoin:round;fill-rule:evenodd;"
d="M 82296,49319
82358,49325
82476,49361
82476,49361
82586,49419
82586,49419
82586,49419
82682,49498
82760,49594
82819,49703
82855,49822
82867,49946
82855,50069
82819,50188
82819,50188
82760,50297
82682,50393
82586,50472
82476,50530
82476,50530
82358,50566
82296,50572
82265,50576
82203,50576
82172,50572
82111,50566
81992,50530
81992,50530
81882,50472
81786,50393
81708,50297
81649,50188
81649,50188
81613,50069
81601,49946
81613,49822
81649,49703
81708,49594
81786,49498
81882,49419
81882,49419
81882,49419
81992,49361
81992,49361
82111,49325
82172,49319
82203,49316
82265,49316
82296,49319
Z" /> 
<path style="fill:#000000; fill-opacity:1.0; 
stroke:#000000; stroke-width:0; stroke-opacity:1; 
stroke-linecap:round; stroke-linejoin:round;fill-rule:evenodd;"
d="M 82296,47319
82358,47325
82476,47361
82476,47361
82586,47419
82682,47498
82760,47594
82819,47703
82819,47703
82855,47822
82867,47946
82855,48069
82819,48188
82819,48188
82760,48297
82682,48393
82586,48472
82476,48530
82476,48530
82358,48566
82296,48572
82265,48576
82203,48576
82172,48572
82111,48566
81992,48530
81992,48530
81882,48472
81786,48393
81708,48297
81649,48188
81649,48188
81613,48069
81601,47946
81613,47822
81649,47703
81649,47703
81708,47594
81786,47498
81882,47419
81992,47361
81992,47361
82111,47325
82172,47319
82203,47316
82265,47316
82296,47319
Z" /> 
<path style="fill:#000000; fill-opacity:1.0; 
stroke:#000000; stroke-width:0; stroke-opacity:1; 
stroke-linecap:round; stroke-linejoin:round;fill-rule:evenodd;"
d="M 76296,47319
76358,47325
76476,47361
76476,47361
76586,47419
76682,47498
76760,47594
76819,47703
76819,47703
76855,47822
76867,47946
76855,48069
76819,48188
76819,48188
76760,48297
76682,48393
76586,48472
76476,48530
76476,48530
76358,48566
76296,48572
76265,48576
76203,48576
76172,48572
76111,48566
75992,48530
75992,48530
75882,48472
75786,48393
75708,48297
75649,48188
75649,48188
75613,48069
75601,47946
75613,47822
75649,47703
75649,47703
75708,47594
75786,47498
75882,47419
75992,47361
75992,47361
76111,47325
76172,47319
76203,47316
76265,47316
76296,47319
Z" /> 
<path style="fill:#000000; fill-opacity:1.0; 
stroke:#000000; stroke-width:0; stroke-opacity:1; 
stroke-linecap:round; stroke-linejoin:round;fill-rule:evenodd;"
d="M 34828,46488
34880,46503
34954,46526
34954,46526
35071,46588
35173,46672
35256,46774
35318,46890
35357,47016
35366,47114
35366,47377
35357,47475
35357,47475
35321,47594
35318,47601
35256,47718
35173,47820
35071,47903
34954,47965
34828,48004
34697,48017
34566,48004
34474,47976
34440,47965
34382,47935
34323,47903
34222,47820
34138,47718
34076,47601
34037,47475
34028,47377
34028,47114
34037,47016
34076,46890
34138,46774
34222,46672
34323,46588
34440,46526
34440,46526
34514,46503
34566,46488
34697,46475
34828,46488
Z" /> 
<path style="fill:#000000; fill-opacity:1.0; 
stroke:#000000; stroke-width:0; stroke-opacity:1; 
stroke-linecap:round; stroke-linejoin:round;fill-rule:evenodd;"
d="M 32860,46488
32912,46503
32986,46526
32986,46526
33102,46588
33204,46672
33288,46774
33350,46890
33388,47016
33398,47114
33398,47377
33388,47475
33388,47475
33352,47594
33350,47601
33288,47718
33204,47820
33102,47903
32986,47965
32860,48004
32729,48017
32597,48004
32505,47976
32471,47965
32413,47935
32355,47903
32253,47820
32169,47718
32107,47601
32069,47475
32059,47377
32059,47114
32069,47016
32107,46890
32169,46774
32253,46672
32355,46588
32471,46526
32471,46526
32545,46503
32597,46488
32729,46475
32860,46488
Z" /> 
<path style="fill:#000000; fill-opacity:1.0; 
stroke:#000000; stroke-width:0; stroke-opacity:1; 
stroke-linecap:round; stroke-linejoin:round;fill-rule:evenodd;"
d="M 30891,46488
30943,46503
31017,46526
31017,46526
31134,46588
31236,46672
31319,46774
31381,46890
31420,47016
31429,47114
31429,47377
31420,47475
31420,47475
31384,47594
31381,47601
31319,47718
31236,47820
31134,47903
31017,47965
30891,48004
30760,48017
30629,48004
30537,47976
30503,47965
30445,47935
30386,47903
30285,47820
30201,47718
30139,47601
30100,47475
30091,47377
30091,47114
30100,47016
30139,46890
30201,46774
30285,46672
30386,46588
30503,46526
30503,46526
30577,46503
30629,46488
30760,46475
30891,46488
Z" /> 
<path style="fill:#000000; fill-opacity:1.0; 
stroke:#000000; stroke-width:0; stroke-opacity:1; 
stroke-linecap:round; stroke-linejoin:round;fill-rule:evenodd;"
d="M 28923,46488
28975,46503
29049,46526
29049,46526
29165,46588
29267,46672
29351,46774
29413,46890
29451,47016
29461,47114
29461,47377
29451,47475
29451,47475
29415,47594
29413,47601
29351,47718
29267,47820
29165,47903
29049,47965
28923,48004
28792,48017
28660,48004
28568,47976
28534,47965
28476,47935
28418,47903
28316,47820
28232,47718
28170,47601
28132,47475
28122,47377
28122,47114
28132,47016
28170,46890
28232,46774
28316,46672
28418,46588
28534,46526
28534,46526
28608,46503
28660,46488
28792,46475
28923,46488
Z" /> 
<path style="fill:#000000; fill-opacity:1.0; 
stroke:#000000; stroke-width:0; stroke-opacity:1; 
stroke-linecap:round; stroke-linejoin:round;fill-rule:evenodd;"
d="M 36797,46488
36849,46503
36923,46526
36923,46526
37039,46588
37141,46672
37225,46774
37287,46890
37325,47016
37335,47114
37335,47377
37325,47475
37325,47475
37289,47594
37287,47601
37225,47718
37141,47820
37039,47903
36923,47965
36797,48004
36666,48017
36534,48004
36442,47976
36408,47965
36350,47935
36292,47903
36190,47820
36106,47718
36044,47601
36006,47475
35996,47377
35996,47114
36006,47016
36044,46890
36106,46774
36190,46672
36292,46588
36408,46526
36408,46526
36482,46503
36534,46488
36666,46475
36797,46488
Z" /> 
<path style="fill:#000000; fill-opacity:1.0; 
stroke:#000000; stroke-width:0; stroke-opacity:1; 
stroke-linecap:round; stroke-linejoin:round;fill-rule:evenodd;"
d="M 39201,46481
39225,46488
39246,46500
39266,46516
39281,46535
39293,46557
39300,46581
39303,46610
39303,47881
39300,47911
39293,47935
39281,47956
39266,47976
39246,47991
39225,48003
39201,48010
39171,48013
38097,48013
38067,48010
38044,48003
38022,47991
38002,47976
37987,47956
37975,47935
37968,47911
37965,47881
37965,46610
37968,46581
37975,46557
37987,46535
38002,46516
38022,46500
38044,46488
38067,46481
38097,46478
39171,46478
39201,46481
Z" /> 
<path style="fill:#000000; fill-opacity:1.0; 
stroke:#000000; stroke-width:0; stroke-opacity:1; 
stroke-linecap:round; stroke-linejoin:round;fill-rule:evenodd;"
d="M 52796,46119
52858,46125
52976,46161
52976,46161
53086,46219
53182,46298
53260,46394
53317,46500
53319,46503
53355,46622
53367,46746
53355,46869
53319,46988
53319,46988
53260,47097
53182,47193
53086,47272
53004,47316
52976,47330
52858,47366
52796,47372
52765,47376
52703,47376
52672,47372
52611,47366
52492,47330
52464,47316
52382,47272
52286,47193
52208,47097
52149,46988
52149,46988
52113,46869
52101,46746
52113,46622
52149,46503
52151,46500
52208,46394
52286,46298
52382,46219
52492,46161
52492,46161
52611,46125
52672,46119
52703,46116
52765,46116
52796,46119
Z" /> 
<path style="fill:#000000; fill-opacity:1.0; 
stroke:#000000; stroke-width:0; stroke-opacity:1; 
stroke-linecap:round; stroke-linejoin:round;fill-rule:evenodd;"
d="M 54796,46119
54858,46125
54976,46161
54976,46161
55086,46219
55182,46298
55260,46394
55317,46500
55319,46503
55355,46622
55367,46746
55355,46869
55319,46988
55319,46988
55260,47097
55182,47193
55086,47272
55004,47316
54976,47330
54858,47366
54796,47372
54765,47376
54703,47376
54672,47372
54611,47366
54492,47330
54464,47316
54382,47272
54286,47193
54208,47097
54149,46988
54149,46988
54113,46869
54101,46746
54113,46622
54149,46503
54151,46500
54208,46394
54286,46298
54382,46219
54492,46161
54492,46161
54611,46125
54672,46119
54703,46116
54765,46116
54796,46119
Z" /> 
<path style="fill:#000000; fill-opacity:1.0; 
stroke:#000000; stroke-width:0; stroke-opacity:1; 
stroke-linecap:round; stroke-linejoin:round;fill-rule:evenodd;"
d="M 71364,47376
70104,47376
70104,46116
71364,46116
71364,47376
Z" /> 
<path style="fill:#000000; fill-opacity:1.0; 
stroke:#000000; stroke-width:0; stroke-opacity:1; 
stroke-linecap:round; stroke-linejoin:round;fill-rule:evenodd;"
d="M 50796,46119
50858,46125
50976,46161
50976,46161
51086,46219
51182,46298
51260,46394
51317,46500
51319,46503
51355,46622
51367,46746
51355,46869
51319,46988
51319,46988
51260,47097
51182,47193
51086,47272
51004,47316
50976,47330
50858,47366
50796,47372
50765,47376
50703,47376
50672,47372
50611,47366
50492,47330
50464,47316
50382,47272
50286,47193
50208,47097
50149,46988
50149,46988
50113,46869
50101,46746
50113,46622
50149,46503
50151,46500
50208,46394
50286,46298
50382,46219
50492,46161
50492,46161
50611,46125
50672,46119
50703,46116
50765,46116
50796,46119
Z" /> 
<path style="fill:#000000; fill-opacity:1.0; 
stroke:#000000; stroke-width:0; stroke-opacity:1; 
stroke-linecap:round; stroke-linejoin:round;fill-rule:evenodd;"
d="M 68796,46119
68858,46125
68976,46161
68976,46161
69086,46219
69182,46298
69260,46394
69317,46500
69319,46503
69355,46622
69367,46746
69355,46869
69319,46988
69319,46988
69260,47097
69182,47193
69086,47272
69004,47316
68976,47330
68858,47366
68796,47372
68765,47376
68703,47376
68672,47372
68611,47366
68492,47330
68464,47316
68382,47272
68286,47193
68208,47097
68149,46988
68149,46988
68113,46869
68101,46746
68113,46622
68149,46503
68151,46500
68208,46394
68286,46298
68382,46219
68492,46161
68492,46161
68611,46125
68672,46119
68703,46116
68765,46116
68796,46119
Z" /> 
<path style="fill:#000000; fill-opacity:1.0; 
stroke:#000000; stroke-width:0; stroke-opacity:1; 
stroke-linecap:round; stroke-linejoin:round;fill-rule:evenodd;"
d="M 66796,46119
66858,46125
66976,46161
66976,46161
67086,46219
67182,46298
67260,46394
67317,46500
67319,46503
67355,46622
67367,46746
67355,46869
67319,46988
67319,46988
67260,47097
67182,47193
67086,47272
67004,47316
66976,47330
66858,47366
66796,47372
66765,47376
66703,47376
66672,47372
66611,47366
66492,47330
66464,47316
66382,47272
66286,47193
66208,47097
66149,46988
66149,46988
66113,46869
66101,46746
66113,46622
66149,46503
66151,46500
66208,46394
66286,46298
66382,46219
66492,46161
66492,46161
66611,46125
66672,46119
66703,46116
66765,46116
66796,46119
Z" /> 
<path style="fill:#000000; fill-opacity:1.0; 
stroke:#000000; stroke-width:0; stroke-opacity:1; 
stroke-linecap:round; stroke-linejoin:round;fill-rule:evenodd;"
d="M 64796,46119
64858,46125
64976,46161
64976,46161
65086,46219
65182,46298
65260,46394
65317,46500
65319,46503
65355,46622
65367,46746
65355,46869
65319,46988
65319,46988
65260,47097
65182,47193
65086,47272
65004,47316
64976,47330
64858,47366
64796,47372
64765,47376
64703,47376
64672,47372
64611,47366
64492,47330
64464,47316
64382,47272
64286,47193
64208,47097
64149,46988
64149,46988
64113,46869
64101,46746
64113,46622
64149,46503
64151,46500
64208,46394
64286,46298
64382,46219
64492,46161
64492,46161
64611,46125
64672,46119
64703,46116
64765,46116
64796,46119
Z" /> 
<path style="fill:#000000; fill-opacity:1.0; 
stroke:#000000; stroke-width:0; stroke-opacity:1; 
stroke-linecap:round; stroke-linejoin:round;fill-rule:evenodd;"
d="M 62796,46119
62858,46125
62976,46161
62976,46161
63086,46219
63182,46298
63260,46394
63317,46500
63319,46503
63355,46622
63367,46746
63355,46869
63319,46988
63319,46988
63260,47097
63182,47193
63086,47272
63004,47316
62976,47330
62858,47366
62796,47372
62765,47376
62703,47376
62672,47372
62611,47366
62492,47330
62464,47316
62382,47272
62286,47193
62208,47097
62149,46988
62149,46988
62113,46869
62101,46746
62113,46622
62149,46503
62151,46500
62208,46394
62286,46298
62382,46219
62492,46161
62492,46161
62611,46125
62672,46119
62703,46116
62765,46116
62796,46119
Z" /> 
<path style="fill:#000000; fill-opacity:1.0; 
stroke:#000000; stroke-width:0; stroke-opacity:1; 
stroke-linecap:round; stroke-linejoin:round;fill-rule:evenodd;"
d="M 60796,46119
60858,46125
60976,46161
60976,46161
61086,46219
61182,46298
61260,46394
61317,46500
61319,46503
61355,46622
61367,46746
61355,46869
61319,46988
61319,46988
61260,47097
61182,47193
61086,47272
61004,47316
60976,47330
60858,47366
60796,47372
60765,47376
60703,47376
60672,47372
60611,47366
60492,47330
60464,47316
60382,47272
60286,47193
60208,47097
60149,46988
60149,46988
60113,46869
60101,46746
60113,46622
60149,46503
60151,46500
60208,46394
60286,46298
60382,46219
60492,46161
60492,46161
60611,46125
60672,46119
60703,46116
60765,46116
60796,46119
Z" /> 
<path style="fill:#000000; fill-opacity:1.0; 
stroke:#000000; stroke-width:0; stroke-opacity:1; 
stroke-linecap:round; stroke-linejoin:round;fill-rule:evenodd;"
d="M 58796,46119
58858,46125
58976,46161
58976,46161
59086,46219
59182,46298
59260,46394
59317,46500
59319,46503
59355,46622
59367,46746
59355,46869
59319,46988
59319,46988
59260,47097
59182,47193
59086,47272
59004,47316
58976,47330
58858,47366
58796,47372
58765,47376
58703,47376
58672,47372
58611,47366
58492,47330
58464,47316
58382,47272
58286,47193
58208,47097
58149,46988
58149,46988
58113,46869
58101,46746
58113,46622
58149,46503
58151,46500
58208,46394
58286,46298
58382,46219
58492,46161
58492,46161
58611,46125
58672,46119
58703,46116
58765,46116
58796,46119
Z" /> 
<path style="fill:#000000; fill-opacity:1.0; 
stroke:#000000; stroke-width:0; stroke-opacity:1; 
stroke-linecap:round; stroke-linejoin:round;fill-rule:evenodd;"
d="M 56796,46119
56858,46125
56976,46161
56976,46161
57086,46219
57182,46298
57260,46394
57317,46500
57319,46503
57355,46622
57367,46746
57355,46869
57319,46988
57319,46988
57260,47097
57182,47193
57086,47272
57004,47316
56976,47330
56858,47366
56796,47372
56765,47376
56703,47376
56672,47372
56611,47366
56492,47330
56464,47316
56382,47272
56286,47193
56208,47097
56149,46988
56149,46988
56113,46869
56101,46746
56113,46622
56149,46503
56151,46500
56208,46394
56286,46298
56382,46219
56492,46161
56492,46161
56611,46125
56672,46119
56703,46116
56765,46116
56796,46119
Z" /> 
<path style="fill:#000000; fill-opacity:1.0; 
stroke:#000000; stroke-width:0; stroke-opacity:1; 
stroke-linecap:round; stroke-linejoin:round;fill-rule:evenodd;"
d="M 44796,46119
44858,46125
44976,46161
44976,46161
45086,46219
45182,46298
45260,46394
45317,46500
45319,46503
45355,46622
45367,46746
45355,46869
45319,46988
45319,46988
45260,47097
45182,47193
45086,47272
45004,47316
44976,47330
44858,47366
44796,47372
44765,47376
44703,47376
44672,47372
44611,47366
44492,47330
44464,47316
44382,47272
44286,47193
44208,47097
44149,46988
44149,46988
44113,46869
44101,46746
44113,46622
44149,46503
44151,46500
44208,46394
44286,46298
44382,46219
44492,46161
44492,46161
44611,46125
44672,46119
44703,46116
44765,46116
44796,46119
Z" /> 
<path style="fill:#000000; fill-opacity:1.0; 
stroke:#000000; stroke-width:0; stroke-opacity:1; 
stroke-linecap:round; stroke-linejoin:round;fill-rule:evenodd;"
d="M 46796,46119
46858,46125
46976,46161
46976,46161
47086,46219
47182,46298
47260,46394
47317,46500
47319,46503
47355,46622
47367,46746
47355,46869
47319,46988
47319,46988
47260,47097
47182,47193
47086,47272
47004,47316
46976,47330
46858,47366
46796,47372
46765,47376
46703,47376
46672,47372
46611,47366
46492,47330
46464,47316
46382,47272
46286,47193
46208,47097
46149,46988
46149,46988
46113,46869
46101,46746
46113,46622
46149,46503
46151,46500
46208,46394
46286,46298
46382,46219
46492,46161
46492,46161
46611,46125
46672,46119
46703,46116
46765,46116
46796,46119
Z" /> 
<path style="fill:#000000; fill-opacity:1.0; 
stroke:#000000; stroke-width:0; stroke-opacity:1; 
stroke-linecap:round; stroke-linejoin:round;fill-rule:evenodd;"
d="M 48796,46119
48858,46125
48976,46161
48976,46161
49086,46219
49182,46298
49260,46394
49317,46500
49319,46503
49355,46622
49367,46746
49355,46869
49319,46988
49319,46988
49260,47097
49182,47193
49086,47272
49004,47316
48976,47330
48858,47366
48796,47372
48765,47376
48703,47376
48672,47372
48611,47366
48492,47330
48464,47316
48382,47272
48286,47193
48208,47097
48149,46988
48149,46988
48113,46869
48101,46746
48113,46622
48149,46503
48151,46500
48208,46394
48286,46298
48382,46219
48492,46161
48492,46161
48611,46125
48672,46119
48703,46116
48765,46116
48796,46119
Z" /> 
<path style="fill:#000000; fill-opacity:1.0; 
stroke:#000000; stroke-width:0; stroke-opacity:1; 
stroke-linecap:round; stroke-linejoin:round;fill-rule:evenodd;"
d="M 82296,45319
82358,45325
82476,45361
82476,45361
82586,45419
82682,45498
82760,45594
82777,45624
82819,45703
82855,45822
82867,45946
82855,46069
82819,46188
82819,46188
82760,46297
82682,46393
82586,46472
82512,46511
82476,46530
82358,46566
82296,46572
82265,46576
82203,46576
82172,46572
82111,46566
81992,46530
81956,46511
81882,46472
81786,46393
81708,46297
81649,46188
81649,46188
81613,46069
81601,45946
81613,45822
81649,45703
81692,45624
81708,45594
81786,45498
81882,45419
81992,45361
81992,45361
82111,45325
82172,45319
82203,45316
82265,45316
82296,45319
Z" /> 
<path style="fill:#000000; fill-opacity:1.0; 
stroke:#000000; stroke-width:0; stroke-opacity:1; 
stroke-linecap:round; stroke-linejoin:round;fill-rule:evenodd;"
d="M 76296,45319
76358,45325
76476,45361
76476,45361
76586,45419
76682,45498
76760,45594
76777,45624
76819,45703
76855,45822
76867,45946
76855,46069
76819,46188
76819,46188
76760,46297
76682,46393
76586,46472
76512,46511
76476,46530
76358,46566
76296,46572
76265,46576
76203,46576
76172,46572
76111,46566
75992,46530
75956,46511
75882,46472
75786,46393
75708,46297
75649,46188
75649,46188
75613,46069
75601,45946
75613,45822
75649,45703
75692,45624
75708,45594
75786,45498
75882,45419
75992,45361
75992,45361
76111,45325
76172,45319
76203,45316
76265,45316
76296,45319
Z" /> 
<path style="fill:#000000; fill-opacity:1.0; 
stroke:#000000; stroke-width:0; stroke-opacity:1; 
stroke-linecap:round; stroke-linejoin:round;fill-rule:evenodd;"
d="M 40032,45217
40118,45252
40195,45304
40261,45370
40313,45447
40348,45533
40366,45624
40366,45717
40348,45809
40313,45895
40261,45972
40195,46038
40118,46089
40032,46125
39940,46143
39847,46143
39756,46125
39670,46089
39593,46038
39527,45972
39475,45895
39440,45809
39421,45717
39421,45624
39440,45533
39475,45447
39527,45370
39593,45304
39670,45252
39756,45217
39847,45198
39940,45198
40032,45217
Z" /> 
<path style="fill:#000000; fill-opacity:1.0; 
stroke:#000000; stroke-width:0; stroke-opacity:1; 
stroke-linecap:round; stroke-linejoin:round;fill-rule:evenodd;"
d="M 76296,43319
76358,43325
76476,43361
76476,43361
76586,43419
76586,43419
76586,43419
76682,43498
76760,43594
76819,43703
76855,43822
76867,43946
76855,44069
76819,44188
76819,44188
76760,44297
76682,44393
76586,44472
76476,44530
76476,44530
76358,44566
76296,44572
76265,44576
76203,44576
76172,44572
76111,44566
75992,44530
75992,44530
75882,44472
75786,44393
75708,44297
75649,44188
75649,44188
75613,44069
75601,43946
75613,43822
75649,43703
75708,43594
75786,43498
75882,43419
75882,43419
75882,43419
75992,43361
75992,43361
76111,43325
76172,43319
76203,43316
76265,43316
76296,43319
Z" /> 
<path style="fill:#000000; fill-opacity:1.0; 
stroke:#000000; stroke-width:0; stroke-opacity:1; 
stroke-linecap:round; stroke-linejoin:round;fill-rule:evenodd;"
d="M 82296,43319
82358,43325
82476,43361
82476,43361
82586,43419
82586,43419
82586,43419
82682,43498
82760,43594
82819,43703
82855,43822
82867,43946
82855,44069
82819,44188
82819,44188
82760,44297
82682,44393
82586,44472
82476,44530
82476,44530
82358,44566
82296,44572
82265,44576
82203,44576
82172,44572
82111,44566
81992,44530
81992,44530
81882,44472
81786,44393
81708,44297
81649,44188
81649,44188
81613,44069
81601,43946
81613,43822
81649,43703
81708,43594
81786,43498
81882,43419
81882,43419
81882,43419
81992,43361
81992,43361
82111,43325
82172,43319
82203,43316
82265,43316
82296,43319
Z" /> 
<path style="fill:#000000; fill-opacity:1.0; 
stroke:#000000; stroke-width:0; stroke-opacity:1; 
stroke-linecap:round; stroke-linejoin:round;fill-rule:evenodd;"
d="M 60064,42678
60171,42722
60268,42787
60350,42869
60415,42966
60459,43073
60482,43187
60482,43304
60459,43418
60415,43525
60350,43622
60268,43704
60171,43769
60064,43813
59950,43836
59833,43836
59719,43813
59612,43769
59515,43704
59433,43622
59368,43525
59324,43418
59301,43304
59301,43187
59324,43073
59368,42966
59433,42869
59515,42787
59612,42722
59719,42678
59833,42655
59950,42655
60064,42678
Z" /> 
<path style="fill:#000000; fill-opacity:1.0; 
stroke:#000000; stroke-width:0; stroke-opacity:1; 
stroke-linecap:round; stroke-linejoin:round;fill-rule:evenodd;"
d="M 63906,42678
64014,42722
64111,42787
64193,42869
64257,42966
64302,43073
64325,43187
64325,43304
64302,43418
64257,43525
64193,43622
64111,43704
64014,43769
63906,43813
63792,43836
63676,43836
63562,43813
63454,43769
63358,43704
63275,43622
63211,43525
63166,43418
63144,43304
63144,43187
63166,43073
63211,42966
63275,42869
63358,42787
63454,42722
63562,42678
63676,42655
63792,42655
63906,42678
Z" /> 
<path style="fill:#000000; fill-opacity:1.0; 
stroke:#000000; stroke-width:0; stroke-opacity:1; 
stroke-linecap:round; stroke-linejoin:round;fill-rule:evenodd;"
d="M 82296,41319
82358,41325
82476,41361
82476,41361
82586,41419
82682,41498
82760,41594
82819,41703
82819,41703
82855,41822
82867,41946
82855,42069
82819,42188
82819,42188
82760,42297
82682,42393
82586,42472
82476,42530
82476,42530
82358,42566
82296,42572
82265,42576
82203,42576
82172,42572
82111,42566
81992,42530
81992,42530
81882,42472
81786,42393
81708,42297
81649,42188
81649,42188
81613,42069
81601,41946
81613,41822
81649,41703
81649,41703
81708,41594
81786,41498
81882,41419
81992,41361
81992,41361
82111,41325
82172,41319
82203,41316
82265,41316
82296,41319
Z" /> 
<path style="fill:#000000; fill-opacity:1.0; 
stroke:#000000; stroke-width:0; stroke-opacity:1; 
stroke-linecap:round; stroke-linejoin:round;fill-rule:evenodd;"
d="M 76296,41319
76358,41325
76476,41361
76476,41361
76586,41419
76682,41498
76760,41594
76819,41703
76819,41703
76855,41822
76867,41946
76855,42069
76819,42188
76819,42188
76760,42297
76682,42393
76586,42472
76476,42530
76476,42530
76358,42566
76296,42572
76265,42576
76203,42576
76172,42572
76111,42566
75992,42530
75992,42530
75882,42472
75786,42393
75708,42297
75649,42188
75649,42188
75613,42069
75601,41946
75613,41822
75649,41703
75649,41703
75708,41594
75786,41498
75882,41419
75992,41361
75992,41361
76111,41325
76172,41319
76203,41316
76265,41316
76296,41319
Z" /> 
<path style="fill:#000000; fill-opacity:1.0; 
stroke:#000000; stroke-width:0; stroke-opacity:1; 
stroke-linecap:round; stroke-linejoin:round;fill-rule:evenodd;"
d="M 32543,42054
31125,42054
31125,40637
32543,40637
32543,42054
Z" /> 
<path style="fill:#000000; fill-opacity:1.0; 
stroke:#000000; stroke-width:0; stroke-opacity:1; 
stroke-linecap:round; stroke-linejoin:round;fill-rule:evenodd;"
d="M 29973,40647
29973,40647
29973,40647
30107,40688
30107,40688
30107,40688
30230,40754
30338,40842
30426,40950
30492,41073
30532,41207
30546,41346
30532,41485
30532,41485
30532,41485
30499,41594
30492,41618
30426,41741
30338,41849
30230,41938
30107,42003
30107,42003
30107,42003
29973,42044
29973,42044
29973,42044
29869,42054
29799,42054
29695,42044
29695,42044
29695,42044
29562,42003
29562,42003
29562,42003
29438,41938
29331,41849
29242,41741
29176,41618
29169,41594
29136,41485
29136,41485
29136,41485
29122,41346
29136,41207
29176,41073
29242,40950
29331,40842
29438,40754
29562,40688
29562,40688
29562,40688
29695,40647
29695,40647
29695,40647
29799,40637
29869,40637
29973,40647
Z" /> 
<path style="fill:#000000; fill-opacity:1.0; 
stroke:#000000; stroke-width:0; stroke-opacity:1; 
stroke-linecap:round; stroke-linejoin:round;fill-rule:evenodd;"
d="M 27973,40647
27973,40647
27973,40647
28107,40688
28107,40688
28107,40688
28230,40754
28338,40842
28426,40950
28492,41073
28532,41207
28546,41346
28532,41485
28532,41485
28532,41485
28499,41594
28492,41618
28426,41741
28338,41849
28230,41938
28107,42003
28107,42003
28107,42003
27973,42044
27973,42044
27973,42044
27869,42054
27799,42054
27695,42044
27695,42044
27695,42044
27562,42003
27562,42003
27562,42003
27438,41938
27331,41849
27242,41741
27176,41618
27169,41594
27136,41485
27136,41485
27136,41485
27122,41346
27136,41207
27176,41073
27242,40950
27331,40842
27438,40754
27562,40688
27562,40688
27562,40688
27695,40647
27695,40647
27695,40647
27799,40637
27869,40637
27973,40647
Z" /> 
<path style="fill:#000000; fill-opacity:1.0; 
stroke:#000000; stroke-width:0; stroke-opacity:1; 
stroke-linecap:round; stroke-linejoin:round;fill-rule:evenodd;"
d="M 64996,39219
65058,39225
65176,39261
65176,39261
65286,39319
65286,39319
65286,39319
65382,39398
65460,39494
65519,39603
65555,39722
65567,39846
65555,39969
65519,40088
65519,40088
65460,40197
65382,40293
65286,40372
65176,40430
65176,40430
65058,40466
64996,40472
64965,40476
64903,40476
64872,40472
64811,40466
64692,40430
64692,40430
64582,40372
64486,40293
64408,40197
64349,40088
64349,40088
64313,39969
64301,39846
64313,39722
64349,39603
64408,39494
64486,39398
64582,39319
64582,39319
64582,39319
64692,39261
64692,39261
64811,39225
64872,39219
64903,39216
64965,39216
64996,39219
Z" /> 
<path style="fill:#000000; fill-opacity:1.0; 
stroke:#000000; stroke-width:0; stroke-opacity:1; 
stroke-linecap:round; stroke-linejoin:round;fill-rule:evenodd;"
d="M 66996,39219
67058,39225
67176,39261
67176,39261
67286,39319
67286,39319
67286,39319
67382,39398
67460,39494
67519,39603
67555,39722
67567,39846
67555,39969
67519,40088
67519,40088
67460,40197
67382,40293
67286,40372
67176,40430
67176,40430
67058,40466
66996,40472
66965,40476
66903,40476
66872,40472
66811,40466
66692,40430
66692,40430
66582,40372
66486,40293
66408,40197
66349,40088
66349,40088
66313,39969
66301,39846
66313,39722
66349,39603
66408,39494
66486,39398
66582,39319
66582,39319
66582,39319
66692,39261
66692,39261
66811,39225
66872,39219
66903,39216
66965,39216
66996,39219
Z" /> 
<path style="fill:#000000; fill-opacity:1.0; 
stroke:#000000; stroke-width:0; stroke-opacity:1; 
stroke-linecap:round; stroke-linejoin:round;fill-rule:evenodd;"
d="M 56996,39219
57058,39225
57176,39261
57176,39261
57286,39319
57286,39319
57286,39319
57382,39398
57460,39494
57519,39603
57555,39722
57567,39846
57555,39969
57519,40088
57519,40088
57460,40197
57382,40293
57286,40372
57176,40430
57176,40430
57058,40466
56996,40472
56965,40476
56903,40476
56872,40472
56811,40466
56692,40430
56692,40430
56582,40372
56486,40293
56408,40197
56349,40088
56349,40088
56313,39969
56301,39846
56313,39722
56349,39603
56408,39494
56486,39398
56582,39319
56582,39319
56582,39319
56692,39261
56692,39261
56811,39225
56872,39219
56903,39216
56965,39216
56996,39219
Z" /> 
<path style="fill:#000000; fill-opacity:1.0; 
stroke:#000000; stroke-width:0; stroke-opacity:1; 
stroke-linecap:round; stroke-linejoin:round;fill-rule:evenodd;"
d="M 58996,39219
59058,39225
59176,39261
59176,39261
59286,39319
59286,39319
59286,39319
59382,39398
59460,39494
59519,39603
59555,39722
59567,39846
59555,39969
59519,40088
59519,40088
59460,40197
59382,40293
59286,40372
59176,40430
59176,40430
59058,40466
58996,40472
58965,40476
58903,40476
58872,40472
58811,40466
58692,40430
58692,40430
58582,40372
58486,40293
58408,40197
58349,40088
58349,40088
58313,39969
58301,39846
58313,39722
58349,39603
58408,39494
58486,39398
58582,39319
58582,39319
58582,39319
58692,39261
58692,39261
58811,39225
58872,39219
58903,39216
58965,39216
58996,39219
Z" /> 
<path style="fill:#000000; fill-opacity:1.0; 
stroke:#000000; stroke-width:0; stroke-opacity:1; 
stroke-linecap:round; stroke-linejoin:round;fill-rule:evenodd;"
d="M 60996,39219
61058,39225
61176,39261
61176,39261
61286,39319
61286,39319
61286,39319
61382,39398
61460,39494
61519,39603
61555,39722
61567,39846
61555,39969
61519,40088
61519,40088
61460,40197
61382,40293
61286,40372
61176,40430
61176,40430
61058,40466
60996,40472
60965,40476
60903,40476
60872,40472
60811,40466
60692,40430
60692,40430
60582,40372
60486,40293
60408,40197
60349,40088
60349,40088
60313,39969
60301,39846
60313,39722
60349,39603
60408,39494
60486,39398
60582,39319
60582,39319
60582,39319
60692,39261
60692,39261
60811,39225
60872,39219
60903,39216
60965,39216
60996,39219
Z" /> 
<path style="fill:#000000; fill-opacity:1.0; 
stroke:#000000; stroke-width:0; stroke-opacity:1; 
stroke-linecap:round; stroke-linejoin:round;fill-rule:evenodd;"
d="M 68996,39219
69058,39225
69176,39261
69176,39261
69286,39319
69286,39319
69286,39319
69382,39398
69460,39494
69519,39603
69555,39722
69567,39846
69555,39969
69519,40088
69519,40088
69460,40197
69382,40293
69286,40372
69176,40430
69176,40430
69058,40466
68996,40472
68965,40476
68903,40476
68872,40472
68811,40466
68692,40430
68692,40430
68582,40372
68486,40293
68408,40197
68349,40088
68349,40088
68313,39969
68301,39846
68313,39722
68349,39603
68408,39494
68486,39398
68582,39319
68582,39319
68582,39319
68692,39261
68692,39261
68811,39225
68872,39219
68903,39216
68965,39216
68996,39219
Z" /> 
<path style="fill:#000000; fill-opacity:1.0; 
stroke:#000000; stroke-width:0; stroke-opacity:1; 
stroke-linecap:round; stroke-linejoin:round;fill-rule:evenodd;"
d="M 70996,39219
71058,39225
71176,39261
71176,39261
71286,39319
71286,39319
71286,39319
71382,39398
71460,39494
71519,39603
71555,39722
71567,39846
71555,39969
71519,40088
71519,40088
71460,40197
71382,40293
71286,40372
71176,40430
71176,40430
71058,40466
70996,40472
70965,40476
70903,40476
70872,40472
70811,40466
70692,40430
70692,40430
70582,40372
70486,40293
70408,40197
70349,40088
70349,40088
70313,39969
70301,39846
70313,39722
70349,39603
70408,39494
70486,39398
70582,39319
70582,39319
70582,39319
70692,39261
70692,39261
70811,39225
70872,39219
70903,39216
70965,39216
70996,39219
Z" /> 
<path style="fill:#000000; fill-opacity:1.0; 
stroke:#000000; stroke-width:0; stroke-opacity:1; 
stroke-linecap:round; stroke-linejoin:round;fill-rule:evenodd;"
d="M 62996,39219
63058,39225
63176,39261
63176,39261
63286,39319
63286,39319
63286,39319
63382,39398
63460,39494
63519,39603
63555,39722
63567,39846
63555,39969
63519,40088
63519,40088
63460,40197
63382,40293
63286,40372
63176,40430
63176,40430
63058,40466
62996,40472
62965,40476
62903,40476
62872,40472
62811,40466
62692,40430
62692,40430
62582,40372
62486,40293
62408,40197
62349,40088
62349,40088
62313,39969
62301,39846
62313,39722
62349,39603
62408,39494
62486,39398
62582,39319
62582,39319
62582,39319
62692,39261
62692,39261
62811,39225
62872,39219
62903,39216
62965,39216
62996,39219
Z" /> 
<path style="fill:#000000; fill-opacity:1.0; 
stroke:#000000; stroke-width:0; stroke-opacity:1; 
stroke-linecap:round; stroke-linejoin:round;fill-rule:evenodd;"
d="M 54996,39219
55058,39225
55176,39261
55176,39261
55286,39319
55286,39319
55286,39319
55382,39398
55460,39494
55519,39603
55555,39722
55567,39846
55555,39969
55519,40088
55519,40088
55460,40197
55382,40293
55286,40372
55176,40430
55176,40430
55058,40466
54996,40472
54965,40476
54903,40476
54872,40472
54811,40466
54692,40430
54692,40430
54582,40372
54486,40293
54408,40197
54349,40088
54349,40088
54313,39969
54301,39846
54313,39722
54349,39603
54408,39494
54486,39398
54582,39319
54582,39319
54582,39319
54692,39261
54692,39261
54811,39225
54872,39219
54903,39216
54965,39216
54996,39219
Z" /> 
<path style="fill:#000000; fill-opacity:1.0; 
stroke:#000000; stroke-width:0; stroke-opacity:1; 
stroke-linecap:round; stroke-linejoin:round;fill-rule:evenodd;"
d="M 52996,39219
53058,39225
53176,39261
53176,39261
53286,39319
53286,39319
53286,39319
53382,39398
53460,39494
53519,39603
53555,39722
53567,39846
53555,39969
53519,40088
53519,40088
53460,40197
53382,40293
53286,40372
53176,40430
53176,40430
53058,40466
52996,40472
52965,40476
52903,40476
52872,40472
52811,40466
52692,40430
52692,40430
52582,40372
52486,40293
52408,40197
52349,40088
52349,40088
52313,39969
52301,39846
52313,39722
52349,39603
52408,39494
52486,39398
52582,39319
52582,39319
52582,39319
52692,39261
52692,39261
52811,39225
52872,39219
52903,39216
52965,39216
52996,39219
Z" /> 
<path style="fill:#000000; fill-opacity:1.0; 
stroke:#000000; stroke-width:0; stroke-opacity:1; 
stroke-linecap:round; stroke-linejoin:round;fill-rule:evenodd;"
d="M 50996,39219
51058,39225
51176,39261
51176,39261
51286,39319
51286,39319
51286,39319
51382,39398
51460,39494
51519,39603
51555,39722
51567,39846
51555,39969
51519,40088
51519,40088
51460,40197
51382,40293
51286,40372
51176,40430
51176,40430
51058,40466
50996,40472
50965,40476
50903,40476
50872,40472
50811,40466
50692,40430
50692,40430
50582,40372
50486,40293
50408,40197
50349,40088
50349,40088
50313,39969
50301,39846
50313,39722
50349,39603
50408,39494
50486,39398
50582,39319
50582,39319
50582,39319
50692,39261
50692,39261
50811,39225
50872,39219
50903,39216
50965,39216
50996,39219
Z" /> 
<path style="fill:#000000; fill-opacity:1.0; 
stroke:#000000; stroke-width:0; stroke-opacity:1; 
stroke-linecap:round; stroke-linejoin:round;fill-rule:evenodd;"
d="M 48996,39219
49058,39225
49176,39261
49176,39261
49286,39319
49286,39319
49286,39319
49382,39398
49460,39494
49519,39603
49555,39722
49567,39846
49555,39969
49519,40088
49519,40088
49460,40197
49382,40293
49286,40372
49176,40430
49176,40430
49058,40466
48996,40472
48965,40476
48903,40476
48872,40472
48811,40466
48692,40430
48692,40430
48582,40372
48486,40293
48408,40197
48349,40088
48349,40088
48313,39969
48301,39846
48313,39722
48349,39603
48408,39494
48486,39398
48582,39319
48582,39319
48582,39319
48692,39261
48692,39261
48811,39225
48872,39219
48903,39216
48965,39216
48996,39219
Z" /> 
<path style="fill:#000000; fill-opacity:1.0; 
stroke:#000000; stroke-width:0; stroke-opacity:1; 
stroke-linecap:round; stroke-linejoin:round;fill-rule:evenodd;"
d="M 46996,39219
47058,39225
47176,39261
47176,39261
47286,39319
47286,39319
47286,39319
47382,39398
47460,39494
47519,39603
47555,39722
47567,39846
47555,39969
47519,40088
47519,40088
47460,40197
47382,40293
47286,40372
47176,40430
47176,40430
47058,40466
46996,40472
46965,40476
46903,40476
46872,40472
46811,40466
46692,40430
46692,40430
46582,40372
46486,40293
46408,40197
46349,40088
46349,40088
46313,39969
46301,39846
46313,39722
46349,39603
46408,39494
46486,39398
46582,39319
46582,39319
46582,39319
46692,39261
46692,39261
46811,39225
46872,39219
46903,39216
46965,39216
46996,39219
Z" /> 
<path style="fill:#000000; fill-opacity:1.0; 
stroke:#000000; stroke-width:0; stroke-opacity:1; 
stroke-linecap:round; stroke-linejoin:round;fill-rule:evenodd;"
d="M 45564,40476
44304,40476
44304,39216
45564,39216
45564,40476
Z" /> 
<path style="fill:#000000; fill-opacity:1.0; 
stroke:#000000; stroke-width:0; stroke-opacity:1; 
stroke-linecap:round; stroke-linejoin:round;fill-rule:evenodd;"
d="M 77903,38715
76565,38715
76565,37376
77903,37376
77903,38715
Z" /> 
<path style="fill:#000000; fill-opacity:1.0; 
stroke:#000000; stroke-width:0; stroke-opacity:1; 
stroke-linecap:round; stroke-linejoin:round;fill-rule:evenodd;"
d="M 75365,37386
75428,37405
75491,37424
75491,37424
75608,37486
75710,37570
75793,37672
75806,37697
75855,37788
75866,37824
75894,37914
75907,38046
75894,38177
75855,38303
75793,38419
75710,38521
75608,38605
75491,38667
75491,38667
75428,38686
75365,38705
75267,38715
75201,38715
75103,38705
75040,38686
74977,38667
74977,38667
74860,38605
74759,38521
74675,38419
74613,38303
74574,38177
74562,38046
74574,37914
74602,37824
74613,37788
74662,37697
74675,37672
74759,37570
74860,37486
74977,37424
74977,37424
75040,37405
75103,37386
75201,37376
75267,37376
75365,37386
Z" /> 
<path style="fill:#000000; fill-opacity:1.0; 
stroke:#000000; stroke-width:0; stroke-opacity:1; 
stroke-linecap:round; stroke-linejoin:round;fill-rule:evenodd;"
d="M 34749,37067
34749,37067
34749,37067
34821,37097
34853,37118
34885,37140
34940,37195
34983,37259
35013,37331
35028,37407
35028,37484
35013,37560
35013,37560
34983,37632
34940,37697
34885,37751
34821,37794
34821,37794
34821,37794
34749,37824
34673,37839
34595,37839
34519,37824
34448,37794
34448,37794
34448,37794
34383,37751
34328,37697
34285,37632
34255,37560
34255,37560
34240,37484
34240,37407
34255,37331
34285,37259
34328,37195
34383,37140
34415,37118
34448,37097
34519,37067
34519,37067
34519,37067
34595,37052
34673,37052
34749,37067
Z" /> 
<path style="fill:#000000; fill-opacity:1.0; 
stroke:#000000; stroke-width:0; stroke-opacity:1; 
stroke-linecap:round; stroke-linejoin:round;fill-rule:evenodd;"
d="M 75365,35386
75428,35405
75491,35424
75491,35424
75608,35486
75710,35570
75793,35672
75855,35788
75894,35914
75907,36046
75894,36177
75894,36177
75857,36298
75855,36303
75793,36419
75710,36521
75608,36605
75491,36667
75491,36667
75428,36686
75365,36705
75267,36715
75201,36715
75103,36705
75040,36686
74977,36667
74977,36667
74860,36605
74759,36521
74675,36419
74613,36303
74611,36298
74574,36177
74574,36177
74562,36046
74574,35914
74613,35788
74675,35672
74759,35570
74860,35486
74977,35424
74977,35424
75040,35405
75103,35386
75201,35376
75267,35376
75365,35386
Z" /> 
<path style="fill:#000000; fill-opacity:1.0; 
stroke:#000000; stroke-width:0; stroke-opacity:1; 
stroke-linecap:round; stroke-linejoin:round;fill-rule:evenodd;"
d="M 77365,35386
77428,35405
77491,35424
77491,35424
77608,35486
77710,35570
77793,35672
77855,35788
77894,35914
77907,36046
77894,36177
77894,36177
77857,36298
77855,36303
77793,36419
77710,36521
77608,36605
77491,36667
77491,36667
77428,36686
77365,36705
77267,36715
77201,36715
77103,36705
77040,36686
76977,36667
76977,36667
76860,36605
76759,36521
76675,36419
76613,36303
76611,36298
76574,36177
76574,36177
76562,36046
76574,35914
76613,35788
76675,35672
76759,35570
76860,35486
76977,35424
76977,35424
77040,35405
77103,35386
77201,35376
77267,35376
77365,35386
Z" /> 
<path style="fill:#000000; fill-opacity:1.0; 
stroke:#000000; stroke-width:0; stroke-opacity:1; 
stroke-linecap:round; stroke-linejoin:round;fill-rule:evenodd;"
d="M 34749,35571
34749,35571
34749,35571
34821,35601
34853,35622
34885,35644
34940,35699
34983,35763
35013,35835
35028,35911
35028,35988
35013,36064
35013,36064
34983,36136
34940,36201
34885,36255
34821,36298
34821,36298
34821,36298
34749,36328
34673,36343
34595,36343
34519,36328
34448,36298
34448,36298
34448,36298
34383,36255
34328,36201
34285,36136
34255,36064
34255,36064
34240,35988
34240,35911
34255,35835
34285,35763
34328,35699
34383,35644
34415,35622
34448,35601
34519,35571
34519,35571
34519,35571
34595,35556
34673,35556
34749,35571
Z" /> 
<path style="fill:#000000; fill-opacity:1.0; 
stroke:#000000; stroke-width:0; stroke-opacity:1; 
stroke-linecap:round; stroke-linejoin:round;fill-rule:evenodd;"
d="M 75365,33386
75405,33398
75491,33424
75491,33424
75608,33486
75710,33570
75793,33672
75855,33788
75894,33914
75907,34046
75894,34177
75855,34303
75793,34419
75710,34521
75608,34605
75491,34667
75491,34667
75428,34686
75365,34705
75267,34715
75201,34715
75103,34705
75040,34686
74977,34667
74977,34667
74860,34605
74759,34521
74675,34419
74613,34303
74574,34177
74562,34046
74574,33914
74613,33788
74675,33672
74759,33570
74860,33486
74977,33424
74977,33424
75063,33398
75103,33386
75201,33376
75267,33376
75365,33386
Z" /> 
<path style="fill:#000000; fill-opacity:1.0; 
stroke:#000000; stroke-width:0; stroke-opacity:1; 
stroke-linecap:round; stroke-linejoin:round;fill-rule:evenodd;"
d="M 77365,33386
77405,33398
77491,33424
77491,33424
77608,33486
77710,33570
77793,33672
77855,33788
77894,33914
77907,34046
77894,34177
77855,34303
77793,34419
77710,34521
77608,34605
77491,34667
77491,34667
77428,34686
77365,34705
77267,34715
77201,34715
77103,34705
77040,34686
76977,34667
76977,34667
76860,34605
76759,34521
76675,34419
76613,34303
76574,34177
76562,34046
76574,33914
76613,33788
76675,33672
76759,33570
76860,33486
76977,33424
76977,33424
77063,33398
77103,33386
77201,33376
77267,33376
77365,33386
Z" /> 
<path style="fill:#000000; fill-opacity:1.0; 
stroke:#000000; stroke-width:0; stroke-opacity:1; 
stroke-linecap:round; stroke-linejoin:round;fill-rule:evenodd;"
d="M 66996,33219
67058,33225
67176,33261
67176,33261
67286,33319
67286,33319
67286,33319
67382,33398
67460,33494
67519,33603
67555,33722
67567,33846
67555,33969
67519,34088
67519,34088
67460,34197
67382,34293
67286,34372
67176,34430
67176,34430
67058,34466
66996,34472
66965,34476
66903,34476
66872,34472
66811,34466
66692,34430
66692,34430
66582,34372
66486,34293
66408,34197
66349,34088
66349,34088
66313,33969
66301,33846
66313,33722
66349,33603
66408,33494
66486,33398
66582,33319
66582,33319
66582,33319
66692,33261
66692,33261
66811,33225
66872,33219
66903,33216
66965,33216
66996,33219
Z" /> 
<path style="fill:#000000; fill-opacity:1.0; 
stroke:#000000; stroke-width:0; stroke-opacity:1; 
stroke-linecap:round; stroke-linejoin:round;fill-rule:evenodd;"
d="M 64996,33219
65058,33225
65176,33261
65176,33261
65286,33319
65286,33319
65286,33319
65382,33398
65460,33494
65519,33603
65555,33722
65567,33846
65555,33969
65519,34088
65519,34088
65460,34197
65382,34293
65286,34372
65176,34430
65176,34430
65058,34466
64996,34472
64965,34476
64903,34476
64872,34472
64811,34466
64692,34430
64692,34430
64582,34372
64486,34293
64408,34197
64349,34088
64349,34088
64313,33969
64301,33846
64313,33722
64349,33603
64408,33494
64486,33398
64582,33319
64582,33319
64582,33319
64692,33261
64692,33261
64811,33225
64872,33219
64903,33216
64965,33216
64996,33219
Z" /> 
<path style="fill:#000000; fill-opacity:1.0; 
stroke:#000000; stroke-width:0; stroke-opacity:1; 
stroke-linecap:round; stroke-linejoin:round;fill-rule:evenodd;"
d="M 48996,33219
49058,33225
49176,33261
49176,33261
49286,33319
49286,33319
49286,33319
49382,33398
49460,33494
49519,33603
49555,33722
49567,33846
49555,33969
49519,34088
49519,34088
49460,34197
49382,34293
49286,34372
49176,34430
49176,34430
49058,34466
48996,34472
48965,34476
48903,34476
48872,34472
48811,34466
48692,34430
48692,34430
48582,34372
48486,34293
48408,34197
48349,34088
48349,34088
48313,33969
48301,33846
48313,33722
48349,33603
48408,33494
48486,33398
48582,33319
48582,33319
48582,33319
48692,33261
48692,33261
48811,33225
48872,33219
48903,33216
48965,33216
48996,33219
Z" /> 
<path style="fill:#000000; fill-opacity:1.0; 
stroke:#000000; stroke-width:0; stroke-opacity:1; 
stroke-linecap:round; stroke-linejoin:round;fill-rule:evenodd;"
d="M 46996,33219
47058,33225
47176,33261
47176,33261
47286,33319
47286,33319
47286,33319
47382,33398
47460,33494
47519,33603
47555,33722
47567,33846
47555,33969
47519,34088
47519,34088
47460,34197
47382,34293
47286,34372
47176,34430
47176,34430
47058,34466
46996,34472
46965,34476
46903,34476
46872,34472
46811,34466
46692,34430
46692,34430
46582,34372
46486,34293
46408,34197
46349,34088
46349,34088
46313,33969
46301,33846
46313,33722
46349,33603
46408,33494
46486,33398
46582,33319
46582,33319
46582,33319
46692,33261
46692,33261
46811,33225
46872,33219
46903,33216
46965,33216
46996,33219
Z" /> 
<path style="fill:#000000; fill-opacity:1.0; 
stroke:#000000; stroke-width:0; stroke-opacity:1; 
stroke-linecap:round; stroke-linejoin:round;fill-rule:evenodd;"
d="M 44996,33219
45058,33225
45176,33261
45176,33261
45286,33319
45286,33319
45286,33319
45382,33398
45460,33494
45519,33603
45555,33722
45567,33846
45555,33969
45519,34088
45519,34088
45460,34197
45382,34293
45286,34372
45176,34430
45176,34430
45058,34466
44996,34472
44965,34476
44903,34476
44872,34472
44811,34466
44692,34430
44692,34430
44582,34372
44486,34293
44408,34197
44349,34088
44349,34088
44313,33969
44301,33846
44313,33722
44349,33603
44408,33494
44486,33398
44582,33319
44582,33319
44582,33319
44692,33261
44692,33261
44811,33225
44872,33219
44903,33216
44965,33216
44996,33219
Z" /> 
<path style="fill:#000000; fill-opacity:1.0; 
stroke:#000000; stroke-width:0; stroke-opacity:1; 
stroke-linecap:round; stroke-linejoin:round;fill-rule:evenodd;"
d="M 52996,33219
53058,33225
53176,33261
53176,33261
53286,33319
53286,33319
53286,33319
53382,33398
53460,33494
53519,33603
53555,33722
53567,33846
53555,33969
53519,34088
53519,34088
53460,34197
53382,34293
53286,34372
53176,34430
53176,34430
53058,34466
52996,34472
52965,34476
52903,34476
52872,34472
52811,34466
52692,34430
52692,34430
52582,34372
52486,34293
52408,34197
52349,34088
52349,34088
52313,33969
52301,33846
52313,33722
52349,33603
52408,33494
52486,33398
52582,33319
52582,33319
52582,33319
52692,33261
52692,33261
52811,33225
52872,33219
52903,33216
52965,33216
52996,33219
Z" /> 
<path style="fill:#000000; fill-opacity:1.0; 
stroke:#000000; stroke-width:0; stroke-opacity:1; 
stroke-linecap:round; stroke-linejoin:round;fill-rule:evenodd;"
d="M 54996,33219
55058,33225
55176,33261
55176,33261
55286,33319
55286,33319
55286,33319
55382,33398
55460,33494
55519,33603
55555,33722
55567,33846
55555,33969
55519,34088
55519,34088
55460,34197
55382,34293
55286,34372
55176,34430
55176,34430
55058,34466
54996,34472
54965,34476
54903,34476
54872,34472
54811,34466
54692,34430
54692,34430
54582,34372
54486,34293
54408,34197
54349,34088
54349,34088
54313,33969
54301,33846
54313,33722
54349,33603
54408,33494
54486,33398
54582,33319
54582,33319
54582,33319
54692,33261
54692,33261
54811,33225
54872,33219
54903,33216
54965,33216
54996,33219
Z" /> 
<path style="fill:#000000; fill-opacity:1.0; 
stroke:#000000; stroke-width:0; stroke-opacity:1; 
stroke-linecap:round; stroke-linejoin:round;fill-rule:evenodd;"
d="M 70996,33219
71058,33225
71176,33261
71176,33261
71286,33319
71286,33319
71286,33319
71382,33398
71460,33494
71519,33603
71555,33722
71567,33846
71555,33969
71519,34088
71519,34088
71460,34197
71382,34293
71286,34372
71176,34430
71176,34430
71058,34466
70996,34472
70965,34476
70903,34476
70872,34472
70811,34466
70692,34430
70692,34430
70582,34372
70486,34293
70408,34197
70349,34088
70349,34088
70313,33969
70301,33846
70313,33722
70349,33603
70408,33494
70486,33398
70582,33319
70582,33319
70582,33319
70692,33261
70692,33261
70811,33225
70872,33219
70903,33216
70965,33216
70996,33219
Z" /> 
<path style="fill:#000000; fill-opacity:1.0; 
stroke:#000000; stroke-width:0; stroke-opacity:1; 
stroke-linecap:round; stroke-linejoin:round;fill-rule:evenodd;"
d="M 56996,33219
57058,33225
57176,33261
57176,33261
57286,33319
57286,33319
57286,33319
57382,33398
57460,33494
57519,33603
57555,33722
57567,33846
57555,33969
57519,34088
57519,34088
57460,34197
57382,34293
57286,34372
57176,34430
57176,34430
57058,34466
56996,34472
56965,34476
56903,34476
56872,34472
56811,34466
56692,34430
56692,34430
56582,34372
56486,34293
56408,34197
56349,34088
56349,34088
56313,33969
56301,33846
56313,33722
56349,33603
56408,33494
56486,33398
56582,33319
56582,33319
56582,33319
56692,33261
56692,33261
56811,33225
56872,33219
56903,33216
56965,33216
56996,33219
Z" /> 
<path style="fill:#000000; fill-opacity:1.0; 
stroke:#000000; stroke-width:0; stroke-opacity:1; 
stroke-linecap:round; stroke-linejoin:round;fill-rule:evenodd;"
d="M 58996,33219
59058,33225
59176,33261
59176,33261
59286,33319
59286,33319
59286,33319
59382,33398
59460,33494
59519,33603
59555,33722
59567,33846
59555,33969
59519,34088
59519,34088
59460,34197
59382,34293
59286,34372
59176,34430
59176,34430
59058,34466
58996,34472
58965,34476
58903,34476
58872,34472
58811,34466
58692,34430
58692,34430
58582,34372
58486,34293
58408,34197
58349,34088
58349,34088
58313,33969
58301,33846
58313,33722
58349,33603
58408,33494
58486,33398
58582,33319
58582,33319
58582,33319
58692,33261
58692,33261
58811,33225
58872,33219
58903,33216
58965,33216
58996,33219
Z" /> 
<path style="fill:#000000; fill-opacity:1.0; 
stroke:#000000; stroke-width:0; stroke-opacity:1; 
stroke-linecap:round; stroke-linejoin:round;fill-rule:evenodd;"
d="M 60996,33219
61058,33225
61176,33261
61176,33261
61286,33319
61286,33319
61286,33319
61382,33398
61460,33494
61519,33603
61555,33722
61567,33846
61555,33969
61519,34088
61519,34088
61460,34197
61382,34293
61286,34372
61176,34430
61176,34430
61058,34466
60996,34472
60965,34476
60903,34476
60872,34472
60811,34466
60692,34430
60692,34430
60582,34372
60486,34293
60408,34197
60349,34088
60349,34088
60313,33969
60301,33846
60313,33722
60349,33603
60408,33494
60486,33398
60582,33319
60582,33319
60582,33319
60692,33261
60692,33261
60811,33225
60872,33219
60903,33216
60965,33216
60996,33219
Z" /> 
<path style="fill:#000000; fill-opacity:1.0; 
stroke:#000000; stroke-width:0; stroke-opacity:1; 
stroke-linecap:round; stroke-linejoin:round;fill-rule:evenodd;"
d="M 50996,33219
51058,33225
51176,33261
51176,33261
51286,33319
51286,33319
51286,33319
51382,33398
51460,33494
51519,33603
51555,33722
51567,33846
51555,33969
51519,34088
51519,34088
51460,34197
51382,34293
51286,34372
51176,34430
51176,34430
51058,34466
50996,34472
50965,34476
50903,34476
50872,34472
50811,34466
50692,34430
50692,34430
50582,34372
50486,34293
50408,34197
50349,34088
50349,34088
50313,33969
50301,33846
50313,33722
50349,33603
50408,33494
50486,33398
50582,33319
50582,33319
50582,33319
50692,33261
50692,33261
50811,33225
50872,33219
50903,33216
50965,33216
50996,33219
Z" /> 
<path style="fill:#000000; fill-opacity:1.0; 
stroke:#000000; stroke-width:0; stroke-opacity:1; 
stroke-linecap:round; stroke-linejoin:round;fill-rule:evenodd;"
d="M 68996,33219
69058,33225
69176,33261
69176,33261
69286,33319
69286,33319
69286,33319
69382,33398
69460,33494
69519,33603
69555,33722
69567,33846
69555,33969
69519,34088
69519,34088
69460,34197
69382,34293
69286,34372
69176,34430
69176,34430
69058,34466
68996,34472
68965,34476
68903,34476
68872,34472
68811,34466
68692,34430
68692,34430
68582,34372
68486,34293
68408,34197
68349,34088
68349,34088
68313,33969
68301,33846
68313,33722
68349,33603
68408,33494
68486,33398
68582,33319
68582,33319
68582,33319
68692,33261
68692,33261
68811,33225
68872,33219
68903,33216
68965,33216
68996,33219
Z" /> 
<path style="fill:#000000; fill-opacity:1.0; 
stroke:#000000; stroke-width:0; stroke-opacity:1; 
stroke-linecap:round; stroke-linejoin:round;fill-rule:evenodd;"
d="M 62996,33219
63058,33225
63176,33261
63176,33261
63286,33319
63286,33319
63286,33319
63382,33398
63460,33494
63519,33603
63555,33722
63567,33846
63555,33969
63519,34088
63519,34088
63460,34197
63382,34293
63286,34372
63176,34430
63176,34430
63058,34466
62996,34472
62965,34476
62903,34476
62872,34472
62811,34466
62692,34430
62692,34430
62582,34372
62486,34293
62408,34197
62349,34088
62349,34088
62313,33969
62301,33846
62313,33722
62349,33603
62408,33494
62486,33398
62582,33319
62582,33319
62582,33319
62692,33261
62692,33261
62811,33225
62872,33219
62903,33216
62965,33216
62996,33219
Z" /> 
<path style="fill:#000000; fill-opacity:1.0; 
stroke:#000000; stroke-width:0; stroke-opacity:1; 
stroke-linecap:round; stroke-linejoin:round;fill-rule:evenodd;"
d="M 55595,30478
55646,30488
55789,30548
55918,30634
56028,30744
56114,30873
56173,31016
56203,31168
56203,31323
56173,31475
56114,31619
56028,31748
55918,31857
55789,31943
55646,32003
55595,32013
55494,32033
55338,32033
55237,32013
55186,32003
55043,31943
54914,31857
54804,31748
54718,31619
54659,31475
54629,31323
54629,31168
54659,31016
54718,30873
54804,30744
54914,30634
55043,30548
55186,30488
55237,30478
55338,30458
55494,30458
55595,30478
Z" /> 
<path style="fill:#000000; fill-opacity:1.0; 
stroke:#000000; stroke-width:0; stroke-opacity:1; 
stroke-linecap:round; stroke-linejoin:round;fill-rule:evenodd;"
d="M 60713,30478
60764,30488
60907,30548
61036,30634
61146,30744
61232,30873
61291,31016
61321,31168
61321,31323
61291,31475
61232,31619
61146,31748
61036,31857
60907,31943
60764,32003
60713,32013
60612,32033
60457,32033
60355,32013
60304,32003
60161,31943
60032,31857
59922,31748
59836,31619
59777,31475
59747,31323
59747,31168
59777,31016
59836,30873
59922,30744
60032,30634
60161,30548
60304,30488
60355,30478
60457,30458
60612,30458
60713,30478
Z" /> 
<path style="fill:#000000; fill-opacity:1.0; 
stroke:#000000; stroke-width:0; stroke-opacity:1; 
stroke-linecap:round; stroke-linejoin:round;fill-rule:evenodd;"
d="M 52240,29986
52304,29992
52425,30029
52467,30042
52618,30122
52749,30230
52858,30362
52938,30513
52938,30513
52988,30676
53004,30846
52988,31015
52951,31136
52938,31179
52858,31329
52749,31461
52618,31569
52467,31650
52425,31663
52304,31699
52240,31705
52177,31712
52092,31712
52028,31705
51964,31699
51843,31663
51801,31650
51651,31569
51519,31461
51410,31329
51330,31179
51317,31136
51280,31015
51264,30846
51280,30676
51330,30513
51330,30513
51410,30362
51519,30230
51651,30122
51801,30042
51843,30029
51964,29992
52028,29986
52092,29979
52177,29979
52240,29986
Z" /> 
<path style="fill:#000000; fill-opacity:1.0; 
stroke:#000000; stroke-width:0; stroke-opacity:1; 
stroke-linecap:round; stroke-linejoin:round;fill-rule:evenodd;"
d="M 45000,31712
43268,31712
43268,29979
45000,29979
45000,31712
Z" /> 
<path style="fill:#000000; fill-opacity:1.0; 
stroke:#000000; stroke-width:0; stroke-opacity:1; 
stroke-linecap:round; stroke-linejoin:round;fill-rule:evenodd;"
d="M 55595,26935
55646,26945
55789,27005
55918,27091
56028,27200
56114,27329
56173,27473
56203,27625
56203,27780
56173,27932
56114,28075
56028,28204
55918,28314
55789,28400
55646,28459
55595,28470
55494,28490
55338,28490
55237,28470
55186,28459
55043,28400
54914,28314
54804,28204
54718,28075
54659,27932
54629,27780
54629,27625
54659,27473
54718,27329
54804,27200
54914,27091
55043,27005
55186,26945
55237,26935
55338,26915
55494,26915
55595,26935
Z" /> 
<path style="fill:#000000; fill-opacity:1.0; 
stroke:#000000; stroke-width:0; stroke-opacity:1; 
stroke-linecap:round; stroke-linejoin:round;fill-rule:evenodd;"
d="M 60713,26935
60764,26945
60907,27005
61036,27091
61146,27200
61232,27329
61291,27473
61321,27625
61321,27780
61291,27932
61232,28075
61146,28204
61036,28314
60907,28400
60764,28459
60713,28470
60612,28490
60457,28490
60355,28470
60304,28459
60161,28400
60032,28314
59922,28204
59836,28075
59777,27932
59747,27780
59747,27625
59777,27473
59836,27329
59922,27200
60032,27091
60161,27005
60304,26945
60355,26935
60457,26915
60612,26915
60713,26935
Z" /> 
<path style="fill:#000000; fill-opacity:1.0; 
stroke:#000000; stroke-width:0; stroke-opacity:1; 
stroke-linecap:round; stroke-linejoin:round;fill-rule:evenodd;"
d="M 27604,25832
27667,25851
27730,25870
27730,25870
27846,25932
27948,26016
28032,26117
28094,26234
28132,26360
28145,26491
28132,26622
28094,26748
28032,26865
27948,26967
27846,27050
27730,27112
27730,27112
27667,27132
27604,27151
27505,27160
27243,27160
27144,27151
27081,27132
27018,27112
27018,27112
26902,27050
26800,26967
26716,26865
26654,26748
26616,26622
26603,26491
26616,26360
26654,26234
26716,26117
26800,26016
26902,25932
27018,25870
27018,25870
27081,25851
27144,25832
27243,25822
27505,25822
27604,25832
Z" /> 
<path style="fill:#000000; fill-opacity:1.0; 
stroke:#000000; stroke-width:0; stroke-opacity:1; 
stroke-linecap:round; stroke-linejoin:round;fill-rule:evenodd;"
d="M 27604,23863
27667,23882
27730,23901
27730,23901
27846,23963
27948,24047
28029,24146
28032,24149
28094,24265
28097,24277
28132,24391
28145,24523
28132,24654
28117,24705
28098,24767
28094,24780
28032,24896
27948,24998
27846,25082
27730,25144
27730,25144
27667,25163
27604,25182
27505,25192
27243,25192
27144,25182
27081,25163
27018,25144
27018,25144
26902,25082
26800,24998
26716,24896
26654,24780
26650,24767
26631,24705
26616,24654
26603,24523
26616,24391
26651,24277
26654,24265
26716,24149
26719,24146
26800,24047
26902,23963
27018,23901
27018,23901
27081,23882
27144,23863
27243,23853
27505,23853
27604,23863
Z" /> 
<path style="fill:#000000; fill-opacity:1.0; 
stroke:#000000; stroke-width:0; stroke-opacity:1; 
stroke-linecap:round; stroke-linejoin:round;fill-rule:evenodd;"
d="M 51112,24948
48356,24948
48356,22192
51112,22192
51112,24948
Z" /> 
<path style="fill:#000000; fill-opacity:1.0; 
stroke:#000000; stroke-width:0; stroke-opacity:1; 
stroke-linecap:round; stroke-linejoin:round;fill-rule:evenodd;"
d="M 42183,23486
42246,23505
42310,23524
42310,23524
42426,23586
42528,23670
42611,23772
42674,23888
42674,23888
42677,23901
42712,24014
42725,24146
42712,24277
42712,24277
42677,24391
42674,24403
42611,24519
42528,24621
42426,24705
42310,24767
42310,24767
42246,24786
42183,24805
42085,24815
41783,24815
41685,24805
41622,24786
41559,24767
41559,24767
41442,24705
41340,24621
41257,24519
41195,24403
41191,24391
41156,24277
41156,24277
41143,24146
41156,24014
41191,23901
41195,23888
41195,23888
41257,23772
41340,23670
41442,23586
41559,23524
41559,23524
41622,23505
41685,23486
41783,23476
42085,23476
42183,23486
Z" /> 
<path style="fill:#000000; fill-opacity:1.0; 
stroke:#000000; stroke-width:0; stroke-opacity:1; 
stroke-linecap:round; stroke-linejoin:round;fill-rule:evenodd;"
d="M 34821,24696
33247,24696
33247,23196
34821,23196
34821,24696
Z" /> 
<path style="fill:#000000; fill-opacity:1.0; 
stroke:#000000; stroke-width:0; stroke-opacity:1; 
stroke-linecap:round; stroke-linejoin:round;fill-rule:evenodd;"
d="M 27604,21895
27667,21914
27730,21933
27730,21933
27846,21995
27948,22079
28015,22160
28032,22180
28094,22297
28113,22360
28132,22423
28145,22554
28132,22685
28094,22811
28032,22928
27948,23030
27846,23113
27730,23175
27730,23175
27667,23195
27604,23214
27505,23223
27243,23223
27144,23214
27081,23195
27018,23175
27018,23175
26902,23113
26800,23030
26716,22928
26654,22811
26616,22685
26603,22554
26616,22423
26635,22360
26654,22297
26716,22180
26733,22160
26800,22079
26902,21995
27018,21933
27018,21933
27081,21914
27144,21895
27243,21885
27505,21885
27604,21895
Z" /> 
<path style="fill:#000000; fill-opacity:1.0; 
stroke:#000000; stroke-width:0; stroke-opacity:1; 
stroke-linecap:round; stroke-linejoin:round;fill-rule:evenodd;"
d="M 42619,21511
42643,21518
42665,21530
42684,21545
42700,21565
42711,21587
42719,21610
42721,21640
42721,22714
42719,22744
42711,22768
42700,22790
42684,22809
42665,22825
42643,22836
42619,22843
42589,22846
41279,22846
41249,22843
41225,22836
41204,22825
41184,22809
41169,22790
41157,22768
41150,22744
41147,22714
41147,21640
41150,21610
41157,21587
41169,21565
41184,21545
41204,21530
41225,21518
41249,21511
41279,21508
42589,21508
42619,21511
Z" /> 
<path style="fill:#000000; fill-opacity:1.0; 
stroke:#000000; stroke-width:0; stroke-opacity:1; 
stroke-linecap:round; stroke-linejoin:round;fill-rule:evenodd;"
d="M 34218,21206
34360,21249
34490,21319
34604,21413
34698,21527
34768,21657
34811,21799
34825,21946
34811,22093
34768,22234
34698,22364
34604,22478
34490,22572
34360,22642
34218,22685
34108,22696
33960,22696
33850,22685
33708,22642
33578,22572
33464,22478
33370,22364
33300,22234
33258,22093
33243,21946
33258,21799
33300,21657
33370,21527
33464,21413
33578,21319
33708,21249
33850,21206
33960,21196
34108,21196
34218,21206
Z" /> 
<path style="fill:#000000; fill-opacity:1.0; 
stroke:#000000; stroke-width:0; stroke-opacity:1; 
stroke-linecap:round; stroke-linejoin:round;fill-rule:evenodd;"
d="M 46896,19843
47016,19879
47127,19938
47224,20018
47303,20114
47362,20225
47398,20345
47411,20474
47411,21941
47398,22071
47362,22191
47303,22301
47224,22398
47127,22478
47016,22537
46896,22573
46767,22586
45300,22586
45170,22573
45050,22537
44940,22478
44843,22398
44764,22301
44704,22191
44668,22071
44655,21941
44655,20474
44668,20345
44704,20225
44764,20114
44843,20018
44940,19938
45050,19879
45170,19843
45300,19830
46767,19830
46896,19843
Z" /> 
<path style="fill:#000000; fill-opacity:1.0; 
stroke:#000000; stroke-width:0; stroke-opacity:1; 
stroke-linecap:round; stroke-linejoin:round;fill-rule:evenodd;"
d="M 28039,19919
28063,19926
28085,19938
28104,19954
28120,19973
28132,19995
28139,20019
28142,20049
28142,21123
28139,21152
28132,21176
28120,21198
28104,21217
28085,21233
28063,21245
28039,21252
28010,21255
26739,21255
26709,21252
26685,21245
26663,21233
26644,21217
26628,21198
26616,21176
26609,21152
26606,21123
26606,20049
26609,20019
26616,19995
26628,19973
26644,19954
26663,19938
26685,19926
26709,19919
26739,19916
28010,19916
28039,19919
Z" /> 
<path style="fill:#000000; fill-opacity:1.0; 
stroke:#000000; stroke-width:0; stroke-opacity:1; 
stroke-linecap:round; stroke-linejoin:round;fill-rule:evenodd;"
d="M 34218,19206
34360,19249
34490,19319
34604,19413
34698,19527
34768,19657
34811,19799
34825,19946
34811,20093
34768,20234
34698,20364
34604,20478
34490,20572
34360,20642
34218,20685
34108,20696
33960,20696
33850,20685
33708,20642
33578,20572
33464,20478
33370,20364
33300,20234
33258,20093
33243,19946
33258,19799
33300,19657
33370,19527
33464,19413
33578,19319
33708,19249
33850,19206
33960,19196
34108,19196
34218,19206
Z" /> 
<path style="fill:#000000; fill-opacity:1.0; 
stroke:#000000; stroke-width:0; stroke-opacity:1; 
stroke-linecap:round; stroke-linejoin:round;fill-rule:evenodd;"
d="M 50676,17675
50778,17706
50871,17756
50953,17823
51020,17905
51070,17999
51101,18100
51112,18211
51112,19481
51101,19591
51070,19692
51020,19786
50953,19868
50871,19935
50778,19985
50676,20016
50566,20027
48902,20027
48792,20016
48690,19985
48597,19935
48515,19868
48448,19786
48398,19692
48367,19591
48356,19481
48356,18211
48367,18100
48398,17999
48448,17905
48515,17823
48597,17756
48690,17706
48792,17675
48902,17665
50566,17665
50676,17675
Z" /> 
<path style="fill:#000000; fill-opacity:1.0; 
stroke:#000000; stroke-width:0; stroke-opacity:1; 
stroke-linecap:round; stroke-linejoin:round;fill-rule:evenodd;"
d="M 74331,17322
74382,17332
74525,17391
74654,17477
74764,17587
74850,17716
74909,17859
74909,17859
74940,18011
74940,18166
74922,18255
74909,18319
74850,18462
74764,18591
74654,18701
74525,18787
74382,18846
74331,18856
74230,18876
74075,18876
73973,18856
73923,18846
73779,18787
73650,18701
73541,18591
73454,18462
73395,18319
73382,18255
73365,18166
73365,18011
73395,17859
73395,17859
73454,17716
73541,17587
73650,17477
73779,17391
73923,17332
73973,17322
74075,17302
74230,17302
74331,17322
Z" /> 
<path style="fill:#000000; fill-opacity:1.0; 
stroke:#000000; stroke-width:0; stroke-opacity:1; 
stroke-linecap:round; stroke-linejoin:round;fill-rule:evenodd;"
d="M 69213,17322
69264,17332
69407,17391
69536,17477
69646,17587
69732,17716
69791,17859
69791,17859
69821,18011
69821,18166
69804,18255
69791,18319
69732,18462
69646,18591
69536,18701
69407,18787
69264,18846
69213,18856
69112,18876
68957,18876
68855,18856
68804,18846
68661,18787
68532,18701
68422,18591
68336,18462
68277,18319
68264,18255
68247,18166
68247,18011
68277,17859
68277,17859
68336,17716
68422,17587
68532,17477
68661,17391
68804,17332
68855,17322
68957,17302
69112,17302
69213,17322
Z" /> 
<path style="fill:#000000; fill-opacity:1.0; 
stroke:#000000; stroke-width:0; stroke-opacity:1; 
stroke-linecap:round; stroke-linejoin:round;fill-rule:evenodd;"
d="M 74331,13778
74382,13788
74525,13848
74654,13934
74764,14044
74850,14173
74909,14316
74940,14468
74940,14623
74909,14775
74850,14919
74764,15048
74654,15157
74525,15243
74382,15303
74331,15313
74230,15333
74075,15333
73973,15313
73923,15303
73779,15243
73650,15157
73541,15048
73454,14919
73395,14775
73365,14623
73365,14468
73395,14316
73454,14173
73541,14044
73650,13934
73779,13848
73923,13788
73973,13778
74075,13758
74230,13758
74331,13778
Z" /> 
<path style="fill:#000000; fill-opacity:1.0; 
stroke:#000000; stroke-width:0; stroke-opacity:1; 
stroke-linecap:round; stroke-linejoin:round;fill-rule:evenodd;"
d="M 69213,13778
69264,13788
69407,13848
69536,13934
69646,14044
69732,14173
69791,14316
69821,14468
69821,14623
69791,14775
69732,14919
69646,15048
69536,15157
69407,15243
69264,15303
69213,15313
69112,15333
68957,15333
68855,15313
68804,15303
68661,15243
68532,15157
68422,15048
68336,14919
68277,14775
68247,14623
68247,14468
68277,14316
68336,14173
68422,14044
68532,13934
68661,13848
68804,13788
68855,13778
68957,13758
69112,13758
69213,13778
Z" /> 
</g> 
</svg>
