<?xml version="1.0" standalone="no"?>
 <!DOCTYPE svg PUBLIC "-//W3C//DTD SVG 1.1//EN" 
 "http://www.w3.org/Graphics/SVG/1.1/DTD/svg11.dtd"> 
<svg xmlns="http://www.w3.org/2000/svg" version="1.1" 
    width="29.7002cm" height="21.0007cm" viewBox="0 0 116930 82680 ">
<title>SVG Picture created as ThermocoupleLogger-Cmts_User.svg date 2019/03/28 10:52:54 </title>
  <desc>Picture generated by PCBNEW </desc>
<g style="fill:#000000; fill-opacity:1;stroke:#000000; stroke-opacity:1;
stroke-linecap:round; stroke-linejoin:round; "
 transform="translate(0 0) scale(1 1)">
</g>
<g style="fill:#000000; fill-opacity:0.0; 
stroke:#000000; stroke-width:-0.000787402; stroke-opacity:1; 
stroke-linecap:round; stroke-linejoin:round;">
</g>
<g style="fill:#000000; fill-opacity:0.0; 
stroke:#000000; stroke-width:78.7402; stroke-opacity:1; 
stroke-linecap:round; stroke-linejoin:round;">
<path d="M93734 12646
L93734 73146
" />
<path d="M23734 68764
L23734 68764
" />
<path d="M23734 12646
L93734 12646
" />
<path d="M23734 73146
L93734 73146
" />
<path d="M23734 12646
L23734 73146
" />
<path d="M23734 13646
L23734 13646
" />
</g>
<g style="fill:#000000; fill-opacity:0.0; 
stroke:#000000; stroke-width:39.3701; stroke-opacity:1; 
stroke-linecap:round; stroke-linejoin:round;">
<path d="M67787 12835
L66212 12835
" />
<path d="M66212 12835
L65425 13622
" />
<path d="M65425 13622
L57551 13622
" />
<path d="M57551 13622
L56763 12835
" />
<path d="M56763 12835
L53614 12835
" />
<g >
</g>
<g >
</g>
<g >
</g>
<g >
</g>
<g >
</g>
<g >
</g>
<g >
</g>
<g >
</g>
<g >
</g>
<g >
</g>
<g >
</g>
<g >
</g>
<g >
</g>
<g >
</g>
<g >
</g>
<g >
</g>
<g >
</g>
<g >
</g>
<g >
</g>
<g >
</g>
<g >
</g>
<g >
</g>
<g >
</g>
<g >
</g>
<g >
</g>
<g >
</g>
<g >
</g>
<g >
</g>
<g >
</g>
<g >
</g>
<g >
</g>
<g >
</g>
<g >
</g>
<g >
</g>
<g >
</g>
<g >
</g>
<g >
</g>
<g >
</g>
<g >
</g>
<g >
</g>
<g >
</g>
<g >
</g>
<g >
</g>
<g >
</g>
<g >
</g>
<g >
</g>
<g >
</g>
<g >
</g>
<g >
</g>
<g >
</g>
<g >
</g>
<g >
</g>
<g >
</g>
<g >
</g>
<g >
</g>
<g >
</g>
<g >
</g>
<g >
</g>
<g >
</g>
<g >
</g>
<g >
</g>
<g >
</g>
<g >
</g>
<g >
</g>
<g >
</g>
<g >
</g>
<g >
</g>
<g >
</g>
<g >
</g>
<g >
</g>
<g >
</g>
<g >
</g>
<g >
</g>
<path d="M33835 37220
L33835 36945
L33940 36945
L33966 36958
L33980 36971
L33993 36997
L33993 37037
L33980 37063
L33966 37076
L33940 37089
L33835 37089
" />
<path d="M34242 37220
L34111 37220
L34111 36945
" />
<path d="M34321 37142
L34452 37142
" />
<path d="M34295 37220
L34386 36945
L34478 37220
" />
<path d="M34570 37220
L34570 36945
L34728 37220
L34728 36945
" />
<path d="M34859 37076
L34951 37076
" />
<path d="M34990 37220
L34859 37220
L34859 36945
L34990 36945
" />
<path d="M33814 36434
L33787 36421
L33748 36421
L33709 36434
L33682 36460
L33669 36486
L33656 36539
L33656 36578
L33669 36631
L33682 36657
L33709 36683
L33748 36696
L33774 36696
L33814 36683
L33827 36670
L33827 36578
L33774 36578
" />
<path d="M34102 36696
L34010 36565
" />
<path d="M33945 36696
L33945 36421
L34050 36421
L34076 36434
L34089 36447
L34102 36473
L34102 36513
L34089 36539
L34076 36552
L34050 36565
L33945 36565
" />
<path d="M34273 36421
L34325 36421
L34352 36434
L34378 36460
L34391 36513
L34391 36604
L34378 36657
L34352 36683
L34325 36696
L34273 36696
L34247 36683
L34220 36657
L34207 36604
L34207 36513
L34220 36460
L34247 36434
L34273 36421
" />
<path d="M34509 36421
L34509 36644
L34522 36670
L34535 36683
L34562 36696
L34614 36696
L34640 36683
L34653 36670
L34667 36644
L34667 36421
" />
<path d="M34798 36696
L34798 36421
L34955 36696
L34955 36421
" />
<path d="M35087 36696
L35087 36421
L35152 36421
L35192 36434
L35218 36460
L35231 36486
L35244 36539
L35244 36578
L35231 36631
L35218 36657
L35192 36683
L35152 36696
L35087 36696
" />
<path d="M34024 36158
L33892 36158
L33892 35883
" />
<path d="M34168 35883
L34220 35883
L34247 35896
L34273 35922
L34286 35975
L34286 36066
L34273 36119
L34247 36145
L34220 36158
L34168 36158
L34142 36145
L34115 36119
L34102 36066
L34102 35975
L34115 35922
L34142 35896
L34168 35883
" />
<path d="M34562 36132
L34548 36145
L34509 36158
L34483 36158
L34444 36145
L34417 36119
L34404 36093
L34391 36040
L34391 36001
L34404 35948
L34417 35922
L34444 35896
L34483 35883
L34509 35883
L34548 35896
L34562 35909
" />
<path d="M34667 36080
L34798 36080
" />
<path d="M34640 36158
L34732 35883
L34824 36158
" />
<path d="M35047 36158
L34916 36158
L34916 35883
" />
<path d="M38723 37808
L38526 37808
L38723 37696
L38526 37696
" />
<path d="M38526 37564
L38526 37527
L38536 37508
L38554 37489
L38592 37480
L38658 37480
L38695 37489
L38714 37508
L38723 37527
L38723 37564
L38714 37583
L38695 37602
L38658 37611
L38592 37611
L38554 37602
L38536 37583
L38526 37564
" />
<path d="M38723 37133
L38629 37199
" />
<path d="M38723 37246
L38526 37246
L38526 37171
L38536 37152
L38545 37142
L38564 37133
L38592 37133
L38611 37142
L38620 37152
L38629 37171
L38629 37246
" />
<path d="M38526 37011
L38526 36974
L38536 36955
L38554 36936
L38592 36927
L38658 36927
L38695 36936
L38714 36955
L38723 36974
L38723 37011
L38714 37030
L38695 37049
L38658 37058
L38592 37058
L38554 37049
L38536 37030
L38526 37011
" />
<path d="M38526 36842
L38686 36842
L38704 36833
L38714 36824
L38723 36805
L38723 36768
L38714 36749
L38704 36739
L38686 36730
L38526 36730
" />
<path d="M38526 36664
L38526 36552
" />
<path d="M38723 36608
L38526 36608
" />
<path d="M38723 36486
L38526 36486
" />
<path d="M38723 36393
L38526 36393
L38723 36280
L38526 36280
" />
<path d="M38536 36083
L38526 36102
L38526 36130
L38536 36158
L38554 36177
L38573 36186
L38611 36196
L38639 36196
L38676 36186
L38695 36177
L38714 36158
L38723 36130
L38723 36111
L38714 36083
L38704 36074
L38639 36074
L38639 36111
" />
<g >
</g>
</g> 
</svg>
