<?xml version="1.0" standalone="no"?>
 <!DOCTYPE svg PUBLIC "-//W3C//DTD SVG 1.1//EN" 
 "http://www.w3.org/Graphics/SVG/1.1/DTD/svg11.dtd"> 
<svg xmlns="http://www.w3.org/2000/svg" version="1.1" 
    width="29.7002cm" height="21.0007cm" viewBox="0 0 116930 82680 ">
<title>SVG Picture created as ThermocoupleLogger-B_SilkS.svg date 2019/03/28 10:52:54 </title>
  <desc>Picture generated by PCBNEW </desc>
<g style="fill:#000000; fill-opacity:1;stroke:#000000; stroke-opacity:1;
stroke-linecap:round; stroke-linejoin:round; "
 transform="translate(0 0) scale(1 1)">
</g>
<g style="fill:#000000; fill-opacity:0.0; 
stroke:#000000; stroke-width:-0.000787402; stroke-opacity:1; 
stroke-linecap:round; stroke-linejoin:round;">
</g>
<g style="fill:#000000; fill-opacity:0.0; 
stroke:#000000; stroke-width:78.7402; stroke-opacity:1; 
stroke-linecap:round; stroke-linejoin:round;">
<path d="M93734 12646
L93734 73146
" />
<path d="M23734 68764
L23734 68764
" />
<path d="M23734 12646
L93734 12646
" />
<path d="M23734 73146
L93734 73146
" />
<path d="M23734 12646
L23734 73146
" />
<path d="M23734 13646
L23734 13646
" />
</g>
<g style="fill:#000000; fill-opacity:0.0; 
stroke:#000000; stroke-width:94.4882; stroke-opacity:1; 
stroke-linecap:round; stroke-linejoin:round;">
<path d="M24168 56083
L28656 56083
" />
<path d="M24168 56083
L24168 60808
" />
<path d="M24168 60808
L28656 60808
" />
<path d="M29248.5 61222.8 A629.921 629.921 0.0 0 0 28656.6 60808.3 " />
<path d="M29247.2 61202 A9051.78 9051.78 0.0 0 0 46920.9 58410.4 " />
<path d="M28656.6 56083.9 A629.921 629.921 0.0 0 0 29248.5 55669.4 " />
<path d="M46920.9 58481.8 A9051.78 9051.78 0.0 0 0 29247.2 55690.2 " />
<g >
</g>
<g >
</g>
<g >
</g>
<g >
</g>
<g >
</g>
<g >
</g>
<g >
</g>
<g >
</g>
<g >
</g>
<g >
</g>
<g >
</g>
<g >
</g>
<g >
</g>
<g >
</g>
<g >
</g>
<g >
</g>
<g >
</g>
<g >
</g>
<g >
</g>
<g >
</g>
<g >
</g>
<g >
</g>
<g >
</g>
<g >
</g>
<g >
</g>
<g >
</g>
<g >
</g>
<g >
</g>
<g >
</g>
<g >
</g>
<g >
</g>
<g >
</g>
<g >
</g>
<g >
</g>
<g >
</g>
<g >
</g>
<g >
</g>
<g >
</g>
<g >
</g>
<g >
</g>
<g >
</g>
<g >
</g>
<g >
</g>
<g >
</g>
<g >
</g>
<g >
</g>
<g >
</g>
<g >
</g>
<g >
</g>
<g >
</g>
<g >
</g>
<g >
</g>
<g >
</g>
<g >
</g>
<g >
</g>
<g >
</g>
<g >
</g>
<g >
</g>
<g >
</g>
<g >
</g>
<g >
</g>
<g >
</g>
<g >
</g>
<g >
</g>
<g >
</g>
<g >
</g>
<g >
</g>
<g >
</g>
<g >
</g>
<g >
</g>
<g >
</g>
<g >
</g>
<g >
</g>
</g>
<g style="fill:#000000; fill-opacity:0.0; 
stroke:#000000; stroke-width:118.11; stroke-opacity:1; 
stroke-linecap:round; stroke-linejoin:round;">
<path d="M26519 61775
L26406 61813
L26369 61850
L26331 61925
L26331 62038
L26369 62113
L26406 62150
L26481 62188
L26781 62188
L26781 61400
L26519 61400
L26444 61438
L26406 61475
L26369 61550
L26369 61625
L26406 61700
L26444 61738
L26519 61775
L26781 61775
" />
<path d="M26106 61400
L25656 61400
" />
<path d="M25881 62188
L25881 61400
" />
<path d="M25432 61475
L25394 61438
L25319 61400
L25132 61400
L25057 61438
L25019 61475
L24982 61550
L24982 61625
L25019 61738
L25469 62188
L24982 62188
" />
<path d="M28516 58530
L27616 58530
" />
<path d="M28066 58980
L28066 58080
" />
<g >
</g>
</g> 
</svg>
