<?xml version="1.0" standalone="no"?>
 <!DOCTYPE svg PUBLIC "-//W3C//DTD SVG 1.1//EN" 
 "http://www.w3.org/Graphics/SVG/1.1/DTD/svg11.dtd"> 
<svg xmlns="http://www.w3.org/2000/svg" version="1.1" 
    width="29.7002cm" height="21.0007cm" viewBox="0 0 116930 82680 ">
<title>SVG Picture created as ThermocoupleLogger-B_Fab.svg date 2019/03/28 10:52:54 </title>
  <desc>Picture generated by PCBNEW </desc>
<g style="fill:#000000; fill-opacity:1;stroke:#000000; stroke-opacity:1;
stroke-linecap:round; stroke-linejoin:round; "
 transform="translate(0 0) scale(1 1)">
</g>
<g style="fill:#000000; fill-opacity:0.0; 
stroke:#000000; stroke-width:-0.000787402; stroke-opacity:1; 
stroke-linecap:round; stroke-linejoin:round;">
</g>
<g style="fill:#000000; fill-opacity:0.0; 
stroke:#000000; stroke-width:78.7402; stroke-opacity:1; 
stroke-linecap:round; stroke-linejoin:round;">
<path d="M93734 12646
L93734 73146
" />
<path d="M23734 68764
L23734 68764
" />
<path d="M23734 12646
L93734 12646
" />
<path d="M23734 73146
L93734 73146
" />
<path d="M23734 12646
L23734 73146
" />
<path d="M23734 13646
L23734 13646
" />
<path d="M24247.2 60414.6 A314.961 314.961 0.0 0 0 24562.1 60729.6 " />
<path d="M24562.1 56162.6 A314.961 314.961 0.0 0 0 24247.2 56477.6 " />
<path d="M25900 59469
L25900 57422
" />
<path d="M38656.6 59469.7 A1023.62 1023.62 0.0 0 0 38656.6 57422.5 " />
<path d="M29322.5 61195.9 A708.661 708.661 0.0 0 0 28656.6 60729.6 " />
<path d="M38656 59469
L25900 59469
" />
<path d="M25900 57422
L38656 57422
" />
<path d="M24247 60414
L24247 56477
" />
<path d="M24562 56162
L28680 56162
" />
<path d="M28680 60729
L24562 60729
" />
<path d="M29995.2 59469.7 A7940.27 7940.27 0.0 0 0 45743.2 57422.5 " />
<path d="M32987.3 59469.7 A4988.05 4988.05 0.0 0 0 42854.7 58285.8 " />
<path d="M36373.1 59469.7 A1812.73 1812.73 0.0 0 0 39676.7 58307.7 " />
<path d="M44460 64526
L43720 63846
" />
<path d="M44460 52366
L43740 53026
" />
<path d="M39676.7 58584.6 A1812.73 1812.73 0.0 0 0 36373.1 57422.5 " />
<path d="M42854.7 58606.4 A4988.05 4988.05 0.0 0 0 32987.3 57422.5 " />
<path d="M45743.2 59469.7 A7940.27 7940.27 0.0 0 0 29995.2 57422.5 " />
<path d="M29325.9 61202 A8976.81 8976.81 0.0 0 0 46845.8 58386.8 " />
<path d="M46845.8 58505.4 A8976.81 8976.81 0.0 0 0 29325.9 55690.2 " />
<path d="M28656.6 56162.6 A708.661 708.661 0.0 0 0 29322.5 55696.4 " />
<g >
</g>
<g >
</g>
<g >
</g>
<g >
</g>
<g >
</g>
<g >
</g>
<g >
</g>
<g >
</g>
<g >
</g>
<g >
</g>
<g >
</g>
<g >
</g>
<g >
</g>
<g >
</g>
<g >
</g>
<g >
</g>
<g >
</g>
<g >
</g>
<g >
</g>
<g >
</g>
<g >
</g>
<g >
</g>
<g >
</g>
<g >
</g>
<g >
</g>
<g >
</g>
<g >
</g>
<g >
</g>
<g >
</g>
<g >
</g>
<g >
</g>
<g >
</g>
<g >
</g>
<g >
</g>
<g >
</g>
<g >
</g>
<g >
</g>
<g >
</g>
<g >
</g>
<g >
</g>
<g >
</g>
<g >
</g>
<g >
</g>
<g >
</g>
<g >
</g>
<g >
</g>
<g >
</g>
<g >
</g>
<g >
</g>
<g >
</g>
<g >
</g>
<g >
</g>
<g >
</g>
<g >
</g>
<g >
</g>
<g >
</g>
<g >
</g>
<g >
</g>
<g >
</g>
<g >
</g>
<g >
</g>
<g >
</g>
<g >
</g>
<g >
</g>
<g >
</g>
<g >
</g>
<g >
</g>
<g >
</g>
<g >
</g>
<g >
</g>
<g >
</g>
<g >
</g>
<g >
</g>
</g>
<g style="fill:#000000; fill-opacity:0.0; 
stroke:#000000; stroke-width:118.11; stroke-opacity:1; 
stroke-linecap:round; stroke-linejoin:round;">
<path d="M39342 48153
L39230 48191
L39192 48228
L39155 48303
L39155 48416
L39192 48491
L39230 48528
L39305 48566
L39605 48566
L39605 47778
L39342 47778
L39267 47816
L39230 47853
L39192 47928
L39192 48003
L39230 48078
L39267 48116
L39342 48153
L39605 48153
" />
<path d="M38480 48566
L38480 48153
L38517 48078
L38592 48041
L38742 48041
L38817 48078
" />
<path d="M38480 48528
L38555 48566
L38742 48566
L38817 48528
L38855 48453
L38855 48378
L38817 48303
L38742 48266
L38555 48266
L38480 48228
" />
<path d="M38217 48041
L37917 48041
" />
<path d="M38105 47778
L38105 48453
L38067 48528
L37992 48566
L37917 48566
" />
<path d="M37767 48041
L37468 48041
" />
<path d="M37655 47778
L37655 48453
L37617 48528
L37543 48566
L37468 48566
" />
<path d="M36905 48528
L36980 48566
L37130 48566
L37205 48528
L37243 48453
L37243 48153
L37205 48078
L37130 48041
L36980 48041
L36905 48078
L36868 48153
L36868 48228
L37243 48303
" />
<path d="M36530 48566
L36530 48041
" />
<path d="M36530 48191
L36493 48116
L36455 48078
L36380 48041
L36305 48041
" />
<path d="M36118 48041
L35930 48566
" />
<path d="M35743 48041
L35930 48566
L36005 48753
L36043 48791
L36118 48828
" />
<path d="M26519 58389
L26406 58427
L26369 58464
L26331 58539
L26331 58652
L26369 58727
L26406 58764
L26481 58802
L26781 58802
L26781 58014
L26519 58014
L26444 58052
L26406 58089
L26369 58164
L26369 58239
L26406 58314
L26444 58352
L26519 58389
L26781 58389
" />
<path d="M26106 58014
L25656 58014
" />
<path d="M25881 58802
L25881 58014
" />
<path d="M25432 58089
L25394 58052
L25319 58014
L25132 58014
L25057 58052
L25019 58089
L24982 58164
L24982 58239
L25019 58352
L25469 58802
L24982 58802
" />
<g >
</g>
</g> 
</svg>
