<?xml version="1.0" standalone="no"?>
 <!DOCTYPE svg PUBLIC "-//W3C//DTD SVG 1.1//EN" 
 "http://www.w3.org/Graphics/SVG/1.1/DTD/svg11.dtd"> 
<svg xmlns="http://www.w3.org/2000/svg" version="1.1" 
    width="29.7002cm" height="21.0007cm" viewBox="0 0 116930 82680 ">
<title>SVG Picture created as ThermocoupleLogger-B_SilkS.svg date 2019/03/14 16:48:18 </title>
  <desc>Picture generated by PCBNEW </desc>
<g style="fill:#000000; fill-opacity:1;stroke:#000000; stroke-opacity:1;
stroke-linecap:round; stroke-linejoin:round; "
 transform="translate(0 0) scale(1 1)">
</g>
<g style="fill:#000000; fill-opacity:0.0; 
stroke:#000000; stroke-width:-0.000787402; stroke-opacity:1; 
stroke-linecap:round; stroke-linejoin:round;">
</g>
<g style="fill:#000000; fill-opacity:0.0; 
stroke:#000000; stroke-width:157.48; stroke-opacity:1; 
stroke-linecap:round; stroke-linejoin:round;">
<path d="M96543 62899
L96543 67324
" />
<path d="M17743 67332
L96539 67332
" />
<path d="M30465 21607
L17748 21607
" />
<path d="M17743 62940
L17743 67340
" />
<path d="M83703 62900
L65463 62900
" />
<path d="M87433 62900
L96543 62900
" />
<path d="M87393 60900
L96483 60900
" />
<path d="M65463 60900
L83703 60900
" />
<path d="M61827 62909
L24467 62909
" />
<path d="M24473 60910
L61833 60910
" />
<path d="M20843 60920
L17743 60920
" />
<path d="M20813 62920
L17740 62938
" />
<path d="M20813.7 62920 A1000.2 1000.2 0.0 0 0 20836.3 60920.7 " />
<path d="M24483.7 60910 A1000 1000 0.0 0 0 24467.1 62909.9 " />
<path d="M61813.7 62910 A1000 1000 0.0 0 0 61835 60910.2 " />
<path d="M65463.7 60900 A1000.2 1000.2 0.0 1 0 65465.5 62900 " />
<path d="M83693.7 62900 A1000.2 1000.2 0.0 1 0 83713.7 60899.8 " />
<path d="M87384.5 60900 A1000.2 1000.2 0.0 0 0 87423.7 62900 " />
<path d="M91343.7 19540 A1000.8 1000.8 0.0 0 0 91383.7 21540.8 " />
<path d="M55123.7 21580 A1000.8 1000.8 0.0 1 0 55123.7 19580 " />
<path d="M17703 19560
L17703 19560
" />
<path d="M30463 19560
L17703 19560
" />
<path d="M34123 21580
L55123 21580
" />
<path d="M55103 19580
L34143 19580
" />
<path d="M30463.7 21600 A1020 1020 0.0 0 0 30463.7 19560 " />
<path d="M34143.7 19580 A1000.2 1000.2 0.0 1 0 34123.7 21580.2 " />
<path d="M87723 21570
L58893 21570
" />
<path d="M58743 19590
L87753 19590
" />
<path d="M58823.7 19580 A990.202 990.202 0.0 0 0 58863.7 21560 " />
<path d="M91394 21544
L96480 21552
" />
<path d="M96443 19540
L91343 19540
" />
<path d="M96443 14340
L96443 19540
" />
<path d="M87723.7 21580 A996 996 0.0 0 0 87731.8 19588 " />
<path d="M17703 14320
L96433 14324
" />
<path d="M17703 19560
L17703 14320
" />
<path d="M17743 60920
L17743 21610
" />
<path d="M96483 60900
L96483 21569
" />
</g>
<g style="fill:#000000; fill-opacity:0.0; 
stroke:#000000; stroke-width:94.4882; stroke-opacity:1; 
stroke-linecap:round; stroke-linejoin:round;">
<path d="M53975 24325
L57912 24325
" />
<path d="M58345.3 24758.9 A433.071 433.071 0.0 0 0 57912.2 24325.8 " />
<path d="M53975.2 24325.8 A433.071 433.071 0.0 0 0 53542.2 24758.9 " />
<path d="M58345 24758
L58345 26688
" />
<path d="M53542 26688
L53542 24758
" />
<path d="M53153.6 27243 A590.551 590.551 0.0 0 0 53542.2 26688 " />
<path d="M58345.3 26688 A590.551 590.551 0.0 0 0 58733.9 27243 " />
<path d="M53172.1 27239.2 A11023.4 11023.4 0.0 0 0 55955.7 48931.9 " />
<path d="M55931.7 48931.9 A11023.4 11023.4 0.0 0 0 58715.4 27239.2 " />
<path d="M69488 33091
L68932 32534
" />
<path d="M69878 31588
L70435 32145
" />
<path d="M71818 33548
L72375 34105
" />
<path d="M71428 35051
L70872 34494
" />
</g>
<g style="fill:#000000; fill-opacity:0.0; 
stroke:#000000; stroke-width:118.11; stroke-opacity:1; 
stroke-linecap:round; stroke-linejoin:round;">
<path d="M52344 24337
L52381 24449
L52419 24487
L52494 24524
L52606 24524
L52681 24487
L52719 24449
L52756 24374
L52756 24074
L51969 24074
L51969 24337
L52006 24412
L52044 24449
L52119 24487
L52194 24487
L52269 24449
L52306 24412
L52344 24337
L52344 24074
" />
<path d="M51969 24749
L51969 25199
" />
<path d="M52756 24974
L51969 24974
" />
<path d="M52044 25424
L52006 25461
L51969 25536
L51969 25724
L52006 25799
L52044 25836
L52119 25874
L52194 25874
L52306 25836
L52756 25386
L52756 25874
" />
<path d="M56028 27655
L56028 28555
" />
<path d="M56478 28105
L55578 28105
" />
<path d="M69007 33731
L69007 33784
L69060 33891
L69113 33944
L69219 33997
L69325 33997
L69405 33970
L69537 33891
L69617 33811
L69696 33678
L69723 33599
L69723 33493
L69670 33387
L69617 33334
L69511 33281
L69458 33281
" />
<path d="M69246 33069
L69246 33016
L69219 32936
L69087 32803
L69007 32777
L68954 32777
L68875 32803
L68822 32857
L68769 32963
L68769 33599
L68424 33254
" />
<path d="M67894 32724
L68212 33042
" />
<path d="M68053 32883
L68609 32326
L68583 32459
L68583 32565
L68609 32644
" />
<path d="M70947 35691
L70947 35744
L71000 35851
L71053 35904
L71159 35957
L71265 35957
L71345 35930
L71477 35851
L71557 35771
L71636 35638
L71663 35559
L71663 35453
L71610 35347
L71557 35294
L71451 35241
L71398 35241
" />
<path d="M71186 35029
L71186 34976
L71159 34896
L71027 34763
L70947 34737
L70894 34737
L70815 34763
L70762 34817
L70709 34923
L70709 35559
L70364 35214
" />
<path d="M70656 34498
L70656 34445
L70629 34366
L70496 34233
L70417 34207
L70364 34207
L70284 34233
L70231 34286
L70178 34392
L70178 35029
L69834 34684
" />
</g> 
</svg>
