<?xml version="1.0" standalone="no"?>
 <!DOCTYPE svg PUBLIC "-//W3C//DTD SVG 1.1//EN" 
 "http://www.w3.org/Graphics/SVG/1.1/DTD/svg11.dtd"> 
<svg xmlns="http://www.w3.org/2000/svg" version="1.1" 
    width="29.7002cm" height="21.0007cm" viewBox="0 0 116930 82680 ">
<title>SVG Picture created as ThermocoupleLogger-B_Mask.svg date 2019/03/14 16:48:18 </title>
  <desc>Picture generated by PCBNEW </desc>
<g style="fill:#000000; fill-opacity:1;stroke:#000000; stroke-opacity:1;
stroke-linecap:round; stroke-linejoin:round; "
 transform="translate(0 0) scale(1 1)">
</g>
<g style="fill:#000000; fill-opacity:0.0; 
stroke:#000000; stroke-width:-0.000787402; stroke-opacity:1; 
stroke-linecap:round; stroke-linejoin:round;">
</g>
<g style="fill:#000000; fill-opacity:0.0; 
stroke:#000000; stroke-width:157.48; stroke-opacity:1; 
stroke-linecap:round; stroke-linejoin:round;">
<path d="M96543 62899
L96543 67324
" />
<path d="M17743 67332
L96539 67332
" />
<path d="M30465 21607
L17748 21607
" />
<path d="M17743 62940
L17743 67340
" />
<path d="M83703 62900
L65463 62900
" />
<path d="M87433 62900
L96543 62900
" />
<path d="M87393 60900
L96483 60900
" />
<path d="M65463 60900
L83703 60900
" />
<path d="M61827 62909
L24467 62909
" />
<path d="M24473 60910
L61833 60910
" />
<path d="M20843 60920
L17743 60920
" />
<path d="M20813 62920
L17740 62938
" />
<path d="M20813.7 62920 A1000.2 1000.2 0.0 0 0 20836.3 60920.7 " />
<path d="M24483.7 60910 A1000 1000 0.0 0 0 24467.1 62909.9 " />
<path d="M61813.7 62910 A1000 1000 0.0 0 0 61835 60910.2 " />
<path d="M65463.7 60900 A1000.2 1000.2 0.0 1 0 65465.5 62900 " />
<path d="M83693.7 62900 A1000.2 1000.2 0.0 1 0 83713.7 60899.8 " />
<path d="M87384.5 60900 A1000.2 1000.2 0.0 0 0 87423.7 62900 " />
<path d="M91343.7 19540 A1000.8 1000.8 0.0 0 0 91383.7 21540.8 " />
<path d="M55123.7 21580 A1000.8 1000.8 0.0 1 0 55123.7 19580 " />
<path d="M17703 19560
L17703 19560
" />
<path d="M30463 19560
L17703 19560
" />
<path d="M34123 21580
L55123 21580
" />
<path d="M55103 19580
L34143 19580
" />
<path d="M30463.7 21600 A1020 1020 0.0 0 0 30463.7 19560 " />
<path d="M34143.7 19580 A1000.2 1000.2 0.0 1 0 34123.7 21580.2 " />
<path d="M87723 21570
L58893 21570
" />
<path d="M58743 19590
L87753 19590
" />
<path d="M58823.7 19580 A990.202 990.202 0.0 0 0 58863.7 21560 " />
<path d="M91394 21544
L96480 21552
" />
<path d="M96443 19540
L91343 19540
" />
<path d="M96443 14340
L96443 19540
" />
<path d="M87723.7 21580 A996 996 0.0 0 0 87731.8 19588 " />
<path d="M17703 14320
L96433 14324
" />
<path d="M17703 19560
L17703 14320
" />
<path d="M17743 60920
L17743 21610
" />
<path d="M96483 60900
L96483 21569
" />
</g>
<g style="fill:#000000; fill-opacity:1.0; 
stroke:#000000; stroke-width:0; stroke-opacity:1; 
stroke-linecap:round; stroke-linejoin:round;">
<polyline style="fill-rule:evenodd;"
points="90815,62881
90994,62955
91155,63063
91292,63200
91400,63361
91474,63541
91512,63731
91512,63925
91474,64115
91400,64294
91292,64455
91155,64592
90994,64700
90815,64774
90624,64812
90431,64812
90240,64774
90061,64700
89900,64592
89763,64455
89655,64294
89581,64115
89543,63925
89543,63731
89581,63541
89655,63361
89763,63200
89900,63063
90061,62955
90240,62881
90431,62843
90624,62843
90815,62881
" /> 
<polyline style="fill-rule:evenodd;"
points="27822,62881
28002,62955
28163,63063
28300,63200
28408,63361
28482,63541
28520,63731
28520,63925
28482,64115
28408,64294
28300,64455
28163,64592
28002,64700
27822,64774
27632,64812
27438,64812
27248,64774
27069,64700
26908,64592
26771,64455
26663,64294
26589,64115
26551,63925
26551,63731
26589,63541
26663,63361
26771,63200
26908,63063
27069,62955
27248,62881
27438,62843
27632,62843
27822,62881
" /> 
<polyline style="fill-rule:evenodd;"
points="94163,55295
94518,55442
94550,55455
94566,55466
94898,55688
95195,55984
95427,56332
95588,56719
95669,57130
95669,57549
95588,57960
95427,58347
95195,58695
94898,58991
94898,58991
94550,59224
94550,59224
94550,59224
94163,59384
93753,59465
93334,59465
92923,59384
92536,59224
92536,59224
92536,59224
92188,58991
92188,58991
91892,58695
91659,58347
91499,57960
91417,57549
91417,57130
91499,56719
91659,56332
91892,55984
92188,55688
92521,55466
92536,55455
92568,55442
92923,55295
93334,55214
93753,55214
94163,55295
" /> 
<polyline style="fill-rule:evenodd;"
points="21163,55295
21518,55442
21550,55455
21566,55466
21898,55688
22195,55984
22427,56332
22588,56719
22669,57130
22669,57549
22588,57960
22427,58347
22195,58695
21898,58991
21898,58991
21550,59224
21550,59224
21550,59224
21163,59384
20753,59465
20334,59465
19923,59384
19536,59224
19536,59224
19536,59224
19188,58991
19188,58991
18892,58695
18659,58347
18499,57960
18417,57549
18417,57130
18499,56719
18659,56332
18892,55984
19188,55688
19521,55466
19536,55455
19568,55442
19923,55295
20334,55214
20753,55214
21163,55295
" /> 
<polyline style="fill-rule:evenodd;"
points="31788,51473
31812,51480
31834,51492
31853,51508
31869,51527
31881,51549
31888,51573
31891,51602
31891,52677
31888,52706
31881,52730
31869,52752
31853,52771
31834,52787
31812,52799
31788,52806
31758,52809
30448,52809
30418,52806
30395,52799
30373,52787
30353,52771
30338,52752
30326,52730
30319,52706
30316,52677
30316,51602
30319,51573
30326,51549
30338,51527
30353,51508
30373,51492
30395,51480
30418,51473
30448,51470
31758,51470
31788,51473
" /> 
<polyline style="fill-rule:evenodd;"
points="38988,51473
39012,51480
39034,51492
39053,51508
39069,51527
39081,51549
39088,51573
39091,51602
39091,52677
39088,52706
39081,52730
39069,52752
39053,52771
39034,52787
39012,52799
38988,52806
38958,52809
37648,52809
37618,52806
37595,52799
37573,52787
37553,52771
37538,52752
37526,52730
37519,52706
37516,52677
37516,51602
37519,51573
37526,51549
37538,51527
37553,51508
37573,51492
37595,51480
37618,51473
37648,51470
38958,51470
38988,51473
" /> 
<polyline style="fill-rule:evenodd;"
points="24588,51442
24612,51449
24634,51461
24653,51476
24669,51496
24681,51518
24688,51541
24691,51571
24691,52645
24688,52675
24681,52698
24669,52720
24653,52740
24634,52755
24612,52767
24588,52774
24558,52777
23248,52777
23218,52774
23195,52767
23173,52755
23153,52740
23138,52720
23126,52698
23119,52675
23116,52645
23116,51571
23119,51541
23126,51518
23138,51496
23153,51476
23173,51461
23195,51449
23218,51442
23248,51439
24558,51439
24588,51442
" /> 
<polyline style="fill-rule:evenodd;"
points="46128,51422
46152,51429
46174,51441
46193,51456
46209,51476
46221,51498
46228,51521
46231,51551
46231,52625
46228,52655
46221,52678
46209,52700
46193,52720
46174,52735
46152,52747
46128,52754
46098,52757
44788,52757
44758,52754
44735,52747
44713,52735
44693,52720
44678,52700
44666,52678
44659,52655
44656,52625
44656,51551
44659,51521
44666,51498
44678,51476
44693,51456
44713,51441
44735,51429
44758,51422
44788,51419
46098,51419
46128,51422
" /> 
<polyline style="fill-rule:evenodd;"
points="75648,51333
75672,51340
75694,51352
75713,51368
75729,51387
75741,51409
75748,51433
75751,51462
75751,52537
75748,52566
75741,52590
75729,52612
75713,52631
75694,52647
75672,52659
75648,52666
75618,52669
74308,52669
74278,52666
74255,52659
74233,52647
74213,52631
74198,52612
74186,52590
74179,52566
74176,52537
74176,51462
74179,51433
74186,51409
74198,51387
74213,51368
74233,51352
74255,51340
74278,51333
74308,51330
75618,51330
75648,51333
" /> 
<polyline style="fill-rule:evenodd;"
points="90028,51073
90052,51080
90074,51092
90093,51108
90109,51127
90121,51149
90128,51173
90131,51202
90131,52277
90128,52306
90121,52330
90109,52352
90093,52371
90074,52387
90052,52399
90028,52406
89998,52409
88688,52409
88658,52406
88635,52399
88613,52387
88593,52371
88578,52352
88566,52330
88559,52306
88556,52277
88556,51202
88559,51173
88566,51149
88578,51127
88593,51108
88613,51092
88635,51080
88658,51073
88688,51070
89998,51070
90028,51073
" /> 
<polyline style="fill-rule:evenodd;"
points="68428,51073
68452,51080
68474,51092
68493,51108
68509,51127
68521,51149
68528,51173
68531,51202
68531,52277
68528,52306
68521,52330
68509,52352
68493,52371
68474,52387
68452,52399
68428,52406
68398,52409
67088,52409
67058,52406
67035,52399
67013,52387
66993,52371
66978,52352
66966,52330
66959,52306
66956,52277
66956,51202
66959,51173
66966,51149
66978,51127
66993,51108
67013,51092
67035,51080
67058,51073
67088,51070
68398,51070
68428,51073
" /> 
<polyline style="fill-rule:evenodd;"
points="82828,51073
82852,51080
82874,51092
82893,51108
82909,51127
82921,51149
82928,51173
82931,51202
82931,52277
82928,52306
82921,52330
82909,52352
82893,52371
82874,52387
82852,52399
82828,52406
82798,52409
81488,52409
81458,52406
81435,52399
81413,52387
81393,52371
81378,52352
81366,52330
81359,52306
81356,52277
81356,51202
81359,51173
81366,51149
81378,51127
81393,51108
81413,51092
81435,51080
81458,51073
81488,51070
82798,51070
82828,51073
" /> 
<polyline style="fill-rule:evenodd;"
points="31353,49511
31479,49550
31595,49612
31697,49695
31781,49797
31843,49914
31881,50040
31894,50171
31881,50302
31843,50428
31781,50545
31697,50647
31595,50730
31479,50792
31353,50831
31254,50840
30952,50840
30854,50831
30728,50792
30611,50730
30510,50647
30426,50545
30364,50428
30326,50302
30313,50171
30326,50040
30364,49914
30426,49797
30510,49695
30611,49612
30728,49550
30854,49511
30952,49502
31254,49502
31353,49511
" /> 
<polyline style="fill-rule:evenodd;"
points="38553,49511
38679,49550
38795,49612
38897,49695
38981,49797
39043,49914
39081,50040
39094,50171
39081,50302
39043,50428
38981,50545
38897,50647
38795,50730
38679,50792
38553,50831
38454,50840
38152,50840
38054,50831
37928,50792
37811,50730
37710,50647
37626,50545
37564,50428
37526,50302
37513,50171
37526,50040
37564,49914
37626,49797
37710,49695
37811,49612
37928,49550
38054,49511
38152,49502
38454,49502
38553,49511
" /> 
<polyline style="fill-rule:evenodd;"
points="24153,49480
24279,49518
24395,49580
24497,49664
24581,49766
24643,49882
24681,50008
24694,50140
24681,50271
24643,50397
24581,50513
24497,50615
24395,50699
24279,50761
24153,50799
24054,50809
23752,50809
23654,50799
23528,50761
23411,50699
23310,50615
23226,50513
23164,50397
23126,50271
23113,50140
23126,50008
23164,49882
23226,49766
23310,49664
23411,49580
23528,49518
23654,49480
23752,49470
24054,49470
24153,49480
" /> 
<polyline style="fill-rule:evenodd;"
points="45693,49460
45819,49498
45935,49560
46037,49644
46121,49746
46183,49862
46221,49988
46234,50120
46221,50251
46183,50377
46121,50493
46037,50595
45935,50679
45819,50741
45693,50779
45594,50789
45292,50789
45194,50779
45068,50741
44951,50679
44850,50595
44766,50493
44704,50377
44666,50251
44653,50120
44666,49988
44704,49862
44766,49746
44850,49644
44951,49560
45068,49498
45194,49460
45292,49450
45594,49450
45693,49460
" /> 
<polyline style="fill-rule:evenodd;"
points="75213,49371
75339,49410
75455,49472
75557,49555
75641,49657
75703,49774
75741,49900
75754,50031
75741,50162
75703,50288
75641,50405
75557,50507
75455,50590
75339,50652
75213,50691
75114,50700
74812,50700
74714,50691
74588,50652
74471,50590
74370,50507
74286,50405
74224,50288
74186,50162
74173,50031
74186,49900
74224,49774
74286,49657
74370,49555
74471,49472
74588,49410
74714,49371
74812,49362
75114,49362
75213,49371
" /> 
<polyline style="fill-rule:evenodd;"
points="82393,49111
82519,49150
82635,49212
82737,49295
82821,49397
82883,49514
82921,49640
82934,49771
82921,49902
82883,50028
82821,50145
82737,50247
82635,50330
82519,50392
82393,50431
82294,50440
81992,50440
81894,50431
81768,50392
81651,50330
81550,50247
81466,50145
81404,50028
81366,49902
81353,49771
81366,49640
81404,49514
81466,49397
81550,49295
81651,49212
81768,49150
81894,49111
81992,49102
82294,49102
82393,49111
" /> 
<polyline style="fill-rule:evenodd;"
points="67993,49111
68119,49150
68235,49212
68337,49295
68421,49397
68483,49514
68521,49640
68534,49771
68521,49902
68483,50028
68421,50145
68337,50247
68235,50330
68119,50392
67993,50431
67894,50440
67592,50440
67494,50431
67368,50392
67251,50330
67150,50247
67066,50145
67004,50028
66966,49902
66953,49771
66966,49640
67004,49514
67066,49397
67150,49295
67251,49212
67368,49150
67494,49111
67592,49102
67894,49102
67993,49111
" /> 
<polyline style="fill-rule:evenodd;"
points="89593,49111
89719,49150
89835,49212
89937,49295
90021,49397
90083,49514
90121,49640
90134,49771
90121,49902
90083,50028
90021,50145
89937,50247
89835,50330
89719,50392
89593,50431
89494,50440
89192,50440
89094,50431
88968,50392
88851,50330
88750,50247
88666,50145
88604,50028
88566,49902
88553,49771
88566,49640
88604,49514
88666,49397
88750,49295
88851,49212
88968,49150
89094,49111
89192,49102
89494,49102
89593,49111
" /> 
<polyline style="fill-rule:evenodd;"
points="86534,42600
86661,42638
86777,42700
86879,42784
86962,42886
87025,43002
87063,43128
87076,43260
87063,43391
87025,43517
86962,43633
86879,43735
86777,43819
86661,43881
86534,43919
86436,43929
86370,43929
86272,43919
86146,43881
86030,43819
85928,43735
85844,43633
85782,43517
85744,43391
85731,43260
85744,43128
85782,43002
85844,42886
85928,42784
86030,42700
86146,42638
86272,42600
86370,42590
86436,42590
86534,42600
" /> 
<polyline style="fill-rule:evenodd;"
points="84534,42600
84661,42638
84777,42700
84879,42784
84962,42886
85025,43002
85063,43128
85076,43260
85063,43391
85025,43517
84962,43633
84879,43735
84777,43819
84661,43881
84534,43919
84436,43929
84370,43929
84272,43919
84146,43881
84030,43819
83928,43735
83844,43633
83782,43517
83744,43391
83731,43260
83744,43128
83782,43002
83844,42886
83928,42784
84030,42700
84146,42638
84272,42600
84370,42590
84436,42590
84534,42600
" /> 
<polyline style="fill-rule:evenodd;"
points="82534,42600
82661,42638
82777,42700
82879,42784
82962,42886
83025,43002
83063,43128
83076,43260
83063,43391
83025,43517
82962,43633
82879,43735
82777,43819
82661,43881
82534,43919
82436,43929
82370,43929
82272,43919
82146,43881
82030,43819
81928,43735
81844,43633
81782,43517
81744,43391
81731,43260
81744,43128
81782,43002
81844,42886
81928,42784
82030,42700
82146,42638
82272,42600
82370,42590
82436,42590
82534,42600
" /> 
<polyline style="fill-rule:evenodd;"
points="80534,42600
80661,42638
80777,42700
80879,42784
80962,42886
81025,43002
81063,43128
81076,43260
81063,43391
81025,43517
80962,43633
80879,43735
80777,43819
80661,43881
80534,43919
80436,43929
80370,43929
80272,43919
80146,43881
80030,43819
79928,43735
79844,43633
79782,43517
79744,43391
79731,43260
79744,43128
79782,43002
79844,42886
79928,42784
80030,42700
80146,42638
80272,42600
80370,42590
80436,42590
80534,42600
" /> 
<polyline style="fill-rule:evenodd;"
points="79073,43929
77734,43929
77734,42590
79073,42590
79073,43929
" /> 
<polyline style="fill-rule:evenodd;"
points="74774,42580
74901,42618
75017,42680
75119,42764
75202,42866
75265,42982
75303,43108
75316,43240
75303,43371
75265,43497
75202,43613
75119,43715
75017,43799
74901,43861
74774,43899
74676,43909
74610,43909
74512,43899
74386,43861
74270,43799
74168,43715
74084,43613
74022,43497
73984,43371
73971,43240
73984,43108
74022,42982
74084,42866
74168,42764
74270,42680
74386,42618
74512,42580
74610,42570
74676,42570
74774,42580
" /> 
<polyline style="fill-rule:evenodd;"
points="72774,42580
72901,42618
73017,42680
73119,42764
73202,42866
73265,42982
73303,43108
73316,43240
73303,43371
73265,43497
73202,43613
73119,43715
73017,43799
72901,43861
72774,43899
72676,43909
72610,43909
72512,43899
72386,43861
72270,43799
72168,43715
72084,43613
72022,43497
71984,43371
71971,43240
71984,43108
72022,42982
72084,42866
72168,42764
72270,42680
72386,42618
72512,42580
72610,42570
72676,42570
72774,42580
" /> 
<polyline style="fill-rule:evenodd;"
points="71313,43909
69974,43909
69974,42570
71313,42570
71313,43909
" /> 
<polyline style="fill-rule:evenodd;"
points="56212,40923
56288,40938
56503,41027
56694,41154
56696,41156
56861,41320
56861,41320
56990,41514
57079,41729
57124,41957
57124,42190
57079,42418
56990,42633
56945,42700
56861,42826
56696,42991
56696,42991
56503,43120
56288,43209
56212,43224
56060,43254
55827,43254
55675,43224
55599,43209
55384,43120
55190,42991
55190,42991
55026,42826
54942,42700
54897,42633
54808,42418
54762,42190
54762,41957
54808,41729
54897,41514
55026,41320
55026,41320
55190,41156
55193,41154
55384,41027
55599,40938
55675,40923
55827,40892
56060,40892
56212,40923
" /> 
<polyline style="fill-rule:evenodd;"
points="44461,39164
44552,39182
44696,39242
44824,39328
44934,39438
45020,39567
45080,39710
45110,39862
45110,40017
45080,40169
45020,40312
44934,40441
44824,40551
44696,40637
44552,40697
44461,40715
44400,40727
44245,40727
44184,40715
44093,40697
43950,40637
43821,40551
43711,40441
43625,40312
43565,40169
43535,40017
43535,39862
43565,39710
43625,39567
43711,39438
43821,39328
43950,39242
44093,39182
44184,39164
44245,39152
44400,39152
44461,39164
" /> 
<polyline style="fill-rule:evenodd;"
points="40918,39164
41009,39182
41152,39242
41281,39328
41391,39438
41477,39567
41536,39710
41567,39862
41567,40017
41536,40169
41477,40312
41391,40441
41281,40551
41152,40637
41009,40697
40918,40715
40857,40727
40702,40727
40641,40715
40550,40697
40406,40637
40277,40551
40168,40441
40081,40312
40022,40169
39992,40017
39992,39862
40022,39710
40081,39567
40168,39438
40277,39328
40406,39242
40550,39182
40641,39164
40702,39152
40857,39152
40918,39164
" /> 
<polyline style="fill-rule:evenodd;"
points="36868,37402
36892,37409
36914,37421
36933,37436
36949,37456
36961,37478
36968,37501
36971,37531
36971,38605
36968,38635
36961,38658
36949,38680
36933,38700
36914,38715
36892,38727
36868,38734
36838,38737
35528,38737
35498,38734
35475,38727
35453,38715
35433,38700
35418,38680
35406,38658
35399,38635
35396,38605
35396,37531
35399,37501
35406,37478
35418,37456
35433,37436
35453,37421
35475,37409
35498,37402
35528,37399
36838,37399
36868,37402
" /> 
<polyline style="fill-rule:evenodd;"
points="36433,35440
36559,35478
36675,35540
36777,35624
36861,35726
36923,35842
36961,35968
36974,36100
36961,36231
36923,36357
36861,36473
36777,36575
36675,36659
36559,36721
36433,36759
36334,36769
36032,36769
35934,36759
35808,36721
35691,36659
35590,36575
35506,36473
35444,36357
35406,36231
35393,36100
35406,35968
35444,35842
35506,35726
35590,35624
35691,35540
35808,35478
35934,35440
36032,35430
36334,35430
36433,35440
" /> 
<polyline style="fill-rule:evenodd;"
points="44461,34046
44552,34064
44696,34124
44824,34210
44934,34319
45020,34448
45080,34592
45082,34604
45110,34744
45110,34899
45098,34960
45080,35051
45020,35194
44934,35323
44824,35433
44696,35519
44552,35579
44461,35597
44400,35609
44245,35609
44184,35597
44093,35579
43950,35519
43821,35433
43711,35323
43625,35194
43565,35051
43547,34960
43535,34899
43535,34744
43563,34604
43565,34592
43625,34448
43711,34319
43821,34210
43950,34124
44093,34064
44184,34046
44245,34034
44400,34034
44461,34046
" /> 
<polyline style="fill-rule:evenodd;"
points="40918,34046
41009,34064
41152,34124
41281,34210
41391,34319
41477,34448
41536,34592
41539,34604
41567,34744
41567,34899
41555,34960
41536,35051
41477,35194
41391,35323
41281,35433
41152,35519
41009,35579
40918,35597
40857,35609
40702,35609
40641,35597
40550,35579
40406,35519
40277,35433
40168,35323
40081,35194
40022,35051
40004,34960
39992,34899
39992,34744
40020,34604
40022,34592
40081,34448
40168,34319
40277,34210
40406,34124
40550,34064
40641,34046
40702,34034
40857,34034
40918,34046
" /> 
<polyline style="fill-rule:evenodd;"
points="72806,34787
72110,35483
71554,34926
72250,34230
72806,34787
" /> 
<polyline style="fill-rule:evenodd;"
points="28312,34273
28416,34305
28511,34356
28595,34425
28664,34508
28715,34604
28747,34708
28757,34816
28747,34924
28715,35028
28664,35124
28595,35208
28511,35277
28416,35328
28312,35359
28231,35367
27074,35367
26993,35359
26889,35328
26794,35277
26710,35208
26641,35124
26590,35028
26558,34924
26547,34816
26558,34708
26590,34604
26641,34508
26710,34425
26794,34356
26889,34305
26993,34273
27074,34265
28231,34265
28312,34273
" /> 
<polyline style="fill-rule:evenodd;"
points="71693,33673
70997,34369
70440,33812
71136,33116
71693,33673
" /> 
<polyline style="fill-rule:evenodd;"
points="19752,34048
18335,34048
18335,32631
19752,32631
19752,34048
" /> 
<polyline style="fill-rule:evenodd;"
points="21250,32658
21379,32711
21495,32789
21594,32888
21671,33004
21725,33133
21752,33270
21752,33409
21725,33546
21671,33675
21594,33791
21495,33890
21379,33968
21250,34021
21113,34048
20973,34048
20837,34021
20708,33968
20591,33890
20493,33791
20415,33675
20362,33546
20335,33409
20335,33270
20362,33133
20415,33004
20493,32888
20591,32789
20708,32711
20837,32658
20973,32631
21113,32631
21250,32658
" /> 
<polyline style="fill-rule:evenodd;"
points="23250,32658
23379,32711
23495,32789
23594,32888
23671,33004
23725,33133
23752,33270
23752,33409
23725,33546
23671,33675
23594,33791
23495,33890
23379,33968
23250,34021
23113,34048
22973,34048
22837,34021
22708,33968
22591,33890
22493,33791
22415,33675
22362,33546
22335,33409
22335,33270
22362,33133
22415,33004
22493,32888
22591,32789
22708,32711
22837,32658
22973,32631
23113,32631
23250,32658
" /> 
<polyline style="fill-rule:evenodd;"
points="25320,31438
25423,31470
25519,31521
25603,31590
25672,31674
25723,31770
25755,31873
25763,31954
25763,33111
25755,33192
25723,33296
25672,33392
25603,33476
25519,33544
25423,33596
25320,33627
25211,33638
25103,33627
25000,33596
24904,33544
24820,33476
24751,33392
24700,33296
24668,33192
24660,33111
24660,31954
24668,31873
24700,31770
24751,31674
24820,31590
24904,31521
25000,31470
25103,31438
25211,31428
25320,31438
" /> 
<polyline style="fill-rule:evenodd;"
points="70866,32827
70170,33523
69614,32966
70310,32270
70866,32827
" /> 
<polyline style="fill-rule:evenodd;"
points="69753,31713
69057,32409
68500,31852
69196,31156
69753,31713
" /> 
<polyline style="fill-rule:evenodd;"
points="27296,30866
27418,30916
27528,30989
27621,31082
27694,31192
27745,31314
27771,31443
27771,31575
27745,31704
27694,31826
27621,31936
27528,32029
27418,32102
27296,32153
27167,32178
27035,32178
26906,32153
26784,32102
26675,32029
26581,31936
26508,31826
26458,31704
26432,31575
26432,31443
26458,31314
26508,31192
26581,31082
26675,30989
26784,30916
26906,30866
27035,30840
27167,30840
27296,30866
" /> 
<polyline style="fill-rule:evenodd;"
points="79046,30452
79137,30470
79280,30530
79409,30616
79519,30726
79605,30855
79664,30998
79681,31082
79695,31150
79695,31305
79683,31366
79664,31457
79605,31600
79519,31729
79409,31839
79280,31925
79137,31985
79046,32003
78985,32015
78830,32015
78769,32003
78678,31985
78534,31925
78405,31839
78296,31729
78209,31600
78150,31457
78132,31366
78120,31305
78120,31150
78133,31082
78150,30998
78209,30855
78296,30726
78405,30616
78534,30530
78678,30470
78769,30452
78830,30440
78985,30440
79046,30452
" /> 
<polyline style="fill-rule:evenodd;"
points="82589,30452
82680,30470
82824,30530
82952,30616
83062,30726
83148,30855
83208,30998
83225,31082
83238,31150
83238,31305
83226,31366
83208,31457
83148,31600
83062,31729
82952,31839
82824,31925
82680,31985
82589,32003
82528,32015
82373,32015
82312,32003
82221,31985
82078,31925
81949,31839
81839,31729
81753,31600
81693,31457
81675,31366
81663,31305
81663,31150
81677,31082
81693,30998
81753,30855
81839,30726
81949,30616
82078,30530
82221,30470
82312,30452
82373,30440
82528,30440
82589,30452
" /> 
<polyline style="fill-rule:evenodd;"
points="29084,25683
29084,25683
29084,25683
29174,25710
29257,25754
29329,25814
29360,25852
29388,25886
29423,25952
29433,25969
29445,26008
29460,26058
29467,26128
29467,27126
29460,27196
29460,27196
29460,27196
29433,27286
29388,27368
29329,27441
29257,27500
29174,27544
29084,27572
29084,27572
29084,27572
28991,27581
28898,27572
28898,27572
28898,27572
28808,27544
28726,27500
28653,27441
28594,27368
28549,27286
28522,27196
28522,27196
28522,27196
28515,27126
28515,26128
28522,26058
28522,26058
28549,25969
28594,25886
28653,25814
28693,25781
28726,25754
28808,25710
28808,25710
28898,25683
28898,25683
28898,25683
28991,25674
29084,25683
" /> 
<polyline style="fill-rule:evenodd;"
points="33493,26160
33620,26198
33736,26261
33838,26344
33921,26446
33983,26562
34022,26689
34035,26820
34022,26951
33983,27077
33921,27193
33838,27295
33736,27379
33620,27441
33493,27479
33395,27489
33093,27489
32995,27479
32869,27441
32752,27379
32650,27295
32567,27193
32505,27077
32466,26951
32453,26820
32466,26689
32505,26562
32567,26446
32650,26344
32752,26261
32869,26198
32995,26160
33093,26151
33395,26151
33493,26160
" /> 
<polyline style="fill-rule:evenodd;"
points="57124,27121
54762,27121
54762,24758
57124,24758
57124,27121
" /> 
<polyline style="fill-rule:evenodd;"
points="79046,25334
79137,25352
79280,25412
79409,25498
79519,25607
79605,25736
79664,25880
79675,25935
79690,26010
79695,26032
79695,26187
79664,26339
79605,26482
79519,26611
79409,26721
79280,26807
79137,26867
79046,26885
78985,26897
78830,26897
78769,26885
78678,26867
78534,26807
78405,26721
78296,26611
78209,26482
78150,26339
78120,26187
78120,26032
78124,26010
78139,25935
78150,25880
78209,25736
78296,25607
78405,25498
78534,25412
78678,25352
78769,25334
78830,25322
78985,25322
79046,25334
" /> 
<polyline style="fill-rule:evenodd;"
points="82589,25334
82680,25352
82824,25412
82952,25498
83062,25607
83148,25736
83208,25880
83219,25935
83234,26010
83238,26032
83238,26187
83208,26339
83148,26482
83062,26611
82952,26721
82824,26807
82680,26867
82589,26885
82528,26897
82373,26897
82312,26885
82221,26867
82078,26807
81949,26721
81839,26611
81753,26482
81693,26339
81663,26187
81663,26032
81668,26010
81682,25935
81693,25880
81753,25736
81839,25607
81949,25498
82078,25412
82221,25352
82312,25334
82373,25322
82528,25322
82589,25334
" /> 
<polyline style="fill-rule:evenodd;"
points="66094,25480
66221,25518
66337,25580
66439,25664
66522,25766
66585,25882
66623,26008
66636,26140
66623,26271
66585,26397
66522,26513
66439,26615
66337,26699
66221,26761
66094,26799
65996,26809
65930,26809
65832,26799
65706,26761
65590,26699
65488,26615
65404,26513
65342,26397
65304,26271
65291,26140
65304,26008
65342,25882
65404,25766
65488,25664
65590,25580
65706,25518
65832,25480
65930,25470
65996,25470
66094,25480
" /> 
<polyline style="fill-rule:evenodd;"
points="68094,25480
68221,25518
68337,25580
68439,25664
68522,25766
68585,25882
68623,26008
68636,26140
68623,26271
68585,26397
68522,26513
68439,26615
68337,26699
68221,26761
68094,26799
67996,26809
67930,26809
67832,26799
67706,26761
67590,26699
67488,26615
67404,26513
67342,26397
67304,26271
67291,26140
67304,26008
67342,25882
67404,25766
67488,25664
67590,25580
67706,25518
67832,25480
67930,25470
67996,25470
68094,25480
" /> 
<polyline style="fill-rule:evenodd;"
points="64633,26809
63294,26809
63294,25470
64633,25470
64633,26809
" /> 
<polyline style="fill-rule:evenodd;"
points="93923,22535
94278,22682
94310,22695
94562,22864
94658,22928
94955,23224
94955,23224
95174,23553
95187,23572
95348,23959
95429,24370
95429,24789
95348,25200
95187,25587
95187,25587
95064,25771
94955,25935
94658,26231
94658,26231
94310,26464
94310,26464
94310,26464
93923,26624
93513,26705
93094,26705
92683,26624
92296,26464
92296,26464
92296,26464
91948,26231
91948,26231
91652,25935
91543,25771
91419,25587
91419,25587
91259,25200
91177,24789
91177,24370
91259,23959
91419,23572
91432,23553
91652,23224
91652,23224
91948,22928
92044,22864
92296,22695
92328,22682
92683,22535
93094,22454
93513,22454
93923,22535
" /> 
<polyline style="fill-rule:evenodd;"
points="27296,25354
27418,25404
27528,25477
27621,25571
27694,25680
27745,25802
27771,25931
27771,26063
27745,26193
27694,26314
27621,26424
27528,26517
27418,26590
27296,26641
27167,26667
27035,26667
26906,26641
26784,26590
26675,26517
26581,26424
26508,26314
26458,26193
26432,26063
26432,25931
26458,25802
26508,25680
26581,25571
26675,25477
26784,25404
26906,25354
27035,25328
27167,25328
27296,25354
" /> 
<polyline style="fill-rule:evenodd;"
points="21203,22435
21558,22582
21590,22595
21720,22682
21938,22828
22235,23124
22235,23124
22466,23471
22467,23472
22628,23859
22709,24270
22709,24689
22628,25100
22477,25463
22467,25487
22287,25756
22235,25835
21938,26131
21938,26131
21590,26364
21590,26364
21590,26364
21203,26524
20793,26605
20374,26605
19963,26524
19576,26364
19576,26364
19576,26364
19228,26131
19228,26131
18932,25835
18879,25756
18699,25487
18689,25463
18539,25100
18457,24689
18457,24270
18539,23859
18699,23472
18700,23471
18932,23124
18932,23124
19228,22828
19446,22682
19576,22595
19608,22582
19963,22435
20374,22354
20793,22354
21203,22435
" /> 
<polyline style="fill-rule:evenodd;"
points="25305,24187
25305,24187
25305,24187
25394,24214
25477,24258
25549,24318
25568,24340
25609,24390
25609,24390
25653,24473
25680,24562
25680,24562
25687,24632
25687,25630
25680,25700
25680,25700
25680,25700
25653,25790
25609,25872
25549,25945
25477,26004
25394,26048
25305,26075
25305,26075
25305,26075
25211,26085
25118,26075
25118,26075
25118,26075
25029,26048
24946,26004
24874,25945
24814,25872
24770,25790
24743,25700
24743,25700
24743,25700
24736,25630
24736,24632
24743,24562
24743,24562
24770,24473
24814,24390
24874,24318
24921,24279
24946,24258
25029,24214
25029,24214
25118,24187
25118,24187
25118,24187
25211,24178
25305,24187
" /> 
<polyline style="fill-rule:evenodd;"
points="33929,24185
33953,24192
33975,24204
33994,24220
34010,24239
34021,24261
34029,24285
34031,24314
34031,25388
34029,25418
34021,25442
34010,25464
33994,25483
33975,25499
33953,25510
33929,25518
33899,25521
32589,25521
32559,25518
32535,25510
32514,25499
32494,25483
32478,25464
32467,25442
32460,25418
32457,25388
32457,24314
32460,24285
32467,24261
32478,24239
32494,24220
32514,24204
32535,24192
32559,24185
32589,24182
33899,24182
33929,24185
" /> 
<polyline style="fill-rule:evenodd;"
points="29084,23478
29084,23478
29084,23478
29174,23505
29257,23550
29329,23609
29347,23631
29388,23681
29428,23755
29433,23764
29443,23799
29460,23854
29467,23924
29467,24921
29460,24991
29460,24991
29460,24991
29433,25081
29388,25164
29329,25236
29257,25295
29174,25340
29084,25367
29084,25367
29084,25367
28991,25376
28898,25367
28898,25367
28898,25367
28808,25340
28726,25295
28653,25236
28594,25164
28549,25081
28522,24991
28522,24991
28522,24991
28515,24921
28515,23924
28522,23854
28522,23854
28549,23764
28594,23681
28653,23609
28698,23572
28726,23550
28808,23505
28808,23505
28898,23478
28898,23478
28898,23478
28991,23469
29084,23478
" /> 
<polyline style="fill-rule:evenodd;"
points="68094,23480
68221,23518
68337,23580
68439,23664
68522,23766
68585,23882
68623,24008
68636,24140
68623,24271
68585,24397
68522,24513
68439,24615
68337,24699
68221,24761
68094,24799
67996,24809
67930,24809
67832,24799
67706,24761
67590,24699
67488,24615
67404,24513
67342,24397
67304,24271
67291,24140
67304,24008
67342,23882
67404,23766
67488,23664
67590,23580
67706,23518
67832,23480
67930,23470
67996,23470
68094,23480
" /> 
<polyline style="fill-rule:evenodd;"
points="66094,23480
66221,23518
66337,23580
66439,23664
66522,23766
66585,23882
66623,24008
66636,24140
66623,24271
66585,24397
66522,24513
66439,24615
66337,24699
66221,24761
66094,24799
65996,24809
65930,24809
65832,24799
65706,24761
65590,24699
65488,24615
65404,24513
65342,24397
65304,24271
65291,24140
65304,24008
65342,23882
65404,23766
65488,23664
65590,23580
65706,23518
65832,23480
65930,23470
65996,23470
66094,23480
" /> 
<polyline style="fill-rule:evenodd;"
points="64094,23480
64221,23518
64337,23580
64439,23664
64522,23766
64585,23882
64623,24008
64636,24140
64623,24271
64585,24397
64522,24513
64439,24615
64337,24699
64221,24761
64094,24799
63996,24809
63930,24809
63832,24799
63706,24761
63590,24699
63488,24615
63404,24513
63342,24397
63304,24271
63291,24140
63304,24008
63342,23882
63404,23766
63488,23664
63590,23580
63706,23518
63832,23480
63930,23470
63996,23470
64094,23480
" /> 
<polyline style="fill-rule:evenodd;"
points="87013,24009
85674,24009
85674,22670
87013,22670
87013,24009
" /> 
<polyline style="fill-rule:evenodd;"
points="84474,22680
84601,22718
84717,22780
84819,22864
84902,22966
84965,23082
85003,23208
85016,23340
85003,23471
84965,23597
84902,23713
84819,23815
84717,23899
84601,23961
84474,23999
84376,24009
84310,24009
84212,23999
84086,23961
83970,23899
83868,23815
83784,23713
83722,23597
83684,23471
83671,23340
83684,23208
83722,23082
83784,22966
83868,22864
83970,22780
84086,22718
84212,22680
84310,22670
84376,22670
84474,22680
" /> 
<polyline style="fill-rule:evenodd;"
points="82474,22680
82601,22718
82717,22780
82819,22864
82902,22966
82965,23082
83003,23208
83016,23340
83003,23471
82965,23597
82902,23713
82819,23815
82717,23899
82601,23961
82474,23999
82376,24009
82310,24009
82212,23999
82086,23961
81970,23899
81868,23815
81784,23713
81722,23597
81684,23471
81671,23340
81684,23208
81722,23082
81784,22966
81868,22864
81970,22780
82086,22718
82212,22680
82310,22670
82376,22670
82474,22680
" /> 
<polyline style="fill-rule:evenodd;"
points="80474,22680
80601,22718
80717,22780
80819,22864
80902,22966
80965,23082
81003,23208
81016,23340
81003,23471
80965,23597
80902,23713
80819,23815
80717,23899
80601,23961
80474,23999
80376,24009
80310,24009
80212,23999
80086,23961
79970,23899
79868,23815
79784,23713
79722,23597
79684,23471
79671,23340
79684,23208
79722,23082
79784,22966
79868,22864
79970,22780
80086,22718
80212,22680
80310,22670
80376,22670
80474,22680
" /> 
<polyline style="fill-rule:evenodd;"
points="78474,22680
78601,22718
78717,22780
78819,22864
78902,22966
78965,23082
79003,23208
79016,23340
79003,23471
78965,23597
78902,23713
78819,23815
78717,23899
78601,23961
78474,23999
78376,24009
78310,24009
78212,23999
78086,23961
77970,23899
77868,23815
77784,23713
77722,23597
77684,23471
77671,23340
77684,23208
77722,23082
77784,22966
77868,22864
77970,22780
78086,22718
78212,22680
78310,22670
78376,22670
78474,22680
" /> 
<polyline style="fill-rule:evenodd;"
points="76474,22680
76601,22718
76717,22780
76819,22864
76902,22966
76965,23082
77003,23208
77016,23340
77003,23471
76965,23597
76902,23713
76819,23815
76717,23899
76601,23961
76474,23999
76376,24009
76310,24009
76212,23999
76086,23961
75970,23899
75868,23815
75784,23713
75722,23597
75684,23471
75671,23340
75684,23208
75722,23082
75784,22966
75868,22864
75970,22780
76086,22718
76212,22680
76310,22670
76376,22670
76474,22680
" /> 
<polyline style="fill-rule:evenodd;"
points="24675,21982
24675,21982
24675,21982
24764,22009
24847,22053
24919,22113
24952,22153
24979,22185
25023,22268
25050,22358
25057,22427
25057,23425
25050,23495
25050,23495
25050,23495
25023,23585
24979,23668
24919,23740
24847,23799
24764,23844
24675,23871
24675,23871
24675,23871
24582,23880
24488,23871
24488,23871
24488,23871
24399,23844
24316,23799
24244,23740
24184,23668
24140,23585
24113,23495
24113,23495
24113,23495
24106,23425
24106,22427
24113,22358
24113,22358
24140,22268
24184,22185
24244,22113
24283,22080
24316,22053
24399,22009
24399,22009
24488,21982
24488,21982
24488,21982
24582,21973
24675,21982
" /> 
<polyline style="fill-rule:evenodd;"
points="27822,15637
28002,15711
28163,15819
28300,15956
28408,16117
28482,16296
28520,16487
28520,16681
28482,16871
28408,17050
28300,17211
28163,17348
28002,17456
27822,17530
27632,17568
27438,17568
27248,17530
27069,17456
26908,17348
26771,17211
26663,17050
26589,16871
26551,16681
26551,16487
26589,16296
26663,16117
26771,15956
26908,15819
27069,15711
27248,15637
27438,15599
27632,15599
27822,15637
" /> 
<polyline style="fill-rule:evenodd;"
points="82941,15637
83120,15711
83281,15819
83418,15956
83526,16117
83600,16296
83638,16487
83638,16681
83600,16871
83526,17050
83418,17211
83281,17348
83120,17456
82941,17530
82750,17568
82557,17568
82366,17530
82187,17456
82026,17348
81889,17211
81781,17050
81707,16871
81669,16681
81669,16487
81707,16296
81781,16117
81889,15956
82026,15819
82187,15711
82366,15637
82557,15599
82750,15599
82941,15637
" /> 
</g> 
</svg>
