<?xml version="1.0" standalone="no"?>
 <!DOCTYPE svg PUBLIC "-//W3C//DTD SVG 1.1//EN" 
 "http://www.w3.org/Graphics/SVG/1.1/DTD/svg11.dtd"> 
<svg xmlns="http://www.w3.org/2000/svg" version="1.1" 
    width="29.7002cm" height="21.0007cm" viewBox="0 0 116930 82680 ">
<title>SVG Picture created as ThermocoupleLogger-B_CrtYd.svg date 2019/03/14 16:48:18 </title>
  <desc>Picture generated by PCBNEW </desc>
<g style="fill:#000000; fill-opacity:1;stroke:#000000; stroke-opacity:1;
stroke-linecap:round; stroke-linejoin:round; "
 transform="translate(0 0) scale(1 1)">
</g>
<g style="fill:#000000; fill-opacity:0.0; 
stroke:#000000; stroke-width:-0.000787402; stroke-opacity:1; 
stroke-linecap:round; stroke-linejoin:round;">
</g>
<g style="fill:#000000; fill-opacity:0.0; 
stroke:#000000; stroke-width:157.48; stroke-opacity:1; 
stroke-linecap:round; stroke-linejoin:round;">
<path d="M96543 62899
L96543 67324
" />
<path d="M17743 67332
L96539 67332
" />
<path d="M30465 21607
L17748 21607
" />
<path d="M17743 62940
L17743 67340
" />
<path d="M83703 62900
L65463 62900
" />
<path d="M87433 62900
L96543 62900
" />
<path d="M87393 60900
L96483 60900
" />
<path d="M65463 60900
L83703 60900
" />
<path d="M61827 62909
L24467 62909
" />
<path d="M24473 60910
L61833 60910
" />
<path d="M20843 60920
L17743 60920
" />
<path d="M20813 62920
L17740 62938
" />
<path d="M20813.7 62920 A1000.2 1000.2 0.0 0 0 20836.3 60920.7 " />
<path d="M24483.7 60910 A1000 1000 0.0 0 0 24467.1 62909.9 " />
<path d="M61813.7 62910 A1000 1000 0.0 0 0 61835 60910.2 " />
<path d="M65463.7 60900 A1000.2 1000.2 0.0 1 0 65465.5 62900 " />
<path d="M83693.7 62900 A1000.2 1000.2 0.0 1 0 83713.7 60899.8 " />
<path d="M87384.5 60900 A1000.2 1000.2 0.0 0 0 87423.7 62900 " />
<path d="M91343.7 19540 A1000.8 1000.8 0.0 0 0 91383.7 21540.8 " />
<path d="M55123.7 21580 A1000.8 1000.8 0.0 1 0 55123.7 19580 " />
<path d="M17703 19560
L17703 19560
" />
<path d="M30463 19560
L17703 19560
" />
<path d="M34123 21580
L55123 21580
" />
<path d="M55103 19580
L34143 19580
" />
<path d="M30463.7 21600 A1020 1020 0.0 0 0 30463.7 19560 " />
<path d="M34143.7 19580 A1000.2 1000.2 0.0 1 0 34123.7 21580.2 " />
<path d="M87723 21570
L58893 21570
" />
<path d="M58743 19590
L87753 19590
" />
<path d="M58823.7 19580 A990.202 990.202 0.0 0 0 58863.7 21560 " />
<path d="M91394 21544
L96480 21552
" />
<path d="M96443 19540
L91343 19540
" />
<path d="M96443 14340
L96443 19540
" />
<path d="M87723.7 21580 A996 996 0.0 0 0 87731.8 19588 " />
<path d="M17703 14320
L96433 14324
" />
<path d="M17703 19560
L17703 14320
" />
<path d="M17743 60920
L17743 21610
" />
<path d="M96483 60900
L96483 21569
" />
</g>
<g style="fill:#000000; fill-opacity:0.0; 
stroke:#000000; stroke-width:39.3701; stroke-opacity:1; 
stroke-linecap:round; stroke-linejoin:round;">
<circle cx="20543.7" cy="57340" r="2322.83" /> 
<circle cx="93543.7" cy="57340" r="2322.83" /> 
<path d="M58542.2 24758.9 A629.921 629.921 0.0 0 0 57912.2 24129 " />
<path d="M53086.3 27058 A393.701 393.701 0.0 0 0 53345.3 26688 " />
<path d="M58542 24758
L58542 26688
" />
<path d="M53345 26688
L53345 24758
" />
<path d="M53109.1 27050.2 A11222.2 11222.2 0.0 0 0 55969.4 49130.6 " />
<path d="M55918.1 49130.6 A11222.2 11222.2 0.0 0 0 58778.4 27050.2 " />
<path d="M58542.2 26688 A393.701 393.701 0.0 0 0 58801.2 27058 " />
<path d="M53975 24128
L57912 24128
" />
<path d="M53975.2 24129 A629.921 629.921 0.0 0 0 53345.3 24758.9 " />
<path d="M68219 31855
L70168 33804
" />
<path d="M68219 31855
L69193 30881
" />
<path d="M71142 32829
L70168 33804
" />
<path d="M71142 32829
L69193 30881
" />
<path d="M73082 34789
L71133 32841
" />
<path d="M73082 34789
L72108 35764
" />
<path d="M70159 33815
L71133 32841
" />
<path d="M70159 33815
L72108 35764
" />
</g> 
</svg>
