<?xml version="1.0" standalone="no"?>
 <!DOCTYPE svg PUBLIC "-//W3C//DTD SVG 1.1//EN" 
 "http://www.w3.org/Graphics/SVG/1.1/DTD/svg11.dtd"> 
<svg xmlns="http://www.w3.org/2000/svg" version="1.1" 
    width="29.7002cm" height="21.0007cm" viewBox="0 0 116930 82680 ">
<title>SVG Picture created as ThermocoupleLogger-B_Fab.svg date 2019/03/14 18:04:39 </title>
  <desc>Picture generated by PCBNEW </desc>
<g style="fill:#000000; fill-opacity:1;stroke:#000000; stroke-opacity:1;
stroke-linecap:round; stroke-linejoin:round; "
 transform="translate(0 0) scale(1 1)">
</g>
<g style="fill:#000000; fill-opacity:0.0; 
stroke:#000000; stroke-width:-0.000787402; stroke-opacity:1; 
stroke-linecap:round; stroke-linejoin:round;">
</g>
<g style="fill:#000000; fill-opacity:0.0; 
stroke:#000000; stroke-width:157.48; stroke-opacity:1; 
stroke-linecap:round; stroke-linejoin:round;">
<path d="M20386 62899
L20386 67324
" />
<path d="M99186 67332
L20390 67332
" />
<path d="M86465 21607
L99181 21607
" />
<path d="M99186 62940
L99186 67340
" />
<path d="M33226 62900
L51466 62900
" />
<path d="M29496 62900
L20386 62900
" />
<path d="M29536 60900
L20446 60900
" />
<path d="M51466 60900
L33226 60900
" />
<path d="M55102 62909
L92462 62909
" />
<path d="M92456 60910
L55096 60910
" />
<path d="M96086 60920
L99186 60920
" />
<path d="M96116 62920
L99189 62938
" />
<path d="M96093.7 60920.7 A1000.2 1000.2 0.0 0 0 96116.3 62920 " />
<path d="M92462.9 62909.9 A1000 1000 0.0 0 0 92446.3 60910 " />
<path d="M55095 60910.2 A1000 1000 0.0 0 0 55116.3 62910 " />
<path d="M51464.5 62900 A1000.2 1000.2 0.0 1 0 51466.3 60900 " />
<path d="M33216.3 60899.8 A1000.2 1000.2 0.0 1 0 33236.3 62900 " />
<path d="M29506.3 62900 A1000.2 1000.2 0.0 0 0 29545.5 60900 " />
<path d="M25546.3 21540.8 A1000.8 1000.8 0.0 0 0 25586.3 19540 " />
<path d="M61806.3 19580 A1000.8 1000.8 0.0 1 0 61806.3 21580 " />
<path d="M99226 19560
L99226 19560
" />
<path d="M86466 19560
L99226 19560
" />
<path d="M82806 21580
L61806 21580
" />
<path d="M61826 19580
L82786 19580
" />
<path d="M86466.3 19560 A1020 1020 0.0 0 0 86466.3 21600 " />
<path d="M82806.3 21580.2 A1000.2 1000.2 0.0 1 0 82786.3 19580 " />
<path d="M29206 21570
L58036 21570
" />
<path d="M58186 19590
L29176 19590
" />
<path d="M58066.3 21560 A990.202 990.202 0.0 1 0 58106.3 19580 " />
<path d="M25535 21544
L20449 21552
" />
<path d="M20486 19540
L25586 19540
" />
<path d="M20486 14340
L20486 19540
" />
<path d="M29198.2 19588 A996 996 0.0 0 0 29206.3 21580 " />
<path d="M99226 14320
L20496 14324
" />
<path d="M99226 19560
L99226 14320
" />
<path d="M99186 60920
L99186 21610
" />
<path d="M20446 60900
L20446 21569
" />
</g>
<g style="fill:#000000; fill-opacity:0.0; 
stroke:#000000; stroke-width:78.7402; stroke-opacity:1; 
stroke-linecap:round; stroke-linejoin:round;">
<path d="M63269.7 24601.4 A314.961 314.961 0.0 0 0 62954.8 24286.5 " />
<path d="M59017.8 24286.5 A314.961 314.961 0.0 0 0 58702.8 24601.4 " />
<path d="M62009 25940
L59962 25940
" />
<path d="M59962.6 38695.9 A1023.62 1023.62 0.0 0 0 62009.9 38695.9 " />
<path d="M63269.7 28695.9 A708.661 708.661 0.0 0 0 63736 29361.8 " />
<path d="M62009 38695
L62009 25940
" />
<path d="M59962 25940
L59962 38695
" />
<path d="M62954 24286
L59017 24286
" />
<path d="M58702 24601
L58702 28720
" />
<path d="M63269 28720
L63269 24601
" />
<path d="M59962.6 45782.5 A7940.27 7940.27 0.0 0 0 62009.9 30034.5 " />
<path d="M60825.9 42894 A4988.05 4988.05 0.0 0 0 62009.9 33026.6 " />
<path d="M60847.8 39715.9 A1812.73 1812.73 0.0 0 0 62009.9 36412.4 " />
<path d="M67066 44500
L66386 43760
" />
<path d="M54906 44500
L55566 43780
" />
<path d="M59962.6 36412.4 A1812.73 1812.73 0.0 0 0 61124.7 39715.9 " />
<path d="M59962.6 33026.6 A4988.05 4988.05 0.0 0 0 61146.6 42894 " />
<path d="M59962.6 30034.5 A7940.27 7940.27 0.0 0 0 62009.9 45782.5 " />
<path d="M60926.9 46885.1 A8976.81 8976.81 0.0 0 0 63742.2 29365.2 " />
<path d="M58230.4 29365.2 A8976.81 8976.81 0.0 0 0 61045.6 46885.1 " />
<path d="M58236.5 29361.8 A708.661 708.661 0.0 0 0 58702.8 28695.9 " />
<path d="M44415 34522
L45528 33409
" />
<path d="M45083 35190
L44415 34522
" />
<path d="M46197 34077
L45083 35190
" />
<path d="M45528 33409
L46197 34077
" />
<path d="M46355 32562
L47468 31449
" />
<path d="M47023 33230
L46355 32562
" />
<path d="M48137 32117
L47023 33230
" />
<path d="M47468 31449
L48137 32117
" />
</g>
<g style="fill:#000000; fill-opacity:0.0; 
stroke:#000000; stroke-width:118.11; stroke-opacity:1; 
stroke-linecap:round; stroke-linejoin:round;">
<path d="M51181 34038
L51181 34526
L50881 34263
L50881 34376
L50843 34451
L50806 34488
L50731 34526
L50543 34526
L50468 34488
L50431 34451
L50393 34376
L50393 34151
L50431 34076
L50468 34038
" />
<path d="M51181 34751
L50393 35013
L51181 35276
" />
<path d="M50131 36363
L50131 36176
L51256 36176
L51256 36363
" />
<path d="M50468 37113
L50431 37076
L50393 36963
L50393 36888
L50431 36776
L50506 36701
L50581 36663
L50731 36626
L50843 36626
L50993 36663
L51068 36701
L51143 36776
L51181 36888
L51181 36963
L51143 37076
L51106 37113
" />
<path d="M50393 37901
L50768 37638
" />
<path d="M50393 37451
L51181 37451
L51181 37751
L51143 37826
L51106 37863
L51031 37901
L50918 37901
L50843 37863
L50806 37826
L50768 37751
L50768 37451
" />
<path d="M51106 38200
L51143 38238
L51181 38313
L51181 38500
L51143 38575
L51106 38613
L51031 38650
L50956 38650
L50843 38613
L50393 38163
L50393 38650
" />
<path d="M51181 39138
L51181 39213
L51143 39288
L51106 39325
L51031 39363
L50881 39400
L50693 39400
L50543 39363
L50468 39325
L50431 39288
L50393 39213
L50393 39138
L50431 39063
L50468 39025
L50543 38988
L50693 38950
L50881 38950
L51031 38988
L51106 39025
L51143 39063
L51181 39138
" />
<path d="M51181 39663
L51181 40150
L50881 39888
L50881 40000
L50843 40075
L50806 40113
L50731 40150
L50543 40150
L50468 40113
L50431 40075
L50393 40000
L50393 39775
L50431 39700
L50468 39663
" />
<path d="M51106 40450
L51143 40488
L51181 40563
L51181 40750
L51143 40825
L51106 40863
L51031 40900
L50956 40900
L50843 40863
L50393 40413
L50393 40900
" />
<path d="M50131 41163
L50131 41350
L51256 41350
L51256 41163
" />
<path d="M61042 25321
L61005 25433
L60967 25471
L60892 25508
L60780 25508
L60705 25471
L60667 25433
L60630 25358
L60630 25058
L61417 25058
L61417 25321
L61379 25396
L61342 25433
L61267 25471
L61192 25471
L61117 25433
L61079 25396
L61042 25321
L61042 25058
" />
<path d="M61417 25733
L61417 26183
" />
<path d="M60630 25958
L61417 25958
" />
<path d="M61342 26408
L61379 26446
L61417 26521
L61417 26708
L61379 26783
L61342 26821
L61267 26858
L61192 26858
L61079 26821
L60630 26371
L60630 26858
" />
<path d="M43777 34494
L43459 34813
" />
<path d="M43618 34653
L43061 34097
L43088 34229
L43088 34335
L43061 34415
" />
<path d="M43565 33593
L43618 33540
L43698 33513
L43751 33513
L43830 33540
L43963 33619
L44095 33752
L44175 33885
L44201 33964
L44201 34017
L44175 34097
L44122 34150
L44042 34176
L43989 34176
L43910 34150
L43777 34070
L43645 33938
L43565 33805
L43539 33725
L43539 33672
L43565 33593
" />
<path d="M44095 33063
L44148 33010
L44228 32983
L44281 32983
L44361 33010
L44493 33089
L44626 33222
L44705 33354
L44732 33434
L44732 33487
L44705 33566
L44652 33619
L44573 33646
L44520 33646
L44440 33619
L44308 33540
L44175 33407
L44095 33275
L44069 33195
L44069 33142
L44095 33063
" />
<path d="M44705 32824
L45076 33195
" />
<path d="M44758 32877
L44758 32824
L44785 32745
L44864 32665
L44944 32638
L45023 32665
L45315 32957
" />
<path d="M45474 32214
L45289 32400
" />
<path d="M45580 32691
L45023 32135
L45289 31870
" />
</g>
<g style="fill:#000000; fill-opacity:0.0; 
stroke:#000000; stroke-width:62.9921; stroke-opacity:1; 
stroke-linecap:round; stroke-linejoin:round;">
<path d="M45226 34578
L45226 34604
L45200 34657
L45173 34684
L45120 34710
L45067 34710
L45027 34697
L44961 34657
L44921 34618
L44882 34551
L44868 34512
L44868 34459
L44895 34406
L44921 34379
L44974 34353
L45001 34353
" />
<path d="M45107 34246
L45107 34220
L45120 34180
L45186 34114
L45226 34101
L45253 34101
L45293 34114
L45319 34140
L45346 34193
L45346 34512
L45518 34339
" />
<path d="M45372 33981
L45372 33955
L45385 33915
L45452 33849
L45491 33836
L45518 33836
L45558 33849
L45584 33875
L45611 33928
L45611 34246
L45783 34074
" />
</g>
<g style="fill:#000000; fill-opacity:0.0; 
stroke:#000000; stroke-width:118.11; stroke-opacity:1; 
stroke-linecap:round; stroke-linejoin:round;">
<path d="M45717 32534
L45399 32853
" />
<path d="M45558 32693
L45001 32137
L45028 32269
L45028 32375
L45001 32455
" />
<path d="M45505 31633
L45558 31580
L45638 31553
L45691 31553
L45770 31580
L45903 31659
L46035 31792
L46115 31925
L46141 32004
L46141 32057
L46115 32137
L46062 32190
L45982 32216
L45929 32216
L45850 32190
L45717 32110
L45585 31978
L45505 31845
L45479 31765
L45479 31712
L45505 31633
" />
<path d="M46035 31103
L46088 31050
L46168 31023
L46221 31023
L46301 31050
L46433 31129
L46566 31262
L46645 31394
L46672 31474
L46672 31527
L46645 31606
L46592 31659
L46513 31686
L46460 31686
L46380 31659
L46248 31580
L46115 31447
L46035 31315
L46009 31235
L46009 31182
L46035 31103
" />
<path d="M46645 30864
L47016 31235
" />
<path d="M46698 30917
L46698 30864
L46725 30785
L46804 30705
L46884 30678
L46963 30705
L47255 30997
" />
<path d="M47414 30254
L47229 30440
" />
<path d="M47520 30731
L46963 30175
L47229 29910
" />
</g>
<g style="fill:#000000; fill-opacity:0.0; 
stroke:#000000; stroke-width:62.9921; stroke-opacity:1; 
stroke-linecap:round; stroke-linejoin:round;">
<path d="M47166 32618
L47166 32644
L47140 32697
L47113 32724
L47060 32750
L47007 32750
L46967 32737
L46901 32697
L46861 32658
L46822 32591
L46808 32552
L46808 32499
L46835 32446
L46861 32419
L46914 32393
L46941 32393
" />
<path d="M47047 32286
L47047 32260
L47060 32220
L47126 32154
L47166 32141
L47193 32141
L47233 32154
L47259 32180
L47286 32233
L47286 32552
L47458 32379
" />
<path d="M47723 32114
L47564 32273
" />
<path d="M47643 32194
L47365 31915
L47378 31982
L47378 32035
L47365 32074
" />
</g>
<g style="fill:#000000; fill-opacity:0.0; 
stroke:#000000; stroke-width:118.11; stroke-opacity:1; 
stroke-linecap:round; stroke-linejoin:round;">
<path d="M92318 54782
L92318 53995
L92580 54557
L92842 53995
L92842 54782
" />
<path d="M93330 54782
L93255 54745
L93217 54707
L93180 54632
L93180 54407
L93217 54332
L93255 54295
L93330 54257
L93442 54257
L93517 54295
L93555 54332
L93592 54407
L93592 54632
L93555 54707
L93517 54745
L93442 54782
L93330 54782
" />
<path d="M94267 54257
L94267 54782
" />
<path d="M93930 54257
L93930 54670
L93967 54745
L94042 54782
L94155 54782
L94230 54745
L94267 54707
" />
<path d="M94642 54257
L94642 54782
" />
<path d="M94642 54332
L94680 54295
L94755 54257
L94867 54257
L94942 54295
L94980 54370
L94980 54782
" />
<path d="M95242 54257
L95542 54257
" />
<path d="M95355 53995
L95355 54670
L95392 54745
L95467 54782
L95542 54782
" />
<path d="M95805 54782
L95805 54257
" />
<path d="M95805 53995
L95767 54032
L95805 54070
L95842 54032
L95805 53995
L95805 54070
" />
<path d="M96180 54257
L96180 54782
" />
<path d="M96180 54332
L96217 54295
L96292 54257
L96405 54257
L96479 54295
L96517 54370
L96517 54782
" />
<path d="M97229 54257
L97229 54895
L97192 54970
L97154 55007
L97079 55045
L96967 55045
L96892 55007
" />
<path d="M97229 54745
L97154 54782
L97004 54782
L96929 54745
L96892 54707
L96854 54632
L96854 54407
L96892 54332
L96929 54295
L97004 54257
L97154 54257
L97229 54295
" />
<path d="M97417 54857
L98017 54857
" />
<path d="M98204 54782
L98204 53995
" />
<path d="M98204 54370
L98654 54370
" />
<path d="M98654 54782
L98654 53995
" />
<path d="M99142 54782
L99067 54745
L99029 54707
L98992 54632
L98992 54407
L99029 54332
L99067 54295
L99142 54257
L99254 54257
L99329 54295
L99367 54332
L99404 54407
L99404 54632
L99367 54707
L99329 54745
L99254 54782
L99142 54782
" />
<path d="M99854 54782
L99779 54745
L99742 54670
L99742 53995
" />
<path d="M100454 54745
L100379 54782
L100229 54782
L100154 54745
L100117 54670
L100117 54370
L100154 54295
L100229 54257
L100379 54257
L100454 54295
L100491 54370
L100491 54445
L100117 54520
" />
<path d="M95118 57696
L95118 56908
L95381 57471
L95643 56908
L95643 57696
" />
<path d="M96018 57696
L96018 56908
" />
<path d="M96468 57696
L96131 57246
" />
<path d="M96468 56908
L96018 57358
" />
<path d="M96731 56908
L97218 56908
L96956 57208
L97068 57208
L97143 57246
L97181 57283
L97218 57358
L97218 57546
L97181 57621
L97143 57658
L97068 57696
L96843 57696
L96768 57658
L96731 57621
" />
<path d="M19318 54782
L19318 53995
L19580 54557
L19842 53995
L19842 54782
" />
<path d="M20330 54782
L20255 54745
L20217 54707
L20180 54632
L20180 54407
L20217 54332
L20255 54295
L20330 54257
L20442 54257
L20517 54295
L20555 54332
L20592 54407
L20592 54632
L20555 54707
L20517 54745
L20442 54782
L20330 54782
" />
<path d="M21267 54257
L21267 54782
" />
<path d="M20930 54257
L20930 54670
L20967 54745
L21042 54782
L21155 54782
L21230 54745
L21267 54707
" />
<path d="M21642 54257
L21642 54782
" />
<path d="M21642 54332
L21680 54295
L21755 54257
L21867 54257
L21942 54295
L21980 54370
L21980 54782
" />
<path d="M22242 54257
L22542 54257
" />
<path d="M22355 53995
L22355 54670
L22392 54745
L22467 54782
L22542 54782
" />
<path d="M22805 54782
L22805 54257
" />
<path d="M22805 53995
L22767 54032
L22805 54070
L22842 54032
L22805 53995
L22805 54070
" />
<path d="M23180 54257
L23180 54782
" />
<path d="M23180 54332
L23217 54295
L23292 54257
L23405 54257
L23479 54295
L23517 54370
L23517 54782
" />
<path d="M24229 54257
L24229 54895
L24192 54970
L24154 55007
L24079 55045
L23967 55045
L23892 55007
" />
<path d="M24229 54745
L24154 54782
L24004 54782
L23929 54745
L23892 54707
L23854 54632
L23854 54407
L23892 54332
L23929 54295
L24004 54257
L24154 54257
L24229 54295
" />
<path d="M24417 54857
L25017 54857
" />
<path d="M25204 54782
L25204 53995
" />
<path d="M25204 54370
L25654 54370
" />
<path d="M25654 54782
L25654 53995
" />
<path d="M26142 54782
L26067 54745
L26029 54707
L25992 54632
L25992 54407
L26029 54332
L26067 54295
L26142 54257
L26254 54257
L26329 54295
L26367 54332
L26404 54407
L26404 54632
L26367 54707
L26329 54745
L26254 54782
L26142 54782
" />
<path d="M26854 54782
L26779 54745
L26742 54670
L26742 53995
" />
<path d="M27454 54745
L27379 54782
L27229 54782
L27154 54745
L27117 54670
L27117 54370
L27154 54295
L27229 54257
L27379 54257
L27454 54295
L27491 54370
L27491 54445
L27117 54520
" />
<path d="M22118 57696
L22118 56908
L22381 57471
L22643 56908
L22643 57696
" />
<path d="M23018 57696
L23018 56908
" />
<path d="M23468 57696
L23131 57246
" />
<path d="M23468 56908
L23018 57358
" />
<path d="M24143 57171
L24143 57696
" />
<path d="M23956 56871
L23768 57433
L24256 57433
" />
</g> 
</svg>
