<?xml version="1.0" standalone="no"?>
 <!DOCTYPE svg PUBLIC "-//W3C//DTD SVG 1.1//EN" 
 "http://www.w3.org/Graphics/SVG/1.1/DTD/svg11.dtd"> 
<svg xmlns="http://www.w3.org/2000/svg" version="1.1" 
    width="29.7002cm" height="21.0007cm" viewBox="0 0 116930 82680 ">
<title>SVG Picture created as ThermocoupleLogger-F_Mask.svg date 2019/03/14 18:04:39 </title>
  <desc>Picture generated by PCBNEW </desc>
<g style="fill:#000000; fill-opacity:1;stroke:#000000; stroke-opacity:1;
stroke-linecap:round; stroke-linejoin:round; "
 transform="translate(0 0) scale(1 1)">
</g>
<g style="fill:#000000; fill-opacity:0.0; 
stroke:#000000; stroke-width:-0.000787402; stroke-opacity:1; 
stroke-linecap:round; stroke-linejoin:round;">
</g>
<g style="fill:#000000; fill-opacity:0.0; 
stroke:#000000; stroke-width:157.48; stroke-opacity:1; 
stroke-linecap:round; stroke-linejoin:round;">
<path d="M96543 62899
L96543 67324
" />
<path d="M17743 67332
L96539 67332
" />
<path d="M30465 21607
L17748 21607
" />
<path d="M17743 62940
L17743 67340
" />
<path d="M83703 62900
L65463 62900
" />
<path d="M87433 62900
L96543 62900
" />
<path d="M87393 60900
L96483 60900
" />
<path d="M65463 60900
L83703 60900
" />
<path d="M61827 62909
L24467 62909
" />
<path d="M24473 60910
L61833 60910
" />
<path d="M20843 60920
L17743 60920
" />
<path d="M20813 62920
L17740 62938
" />
<path d="M20813.7 62920 A1000.2 1000.2 0.0 0 0 20836.3 60920.7 " />
<path d="M24483.7 60910 A1000 1000 0.0 0 0 24467.1 62909.9 " />
<path d="M61813.7 62910 A1000 1000 0.0 0 0 61835 60910.2 " />
<path d="M65463.7 60900 A1000.2 1000.2 0.0 1 0 65465.5 62900 " />
<path d="M83693.7 62900 A1000.2 1000.2 0.0 1 0 83713.7 60899.8 " />
<path d="M87384.5 60900 A1000.2 1000.2 0.0 0 0 87423.7 62900 " />
<path d="M91343.7 19540 A1000.8 1000.8 0.0 0 0 91383.7 21540.8 " />
<path d="M55123.7 21580 A1000.8 1000.8 0.0 1 0 55123.7 19580 " />
<path d="M17703 19560
L17703 19560
" />
<path d="M30463 19560
L17703 19560
" />
<path d="M34123 21580
L55123 21580
" />
<path d="M55103 19580
L34143 19580
" />
<path d="M30463.7 21600 A1020 1020 0.0 0 0 30463.7 19560 " />
<path d="M34143.7 19580 A1000.2 1000.2 0.0 1 0 34123.7 21580.2 " />
<path d="M87723 21570
L58893 21570
" />
<path d="M58743 19590
L87753 19590
" />
<path d="M58823.7 19580 A990.202 990.202 0.0 0 0 58863.7 21560 " />
<path d="M91394 21544
L96480 21552
" />
<path d="M96443 19540
L91343 19540
" />
<path d="M96443 14340
L96443 19540
" />
<path d="M87723.7 21580 A996 996 0.0 0 0 87731.8 19588 " />
<path d="M17703 14320
L96433 14324
" />
<path d="M17703 19560
L17703 14320
" />
<path d="M17743 60920
L17743 21610
" />
<path d="M96483 60900
L96483 21569
" />
</g>
<g style="fill:#000000; fill-opacity:1.0; 
stroke:#000000; stroke-width:7.87402; stroke-opacity:1; 
stroke-linecap:round; stroke-linejoin:round;">
<polyline style="fill-rule:evenodd;"
points="23534,39949
23626,40001
23700,40082
23734,40150
23759,40259
23751,40368
23714,40463
23704,40478
23633,40547
23540,40594
23435,40618
23330,40615
23238,40584
23221,40574
23156,40512
23103,40427
23070,40334
23063,40279
23078,40193
23118,40103
23174,40025
23218,39987
23322,39939
23430,39928
23534,39949
" /> 
<polyline style="fill-rule:evenodd;"
points="23723,42206
23723,42419
23724,42597
23725,42741
23727,42855
23729,42944
23733,43010
23737,43056
23743,43087
23750,43106
23753,43111
23773,43140
23782,43162
23774,43178
23745,43189
23692,43195
23609,43198
23493,43199
23403,43200
23285,43199
23182,43197
23099,43195
23045,43192
23023,43189
23023,43189
23032,43166
23052,43121
23063,43100
23073,43078
23082,43054
23088,43024
23093,42983
23097,42928
23100,42854
23102,42757
23103,42634
23103,42479
23103,42290
23103,42239
23103,42037
23102,41870
23101,41736
23099,41630
23096,41549
23092,41490
23087,41447
23080,41417
23073,41399
23042,41340
23723,41340
23723,42206
" /> 
<polyline style="fill-rule:evenodd;"
points="22477,40660
22906,40660
22750,40818
22490,41104
22321,41320
22260,41401
22185,41496
22106,41593
22031,41683
21969,41755
21949,41777
21885,41846
21940,41918
22047,42067
22116,42177
22159,42241
22207,42304
22211,42308
22265,42374
22329,42455
22394,42541
22455,42625
22504,42695
22532,42740
22559,42782
22605,42843
22662,42915
22721,42987
22775,43049
22803,43080
22822,43100
22855,43137
22862,43145
22910,43200
22023,43200
22023,43138
22010,43078
21973,42995
21915,42896
21841,42787
21772,42697
21716,42624
21664,42552
21627,42495
21623,42487
21591,42434
21563,42396
21556,42390
21529,42359
21498,42315
21468,42277
21444,42260
21443,42260
21436,42279
21430,42335
21426,42425
21424,42544
21423,42650
21424,42792
21426,42899
21429,42978
21435,43034
21444,43074
21455,43104
21456,43105
21484,43152
21509,43183
21511,43184
21499,43189
21452,43192
21376,43196
21277,43198
21159,43199
21119,43199
20704,43200
20727,43145
20750,43098
20767,43071
20770,43047
20773,42988
20775,42896
20778,42775
20780,42629
20781,42461
20782,42275
20783,42075
20783,41940
20783,41700
20783,41498
20782,41328
20782,41189
20780,41077
20778,40987
20776,40918
20772,40866
20767,40827
20762,40798
20755,40776
20747,40757
20743,40749
20719,40701
20705,40670
20703,40665
20722,40664
20775,40662
20856,40661
20960,40660
21079,40660
21105,40660
21242,40660
21343,40661
21414,40663
21460,40666
21485,40672
21495,40680
21494,40691
21493,40695
21467,40764
21448,40834
21435,40912
21427,41007
21424,41126
21423,41236
21423,41567
21483,41510
21521,41470
21542,41441
21543,41435
21555,41415
21586,41373
21630,41318
21678,41258
21725,41203
21762,41160
21784,41140
21801,41118
21831,41074
21853,41040
21899,40970
21949,40902
21966,40880
22002,40827
22022,40779
22023,40767
22024,40732
22028,40706
22041,40687
22069,40674
22114,40666
22183,40662
22281,40660
22411,40659
22477,40660
" /> 
</g>
<g style="fill:#000000; fill-opacity:1.0; 
stroke:#000000; stroke-width:0; stroke-opacity:1; 
stroke-linecap:round; stroke-linejoin:round;">
<polyline style="fill-rule:evenodd;"
points="90815,62881
90994,62955
91155,63063
91292,63200
91400,63361
91474,63541
91512,63731
91512,63925
91474,64115
91400,64294
91292,64455
91155,64592
90994,64700
90815,64774
90624,64812
90431,64812
90240,64774
90061,64700
89900,64592
89763,64455
89655,64294
89581,64115
89543,63925
89543,63731
89581,63541
89655,63361
89763,63200
89900,63063
90061,62955
90240,62881
90431,62843
90624,62843
90815,62881
" /> 
<polyline style="fill-rule:evenodd;"
points="27822,62881
28002,62955
28163,63063
28300,63200
28408,63361
28482,63541
28520,63731
28520,63925
28482,64115
28408,64294
28300,64455
28163,64592
28002,64700
27822,64774
27632,64812
27438,64812
27248,64774
27069,64700
26908,64592
26771,64455
26663,64294
26589,64115
26551,63925
26551,63731
26589,63541
26663,63361
26771,63200
26908,63063
27069,62955
27248,62881
27438,62843
27632,62843
27822,62881
" /> 
<polyline style="fill-rule:evenodd;"
points="94163,55295
94518,55442
94550,55455
94837,55647
94898,55688
95195,55984
95427,56332
95588,56719
95669,57130
95669,57549
95588,57960
95427,58347
95195,58695
94898,58991
94898,58991
94550,59224
94550,59224
94550,59224
94163,59384
93753,59465
93334,59465
92923,59384
92536,59224
92536,59224
92536,59224
92188,58991
92188,58991
91892,58695
91659,58347
91499,57960
91417,57549
91417,57130
91499,56719
91659,56332
91892,55984
92188,55688
92250,55647
92536,55455
92568,55442
92923,55295
93334,55214
93753,55214
94163,55295
" /> 
<polyline style="fill-rule:evenodd;"
points="21163,55295
21518,55442
21550,55455
21837,55647
21898,55688
22195,55984
22427,56332
22588,56719
22669,57130
22669,57549
22588,57960
22427,58347
22195,58695
21898,58991
21898,58991
21550,59224
21550,59224
21550,59224
21163,59384
20753,59465
20334,59465
19923,59384
19536,59224
19536,59224
19536,59224
19188,58991
19188,58991
18892,58695
18659,58347
18499,57960
18417,57549
18417,57130
18499,56719
18659,56332
18892,55984
19188,55688
19250,55647
19536,55455
19568,55442
19923,55295
20334,55214
20753,55214
21163,55295
" /> 
<polyline style="fill-rule:evenodd;"
points="61019,56288
60468,56288
60468,54773
61019,54773
61019,56288
" /> 
<polyline style="fill-rule:evenodd;"
points="60019,56288
59468,56288
59468,54773
60019,54773
60019,56288
" /> 
<polyline style="fill-rule:evenodd;"
points="59019,56288
58468,56288
58468,54773
59019,54773
59019,56288
" /> 
<polyline style="fill-rule:evenodd;"
points="58019,56288
57468,56288
57468,54773
58019,54773
58019,56288
" /> 
<polyline style="fill-rule:evenodd;"
points="57019,56288
56468,56288
56468,54773
57019,54773
57019,56288
" /> 
<polyline style="fill-rule:evenodd;"
points="56019,56288
55468,56288
55468,54773
56019,54773
56019,56288
" /> 
<polyline style="fill-rule:evenodd;"
points="55019,56288
54468,56288
54468,54773
55019,54773
55019,56288
" /> 
<polyline style="fill-rule:evenodd;"
points="50339,54897
50366,54905
50391,54918
50412,54936
50430,54958
50443,54982
50451,55009
50454,55041
50454,55514
50451,55547
50443,55573
50430,55598
50412,55619
50391,55637
50366,55650
50339,55658
50307,55662
49500,55662
49467,55658
49440,55650
49416,55637
49394,55619
49377,55598
49363,55573
49355,55547
49352,55514
49352,55041
49355,55009
49363,54982
49377,54958
49394,54936
49416,54918
49440,54905
49467,54897
49500,54894
50307,54894
50339,54897
" /> 
<polyline style="fill-rule:evenodd;"
points="42739,54897
42766,54905
42791,54918
42812,54936
42830,54958
42843,54982
42851,55009
42854,55041
42854,55514
42851,55547
42843,55573
42830,55598
42812,55619
42791,55637
42766,55650
42739,55658
42707,55662
41900,55662
41867,55658
41840,55650
41816,55637
41794,55619
41777,55598
41763,55573
41755,55547
41752,55514
41752,55041
41755,55009
41763,54982
41777,54958
41794,54936
41816,54918
41840,54905
41867,54897
41900,54894
42707,54894
42739,54897
" /> 
<polyline style="fill-rule:evenodd;"
points="35539,54897
35566,54905
35591,54918
35612,54936
35630,54958
35643,54982
35651,55009
35654,55041
35654,55514
35651,55547
35643,55573
35630,55598
35612,55619
35591,55637
35566,55650
35539,55658
35507,55662
34700,55662
34667,55658
34640,55650
34616,55637
34594,55619
34577,55598
34563,55573
34555,55547
34552,55514
34552,55041
34555,55009
34563,54982
34577,54958
34594,54936
34616,54918
34640,54905
34667,54897
34700,54894
35507,54894
35539,54897
" /> 
<polyline style="fill-rule:evenodd;"
points="28339,54897
28366,54905
28391,54918
28412,54936
28430,54958
28443,54982
28451,55009
28454,55041
28454,55514
28451,55547
28443,55573
28430,55598
28412,55619
28391,55637
28366,55650
28339,55658
28307,55662
27500,55662
27467,55658
27440,55650
27416,55637
27394,55619
27377,55598
27363,55573
27355,55547
27352,55514
27352,55041
27355,55009
27363,54982
27377,54958
27394,54936
27416,54918
27440,54905
27467,54897
27500,54894
28307,54894
28339,54897
" /> 
<polyline style="fill-rule:evenodd;"
points="72179,54845
72206,54853
72231,54866
72252,54884
72270,54906
72283,54930
72291,54957
72294,54989
72294,55462
72291,55495
72283,55521
72270,55546
72252,55567
72231,55585
72206,55598
72179,55606
72147,55610
71340,55610
71307,55606
71280,55598
71256,55585
71234,55567
71217,55546
71203,55521
71195,55495
71192,55462
71192,54989
71195,54957
71203,54930
71217,54906
71234,54884
71256,54866
71280,54853
71307,54845
71340,54842
72147,54842
72179,54845
" /> 
<polyline style="fill-rule:evenodd;"
points="64979,54657
65006,54665
65031,54678
65052,54696
65070,54718
65083,54742
65091,54769
65094,54801
65094,55274
65091,55307
65083,55333
65070,55358
65052,55379
65031,55397
65006,55410
64979,55418
64947,55422
64140,55422
64107,55418
64080,55410
64056,55397
64034,55379
64017,55358
64003,55333
63995,55307
63992,55274
63992,54801
63995,54769
64003,54742
64017,54718
64034,54696
64056,54678
64080,54665
64107,54657
64140,54654
64947,54654
64979,54657
" /> 
<polyline style="fill-rule:evenodd;"
points="86579,54497
86606,54505
86631,54518
86652,54536
86670,54558
86683,54582
86691,54609
86694,54641
86694,55114
86691,55147
86683,55173
86670,55198
86652,55219
86631,55237
86606,55250
86579,55258
86547,55262
85740,55262
85707,55258
85680,55250
85656,55237
85634,55219
85617,55198
85603,55173
85595,55147
85592,55114
85592,54641
85595,54609
85603,54582
85617,54558
85634,54536
85656,54518
85680,54505
85707,54497
85740,54494
86547,54494
86579,54497
" /> 
<polyline style="fill-rule:evenodd;"
points="79379,54497
79406,54505
79431,54518
79452,54536
79470,54558
79483,54582
79491,54609
79494,54641
79494,55114
79491,55147
79483,55173
79470,55198
79452,55219
79431,55237
79406,55250
79379,55258
79347,55262
78540,55262
78507,55258
78480,55250
78456,55237
78434,55219
78417,55198
78403,55173
78395,55147
78392,55114
78392,54641
78395,54609
78403,54582
78417,54558
78434,54536
78456,54518
78480,54505
78507,54497
78540,54494
79347,54494
79379,54497
" /> 
<polyline style="fill-rule:evenodd;"
points="54310,54615
52794,54615
52794,54064
54310,54064
54310,54615
" /> 
<polyline style="fill-rule:evenodd;"
points="62692,54615
61176,54615
61176,54064
62692,54064
62692,54615
" /> 
<polyline style="fill-rule:evenodd;"
points="50339,53421
50366,53429
50391,53442
50412,53460
50430,53481
50443,53506
50451,53532
50454,53565
50454,54038
50451,54070
50443,54097
50430,54121
50412,54143
50391,54161
50366,54174
50339,54182
50307,54185
49500,54185
49467,54182
49440,54174
49416,54161
49394,54143
49377,54121
49363,54097
49355,54070
49352,54038
49352,53565
49355,53532
49363,53506
49377,53481
49394,53460
49416,53442
49440,53429
49467,53421
49500,53417
50307,53417
50339,53421
" /> 
<polyline style="fill-rule:evenodd;"
points="28339,53421
28366,53429
28391,53442
28412,53460
28430,53481
28443,53506
28451,53532
28454,53565
28454,54038
28451,54070
28443,54097
28430,54121
28412,54143
28391,54161
28366,54174
28339,54182
28307,54185
27500,54185
27467,54182
27440,54174
27416,54161
27394,54143
27377,54121
27363,54097
27355,54070
27352,54038
27352,53565
27355,53532
27363,53506
27377,53481
27394,53460
27416,53442
27440,53429
27467,53421
27500,53417
28307,53417
28339,53421
" /> 
<polyline style="fill-rule:evenodd;"
points="42739,53421
42766,53429
42791,53442
42812,53460
42830,53481
42843,53506
42851,53532
42854,53565
42854,54038
42851,54070
42843,54097
42830,54121
42812,54143
42791,54161
42766,54174
42739,54182
42707,54185
41900,54185
41867,54182
41840,54174
41816,54161
41794,54143
41777,54121
41763,54097
41755,54070
41752,54038
41752,53565
41755,53532
41763,53506
41777,53481
41794,53460
41816,53442
41840,53429
41867,53421
41900,53417
42707,53417
42739,53421
" /> 
<polyline style="fill-rule:evenodd;"
points="35539,53421
35566,53429
35591,53442
35612,53460
35630,53481
35643,53506
35651,53532
35654,53565
35654,54038
35651,54070
35643,54097
35630,54121
35612,54143
35591,54161
35566,54174
35539,54182
35507,54185
34700,54185
34667,54182
34640,54174
34616,54161
34594,54143
34577,54121
34563,54097
34555,54070
34552,54038
34552,53565
34555,53532
34563,53506
34577,53481
34594,53460
34616,53442
34640,53429
34667,53421
34700,53417
35507,53417
35539,53421
" /> 
<polyline style="fill-rule:evenodd;"
points="72179,53369
72206,53377
72231,53390
72252,53408
72270,53429
72283,53454
72291,53480
72294,53513
72294,53986
72291,54018
72283,54045
72270,54070
72252,54091
72231,54109
72206,54122
72179,54130
72147,54133
71340,54133
71307,54130
71280,54122
71256,54109
71234,54091
71217,54070
71203,54045
71195,54018
71192,53986
71192,53513
71195,53480
71203,53454
71217,53429
71234,53408
71256,53390
71280,53377
71307,53369
71340,53365
72147,53365
72179,53369
" /> 
<polyline style="fill-rule:evenodd;"
points="64979,53181
65006,53189
65031,53202
65052,53220
65070,53241
65083,53266
65091,53292
65094,53325
65094,53798
65091,53830
65083,53857
65070,53881
65052,53903
65031,53921
65006,53934
64979,53942
64947,53945
64140,53945
64107,53942
64080,53934
64056,53921
64034,53903
64017,53881
64003,53857
63995,53830
63992,53798
63992,53325
63995,53292
64003,53266
64017,53241
64034,53220
64056,53202
64080,53189
64107,53181
64140,53177
64947,53177
64979,53181
" /> 
<polyline style="fill-rule:evenodd;"
points="79379,53021
79406,53029
79431,53042
79452,53060
79470,53081
79483,53106
79491,53132
79494,53165
79494,53638
79491,53670
79483,53697
79470,53721
79452,53743
79431,53761
79406,53774
79379,53782
79347,53785
78540,53785
78507,53782
78480,53774
78456,53761
78434,53743
78417,53721
78403,53697
78395,53670
78392,53638
78392,53165
78395,53132
78403,53106
78417,53081
78434,53060
78456,53042
78480,53029
78507,53021
78540,53017
79347,53017
79379,53021
" /> 
<polyline style="fill-rule:evenodd;"
points="86579,53021
86606,53029
86631,53042
86652,53060
86670,53081
86683,53106
86691,53132
86694,53165
86694,53638
86691,53670
86683,53697
86670,53721
86652,53743
86631,53761
86606,53774
86579,53782
86547,53785
85740,53785
85707,53782
85680,53774
85656,53761
85634,53743
85617,53721
85603,53697
85595,53670
85592,53638
85592,53165
85595,53132
85603,53106
85617,53081
85634,53060
85656,53042
85680,53029
85707,53021
85740,53017
86547,53017
86579,53021
" /> 
<polyline style="fill-rule:evenodd;"
points="62692,53615
61176,53615
61176,53064
62692,53064
62692,53615
" /> 
<polyline style="fill-rule:evenodd;"
points="54310,53615
52794,53615
52794,53064
54310,53064
54310,53615
" /> 
<polyline style="fill-rule:evenodd;"
points="38988,51473
39012,51480
39034,51492
39053,51508
39069,51527
39081,51549
39088,51573
39091,51602
39091,52677
39088,52706
39081,52730
39069,52752
39053,52771
39034,52787
39012,52799
38988,52806
38958,52809
37648,52809
37618,52806
37595,52799
37573,52787
37553,52771
37538,52752
37526,52730
37519,52706
37516,52677
37516,51602
37519,51573
37526,51549
37538,51527
37553,51508
37573,51492
37595,51480
37618,51473
37648,51470
38958,51470
38988,51473
" /> 
<polyline style="fill-rule:evenodd;"
points="31788,51473
31812,51480
31834,51492
31853,51508
31869,51527
31881,51549
31888,51573
31891,51602
31891,52677
31888,52706
31881,52730
31869,52752
31853,52771
31834,52787
31812,52799
31788,52806
31758,52809
30448,52809
30418,52806
30395,52799
30373,52787
30353,52771
30338,52752
30326,52730
30319,52706
30316,52677
30316,51602
30319,51573
30326,51549
30338,51527
30353,51508
30373,51492
30395,51480
30418,51473
30448,51470
31758,51470
31788,51473
" /> 
<polyline style="fill-rule:evenodd;"
points="24588,51442
24612,51449
24634,51461
24653,51476
24669,51496
24681,51518
24688,51541
24691,51571
24691,52645
24688,52675
24681,52698
24669,52720
24653,52740
24634,52755
24612,52767
24588,52774
24558,52777
23248,52777
23218,52774
23195,52767
23173,52755
23153,52740
23138,52720
23126,52698
23119,52675
23116,52645
23116,51571
23119,51541
23126,51518
23138,51496
23153,51476
23173,51461
23195,51449
23218,51442
23248,51439
24558,51439
24588,51442
" /> 
<polyline style="fill-rule:evenodd;"
points="46128,51422
46152,51429
46174,51441
46193,51456
46209,51476
46221,51498
46228,51521
46231,51551
46231,52625
46228,52655
46221,52678
46209,52700
46193,52720
46174,52735
46152,52747
46128,52754
46098,52757
44788,52757
44758,52754
44735,52747
44713,52735
44693,52720
44678,52700
44666,52678
44659,52655
44656,52625
44656,51551
44659,51521
44666,51498
44678,51476
44693,51456
44713,51441
44735,51429
44758,51422
44788,51419
46098,51419
46128,51422
" /> 
<polyline style="fill-rule:evenodd;"
points="75648,51333
75672,51340
75694,51352
75713,51368
75729,51387
75741,51409
75748,51433
75751,51462
75751,52537
75748,52566
75741,52590
75729,52612
75713,52631
75694,52647
75672,52659
75648,52666
75618,52669
74308,52669
74278,52666
74255,52659
74233,52647
74213,52631
74198,52612
74186,52590
74179,52566
74176,52537
74176,51462
74179,51433
74186,51409
74198,51387
74213,51368
74233,51352
74255,51340
74278,51333
74308,51330
75618,51330
75648,51333
" /> 
<polyline style="fill-rule:evenodd;"
points="62692,52615
61176,52615
61176,52064
62692,52064
62692,52615
" /> 
<polyline style="fill-rule:evenodd;"
points="54310,52615
52794,52615
52794,52064
54310,52064
54310,52615
" /> 
<polyline style="fill-rule:evenodd;"
points="82828,51073
82852,51080
82874,51092
82893,51108
82909,51127
82921,51149
82928,51173
82931,51202
82931,52277
82928,52306
82921,52330
82909,52352
82893,52371
82874,52387
82852,52399
82828,52406
82798,52409
81488,52409
81458,52406
81435,52399
81413,52387
81393,52371
81378,52352
81366,52330
81359,52306
81356,52277
81356,51202
81359,51173
81366,51149
81378,51127
81393,51108
81413,51092
81435,51080
81458,51073
81488,51070
82798,51070
82828,51073
" /> 
<polyline style="fill-rule:evenodd;"
points="68428,51073
68452,51080
68474,51092
68493,51108
68509,51127
68521,51149
68528,51173
68531,51202
68531,52277
68528,52306
68521,52330
68509,52352
68493,52371
68474,52387
68452,52399
68428,52406
68398,52409
67088,52409
67058,52406
67035,52399
67013,52387
66993,52371
66978,52352
66966,52330
66959,52306
66956,52277
66956,51202
66959,51173
66966,51149
66978,51127
66993,51108
67013,51092
67035,51080
67058,51073
67088,51070
68398,51070
68428,51073
" /> 
<polyline style="fill-rule:evenodd;"
points="90028,51073
90052,51080
90074,51092
90093,51108
90109,51127
90121,51149
90128,51173
90131,51202
90131,52277
90128,52306
90121,52330
90109,52352
90093,52371
90074,52387
90052,52399
90028,52406
89998,52409
88688,52409
88658,52406
88635,52399
88613,52387
88593,52371
88578,52352
88566,52330
88559,52306
88556,52277
88556,51202
88559,51173
88566,51149
88578,51127
88593,51108
88613,51092
88635,51080
88658,51073
88688,51070
89998,51070
90028,51073
" /> 
<polyline style="fill-rule:evenodd;"
points="51739,51597
51766,51605
51791,51618
51812,51636
51830,51658
51843,51682
51851,51709
51854,51741
51854,52214
51851,52247
51843,52273
51830,52298
51812,52319
51791,52337
51766,52350
51739,52358
51707,52362
50900,52362
50867,52358
50840,52350
50816,52337
50794,52319
50777,52298
50763,52273
50755,52247
50752,52214
50752,51741
50755,51709
50763,51682
50777,51658
50794,51636
50816,51618
50840,51605
50867,51597
50900,51594
51707,51594
51739,51597
" /> 
<polyline style="fill-rule:evenodd;"
points="49679,51597
49706,51605
49731,51618
49752,51636
49770,51658
49783,51682
49791,51709
49794,51741
49794,52214
49791,52247
49783,52273
49770,52298
49752,52319
49731,52337
49706,52350
49679,52358
49647,52362
48840,52362
48807,52358
48780,52350
48756,52337
48734,52319
48717,52298
48703,52273
48695,52247
48692,52214
48692,51741
48695,51709
48703,51682
48717,51658
48734,51636
48756,51618
48780,51605
48807,51597
48840,51594
49647,51594
49679,51597
" /> 
<polyline style="fill-rule:evenodd;"
points="42789,51319
42816,51327
42841,51340
42862,51357
42880,51379
42893,51404
42901,51430
42904,51463
42904,51935
42901,51968
42893,51995
42880,52019
42862,52041
42841,52059
42816,52072
42789,52080
42757,52083
41949,52083
41917,52080
41890,52072
41866,52059
41844,52041
41826,52019
41813,51995
41805,51968
41802,51935
41802,51463
41805,51430
41813,51404
41826,51379
41844,51357
41866,51340
41890,51327
41917,51319
41949,51315
42757,51315
42789,51319
" /> 
<polyline style="fill-rule:evenodd;"
points="72179,51310
72206,51318
72231,51331
72252,51349
72270,51370
72283,51395
72291,51421
72294,51454
72294,51927
72291,51959
72283,51986
72270,52010
72252,52032
72231,52050
72206,52063
72179,52071
72147,52074
71340,52074
71307,52071
71280,52063
71256,52050
71234,52032
71217,52010
71203,51986
71195,51959
71192,51927
71192,51454
71195,51421
71203,51395
71217,51370
71234,51349
71256,51331
71280,51318
71307,51310
71340,51306
72147,51306
72179,51310
" /> 
<polyline style="fill-rule:evenodd;"
points="35539,51297
35566,51305
35591,51318
35612,51336
35630,51358
35643,51382
35651,51409
35654,51441
35654,51914
35651,51947
35643,51973
35630,51998
35612,52019
35591,52037
35566,52050
35539,52058
35507,52062
34700,52062
34667,52058
34640,52050
34616,52037
34594,52019
34577,51998
34563,51973
34555,51947
34552,51914
34552,51441
34555,51409
34563,51382
34577,51358
34594,51336
34616,51318
34640,51305
34667,51297
34700,51294
35507,51294
35539,51297
" /> 
<polyline style="fill-rule:evenodd;"
points="28389,51297
28416,51305
28441,51318
28462,51336
28480,51358
28493,51382
28501,51409
28504,51441
28504,51914
28501,51947
28493,51973
28480,51998
28462,52019
28441,52037
28416,52050
28389,52058
28357,52062
27549,52062
27517,52058
27490,52050
27466,52037
27444,52019
27426,51998
27413,51973
27405,51947
27402,51914
27402,51441
27405,51409
27413,51382
27426,51358
27444,51336
27466,51318
27490,51305
27517,51297
27549,51294
28357,51294
28389,51297
" /> 
<polyline style="fill-rule:evenodd;"
points="64979,51097
65006,51105
65031,51118
65052,51136
65070,51158
65083,51182
65091,51209
65094,51241
65094,51714
65091,51747
65083,51773
65070,51798
65052,51819
65031,51837
65006,51850
64979,51858
64947,51862
64140,51862
64107,51858
64080,51850
64056,51837
64034,51819
64017,51798
64003,51773
63995,51747
63992,51714
63992,51241
63995,51209
64003,51182
64017,51158
64034,51136
64056,51118
64080,51105
64107,51097
64140,51094
64947,51094
64979,51097
" /> 
<polyline style="fill-rule:evenodd;"
points="79379,50997
79406,51005
79431,51018
79452,51036
79470,51058
79483,51082
79491,51109
79494,51141
79494,51614
79491,51647
79483,51673
79470,51698
79452,51719
79431,51737
79406,51750
79379,51758
79347,51762
78540,51762
78507,51758
78480,51750
78456,51737
78434,51719
78417,51698
78403,51673
78395,51647
78392,51614
78392,51141
78395,51109
78403,51082
78417,51058
78434,51036
78456,51018
78480,51005
78507,50997
78540,50994
79347,50994
79379,50997
" /> 
<polyline style="fill-rule:evenodd;"
points="86579,50977
86606,50985
86631,50998
86652,51016
86670,51038
86683,51062
86691,51089
86694,51121
86694,51594
86691,51627
86683,51653
86670,51678
86652,51699
86631,51717
86606,51730
86579,51738
86547,51742
85740,51742
85707,51738
85680,51730
85656,51717
85634,51699
85617,51678
85603,51653
85595,51627
85592,51594
85592,51121
85595,51089
85603,51062
85617,51038
85634,51016
85656,50998
85680,50985
85707,50977
85740,50974
86547,50974
86579,50977
" /> 
<polyline style="fill-rule:evenodd;"
points="54310,51615
52794,51615
52794,51064
54310,51064
54310,51615
" /> 
<polyline style="fill-rule:evenodd;"
points="62692,51615
61176,51615
61176,51064
62692,51064
62692,51615
" /> 
<polyline style="fill-rule:evenodd;"
points="49679,50121
49706,50129
49731,50142
49752,50160
49770,50181
49783,50206
49791,50232
49794,50265
49794,50738
49791,50770
49783,50797
49770,50821
49752,50843
49731,50861
49706,50874
49679,50882
49647,50885
48840,50885
48807,50882
48780,50874
48756,50861
48734,50843
48717,50821
48703,50797
48695,50770
48692,50738
48692,50265
48695,50232
48703,50206
48717,50181
48734,50160
48756,50142
48780,50129
48807,50121
48840,50117
49647,50117
49679,50121
" /> 
<polyline style="fill-rule:evenodd;"
points="51739,50121
51766,50129
51791,50142
51812,50160
51830,50181
51843,50206
51851,50232
51854,50265
51854,50738
51851,50770
51843,50797
51830,50821
51812,50843
51791,50861
51766,50874
51739,50882
51707,50885
50900,50885
50867,50882
50840,50874
50816,50861
50794,50843
50777,50821
50763,50797
50755,50770
50752,50738
50752,50265
50755,50232
50763,50206
50777,50181
50794,50160
50816,50142
50840,50129
50867,50121
50900,50117
51707,50117
51739,50121
" /> 
<polyline style="fill-rule:evenodd;"
points="31353,49511
31479,49550
31595,49612
31697,49695
31781,49797
31843,49914
31881,50040
31894,50171
31881,50302
31843,50428
31781,50545
31697,50647
31595,50730
31479,50792
31353,50831
31254,50840
30952,50840
30854,50831
30728,50792
30611,50730
30510,50647
30426,50545
30364,50428
30326,50302
30313,50171
30326,50040
30364,49914
30426,49797
30510,49695
30611,49612
30728,49550
30854,49511
30952,49502
31254,49502
31353,49511
" /> 
<polyline style="fill-rule:evenodd;"
points="38553,49511
38679,49550
38795,49612
38897,49695
38981,49797
39043,49914
39081,50040
39094,50171
39081,50302
39043,50428
38981,50545
38897,50647
38795,50730
38679,50792
38553,50831
38454,50840
38152,50840
38054,50831
37928,50792
37811,50730
37710,50647
37626,50545
37564,50428
37526,50302
37513,50171
37526,50040
37564,49914
37626,49797
37710,49695
37811,49612
37928,49550
38054,49511
38152,49502
38454,49502
38553,49511
" /> 
<polyline style="fill-rule:evenodd;"
points="24153,49480
24279,49518
24395,49580
24497,49664
24581,49766
24643,49882
24681,50008
24694,50140
24681,50271
24643,50397
24581,50513
24497,50615
24395,50699
24279,50761
24153,50799
24054,50809
23752,50809
23654,50799
23528,50761
23411,50699
23310,50615
23226,50513
23164,50397
23126,50271
23113,50140
23126,50008
23164,49882
23226,49766
23310,49664
23411,49580
23528,49518
23654,49480
23752,49470
24054,49470
24153,49480
" /> 
<polyline style="fill-rule:evenodd;"
points="45693,49460
45819,49498
45935,49560
46037,49644
46121,49746
46183,49862
46221,49988
46234,50120
46221,50251
46183,50377
46121,50493
46037,50595
45935,50679
45819,50741
45693,50779
45594,50789
45292,50789
45194,50779
45068,50741
44951,50679
44850,50595
44766,50493
44704,50377
44666,50251
44653,50120
44666,49988
44704,49862
44766,49746
44850,49644
44951,49560
45068,49498
45194,49460
45292,49450
45594,49450
45693,49460
" /> 
<polyline style="fill-rule:evenodd;"
points="75213,49371
75339,49410
75455,49472
75557,49555
75641,49657
75703,49774
75741,49900
75754,50031
75741,50162
75703,50288
75641,50405
75557,50507
75455,50590
75339,50652
75213,50691
75114,50700
74812,50700
74714,50691
74588,50652
74471,50590
74370,50507
74286,50405
74224,50288
74186,50162
74173,50031
74186,49900
74224,49774
74286,49657
74370,49555
74471,49472
74588,49410
74714,49371
74812,49362
75114,49362
75213,49371
" /> 
<polyline style="fill-rule:evenodd;"
points="62692,50615
61176,50615
61176,50064
62692,50064
62692,50615
" /> 
<polyline style="fill-rule:evenodd;"
points="54310,50615
52794,50615
52794,50064
54310,50064
54310,50615
" /> 
<polyline style="fill-rule:evenodd;"
points="42789,49842
42816,49850
42841,49863
42862,49881
42880,49903
42893,49927
42901,49954
42904,49986
42904,50459
42901,50492
42893,50518
42880,50543
42862,50565
42841,50582
42816,50595
42789,50603
42757,50607
41949,50607
41917,50603
41890,50595
41866,50582
41844,50565
41826,50543
41813,50518
41805,50492
41802,50459
41802,49986
41805,49954
41813,49927
41826,49903
41844,49881
41866,49863
41890,49850
41917,49842
41949,49839
42757,49839
42789,49842
" /> 
<polyline style="fill-rule:evenodd;"
points="72179,49833
72206,49841
72231,49854
72252,49872
72270,49894
72283,49918
72291,49945
72294,49978
72294,50450
72291,50483
72283,50509
72270,50534
72252,50556
72231,50573
72206,50586
72179,50595
72147,50598
71340,50598
71307,50595
71280,50586
71256,50573
71234,50556
71217,50534
71203,50509
71195,50483
71192,50450
71192,49978
71195,49945
71203,49918
71217,49894
71234,49872
71256,49854
71280,49841
71307,49833
71340,49830
72147,49830
72179,49833
" /> 
<polyline style="fill-rule:evenodd;"
points="35539,49821
35566,49829
35591,49842
35612,49860
35630,49881
35643,49906
35651,49932
35654,49965
35654,50438
35651,50470
35643,50497
35630,50521
35612,50543
35591,50561
35566,50574
35539,50582
35507,50585
34700,50585
34667,50582
34640,50574
34616,50561
34594,50543
34577,50521
34563,50497
34555,50470
34552,50438
34552,49965
34555,49932
34563,49906
34577,49881
34594,49860
34616,49842
34640,49829
34667,49821
34700,49817
35507,49817
35539,49821
" /> 
<polyline style="fill-rule:evenodd;"
points="28389,49821
28416,49829
28441,49842
28462,49860
28480,49881
28493,49906
28501,49932
28504,49965
28504,50438
28501,50470
28493,50497
28480,50521
28462,50543
28441,50561
28416,50574
28389,50582
28357,50585
27549,50585
27517,50582
27490,50574
27466,50561
27444,50543
27426,50521
27413,50497
27405,50470
27402,50438
27402,49965
27405,49932
27413,49906
27426,49881
27444,49860
27466,49842
27490,49829
27517,49821
27549,49817
28357,49817
28389,49821
" /> 
<polyline style="fill-rule:evenodd;"
points="67993,49111
68119,49150
68235,49212
68337,49295
68421,49397
68483,49514
68521,49640
68534,49771
68521,49902
68483,50028
68421,50145
68337,50247
68235,50330
68119,50392
67993,50431
67894,50440
67592,50440
67494,50431
67368,50392
67251,50330
67150,50247
67066,50145
67004,50028
66966,49902
66953,49771
66966,49640
67004,49514
67066,49397
67150,49295
67251,49212
67368,49150
67494,49111
67592,49102
67894,49102
67993,49111
" /> 
<polyline style="fill-rule:evenodd;"
points="82393,49111
82519,49150
82635,49212
82737,49295
82821,49397
82883,49514
82921,49640
82934,49771
82921,49902
82883,50028
82821,50145
82737,50247
82635,50330
82519,50392
82393,50431
82294,50440
81992,50440
81894,50431
81768,50392
81651,50330
81550,50247
81466,50145
81404,50028
81366,49902
81353,49771
81366,49640
81404,49514
81466,49397
81550,49295
81651,49212
81768,49150
81894,49111
81992,49102
82294,49102
82393,49111
" /> 
<polyline style="fill-rule:evenodd;"
points="89593,49111
89719,49150
89835,49212
89937,49295
90021,49397
90083,49514
90121,49640
90134,49771
90121,49902
90083,50028
90021,50145
89937,50247
89835,50330
89719,50392
89593,50431
89494,50440
89192,50440
89094,50431
88968,50392
88851,50330
88750,50247
88666,50145
88604,50028
88566,49902
88553,49771
88566,49640
88604,49514
88666,49397
88750,49295
88851,49212
88968,49150
89094,49111
89192,49102
89494,49102
89593,49111
" /> 
<polyline style="fill-rule:evenodd;"
points="64979,49621
65006,49629
65031,49642
65052,49660
65070,49681
65083,49706
65091,49732
65094,49765
65094,50238
65091,50270
65083,50297
65070,50321
65052,50343
65031,50361
65006,50374
64979,50382
64947,50385
64140,50385
64107,50382
64080,50374
64056,50361
64034,50343
64017,50321
64003,50297
63995,50270
63992,50238
63992,49765
63995,49732
64003,49706
64017,49681
64034,49660
64056,49642
64080,49629
64107,49621
64140,49617
64947,49617
64979,49621
" /> 
<polyline style="fill-rule:evenodd;"
points="79379,49521
79406,49529
79431,49542
79452,49560
79470,49581
79483,49606
79491,49632
79494,49665
79494,50138
79491,50170
79483,50197
79470,50221
79452,50243
79431,50261
79406,50274
79379,50282
79347,50285
78540,50285
78507,50282
78480,50274
78456,50261
78434,50243
78417,50221
78403,50197
78395,50170
78392,50138
78392,49665
78395,49632
78403,49606
78417,49581
78434,49560
78456,49542
78480,49529
78507,49521
78540,49517
79347,49517
79379,49521
" /> 
<polyline style="fill-rule:evenodd;"
points="86579,49501
86606,49509
86631,49522
86652,49540
86670,49561
86683,49586
86691,49612
86694,49645
86694,50118
86691,50150
86683,50177
86670,50201
86652,50223
86631,50241
86606,50254
86579,50262
86547,50265
85740,50265
85707,50262
85680,50254
85656,50241
85634,50223
85617,50201
85603,50177
85595,50150
85592,50118
85592,49645
85595,49612
85603,49586
85617,49561
85634,49540
85656,49522
85680,49509
85707,49501
85740,49497
86547,49497
86579,49501
" /> 
<polyline style="fill-rule:evenodd;"
points="62692,49615
61176,49615
61176,49064
62692,49064
62692,49615
" /> 
<polyline style="fill-rule:evenodd;"
points="54310,49615
52794,49615
52794,49064
54310,49064
54310,49615
" /> 
<polyline style="fill-rule:evenodd;"
points="35539,48097
35566,48105
35591,48118
35612,48136
35630,48158
35643,48182
35651,48209
35654,48241
35654,48714
35651,48747
35643,48773
35630,48798
35612,48819
35591,48837
35566,48850
35539,48858
35507,48862
34700,48862
34667,48858
34640,48850
34616,48837
34594,48819
34577,48798
34563,48773
34555,48747
34552,48714
34552,48241
34555,48209
34563,48182
34577,48158
34594,48136
34616,48118
34640,48105
34667,48097
34700,48094
35507,48094
35539,48097
" /> 
<polyline style="fill-rule:evenodd;"
points="28389,48097
28416,48105
28441,48118
28462,48136
28480,48158
28493,48182
28501,48209
28504,48241
28504,48714
28501,48747
28493,48773
28480,48798
28462,48819
28441,48837
28416,48850
28389,48858
28357,48862
27549,48862
27517,48858
27490,48850
27466,48837
27444,48819
27426,48798
27413,48773
27405,48747
27402,48714
27402,48241
27405,48209
27413,48182
27426,48158
27444,48136
27466,48118
27490,48105
27517,48097
27549,48094
28357,48094
28389,48097
" /> 
<polyline style="fill-rule:evenodd;"
points="64979,48097
65006,48105
65031,48118
65052,48136
65070,48158
65083,48182
65091,48209
65094,48241
65094,48714
65091,48747
65083,48773
65070,48798
65052,48819
65031,48837
65006,48850
64979,48858
64947,48862
64140,48862
64107,48858
64080,48850
64056,48837
64034,48819
64017,48798
64003,48773
63995,48747
63992,48714
63992,48241
63995,48209
64003,48182
64017,48158
64034,48136
64056,48118
64080,48105
64107,48097
64140,48094
64947,48094
64979,48097
" /> 
<polyline style="fill-rule:evenodd;"
points="50339,48097
50366,48105
50391,48118
50412,48136
50430,48158
50443,48182
50451,48209
50454,48241
50454,48714
50451,48747
50443,48773
50430,48798
50412,48819
50391,48837
50366,48850
50339,48858
50307,48862
49500,48862
49467,48858
49440,48850
49416,48837
49394,48819
49377,48798
49363,48773
49355,48747
49352,48714
49352,48241
49355,48209
49363,48182
49377,48158
49394,48136
49416,48118
49440,48105
49467,48097
49500,48094
50307,48094
50339,48097
" /> 
<polyline style="fill-rule:evenodd;"
points="42739,48097
42766,48105
42791,48118
42812,48136
42830,48158
42843,48182
42851,48209
42854,48241
42854,48714
42851,48747
42843,48773
42830,48798
42812,48819
42791,48837
42766,48850
42739,48858
42707,48862
41900,48862
41867,48858
41840,48850
41816,48837
41794,48819
41777,48798
41763,48773
41755,48747
41752,48714
41752,48241
41755,48209
41763,48182
41777,48158
41794,48136
41816,48118
41840,48105
41867,48097
41900,48094
42707,48094
42739,48097
" /> 
<polyline style="fill-rule:evenodd;"
points="72179,48084
72206,48093
72231,48106
72252,48123
72270,48145
72283,48170
72291,48196
72294,48229
72294,48701
72291,48734
72283,48761
72270,48785
72252,48807
72231,48825
72206,48838
72179,48846
72147,48849
71340,48849
71307,48846
71280,48838
71256,48825
71234,48807
71217,48785
71203,48761
71195,48734
71192,48701
71192,48229
71195,48196
71203,48170
71217,48145
71234,48123
71256,48106
71280,48093
71307,48084
71340,48081
72147,48081
72179,48084
" /> 
<polyline style="fill-rule:evenodd;"
points="54310,48615
52794,48615
52794,48064
54310,48064
54310,48615
" /> 
<polyline style="fill-rule:evenodd;"
points="62692,48615
61176,48615
61176,48064
62692,48064
62692,48615
" /> 
<polyline style="fill-rule:evenodd;"
points="86579,47749
86606,47757
86631,47770
86652,47788
86670,47809
86683,47834
86691,47861
86694,47893
86694,48366
86691,48399
86683,48425
86670,48450
86652,48471
86631,48489
86606,48502
86579,48510
86547,48514
85740,48514
85707,48510
85680,48502
85656,48489
85634,48471
85617,48450
85603,48425
85595,48399
85592,48366
85592,47893
85595,47861
85603,47834
85617,47809
85634,47788
85656,47770
85680,47757
85707,47749
85740,47746
86547,47746
86579,47749
" /> 
<polyline style="fill-rule:evenodd;"
points="79379,47697
79406,47705
79431,47718
79452,47736
79470,47758
79483,47782
79491,47809
79494,47841
79494,48314
79491,48347
79483,48373
79470,48398
79452,48419
79431,48437
79406,48450
79379,48458
79347,48462
78540,48462
78507,48458
78480,48450
78456,48437
78434,48419
78417,48398
78403,48373
78395,48347
78392,48314
78392,47841
78395,47809
78403,47782
78417,47758
78434,47736
78456,47718
78480,47705
78507,47697
78540,47694
79347,47694
79379,47697
" /> 
<polyline style="fill-rule:evenodd;"
points="61019,47906
60468,47906
60468,46391
61019,46391
61019,47906
" /> 
<polyline style="fill-rule:evenodd;"
points="60019,47906
59468,47906
59468,46391
60019,46391
60019,47906
" /> 
<polyline style="fill-rule:evenodd;"
points="59019,47906
58468,47906
58468,46391
59019,46391
59019,47906
" /> 
<polyline style="fill-rule:evenodd;"
points="58019,47906
57468,47906
57468,46391
58019,46391
58019,47906
" /> 
<polyline style="fill-rule:evenodd;"
points="57019,47906
56468,47906
56468,46391
57019,46391
57019,47906
" /> 
<polyline style="fill-rule:evenodd;"
points="56019,47906
55468,47906
55468,46391
56019,46391
56019,47906
" /> 
<polyline style="fill-rule:evenodd;"
points="55019,47906
54468,47906
54468,46391
55019,46391
55019,47906
" /> 
<polyline style="fill-rule:evenodd;"
points="35539,46621
35566,46629
35591,46642
35612,46660
35630,46681
35643,46706
35651,46732
35654,46765
35654,47238
35651,47270
35643,47297
35630,47321
35612,47343
35591,47361
35566,47374
35539,47382
35507,47385
34700,47385
34667,47382
34640,47374
34616,47361
34594,47343
34577,47321
34563,47297
34555,47270
34552,47238
34552,46765
34555,46732
34563,46706
34577,46681
34594,46660
34616,46642
34640,46629
34667,46621
34700,46617
35507,46617
35539,46621
" /> 
<polyline style="fill-rule:evenodd;"
points="28389,46621
28416,46629
28441,46642
28462,46660
28480,46681
28493,46706
28501,46732
28504,46765
28504,47238
28501,47270
28493,47297
28480,47321
28462,47343
28441,47361
28416,47374
28389,47382
28357,47385
27549,47385
27517,47382
27490,47374
27466,47361
27444,47343
27426,47321
27413,47297
27405,47270
27402,47238
27402,46765
27405,46732
27413,46706
27426,46681
27444,46660
27466,46642
27490,46629
27517,46621
27549,46617
28357,46617
28389,46621
" /> 
<polyline style="fill-rule:evenodd;"
points="42739,46621
42766,46629
42791,46642
42812,46660
42830,46681
42843,46706
42851,46732
42854,46765
42854,47238
42851,47270
42843,47297
42830,47321
42812,47343
42791,47361
42766,47374
42739,47382
42707,47385
41900,47385
41867,47382
41840,47374
41816,47361
41794,47343
41777,47321
41763,47297
41755,47270
41752,47238
41752,46765
41755,46732
41763,46706
41777,46681
41794,46660
41816,46642
41840,46629
41867,46621
41900,46617
42707,46617
42739,46621
" /> 
<polyline style="fill-rule:evenodd;"
points="50339,46621
50366,46629
50391,46642
50412,46660
50430,46681
50443,46706
50451,46732
50454,46765
50454,47238
50451,47270
50443,47297
50430,47321
50412,47343
50391,47361
50366,47374
50339,47382
50307,47385
49500,47385
49467,47382
49440,47374
49416,47361
49394,47343
49377,47321
49363,47297
49355,47270
49352,47238
49352,46765
49355,46732
49363,46706
49377,46681
49394,46660
49416,46642
49440,46629
49467,46621
49500,46617
50307,46617
50339,46621
" /> 
<polyline style="fill-rule:evenodd;"
points="64979,46621
65006,46629
65031,46642
65052,46660
65070,46681
65083,46706
65091,46732
65094,46765
65094,47238
65091,47270
65083,47297
65070,47321
65052,47343
65031,47361
65006,47374
64979,47382
64947,47385
64140,47385
64107,47382
64080,47374
64056,47361
64034,47343
64017,47321
64003,47297
63995,47270
63992,47238
63992,46765
63995,46732
64003,46706
64017,46681
64034,46660
64056,46642
64080,46629
64107,46621
64140,46617
64947,46617
64979,46621
" /> 
<polyline style="fill-rule:evenodd;"
points="72179,46608
72206,46616
72231,46629
72252,46647
72270,46669
72283,46693
72291,46720
72294,46752
72294,47225
72291,47258
72283,47284
72270,47309
72252,47330
72231,47348
72206,47361
72179,47369
72147,47373
71340,47373
71307,47369
71280,47361
71256,47348
71234,47330
71217,47309
71203,47284
71195,47258
71192,47225
71192,46752
71195,46720
71203,46693
71217,46669
71234,46647
71256,46629
71280,46616
71307,46608
71340,46605
72147,46605
72179,46608
" /> 
<polyline style="fill-rule:evenodd;"
points="86579,46273
86606,46281
86631,46294
86652,46312
86670,46333
86683,46358
86691,46384
86694,46417
86694,46890
86691,46922
86683,46949
86670,46973
86652,46995
86631,47013
86606,47026
86579,47034
86547,47037
85740,47037
85707,47034
85680,47026
85656,47013
85634,46995
85617,46973
85603,46949
85595,46922
85592,46890
85592,46417
85595,46384
85603,46358
85617,46333
85634,46312
85656,46294
85680,46281
85707,46273
85740,46269
86547,46269
86579,46273
" /> 
<polyline style="fill-rule:evenodd;"
points="79379,46221
79406,46229
79431,46242
79452,46260
79470,46281
79483,46306
79491,46332
79494,46365
79494,46838
79491,46870
79483,46897
79470,46921
79452,46943
79431,46961
79406,46974
79379,46982
79347,46985
78540,46985
78507,46982
78480,46974
78456,46961
78434,46943
78417,46921
78403,46897
78395,46870
78392,46838
78392,46365
78395,46332
78403,46306
78417,46281
78434,46260
78456,46242
78480,46229
78507,46221
78540,46217
79347,46217
79379,46221
" /> 
<polyline style="fill-rule:evenodd;"
points="65179,44236
63959,44236
63959,43763
65179,43763
65179,44236
" /> 
<polyline style="fill-rule:evenodd;"
points="60927,44236
59707,44236
59707,43763
60927,43763
60927,44236
" /> 
<polyline style="fill-rule:evenodd;"
points="84534,42600
84661,42638
84777,42700
84879,42784
84962,42886
85025,43002
85063,43128
85076,43260
85063,43391
85025,43517
84962,43633
84879,43735
84777,43819
84661,43881
84534,43919
84436,43929
84370,43929
84272,43919
84146,43881
84030,43819
83928,43735
83844,43633
83782,43517
83744,43391
83731,43260
83744,43128
83782,43002
83844,42886
83928,42784
84030,42700
84146,42638
84272,42600
84370,42590
84436,42590
84534,42600
" /> 
<polyline style="fill-rule:evenodd;"
points="86534,42600
86661,42638
86777,42700
86879,42784
86962,42886
87025,43002
87063,43128
87076,43260
87063,43391
87025,43517
86962,43633
86879,43735
86777,43819
86661,43881
86534,43919
86436,43929
86370,43929
86272,43919
86146,43881
86030,43819
85928,43735
85844,43633
85782,43517
85744,43391
85731,43260
85744,43128
85782,43002
85844,42886
85928,42784
86030,42700
86146,42638
86272,42600
86370,42590
86436,42590
86534,42600
" /> 
<polyline style="fill-rule:evenodd;"
points="80534,42600
80661,42638
80777,42700
80879,42784
80962,42886
81025,43002
81063,43128
81076,43260
81063,43391
81025,43517
80962,43633
80879,43735
80777,43819
80661,43881
80534,43919
80436,43929
80370,43929
80272,43919
80146,43881
80030,43819
79928,43735
79844,43633
79782,43517
79744,43391
79731,43260
79744,43128
79782,43002
79844,42886
79928,42784
80030,42700
80146,42638
80272,42600
80370,42590
80436,42590
80534,42600
" /> 
<polyline style="fill-rule:evenodd;"
points="79073,43929
77734,43929
77734,42590
79073,42590
79073,43929
" /> 
<polyline style="fill-rule:evenodd;"
points="82534,42600
82661,42638
82777,42700
82879,42784
82962,42886
83025,43002
83063,43128
83076,43260
83063,43391
83025,43517
82962,43633
82879,43735
82777,43819
82661,43881
82534,43919
82436,43929
82370,43929
82272,43919
82146,43881
82030,43819
81928,43735
81844,43633
81782,43517
81744,43391
81731,43260
81744,43128
81782,43002
81844,42886
81928,42784
82030,42700
82146,42638
82272,42600
82370,42590
82436,42590
82534,42600
" /> 
<polyline style="fill-rule:evenodd;"
points="72774,42580
72901,42618
73017,42680
73119,42764
73202,42866
73265,42982
73303,43108
73316,43240
73303,43371
73265,43497
73202,43613
73119,43715
73017,43799
72901,43861
72774,43899
72676,43909
72610,43909
72512,43899
72386,43861
72270,43799
72168,43715
72084,43613
72022,43497
71984,43371
71971,43240
71984,43108
72022,42982
72084,42866
72168,42764
72270,42680
72386,42618
72512,42580
72610,42570
72676,42570
72774,42580
" /> 
<polyline style="fill-rule:evenodd;"
points="74774,42580
74901,42618
75017,42680
75119,42764
75202,42866
75265,42982
75303,43108
75316,43240
75303,43371
75265,43497
75202,43613
75119,43715
75017,43799
74901,43861
74774,43899
74676,43909
74610,43909
74512,43899
74386,43861
74270,43799
74168,43715
74084,43613
74022,43497
73984,43371
73971,43240
73984,43108
74022,42982
74084,42866
74168,42764
74270,42680
74386,42618
74512,42580
74610,42570
74676,42570
74774,42580
" /> 
<polyline style="fill-rule:evenodd;"
points="71313,43909
69974,43909
69974,42570
71313,42570
71313,43909
" /> 
<polyline style="fill-rule:evenodd;"
points="56212,40923
56288,40938
56503,41027
56694,41154
56696,41156
56861,41320
56861,41320
56990,41514
57079,41729
57124,41957
57124,42190
57079,42418
56990,42633
56902,42764
56861,42826
56696,42991
56696,42991
56503,43120
56288,43209
56212,43224
56060,43254
55827,43254
55675,43224
55599,43209
55384,43120
55190,42991
55190,42991
55026,42826
54984,42764
54897,42633
54808,42418
54762,42190
54762,41957
54808,41729
54897,41514
55026,41320
55026,41320
55190,41156
55193,41154
55384,41027
55599,40938
55675,40923
55827,40892
56060,40892
56212,40923
" /> 
<polyline style="fill-rule:evenodd;"
points="65179,43236
63959,43236
63959,42763
65179,42763
65179,43236
" /> 
<polyline style="fill-rule:evenodd;"
points="60927,43236
59707,43236
59707,42763
60927,42763
60927,43236
" /> 
<polyline style="fill-rule:evenodd;"
points="65179,42236
63959,42236
63959,41763
65179,41763
65179,42236
" /> 
<polyline style="fill-rule:evenodd;"
points="60927,42236
59707,42236
59707,41763
60927,41763
60927,42236
" /> 
<polyline style="fill-rule:evenodd;"
points="60927,41236
59707,41236
59707,40763
60927,40763
60927,41236
" /> 
<polyline style="fill-rule:evenodd;"
points="65179,41236
63959,41236
63959,40763
65179,40763
65179,41236
" /> 
<polyline style="fill-rule:evenodd;"
points="85405,39989
85407,40008
85413,40027
85422,40044
85434,40059
85449,40071
85466,40080
85485,40086
85504,40088
85720,40088
85720,41032
84618,41032
84618,40028
84616,40009
84611,39991
84601,39974
84589,39959
84574,39947
84557,39938
84539,39932
84520,39930
84146,39930
84146,39379
85405,39379
85405,39989
" /> 
<polyline style="fill-rule:evenodd;"
points="93594,41032
91862,41032
91862,40088
93594,40088
93594,41032
" /> 
<polyline style="fill-rule:evenodd;"
points="40917,39164
41009,39182
41152,39242
41281,39328
41391,39438
41477,39567
41536,39710
41543,39743
41566,39858
41567,39862
41567,40017
41536,40169
41477,40312
41391,40441
41281,40551
41152,40637
41009,40697
40918,40715
40857,40727
40702,40727
40641,40715
40550,40697
40406,40637
40277,40551
40168,40441
40081,40312
40022,40169
39992,40017
39992,39862
39993,39858
40015,39743
40022,39710
40081,39567
40168,39438
40277,39328
40406,39242
40550,39182
40641,39164
40702,39152
40857,39152
40917,39164
" /> 
<polyline style="fill-rule:evenodd;"
points="44461,39164
44552,39182
44696,39242
44824,39328
44934,39438
45020,39567
45080,39710
45086,39743
45109,39858
45110,39862
45110,40017
45080,40169
45020,40312
44934,40441
44824,40551
44696,40637
44552,40697
44461,40715
44400,40727
44245,40727
44184,40715
44093,40697
43950,40637
43821,40551
43711,40441
43625,40312
43565,40169
43535,40017
43535,39862
43536,39858
43559,39743
43565,39710
43625,39567
43711,39438
43821,39328
43950,39242
44093,39182
44184,39164
44245,39152
44400,39152
44461,39164
" /> 
<polyline style="fill-rule:evenodd;"
points="82879,39937
82906,39945
82931,39958
82952,39976
82970,39998
82983,40022
82991,40049
82994,40081
82994,40554
82991,40587
82983,40613
82970,40638
82952,40659
82931,40677
82906,40690
82879,40698
82847,40702
82040,40702
82007,40698
81980,40690
81956,40677
81934,40659
81917,40638
81903,40613
81895,40587
81892,40554
81892,40081
81895,40049
81903,40022
81917,39998
81934,39976
81956,39958
81980,39945
82007,39937
82040,39934
82847,39934
82879,39937
" /> 
<polyline style="fill-rule:evenodd;"
points="80879,39937
80906,39945
80931,39958
80952,39976
80970,39998
80983,40022
80991,40049
80994,40081
80994,40554
80991,40587
80983,40613
80970,40638
80952,40659
80931,40677
80906,40690
80879,40698
80847,40702
80040,40702
80007,40698
79980,40690
79956,40677
79934,40659
79917,40638
79903,40613
79895,40587
79892,40554
79892,40081
79895,40049
79903,40022
79917,39998
79934,39976
79956,39958
79980,39945
80007,39937
80040,39934
80847,39934
80879,39937
" /> 
<polyline style="fill-rule:evenodd;"
points="78879,39937
78906,39945
78931,39958
78952,39976
78970,39998
78983,40022
78991,40049
78994,40081
78994,40554
78991,40587
78983,40613
78970,40638
78952,40659
78931,40677
78906,40690
78879,40698
78847,40702
78040,40702
78007,40698
77980,40690
77956,40677
77934,40659
77917,40638
77903,40613
77895,40587
77892,40554
77892,40081
77895,40049
77903,40022
77917,39998
77934,39976
77956,39958
77980,39945
78007,39937
78040,39934
78847,39934
78879,39937
" /> 
<polyline style="fill-rule:evenodd;"
points="67211,38763
67238,38771
67263,38784
67288,38805
67622,39139
67643,39164
67656,39189
67664,39215
67667,39243
67664,39271
67656,39298
67643,39322
67622,39347
67051,39918
67026,39939
67001,39952
66975,39960
66947,39963
66919,39960
66892,39952
66868,39939
66843,39918
66508,39584
66488,39559
66474,39534
66466,39508
66464,39480
66466,39452
66474,39425
66488,39401
66508,39375
67079,38805
67105,38784
67129,38771
67156,38763
67184,38760
67211,38763
" /> 
<polyline style="fill-rule:evenodd;"
points="63150,38792
63177,38800
63202,38813
63223,38830
63241,38852
63254,38877
63262,38903
63265,38936
63265,39743
63262,39776
63254,39802
63241,39827
63223,39849
63202,39866
63177,39879
63150,39887
63118,39891
62645,39891
62613,39887
62586,39879
62561,39866
62540,39849
62522,39827
62509,39802
62501,39776
62498,39743
62498,38936
62501,38903
62509,38877
62522,38852
62540,38830
62561,38813
62586,38800
62613,38792
62645,38788
63118,38788
63150,38792
" /> 
<polyline style="fill-rule:evenodd;"
points="61674,38792
61701,38800
61725,38813
61747,38830
61764,38852
61778,38877
61786,38903
61789,38936
61789,39743
61786,39776
61778,39802
61764,39827
61747,39849
61725,39866
61701,39879
61674,39887
61641,39891
61169,39891
61136,39887
61109,39879
61085,39866
61063,39849
61046,39827
61032,39802
61024,39776
61021,39743
61021,38936
61024,38903
61032,38877
61046,38852
61063,38830
61085,38813
61109,38800
61136,38792
61169,38788
61641,38788
61674,38792
" /> 
<polyline style="fill-rule:evenodd;"
points="82879,38461
82906,38469
82931,38482
82952,38500
82970,38521
82983,38546
82991,38572
82994,38605
82994,39078
82991,39110
82983,39137
82970,39161
82952,39183
82931,39201
82906,39214
82879,39222
82847,39225
82040,39225
82007,39222
81980,39214
81956,39201
81934,39183
81917,39161
81903,39137
81895,39110
81892,39078
81892,38605
81895,38572
81903,38546
81917,38521
81934,38500
81956,38482
81980,38469
82007,38461
82040,38457
82847,38457
82879,38461
" /> 
<polyline style="fill-rule:evenodd;"
points="80879,38461
80906,38469
80931,38482
80952,38500
80970,38521
80983,38546
80991,38572
80994,38605
80994,39078
80991,39110
80983,39137
80970,39161
80952,39183
80931,39201
80906,39214
80879,39222
80847,39225
80040,39225
80007,39222
79980,39214
79956,39201
79934,39183
79917,39161
79903,39137
79895,39110
79892,39078
79892,38605
79895,38572
79903,38546
79917,38521
79934,38500
79956,38482
79980,38469
80007,38461
80040,38457
80847,38457
80879,38461
" /> 
<polyline style="fill-rule:evenodd;"
points="78879,38461
78906,38469
78931,38482
78952,38500
78970,38521
78983,38546
78991,38572
78994,38605
78994,39078
78991,39110
78983,39137
78970,39161
78952,39183
78931,39201
78906,39214
78879,39222
78847,39225
78040,39225
78007,39222
77980,39214
77956,39201
77934,39183
77917,39161
77903,39137
77895,39110
77892,39078
77892,38605
77895,38572
77903,38546
77917,38521
77934,38500
77956,38482
77980,38469
78007,38461
78040,38457
78847,38457
78879,38461
" /> 
<polyline style="fill-rule:evenodd;"
points="66135,35436
66135,35436
66608,35909
66608,35909
68362,37663
68362,37663
68835,38136
68835,38136
69211,38512
68543,39180
68139,38777
68139,38777
67722,38359
67722,38359
65912,36550
65912,36550
65495,36132
65495,36132
65091,35728
65759,35060
66135,35436
" /> 
<polyline style="fill-rule:evenodd;"
points="73944,35728
70492,39180
69823,38512
70199,38136
70199,38136
70673,37663
70673,37663
71118,37218
72009,36327
72426,35909
72426,35909
72900,35436
72900,35436
73275,35060
73944,35728
" /> 
<polyline style="fill-rule:evenodd;"
points="85405,39064
84146,39064
84146,38513
85405,38513
85405,39064
" /> 
<polyline style="fill-rule:evenodd;"
points="66167,37719
66194,37727
66219,37740
66244,37761
66578,38095
66599,38120
66612,38145
66620,38171
66623,38199
66620,38227
66612,38254
66599,38278
66578,38304
66007,38874
65982,38895
65957,38908
65931,38916
65903,38919
65875,38916
65849,38908
65824,38895
65799,38874
65464,38540
65444,38515
65431,38490
65422,38464
65420,38436
65422,38408
65431,38381
65444,38357
65464,38332
66035,37761
66061,37740
66085,37727
66112,37719
66140,37716
66167,37719
" /> 
<polyline style="fill-rule:evenodd;"
points="36868,37402
36892,37409
36914,37421
36933,37436
36949,37456
36961,37478
36968,37501
36971,37531
36971,38605
36968,38635
36961,38658
36949,38680
36933,38700
36914,38715
36892,38727
36868,38734
36838,38737
35528,38737
35498,38734
35475,38727
35453,38715
35433,38700
35418,38680
35406,38658
35399,38635
35396,38605
35396,37531
35399,37501
35406,37478
35418,37456
35433,37436
35453,37421
35475,37409
35498,37402
35528,37399
36838,37399
36868,37402
" /> 
<polyline style="fill-rule:evenodd;"
points="57779,38330
57307,38330
57307,37149
57779,37149
57779,38330
" /> 
<polyline style="fill-rule:evenodd;"
points="58779,38330
58307,38330
58307,37149
58779,37149
58779,38330
" /> 
<polyline style="fill-rule:evenodd;"
points="59779,38330
59307,38330
59307,37149
59779,37149
59779,38330
" /> 
<polyline style="fill-rule:evenodd;"
points="55779,38330
55307,38330
55307,37149
55779,37149
55779,38330
" /> 
<polyline style="fill-rule:evenodd;"
points="54779,38330
54307,38330
54307,37149
54779,37149
54779,38330
" /> 
<polyline style="fill-rule:evenodd;"
points="53779,38330
53307,38330
53307,37149
53779,37149
53779,38330
" /> 
<polyline style="fill-rule:evenodd;"
points="52779,38330
52307,38330
52307,37149
52779,37149
52779,38330
" /> 
<polyline style="fill-rule:evenodd;"
points="56779,38330
56307,38330
56307,37149
56779,37149
56779,38330
" /> 
<polyline style="fill-rule:evenodd;"
points="85405,38198
84146,38198
84146,37647
85405,37647
85405,38198
" /> 
<polyline style="fill-rule:evenodd;"
points="78879,37150
78906,37158
78931,37171
78952,37189
78970,37210
78983,37235
78991,37261
78994,37294
78994,37767
78991,37799
78983,37826
78970,37850
78952,37872
78931,37890
78906,37903
78879,37911
78847,37914
78040,37914
78007,37911
77980,37903
77956,37890
77934,37872
77917,37850
77903,37826
77895,37799
77892,37767
77892,37294
77895,37261
77903,37235
77917,37210
77934,37189
77956,37171
77980,37158
78007,37150
78040,37146
78847,37146
78879,37150
" /> 
<polyline style="fill-rule:evenodd;"
points="82879,37137
82906,37145
82931,37158
82952,37176
82970,37198
82983,37222
82991,37249
82994,37281
82994,37754
82991,37787
82983,37813
82970,37838
82952,37859
82931,37877
82906,37890
82879,37898
82847,37902
82040,37902
82007,37898
81980,37890
81956,37877
81934,37859
81917,37838
81903,37813
81895,37787
81892,37754
81892,37281
81895,37249
81903,37222
81917,37198
81934,37176
81956,37158
81980,37145
82007,37137
82040,37134
82847,37134
82879,37137
" /> 
<polyline style="fill-rule:evenodd;"
points="80879,37137
80906,37145
80931,37158
80952,37176
80970,37198
80983,37222
80991,37249
80994,37281
80994,37754
80991,37787
80983,37813
80970,37838
80952,37859
80931,37877
80906,37890
80879,37898
80847,37902
80040,37902
80007,37898
79980,37890
79956,37877
79934,37859
79917,37838
79903,37813
79895,37787
79892,37754
79892,37281
79895,37249
79903,37222
79917,37198
79934,37176
79956,37158
79980,37145
80007,37137
80040,37134
80847,37134
80879,37137
" /> 
<polyline style="fill-rule:evenodd;"
points="85405,37332
84146,37332
84146,36780
85405,36780
85405,37332
" /> 
<polyline style="fill-rule:evenodd;"
points="36433,35440
36559,35478
36675,35540
36777,35624
36861,35726
36923,35842
36961,35968
36974,36100
36961,36231
36923,36357
36861,36473
36777,36575
36675,36659
36559,36721
36433,36759
36334,36769
36032,36769
35934,36759
35808,36721
35691,36659
35590,36575
35506,36473
35444,36357
35406,36231
35393,36100
35406,35968
35444,35842
35506,35726
35590,35624
35691,35540
35808,35478
35934,35440
36032,35430
36334,35430
36433,35440
" /> 
<polyline style="fill-rule:evenodd;"
points="85405,36465
84146,36465
84146,35914
85405,35914
85405,36465
" /> 
<polyline style="fill-rule:evenodd;"
points="78879,35673
78906,35681
78931,35694
78952,35712
78970,35734
78983,35758
78991,35785
78994,35818
78994,36290
78991,36323
78983,36349
78970,36374
78952,36396
78931,36413
78906,36426
78879,36435
78847,36438
78040,36438
78007,36435
77980,36426
77956,36413
77934,36396
77917,36374
77903,36349
77895,36323
77892,36290
77892,35818
77895,35785
77903,35758
77917,35734
77934,35712
77956,35694
77980,35681
78007,35673
78040,35670
78847,35670
78879,35673
" /> 
<polyline style="fill-rule:evenodd;"
points="80879,35661
80906,35669
80931,35682
80952,35700
80970,35721
80983,35746
80991,35772
80994,35805
80994,36278
80991,36310
80983,36337
80970,36361
80952,36383
80931,36401
80906,36414
80879,36422
80847,36425
80040,36425
80007,36422
79980,36414
79956,36401
79934,36383
79917,36361
79903,36337
79895,36310
79892,36278
79892,35805
79895,35772
79903,35746
79917,35721
79934,35700
79956,35682
79980,35669
80007,35661
80040,35657
80847,35657
80879,35661
" /> 
<polyline style="fill-rule:evenodd;"
points="82879,35661
82906,35669
82931,35682
82952,35700
82970,35721
82983,35746
82991,35772
82994,35805
82994,36278
82991,36310
82983,36337
82970,36361
82952,36383
82931,36401
82906,36414
82879,36422
82847,36425
82040,36425
82007,36422
81980,36414
81956,36401
81934,36383
81917,36361
81903,36337
81895,36310
81892,36278
81892,35805
81895,35772
81903,35746
81917,35721
81934,35700
81956,35682
81980,35669
82007,35661
82040,35657
82847,35657
82879,35661
" /> 
<polyline style="fill-rule:evenodd;"
points="63006,36349
62376,36349
62376,35641
63006,35641
63006,36349
" /> 
<polyline style="fill-rule:evenodd;"
points="61510,36349
60880,36349
60880,35641
61510,35641
61510,36349
" /> 
<polyline style="fill-rule:evenodd;"
points="40918,34046
41009,34064
41152,34124
41281,34210
41391,34319
41477,34448
41536,34592
41539,34604
41567,34744
41567,34899
41555,34960
41536,35051
41477,35194
41391,35323
41281,35433
41152,35519
41009,35579
40918,35597
40857,35609
40702,35609
40641,35597
40550,35579
40406,35519
40277,35433
40168,35323
40081,35194
40022,35051
40004,34960
39992,34899
39992,34744
40020,34604
40022,34592
40081,34448
40168,34319
40277,34210
40406,34124
40550,34064
40641,34046
40702,34034
40857,34034
40918,34046
" /> 
<polyline style="fill-rule:evenodd;"
points="44461,34046
44552,34064
44696,34124
44824,34210
44934,34319
45020,34448
45080,34592
45082,34604
45110,34744
45110,34899
45098,34960
45080,35051
45020,35194
44934,35323
44824,35433
44696,35519
44552,35579
44461,35597
44400,35609
44245,35609
44184,35597
44093,35579
43950,35519
43821,35433
43711,35323
43625,35194
43565,35051
43547,34960
43535,34899
43535,34744
43563,34604
43565,34592
43625,34448
43711,34319
43821,34210
43950,34124
44093,34064
44184,34046
44245,34034
44400,34034
44461,34046
" /> 
<polyline style="fill-rule:evenodd;"
points="85405,35599
84146,35599
84146,35048
85405,35048
85405,35599
" /> 
<polyline style="fill-rule:evenodd;"
points="28312,34273
28416,34305
28511,34356
28595,34425
28664,34508
28715,34604
28747,34708
28757,34816
28747,34924
28715,35028
28664,35124
28595,35208
28511,35277
28416,35328
28312,35359
28231,35367
27074,35367
26993,35359
26889,35328
26794,35277
26710,35208
26641,35124
26590,35028
26558,34924
26547,34816
26558,34708
26590,34604
26641,34508
26710,34425
26794,34356
26889,34305
26993,34273
27074,34265
28231,34265
28312,34273
" /> 
<polyline style="fill-rule:evenodd;"
points="62258,34774
61628,34774
61628,34066
62258,34066
62258,34774
" /> 
<polyline style="fill-rule:evenodd;"
points="85405,34733
84146,34733
84146,34182
85405,34182
85405,34733
" /> 
<polyline style="fill-rule:evenodd;"
points="70895,30731
70895,30731
71313,31149
71313,31149
73122,32958
73122,32958
73540,33376
73540,33376
73944,33780
73275,34448
72900,34072
72900,34072
72426,33599
72426,33599
70673,31845
70673,31845
70199,31372
70199,31372
69823,30996
70492,30328
70895,30731
" /> 
<polyline style="fill-rule:evenodd;"
points="69211,30996
68835,31372
68362,31845
67917,32290
67026,33181
66608,33599
66135,34072
65759,34448
65091,33780
65495,33376
65495,33376
65912,32958
65912,32958
67722,31149
67722,31149
68139,30731
68139,30731
68543,30328
69211,30996
" /> 
<polyline style="fill-rule:evenodd;"
points="81890,33112
81917,33120
81942,33133
81963,33150
81981,33172
81994,33197
82002,33223
82005,33256
82005,34063
82002,34096
81994,34122
81981,34147
81963,34169
81942,34186
81917,34199
81890,34207
81858,34211
81385,34211
81353,34207
81326,34199
81301,34186
81280,34169
81262,34147
81249,34122
81241,34096
81238,34063
81238,33256
81241,33223
81249,33197
81262,33172
81280,33150
81301,33133
81326,33120
81353,33112
81385,33108
81858,33108
81890,33112
" /> 
<polyline style="fill-rule:evenodd;"
points="80414,33112
80441,33120
80465,33133
80487,33150
80504,33172
80518,33197
80526,33223
80529,33256
80529,34063
80526,34096
80518,34122
80504,34147
80487,34169
80465,34186
80441,34199
80414,34207
80381,34211
79909,34211
79876,34207
79849,34199
79825,34186
79803,34169
79786,34147
79772,34122
79764,34096
79761,34063
79761,33256
79764,33223
79772,33197
79786,33172
79803,33150
79825,33133
79849,33120
79876,33112
79909,33108
80381,33108
80414,33112
" /> 
<polyline style="fill-rule:evenodd;"
points="23250,32658
23379,32711
23495,32789
23594,32888
23671,33004
23725,33133
23752,33270
23752,33409
23725,33546
23671,33675
23594,33791
23495,33890
23379,33968
23250,34021
23113,34048
22973,34048
22837,34021
22708,33968
22591,33890
22493,33791
22415,33675
22362,33546
22335,33409
22335,33270
22362,33133
22415,33004
22493,32888
22591,32789
22708,32711
22837,32658
22973,32631
23113,32631
23250,32658
" /> 
<polyline style="fill-rule:evenodd;"
points="19752,34048
18335,34048
18335,32631
19752,32631
19752,34048
" /> 
<polyline style="fill-rule:evenodd;"
points="21250,32658
21379,32711
21495,32789
21594,32888
21671,33004
21725,33133
21752,33270
21752,33409
21725,33546
21671,33675
21594,33791
21495,33890
21379,33968
21250,34021
21113,34048
20973,34048
20837,34021
20708,33968
20591,33890
20493,33791
20415,33675
20362,33546
20335,33409
20335,33270
20362,33133
20415,33004
20493,32888
20591,32789
20708,32711
20837,32658
20973,32631
21113,32631
21250,32658
" /> 
<polyline style="fill-rule:evenodd;"
points="85405,33867
84146,33867
84146,33316
85405,33316
85405,33867
" /> 
<polyline style="fill-rule:evenodd;"
points="25320,31438
25423,31470
25519,31521
25603,31590
25672,31674
25723,31770
25755,31873
25763,31954
25763,33111
25755,33192
25723,33296
25672,33392
25603,33476
25519,33544
25423,33596
25320,33627
25211,33638
25103,33627
25000,33596
24904,33544
24820,33476
24751,33392
24700,33296
24668,33192
24660,33111
24660,31954
24668,31873
24700,31770
24751,31674
24820,31590
24904,31521
25000,31470
25103,31438
25211,31428
25320,31438
" /> 
<polyline style="fill-rule:evenodd;"
points="31437,32867
31464,32875
31489,32888
31510,32906
31528,32928
31541,32952
31549,32979
31552,33011
31552,33484
31549,33517
31541,33543
31528,33568
31510,33589
31489,33607
31464,33620
31437,33628
31405,33632
30598,33632
30565,33628
30538,33620
30514,33607
30492,33589
30475,33568
30461,33543
30453,33517
30450,33484
30450,33011
30453,32979
30461,32952
30475,32928
30492,32906
30514,32888
30538,32875
30565,32867
30598,32864
31405,32864
31437,32867
" /> 
<polyline style="fill-rule:evenodd;"
points="85405,33001
84146,33001
84146,32450
85405,32450
85405,33001
" /> 
<polyline style="fill-rule:evenodd;"
points="75611,31663
75638,31671
75663,31684
75688,31705
76022,32039
76043,32064
76056,32089
76064,32115
76067,32143
76064,32171
76056,32198
76043,32222
76022,32247
75451,32818
75426,32839
75401,32852
75375,32860
75347,32863
75319,32860
75292,32852
75268,32839
75243,32818
74908,32484
74888,32459
74874,32434
74866,32408
74864,32380
74866,32352
74874,32325
74888,32301
74908,32275
75479,31705
75505,31684
75529,31671
75556,31663
75584,31660
75611,31663
" /> 
<polyline style="fill-rule:evenodd;"
points="61690,31552
61717,31560
61741,31573
61763,31590
61780,31612
61794,31637
61802,31663
61805,31696
61805,32503
61802,32536
61794,32562
61780,32587
61763,32609
61741,32626
61717,32639
61690,32647
61657,32651
61185,32651
61152,32647
61125,32639
61101,32626
61079,32609
61062,32587
61048,32562
61040,32536
61037,32503
61037,31696
61040,31663
61048,31637
61062,31612
61079,31590
61101,31573
61125,31560
61152,31552
61185,31548
61657,31548
61690,31552
" /> 
<polyline style="fill-rule:evenodd;"
points="63166,31552
63193,31560
63218,31573
63239,31590
63257,31612
63270,31637
63278,31663
63281,31696
63281,32503
63278,32536
63270,32562
63257,32587
63239,32609
63218,32626
63193,32639
63166,32647
63134,32651
62661,32651
62629,32647
62602,32639
62577,32626
62556,32609
62538,32587
62525,32562
62517,32536
62514,32503
62514,31696
62517,31663
62525,31637
62538,31612
62556,31590
62577,31573
62602,31560
62629,31552
62661,31548
63134,31548
63166,31552
" /> 
<polyline style="fill-rule:evenodd;"
points="27296,30866
27418,30916
27528,30989
27621,31082
27694,31192
27745,31314
27771,31443
27771,31575
27745,31704
27694,31826
27621,31936
27528,32029
27418,32102
27296,32153
27167,32178
27035,32178
26906,32153
26784,32102
26675,32029
26581,31936
26508,31826
26458,31704
26432,31575
26432,31443
26458,31314
26508,31192
26581,31082
26675,30989
26784,30916
26906,30866
27035,30840
27167,30840
27296,30866
" /> 
<polyline style="fill-rule:evenodd;"
points="31437,31391
31464,31399
31489,31412
31510,31430
31528,31451
31541,31476
31549,31502
31552,31535
31552,32008
31549,32040
31541,32067
31528,32091
31510,32113
31489,32131
31464,32144
31437,32152
31405,32155
30598,32155
30565,32152
30538,32144
30514,32131
30492,32113
30475,32091
30461,32067
30453,32040
30450,32008
30450,31535
30453,31502
30461,31476
30475,31451
30492,31430
30514,31412
30538,31399
30565,31391
30598,31387
31405,31387
31437,31391
" /> 
<polyline style="fill-rule:evenodd;"
points="82589,30452
82680,30470
82824,30530
82952,30616
83062,30726
83148,30855
83208,30998
83220,31062
83238,31150
83238,31305
83226,31364
83208,31457
83148,31600
83062,31729
82952,31839
82824,31925
82680,31985
82589,32003
82528,32015
82373,32015
82312,32003
82221,31985
82078,31925
81949,31839
81839,31729
81753,31600
81693,31457
81675,31364
81663,31305
81663,31150
81681,31062
81693,30998
81753,30855
81839,30726
81949,30616
82078,30530
82221,30470
82312,30452
82373,30440
82528,30440
82589,30452
" /> 
<polyline style="fill-rule:evenodd;"
points="79046,30452
79137,30470
79280,30530
79409,30616
79519,30726
79605,30855
79664,30998
79677,31062
79695,31150
79695,31305
79683,31364
79664,31457
79605,31600
79519,31729
79409,31839
79280,31925
79137,31985
79046,32003
78985,32015
78830,32015
78769,32003
78678,31985
78534,31925
78405,31839
78296,31729
78209,31600
78150,31457
78131,31364
78120,31305
78120,31150
78137,31062
78150,30998
78209,30855
78296,30726
78405,30616
78534,30530
78678,30470
78769,30452
78830,30440
78985,30440
79046,30452
" /> 
<polyline style="fill-rule:evenodd;"
points="74567,30619
74594,30627
74619,30640
74644,30661
74978,30995
74999,31020
75012,31045
75020,31071
75023,31099
75020,31127
75012,31154
74999,31178
74978,31204
74407,31774
74382,31795
74357,31808
74331,31816
74303,31819
74275,31816
74249,31808
74224,31795
74199,31774
73864,31440
73844,31415
73831,31390
73822,31364
73820,31336
73822,31308
73831,31281
73844,31257
73864,31232
74435,30661
74461,30640
74485,30627
74512,30619
74540,30616
74567,30619
" /> 
<polyline style="fill-rule:evenodd;"
points="52779,31007
52307,31007
52307,29826
52779,29826
52779,31007
" /> 
<polyline style="fill-rule:evenodd;"
points="59779,31007
59307,31007
59307,29826
59779,29826
59779,31007
" /> 
<polyline style="fill-rule:evenodd;"
points="58779,31007
58307,31007
58307,29826
58779,29826
58779,31007
" /> 
<polyline style="fill-rule:evenodd;"
points="57779,31007
57307,31007
57307,29826
57779,29826
57779,31007
" /> 
<polyline style="fill-rule:evenodd;"
points="56779,31007
56307,31007
56307,29826
56779,29826
56779,31007
" /> 
<polyline style="fill-rule:evenodd;"
points="55779,31007
55307,31007
55307,29826
55779,29826
55779,31007
" /> 
<polyline style="fill-rule:evenodd;"
points="54779,31007
54307,31007
54307,29826
54779,29826
54779,31007
" /> 
<polyline style="fill-rule:evenodd;"
points="53779,31007
53307,31007
53307,29826
53779,29826
53779,31007
" /> 
<polyline style="fill-rule:evenodd;"
points="23196,30953
22251,30953
22251,30244
23196,30244
23196,30953
" /> 
<polyline style="fill-rule:evenodd;"
points="21336,30953
20391,30953
20391,30244
21336,30244
21336,30953
" /> 
<polyline style="fill-rule:evenodd;"
points="63150,29792
63177,29800
63202,29813
63223,29830
63241,29852
63254,29877
63262,29903
63265,29936
63265,30743
63262,30776
63254,30802
63241,30827
63223,30849
63202,30866
63177,30879
63150,30887
63118,30891
62645,30891
62613,30887
62586,30879
62561,30866
62540,30849
62522,30827
62509,30802
62501,30776
62498,30743
62498,29936
62501,29903
62509,29877
62522,29852
62540,29830
62561,29813
62586,29800
62613,29792
62645,29788
63118,29788
63150,29792
" /> 
<polyline style="fill-rule:evenodd;"
points="61674,29792
61701,29800
61725,29813
61747,29830
61764,29852
61778,29877
61786,29903
61789,29936
61789,30743
61786,30776
61778,30802
61764,30827
61747,30849
61725,30866
61701,30879
61674,30887
61641,30891
61169,30891
61136,30887
61109,30879
61085,30866
61063,30849
61046,30827
61032,30802
61024,30776
61021,30743
61021,29936
61024,29903
61032,29877
61046,29852
61063,29830
61085,29813
61109,29800
61136,29792
61169,29788
61641,29788
61674,29792
" /> 
<polyline style="fill-rule:evenodd;"
points="71945,29537
71971,29545
71996,29558
72021,29579
72592,30150
72613,30175
72626,30200
72634,30227
72637,30254
72634,30282
72626,30309
72613,30333
72592,30359
72258,30693
72233,30714
72208,30727
72181,30735
72154,30738
72126,30735
72099,30727
72075,30714
72049,30693
71478,30122
71458,30097
71445,30072
71436,30045
71434,30018
71436,29990
71445,29963
71458,29939
71478,29913
71813,29579
71838,29558
71863,29545
71889,29537
71917,29534
71945,29537
" /> 
<polyline style="fill-rule:evenodd;"
points="49658,30681
49028,30681
49028,29973
49658,29973
49658,30681
" /> 
<polyline style="fill-rule:evenodd;"
points="45216,30546
44271,30546
44271,28814
45216,28814
45216,30546
" /> 
<polyline style="fill-rule:evenodd;"
points="47011,30546
46066,30546
46066,28814
47011,28814
47011,30546
" /> 
<polyline style="fill-rule:evenodd;"
points="43420,30546
42476,30546
42476,28814
43420,28814
43420,30546
" /> 
<polyline style="fill-rule:evenodd;"
points="19519,29605
19546,29613
19571,29626
19592,29644
19610,29666
19623,29690
19631,29717
19634,29749
19634,30222
19631,30255
19623,30281
19610,30306
19592,30327
19571,30345
19546,30358
19519,30366
19487,30370
18680,30370
18647,30366
18620,30358
18596,30345
18574,30327
18557,30306
18543,30281
18535,30255
18532,30222
18532,29749
18535,29717
18543,29690
18557,29666
18574,29644
18596,29626
18620,29613
18647,29605
18680,29602
19487,29602
19519,29605
" /> 
<polyline style="fill-rule:evenodd;"
points="85720,29694
84618,29694
84618,28434
85720,28434
85720,29694
" /> 
<polyline style="fill-rule:evenodd;"
points="72989,28493
73015,28501
73040,28514
73065,28535
73636,29106
73657,29131
73670,29156
73678,29183
73681,29210
73678,29238
73670,29265
73657,29289
73636,29315
73302,29649
73277,29670
73252,29683
73225,29691
73198,29694
73170,29691
73143,29683
73119,29670
73093,29649
72522,29078
72502,29053
72488,29028
72480,29001
72478,28974
72480,28946
72488,28919
72502,28895
72522,28869
72857,28535
72882,28514
72906,28501
72933,28493
72961,28490
72989,28493
" /> 
<polyline style="fill-rule:evenodd;"
points="38061,28313
38085,28320
38108,28332
38127,28348
38143,28367
38155,28390
38162,28414
38165,28444
38165,29435
38162,29465
38155,29489
38143,29512
38127,29531
38108,29547
38085,29559
38061,29566
38031,29569
35937,29569
35907,29566
35883,29559
35861,29547
35841,29531
35825,29512
35813,29489
35806,29465
35803,29435
35803,28444
35806,28414
35813,28390
35825,28367
35841,28348
35861,28332
35883,28320
35907,28313
35937,28310
38031,28310
38061,28313
" /> 
<polyline style="fill-rule:evenodd;"
points="41526,28313
41550,28320
41572,28332
41592,28348
41608,28367
41620,28390
41627,28414
41630,28444
41630,29435
41627,29465
41620,29489
41608,29512
41592,29531
41572,29547
41550,29559
41526,29566
41496,29569
39402,29569
39372,29566
39348,29559
39325,29547
39306,29531
39290,29512
39278,29489
39271,29465
39268,29435
39268,28444
39271,28414
39278,28390
39290,28367
39306,28348
39325,28332
39348,28320
39372,28313
39402,28310
41496,28310
41526,28313
" /> 
<polyline style="fill-rule:evenodd;"
points="70805,28317
70831,28325
70856,28338
70881,28359
71452,28930
71473,28955
71486,28980
71494,29007
71497,29034
71494,29062
71486,29089
71473,29113
71452,29139
71118,29473
71093,29494
71068,29507
71041,29515
71014,29518
70986,29515
70959,29507
70935,29494
70909,29473
70338,28902
70318,28877
70305,28852
70296,28825
70294,28798
70296,28770
70305,28743
70318,28719
70338,28693
70673,28359
70698,28338
70723,28325
70749,28317
70777,28314
70805,28317
" /> 
<polyline style="fill-rule:evenodd;"
points="50406,29106
49776,29106
49776,28398
50406,28398
50406,29106
" /> 
<polyline style="fill-rule:evenodd;"
points="48910,29106
48280,29106
48280,28398
48910,28398
48910,29106
" /> 
<polyline style="fill-rule:evenodd;"
points="75824,28288
75156,28956
74153,27954
74822,27286
75824,28288
" /> 
<polyline style="fill-rule:evenodd;"
points="19519,28129
19546,28137
19571,28150
19592,28168
19610,28189
19623,28214
19631,28240
19634,28273
19634,28746
19631,28778
19623,28805
19610,28830
19592,28851
19571,28869
19546,28882
19519,28890
19487,28893
18680,28893
18647,28890
18620,28882
18596,28869
18574,28851
18557,28830
18543,28805
18535,28778
18532,28746
18532,28273
18535,28240
18543,28214
18557,28189
18574,28168
18596,28150
18620,28137
18647,28129
18680,28125
19487,28125
19519,28129
" /> 
<polyline style="fill-rule:evenodd;"
points="93594,28828
91862,28828
91862,27883
93594,27883
93594,28828
" /> 
<polyline style="fill-rule:evenodd;"
points="71849,27273
71875,27281
71900,27294
71925,27315
72496,27886
72517,27911
72530,27936
72538,27963
72541,27990
72538,28018
72530,28045
72517,28069
72496,28095
72162,28429
72137,28450
72112,28463
72085,28471
72058,28474
72030,28471
72003,28463
71979,28450
71953,28429
71382,27858
71362,27833
71348,27808
71340,27781
71338,27754
71340,27726
71348,27699
71362,27675
71382,27649
71717,27315
71742,27294
71766,27281
71793,27273
71821,27270
71849,27273
" /> 
<polyline style="fill-rule:evenodd;"
points="23196,28355
22251,28355
22251,27646
23196,27646
23196,28355
" /> 
<polyline style="fill-rule:evenodd;"
points="21336,28355
20391,28355
20391,27646
21336,27646
21336,28355
" /> 
<polyline style="fill-rule:evenodd;"
points="77160,26952
76492,27620
75490,26618
76158,25950
77160,26952
" /> 
<polyline style="fill-rule:evenodd;"
points="29084,25683
29084,25683
29084,25683
29174,25710
29257,25754
29329,25814
29349,25838
29388,25886
29422,25950
29433,25969
29445,26008
29460,26058
29467,26128
29467,27126
29460,27196
29433,27286
29432,27286
29388,27368
29329,27441
29257,27500
29174,27544
29084,27572
29084,27572
29084,27572
28991,27581
28898,27572
28898,27572
28898,27572
28808,27544
28726,27500
28653,27441
28594,27368
28550,27286
28549,27286
28522,27196
28515,27126
28515,26128
28522,26058
28522,26058
28549,25969
28594,25886
28653,25814
28704,25772
28726,25754
28808,25710
28808,25710
28898,25683
28898,25683
28898,25683
28991,25674
29084,25683
" /> 
<polyline style="fill-rule:evenodd;"
points="48874,26392
48901,26400
48925,26413
48947,26430
48964,26452
48978,26477
48986,26503
48989,26536
48989,27343
48986,27376
48978,27402
48964,27427
48947,27449
48925,27466
48901,27479
48874,27487
48841,27491
48369,27491
48336,27487
48309,27479
48285,27466
48263,27449
48246,27427
48232,27402
48224,27376
48221,27343
48221,26536
48224,26503
48232,26477
48246,26452
48263,26430
48285,26413
48309,26400
48336,26392
48369,26388
48841,26388
48874,26392
" /> 
<polyline style="fill-rule:evenodd;"
points="50350,26392
50377,26400
50402,26413
50423,26430
50441,26452
50454,26477
50462,26503
50465,26536
50465,27343
50462,27376
50454,27402
50441,27427
50423,27449
50402,27466
50377,27479
50350,27487
50318,27491
49845,27491
49813,27487
49786,27479
49761,27466
49740,27449
49722,27427
49709,27402
49701,27376
49698,27343
49698,26536
49701,26503
49709,26477
49722,26452
49740,26430
49761,26413
49786,26400
49813,26392
49845,26388
50318,26388
50350,26392
" /> 
<polyline style="fill-rule:evenodd;"
points="33493,26160
33620,26198
33736,26261
33838,26344
33921,26446
33983,26562
34022,26689
34035,26820
34022,26951
33983,27077
33921,27193
33838,27295
33736,27379
33620,27441
33493,27479
33395,27489
33093,27489
32995,27479
32869,27441
32752,27379
32650,27295
32567,27193
32505,27077
32466,26951
32453,26820
32466,26689
32505,26562
32567,26446
32650,26344
32752,26261
32869,26198
32995,26160
33093,26151
33395,26151
33493,26160
" /> 
<polyline style="fill-rule:evenodd;"
points="86979,26697
87006,26705
87031,26718
87052,26736
87070,26758
87083,26782
87091,26809
87094,26841
87094,27314
87091,27347
87083,27373
87070,27398
87052,27419
87031,27437
87006,27450
86979,27458
86947,27462
86140,27462
86107,27458
86080,27450
86056,27437
86034,27419
86017,27398
86003,27373
85995,27347
85992,27314
85992,26841
85995,26809
86003,26782
86017,26758
86034,26736
86056,26718
86080,26705
86107,26697
86140,26694
86947,26694
86979,26697
" /> 
<polyline style="fill-rule:evenodd;"
points="47027,27239
42460,27239
42460,22200
47027,22200
47027,27239
" /> 
<polyline style="fill-rule:evenodd;"
points="57124,27121
54762,27121
54762,24758
57124,24758
57124,27121
" /> 
<polyline style="fill-rule:evenodd;"
points="82581,25332
82680,25352
82824,25412
82952,25498
83062,25607
83148,25736
83208,25880
83222,25950
83234,26010
83238,26032
83238,26187
83208,26339
83148,26482
83062,26611
82952,26721
82824,26807
82680,26867
82589,26885
82528,26897
82373,26897
82312,26885
82221,26867
82078,26807
81949,26721
81839,26611
81753,26482
81693,26339
81663,26187
81663,26032
81668,26010
81679,25950
81693,25880
81753,25736
81839,25607
81949,25498
82078,25412
82221,25352
82321,25332
82373,25322
82528,25322
82581,25332
" /> 
<polyline style="fill-rule:evenodd;"
points="79037,25332
79137,25352
79280,25412
79409,25498
79519,25607
79605,25736
79664,25880
79678,25950
79690,26010
79695,26032
79695,26187
79664,26339
79605,26482
79519,26611
79409,26721
79280,26807
79137,26867
79046,26885
78985,26897
78830,26897
78769,26885
78678,26867
78534,26807
78405,26721
78296,26611
78209,26482
78150,26339
78120,26187
78120,26032
78124,26010
78136,25950
78150,25880
78209,25736
78296,25607
78405,25498
78534,25412
78678,25352
78777,25332
78830,25322
78985,25322
79037,25332
" /> 
<polyline style="fill-rule:evenodd;"
points="66094,25480
66221,25518
66337,25580
66439,25664
66522,25766
66585,25882
66623,26008
66636,26140
66623,26271
66585,26397
66522,26513
66439,26615
66337,26699
66221,26761
66094,26799
65996,26809
65930,26809
65832,26799
65706,26761
65590,26699
65488,26615
65404,26513
65342,26397
65304,26271
65291,26140
65304,26008
65342,25882
65404,25766
65488,25664
65590,25580
65706,25518
65832,25480
65930,25470
65996,25470
66094,25480
" /> 
<polyline style="fill-rule:evenodd;"
points="64633,26809
63294,26809
63294,25470
64633,25470
64633,26809
" /> 
<polyline style="fill-rule:evenodd;"
points="68094,25480
68221,25518
68337,25580
68439,25664
68522,25766
68585,25882
68623,26008
68636,26140
68623,26271
68585,26397
68522,26513
68439,26615
68337,26699
68221,26761
68094,26799
67996,26809
67930,26809
67832,26799
67706,26761
67590,26699
67488,26615
67404,26513
67342,26397
67304,26271
67291,26140
67304,26008
67342,25882
67404,25766
67488,25664
67590,25580
67706,25518
67832,25480
67930,25470
67996,25470
68094,25480
" /> 
<polyline style="fill-rule:evenodd;"
points="73597,26061
72929,26729
71926,25727
72595,25059
73597,26061
" /> 
<polyline style="fill-rule:evenodd;"
points="93923,22535
94278,22682
94310,22695
94562,22864
94658,22928
94955,23224
94955,23224
95174,23553
95187,23572
95348,23959
95429,24370
95429,24789
95348,25200
95187,25587
95187,25587
95064,25771
94955,25935
94658,26231
94658,26231
94310,26464
94310,26464
94310,26464
93923,26624
93513,26705
93094,26705
92683,26624
92296,26464
92296,26464
92296,26464
91948,26231
91948,26231
91652,25935
91543,25771
91419,25587
91419,25587
91259,25200
91177,24789
91177,24370
91259,23959
91419,23572
91432,23553
91652,23224
91652,23224
91948,22928
92044,22864
92296,22695
92328,22682
92683,22535
93094,22454
93513,22454
93923,22535
" /> 
<polyline style="fill-rule:evenodd;"
points="27296,25354
27418,25404
27528,25477
27621,25571
27694,25680
27745,25802
27771,25931
27771,26063
27745,26193
27694,26314
27621,26424
27528,26517
27418,26590
27296,26641
27167,26667
27035,26667
26906,26641
26784,26590
26675,26517
26581,26424
26508,26314
26458,26193
26432,26063
26432,25931
26458,25802
26508,25680
26581,25571
26675,25477
26784,25404
26906,25354
27035,25328
27167,25328
27296,25354
" /> 
<polyline style="fill-rule:evenodd;"
points="21203,22435
21558,22582
21590,22595
21720,22682
21938,22828
22235,23124
22235,23124
22466,23471
22467,23472
22628,23859
22709,24270
22709,24689
22628,25100
22477,25463
22467,25487
22287,25756
22235,25835
21938,26131
21938,26131
21590,26364
21590,26364
21590,26364
21203,26524
20793,26605
20374,26605
19963,26524
19576,26364
19576,26364
19576,26364
19228,26131
19228,26131
18932,25835
18879,25756
18699,25487
18689,25463
18539,25100
18457,24689
18457,24270
18539,23859
18699,23472
18700,23471
18932,23124
18932,23124
19228,22828
19446,22682
19576,22595
19608,22582
19963,22435
20374,22354
20793,22354
21203,22435
" /> 
<polyline style="fill-rule:evenodd;"
points="25305,24187
25305,24187
25305,24187
25394,24214
25477,24258
25549,24318
25568,24340
25609,24390
25609,24390
25653,24473
25680,24562
25680,24562
25687,24632
25687,25630
25680,25700
25680,25700
25680,25700
25653,25790
25609,25872
25549,25945
25477,26004
25394,26048
25305,26075
25305,26075
25305,26075
25211,26085
25118,26075
25118,26075
25118,26075
25029,26048
24946,26004
24874,25945
24814,25872
24770,25790
24743,25700
24743,25700
24743,25700
24736,25630
24736,24632
24743,24562
24743,24562
24770,24473
24814,24390
24874,24318
24921,24279
24946,24258
25029,24214
25029,24214
25118,24187
25118,24187
25118,24187
25211,24178
25305,24187
" /> 
<polyline style="fill-rule:evenodd;"
points="86979,25221
87006,25229
87031,25242
87052,25260
87070,25281
87083,25306
87091,25332
87094,25365
87094,25838
87091,25870
87083,25897
87070,25921
87052,25943
87031,25961
87006,25974
86979,25982
86947,25985
86140,25985
86107,25982
86080,25974
86056,25961
86034,25943
86017,25921
86003,25897
85995,25870
85992,25838
85992,25365
85995,25332
86003,25306
86017,25281
86034,25260
86056,25242
86080,25229
86107,25221
86140,25217
86947,25217
86979,25221
" /> 
<polyline style="fill-rule:evenodd;"
points="50350,24792
50377,24800
50402,24813
50423,24830
50441,24852
50454,24877
50462,24903
50465,24936
50465,25743
50462,25776
50454,25802
50441,25827
50423,25849
50402,25866
50377,25879
50350,25887
50318,25891
49845,25891
49813,25887
49786,25879
49761,25866
49740,25849
49722,25827
49709,25802
49701,25776
49698,25743
49698,24936
49701,24903
49709,24877
49722,24852
49740,24830
49761,24813
49786,24800
49813,24792
49845,24788
50318,24788
50350,24792
" /> 
<polyline style="fill-rule:evenodd;"
points="48874,24792
48901,24800
48925,24813
48947,24830
48964,24852
48978,24877
48986,24903
48989,24936
48989,25743
48986,25776
48978,25802
48964,25827
48947,25849
48925,25866
48901,25879
48874,25887
48841,25891
48369,25891
48336,25887
48309,25879
48285,25866
48263,25849
48246,25827
48232,25802
48224,25776
48221,25743
48221,24936
48224,24903
48232,24877
48246,24852
48263,24830
48285,24813
48309,24800
48336,24792
48369,24788
48841,24788
48874,24792
" /> 
<polyline style="fill-rule:evenodd;"
points="33929,24185
33953,24192
33975,24204
33994,24220
34010,24239
34021,24261
34029,24285
34031,24314
34031,25388
34029,25418
34021,25442
34010,25464
33994,25483
33975,25499
33953,25510
33929,25518
33899,25521
32589,25521
32559,25518
32535,25510
32514,25499
32494,25483
32478,25464
32467,25442
32460,25418
32457,25388
32457,24314
32460,24285
32467,24261
32478,24239
32494,24220
32514,24204
32535,24192
32559,24185
32589,24182
33899,24182
33929,24185
" /> 
<polyline style="fill-rule:evenodd;"
points="74933,24725
74265,25393
73263,24391
73931,23723
74933,24725
" /> 
<polyline style="fill-rule:evenodd;"
points="29084,23478
29084,23478
29084,23478
29174,23505
29257,23550
29329,23609
29355,23641
29388,23681
29426,23752
29433,23764
29443,23799
29460,23854
29467,23924
29467,24921
29460,24991
29460,24991
29460,24991
29433,25081
29388,25164
29329,25236
29257,25295
29174,25340
29084,25367
29084,25367
29084,25367
28991,25376
28898,25367
28898,25367
28898,25367
28808,25340
28726,25295
28653,25236
28594,25164
28549,25081
28522,24991
28522,24991
28522,24991
28515,24921
28515,23924
28522,23854
28522,23854
28549,23764
28594,23681
28653,23609
28698,23572
28726,23550
28808,23505
28808,23505
28898,23478
28898,23478
28898,23478
28991,23469
29084,23478
" /> 
<polyline style="fill-rule:evenodd;"
points="41526,23634
41550,23641
41572,23653
41592,23669
41608,23689
41620,23711
41627,23735
41630,23765
41630,24757
41627,24787
41620,24811
41608,24833
41592,24853
41572,24869
41550,24880
41526,24888
41496,24891
39402,24891
39372,24888
39348,24880
39325,24869
39306,24853
39290,24833
39278,24811
39271,24787
39268,24757
39268,23765
39271,23735
39278,23711
39290,23689
39306,23669
39325,23653
39348,23641
39372,23634
39402,23631
41496,23631
41526,23634
" /> 
<polyline style="fill-rule:evenodd;"
points="38061,23634
38085,23641
38108,23653
38127,23669
38143,23689
38155,23711
38162,23735
38165,23765
38165,24757
38162,24787
38155,24811
38143,24833
38127,24853
38108,24869
38085,24880
38061,24888
38031,24891
35937,24891
35907,24888
35883,24880
35861,24869
35841,24853
35825,24833
35813,24811
35806,24787
35803,24757
35803,23765
35806,23735
35813,23711
35825,23689
35841,23669
35861,23653
35883,23641
35907,23634
35937,23631
38031,23631
38061,23634
" /> 
<polyline style="fill-rule:evenodd;"
points="66094,23480
66221,23518
66337,23580
66439,23664
66522,23766
66585,23882
66623,24008
66636,24140
66623,24271
66585,24397
66522,24513
66439,24615
66337,24699
66221,24761
66094,24799
65996,24809
65930,24809
65832,24799
65706,24761
65590,24699
65488,24615
65404,24513
65342,24397
65304,24271
65291,24140
65304,24008
65342,23882
65404,23766
65488,23664
65590,23580
65706,23518
65832,23480
65930,23470
65996,23470
66094,23480
" /> 
<polyline style="fill-rule:evenodd;"
points="64094,23480
64221,23518
64337,23580
64439,23664
64522,23766
64585,23882
64623,24008
64636,24140
64623,24271
64585,24397
64522,24513
64439,24615
64337,24699
64221,24761
64094,24799
63996,24809
63930,24809
63832,24799
63706,24761
63590,24699
63488,24615
63404,24513
63342,24397
63304,24271
63291,24140
63304,24008
63342,23882
63404,23766
63488,23664
63590,23580
63706,23518
63832,23480
63930,23470
63996,23470
64094,23480
" /> 
<polyline style="fill-rule:evenodd;"
points="68094,23480
68221,23518
68337,23580
68439,23664
68522,23766
68585,23882
68623,24008
68636,24140
68623,24271
68585,24397
68522,24513
68439,24615
68337,24699
68221,24761
68094,24799
67996,24809
67930,24809
67832,24799
67706,24761
67590,24699
67488,24615
67404,24513
67342,24397
67304,24271
67291,24140
67304,24008
67342,23882
67404,23766
67488,23664
67590,23580
67706,23518
67832,23480
67930,23470
67996,23470
68094,23480
" /> 
<polyline style="fill-rule:evenodd;"
points="50350,23192
50377,23200
50402,23213
50423,23230
50441,23252
50454,23277
50462,23303
50465,23336
50465,24143
50462,24176
50454,24202
50441,24227
50423,24249
50402,24266
50377,24279
50350,24287
50318,24291
49845,24291
49813,24287
49786,24279
49761,24266
49740,24249
49722,24227
49709,24202
49701,24176
49698,24143
49698,23336
49701,23303
49709,23277
49722,23252
49740,23230
49761,23213
49786,23200
49813,23192
49845,23188
50318,23188
50350,23192
" /> 
<polyline style="fill-rule:evenodd;"
points="48874,23192
48901,23200
48925,23213
48947,23230
48964,23252
48978,23277
48986,23303
48989,23336
48989,24143
48986,24176
48978,24202
48964,24227
48947,24249
48925,24266
48901,24279
48874,24287
48841,24291
48369,24291
48336,24287
48309,24279
48285,24266
48263,24249
48246,24227
48232,24202
48224,24176
48221,24143
48221,23336
48224,23303
48232,23277
48246,23252
48263,23230
48285,23213
48309,23200
48336,23192
48369,23188
48841,23188
48874,23192
" /> 
<polyline style="fill-rule:evenodd;"
points="76474,22680
76601,22718
76717,22780
76819,22864
76902,22966
76965,23082
77003,23208
77016,23340
77003,23471
76965,23597
76902,23713
76819,23815
76717,23899
76601,23961
76474,23999
76376,24009
76310,24009
76212,23999
76086,23961
75970,23899
75868,23815
75784,23713
75722,23597
75684,23471
75671,23340
75684,23208
75722,23082
75784,22966
75868,22864
75970,22780
76086,22718
76212,22680
76310,22670
76376,22670
76474,22680
" /> 
<polyline style="fill-rule:evenodd;"
points="78474,22680
78601,22718
78717,22780
78819,22864
78902,22966
78965,23082
79003,23208
79016,23340
79003,23471
78965,23597
78902,23713
78819,23815
78717,23899
78601,23961
78474,23999
78376,24009
78310,24009
78212,23999
78086,23961
77970,23899
77868,23815
77784,23713
77722,23597
77684,23471
77671,23340
77684,23208
77722,23082
77784,22966
77868,22864
77970,22780
78086,22718
78212,22680
78310,22670
78376,22670
78474,22680
" /> 
<polyline style="fill-rule:evenodd;"
points="80474,22680
80601,22718
80717,22780
80819,22864
80902,22966
80965,23082
81003,23208
81016,23340
81003,23471
80965,23597
80902,23713
80819,23815
80717,23899
80601,23961
80474,23999
80376,24009
80310,24009
80212,23999
80086,23961
79970,23899
79868,23815
79784,23713
79722,23597
79684,23471
79671,23340
79684,23208
79722,23082
79784,22966
79868,22864
79970,22780
80086,22718
80212,22680
80310,22670
80376,22670
80474,22680
" /> 
<polyline style="fill-rule:evenodd;"
points="82474,22680
82601,22718
82717,22780
82819,22864
82902,22966
82965,23082
83003,23208
83016,23340
83003,23471
82965,23597
82902,23713
82819,23815
82717,23899
82601,23961
82474,23999
82376,24009
82310,24009
82212,23999
82086,23961
81970,23899
81868,23815
81784,23713
81722,23597
81684,23471
81671,23340
81684,23208
81722,23082
81784,22966
81868,22864
81970,22780
82086,22718
82212,22680
82310,22670
82376,22670
82474,22680
" /> 
<polyline style="fill-rule:evenodd;"
points="84474,22680
84601,22718
84717,22780
84819,22864
84902,22966
84965,23082
85003,23208
85016,23340
85003,23471
84965,23597
84902,23713
84819,23815
84717,23899
84601,23961
84474,23999
84376,24009
84310,24009
84212,23999
84086,23961
83970,23899
83868,23815
83784,23713
83722,23597
83684,23471
83671,23340
83684,23208
83722,23082
83784,22966
83868,22864
83970,22780
84086,22718
84212,22680
84310,22670
84376,22670
84474,22680
" /> 
<polyline style="fill-rule:evenodd;"
points="87013,24009
85674,24009
85674,22670
87013,22670
87013,24009
" /> 
<polyline style="fill-rule:evenodd;"
points="24675,21982
24675,21982
24675,21982
24764,22009
24847,22053
24919,22113
24952,22153
24979,22185
25023,22268
25050,22358
25057,22427
25057,23425
25050,23495
25050,23495
25050,23495
25023,23585
24979,23668
24919,23740
24847,23799
24764,23844
24675,23871
24675,23871
24675,23871
24582,23880
24488,23871
24488,23871
24488,23871
24399,23844
24316,23799
24244,23740
24184,23668
24140,23585
24113,23495
24113,23495
24113,23495
24106,23425
24106,22427
24113,22358
24113,22358
24140,22268
24184,22185
24244,22113
24283,22080
24316,22053
24399,22009
24399,22009
24488,21982
24488,21982
24488,21982
24582,21973
24675,21982
" /> 
<polyline style="fill-rule:evenodd;"
points="82941,15637
83120,15711
83281,15819
83418,15956
83526,16117
83600,16296
83638,16487
83638,16681
83600,16871
83526,17050
83418,17211
83281,17348
83120,17456
82941,17530
82750,17568
82557,17568
82366,17530
82187,17456
82026,17348
81889,17211
81781,17050
81707,16871
81669,16681
81669,16487
81707,16296
81781,16117
81889,15956
82026,15819
82187,15711
82366,15637
82557,15599
82750,15599
82941,15637
" /> 
<polyline style="fill-rule:evenodd;"
points="27822,15637
28002,15711
28163,15819
28300,15956
28408,16117
28482,16296
28520,16487
28520,16681
28482,16871
28408,17050
28300,17211
28163,17348
28002,17456
27822,17530
27632,17568
27438,17568
27248,17530
27069,17456
26908,17348
26771,17211
26663,17050
26589,16871
26551,16681
26551,16487
26589,16296
26663,16117
26771,15956
26908,15819
27069,15711
27248,15637
27438,15599
27632,15599
27822,15637
" /> 
</g> 
</svg>
