<?xml version="1.0" standalone="no"?>
 <!DOCTYPE svg PUBLIC "-//W3C//DTD SVG 1.1//EN" 
 "http://www.w3.org/Graphics/SVG/1.1/DTD/svg11.dtd"> 
<svg xmlns="http://www.w3.org/2000/svg" version="1.1" 
    width="29.7002cm" height="21.0007cm" viewBox="0 0 116930 82680 ">
<title>SVG Picture created as ThermocoupleLogger-B_Paste.svg date 2019/03/14 18:04:39 </title>
  <desc>Picture generated by PCBNEW </desc>
<g style="fill:#000000; fill-opacity:1;stroke:#000000; stroke-opacity:1;
stroke-linecap:round; stroke-linejoin:round; "
 transform="translate(0 0) scale(1 1)">
</g>
<g style="fill:#000000; fill-opacity:0.0; 
stroke:#000000; stroke-width:-0.000787402; stroke-opacity:1; 
stroke-linecap:round; stroke-linejoin:round;">
</g>
<g style="fill:#000000; fill-opacity:0.0; 
stroke:#000000; stroke-width:157.48; stroke-opacity:1; 
stroke-linecap:round; stroke-linejoin:round;">
<path d="M20386 62899
L20386 67324
" />
<path d="M99186 67332
L20390 67332
" />
<path d="M86465 21607
L99181 21607
" />
<path d="M99186 62940
L99186 67340
" />
<path d="M33226 62900
L51466 62900
" />
<path d="M29496 62900
L20386 62900
" />
<path d="M29536 60900
L20446 60900
" />
<path d="M51466 60900
L33226 60900
" />
<path d="M55102 62909
L92462 62909
" />
<path d="M92456 60910
L55096 60910
" />
<path d="M96086 60920
L99186 60920
" />
<path d="M96116 62920
L99189 62938
" />
<path d="M96093.7 60920.7 A1000.2 1000.2 0.0 0 0 96116.3 62920 " />
<path d="M92462.9 62909.9 A1000 1000 0.0 0 0 92446.3 60910 " />
<path d="M55095 60910.2 A1000 1000 0.0 0 0 55116.3 62910 " />
<path d="M51464.5 62900 A1000.2 1000.2 0.0 1 0 51466.3 60900 " />
<path d="M33216.3 60899.8 A1000.2 1000.2 0.0 1 0 33236.3 62900 " />
<path d="M29506.3 62900 A1000.2 1000.2 0.0 0 0 29545.5 60900 " />
<path d="M25546.3 21540.8 A1000.8 1000.8 0.0 0 0 25586.3 19540 " />
<path d="M61806.3 19580 A1000.8 1000.8 0.0 1 0 61806.3 21580 " />
<path d="M99226 19560
L99226 19560
" />
<path d="M86466 19560
L99226 19560
" />
<path d="M82806 21580
L61806 21580
" />
<path d="M61826 19580
L82786 19580
" />
<path d="M86466.3 19560 A1020 1020 0.0 0 0 86466.3 21600 " />
<path d="M82806.3 21580.2 A1000.2 1000.2 0.0 1 0 82786.3 19580 " />
<path d="M29206 21570
L58036 21570
" />
<path d="M58186 19590
L29176 19590
" />
<path d="M58066.3 21560 A990.202 990.202 0.0 1 0 58106.3 19580 " />
<path d="M25535 21544
L20449 21552
" />
<path d="M20486 19540
L25586 19540
" />
<path d="M20486 14340
L20486 19540
" />
<path d="M29198.2 19588 A996 996 0.0 0 0 29206.3 21580 " />
<path d="M99226 14320
L20496 14324
" />
<path d="M99226 19560
L99226 14320
" />
<path d="M99186 60920
L99186 21610
" />
<path d="M20446 60900
L20446 21569
" />
</g>
<g style="fill:#000000; fill-opacity:0.0; 
stroke:#000000; stroke-width:0; stroke-opacity:1; 
stroke-linecap:round; stroke-linejoin:round;">
</g>
<g style="fill:#000000; fill-opacity:1.0; 
stroke:#000000; stroke-width:0; stroke-opacity:1; 
stroke-linecap:round; stroke-linejoin:round;">
<polyline style="fill-rule:evenodd;"
points="44647,34241
44628,34243
44610,34248
44592,34254
44575,34262
44559,34272
44544,34283
44530,34296
44258,34567
44246,34581
44234,34597
44225,34613
44217,34630
44210,34647
44206,34666
44203,34684
44202,34703
44203,34722
44206,34741
44210,34759
44217,34777
44225,34794
44234,34810
44246,34825
44258,34839
44766,35347
44780,35360
44795,35371
44812,35380
44829,35389
44846,35395
44865,35399
44883,35402
44902,35403
44921,35402
44940,35399
44958,35395
44976,35389
44993,35380
45009,35371
45024,35360
45038,35347
45309,35076
45322,35062
45333,35046
45343,35030
45351,35013
45357,34996
45362,34977
45365,34959
45365,34940
45365,34921
45362,34902
45357,34884
45351,34866
45343,34849
45333,34833
45322,34818
45309,34804
44801,34296
44787,34283
44772,34272
44756,34262
44739,34254
44721,34248
44703,34243
44684,34241
44665,34240
44647,34241
" /> 
<polyline style="fill-rule:evenodd;"
points="45691,33197
45672,33200
45654,33204
45636,33210
45619,33219
45603,33228
45588,33239
45574,33252
45302,33523
45290,33537
45278,33553
45269,33569
45261,33586
45254,33603
45250,33622
45247,33640
45246,33659
45247,33678
45250,33697
45254,33715
45261,33733
45269,33750
45278,33766
45290,33781
45302,33795
45810,34303
45824,34316
45839,34327
45856,34337
45873,34345
45890,34351
45909,34356
45927,34358
45946,34359
45965,34358
45983,34356
46002,34351
46020,34345
46037,34337
46053,34327
46068,34316
46082,34303
46353,34032
46366,34018
46377,34002
46387,33986
46395,33969
46401,33952
46406,33933
46408,33915
46409,33896
46408,33877
46406,33858
46401,33840
46395,33822
46387,33805
46377,33789
46366,33774
46353,33760
45845,33252
45831,33239
45816,33228
45800,33219
45783,33210
45765,33204
45747,33200
45728,33197
45709,33196
45691,33197
" /> 
<polyline style="fill-rule:evenodd;"
points="46587,32281
46568,32283
46550,32288
46532,32294
46515,32302
46499,32312
46484,32323
46470,32336
46198,32607
46186,32621
46174,32637
46165,32653
46157,32670
46150,32687
46146,32706
46143,32724
46142,32743
46143,32762
46146,32781
46150,32799
46157,32817
46165,32834
46174,32850
46186,32865
46198,32879
46706,33387
46720,33400
46735,33411
46752,33420
46769,33429
46786,33435
46805,33439
46823,33442
46842,33443
46861,33442
46880,33439
46898,33435
46916,33429
46933,33420
46949,33411
46964,33400
46978,33387
47249,33116
47262,33102
47273,33086
47283,33070
47291,33053
47297,33036
47302,33017
47305,32999
47305,32980
47305,32961
47302,32942
47297,32924
47291,32906
47283,32889
47273,32873
47262,32858
47249,32844
46741,32336
46727,32323
46712,32312
46696,32302
46679,32294
46661,32288
46643,32283
46624,32281
46605,32280
46587,32281
" /> 
<polyline style="fill-rule:evenodd;"
points="47631,31237
47612,31240
47594,31244
47576,31250
47559,31259
47543,31268
47528,31279
47514,31292
47242,31563
47230,31577
47218,31593
47209,31609
47201,31626
47194,31643
47190,31662
47187,31680
47186,31699
47187,31718
47190,31737
47194,31755
47201,31773
47209,31790
47218,31806
47230,31821
47242,31835
47750,32343
47764,32356
47779,32367
47796,32377
47813,32385
47830,32391
47849,32396
47867,32398
47886,32399
47905,32398
47923,32396
47942,32391
47960,32385
47977,32377
47993,32367
48008,32356
48022,32343
48293,32072
48306,32058
48317,32042
48327,32026
48335,32009
48341,31992
48346,31973
48348,31955
48349,31936
48348,31917
48346,31898
48341,31880
48335,31862
48327,31845
48317,31829
48306,31814
48293,31800
47785,31292
47771,31279
47756,31268
47740,31259
47723,31250
47705,31244
47687,31240
47668,31237
47649,31236
47631,31237
" /> 
<circle cx="89394.1" cy="16584.1" r="984.252" /> 
</g>
<g style="fill:#000000; fill-opacity:1.0; 
stroke:#000000; stroke-width:118.11; stroke-opacity:1; 
stroke-linecap:round; stroke-linejoin:round;">
</g>
<g style="fill:#000000; fill-opacity:1.0; 
stroke:#000000; stroke-width:0; stroke-opacity:1; 
stroke-linecap:round; stroke-linejoin:round;">
<circle cx="34276" cy="16584.1" r="984.252" /> 
</g>
<g style="fill:#000000; fill-opacity:1.0; 
stroke:#000000; stroke-width:118.11; stroke-opacity:1; 
stroke-linecap:round; stroke-linejoin:round;">
</g>
<g style="fill:#000000; fill-opacity:1.0; 
stroke:#000000; stroke-width:0; stroke-opacity:1; 
stroke-linecap:round; stroke-linejoin:round;">
<circle cx="89394.1" cy="63828.2" r="984.252" /> 
</g>
<g style="fill:#000000; fill-opacity:1.0; 
stroke:#000000; stroke-width:118.11; stroke-opacity:1; 
stroke-linecap:round; stroke-linejoin:round;">
</g>
<g style="fill:#000000; fill-opacity:1.0; 
stroke:#000000; stroke-width:0; stroke-opacity:1; 
stroke-linecap:round; stroke-linejoin:round;">
<circle cx="26402" cy="63828.2" r="984.252" /> 
</g>
<g style="fill:#000000; fill-opacity:1.0; 
stroke:#000000; stroke-width:118.11; stroke-opacity:1; 
stroke-linecap:round; stroke-linejoin:round;">
</g> 
</svg>
