<?xml version="1.0" standalone="no"?>
 <!DOCTYPE svg PUBLIC "-//W3C//DTD SVG 1.1//EN" 
 "http://www.w3.org/Graphics/SVG/1.1/DTD/svg11.dtd"> 
<svg xmlns="http://www.w3.org/2000/svg" version="1.1" 
    width="29.7002cm" height="21.0007cm" viewBox="0 0 116930 82680 ">
<title>SVG Picture created as ThermocoupleLogger-B_Mask.svg date 2019/03/14 18:04:39 </title>
  <desc>Picture generated by PCBNEW </desc>
<g style="fill:#000000; fill-opacity:1;stroke:#000000; stroke-opacity:1;
stroke-linecap:round; stroke-linejoin:round; "
 transform="translate(0 0) scale(1 1)">
</g>
<g style="fill:#000000; fill-opacity:0.0; 
stroke:#000000; stroke-width:-0.000787402; stroke-opacity:1; 
stroke-linecap:round; stroke-linejoin:round;">
</g>
<g style="fill:#000000; fill-opacity:0.0; 
stroke:#000000; stroke-width:157.48; stroke-opacity:1; 
stroke-linecap:round; stroke-linejoin:round;">
<path d="M20386 62899
L20386 67324
" />
<path d="M99186 67332
L20390 67332
" />
<path d="M86465 21607
L99181 21607
" />
<path d="M99186 62940
L99186 67340
" />
<path d="M33226 62900
L51466 62900
" />
<path d="M29496 62900
L20386 62900
" />
<path d="M29536 60900
L20446 60900
" />
<path d="M51466 60900
L33226 60900
" />
<path d="M55102 62909
L92462 62909
" />
<path d="M92456 60910
L55096 60910
" />
<path d="M96086 60920
L99186 60920
" />
<path d="M96116 62920
L99189 62938
" />
<path d="M96093.7 60920.7 A1000.2 1000.2 0.0 0 0 96116.3 62920 " />
<path d="M92462.9 62909.9 A1000 1000 0.0 0 0 92446.3 60910 " />
<path d="M55095 60910.2 A1000 1000 0.0 0 0 55116.3 62910 " />
<path d="M51464.5 62900 A1000.2 1000.2 0.0 1 0 51466.3 60900 " />
<path d="M33216.3 60899.8 A1000.2 1000.2 0.0 1 0 33236.3 62900 " />
<path d="M29506.3 62900 A1000.2 1000.2 0.0 0 0 29545.5 60900 " />
<path d="M25546.3 21540.8 A1000.8 1000.8 0.0 0 0 25586.3 19540 " />
<path d="M61806.3 19580 A1000.8 1000.8 0.0 1 0 61806.3 21580 " />
<path d="M99226 19560
L99226 19560
" />
<path d="M86466 19560
L99226 19560
" />
<path d="M82806 21580
L61806 21580
" />
<path d="M61826 19580
L82786 19580
" />
<path d="M86466.3 19560 A1020 1020 0.0 0 0 86466.3 21600 " />
<path d="M82806.3 21580.2 A1000.2 1000.2 0.0 1 0 82786.3 19580 " />
<path d="M29206 21570
L58036 21570
" />
<path d="M58186 19590
L29176 19590
" />
<path d="M58066.3 21560 A990.202 990.202 0.0 1 0 58106.3 19580 " />
<path d="M25535 21544
L20449 21552
" />
<path d="M20486 19540
L25586 19540
" />
<path d="M20486 14340
L20486 19540
" />
<path d="M29198.2 19588 A996 996 0.0 0 0 29206.3 21580 " />
<path d="M99226 14320
L20496 14324
" />
<path d="M99226 19560
L99226 14320
" />
<path d="M99186 60920
L99186 21610
" />
<path d="M20446 60900
L20446 21569
" />
</g>
<g style="fill:#000000; fill-opacity:1.0; 
stroke:#000000; stroke-width:0; stroke-opacity:1; 
stroke-linecap:round; stroke-linejoin:round;">
<polyline style="fill-rule:evenodd;"
points="26114,62881
25935,62955
25774,63063
25637,63200
25529,63361
25455,63541
25417,63731
25417,63925
25455,64115
25529,64294
25637,64455
25774,64592
25935,64700
26114,64774
26305,64812
26498,64812
26689,64774
26868,64700
27029,64592
27166,64455
27274,64294
27348,64115
27386,63925
27386,63731
27348,63541
27274,63361
27166,63200
27029,63063
26868,62955
26689,62881
26498,62843
26305,62843
26114,62881
" /> 
<polyline style="fill-rule:evenodd;"
points="89107,62881
88927,62955
88766,63063
88629,63200
88521,63361
88447,63541
88409,63731
88409,63925
88447,64115
88521,64294
88629,64455
88766,64592
88927,64700
89107,64774
89297,64812
89491,64812
89681,64774
89860,64700
90021,64592
90158,64455
90266,64294
90340,64115
90378,63925
90378,63731
90340,63541
90266,63361
90158,63200
90021,63063
89860,62955
89681,62881
89491,62843
89297,62843
89107,62881
" /> 
<polyline style="fill-rule:evenodd;"
points="22766,55295
22411,55442
22379,55455
22363,55466
22031,55688
21734,55984
21502,56332
21341,56719
21260,57130
21260,57549
21341,57960
21502,58347
21734,58695
22031,58991
22031,58991
22379,59224
22379,59224
22379,59224
22766,59384
23176,59465
23595,59465
24006,59384
24393,59224
24393,59224
24393,59224
24741,58991
24741,58991
25037,58695
25270,58347
25430,57960
25512,57549
25512,57130
25430,56719
25270,56332
25037,55984
24741,55688
24408,55466
24393,55455
24361,55442
24006,55295
23595,55214
23176,55214
22766,55295
" /> 
<polyline style="fill-rule:evenodd;"
points="95766,55295
95411,55442
95379,55455
95363,55466
95031,55688
94734,55984
94502,56332
94341,56719
94260,57130
94260,57549
94341,57960
94502,58347
94734,58695
95031,58991
95031,58991
95379,59224
95379,59224
95379,59224
95766,59384
96176,59465
96595,59465
97006,59384
97393,59224
97393,59224
97393,59224
97741,58991
97741,58991
98037,58695
98270,58347
98430,57960
98512,57549
98512,57130
98430,56719
98270,56332
98037,55984
97741,55688
97408,55466
97393,55455
97361,55442
97006,55295
96595,55214
96176,55214
95766,55295
" /> 
<polyline style="fill-rule:evenodd;"
points="85141,51473
85117,51480
85095,51492
85076,51508
85060,51527
85048,51549
85041,51573
85038,51602
85038,52677
85041,52706
85048,52730
85060,52752
85076,52771
85095,52787
85117,52799
85141,52806
85171,52809
86481,52809
86511,52806
86534,52799
86556,52787
86576,52771
86591,52752
86603,52730
86610,52706
86613,52677
86613,51602
86610,51573
86603,51549
86591,51527
86576,51508
86556,51492
86534,51480
86511,51473
86481,51470
85171,51470
85141,51473
" /> 
<polyline style="fill-rule:evenodd;"
points="77941,51473
77917,51480
77895,51492
77876,51508
77860,51527
77848,51549
77841,51573
77838,51602
77838,52677
77841,52706
77848,52730
77860,52752
77876,52771
77895,52787
77917,52799
77941,52806
77971,52809
79281,52809
79311,52806
79334,52799
79356,52787
79376,52771
79391,52752
79403,52730
79410,52706
79413,52677
79413,51602
79410,51573
79403,51549
79391,51527
79376,51508
79356,51492
79334,51480
79311,51473
79281,51470
77971,51470
77941,51473
" /> 
<polyline style="fill-rule:evenodd;"
points="92341,51442
92317,51449
92295,51461
92276,51476
92260,51496
92248,51518
92241,51541
92238,51571
92238,52645
92241,52675
92248,52698
92260,52720
92276,52740
92295,52755
92317,52767
92341,52774
92371,52777
93681,52777
93711,52774
93734,52767
93756,52755
93776,52740
93791,52720
93803,52698
93810,52675
93813,52645
93813,51571
93810,51541
93803,51518
93791,51496
93776,51476
93756,51461
93734,51449
93711,51442
93681,51439
92371,51439
92341,51442
" /> 
<polyline style="fill-rule:evenodd;"
points="70801,51422
70777,51429
70755,51441
70736,51456
70720,51476
70708,51498
70701,51521
70698,51551
70698,52625
70701,52655
70708,52678
70720,52700
70736,52720
70755,52735
70777,52747
70801,52754
70831,52757
72141,52757
72171,52754
72194,52747
72216,52735
72236,52720
72251,52700
72263,52678
72270,52655
72273,52625
72273,51551
72270,51521
72263,51498
72251,51476
72236,51456
72216,51441
72194,51429
72171,51422
72141,51419
70831,51419
70801,51422
" /> 
<polyline style="fill-rule:evenodd;"
points="41281,51333
41257,51340
41235,51352
41216,51368
41200,51387
41188,51409
41181,51433
41178,51462
41178,52537
41181,52566
41188,52590
41200,52612
41216,52631
41235,52647
41257,52659
41281,52666
41311,52669
42621,52669
42651,52666
42674,52659
42696,52647
42716,52631
42731,52612
42743,52590
42750,52566
42753,52537
42753,51462
42750,51433
42743,51409
42731,51387
42716,51368
42696,51352
42674,51340
42651,51333
42621,51330
41311,51330
41281,51333
" /> 
<polyline style="fill-rule:evenodd;"
points="48501,51073
48477,51080
48455,51092
48436,51108
48420,51127
48408,51149
48401,51173
48398,51202
48398,52277
48401,52306
48408,52330
48420,52352
48436,52371
48455,52387
48477,52399
48501,52406
48531,52409
49841,52409
49871,52406
49894,52399
49916,52387
49936,52371
49951,52352
49963,52330
49970,52306
49973,52277
49973,51202
49970,51173
49963,51149
49951,51127
49936,51108
49916,51092
49894,51080
49871,51073
49841,51070
48531,51070
48501,51073
" /> 
<polyline style="fill-rule:evenodd;"
points="34101,51073
34077,51080
34055,51092
34036,51108
34020,51127
34008,51149
34001,51173
33998,51202
33998,52277
34001,52306
34008,52330
34020,52352
34036,52371
34055,52387
34077,52399
34101,52406
34131,52409
35441,52409
35471,52406
35494,52399
35516,52387
35536,52371
35551,52352
35563,52330
35570,52306
35573,52277
35573,51202
35570,51173
35563,51149
35551,51127
35536,51108
35516,51092
35494,51080
35471,51073
35441,51070
34131,51070
34101,51073
" /> 
<polyline style="fill-rule:evenodd;"
points="26901,51073
26877,51080
26855,51092
26836,51108
26820,51127
26808,51149
26801,51173
26798,51202
26798,52277
26801,52306
26808,52330
26820,52352
26836,52371
26855,52387
26877,52399
26901,52406
26931,52409
28241,52409
28271,52406
28294,52399
28316,52387
28336,52371
28351,52352
28363,52330
28370,52306
28373,52277
28373,51202
28370,51173
28363,51149
28351,51127
28336,51108
28316,51092
28294,51080
28271,51073
28241,51070
26931,51070
26901,51073
" /> 
<polyline style="fill-rule:evenodd;"
points="78376,49511
78250,49550
78134,49612
78032,49695
77948,49797
77886,49914
77848,50040
77835,50171
77848,50302
77886,50428
77948,50545
78032,50647
78134,50730
78250,50792
78376,50831
78475,50840
78777,50840
78875,50831
79001,50792
79118,50730
79219,50647
79303,50545
79365,50428
79403,50302
79416,50171
79403,50040
79365,49914
79303,49797
79219,49695
79118,49612
79001,49550
78875,49511
78777,49502
78475,49502
78376,49511
" /> 
<polyline style="fill-rule:evenodd;"
points="85576,49511
85450,49550
85334,49612
85232,49695
85148,49797
85086,49914
85048,50040
85035,50171
85048,50302
85086,50428
85148,50545
85232,50647
85334,50730
85450,50792
85576,50831
85675,50840
85977,50840
86075,50831
86201,50792
86318,50730
86419,50647
86503,50545
86565,50428
86603,50302
86616,50171
86603,50040
86565,49914
86503,49797
86419,49695
86318,49612
86201,49550
86075,49511
85977,49502
85675,49502
85576,49511
" /> 
<polyline style="fill-rule:evenodd;"
points="92776,49480
92650,49518
92534,49580
92432,49664
92348,49766
92286,49882
92248,50008
92235,50140
92248,50271
92286,50397
92348,50513
92432,50615
92534,50699
92650,50761
92776,50799
92875,50809
93177,50809
93275,50799
93401,50761
93518,50699
93619,50615
93703,50513
93765,50397
93803,50271
93816,50140
93803,50008
93765,49882
93703,49766
93619,49664
93518,49580
93401,49518
93275,49480
93177,49470
92875,49470
92776,49480
" /> 
<polyline style="fill-rule:evenodd;"
points="71236,49460
71110,49498
70994,49560
70892,49644
70808,49746
70746,49862
70708,49988
70695,50120
70708,50251
70746,50377
70808,50493
70892,50595
70994,50679
71110,50741
71236,50779
71335,50789
71637,50789
71735,50779
71861,50741
71978,50679
72079,50595
72163,50493
72225,50377
72263,50251
72276,50120
72263,49988
72225,49862
72163,49746
72079,49644
71978,49560
71861,49498
71735,49460
71637,49450
71335,49450
71236,49460
" /> 
<polyline style="fill-rule:evenodd;"
points="41716,49371
41590,49410
41474,49472
41372,49555
41288,49657
41226,49774
41188,49900
41175,50031
41188,50162
41226,50288
41288,50405
41372,50507
41474,50590
41590,50652
41716,50691
41815,50700
42117,50700
42215,50691
42341,50652
42458,50590
42559,50507
42643,50405
42705,50288
42743,50162
42756,50031
42743,49900
42705,49774
42643,49657
42559,49555
42458,49472
42341,49410
42215,49371
42117,49362
41815,49362
41716,49371
" /> 
<polyline style="fill-rule:evenodd;"
points="34536,49111
34410,49150
34294,49212
34192,49295
34108,49397
34046,49514
34008,49640
33995,49771
34008,49902
34046,50028
34108,50145
34192,50247
34294,50330
34410,50392
34536,50431
34635,50440
34937,50440
35035,50431
35161,50392
35278,50330
35379,50247
35463,50145
35525,50028
35563,49902
35576,49771
35563,49640
35525,49514
35463,49397
35379,49295
35278,49212
35161,49150
35035,49111
34937,49102
34635,49102
34536,49111
" /> 
<polyline style="fill-rule:evenodd;"
points="27336,49111
27210,49150
27094,49212
26992,49295
26908,49397
26846,49514
26808,49640
26795,49771
26808,49902
26846,50028
26908,50145
26992,50247
27094,50330
27210,50392
27336,50431
27435,50440
27737,50440
27835,50431
27961,50392
28078,50330
28179,50247
28263,50145
28325,50028
28363,49902
28376,49771
28363,49640
28325,49514
28263,49397
28179,49295
28078,49212
27961,49150
27835,49111
27737,49102
27435,49102
27336,49111
" /> 
<polyline style="fill-rule:evenodd;"
points="48936,49111
48810,49150
48694,49212
48592,49295
48508,49397
48446,49514
48408,49640
48395,49771
48408,49902
48446,50028
48508,50145
48592,50247
48694,50330
48810,50392
48936,50431
49035,50440
49337,50440
49435,50431
49561,50392
49678,50330
49779,50247
49863,50145
49925,50028
49963,49902
49976,49771
49963,49640
49925,49514
49863,49397
49779,49295
49678,49212
49561,49150
49435,49111
49337,49102
49035,49102
48936,49111
" /> 
<polyline style="fill-rule:evenodd;"
points="30395,42600
30268,42638
30152,42700
30050,42784
29967,42886
29904,43002
29866,43128
29853,43260
29866,43391
29904,43517
29967,43633
30050,43735
30152,43819
30268,43881
30395,43919
30493,43929
30559,43929
30657,43919
30783,43881
30899,43819
31001,43735
31085,43633
31147,43517
31185,43391
31198,43260
31185,43128
31147,43002
31085,42886
31001,42784
30899,42700
30783,42638
30657,42600
30559,42590
30493,42590
30395,42600
" /> 
<polyline style="fill-rule:evenodd;"
points="32395,42600
32268,42638
32152,42700
32050,42784
31967,42886
31904,43002
31866,43128
31853,43260
31866,43391
31904,43517
31967,43633
32050,43735
32152,43819
32268,43881
32395,43919
32493,43929
32559,43929
32657,43919
32783,43881
32899,43819
33001,43735
33085,43633
33147,43517
33185,43391
33198,43260
33185,43128
33147,43002
33085,42886
33001,42784
32899,42700
32783,42638
32657,42600
32559,42590
32493,42590
32395,42600
" /> 
<polyline style="fill-rule:evenodd;"
points="34395,42600
34268,42638
34152,42700
34050,42784
33967,42886
33904,43002
33866,43128
33853,43260
33866,43391
33904,43517
33967,43633
34050,43735
34152,43819
34268,43881
34395,43919
34493,43929
34559,43929
34657,43919
34783,43881
34899,43819
35001,43735
35085,43633
35147,43517
35185,43391
35198,43260
35185,43128
35147,43002
35085,42886
35001,42784
34899,42700
34783,42638
34657,42600
34559,42590
34493,42590
34395,42600
" /> 
<polyline style="fill-rule:evenodd;"
points="36395,42600
36268,42638
36152,42700
36050,42784
35967,42886
35904,43002
35866,43128
35853,43260
35866,43391
35904,43517
35967,43633
36050,43735
36152,43819
36268,43881
36395,43919
36493,43929
36559,43929
36657,43919
36783,43881
36899,43819
37001,43735
37085,43633
37147,43517
37185,43391
37198,43260
37185,43128
37147,43002
37085,42886
37001,42784
36899,42700
36783,42638
36657,42600
36559,42590
36493,42590
36395,42600
" /> 
<polyline style="fill-rule:evenodd;"
points="37856,43929
39195,43929
39195,42590
37856,42590
37856,43929
" /> 
<polyline style="fill-rule:evenodd;"
points="45616,43909
46955,43909
46955,42570
45616,42570
45616,43909
" /> 
<polyline style="fill-rule:evenodd;"
points="42155,42580
42028,42618
41912,42680
41810,42764
41727,42866
41664,42982
41626,43108
41613,43240
41626,43371
41664,43497
41727,43613
41810,43715
41912,43799
42028,43861
42155,43899
42253,43909
42319,43909
42417,43899
42543,43861
42659,43799
42761,43715
42845,43613
42907,43497
42945,43371
42958,43240
42945,43108
42907,42982
42845,42866
42761,42764
42659,42680
42543,42618
42417,42580
42319,42570
42253,42570
42155,42580
" /> 
<polyline style="fill-rule:evenodd;"
points="44155,42580
44028,42618
43912,42680
43810,42764
43727,42866
43664,42982
43626,43108
43613,43240
43626,43371
43664,43497
43727,43613
43810,43715
43912,43799
44028,43861
44155,43899
44253,43909
44319,43909
44417,43899
44543,43861
44659,43799
44761,43715
44845,43613
44907,43497
44945,43371
44958,43240
44945,43108
44907,42982
44845,42866
44761,42764
44659,42680
44543,42618
44417,42580
44319,42570
44253,42570
44155,42580
" /> 
<polyline style="fill-rule:evenodd;"
points="60717,40923
60641,40938
60426,41027
60235,41154
60233,41156
60068,41320
60068,41320
59939,41514
59850,41729
59805,41957
59805,42190
59850,42418
59939,42633
59984,42700
60068,42826
60233,42991
60233,42991
60426,43120
60641,43209
60717,43224
60869,43254
61102,43254
61254,43224
61330,43209
61545,43120
61739,42991
61739,42991
61903,42826
61987,42700
62032,42633
62121,42418
62167,42190
62167,41957
62121,41729
62032,41514
61903,41320
61903,41320
61739,41156
61736,41154
61545,41027
61330,40938
61254,40923
61102,40892
60869,40892
60717,40923
" /> 
<polyline style="fill-rule:evenodd;"
points="76011,39164
75920,39182
75777,39242
75648,39328
75538,39438
75452,39567
75393,39710
75362,39862
75362,40017
75393,40169
75452,40312
75538,40441
75648,40551
75777,40637
75920,40697
76011,40715
76072,40727
76227,40727
76288,40715
76379,40697
76523,40637
76652,40551
76761,40441
76848,40312
76907,40169
76937,40017
76937,39862
76907,39710
76848,39567
76761,39438
76652,39328
76523,39242
76379,39182
76288,39164
76227,39152
76072,39152
76011,39164
" /> 
<polyline style="fill-rule:evenodd;"
points="72468,39164
72377,39182
72233,39242
72105,39328
71995,39438
71909,39567
71849,39710
71819,39862
71819,40017
71849,40169
71909,40312
71995,40441
72105,40551
72233,40637
72377,40697
72468,40715
72529,40727
72684,40727
72745,40715
72836,40697
72979,40637
73108,40551
73218,40441
73304,40312
73364,40169
73394,40017
73394,39862
73364,39710
73304,39567
73218,39438
73108,39328
72979,39242
72836,39182
72745,39164
72684,39152
72529,39152
72468,39164
" /> 
<polyline style="fill-rule:evenodd;"
points="80061,37402
80037,37409
80015,37421
79996,37436
79980,37456
79968,37478
79961,37501
79958,37531
79958,38605
79961,38635
79968,38658
79980,38680
79996,38700
80015,38715
80037,38727
80061,38734
80091,38737
81401,38737
81431,38734
81454,38727
81476,38715
81496,38700
81511,38680
81523,38658
81530,38635
81533,38605
81533,37531
81530,37501
81523,37478
81511,37456
81496,37436
81476,37421
81454,37409
81431,37402
81401,37399
80091,37399
80061,37402
" /> 
<polyline style="fill-rule:evenodd;"
points="80496,35440
80370,35478
80254,35540
80152,35624
80068,35726
80006,35842
79968,35968
79955,36100
79968,36231
80006,36357
80068,36473
80152,36575
80254,36659
80370,36721
80496,36759
80595,36769
80897,36769
80995,36759
81121,36721
81238,36659
81339,36575
81423,36473
81485,36357
81523,36231
81536,36100
81523,35968
81485,35842
81423,35726
81339,35624
81238,35540
81121,35478
80995,35440
80897,35430
80595,35430
80496,35440
" /> 
<polyline style="fill-rule:evenodd;"
points="76011,34046
75920,34064
75777,34124
75648,34210
75538,34319
75452,34448
75393,34592
75390,34604
75362,34744
75362,34899
75370,34940
75393,35051
75452,35194
75538,35323
75648,35433
75777,35519
75920,35579
76011,35597
76072,35609
76227,35609
76288,35597
76379,35579
76523,35519
76652,35433
76761,35323
76848,35194
76907,35051
76929,34940
76937,34899
76937,34744
76909,34604
76907,34592
76848,34448
76761,34319
76652,34210
76523,34124
76379,34064
76288,34046
76227,34034
76072,34034
76011,34046
" /> 
<polyline style="fill-rule:evenodd;"
points="72468,34046
72377,34064
72233,34124
72105,34210
71995,34319
71909,34448
71849,34592
71847,34604
71819,34744
71819,34899
71827,34940
71849,35051
71909,35194
71995,35323
72105,35433
72233,35519
72377,35579
72468,35597
72529,35609
72684,35609
72745,35597
72836,35579
72979,35519
73108,35433
73218,35323
73304,35194
73364,35051
73386,34940
73394,34899
73394,34744
73366,34604
73364,34592
73304,34448
73218,34319
73108,34210
72979,34124
72836,34064
72745,34046
72684,34034
72529,34034
72468,34046
" /> 
<polyline style="fill-rule:evenodd;"
points="44638,34223
44611,34231
44586,34244
44561,34265
44227,34599
44206,34624
44193,34649
44185,34675
44182,34703
44185,34731
44193,34758
44206,34782
44227,34807
44798,35378
44823,35399
44848,35412
44874,35420
44902,35423
44930,35420
44957,35412
44981,35399
45006,35378
45341,35044
45361,35019
45375,34994
45383,34968
45385,34940
45383,34912
45375,34885
45361,34861
45341,34835
44770,34265
44744,34244
44720,34231
44693,34223
44665,34220
44638,34223
" /> 
<polyline style="fill-rule:evenodd;"
points="88617,34273
88513,34305
88418,34356
88334,34425
88265,34508
88214,34604
88182,34708
88172,34816
88182,34924
88214,35028
88265,35124
88334,35208
88418,35277
88513,35328
88617,35359
88698,35367
89855,35367
89936,35359
90040,35328
90135,35277
90219,35208
90288,35124
90339,35028
90371,34924
90382,34816
90371,34708
90339,34604
90288,34508
90219,34425
90135,34356
90040,34305
89936,34273
89855,34265
88698,34265
88617,34273
" /> 
<polyline style="fill-rule:evenodd;"
points="45682,33179
45655,33187
45630,33200
45605,33221
45271,33555
45250,33580
45237,33605
45229,33631
45226,33659
45229,33687
45237,33714
45250,33738
45271,33764
45842,34334
45867,34355
45892,34368
45918,34376
45946,34379
45974,34376
46000,34368
46025,34355
46050,34334
46385,34000
46405,33975
46418,33950
46427,33924
46429,33896
46427,33868
46418,33841
46405,33817
46385,33792
45814,33221
45788,33200
45764,33187
45737,33179
45709,33176
45682,33179
" /> 
<polyline style="fill-rule:evenodd;"
points="95679,32658
95550,32711
95434,32789
95335,32888
95258,33004
95204,33133
95177,33270
95177,33409
95204,33546
95258,33675
95335,33791
95434,33890
95550,33968
95679,34021
95816,34048
95956,34048
96092,34021
96221,33968
96338,33890
96436,33791
96514,33675
96567,33546
96594,33409
96594,33270
96567,33133
96514,33004
96436,32888
96338,32789
96221,32711
96092,32658
95956,32631
95816,32631
95679,32658
" /> 
<polyline style="fill-rule:evenodd;"
points="97177,34048
98594,34048
98594,32631
97177,32631
97177,34048
" /> 
<polyline style="fill-rule:evenodd;"
points="93679,32658
93550,32711
93434,32789
93335,32888
93258,33004
93204,33133
93177,33270
93177,33409
93204,33546
93258,33675
93335,33791
93434,33890
93550,33968
93679,34021
93816,34048
93956,34048
94092,34021
94221,33968
94338,33890
94436,33791
94514,33675
94567,33546
94594,33409
94594,33270
94567,33133
94514,33004
94436,32888
94338,32789
94221,32711
94092,32658
93956,32631
93816,32631
93679,32658
" /> 
<polyline style="fill-rule:evenodd;"
points="91609,31438
91506,31470
91410,31521
91326,31590
91257,31674
91206,31770
91174,31873
91166,31954
91166,33111
91174,33192
91206,33296
91257,33392
91326,33476
91410,33544
91506,33596
91609,33627
91718,33638
91826,33627
91929,33596
92025,33544
92109,33476
92178,33392
92229,33296
92261,33192
92269,33111
92269,31954
92261,31873
92229,31770
92178,31674
92109,31590
92025,31521
91929,31470
91826,31438
91718,31428
91609,31438
" /> 
<polyline style="fill-rule:evenodd;"
points="46578,32263
46551,32271
46526,32284
46501,32305
46167,32639
46146,32664
46133,32689
46125,32715
46122,32743
46125,32771
46133,32798
46146,32822
46167,32847
46738,33418
46763,33439
46788,33452
46814,33460
46842,33463
46870,33460
46897,33452
46921,33439
46946,33418
47281,33084
47301,33059
47315,33034
47323,33008
47325,32980
47323,32952
47315,32925
47301,32901
47281,32875
46710,32305
46684,32284
46660,32271
46633,32263
46605,32260
46578,32263
" /> 
<polyline style="fill-rule:evenodd;"
points="47622,31219
47595,31227
47570,31240
47545,31261
47211,31595
47190,31620
47177,31645
47169,31671
47166,31699
47169,31727
47177,31754
47190,31778
47211,31804
47782,32374
47807,32395
47832,32408
47858,32416
47886,32419
47914,32416
47940,32408
47965,32395
47990,32374
48325,32040
48345,32015
48358,31990
48367,31964
48369,31936
48367,31908
48358,31881
48345,31857
48325,31832
47754,31261
47728,31240
47704,31227
47677,31219
47649,31216
47622,31219
" /> 
<polyline style="fill-rule:evenodd;"
points="89633,30866
89511,30916
89401,30989
89308,31082
89235,31192
89184,31314
89158,31443
89158,31575
89184,31704
89235,31826
89308,31936
89401,32029
89511,32102
89633,32153
89762,32178
89894,32178
90023,32153
90145,32102
90254,32029
90348,31936
90421,31826
90471,31704
90497,31575
90497,31443
90471,31314
90421,31192
90348,31082
90254,30989
90145,30916
90023,30866
89894,30840
89762,30840
89633,30866
" /> 
<polyline style="fill-rule:evenodd;"
points="37883,30452
37792,30470
37649,30530
37520,30616
37410,30726
37324,30855
37265,30998
37248,31082
37234,31150
37234,31305
37246,31366
37265,31457
37324,31600
37410,31729
37520,31839
37649,31925
37792,31985
37883,32003
37944,32015
38099,32015
38160,32003
38251,31985
38395,31925
38524,31839
38633,31729
38720,31600
38779,31457
38797,31366
38809,31305
38809,31150
38796,31082
38779,30998
38720,30855
38633,30726
38524,30616
38395,30530
38251,30470
38160,30452
38099,30440
37944,30440
37883,30452
" /> 
<polyline style="fill-rule:evenodd;"
points="34340,30452
34249,30470
34105,30530
33977,30616
33867,30726
33781,30855
33721,30998
33704,31082
33691,31150
33691,31305
33703,31366
33721,31457
33781,31600
33867,31729
33977,31839
34105,31925
34249,31985
34340,32003
34401,32015
34556,32015
34617,32003
34708,31985
34851,31925
34980,31839
35090,31729
35176,31600
35236,31457
35254,31366
35266,31305
35266,31150
35252,31082
35236,30998
35176,30855
35090,30726
34980,30616
34851,30530
34708,30470
34617,30452
34556,30440
34401,30440
34340,30452
" /> 
<polyline style="fill-rule:evenodd;"
points="87845,25683
87845,25683
87845,25683
87755,25710
87672,25754
87600,25814
87569,25852
87541,25886
87506,25952
87496,25969
87484,26008
87469,26058
87462,26128
87462,27126
87469,27196
87469,27196
87469,27196
87496,27286
87541,27368
87600,27441
87672,27500
87755,27544
87845,27572
87845,27572
87845,27572
87938,27581
88031,27572
88031,27572
88031,27572
88121,27544
88203,27500
88276,27441
88335,27368
88380,27286
88407,27196
88407,27196
88407,27196
88414,27126
88414,26128
88407,26058
88407,26058
88380,25969
88335,25886
88276,25814
88236,25781
88203,25754
88121,25710
88121,25710
88031,25683
88031,25683
88031,25683
87938,25674
87845,25683
" /> 
<polyline style="fill-rule:evenodd;"
points="83436,26160
83309,26198
83193,26261
83091,26344
83008,26446
82946,26562
82907,26689
82894,26820
82907,26951
82946,27077
83008,27193
83091,27295
83193,27379
83309,27441
83436,27479
83534,27489
83836,27489
83934,27479
84060,27441
84177,27379
84279,27295
84362,27193
84424,27077
84463,26951
84476,26820
84463,26689
84424,26562
84362,26446
84279,26344
84177,26261
84060,26198
83934,26160
83836,26151
83534,26151
83436,26160
" /> 
<polyline style="fill-rule:evenodd;"
points="59805,27121
62167,27121
62167,24758
59805,24758
59805,27121
" /> 
<polyline style="fill-rule:evenodd;"
points="37883,25334
37792,25352
37649,25412
37520,25498
37410,25607
37324,25736
37265,25880
37254,25935
37239,26010
37234,26032
37234,26187
37265,26339
37324,26482
37410,26611
37520,26721
37649,26807
37792,26867
37883,26885
37944,26897
38099,26897
38160,26885
38251,26867
38395,26807
38524,26721
38633,26611
38720,26482
38779,26339
38809,26187
38809,26032
38805,26010
38790,25935
38779,25880
38720,25736
38633,25607
38524,25498
38395,25412
38251,25352
38160,25334
38099,25322
37944,25322
37883,25334
" /> 
<polyline style="fill-rule:evenodd;"
points="34340,25334
34249,25352
34105,25412
33977,25498
33867,25607
33781,25736
33721,25880
33710,25935
33695,26010
33691,26032
33691,26187
33721,26339
33781,26482
33867,26611
33977,26721
34105,26807
34249,26867
34340,26885
34401,26897
34556,26897
34617,26885
34708,26867
34851,26807
34980,26721
35090,26611
35176,26482
35236,26339
35266,26187
35266,26032
35261,26010
35247,25935
35236,25880
35176,25736
35090,25607
34980,25498
34851,25412
34708,25352
34617,25334
34556,25322
34401,25322
34340,25334
" /> 
<polyline style="fill-rule:evenodd;"
points="50835,25480
50708,25518
50592,25580
50490,25664
50407,25766
50344,25882
50306,26008
50293,26140
50306,26271
50344,26397
50407,26513
50490,26615
50592,26699
50708,26761
50835,26799
50933,26809
50999,26809
51097,26799
51223,26761
51339,26699
51441,26615
51525,26513
51587,26397
51625,26271
51638,26140
51625,26008
51587,25882
51525,25766
51441,25664
51339,25580
51223,25518
51097,25480
50999,25470
50933,25470
50835,25480
" /> 
<polyline style="fill-rule:evenodd;"
points="48835,25480
48708,25518
48592,25580
48490,25664
48407,25766
48344,25882
48306,26008
48293,26140
48306,26271
48344,26397
48407,26513
48490,26615
48592,26699
48708,26761
48835,26799
48933,26809
48999,26809
49097,26799
49223,26761
49339,26699
49441,26615
49525,26513
49587,26397
49625,26271
49638,26140
49625,26008
49587,25882
49525,25766
49441,25664
49339,25580
49223,25518
49097,25480
48999,25470
48933,25470
48835,25480
" /> 
<polyline style="fill-rule:evenodd;"
points="52296,26809
53635,26809
53635,25470
52296,25470
52296,26809
" /> 
<polyline style="fill-rule:evenodd;"
points="23006,22535
22651,22682
22619,22695
22367,22864
22271,22928
21974,23224
21974,23224
21755,23553
21742,23572
21581,23959
21500,24370
21500,24789
21581,25200
21742,25587
21742,25587
21865,25771
21974,25935
22271,26231
22271,26231
22619,26464
22619,26464
22619,26464
23006,26624
23416,26705
23835,26705
24246,26624
24633,26464
24633,26464
24633,26464
24981,26231
24981,26231
25277,25935
25386,25771
25510,25587
25510,25587
25670,25200
25752,24789
25752,24370
25670,23959
25510,23572
25497,23553
25277,23224
25277,23224
24981,22928
24885,22864
24633,22695
24601,22682
24246,22535
23835,22454
23416,22454
23006,22535
" /> 
<polyline style="fill-rule:evenodd;"
points="89633,25354
89511,25404
89401,25477
89308,25571
89235,25680
89184,25802
89158,25931
89158,26063
89184,26193
89235,26314
89308,26424
89401,26517
89511,26590
89633,26641
89762,26667
89894,26667
90023,26641
90145,26590
90254,26517
90348,26424
90421,26314
90471,26193
90497,26063
90497,25931
90471,25802
90421,25680
90348,25571
90254,25477
90145,25404
90023,25354
89894,25328
89762,25328
89633,25354
" /> 
<polyline style="fill-rule:evenodd;"
points="95726,22435
95371,22582
95339,22595
95209,22682
94991,22828
94694,23124
94694,23124
94463,23471
94462,23472
94301,23859
94220,24270
94220,24689
94301,25100
94452,25463
94462,25487
94642,25756
94694,25835
94991,26131
94991,26131
95339,26364
95339,26364
95339,26364
95726,26524
96136,26605
96555,26605
96966,26524
97353,26364
97353,26364
97353,26364
97701,26131
97701,26131
97997,25835
98050,25756
98230,25487
98240,25463
98390,25100
98472,24689
98472,24270
98390,23859
98230,23472
98229,23471
97997,23124
97997,23124
97701,22828
97483,22682
97353,22595
97321,22582
96966,22435
96555,22354
96136,22354
95726,22435
" /> 
<polyline style="fill-rule:evenodd;"
points="91624,24187
91624,24187
91624,24187
91535,24214
91452,24258
91380,24318
91361,24340
91320,24390
91320,24390
91276,24473
91249,24562
91249,24562
91242,24632
91242,25630
91249,25700
91249,25700
91249,25700
91276,25790
91320,25872
91380,25945
91452,26004
91535,26048
91624,26075
91624,26075
91624,26075
91718,26085
91811,26075
91811,26075
91811,26075
91900,26048
91983,26004
92055,25945
92115,25872
92159,25790
92186,25700
92186,25700
92186,25700
92193,25630
92193,24632
92186,24562
92186,24562
92159,24473
92115,24390
92055,24318
92008,24279
91983,24258
91900,24214
91900,24214
91811,24187
91811,24187
91811,24187
91718,24178
91624,24187
" /> 
<polyline style="fill-rule:evenodd;"
points="83000,24185
82976,24192
82954,24204
82935,24220
82919,24239
82908,24261
82900,24285
82898,24314
82898,25388
82900,25418
82908,25442
82919,25464
82935,25483
82954,25499
82976,25510
83000,25518
83030,25521
84340,25521
84370,25518
84394,25510
84415,25499
84435,25483
84451,25464
84462,25442
84469,25418
84472,25388
84472,24314
84469,24285
84462,24261
84451,24239
84435,24220
84415,24204
84394,24192
84370,24185
84340,24182
83030,24182
83000,24185
" /> 
<polyline style="fill-rule:evenodd;"
points="87845,23478
87845,23478
87845,23478
87755,23505
87672,23550
87600,23609
87582,23631
87541,23681
87501,23755
87496,23764
87486,23799
87469,23854
87462,23924
87462,24921
87469,24991
87469,24991
87469,24991
87496,25081
87541,25164
87600,25236
87672,25295
87755,25340
87845,25367
87845,25367
87845,25367
87938,25376
88031,25367
88031,25367
88031,25367
88121,25340
88203,25295
88276,25236
88335,25164
88380,25081
88407,24991
88407,24991
88407,24991
88414,24921
88414,23924
88407,23854
88407,23854
88380,23764
88335,23681
88276,23609
88231,23572
88203,23550
88121,23505
88121,23505
88031,23478
88031,23478
88031,23478
87938,23469
87845,23478
" /> 
<polyline style="fill-rule:evenodd;"
points="52835,23480
52708,23518
52592,23580
52490,23664
52407,23766
52344,23882
52306,24008
52293,24140
52306,24271
52344,24397
52407,24513
52490,24615
52592,24699
52708,24761
52835,24799
52933,24809
52999,24809
53097,24799
53223,24761
53339,24699
53441,24615
53525,24513
53587,24397
53625,24271
53638,24140
53625,24008
53587,23882
53525,23766
53441,23664
53339,23580
53223,23518
53097,23480
52999,23470
52933,23470
52835,23480
" /> 
<polyline style="fill-rule:evenodd;"
points="48835,23480
48708,23518
48592,23580
48490,23664
48407,23766
48344,23882
48306,24008
48293,24140
48306,24271
48344,24397
48407,24513
48490,24615
48592,24699
48708,24761
48835,24799
48933,24809
48999,24809
49097,24799
49223,24761
49339,24699
49441,24615
49525,24513
49587,24397
49625,24271
49638,24140
49625,24008
49587,23882
49525,23766
49441,23664
49339,23580
49223,23518
49097,23480
48999,23470
48933,23470
48835,23480
" /> 
<polyline style="fill-rule:evenodd;"
points="50835,23480
50708,23518
50592,23580
50490,23664
50407,23766
50344,23882
50306,24008
50293,24140
50306,24271
50344,24397
50407,24513
50490,24615
50592,24699
50708,24761
50835,24799
50933,24809
50999,24809
51097,24799
51223,24761
51339,24699
51441,24615
51525,24513
51587,24397
51625,24271
51638,24140
51625,24008
51587,23882
51525,23766
51441,23664
51339,23580
51223,23518
51097,23480
50999,23470
50933,23470
50835,23480
" /> 
<polyline style="fill-rule:evenodd;"
points="29916,24009
31255,24009
31255,22670
29916,22670
29916,24009
" /> 
<polyline style="fill-rule:evenodd;"
points="40455,22680
40328,22718
40212,22780
40110,22864
40027,22966
39964,23082
39926,23208
39913,23340
39926,23471
39964,23597
40027,23713
40110,23815
40212,23899
40328,23961
40455,23999
40553,24009
40619,24009
40717,23999
40843,23961
40959,23899
41061,23815
41145,23713
41207,23597
41245,23471
41258,23340
41245,23208
41207,23082
41145,22966
41061,22864
40959,22780
40843,22718
40717,22680
40619,22670
40553,22670
40455,22680
" /> 
<polyline style="fill-rule:evenodd;"
points="36455,22680
36328,22718
36212,22780
36110,22864
36027,22966
35964,23082
35926,23208
35913,23340
35926,23471
35964,23597
36027,23713
36110,23815
36212,23899
36328,23961
36455,23999
36553,24009
36619,24009
36717,23999
36843,23961
36959,23899
37061,23815
37145,23713
37207,23597
37245,23471
37258,23340
37245,23208
37207,23082
37145,22966
37061,22864
36959,22780
36843,22718
36717,22680
36619,22670
36553,22670
36455,22680
" /> 
<polyline style="fill-rule:evenodd;"
points="34455,22680
34328,22718
34212,22780
34110,22864
34027,22966
33964,23082
33926,23208
33913,23340
33926,23471
33964,23597
34027,23713
34110,23815
34212,23899
34328,23961
34455,23999
34553,24009
34619,24009
34717,23999
34843,23961
34959,23899
35061,23815
35145,23713
35207,23597
35245,23471
35258,23340
35245,23208
35207,23082
35145,22966
35061,22864
34959,22780
34843,22718
34717,22680
34619,22670
34553,22670
34455,22680
" /> 
<polyline style="fill-rule:evenodd;"
points="32455,22680
32328,22718
32212,22780
32110,22864
32027,22966
31964,23082
31926,23208
31913,23340
31926,23471
31964,23597
32027,23713
32110,23815
32212,23899
32328,23961
32455,23999
32553,24009
32619,24009
32717,23999
32843,23961
32959,23899
33061,23815
33145,23713
33207,23597
33245,23471
33258,23340
33245,23208
33207,23082
33145,22966
33061,22864
32959,22780
32843,22718
32717,22680
32619,22670
32553,22670
32455,22680
" /> 
<polyline style="fill-rule:evenodd;"
points="38455,22680
38328,22718
38212,22780
38110,22864
38027,22966
37964,23082
37926,23208
37913,23340
37926,23471
37964,23597
38027,23713
38110,23815
38212,23899
38328,23961
38455,23999
38553,24009
38619,24009
38717,23999
38843,23961
38959,23899
39061,23815
39145,23713
39207,23597
39245,23471
39258,23340
39245,23208
39207,23082
39145,22966
39061,22864
38959,22780
38843,22718
38717,22680
38619,22670
38553,22670
38455,22680
" /> 
<polyline style="fill-rule:evenodd;"
points="92254,21982
92254,21982
92254,21982
92165,22009
92082,22053
92010,22113
91977,22153
91950,22185
91906,22268
91879,22358
91872,22427
91872,23425
91879,23495
91879,23495
91879,23495
91906,23585
91950,23668
92010,23740
92082,23799
92165,23844
92254,23871
92254,23871
92254,23871
92347,23880
92441,23871
92441,23871
92441,23871
92530,23844
92613,23799
92685,23740
92745,23668
92789,23585
92816,23495
92816,23495
92816,23495
92823,23425
92823,22427
92816,22358
92816,22358
92789,22268
92745,22185
92685,22113
92646,22080
92613,22053
92530,22009
92530,22009
92441,21982
92441,21982
92441,21982
92347,21973
92254,21982
" /> 
<polyline style="fill-rule:evenodd;"
points="89107,15637
88927,15711
88766,15819
88629,15956
88521,16117
88447,16296
88409,16487
88409,16681
88447,16871
88521,17050
88629,17211
88766,17348
88927,17456
89107,17530
89297,17568
89491,17568
89681,17530
89860,17456
90021,17348
90158,17211
90266,17050
90340,16871
90378,16681
90378,16487
90340,16296
90266,16117
90158,15956
90021,15819
89860,15711
89681,15637
89491,15599
89297,15599
89107,15637
" /> 
<polyline style="fill-rule:evenodd;"
points="33988,15637
33809,15711
33648,15819
33511,15956
33403,16117
33329,16296
33291,16487
33291,16681
33329,16871
33403,17050
33511,17211
33648,17348
33809,17456
33988,17530
34179,17568
34372,17568
34563,17530
34742,17456
34903,17348
35040,17211
35148,17050
35222,16871
35260,16681
35260,16487
35222,16296
35148,16117
35040,15956
34903,15819
34742,15711
34563,15637
34372,15599
34179,15599
33988,15637
" /> 
</g> 
</svg>
