<?xml version="1.0" standalone="no"?>
 <!DOCTYPE svg PUBLIC "-//W3C//DTD SVG 1.1//EN" 
 "http://www.w3.org/Graphics/SVG/1.1/DTD/svg11.dtd"> 
<svg xmlns="http://www.w3.org/2000/svg" version="1.1" 
    width="29.7002cm" height="21.0007cm" viewBox="0 0 116930 82680 ">
<title>SVG Picture created as ThermocoupleLogger-F_SilkS.svg date 2019/03/14 18:04:39 </title>
  <desc>Picture generated by PCBNEW </desc>
<g style="fill:#000000; fill-opacity:1;stroke:#000000; stroke-opacity:1;
stroke-linecap:round; stroke-linejoin:round; "
 transform="translate(0 0) scale(1 1)">
</g>
<g style="fill:#000000; fill-opacity:0.0; 
stroke:#000000; stroke-width:-0.000787402; stroke-opacity:1; 
stroke-linecap:round; stroke-linejoin:round;">
</g>
<g style="fill:#000000; fill-opacity:0.0; 
stroke:#000000; stroke-width:157.48; stroke-opacity:1; 
stroke-linecap:round; stroke-linejoin:round;">
<path d="M96543 62899
L96543 67324
" />
<path d="M17743 67332
L96539 67332
" />
</g>
<g style="fill:#000000; fill-opacity:0.0; 
stroke:#000000; stroke-width:118.11; stroke-opacity:1; 
stroke-linecap:round; stroke-linejoin:round;">
<path d="M34367 41924
L34517 41924
L34592 41962
L34667 42037
L34705 42187
L34705 42449
L34667 42599
L34592 42674
L34517 42712
L34367 42712
L34292 42674
L34217 42599
L34180 42449
L34180 42187
L34217 42037
L34292 41962
L34367 41924
" />
<path d="M35042 42187
L35042 42712
" />
<path d="M35042 42262
L35080 42224
L35155 42187
L35267 42187
L35342 42224
L35380 42299
L35380 42712
" />
<path d="M36317 41887
L35642 42899
" />
<path d="M36729 41924
L36879 41924
L36954 41962
L37029 42037
L37067 42187
L37067 42449
L37029 42599
L36954 42674
L36879 42712
L36729 42712
L36654 42674
L36579 42599
L36542 42449
L36542 42187
L36579 42037
L36654 41962
L36729 41924
" />
<path d="M37292 42187
L37592 42187
" />
<path d="M37404 42712
L37404 42037
L37442 41962
L37517 41924
L37592 41924
" />
<path d="M37742 42187
L38042 42187
" />
<path d="M37854 42712
L37854 42037
L37892 41962
L37967 41924
L38042 41924
" />
</g>
<g style="fill:#000000; fill-opacity:0.0; 
stroke:#000000; stroke-width:157.48; stroke-opacity:1; 
stroke-linecap:round; stroke-linejoin:round;">
<path d="M30465 21607
L17748 21607
" />
<path d="M17743 62940
L17743 67340
" />
<path d="M83703 62900
L65463 62900
" />
<path d="M87433 62900
L96543 62900
" />
<path d="M87393 60900
L96483 60900
" />
<path d="M65463 60900
L83703 60900
" />
<path d="M61827 62909
L24467 62909
" />
<path d="M24473 60910
L61833 60910
" />
<path d="M20843 60920
L17743 60920
" />
<path d="M20813 62920
L17740 62938
" />
<path d="M20813.7 62920 A1000.2 1000.2 0.0 0 0 20836.3 60920.7 " />
<path d="M24483.7 60910 A1000 1000 0.0 0 0 24467.1 62909.9 " />
<path d="M61813.7 62910 A1000 1000 0.0 0 0 61835 60910.2 " />
<path d="M65463.7 60900 A1000.2 1000.2 0.0 1 0 65465.5 62900 " />
<path d="M83693.7 62900 A1000.2 1000.2 0.0 1 0 83713.7 60899.8 " />
<path d="M87384.5 60900 A1000.2 1000.2 0.0 0 0 87423.7 62900 " />
<path d="M91343.7 19540 A1000.8 1000.8 0.0 0 0 91383.7 21540.8 " />
<path d="M55123.7 21580 A1000.8 1000.8 0.0 1 0 55123.7 19580 " />
<path d="M17703 19560
L17703 19560
" />
<path d="M30463 19560
L17703 19560
" />
<path d="M34123 21580
L55123 21580
" />
<path d="M55103 19580
L34143 19580
" />
<path d="M30463.7 21600 A1020 1020 0.0 0 0 30463.7 19560 " />
<path d="M34143.7 19580 A1000.2 1000.2 0.0 1 0 34123.7 21580.2 " />
<path d="M87723 21570
L58893 21570
" />
<path d="M58743 19590
L87753 19590
" />
<path d="M58823.7 19580 A990.202 990.202 0.0 0 0 58863.7 21560 " />
<path d="M91394 21544
L96480 21552
" />
<path d="M96443 19540
L91343 19540
" />
<path d="M96443 14340
L96443 19540
" />
<path d="M87723.7 21580 A996 996 0.0 0 0 87731.8 19588 " />
<path d="M17703 14320
L96433 14324
" />
<path d="M17703 19560
L17703 14320
" />
</g>
<g style="fill:#000000; fill-opacity:0.0; 
stroke:#000000; stroke-width:236.22; stroke-opacity:1; 
stroke-linecap:round; stroke-linejoin:round;">
<path d="M20638 38874
L20638 37693
L20919 37693
L21088 37749
L21200 37861
L21256 37974
L21313 38199
L21313 38368
L21256 38593
L21200 38705
L21088 38818
L20919 38874
L20638 38874
" />
<path d="M22269 38818
L22156 38874
L21931 38874
L21819 38818
L21763 38705
L21763 38255
L21819 38143
L21931 38086
L22156 38086
L22269 38143
L22325 38255
L22325 38368
L21763 38480
" />
<path d="M22775 38818
L22887 38874
L23112 38874
L23225 38818
L23281 38705
L23281 38649
L23225 38536
L23112 38480
L22944 38480
L22831 38424
L22775 38311
L22775 38255
L22831 38143
L22944 38086
L23112 38086
L23225 38143
" />
<path d="M23787 38874
L23787 38086
" />
<path d="M23787 37693
L23731 37749
L23787 37805
L23844 37749
L23787 37693
L23787 37805
" />
<path d="M24856 38086
L24856 39043
L24800 39155
L24743 39211
L24631 39268
L24462 39268
L24350 39211
" />
<path d="M24856 38818
L24743 38874
L24518 38874
L24406 38818
L24350 38761
L24294 38649
L24294 38311
L24350 38199
L24406 38143
L24518 38086
L24743 38086
L24856 38143
" />
<path d="M25418 38086
L25418 38874
" />
<path d="M25418 38199
L25475 38143
L25587 38086
L25756 38086
L25868 38143
L25925 38255
L25925 38874
" />
<path d="M26937 38818
L26824 38874
L26599 38874
L26487 38818
L26431 38705
L26431 38255
L26487 38143
L26599 38086
L26824 38086
L26937 38143
L26993 38255
L26993 38368
L26431 38480
" />
<path d="M28006 38874
L28006 37693
" />
<path d="M28006 38818
L27893 38874
L27668 38874
L27556 38818
L27499 38761
L27443 38649
L27443 38311
L27499 38199
L27556 38143
L27668 38086
L27893 38086
L28006 38143
" />
<path d="M29355 38086
L29580 38874
L29805 38311
L30030 38874
L30255 38086
" />
<path d="M30705 38874
L30705 38086
" />
<path d="M30705 37693
L30649 37749
L30705 37805
L30761 37749
L30705 37693
L30705 37805
" />
<path d="M31099 38086
L31549 38086
" />
<path d="M31268 37693
L31268 38705
L31324 38818
L31436 38874
L31549 38874
" />
<path d="M31943 38874
L31943 37693
" />
<path d="M32449 38874
L32449 38255
L32393 38143
L32280 38086
L32111 38086
L31999 38143
L31943 38199
" />
</g>
<g style="fill:#000000; fill-opacity:0.0; 
stroke:#000000; stroke-width:157.48; stroke-opacity:1; 
stroke-linecap:round; stroke-linejoin:round;">
<path d="M65306 58396
L65236 58358
L65086 58358
L65006 58396
L64922 58471
L64875 58546
L64856 58696
L64884 58771
L64950 58846
L65020 58883
L65170 58883
L65250 58846
" />
<path d="M65194 58096
L65002 58133
L64800 58246
L64664 58433
L64603 58621
L64617 58808
L64706 58996
L64880 59108
L65062 59146
L65255 59108
L65456 58996
L65592 58808
L65653 58621
L65639 58433
L65550 58246
L65376 58133
L65194 58096
" />
<path d="M66267 58208
L66197 58771
L66145 58883
L66061 58958
L65944 58996
L65869 58996
" />
<path d="M66656 58996
L66586 58958
L66553 58921
L66525 58846
L66553 58621
L66600 58546
L66642 58508
L66722 58471
L66834 58471
L66904 58508
L66937 58546
L66965 58621
L66937 58846
L66890 58921
L66848 58958
L66768 58996
L66656 58996
" />
<path d="M67256 58996
L67354 58208
" />
<path d="M67593 58996
L67645 58583
L67617 58508
L67547 58471
L67434 58471
L67354 58508
L67312 58546
" />
<path d="M68034 58471
L67968 58996
" />
<path d="M68025 58546
L68067 58508
L68146 58471
L68259 58471
L68329 58508
L68357 58583
L68306 58996
" />
<path d="M69281 58996
L69379 58208
L69679 58208
L69749 58246
L69782 58283
L69810 58358
L69796 58471
L69749 58546
L69707 58583
L69627 58621
L69328 58621
" />
<path d="M70406 58996
L70457 58583
L70429 58508
L70359 58471
L70209 58471
L70129 58508
" />
<path d="M70410 58958
L70331 58996
L70143 58996
L70073 58958
L70045 58883
L70054 58808
L70101 58733
L70181 58696
L70368 58696
L70448 58658
" />
<path d="M70734 58471
L71034 58471
" />
<path d="M70879 58208
L70795 58883
L70823 58958
L70893 58996
L70968 58996
" />
<path d="M71535 58958
L71455 58996
L71305 58996
L71235 58958
L71207 58883
L71244 58583
L71291 58508
L71371 58471
L71521 58471
L71591 58508
L71619 58583
L71610 58658
L71226 58733
" />
<path d="M71905 58996
L71971 58471
" />
<path d="M71962 58546
L72004 58508
L72083 58471
L72196 58471
L72266 58508
L72294 58583
L72243 58996
" />
<path d="M72294 58583
L72341 58508
L72421 58471
L72533 58471
L72604 58508
L72632 58583
L72580 58996
" />
<path d="M73293 58996
L73344 58583
L73316 58508
L73246 58471
L73096 58471
L73016 58508
" />
<path d="M73297 58958
L73218 58996
L73030 58996
L72960 58958
L72932 58883
L72941 58808
L72988 58733
L73068 58696
L73255 58696
L73335 58658
" />
<path d="M73733 58471
L73668 58996
" />
<path d="M73724 58546
L73766 58508
L73846 58471
L73958 58471
L74029 58508
L74057 58583
L74005 58996
" />
<path d="M74422 58958
L74418 58996
L74371 59071
L74328 59108
" />
<path d="M75678 58208
L75608 58771
L75556 58883
L75472 58958
L75355 58996
L75280 58996
" />
<path d="M75955 58996
L76053 58208
L76353 58208
L76424 58246
L76456 58283
L76484 58358
L76470 58471
L76424 58546
L76381 58583
L76302 58621
L76002 58621
" />
<path d="M77394 58583
L77656 58583
" />
<path d="M77717 58996
L77342 58996
L77441 58208
L77816 58208
" />
<path d="M78120 58471
L78055 58996
" />
<path d="M78111 58546
L78153 58508
L78233 58471
L78345 58471
L78415 58508
L78444 58583
L78392 58996
" />
<path d="M78720 58471
L79020 58471
" />
<path d="M78865 58208
L78781 58883
L78809 58958
L78879 58996
L78954 58996
" />
<path d="M79522 58958
L79442 58996
L79292 58996
L79222 58958
L79193 58883
L79231 58583
L79278 58508
L79358 58471
L79508 58471
L79578 58508
L79606 58583
L79597 58658
L79212 58733
" />
<path d="M79892 58996
L79957 58471
" />
<path d="M79939 58621
L79986 58546
L80028 58508
L80107 58471
L80182 58471
" />
<path d="M80445 58471
L80346 59258
" />
<path d="M80440 58508
L80520 58471
L80670 58471
L80740 58508
L80773 58546
L80801 58621
L80773 58846
L80726 58921
L80684 58958
L80604 58996
L80454 58996
L80384 58958
" />
<path d="M81092 58996
L81157 58471
" />
<path d="M81139 58621
L81185 58546
L81228 58508
L81307 58471
L81382 58471
" />
<path d="M81579 58996
L81645 58471
" />
<path d="M81678 58208
L81635 58246
L81668 58283
L81710 58246
L81678 58208
L81668 58283
" />
<path d="M81921 58958
L81992 58996
L82142 58996
L82221 58958
L82268 58883
L82273 58846
L82245 58771
L82174 58733
L82062 58733
L81992 58696
L81963 58621
L81968 58583
L82015 58508
L82095 58471
L82207 58471
L82277 58508
" />
<path d="M82896 58958
L82816 58996
L82666 58996
L82596 58958
L82568 58883
L82606 58583
L82652 58508
L82732 58471
L82882 58471
L82952 58508
L82981 58583
L82971 58658
L82587 58733
" />
<path d="M83234 58958
L83304 58996
L83454 58996
L83534 58958
L83580 58883
L83585 58846
L83557 58771
L83487 58733
L83374 58733
L83304 58696
L83276 58621
L83280 58583
L83327 58508
L83407 58471
L83520 58471
L83590 58508
" />
</g>
<g style="fill:#000000; fill-opacity:0.0; 
stroke:#000000; stroke-width:236.22; stroke-opacity:1; 
stroke-linecap:round; stroke-linejoin:round;">
<path d="M44553 55193
L45228 55193
" />
<path d="M44890 56374
L44890 55193
" />
<path d="M46296 56261
L46240 56318
L46071 56374
L45959 56374
L45790 56318
L45678 56205
L45621 56093
L45565 55868
L45565 55699
L45621 55474
L45678 55361
L45790 55249
L45959 55193
L46071 55193
L46240 55249
L46296 55305
" />
<path d="M46971 55699
L46859 55643
L46803 55586
L46746 55474
L46746 55418
L46803 55305
L46859 55249
L46971 55193
L47196 55193
L47309 55249
L47365 55305
L47421 55418
L47421 55474
L47365 55586
L47309 55643
L47196 55699
L46971 55699
L46859 55755
L46803 55811
L46746 55924
L46746 56149
L46803 56261
L46859 56318
L46971 56374
L47196 56374
L47309 56318
L47365 56261
L47421 56149
L47421 55924
L47365 55811
L47309 55755
L47196 55699
" />
<path d="M37053 55193
L37728 55193
" />
<path d="M37390 56374
L37390 55193
" />
<path d="M38796 56261
L38740 56318
L38571 56374
L38459 56374
L38290 56318
L38178 56205
L38121 56093
L38065 55868
L38065 55699
L38121 55474
L38178 55361
L38290 55249
L38459 55193
L38571 55193
L38740 55249
L38796 55305
" />
<path d="M39190 55193
L39977 55193
L39471 56374
" />
<path d="M29553 55193
L30228 55193
" />
<path d="M29890 56374
L29890 55193
" />
<path d="M31296 56261
L31240 56318
L31071 56374
L30959 56374
L30790 56318
L30678 56205
L30621 56093
L30565 55868
L30565 55699
L30621 55474
L30678 55361
L30790 55249
L30959 55193
L31071 55193
L31240 55249
L31296 55305
" />
<path d="M32309 55193
L32084 55193
L31971 55249
L31915 55305
L31803 55474
L31746 55699
L31746 56149
L31803 56261
L31859 56318
L31971 56374
L32196 56374
L32309 56318
L32365 56261
L32421 56149
L32421 55868
L32365 55755
L32309 55699
L32196 55643
L31971 55643
L31859 55699
L31803 55755
L31746 55868
" />
<path d="M23053 55193
L23728 55193
" />
<path d="M23390 56374
L23390 55193
" />
<path d="M24796 56261
L24740 56318
L24571 56374
L24459 56374
L24290 56318
L24178 56205
L24121 56093
L24065 55868
L24065 55699
L24121 55474
L24178 55361
L24290 55249
L24459 55193
L24571 55193
L24740 55249
L24796 55305
" />
<path d="M25865 55193
L25303 55193
L25246 55755
L25303 55699
L25415 55643
L25696 55643
L25809 55699
L25865 55755
L25921 55868
L25921 56149
L25865 56261
L25809 56318
L25696 56374
L25415 56374
L25303 56318
L25246 56261
" />
<path d="M88053 54693
L88728 54693
" />
<path d="M88390 55874
L88390 54693
" />
<path d="M89796 55761
L89740 55818
L89571 55874
L89459 55874
L89290 55818
L89178 55705
L89121 55593
L89065 55368
L89065 55199
L89121 54974
L89178 54861
L89290 54749
L89459 54693
L89571 54693
L89740 54749
L89796 54805
" />
<path d="M90809 55086
L90809 55874
" />
<path d="M90527 54636
L90246 55480
L90977 55480
" />
<path d="M81053 54693
L81728 54693
" />
<path d="M81390 55874
L81390 54693
" />
<path d="M82796 55761
L82740 55818
L82571 55874
L82459 55874
L82290 55818
L82178 55705
L82121 55593
L82065 55368
L82065 55199
L82121 54974
L82178 54861
L82290 54749
L82459 54693
L82571 54693
L82740 54749
L82796 54805
" />
<path d="M83190 54693
L83921 54693
L83527 55143
L83696 55143
L83809 55199
L83865 55255
L83921 55368
L83921 55649
L83865 55761
L83809 55818
L83696 55874
L83359 55874
L83246 55818
L83190 55761
" />
<path d="M74053 54693
L74728 54693
" />
<path d="M74390 55874
L74390 54693
" />
<path d="M75796 55761
L75740 55818
L75571 55874
L75459 55874
L75290 55818
L75178 55705
L75121 55593
L75065 55368
L75065 55199
L75121 54974
L75178 54861
L75290 54749
L75459 54693
L75571 54693
L75740 54749
L75796 54805
" />
<path d="M76246 54805
L76303 54749
L76415 54693
L76696 54693
L76809 54749
L76865 54805
L76921 54918
L76921 55030
L76865 55199
L76190 55874
L76921 55874
" />
<path d="M66453 54533
L67128 54533
" />
<path d="M66790 55714
L66790 54533
" />
<path d="M68196 55601
L68140 55658
L67971 55714
L67859 55714
L67690 55658
L67578 55545
L67521 55433
L67465 55208
L67465 55039
L67521 54814
L67578 54701
L67690 54589
L67859 54533
L67971 54533
L68140 54589
L68196 54645
" />
<path d="M69321 55714
L68646 55714
" />
<path d="M68984 55714
L68984 54533
L68871 54701
L68759 54814
L68646 54870
" />
<path d="M26073 58359
L25961 58303
L25905 58246
L25848 58134
L25848 58078
L25905 57965
L25961 57909
L26073 57853
L26298 57853
L26411 57909
L26467 57965
L26523 58078
L26523 58134
L26467 58246
L26411 58303
L26298 58359
L26073 58359
L25961 58415
L25905 58471
L25848 58584
L25848 58809
L25905 58921
L25961 58978
L26073 59034
L26298 59034
L26411 58978
L26467 58921
L26523 58809
L26523 58584
L26467 58471
L26411 58415
L26298 58359
" />
<path d="M27030 58584
L27929 58584
" />
<path d="M29167 58921
L29111 58978
L28942 59034
L28829 59034
L28661 58978
L28548 58865
L28492 58753
L28436 58528
L28436 58359
L28492 58134
L28548 58021
L28661 57909
L28829 57853
L28942 57853
L29111 57909
L29167 57965
" />
<path d="M29673 59034
L29673 57853
" />
<path d="M30179 59034
L30179 58415
L30123 58303
L30010 58246
L29842 58246
L29729 58303
L29673 58359
" />
<path d="M31248 59034
L31248 58415
L31191 58303
L31079 58246
L30854 58246
L30742 58303
" />
<path d="M31248 58978
L31135 59034
L30854 59034
L30742 58978
L30685 58865
L30685 58753
L30742 58640
L30854 58584
L31135 58584
L31248 58528
" />
<path d="M31810 58246
L31810 59034
" />
<path d="M31810 58359
L31866 58303
L31979 58246
L32148 58246
L32260 58303
L32316 58415
L32316 59034
" />
<path d="M32879 58246
L32879 59034
" />
<path d="M32879 58359
L32935 58303
L33048 58246
L33216 58246
L33329 58303
L33385 58415
L33385 59034
" />
<path d="M34397 58978
L34285 59034
L34060 59034
L33947 58978
L33891 58865
L33891 58415
L33947 58303
L34060 58246
L34285 58246
L34397 58303
L34454 58415
L34454 58528
L33891 58640
" />
<path d="M35129 59034
L35016 58978
L34960 58865
L34960 57853
" />
<path d="M36310 57853
L36985 57853
" />
<path d="M36647 59034
L36647 57853
" />
<path d="M37378 59034
L37378 57853
" />
<path d="M37884 59034
L37884 58415
L37828 58303
L37716 58246
L37547 58246
L37434 58303
L37378 58359
" />
<path d="M38897 58978
L38784 59034
L38559 59034
L38447 58978
L38391 58865
L38391 58415
L38447 58303
L38559 58246
L38784 58246
L38897 58303
L38953 58415
L38953 58528
L38391 58640
" />
<path d="M39459 59034
L39459 58246
" />
<path d="M39459 58471
L39515 58359
L39572 58303
L39684 58246
L39797 58246
" />
<path d="M40190 59034
L40190 58246
" />
<path d="M40190 58359
L40247 58303
L40359 58246
L40528 58246
L40640 58303
L40697 58415
L40697 59034
" />
<path d="M40697 58415
L40753 58303
L40865 58246
L41034 58246
L41147 58303
L41203 58415
L41203 59034
" />
<path d="M41934 59034
L41821 58978
L41765 58921
L41709 58809
L41709 58471
L41765 58359
L41821 58303
L41934 58246
L42103 58246
L42215 58303
L42271 58359
L42328 58471
L42328 58809
L42271 58921
L42215 58978
L42103 59034
L41934 59034
" />
<path d="M43340 58978
L43227 59034
L43003 59034
L42890 58978
L42834 58921
L42778 58809
L42778 58471
L42834 58359
L42890 58303
L43003 58246
L43227 58246
L43340 58303
" />
<path d="M44015 59034
L43902 58978
L43846 58921
L43790 58809
L43790 58471
L43846 58359
L43902 58303
L44015 58246
L44184 58246
L44296 58303
L44352 58359
L44409 58471
L44409 58809
L44352 58921
L44296 58978
L44184 59034
L44015 59034
" />
<path d="M45421 58246
L45421 59034
" />
<path d="M44915 58246
L44915 58865
L44971 58978
L45084 59034
L45252 59034
L45365 58978
L45421 58921
" />
<path d="M45983 58246
L45983 59428
" />
<path d="M45983 58303
L46096 58246
L46321 58246
L46433 58303
L46490 58359
L46546 58471
L46546 58809
L46490 58921
L46433 58978
L46321 59034
L46096 59034
L45983 58978
" />
<path d="M47221 59034
L47108 58978
L47052 58865
L47052 57853
" />
<path d="M48121 58978
L48008 59034
L47783 59034
L47671 58978
L47614 58865
L47614 58415
L47671 58303
L47783 58246
L48008 58246
L48121 58303
L48177 58415
L48177 58528
L47614 58640
" />
<path d="M49583 59034
L49583 57853
L49864 57853
L50033 57909
L50145 58021
L50202 58134
L50258 58359
L50258 58528
L50202 58753
L50145 58865
L50033 58978
L49864 59034
L49583 59034
" />
<path d="M51270 59034
L51270 58415
L51214 58303
L51102 58246
L50877 58246
L50764 58303
" />
<path d="M51270 58978
L51158 59034
L50877 59034
L50764 58978
L50708 58865
L50708 58753
L50764 58640
L50877 58584
L51158 58584
L51270 58528
" />
<path d="M51664 58246
L52114 58246
" />
<path d="M51833 57853
L51833 58865
L51889 58978
L52001 59034
L52114 59034
" />
<path d="M53014 59034
L53014 58415
L52958 58303
L52845 58246
L52620 58246
L52508 58303
" />
<path d="M53014 58978
L52901 59034
L52620 59034
L52508 58978
L52451 58865
L52451 58753
L52508 58640
L52620 58584
L52901 58584
L53014 58528
" />
<path d="M53745 59034
L53632 58978
L53576 58865
L53576 57853
" />
<path d="M54364 59034
L54251 58978
L54195 58921
L54139 58809
L54139 58471
L54195 58359
L54251 58303
L54364 58246
L54532 58246
L54645 58303
L54701 58359
L54757 58471
L54757 58809
L54701 58921
L54645 58978
L54532 59034
L54364 59034
" />
<path d="M55770 58246
L55770 59203
L55713 59315
L55657 59371
L55545 59428
L55376 59428
L55263 59371
" />
<path d="M55770 58978
L55657 59034
L55432 59034
L55320 58978
L55263 58921
L55207 58809
L55207 58471
L55263 58359
L55320 58303
L55432 58246
L55657 58246
L55770 58303
" />
<path d="M56838 58246
L56838 59203
L56782 59315
L56726 59371
L56613 59428
L56445 59428
L56332 59371
" />
<path d="M56838 58978
L56726 59034
L56501 59034
L56388 58978
L56332 58921
L56276 58809
L56276 58471
L56332 58359
L56388 58303
L56501 58246
L56726 58246
L56838 58303
" />
<path d="M57851 58978
L57738 59034
L57513 59034
L57401 58978
L57344 58865
L57344 58415
L57401 58303
L57513 58246
L57738 58246
L57851 58303
L57907 58415
L57907 58528
L57344 58640
" />
<path d="M58413 59034
L58413 58246
" />
<path d="M58413 58471
L58469 58359
L58526 58303
L58638 58246
L58751 58246
" />
</g>
<g style="fill:#000000; fill-opacity:0.0; 
stroke:#000000; stroke-width:118.11; stroke-opacity:1; 
stroke-linecap:round; stroke-linejoin:round;">
<path d="M39895 42598
L40007 42636
L40195 42636
L40270 42598
L40307 42561
L40345 42486
L40345 42411
L40307 42336
L40270 42298
L40195 42261
L40045 42223
L39970 42186
L39932 42148
L39895 42073
L39895 41998
L39932 41923
L39970 41886
L40045 41848
L40232 41848
L40345 41886
" />
<path d="M40982 42598
L40907 42636
L40757 42636
L40682 42598
L40645 42523
L40645 42223
L40682 42148
L40757 42111
L40907 42111
L40982 42148
L41020 42223
L41020 42298
L40645 42373
" />
<path d="M41470 42636
L41395 42598
L41357 42523
L41357 41848
" />
<path d="M42069 42598
L41994 42636
L41844 42636
L41769 42598
L41732 42523
L41732 42223
L41769 42148
L41844 42111
L41994 42111
L42069 42148
L42107 42223
L42107 42298
L41732 42373
" />
<path d="M42782 42598
L42707 42636
L42557 42636
L42482 42598
L42444 42561
L42407 42486
L42407 42261
L42444 42186
L42482 42148
L42557 42111
L42707 42111
L42782 42148
" />
<path d="M43007 42111
L43307 42111
" />
<path d="M43119 41848
L43119 42523
L43157 42598
L43232 42636
L43307 42636
" />
<path d="M34120 41538
L34232 41576
L34420 41576
L34495 41538
L34532 41501
L34570 41426
L34570 41351
L34532 41276
L34495 41238
L34420 41201
L34270 41163
L34195 41126
L34157 41088
L34120 41013
L34120 40938
L34157 40863
L34195 40826
L34270 40788
L34457 40788
L34570 40826
" />
<path d="M34832 41051
L34982 41576
L35132 41201
L35282 41576
L35432 41051
" />
<path d="M35732 41576
L35732 41051
" />
<path d="M35732 40788
L35695 40826
L35732 40863
L35770 40826
L35732 40788
L35732 40863
" />
<path d="M35994 41051
L36294 41051
" />
<path d="M36107 40788
L36107 41463
L36144 41538
L36219 41576
L36294 41576
" />
<path d="M36894 41538
L36819 41576
L36669 41576
L36594 41538
L36557 41501
L36519 41426
L36519 41201
L36557 41126
L36594 41088
L36669 41051
L36819 41051
L36894 41088
" />
<path d="M37232 41576
L37232 40788
" />
<path d="M37569 41576
L37569 41163
L37532 41088
L37457 41051
L37344 41051
L37269 41088
L37232 41126
" />
<path d="M70712 23596
L70712 22808
L70900 22808
L71012 22846
L71087 22921
L71125 22996
L71162 23146
L71162 23258
L71125 23408
L71087 23483
L71012 23558
L70900 23596
L70712 23596
" />
<path d="M71500 23596
L71500 23071
" />
<path d="M71500 22808
L71462 22846
L71500 22883
L71537 22846
L71500 22808
L71500 22883
" />
<path d="M71837 23558
L71912 23596
L72062 23596
L72137 23558
L72175 23483
L72175 23446
L72137 23371
L72062 23333
L71950 23333
L71875 23296
L71837 23221
L71837 23183
L71875 23108
L71950 23071
L72062 23071
L72137 23108
" />
<path d="M72512 23071
L72512 23858
" />
<path d="M72512 23108
L72587 23071
L72737 23071
L72812 23108
L72849 23146
L72887 23221
L72887 23446
L72849 23521
L72812 23558
L72737 23596
L72587 23596
L72512 23558
" />
<path d="M73337 23596
L73262 23558
L73224 23483
L73224 22808
" />
<path d="M73974 23596
L73974 23183
L73937 23108
L73862 23071
L73712 23071
L73637 23108
" />
<path d="M73974 23558
L73899 23596
L73712 23596
L73637 23558
L73599 23483
L73599 23408
L73637 23333
L73712 23296
L73899 23296
L73974 23258
" />
<path d="M74274 23071
L74462 23596
" />
<path d="M74649 23071
L74462 23596
L74387 23783
L74349 23821
L74274 23858
" />
<path d="M69587 45258
L69700 45296
L69887 45296
L69962 45258
L70000 45221
L70037 45146
L70037 45071
L70000 44996
L69962 44958
L69887 44921
L69737 44883
L69662 44846
L69625 44808
L69587 44733
L69587 44658
L69625 44583
L69662 44546
L69737 44508
L69925 44508
L70037 44546
" />
<path d="M70675 45258
L70600 45296
L70450 45296
L70375 45258
L70337 45183
L70337 44883
L70375 44808
L70450 44771
L70600 44771
L70675 44808
L70712 44883
L70712 44958
L70337 45033
" />
<path d="M71050 45296
L71050 44771
" />
<path d="M71050 44921
L71087 44846
L71124 44808
L71199 44771
L71274 44771
" />
<path d="M71537 45296
L71537 44771
" />
<path d="M71537 44508
L71499 44546
L71537 44583
L71574 44546
L71537 44508
L71537 44583
" />
<path d="M72249 45296
L72249 44883
L72212 44808
L72137 44771
L71987 44771
L71912 44808
" />
<path d="M72249 45258
L72174 45296
L71987 45296
L71912 45258
L71874 45183
L71874 45108
L71912 45033
L71987 44996
L72174 44996
L72249 44958
" />
<path d="M72737 45296
L72662 45258
L72624 45183
L72624 44508
" />
<path d="M77387 44883
L77650 44883
" />
<path d="M77762 45296
L77387 45296
L77387 44508
L77762 44508
" />
<path d="M78100 44771
L78100 45296
" />
<path d="M78100 44846
L78137 44808
L78212 44771
L78325 44771
L78400 44808
L78437 44883
L78437 45296
" />
<path d="M79150 45258
L79075 45296
L78925 45296
L78850 45258
L78812 45221
L78775 45146
L78775 44921
L78812 44846
L78850 44808
L78925 44771
L79075 44771
L79150 44808
" />
<path d="M79599 45296
L79524 45258
L79487 45221
L79450 45146
L79450 44921
L79487 44846
L79524 44808
L79599 44771
L79712 44771
L79787 44808
L79824 44846
L79862 44921
L79862 45146
L79824 45221
L79787 45258
L79712 45296
L79599 45296
" />
<path d="M80537 45296
L80537 44508
" />
<path d="M80537 45258
L80462 45296
L80312 45296
L80237 45258
L80199 45221
L80162 45146
L80162 44921
L80199 44846
L80237 44808
L80312 44771
L80462 44771
L80537 44808
" />
<path d="M81212 45258
L81137 45296
L80987 45296
L80912 45258
L80874 45183
L80874 44883
L80912 44808
L80987 44771
L81137 44771
L81212 44808
L81249 44883
L81249 44958
L80874 45033
" />
<path d="M81587 45296
L81587 44771
" />
<path d="M81587 44921
L81624 44846
L81662 44808
L81737 44771
L81812 44771
" />
</g>
<g style="fill:#000000; fill-opacity:0.0; 
stroke:#000000; stroke-width:157.48; stroke-opacity:1; 
stroke-linecap:round; stroke-linejoin:round;">
<path d="M17743 60920
L17743 21610
" />
<path d="M96483 60900
L96483 21569
" />
</g>
<g style="fill:#000000; fill-opacity:0.0; 
stroke:#000000; stroke-width:94.4882; stroke-opacity:1; 
stroke-linecap:round; stroke-linejoin:round;">
<path d="M49547 23180
L49140 23180
" />
<path d="M49547 24299
L49140 24299
" />
<path d="M63984 50536
L63984 50943
" />
<path d="M65102 50536
L65102 50943
" />
<path d="M49547 24780
L49140 24780
" />
<path d="M49547 25899
L49140 25899
" />
<path d="M49140 27499
L49547 27499
" />
<path d="M49140 26380
L49547 26380
" />
<path d="M71184 50748
L71184 51156
" />
<path d="M72302 50748
L72302 51156
" />
<path d="M78384 50436
L78384 50843
" />
<path d="M79502 50436
L79502 50843
" />
<path d="M85584 50416
L85584 50823
" />
<path d="M86702 50416
L86702 50823
" />
<path d="M27394 50736
L27394 51143
" />
<path d="M28512 50736
L28512 51143
" />
<path d="M34544 50736
L34544 51143
" />
<path d="M35662 50736
L35662 51143
" />
<path d="M41794 50757
L41794 51165
" />
<path d="M42912 50757
L42912 51165
" />
<path d="M48684 51036
L48684 51443
" />
<path d="M49802 51036
L49802 51443
" />
<path d="M35662 47943
L35662 47536
" />
<path d="M34544 47943
L34544 47536
" />
<path d="M28512 47943
L28512 47536
" />
<path d="M27394 47943
L27394 47536
" />
<path d="M86702 54343
L86702 53936
" />
<path d="M85584 54343
L85584 53936
" />
<path d="M86702 47595
L86702 47188
" />
<path d="M85584 47595
L85584 47188
" />
<path d="M79502 54343
L79502 53936
" />
<path d="M78384 54343
L78384 53936
" />
<path d="M79502 47543
L79502 47136
" />
<path d="M78384 47543
L78384 47136
" />
<path d="M72302 54691
L72302 54284
" />
<path d="M71184 54691
L71184 54284
" />
<path d="M72302 47931
L72302 47523
" />
<path d="M71184 47931
L71184 47523
" />
<path d="M65102 54503
L65102 54096
" />
<path d="M63984 54503
L63984 54096
" />
<path d="M65102 47943
L65102 47536
" />
<path d="M63984 47943
L63984 47536
" />
<path d="M35662 54743
L35662 54336
" />
<path d="M34544 54743
L34544 54336
" />
<path d="M42862 47943
L42862 47536
" />
<path d="M41744 47943
L41744 47536
" />
<path d="M42862 54743
L42862 54336
" />
<path d="M41744 54743
L41744 54336
" />
<path d="M28462 54743
L28462 54336
" />
<path d="M27344 54743
L27344 54336
" />
<path d="M50462 54743
L50462 54336
" />
<path d="M49344 54743
L49344 54336
" />
<path d="M50462 47943
L50462 47536
" />
<path d="M49344 47943
L49344 47536
" />
<path d="M62347 38780
L61940 38780
" />
<path d="M62347 39899
L61940 39899
" />
<path d="M41325 30512
L41325 30020
" />
<path d="M41571 30266
L41079 30266
" />
<path d="M40890 27604
L40052 26766
" />
<path d="M40890 30275
L40052 31113
" />
<path d="M40890 30275
L40890 29774
" />
<path d="M40890 27604
L40890 28105
" />
<path d="M40052 26766
L36543 26766
" />
<path d="M40052 31113
L36543 31113
" />
<path d="M36543 31113
L36543 29774
" />
<path d="M36543 26766
L36543 28105
" />
<path d="M41325 25834
L41325 25341
" />
<path d="M41571 25588
L41079 25588
" />
<path d="M40890 22926
L40052 22088
" />
<path d="M40890 25596
L40052 26434
" />
<path d="M40890 25596
L40890 25095
" />
<path d="M40890 22926
L40890 23426
" />
<path d="M40052 22088
L36543 22088
" />
<path d="M40052 26434
L36543 26434
" />
<path d="M36543 26434
L36543 25095
" />
<path d="M36543 22088
L36543 23426
" />
<path d="M66004 39091
L66292 39379
" />
<path d="M66795 38300
L67083 38588
" />
<path d="M51862 51443
L51862 51036
" />
<path d="M50744 51443
L50744 51036
" />
<path d="M81002 36983
L81002 36576
" />
<path d="M79884 36983
L79884 36576
" />
<path d="M79002 36996
L79002 36588
" />
<path d="M77884 36996
L77884 36588
" />
<path d="M83002 36983
L83002 36576
" />
<path d="M81884 36983
L81884 36576
" />
<path d="M71166 27855
L70878 28143
" />
<path d="M71957 28645
L71669 28933
" />
<path d="M72306 29075
L72018 29363
" />
<path d="M73097 29865
L72809 30153
" />
<path d="M69596 44287
L69596 43240
" />
<path d="M70643 44287
L69596 44287
" />
<path d="M71643 44287
L71643 42192
" />
<path d="M71643 42192
L75690 42192
" />
<path d="M71643 44287
L75690 44287
" />
<path d="M75690 44287
L75690 42192
" />
<path d="M76047 25838
L76180 25705
" />
<path d="M75044 24836
L76047 25838
" />
<path d="M74042 27843
L73040 26841
" />
<path d="M72817 25059
L73263 24613
" />
<path d="M76269 27620
L75824 28066
" />
<path d="M76492 27843
L76269 27620
" />
<path d="M23511 27528
L23511 30599
" />
<path d="M21936 27528
L21936 30599
" />
<path d="M23511 27528
L21936 27528
" />
<path d="M21651 27528
L21651 30599
" />
<path d="M20076 27528
L20076 30599
" />
<path d="M21651 27528
L20076 27528
" />
<path d="M19815 34190
L19815 34313
" />
<path d="M19815 32366
L19815 32489
" />
<path d="M20224.1 34190.4 A1181.1 1181.1 0.0 0 0 21863.5 34190.3 " />
<path d="M21863.5 32489.7 A1181.1 1181.1 0.0 0 0 20224.1 32489.6 " />
<path d="M19815.4 34312.8 A1566.93 1566.93 0.0 0 0 22360.5 34189.3 " />
<path d="M22360.5 32490.7 A1566.93 1566.93 0.0 0 0 19815.4 32367.2 " />
</g>
<g style="fill:#000000; fill-opacity:0.0; 
stroke:#000000; stroke-width:78.7402; stroke-opacity:1; 
stroke-linecap:round; stroke-linejoin:round;">
<path d="M62810 46273
L61511 46273
" />
<path d="M62810 47572
L62810 46273
" />
<path d="M62810 56406
L61511 56406
" />
<path d="M62810 55107
L62810 56406
" />
<path d="M52676 46273
L53976 46273
" />
<path d="M52676 47572
L52676 46273
" />
<path d="M53582 56406
L53976 56406
" />
<path d="M52676 55501
L53582 56406
" />
<path d="M52676 55107
L52676 55501
" />
</g>
<g style="fill:#000000; fill-opacity:0.0; 
stroke:#000000; stroke-width:118.11; stroke-opacity:1; 
stroke-linecap:round; stroke-linejoin:round;">
<path d="M73429 34629
L74111 33947
" />
<path d="M69517 38791
L69684 38624
" />
<path d="M65481 34754
L65648 34587
" />
<path d="M69517 30717
L69350 30884
" />
<path d="M73554 34754
L73387 34921
" />
<path d="M69517 30717
L69684 30884
" />
<path d="M65481 34754
L65648 34921
" />
<path d="M69517 38791
L69350 38624
" />
<path d="M73554 34754
L73429 34629
" />
</g>
<g style="fill:#000000; fill-opacity:0.0; 
stroke:#000000; stroke-width:94.4882; stroke-opacity:1; 
stroke-linecap:round; stroke-linejoin:round;">
<path d="M48099 30138
L48099 28988
" />
<path d="M50587 30138
L50587 28437
" />
<path d="M50587 30138
L49855 30138
" />
<path d="M48099 30138
L48831 30138
" />
<path d="M18524 29044
L18524 29451
" />
<path d="M19642 29044
L19642 29451
" />
<path d="M30442 32306
L30442 32713
" />
<path d="M31560 32306
L31560 32713
" />
<path d="M74404 31991
L74692 32279
" />
<path d="M75195 31200
L75483 31488
" />
<path d="M83002 39783
L83002 39376
" />
<path d="M81884 39783
L81884 39376
" />
<path d="M79002 39783
L79002 39376
" />
<path d="M77884 39783
L77884 39376
" />
<path d="M81002 39783
L81002 39376
" />
<path d="M79884 39783
L79884 39376
" />
<path d="M62363 31540
L61956 31540
" />
<path d="M62363 32659
L61956 32659
" />
<path d="M62347 29780
L61940 29780
" />
<path d="M62347 30899
L61940 30899
" />
<path d="M81087 33100
L80680 33100
" />
<path d="M81087 34219
L80680 34219
" />
<path d="M85984 26136
L85984 26543
" />
<path d="M87102 26136
L87102 26543
" />
<path d="M65578 53984
L66562 53984
" />
<path d="M65578 52999
L65578 53984
" />
<path d="M69909 48354
L69909 50755
" />
<path d="M67586 48354
L69909 48354
" />
<path d="M67586 47763
L67586 48354
" />
<path d="M69909 53157
L69909 50755
" />
<path d="M67586 53157
L69909 53157
" />
<path d="M67586 53747
L67586 53157
" />
<path d="M65814 47763
L65814 49180
" />
<path d="M66405 47763
L65814 47763
" />
<path d="M66405 49180
L66405 47763
" />
<path d="M65814 49180
L66405 49180
" />
<path d="M65814 52330
L65814 53747
" />
<path d="M66405 52330
L65814 52330
" />
<path d="M66405 53747
L66405 52330
" />
<path d="M65814 53747
L66405 53747
" />
<path d="M65814 50362
L65814 51149
" />
<path d="M66405 50362
L65814 50362
" />
<path d="M66405 51149
L66405 50362
" />
<path d="M65814 51149
L66405 51149
" />
<path d="M65806 47755
L65806 53755
" />
<path d="M70507 47755
L65806 47755
" />
<path d="M70507 53755
L70507 47755
" />
<path d="M65806 53755
L70507 53755
" />
<path d="M72798 54244
L73782 54244
" />
<path d="M72798 53259
L72798 54244
" />
<path d="M77129 48614
L77129 51015
" />
<path d="M74806 48614
L77129 48614
" />
<path d="M74806 48023
L74806 48614
" />
<path d="M77129 53417
L77129 51015
" />
<path d="M74806 53417
L77129 53417
" />
<path d="M74806 54007
L74806 53417
" />
<path d="M73034 48023
L73034 49440
" />
<path d="M73625 48023
L73034 48023
" />
<path d="M73625 49440
L73625 48023
" />
<path d="M73034 49440
L73625 49440
" />
<path d="M73034 52590
L73034 54007
" />
<path d="M73625 52590
L73034 52590
" />
<path d="M73625 54007
L73625 52590
" />
<path d="M73034 54007
L73625 54007
" />
<path d="M73034 50622
L73034 51409
" />
<path d="M73625 50622
L73034 50622
" />
<path d="M73625 51409
L73625 50622
" />
<path d="M73034 51409
L73625 51409
" />
<path d="M73026 48015
L73026 54015
" />
<path d="M77727 48015
L73026 48015
" />
<path d="M77727 54015
L77727 48015
" />
<path d="M73026 54015
L77727 54015
" />
<path d="M79978 53984
L80962 53984
" />
<path d="M79978 52999
L79978 53984
" />
<path d="M84309 48354
L84309 50755
" />
<path d="M81986 48354
L84309 48354
" />
<path d="M81986 47763
L81986 48354
" />
<path d="M84309 53157
L84309 50755
" />
<path d="M81986 53157
L84309 53157
" />
<path d="M81986 53747
L81986 53157
" />
<path d="M80214 47763
L80214 49180
" />
<path d="M80805 47763
L80214 47763
" />
<path d="M80805 49180
L80805 47763
" />
<path d="M80214 49180
L80805 49180
" />
<path d="M80214 52330
L80214 53747
" />
<path d="M80805 52330
L80214 52330
" />
<path d="M80805 53747
L80805 52330
" />
<path d="M80214 53747
L80805 53747
" />
<path d="M80214 50362
L80214 51149
" />
<path d="M80805 50362
L80214 50362
" />
<path d="M80805 51149
L80805 50362
" />
<path d="M80214 51149
L80805 51149
" />
<path d="M80206 47755
L80206 53755
" />
<path d="M84907 47755
L80206 47755
" />
<path d="M84907 53755
L84907 47755
" />
<path d="M80206 53755
L84907 53755
" />
<path d="M87178 53984
L88162 53984
" />
<path d="M87178 52999
L87178 53984
" />
<path d="M91509 48354
L91509 50755
" />
<path d="M89186 48354
L91509 48354
" />
<path d="M89186 47763
L89186 48354
" />
<path d="M91509 53157
L91509 50755
" />
<path d="M89186 53157
L91509 53157
" />
<path d="M89186 53747
L89186 53157
" />
<path d="M87414 47763
L87414 49180
" />
<path d="M88005 47763
L87414 47763
" />
<path d="M88005 49180
L88005 47763
" />
<path d="M87414 49180
L88005 49180
" />
<path d="M87414 52330
L87414 53747
" />
<path d="M88005 52330
L87414 52330
" />
<path d="M88005 53747
L88005 52330
" />
<path d="M87414 53747
L88005 53747
" />
<path d="M87414 50362
L87414 51149
" />
<path d="M88005 50362
L87414 50362
" />
<path d="M88005 51149
L88005 50362
" />
<path d="M87414 51149
L88005 51149
" />
<path d="M87406 47755
L87406 53755
" />
<path d="M92107 47755
L87406 47755
" />
<path d="M92107 53755
L92107 47755
" />
<path d="M87406 53755
L92107 53755
" />
<path d="M21738 54352
L22722 54352
" />
<path d="M21738 53368
L21738 54352
" />
<path d="M26069 48722
L26069 51124
" />
<path d="M23746 48722
L26069 48722
" />
<path d="M23746 48132
L23746 48722
" />
<path d="M26069 53525
L26069 51124
" />
<path d="M23746 53525
L26069 53525
" />
<path d="M23746 54116
L23746 53525
" />
<path d="M21974 48132
L21974 49549
" />
<path d="M22565 48132
L21974 48132
" />
<path d="M22565 49549
L22565 48132
" />
<path d="M21974 49549
L22565 49549
" />
<path d="M21974 52699
L21974 54116
" />
<path d="M22565 52699
L21974 52699
" />
<path d="M22565 54116
L22565 52699
" />
<path d="M21974 54116
L22565 54116
" />
<path d="M21974 50730
L21974 51517
" />
<path d="M22565 50730
L21974 50730
" />
<path d="M22565 51517
L22565 50730
" />
<path d="M21974 51517
L22565 51517
" />
<path d="M21966 48124
L21966 54124
" />
<path d="M26667 48124
L21966 48124
" />
<path d="M26667 54124
L26667 48124
" />
<path d="M21966 54124
L26667 54124
" />
<path d="M28938 54384
L29922 54384
" />
<path d="M28938 53399
L28938 54384
" />
<path d="M33269 48754
L33269 51155
" />
<path d="M30946 48754
L33269 48754
" />
<path d="M30946 48163
L30946 48754
" />
<path d="M33269 53557
L33269 51155
" />
<path d="M30946 53557
L33269 53557
" />
<path d="M30946 54147
L30946 53557
" />
<path d="M29174 48163
L29174 49580
" />
<path d="M29765 48163
L29174 48163
" />
<path d="M29765 49580
L29765 48163
" />
<path d="M29174 49580
L29765 49580
" />
<path d="M29174 52730
L29174 54147
" />
<path d="M29765 52730
L29174 52730
" />
<path d="M29765 54147
L29765 52730
" />
<path d="M29174 54147
L29765 54147
" />
<path d="M29174 50762
L29174 51549
" />
<path d="M29765 50762
L29174 50762
" />
<path d="M29765 51549
L29765 50762
" />
<path d="M29174 51549
L29765 51549
" />
<path d="M29166 48155
L29166 54155
" />
<path d="M33867 48155
L29166 48155
" />
<path d="M33867 54155
L33867 48155
" />
<path d="M29166 54155
L33867 54155
" />
<path d="M36138 54384
L37122 54384
" />
<path d="M36138 53399
L36138 54384
" />
<path d="M40469 48754
L40469 51155
" />
<path d="M38146 48754
L40469 48754
" />
<path d="M38146 48163
L38146 48754
" />
<path d="M40469 53557
L40469 51155
" />
<path d="M38146 53557
L40469 53557
" />
<path d="M38146 54147
L38146 53557
" />
<path d="M36374 48163
L36374 49580
" />
<path d="M36965 48163
L36374 48163
" />
<path d="M36965 49580
L36965 48163
" />
<path d="M36374 49580
L36965 49580
" />
<path d="M36374 52730
L36374 54147
" />
<path d="M36965 52730
L36374 52730
" />
<path d="M36965 54147
L36965 52730
" />
<path d="M36374 54147
L36965 54147
" />
<path d="M36374 50762
L36374 51549
" />
<path d="M36965 50762
L36374 50762
" />
<path d="M36965 51549
L36965 50762
" />
<path d="M36374 51549
L36965 51549
" />
<path d="M36366 48155
L36366 54155
" />
<path d="M41067 48155
L36366 48155
" />
<path d="M41067 54155
L41067 48155
" />
<path d="M36366 54155
L41067 54155
" />
<path d="M43278 54332
L44262 54332
" />
<path d="M43278 53348
L43278 54332
" />
<path d="M47609 48702
L47609 51104
" />
<path d="M45286 48702
L47609 48702
" />
<path d="M45286 48112
L45286 48702
" />
<path d="M47609 53505
L47609 51104
" />
<path d="M45286 53505
L47609 53505
" />
<path d="M45286 54096
L45286 53505
" />
<path d="M43514 48112
L43514 49529
" />
<path d="M44105 48112
L43514 48112
" />
<path d="M44105 49529
L44105 48112
" />
<path d="M43514 49529
L44105 49529
" />
<path d="M43514 52679
L43514 54096
" />
<path d="M44105 52679
L43514 52679
" />
<path d="M44105 54096
L44105 52679
" />
<path d="M43514 54096
L44105 54096
" />
<path d="M43514 50710
L43514 51497
" />
<path d="M44105 50710
L43514 50710
" />
<path d="M44105 51497
L44105 50710
" />
<path d="M43514 51497
L44105 51497
" />
<path d="M43506 48104
L43506 54104
" />
<path d="M48207 48104
L43506 48104
" />
<path d="M48207 54104
L48207 48104
" />
<path d="M43506 54104
L48207 54104
" />
<path d="M34018 40312
L35002 40312
" />
<path d="M34018 39328
L34018 40312
" />
<path d="M38349 34682
L38349 37084
" />
<path d="M36026 34682
L38349 34682
" />
<path d="M36026 34092
L36026 34682
" />
<path d="M38349 39485
L38349 37084
" />
<path d="M36026 39485
L38349 39485
" />
<path d="M36026 40076
L36026 39485
" />
<path d="M34254 34092
L34254 35509
" />
<path d="M34845 34092
L34254 34092
" />
<path d="M34845 35509
L34845 34092
" />
<path d="M34254 35509
L34845 35509
" />
<path d="M34254 38659
L34254 40076
" />
<path d="M34845 38659
L34254 38659
" />
<path d="M34845 40076
L34845 38659
" />
<path d="M34254 40076
L34845 40076
" />
<path d="M34254 36690
L34254 37477
" />
<path d="M34845 36690
L34254 36690
" />
<path d="M34845 37477
L34845 36690
" />
<path d="M34254 37477
L34845 37477
" />
<path d="M34246 34084
L34246 40084
" />
<path d="M38947 34084
L34246 34084
" />
<path d="M38947 40084
L38947 34084
" />
<path d="M34246 40084
L38947 40084
" />
<path d="M35409 22607
L34425 22607
" />
<path d="M35409 23591
L35409 22607
" />
<path d="M31079 28237
L31079 25836
" />
<path d="M33402 28237
L31079 28237
" />
<path d="M33402 28828
L33402 28237
" />
<path d="M31079 23434
L31079 25836
" />
<path d="M33402 23434
L31079 23434
" />
<path d="M33402 22843
L33402 23434
" />
<path d="M35173 28828
L35173 27410
" />
<path d="M34583 28828
L35173 28828
" />
<path d="M34583 27410
L34583 28828
" />
<path d="M35173 27410
L34583 27410
" />
<path d="M35173 24261
L35173 22843
" />
<path d="M34583 24261
L35173 24261
" />
<path d="M34583 22843
L34583 24261
" />
<path d="M35173 22843
L34583 22843
" />
<path d="M35173 26229
L35173 25442
" />
<path d="M34583 26229
L35173 26229
" />
<path d="M34583 25442
L34583 26229
" />
<path d="M35173 25442
L34583 25442
" />
<path d="M35181 28836
L35181 22836
" />
<path d="M30480 28836
L35181 28836
" />
<path d="M30480 22836
L30480 28836
" />
<path d="M35181 22836
L30480 22836
" />
<path d="M77356 44307
L77356 43260
" />
<path d="M78403 44307
L77356 44307
" />
<path d="M79403 44307
L79403 42212
" />
<path d="M79403 42212
L87450 42212
" />
<path d="M79403 44307
L87450 44307
" />
<path d="M87450 44307
L87450 42212
" />
<path d="M62916 27187
L62916 26140
" />
<path d="M63963 27187
L62916 27187
" />
<path d="M62916 25140
L62916 23092
" />
<path d="M64963 25140
L62916 25140
" />
<path d="M64963 27187
L64963 25140
" />
<path d="M62916 23092
L69010 23092
" />
<path d="M64963 27187
L69010 27187
" />
<path d="M69010 27187
L69010 23092
" />
</g>
<g style="fill:#000000; fill-opacity:0.0; 
stroke:#000000; stroke-width:118.11; stroke-opacity:1; 
stroke-linecap:round; stroke-linejoin:round;">
<path d="M95642 40245
L95642 34458
" />
<path d="M95642 34458
L95681 33395
" />
<path d="M95681 33395
L95799 32489
" />
<path d="M95799 32489
L95957 31623
" />
<path d="M95957 31623
L96193 30796
" />
<path d="M85169 32253
L84146 32253
" />
<path d="M91626 40245
L85957 40245
" />
<path d="M93831 40245
L95642 40245
" />
<path d="M96193 30796
L96193 28670
" />
<path d="M96193 28670
L93831 28670
" />
<path d="M85957 28670
L91626 28670
" />
<path d="M85642 32607
L85642 32843
" />
<path d="M85642 32843
L85878 32843
" />
<path d="M85878 32843
L85878 32607
" />
<path d="M85878 32607
L85642 32607
" />
<path d="M85169 32253
L85169 29891
" />
<path d="M60020 31027
L60020 29826
" />
<path d="M51850 31027
L51850 37129
" />
<path d="M60236 31027
L60236 37129
" />
<path d="M51850 31027
L52130 31027
" />
<path d="M51850 37129
L52130 37129
" />
<path d="M60236 37129
L59957 37129
" />
<path d="M60236 31027
L60020 31027
" />
<path d="M60809 40511
L59707 40511
" />
<path d="M60809 44527
L64077 44527
" />
<path d="M60809 40472
L64077 40472
" />
<path d="M60809 44527
L60809 44413
" />
<path d="M64077 44527
L64077 44413
" />
<path d="M64077 40472
L64077 40586
" />
<path d="M60809 40472
L60809 40511
" />
</g>
<g style="fill:#000000; fill-opacity:0.0; 
stroke:#000000; stroke-width:94.4882; stroke-opacity:1; 
stroke-linecap:round; stroke-linejoin:round;">
<path d="M63187 34609
L63187 35759
" />
<path d="M60699 34609
L60699 36310
" />
<path d="M60699 34609
L61431 34609
" />
<path d="M63187 34609
L62455 34609
" />
<path d="M47247 28318
L47247 29184
" />
<path d="M47460 28318
L47247 28318
" />
<path d="M47460 27137
L47460 28318
" />
<path d="M42239 28318
L42239 30546
" />
<path d="M42027 28318
L42239 28318
" />
<path d="M42027 27137
L42027 28318
" />
</g>
<g style="fill:#000000; fill-opacity:0.0; 
stroke:#000000; stroke-width:157.48; stroke-opacity:1; 
stroke-linecap:round; stroke-linejoin:round;">
<path d="M29463 27769
L29463 34659
" />
<path d="M29463 34659
L28873 34659
" />
<path d="M26314 34659
L24739 34659
" />
<path d="M24739 34659
L24739 33674
" />
<path d="M24739 31312
L24739 27178
" />
<path d="M24739 27178
L24148 27178
" />
<path d="M24148 27178
L24148 26194
" />
<path d="M24148 26194
L24739 26194
" />
</g>
<g style="fill:#000000; fill-opacity:0.0; 
stroke:#000000; stroke-width:78.7402; stroke-opacity:1; 
stroke-linecap:round; stroke-linejoin:round;">
<circle cx="23558.4" cy="22848.2" r="196.85" /> 
</g>
<g style="fill:#000000; fill-opacity:0.0; 
stroke:#000000; stroke-width:94.4882; stroke-opacity:1; 
stroke-linecap:round; stroke-linejoin:round;">
<path d="M81269 25913
L80088 25913
" />
<path d="M78120 26897
L78120 30440
" />
<path d="M80088 31424
L81269 31424
" />
<path d="M83238 30440
L83238 26897
" />
<path d="M43141 34625
L41960 34625
" />
<path d="M39992 35609
L39992 39152
" />
<path d="M41960 40136
L43141 40136
" />
<path d="M45110 39152
L45110 35609
" />
<path d="M87390 22292
L87390 23340
" />
<path d="M86343 22292
L87390 22292
" />
<path d="M85343 24387
L85343 22292
" />
<path d="M75296 24387
L85343 24387
" />
<path d="M75296 22292
L75296 24387
" />
<path d="M85343 22292
L75296 22292
" />
</g>
<g style="fill:#000000; fill-opacity:1.0; 
stroke:#000000; stroke-width:7.87402; stroke-opacity:1; 
stroke-linecap:round; stroke-linejoin:round;">
<polyline style="fill-rule:evenodd;"
points="29748,41785
29749,42044
29750,42267
29751,42456
29753,42614
29755,42744
29757,42849
29760,42932
29763,42996
29767,43044
29771,43079
29777,43105
29783,43123
29789,43135
29824,43200
29183,43200
29183,43140
29181,43097
29174,43080
29174,43080
29154,43090
29112,43116
29091,43130
28987,43183
28861,43219
28728,43238
28602,43236
28523,43221
28378,43157
28248,43061
28142,42941
28094,42861
28041,42736
28006,42606
27988,42457
27984,42310
27984,42300
28614,42300
28618,42438
28628,42543
28648,42621
28679,42679
28723,42724
28749,42741
28833,42771
28932,42769
29038,42735
29057,42725
29133,42686
29139,42253
29144,41821
29091,41786
29041,41765
28971,41749
28925,41743
28855,41741
28809,41749
28769,41772
28749,41788
28696,41846
28657,41921
28632,42019
28618,42145
28614,42300
27984,42300
27997,42077
28034,41873
28096,41697
28182,41552
28291,41438
28422,41356
28575,41306
28606,41301
28697,41294
28798,41300
28897,41315
28986,41338
29055,41367
29093,41399
29109,41418
29122,41414
29131,41384
29138,41324
29141,41232
29143,41104
29143,41034
29143,40897
29141,40793
29138,40717
29132,40662
29124,40621
29113,40589
29105,40574
29068,40500
29742,40500
29748,41785
" /> 
<polyline style="fill-rule:evenodd;"
points="27212,41308
27351,41340
27444,41375
27517,41419
27582,41477
27624,41520
27659,41561
27686,41603
27708,41652
27724,41713
27736,41788
27745,41884
27752,42004
27756,42153
27760,42335
27762,42430
27765,42613
27768,42760
27772,42876
27776,42964
27780,43030
27786,43077
27793,43110
27801,43133
27809,43145
27844,43200
27206,43200
27193,43079
27115,43132
26992,43194
26850,43230
26700,43239
26556,43218
26530,43211
26383,43146
26264,43053
26175,42936
26118,42796
26095,42637
26095,42620
26096,42597
26669,42597
26672,42667
26680,42691
26730,42755
26804,42797
26894,42816
26987,42808
27017,42798
27086,42765
27129,42724
27153,42665
27163,42579
27163,42536
27163,42380
27033,42380
26904,42391
26795,42425
26719,42473
26686,42526
26669,42597
26096,42597
26097,42529
26108,42461
26131,42395
26149,42355
26232,42232
26345,42133
26490,42058
26665,42008
26870,41983
26981,41980
27169,41980
27158,41898
27129,41809
27073,41747
26989,41713
26878,41707
26743,41728
26603,41771
26537,41793
26486,41804
26461,41804
26460,41804
26447,41779
26423,41727
26394,41658
26363,41583
26335,41512
26314,41455
26304,41422
26303,41419
26320,41405
26355,41400
26395,41395
26464,41382
26549,41362
26610,41348
26819,41308
27023,41294
27212,41308
" /> 
<polyline style="fill-rule:evenodd;"
points="25572,40642
25605,40650
25660,40668
25736,40696
25820,40731
25904,40768
25979,40803
26034,40832
26058,40848
26051,40866
26025,40909
25987,40970
25941,41041
25892,41113
25846,41181
25807,41235
25782,41267
25759,41265
25718,41241
25684,41215
25569,41142
25440,41106
25315,41105
25181,41137
25067,41203
24975,41301
24905,41431
24857,41592
24831,41784
24829,42000
24845,42194
24881,42357
24937,42489
25014,42595
25114,42679
25137,42693
25198,42725
25254,42742
25324,42748
25373,42748
25499,42736
25608,42698
25714,42630
25753,42597
25796,42562
25825,42543
25831,42542
25848,42568
25879,42619
25919,42685
25964,42761
26008,42838
26048,42909
26080,42965
26098,42999
26100,43006
26080,43016
26035,43040
25973,43073
25970,43075
25842,43138
25729,43182
25617,43210
25492,43225
25373,43231
25221,43232
25102,43225
25030,43212
24847,43146
24680,43044
24530,42911
24402,42750
24299,42565
24224,42358
24220,42346
24191,42199
24177,42030
24175,41854
24188,41684
24214,41536
24221,41510
24301,41295
24413,41101
24556,40932
24727,40790
24743,40779
24883,40706
25047,40654
25224,40625
25402,40621
25572,40642
" /> 
<polyline style="fill-rule:evenodd;"
points="23924,40198
23941,40204
23956,40217
23968,40240
23977,40275
23985,40324
23991,40391
23996,40477
23999,40586
24001,40719
24003,40880
24003,41070
24003,41292
24003,41549
24003,41843
24003,41890
24003,42185
24003,42443
24003,42666
24002,42857
24001,43018
24000,43152
23998,43261
23996,43349
23993,43416
23990,43466
23986,43502
23982,43527
23977,43541
23972,43548
23963,43554
23947,43559
23922,43563
23884,43566
23831,43570
23762,43572
23672,43574
23561,43576
23425,43577
23261,43578
23068,43579
22843,43579
22583,43579
22286,43579
22243,43580
21941,43579
21676,43579
21447,43579
21249,43578
21082,43577
20942,43576
20828,43574
20736,43572
20663,43570
20609,43567
20569,43563
20542,43559
20525,43554
20516,43549
20515,43548
20509,43539
20504,43523
20500,43497
20496,43459
20493,43406
20490,43335
20488,43244
20487,43131
20485,42993
20484,42827
20484,42630
20483,42401
20483,42137
20483,41890
20483,41594
20484,41336
20484,41113
20485,40922
20486,40761
20487,40665
20703,40665
20711,40685
20732,40728
20743,40749
20752,40768
20759,40788
20765,40813
20770,40848
20774,40894
20777,40955
20779,41035
20781,41138
20782,41265
20783,41421
20783,41609
20783,41832
20783,41940
20783,42147
20782,42343
20781,42523
20779,42683
20777,42821
20775,42932
20772,43013
20769,43060
20767,43071
20748,43102
20727,43145
20704,43200
21119,43199
21241,43198
21347,43196
21431,43194
21487,43190
21511,43186
21511,43184
21487,43157
21459,43112
21456,43105
21444,43076
21436,43037
21430,42981
21426,42903
21424,42798
21423,42658
21423,42650
21424,42511
21427,42398
21431,42317
21437,42270
21443,42260
21466,42275
21496,42312
21498,42315
21529,42359
21556,42390
21580,42419
21612,42468
21623,42487
21656,42539
21705,42609
21761,42683
21772,42697
21857,42809
21928,42917
21982,43013
22015,43092
22023,43138
22023,43200
22910,43200
22901,43189
23023,43189
23042,43192
23095,43195
23176,43197
23278,43199
23395,43199
23403,43200
23542,43199
23646,43197
23717,43193
23761,43187
23780,43179
23783,43175
23771,43140
23753,43111
23745,43096
23739,43070
23735,43030
23731,42973
23728,42894
23726,42790
23724,42658
23724,42494
23723,42296
23723,42206
23723,41340
23042,41340
23073,41399
23081,41419
23087,41449
23092,41493
23096,41554
23099,41636
23101,41743
23102,41879
23103,42048
23103,42239
23103,42437
23103,42600
23102,42730
23100,42833
23098,42912
23094,42971
23090,43015
23083,43047
23076,43073
23066,43094
23063,43100
23039,43149
23025,43183
23023,43189
22901,43189
22862,43145
22827,43106
22805,43081
22803,43080
22758,43030
22701,42964
22642,42891
22588,42821
22548,42765
22532,42740
22500,42690
22450,42618
22389,42534
22323,42447
22260,42367
22211,42308
22164,42248
22119,42182
22116,42177
22015,42021
21940,41918
21885,41846
21949,41777
22004,41715
22075,41631
22154,41535
22231,41438
22299,41350
22321,41320
22561,41021
22750,40818
22906,40660
22477,40660
22331,40660
22220,40661
22140,40664
22085,40670
22051,40681
22032,40697
22025,40720
22023,40751
22023,40767
22011,40809
21980,40862
21966,40880
21920,40941
21871,41012
21853,41040
21819,41092
21793,41129
21784,41140
21760,41163
21721,41206
21674,41262
21626,41322
21583,41376
21554,41417
21543,41435
21530,41458
21497,41496
21483,41510
21423,41567
21423,41236
21424,41092
21429,40980
21438,40891
21452,40816
21473,40747
21493,40695
21496,40683
21489,40674
21467,40668
21427,40663
21362,40661
21269,40660
21141,40660
21105,40660
20983,40660
20876,40661
20790,40662
20731,40663
20704,40665
20703,40665
20487,40665
20487,40627
20489,40518
20491,40430
20493,40363
20497,40313
20500,40277
20505,40252
20510,40238
20515,40231
20524,40224
20542,40219
20570,40214
20612,40210
20670,40207
20748,40205
20847,40203
20972,40202
21125,40201
21310,40200
21528,40200
21783,40200
23063,40200
23063,40275
23079,40367
23121,40460
23180,40539
23221,40574
23311,40611
23414,40620
23519,40601
23616,40558
23693,40492
23705,40477
23742,40397
23759,40306
23768,40199
23854,40200
23881,40199
23904,40197
23924,40198
" /> 
</g>
<g style="fill:#000000; fill-opacity:0.0; 
stroke:#000000; stroke-width:7.87402; stroke-opacity:1; 
stroke-linecap:round; stroke-linejoin:round;">
</g>
<g style="fill:#000000; fill-opacity:0.0; 
stroke:#000000; stroke-width:118.11; stroke-opacity:1; 
stroke-linecap:round; stroke-linejoin:round;">
<path d="M49212 25320
L49175 25357
L49062 25395
L48987 25395
L48875 25357
L48800 25282
L48762 25207
L48725 25057
L48725 24945
L48762 24795
L48800 24720
L48875 24645
L48987 24608
L49062 24608
L49175 24645
L49212 24683
" />
<path d="M49887 24870
L49887 25395
" />
<path d="M49699 24570
L49512 25132
L49999 25132
" />
<path d="M66124 50871
L66161 50908
L66199 51021
L66199 51096
L66161 51208
L66086 51283
L66011 51321
L65861 51358
L65749 51358
L65599 51321
L65524 51283
L65449 51208
L65411 51096
L65411 51021
L65449 50908
L65486 50871
" />
<path d="M65411 50196
L65411 50346
L65449 50421
L65486 50458
L65599 50533
L65749 50571
L66049 50571
L66124 50533
L66161 50496
L66199 50421
L66199 50271
L66161 50196
L66124 50158
L66049 50121
L65861 50121
L65786 50158
L65749 50196
L65711 50271
L65711 50421
L65749 50496
L65786 50533
L65861 50571
" />
<path d="M49212 26920
L49175 26957
L49062 26995
L48987 26995
L48875 26957
L48800 26882
L48762 26807
L48725 26657
L48725 26545
L48762 26395
L48800 26320
L48875 26245
L48987 26208
L49062 26208
L49175 26245
L49212 26283
" />
<path d="M49474 26208
L49962 26208
L49699 26507
L49812 26507
L49887 26545
L49924 26582
L49962 26657
L49962 26845
L49924 26920
L49887 26957
L49812 26995
L49587 26995
L49512 26957
L49474 26920
" />
<path d="M49212 25922
L49175 25959
L49062 25996
L48987 25996
L48875 25959
L48800 25884
L48762 25809
L48725 25659
L48725 25547
L48762 25397
L48800 25322
L48875 25247
L48987 25209
L49062 25209
L49175 25247
L49212 25284
" />
<path d="M49924 25209
L49549 25209
L49512 25584
L49549 25547
L49624 25509
L49812 25509
L49887 25547
L49924 25584
L49962 25659
L49962 25847
L49924 25922
L49887 25959
L49812 25996
L49624 25996
L49549 25959
L49512 25922
" />
<path d="M73324 51083
L73361 51121
L73399 51233
L73399 51308
L73361 51421
L73286 51496
L73211 51533
L73061 51571
L72949 51571
L72799 51533
L72724 51496
L72649 51421
L72611 51308
L72611 51233
L72649 51121
L72686 51083
" />
<path d="M72611 50821
L72611 50296
L73399 50633
" />
<path d="M80524 50771
L80561 50808
L80599 50921
L80599 50996
L80561 51108
L80486 51183
L80411 51221
L80261 51258
L80149 51258
L79999 51221
L79924 51183
L79849 51108
L79811 50996
L79811 50921
L79849 50808
L79886 50771
" />
<path d="M80149 50321
L80111 50396
L80074 50433
L79999 50471
L79961 50471
L79886 50433
L79849 50396
L79811 50321
L79811 50171
L79849 50096
L79886 50058
L79961 50021
L79999 50021
L80074 50058
L80111 50096
L80149 50171
L80149 50321
L80186 50396
L80224 50433
L80299 50471
L80449 50471
L80524 50433
L80561 50396
L80599 50321
L80599 50171
L80561 50096
L80524 50058
L80449 50021
L80299 50021
L80224 50058
L80186 50096
L80149 50171
" />
<path d="M87724 50751
L87761 50788
L87799 50901
L87799 50976
L87761 51088
L87686 51163
L87611 51201
L87461 51238
L87349 51238
L87199 51201
L87124 51163
L87049 51088
L87011 50976
L87011 50901
L87049 50788
L87086 50751
" />
<path d="M87799 50376
L87799 50226
L87761 50151
L87724 50113
L87611 50038
L87461 50001
L87161 50001
L87086 50038
L87049 50076
L87011 50151
L87011 50301
L87049 50376
L87086 50413
L87161 50451
L87349 50451
L87424 50413
L87461 50376
L87499 50301
L87499 50151
L87461 50076
L87424 50038
L87349 50001
" />
<path d="M29533 51446
L29571 51483
L29608 51596
L29608 51671
L29571 51783
L29496 51858
L29421 51896
L29271 51933
L29159 51933
L29009 51896
L28934 51858
L28859 51783
L28821 51671
L28821 51596
L28859 51483
L28896 51446
" />
<path d="M29608 50696
L29608 51146
" />
<path d="M29608 50921
L28821 50921
L28934 50996
L29009 51071
L29046 51146
" />
<path d="M28821 50208
L28821 50133
L28859 50058
L28896 50021
L28971 49983
L29121 49946
L29308 49946
L29458 49983
L29533 50021
L29571 50058
L29608 50133
L29608 50208
L29571 50283
L29533 50321
L29458 50358
L29308 50396
L29121 50396
L28971 50358
L28896 50321
L28859 50283
L28821 50208
" />
<path d="M36684 51446
L36721 51483
L36759 51596
L36759 51671
L36721 51783
L36646 51858
L36571 51896
L36421 51933
L36309 51933
L36159 51896
L36084 51858
L36009 51783
L35971 51671
L35971 51596
L36009 51483
L36046 51446
" />
<path d="M36759 50696
L36759 51146
" />
<path d="M36759 50921
L35971 50921
L36084 50996
L36159 51071
L36196 51146
" />
<path d="M36759 49946
L36759 50396
" />
<path d="M36759 50171
L35971 50171
L36084 50246
L36159 50321
L36196 50396
" />
<path d="M43933 51467
L43971 51505
L44008 51617
L44008 51692
L43971 51805
L43896 51880
L43821 51917
L43671 51955
L43559 51955
L43409 51917
L43334 51880
L43259 51805
L43221 51692
L43221 51617
L43259 51505
L43296 51467
" />
<path d="M44008 50717
L44008 51167
" />
<path d="M44008 50942
L43221 50942
L43334 51017
L43409 51092
L43446 51167
" />
<path d="M43296 50417
L43259 50380
L43221 50305
L43221 50117
L43259 50042
L43296 50005
L43371 49967
L43446 49967
L43559 50005
L44008 50455
L44008 49967
" />
<path d="M50824 51746
L50861 51783
L50899 51896
L50899 51971
L50861 52083
L50786 52158
L50711 52196
L50561 52233
L50449 52233
L50299 52196
L50224 52158
L50149 52083
L50111 51971
L50111 51896
L50149 51783
L50186 51746
" />
<path d="M50899 50996
L50899 51446
" />
<path d="M50899 51221
L50111 51221
L50224 51296
L50299 51371
L50336 51446
" />
<path d="M50111 50733
L50111 50246
L50411 50508
L50411 50396
L50449 50321
L50486 50283
L50561 50246
L50749 50246
L50824 50283
L50861 50321
L50899 50396
L50899 50621
L50861 50696
L50824 50733
" />
<path d="M34160 48246
L34160 48621
L33373 48621
" />
<path d="M34160 47571
L34160 48021
" />
<path d="M34160 47796
L33373 47796
L33485 47871
L33560 47946
L33598 48021
" />
<path d="M34160 46821
L34160 47271
" />
<path d="M34160 47046
L33373 47046
L33485 47121
L33560 47196
L33598 47271
" />
<path d="M27010 47871
L27010 48246
L26223 48246
" />
<path d="M27010 47571
L27010 47421
L26973 47346
L26935 47308
L26823 47233
L26673 47196
L26373 47196
L26298 47233
L26260 47271
L26223 47346
L26223 47496
L26260 47571
L26298 47608
L26373 47646
L26560 47646
L26635 47608
L26673 47571
L26710 47496
L26710 47346
L26673 47271
L26635 47233
L26560 47196
" />
<path d="M85200 54271
L85200 54646
L84413 54646
" />
<path d="M84750 53896
L84713 53971
L84675 54008
L84600 54046
L84563 54046
L84488 54008
L84450 53971
L84413 53896
L84413 53746
L84450 53671
L84488 53633
L84563 53596
L84600 53596
L84675 53633
L84713 53671
L84750 53746
L84750 53896
L84788 53971
L84825 54008
L84900 54046
L85050 54046
L85125 54008
L85163 53971
L85200 53896
L85200 53746
L85163 53671
L85125 53633
L85050 53596
L84900 53596
L84825 53633
L84788 53671
L84750 53746
" />
<path d="M85200 47523
L85200 47898
L84413 47898
" />
<path d="M84413 47335
L84413 46810
L85200 47148
" />
<path d="M78000 54271
L78000 54646
L77213 54646
" />
<path d="M77213 53671
L77213 53821
L77250 53896
L77288 53933
L77400 54008
L77550 54046
L77850 54046
L77925 54008
L77963 53971
L78000 53896
L78000 53746
L77963 53671
L77925 53633
L77850 53596
L77663 53596
L77588 53633
L77550 53671
L77513 53746
L77513 53896
L77550 53971
L77588 54008
L77663 54046
" />
<path d="M78000 47471
L78000 47846
L77213 47846
" />
<path d="M77213 46833
L77213 47208
L77588 47246
L77550 47208
L77513 47133
L77513 46946
L77550 46871
L77588 46833
L77663 46796
L77850 46796
L77925 46833
L77963 46871
L78000 46946
L78000 47133
L77963 47208
L77925 47246
" />
<path d="M70800 54619
L70800 54994
L70013 54994
" />
<path d="M70275 54019
L70800 54019
" />
<path d="M69975 54206
L70538 54394
L70538 53906
" />
<path d="M70800 47858
L70800 48233
L70013 48233
" />
<path d="M70013 47671
L70013 47183
L70313 47446
L70313 47333
L70350 47258
L70388 47221
L70463 47183
L70650 47183
L70725 47221
L70763 47258
L70800 47333
L70800 47558
L70763 47633
L70725 47671
" />
<path d="M63600 54431
L63600 54806
L62813 54806
" />
<path d="M62888 54206
L62850 54168
L62813 54093
L62813 53906
L62850 53831
L62888 53793
L62963 53756
L63038 53756
L63150 53793
L63600 54243
L63600 53756
" />
<path d="M63600 47871
L63600 48246
L62813 48246
" />
<path d="M63600 47196
L63600 47646
" />
<path d="M63600 47421
L62813 47421
L62925 47496
L63000 47571
L63038 47646
" />
<path d="M34160 55046
L34160 55421
L33373 55421
" />
<path d="M34160 54371
L34160 54821
" />
<path d="M34160 54596
L33373 54596
L33485 54671
L33560 54746
L33598 54821
" />
<path d="M33448 54071
L33410 54033
L33373 53958
L33373 53771
L33410 53696
L33448 53658
L33523 53621
L33598 53621
L33710 53658
L34160 54108
L34160 53621
" />
<path d="M41360 48246
L41360 48621
L40573 48621
" />
<path d="M41360 47571
L41360 48021
" />
<path d="M41360 47796
L40573 47796
L40685 47871
L40760 47946
L40798 48021
" />
<path d="M40573 47308
L40573 46821
L40873 47083
L40873 46971
L40910 46896
L40948 46858
L41023 46821
L41210 46821
L41285 46858
L41323 46896
L41360 46971
L41360 47196
L41323 47271
L41285 47308
" />
<path d="M41360 55046
L41360 55421
L40573 55421
" />
<path d="M41360 54371
L41360 54821
" />
<path d="M41360 54596
L40573 54596
L40685 54671
L40760 54746
L40798 54821
" />
<path d="M40835 53696
L41360 53696
" />
<path d="M40535 53883
L41098 54071
L41098 53583
" />
<path d="M26960 55046
L26960 55421
L26173 55421
" />
<path d="M26960 54371
L26960 54821
" />
<path d="M26960 54596
L26173 54596
L26285 54671
L26360 54746
L26398 54821
" />
<path d="M26173 53883
L26173 53808
L26210 53733
L26248 53696
L26323 53658
L26473 53621
L26660 53621
L26810 53658
L26885 53696
L26923 53733
L26960 53808
L26960 53883
L26923 53958
L26885 53996
L26810 54033
L26660 54071
L26473 54071
L26323 54033
L26248 53996
L26210 53958
L26173 53883
" />
<path d="M48960 55046
L48960 55421
L48173 55421
" />
<path d="M48960 54371
L48960 54821
" />
<path d="M48960 54596
L48173 54596
L48285 54671
L48360 54746
L48398 54821
" />
<path d="M48173 53696
L48173 53846
L48210 53921
L48248 53958
L48360 54033
L48510 54071
L48810 54071
L48885 54033
L48923 53996
L48960 53921
L48960 53771
L48923 53696
L48885 53658
L48810 53621
L48623 53621
L48548 53658
L48510 53696
L48473 53771
L48473 53921
L48510 53996
L48548 54033
L48623 54071
" />
<path d="M48960 48246
L48960 48621
L48173 48621
" />
<path d="M48960 47571
L48960 48021
" />
<path d="M48960 47796
L48173 47796
L48285 47871
L48360 47946
L48398 48021
" />
<path d="M48173 46858
L48173 47233
L48548 47271
L48510 47233
L48473 47158
L48473 46971
L48510 46896
L48548 46858
L48623 46821
L48810 46821
L48885 46858
L48923 46896
L48960 46971
L48960 47158
L48923 47233
L48885 47271
" />
<path d="M62012 40995
L61750 40620
" />
<path d="M61562 40995
L61562 40208
L61862 40208
L61937 40245
L61975 40283
L62012 40357
L62012 40470
L61975 40545
L61937 40582
L61862 40620
L61562 40620
" />
<path d="M62274 40208
L62762 40208
L62499 40507
L62612 40507
L62687 40545
L62724 40582
L62762 40657
L62762 40845
L62724 40920
L62687 40957
L62612 40995
L62387 40995
L62312 40957
L62274 40920
" />
<path d="M38585 32134
L38548 32172
L38435 32209
L38360 32209
L38248 32172
L38173 32097
L38135 32022
L38098 31872
L38098 31759
L38135 31609
L38173 31534
L38248 31459
L38360 31422
L38435 31422
L38548 31459
L38585 31497
" />
<path d="M39335 32209
L38885 32209
" />
<path d="M39110 32209
L39110 31422
L39035 31534
L38960 31609
L38885 31647
" />
<path d="M38585 27455
L38548 27493
L38435 27530
L38360 27530
L38248 27493
L38173 27418
L38135 27343
L38098 27193
L38098 27080
L38135 26930
L38173 26855
L38248 26780
L38360 26743
L38435 26743
L38548 26780
L38585 26818
" />
<path d="M38885 26818
L38923 26780
L38998 26743
L39185 26743
L39260 26780
L39298 26818
L39335 26893
L39335 26968
L39298 27080
L38848 27530
L39335 27530
" />
<path d="M66905 37762
L66852 37762
L66746 37709
L66693 37656
L66640 37550
L66640 37444
L66667 37364
L66746 37231
L66826 37152
L66958 37072
L67038 37046
L67144 37046
L67250 37099
L67303 37152
L67356 37258
L67356 37311
" />
<path d="M67568 37523
L67621 37523
L67701 37550
L67833 37682
L67860 37762
L67860 37815
L67833 37894
L67780 37947
L67674 38000
L67038 38000
L67382 38345
" />
<path d="M68284 38133
L68337 38186
L68363 38265
L68363 38319
L68337 38398
L68257 38531
L68125 38663
L67992 38743
L67913 38769
L67860 38769
L67780 38743
L67727 38690
L67701 38610
L67701 38557
L67727 38478
L67807 38345
L67939 38212
L68072 38133
L68151 38106
L68204 38106
L68284 38133
" />
<path d="M50285 51746
L50323 51783
L50360 51896
L50360 51971
L50323 52083
L50248 52158
L50173 52196
L50023 52233
L49910 52233
L49760 52196
L49685 52158
L49610 52083
L49573 51971
L49573 51896
L49610 51783
L49648 51746
" />
<path d="M50360 50996
L50360 51446
" />
<path d="M50360 51221
L49573 51221
L49685 51296
L49760 51371
L49798 51446
" />
<path d="M50360 50621
L50360 50471
L50323 50396
L50285 50358
L50173 50283
L50023 50246
L49723 50246
L49648 50283
L49610 50321
L49573 50396
L49573 50546
L49610 50621
L49648 50658
L49723 50696
L49910 50696
L49985 50658
L50023 50621
L50060 50546
L50060 50396
L50023 50321
L49985 50283
L49910 50246
" />
<path d="M79425 37286
L79463 37323
L79500 37436
L79500 37511
L79463 37623
L79388 37698
L79313 37736
L79163 37773
L79050 37773
L78900 37736
L78825 37698
L78750 37623
L78713 37511
L78713 37436
L78750 37323
L78788 37286
" />
<path d="M79500 36536
L79500 36986
" />
<path d="M79500 36761
L78713 36761
L78825 36836
L78900 36911
L78938 36986
" />
<path d="M79050 36086
L79013 36161
L78975 36198
L78900 36236
L78863 36236
L78788 36198
L78750 36161
L78713 36086
L78713 35936
L78750 35861
L78788 35823
L78863 35786
L78900 35786
L78975 35823
L79013 35861
L79050 35936
L79050 36086
L79088 36161
L79125 36198
L79200 36236
L79350 36236
L79425 36198
L79463 36161
L79500 36086
L79500 35936
L79463 35861
L79425 35823
L79350 35786
L79200 35786
L79125 35823
L79088 35861
L79050 35936
" />
<path d="M77425 37298
L77463 37336
L77500 37448
L77500 37523
L77463 37636
L77388 37711
L77313 37748
L77163 37786
L77050 37786
L76900 37748
L76825 37711
L76750 37636
L76713 37523
L76713 37448
L76750 37336
L76788 37298
" />
<path d="M77500 36548
L77500 36998
" />
<path d="M77500 36773
L76713 36773
L76825 36848
L76900 36923
L76938 36998
" />
<path d="M76713 36286
L76713 35761
L77500 36098
" />
<path d="M81425 37286
L81463 37323
L81500 37436
L81500 37511
L81463 37623
L81388 37698
L81313 37736
L81163 37773
L81050 37773
L80900 37736
L80825 37698
L80750 37623
L80713 37511
L80713 37436
L80750 37323
L80788 37286
" />
<path d="M81500 36536
L81500 36986
" />
<path d="M81500 36761
L80713 36761
L80825 36836
L80900 36911
L80938 36986
" />
<path d="M80713 35861
L80713 36011
L80750 36086
L80788 36123
L80900 36198
L81050 36236
L81350 36236
L81425 36198
L81463 36161
L81500 36086
L81500 35936
L81463 35861
L81425 35823
L81350 35786
L81163 35786
L81088 35823
L81050 35861
L81013 35936
L81013 36086
L81050 36161
L81088 36198
L81163 36236
" />
<path d="M72177 29869
L72177 29922
L72124 30028
L72071 30082
L71965 30135
L71859 30135
L71779 30108
L71647 30028
L71567 29949
L71487 29816
L71461 29737
L71461 29631
L71514 29525
L71567 29472
L71673 29419
L71726 29419
" />
<path d="M72760 29392
L72442 29710
" />
<path d="M72601 29551
L72044 28994
L72071 29127
L72071 29233
L72044 29313
" />
<path d="M72707 28332
L72442 28597
L72681 28888
L72681 28835
L72707 28756
L72840 28623
L72919 28597
L72972 28597
L73052 28623
L73184 28756
L73211 28835
L73211 28888
L73184 28968
L73052 29101
L72972 29127
L72919 29127
" />
<path d="M73317 31089
L73317 31142
L73264 31248
L73211 31302
L73105 31355
L72999 31355
L72919 31328
L72787 31248
L72707 31169
L72627 31036
L72601 30957
L72601 30851
L72654 30745
L72707 30692
L72813 30639
L72866 30639
" />
<path d="M73900 30612
L73582 30930
" />
<path d="M73741 30771
L73184 30214
L73211 30347
L73211 30453
L73184 30533
" />
<path d="M74006 29764
L74377 30135
" />
<path d="M73662 29684
L73927 30214
L74271 29870
" />
<path d="M68377 43502
L68940 43502
L69052 43539
L69127 43614
L69165 43727
L69165 43802
" />
<path d="M68452 43165
L68415 43127
L68377 43052
L68377 42865
L68415 42790
L68452 42752
L68527 42715
L68602 42715
L68715 42752
L69165 43202
L69165 42715
" />
<path d="M72732 27620
L72467 27885
" />
<path d="M72838 27143
L72732 27620
L73210 27514
" />
<path d="M73130 28548
L72812 28230
" />
<path d="M72971 28389
L73528 27832
L73395 27859
L73289 27859
L73210 27832
" />
<path d="M24654 29881
L23867 29881
L23867 29693
L23904 29581
L23979 29506
L24054 29468
L24204 29431
L24317 29431
L24467 29468
L24542 29506
L24617 29581
L24654 29693
L24654 29881
" />
<path d="M23867 29168
L23867 28681
L24167 28943
L24167 28831
L24204 28756
L24242 28718
L24317 28681
L24504 28681
L24579 28718
L24617 28756
L24654 28831
L24654 29056
L24617 29131
L24579 29168
" />
<path d="M22794 29881
L22007 29881
L22007 29693
L22044 29581
L22119 29506
L22194 29468
L22344 29431
L22457 29431
L22607 29468
L22682 29506
L22757 29581
L22794 29693
L22794 29881
" />
<path d="M22082 29131
L22044 29093
L22007 29018
L22007 28831
L22044 28756
L22082 28718
L22157 28681
L22232 28681
L22344 28718
L22794 29168
L22794 28681
" />
<path d="M20462 31365
L20462 30578
L20650 30578
L20762 30615
L20837 30690
L20875 30765
L20912 30915
L20912 31028
L20875 31178
L20837 31253
L20762 31328
L20650 31365
L20462 31365
" />
<path d="M21662 31365
L21212 31365
" />
<path d="M21437 31365
L21437 30578
L21362 30690
L21287 30765
L21212 30803
" />
<path d="M51576 51939
L52213 51939
L52288 51902
L52326 51864
L52363 51789
L52363 51639
L52326 51564
L52288 51527
L52213 51489
L51576 51489
" />
<path d="M51838 50777
L52363 50777
" />
<path d="M51538 50965
L52101 51152
L52101 50665
" />
<path d="M72483 38807
L71926 38250
" />
<path d="M73013 38170
L73013 38223
L72960 38329
L72907 38382
L72801 38435
L72695 38435
L72615 38409
L72483 38329
L72403 38250
L72324 38117
L72297 38038
L72297 37932
L72350 37826
L72403 37772
L72509 37719
L72562 37719
" />
<path d="M73596 37693
L73278 38011
" />
<path d="M73437 37852
L72880 37295
L72907 37428
L72907 37534
L72880 37613
" />
<path d="M50881 30139
L51518 30139
L51593 30102
L51630 30064
L51668 29989
L51668 29839
L51630 29764
L51593 29727
L51518 29689
L50881 29689
" />
<path d="M50956 29352
L50918 29315
L50881 29240
L50881 29052
L50918 28977
L50956 28940
L51031 28902
L51106 28902
L51218 28940
L51668 29390
L51668 28902
" />
<path d="M20739 29379
L20364 29641
" />
<path d="M20739 29829
L19951 29829
L19951 29529
L19989 29454
L20026 29416
L20101 29379
L20214 29379
L20289 29416
L20326 29454
L20364 29529
L20364 29829
" />
<path d="M20739 28629
L20739 29079
" />
<path d="M20739 28854
L19951 28854
L20064 28929
L20139 29004
L20176 29079
" />
<path d="M32657 32641
L32282 32903
" />
<path d="M32657 33091
L31869 33091
L31869 32791
L31907 32716
L31944 32678
L32019 32641
L32132 32641
L32207 32678
L32244 32716
L32282 32791
L32282 33091
" />
<path d="M31944 32341
L31907 32303
L31869 32228
L31869 32041
L31907 31966
L31944 31928
L32019 31891
L32094 31891
L32207 31928
L32657 32378
L32657 31891
" />
<path d="M75517 30980
L75597 30529
" />
<path d="M75199 30662
L75756 30105
L75968 30317
L75994 30397
L75994 30450
L75968 30529
L75888 30609
L75809 30635
L75756 30635
L75676 30609
L75464 30397
" />
<path d="M76366 31086
L75994 31457
" />
<path d="M76445 30741
L75915 31006
L76260 31351
" />
<path d="M81500 39711
L81125 39973
" />
<path d="M81500 40161
L80713 40161
L80713 39861
L80750 39786
L80788 39748
L80863 39711
L80975 39711
L81050 39748
L81088 39786
L81125 39861
L81125 40161
" />
<path d="M80713 38998
L80713 39373
L81088 39411
L81050 39373
L81013 39298
L81013 39111
L81050 39036
L81088 38998
L81163 38961
L81350 38961
L81425 38998
L81463 39036
L81500 39111
L81500 39298
L81463 39373
L81425 39411
" />
<path d="M77500 39711
L77125 39973
" />
<path d="M77500 40161
L76713 40161
L76713 39861
L76750 39786
L76788 39748
L76863 39711
L76975 39711
L77050 39748
L77088 39786
L77125 39861
L77125 40161
" />
<path d="M76713 39036
L76713 39186
L76750 39261
L76788 39298
L76900 39373
L77050 39411
L77350 39411
L77425 39373
L77463 39336
L77500 39261
L77500 39111
L77463 39036
L77425 38998
L77350 38961
L77163 38961
L77088 38998
L77050 39036
L77013 39111
L77013 39261
L77050 39336
L77088 39373
L77163 39411
" />
<path d="M79500 39711
L79125 39973
" />
<path d="M79500 40161
L78713 40161
L78713 39861
L78750 39786
L78788 39748
L78863 39711
L78975 39711
L79050 39748
L79088 39786
L79125 39861
L79125 40161
" />
<path d="M78713 39448
L78713 38923
L79500 39261
" />
<path d="M62028 33755
L61766 33380
" />
<path d="M61578 33755
L61578 32968
L61878 32968
L61953 33005
L61991 33043
L62028 33117
L62028 33230
L61991 33305
L61953 33342
L61878 33380
L61578 33380
" />
<path d="M62478 33305
L62403 33267
L62365 33230
L62328 33155
L62328 33117
L62365 33043
L62403 33005
L62478 32968
L62628 32968
L62703 33005
L62740 33043
L62778 33117
L62778 33155
L62740 33230
L62703 33267
L62628 33305
L62478 33305
L62403 33342
L62365 33380
L62328 33455
L62328 33605
L62365 33680
L62403 33717
L62478 33755
L62628 33755
L62703 33717
L62740 33680
L62778 33605
L62778 33455
L62740 33380
L62703 33342
L62628 33305
" />
<path d="M62012 31995
L61750 31620
" />
<path d="M61562 31995
L61562 31208
L61862 31208
L61937 31245
L61975 31283
L62012 31357
L62012 31470
L61975 31545
L61937 31582
L61862 31620
L61562 31620
" />
<path d="M62387 31995
L62537 31995
L62612 31957
L62649 31920
L62724 31807
L62762 31657
L62762 31357
L62724 31283
L62687 31245
L62612 31208
L62462 31208
L62387 31245
L62349 31283
L62312 31357
L62312 31545
L62349 31620
L62387 31657
L62462 31695
L62612 31695
L62687 31657
L62724 31620
L62762 31545
" />
<path d="M80377 35315
L80115 34940
" />
<path d="M79927 35315
L79927 34528
L80227 34528
L80302 34565
L80340 34603
L80377 34677
L80377 34790
L80340 34865
L80302 34902
L80227 34940
L79927 34940
" />
<path d="M81127 35315
L80677 35315
" />
<path d="M80902 35315
L80902 34528
L80827 34640
L80752 34715
L80677 34752
" />
<path d="M81614 34528
L81689 34528
L81764 34565
L81802 34603
L81839 34677
L81877 34827
L81877 35015
L81839 35165
L81802 35240
L81764 35277
L81689 35315
L81614 35315
L81539 35277
L81502 35240
L81464 35165
L81427 35015
L81427 34827
L81464 34677
L81502 34603
L81539 34565
L81614 34528
" />
<path d="M88199 26846
L87824 27108
" />
<path d="M88199 27296
L87411 27296
L87411 26996
L87449 26921
L87486 26883
L87561 26846
L87674 26846
L87749 26883
L87786 26921
L87824 26996
L87824 27296
" />
<path d="M88199 26096
L88199 26546
" />
<path d="M88199 26321
L87411 26321
L87524 26396
L87599 26471
L87636 26546
" />
<path d="M88199 25346
L88199 25796
" />
<path d="M88199 25571
L87411 25571
L87524 25646
L87599 25721
L87636 25796
" />
<path d="M64517 51355
L65154 51355
L65229 51318
L65267 51280
L65304 51205
L65304 51055
L65267 50980
L65229 50943
L65154 50905
L64517 50905
" />
<path d="M64517 50605
L64517 50118
L64817 50380
L64817 50268
L64854 50193
L64892 50155
L64967 50118
L65154 50118
L65229 50155
L65267 50193
L65304 50268
L65304 50493
L65267 50568
L65229 50605
" />
<path d="M71737 51615
L72374 51615
L72449 51578
L72487 51540
L72524 51465
L72524 51315
L72487 51240
L72449 51203
L72374 51165
L71737 51165
" />
<path d="M71737 50415
L71737 50790
L72112 50828
L72074 50790
L72037 50715
L72037 50528
L72074 50453
L72112 50415
L72187 50378
L72374 50378
L72449 50415
L72487 50453
L72524 50528
L72524 50715
L72487 50790
L72449 50828
" />
<path d="M78917 51355
L79554 51355
L79629 51318
L79667 51280
L79704 51205
L79704 51055
L79667 50980
L79629 50943
L79554 50905
L78917 50905
" />
<path d="M78917 50193
L78917 50343
L78954 50418
L78992 50455
L79104 50530
L79254 50568
L79554 50568
L79629 50530
L79667 50493
L79704 50418
L79704 50268
L79667 50193
L79629 50155
L79554 50118
L79367 50118
L79292 50155
L79254 50193
L79217 50268
L79217 50418
L79254 50493
L79292 50530
L79367 50568
" />
<path d="M86117 51355
L86754 51355
L86829 51318
L86867 51280
L86904 51205
L86904 51055
L86867 50980
L86829 50943
L86754 50905
L86117 50905
" />
<path d="M86117 50605
L86117 50080
L86904 50418
" />
<path d="M20677 51724
L21314 51724
L21389 51686
L21427 51649
L21464 51574
L21464 51424
L21427 51349
L21389 51311
L21314 51274
L20677 51274
" />
<path d="M21014 50786
L20977 50861
L20939 50899
L20864 50936
L20827 50936
L20752 50899
L20714 50861
L20677 50786
L20677 50636
L20714 50561
L20752 50524
L20827 50486
L20864 50486
L20939 50524
L20977 50561
L21014 50636
L21014 50786
L21052 50861
L21089 50899
L21164 50936
L21314 50936
L21389 50899
L21427 50861
L21464 50786
L21464 50636
L21427 50561
L21389 50524
L21314 50486
L21164 50486
L21089 50524
L21052 50561
L21014 50636
" />
<path d="M27877 51755
L28514 51755
L28589 51718
L28627 51680
L28664 51605
L28664 51455
L28627 51380
L28589 51343
L28514 51305
L27877 51305
" />
<path d="M28664 50893
L28664 50743
L28627 50668
L28589 50630
L28477 50555
L28327 50518
L28027 50518
L27952 50555
L27914 50593
L27877 50668
L27877 50818
L27914 50893
L27952 50930
L28027 50968
L28214 50968
L28289 50930
L28327 50893
L28364 50818
L28364 50668
L28327 50593
L28289 50555
L28214 50518
" />
<path d="M35077 52130
L35714 52130
L35789 52093
L35827 52055
L35864 51980
L35864 51830
L35827 51755
L35789 51718
L35714 51680
L35077 51680
" />
<path d="M35864 50893
L35864 51343
" />
<path d="M35864 51118
L35077 51118
L35189 51193
L35264 51268
L35302 51343
" />
<path d="M35077 50405
L35077 50330
L35114 50255
L35152 50218
L35227 50180
L35377 50143
L35564 50143
L35714 50180
L35789 50218
L35827 50255
L35864 50330
L35864 50405
L35827 50480
L35789 50518
L35714 50555
L35564 50593
L35377 50593
L35227 50555
L35152 50518
L35114 50480
L35077 50405
" />
<path d="M42217 52079
L42854 52079
L42929 52041
L42967 52004
L43004 51929
L43004 51779
L42967 51704
L42929 51666
L42854 51629
L42217 51629
" />
<path d="M43004 50841
L43004 51291
" />
<path d="M43004 51066
L42217 51066
L42329 51141
L42404 51216
L42442 51291
" />
<path d="M43004 50091
L43004 50541
" />
<path d="M43004 50316
L42217 50316
L42329 50391
L42404 50466
L42442 50541
" />
<path d="M33707 38134
L33744 38021
L33744 37834
L33707 37759
L33669 37721
L33594 37684
L33519 37684
L33444 37721
L33407 37759
L33369 37834
L33332 37984
L33294 38059
L33257 38096
L33182 38134
L33107 38134
L33032 38096
L32994 38059
L32957 37984
L32957 37796
L32994 37684
" />
<path d="M32957 37421
L33744 37234
L33182 37084
L33744 36934
L32957 36746
" />
<path d="M33744 36034
L33744 36484
" />
<path d="M33744 36259
L32957 36259
L33069 36334
L33144 36409
L33182 36484
" />
<path d="M35983 26454
L36021 26342
L36058 26304
L36133 26267
L36246 26267
L36321 26304
L36358 26342
L36396 26417
L36396 26717
L35608 26717
L35608 26454
L35646 26379
L35683 26342
L35758 26304
L35833 26304
L35908 26342
L35946 26379
L35983 26454
L35983 26717
" />
<path d="M35608 26042
L35608 25592
" />
<path d="M36396 25817
L35608 25817
" />
<path d="M36396 24917
L36396 25367
" />
<path d="M36396 25142
L35608 25142
L35721 25217
L35796 25292
L35833 25367
" />
<path d="M76137 43522
L76700 43522
L76812 43559
L76887 43634
L76925 43747
L76925 43822
" />
<path d="M76137 43222
L76137 42735
L76437 42997
L76437 42885
L76475 42810
L76512 42772
L76587 42735
L76775 42735
L76850 42772
L76887 42810
L76925 42885
L76925 43110
L76887 43185
L76850 43222
" />
<path d="M62485 25721
L61697 25721
L61697 25421
L61735 25346
L61772 25308
L61847 25271
L61960 25271
L62035 25308
L62072 25346
L62110 25421
L62110 25721
" />
<path d="M62485 24521
L62485 24971
" />
<path d="M62485 24746
L61697 24746
L61810 24821
L61885 24896
L61922 24971
" />
<path d="M60533 35053
L61171 35053
L61246 35015
L61283 34978
L61321 34903
L61321 34753
L61283 34678
L61246 34641
L61171 34603
L60533 34603
" />
<path d="M61321 33816
L61321 34266
" />
<path d="M61321 34041
L60533 34041
L60646 34116
L60721 34191
L60758 34266
" />
<path d="M60533 33553
L60533 33066
L60833 33328
L60833 33216
L60871 33141
L60908 33103
L60983 33066
L61171 33066
L61246 33103
L61283 33141
L61321 33216
L61321 33441
L61283 33516
L61246 33553
" />
<path d="M61468 39312
L61468 39950
L61506 40025
L61543 40062
L61618 40100
L61768 40100
L61843 40062
L61881 40025
L61918 39950
L61918 39312
" />
<path d="M62706 40100
L62256 40100
" />
<path d="M62481 40100
L62481 39312
L62406 39425
L62331 39500
L62256 39537
" />
<path d="M63381 39575
L63381 40100
" />
<path d="M63193 39275
L63006 39837
L63493 39837
" />
<path d="M60406 35282
L60368 35357
L60293 35432
L60181 35545
L60143 35620
L60143 35695
" />
<path d="M60331 35657
L60293 35732
L60218 35807
L60068 35845
L59806 35845
L59656 35807
L59581 35732
L59544 35657
L59544 35507
L59581 35432
L59656 35357
L59806 35320
L60068 35320
L60218 35357
L60293 35432
L60331 35507
L60331 35657
" />
<path d="M60331 34570
L60331 35020
" />
<path d="M60331 34795
L59544 34795
L59656 34870
L59731 34945
L59769 35020
" />
<path d="M40769 26973
L41406 26973
L41481 26935
L41519 26898
L41556 26823
L41556 26673
L41519 26598
L41481 26561
L41406 26523
L40769 26523
" />
<path d="M41556 25736
L41556 26186
" />
<path d="M41556 25961
L40769 25961
L40881 26036
L40956 26111
L40994 26186
" />
</g>
<g style="fill:#000000; fill-opacity:0.0; 
stroke:#000000; stroke-width:39.3701; stroke-opacity:1; 
stroke-linecap:round; stroke-linejoin:round;">
<path d="M23213 31546
L23776 31546
L23889 31584
L23964 31659
L24002 31772
L24002 31847
" />
<path d="M24002 30758
L24002 31209
" />
<path d="M24002 30983
L23213 30983
L23326 31058
L23401 31134
L23439 31209
" />
<path d="M28729 33254
L28729 33516
" />
<path d="M29142 33516
L28354 33516
L28354 33141
" />
<path d="M29067 32390
L29104 32428
L29142 32541
L29142 32616
L29104 32728
L29029 32803
L28954 32841
L28804 32878
L28691 32878
L28541 32841
L28466 32803
L28391 32728
L28354 32616
L28354 32541
L28391 32428
L28429 32390
" />
<path d="M28354 31715
L28354 31865
L28391 31940
L28429 31978
L28541 32053
L28691 32090
L28992 32090
L29067 32053
L29104 32015
L29142 31940
L29142 31790
L29104 31715
L29067 31677
L28992 31640
L28804 31640
L28729 31677
L28691 31715
L28654 31790
L28654 31940
L28691 32015
L28729 32053
L28804 32090
" />
<path d="M28691 31189
L28654 31264
L28616 31302
L28541 31339
L28504 31339
L28429 31302
L28391 31264
L28354 31189
L28354 31039
L28391 30964
L28429 30927
L28504 30889
L28541 30889
L28616 30927
L28654 30964
L28691 31039
L28691 31189
L28729 31264
L28766 31302
L28842 31339
L28992 31339
L29067 31302
L29104 31264
L29142 31189
L29142 31039
L29104 30964
L29067 30927
L28992 30889
L28842 30889
L28766 30927
L28729 30964
L28691 31039
" />
<path d="M29142 30138
L29142 30589
" />
<path d="M29142 30364
L28354 30364
L28466 30439
L28541 30514
L28579 30589
" />
<path d="M28429 29838
L28391 29801
L28354 29725
L28354 29538
L28391 29463
L28429 29425
L28504 29388
L28579 29388
L28691 29425
L29142 29876
L29142 29388
" />
<path d="M28354 29125
L28354 28599
L29142 28937
" />
</g>
<g style="fill:#000000; fill-opacity:0.0; 
stroke:#000000; stroke-width:118.11; stroke-opacity:1; 
stroke-linecap:round; stroke-linejoin:round;">
<path d="M84476 27747
L84513 27635
L84513 27447
L84476 27372
L84438 27335
L84363 27297
L84288 27297
L84213 27335
L84176 27372
L84138 27447
L84101 27597
L84064 27672
L84026 27710
L83951 27747
L83876 27747
L83801 27710
L83764 27672
L83726 27597
L83726 27410
L83764 27297
" />
<path d="M83726 27035
L84513 26847
L83951 26698
L84513 26548
L83726 26360
" />
<path d="M83801 26098
L83764 26060
L83726 25985
L83726 25798
L83764 25723
L83801 25685
L83876 25648
L83951 25648
L84064 25685
L84513 26135
L84513 25648
" />
<path d="M39523 38430
L39561 38318
L39561 38130
L39523 38055
L39486 38018
L39411 37980
L39336 37980
L39261 38018
L39223 38055
L39186 38130
L39148 38280
L39111 38355
L39073 38393
L38998 38430
L38923 38430
L38848 38393
L38811 38355
L38773 38280
L38773 38093
L38811 37980
" />
<path d="M38773 37718
L39561 37530
L38998 37380
L39561 37230
L38773 37043
" />
<path d="M38773 36818
L38773 36331
L39073 36593
L39073 36481
L39111 36406
L39148 36368
L39223 36331
L39411 36331
L39486 36368
L39523 36406
L39561 36481
L39561 36706
L39523 36781
L39486 36818
" />
<path d="M87747 24314
L88384 24314
L88459 24277
L88497 24239
L88534 24164
L88534 24014
L88497 23939
L88459 23902
L88384 23864
L87747 23864
" />
<path d="M88534 23077
L88534 23527
" />
<path d="M88534 23302
L87747 23302
L87859 23377
L87934 23452
L87972 23527
" />
<path d="M87822 22777
L87784 22740
L87747 22665
L87747 22477
L87784 22402
L87822 22365
L87897 22327
L87972 22327
L88084 22365
L88534 22815
L88534 22327
" />
</g> 
</svg>
