<?xml version="1.0" standalone="no"?>
 <!DOCTYPE svg PUBLIC "-//W3C//DTD SVG 1.1//EN" 
 "http://www.w3.org/Graphics/SVG/1.1/DTD/svg11.dtd"> 
<svg xmlns="http://www.w3.org/2000/svg" version="1.1" 
    width="29.7002cm" height="21.0007cm" viewBox="0 0 116930 82680 ">
<title>SVG Picture created as ThermocoupleLogger-F_CrtYd.svg date 2019/03/14 18:04:39 </title>
  <desc>Picture generated by PCBNEW </desc>
<g style="fill:#000000; fill-opacity:1;stroke:#000000; stroke-opacity:1;
stroke-linecap:round; stroke-linejoin:round; "
 transform="translate(0 0) scale(1 1)">
</g>
<g style="fill:#000000; fill-opacity:0.0; 
stroke:#000000; stroke-width:-0.000787402; stroke-opacity:1; 
stroke-linecap:round; stroke-linejoin:round;">
</g>
<g style="fill:#000000; fill-opacity:0.0; 
stroke:#000000; stroke-width:157.48; stroke-opacity:1; 
stroke-linecap:round; stroke-linejoin:round;">
<path d="M96543 62899
L96543 67324
" />
<path d="M17743 67332
L96539 67332
" />
<path d="M30465 21607
L17748 21607
" />
<path d="M17743 62940
L17743 67340
" />
<path d="M83703 62900
L65463 62900
" />
<path d="M87433 62900
L96543 62900
" />
<path d="M87393 60900
L96483 60900
" />
<path d="M65463 60900
L83703 60900
" />
<path d="M61827 62909
L24467 62909
" />
<path d="M24473 60910
L61833 60910
" />
<path d="M20843 60920
L17743 60920
" />
<path d="M20813 62920
L17740 62938
" />
<path d="M20813.7 62920 A1000.2 1000.2 0.0 0 0 20836.3 60920.7 " />
<path d="M24483.7 60910 A1000 1000 0.0 0 0 24467.1 62909.9 " />
<path d="M61813.7 62910 A1000 1000 0.0 0 0 61835 60910.2 " />
<path d="M65463.7 60900 A1000.2 1000.2 0.0 1 0 65465.5 62900 " />
<path d="M83693.7 62900 A1000.2 1000.2 0.0 1 0 83713.7 60899.8 " />
<path d="M87384.5 60900 A1000.2 1000.2 0.0 0 0 87423.7 62900 " />
<path d="M91343.7 19540 A1000.8 1000.8 0.0 0 0 91383.7 21540.8 " />
<path d="M55123.7 21580 A1000.8 1000.8 0.0 1 0 55123.7 19580 " />
<path d="M17703 19560
L17703 19560
" />
<path d="M30463 19560
L17703 19560
" />
<path d="M34123 21580
L55123 21580
" />
<path d="M55103 19580
L34143 19580
" />
<path d="M30463.7 21600 A1020 1020 0.0 0 0 30463.7 19560 " />
<path d="M34143.7 19580 A1000.2 1000.2 0.0 1 0 34123.7 21580.2 " />
<path d="M87723 21570
L58893 21570
" />
<path d="M58743 19590
L87753 19590
" />
<path d="M58823.7 19580 A990.202 990.202 0.0 0 0 58863.7 21560 " />
<path d="M91394 21544
L96480 21552
" />
<path d="M96443 19540
L91343 19540
" />
<path d="M96443 14340
L96443 19540
" />
<path d="M87723.7 21580 A996 996 0.0 0 0 87731.8 19588 " />
<path d="M17703 14320
L96433 14324
" />
<path d="M17703 19560
L17703 14320
" />
<path d="M17743 60920
L17743 21610
" />
<path d="M96483 60900
L96483 21569
" />
</g>
<g style="fill:#000000; fill-opacity:0.0; 
stroke:#000000; stroke-width:39.3701; stroke-opacity:1; 
stroke-linecap:round; stroke-linejoin:round;">
<path d="M48020 22991
L50666 22991
" />
<path d="M48020 24488
L48020 22991
" />
<path d="M50666 24488
L48020 24488
" />
<path d="M50666 22991
L50666 24488
" />
<path d="M63795 52062
L63795 49417
" />
<path d="M65291 52062
L63795 52062
" />
<path d="M65291 49417
L65291 52062
" />
<path d="M63795 49417
L65291 49417
" />
<path d="M48020 24591
L50666 24591
" />
<path d="M48020 26088
L48020 24591
" />
<path d="M50666 26088
L48020 26088
" />
<path d="M50666 24591
L50666 26088
" />
<path d="M50666 27688
L48020 27688
" />
<path d="M50666 26191
L50666 27688
" />
<path d="M48020 26191
L50666 26191
" />
<path d="M48020 27688
L48020 26191
" />
<path d="M70995 52275
L70995 49629
" />
<path d="M72491 52275
L70995 52275
" />
<path d="M72491 49629
L72491 52275
" />
<path d="M70995 49629
L72491 49629
" />
<path d="M78195 51962
L78195 49317
" />
<path d="M79691 51962
L78195 51962
" />
<path d="M79691 49317
L79691 51962
" />
<path d="M78195 49317
L79691 49317
" />
<path d="M85395 51942
L85395 49297
" />
<path d="M86891 51942
L85395 51942
" />
<path d="M86891 49297
L86891 51942
" />
<path d="M85395 49297
L86891 49297
" />
<path d="M27205 52262
L27205 49617
" />
<path d="M28701 52262
L27205 52262
" />
<path d="M28701 49617
L28701 52262
" />
<path d="M27205 49617
L28701 49617
" />
<path d="M34355 52262
L34355 49617
" />
<path d="M35851 52262
L34355 52262
" />
<path d="M35851 49617
L35851 52262
" />
<path d="M34355 49617
L35851 49617
" />
<path d="M41605 52284
L41605 49638
" />
<path d="M43101 52284
L41605 52284
" />
<path d="M43101 49638
L43101 52284
" />
<path d="M41605 49638
L43101 49638
" />
<path d="M48495 52562
L48495 49917
" />
<path d="M49991 52562
L48495 52562
" />
<path d="M49991 49917
L49991 52562
" />
<path d="M48495 49917
L49991 49917
" />
<path d="M35851 46417
L35851 49062
" />
<path d="M34355 46417
L35851 46417
" />
<path d="M34355 49062
L34355 46417
" />
<path d="M35851 49062
L34355 49062
" />
<path d="M28701 46417
L28701 49062
" />
<path d="M27205 46417
L28701 46417
" />
<path d="M27205 49062
L27205 46417
" />
<path d="M28701 49062
L27205 49062
" />
<path d="M86891 52817
L86891 55462
" />
<path d="M85395 52817
L86891 52817
" />
<path d="M85395 55462
L85395 52817
" />
<path d="M86891 55462
L85395 55462
" />
<path d="M86891 46069
L86891 48714
" />
<path d="M85395 46069
L86891 46069
" />
<path d="M85395 48714
L85395 46069
" />
<path d="M86891 48714
L85395 48714
" />
<path d="M79691 52817
L79691 55462
" />
<path d="M78195 52817
L79691 52817
" />
<path d="M78195 55462
L78195 52817
" />
<path d="M79691 55462
L78195 55462
" />
<path d="M79691 46017
L79691 48662
" />
<path d="M78195 46017
L79691 46017
" />
<path d="M78195 48662
L78195 46017
" />
<path d="M79691 48662
L78195 48662
" />
<path d="M72491 53165
L72491 55810
" />
<path d="M70995 53165
L72491 53165
" />
<path d="M70995 55810
L70995 53165
" />
<path d="M72491 55810
L70995 55810
" />
<path d="M72491 46404
L72491 49050
" />
<path d="M70995 46404
L72491 46404
" />
<path d="M70995 49050
L70995 46404
" />
<path d="M72491 49050
L70995 49050
" />
<path d="M65291 52977
L65291 55622
" />
<path d="M63795 52977
L65291 52977
" />
<path d="M63795 55622
L63795 52977
" />
<path d="M65291 55622
L63795 55622
" />
<path d="M65291 46417
L65291 49062
" />
<path d="M63795 46417
L65291 46417
" />
<path d="M63795 49062
L63795 46417
" />
<path d="M65291 49062
L63795 49062
" />
<path d="M35851 53217
L35851 55862
" />
<path d="M34355 53217
L35851 53217
" />
<path d="M34355 55862
L34355 53217
" />
<path d="M35851 55862
L34355 55862
" />
<path d="M43051 46417
L43051 49062
" />
<path d="M41555 46417
L43051 46417
" />
<path d="M41555 49062
L41555 46417
" />
<path d="M43051 49062
L41555 49062
" />
<path d="M43051 53217
L43051 55862
" />
<path d="M41555 53217
L43051 53217
" />
<path d="M41555 55862
L41555 53217
" />
<path d="M43051 55862
L41555 55862
" />
<path d="M28651 53217
L28651 55862
" />
<path d="M27155 53217
L28651 53217
" />
<path d="M27155 55862
L27155 53217
" />
<path d="M28651 55862
L27155 55862
" />
<path d="M50651 53217
L50651 55862
" />
<path d="M49155 53217
L50651 53217
" />
<path d="M49155 55862
L49155 53217
" />
<path d="M50651 55862
L49155 55862
" />
<path d="M50651 46417
L50651 49062
" />
<path d="M49155 46417
L50651 46417
" />
<path d="M49155 49062
L49155 46417
" />
<path d="M50651 49062
L49155 49062
" />
<path d="M60820 38591
L63466 38591
" />
<path d="M60820 40088
L60820 38591
" />
<path d="M63466 40088
L60820 40088
" />
<path d="M63466 38591
L63466 40088
" />
<path d="M41827 28113
L41000 28113
" />
<path d="M41827 29766
L41827 28113
" />
<path d="M41000 29766
L41827 29766
" />
<path d="M41000 28113
L41000 27562
" />
<path d="M41000 30317
L41000 29766
" />
<path d="M41000 30317
L40094 31223
" />
<path d="M41000 27562
L40094 26656
" />
<path d="M40094 31223
L36433 31223
" />
<path d="M40094 26656
L36433 26656
" />
<path d="M36433 28113
L36433 26656
" />
<path d="M35606 28113
L36433 28113
" />
<path d="M35606 29766
L35606 28113
" />
<path d="M36433 29766
L35606 29766
" />
<path d="M36433 31223
L36433 29766
" />
<path d="M41827 23434
L41000 23434
" />
<path d="M41827 25088
L41827 23434
" />
<path d="M41000 25088
L41827 25088
" />
<path d="M41000 23434
L41000 22883
" />
<path d="M41000 25639
L41000 25088
" />
<path d="M41000 25639
L40094 26544
" />
<path d="M41000 22883
L40094 21977
" />
<path d="M40094 26544
L36433 26544
" />
<path d="M40094 21977
L36433 21977
" />
<path d="M36433 23434
L36433 21977
" />
<path d="M35606 23434
L36433 23434
" />
<path d="M35606 25088
L35606 23434
" />
<path d="M36433 25088
L35606 25088
" />
<path d="M36433 26544
L36433 25088
" />
<path d="M66950 40304
L65079 38433
" />
<path d="M68008 39246
L66950 40304
" />
<path d="M66137 37375
L68008 39246
" />
<path d="M65079 38433
L66137 37375
" />
<path d="M52051 49917
L52051 52562
" />
<path d="M50555 49917
L52051 49917
" />
<path d="M50555 52562
L50555 49917
" />
<path d="M52051 52562
L50555 52562
" />
<path d="M81191 35457
L81191 38102
" />
<path d="M79695 35457
L81191 35457
" />
<path d="M79695 38102
L79695 35457
" />
<path d="M81191 38102
L79695 38102
" />
<path d="M79191 35469
L79191 38115
" />
<path d="M77695 35469
L79191 35469
" />
<path d="M77695 38115
L77695 35469
" />
<path d="M79191 38115
L77695 38115
" />
<path d="M83191 35457
L83191 38102
" />
<path d="M81695 35457
L83191 35457
" />
<path d="M81695 38102
L81695 35457
" />
<path d="M83191 38102
L81695 38102
" />
<path d="M69953 28800
L71824 26930
" />
<path d="M71011 29858
L69953 28800
" />
<path d="M72882 27988
L71011 29858
" />
<path d="M71824 26930
L72882 27988
" />
<path d="M71093 30020
L72964 28150
" />
<path d="M72151 31078
L71093 30020
" />
<path d="M74022 29208
L72151 31078
" />
<path d="M72964 28150
L74022 29208
" />
<path d="M69226 41822
L69226 44657
" />
<path d="M76037 41822
L69226 41822
" />
<path d="M76037 44657
L76037 41822
" />
<path d="M69226 44657
L76037 44657
" />
<path d="M71592 25727
L75156 29290
" />
<path d="M73931 23389
L71592 25727
" />
<path d="M77494 26952
L73931 23389
" />
<path d="M75156 29290
L77494 26952
" />
<path d="M23629 27449
L21818 27449
" />
<path d="M21818 31150
L21818 27449
" />
<path d="M23629 31150
L21818 31150
" />
<path d="M23629 27449
L23629 31150
" />
<path d="M21769 27449
L19958 27449
" />
<path d="M19958 31150
L19958 27449
" />
<path d="M21769 31150
L19958 31150
" />
<path d="M21769 27449
L21769 31150
" />
<path d="M23965 31568
L18138 31568
" />
<path d="M23965 35111
L23965 31568
" />
<path d="M18138 35111
L23965 35111
" />
<path d="M18138 31568
L18138 35111
" />
<path d="M52428 46025
L52428 56654
" />
<path d="M63058 46025
L52428 46025
" />
<path d="M63058 56654
L63058 46025
" />
<path d="M52428 56654
L63058 56654
" />
<path d="M69517 29075
L63838 34754
" />
<path d="M75196 34754
L69517 40433
" />
<path d="M69517 40433
L63838 34754
" />
<path d="M75196 34754
L69517 29075
" />
<path d="M47965 28201
L50721 28201
" />
<path d="M47965 30878
L47965 28201
" />
<path d="M50721 30878
L47965 30878
" />
<path d="M50721 28201
L50721 30878
" />
<path d="M18335 30570
L18335 27925
" />
<path d="M19831 30570
L18335 30570
" />
<path d="M19831 27925
L19831 30570
" />
<path d="M18335 27925
L19831 27925
" />
<path d="M30253 33832
L30253 31187
" />
<path d="M31749 33832
L30253 33832
" />
<path d="M31749 31187
L31749 33832
" />
<path d="M30253 31187
L31749 31187
" />
<path d="M75350 33204
L73479 31333
" />
<path d="M76408 32146
L75350 33204
" />
<path d="M74537 30275
L76408 32146
" />
<path d="M73479 31333
L74537 30275
" />
<path d="M83191 38257
L83191 40902
" />
<path d="M81695 38257
L83191 38257
" />
<path d="M81695 40902
L81695 38257
" />
<path d="M83191 40902
L81695 40902
" />
<path d="M79191 38257
L79191 40902
" />
<path d="M77695 38257
L79191 38257
" />
<path d="M77695 40902
L77695 38257
" />
<path d="M79191 40902
L77695 40902
" />
<path d="M81191 38257
L81191 40902
" />
<path d="M79695 38257
L81191 38257
" />
<path d="M79695 40902
L79695 38257
" />
<path d="M81191 40902
L79695 40902
" />
<path d="M60836 31351
L63482 31351
" />
<path d="M60836 32848
L60836 31351
" />
<path d="M63482 32848
L60836 32848
" />
<path d="M63482 31351
L63482 32848
" />
<path d="M60820 29591
L63466 29591
" />
<path d="M60820 31088
L60820 29591
" />
<path d="M63466 31088
L60820 31088
" />
<path d="M63466 29591
L63466 31088
" />
<path d="M79560 32911
L82206 32911
" />
<path d="M79560 34408
L79560 32911
" />
<path d="M82206 34408
L79560 34408
" />
<path d="M82206 32911
L82206 34408
" />
<path d="M85795 27662
L85795 25017
" />
<path d="M87291 27662
L85795 27662
" />
<path d="M87291 25017
L87291 27662
" />
<path d="M85795 25017
L87291 25017
" />
<path d="M65499 47448
L65499 54062
" />
<path d="M70814 47448
L65499 47448
" />
<path d="M70814 54062
L70814 47448
" />
<path d="M65499 54062
L70814 54062
" />
<path d="M72719 47708
L72719 54322
" />
<path d="M78034 47708
L72719 47708
" />
<path d="M78034 54322
L78034 47708
" />
<path d="M72719 54322
L78034 54322
" />
<path d="M79899 47448
L79899 54062
" />
<path d="M85214 47448
L79899 47448
" />
<path d="M85214 54062
L85214 47448
" />
<path d="M79899 54062
L85214 54062
" />
<path d="M87099 47448
L87099 54062
" />
<path d="M92414 47448
L87099 47448
" />
<path d="M92414 54062
L92414 47448
" />
<path d="M87099 54062
L92414 54062
" />
<path d="M21659 47817
L21659 54431
" />
<path d="M26974 47817
L21659 47817
" />
<path d="M26974 54431
L26974 47817
" />
<path d="M21659 54431
L26974 54431
" />
<path d="M28859 47848
L28859 54462
" />
<path d="M34174 47848
L28859 47848
" />
<path d="M34174 54462
L34174 47848
" />
<path d="M28859 54462
L34174 54462
" />
<path d="M36059 47848
L36059 54462
" />
<path d="M41374 47848
L36059 47848
" />
<path d="M41374 54462
L41374 47848
" />
<path d="M36059 54462
L41374 54462
" />
<path d="M43199 47797
L43199 54411
" />
<path d="M48514 47797
L43199 47797
" />
<path d="M48514 54411
L48514 47797
" />
<path d="M43199 54411
L48514 54411
" />
<path d="M33939 33777
L33939 40391
" />
<path d="M39254 33777
L33939 33777
" />
<path d="M39254 40391
L39254 33777
" />
<path d="M33939 40391
L39254 40391
" />
<path d="M35488 29143
L35488 22528
" />
<path d="M30173 29143
L35488 29143
" />
<path d="M30173 22528
L30173 29143
" />
<path d="M35488 22528
L30173 22528
" />
<path d="M76986 41842
L76986 44677
" />
<path d="M87813 41842
L76986 41842
" />
<path d="M87813 44677
L87813 41842
" />
<path d="M76986 44677
L87813 44677
" />
<path d="M62546 22714
L62546 27557
" />
<path d="M69357 22714
L62546 22714
" />
<path d="M69357 27557
L69357 22714
" />
<path d="M62546 27557
L69357 27557
" />
<path d="M96587 40560
L93831 40560
" />
<path d="M93831 40560
L93831 41347
" />
<path d="M93831 41347
L91665 41347
" />
<path d="M91665 41347
L91665 40560
" />
<path d="M91665 40560
L85957 40560
" />
<path d="M85957 40560
L85957 41347
" />
<path d="M85957 41347
L84382 41347
" />
<path d="M84382 41347
L84382 40166
" />
<path d="M84382 40166
L83988 40166
" />
<path d="M83988 40166
L83988 32292
" />
<path d="M83988 32292
L84972 32292
" />
<path d="M84972 32292
L84972 29930
" />
<path d="M84972 29930
L84382 29930
" />
<path d="M84382 29930
L84382 28158
" />
<path d="M84382 28158
L85957 28158
" />
<path d="M85957 28158
L85957 28355
" />
<path d="M85957 28355
L91665 28355
" />
<path d="M91665 28355
L91665 27568
" />
<path d="M91665 27568
L93831 27568
" />
<path d="M93831 27568
L93831 28355
" />
<path d="M93831 28355
L96587 28355
" />
<path d="M51713 29629
L51713 38527
" />
<path d="M60374 29629
L60374 38527
" />
<path d="M60374 38527
L51713 38527
" />
<path d="M60374 29629
L51713 29629
" />
<path d="M59506 44625
L65380 44625
" />
<path d="M59506 40374
L65380 40374
" />
<path d="M65380 40374
L65380 44625
" />
<path d="M59506 40374
L59506 44625
" />
<path d="M63321 36546
L60565 36546
" />
<path d="M63321 33869
L63321 36546
" />
<path d="M60565 33869
L63321 33869
" />
<path d="M60565 36546
L60565 33869
" />
<path d="M41987 22003
L41987 30743
" />
<path d="M47499 22003
L41987 22003
" />
<path d="M47499 30743
L47499 22003
" />
<path d="M41987 30743
L47499 30743
" />
<path d="M77923 24928
L83435 24928
" />
<path d="M83632 25125
L83632 32212
" />
<path d="M83435 32409
L77923 32409
" />
<path d="M77726 32212
L77726 25125
" />
<path d="M83632 32409
L83632 32212
" />
<path d="M83435 32409
L83632 32409
" />
<path d="M77726 32409
L77726 32212
" />
<path d="M77923 32409
L77726 32409
" />
<path d="M77726 24928
L77923 24928
" />
<path d="M77726 25125
L77726 24928
" />
<path d="M83632 24928
L83435 24928
" />
<path d="M83632 25125
L83632 24928
" />
<path d="M39795 33640
L45307 33640
" />
<path d="M45504 33837
L45504 40924
" />
<path d="M45307 41121
L39795 41121
" />
<path d="M39598 40924
L39598 33837
" />
<path d="M45504 41121
L45504 40924
" />
<path d="M45307 41121
L45504 41121
" />
<path d="M39598 41121
L39598 40924
" />
<path d="M39795 41121
L39598 41121
" />
<path d="M39598 33640
L39795 33640
" />
<path d="M39598 33837
L39598 33640
" />
<path d="M45504 33640
L45307 33640
" />
<path d="M45504 33837
L45504 33640
" />
<circle cx="20583.7" cy="24480" r="2322.83" /> 
<circle cx="93303.7" cy="24580" r="2322.83" /> 
<circle cx="27535.9" cy="16584.1" r="2165.35" /> 
<circle cx="82654" cy="16584.1" r="2165.35" /> 
<circle cx="27535.9" cy="63828.2" r="2165.35" /> 
<circle cx="90528" cy="63828.2" r="2165.35" /> 
<path d="M87761 24757
L87761 21922
" />
<path d="M74926 24757
L87761 24757
" />
<path d="M74926 21922
L74926 24757
" />
<path d="M87761 21922
L74926 21922
" />
</g> 
</svg>
