<?xml version="1.0" standalone="no"?>
 <!DOCTYPE svg PUBLIC "-//W3C//DTD SVG 1.1//EN" 
 "http://www.w3.org/Graphics/SVG/1.1/DTD/svg11.dtd"> 
<svg xmlns="http://www.w3.org/2000/svg" version="1.1" 
    width="29.7002cm" height="21.0007cm" viewBox="0 0 116930 82680 ">
<title>SVG Picture created as ThermocoupleLogger-F_Paste.svg date 2019/03/14 18:04:39 </title>
  <desc>Picture generated by PCBNEW </desc>
<g style="fill:#000000; fill-opacity:1;stroke:#000000; stroke-opacity:1;
stroke-linecap:round; stroke-linejoin:round; "
 transform="translate(0 0) scale(1 1)">
</g>
<g style="fill:#000000; fill-opacity:0.0; 
stroke:#000000; stroke-width:-0.000787402; stroke-opacity:1; 
stroke-linecap:round; stroke-linejoin:round;">
</g>
<g style="fill:#000000; fill-opacity:0.0; 
stroke:#000000; stroke-width:157.48; stroke-opacity:1; 
stroke-linecap:round; stroke-linejoin:round;">
<path d="M96543 62899
L96543 67324
" />
<path d="M17743 67332
L96539 67332
" />
<path d="M30465 21607
L17748 21607
" />
<path d="M17743 62940
L17743 67340
" />
<path d="M83703 62900
L65463 62900
" />
<path d="M87433 62900
L96543 62900
" />
<path d="M87393 60900
L96483 60900
" />
<path d="M65463 60900
L83703 60900
" />
<path d="M61827 62909
L24467 62909
" />
<path d="M24473 60910
L61833 60910
" />
<path d="M20843 60920
L17743 60920
" />
<path d="M20813 62920
L17740 62938
" />
<path d="M20813.7 62920 A1000.2 1000.2 0.0 0 0 20836.3 60920.7 " />
<path d="M24483.7 60910 A1000 1000 0.0 0 0 24467.1 62909.9 " />
<path d="M61813.7 62910 A1000 1000 0.0 0 0 61835 60910.2 " />
<path d="M65463.7 60900 A1000.2 1000.2 0.0 1 0 65465.5 62900 " />
<path d="M83693.7 62900 A1000.2 1000.2 0.0 1 0 83713.7 60899.8 " />
<path d="M87384.5 60900 A1000.2 1000.2 0.0 0 0 87423.7 62900 " />
<path d="M91343.7 19540 A1000.8 1000.8 0.0 0 0 91383.7 21540.8 " />
<path d="M55123.7 21580 A1000.8 1000.8 0.0 1 0 55123.7 19580 " />
<path d="M17703 19560
L17703 19560
" />
<path d="M30463 19560
L17703 19560
" />
<path d="M34123 21580
L55123 21580
" />
<path d="M55103 19580
L34143 19580
" />
<path d="M30463.7 21600 A1020 1020 0.0 0 0 30463.7 19560 " />
<path d="M34143.7 19580 A1000.2 1000.2 0.0 1 0 34123.7 21580.2 " />
<path d="M87723 21570
L58893 21570
" />
<path d="M58743 19590
L87753 19590
" />
<path d="M58823.7 19580 A990.202 990.202 0.0 0 0 58863.7 21560 " />
<path d="M91394 21544
L96480 21552
" />
<path d="M96443 19540
L91343 19540
" />
<path d="M96443 14340
L96443 19540
" />
<path d="M87723.7 21580 A996 996 0.0 0 0 87731.8 19588 " />
<path d="M17703 14320
L96433 14324
" />
<path d="M17703 19560
L17703 14320
" />
<path d="M17743 60920
L17743 21610
" />
<path d="M96483 60900
L96483 21569
" />
</g>
<g style="fill:#000000; fill-opacity:0.0; 
stroke:#000000; stroke-width:0; stroke-opacity:1; 
stroke-linecap:round; stroke-linejoin:round;">
</g>
<g style="fill:#000000; fill-opacity:1.0; 
stroke:#000000; stroke-width:0; stroke-opacity:1; 
stroke-linecap:round; stroke-linejoin:round;">
<polyline style="fill-rule:evenodd;"
points="48816,23189
48834,23192
48853,23197
48870,23203
48887,23211
48904,23221
48919,23232
48933,23245
48945,23258
48957,23274
48966,23290
48974,23307
48981,23325
48985,23343
48988,23361
48989,23380
48989,24099
48988,24118
48985,24136
48981,24154
48974,24172
48966,24189
48957,24205
48945,24221
48933,24234
48919,24247
48904,24258
48887,24268
48870,24276
48853,24282
48834,24287
48816,24290
48797,24291
48413,24291
48394,24290
48376,24287
48357,24282
48340,24276
48323,24268
48306,24258
48291,24247
48277,24234
48265,24221
48254,24205
48244,24189
48236,24172
48229,24154
48225,24136
48222,24118
48221,24099
48221,23380
48222,23361
48225,23343
48229,23325
48236,23307
48244,23290
48254,23274
48265,23258
48277,23245
48291,23232
48306,23221
48323,23211
48340,23203
48357,23197
48376,23192
48394,23189
48413,23188
48797,23188
48816,23189
" /> 
<polyline style="fill-rule:evenodd;"
points="50292,23189
50311,23192
50329,23197
50347,23203
50364,23211
50380,23221
50395,23232
50409,23245
50422,23258
50433,23274
50443,23290
50451,23307
50457,23325
50462,23343
50464,23361
50465,23380
50465,24099
50464,24118
50462,24136
50457,24154
50451,24172
50443,24189
50433,24205
50422,24221
50409,24234
50395,24247
50380,24258
50364,24268
50347,24276
50329,24282
50311,24287
50292,24290
50273,24291
49890,24291
49871,24290
49852,24287
49834,24282
49816,24276
49799,24268
49783,24258
49768,24247
49754,24234
49741,24221
49730,24205
49720,24189
49712,24172
49706,24154
49701,24136
49698,24118
49698,24099
49698,23380
49698,23361
49701,23343
49706,23325
49712,23307
49720,23290
49730,23274
49741,23258
49754,23245
49768,23232
49783,23221
49799,23211
49816,23203
49834,23197
49852,23192
49871,23189
49890,23188
50273,23188
50292,23189
" /> 
<polyline style="fill-rule:evenodd;"
points="64921,51095
64940,51098
64958,51102
64976,51108
64993,51116
65009,51126
65024,51137
65038,51150
65051,51164
65062,51179
65072,51195
65080,51212
65086,51230
65091,51248
65093,51267
65094,51286
65094,51670
65093,51688
65091,51707
65086,51725
65080,51743
65072,51760
65062,51776
65051,51791
65038,51805
65024,51818
65009,51829
64993,51839
64976,51847
64958,51853
64940,51858
64921,51861
64902,51862
64184,51862
64165,51861
64147,51858
64128,51853
64111,51847
64094,51839
64077,51829
64062,51818
64048,51805
64036,51791
64024,51776
64015,51760
64007,51743
64000,51725
63996,51707
63993,51688
63992,51670
63992,51286
63993,51267
63996,51248
64000,51230
64007,51212
64015,51195
64024,51179
64036,51164
64048,51150
64062,51137
64077,51126
64094,51116
64111,51108
64128,51102
64147,51098
64165,51095
64184,51094
64902,51094
64921,51095
" /> 
<polyline style="fill-rule:evenodd;"
points="64921,49618
64940,49621
64958,49626
64976,49632
64993,49640
65009,49650
65024,49661
65038,49674
65051,49688
65062,49703
65072,49719
65080,49736
65086,49754
65091,49772
65093,49791
65094,49809
65094,50193
65093,50212
65091,50231
65086,50249
65080,50267
65072,50284
65062,50300
65051,50315
65038,50329
65024,50342
65009,50353
64993,50363
64976,50371
64958,50377
64940,50381
64921,50384
64902,50385
64184,50385
64165,50384
64147,50381
64128,50377
64111,50371
64094,50363
64077,50353
64062,50342
64048,50329
64036,50315
64024,50300
64015,50284
64007,50267
64000,50249
63996,50231
63993,50212
63992,50193
63992,49809
63993,49791
63996,49772
64000,49754
64007,49736
64015,49719
64024,49703
64036,49688
64048,49674
64062,49661
64077,49650
64094,49640
64111,49632
64128,49626
64147,49621
64165,49618
64184,49617
64902,49617
64921,49618
" /> 
<polyline style="fill-rule:evenodd;"
points="48816,24789
48834,24792
48853,24797
48870,24803
48887,24811
48904,24821
48919,24832
48933,24845
48945,24858
48957,24874
48966,24890
48974,24907
48981,24925
48985,24943
48988,24961
48989,24980
48989,25699
48988,25718
48985,25736
48981,25754
48974,25772
48966,25789
48957,25805
48945,25821
48933,25834
48919,25847
48904,25858
48887,25868
48870,25876
48853,25882
48834,25887
48816,25890
48797,25891
48413,25891
48394,25890
48376,25887
48357,25882
48340,25876
48323,25868
48306,25858
48291,25847
48277,25834
48265,25821
48254,25805
48244,25789
48236,25772
48229,25754
48225,25736
48222,25718
48221,25699
48221,24980
48222,24961
48225,24943
48229,24925
48236,24907
48244,24890
48254,24874
48265,24858
48277,24845
48291,24832
48306,24821
48323,24811
48340,24803
48357,24797
48376,24792
48394,24789
48413,24788
48797,24788
48816,24789
" /> 
<polyline style="fill-rule:evenodd;"
points="50292,24789
50311,24792
50329,24797
50347,24803
50364,24811
50380,24821
50395,24832
50409,24845
50422,24858
50433,24874
50443,24890
50451,24907
50457,24925
50462,24943
50464,24961
50465,24980
50465,25699
50464,25718
50462,25736
50457,25754
50451,25772
50443,25789
50433,25805
50422,25821
50409,25834
50395,25847
50380,25858
50364,25868
50347,25876
50329,25882
50311,25887
50292,25890
50273,25891
49890,25891
49871,25890
49852,25887
49834,25882
49816,25876
49799,25868
49783,25858
49768,25847
49754,25834
49741,25821
49730,25805
49720,25789
49712,25772
49706,25754
49701,25736
49698,25718
49698,25699
49698,24980
49698,24961
49701,24943
49706,24925
49712,24907
49720,24890
49730,24874
49741,24858
49754,24845
49768,24832
49783,24821
49799,24811
49816,24803
49834,24797
49852,24792
49871,24789
49890,24788
50273,24788
50292,24789
" /> 
<polyline style="fill-rule:evenodd;"
points="50292,26389
50311,26392
50329,26397
50347,26403
50364,26411
50380,26421
50395,26432
50409,26445
50422,26458
50433,26474
50443,26490
50451,26507
50457,26525
50462,26543
50464,26561
50465,26580
50465,27299
50464,27318
50462,27336
50457,27354
50451,27372
50443,27389
50433,27405
50422,27421
50409,27434
50395,27447
50380,27458
50364,27468
50347,27476
50329,27482
50311,27487
50292,27490
50273,27491
49890,27491
49871,27490
49852,27487
49834,27482
49816,27476
49799,27468
49783,27458
49768,27447
49754,27434
49741,27421
49730,27405
49720,27389
49712,27372
49706,27354
49701,27336
49698,27318
49698,27299
49698,26580
49698,26561
49701,26543
49706,26525
49712,26507
49720,26490
49730,26474
49741,26458
49754,26445
49768,26432
49783,26421
49799,26411
49816,26403
49834,26397
49852,26392
49871,26389
49890,26388
50273,26388
50292,26389
" /> 
<polyline style="fill-rule:evenodd;"
points="48816,26389
48834,26392
48853,26397
48870,26403
48887,26411
48904,26421
48919,26432
48933,26445
48945,26458
48957,26474
48966,26490
48974,26507
48981,26525
48985,26543
48988,26561
48989,26580
48989,27299
48988,27318
48985,27336
48981,27354
48974,27372
48966,27389
48957,27405
48945,27421
48933,27434
48919,27447
48904,27458
48887,27468
48870,27476
48853,27482
48834,27487
48816,27490
48797,27491
48413,27491
48394,27490
48376,27487
48357,27482
48340,27476
48323,27468
48306,27458
48291,27447
48277,27434
48265,27421
48254,27405
48244,27389
48236,27372
48229,27354
48225,27336
48222,27318
48221,27299
48221,26580
48222,26561
48225,26543
48229,26525
48236,26507
48244,26490
48254,26474
48265,26458
48277,26445
48291,26432
48306,26421
48323,26411
48340,26403
48357,26397
48376,26392
48394,26389
48413,26388
48797,26388
48816,26389
" /> 
<polyline style="fill-rule:evenodd;"
points="72121,51307
72140,51310
72158,51315
72176,51321
72193,51329
72209,51339
72224,51350
72238,51363
72251,51377
72262,51392
72272,51408
72280,51425
72286,51443
72291,51461
72293,51480
72294,51498
72294,51882
72293,51901
72291,51920
72286,51938
72280,51956
72272,51973
72262,51989
72251,52004
72238,52018
72224,52031
72209,52042
72193,52051
72176,52060
72158,52066
72140,52070
72121,52073
72102,52074
71384,52074
71365,52073
71347,52070
71328,52066
71311,52060
71294,52051
71277,52042
71262,52031
71248,52018
71236,52004
71224,51989
71215,51973
71207,51956
71200,51938
71196,51920
71193,51901
71192,51882
71192,51498
71193,51480
71196,51461
71200,51443
71207,51425
71215,51408
71224,51392
71236,51377
71248,51363
71262,51350
71277,51339
71294,51329
71311,51321
71328,51315
71347,51310
71365,51307
71384,51306
72102,51306
72121,51307
" /> 
<polyline style="fill-rule:evenodd;"
points="72121,49831
72140,49834
72158,49838
72176,49845
72193,49853
72209,49862
72224,49874
72238,49886
72251,49900
72262,49915
72272,49932
72280,49949
72286,49966
72291,49985
72293,50003
72294,50022
72294,50406
72293,50425
72291,50443
72286,50462
72280,50479
72272,50496
72262,50512
72251,50528
72238,50542
72224,50554
72209,50565
72193,50575
72176,50583
72158,50590
72140,50594
72121,50597
72102,50598
71384,50598
71365,50597
71347,50594
71328,50590
71311,50583
71294,50575
71277,50565
71262,50554
71248,50542
71236,50528
71224,50512
71215,50496
71207,50479
71200,50462
71196,50443
71193,50425
71192,50406
71192,50022
71193,50003
71196,49985
71200,49966
71207,49949
71215,49932
71224,49915
71236,49900
71248,49886
71262,49874
71277,49862
71294,49853
71311,49845
71328,49838
71347,49834
71365,49831
71384,49830
72102,49830
72121,49831
" /> 
<polyline style="fill-rule:evenodd;"
points="79321,50995
79340,50998
79358,51002
79376,51008
79393,51016
79409,51026
79424,51037
79438,51050
79451,51064
79462,51079
79472,51095
79480,51112
79486,51130
79491,51148
79493,51167
79494,51186
79494,51570
79493,51588
79491,51607
79486,51625
79480,51643
79472,51660
79462,51676
79451,51691
79438,51705
79424,51718
79409,51729
79393,51739
79376,51747
79358,51753
79340,51758
79321,51761
79302,51762
78584,51762
78565,51761
78547,51758
78528,51753
78511,51747
78494,51739
78477,51729
78462,51718
78448,51705
78436,51691
78424,51676
78415,51660
78407,51643
78400,51625
78396,51607
78393,51588
78392,51570
78392,51186
78393,51167
78396,51148
78400,51130
78407,51112
78415,51095
78424,51079
78436,51064
78448,51050
78462,51037
78477,51026
78494,51016
78511,51008
78528,51002
78547,50998
78565,50995
78584,50994
79302,50994
79321,50995
" /> 
<polyline style="fill-rule:evenodd;"
points="79321,49518
79340,49521
79358,49526
79376,49532
79393,49540
79409,49550
79424,49561
79438,49574
79451,49588
79462,49603
79472,49619
79480,49636
79486,49654
79491,49672
79493,49691
79494,49709
79494,50093
79493,50112
79491,50131
79486,50149
79480,50167
79472,50184
79462,50200
79451,50215
79438,50229
79424,50242
79409,50253
79393,50263
79376,50271
79358,50277
79340,50281
79321,50284
79302,50285
78584,50285
78565,50284
78547,50281
78528,50277
78511,50271
78494,50263
78477,50253
78462,50242
78448,50229
78436,50215
78424,50200
78415,50184
78407,50167
78400,50149
78396,50131
78393,50112
78392,50093
78392,49709
78393,49691
78396,49672
78400,49654
78407,49636
78415,49619
78424,49603
78436,49588
78448,49574
78462,49561
78477,49550
78494,49540
78511,49532
78528,49526
78547,49521
78565,49518
78584,49517
79302,49517
79321,49518
" /> 
<polyline style="fill-rule:evenodd;"
points="86521,50975
86540,50978
86558,50982
86576,50988
86593,50996
86609,51006
86624,51017
86638,51030
86651,51044
86662,51059
86672,51075
86680,51092
86686,51110
86691,51128
86693,51147
86694,51166
86694,51550
86693,51568
86691,51587
86686,51605
86680,51623
86672,51640
86662,51656
86651,51671
86638,51685
86624,51698
86609,51709
86593,51719
86576,51727
86558,51733
86540,51738
86521,51741
86502,51742
85784,51742
85765,51741
85747,51738
85728,51733
85711,51727
85694,51719
85677,51709
85662,51698
85648,51685
85636,51671
85624,51656
85615,51640
85607,51623
85600,51605
85596,51587
85593,51568
85592,51550
85592,51166
85593,51147
85596,51128
85600,51110
85607,51092
85615,51075
85624,51059
85636,51044
85648,51030
85662,51017
85677,51006
85694,50996
85711,50988
85728,50982
85747,50978
85765,50975
85784,50974
86502,50974
86521,50975
" /> 
<polyline style="fill-rule:evenodd;"
points="86521,49498
86540,49501
86558,49506
86576,49512
86593,49520
86609,49530
86624,49541
86638,49554
86651,49568
86662,49583
86672,49599
86680,49616
86686,49634
86691,49652
86693,49671
86694,49689
86694,50073
86693,50092
86691,50111
86686,50129
86680,50147
86672,50164
86662,50180
86651,50195
86638,50209
86624,50222
86609,50233
86593,50243
86576,50251
86558,50257
86540,50261
86521,50264
86502,50265
85784,50265
85765,50264
85747,50261
85728,50257
85711,50251
85694,50243
85677,50233
85662,50222
85648,50209
85636,50195
85624,50180
85615,50164
85607,50147
85600,50129
85596,50111
85593,50092
85592,50073
85592,49689
85593,49671
85596,49652
85600,49634
85607,49616
85615,49599
85624,49583
85636,49568
85648,49554
85662,49541
85677,49530
85694,49520
85711,49512
85728,49506
85747,49501
85765,49498
85784,49497
86502,49497
86521,49498
" /> 
<polyline style="fill-rule:evenodd;"
points="28331,51295
28350,51298
28368,51302
28386,51308
28403,51316
28419,51326
28434,51337
28448,51350
28461,51364
28472,51379
28482,51395
28490,51412
28496,51430
28501,51448
28503,51467
28504,51486
28504,51870
28503,51888
28501,51907
28496,51925
28490,51943
28482,51960
28472,51976
28461,51991
28448,52005
28434,52018
28419,52029
28403,52039
28386,52047
28368,52053
28350,52058
28331,52061
28312,52062
27594,52062
27575,52061
27556,52058
27538,52053
27520,52047
27503,52039
27487,52029
27472,52018
27458,52005
27445,51991
27434,51976
27425,51960
27416,51943
27410,51925
27406,51907
27403,51888
27402,51870
27402,51486
27403,51467
27406,51448
27410,51430
27416,51412
27425,51395
27434,51379
27445,51364
27458,51350
27472,51337
27487,51326
27503,51316
27520,51308
27538,51302
27556,51298
27575,51295
27594,51294
28312,51294
28331,51295
" /> 
<polyline style="fill-rule:evenodd;"
points="28331,49818
28350,49821
28368,49826
28386,49832
28403,49840
28419,49850
28434,49861
28448,49874
28461,49888
28472,49903
28482,49919
28490,49936
28496,49954
28501,49972
28503,49991
28504,50009
28504,50393
28503,50412
28501,50431
28496,50449
28490,50467
28482,50484
28472,50500
28461,50515
28448,50529
28434,50542
28419,50553
28403,50563
28386,50571
28368,50577
28350,50581
28331,50584
28312,50585
27594,50585
27575,50584
27556,50581
27538,50577
27520,50571
27503,50563
27487,50553
27472,50542
27458,50529
27445,50515
27434,50500
27425,50484
27416,50467
27410,50449
27406,50431
27403,50412
27402,50393
27402,50009
27403,49991
27406,49972
27410,49954
27416,49936
27425,49919
27434,49903
27445,49888
27458,49874
27472,49861
27487,49850
27503,49840
27520,49832
27538,49826
27556,49821
27575,49818
27594,49817
28312,49817
28331,49818
" /> 
<polyline style="fill-rule:evenodd;"
points="35481,51295
35500,51298
35518,51302
35536,51308
35553,51316
35569,51326
35584,51337
35598,51350
35611,51364
35622,51379
35632,51395
35640,51412
35646,51430
35651,51448
35653,51467
35654,51486
35654,51870
35653,51888
35651,51907
35646,51925
35640,51943
35632,51960
35622,51976
35611,51991
35598,52005
35584,52018
35569,52029
35553,52039
35536,52047
35518,52053
35500,52058
35481,52061
35462,52062
34744,52062
34725,52061
34707,52058
34688,52053
34671,52047
34654,52039
34637,52029
34622,52018
34608,52005
34596,51991
34584,51976
34575,51960
34567,51943
34560,51925
34556,51907
34553,51888
34552,51870
34552,51486
34553,51467
34556,51448
34560,51430
34567,51412
34575,51395
34584,51379
34596,51364
34608,51350
34622,51337
34637,51326
34654,51316
34671,51308
34688,51302
34707,51298
34725,51295
34744,51294
35462,51294
35481,51295
" /> 
<polyline style="fill-rule:evenodd;"
points="35481,49818
35500,49821
35518,49826
35536,49832
35553,49840
35569,49850
35584,49861
35598,49874
35611,49888
35622,49903
35632,49919
35640,49936
35646,49954
35651,49972
35653,49991
35654,50009
35654,50393
35653,50412
35651,50431
35646,50449
35640,50467
35632,50484
35622,50500
35611,50515
35598,50529
35584,50542
35569,50553
35553,50563
35536,50571
35518,50577
35500,50581
35481,50584
35462,50585
34744,50585
34725,50584
34707,50581
34688,50577
34671,50571
34654,50563
34637,50553
34622,50542
34608,50529
34596,50515
34584,50500
34575,50484
34567,50467
34560,50449
34556,50431
34553,50412
34552,50393
34552,50009
34553,49991
34556,49972
34560,49954
34567,49936
34575,49919
34584,49903
34596,49888
34608,49874
34622,49861
34637,49850
34654,49840
34671,49832
34688,49826
34707,49821
34725,49818
34744,49817
35462,49817
35481,49818
" /> 
<polyline style="fill-rule:evenodd;"
points="42731,51316
42750,51319
42768,51324
42786,51330
42803,51338
42819,51348
42834,51359
42848,51372
42861,51385
42872,51401
42882,51417
42890,51434
42896,51452
42901,51470
42903,51488
42904,51507
42904,51891
42903,51910
42901,51929
42896,51947
42890,51965
42882,51982
42872,51998
42861,52013
42848,52027
42834,52039
42819,52051
42803,52060
42786,52068
42768,52075
42750,52079
42731,52082
42712,52083
41994,52083
41975,52082
41956,52079
41938,52075
41920,52068
41903,52060
41887,52051
41872,52039
41858,52027
41845,52013
41834,51998
41825,51982
41816,51965
41810,51947
41806,51929
41803,51910
41802,51891
41802,51507
41803,51488
41806,51470
41810,51452
41816,51434
41825,51417
41834,51401
41845,51385
41858,51372
41872,51359
41887,51348
41903,51338
41920,51330
41938,51324
41956,51319
41975,51316
41994,51315
42712,51315
42731,51316
" /> 
<polyline style="fill-rule:evenodd;"
points="42731,49840
42750,49843
42768,49847
42786,49854
42803,49862
42819,49871
42834,49882
42848,49895
42861,49909
42872,49924
42882,49940
42890,49957
42896,49975
42901,49993
42903,50012
42904,50031
42904,50415
42903,50434
42901,50452
42896,50470
42890,50488
42882,50505
42872,50521
42861,50536
42848,50550
42834,50563
42819,50574
42803,50584
42786,50592
42768,50598
42750,50603
42731,50606
42712,50607
41994,50607
41975,50606
41956,50603
41938,50598
41920,50592
41903,50584
41887,50574
41872,50563
41858,50550
41845,50536
41834,50521
41825,50505
41816,50488
41810,50470
41806,50452
41803,50434
41802,50415
41802,50031
41803,50012
41806,49993
41810,49975
41816,49957
41825,49940
41834,49924
41845,49909
41858,49895
41872,49882
41887,49871
41903,49862
41920,49854
41938,49847
41956,49843
41975,49840
41994,49839
42712,49839
42731,49840
" /> 
<polyline style="fill-rule:evenodd;"
points="49621,51595
49640,51598
49658,51602
49676,51608
49693,51616
49709,51626
49724,51637
49738,51650
49751,51664
49762,51679
49772,51695
49780,51712
49786,51730
49791,51748
49793,51767
49794,51786
49794,52170
49793,52188
49791,52207
49786,52225
49780,52243
49772,52260
49762,52276
49751,52291
49738,52305
49724,52318
49709,52329
49693,52339
49676,52347
49658,52353
49640,52358
49621,52361
49602,52362
48884,52362
48865,52361
48847,52358
48828,52353
48811,52347
48794,52339
48777,52329
48762,52318
48748,52305
48736,52291
48724,52276
48715,52260
48707,52243
48700,52225
48696,52207
48693,52188
48692,52170
48692,51786
48693,51767
48696,51748
48700,51730
48707,51712
48715,51695
48724,51679
48736,51664
48748,51650
48762,51637
48777,51626
48794,51616
48811,51608
48828,51602
48847,51598
48865,51595
48884,51594
49602,51594
49621,51595
" /> 
<polyline style="fill-rule:evenodd;"
points="49621,50118
49640,50121
49658,50126
49676,50132
49693,50140
49709,50150
49724,50161
49738,50174
49751,50188
49762,50203
49772,50219
49780,50236
49786,50254
49791,50272
49793,50291
49794,50309
49794,50693
49793,50712
49791,50731
49786,50749
49780,50767
49772,50784
49762,50800
49751,50815
49738,50829
49724,50842
49709,50853
49693,50863
49676,50871
49658,50877
49640,50881
49621,50884
49602,50885
48884,50885
48865,50884
48847,50881
48828,50877
48811,50871
48794,50863
48777,50853
48762,50842
48748,50829
48736,50815
48724,50800
48715,50784
48707,50767
48700,50749
48696,50731
48693,50712
48692,50693
48692,50309
48693,50291
48696,50272
48700,50254
48707,50236
48715,50219
48724,50203
48736,50188
48748,50174
48762,50161
48777,50150
48794,50140
48811,50132
48828,50126
48847,50121
48865,50118
48884,50117
49602,50117
49621,50118
" /> 
<polyline style="fill-rule:evenodd;"
points="35481,46618
35500,46621
35518,46626
35536,46632
35553,46640
35569,46650
35584,46661
35598,46674
35611,46688
35622,46703
35632,46719
35640,46736
35646,46754
35651,46772
35653,46791
35654,46809
35654,47193
35653,47212
35651,47231
35646,47249
35640,47267
35632,47284
35622,47300
35611,47315
35598,47329
35584,47342
35569,47353
35553,47363
35536,47371
35518,47377
35500,47381
35481,47384
35462,47385
34744,47385
34725,47384
34707,47381
34688,47377
34671,47371
34654,47363
34637,47353
34622,47342
34608,47329
34596,47315
34584,47300
34575,47284
34567,47267
34560,47249
34556,47231
34553,47212
34552,47193
34552,46809
34553,46791
34556,46772
34560,46754
34567,46736
34575,46719
34584,46703
34596,46688
34608,46674
34622,46661
34637,46650
34654,46640
34671,46632
34688,46626
34707,46621
34725,46618
34744,46617
35462,46617
35481,46618
" /> 
<polyline style="fill-rule:evenodd;"
points="35481,48095
35500,48098
35518,48102
35536,48108
35553,48116
35569,48126
35584,48137
35598,48150
35611,48164
35622,48179
35632,48195
35640,48212
35646,48230
35651,48248
35653,48267
35654,48286
35654,48670
35653,48688
35651,48707
35646,48725
35640,48743
35632,48760
35622,48776
35611,48791
35598,48805
35584,48818
35569,48829
35553,48839
35536,48847
35518,48853
35500,48858
35481,48861
35462,48862
34744,48862
34725,48861
34707,48858
34688,48853
34671,48847
34654,48839
34637,48829
34622,48818
34608,48805
34596,48791
34584,48776
34575,48760
34567,48743
34560,48725
34556,48707
34553,48688
34552,48670
34552,48286
34553,48267
34556,48248
34560,48230
34567,48212
34575,48195
34584,48179
34596,48164
34608,48150
34622,48137
34637,48126
34654,48116
34671,48108
34688,48102
34707,48098
34725,48095
34744,48094
35462,48094
35481,48095
" /> 
<polyline style="fill-rule:evenodd;"
points="28331,46618
28350,46621
28368,46626
28386,46632
28403,46640
28419,46650
28434,46661
28448,46674
28461,46688
28472,46703
28482,46719
28490,46736
28496,46754
28501,46772
28503,46791
28504,46809
28504,47193
28503,47212
28501,47231
28496,47249
28490,47267
28482,47284
28472,47300
28461,47315
28448,47329
28434,47342
28419,47353
28403,47363
28386,47371
28368,47377
28350,47381
28331,47384
28312,47385
27594,47385
27575,47384
27556,47381
27538,47377
27520,47371
27503,47363
27487,47353
27472,47342
27458,47329
27445,47315
27434,47300
27425,47284
27416,47267
27410,47249
27406,47231
27403,47212
27402,47193
27402,46809
27403,46791
27406,46772
27410,46754
27416,46736
27425,46719
27434,46703
27445,46688
27458,46674
27472,46661
27487,46650
27503,46640
27520,46632
27538,46626
27556,46621
27575,46618
27594,46617
28312,46617
28331,46618
" /> 
<polyline style="fill-rule:evenodd;"
points="28331,48095
28350,48098
28368,48102
28386,48108
28403,48116
28419,48126
28434,48137
28448,48150
28461,48164
28472,48179
28482,48195
28490,48212
28496,48230
28501,48248
28503,48267
28504,48286
28504,48670
28503,48688
28501,48707
28496,48725
28490,48743
28482,48760
28472,48776
28461,48791
28448,48805
28434,48818
28419,48829
28403,48839
28386,48847
28368,48853
28350,48858
28331,48861
28312,48862
27594,48862
27575,48861
27556,48858
27538,48853
27520,48847
27503,48839
27487,48829
27472,48818
27458,48805
27445,48791
27434,48776
27425,48760
27416,48743
27410,48725
27406,48707
27403,48688
27402,48670
27402,48286
27403,48267
27406,48248
27410,48230
27416,48212
27425,48195
27434,48179
27445,48164
27458,48150
27472,48137
27487,48126
27503,48116
27520,48108
27538,48102
27556,48098
27575,48095
27594,48094
28312,48094
28331,48095
" /> 
<polyline style="fill-rule:evenodd;"
points="86521,53018
86540,53021
86558,53026
86576,53032
86593,53040
86609,53050
86624,53061
86638,53074
86651,53088
86662,53103
86672,53119
86680,53136
86686,53154
86691,53172
86693,53191
86694,53209
86694,53593
86693,53612
86691,53631
86686,53649
86680,53667
86672,53684
86662,53700
86651,53715
86638,53729
86624,53742
86609,53753
86593,53763
86576,53771
86558,53777
86540,53781
86521,53784
86502,53785
85784,53785
85765,53784
85747,53781
85728,53777
85711,53771
85694,53763
85677,53753
85662,53742
85648,53729
85636,53715
85624,53700
85615,53684
85607,53667
85600,53649
85596,53631
85593,53612
85592,53593
85592,53209
85593,53191
85596,53172
85600,53154
85607,53136
85615,53119
85624,53103
85636,53088
85648,53074
85662,53061
85677,53050
85694,53040
85711,53032
85728,53026
85747,53021
85765,53018
85784,53017
86502,53017
86521,53018
" /> 
<polyline style="fill-rule:evenodd;"
points="86521,54495
86540,54498
86558,54502
86576,54508
86593,54516
86609,54526
86624,54537
86638,54550
86651,54564
86662,54579
86672,54595
86680,54612
86686,54630
86691,54648
86693,54667
86694,54686
86694,55070
86693,55088
86691,55107
86686,55125
86680,55143
86672,55160
86662,55176
86651,55191
86638,55205
86624,55218
86609,55229
86593,55239
86576,55247
86558,55253
86540,55258
86521,55261
86502,55262
85784,55262
85765,55261
85747,55258
85728,55253
85711,55247
85694,55239
85677,55229
85662,55218
85648,55205
85636,55191
85624,55176
85615,55160
85607,55143
85600,55125
85596,55107
85593,55088
85592,55070
85592,54686
85593,54667
85596,54648
85600,54630
85607,54612
85615,54595
85624,54579
85636,54564
85648,54550
85662,54537
85677,54526
85694,54516
85711,54508
85728,54502
85747,54498
85765,54495
85784,54494
86502,54494
86521,54495
" /> 
<polyline style="fill-rule:evenodd;"
points="86521,46270
86540,46273
86558,46278
86576,46284
86593,46292
86609,46302
86624,46313
86638,46326
86651,46340
86662,46355
86672,46371
86680,46388
86686,46406
86691,46424
86693,46443
86694,46461
86694,46845
86693,46864
86691,46883
86686,46901
86680,46919
86672,46936
86662,46952
86651,46967
86638,46981
86624,46994
86609,47005
86593,47014
86576,47023
86558,47029
86540,47033
86521,47036
86502,47037
85784,47037
85765,47036
85747,47033
85728,47029
85711,47023
85694,47014
85677,47005
85662,46994
85648,46981
85636,46967
85624,46952
85615,46936
85607,46919
85600,46901
85596,46883
85593,46864
85592,46845
85592,46461
85593,46443
85596,46424
85600,46406
85607,46388
85615,46371
85624,46355
85636,46340
85648,46326
85662,46313
85677,46302
85694,46292
85711,46284
85728,46278
85747,46273
85765,46270
85784,46269
86502,46269
86521,46270
" /> 
<polyline style="fill-rule:evenodd;"
points="86521,47747
86540,47749
86558,47754
86576,47760
86593,47768
86609,47778
86624,47789
86638,47802
86651,47816
86662,47831
86672,47847
86680,47864
86686,47882
86691,47900
86693,47919
86694,47938
86694,48322
86693,48340
86691,48359
86686,48377
86680,48395
86672,48412
86662,48428
86651,48443
86638,48457
86624,48470
86609,48481
86593,48491
86576,48499
86558,48505
86540,48510
86521,48513
86502,48514
85784,48514
85765,48513
85747,48510
85728,48505
85711,48499
85694,48491
85677,48481
85662,48470
85648,48457
85636,48443
85624,48428
85615,48412
85607,48395
85600,48377
85596,48359
85593,48340
85592,48322
85592,47938
85593,47919
85596,47900
85600,47882
85607,47864
85615,47847
85624,47831
85636,47816
85648,47802
85662,47789
85677,47778
85694,47768
85711,47760
85728,47754
85747,47749
85765,47747
85784,47746
86502,47746
86521,47747
" /> 
<polyline style="fill-rule:evenodd;"
points="79321,53018
79340,53021
79358,53026
79376,53032
79393,53040
79409,53050
79424,53061
79438,53074
79451,53088
79462,53103
79472,53119
79480,53136
79486,53154
79491,53172
79493,53191
79494,53209
79494,53593
79493,53612
79491,53631
79486,53649
79480,53667
79472,53684
79462,53700
79451,53715
79438,53729
79424,53742
79409,53753
79393,53763
79376,53771
79358,53777
79340,53781
79321,53784
79302,53785
78584,53785
78565,53784
78547,53781
78528,53777
78511,53771
78494,53763
78477,53753
78462,53742
78448,53729
78436,53715
78424,53700
78415,53684
78407,53667
78400,53649
78396,53631
78393,53612
78392,53593
78392,53209
78393,53191
78396,53172
78400,53154
78407,53136
78415,53119
78424,53103
78436,53088
78448,53074
78462,53061
78477,53050
78494,53040
78511,53032
78528,53026
78547,53021
78565,53018
78584,53017
79302,53017
79321,53018
" /> 
<polyline style="fill-rule:evenodd;"
points="79321,54495
79340,54498
79358,54502
79376,54508
79393,54516
79409,54526
79424,54537
79438,54550
79451,54564
79462,54579
79472,54595
79480,54612
79486,54630
79491,54648
79493,54667
79494,54686
79494,55070
79493,55088
79491,55107
79486,55125
79480,55143
79472,55160
79462,55176
79451,55191
79438,55205
79424,55218
79409,55229
79393,55239
79376,55247
79358,55253
79340,55258
79321,55261
79302,55262
78584,55262
78565,55261
78547,55258
78528,55253
78511,55247
78494,55239
78477,55229
78462,55218
78448,55205
78436,55191
78424,55176
78415,55160
78407,55143
78400,55125
78396,55107
78393,55088
78392,55070
78392,54686
78393,54667
78396,54648
78400,54630
78407,54612
78415,54595
78424,54579
78436,54564
78448,54550
78462,54537
78477,54526
78494,54516
78511,54508
78528,54502
78547,54498
78565,54495
78584,54494
79302,54494
79321,54495
" /> 
<polyline style="fill-rule:evenodd;"
points="79321,46218
79340,46221
79358,46226
79376,46232
79393,46240
79409,46250
79424,46261
79438,46274
79451,46288
79462,46303
79472,46319
79480,46336
79486,46354
79491,46372
79493,46391
79494,46409
79494,46793
79493,46812
79491,46831
79486,46849
79480,46867
79472,46884
79462,46900
79451,46915
79438,46929
79424,46942
79409,46953
79393,46963
79376,46971
79358,46977
79340,46981
79321,46984
79302,46985
78584,46985
78565,46984
78547,46981
78528,46977
78511,46971
78494,46963
78477,46953
78462,46942
78448,46929
78436,46915
78424,46900
78415,46884
78407,46867
78400,46849
78396,46831
78393,46812
78392,46793
78392,46409
78393,46391
78396,46372
78400,46354
78407,46336
78415,46319
78424,46303
78436,46288
78448,46274
78462,46261
78477,46250
78494,46240
78511,46232
78528,46226
78547,46221
78565,46218
78584,46217
79302,46217
79321,46218
" /> 
<polyline style="fill-rule:evenodd;"
points="79321,47695
79340,47698
79358,47702
79376,47708
79393,47716
79409,47726
79424,47737
79438,47750
79451,47764
79462,47779
79472,47795
79480,47812
79486,47830
79491,47848
79493,47867
79494,47886
79494,48270
79493,48288
79491,48307
79486,48325
79480,48343
79472,48360
79462,48376
79451,48391
79438,48405
79424,48418
79409,48429
79393,48439
79376,48447
79358,48453
79340,48458
79321,48461
79302,48462
78584,48462
78565,48461
78547,48458
78528,48453
78511,48447
78494,48439
78477,48429
78462,48418
78448,48405
78436,48391
78424,48376
78415,48360
78407,48343
78400,48325
78396,48307
78393,48288
78392,48270
78392,47886
78393,47867
78396,47848
78400,47830
78407,47812
78415,47795
78424,47779
78436,47764
78448,47750
78462,47737
78477,47726
78494,47716
78511,47708
78528,47702
78547,47698
78565,47695
78584,47694
79302,47694
79321,47695
" /> 
<polyline style="fill-rule:evenodd;"
points="72121,53366
72140,53369
72158,53374
72176,53380
72193,53388
72209,53398
72224,53409
72238,53422
72251,53436
72262,53451
72272,53467
72280,53484
72286,53502
72291,53520
72293,53539
72294,53557
72294,53941
72293,53960
72291,53979
72286,53997
72280,54015
72272,54032
72262,54048
72251,54063
72238,54077
72224,54090
72209,54101
72193,54111
72176,54119
72158,54125
72140,54130
72121,54132
72102,54133
71384,54133
71365,54132
71347,54130
71328,54125
71311,54119
71294,54111
71277,54101
71262,54090
71248,54077
71236,54063
71224,54048
71215,54032
71207,54015
71200,53997
71196,53979
71193,53960
71192,53941
71192,53557
71193,53539
71196,53520
71200,53502
71207,53484
71215,53467
71224,53451
71236,53436
71248,53422
71262,53409
71277,53398
71294,53388
71311,53380
71328,53374
71347,53369
71365,53366
71384,53365
72102,53365
72121,53366
" /> 
<polyline style="fill-rule:evenodd;"
points="72121,54843
72140,54846
72158,54850
72176,54856
72193,54865
72209,54874
72224,54885
72238,54898
72251,54912
72262,54927
72272,54943
72280,54960
72286,54978
72291,54996
72293,55015
72294,55034
72294,55418
72293,55436
72291,55455
72286,55473
72280,55491
72272,55508
72262,55524
72251,55539
72238,55553
72224,55566
72209,55577
72193,55587
72176,55595
72158,55601
72140,55606
72121,55609
72102,55610
71384,55610
71365,55609
71347,55606
71328,55601
71311,55595
71294,55587
71277,55577
71262,55566
71248,55553
71236,55539
71224,55524
71215,55508
71207,55491
71200,55473
71196,55455
71193,55436
71192,55418
71192,55034
71193,55015
71196,54996
71200,54978
71207,54960
71215,54943
71224,54927
71236,54912
71248,54898
71262,54885
71277,54874
71294,54865
71311,54856
71328,54850
71347,54846
71365,54843
71384,54842
72102,54842
72121,54843
" /> 
<polyline style="fill-rule:evenodd;"
points="72121,46606
72140,46609
72158,46613
72176,46619
72193,46628
72209,46637
72224,46648
72238,46661
72251,46675
72262,46690
72272,46706
72280,46723
72286,46741
72291,46759
72293,46778
72294,46797
72294,47181
72293,47199
72291,47218
72286,47236
72280,47254
72272,47271
72262,47287
72251,47302
72238,47316
72224,47329
72209,47340
72193,47350
72176,47358
72158,47364
72140,47369
72121,47372
72102,47373
71384,47373
71365,47372
71347,47369
71328,47364
71311,47358
71294,47350
71277,47340
71262,47329
71248,47316
71236,47302
71224,47287
71215,47271
71207,47254
71200,47236
71196,47218
71193,47199
71192,47181
71192,46797
71193,46778
71196,46759
71200,46741
71207,46723
71215,46706
71224,46690
71236,46675
71248,46661
71262,46648
71277,46637
71294,46628
71311,46619
71328,46613
71347,46609
71365,46606
71384,46605
72102,46605
72121,46606
" /> 
<polyline style="fill-rule:evenodd;"
points="72121,48082
72140,48085
72158,48089
72176,48096
72193,48104
72209,48114
72224,48125
72238,48137
72251,48151
72262,48167
72272,48183
72280,48200
72286,48217
72291,48236
72293,48254
72294,48273
72294,48657
72293,48676
72291,48694
72286,48713
72280,48730
72272,48747
72262,48764
72251,48779
72238,48793
72224,48805
72209,48817
72193,48826
72176,48834
72158,48841
72140,48845
72121,48848
72102,48849
71384,48849
71365,48848
71347,48845
71328,48841
71311,48834
71294,48826
71277,48817
71262,48805
71248,48793
71236,48779
71224,48764
71215,48747
71207,48730
71200,48713
71196,48694
71193,48676
71192,48657
71192,48273
71193,48254
71196,48236
71200,48217
71207,48200
71215,48183
71224,48167
71236,48151
71248,48137
71262,48125
71277,48114
71294,48104
71311,48096
71328,48089
71347,48085
71365,48082
71384,48081
72102,48081
72121,48082
" /> 
<polyline style="fill-rule:evenodd;"
points="64921,53178
64940,53181
64958,53186
64976,53192
64993,53200
65009,53210
65024,53221
65038,53234
65051,53248
65062,53263
65072,53279
65080,53296
65086,53314
65091,53332
65093,53351
65094,53369
65094,53753
65093,53772
65091,53791
65086,53809
65080,53827
65072,53844
65062,53860
65051,53875
65038,53889
65024,53902
65009,53913
64993,53923
64976,53931
64958,53937
64940,53941
64921,53944
64902,53945
64184,53945
64165,53944
64147,53941
64128,53937
64111,53931
64094,53923
64077,53913
64062,53902
64048,53889
64036,53875
64024,53860
64015,53844
64007,53827
64000,53809
63996,53791
63993,53772
63992,53753
63992,53369
63993,53351
63996,53332
64000,53314
64007,53296
64015,53279
64024,53263
64036,53248
64048,53234
64062,53221
64077,53210
64094,53200
64111,53192
64128,53186
64147,53181
64165,53178
64184,53177
64902,53177
64921,53178
" /> 
<polyline style="fill-rule:evenodd;"
points="64921,54655
64940,54658
64958,54662
64976,54668
64993,54676
65009,54686
65024,54697
65038,54710
65051,54724
65062,54739
65072,54755
65080,54772
65086,54790
65091,54808
65093,54827
65094,54846
65094,55230
65093,55248
65091,55267
65086,55285
65080,55303
65072,55320
65062,55336
65051,55351
65038,55365
65024,55378
65009,55389
64993,55399
64976,55407
64958,55413
64940,55418
64921,55421
64902,55422
64184,55422
64165,55421
64147,55418
64128,55413
64111,55407
64094,55399
64077,55389
64062,55378
64048,55365
64036,55351
64024,55336
64015,55320
64007,55303
64000,55285
63996,55267
63993,55248
63992,55230
63992,54846
63993,54827
63996,54808
64000,54790
64007,54772
64015,54755
64024,54739
64036,54724
64048,54710
64062,54697
64077,54686
64094,54676
64111,54668
64128,54662
64147,54658
64165,54655
64184,54654
64902,54654
64921,54655
" /> 
<polyline style="fill-rule:evenodd;"
points="64921,46618
64940,46621
64958,46626
64976,46632
64993,46640
65009,46650
65024,46661
65038,46674
65051,46688
65062,46703
65072,46719
65080,46736
65086,46754
65091,46772
65093,46791
65094,46809
65094,47193
65093,47212
65091,47231
65086,47249
65080,47267
65072,47284
65062,47300
65051,47315
65038,47329
65024,47342
65009,47353
64993,47363
64976,47371
64958,47377
64940,47381
64921,47384
64902,47385
64184,47385
64165,47384
64147,47381
64128,47377
64111,47371
64094,47363
64077,47353
64062,47342
64048,47329
64036,47315
64024,47300
64015,47284
64007,47267
64000,47249
63996,47231
63993,47212
63992,47193
63992,46809
63993,46791
63996,46772
64000,46754
64007,46736
64015,46719
64024,46703
64036,46688
64048,46674
64062,46661
64077,46650
64094,46640
64111,46632
64128,46626
64147,46621
64165,46618
64184,46617
64902,46617
64921,46618
" /> 
<polyline style="fill-rule:evenodd;"
points="64921,48095
64940,48098
64958,48102
64976,48108
64993,48116
65009,48126
65024,48137
65038,48150
65051,48164
65062,48179
65072,48195
65080,48212
65086,48230
65091,48248
65093,48267
65094,48286
65094,48670
65093,48688
65091,48707
65086,48725
65080,48743
65072,48760
65062,48776
65051,48791
65038,48805
65024,48818
65009,48829
64993,48839
64976,48847
64958,48853
64940,48858
64921,48861
64902,48862
64184,48862
64165,48861
64147,48858
64128,48853
64111,48847
64094,48839
64077,48829
64062,48818
64048,48805
64036,48791
64024,48776
64015,48760
64007,48743
64000,48725
63996,48707
63993,48688
63992,48670
63992,48286
63993,48267
63996,48248
64000,48230
64007,48212
64015,48195
64024,48179
64036,48164
64048,48150
64062,48137
64077,48126
64094,48116
64111,48108
64128,48102
64147,48098
64165,48095
64184,48094
64902,48094
64921,48095
" /> 
<polyline style="fill-rule:evenodd;"
points="35481,53418
35500,53421
35518,53426
35536,53432
35553,53440
35569,53450
35584,53461
35598,53474
35611,53488
35622,53503
35632,53519
35640,53536
35646,53554
35651,53572
35653,53591
35654,53609
35654,53993
35653,54012
35651,54031
35646,54049
35640,54067
35632,54084
35622,54100
35611,54115
35598,54129
35584,54142
35569,54153
35553,54163
35536,54171
35518,54177
35500,54181
35481,54184
35462,54185
34744,54185
34725,54184
34707,54181
34688,54177
34671,54171
34654,54163
34637,54153
34622,54142
34608,54129
34596,54115
34584,54100
34575,54084
34567,54067
34560,54049
34556,54031
34553,54012
34552,53993
34552,53609
34553,53591
34556,53572
34560,53554
34567,53536
34575,53519
34584,53503
34596,53488
34608,53474
34622,53461
34637,53450
34654,53440
34671,53432
34688,53426
34707,53421
34725,53418
34744,53417
35462,53417
35481,53418
" /> 
<polyline style="fill-rule:evenodd;"
points="35481,54895
35500,54898
35518,54902
35536,54908
35553,54916
35569,54926
35584,54937
35598,54950
35611,54964
35622,54979
35632,54995
35640,55012
35646,55030
35651,55048
35653,55067
35654,55086
35654,55470
35653,55488
35651,55507
35646,55525
35640,55543
35632,55560
35622,55576
35611,55591
35598,55605
35584,55618
35569,55629
35553,55639
35536,55647
35518,55653
35500,55658
35481,55661
35462,55662
34744,55662
34725,55661
34707,55658
34688,55653
34671,55647
34654,55639
34637,55629
34622,55618
34608,55605
34596,55591
34584,55576
34575,55560
34567,55543
34560,55525
34556,55507
34553,55488
34552,55470
34552,55086
34553,55067
34556,55048
34560,55030
34567,55012
34575,54995
34584,54979
34596,54964
34608,54950
34622,54937
34637,54926
34654,54916
34671,54908
34688,54902
34707,54898
34725,54895
34744,54894
35462,54894
35481,54895
" /> 
<polyline style="fill-rule:evenodd;"
points="42681,46618
42700,46621
42718,46626
42736,46632
42753,46640
42769,46650
42784,46661
42798,46674
42811,46688
42822,46703
42832,46719
42840,46736
42846,46754
42851,46772
42853,46791
42854,46809
42854,47193
42853,47212
42851,47231
42846,47249
42840,47267
42832,47284
42822,47300
42811,47315
42798,47329
42784,47342
42769,47353
42753,47363
42736,47371
42718,47377
42700,47381
42681,47384
42662,47385
41944,47385
41925,47384
41907,47381
41888,47377
41871,47371
41854,47363
41837,47353
41822,47342
41808,47329
41796,47315
41784,47300
41775,47284
41767,47267
41760,47249
41756,47231
41753,47212
41752,47193
41752,46809
41753,46791
41756,46772
41760,46754
41767,46736
41775,46719
41784,46703
41796,46688
41808,46674
41822,46661
41837,46650
41854,46640
41871,46632
41888,46626
41907,46621
41925,46618
41944,46617
42662,46617
42681,46618
" /> 
<polyline style="fill-rule:evenodd;"
points="42681,48095
42700,48098
42718,48102
42736,48108
42753,48116
42769,48126
42784,48137
42798,48150
42811,48164
42822,48179
42832,48195
42840,48212
42846,48230
42851,48248
42853,48267
42854,48286
42854,48670
42853,48688
42851,48707
42846,48725
42840,48743
42832,48760
42822,48776
42811,48791
42798,48805
42784,48818
42769,48829
42753,48839
42736,48847
42718,48853
42700,48858
42681,48861
42662,48862
41944,48862
41925,48861
41907,48858
41888,48853
41871,48847
41854,48839
41837,48829
41822,48818
41808,48805
41796,48791
41784,48776
41775,48760
41767,48743
41760,48725
41756,48707
41753,48688
41752,48670
41752,48286
41753,48267
41756,48248
41760,48230
41767,48212
41775,48195
41784,48179
41796,48164
41808,48150
41822,48137
41837,48126
41854,48116
41871,48108
41888,48102
41907,48098
41925,48095
41944,48094
42662,48094
42681,48095
" /> 
<polyline style="fill-rule:evenodd;"
points="42681,53418
42700,53421
42718,53426
42736,53432
42753,53440
42769,53450
42784,53461
42798,53474
42811,53488
42822,53503
42832,53519
42840,53536
42846,53554
42851,53572
42853,53591
42854,53609
42854,53993
42853,54012
42851,54031
42846,54049
42840,54067
42832,54084
42822,54100
42811,54115
42798,54129
42784,54142
42769,54153
42753,54163
42736,54171
42718,54177
42700,54181
42681,54184
42662,54185
41944,54185
41925,54184
41907,54181
41888,54177
41871,54171
41854,54163
41837,54153
41822,54142
41808,54129
41796,54115
41784,54100
41775,54084
41767,54067
41760,54049
41756,54031
41753,54012
41752,53993
41752,53609
41753,53591
41756,53572
41760,53554
41767,53536
41775,53519
41784,53503
41796,53488
41808,53474
41822,53461
41837,53450
41854,53440
41871,53432
41888,53426
41907,53421
41925,53418
41944,53417
42662,53417
42681,53418
" /> 
<polyline style="fill-rule:evenodd;"
points="42681,54895
42700,54898
42718,54902
42736,54908
42753,54916
42769,54926
42784,54937
42798,54950
42811,54964
42822,54979
42832,54995
42840,55012
42846,55030
42851,55048
42853,55067
42854,55086
42854,55470
42853,55488
42851,55507
42846,55525
42840,55543
42832,55560
42822,55576
42811,55591
42798,55605
42784,55618
42769,55629
42753,55639
42736,55647
42718,55653
42700,55658
42681,55661
42662,55662
41944,55662
41925,55661
41907,55658
41888,55653
41871,55647
41854,55639
41837,55629
41822,55618
41808,55605
41796,55591
41784,55576
41775,55560
41767,55543
41760,55525
41756,55507
41753,55488
41752,55470
41752,55086
41753,55067
41756,55048
41760,55030
41767,55012
41775,54995
41784,54979
41796,54964
41808,54950
41822,54937
41837,54926
41854,54916
41871,54908
41888,54902
41907,54898
41925,54895
41944,54894
42662,54894
42681,54895
" /> 
<polyline style="fill-rule:evenodd;"
points="28281,53418
28300,53421
28318,53426
28336,53432
28353,53440
28369,53450
28384,53461
28398,53474
28411,53488
28422,53503
28432,53519
28440,53536
28446,53554
28451,53572
28453,53591
28454,53609
28454,53993
28453,54012
28451,54031
28446,54049
28440,54067
28432,54084
28422,54100
28411,54115
28398,54129
28384,54142
28369,54153
28353,54163
28336,54171
28318,54177
28300,54181
28281,54184
28262,54185
27544,54185
27525,54184
27507,54181
27488,54177
27471,54171
27454,54163
27437,54153
27422,54142
27408,54129
27396,54115
27384,54100
27375,54084
27367,54067
27360,54049
27356,54031
27353,54012
27352,53993
27352,53609
27353,53591
27356,53572
27360,53554
27367,53536
27375,53519
27384,53503
27396,53488
27408,53474
27422,53461
27437,53450
27454,53440
27471,53432
27488,53426
27507,53421
27525,53418
27544,53417
28262,53417
28281,53418
" /> 
<polyline style="fill-rule:evenodd;"
points="28281,54895
28300,54898
28318,54902
28336,54908
28353,54916
28369,54926
28384,54937
28398,54950
28411,54964
28422,54979
28432,54995
28440,55012
28446,55030
28451,55048
28453,55067
28454,55086
28454,55470
28453,55488
28451,55507
28446,55525
28440,55543
28432,55560
28422,55576
28411,55591
28398,55605
28384,55618
28369,55629
28353,55639
28336,55647
28318,55653
28300,55658
28281,55661
28262,55662
27544,55662
27525,55661
27507,55658
27488,55653
27471,55647
27454,55639
27437,55629
27422,55618
27408,55605
27396,55591
27384,55576
27375,55560
27367,55543
27360,55525
27356,55507
27353,55488
27352,55470
27352,55086
27353,55067
27356,55048
27360,55030
27367,55012
27375,54995
27384,54979
27396,54964
27408,54950
27422,54937
27437,54926
27454,54916
27471,54908
27488,54902
27507,54898
27525,54895
27544,54894
28262,54894
28281,54895
" /> 
<polyline style="fill-rule:evenodd;"
points="50281,53418
50300,53421
50318,53426
50336,53432
50353,53440
50369,53450
50384,53461
50398,53474
50411,53488
50422,53503
50432,53519
50440,53536
50446,53554
50451,53572
50453,53591
50454,53609
50454,53993
50453,54012
50451,54031
50446,54049
50440,54067
50432,54084
50422,54100
50411,54115
50398,54129
50384,54142
50369,54153
50353,54163
50336,54171
50318,54177
50300,54181
50281,54184
50262,54185
49544,54185
49525,54184
49507,54181
49488,54177
49471,54171
49454,54163
49437,54153
49422,54142
49408,54129
49396,54115
49384,54100
49375,54084
49367,54067
49360,54049
49356,54031
49353,54012
49352,53993
49352,53609
49353,53591
49356,53572
49360,53554
49367,53536
49375,53519
49384,53503
49396,53488
49408,53474
49422,53461
49437,53450
49454,53440
49471,53432
49488,53426
49507,53421
49525,53418
49544,53417
50262,53417
50281,53418
" /> 
<polyline style="fill-rule:evenodd;"
points="50281,54895
50300,54898
50318,54902
50336,54908
50353,54916
50369,54926
50384,54937
50398,54950
50411,54964
50422,54979
50432,54995
50440,55012
50446,55030
50451,55048
50453,55067
50454,55086
50454,55470
50453,55488
50451,55507
50446,55525
50440,55543
50432,55560
50422,55576
50411,55591
50398,55605
50384,55618
50369,55629
50353,55639
50336,55647
50318,55653
50300,55658
50281,55661
50262,55662
49544,55662
49525,55661
49507,55658
49488,55653
49471,55647
49454,55639
49437,55629
49422,55618
49408,55605
49396,55591
49384,55576
49375,55560
49367,55543
49360,55525
49356,55507
49353,55488
49352,55470
49352,55086
49353,55067
49356,55048
49360,55030
49367,55012
49375,54995
49384,54979
49396,54964
49408,54950
49422,54937
49437,54926
49454,54916
49471,54908
49488,54902
49507,54898
49525,54895
49544,54894
50262,54894
50281,54895
" /> 
<polyline style="fill-rule:evenodd;"
points="50281,46618
50300,46621
50318,46626
50336,46632
50353,46640
50369,46650
50384,46661
50398,46674
50411,46688
50422,46703
50432,46719
50440,46736
50446,46754
50451,46772
50453,46791
50454,46809
50454,47193
50453,47212
50451,47231
50446,47249
50440,47267
50432,47284
50422,47300
50411,47315
50398,47329
50384,47342
50369,47353
50353,47363
50336,47371
50318,47377
50300,47381
50281,47384
50262,47385
49544,47385
49525,47384
49507,47381
49488,47377
49471,47371
49454,47363
49437,47353
49422,47342
49408,47329
49396,47315
49384,47300
49375,47284
49367,47267
49360,47249
49356,47231
49353,47212
49352,47193
49352,46809
49353,46791
49356,46772
49360,46754
49367,46736
49375,46719
49384,46703
49396,46688
49408,46674
49422,46661
49437,46650
49454,46640
49471,46632
49488,46626
49507,46621
49525,46618
49544,46617
50262,46617
50281,46618
" /> 
<polyline style="fill-rule:evenodd;"
points="50281,48095
50300,48098
50318,48102
50336,48108
50353,48116
50369,48126
50384,48137
50398,48150
50411,48164
50422,48179
50432,48195
50440,48212
50446,48230
50451,48248
50453,48267
50454,48286
50454,48670
50453,48688
50451,48707
50446,48725
50440,48743
50432,48760
50422,48776
50411,48791
50398,48805
50384,48818
50369,48829
50353,48839
50336,48847
50318,48853
50300,48858
50281,48861
50262,48862
49544,48862
49525,48861
49507,48858
49488,48853
49471,48847
49454,48839
49437,48829
49422,48818
49408,48805
49396,48791
49384,48776
49375,48760
49367,48743
49360,48725
49356,48707
49353,48688
49352,48670
49352,48286
49353,48267
49356,48248
49360,48230
49367,48212
49375,48195
49384,48179
49396,48164
49408,48150
49422,48137
49437,48126
49454,48116
49471,48108
49488,48102
49507,48098
49525,48095
49544,48094
50262,48094
50281,48095
" /> 
<polyline style="fill-rule:evenodd;"
points="61616,38789
61634,38792
61653,38797
61670,38803
61687,38811
61704,38821
61719,38832
61733,38845
61745,38858
61757,38874
61766,38890
61774,38907
61781,38925
61785,38943
61788,38961
61789,38980
61789,39699
61788,39718
61785,39736
61781,39754
61774,39772
61766,39789
61757,39805
61745,39821
61733,39834
61719,39847
61704,39858
61687,39868
61670,39876
61653,39882
61634,39887
61616,39890
61597,39891
61213,39891
61194,39890
61176,39887
61157,39882
61140,39876
61123,39868
61106,39858
61091,39847
61077,39834
61065,39821
61054,39805
61044,39789
61036,39772
61029,39754
61025,39736
61022,39718
61021,39699
61021,38980
61022,38961
61025,38943
61029,38925
61036,38907
61044,38890
61054,38874
61065,38858
61077,38845
61091,38832
61106,38821
61123,38811
61140,38803
61157,38797
61176,38792
61194,38789
61213,38788
61597,38788
61616,38789
" /> 
<polyline style="fill-rule:evenodd;"
points="63092,38789
63111,38792
63129,38797
63147,38803
63164,38811
63180,38821
63195,38832
63209,38845
63222,38858
63233,38874
63243,38890
63251,38907
63257,38925
63262,38943
63264,38961
63265,38980
63265,39699
63264,39718
63262,39736
63257,39754
63251,39772
63243,39789
63233,39805
63222,39821
63209,39834
63195,39847
63180,39858
63164,39868
63147,39876
63129,39882
63111,39887
63092,39890
63073,39891
62690,39891
62671,39890
62652,39887
62634,39882
62616,39876
62599,39868
62583,39858
62568,39847
62554,39834
62541,39821
62530,39805
62520,39789
62512,39772
62506,39754
62501,39736
62498,39718
62498,39699
62498,38980
62498,38961
62501,38943
62506,38925
62512,38907
62520,38890
62530,38874
62541,38858
62554,38845
62568,38832
62583,38821
62599,38811
62616,38803
62634,38797
62652,38792
62671,38789
62690,38788
63073,38788
63092,38789
" /> 
<polyline style="fill-rule:evenodd;"
points="37988,28311
38007,28313
38026,28318
38044,28325
38061,28333
38078,28343
38093,28354
38108,28367
38121,28382
38132,28397
38142,28414
38150,28431
38157,28449
38162,28468
38164,28487
38165,28506
38165,29373
38164,29392
38162,29411
38157,29430
38150,29448
38142,29465
38132,29482
38121,29497
38108,29512
38093,29525
38078,29536
38061,29546
38044,29554
38026,29561
38007,29566
37988,29568
37968,29569
36000,29569
35981,29568
35962,29566
35943,29561
35925,29554
35907,29546
35891,29536
35875,29525
35861,29512
35848,29497
35836,29482
35826,29465
35818,29448
35812,29430
35807,29411
35804,29392
35803,29373
35803,28506
35804,28487
35807,28468
35812,28449
35818,28431
35826,28414
35836,28397
35848,28382
35861,28367
35875,28354
35891,28343
35907,28333
35925,28325
35943,28318
35962,28313
35981,28311
36000,28310
37968,28310
37988,28311
" /> 
<polyline style="fill-rule:evenodd;"
points="41452,28311
41471,28313
41490,28318
41508,28325
41526,28333
41542,28343
41558,28354
41572,28367
41585,28382
41597,28397
41607,28414
41615,28431
41621,28449
41626,28468
41629,28487
41630,28506
41630,29373
41629,29392
41626,29411
41621,29430
41615,29448
41607,29465
41597,29482
41585,29497
41572,29512
41558,29525
41542,29536
41526,29546
41508,29554
41490,29561
41471,29566
41452,29568
41433,29569
39465,29569
39445,29568
39426,29566
39407,29561
39389,29554
39372,29546
39355,29536
39340,29525
39325,29512
39312,29497
39301,29482
39291,29465
39283,29448
39276,29430
39271,29411
39269,29392
39268,29373
39268,28506
39269,28487
39271,28468
39276,28449
39283,28431
39291,28414
39301,28397
39312,28382
39325,28367
39340,28354
39355,28343
39372,28333
39389,28325
39407,28318
39426,28313
39445,28311
39465,28310
41433,28310
41452,28311
" /> 
<polyline style="fill-rule:evenodd;"
points="37988,23632
38007,23635
38026,23639
38044,23646
38061,23654
38078,23664
38093,23676
38108,23688
38121,23703
38132,23718
38142,23735
38150,23752
38157,23771
38162,23789
38164,23808
38165,23828
38165,24694
38164,24713
38162,24732
38157,24751
38150,24769
38142,24787
38132,24803
38121,24819
38108,24833
38093,24846
38078,24858
38061,24867
38044,24876
38026,24882
38007,24887
37988,24890
37968,24891
36000,24891
35981,24890
35962,24887
35943,24882
35925,24876
35907,24867
35891,24858
35875,24846
35861,24833
35848,24819
35836,24803
35826,24787
35818,24769
35812,24751
35807,24732
35804,24713
35803,24694
35803,23828
35804,23808
35807,23789
35812,23771
35818,23752
35826,23735
35836,23718
35848,23703
35861,23688
35875,23676
35891,23664
35907,23654
35925,23646
35943,23639
35962,23635
35981,23632
36000,23631
37968,23631
37988,23632
" /> 
<polyline style="fill-rule:evenodd;"
points="41452,23632
41471,23635
41490,23639
41508,23646
41526,23654
41542,23664
41558,23676
41572,23688
41585,23703
41597,23718
41607,23735
41615,23752
41621,23771
41626,23789
41629,23808
41630,23828
41630,24694
41629,24713
41626,24732
41621,24751
41615,24769
41607,24787
41597,24803
41585,24819
41572,24833
41558,24846
41542,24858
41526,24867
41508,24876
41490,24882
41471,24887
41452,24890
41433,24891
39465,24891
39445,24890
39426,24887
39407,24882
39389,24876
39372,24867
39355,24858
39340,24846
39325,24833
39312,24819
39301,24803
39291,24787
39283,24769
39276,24751
39271,24732
39269,24713
39268,24694
39268,23828
39269,23808
39271,23789
39276,23771
39283,23752
39291,23735
39301,23718
39312,23703
39325,23688
39340,23676
39355,23664
39372,23654
39389,23646
39407,23639
39426,23635
39445,23632
39465,23631
41433,23631
41452,23632
" /> 
<polyline style="fill-rule:evenodd;"
points="67202,38781
67221,38783
67239,38788
67257,38794
67274,38802
67290,38812
67305,38823
67319,38836
67591,39107
67603,39121
67615,39137
67624,39153
67632,39170
67639,39187
67643,39206
67646,39224
67647,39243
67646,39262
67643,39281
67639,39299
67632,39317
67624,39334
67615,39350
67603,39365
67591,39379
67083,39887
67069,39900
67054,39911
67037,39920
67020,39929
67003,39935
66984,39939
66966,39942
66947,39943
66928,39942
66909,39939
66891,39935
66873,39929
66856,39920
66840,39911
66825,39900
66811,39887
66540,39616
66527,39602
66516,39586
66506,39570
66498,39553
66492,39536
66487,39517
66484,39499
66484,39480
66484,39461
66487,39442
66492,39424
66498,39406
66506,39389
66516,39373
66527,39358
66540,39344
67048,38836
67062,38823
67077,38812
67093,38802
67110,38794
67128,38788
67146,38783
67165,38781
67184,38780
67202,38781
" /> 
<polyline style="fill-rule:evenodd;"
points="66158,37737
66177,37740
66195,37744
66213,37750
66230,37759
66246,37768
66261,37779
66275,37792
66547,38063
66559,38077
66571,38093
66580,38109
66588,38126
66595,38143
66599,38162
66602,38180
66603,38199
66602,38218
66599,38237
66595,38255
66588,38273
66580,38290
66571,38306
66559,38321
66547,38335
66039,38843
66025,38856
66010,38867
65993,38877
65976,38885
65959,38891
65940,38896
65922,38898
65903,38899
65884,38898
65866,38896
65847,38891
65829,38885
65812,38877
65796,38867
65781,38856
65767,38843
65496,38572
65483,38558
65472,38542
65462,38526
65454,38509
65448,38492
65443,38473
65441,38455
65440,38436
65441,38417
65443,38398
65448,38380
65454,38362
65462,38345
65472,38329
65483,38314
65496,38300
66004,37792
66018,37779
66033,37768
66049,37759
66066,37750
66084,37744
66102,37740
66121,37737
66140,37736
66158,37737
" /> 
<polyline style="fill-rule:evenodd;"
points="51681,50118
51700,50121
51718,50126
51736,50132
51753,50140
51769,50150
51784,50161
51798,50174
51811,50188
51822,50203
51832,50219
51840,50236
51846,50254
51851,50272
51853,50291
51854,50309
51854,50693
51853,50712
51851,50731
51846,50749
51840,50767
51832,50784
51822,50800
51811,50815
51798,50829
51784,50842
51769,50853
51753,50863
51736,50871
51718,50877
51700,50881
51681,50884
51662,50885
50944,50885
50925,50884
50907,50881
50888,50877
50871,50871
50854,50863
50837,50853
50822,50842
50808,50829
50796,50815
50784,50800
50775,50784
50767,50767
50760,50749
50756,50731
50753,50712
50752,50693
50752,50309
50753,50291
50756,50272
50760,50254
50767,50236
50775,50219
50784,50203
50796,50188
50808,50174
50822,50161
50837,50150
50854,50140
50871,50132
50888,50126
50907,50121
50925,50118
50944,50117
51662,50117
51681,50118
" /> 
<polyline style="fill-rule:evenodd;"
points="51681,51595
51700,51598
51718,51602
51736,51608
51753,51616
51769,51626
51784,51637
51798,51650
51811,51664
51822,51679
51832,51695
51840,51712
51846,51730
51851,51748
51853,51767
51854,51786
51854,52170
51853,52188
51851,52207
51846,52225
51840,52243
51832,52260
51822,52276
51811,52291
51798,52305
51784,52318
51769,52329
51753,52339
51736,52347
51718,52353
51700,52358
51681,52361
51662,52362
50944,52362
50925,52361
50907,52358
50888,52353
50871,52347
50854,52339
50837,52329
50822,52318
50808,52305
50796,52291
50784,52276
50775,52260
50767,52243
50760,52225
50756,52207
50753,52188
50752,52170
50752,51786
50753,51767
50756,51748
50760,51730
50767,51712
50775,51695
50784,51679
50796,51664
50808,51650
50822,51637
50837,51626
50854,51616
50871,51608
50888,51602
50907,51598
50925,51595
50944,51594
51662,51594
51681,51595
" /> 
<polyline style="fill-rule:evenodd;"
points="80821,35658
80840,35661
80858,35666
80876,35672
80893,35680
80909,35690
80924,35701
80938,35714
80951,35728
80962,35743
80972,35759
80980,35776
80986,35794
80991,35812
80993,35831
80994,35849
80994,36233
80993,36252
80991,36271
80986,36289
80980,36307
80972,36324
80962,36340
80951,36355
80938,36369
80924,36382
80909,36393
80893,36403
80876,36411
80858,36417
80840,36421
80821,36424
80802,36425
80084,36425
80065,36424
80047,36421
80028,36417
80011,36411
79994,36403
79977,36393
79962,36382
79948,36369
79936,36355
79924,36340
79915,36324
79907,36307
79900,36289
79896,36271
79893,36252
79892,36233
79892,35849
79893,35831
79896,35812
79900,35794
79907,35776
79915,35759
79924,35743
79936,35728
79948,35714
79962,35701
79977,35690
79994,35680
80011,35672
80028,35666
80047,35661
80065,35658
80084,35657
80802,35657
80821,35658
" /> 
<polyline style="fill-rule:evenodd;"
points="80821,37135
80840,37138
80858,37142
80876,37148
80893,37156
80909,37166
80924,37177
80938,37190
80951,37204
80962,37219
80972,37235
80980,37252
80986,37270
80991,37288
80993,37307
80994,37326
80994,37710
80993,37728
80991,37747
80986,37765
80980,37783
80972,37800
80962,37816
80951,37831
80938,37845
80924,37858
80909,37869
80893,37879
80876,37887
80858,37893
80840,37898
80821,37901
80802,37902
80084,37902
80065,37901
80047,37898
80028,37893
80011,37887
79994,37879
79977,37869
79962,37858
79948,37845
79936,37831
79924,37816
79915,37800
79907,37783
79900,37765
79896,37747
79893,37728
79892,37710
79892,37326
79893,37307
79896,37288
79900,37270
79907,37252
79915,37235
79924,37219
79936,37204
79948,37190
79962,37177
79977,37166
79994,37156
80011,37148
80028,37142
80047,37138
80065,37135
80084,37134
80802,37134
80821,37135
" /> 
<polyline style="fill-rule:evenodd;"
points="78821,35671
78840,35674
78858,35678
78876,35685
78893,35693
78909,35702
78924,35714
78938,35726
78951,35740
78962,35755
78972,35772
78980,35789
78986,35806
78991,35825
78993,35843
78994,35862
78994,36246
78993,36265
78991,36283
78986,36302
78980,36319
78972,36336
78962,36352
78951,36368
78938,36382
78924,36394
78909,36405
78893,36415
78876,36423
78858,36430
78840,36434
78821,36437
78802,36438
78084,36438
78065,36437
78047,36434
78028,36430
78011,36423
77994,36415
77977,36405
77962,36394
77948,36382
77936,36368
77924,36352
77915,36336
77907,36319
77900,36302
77896,36283
77893,36265
77892,36246
77892,35862
77893,35843
77896,35825
77900,35806
77907,35789
77915,35772
77924,35755
77936,35740
77948,35726
77962,35714
77977,35702
77994,35693
78011,35685
78028,35678
78047,35674
78065,35671
78084,35670
78802,35670
78821,35671
" /> 
<polyline style="fill-rule:evenodd;"
points="78821,37147
78840,37150
78858,37155
78876,37161
78893,37169
78909,37179
78924,37190
78938,37203
78951,37217
78962,37232
78972,37248
78980,37265
78986,37283
78991,37301
78993,37320
78994,37338
78994,37722
78993,37741
78991,37760
78986,37778
78980,37796
78972,37813
78962,37829
78951,37844
78938,37858
78924,37871
78909,37882
78893,37891
78876,37900
78858,37906
78840,37910
78821,37913
78802,37914
78084,37914
78065,37913
78047,37910
78028,37906
78011,37900
77994,37891
77977,37882
77962,37871
77948,37858
77936,37844
77924,37829
77915,37813
77907,37796
77900,37778
77896,37760
77893,37741
77892,37722
77892,37338
77893,37320
77896,37301
77900,37283
77907,37265
77915,37248
77924,37232
77936,37217
77948,37203
77962,37190
77977,37179
77994,37169
78011,37161
78028,37155
78047,37150
78065,37147
78084,37146
78802,37146
78821,37147
" /> 
<polyline style="fill-rule:evenodd;"
points="82821,35658
82840,35661
82858,35666
82876,35672
82893,35680
82909,35690
82924,35701
82938,35714
82951,35728
82962,35743
82972,35759
82980,35776
82986,35794
82991,35812
82993,35831
82994,35849
82994,36233
82993,36252
82991,36271
82986,36289
82980,36307
82972,36324
82962,36340
82951,36355
82938,36369
82924,36382
82909,36393
82893,36403
82876,36411
82858,36417
82840,36421
82821,36424
82802,36425
82084,36425
82065,36424
82047,36421
82028,36417
82011,36411
81994,36403
81977,36393
81962,36382
81948,36369
81936,36355
81924,36340
81915,36324
81907,36307
81900,36289
81896,36271
81893,36252
81892,36233
81892,35849
81893,35831
81896,35812
81900,35794
81907,35776
81915,35759
81924,35743
81936,35728
81948,35714
81962,35701
81977,35690
81994,35680
82011,35672
82028,35666
82047,35661
82065,35658
82084,35657
82802,35657
82821,35658
" /> 
<polyline style="fill-rule:evenodd;"
points="82821,37135
82840,37138
82858,37142
82876,37148
82893,37156
82909,37166
82924,37177
82938,37190
82951,37204
82962,37219
82972,37235
82980,37252
82986,37270
82991,37288
82993,37307
82994,37326
82994,37710
82993,37728
82991,37747
82986,37765
82980,37783
82972,37800
82962,37816
82951,37831
82938,37845
82924,37858
82909,37869
82893,37879
82876,37887
82858,37893
82840,37898
82821,37901
82802,37902
82084,37902
82065,37901
82047,37898
82028,37893
82011,37887
81994,37879
81977,37869
81962,37858
81948,37845
81936,37831
81924,37816
81915,37800
81907,37783
81900,37765
81896,37747
81893,37728
81892,37710
81892,37326
81893,37307
81896,37288
81900,37270
81907,37252
81915,37235
81924,37219
81936,37204
81948,37190
81962,37177
81977,37166
81994,37156
82011,37148
82028,37142
82047,37138
82065,37135
82084,37134
82802,37134
82821,37135
" /> 
<polyline style="fill-rule:evenodd;"
points="70796,28335
70814,28338
70833,28343
70850,28349
70867,28357
70884,28367
70899,28378
70913,28390
71421,28899
71433,28912
71445,28928
71454,28944
71462,28961
71469,28979
71473,28997
71476,29015
71477,29034
71476,29053
71473,29072
71469,29090
71462,29108
71454,29125
71445,29141
71433,29156
71421,29170
71149,29441
71135,29454
71120,29465
71104,29475
71087,29483
71069,29489
71051,29494
71032,29497
71014,29498
70995,29497
70976,29494
70958,29489
70940,29483
70923,29475
70907,29465
70892,29454
70878,29441
70370,28933
70357,28919
70346,28904
70336,28888
70328,28871
70322,28853
70317,28835
70315,28816
70314,28798
70315,28779
70317,28760
70322,28742
70328,28724
70336,28707
70346,28691
70357,28676
70370,28662
70641,28390
70655,28378
70670,28367
70686,28357
70703,28349
70721,28343
70739,28338
70758,28335
70777,28334
70796,28335
" /> 
<polyline style="fill-rule:evenodd;"
points="71840,27291
71858,27294
71877,27299
71894,27305
71911,27313
71928,27323
71943,27334
71957,27347
72465,27855
72477,27869
72489,27884
72498,27900
72506,27917
72513,27935
72517,27953
72520,27971
72521,27990
72520,28009
72517,28028
72513,28046
72506,28064
72498,28081
72489,28097
72477,28112
72465,28126
72193,28397
72179,28410
72164,28421
72148,28431
72131,28439
72113,28445
72095,28450
72076,28453
72058,28454
72039,28453
72020,28450
72002,28445
71984,28439
71967,28431
71951,28421
71936,28410
71922,28397
71414,27889
71401,27875
71390,27860
71380,27844
71372,27827
71366,27809
71361,27791
71358,27772
71358,27754
71358,27735
71361,27716
71366,27698
71372,27680
71380,27663
71390,27647
71401,27632
71414,27618
71685,27347
71699,27334
71714,27323
71730,27313
71747,27305
71765,27299
71783,27294
71802,27291
71821,27290
71840,27291
" /> 
<polyline style="fill-rule:evenodd;"
points="71936,29555
71954,29558
71973,29563
71990,29569
72007,29577
72024,29587
72039,29598
72053,29610
72561,30119
72573,30132
72585,30148
72594,30164
72602,30181
72609,30199
72613,30217
72616,30235
72617,30254
72616,30273
72613,30292
72609,30310
72602,30328
72594,30345
72585,30361
72573,30376
72561,30390
72289,30661
72275,30674
72260,30685
72244,30695
72227,30703
72209,30709
72191,30714
72172,30717
72154,30718
72135,30717
72116,30714
72098,30709
72080,30703
72063,30695
72047,30685
72032,30674
72018,30661
71510,30153
71497,30139
71486,30124
71476,30108
71468,30091
71462,30073
71457,30055
71455,30036
71454,30018
71455,29999
71457,29980
71462,29962
71468,29944
71476,29927
71486,29911
71497,29896
71510,29882
71781,29610
71795,29598
71810,29587
71826,29577
71843,29569
71861,29563
71879,29558
71898,29555
71917,29554
71936,29555
" /> 
<polyline style="fill-rule:evenodd;"
points="72980,28511
72998,28514
73017,28519
73034,28525
73051,28533
73068,28543
73083,28554
73097,28567
73605,29075
73617,29089
73629,29104
73638,29120
73646,29137
73653,29155
73657,29173
73660,29191
73661,29210
73660,29229
73657,29248
73653,29266
73646,29284
73638,29301
73629,29317
73617,29332
73605,29346
73333,29617
73319,29630
73304,29641
73288,29651
73271,29659
73253,29665
73235,29670
73216,29673
73198,29674
73179,29673
73160,29670
73142,29665
73124,29659
73107,29651
73091,29641
73076,29630
73062,29617
72554,29109
72541,29095
72530,29080
72520,29064
72512,29047
72506,29029
72501,29011
72498,28992
72498,28974
72498,28955
72501,28936
72506,28918
72512,28900
72520,28883
72530,28867
72541,28852
72554,28838
72825,28567
72839,28554
72854,28543
72870,28533
72887,28525
72905,28519
72923,28514
72942,28511
72961,28510
72980,28511
" /> 
<polyline style="fill-rule:evenodd;"
points="75824,28288
75156,28956
74153,27954
74822,27286
75824,28288
" /> 
<polyline style="fill-rule:evenodd;"
points="73597,26061
72929,26729
71926,25727
72595,25059
73597,26061
" /> 
<polyline style="fill-rule:evenodd;"
points="74933,24725
74265,25393
73263,24391
73931,23723
74933,24725
" /> 
<polyline style="fill-rule:evenodd;"
points="77160,26952
76492,27620
75490,26618
76158,25950
77160,26952
" /> 
<polyline style="fill-rule:evenodd;"
points="22251,30244
23196,30244
23196,30953
22251,30953
22251,30244
" /> 
<polyline style="fill-rule:evenodd;"
points="22251,27646
23196,27646
23196,28355
22251,28355
22251,27646
" /> 
<polyline style="fill-rule:evenodd;"
points="20391,30244
21336,30244
21336,30953
20391,30953
20391,30244
" /> 
<polyline style="fill-rule:evenodd;"
points="20391,27646
21336,27646
21336,28355
20391,28355
20391,27646
" /> 
<polyline style="fill-rule:evenodd;"
points="55019,47906
54468,47906
54468,46391
55019,46391
55019,47906
" /> 
<polyline style="fill-rule:evenodd;"
points="56019,47906
55468,47906
55468,46391
56019,46391
56019,47906
" /> 
<polyline style="fill-rule:evenodd;"
points="57019,47906
56468,47906
56468,46391
57019,46391
57019,47906
" /> 
<polyline style="fill-rule:evenodd;"
points="58019,47906
57468,47906
57468,46391
58019,46391
58019,47906
" /> 
<polyline style="fill-rule:evenodd;"
points="59019,47906
58468,47906
58468,46391
59019,46391
59019,47906
" /> 
<polyline style="fill-rule:evenodd;"
points="60019,47906
59468,47906
59468,46391
60019,46391
60019,47906
" /> 
<polyline style="fill-rule:evenodd;"
points="61019,47906
60468,47906
60468,46391
61019,46391
61019,47906
" /> 
<polyline style="fill-rule:evenodd;"
points="62692,48615
61176,48615
61176,48064
62692,48064
62692,48615
" /> 
<polyline style="fill-rule:evenodd;"
points="62692,49615
61176,49615
61176,49064
62692,49064
62692,49615
" /> 
<polyline style="fill-rule:evenodd;"
points="62692,50615
61176,50615
61176,50064
62692,50064
62692,50615
" /> 
<polyline style="fill-rule:evenodd;"
points="62692,51615
61176,51615
61176,51064
62692,51064
62692,51615
" /> 
<polyline style="fill-rule:evenodd;"
points="62692,52615
61176,52615
61176,52064
62692,52064
62692,52615
" /> 
<polyline style="fill-rule:evenodd;"
points="62692,53615
61176,53615
61176,53064
62692,53064
62692,53615
" /> 
<polyline style="fill-rule:evenodd;"
points="62692,54615
61176,54615
61176,54064
62692,54064
62692,54615
" /> 
<polyline style="fill-rule:evenodd;"
points="61019,56288
60468,56288
60468,54773
61019,54773
61019,56288
" /> 
<polyline style="fill-rule:evenodd;"
points="60019,56288
59468,56288
59468,54773
60019,54773
60019,56288
" /> 
<polyline style="fill-rule:evenodd;"
points="59019,56288
58468,56288
58468,54773
59019,54773
59019,56288
" /> 
<polyline style="fill-rule:evenodd;"
points="58019,56288
57468,56288
57468,54773
58019,54773
58019,56288
" /> 
<polyline style="fill-rule:evenodd;"
points="57019,56288
56468,56288
56468,54773
57019,54773
57019,56288
" /> 
<polyline style="fill-rule:evenodd;"
points="56019,56288
55468,56288
55468,54773
56019,54773
56019,56288
" /> 
<polyline style="fill-rule:evenodd;"
points="55019,56288
54468,56288
54468,54773
55019,54773
55019,56288
" /> 
<polyline style="fill-rule:evenodd;"
points="54310,48615
52794,48615
52794,48064
54310,48064
54310,48615
" /> 
<polyline style="fill-rule:evenodd;"
points="54310,49615
52794,49615
52794,49064
54310,49064
54310,49615
" /> 
<polyline style="fill-rule:evenodd;"
points="54310,50615
52794,50615
52794,50064
54310,50064
54310,50615
" /> 
<polyline style="fill-rule:evenodd;"
points="54310,54615
52794,54615
52794,54064
54310,54064
54310,54615
" /> 
<polyline style="fill-rule:evenodd;"
points="54310,53615
52794,53615
52794,53064
54310,53064
54310,53615
" /> 
<polyline style="fill-rule:evenodd;"
points="54310,52615
52794,52615
52794,52064
54310,52064
54310,52615
" /> 
<polyline style="fill-rule:evenodd;"
points="54310,51615
52794,51615
52794,51064
54310,51064
54310,51615
" /> 
<polyline style="fill-rule:evenodd;"
points="72941,35394
73275,35060
73944,35728
73610,36062
72941,35394
" /> 
<polyline style="fill-rule:evenodd;"
points="72496,35840
72830,35506
73498,36174
73164,36508
72496,35840
" /> 
<polyline style="fill-rule:evenodd;"
points="72051,36285
72385,35951
73053,36619
72719,36953
72051,36285
" /> 
<polyline style="fill-rule:evenodd;"
points="71605,36731
71939,36396
72607,37065
72273,37399
71605,36731
" /> 
<polyline style="fill-rule:evenodd;"
points="71160,37176
71494,36842
72162,37510
71828,37844
71160,37176
" /> 
<polyline style="fill-rule:evenodd;"
points="70714,37621
71048,37287
71717,37955
71382,38289
70714,37621
" /> 
<polyline style="fill-rule:evenodd;"
points="70269,38067
70603,37733
71271,38401
70937,38735
70269,38067
" /> 
<polyline style="fill-rule:evenodd;"
points="69823,38512
70158,38178
70826,38846
70492,39180
69823,38512
" /> 
<polyline style="fill-rule:evenodd;"
points="68877,38178
69211,38512
68543,39180
68209,38846
68877,38178
" /> 
<polyline style="fill-rule:evenodd;"
points="68432,37733
68766,38067
68097,38735
67763,38401
68432,37733
" /> 
<polyline style="fill-rule:evenodd;"
points="67986,37287
68320,37621
67652,38289
67318,37955
67986,37287
" /> 
<polyline style="fill-rule:evenodd;"
points="67541,36842
67875,37176
67207,37844
66873,37510
67541,36842
" /> 
<polyline style="fill-rule:evenodd;"
points="67095,36396
67429,36731
66761,37399
66427,37065
67095,36396
" /> 
<polyline style="fill-rule:evenodd;"
points="66650,35951
66984,36285
66316,36953
65982,36619
66650,35951
" /> 
<polyline style="fill-rule:evenodd;"
points="66204,35506
66538,35840
65870,36508
65536,36174
66204,35506
" /> 
<polyline style="fill-rule:evenodd;"
points="65759,35060
66093,35394
65425,36062
65091,35728
65759,35060
" /> 
<polyline style="fill-rule:evenodd;"
points="65091,33780
65425,33446
66093,34114
65759,34448
65091,33780
" /> 
<polyline style="fill-rule:evenodd;"
points="65536,33334
65870,33000
66538,33668
66204,34002
65536,33334
" /> 
<polyline style="fill-rule:evenodd;"
points="65982,32889
66316,32555
66984,33223
66650,33557
65982,32889
" /> 
<polyline style="fill-rule:evenodd;"
points="66427,32443
66761,32109
67429,32777
67095,33111
66427,32443
" /> 
<polyline style="fill-rule:evenodd;"
points="66873,31998
67207,31664
67875,32332
67541,32666
66873,31998
" /> 
<polyline style="fill-rule:evenodd;"
points="67318,31552
67652,31218
68320,31887
67986,32221
67318,31552
" /> 
<polyline style="fill-rule:evenodd;"
points="67763,31107
68097,30773
68766,31441
68432,31775
67763,31107
" /> 
<polyline style="fill-rule:evenodd;"
points="68209,30662
68543,30328
69211,30996
68877,31330
68209,30662
" /> 
<polyline style="fill-rule:evenodd;"
points="70492,30328
70826,30662
70158,31330
69823,30996
70492,30328
" /> 
<polyline style="fill-rule:evenodd;"
points="70937,30773
71271,31107
70603,31775
70269,31441
70937,30773
" /> 
<polyline style="fill-rule:evenodd;"
points="71382,31218
71717,31552
71048,32221
70714,31887
71382,31218
" /> 
<polyline style="fill-rule:evenodd;"
points="71828,31664
72162,31998
71494,32666
71160,32332
71828,31664
" /> 
<polyline style="fill-rule:evenodd;"
points="72273,32109
72607,32443
71939,33111
71605,32777
72273,32109
" /> 
<polyline style="fill-rule:evenodd;"
points="72719,32555
73053,32889
72385,33557
72051,33223
72719,32555
" /> 
<polyline style="fill-rule:evenodd;"
points="73164,33000
73498,33334
72830,34002
72496,33668
73164,33000
" /> 
<polyline style="fill-rule:evenodd;"
points="73610,33446
73944,33780
73275,34448
72941,34114
73610,33446
" /> 
<polyline style="fill-rule:evenodd;"
points="49028,29973
49658,29973
49658,30681
49028,30681
49028,29973
" /> 
<polyline style="fill-rule:evenodd;"
points="48280,28398
48910,28398
48910,29106
48280,29106
48280,28398
" /> 
<polyline style="fill-rule:evenodd;"
points="49776,28398
50406,28398
50406,29106
49776,29106
49776,28398
" /> 
<polyline style="fill-rule:evenodd;"
points="19461,29603
19480,29606
19498,29610
19516,29616
19533,29625
19549,29634
19564,29645
19578,29658
19591,29672
19602,29687
19612,29703
19620,29720
19626,29738
19631,29756
19633,29775
19634,29794
19634,30178
19633,30196
19631,30215
19626,30233
19620,30251
19612,30268
19602,30284
19591,30299
19578,30313
19564,30326
19549,30337
19533,30347
19516,30355
19498,30361
19480,30366
19461,30369
19442,30370
18724,30370
18705,30369
18687,30366
18668,30361
18651,30355
18634,30347
18617,30337
18602,30326
18588,30313
18576,30299
18564,30284
18555,30268
18547,30251
18540,30233
18536,30215
18533,30196
18532,30178
18532,29794
18533,29775
18536,29756
18540,29738
18547,29720
18555,29703
18564,29687
18576,29672
18588,29658
18602,29645
18617,29634
18634,29625
18651,29616
18668,29610
18687,29606
18705,29603
18724,29602
19442,29602
19461,29603
" /> 
<polyline style="fill-rule:evenodd;"
points="19461,28126
19480,28129
19498,28134
19516,28140
19533,28148
19549,28158
19564,28169
19578,28182
19591,28196
19602,28211
19612,28227
19620,28244
19626,28262
19631,28280
19633,28299
19634,28317
19634,28701
19633,28720
19631,28739
19626,28757
19620,28775
19612,28792
19602,28808
19591,28823
19578,28837
19564,28850
19549,28861
19533,28871
19516,28879
19498,28885
19480,28890
19461,28892
19442,28893
18724,28893
18705,28892
18687,28890
18668,28885
18651,28879
18634,28871
18617,28861
18602,28850
18588,28837
18576,28823
18564,28808
18555,28792
18547,28775
18540,28757
18536,28739
18533,28720
18532,28701
18532,28317
18533,28299
18536,28280
18540,28262
18547,28244
18555,28227
18564,28211
18576,28196
18588,28182
18602,28169
18617,28158
18634,28148
18651,28140
18668,28134
18687,28129
18705,28126
18724,28125
19442,28125
19461,28126
" /> 
<polyline style="fill-rule:evenodd;"
points="31379,32865
31398,32868
31416,32872
31434,32878
31451,32886
31467,32896
31482,32907
31496,32920
31509,32934
31520,32949
31530,32965
31538,32982
31544,33000
31549,33018
31551,33037
31552,33056
31552,33440
31551,33458
31549,33477
31544,33495
31538,33513
31530,33530
31520,33546
31509,33561
31496,33575
31482,33588
31467,33599
31451,33609
31434,33617
31416,33623
31398,33628
31379,33631
31360,33632
30642,33632
30623,33631
30605,33628
30586,33623
30569,33617
30552,33609
30535,33599
30520,33588
30506,33575
30494,33561
30482,33546
30473,33530
30465,33513
30458,33495
30454,33477
30451,33458
30450,33440
30450,33056
30451,33037
30454,33018
30458,33000
30465,32982
30473,32965
30482,32949
30494,32934
30506,32920
30520,32907
30535,32896
30552,32886
30569,32878
30586,32872
30605,32868
30623,32865
30642,32864
31360,32864
31379,32865
" /> 
<polyline style="fill-rule:evenodd;"
points="31379,31388
31398,31391
31416,31396
31434,31402
31451,31410
31467,31420
31482,31431
31496,31444
31509,31458
31520,31473
31530,31489
31538,31506
31544,31524
31549,31542
31551,31561
31552,31579
31552,31963
31551,31982
31549,32001
31544,32019
31538,32037
31530,32054
31520,32070
31509,32085
31496,32099
31482,32112
31467,32123
31451,32133
31434,32141
31416,32147
31398,32151
31379,32154
31360,32155
30642,32155
30623,32154
30605,32151
30586,32147
30569,32141
30552,32133
30535,32123
30520,32112
30506,32099
30494,32085
30482,32070
30473,32054
30465,32037
30458,32019
30454,32001
30451,31982
30450,31963
30450,31579
30451,31561
30454,31542
30458,31524
30465,31506
30473,31489
30482,31473
30494,31458
30506,31444
30520,31431
30535,31420
30552,31410
30569,31402
30586,31396
30605,31391
30623,31388
30642,31387
31360,31387
31379,31388
" /> 
<polyline style="fill-rule:evenodd;"
points="75602,31681
75621,31683
75639,31688
75657,31694
75674,31702
75690,31712
75705,31723
75719,31736
75991,32007
76003,32021
76015,32037
76024,32053
76032,32070
76039,32087
76043,32106
76046,32124
76047,32143
76046,32162
76043,32181
76039,32199
76032,32217
76024,32234
76015,32250
76003,32265
75991,32279
75483,32787
75469,32800
75454,32811
75437,32820
75420,32829
75403,32835
75384,32839
75366,32842
75347,32843
75328,32842
75309,32839
75291,32835
75273,32829
75256,32820
75240,32811
75225,32800
75211,32787
74940,32516
74927,32502
74916,32486
74906,32470
74898,32453
74892,32436
74887,32417
74884,32399
74884,32380
74884,32361
74887,32342
74892,32324
74898,32306
74906,32289
74916,32273
74927,32258
74940,32244
75448,31736
75462,31723
75477,31712
75493,31702
75510,31694
75528,31688
75546,31683
75565,31681
75584,31680
75602,31681
" /> 
<polyline style="fill-rule:evenodd;"
points="74558,30637
74577,30640
74595,30644
74613,30650
74630,30659
74646,30668
74661,30679
74675,30692
74947,30963
74959,30977
74971,30993
74980,31009
74988,31026
74995,31043
74999,31062
75002,31080
75003,31099
75002,31118
74999,31137
74995,31155
74988,31173
74980,31190
74971,31206
74959,31221
74947,31235
74439,31743
74425,31756
74410,31767
74393,31777
74376,31785
74359,31791
74340,31796
74322,31798
74303,31799
74284,31798
74266,31796
74247,31791
74229,31785
74212,31777
74196,31767
74181,31756
74167,31743
73896,31472
73883,31458
73872,31442
73862,31426
73854,31409
73848,31392
73843,31373
73841,31355
73840,31336
73841,31317
73843,31298
73848,31280
73854,31262
73862,31245
73872,31229
73883,31214
73896,31200
74404,30692
74418,30679
74433,30668
74449,30659
74466,30650
74484,30644
74502,30640
74521,30637
74540,30636
74558,30637
" /> 
<polyline style="fill-rule:evenodd;"
points="82821,38458
82840,38461
82858,38466
82876,38472
82893,38480
82909,38490
82924,38501
82938,38514
82951,38528
82962,38543
82972,38559
82980,38576
82986,38594
82991,38612
82993,38631
82994,38649
82994,39033
82993,39052
82991,39071
82986,39089
82980,39107
82972,39124
82962,39140
82951,39155
82938,39169
82924,39182
82909,39193
82893,39203
82876,39211
82858,39217
82840,39221
82821,39224
82802,39225
82084,39225
82065,39224
82047,39221
82028,39217
82011,39211
81994,39203
81977,39193
81962,39182
81948,39169
81936,39155
81924,39140
81915,39124
81907,39107
81900,39089
81896,39071
81893,39052
81892,39033
81892,38649
81893,38631
81896,38612
81900,38594
81907,38576
81915,38559
81924,38543
81936,38528
81948,38514
81962,38501
81977,38490
81994,38480
82011,38472
82028,38466
82047,38461
82065,38458
82084,38457
82802,38457
82821,38458
" /> 
<polyline style="fill-rule:evenodd;"
points="82821,39935
82840,39938
82858,39942
82876,39948
82893,39956
82909,39966
82924,39977
82938,39990
82951,40004
82962,40019
82972,40035
82980,40052
82986,40070
82991,40088
82993,40107
82994,40126
82994,40510
82993,40528
82991,40547
82986,40565
82980,40583
82972,40600
82962,40616
82951,40631
82938,40645
82924,40658
82909,40669
82893,40679
82876,40687
82858,40693
82840,40698
82821,40701
82802,40702
82084,40702
82065,40701
82047,40698
82028,40693
82011,40687
81994,40679
81977,40669
81962,40658
81948,40645
81936,40631
81924,40616
81915,40600
81907,40583
81900,40565
81896,40547
81893,40528
81892,40510
81892,40126
81893,40107
81896,40088
81900,40070
81907,40052
81915,40035
81924,40019
81936,40004
81948,39990
81962,39977
81977,39966
81994,39956
82011,39948
82028,39942
82047,39938
82065,39935
82084,39934
82802,39934
82821,39935
" /> 
<polyline style="fill-rule:evenodd;"
points="78821,38458
78840,38461
78858,38466
78876,38472
78893,38480
78909,38490
78924,38501
78938,38514
78951,38528
78962,38543
78972,38559
78980,38576
78986,38594
78991,38612
78993,38631
78994,38649
78994,39033
78993,39052
78991,39071
78986,39089
78980,39107
78972,39124
78962,39140
78951,39155
78938,39169
78924,39182
78909,39193
78893,39203
78876,39211
78858,39217
78840,39221
78821,39224
78802,39225
78084,39225
78065,39224
78047,39221
78028,39217
78011,39211
77994,39203
77977,39193
77962,39182
77948,39169
77936,39155
77924,39140
77915,39124
77907,39107
77900,39089
77896,39071
77893,39052
77892,39033
77892,38649
77893,38631
77896,38612
77900,38594
77907,38576
77915,38559
77924,38543
77936,38528
77948,38514
77962,38501
77977,38490
77994,38480
78011,38472
78028,38466
78047,38461
78065,38458
78084,38457
78802,38457
78821,38458
" /> 
<polyline style="fill-rule:evenodd;"
points="78821,39935
78840,39938
78858,39942
78876,39948
78893,39956
78909,39966
78924,39977
78938,39990
78951,40004
78962,40019
78972,40035
78980,40052
78986,40070
78991,40088
78993,40107
78994,40126
78994,40510
78993,40528
78991,40547
78986,40565
78980,40583
78972,40600
78962,40616
78951,40631
78938,40645
78924,40658
78909,40669
78893,40679
78876,40687
78858,40693
78840,40698
78821,40701
78802,40702
78084,40702
78065,40701
78047,40698
78028,40693
78011,40687
77994,40679
77977,40669
77962,40658
77948,40645
77936,40631
77924,40616
77915,40600
77907,40583
77900,40565
77896,40547
77893,40528
77892,40510
77892,40126
77893,40107
77896,40088
77900,40070
77907,40052
77915,40035
77924,40019
77936,40004
77948,39990
77962,39977
77977,39966
77994,39956
78011,39948
78028,39942
78047,39938
78065,39935
78084,39934
78802,39934
78821,39935
" /> 
<polyline style="fill-rule:evenodd;"
points="80821,38458
80840,38461
80858,38466
80876,38472
80893,38480
80909,38490
80924,38501
80938,38514
80951,38528
80962,38543
80972,38559
80980,38576
80986,38594
80991,38612
80993,38631
80994,38649
80994,39033
80993,39052
80991,39071
80986,39089
80980,39107
80972,39124
80962,39140
80951,39155
80938,39169
80924,39182
80909,39193
80893,39203
80876,39211
80858,39217
80840,39221
80821,39224
80802,39225
80084,39225
80065,39224
80047,39221
80028,39217
80011,39211
79994,39203
79977,39193
79962,39182
79948,39169
79936,39155
79924,39140
79915,39124
79907,39107
79900,39089
79896,39071
79893,39052
79892,39033
79892,38649
79893,38631
79896,38612
79900,38594
79907,38576
79915,38559
79924,38543
79936,38528
79948,38514
79962,38501
79977,38490
79994,38480
80011,38472
80028,38466
80047,38461
80065,38458
80084,38457
80802,38457
80821,38458
" /> 
<polyline style="fill-rule:evenodd;"
points="80821,39935
80840,39938
80858,39942
80876,39948
80893,39956
80909,39966
80924,39977
80938,39990
80951,40004
80962,40019
80972,40035
80980,40052
80986,40070
80991,40088
80993,40107
80994,40126
80994,40510
80993,40528
80991,40547
80986,40565
80980,40583
80972,40600
80962,40616
80951,40631
80938,40645
80924,40658
80909,40669
80893,40679
80876,40687
80858,40693
80840,40698
80821,40701
80802,40702
80084,40702
80065,40701
80047,40698
80028,40693
80011,40687
79994,40679
79977,40669
79962,40658
79948,40645
79936,40631
79924,40616
79915,40600
79907,40583
79900,40565
79896,40547
79893,40528
79892,40510
79892,40126
79893,40107
79896,40088
79900,40070
79907,40052
79915,40035
79924,40019
79936,40004
79948,39990
79962,39977
79977,39966
79994,39956
80011,39948
80028,39942
80047,39938
80065,39935
80084,39934
80802,39934
80821,39935
" /> 
<polyline style="fill-rule:evenodd;"
points="61632,31549
61650,31552
61669,31557
61686,31563
61703,31571
61720,31581
61735,31592
61749,31605
61761,31618
61773,31634
61782,31650
61790,31667
61797,31685
61801,31703
61804,31721
61805,31740
61805,32459
61804,32478
61801,32496
61797,32514
61790,32532
61782,32549
61773,32565
61761,32581
61749,32594
61735,32607
61720,32618
61703,32628
61686,32636
61669,32642
61650,32647
61632,32650
61613,32651
61229,32651
61210,32650
61192,32647
61173,32642
61156,32636
61139,32628
61122,32618
61107,32607
61093,32594
61081,32581
61070,32565
61060,32549
61052,32532
61045,32514
61041,32496
61038,32478
61037,32459
61037,31740
61038,31721
61041,31703
61045,31685
61052,31667
61060,31650
61070,31634
61081,31618
61093,31605
61107,31592
61122,31581
61139,31571
61156,31563
61173,31557
61192,31552
61210,31549
61229,31548
61613,31548
61632,31549
" /> 
<polyline style="fill-rule:evenodd;"
points="63108,31549
63127,31552
63145,31557
63163,31563
63180,31571
63196,31581
63211,31592
63225,31605
63238,31618
63249,31634
63259,31650
63267,31667
63273,31685
63278,31703
63280,31721
63281,31740
63281,32459
63280,32478
63278,32496
63273,32514
63267,32532
63259,32549
63249,32565
63238,32581
63225,32594
63211,32607
63196,32618
63180,32628
63163,32636
63145,32642
63127,32647
63108,32650
63089,32651
62706,32651
62687,32650
62668,32647
62650,32642
62632,32636
62615,32628
62599,32618
62584,32607
62570,32594
62557,32581
62546,32565
62536,32549
62528,32532
62522,32514
62517,32496
62514,32478
62514,32459
62514,31740
62514,31721
62517,31703
62522,31685
62528,31667
62536,31650
62546,31634
62557,31618
62570,31605
62584,31592
62599,31581
62615,31571
62632,31563
62650,31557
62668,31552
62687,31549
62706,31548
63089,31548
63108,31549
" /> 
<polyline style="fill-rule:evenodd;"
points="61616,29789
61634,29792
61653,29797
61670,29803
61687,29811
61704,29821
61719,29832
61733,29845
61745,29858
61757,29874
61766,29890
61774,29907
61781,29925
61785,29943
61788,29961
61789,29980
61789,30699
61788,30718
61785,30736
61781,30754
61774,30772
61766,30789
61757,30805
61745,30821
61733,30834
61719,30847
61704,30858
61687,30868
61670,30876
61653,30882
61634,30887
61616,30890
61597,30891
61213,30891
61194,30890
61176,30887
61157,30882
61140,30876
61123,30868
61106,30858
61091,30847
61077,30834
61065,30821
61054,30805
61044,30789
61036,30772
61029,30754
61025,30736
61022,30718
61021,30699
61021,29980
61022,29961
61025,29943
61029,29925
61036,29907
61044,29890
61054,29874
61065,29858
61077,29845
61091,29832
61106,29821
61123,29811
61140,29803
61157,29797
61176,29792
61194,29789
61213,29788
61597,29788
61616,29789
" /> 
<polyline style="fill-rule:evenodd;"
points="63092,29789
63111,29792
63129,29797
63147,29803
63164,29811
63180,29821
63195,29832
63209,29845
63222,29858
63233,29874
63243,29890
63251,29907
63257,29925
63262,29943
63264,29961
63265,29980
63265,30699
63264,30718
63262,30736
63257,30754
63251,30772
63243,30789
63233,30805
63222,30821
63209,30834
63195,30847
63180,30858
63164,30868
63147,30876
63129,30882
63111,30887
63092,30890
63073,30891
62690,30891
62671,30890
62652,30887
62634,30882
62616,30876
62599,30868
62583,30858
62568,30847
62554,30834
62541,30821
62530,30805
62520,30789
62512,30772
62506,30754
62501,30736
62498,30718
62498,30699
62498,29980
62498,29961
62501,29943
62506,29925
62512,29907
62520,29890
62530,29874
62541,29858
62554,29845
62568,29832
62583,29821
62599,29811
62616,29803
62634,29797
62652,29792
62671,29789
62690,29788
63073,29788
63092,29789
" /> 
<polyline style="fill-rule:evenodd;"
points="80356,33109
80374,33112
80393,33117
80410,33123
80427,33131
80444,33141
80459,33152
80473,33165
80485,33178
80497,33194
80506,33210
80514,33227
80521,33245
80525,33263
80528,33281
80529,33300
80529,34019
80528,34038
80525,34056
80521,34074
80514,34092
80506,34109
80497,34125
80485,34141
80473,34154
80459,34167
80444,34178
80427,34188
80410,34196
80393,34202
80374,34207
80356,34210
80337,34211
79953,34211
79934,34210
79916,34207
79897,34202
79880,34196
79863,34188
79846,34178
79831,34167
79817,34154
79805,34141
79794,34125
79784,34109
79776,34092
79769,34074
79765,34056
79762,34038
79761,34019
79761,33300
79762,33281
79765,33263
79769,33245
79776,33227
79784,33210
79794,33194
79805,33178
79817,33165
79831,33152
79846,33141
79863,33131
79880,33123
79897,33117
79916,33112
79934,33109
79953,33108
80337,33108
80356,33109
" /> 
<polyline style="fill-rule:evenodd;"
points="81832,33109
81851,33112
81869,33117
81887,33123
81904,33131
81920,33141
81935,33152
81949,33165
81962,33178
81973,33194
81983,33210
81991,33227
81997,33245
82002,33263
82004,33281
82005,33300
82005,34019
82004,34038
82002,34056
81997,34074
81991,34092
81983,34109
81973,34125
81962,34141
81949,34154
81935,34167
81920,34178
81904,34188
81887,34196
81869,34202
81851,34207
81832,34210
81813,34211
81430,34211
81411,34210
81392,34207
81374,34202
81356,34196
81339,34188
81323,34178
81308,34167
81294,34154
81281,34141
81270,34125
81260,34109
81252,34092
81246,34074
81241,34056
81238,34038
81238,34019
81238,33300
81238,33281
81241,33263
81246,33245
81252,33227
81260,33210
81270,33194
81281,33178
81294,33165
81308,33152
81323,33141
81339,33131
81356,33123
81374,33117
81392,33112
81411,33109
81430,33108
81813,33108
81832,33109
" /> 
<polyline style="fill-rule:evenodd;"
points="86921,26695
86940,26698
86958,26702
86976,26708
86993,26716
87009,26726
87024,26737
87038,26750
87051,26764
87062,26779
87072,26795
87080,26812
87086,26830
87091,26848
87093,26867
87094,26886
87094,27270
87093,27288
87091,27307
87086,27325
87080,27343
87072,27360
87062,27376
87051,27391
87038,27405
87024,27418
87009,27429
86993,27439
86976,27447
86958,27453
86940,27458
86921,27461
86902,27462
86184,27462
86165,27461
86147,27458
86128,27453
86111,27447
86094,27439
86077,27429
86062,27418
86048,27405
86036,27391
86024,27376
86015,27360
86007,27343
86000,27325
85996,27307
85993,27288
85992,27270
85992,26886
85993,26867
85996,26848
86000,26830
86007,26812
86015,26795
86024,26779
86036,26764
86048,26750
86062,26737
86077,26726
86094,26716
86111,26708
86128,26702
86147,26698
86165,26695
86184,26694
86902,26694
86921,26695
" /> 
<polyline style="fill-rule:evenodd;"
points="86921,25218
86940,25221
86958,25226
86976,25232
86993,25240
87009,25250
87024,25261
87038,25274
87051,25288
87062,25303
87072,25319
87080,25336
87086,25354
87091,25372
87093,25391
87094,25409
87094,25793
87093,25812
87091,25831
87086,25849
87080,25867
87072,25884
87062,25900
87051,25915
87038,25929
87024,25942
87009,25953
86993,25963
86976,25971
86958,25977
86940,25981
86921,25984
86902,25985
86184,25985
86165,25984
86147,25981
86128,25977
86111,25971
86094,25963
86077,25953
86062,25942
86048,25929
86036,25915
86024,25900
86015,25884
86007,25867
86000,25849
85996,25831
85993,25812
85992,25793
85992,25409
85993,25391
85996,25372
86000,25354
86007,25336
86015,25319
86024,25303
86036,25288
86048,25274
86062,25261
86077,25250
86094,25240
86111,25232
86128,25226
86147,25221
86165,25218
86184,25217
86902,25217
86921,25218
" /> 
<polyline style="fill-rule:evenodd;"
points="93594,28828
91862,28828
91862,27883
93594,27883
93594,28828
" /> 
<polyline style="fill-rule:evenodd;"
points="93594,41032
91862,41032
91862,40088
93594,40088
93594,41032
" /> 
<polyline style="fill-rule:evenodd;"
points="85720,29694
84618,29694
84618,28434
85720,28434
85720,29694
" /> 
<polyline style="fill-rule:evenodd;"
points="85720,41032
84618,41032
84618,40088
85720,40088
85720,41032
" /> 
<polyline style="fill-rule:evenodd;"
points="85405,39930
84146,39930
84146,39379
85405,39379
85405,39930
" /> 
<polyline style="fill-rule:evenodd;"
points="85405,38198
84146,38198
84146,37647
85405,37647
85405,38198
" /> 
<polyline style="fill-rule:evenodd;"
points="85405,39064
84146,39064
84146,38513
85405,38513
85405,39064
" /> 
<polyline style="fill-rule:evenodd;"
points="85405,37332
84146,37332
84146,36780
85405,36780
85405,37332
" /> 
<polyline style="fill-rule:evenodd;"
points="85405,36465
84146,36465
84146,35914
85405,35914
85405,36465
" /> 
<polyline style="fill-rule:evenodd;"
points="85405,35599
84146,35599
84146,35048
85405,35048
85405,35599
" /> 
<polyline style="fill-rule:evenodd;"
points="85405,33001
84146,33001
84146,32450
85405,32450
85405,33001
" /> 
<polyline style="fill-rule:evenodd;"
points="85405,33867
84146,33867
84146,33316
85405,33316
85405,33867
" /> 
<polyline style="fill-rule:evenodd;"
points="85405,34733
84146,34733
84146,34182
85405,34182
85405,34733
" /> 
<polyline style="fill-rule:evenodd;"
points="59307,37149
59779,37149
59779,38330
59307,38330
59307,37149
" /> 
<polyline style="fill-rule:evenodd;"
points="58307,37149
58779,37149
58779,38330
58307,38330
58307,37149
" /> 
<polyline style="fill-rule:evenodd;"
points="57307,37149
57779,37149
57779,38330
57307,38330
57307,37149
" /> 
<polyline style="fill-rule:evenodd;"
points="56307,37149
56779,37149
56779,38330
56307,38330
56307,37149
" /> 
<polyline style="fill-rule:evenodd;"
points="55307,37149
55779,37149
55779,38330
55307,38330
55307,37149
" /> 
<polyline style="fill-rule:evenodd;"
points="54307,37149
54779,37149
54779,38330
54307,38330
54307,37149
" /> 
<polyline style="fill-rule:evenodd;"
points="53307,37149
53779,37149
53779,38330
53307,38330
53307,37149
" /> 
<polyline style="fill-rule:evenodd;"
points="52307,37149
52779,37149
52779,38330
52307,38330
52307,37149
" /> 
<polyline style="fill-rule:evenodd;"
points="52307,29826
52779,29826
52779,31007
52307,31007
52307,29826
" /> 
<polyline style="fill-rule:evenodd;"
points="53307,29826
53779,29826
53779,31007
53307,31007
53307,29826
" /> 
<polyline style="fill-rule:evenodd;"
points="54307,29826
54779,29826
54779,31007
54307,31007
54307,29826
" /> 
<polyline style="fill-rule:evenodd;"
points="55307,29826
55779,29826
55779,31007
55307,31007
55307,29826
" /> 
<polyline style="fill-rule:evenodd;"
points="56307,29826
56779,29826
56779,31007
56307,31007
56307,29826
" /> 
<polyline style="fill-rule:evenodd;"
points="57307,29826
57779,29826
57779,31007
57307,31007
57307,29826
" /> 
<polyline style="fill-rule:evenodd;"
points="58307,29826
58779,29826
58779,31007
58307,31007
58307,29826
" /> 
<polyline style="fill-rule:evenodd;"
points="59307,29826
59779,29826
59779,31007
59307,31007
59307,29826
" /> 
<polyline style="fill-rule:evenodd;"
points="63959,41236
63959,40763
65179,40763
65179,41236
63959,41236
" /> 
<polyline style="fill-rule:evenodd;"
points="63959,42236
63959,41763
65179,41763
65179,42236
63959,42236
" /> 
<polyline style="fill-rule:evenodd;"
points="63959,43236
63959,42763
65179,42763
65179,43236
63959,43236
" /> 
<polyline style="fill-rule:evenodd;"
points="63959,44236
63959,43763
65179,43763
65179,44236
63959,44236
" /> 
<polyline style="fill-rule:evenodd;"
points="59707,44236
59707,43763
60927,43763
60927,44236
59707,44236
" /> 
<polyline style="fill-rule:evenodd;"
points="59707,43236
59707,42763
60927,42763
60927,43236
59707,43236
" /> 
<polyline style="fill-rule:evenodd;"
points="59707,42236
59707,41763
60927,41763
60927,42236
59707,42236
" /> 
<polyline style="fill-rule:evenodd;"
points="59707,41236
59707,40763
60927,40763
60927,41236
59707,41236
" /> 
<polyline style="fill-rule:evenodd;"
points="62258,34774
61628,34774
61628,34066
62258,34066
62258,34774
" /> 
<polyline style="fill-rule:evenodd;"
points="63006,36349
62376,36349
62376,35641
63006,35641
63006,36349
" /> 
<polyline style="fill-rule:evenodd;"
points="61510,36349
60880,36349
60880,35641
61510,35641
61510,36349
" /> 
<polyline style="fill-rule:evenodd;"
points="47027,27239
44861,27239
44861,24838
47027,24838
47027,27239
" /> 
<polyline style="fill-rule:evenodd;"
points="44625,24601
42460,24601
42460,22200
44625,22200
44625,24601
" /> 
<polyline style="fill-rule:evenodd;"
points="44625,27239
42460,27239
42460,24838
44625,24838
44625,27239
" /> 
<polyline style="fill-rule:evenodd;"
points="47027,24601
44861,24601
44861,22200
47027,22200
47027,24601
" /> 
<polyline style="fill-rule:evenodd;"
points="47011,30546
46066,30546
46066,28814
47011,28814
47011,30546
" /> 
<polyline style="fill-rule:evenodd;"
points="45216,30546
44271,30546
44271,28814
45216,28814
45216,30546
" /> 
<polyline style="fill-rule:evenodd;"
points="43420,30546
42476,30546
42476,28814
43420,28814
43420,30546
" /> 
<circle cx="27535.9" cy="16584.1" r="984.252" /> 
</g>
<g style="fill:#000000; fill-opacity:1.0; 
stroke:#000000; stroke-width:118.11; stroke-opacity:1; 
stroke-linecap:round; stroke-linejoin:round;">
</g>
<g style="fill:#000000; fill-opacity:1.0; 
stroke:#000000; stroke-width:0; stroke-opacity:1; 
stroke-linecap:round; stroke-linejoin:round;">
<circle cx="82654" cy="16584.1" r="984.252" /> 
</g>
<g style="fill:#000000; fill-opacity:1.0; 
stroke:#000000; stroke-width:118.11; stroke-opacity:1; 
stroke-linecap:round; stroke-linejoin:round;">
</g>
<g style="fill:#000000; fill-opacity:1.0; 
stroke:#000000; stroke-width:0; stroke-opacity:1; 
stroke-linecap:round; stroke-linejoin:round;">
<circle cx="27535.9" cy="63828.2" r="984.252" /> 
</g>
<g style="fill:#000000; fill-opacity:1.0; 
stroke:#000000; stroke-width:118.11; stroke-opacity:1; 
stroke-linecap:round; stroke-linejoin:round;">
</g>
<g style="fill:#000000; fill-opacity:1.0; 
stroke:#000000; stroke-width:0; stroke-opacity:1; 
stroke-linecap:round; stroke-linejoin:round;">
<circle cx="90528" cy="63828.2" r="984.252" /> 
</g>
<g style="fill:#000000; fill-opacity:1.0; 
stroke:#000000; stroke-width:118.11; stroke-opacity:1; 
stroke-linecap:round; stroke-linejoin:round;">
</g> 
</svg>
