<?xml version="1.0" standalone="no"?>
 <!DOCTYPE svg PUBLIC "-//W3C//DTD SVG 1.1//EN" 
 "http://www.w3.org/Graphics/SVG/1.1/DTD/svg11.dtd"> 
<svg xmlns="http://www.w3.org/2000/svg" version="1.1" 
    width="29.7002cm" height="21.0007cm" viewBox="0 0 116930 82680 ">
<title>SVG Picture created as ThermocoupleLogger-B_SilkS.svg date 2019/03/14 18:04:39 </title>
  <desc>Picture generated by PCBNEW </desc>
<g style="fill:#000000; fill-opacity:1;stroke:#000000; stroke-opacity:1;
stroke-linecap:round; stroke-linejoin:round; "
 transform="translate(0 0) scale(1 1)">
</g>
<g style="fill:#000000; fill-opacity:0.0; 
stroke:#000000; stroke-width:-0.000787402; stroke-opacity:1; 
stroke-linecap:round; stroke-linejoin:round;">
</g>
<g style="fill:#000000; fill-opacity:0.0; 
stroke:#000000; stroke-width:157.48; stroke-opacity:1; 
stroke-linecap:round; stroke-linejoin:round;">
<path d="M20386 62899
L20386 67324
" />
<path d="M99186 67332
L20390 67332
" />
<path d="M86465 21607
L99181 21607
" />
<path d="M99186 62940
L99186 67340
" />
<path d="M33226 62900
L51466 62900
" />
<path d="M29496 62900
L20386 62900
" />
<path d="M29536 60900
L20446 60900
" />
<path d="M51466 60900
L33226 60900
" />
<path d="M55102 62909
L92462 62909
" />
<path d="M92456 60910
L55096 60910
" />
<path d="M96086 60920
L99186 60920
" />
<path d="M96116 62920
L99189 62938
" />
<path d="M96093.7 60920.7 A1000.2 1000.2 0.0 0 0 96116.3 62920 " />
<path d="M92462.9 62909.9 A1000 1000 0.0 0 0 92446.3 60910 " />
<path d="M55095 60910.2 A1000 1000 0.0 0 0 55116.3 62910 " />
<path d="M51464.5 62900 A1000.2 1000.2 0.0 1 0 51466.3 60900 " />
<path d="M33216.3 60899.8 A1000.2 1000.2 0.0 1 0 33236.3 62900 " />
<path d="M29506.3 62900 A1000.2 1000.2 0.0 0 0 29545.5 60900 " />
<path d="M25546.3 21540.8 A1000.8 1000.8 0.0 0 0 25586.3 19540 " />
<path d="M61806.3 19580 A1000.8 1000.8 0.0 1 0 61806.3 21580 " />
<path d="M99226 19560
L99226 19560
" />
<path d="M86466 19560
L99226 19560
" />
<path d="M82806 21580
L61806 21580
" />
<path d="M61826 19580
L82786 19580
" />
<path d="M86466.3 19560 A1020 1020 0.0 0 0 86466.3 21600 " />
<path d="M82806.3 21580.2 A1000.2 1000.2 0.0 1 0 82786.3 19580 " />
<path d="M29206 21570
L58036 21570
" />
<path d="M58186 19590
L29176 19590
" />
<path d="M58066.3 21560 A990.202 990.202 0.0 1 0 58106.3 19580 " />
<path d="M25535 21544
L20449 21552
" />
<path d="M20486 19540
L25586 19540
" />
<path d="M20486 14340
L20486 19540
" />
<path d="M29198.2 19588 A996 996 0.0 0 0 29206.3 21580 " />
<path d="M99226 14320
L20496 14324
" />
<path d="M99226 19560
L99226 14320
" />
<path d="M99186 60920
L99186 21610
" />
<path d="M20446 60900
L20446 21569
" />
</g>
<g style="fill:#000000; fill-opacity:0.0; 
stroke:#000000; stroke-width:94.4882; stroke-opacity:1; 
stroke-linecap:round; stroke-linejoin:round;">
<path d="M58624 24207
L58624 28695
" />
<path d="M58624 24207
L63348 24207
" />
<path d="M63348 24207
L63348 28695
" />
<path d="M63348.5 28695.9 A629.921 629.921 0.0 0 0 63762.9 29287.8 " />
<path d="M60950.6 46960.2 A9051.78 9051.78 0.0 0 0 63742.2 29286.5 " />
<path d="M58209.6 29287.8 A629.921 629.921 0.0 0 0 58624.1 28695.9 " />
<path d="M58230.4 29286.5 A9051.78 9051.78 0.0 0 0 61021.9 46960.2 " />
<path d="M45054 33760
L44766 34048
" />
<path d="M45845 34551
L45557 34839
" />
<path d="M46994 31800
L46706 32088
" />
<path d="M47785 32591
L47497 32879
" />
</g>
<g style="fill:#000000; fill-opacity:0.0; 
stroke:#000000; stroke-width:118.11; stroke-opacity:1; 
stroke-linecap:round; stroke-linejoin:round;">
<path d="M64428 25321
L64390 25433
L64353 25471
L64278 25508
L64165 25508
L64090 25471
L64053 25433
L64015 25358
L64015 25058
L64803 25058
L64803 25321
L64765 25396
L64728 25433
L64653 25471
L64578 25471
L64503 25433
L64465 25396
L64428 25321
L64428 25058
" />
<path d="M64803 25733
L64803 26183
" />
<path d="M64015 25958
L64803 25958
" />
<path d="M64728 26408
L64765 26446
L64803 26521
L64803 26708
L64765 26783
L64728 26821
L64653 26858
L64578 26858
L64465 26821
L64015 26371
L64015 26858
" />
<path d="M60901 27655
L60901 28555
" />
<path d="M60451 28105
L61351 28105
" />
<path d="M46065 35775
L46065 35828
L46012 35934
L45959 35987
L45853 36040
L45747 36040
L45668 36014
L45535 35934
L45456 35854
L45376 35722
L45350 35642
L45350 35536
L45403 35430
L45456 35377
L45562 35324
L45615 35324
" />
<path d="M45827 35112
L45827 35059
L45853 34980
L45986 34847
L46065 34820
L46118 34820
L46198 34847
L46251 34900
L46304 35006
L46304 35642
L46649 35298
" />
<path d="M46357 34582
L46357 34529
L46384 34449
L46516 34317
L46596 34290
L46649 34290
L46728 34317
L46781 34370
L46834 34476
L46834 35112
L47179 34767
" />
<path d="M48005 33815
L48005 33868
L47952 33974
L47899 34027
L47793 34080
L47687 34080
L47608 34054
L47475 33974
L47396 33894
L47316 33762
L47290 33682
L47290 33576
L47343 33470
L47396 33417
L47502 33364
L47555 33364
" />
<path d="M47767 33152
L47767 33099
L47793 33020
L47926 32887
L48005 32860
L48058 32860
L48138 32887
L48191 32940
L48244 33046
L48244 33682
L48589 33338
" />
<path d="M49119 32807
L48801 33126
" />
<path d="M48960 32967
L48403 32410
L48430 32542
L48430 32648
L48403 32728
" />
</g> 
</svg>
