<?xml version="1.0" standalone="no"?>
 <!DOCTYPE svg PUBLIC "-//W3C//DTD SVG 1.1//EN" 
 "http://www.w3.org/Graphics/SVG/1.1/DTD/svg11.dtd"> 
<svg xmlns="http://www.w3.org/2000/svg" version="1.1" 
    width="29.7002cm" height="21.0007cm" viewBox="0 0 116930 82680 ">
<title>SVG Picture created as ThermocoupleLogger-Cmts_User.svg date 2019/03/28 17:19:47 </title>
  <desc>Picture generated by PCBNEW </desc>
<g style="fill:#000000; fill-opacity:1;stroke:#000000; stroke-opacity:1;
stroke-linecap:round; stroke-linejoin:round; "
 transform="translate(0 0) scale(1 1)">
</g>
<g style="fill:#000000; fill-opacity:0.0; 
stroke:#000000; stroke-width:-0.000787402; stroke-opacity:1; 
stroke-linecap:round; stroke-linejoin:round;">
</g>
<g style="fill:#000000; fill-opacity:0.0; 
stroke:#000000; stroke-width:78.7402; stroke-opacity:1; 
stroke-linecap:round; stroke-linejoin:round;">
<path d="M93971 12875
L93971 73375
" />
<path d="M23971 68993
L23971 68993
" />
<path d="M23971 12875
L93971 12875
" />
<path d="M23971 73375
L93971 73375
" />
<path d="M23971 12875
L23971 73375
" />
<path d="M23971 13875
L23971 13875
" />
</g>
<g style="fill:#000000; fill-opacity:0.0; 
stroke:#000000; stroke-width:39.3701; stroke-opacity:1; 
stroke-linecap:round; stroke-linejoin:round;">
<path d="M57001 13064
L53851 13064
" />
<path d="M57788 13851
L57001 13064
" />
<path d="M65662 13851
L57788 13851
" />
<path d="M66449 13064
L65662 13851
" />
<path d="M68024 13064
L66449 13064
" />
<g >
</g>
<g >
</g>
<g >
</g>
<g >
</g>
<g >
</g>
<g >
</g>
<g >
</g>
<g >
</g>
<g >
</g>
<g >
</g>
<g >
</g>
<g >
</g>
<g >
</g>
<g >
</g>
<g >
</g>
<g >
</g>
<g >
</g>
<g >
</g>
<g >
</g>
<g >
</g>
<g >
</g>
<g >
</g>
<g >
</g>
<g >
</g>
<g >
</g>
<g >
</g>
<g >
</g>
<g >
</g>
<g >
</g>
<g >
</g>
<g >
</g>
<g >
</g>
<g >
</g>
<g >
</g>
<g >
</g>
<g >
</g>
<g >
</g>
<g >
</g>
<g >
</g>
<g >
</g>
<g >
</g>
<g >
</g>
<g >
</g>
<g >
</g>
<g >
</g>
<g >
</g>
<g >
</g>
<g >
</g>
<g >
</g>
<g >
</g>
<g >
</g>
<g >
</g>
<g >
</g>
<g >
</g>
<g >
</g>
<g >
</g>
<g >
</g>
<g >
</g>
<g >
</g>
<g >
</g>
<g >
</g>
<g >
</g>
<g >
</g>
<g >
</g>
<g >
</g>
<g >
</g>
<g >
</g>
<g >
</g>
<g >
</g>
<g >
</g>
<g >
</g>
<g >
</g>
<g >
</g>
<path d="M34073 37450
L34073 37174
L34178 37174
L34204 37187
L34217 37200
L34230 37227
L34230 37266
L34217 37292
L34204 37305
L34178 37318
L34073 37318
" />
<path d="M34479 37450
L34348 37450
L34348 37174
" />
<path d="M34558 37371
L34689 37371
" />
<path d="M34532 37450
L34624 37174
L34716 37450
" />
<path d="M34807 37450
L34807 37174
L34965 37450
L34965 37174
" />
<path d="M35096 37305
L35188 37305
" />
<path d="M35227 37450
L35096 37450
L35096 37174
L35227 37174
" />
<path d="M34051 36663
L34025 36650
L33985 36650
L33946 36663
L33920 36689
L33907 36716
L33893 36768
L33893 36807
L33907 36860
L33920 36886
L33946 36912
L33985 36926
L34012 36926
L34051 36912
L34064 36899
L34064 36807
L34012 36807
" />
<path d="M34340 36926
L34248 36794
" />
<path d="M34182 36926
L34182 36650
L34287 36650
L34313 36663
L34326 36676
L34340 36703
L34340 36742
L34326 36768
L34313 36781
L34287 36794
L34182 36794
" />
<path d="M34510 36650
L34563 36650
L34589 36663
L34615 36689
L34628 36742
L34628 36834
L34615 36886
L34589 36912
L34563 36926
L34510 36926
L34484 36912
L34458 36886
L34445 36834
L34445 36742
L34458 36689
L34484 36663
L34510 36650
" />
<path d="M34746 36650
L34746 36873
L34760 36899
L34773 36912
L34799 36926
L34851 36926
L34878 36912
L34891 36899
L34904 36873
L34904 36650
" />
<path d="M35035 36926
L35035 36650
L35193 36926
L35193 36650
" />
<path d="M35324 36926
L35324 36650
L35389 36650
L35429 36663
L35455 36689
L35468 36716
L35481 36768
L35481 36807
L35468 36860
L35455 36886
L35429 36912
L35389 36926
L35324 36926
" />
<path d="M34261 36388
L34130 36388
L34130 36112
" />
<path d="M34405 36112
L34458 36112
L34484 36125
L34510 36151
L34523 36204
L34523 36296
L34510 36348
L34484 36374
L34458 36388
L34405 36388
L34379 36374
L34353 36348
L34340 36296
L34340 36204
L34353 36151
L34379 36125
L34405 36112
" />
<path d="M34799 36361
L34786 36374
L34746 36388
L34720 36388
L34681 36374
L34655 36348
L34641 36322
L34628 36269
L34628 36230
L34641 36178
L34655 36151
L34681 36125
L34720 36112
L34746 36112
L34786 36125
L34799 36138
" />
<path d="M34904 36309
L35035 36309
" />
<path d="M34878 36388
L34970 36112
L35061 36388
" />
<path d="M35285 36388
L35153 36388
L35153 36112
" />
<path d="M38960 38037
L38764 38037
L38960 37925
L38764 37925
" />
<path d="M38764 37794
L38764 37756
L38773 37737
L38792 37719
L38829 37709
L38895 37709
L38932 37719
L38951 37737
L38960 37756
L38960 37794
L38951 37812
L38932 37831
L38895 37840
L38829 37840
L38792 37831
L38773 37812
L38764 37794
" />
<path d="M38960 37362
L38867 37428
" />
<path d="M38960 37475
L38764 37475
L38764 37400
L38773 37381
L38782 37372
L38801 37362
L38829 37362
L38848 37372
L38857 37381
L38867 37400
L38867 37475
" />
<path d="M38764 37241
L38764 37203
L38773 37184
L38792 37166
L38829 37156
L38895 37156
L38932 37166
L38951 37184
L38960 37203
L38960 37241
L38951 37259
L38932 37278
L38895 37287
L38829 37287
L38792 37278
L38773 37259
L38764 37241
" />
<path d="M38764 37072
L38923 37072
L38942 37062
L38951 37053
L38960 37034
L38960 36997
L38951 36978
L38942 36969
L38923 36959
L38764 36959
" />
<path d="M38764 36894
L38764 36781
" />
<path d="M38960 36837
L38764 36837
" />
<path d="M38960 36716
L38764 36716
" />
<path d="M38960 36622
L38764 36622
L38960 36509
L38764 36509
" />
<path d="M38773 36313
L38764 36331
L38764 36359
L38773 36388
L38792 36406
L38810 36416
L38848 36425
L38876 36425
L38914 36416
L38932 36406
L38951 36388
L38960 36359
L38960 36341
L38951 36313
L38942 36303
L38876 36303
L38876 36341
" />
<g >
</g>
</g> 
</svg>
