<?xml version="1.0" standalone="no"?>
 <!DOCTYPE svg PUBLIC "-//W3C//DTD SVG 1.1//EN" 
 "http://www.w3.org/Graphics/SVG/1.1/DTD/svg11.dtd"> 
<svg xmlns="http://www.w3.org/2000/svg" version="1.1" 
    width="29.7002cm" height="21.0007cm" viewBox="0 0 116930 82680 ">
<title>SVG Picture created as ThermocoupleLogger-B_Fab.svg date 2019/03/28 17:19:47 </title>
  <desc>Picture generated by PCBNEW </desc>
<g style="fill:#000000; fill-opacity:1;stroke:#000000; stroke-opacity:1;
stroke-linecap:round; stroke-linejoin:round; "
 transform="translate(0 0) scale(1 1)">
</g>
<g style="fill:#000000; fill-opacity:0.0; 
stroke:#000000; stroke-width:-0.000787402; stroke-opacity:1; 
stroke-linecap:round; stroke-linejoin:round;">
</g>
<g style="fill:#000000; fill-opacity:0.0; 
stroke:#000000; stroke-width:78.7402; stroke-opacity:1; 
stroke-linecap:round; stroke-linejoin:round;">
<path d="M93971 12875
L93971 73375
" />
<path d="M23971 68993
L23971 68993
" />
<path d="M23971 12875
L93971 12875
" />
<path d="M23971 73375
L93971 73375
" />
<path d="M23971 12875
L23971 73375
" />
<path d="M23971 13875
L23971 13875
" />
<path d="M28893.9 56392 A708.661 708.661 0.0 0 0 29559.9 55925.7 " />
<path d="M47083.1 58734.8 A8976.81 8976.81 0.0 0 0 29563.2 55919.5 " />
<path d="M29563.2 61431.3 A8976.81 8976.81 0.0 0 0 47083.1 58616.1 " />
<path d="M45980.6 59699.1 A7940.27 7940.27 0.0 0 0 30232.5 57651.8 " />
<path d="M43092 58835.8 A4988.05 4988.05 0.0 0 0 33224.6 57651.8 " />
<path d="M39914 58813.9 A1812.73 1812.73 0.0 0 0 36610.5 57651.8 " />
<path d="M44698 52595
L43978 53255
" />
<path d="M44698 64755
L43958 64075
" />
<path d="M36610.5 59699.1 A1812.73 1812.73 0.0 0 0 39914 58537 " />
<path d="M33224.6 59699.1 A4988.05 4988.05 0.0 0 0 43092 58515.1 " />
<path d="M30232.5 59699.1 A7940.27 7940.27 0.0 0 0 45980.6 57651.8 " />
<path d="M28918 60958
L24799 60958
" />
<path d="M24799 56391
L28918 56391
" />
<path d="M24484 60643
L24484 56706
" />
<path d="M26138 57651
L38893 57651
" />
<path d="M38893 59699
L26138 59699
" />
<path d="M29559.9 61425.2 A708.661 708.661 0.0 0 0 28893.9 60958.9 " />
<path d="M38893.9 59699.1 A1023.62 1023.62 0.0 0 0 38893.9 57651.8 " />
<path d="M26138 59699
L26138 57651
" />
<path d="M24799.4 56392 A314.961 314.961 0.0 0 0 24484.5 56706.9 " />
<path d="M24484.5 60643.9 A314.961 314.961 0.0 0 0 24799.4 60958.9 " />
<g >
</g>
<g >
</g>
<g >
</g>
<g >
</g>
<g >
</g>
<g >
</g>
<g >
</g>
<g >
</g>
<g >
</g>
<g >
</g>
<g >
</g>
<g >
</g>
<g >
</g>
<g >
</g>
<g >
</g>
<g >
</g>
<g >
</g>
<g >
</g>
<g >
</g>
<g >
</g>
<g >
</g>
<g >
</g>
<g >
</g>
<g >
</g>
<g >
</g>
<g >
</g>
<g >
</g>
<g >
</g>
<g >
</g>
<g >
</g>
<g >
</g>
<g >
</g>
<g >
</g>
<g >
</g>
<g >
</g>
<g >
</g>
<g >
</g>
<g >
</g>
<g >
</g>
<g >
</g>
<g >
</g>
<g >
</g>
<g >
</g>
<g >
</g>
<g >
</g>
<g >
</g>
<g >
</g>
<g >
</g>
<g >
</g>
<g >
</g>
<g >
</g>
<g >
</g>
<g >
</g>
<g >
</g>
<g >
</g>
<g >
</g>
<g >
</g>
<g >
</g>
<g >
</g>
<g >
</g>
<g >
</g>
<g >
</g>
<g >
</g>
<g >
</g>
<g >
</g>
<g >
</g>
<g >
</g>
<g >
</g>
<g >
</g>
<g >
</g>
<g >
</g>
<g >
</g>
<g >
</g>
</g>
<g style="fill:#000000; fill-opacity:0.0; 
stroke:#000000; stroke-width:118.11; stroke-opacity:1; 
stroke-linecap:round; stroke-linejoin:round;">
<path d="M39580 48382
L39467 48420
L39430 48457
L39392 48532
L39392 48645
L39430 48720
L39467 48757
L39542 48795
L39842 48795
L39842 48008
L39580 48008
L39505 48045
L39467 48083
L39430 48157
L39430 48232
L39467 48307
L39505 48345
L39580 48382
L39842 48382
" />
<path d="M38717 48795
L38717 48382
L38755 48307
L38830 48270
L38980 48270
L39055 48307
" />
<path d="M38717 48757
L38792 48795
L38980 48795
L39055 48757
L39092 48682
L39092 48607
L39055 48532
L38980 48495
L38792 48495
L38717 48457
" />
<path d="M38455 48270
L38155 48270
" />
<path d="M38342 48008
L38342 48682
L38305 48757
L38230 48795
L38155 48795
" />
<path d="M38005 48270
L37705 48270
" />
<path d="M37892 48008
L37892 48682
L37855 48757
L37780 48795
L37705 48795
" />
<path d="M37142 48757
L37217 48795
L37367 48795
L37442 48757
L37480 48682
L37480 48382
L37442 48307
L37367 48270
L37217 48270
L37142 48307
L37105 48382
L37105 48457
L37480 48532
" />
<path d="M36767 48795
L36767 48270
" />
<path d="M36767 48420
L36730 48345
L36692 48307
L36617 48270
L36542 48270
" />
<path d="M36355 48270
L36168 48795
" />
<path d="M35980 48270
L36168 48795
L36243 48982
L36280 49020
L36355 49057
" />
<path d="M26756 58619
L26644 58656
L26606 58694
L26569 58769
L26569 58881
L26606 58956
L26644 58994
L26719 59031
L27019 59031
L27019 58244
L26756 58244
L26681 58281
L26644 58319
L26606 58394
L26606 58469
L26644 58544
L26681 58581
L26756 58619
L27019 58619
" />
<path d="M26344 58244
L25894 58244
" />
<path d="M26119 59031
L26119 58244
" />
<path d="M25669 58319
L25631 58281
L25556 58244
L25369 58244
L25294 58281
L25256 58319
L25219 58394
L25219 58469
L25256 58581
L25706 59031
L25219 59031
" />
<g >
</g>
</g> 
</svg>
