%TF.GenerationSoftware,KiCad,Pcbnew,(5.0-dev-4122-gf60c251)*%
%TF.CreationDate,2018-06-11T17:10:56+01:00*%
%TF.ProjectId,ThermocoupleLogger,546865726D6F636F75706C654C6F6767,ca9ed02408*%
%TF.SameCoordinates,Original*%
%TF.FileFunction,Soldermask,Bot*%
%TF.FilePolarity,Negative*%
%FSLAX46Y46*%
G04 Gerber Fmt 4.6, Leading zero omitted, Abs format (unit mm)*
G04 Created by KiCad (PCBNEW (5.0-dev-4122-gf60c251)) date Monday, 11 June 2018 at 17:10:56*
%MOMM*%
%LPD*%
G01*
G04 APERTURE LIST*
%ADD10C,2.500000*%
%ADD11C,5.400000*%
%ADD12C,0.800000*%
%ADD13C,1.750000*%
%ADD14R,1.750000X1.750000*%
%ADD15O,1.700000X1.700000*%
%ADD16R,1.700000X1.700000*%
%ADD17O,1.600000X1.600000*%
%ADD18R,1.600000X1.600000*%
%ADD19R,3.000000X3.000000*%
%ADD20C,3.000000*%
%ADD21O,1.800000X1.800000*%
%ADD22R,1.800000X1.800000*%
%ADD23C,2.000000*%
%ADD24O,2.200000X2.200000*%
%ADD25R,2.200000X2.200000*%
%ADD26C,1.000000*%
%ADD27C,1.500000*%
%ADD28R,3.500000X3.500000*%
G04 APERTURE END LIST*
D10*
X174846000Y-131026000D03*
D11*
X97734000Y-75890170D03*
D12*
X99759000Y-75890170D03*
X99165891Y-77322061D03*
X97734000Y-77915170D03*
X96302109Y-77322061D03*
X95709000Y-75890170D03*
X96302109Y-74458279D03*
X97734000Y-73865170D03*
X99165891Y-74458279D03*
X179166066Y-144458284D03*
X177734175Y-143865175D03*
X176302284Y-144458284D03*
X175709175Y-145890175D03*
X176302284Y-147322066D03*
X177734175Y-147915175D03*
X179166066Y-147322066D03*
X179759175Y-145890175D03*
D11*
X177734175Y-145890175D03*
D12*
X99166066Y-144458284D03*
X97734175Y-143865175D03*
X96302284Y-144458284D03*
X95709175Y-145890175D03*
X96302284Y-147322066D03*
X97734175Y-147915175D03*
X99166066Y-147322066D03*
X99759175Y-145890175D03*
D11*
X97734175Y-145890175D03*
D12*
X169166066Y-74458284D03*
X167734175Y-73865175D03*
X166302284Y-74458284D03*
X165709175Y-75890175D03*
X166302284Y-77322066D03*
X167734175Y-77915175D03*
X169166066Y-77322066D03*
X169759175Y-75890175D03*
D11*
X167734175Y-75890175D03*
D13*
X98602800Y-89973800D03*
X98602800Y-87473800D03*
X98602800Y-84973800D03*
D14*
X98602800Y-82473800D03*
D10*
X174846000Y-81026000D03*
D13*
X100403000Y-116332000D03*
X102903000Y-116332000D03*
X105403000Y-116332000D03*
X107903000Y-116332000D03*
X110403000Y-116332000D03*
D14*
X112903000Y-116332000D03*
D15*
X159385000Y-99568000D03*
X161925000Y-99568000D03*
X159385000Y-102108000D03*
X161925000Y-102108000D03*
X159385000Y-104648000D03*
D16*
X161925000Y-104648000D03*
D17*
X160655000Y-124841000D03*
X168275000Y-109601000D03*
X160655000Y-122301000D03*
X168275000Y-112141000D03*
X160655000Y-119761000D03*
X168275000Y-114681000D03*
X160655000Y-117221000D03*
X168275000Y-117221000D03*
X160655000Y-114681000D03*
X168275000Y-119761000D03*
X160655000Y-112141000D03*
X168275000Y-122301000D03*
X160655000Y-109601000D03*
D18*
X168275000Y-124841000D03*
D19*
X96731000Y-130556000D03*
D20*
X117221000Y-130556000D03*
D21*
X107061000Y-81661000D03*
X107061000Y-84201000D03*
D22*
X107061000Y-86741000D03*
D14*
X106934000Y-145415000D03*
D13*
X104434000Y-145415000D03*
X113324000Y-145415000D03*
D14*
X115824000Y-145415000D03*
D13*
X122214000Y-145415000D03*
D14*
X124714000Y-145415000D03*
X133604000Y-145415000D03*
D13*
X131104000Y-145415000D03*
X139994000Y-145415000D03*
D14*
X142494000Y-145415000D03*
X151344000Y-145415000D03*
D13*
X148844000Y-145415000D03*
X157734000Y-145415000D03*
D14*
X160234000Y-145415000D03*
X169124000Y-145415000D03*
D13*
X166624000Y-145415000D03*
D21*
X99187000Y-108839000D03*
X101727000Y-108839000D03*
D22*
X104267000Y-108839000D03*
D23*
X140716000Y-91512000D03*
X140716000Y-96012000D03*
X134216000Y-91512000D03*
X134216000Y-96012000D03*
D24*
X130048000Y-95504000D03*
D25*
X119888000Y-95504000D03*
D23*
X151511000Y-79303000D03*
X151511000Y-74803000D03*
X158011000Y-79303000D03*
X158011000Y-74803000D03*
D26*
X107823000Y-103886000D03*
X107823000Y-101986000D03*
D18*
X120904000Y-106934000D03*
D17*
X153924000Y-99314000D03*
X123444000Y-106934000D03*
X151384000Y-99314000D03*
X125984000Y-106934000D03*
X148844000Y-99314000D03*
X128524000Y-106934000D03*
X146304000Y-99314000D03*
X131064000Y-106934000D03*
X143764000Y-99314000D03*
X133604000Y-106934000D03*
X141224000Y-99314000D03*
X136144000Y-106934000D03*
X138684000Y-99314000D03*
X138684000Y-106934000D03*
X136144000Y-99314000D03*
X141224000Y-106934000D03*
X133604000Y-99314000D03*
X143764000Y-106934000D03*
X131064000Y-99314000D03*
X146304000Y-106934000D03*
X128524000Y-99314000D03*
X148844000Y-106934000D03*
X125984000Y-99314000D03*
X151384000Y-106934000D03*
X123444000Y-99314000D03*
X153924000Y-106934000D03*
X120904000Y-99314000D03*
D27*
X139065000Y-111125000D03*
X143945000Y-111125000D03*
D17*
X153670000Y-130937000D03*
X120650000Y-115697000D03*
X151130000Y-130937000D03*
X123190000Y-115697000D03*
X148590000Y-130937000D03*
X125730000Y-115697000D03*
X146050000Y-130937000D03*
X128270000Y-115697000D03*
X143510000Y-130937000D03*
X130810000Y-115697000D03*
X140970000Y-130937000D03*
X133350000Y-115697000D03*
X138430000Y-130937000D03*
X135890000Y-115697000D03*
X135890000Y-130937000D03*
X138430000Y-115697000D03*
X133350000Y-130937000D03*
X140970000Y-115697000D03*
X130810000Y-130937000D03*
X143510000Y-115697000D03*
X128270000Y-130937000D03*
X146050000Y-115697000D03*
X125730000Y-130937000D03*
X148590000Y-115697000D03*
X123190000Y-130937000D03*
X151130000Y-115697000D03*
X120650000Y-130937000D03*
D18*
X153670000Y-115697000D03*
D13*
X117094000Y-86995000D03*
D14*
X117094000Y-84495000D03*
D28*
X122300000Y-83264000D03*
X127000000Y-80264000D03*
X127000000Y-86264000D03*
D10*
X104846000Y-131026000D03*
M02*
