%TF.GenerationSoftware,KiCad,Pcbnew,(5.0-dev-4122-gf60c251)*%
%TF.CreationDate,2018-06-11T17:10:56+01:00*%
%TF.ProjectId,ThermocoupleLogger,546865726D6F636F75706C654C6F6767,ca9ed02408*%
%TF.SameCoordinates,Original*%
%TF.FileFunction,Copper,L1,Top,Signal*%
%TF.FilePolarity,Positive*%
%FSLAX46Y46*%
G04 Gerber Fmt 4.6, Leading zero omitted, Abs format (unit mm)*
G04 Created by KiCad (PCBNEW (5.0-dev-4122-gf60c251)) date Monday, 11 June 2018 at 17:10:56*
%MOMM*%
%LPD*%
G01*
G04 APERTURE LIST*
%ADD10C,5.400000*%
%ADD11C,0.800000*%
%ADD12R,2.600000X1.600000*%
%ADD13C,1.750000*%
%ADD14R,1.750000X1.750000*%
%ADD15R,1.500000X0.970000*%
%ADD16R,1.200000X2.200000*%
%ADD17R,1.600000X1.400000*%
%ADD18C,0.100000*%
%ADD19C,1.100000*%
%ADD20C,0.600000*%
%ADD21R,0.700000X1.600000*%
%ADD22O,1.700000X1.700000*%
%ADD23R,1.700000X1.700000*%
%ADD24O,1.600000X1.600000*%
%ADD25R,1.600000X1.600000*%
%ADD26R,1.550000X0.600000*%
%ADD27R,0.700000X1.300000*%
%ADD28R,3.000000X3.000000*%
%ADD29C,3.000000*%
%ADD30R,1.200000X0.900000*%
%ADD31O,1.800000X1.800000*%
%ADD32R,1.800000X1.800000*%
%ADD33R,1.500000X2.000000*%
%ADD34R,3.800000X2.000000*%
%ADD35R,1.000000X1.250000*%
%ADD36R,1.220000X0.650000*%
%ADD37C,2.000000*%
%ADD38R,1.250000X1.000000*%
%ADD39R,1.600000X3.000000*%
%ADD40R,1.300000X0.700000*%
%ADD41O,2.200000X2.200000*%
%ADD42R,2.200000X2.200000*%
%ADD43C,1.000000*%
%ADD44C,1.500000*%
%ADD45R,3.500000X3.500000*%
%ADD46R,0.450000X0.600000*%
%ADD47C,0.500000*%
%ADD48C,0.250000*%
%ADD49C,0.254000*%
G04 APERTURE END LIST*
D10*
X97734000Y-75890170D03*
D11*
X99759000Y-75890170D03*
X99165891Y-77322061D03*
X97734000Y-77915170D03*
X96302109Y-77322061D03*
X95709000Y-75890170D03*
X96302109Y-74458279D03*
X97734000Y-73865170D03*
X99165891Y-74458279D03*
X179166066Y-144458284D03*
X177734175Y-143865175D03*
X176302284Y-144458284D03*
X175709175Y-145890175D03*
X176302284Y-147322066D03*
X177734175Y-147915175D03*
X179166066Y-147322066D03*
X179759175Y-145890175D03*
D10*
X177734175Y-145890175D03*
D11*
X99166066Y-144458284D03*
X97734175Y-143865175D03*
X96302284Y-144458284D03*
X95709175Y-145890175D03*
X96302284Y-147322066D03*
X97734175Y-147915175D03*
X99166066Y-147322066D03*
X99759175Y-145890175D03*
D10*
X97734175Y-145890175D03*
D11*
X169166066Y-74458284D03*
X167734175Y-73865175D03*
X166302284Y-74458284D03*
X165709175Y-75890175D03*
X166302284Y-77322066D03*
X167734175Y-77915175D03*
X169166066Y-77322066D03*
X169759175Y-75890175D03*
D10*
X167734175Y-75890175D03*
D12*
X109242000Y-76200000D03*
X105642000Y-76200000D03*
D13*
X98602800Y-89973800D03*
X98602800Y-87473800D03*
X98602800Y-84973800D03*
D14*
X98602800Y-82473800D03*
D15*
X142494000Y-138110000D03*
X142494000Y-140020000D03*
X157734000Y-140020000D03*
X157734000Y-138110000D03*
X106934000Y-138059200D03*
X106934000Y-139969200D03*
X104444800Y-139969200D03*
X104444800Y-138059200D03*
X113284000Y-140020000D03*
X113284000Y-138110000D03*
X122174000Y-140020000D03*
X122174000Y-138110000D03*
X131064000Y-140020000D03*
X131064000Y-138110000D03*
X139954000Y-140020000D03*
X139954000Y-138110000D03*
X148844000Y-140020000D03*
X148844000Y-138110000D03*
X166624000Y-140020000D03*
X166624000Y-138110000D03*
X115824000Y-138110000D03*
X115824000Y-140020000D03*
X124714000Y-138110000D03*
X124714000Y-140020000D03*
X133604000Y-138110000D03*
X133604000Y-140020000D03*
X151384000Y-138110000D03*
X151384000Y-140020000D03*
X160274000Y-138110000D03*
X160274000Y-140020000D03*
X169164000Y-138110000D03*
X169164000Y-140020000D03*
D16*
X133177000Y-77530000D03*
X148677000Y-77530000D03*
D17*
X134077000Y-87130000D03*
D18*
G36*
X148978955Y-86481324D02*
X149005650Y-86485284D01*
X149031828Y-86491841D01*
X149057238Y-86500933D01*
X149081634Y-86512472D01*
X149104782Y-86526346D01*
X149126458Y-86542422D01*
X149146454Y-86560546D01*
X149164578Y-86580542D01*
X149180654Y-86602218D01*
X149194528Y-86625366D01*
X149206067Y-86649762D01*
X149215159Y-86675172D01*
X149221716Y-86701350D01*
X149225676Y-86728045D01*
X149227000Y-86755000D01*
X149227000Y-87505000D01*
X149225676Y-87531955D01*
X149221716Y-87558650D01*
X149215159Y-87584828D01*
X149206067Y-87610238D01*
X149194528Y-87634634D01*
X149180654Y-87657782D01*
X149164578Y-87679458D01*
X149146454Y-87699454D01*
X149126458Y-87717578D01*
X149104782Y-87733654D01*
X149081634Y-87747528D01*
X149057238Y-87759067D01*
X149031828Y-87768159D01*
X149005650Y-87774716D01*
X148978955Y-87778676D01*
X148952000Y-87780000D01*
X148402000Y-87780000D01*
X148375045Y-87778676D01*
X148348350Y-87774716D01*
X148322172Y-87768159D01*
X148296762Y-87759067D01*
X148272366Y-87747528D01*
X148249218Y-87733654D01*
X148227542Y-87717578D01*
X148207546Y-87699454D01*
X148189422Y-87679458D01*
X148173346Y-87657782D01*
X148159472Y-87634634D01*
X148147933Y-87610238D01*
X148138841Y-87584828D01*
X148132284Y-87558650D01*
X148128324Y-87531955D01*
X148127000Y-87505000D01*
X148127000Y-86755000D01*
X148128324Y-86728045D01*
X148132284Y-86701350D01*
X148138841Y-86675172D01*
X148147933Y-86649762D01*
X148159472Y-86625366D01*
X148173346Y-86602218D01*
X148189422Y-86580542D01*
X148207546Y-86560546D01*
X148227542Y-86542422D01*
X148249218Y-86526346D01*
X148272366Y-86512472D01*
X148296762Y-86500933D01*
X148322172Y-86491841D01*
X148348350Y-86485284D01*
X148375045Y-86481324D01*
X148402000Y-86480000D01*
X148952000Y-86480000D01*
X148978955Y-86481324D01*
X148978955Y-86481324D01*
G37*
D19*
X148677000Y-87130000D03*
D18*
G36*
X147691703Y-86830722D02*
X147706264Y-86832882D01*
X147720543Y-86836459D01*
X147734403Y-86841418D01*
X147747710Y-86847712D01*
X147760336Y-86855280D01*
X147772159Y-86864048D01*
X147783066Y-86873934D01*
X147792952Y-86884841D01*
X147801720Y-86896664D01*
X147809288Y-86909290D01*
X147815582Y-86922597D01*
X147820541Y-86936457D01*
X147824118Y-86950736D01*
X147826278Y-86965297D01*
X147827000Y-86980000D01*
X147827000Y-88280000D01*
X147826278Y-88294703D01*
X147824118Y-88309264D01*
X147820541Y-88323543D01*
X147815582Y-88337403D01*
X147809288Y-88350710D01*
X147801720Y-88363336D01*
X147792952Y-88375159D01*
X147783066Y-88386066D01*
X147772159Y-88395952D01*
X147760336Y-88404720D01*
X147747710Y-88412288D01*
X147734403Y-88418582D01*
X147720543Y-88423541D01*
X147706264Y-88427118D01*
X147691703Y-88429278D01*
X147677000Y-88430000D01*
X147377000Y-88430000D01*
X147362297Y-88429278D01*
X147347736Y-88427118D01*
X147333457Y-88423541D01*
X147319597Y-88418582D01*
X147306290Y-88412288D01*
X147293664Y-88404720D01*
X147281841Y-88395952D01*
X147270934Y-88386066D01*
X147261048Y-88375159D01*
X147252280Y-88363336D01*
X147244712Y-88350710D01*
X147238418Y-88337403D01*
X147233459Y-88323543D01*
X147229882Y-88309264D01*
X147227722Y-88294703D01*
X147227000Y-88280000D01*
X147227000Y-86980000D01*
X147227722Y-86965297D01*
X147229882Y-86950736D01*
X147233459Y-86936457D01*
X147238418Y-86922597D01*
X147244712Y-86909290D01*
X147252280Y-86896664D01*
X147261048Y-86884841D01*
X147270934Y-86873934D01*
X147281841Y-86864048D01*
X147293664Y-86855280D01*
X147306290Y-86847712D01*
X147319597Y-86841418D01*
X147333457Y-86836459D01*
X147347736Y-86832882D01*
X147362297Y-86830722D01*
X147377000Y-86830000D01*
X147677000Y-86830000D01*
X147691703Y-86830722D01*
X147691703Y-86830722D01*
G37*
D20*
X147527000Y-87630000D03*
D21*
X145327000Y-87630000D03*
X146427000Y-87630000D03*
X144227000Y-87630000D03*
X143127000Y-87630000D03*
X142027000Y-87630000D03*
X138727000Y-87630000D03*
X139827000Y-87630000D03*
X140927000Y-87630000D03*
D13*
X100403000Y-116332000D03*
X102903000Y-116332000D03*
X105403000Y-116332000D03*
X107903000Y-116332000D03*
X110403000Y-116332000D03*
D14*
X112903000Y-116332000D03*
D22*
X159385000Y-99568000D03*
X161925000Y-99568000D03*
X159385000Y-102108000D03*
X161925000Y-102108000D03*
X159385000Y-104648000D03*
D23*
X161925000Y-104648000D03*
D24*
X160655000Y-124841000D03*
X168275000Y-109601000D03*
X160655000Y-122301000D03*
X168275000Y-112141000D03*
X160655000Y-119761000D03*
X168275000Y-114681000D03*
X160655000Y-117221000D03*
X168275000Y-117221000D03*
X160655000Y-114681000D03*
X168275000Y-119761000D03*
X160655000Y-112141000D03*
X168275000Y-122301000D03*
X160655000Y-109601000D03*
D25*
X168275000Y-124841000D03*
D26*
X116365000Y-102362000D03*
X116365000Y-103632000D03*
X116365000Y-104902000D03*
X116365000Y-106172000D03*
X110965000Y-106172000D03*
X110965000Y-104902000D03*
X110965000Y-103632000D03*
X110965000Y-102362000D03*
D27*
X109027000Y-111379000D03*
X107127000Y-111379000D03*
D28*
X96731000Y-130556000D03*
D29*
X117221000Y-130556000D03*
D30*
X158115000Y-92074000D03*
X158115000Y-88774000D03*
D31*
X107061000Y-81661000D03*
X107061000Y-84201000D03*
D32*
X107061000Y-86741000D03*
D33*
X104507000Y-97384000D03*
X109107000Y-97384000D03*
X106807000Y-97384000D03*
D34*
X106807000Y-91084000D03*
D35*
X106664000Y-136017000D03*
X104664000Y-136017000D03*
X149114000Y-136017000D03*
X151114000Y-136017000D03*
X142224000Y-136017000D03*
X140224000Y-136017000D03*
X113554000Y-136017000D03*
X115554000Y-136017000D03*
X124444000Y-136017000D03*
X122444000Y-136017000D03*
X131334000Y-136017000D03*
X133334000Y-136017000D03*
X160004000Y-136017000D03*
X158004000Y-136017000D03*
X166894000Y-136017000D03*
X168894000Y-136017000D03*
D14*
X106934000Y-145415000D03*
D13*
X104434000Y-145415000D03*
X113324000Y-145415000D03*
D14*
X115824000Y-145415000D03*
D13*
X122214000Y-145415000D03*
D14*
X124714000Y-145415000D03*
X133604000Y-145415000D03*
D13*
X131104000Y-145415000D03*
X139994000Y-145415000D03*
D14*
X142494000Y-145415000D03*
X151344000Y-145415000D03*
D13*
X148844000Y-145415000D03*
X157734000Y-145415000D03*
D14*
X160234000Y-145415000D03*
X169124000Y-145415000D03*
D13*
X166624000Y-145415000D03*
D31*
X99187000Y-108839000D03*
X101727000Y-108839000D03*
D32*
X104267000Y-108839000D03*
D36*
X115276000Y-79248000D03*
X117896000Y-78298000D03*
X117896000Y-80198000D03*
D37*
X140716000Y-91512000D03*
X140716000Y-96012000D03*
X134216000Y-91512000D03*
X134216000Y-96012000D03*
D35*
X112538000Y-75692000D03*
X114538000Y-75692000D03*
D38*
X148971000Y-109871000D03*
X148971000Y-111871000D03*
D39*
X114173000Y-96688000D03*
X114173000Y-92288000D03*
D27*
X107127000Y-109156500D03*
X109027000Y-109156500D03*
D35*
X106950000Y-106172000D03*
X108950000Y-106172000D03*
X108823000Y-100076000D03*
X106823000Y-100076000D03*
D38*
X158115000Y-122571000D03*
X158115000Y-124571000D03*
D40*
X129159000Y-110556000D03*
X129159000Y-112456000D03*
D41*
X130048000Y-95504000D03*
D42*
X119888000Y-95504000D03*
D35*
X101235000Y-100330000D03*
X103235000Y-100330000D03*
D40*
X112776000Y-80198000D03*
X112776000Y-78298000D03*
D37*
X151511000Y-79303000D03*
X151511000Y-74803000D03*
X158011000Y-79303000D03*
X158011000Y-74803000D03*
D38*
X133604000Y-112379000D03*
X133604000Y-110379000D03*
D43*
X107823000Y-103886000D03*
X107823000Y-101986000D03*
D25*
X120904000Y-106934000D03*
D24*
X153924000Y-99314000D03*
X123444000Y-106934000D03*
X151384000Y-99314000D03*
X125984000Y-106934000D03*
X148844000Y-99314000D03*
X128524000Y-106934000D03*
X146304000Y-99314000D03*
X131064000Y-106934000D03*
X143764000Y-99314000D03*
X133604000Y-106934000D03*
X141224000Y-99314000D03*
X136144000Y-106934000D03*
X138684000Y-99314000D03*
X138684000Y-106934000D03*
X136144000Y-99314000D03*
X141224000Y-106934000D03*
X133604000Y-99314000D03*
X143764000Y-106934000D03*
X131064000Y-99314000D03*
X146304000Y-106934000D03*
X128524000Y-99314000D03*
X148844000Y-106934000D03*
X125984000Y-99314000D03*
X151384000Y-106934000D03*
X123444000Y-99314000D03*
X153924000Y-106934000D03*
X120904000Y-99314000D03*
D40*
X148717000Y-96835000D03*
X148717000Y-94935000D03*
X144018000Y-91755000D03*
X144018000Y-89855000D03*
X151765000Y-94935000D03*
X151765000Y-96835000D03*
D27*
X101285000Y-102870000D03*
X103185000Y-102870000D03*
D44*
X139065000Y-111125000D03*
X143945000Y-111125000D03*
D24*
X153670000Y-130937000D03*
X120650000Y-115697000D03*
X151130000Y-130937000D03*
X123190000Y-115697000D03*
X148590000Y-130937000D03*
X125730000Y-115697000D03*
X146050000Y-130937000D03*
X128270000Y-115697000D03*
X143510000Y-130937000D03*
X130810000Y-115697000D03*
X140970000Y-130937000D03*
X133350000Y-115697000D03*
X138430000Y-130937000D03*
X135890000Y-115697000D03*
X135890000Y-130937000D03*
X138430000Y-115697000D03*
X133350000Y-130937000D03*
X140970000Y-115697000D03*
X130810000Y-130937000D03*
X143510000Y-115697000D03*
X128270000Y-130937000D03*
X146050000Y-115697000D03*
X125730000Y-130937000D03*
X148590000Y-115697000D03*
X123190000Y-130937000D03*
X151130000Y-115697000D03*
X120650000Y-130937000D03*
D25*
X153670000Y-115697000D03*
D13*
X117094000Y-86995000D03*
D14*
X117094000Y-84495000D03*
D30*
X154432000Y-88774000D03*
X154432000Y-92074000D03*
X150977600Y-88774000D03*
X150977600Y-92074000D03*
D45*
X122300000Y-83264000D03*
X127000000Y-80264000D03*
X127000000Y-86264000D03*
D46*
X111252000Y-83452000D03*
X111252000Y-85552000D03*
D11*
X150368000Y-87122000D03*
X111252000Y-76200000D03*
X112776000Y-77216000D03*
X154813000Y-75946000D03*
X112014000Y-111760000D03*
X109220000Y-104775000D03*
X110236000Y-100838000D03*
X134620000Y-109347000D03*
X150495000Y-109855000D03*
X157480000Y-98298000D03*
X117221000Y-97917000D03*
X133985000Y-89027000D03*
X146050000Y-85979000D03*
X134747000Y-77470000D03*
X115241326Y-108369435D03*
X112649000Y-104902006D03*
X105283000Y-114300000D03*
X112268000Y-114300000D03*
D47*
X134747000Y-77470000D02*
X134747000Y-86460000D01*
X134747000Y-86460000D02*
X134077000Y-87130000D01*
X148677000Y-77530000D02*
X148784000Y-77530000D01*
X148784000Y-77530000D02*
X151511000Y-74803000D01*
X150977600Y-88774000D02*
X150977600Y-87731600D01*
X150977600Y-87731600D02*
X150368000Y-87122000D01*
X148677000Y-87130000D02*
X150360000Y-87130000D01*
X150360000Y-87130000D02*
X150368000Y-87122000D01*
X111252000Y-76200000D02*
X112030000Y-76200000D01*
X109242000Y-76200000D02*
X111252000Y-76200000D01*
X112776000Y-77216000D02*
X112776000Y-75930000D01*
X112776000Y-78298000D02*
X112776000Y-77216000D01*
X112030000Y-76200000D02*
X112538000Y-75692000D01*
X112776000Y-75930000D02*
X112538000Y-75692000D01*
X158011000Y-74803000D02*
X155956000Y-74803000D01*
X155956000Y-74803000D02*
X154813000Y-75946000D01*
X151511000Y-74803000D02*
X153670000Y-74803000D01*
X153670000Y-74803000D02*
X154813000Y-75946000D01*
X158115000Y-122571000D02*
X160385000Y-122571000D01*
X160385000Y-122571000D02*
X160655000Y-122301000D01*
X154432000Y-88774000D02*
X158115000Y-88774000D01*
X150977600Y-88774000D02*
X154432000Y-88774000D01*
X112776000Y-78298000D02*
X112476000Y-78298000D01*
X107960999Y-82813001D02*
X107960999Y-83301001D01*
X107960999Y-83301001D02*
X107061000Y-84201000D01*
X111485000Y-100076000D02*
X114173000Y-97388000D01*
X108823000Y-100076000D02*
X108823000Y-100187000D01*
X158750000Y-99568000D02*
X157480000Y-98298000D01*
X133604000Y-110379000D02*
X133604000Y-110363000D01*
X134216000Y-91512000D02*
X134216000Y-89258000D01*
X104235000Y-100330000D02*
X106807000Y-97758000D01*
X106807000Y-98060000D02*
X108823000Y-100076000D01*
X114173000Y-97388000D02*
X114173000Y-96688000D01*
X148677000Y-87130000D02*
X148677000Y-77530000D01*
X108950000Y-106172000D02*
X108950000Y-105045000D01*
X146050000Y-85979000D02*
X148016002Y-85979000D01*
X108950000Y-106172000D02*
X110965000Y-106172000D01*
X106807000Y-97758000D02*
X106807000Y-97384000D01*
X106807000Y-97384000D02*
X106807000Y-98060000D01*
X148971000Y-109871000D02*
X150479000Y-109871000D01*
X150479000Y-109871000D02*
X150495000Y-109855000D01*
X144578000Y-85979000D02*
X146050000Y-85979000D01*
X133985000Y-89027000D02*
X133985000Y-87222000D01*
X148016002Y-85979000D02*
X148677000Y-86639998D01*
X108823000Y-100076000D02*
X111485000Y-100076000D01*
X144227000Y-86330000D02*
X144578000Y-85979000D01*
X148677000Y-86639998D02*
X148677000Y-87130000D01*
X108823000Y-100076000D02*
X109474000Y-100076000D01*
X133985000Y-87222000D02*
X134077000Y-87130000D01*
X133604000Y-110363000D02*
X134620000Y-109347000D01*
X134216000Y-89258000D02*
X133985000Y-89027000D01*
X109474000Y-100076000D02*
X110236000Y-100838000D01*
X103235000Y-100330000D02*
X104235000Y-100330000D01*
X144227000Y-87630000D02*
X144227000Y-86330000D01*
X159385000Y-99568000D02*
X158750000Y-99568000D01*
X108950000Y-105045000D02*
X109220000Y-104775000D01*
X110403000Y-113371000D02*
X112014000Y-111760000D01*
X110403000Y-116332000D02*
X110403000Y-113371000D01*
X114173000Y-96688000D02*
X115992000Y-96688000D01*
X115992000Y-96688000D02*
X117221000Y-97917000D01*
X106807000Y-97384000D02*
X106807000Y-98044000D01*
D48*
X106807000Y-97384000D02*
X106807000Y-98298000D01*
X133177000Y-77530000D02*
X134687000Y-77530000D01*
X134687000Y-77530000D02*
X134747000Y-77470000D01*
X148677000Y-87130000D02*
X148677000Y-87030000D01*
X148677000Y-87030000D02*
X147626000Y-85979000D01*
X147626000Y-85979000D02*
X146050000Y-85979000D01*
D47*
X116967000Y-84709000D02*
X117983000Y-85725000D01*
X117983000Y-85725000D02*
X122089000Y-85725000D01*
X122089000Y-85725000D02*
X122300000Y-85514000D01*
X122300000Y-85514000D02*
X122300000Y-83264000D01*
X115316000Y-116459000D02*
X115241326Y-116384326D01*
X115241326Y-116384326D02*
X115241326Y-108935120D01*
X115241326Y-108935120D02*
X115241326Y-108369435D01*
X101219000Y-130556000D02*
X115316000Y-116459000D01*
X110965000Y-104902000D02*
X112648994Y-104902000D01*
X112648994Y-104902000D02*
X112649000Y-104902006D01*
X96731000Y-130556000D02*
X101219000Y-130556000D01*
X110965000Y-104902000D02*
X111252000Y-104902000D01*
X98602800Y-82473800D02*
X106248200Y-82473800D01*
X106248200Y-82473800D02*
X107061000Y-81661000D01*
X105642000Y-76200000D02*
X105642000Y-80242000D01*
X105642000Y-80242000D02*
X107061000Y-81661000D01*
X105283000Y-114300000D02*
X103356000Y-114300000D01*
X103356000Y-114300000D02*
X102903000Y-114753000D01*
X112903000Y-116332000D02*
X112903000Y-114935000D01*
X112903000Y-114935000D02*
X112268000Y-114300000D01*
X102903000Y-116332000D02*
X102903000Y-114753000D01*
X102903000Y-114753000D02*
X106277000Y-111379000D01*
X106277000Y-111379000D02*
X107127000Y-111379000D01*
X107127000Y-109093000D02*
X107127000Y-111379000D01*
X112903000Y-116332000D02*
X112903000Y-115570000D01*
X112903000Y-115570000D02*
X113157000Y-115316000D01*
X98602800Y-82473800D02*
X99977800Y-82473800D01*
X99977800Y-82473800D02*
X103257000Y-85753000D01*
X103257000Y-85753000D02*
X103257000Y-95884000D01*
X103257000Y-95884000D02*
X104507000Y-97134000D01*
X104507000Y-97134000D02*
X104507000Y-97384000D01*
X102284999Y-101504999D02*
X102284999Y-104250999D01*
X102284999Y-104250999D02*
X102428000Y-104394000D01*
X102428000Y-104394000D02*
X107127000Y-109093000D01*
X107127000Y-109093000D02*
X107127000Y-107943000D01*
X107127000Y-107943000D02*
X107172988Y-107897012D01*
X107172988Y-107897012D02*
X112193989Y-107897011D01*
X112193989Y-107897011D02*
X114553999Y-105537001D01*
X114553999Y-105537001D02*
X114554008Y-103377990D01*
X114554008Y-103377990D02*
X115149999Y-102781999D01*
X115149999Y-102781999D02*
X116365000Y-102781999D01*
X116365000Y-102781999D02*
X116365000Y-102362000D01*
X103257000Y-97384000D02*
X104507000Y-97384000D01*
X128270000Y-130937000D02*
X119299999Y-121966999D01*
X119299999Y-121966999D02*
X119299999Y-115048999D01*
X119299999Y-115048999D02*
X121892998Y-112456000D01*
X121892998Y-112456000D02*
X128009000Y-112456000D01*
X128009000Y-112456000D02*
X129159000Y-112456000D01*
X101235000Y-100330000D02*
X101235000Y-100455000D01*
X101235000Y-100455000D02*
X102284999Y-101504999D01*
X160655000Y-117221000D02*
X162005001Y-115870999D01*
X162005001Y-115870999D02*
X162005001Y-107268001D01*
X162005001Y-107268001D02*
X159385000Y-104648000D01*
X147099998Y-104648000D02*
X159385000Y-104648000D01*
X142565997Y-100113999D02*
X147099998Y-104648000D01*
X129459000Y-112456000D02*
X133630999Y-108284001D01*
X116365000Y-102362000D02*
X115890000Y-102362000D01*
X141224000Y-99314000D02*
X142023999Y-100113999D01*
X142023999Y-100113999D02*
X142565997Y-100113999D01*
X133630999Y-108284001D02*
X134793999Y-108284001D01*
X134793999Y-108284001D02*
X136144000Y-106934000D01*
X129159000Y-112456000D02*
X129459000Y-112456000D01*
X136144000Y-104394000D02*
X141224000Y-99314000D01*
X136144000Y-106934000D02*
X136144000Y-104394000D01*
X103257000Y-97384000D02*
X101235000Y-99406000D01*
X101235000Y-99406000D02*
X101235000Y-100330000D01*
D48*
X138642998Y-85979000D02*
X141426000Y-85979000D01*
X141426000Y-85979000D02*
X142027000Y-86580000D01*
X142027000Y-86580000D02*
X142027000Y-87630000D01*
X114173000Y-92288000D02*
X114173000Y-92988000D01*
X114173000Y-92988000D02*
X118214001Y-97029001D01*
X118214001Y-97029001D02*
X130808001Y-97029001D01*
X130808001Y-97029001D02*
X138051999Y-89785003D01*
X138051999Y-89785003D02*
X138051999Y-86569999D01*
X138051999Y-86569999D02*
X138642998Y-85979000D01*
X109107000Y-97384000D02*
X109107000Y-97134000D01*
X109107000Y-97134000D02*
X113953000Y-92288000D01*
X113953000Y-92288000D02*
X114173000Y-92288000D01*
D47*
X112275000Y-85979000D02*
X112500000Y-85979000D01*
X112500000Y-85979000D02*
X113553998Y-85979000D01*
X111252000Y-85552000D02*
X111977000Y-85552000D01*
X111977000Y-85552000D02*
X112404000Y-85979000D01*
X112404000Y-85979000D02*
X112500000Y-85979000D01*
X107061000Y-86741000D02*
X110063000Y-86741000D01*
X110063000Y-86741000D02*
X111252000Y-85552000D01*
X115276000Y-84256998D02*
X113807998Y-85725000D01*
X113807998Y-85725000D02*
X113553998Y-85979000D01*
X114538000Y-76073000D02*
X117596002Y-76073000D01*
X117596002Y-76073000D02*
X119056001Y-77532999D01*
X119056001Y-77532999D02*
X119056001Y-79063001D01*
X119056001Y-79063001D02*
X118871002Y-79248000D01*
X118871002Y-79248000D02*
X115276000Y-79248000D01*
X115276000Y-79248000D02*
X115276000Y-84256998D01*
X119888000Y-95504000D02*
X119888000Y-92313002D01*
X119888000Y-92313002D02*
X113553998Y-85979000D01*
D48*
X130189002Y-133223000D02*
X110208000Y-133223000D01*
X110208000Y-133223000D02*
X107414000Y-136017000D01*
X107414000Y-136017000D02*
X106664000Y-136017000D01*
X128270000Y-115697000D02*
X128270000Y-116828370D01*
X128270000Y-116828370D02*
X131935001Y-120493371D01*
X131935001Y-120493371D02*
X131935001Y-131477001D01*
X131935001Y-131477001D02*
X130189002Y-133223000D01*
X106934000Y-136287000D02*
X106664000Y-136017000D01*
X106934000Y-138242000D02*
X106934000Y-136287000D01*
X108016057Y-132664943D02*
X129794000Y-132664943D01*
X107891057Y-132664943D02*
X108016057Y-132664943D01*
X104664000Y-135892000D02*
X107891057Y-132664943D01*
X104664000Y-136017000D02*
X104664000Y-135892000D01*
X130810000Y-130937000D02*
X130010001Y-131736999D01*
X130010001Y-131736999D02*
X130010001Y-132448942D01*
X129794000Y-132664943D02*
X130022972Y-132435971D01*
X130010001Y-132448942D02*
X129794000Y-132664943D01*
X104394000Y-136287000D02*
X104664000Y-136017000D01*
X104394000Y-138242000D02*
X104394000Y-136287000D01*
X130375402Y-133673011D02*
X115772989Y-133673011D01*
X115772989Y-133673011D02*
X113554000Y-135892000D01*
X113554000Y-135892000D02*
X113554000Y-136017000D01*
X132311414Y-131736999D02*
X130375402Y-133673011D01*
X132550001Y-131736999D02*
X132311414Y-131736999D01*
X133350000Y-130937000D02*
X132550001Y-131736999D01*
X113284000Y-136287000D02*
X113554000Y-136017000D01*
X113284000Y-138242000D02*
X113284000Y-136287000D01*
X116304000Y-136017000D02*
X118197978Y-134123022D01*
X118197978Y-134123022D02*
X130561802Y-134123022D01*
X115554000Y-136017000D02*
X116304000Y-136017000D01*
X132223823Y-132461000D02*
X133491002Y-132461000D01*
X130561802Y-134123022D02*
X132223823Y-132461000D01*
X133491002Y-132461000D02*
X134475001Y-131477001D01*
X134475001Y-131477001D02*
X134475001Y-119362001D01*
X134475001Y-119362001D02*
X131609999Y-116496999D01*
X131609999Y-116496999D02*
X130810000Y-115697000D01*
X115824000Y-136287000D02*
X115554000Y-136017000D01*
X115824000Y-138242000D02*
X115824000Y-136287000D01*
X134149999Y-116496999D02*
X133350000Y-115697000D01*
X137015001Y-119362001D02*
X134149999Y-116496999D01*
X137015001Y-132099410D02*
X137015001Y-119362001D01*
X135753389Y-133361022D02*
X137015001Y-132099410D01*
X132596623Y-133361022D02*
X135753389Y-133361022D01*
X130934602Y-135023044D02*
X132596623Y-133361022D01*
X126187956Y-135023044D02*
X130934602Y-135023044D01*
X125194000Y-136017000D02*
X126187956Y-135023044D01*
X124444000Y-136017000D02*
X125194000Y-136017000D01*
X124714000Y-136287000D02*
X124444000Y-136017000D01*
X124714000Y-138242000D02*
X124714000Y-136287000D01*
X130748202Y-134573033D02*
X132410223Y-132911011D01*
X135090001Y-131736999D02*
X135890000Y-130937000D01*
X133915989Y-132911011D02*
X135090001Y-131736999D01*
X132410223Y-132911011D02*
X133915989Y-132911011D01*
X122444000Y-136017000D02*
X122444000Y-135892000D01*
X122444000Y-135892000D02*
X123762967Y-134573033D01*
X123762967Y-134573033D02*
X130748202Y-134573033D01*
X122174000Y-136287000D02*
X122444000Y-136017000D01*
X122174000Y-138242000D02*
X122174000Y-136287000D01*
X131334000Y-135892000D02*
X133414967Y-133811033D01*
X135939789Y-133811033D02*
X137630001Y-132120821D01*
X137630001Y-132120821D02*
X137630001Y-131736999D01*
X131334000Y-136017000D02*
X131334000Y-135892000D01*
X133414967Y-133811033D02*
X135939789Y-133811033D01*
X137630001Y-131736999D02*
X138430000Y-130937000D01*
X131064000Y-138242000D02*
X131064000Y-136287000D01*
X131064000Y-136287000D02*
X131334000Y-136017000D01*
X133334000Y-136017000D02*
X135015002Y-136017000D01*
X135015002Y-136017000D02*
X139555001Y-131477001D01*
X139555001Y-131477001D02*
X139555001Y-119362001D01*
X139555001Y-119362001D02*
X136689999Y-116496999D01*
X136689999Y-116496999D02*
X135890000Y-115697000D01*
X133604000Y-136287000D02*
X133334000Y-136017000D01*
X133604000Y-138242000D02*
X133604000Y-136287000D01*
X138430000Y-115697000D02*
X142224000Y-119491000D01*
X142224000Y-119491000D02*
X142224000Y-136017000D01*
X142494000Y-138242000D02*
X142494000Y-136287000D01*
X142494000Y-136287000D02*
X142224000Y-136017000D01*
X140224000Y-136017000D02*
X140224000Y-131683000D01*
X140224000Y-131683000D02*
X140970000Y-130937000D01*
X139954000Y-138242000D02*
X139954000Y-136287000D01*
X139954000Y-136287000D02*
X140224000Y-136017000D01*
X148844000Y-138115000D02*
X148844000Y-136287000D01*
X148844000Y-136287000D02*
X149114000Y-136017000D01*
X143510000Y-130937000D02*
X143510000Y-132068370D01*
X143510000Y-132068370D02*
X147458630Y-136017000D01*
X147458630Y-136017000D02*
X148364000Y-136017000D01*
X148364000Y-136017000D02*
X149114000Y-136017000D01*
X151114000Y-135892000D02*
X151114000Y-136017000D01*
X144635001Y-119362001D02*
X144635001Y-131187003D01*
X149534170Y-134931992D02*
X149669177Y-135066999D01*
X149669177Y-135066999D02*
X150288999Y-135066999D01*
X150288999Y-135066999D02*
X151114000Y-135892000D01*
X140970000Y-115697000D02*
X144635001Y-119362001D01*
X144635001Y-131187003D02*
X148379988Y-134931990D01*
X148379988Y-134931990D02*
X149534170Y-134931992D01*
X151114000Y-136017000D02*
X151114000Y-137972000D01*
X151114000Y-137972000D02*
X151384000Y-138242000D01*
X151384000Y-135652000D02*
X151016178Y-135652000D01*
X143510000Y-115697000D02*
X147464999Y-119651999D01*
X147464999Y-119651999D02*
X147464999Y-131589999D01*
X147464999Y-131589999D02*
X150041977Y-134166977D01*
X150041977Y-134166977D02*
X158278977Y-134166977D01*
X158278977Y-134166977D02*
X160004000Y-135892000D01*
X160004000Y-135892000D02*
X160004000Y-136017000D01*
X160274000Y-138242000D02*
X160274000Y-136287000D01*
X160274000Y-136287000D02*
X160004000Y-136017000D01*
X146050000Y-130937000D02*
X146849999Y-131736999D01*
X146849999Y-131736999D02*
X146975588Y-131736999D01*
X146975588Y-131736999D02*
X149855577Y-134616988D01*
X149855577Y-134616988D02*
X155853988Y-134616988D01*
X155853988Y-134616988D02*
X157254000Y-136017000D01*
X157254000Y-136017000D02*
X158004000Y-136017000D01*
X157734000Y-138242000D02*
X157734000Y-136287000D01*
X157734000Y-136287000D02*
X158004000Y-136017000D01*
X166144000Y-136017000D02*
X166894000Y-136017000D01*
X163252589Y-136017000D02*
X166144000Y-136017000D01*
X160781600Y-133546011D02*
X163252589Y-136017000D01*
X151199011Y-133546011D02*
X160781600Y-133546011D01*
X148590000Y-130937000D02*
X151199011Y-133546011D01*
X166624000Y-138242000D02*
X166624000Y-136287000D01*
X166624000Y-136287000D02*
X166894000Y-136017000D01*
X162938999Y-135066999D02*
X162941000Y-135066999D01*
X162941000Y-135066999D02*
X168068999Y-135066999D01*
X146050000Y-115697000D02*
X150004999Y-119651999D01*
X150004999Y-119651999D02*
X150004999Y-131477001D01*
X150004999Y-131477001D02*
X151623998Y-133096000D01*
X151623998Y-133096000D02*
X160970001Y-133096000D01*
X160970001Y-133096000D02*
X162941000Y-135066999D01*
X168068999Y-135066999D02*
X168894000Y-135892000D01*
X168894000Y-135892000D02*
X168894000Y-136017000D01*
X169164000Y-138242000D02*
X169164000Y-136287000D01*
X169164000Y-136287000D02*
X168894000Y-136017000D01*
X158115000Y-124571000D02*
X160385000Y-124571000D01*
X160385000Y-124571000D02*
X160655000Y-124841000D01*
X151130000Y-115697000D02*
X151130000Y-117711000D01*
X151130000Y-117711000D02*
X157990000Y-124571000D01*
X157990000Y-124571000D02*
X158115000Y-124571000D01*
X139065000Y-111125000D02*
X134858000Y-111125000D01*
X134858000Y-111125000D02*
X134479000Y-111504000D01*
X134479000Y-111504000D02*
X134479000Y-111629000D01*
X134479000Y-111629000D02*
X133729000Y-112379000D01*
X133729000Y-112379000D02*
X133604000Y-112379000D01*
X139065000Y-109093000D02*
X139065000Y-111125000D01*
X141224000Y-106934000D02*
X139065000Y-109093000D01*
X143945000Y-111125000D02*
X148225000Y-111125000D01*
X148225000Y-111125000D02*
X148971000Y-111871000D01*
X143764000Y-106934000D02*
X143764000Y-110944000D01*
X143764000Y-110944000D02*
X143945000Y-111125000D01*
X106823000Y-100076000D02*
X106823000Y-100986000D01*
X106823000Y-100986000D02*
X107823000Y-101986000D01*
X110965000Y-102362000D02*
X108199000Y-102362000D01*
X108199000Y-102362000D02*
X107823000Y-101986000D01*
X110965000Y-103632000D02*
X108077000Y-103632000D01*
X108077000Y-103632000D02*
X107823000Y-103886000D01*
X107823000Y-103886000D02*
X107823000Y-106049000D01*
X107700000Y-106172000D02*
X106950000Y-106172000D01*
X107823000Y-106049000D02*
X107700000Y-106172000D01*
D47*
X127000000Y-80264000D02*
X129250000Y-80264000D01*
X130048000Y-81062000D02*
X130048000Y-93948366D01*
X129250000Y-80264000D02*
X130048000Y-81062000D01*
X130048000Y-93948366D02*
X130048000Y-95504000D01*
X117896000Y-80198000D02*
X126934000Y-80198000D01*
X126934000Y-80198000D02*
X127000000Y-80264000D01*
D48*
X120495888Y-80198000D02*
X119126000Y-80198000D01*
X119126000Y-80198000D02*
X117896000Y-80198000D01*
X127000000Y-80264000D02*
X119192000Y-80264000D01*
X119192000Y-80264000D02*
X119126000Y-80198000D01*
X112776000Y-80198000D02*
X112776000Y-81928000D01*
X112776000Y-81928000D02*
X112852000Y-82004000D01*
X112852000Y-82004000D02*
X112852000Y-82452000D01*
X112852000Y-82452000D02*
X111852000Y-83452000D01*
X111852000Y-83452000D02*
X111252000Y-83452000D01*
X117896000Y-78298000D02*
X114676000Y-78298000D01*
X114676000Y-78298000D02*
X112776000Y-80198000D01*
X148717000Y-94935000D02*
X149617000Y-94935000D01*
X149617000Y-94935000D02*
X150292001Y-94259999D01*
X150292001Y-94259999D02*
X152096001Y-94259999D01*
X152096001Y-94259999D02*
X153582000Y-92774000D01*
X154282000Y-92074000D02*
X154432000Y-92074000D01*
X153582000Y-92924000D02*
X153582000Y-92774000D01*
X153582000Y-92774000D02*
X154282000Y-92074000D01*
X148717000Y-94232587D02*
X148717000Y-94935000D01*
X145114401Y-90629988D02*
X148717000Y-94232587D01*
X142876988Y-90629988D02*
X145114401Y-90629988D01*
X140927000Y-88680000D02*
X142876988Y-90629988D01*
X140927000Y-87630000D02*
X140927000Y-88680000D01*
X151765000Y-94935000D02*
X153832000Y-94935000D01*
X153832000Y-94935000D02*
X156693000Y-92074000D01*
X156693000Y-92074000D02*
X157265000Y-92074000D01*
X157265000Y-92074000D02*
X158115000Y-92074000D01*
X148414989Y-95709989D02*
X150690011Y-95709989D01*
X150690011Y-95709989D02*
X151465000Y-94935000D01*
X151465000Y-94935000D02*
X151765000Y-94935000D01*
X147806999Y-95610001D02*
X148315001Y-95610001D01*
X148315001Y-95610001D02*
X148414989Y-95709989D01*
X144928001Y-91079999D02*
X144993001Y-91144999D01*
X144993001Y-91144999D02*
X144993001Y-92796003D01*
X144993001Y-92796003D02*
X147806999Y-95610001D01*
X139827000Y-87630000D02*
X139827000Y-88265002D01*
X139827000Y-88265002D02*
X142641997Y-91079999D01*
X142641997Y-91079999D02*
X144928001Y-91079999D01*
X147741999Y-95545001D02*
X147806999Y-95610001D01*
X148590000Y-91982000D02*
X148682000Y-92074000D01*
X148682000Y-92074000D02*
X150977600Y-92074000D01*
X147992590Y-91982000D02*
X148590000Y-91982000D01*
X145865590Y-89855000D02*
X147992590Y-91982000D01*
X144018000Y-89855000D02*
X145865590Y-89855000D01*
X143127000Y-87630000D02*
X143127000Y-88964000D01*
X143127000Y-88964000D02*
X143118000Y-88973000D01*
X143118000Y-88973000D02*
X143118000Y-89255000D01*
X143118000Y-89255000D02*
X143718000Y-89855000D01*
X143718000Y-89855000D02*
X144018000Y-89855000D01*
X104444800Y-139964200D02*
X104444800Y-145404200D01*
X104444800Y-145404200D02*
X104434000Y-145415000D01*
X113284000Y-140015000D02*
X113284000Y-145375000D01*
X113284000Y-145375000D02*
X113324000Y-145415000D01*
X122174000Y-140015000D02*
X122174000Y-145375000D01*
X122174000Y-145375000D02*
X122214000Y-145415000D01*
X131104000Y-143637000D02*
X131104000Y-142875000D01*
X131104000Y-142875000D02*
X131104000Y-140502000D01*
X131104000Y-145415000D02*
X131104000Y-144177564D01*
X131104000Y-144177564D02*
X131104000Y-142875000D01*
X131104000Y-140502000D02*
X131064000Y-140462000D01*
X131064000Y-140462000D02*
X131064000Y-140142000D01*
X139994000Y-145415000D02*
X139994000Y-140055000D01*
X139994000Y-140055000D02*
X139954000Y-140015000D01*
X148844000Y-140142000D02*
X148844000Y-143510000D01*
X148844000Y-143510000D02*
X148844000Y-143637000D01*
X148844000Y-145415000D02*
X148844000Y-144177564D01*
X148844000Y-144177564D02*
X148844000Y-143510000D01*
X157734000Y-140142000D02*
X157734000Y-143510000D01*
X157734000Y-143510000D02*
X157734000Y-143637000D01*
X157734000Y-145415000D02*
X157734000Y-144177564D01*
X157734000Y-144177564D02*
X157734000Y-143510000D01*
X166624000Y-143637000D02*
X166624000Y-143510000D01*
X166624000Y-145415000D02*
X166624000Y-144177564D01*
X166624000Y-143510000D02*
X166624000Y-140142000D01*
X166624000Y-144177564D02*
X166624000Y-143510000D01*
X106934000Y-139964200D02*
X106934000Y-145415000D01*
X115824000Y-143637000D02*
X115824000Y-145415000D01*
X115824000Y-140142000D02*
X115824000Y-143637000D01*
X124714000Y-143637000D02*
X124714000Y-145415000D01*
X124714000Y-140142000D02*
X124714000Y-143637000D01*
X133604000Y-145415000D02*
X133604000Y-143637000D01*
X133604000Y-143637000D02*
X133604000Y-140142000D01*
X142494000Y-140142000D02*
X142494000Y-143510000D01*
X142494000Y-143510000D02*
X142494000Y-143637000D01*
X142494000Y-145415000D02*
X142494000Y-144290000D01*
X142494000Y-144290000D02*
X142494000Y-143510000D01*
X151344000Y-145415000D02*
X151344000Y-144290000D01*
X151344000Y-144290000D02*
X151384000Y-144250000D01*
X151384000Y-144250000D02*
X151384000Y-143597000D01*
X151384000Y-140142000D02*
X151384000Y-143597000D01*
X151384000Y-143597000D02*
X151344000Y-143637000D01*
X160234000Y-145415000D02*
X160234000Y-144290000D01*
X160234000Y-144290000D02*
X160274000Y-144250000D01*
X160274000Y-144250000D02*
X160274000Y-143597000D01*
X160274000Y-140142000D02*
X160274000Y-143597000D01*
X160274000Y-143597000D02*
X160234000Y-143637000D01*
X169124000Y-143637000D02*
X169124000Y-143510000D01*
X169124000Y-143510000D02*
X169124000Y-140182000D01*
X169124000Y-145415000D02*
X169124000Y-144290000D01*
X169124000Y-144290000D02*
X169124000Y-143510000D01*
X169124000Y-140182000D02*
X169164000Y-140142000D01*
X158011000Y-79303000D02*
X158011000Y-80717213D01*
X158011000Y-80717213D02*
X160147000Y-82853213D01*
X160147000Y-82853213D02*
X160147000Y-84709000D01*
X156210000Y-84709000D02*
X160147000Y-84709000D01*
X151511000Y-79303000D02*
X151511000Y-80717213D01*
X151511000Y-80717213D02*
X155502787Y-84709000D01*
X155502787Y-84709000D02*
X156210000Y-84709000D01*
X160147000Y-84709000D02*
X160147000Y-97790000D01*
X160147000Y-97790000D02*
X161925000Y-99568000D01*
X120777000Y-106747919D02*
X120777000Y-107535000D01*
X148844000Y-99314000D02*
X151638000Y-102108000D01*
X151638000Y-102108000D02*
X159385000Y-102108000D01*
X148717000Y-96835000D02*
X148717000Y-99187000D01*
X148717000Y-99187000D02*
X148844000Y-99314000D01*
X143764000Y-99314000D02*
X147733001Y-103283001D01*
X147733001Y-103283001D02*
X160749999Y-103283001D01*
X160749999Y-103283001D02*
X161075001Y-102957999D01*
X161075001Y-102957999D02*
X161925000Y-102108000D01*
X144018000Y-91755000D02*
X144018000Y-99060000D01*
X144018000Y-99060000D02*
X143764000Y-99314000D01*
X157838591Y-96118001D02*
X159385000Y-97664410D01*
X159385000Y-97664410D02*
X160749999Y-99029409D01*
X145327000Y-87630000D02*
X145327000Y-88680000D01*
X145327000Y-88680000D02*
X147903999Y-91256999D01*
X147903999Y-91256999D02*
X158933001Y-91256999D01*
X158933001Y-91256999D02*
X159385000Y-91708998D01*
X159385000Y-91708998D02*
X159385000Y-97664410D01*
X163100001Y-101543999D02*
X163100001Y-104572999D01*
X161550997Y-100932999D02*
X162489001Y-100932999D01*
X160749999Y-99029409D02*
X160749999Y-100132001D01*
X163100001Y-104572999D02*
X163025000Y-104648000D01*
X156337000Y-96118001D02*
X157838591Y-96118001D01*
X163025000Y-104648000D02*
X161925000Y-104648000D01*
X160749999Y-100132001D02*
X161550997Y-100932999D01*
X162489001Y-100932999D02*
X163100001Y-101543999D01*
X152019000Y-96118001D02*
X156337000Y-96118001D01*
X151403588Y-96118001D02*
X152019000Y-96118001D01*
X146304000Y-99314000D02*
X146304000Y-97662998D01*
X146304000Y-97662998D02*
X147806999Y-96159999D01*
X151361590Y-96159999D02*
X151403588Y-96118001D01*
X147806999Y-96159999D02*
X151361590Y-96159999D01*
X151871001Y-96118001D02*
X152019000Y-96118001D01*
X115340000Y-105546220D02*
X115264999Y-105621221D01*
X115264999Y-105621221D02*
X115229008Y-105621221D01*
X115229008Y-105621221D02*
X115229008Y-105816600D01*
X115229008Y-105816600D02*
X112473586Y-108572020D01*
X112473586Y-108572020D02*
X109547980Y-108572020D01*
X109547980Y-108572020D02*
X109027000Y-109093000D01*
X109027000Y-109093000D02*
X109027000Y-109393000D01*
X109027000Y-109393000D02*
X107902001Y-110517999D01*
X107902001Y-110517999D02*
X107902001Y-113832999D01*
X107902001Y-113832999D02*
X106277999Y-115457001D01*
X106277999Y-115457001D02*
X105403000Y-116332000D01*
X98602800Y-89973800D02*
X97727801Y-90848799D01*
X97727801Y-90848799D02*
X97727801Y-115432803D01*
X97727801Y-115432803D02*
X99926999Y-117632001D01*
X99926999Y-117632001D02*
X104102999Y-117632001D01*
X104102999Y-117632001D02*
X104528001Y-117206999D01*
X104528001Y-117206999D02*
X105403000Y-116332000D01*
X115340000Y-105452000D02*
X115890000Y-104902000D01*
X115890000Y-104902000D02*
X116365000Y-104902000D01*
X115340000Y-105546220D02*
X115340000Y-105452000D01*
X116365000Y-104902000D02*
X116840000Y-104902000D01*
X116840000Y-104902000D02*
X120904000Y-100838000D01*
X120904000Y-100838000D02*
X120904000Y-99314000D01*
X116492000Y-104775000D02*
X116365000Y-104902000D01*
X107028001Y-117206999D02*
X107903000Y-116332000D01*
X106152988Y-118082012D02*
X107028001Y-117206999D01*
X99740599Y-118082012D02*
X106152988Y-118082012D01*
X97277790Y-115619203D02*
X99740599Y-118082012D01*
X97277790Y-88798810D02*
X97277790Y-115619203D01*
X98602800Y-87473800D02*
X97277790Y-88798810D01*
X109027000Y-111379000D02*
X109027000Y-115208000D01*
X109027000Y-115208000D02*
X107903000Y-116332000D01*
X116365000Y-106172000D02*
X116272019Y-106172000D01*
X116272019Y-106172000D02*
X111065019Y-111379000D01*
X111065019Y-111379000D02*
X109027000Y-111379000D01*
X116365000Y-106172000D02*
X116840000Y-106172000D01*
X116840000Y-106172000D02*
X122644001Y-100367999D01*
X122644001Y-100367999D02*
X122644001Y-100113999D01*
X122644001Y-100113999D02*
X123444000Y-99314000D01*
X116365000Y-106172000D02*
X115809000Y-106172000D01*
X116492000Y-106045000D02*
X116365000Y-106172000D01*
X101285000Y-102870000D02*
X101285000Y-106741000D01*
X101285000Y-106741000D02*
X99187000Y-108839000D01*
X101092000Y-109855000D02*
X101092000Y-115643000D01*
X101092000Y-109728000D02*
X101092000Y-109855000D01*
X101092000Y-109855000D02*
X101092000Y-109474000D01*
X101092000Y-109474000D02*
X101727000Y-108839000D01*
X101092000Y-115643000D02*
X100403000Y-116332000D01*
X103185000Y-102870000D02*
X103185000Y-104117002D01*
X103185000Y-104117002D02*
X106215989Y-107147991D01*
X106215989Y-107147991D02*
X108102600Y-107147991D01*
X108102600Y-107147991D02*
X108176610Y-107222001D01*
X108176610Y-107222001D02*
X111755001Y-107222001D01*
X111755001Y-107222001D02*
X112165001Y-106812001D01*
X112165001Y-106812001D02*
X112165001Y-106782999D01*
X112165001Y-106782999D02*
X113878992Y-105069008D01*
X113878992Y-105069008D02*
X113878999Y-103098391D01*
X113878999Y-103098391D02*
X118788391Y-98188999D01*
X118788391Y-98188999D02*
X132478999Y-98188999D01*
X132478999Y-98188999D02*
X133604000Y-99314000D01*
X151765000Y-96835000D02*
X151765000Y-98933000D01*
X151765000Y-98933000D02*
X151384000Y-99314000D01*
X129159000Y-110556000D02*
X129159000Y-107569000D01*
X129159000Y-107569000D02*
X128524000Y-106934000D01*
X134216000Y-96012000D02*
X134216000Y-97426213D01*
X134216000Y-97426213D02*
X134729001Y-97939214D01*
X134729001Y-97939214D02*
X134729001Y-100728999D01*
X134729001Y-100728999D02*
X128524000Y-106934000D01*
X140716000Y-96012000D02*
X134216000Y-96012000D01*
X118528988Y-122150596D02*
X118528988Y-114300000D01*
X125730000Y-129351608D02*
X118528988Y-122150596D01*
X125730000Y-130937000D02*
X125730000Y-129351608D01*
X118528988Y-114220401D02*
X118528988Y-114300000D01*
X131064000Y-99314000D02*
X124569001Y-105808999D01*
X124569001Y-105808999D02*
X119843999Y-105808999D01*
X119843999Y-105808999D02*
X118528988Y-107124010D01*
X118528988Y-107124010D02*
X118528988Y-114300000D01*
X123190000Y-129805630D02*
X123190000Y-130937000D01*
X123190000Y-127448019D02*
X123190000Y-129805630D01*
X118078977Y-122336996D02*
X123190000Y-127448019D01*
X118078977Y-114300000D02*
X118078977Y-122336996D01*
X122479012Y-105358988D02*
X119657599Y-105358988D01*
X128524000Y-99314000D02*
X122479012Y-105358988D01*
X119657599Y-105358988D02*
X118078977Y-106937610D01*
X118078977Y-106937610D02*
X118078977Y-114300000D01*
X118078977Y-114034001D02*
X118078977Y-114300000D01*
X125984000Y-99314000D02*
X125184001Y-100113999D01*
X125184001Y-100113999D02*
X124266177Y-100113999D01*
X124266177Y-100113999D02*
X117628966Y-106751210D01*
X117628966Y-106751210D02*
X117628966Y-122835966D01*
X117628966Y-122835966D02*
X120650000Y-125857000D01*
X120650000Y-125857000D02*
X120650000Y-130937000D01*
X160655000Y-109601000D02*
X160655000Y-112141000D01*
X153924000Y-106934000D02*
X157988000Y-106934000D01*
X157988000Y-106934000D02*
X160655000Y-109601000D01*
D49*
G36*
X164906898Y-74001049D02*
X164399175Y-75226802D01*
X164399175Y-76553548D01*
X164906898Y-77779301D01*
X165845049Y-78717452D01*
X167070802Y-79225175D01*
X168397548Y-79225175D01*
X169623301Y-78717452D01*
X170561452Y-77779301D01*
X171069175Y-76553548D01*
X171069175Y-75226802D01*
X170561452Y-74001049D01*
X169635403Y-73075000D01*
X182195000Y-73075000D01*
X182195001Y-148540000D01*
X179800753Y-148540000D01*
X180561452Y-147779301D01*
X181069175Y-146553548D01*
X181069175Y-145226802D01*
X180561452Y-144001049D01*
X179623301Y-143062898D01*
X178397548Y-142555175D01*
X177070802Y-142555175D01*
X175845049Y-143062898D01*
X174906898Y-144001049D01*
X174399175Y-145226802D01*
X174399175Y-146553548D01*
X174906898Y-147779301D01*
X175667597Y-148540000D01*
X99800753Y-148540000D01*
X100561452Y-147779301D01*
X101069175Y-146553548D01*
X101069175Y-145226802D01*
X100561452Y-144001049D01*
X99623301Y-143062898D01*
X98397548Y-142555175D01*
X97070802Y-142555175D01*
X95845049Y-143062898D01*
X94906898Y-144001049D01*
X94665000Y-144585043D01*
X94665000Y-143727462D01*
X94678419Y-143660000D01*
X94665000Y-143592538D01*
X94665000Y-132351891D01*
X94773191Y-132513809D01*
X94983235Y-132654157D01*
X95231000Y-132703440D01*
X98231000Y-132703440D01*
X98478765Y-132654157D01*
X98688809Y-132513809D01*
X98829157Y-132303765D01*
X98878440Y-132056000D01*
X98878440Y-131441000D01*
X101131839Y-131441000D01*
X101219000Y-131458337D01*
X101306161Y-131441000D01*
X101306165Y-131441000D01*
X101564310Y-131389652D01*
X101857049Y-131194049D01*
X101906425Y-131120153D01*
X102375528Y-130651050D01*
X102961000Y-130651050D01*
X102961000Y-131400950D01*
X103247974Y-132093767D01*
X103778233Y-132624026D01*
X104471050Y-132911000D01*
X105220950Y-132911000D01*
X105913767Y-132624026D01*
X106444026Y-132093767D01*
X106731000Y-131400950D01*
X106731000Y-130651050D01*
X106444026Y-129958233D01*
X105913767Y-129427974D01*
X105220950Y-129141000D01*
X104471050Y-129141000D01*
X103778233Y-129427974D01*
X103247974Y-129958233D01*
X102961000Y-130651050D01*
X102375528Y-130651050D01*
X115880157Y-117146422D01*
X115954049Y-117097049D01*
X116003422Y-117023157D01*
X116003424Y-117023155D01*
X116149652Y-116804310D01*
X116218337Y-116459000D01*
X116149652Y-116113690D01*
X116126326Y-116078780D01*
X116126326Y-108937442D01*
X116276326Y-108575309D01*
X116276326Y-108163561D01*
X116118757Y-107783155D01*
X115927211Y-107591609D01*
X116399381Y-107119440D01*
X116868966Y-107119440D01*
X116868967Y-122761114D01*
X116854078Y-122835966D01*
X116868967Y-122910818D01*
X116913063Y-123132503D01*
X117081038Y-123383895D01*
X117144494Y-123426295D01*
X119890000Y-126171802D01*
X119890001Y-129718956D01*
X119615423Y-129902423D01*
X119356000Y-130290677D01*
X119356000Y-130131322D01*
X119030966Y-129346620D01*
X118430380Y-128746034D01*
X117645678Y-128421000D01*
X116796322Y-128421000D01*
X116011620Y-128746034D01*
X115411034Y-129346620D01*
X115086000Y-130131322D01*
X115086000Y-130980678D01*
X115411034Y-131765380D01*
X115550597Y-131904943D01*
X107965905Y-131904943D01*
X107891057Y-131890055D01*
X107816209Y-131904943D01*
X107816205Y-131904943D01*
X107642662Y-131939463D01*
X107594519Y-131949039D01*
X107480941Y-132024930D01*
X107343128Y-132117014D01*
X107300728Y-132180470D01*
X104736639Y-134744560D01*
X104164000Y-134744560D01*
X103916235Y-134793843D01*
X103706191Y-134934191D01*
X103565843Y-135144235D01*
X103516560Y-135392000D01*
X103516560Y-136642000D01*
X103565843Y-136889765D01*
X103602791Y-136945061D01*
X103447035Y-136976043D01*
X103236991Y-137116391D01*
X103096643Y-137326435D01*
X103047360Y-137574200D01*
X103047360Y-138544200D01*
X103096643Y-138791965D01*
X103236991Y-139002009D01*
X103255236Y-139014200D01*
X103236991Y-139026391D01*
X103096643Y-139236435D01*
X103047360Y-139484200D01*
X103047360Y-140454200D01*
X103096643Y-140701965D01*
X103236991Y-140912009D01*
X103447035Y-141052357D01*
X103684800Y-141099651D01*
X103684801Y-144090916D01*
X103578654Y-144134884D01*
X103153884Y-144559654D01*
X102924000Y-145114642D01*
X102924000Y-145715358D01*
X103153884Y-146270346D01*
X103578654Y-146695116D01*
X104133642Y-146925000D01*
X104734358Y-146925000D01*
X105289346Y-146695116D01*
X105458496Y-146525966D01*
X105460843Y-146537765D01*
X105601191Y-146747809D01*
X105811235Y-146888157D01*
X106059000Y-146937440D01*
X107809000Y-146937440D01*
X108056765Y-146888157D01*
X108266809Y-146747809D01*
X108407157Y-146537765D01*
X108456440Y-146290000D01*
X108456440Y-144540000D01*
X108407157Y-144292235D01*
X108266809Y-144082191D01*
X108056765Y-143941843D01*
X107809000Y-143892560D01*
X107694000Y-143892560D01*
X107694000Y-141099651D01*
X107931765Y-141052357D01*
X108141809Y-140912009D01*
X108282157Y-140701965D01*
X108331440Y-140454200D01*
X108331440Y-139484200D01*
X108282157Y-139236435D01*
X108141809Y-139026391D01*
X108123564Y-139014200D01*
X108141809Y-139002009D01*
X108282157Y-138791965D01*
X108331440Y-138544200D01*
X108331440Y-137574200D01*
X108282157Y-137326435D01*
X108141809Y-137116391D01*
X107931765Y-136976043D01*
X107731168Y-136936142D01*
X107762157Y-136889765D01*
X107806053Y-136669082D01*
X107961929Y-136564929D01*
X108004331Y-136501470D01*
X110522802Y-133983000D01*
X114388198Y-133983000D01*
X113626638Y-134744560D01*
X113054000Y-134744560D01*
X112806235Y-134793843D01*
X112596191Y-134934191D01*
X112455843Y-135144235D01*
X112406560Y-135392000D01*
X112406560Y-136642000D01*
X112455843Y-136889765D01*
X112516793Y-136980983D01*
X112286235Y-137026843D01*
X112076191Y-137167191D01*
X111935843Y-137377235D01*
X111886560Y-137625000D01*
X111886560Y-138595000D01*
X111935843Y-138842765D01*
X112076191Y-139052809D01*
X112094436Y-139065000D01*
X112076191Y-139077191D01*
X111935843Y-139287235D01*
X111886560Y-139535000D01*
X111886560Y-140505000D01*
X111935843Y-140752765D01*
X112076191Y-140962809D01*
X112286235Y-141103157D01*
X112524000Y-141150451D01*
X112524001Y-144111959D01*
X112468654Y-144134884D01*
X112043884Y-144559654D01*
X111814000Y-145114642D01*
X111814000Y-145715358D01*
X112043884Y-146270346D01*
X112468654Y-146695116D01*
X113023642Y-146925000D01*
X113624358Y-146925000D01*
X114179346Y-146695116D01*
X114348496Y-146525966D01*
X114350843Y-146537765D01*
X114491191Y-146747809D01*
X114701235Y-146888157D01*
X114949000Y-146937440D01*
X116699000Y-146937440D01*
X116946765Y-146888157D01*
X117156809Y-146747809D01*
X117297157Y-146537765D01*
X117346440Y-146290000D01*
X117346440Y-144540000D01*
X117297157Y-144292235D01*
X117156809Y-144082191D01*
X116946765Y-143941843D01*
X116699000Y-143892560D01*
X116584000Y-143892560D01*
X116584000Y-141150451D01*
X116821765Y-141103157D01*
X117031809Y-140962809D01*
X117172157Y-140752765D01*
X117221440Y-140505000D01*
X117221440Y-139535000D01*
X117172157Y-139287235D01*
X117031809Y-139077191D01*
X117013564Y-139065000D01*
X117031809Y-139052809D01*
X117172157Y-138842765D01*
X117221440Y-138595000D01*
X117221440Y-137625000D01*
X117172157Y-137377235D01*
X117031809Y-137167191D01*
X116821765Y-137026843D01*
X116591207Y-136980983D01*
X116652157Y-136889765D01*
X116696053Y-136669082D01*
X116851929Y-136564929D01*
X116894331Y-136501470D01*
X118512781Y-134883022D01*
X121562770Y-134883022D01*
X121486191Y-134934191D01*
X121345843Y-135144235D01*
X121296560Y-135392000D01*
X121296560Y-136642000D01*
X121345843Y-136889765D01*
X121406793Y-136980983D01*
X121176235Y-137026843D01*
X120966191Y-137167191D01*
X120825843Y-137377235D01*
X120776560Y-137625000D01*
X120776560Y-138595000D01*
X120825843Y-138842765D01*
X120966191Y-139052809D01*
X120984436Y-139065000D01*
X120966191Y-139077191D01*
X120825843Y-139287235D01*
X120776560Y-139535000D01*
X120776560Y-140505000D01*
X120825843Y-140752765D01*
X120966191Y-140962809D01*
X121176235Y-141103157D01*
X121414000Y-141150451D01*
X121414001Y-144111959D01*
X121358654Y-144134884D01*
X120933884Y-144559654D01*
X120704000Y-145114642D01*
X120704000Y-145715358D01*
X120933884Y-146270346D01*
X121358654Y-146695116D01*
X121913642Y-146925000D01*
X122514358Y-146925000D01*
X123069346Y-146695116D01*
X123238496Y-146525966D01*
X123240843Y-146537765D01*
X123381191Y-146747809D01*
X123591235Y-146888157D01*
X123839000Y-146937440D01*
X125589000Y-146937440D01*
X125836765Y-146888157D01*
X126046809Y-146747809D01*
X126187157Y-146537765D01*
X126236440Y-146290000D01*
X126236440Y-144540000D01*
X126187157Y-144292235D01*
X126046809Y-144082191D01*
X125836765Y-143941843D01*
X125589000Y-143892560D01*
X125474000Y-143892560D01*
X125474000Y-141150451D01*
X125711765Y-141103157D01*
X125921809Y-140962809D01*
X126062157Y-140752765D01*
X126111440Y-140505000D01*
X126111440Y-139535000D01*
X126062157Y-139287235D01*
X125921809Y-139077191D01*
X125903564Y-139065000D01*
X125921809Y-139052809D01*
X126062157Y-138842765D01*
X126111440Y-138595000D01*
X126111440Y-137625000D01*
X126062157Y-137377235D01*
X125921809Y-137167191D01*
X125711765Y-137026843D01*
X125481207Y-136980983D01*
X125542157Y-136889765D01*
X125586053Y-136669082D01*
X125741929Y-136564929D01*
X125784331Y-136501470D01*
X126502758Y-135783044D01*
X130186560Y-135783044D01*
X130186560Y-136642000D01*
X130235843Y-136889765D01*
X130296793Y-136980983D01*
X130066235Y-137026843D01*
X129856191Y-137167191D01*
X129715843Y-137377235D01*
X129666560Y-137625000D01*
X129666560Y-138595000D01*
X129715843Y-138842765D01*
X129856191Y-139052809D01*
X129874436Y-139065000D01*
X129856191Y-139077191D01*
X129715843Y-139287235D01*
X129666560Y-139535000D01*
X129666560Y-140505000D01*
X129715843Y-140752765D01*
X129856191Y-140962809D01*
X130066235Y-141103157D01*
X130314000Y-141152440D01*
X130344001Y-141152440D01*
X130344000Y-142800148D01*
X130344000Y-144095390D01*
X130248654Y-144134884D01*
X129823884Y-144559654D01*
X129594000Y-145114642D01*
X129594000Y-145715358D01*
X129823884Y-146270346D01*
X130248654Y-146695116D01*
X130803642Y-146925000D01*
X131404358Y-146925000D01*
X131959346Y-146695116D01*
X132128496Y-146525966D01*
X132130843Y-146537765D01*
X132271191Y-146747809D01*
X132481235Y-146888157D01*
X132729000Y-146937440D01*
X134479000Y-146937440D01*
X134726765Y-146888157D01*
X134936809Y-146747809D01*
X135077157Y-146537765D01*
X135126440Y-146290000D01*
X135126440Y-144540000D01*
X135077157Y-144292235D01*
X134936809Y-144082191D01*
X134726765Y-143941843D01*
X134479000Y-143892560D01*
X134364000Y-143892560D01*
X134364000Y-141150451D01*
X134601765Y-141103157D01*
X134811809Y-140962809D01*
X134952157Y-140752765D01*
X135001440Y-140505000D01*
X135001440Y-139535000D01*
X134952157Y-139287235D01*
X134811809Y-139077191D01*
X134793564Y-139065000D01*
X134811809Y-139052809D01*
X134952157Y-138842765D01*
X135001440Y-138595000D01*
X135001440Y-137625000D01*
X134952157Y-137377235D01*
X134811809Y-137167191D01*
X134601765Y-137026843D01*
X134371207Y-136980983D01*
X134432157Y-136889765D01*
X134454587Y-136777000D01*
X134940155Y-136777000D01*
X135015002Y-136791888D01*
X135089849Y-136777000D01*
X135089854Y-136777000D01*
X135311539Y-136732904D01*
X135562931Y-136564929D01*
X135605333Y-136501470D01*
X139464001Y-132642803D01*
X139464000Y-134802018D01*
X139266191Y-134934191D01*
X139125843Y-135144235D01*
X139076560Y-135392000D01*
X139076560Y-136642000D01*
X139125843Y-136889765D01*
X139186793Y-136980983D01*
X138956235Y-137026843D01*
X138746191Y-137167191D01*
X138605843Y-137377235D01*
X138556560Y-137625000D01*
X138556560Y-138595000D01*
X138605843Y-138842765D01*
X138746191Y-139052809D01*
X138764436Y-139065000D01*
X138746191Y-139077191D01*
X138605843Y-139287235D01*
X138556560Y-139535000D01*
X138556560Y-140505000D01*
X138605843Y-140752765D01*
X138746191Y-140962809D01*
X138956235Y-141103157D01*
X139204000Y-141152440D01*
X139234001Y-141152440D01*
X139234000Y-144095390D01*
X139138654Y-144134884D01*
X138713884Y-144559654D01*
X138484000Y-145114642D01*
X138484000Y-145715358D01*
X138713884Y-146270346D01*
X139138654Y-146695116D01*
X139693642Y-146925000D01*
X140294358Y-146925000D01*
X140849346Y-146695116D01*
X141018496Y-146525966D01*
X141020843Y-146537765D01*
X141161191Y-146747809D01*
X141371235Y-146888157D01*
X141619000Y-146937440D01*
X143369000Y-146937440D01*
X143616765Y-146888157D01*
X143826809Y-146747809D01*
X143967157Y-146537765D01*
X144016440Y-146290000D01*
X144016440Y-144540000D01*
X143967157Y-144292235D01*
X143826809Y-144082191D01*
X143616765Y-143941843D01*
X143369000Y-143892560D01*
X143254000Y-143892560D01*
X143254000Y-141150451D01*
X143491765Y-141103157D01*
X143701809Y-140962809D01*
X143842157Y-140752765D01*
X143891440Y-140505000D01*
X143891440Y-139535000D01*
X143842157Y-139287235D01*
X143701809Y-139077191D01*
X143683564Y-139065000D01*
X143701809Y-139052809D01*
X143842157Y-138842765D01*
X143891440Y-138595000D01*
X143891440Y-137625000D01*
X143842157Y-137377235D01*
X143701809Y-137167191D01*
X143491765Y-137026843D01*
X143261207Y-136980983D01*
X143322157Y-136889765D01*
X143371440Y-136642000D01*
X143371440Y-135392000D01*
X143322157Y-135144235D01*
X143181809Y-134934191D01*
X142984000Y-134802018D01*
X142984000Y-132630951D01*
X143025528Y-132658699D01*
X146868300Y-136501472D01*
X146910701Y-136564929D01*
X147162093Y-136732904D01*
X147383778Y-136777000D01*
X147383782Y-136777000D01*
X147458629Y-136791888D01*
X147533476Y-136777000D01*
X147993413Y-136777000D01*
X148015843Y-136889765D01*
X148076793Y-136980983D01*
X147846235Y-137026843D01*
X147636191Y-137167191D01*
X147495843Y-137377235D01*
X147446560Y-137625000D01*
X147446560Y-138595000D01*
X147495843Y-138842765D01*
X147636191Y-139052809D01*
X147654436Y-139065000D01*
X147636191Y-139077191D01*
X147495843Y-139287235D01*
X147446560Y-139535000D01*
X147446560Y-140505000D01*
X147495843Y-140752765D01*
X147636191Y-140962809D01*
X147846235Y-141103157D01*
X148084000Y-141150451D01*
X148084001Y-143435143D01*
X148084000Y-143435148D01*
X148084000Y-144095390D01*
X147988654Y-144134884D01*
X147563884Y-144559654D01*
X147334000Y-145114642D01*
X147334000Y-145715358D01*
X147563884Y-146270346D01*
X147988654Y-146695116D01*
X148543642Y-146925000D01*
X149144358Y-146925000D01*
X149699346Y-146695116D01*
X149868496Y-146525966D01*
X149870843Y-146537765D01*
X150011191Y-146747809D01*
X150221235Y-146888157D01*
X150469000Y-146937440D01*
X152219000Y-146937440D01*
X152466765Y-146888157D01*
X152676809Y-146747809D01*
X152817157Y-146537765D01*
X152866440Y-146290000D01*
X152866440Y-144540000D01*
X152817157Y-144292235D01*
X152676809Y-144082191D01*
X152466765Y-143941843D01*
X152219000Y-143892560D01*
X152144000Y-143892560D01*
X152144000Y-143671848D01*
X152158888Y-143597000D01*
X152144000Y-143522152D01*
X152144000Y-141150451D01*
X152381765Y-141103157D01*
X152591809Y-140962809D01*
X152732157Y-140752765D01*
X152781440Y-140505000D01*
X152781440Y-139535000D01*
X152732157Y-139287235D01*
X152591809Y-139077191D01*
X152573564Y-139065000D01*
X152591809Y-139052809D01*
X152732157Y-138842765D01*
X152781440Y-138595000D01*
X152781440Y-137625000D01*
X152732157Y-137377235D01*
X152591809Y-137167191D01*
X152381765Y-137026843D01*
X152151207Y-136980983D01*
X152212157Y-136889765D01*
X152261440Y-136642000D01*
X152261440Y-135392000D01*
X152258454Y-135376988D01*
X155539187Y-135376988D01*
X156663670Y-136501472D01*
X156706071Y-136564929D01*
X156861947Y-136669082D01*
X156905843Y-136889765D01*
X156966793Y-136980983D01*
X156736235Y-137026843D01*
X156526191Y-137167191D01*
X156385843Y-137377235D01*
X156336560Y-137625000D01*
X156336560Y-138595000D01*
X156385843Y-138842765D01*
X156526191Y-139052809D01*
X156544436Y-139065000D01*
X156526191Y-139077191D01*
X156385843Y-139287235D01*
X156336560Y-139535000D01*
X156336560Y-140505000D01*
X156385843Y-140752765D01*
X156526191Y-140962809D01*
X156736235Y-141103157D01*
X156974000Y-141150451D01*
X156974001Y-143435143D01*
X156974000Y-143435148D01*
X156974000Y-144095390D01*
X156878654Y-144134884D01*
X156453884Y-144559654D01*
X156224000Y-145114642D01*
X156224000Y-145715358D01*
X156453884Y-146270346D01*
X156878654Y-146695116D01*
X157433642Y-146925000D01*
X158034358Y-146925000D01*
X158589346Y-146695116D01*
X158758496Y-146525966D01*
X158760843Y-146537765D01*
X158901191Y-146747809D01*
X159111235Y-146888157D01*
X159359000Y-146937440D01*
X161109000Y-146937440D01*
X161356765Y-146888157D01*
X161566809Y-146747809D01*
X161707157Y-146537765D01*
X161756440Y-146290000D01*
X161756440Y-144540000D01*
X161707157Y-144292235D01*
X161566809Y-144082191D01*
X161356765Y-143941843D01*
X161109000Y-143892560D01*
X161034000Y-143892560D01*
X161034000Y-143671848D01*
X161048888Y-143597000D01*
X161034000Y-143522152D01*
X161034000Y-141150451D01*
X161271765Y-141103157D01*
X161481809Y-140962809D01*
X161622157Y-140752765D01*
X161671440Y-140505000D01*
X161671440Y-139535000D01*
X161622157Y-139287235D01*
X161481809Y-139077191D01*
X161463564Y-139065000D01*
X161481809Y-139052809D01*
X161622157Y-138842765D01*
X161671440Y-138595000D01*
X161671440Y-137625000D01*
X161622157Y-137377235D01*
X161481809Y-137167191D01*
X161271765Y-137026843D01*
X161041207Y-136980983D01*
X161102157Y-136889765D01*
X161151440Y-136642000D01*
X161151440Y-135392000D01*
X161102157Y-135144235D01*
X160961809Y-134934191D01*
X160751765Y-134793843D01*
X160504000Y-134744560D01*
X159931362Y-134744560D01*
X159492812Y-134306011D01*
X160466799Y-134306011D01*
X162662259Y-136501472D01*
X162704660Y-136564929D01*
X162956052Y-136732904D01*
X163177737Y-136777000D01*
X163177741Y-136777000D01*
X163252588Y-136791888D01*
X163327435Y-136777000D01*
X165773413Y-136777000D01*
X165795843Y-136889765D01*
X165856793Y-136980983D01*
X165626235Y-137026843D01*
X165416191Y-137167191D01*
X165275843Y-137377235D01*
X165226560Y-137625000D01*
X165226560Y-138595000D01*
X165275843Y-138842765D01*
X165416191Y-139052809D01*
X165434436Y-139065000D01*
X165416191Y-139077191D01*
X165275843Y-139287235D01*
X165226560Y-139535000D01*
X165226560Y-140505000D01*
X165275843Y-140752765D01*
X165416191Y-140962809D01*
X165626235Y-141103157D01*
X165864001Y-141150451D01*
X165864000Y-143435148D01*
X165864000Y-144095390D01*
X165768654Y-144134884D01*
X165343884Y-144559654D01*
X165114000Y-145114642D01*
X165114000Y-145715358D01*
X165343884Y-146270346D01*
X165768654Y-146695116D01*
X166323642Y-146925000D01*
X166924358Y-146925000D01*
X167479346Y-146695116D01*
X167648496Y-146525966D01*
X167650843Y-146537765D01*
X167791191Y-146747809D01*
X168001235Y-146888157D01*
X168249000Y-146937440D01*
X169999000Y-146937440D01*
X170246765Y-146888157D01*
X170456809Y-146747809D01*
X170597157Y-146537765D01*
X170646440Y-146290000D01*
X170646440Y-144540000D01*
X170597157Y-144292235D01*
X170456809Y-144082191D01*
X170246765Y-143941843D01*
X169999000Y-143892560D01*
X169884000Y-143892560D01*
X169884000Y-141152440D01*
X169914000Y-141152440D01*
X170161765Y-141103157D01*
X170371809Y-140962809D01*
X170512157Y-140752765D01*
X170561440Y-140505000D01*
X170561440Y-139535000D01*
X170512157Y-139287235D01*
X170371809Y-139077191D01*
X170353564Y-139065000D01*
X170371809Y-139052809D01*
X170512157Y-138842765D01*
X170561440Y-138595000D01*
X170561440Y-137625000D01*
X170512157Y-137377235D01*
X170371809Y-137167191D01*
X170161765Y-137026843D01*
X169931207Y-136980983D01*
X169992157Y-136889765D01*
X170041440Y-136642000D01*
X170041440Y-135392000D01*
X169992157Y-135144235D01*
X169851809Y-134934191D01*
X169641765Y-134793843D01*
X169394000Y-134744560D01*
X168821361Y-134744560D01*
X168659330Y-134582529D01*
X168616928Y-134519070D01*
X168365536Y-134351095D01*
X168143851Y-134306999D01*
X168143846Y-134306999D01*
X168068999Y-134292111D01*
X167994152Y-134306999D01*
X163255802Y-134306999D01*
X161560332Y-132611530D01*
X161517930Y-132548071D01*
X161266538Y-132380096D01*
X161044853Y-132336000D01*
X161044848Y-132336000D01*
X160970001Y-132321112D01*
X160895154Y-132336000D01*
X153992317Y-132336000D01*
X154229909Y-132288740D01*
X154704577Y-131971577D01*
X155021740Y-131496909D01*
X155133113Y-130937000D01*
X155076234Y-130651050D01*
X172961000Y-130651050D01*
X172961000Y-131400950D01*
X173247974Y-132093767D01*
X173778233Y-132624026D01*
X174471050Y-132911000D01*
X175220950Y-132911000D01*
X175913767Y-132624026D01*
X176444026Y-132093767D01*
X176731000Y-131400950D01*
X176731000Y-130651050D01*
X176444026Y-129958233D01*
X175913767Y-129427974D01*
X175220950Y-129141000D01*
X174471050Y-129141000D01*
X173778233Y-129427974D01*
X173247974Y-129958233D01*
X172961000Y-130651050D01*
X155076234Y-130651050D01*
X155021740Y-130377091D01*
X154704577Y-129902423D01*
X154229909Y-129585260D01*
X153811333Y-129502000D01*
X153528667Y-129502000D01*
X153110091Y-129585260D01*
X152635423Y-129902423D01*
X152400000Y-130254758D01*
X152164577Y-129902423D01*
X151689909Y-129585260D01*
X151271333Y-129502000D01*
X150988667Y-129502000D01*
X150764999Y-129546490D01*
X150764999Y-119726845D01*
X150779887Y-119651998D01*
X150764999Y-119577151D01*
X150764999Y-119577147D01*
X150720903Y-119355462D01*
X150552928Y-119104070D01*
X150489472Y-119061670D01*
X148559801Y-117132000D01*
X148731333Y-117132000D01*
X149149909Y-117048740D01*
X149624577Y-116731577D01*
X149860000Y-116379242D01*
X150095423Y-116731577D01*
X150370001Y-116915044D01*
X150370001Y-117636148D01*
X150355112Y-117711000D01*
X150370001Y-117785852D01*
X150414097Y-118007537D01*
X150582072Y-118258929D01*
X150645528Y-118301329D01*
X156842560Y-124498362D01*
X156842560Y-125071000D01*
X156891843Y-125318765D01*
X157032191Y-125528809D01*
X157242235Y-125669157D01*
X157490000Y-125718440D01*
X158740000Y-125718440D01*
X158987765Y-125669157D01*
X159197809Y-125528809D01*
X159298674Y-125377855D01*
X159303260Y-125400909D01*
X159620423Y-125875577D01*
X160095091Y-126192740D01*
X160513667Y-126276000D01*
X160796333Y-126276000D01*
X161214909Y-126192740D01*
X161689577Y-125875577D01*
X162006740Y-125400909D01*
X162118113Y-124841000D01*
X162006740Y-124281091D01*
X161689577Y-123806423D01*
X161337242Y-123571000D01*
X161689577Y-123335577D01*
X162006740Y-122860909D01*
X162118113Y-122301000D01*
X162006740Y-121741091D01*
X161689577Y-121266423D01*
X161337242Y-121031000D01*
X161689577Y-120795577D01*
X162006740Y-120320909D01*
X162118113Y-119761000D01*
X162006740Y-119201091D01*
X161689577Y-118726423D01*
X161305892Y-118470053D01*
X161510134Y-118373389D01*
X161886041Y-117958423D01*
X162046904Y-117570039D01*
X161924915Y-117348000D01*
X160782000Y-117348000D01*
X160782000Y-117368000D01*
X160528000Y-117368000D01*
X160528000Y-117348000D01*
X159385085Y-117348000D01*
X159263096Y-117570039D01*
X159423959Y-117958423D01*
X159799866Y-118373389D01*
X160004108Y-118470053D01*
X159620423Y-118726423D01*
X159303260Y-119201091D01*
X159191887Y-119761000D01*
X159303260Y-120320909D01*
X159620423Y-120795577D01*
X159972758Y-121031000D01*
X159620423Y-121266423D01*
X159340071Y-121686000D01*
X159246459Y-121686000D01*
X159197809Y-121613191D01*
X158987765Y-121472843D01*
X158740000Y-121423560D01*
X157490000Y-121423560D01*
X157242235Y-121472843D01*
X157032191Y-121613191D01*
X156891843Y-121823235D01*
X156842560Y-122071000D01*
X156842560Y-122348758D01*
X151890000Y-117396199D01*
X151890000Y-116915043D01*
X152164577Y-116731577D01*
X152235735Y-116625082D01*
X152331673Y-116856698D01*
X152510301Y-117035327D01*
X152743690Y-117132000D01*
X153384250Y-117132000D01*
X153543000Y-116973250D01*
X153543000Y-115824000D01*
X153797000Y-115824000D01*
X153797000Y-116973250D01*
X153955750Y-117132000D01*
X154596310Y-117132000D01*
X154829699Y-117035327D01*
X155008327Y-116856698D01*
X155105000Y-116623309D01*
X155105000Y-115982750D01*
X154946250Y-115824000D01*
X153797000Y-115824000D01*
X153543000Y-115824000D01*
X153523000Y-115824000D01*
X153523000Y-115570000D01*
X153543000Y-115570000D01*
X153543000Y-114420750D01*
X153797000Y-114420750D01*
X153797000Y-115570000D01*
X154946250Y-115570000D01*
X155105000Y-115411250D01*
X155105000Y-114770691D01*
X155008327Y-114537302D01*
X154829699Y-114358673D01*
X154596310Y-114262000D01*
X153955750Y-114262000D01*
X153797000Y-114420750D01*
X153543000Y-114420750D01*
X153384250Y-114262000D01*
X152743690Y-114262000D01*
X152510301Y-114358673D01*
X152331673Y-114537302D01*
X152235735Y-114768918D01*
X152164577Y-114662423D01*
X151689909Y-114345260D01*
X151271333Y-114262000D01*
X150988667Y-114262000D01*
X150570091Y-114345260D01*
X150095423Y-114662423D01*
X149860000Y-115014758D01*
X149624577Y-114662423D01*
X149149909Y-114345260D01*
X148731333Y-114262000D01*
X148448667Y-114262000D01*
X148030091Y-114345260D01*
X147555423Y-114662423D01*
X147320000Y-115014758D01*
X147084577Y-114662423D01*
X146609909Y-114345260D01*
X146191333Y-114262000D01*
X145908667Y-114262000D01*
X145490091Y-114345260D01*
X145015423Y-114662423D01*
X144780000Y-115014758D01*
X144544577Y-114662423D01*
X144069909Y-114345260D01*
X143651333Y-114262000D01*
X143368667Y-114262000D01*
X142950091Y-114345260D01*
X142475423Y-114662423D01*
X142240000Y-115014758D01*
X142004577Y-114662423D01*
X141529909Y-114345260D01*
X141111333Y-114262000D01*
X140828667Y-114262000D01*
X140410091Y-114345260D01*
X139935423Y-114662423D01*
X139700000Y-115014758D01*
X139464577Y-114662423D01*
X138989909Y-114345260D01*
X138571333Y-114262000D01*
X138288667Y-114262000D01*
X137870091Y-114345260D01*
X137395423Y-114662423D01*
X137160000Y-115014758D01*
X136924577Y-114662423D01*
X136449909Y-114345260D01*
X136031333Y-114262000D01*
X135748667Y-114262000D01*
X135330091Y-114345260D01*
X134855423Y-114662423D01*
X134620000Y-115014758D01*
X134384577Y-114662423D01*
X133909909Y-114345260D01*
X133491333Y-114262000D01*
X133208667Y-114262000D01*
X132790091Y-114345260D01*
X132315423Y-114662423D01*
X132080000Y-115014758D01*
X131844577Y-114662423D01*
X131369909Y-114345260D01*
X130951333Y-114262000D01*
X130668667Y-114262000D01*
X130250091Y-114345260D01*
X129775423Y-114662423D01*
X129540000Y-115014758D01*
X129304577Y-114662423D01*
X128829909Y-114345260D01*
X128411333Y-114262000D01*
X128128667Y-114262000D01*
X127710091Y-114345260D01*
X127235423Y-114662423D01*
X127000000Y-115014758D01*
X126764577Y-114662423D01*
X126289909Y-114345260D01*
X125871333Y-114262000D01*
X125588667Y-114262000D01*
X125170091Y-114345260D01*
X124695423Y-114662423D01*
X124460000Y-115014758D01*
X124224577Y-114662423D01*
X123749909Y-114345260D01*
X123331333Y-114262000D01*
X123048667Y-114262000D01*
X122630091Y-114345260D01*
X122155423Y-114662423D01*
X121920000Y-115014758D01*
X121684577Y-114662423D01*
X121209909Y-114345260D01*
X120791333Y-114262000D01*
X120508667Y-114262000D01*
X120090091Y-114345260D01*
X119615423Y-114662423D01*
X119298260Y-115137091D01*
X119288988Y-115183704D01*
X119288988Y-112741750D01*
X127874000Y-112741750D01*
X127874000Y-112932309D01*
X127970673Y-113165698D01*
X128149301Y-113344327D01*
X128382690Y-113441000D01*
X128873250Y-113441000D01*
X129032000Y-113282250D01*
X129032000Y-112583000D01*
X129286000Y-112583000D01*
X129286000Y-113282250D01*
X129444750Y-113441000D01*
X129935310Y-113441000D01*
X130168699Y-113344327D01*
X130347327Y-113165698D01*
X130444000Y-112932309D01*
X130444000Y-112741750D01*
X130285250Y-112583000D01*
X129286000Y-112583000D01*
X129032000Y-112583000D01*
X128032750Y-112583000D01*
X127874000Y-112741750D01*
X119288988Y-112741750D01*
X119288988Y-107438811D01*
X119456560Y-107271240D01*
X119456560Y-107734000D01*
X119505843Y-107981765D01*
X119646191Y-108191809D01*
X119856235Y-108332157D01*
X120104000Y-108381440D01*
X121704000Y-108381440D01*
X121951765Y-108332157D01*
X122161809Y-108191809D01*
X122302157Y-107981765D01*
X122328785Y-107847894D01*
X122409423Y-107968577D01*
X122884091Y-108285740D01*
X123302667Y-108369000D01*
X123585333Y-108369000D01*
X124003909Y-108285740D01*
X124478577Y-107968577D01*
X124714000Y-107616242D01*
X124949423Y-107968577D01*
X125424091Y-108285740D01*
X125842667Y-108369000D01*
X126125333Y-108369000D01*
X126543909Y-108285740D01*
X127018577Y-107968577D01*
X127254000Y-107616242D01*
X127489423Y-107968577D01*
X127964091Y-108285740D01*
X128382667Y-108369000D01*
X128399001Y-108369000D01*
X128399000Y-109580440D01*
X128261235Y-109607843D01*
X128051191Y-109748191D01*
X127910843Y-109958235D01*
X127861560Y-110206000D01*
X127861560Y-110906000D01*
X127910843Y-111153765D01*
X128051191Y-111363809D01*
X128261235Y-111504157D01*
X128289209Y-111509721D01*
X128149301Y-111567673D01*
X127970673Y-111746302D01*
X127874000Y-111979691D01*
X127874000Y-112170250D01*
X128032750Y-112329000D01*
X129032000Y-112329000D01*
X129032000Y-112309000D01*
X129286000Y-112309000D01*
X129286000Y-112329000D01*
X130285250Y-112329000D01*
X130444000Y-112170250D01*
X130444000Y-111979691D01*
X130347327Y-111746302D01*
X130168699Y-111567673D01*
X130028791Y-111509721D01*
X130056765Y-111504157D01*
X130266809Y-111363809D01*
X130407157Y-111153765D01*
X130456440Y-110906000D01*
X130456440Y-110206000D01*
X130407157Y-109958235D01*
X130354214Y-109879000D01*
X132331560Y-109879000D01*
X132331560Y-110879000D01*
X132380843Y-111126765D01*
X132521191Y-111336809D01*
X132584334Y-111379000D01*
X132521191Y-111421191D01*
X132380843Y-111631235D01*
X132331560Y-111879000D01*
X132331560Y-112879000D01*
X132380843Y-113126765D01*
X132521191Y-113336809D01*
X132731235Y-113477157D01*
X132979000Y-113526440D01*
X134229000Y-113526440D01*
X134476765Y-113477157D01*
X134686809Y-113336809D01*
X134827157Y-113126765D01*
X134876440Y-112879000D01*
X134876440Y-112306362D01*
X134963473Y-112219329D01*
X135026929Y-112176929D01*
X135081737Y-112094903D01*
X135194903Y-111925538D01*
X135194903Y-111925537D01*
X135194904Y-111925536D01*
X135202967Y-111885000D01*
X137880688Y-111885000D01*
X137890853Y-111909540D01*
X138280460Y-112299147D01*
X138789506Y-112510000D01*
X139340494Y-112510000D01*
X139849540Y-112299147D01*
X140239147Y-111909540D01*
X140450000Y-111400494D01*
X140450000Y-110849506D01*
X140239147Y-110340460D01*
X139849540Y-109950853D01*
X139825000Y-109940688D01*
X139825000Y-109407801D01*
X140900114Y-108332688D01*
X141082667Y-108369000D01*
X141365333Y-108369000D01*
X141783909Y-108285740D01*
X142258577Y-107968577D01*
X142494000Y-107616242D01*
X142729423Y-107968577D01*
X143004000Y-108152044D01*
X143004001Y-110107312D01*
X142770853Y-110340460D01*
X142560000Y-110849506D01*
X142560000Y-111400494D01*
X142770853Y-111909540D01*
X143160460Y-112299147D01*
X143669506Y-112510000D01*
X144220494Y-112510000D01*
X144729540Y-112299147D01*
X145119147Y-111909540D01*
X145129312Y-111885000D01*
X147698560Y-111885000D01*
X147698560Y-112371000D01*
X147747843Y-112618765D01*
X147888191Y-112828809D01*
X148098235Y-112969157D01*
X148346000Y-113018440D01*
X149596000Y-113018440D01*
X149843765Y-112969157D01*
X150053809Y-112828809D01*
X150194157Y-112618765D01*
X150243440Y-112371000D01*
X150243440Y-111371000D01*
X150194157Y-111123235D01*
X150053809Y-110913191D01*
X149990666Y-110871000D01*
X150053809Y-110828809D01*
X150072796Y-110800393D01*
X150289126Y-110890000D01*
X150700874Y-110890000D01*
X151081280Y-110732431D01*
X151372431Y-110441280D01*
X151530000Y-110060874D01*
X151530000Y-109649126D01*
X151372431Y-109268720D01*
X151081280Y-108977569D01*
X150700874Y-108820000D01*
X150289126Y-108820000D01*
X150056049Y-108916543D01*
X150053809Y-108913191D01*
X149843765Y-108772843D01*
X149596000Y-108723560D01*
X148346000Y-108723560D01*
X148098235Y-108772843D01*
X147888191Y-108913191D01*
X147747843Y-109123235D01*
X147698560Y-109371000D01*
X147698560Y-110365000D01*
X145129312Y-110365000D01*
X145119147Y-110340460D01*
X144729540Y-109950853D01*
X144524000Y-109865716D01*
X144524000Y-108152043D01*
X144798577Y-107968577D01*
X145034000Y-107616242D01*
X145269423Y-107968577D01*
X145744091Y-108285740D01*
X146162667Y-108369000D01*
X146445333Y-108369000D01*
X146863909Y-108285740D01*
X147338577Y-107968577D01*
X147574000Y-107616242D01*
X147809423Y-107968577D01*
X148284091Y-108285740D01*
X148702667Y-108369000D01*
X148985333Y-108369000D01*
X149403909Y-108285740D01*
X149878577Y-107968577D01*
X150114000Y-107616242D01*
X150349423Y-107968577D01*
X150824091Y-108285740D01*
X151242667Y-108369000D01*
X151525333Y-108369000D01*
X151943909Y-108285740D01*
X152418577Y-107968577D01*
X152654000Y-107616242D01*
X152889423Y-107968577D01*
X153364091Y-108285740D01*
X153782667Y-108369000D01*
X154065333Y-108369000D01*
X154483909Y-108285740D01*
X154958577Y-107968577D01*
X155142043Y-107694000D01*
X157673199Y-107694000D01*
X159256312Y-109277114D01*
X159191887Y-109601000D01*
X159303260Y-110160909D01*
X159620423Y-110635577D01*
X159895000Y-110819044D01*
X159895001Y-110922956D01*
X159620423Y-111106423D01*
X159303260Y-111581091D01*
X159191887Y-112141000D01*
X159303260Y-112700909D01*
X159620423Y-113175577D01*
X159972758Y-113411000D01*
X159620423Y-113646423D01*
X159303260Y-114121091D01*
X159191887Y-114681000D01*
X159303260Y-115240909D01*
X159620423Y-115715577D01*
X160004108Y-115971947D01*
X159799866Y-116068611D01*
X159423959Y-116483577D01*
X159263096Y-116871961D01*
X159385085Y-117094000D01*
X160528000Y-117094000D01*
X160528000Y-117074000D01*
X160782000Y-117074000D01*
X160782000Y-117094000D01*
X161924915Y-117094000D01*
X162046904Y-116871961D01*
X161886041Y-116483577D01*
X161510134Y-116068611D01*
X161305892Y-115971947D01*
X161689577Y-115715577D01*
X162006740Y-115240909D01*
X162118113Y-114681000D01*
X162006740Y-114121091D01*
X161689577Y-113646423D01*
X161337242Y-113411000D01*
X161689577Y-113175577D01*
X162006740Y-112700909D01*
X162118113Y-112141000D01*
X162006740Y-111581091D01*
X161689577Y-111106423D01*
X161415000Y-110922957D01*
X161415000Y-110819043D01*
X161689577Y-110635577D01*
X162006740Y-110160909D01*
X162118113Y-109601000D01*
X166811887Y-109601000D01*
X166923260Y-110160909D01*
X167240423Y-110635577D01*
X167592758Y-110871000D01*
X167240423Y-111106423D01*
X166923260Y-111581091D01*
X166811887Y-112141000D01*
X166923260Y-112700909D01*
X167240423Y-113175577D01*
X167592758Y-113411000D01*
X167240423Y-113646423D01*
X166923260Y-114121091D01*
X166811887Y-114681000D01*
X166923260Y-115240909D01*
X167240423Y-115715577D01*
X167592758Y-115951000D01*
X167240423Y-116186423D01*
X166923260Y-116661091D01*
X166811887Y-117221000D01*
X166923260Y-117780909D01*
X167240423Y-118255577D01*
X167592758Y-118491000D01*
X167240423Y-118726423D01*
X166923260Y-119201091D01*
X166811887Y-119761000D01*
X166923260Y-120320909D01*
X167240423Y-120795577D01*
X167592758Y-121031000D01*
X167240423Y-121266423D01*
X166923260Y-121741091D01*
X166811887Y-122301000D01*
X166923260Y-122860909D01*
X167240423Y-123335577D01*
X167361106Y-123416215D01*
X167227235Y-123442843D01*
X167017191Y-123583191D01*
X166876843Y-123793235D01*
X166827560Y-124041000D01*
X166827560Y-125641000D01*
X166876843Y-125888765D01*
X167017191Y-126098809D01*
X167227235Y-126239157D01*
X167475000Y-126288440D01*
X169075000Y-126288440D01*
X169322765Y-126239157D01*
X169532809Y-126098809D01*
X169673157Y-125888765D01*
X169722440Y-125641000D01*
X169722440Y-124041000D01*
X169673157Y-123793235D01*
X169532809Y-123583191D01*
X169322765Y-123442843D01*
X169188894Y-123416215D01*
X169309577Y-123335577D01*
X169626740Y-122860909D01*
X169738113Y-122301000D01*
X169626740Y-121741091D01*
X169309577Y-121266423D01*
X168957242Y-121031000D01*
X169309577Y-120795577D01*
X169626740Y-120320909D01*
X169738113Y-119761000D01*
X169626740Y-119201091D01*
X169309577Y-118726423D01*
X168957242Y-118491000D01*
X169309577Y-118255577D01*
X169626740Y-117780909D01*
X169738113Y-117221000D01*
X169626740Y-116661091D01*
X169309577Y-116186423D01*
X168957242Y-115951000D01*
X169309577Y-115715577D01*
X169626740Y-115240909D01*
X169738113Y-114681000D01*
X169626740Y-114121091D01*
X169309577Y-113646423D01*
X168957242Y-113411000D01*
X169309577Y-113175577D01*
X169626740Y-112700909D01*
X169738113Y-112141000D01*
X169626740Y-111581091D01*
X169309577Y-111106423D01*
X168957242Y-110871000D01*
X169309577Y-110635577D01*
X169626740Y-110160909D01*
X169738113Y-109601000D01*
X169626740Y-109041091D01*
X169309577Y-108566423D01*
X168834909Y-108249260D01*
X168416333Y-108166000D01*
X168133667Y-108166000D01*
X167715091Y-108249260D01*
X167240423Y-108566423D01*
X166923260Y-109041091D01*
X166811887Y-109601000D01*
X162118113Y-109601000D01*
X162006740Y-109041091D01*
X161689577Y-108566423D01*
X161214909Y-108249260D01*
X160796333Y-108166000D01*
X160513667Y-108166000D01*
X160331114Y-108202312D01*
X158578331Y-106449530D01*
X158535929Y-106386071D01*
X158284537Y-106218096D01*
X158062852Y-106174000D01*
X158062847Y-106174000D01*
X157988000Y-106159112D01*
X157913153Y-106174000D01*
X155142043Y-106174000D01*
X154958577Y-105899423D01*
X154483909Y-105582260D01*
X154065333Y-105499000D01*
X153782667Y-105499000D01*
X153364091Y-105582260D01*
X152889423Y-105899423D01*
X152654000Y-106251758D01*
X152418577Y-105899423D01*
X151943909Y-105582260D01*
X151525333Y-105499000D01*
X151242667Y-105499000D01*
X150824091Y-105582260D01*
X150349423Y-105899423D01*
X150114000Y-106251758D01*
X149878577Y-105899423D01*
X149403909Y-105582260D01*
X148985333Y-105499000D01*
X148702667Y-105499000D01*
X148284091Y-105582260D01*
X147809423Y-105899423D01*
X147574000Y-106251758D01*
X147338577Y-105899423D01*
X146863909Y-105582260D01*
X146445333Y-105499000D01*
X146162667Y-105499000D01*
X145744091Y-105582260D01*
X145269423Y-105899423D01*
X145034000Y-106251758D01*
X144798577Y-105899423D01*
X144323909Y-105582260D01*
X143905333Y-105499000D01*
X143622667Y-105499000D01*
X143204091Y-105582260D01*
X142729423Y-105899423D01*
X142494000Y-106251758D01*
X142258577Y-105899423D01*
X141783909Y-105582260D01*
X141365333Y-105499000D01*
X141082667Y-105499000D01*
X140664091Y-105582260D01*
X140189423Y-105899423D01*
X139954000Y-106251758D01*
X139718577Y-105899423D01*
X139243909Y-105582260D01*
X138825333Y-105499000D01*
X138542667Y-105499000D01*
X138124091Y-105582260D01*
X137649423Y-105899423D01*
X137393053Y-106283108D01*
X137296389Y-106078866D01*
X136881423Y-105702959D01*
X136493039Y-105542096D01*
X136271000Y-105664085D01*
X136271000Y-106807000D01*
X136291000Y-106807000D01*
X136291000Y-107061000D01*
X136271000Y-107061000D01*
X136271000Y-108203915D01*
X136493039Y-108325904D01*
X136881423Y-108165041D01*
X137296389Y-107789134D01*
X137393053Y-107584892D01*
X137649423Y-107968577D01*
X138124091Y-108285740D01*
X138542667Y-108369000D01*
X138714199Y-108369000D01*
X138580530Y-108502669D01*
X138517071Y-108545071D01*
X138349096Y-108796464D01*
X138305000Y-109018149D01*
X138305000Y-109018153D01*
X138290112Y-109093000D01*
X138305000Y-109167847D01*
X138305000Y-109940688D01*
X138280460Y-109950853D01*
X137890853Y-110340460D01*
X137880688Y-110365000D01*
X134932847Y-110365000D01*
X134888305Y-110356140D01*
X135206280Y-110224431D01*
X135497431Y-109933280D01*
X135655000Y-109552874D01*
X135655000Y-109141126D01*
X135497431Y-108760720D01*
X135206280Y-108469569D01*
X134825874Y-108312000D01*
X134414126Y-108312000D01*
X134033720Y-108469569D01*
X133742569Y-108760720D01*
X133592569Y-109122852D01*
X133483862Y-109231560D01*
X132979000Y-109231560D01*
X132731235Y-109280843D01*
X132521191Y-109421191D01*
X132380843Y-109631235D01*
X132331560Y-109879000D01*
X130354214Y-109879000D01*
X130266809Y-109748191D01*
X130056765Y-109607843D01*
X129919000Y-109580440D01*
X129919000Y-107803317D01*
X130029423Y-107968577D01*
X130504091Y-108285740D01*
X130922667Y-108369000D01*
X131205333Y-108369000D01*
X131623909Y-108285740D01*
X132098577Y-107968577D01*
X132334000Y-107616242D01*
X132569423Y-107968577D01*
X133044091Y-108285740D01*
X133462667Y-108369000D01*
X133745333Y-108369000D01*
X134163909Y-108285740D01*
X134638577Y-107968577D01*
X134894947Y-107584892D01*
X134991611Y-107789134D01*
X135406577Y-108165041D01*
X135794961Y-108325904D01*
X136017000Y-108203915D01*
X136017000Y-107061000D01*
X135997000Y-107061000D01*
X135997000Y-106807000D01*
X136017000Y-106807000D01*
X136017000Y-105664085D01*
X135794961Y-105542096D01*
X135406577Y-105702959D01*
X134991611Y-106078866D01*
X134894947Y-106283108D01*
X134638577Y-105899423D01*
X134163909Y-105582260D01*
X133745333Y-105499000D01*
X133462667Y-105499000D01*
X133044091Y-105582260D01*
X132569423Y-105899423D01*
X132334000Y-106251758D01*
X132098577Y-105899423D01*
X131623909Y-105582260D01*
X131205333Y-105499000D01*
X131033801Y-105499000D01*
X131527911Y-105004890D01*
X157943524Y-105004890D01*
X158113355Y-105414924D01*
X158503642Y-105843183D01*
X159028108Y-106089486D01*
X159258000Y-105968819D01*
X159258000Y-104775000D01*
X158064845Y-104775000D01*
X157943524Y-105004890D01*
X131527911Y-105004890D01*
X135213474Y-101319328D01*
X135276930Y-101276928D01*
X135444905Y-101025536D01*
X135489001Y-100803851D01*
X135489001Y-100803847D01*
X135503889Y-100728999D01*
X135489001Y-100654151D01*
X135489001Y-100602203D01*
X135584091Y-100665740D01*
X136002667Y-100749000D01*
X136285333Y-100749000D01*
X136703909Y-100665740D01*
X137178577Y-100348577D01*
X137414000Y-99996242D01*
X137649423Y-100348577D01*
X138124091Y-100665740D01*
X138542667Y-100749000D01*
X138825333Y-100749000D01*
X139243909Y-100665740D01*
X139718577Y-100348577D01*
X139974947Y-99964892D01*
X140071611Y-100169134D01*
X140486577Y-100545041D01*
X140874961Y-100705904D01*
X141097000Y-100583915D01*
X141097000Y-99441000D01*
X141077000Y-99441000D01*
X141077000Y-99187000D01*
X141097000Y-99187000D01*
X141097000Y-98044085D01*
X140874961Y-97922096D01*
X140486577Y-98082959D01*
X140071611Y-98458866D01*
X139974947Y-98663108D01*
X139718577Y-98279423D01*
X139243909Y-97962260D01*
X138825333Y-97879000D01*
X138542667Y-97879000D01*
X138124091Y-97962260D01*
X137649423Y-98279423D01*
X137414000Y-98631758D01*
X137178577Y-98279423D01*
X136703909Y-97962260D01*
X136285333Y-97879000D01*
X136002667Y-97879000D01*
X135584091Y-97962260D01*
X135489001Y-98025797D01*
X135489001Y-98014061D01*
X135503889Y-97939214D01*
X135489001Y-97864367D01*
X135489001Y-97864362D01*
X135444905Y-97642677D01*
X135276930Y-97391285D01*
X135213474Y-97348885D01*
X135202414Y-97337825D01*
X135602086Y-96938153D01*
X135670909Y-96772000D01*
X139261091Y-96772000D01*
X139329914Y-96938153D01*
X139789847Y-97398086D01*
X140390778Y-97647000D01*
X141041222Y-97647000D01*
X141642153Y-97398086D01*
X142102086Y-96938153D01*
X142351000Y-96337222D01*
X142351000Y-95686778D01*
X142102086Y-95085847D01*
X141642153Y-94625914D01*
X141041222Y-94377000D01*
X140390778Y-94377000D01*
X139789847Y-94625914D01*
X139329914Y-95085847D01*
X139261091Y-95252000D01*
X135670909Y-95252000D01*
X135602086Y-95085847D01*
X135142153Y-94625914D01*
X134541222Y-94377000D01*
X134534803Y-94377000D01*
X138536472Y-90375332D01*
X138599928Y-90332932D01*
X138767903Y-90081540D01*
X138811999Y-89859855D01*
X138811999Y-89859851D01*
X138826887Y-89785004D01*
X138811999Y-89710157D01*
X138811999Y-89077440D01*
X139077000Y-89077440D01*
X139277000Y-89037658D01*
X139477000Y-89077440D01*
X139564637Y-89077440D01*
X140371982Y-89884786D01*
X139789847Y-90125914D01*
X139329914Y-90585847D01*
X139081000Y-91186778D01*
X139081000Y-91837222D01*
X139329914Y-92438153D01*
X139789847Y-92898086D01*
X140390778Y-93147000D01*
X141041222Y-93147000D01*
X141642153Y-92898086D01*
X142102086Y-92438153D01*
X142351000Y-91837222D01*
X142351000Y-91797005D01*
X142567145Y-91839999D01*
X142567150Y-91839999D01*
X142641997Y-91854887D01*
X142716844Y-91839999D01*
X142720560Y-91839999D01*
X142720560Y-92105000D01*
X142769843Y-92352765D01*
X142910191Y-92562809D01*
X143120235Y-92703157D01*
X143258000Y-92730560D01*
X143258001Y-97951537D01*
X143204091Y-97962260D01*
X142729423Y-98279423D01*
X142473053Y-98663108D01*
X142376389Y-98458866D01*
X141961423Y-98082959D01*
X141573039Y-97922096D01*
X141351000Y-98044085D01*
X141351000Y-99187000D01*
X141371000Y-99187000D01*
X141371000Y-99441000D01*
X141351000Y-99441000D01*
X141351000Y-100583915D01*
X141573039Y-100705904D01*
X141961423Y-100545041D01*
X142376389Y-100169134D01*
X142473053Y-99964892D01*
X142729423Y-100348577D01*
X143204091Y-100665740D01*
X143622667Y-100749000D01*
X143905333Y-100749000D01*
X144087887Y-100712688D01*
X147142672Y-103767474D01*
X147185072Y-103830930D01*
X147436464Y-103998905D01*
X147658149Y-104043001D01*
X147658153Y-104043001D01*
X147733000Y-104057889D01*
X147807847Y-104043001D01*
X158046288Y-104043001D01*
X157943524Y-104291110D01*
X158064845Y-104521000D01*
X159258000Y-104521000D01*
X159258000Y-104501000D01*
X159512000Y-104501000D01*
X159512000Y-104521000D01*
X159532000Y-104521000D01*
X159532000Y-104775000D01*
X159512000Y-104775000D01*
X159512000Y-105968819D01*
X159741892Y-106089486D01*
X160266358Y-105843183D01*
X160455039Y-105636145D01*
X160476843Y-105745765D01*
X160617191Y-105955809D01*
X160827235Y-106096157D01*
X161075000Y-106145440D01*
X162775000Y-106145440D01*
X163022765Y-106096157D01*
X163232809Y-105955809D01*
X163373157Y-105745765D01*
X163422440Y-105498000D01*
X163422440Y-105296483D01*
X163572929Y-105195929D01*
X163602970Y-105150969D01*
X163647930Y-105120928D01*
X163815905Y-104869536D01*
X163860001Y-104647851D01*
X163860001Y-104647847D01*
X163874889Y-104573000D01*
X163860001Y-104498153D01*
X163860001Y-101618845D01*
X163874889Y-101543998D01*
X163860001Y-101469151D01*
X163860001Y-101469147D01*
X163815905Y-101247462D01*
X163746031Y-101142888D01*
X163690330Y-101059525D01*
X163690328Y-101059523D01*
X163647930Y-100996070D01*
X163584477Y-100953672D01*
X163105295Y-100474492D01*
X163323839Y-100147418D01*
X163439092Y-99568000D01*
X163323839Y-98988582D01*
X162995625Y-98497375D01*
X162504418Y-98169161D01*
X162071256Y-98083000D01*
X161778744Y-98083000D01*
X161558592Y-98126791D01*
X160907000Y-97475199D01*
X160907000Y-84783852D01*
X160921889Y-84709000D01*
X160907000Y-84634148D01*
X160907000Y-82928059D01*
X160921888Y-82853212D01*
X160907000Y-82778365D01*
X160907000Y-82778361D01*
X160862904Y-82556676D01*
X160694929Y-82305284D01*
X160631473Y-82262884D01*
X159019639Y-80651050D01*
X172961000Y-80651050D01*
X172961000Y-81400950D01*
X173247974Y-82093767D01*
X173778233Y-82624026D01*
X174471050Y-82911000D01*
X175220950Y-82911000D01*
X175913767Y-82624026D01*
X176444026Y-82093767D01*
X176731000Y-81400950D01*
X176731000Y-80651050D01*
X176444026Y-79958233D01*
X175913767Y-79427974D01*
X175220950Y-79141000D01*
X174471050Y-79141000D01*
X173778233Y-79427974D01*
X173247974Y-79958233D01*
X172961000Y-80651050D01*
X159019639Y-80651050D01*
X158997414Y-80628825D01*
X159397086Y-80229153D01*
X159646000Y-79628222D01*
X159646000Y-78977778D01*
X159397086Y-78376847D01*
X158937153Y-77916914D01*
X158336222Y-77668000D01*
X157685778Y-77668000D01*
X157084847Y-77916914D01*
X156624914Y-78376847D01*
X156376000Y-78977778D01*
X156376000Y-79628222D01*
X156624914Y-80229153D01*
X157084847Y-80689086D01*
X157243597Y-80754842D01*
X157295097Y-81013750D01*
X157416499Y-81195440D01*
X157463072Y-81265142D01*
X157526528Y-81307542D01*
X159387000Y-83168015D01*
X159387001Y-83949000D01*
X155817590Y-83949000D01*
X152497414Y-80628825D01*
X152897086Y-80229153D01*
X153146000Y-79628222D01*
X153146000Y-78977778D01*
X152897086Y-78376847D01*
X152437153Y-77916914D01*
X151836222Y-77668000D01*
X151185778Y-77668000D01*
X150584847Y-77916914D01*
X150124914Y-78376847D01*
X149876000Y-78977778D01*
X149876000Y-79628222D01*
X150124914Y-80229153D01*
X150584847Y-80689086D01*
X150743597Y-80754842D01*
X150795097Y-81013750D01*
X150916499Y-81195440D01*
X150963072Y-81265142D01*
X151026528Y-81307542D01*
X154912460Y-85193476D01*
X154954858Y-85256929D01*
X155018311Y-85299327D01*
X155018313Y-85299329D01*
X155124080Y-85370000D01*
X155206250Y-85424904D01*
X155427935Y-85469000D01*
X155427939Y-85469000D01*
X155502786Y-85483888D01*
X155577633Y-85469000D01*
X159387000Y-85469000D01*
X159387000Y-90646308D01*
X159229538Y-90541095D01*
X159007853Y-90496999D01*
X159007848Y-90496999D01*
X158933001Y-90482111D01*
X158858154Y-90496999D01*
X148218801Y-90496999D01*
X146795551Y-89073750D01*
X147024765Y-89028157D01*
X147056844Y-89006723D01*
X147071833Y-89016738D01*
X147377000Y-89077440D01*
X147677000Y-89077440D01*
X147982167Y-89016738D01*
X148240875Y-88843875D01*
X148413738Y-88585167D01*
X148445112Y-88427440D01*
X148952000Y-88427440D01*
X149305003Y-88357223D01*
X149604264Y-88157264D01*
X149699321Y-88015000D01*
X149819307Y-88015000D01*
X149820131Y-88015341D01*
X149779443Y-88076235D01*
X149730160Y-88324000D01*
X149730160Y-89224000D01*
X149779443Y-89471765D01*
X149919791Y-89681809D01*
X150129835Y-89822157D01*
X150377600Y-89871440D01*
X151577600Y-89871440D01*
X151825365Y-89822157D01*
X152035409Y-89681809D01*
X152050650Y-89659000D01*
X153358950Y-89659000D01*
X153374191Y-89681809D01*
X153584235Y-89822157D01*
X153832000Y-89871440D01*
X155032000Y-89871440D01*
X155279765Y-89822157D01*
X155489809Y-89681809D01*
X155505050Y-89659000D01*
X157041950Y-89659000D01*
X157057191Y-89681809D01*
X157267235Y-89822157D01*
X157515000Y-89871440D01*
X158715000Y-89871440D01*
X158962765Y-89822157D01*
X159172809Y-89681809D01*
X159313157Y-89471765D01*
X159362440Y-89224000D01*
X159362440Y-88324000D01*
X159313157Y-88076235D01*
X159172809Y-87866191D01*
X158962765Y-87725843D01*
X158715000Y-87676560D01*
X157515000Y-87676560D01*
X157267235Y-87725843D01*
X157057191Y-87866191D01*
X157041950Y-87889000D01*
X155505050Y-87889000D01*
X155489809Y-87866191D01*
X155279765Y-87725843D01*
X155032000Y-87676560D01*
X153832000Y-87676560D01*
X153584235Y-87725843D01*
X153374191Y-87866191D01*
X153358950Y-87889000D01*
X152050650Y-87889000D01*
X152035409Y-87866191D01*
X151874546Y-87758705D01*
X151879937Y-87731600D01*
X151862600Y-87644439D01*
X151862600Y-87644435D01*
X151811252Y-87386290D01*
X151775954Y-87333463D01*
X151665024Y-87167445D01*
X151665023Y-87167444D01*
X151615649Y-87093551D01*
X151541756Y-87044177D01*
X151395431Y-86897852D01*
X151245431Y-86535720D01*
X150954280Y-86244569D01*
X150573874Y-86087000D01*
X150162126Y-86087000D01*
X149781720Y-86244569D01*
X149781289Y-86245000D01*
X149699321Y-86245000D01*
X149604264Y-86102736D01*
X149562000Y-86074496D01*
X149562000Y-79203277D01*
X149734809Y-79087809D01*
X149875157Y-78877765D01*
X149924440Y-78630000D01*
X149924440Y-77641138D01*
X151144625Y-76420954D01*
X151185778Y-76438000D01*
X151836222Y-76438000D01*
X152437153Y-76189086D01*
X152897086Y-75729153D01*
X152914132Y-75688000D01*
X153303422Y-75688000D01*
X153785569Y-76170148D01*
X153935569Y-76532280D01*
X154226720Y-76823431D01*
X154607126Y-76981000D01*
X155018874Y-76981000D01*
X155399280Y-76823431D01*
X155690431Y-76532280D01*
X155840431Y-76170147D01*
X156322579Y-75688000D01*
X156607868Y-75688000D01*
X156624914Y-75729153D01*
X157084847Y-76189086D01*
X157685778Y-76438000D01*
X158336222Y-76438000D01*
X158937153Y-76189086D01*
X159397086Y-75729153D01*
X159646000Y-75128222D01*
X159646000Y-74477778D01*
X159397086Y-73876847D01*
X158937153Y-73416914D01*
X158336222Y-73168000D01*
X157685778Y-73168000D01*
X157084847Y-73416914D01*
X156624914Y-73876847D01*
X156607868Y-73918000D01*
X156043159Y-73918000D01*
X155955999Y-73900663D01*
X155868839Y-73918000D01*
X155868835Y-73918000D01*
X155610690Y-73969348D01*
X155502880Y-74041385D01*
X155391845Y-74115576D01*
X155391844Y-74115577D01*
X155317951Y-74164951D01*
X155268577Y-74238844D01*
X154813000Y-74694421D01*
X154357425Y-74238847D01*
X154308049Y-74164951D01*
X154015310Y-73969348D01*
X153757165Y-73918000D01*
X153757161Y-73918000D01*
X153670000Y-73900663D01*
X153582839Y-73918000D01*
X152914132Y-73918000D01*
X152897086Y-73876847D01*
X152437153Y-73416914D01*
X151836222Y-73168000D01*
X151185778Y-73168000D01*
X150584847Y-73416914D01*
X150124914Y-73876847D01*
X149876000Y-74477778D01*
X149876000Y-75128222D01*
X149893046Y-75169375D01*
X149279387Y-75783035D01*
X149277000Y-75782560D01*
X148077000Y-75782560D01*
X147829235Y-75831843D01*
X147619191Y-75972191D01*
X147478843Y-76182235D01*
X147429560Y-76430000D01*
X147429560Y-78630000D01*
X147478843Y-78877765D01*
X147619191Y-79087809D01*
X147792001Y-79203278D01*
X147792000Y-85094000D01*
X146618007Y-85094000D01*
X146255874Y-84944000D01*
X145844126Y-84944000D01*
X145481993Y-85094000D01*
X144665161Y-85094000D01*
X144578000Y-85076663D01*
X144490839Y-85094000D01*
X144490835Y-85094000D01*
X144232690Y-85145348D01*
X143939951Y-85340951D01*
X143890576Y-85414846D01*
X143662845Y-85642577D01*
X143588952Y-85691951D01*
X143539578Y-85765844D01*
X143539576Y-85765846D01*
X143393348Y-85984691D01*
X143353990Y-86182560D01*
X142777000Y-86182560D01*
X142687392Y-86200384D01*
X142646814Y-86139654D01*
X142617329Y-86095526D01*
X142617327Y-86095524D01*
X142574929Y-86032071D01*
X142511476Y-85989673D01*
X142016330Y-85494529D01*
X141973929Y-85431071D01*
X141722537Y-85263096D01*
X141500852Y-85219000D01*
X141500847Y-85219000D01*
X141426000Y-85204112D01*
X141351153Y-85219000D01*
X138717846Y-85219000D01*
X138642998Y-85204112D01*
X138568150Y-85219000D01*
X138568146Y-85219000D01*
X138402244Y-85252000D01*
X138346460Y-85263096D01*
X138229943Y-85340951D01*
X138095069Y-85431071D01*
X138052669Y-85494527D01*
X137567527Y-85979670D01*
X137504071Y-86022070D01*
X137461671Y-86085526D01*
X137461670Y-86085527D01*
X137400653Y-86176846D01*
X137336096Y-86273462D01*
X137307719Y-86416125D01*
X137277111Y-86569999D01*
X137292000Y-86644851D01*
X137291999Y-89470201D01*
X135770285Y-90991915D01*
X135602086Y-90585847D01*
X135142153Y-90125914D01*
X135101000Y-90108868D01*
X135101000Y-89345159D01*
X135118337Y-89257999D01*
X135101000Y-89170840D01*
X135101000Y-89170835D01*
X135049652Y-88912690D01*
X135020000Y-88868313D01*
X135020000Y-88821126D01*
X134877592Y-88477322D01*
X135124765Y-88428157D01*
X135334809Y-88287809D01*
X135475157Y-88077765D01*
X135524440Y-87830000D01*
X135524440Y-86889437D01*
X135547376Y-86855111D01*
X135580652Y-86805310D01*
X135632000Y-86547165D01*
X135632000Y-86547161D01*
X135649337Y-86460001D01*
X135632000Y-86372841D01*
X135632000Y-78038007D01*
X135782000Y-77675874D01*
X135782000Y-77264126D01*
X135632929Y-76904234D01*
X136742000Y-76904234D01*
X136742000Y-77355766D01*
X136914793Y-77772926D01*
X137234074Y-78092207D01*
X137651234Y-78265000D01*
X138102766Y-78265000D01*
X138519926Y-78092207D01*
X138839207Y-77772926D01*
X139012000Y-77355766D01*
X139012000Y-76904234D01*
X144722000Y-76904234D01*
X144722000Y-77355766D01*
X144894793Y-77772926D01*
X145214074Y-78092207D01*
X145631234Y-78265000D01*
X146082766Y-78265000D01*
X146499926Y-78092207D01*
X146819207Y-77772926D01*
X146992000Y-77355766D01*
X146992000Y-76904234D01*
X146819207Y-76487074D01*
X146499926Y-76167793D01*
X146082766Y-75995000D01*
X145631234Y-75995000D01*
X145214074Y-76167793D01*
X144894793Y-76487074D01*
X144722000Y-76904234D01*
X139012000Y-76904234D01*
X138839207Y-76487074D01*
X138519926Y-76167793D01*
X138102766Y-75995000D01*
X137651234Y-75995000D01*
X137234074Y-76167793D01*
X136914793Y-76487074D01*
X136742000Y-76904234D01*
X135632929Y-76904234D01*
X135624431Y-76883720D01*
X135333280Y-76592569D01*
X134952874Y-76435000D01*
X134541126Y-76435000D01*
X134424440Y-76483333D01*
X134424440Y-76430000D01*
X134375157Y-76182235D01*
X134234809Y-75972191D01*
X134024765Y-75831843D01*
X133777000Y-75782560D01*
X132577000Y-75782560D01*
X132329235Y-75831843D01*
X132119191Y-75972191D01*
X131978843Y-76182235D01*
X131929560Y-76430000D01*
X131929560Y-78630000D01*
X131978843Y-78877765D01*
X132119191Y-79087809D01*
X132329235Y-79228157D01*
X132577000Y-79277440D01*
X133777000Y-79277440D01*
X133862000Y-79260533D01*
X133862001Y-85782560D01*
X133277000Y-85782560D01*
X133029235Y-85831843D01*
X132819191Y-85972191D01*
X132678843Y-86182235D01*
X132629560Y-86430000D01*
X132629560Y-87830000D01*
X132678843Y-88077765D01*
X132819191Y-88287809D01*
X133029235Y-88428157D01*
X133100000Y-88442233D01*
X133100000Y-88458992D01*
X132950000Y-88821126D01*
X132950000Y-89232874D01*
X133107569Y-89613280D01*
X133331001Y-89836712D01*
X133331001Y-90108868D01*
X133289847Y-90125914D01*
X132829914Y-90585847D01*
X132581000Y-91186778D01*
X132581000Y-91837222D01*
X132829914Y-92438153D01*
X133289847Y-92898086D01*
X133695915Y-93066285D01*
X131724281Y-95037920D01*
X131682334Y-94827037D01*
X131298865Y-94253135D01*
X130933000Y-94008672D01*
X130933000Y-81149159D01*
X130950337Y-81061999D01*
X130933000Y-80974839D01*
X130933000Y-80974835D01*
X130881652Y-80716690D01*
X130777313Y-80560537D01*
X130735424Y-80497845D01*
X130735423Y-80497844D01*
X130686049Y-80423951D01*
X130612156Y-80374577D01*
X129937424Y-79699846D01*
X129888049Y-79625951D01*
X129595310Y-79430348D01*
X129397440Y-79390989D01*
X129397440Y-78514000D01*
X129348157Y-78266235D01*
X129207809Y-78056191D01*
X128997765Y-77915843D01*
X128750000Y-77866560D01*
X125250000Y-77866560D01*
X125002235Y-77915843D01*
X124792191Y-78056191D01*
X124651843Y-78266235D01*
X124602560Y-78514000D01*
X124602560Y-79313000D01*
X119908611Y-79313000D01*
X119941001Y-79150166D01*
X119941001Y-79150161D01*
X119958338Y-79063002D01*
X119941001Y-78975842D01*
X119941001Y-77620158D01*
X119958338Y-77532998D01*
X119941001Y-77445838D01*
X119941001Y-77445834D01*
X119889653Y-77187689D01*
X119794664Y-77045528D01*
X119743425Y-76968844D01*
X119743424Y-76968843D01*
X119694050Y-76894950D01*
X119620157Y-76845576D01*
X118283427Y-75508847D01*
X118234051Y-75434951D01*
X117941312Y-75239348D01*
X117683167Y-75188000D01*
X117683163Y-75188000D01*
X117596002Y-75170663D01*
X117508841Y-75188000D01*
X115685440Y-75188000D01*
X115685440Y-75067000D01*
X115636157Y-74819235D01*
X115495809Y-74609191D01*
X115285765Y-74468843D01*
X115038000Y-74419560D01*
X114038000Y-74419560D01*
X113790235Y-74468843D01*
X113580191Y-74609191D01*
X113538000Y-74672334D01*
X113495809Y-74609191D01*
X113285765Y-74468843D01*
X113038000Y-74419560D01*
X112038000Y-74419560D01*
X111790235Y-74468843D01*
X111580191Y-74609191D01*
X111439843Y-74819235D01*
X111390560Y-75067000D01*
X111390560Y-75165000D01*
X111142696Y-75165000D01*
X111140157Y-75152235D01*
X110999809Y-74942191D01*
X110789765Y-74801843D01*
X110542000Y-74752560D01*
X107942000Y-74752560D01*
X107694235Y-74801843D01*
X107484191Y-74942191D01*
X107443346Y-75003320D01*
X107301698Y-74861673D01*
X107068309Y-74765000D01*
X105927750Y-74765000D01*
X105769000Y-74923750D01*
X105769000Y-76073000D01*
X105789000Y-76073000D01*
X105789000Y-76327000D01*
X105769000Y-76327000D01*
X105769000Y-77476250D01*
X105927750Y-77635000D01*
X107068309Y-77635000D01*
X107301698Y-77538327D01*
X107443346Y-77396680D01*
X107484191Y-77457809D01*
X107694235Y-77598157D01*
X107942000Y-77647440D01*
X110542000Y-77647440D01*
X110789765Y-77598157D01*
X110999809Y-77457809D01*
X111140157Y-77247765D01*
X111142696Y-77235000D01*
X111457874Y-77235000D01*
X111741000Y-77117726D01*
X111741000Y-77421874D01*
X111747380Y-77437278D01*
X111668191Y-77490191D01*
X111527843Y-77700235D01*
X111478560Y-77948000D01*
X111478560Y-78648000D01*
X111527843Y-78895765D01*
X111668191Y-79105809D01*
X111878235Y-79246157D01*
X111887500Y-79248000D01*
X111878235Y-79249843D01*
X111668191Y-79390191D01*
X111527843Y-79600235D01*
X111478560Y-79848000D01*
X111478560Y-80548000D01*
X111527843Y-80795765D01*
X111668191Y-81005809D01*
X111878235Y-81146157D01*
X112016001Y-81173560D01*
X112016001Y-81853148D01*
X112001112Y-81928000D01*
X112050900Y-82178299D01*
X111683553Y-82545646D01*
X111477000Y-82504560D01*
X111027000Y-82504560D01*
X110779235Y-82553843D01*
X110569191Y-82694191D01*
X110428843Y-82904235D01*
X110379560Y-83152000D01*
X110379560Y-83752000D01*
X110428843Y-83999765D01*
X110569191Y-84209809D01*
X110779235Y-84350157D01*
X111027000Y-84399440D01*
X111477000Y-84399440D01*
X111724765Y-84350157D01*
X111933513Y-84210675D01*
X112148537Y-84167904D01*
X112399929Y-83999929D01*
X112442331Y-83936470D01*
X113336473Y-83042329D01*
X113399929Y-82999929D01*
X113567904Y-82748537D01*
X113612000Y-82526851D01*
X113612000Y-82526848D01*
X113626888Y-82452000D01*
X113612000Y-82377152D01*
X113612000Y-82078846D01*
X113626888Y-82003999D01*
X113612000Y-81929152D01*
X113612000Y-81929148D01*
X113567904Y-81707463D01*
X113536000Y-81659715D01*
X113536000Y-81173560D01*
X113673765Y-81146157D01*
X113883809Y-81005809D01*
X114024157Y-80795765D01*
X114073440Y-80548000D01*
X114073440Y-79975361D01*
X114132008Y-79916794D01*
X114208191Y-80030809D01*
X114391000Y-80152959D01*
X114391001Y-83890418D01*
X113243844Y-85037576D01*
X113187420Y-85094000D01*
X112770578Y-85094000D01*
X112664425Y-84987847D01*
X112615049Y-84913951D01*
X112322310Y-84718348D01*
X112064165Y-84667000D01*
X112064161Y-84667000D01*
X111977000Y-84649663D01*
X111889839Y-84667000D01*
X111744456Y-84667000D01*
X111724765Y-84653843D01*
X111477000Y-84604560D01*
X111027000Y-84604560D01*
X110779235Y-84653843D01*
X110569191Y-84794191D01*
X110428843Y-85004235D01*
X110399210Y-85153211D01*
X109696422Y-85856000D01*
X108608440Y-85856000D01*
X108608440Y-85841000D01*
X108559157Y-85593235D01*
X108418809Y-85383191D01*
X108210304Y-85243871D01*
X108506938Y-84799927D01*
X108626072Y-84201000D01*
X108576909Y-83953843D01*
X108599048Y-83939050D01*
X108724032Y-83752000D01*
X108794651Y-83646311D01*
X108798273Y-83628101D01*
X108845999Y-83388166D01*
X108845999Y-83388162D01*
X108863336Y-83301001D01*
X108845999Y-83213840D01*
X108845999Y-82725836D01*
X108794651Y-82467691D01*
X108599048Y-82174952D01*
X108510169Y-82115565D01*
X108552046Y-82025742D01*
X108431997Y-81788000D01*
X107188000Y-81788000D01*
X107188000Y-81808000D01*
X106934000Y-81808000D01*
X106934000Y-81788000D01*
X105690003Y-81788000D01*
X105569954Y-82025742D01*
X105823034Y-82568576D01*
X106210174Y-82923376D01*
X105954327Y-83094327D01*
X105615062Y-83602073D01*
X105495928Y-84201000D01*
X105615062Y-84799927D01*
X105911696Y-85243871D01*
X105703191Y-85383191D01*
X105562843Y-85593235D01*
X105513560Y-85841000D01*
X105513560Y-87641000D01*
X105562843Y-87888765D01*
X105703191Y-88098809D01*
X105913235Y-88239157D01*
X106161000Y-88288440D01*
X107961000Y-88288440D01*
X108208765Y-88239157D01*
X108418809Y-88098809D01*
X108559157Y-87888765D01*
X108608440Y-87641000D01*
X108608440Y-87626000D01*
X109975839Y-87626000D01*
X110063000Y-87643337D01*
X110150161Y-87626000D01*
X110150165Y-87626000D01*
X110408310Y-87574652D01*
X110701049Y-87379049D01*
X110750425Y-87305153D01*
X111557474Y-86498104D01*
X111636951Y-86617049D01*
X111929690Y-86812652D01*
X112187835Y-86864000D01*
X112316839Y-86864000D01*
X112403999Y-86881337D01*
X112491159Y-86864000D01*
X113187420Y-86864000D01*
X119003001Y-92679582D01*
X119003001Y-93756560D01*
X118788000Y-93756560D01*
X118540235Y-93805843D01*
X118330191Y-93946191D01*
X118189843Y-94156235D01*
X118140560Y-94404000D01*
X118140560Y-95880757D01*
X115620440Y-93360639D01*
X115620440Y-90788000D01*
X115571157Y-90540235D01*
X115430809Y-90330191D01*
X115220765Y-90189843D01*
X114973000Y-90140560D01*
X113373000Y-90140560D01*
X113125235Y-90189843D01*
X112915191Y-90330191D01*
X112774843Y-90540235D01*
X112725560Y-90788000D01*
X112725560Y-92440638D01*
X109429639Y-95736560D01*
X108357000Y-95736560D01*
X108109235Y-95785843D01*
X107957000Y-95887564D01*
X107804765Y-95785843D01*
X107557000Y-95736560D01*
X106057000Y-95736560D01*
X105809235Y-95785843D01*
X105657953Y-95886927D01*
X105616699Y-95845673D01*
X105383310Y-95749000D01*
X104792750Y-95749000D01*
X104634000Y-95907750D01*
X104634000Y-97257000D01*
X104654000Y-97257000D01*
X104654000Y-97511000D01*
X104634000Y-97511000D01*
X104634000Y-97531000D01*
X104380000Y-97531000D01*
X104380000Y-97511000D01*
X103280750Y-97511000D01*
X103122000Y-97669750D01*
X103122000Y-98510309D01*
X103218673Y-98743698D01*
X103397301Y-98922327D01*
X103630690Y-99019000D01*
X104221250Y-99019000D01*
X104379998Y-98860252D01*
X104379998Y-98933424D01*
X104116931Y-99196491D01*
X103982765Y-99106843D01*
X103735000Y-99057560D01*
X102735000Y-99057560D01*
X102487235Y-99106843D01*
X102277191Y-99247191D01*
X102236346Y-99308320D01*
X102094698Y-99166673D01*
X101861309Y-99070000D01*
X101520750Y-99070000D01*
X101362000Y-99228750D01*
X101362000Y-100203000D01*
X101382000Y-100203000D01*
X101382000Y-100457000D01*
X101362000Y-100457000D01*
X101362000Y-100477000D01*
X101108000Y-100477000D01*
X101108000Y-100457000D01*
X100258750Y-100457000D01*
X100100000Y-100615750D01*
X100100000Y-101081310D01*
X100196673Y-101314699D01*
X100375302Y-101493327D01*
X100608691Y-101590000D01*
X100847322Y-101590000D01*
X100687235Y-101621843D01*
X100477191Y-101762191D01*
X100336843Y-101972235D01*
X100287560Y-102220000D01*
X100287560Y-103520000D01*
X100336843Y-103767765D01*
X100477191Y-103977809D01*
X100525000Y-104009754D01*
X100525001Y-106426197D01*
X99595929Y-107355269D01*
X99338182Y-107304000D01*
X99035818Y-107304000D01*
X98588073Y-107393062D01*
X98487801Y-107460062D01*
X98487801Y-99578690D01*
X100100000Y-99578690D01*
X100100000Y-100044250D01*
X100258750Y-100203000D01*
X101108000Y-100203000D01*
X101108000Y-99228750D01*
X100949250Y-99070000D01*
X100608691Y-99070000D01*
X100375302Y-99166673D01*
X100196673Y-99345301D01*
X100100000Y-99578690D01*
X98487801Y-99578690D01*
X98487801Y-96257691D01*
X103122000Y-96257691D01*
X103122000Y-97098250D01*
X103280750Y-97257000D01*
X104380000Y-97257000D01*
X104380000Y-95907750D01*
X104221250Y-95749000D01*
X103630690Y-95749000D01*
X103397301Y-95845673D01*
X103218673Y-96024302D01*
X103122000Y-96257691D01*
X98487801Y-96257691D01*
X98487801Y-91483800D01*
X98903158Y-91483800D01*
X99458146Y-91253916D01*
X99882916Y-90829146D01*
X100112800Y-90274158D01*
X100112800Y-90084000D01*
X104259560Y-90084000D01*
X104259560Y-92084000D01*
X104308843Y-92331765D01*
X104449191Y-92541809D01*
X104659235Y-92682157D01*
X104907000Y-92731440D01*
X108707000Y-92731440D01*
X108954765Y-92682157D01*
X109164809Y-92541809D01*
X109305157Y-92331765D01*
X109354440Y-92084000D01*
X109354440Y-90084000D01*
X109305157Y-89836235D01*
X109164809Y-89626191D01*
X108954765Y-89485843D01*
X108707000Y-89436560D01*
X104907000Y-89436560D01*
X104659235Y-89485843D01*
X104449191Y-89626191D01*
X104308843Y-89836235D01*
X104259560Y-90084000D01*
X100112800Y-90084000D01*
X100112800Y-89673442D01*
X99882916Y-89118454D01*
X99488262Y-88723800D01*
X99882916Y-88329146D01*
X100112800Y-87774158D01*
X100112800Y-87173442D01*
X99882916Y-86618454D01*
X99488262Y-86223800D01*
X99882916Y-85829146D01*
X100112800Y-85274158D01*
X100112800Y-84673442D01*
X99882916Y-84118454D01*
X99706041Y-83941579D01*
X99837499Y-83887127D01*
X100016127Y-83708498D01*
X100112800Y-83475109D01*
X100112800Y-82759550D01*
X99954050Y-82600800D01*
X98729800Y-82600800D01*
X98729800Y-82620800D01*
X98475800Y-82620800D01*
X98475800Y-82600800D01*
X97251550Y-82600800D01*
X97092800Y-82759550D01*
X97092800Y-83475109D01*
X97189473Y-83708498D01*
X97368101Y-83887127D01*
X97499559Y-83941579D01*
X97322684Y-84118454D01*
X97092800Y-84673442D01*
X97092800Y-85274158D01*
X97322684Y-85829146D01*
X97717338Y-86223800D01*
X97322684Y-86618454D01*
X97092800Y-87173442D01*
X97092800Y-87774158D01*
X97132294Y-87869505D01*
X96793320Y-88208479D01*
X96729861Y-88250881D01*
X96561886Y-88502274D01*
X96517790Y-88723959D01*
X96517790Y-88723963D01*
X96502902Y-88798810D01*
X96517790Y-88873657D01*
X96517791Y-115544351D01*
X96502902Y-115619203D01*
X96561887Y-115915740D01*
X96683206Y-116097306D01*
X96729862Y-116167132D01*
X96793318Y-116209532D01*
X99150270Y-118566485D01*
X99192670Y-118629941D01*
X99444062Y-118797916D01*
X99665747Y-118842012D01*
X99665752Y-118842012D01*
X99740599Y-118856900D01*
X99815446Y-118842012D01*
X106078141Y-118842012D01*
X106152988Y-118856900D01*
X106227835Y-118842012D01*
X106227840Y-118842012D01*
X106449525Y-118797916D01*
X106700917Y-118629941D01*
X106743319Y-118566482D01*
X107507296Y-117802506D01*
X107602642Y-117842000D01*
X108203358Y-117842000D01*
X108758346Y-117612116D01*
X109153000Y-117217462D01*
X109547654Y-117612116D01*
X110102642Y-117842000D01*
X110703358Y-117842000D01*
X111258346Y-117612116D01*
X111435221Y-117435241D01*
X111489673Y-117566699D01*
X111668302Y-117745327D01*
X111901691Y-117842000D01*
X112617250Y-117842000D01*
X112775998Y-117683252D01*
X112775998Y-117747423D01*
X100852422Y-129671000D01*
X98878440Y-129671000D01*
X98878440Y-129056000D01*
X98829157Y-128808235D01*
X98688809Y-128598191D01*
X98478765Y-128457843D01*
X98231000Y-128408560D01*
X95231000Y-128408560D01*
X94983235Y-128457843D01*
X94773191Y-128598191D01*
X94665000Y-128760109D01*
X94665000Y-81472491D01*
X97092800Y-81472491D01*
X97092800Y-82188050D01*
X97251550Y-82346800D01*
X98475800Y-82346800D01*
X98475800Y-81122550D01*
X98729800Y-81122550D01*
X98729800Y-82346800D01*
X99954050Y-82346800D01*
X100112800Y-82188050D01*
X100112800Y-81472491D01*
X100039802Y-81296258D01*
X105569954Y-81296258D01*
X105690003Y-81534000D01*
X106934000Y-81534000D01*
X106934000Y-80290622D01*
X107188000Y-80290622D01*
X107188000Y-81534000D01*
X108431997Y-81534000D01*
X108552046Y-81296258D01*
X108298966Y-80753424D01*
X107857417Y-80348760D01*
X107425740Y-80169964D01*
X107188000Y-80290622D01*
X106934000Y-80290622D01*
X106696260Y-80169964D01*
X106264583Y-80348760D01*
X105823034Y-80753424D01*
X105569954Y-81296258D01*
X100039802Y-81296258D01*
X100016127Y-81239102D01*
X99837499Y-81060473D01*
X99604110Y-80963800D01*
X98888550Y-80963800D01*
X98729800Y-81122550D01*
X98475800Y-81122550D01*
X98317050Y-80963800D01*
X97601490Y-80963800D01*
X97368101Y-81060473D01*
X97189473Y-81239102D01*
X97092800Y-81472491D01*
X94665000Y-81472491D01*
X94665000Y-77195724D01*
X94906723Y-77779296D01*
X95844874Y-78717447D01*
X97070627Y-79225170D01*
X98397373Y-79225170D01*
X99623126Y-78717447D01*
X100561277Y-77779296D01*
X101069000Y-76553543D01*
X101069000Y-76485750D01*
X103707000Y-76485750D01*
X103707000Y-77126310D01*
X103803673Y-77359699D01*
X103982302Y-77538327D01*
X104215691Y-77635000D01*
X105356250Y-77635000D01*
X105515000Y-77476250D01*
X105515000Y-76327000D01*
X103865750Y-76327000D01*
X103707000Y-76485750D01*
X101069000Y-76485750D01*
X101069000Y-75273690D01*
X103707000Y-75273690D01*
X103707000Y-75914250D01*
X103865750Y-76073000D01*
X105515000Y-76073000D01*
X105515000Y-74923750D01*
X105356250Y-74765000D01*
X104215691Y-74765000D01*
X103982302Y-74861673D01*
X103803673Y-75040301D01*
X103707000Y-75273690D01*
X101069000Y-75273690D01*
X101069000Y-75226797D01*
X100561277Y-74001044D01*
X99635233Y-73075000D01*
X165832947Y-73075000D01*
X164906898Y-74001049D01*
X164906898Y-74001049D01*
G37*
X164906898Y-74001049D02*
X164399175Y-75226802D01*
X164399175Y-76553548D01*
X164906898Y-77779301D01*
X165845049Y-78717452D01*
X167070802Y-79225175D01*
X168397548Y-79225175D01*
X169623301Y-78717452D01*
X170561452Y-77779301D01*
X171069175Y-76553548D01*
X171069175Y-75226802D01*
X170561452Y-74001049D01*
X169635403Y-73075000D01*
X182195000Y-73075000D01*
X182195001Y-148540000D01*
X179800753Y-148540000D01*
X180561452Y-147779301D01*
X181069175Y-146553548D01*
X181069175Y-145226802D01*
X180561452Y-144001049D01*
X179623301Y-143062898D01*
X178397548Y-142555175D01*
X177070802Y-142555175D01*
X175845049Y-143062898D01*
X174906898Y-144001049D01*
X174399175Y-145226802D01*
X174399175Y-146553548D01*
X174906898Y-147779301D01*
X175667597Y-148540000D01*
X99800753Y-148540000D01*
X100561452Y-147779301D01*
X101069175Y-146553548D01*
X101069175Y-145226802D01*
X100561452Y-144001049D01*
X99623301Y-143062898D01*
X98397548Y-142555175D01*
X97070802Y-142555175D01*
X95845049Y-143062898D01*
X94906898Y-144001049D01*
X94665000Y-144585043D01*
X94665000Y-143727462D01*
X94678419Y-143660000D01*
X94665000Y-143592538D01*
X94665000Y-132351891D01*
X94773191Y-132513809D01*
X94983235Y-132654157D01*
X95231000Y-132703440D01*
X98231000Y-132703440D01*
X98478765Y-132654157D01*
X98688809Y-132513809D01*
X98829157Y-132303765D01*
X98878440Y-132056000D01*
X98878440Y-131441000D01*
X101131839Y-131441000D01*
X101219000Y-131458337D01*
X101306161Y-131441000D01*
X101306165Y-131441000D01*
X101564310Y-131389652D01*
X101857049Y-131194049D01*
X101906425Y-131120153D01*
X102375528Y-130651050D01*
X102961000Y-130651050D01*
X102961000Y-131400950D01*
X103247974Y-132093767D01*
X103778233Y-132624026D01*
X104471050Y-132911000D01*
X105220950Y-132911000D01*
X105913767Y-132624026D01*
X106444026Y-132093767D01*
X106731000Y-131400950D01*
X106731000Y-130651050D01*
X106444026Y-129958233D01*
X105913767Y-129427974D01*
X105220950Y-129141000D01*
X104471050Y-129141000D01*
X103778233Y-129427974D01*
X103247974Y-129958233D01*
X102961000Y-130651050D01*
X102375528Y-130651050D01*
X115880157Y-117146422D01*
X115954049Y-117097049D01*
X116003422Y-117023157D01*
X116003424Y-117023155D01*
X116149652Y-116804310D01*
X116218337Y-116459000D01*
X116149652Y-116113690D01*
X116126326Y-116078780D01*
X116126326Y-108937442D01*
X116276326Y-108575309D01*
X116276326Y-108163561D01*
X116118757Y-107783155D01*
X115927211Y-107591609D01*
X116399381Y-107119440D01*
X116868966Y-107119440D01*
X116868967Y-122761114D01*
X116854078Y-122835966D01*
X116868967Y-122910818D01*
X116913063Y-123132503D01*
X117081038Y-123383895D01*
X117144494Y-123426295D01*
X119890000Y-126171802D01*
X119890001Y-129718956D01*
X119615423Y-129902423D01*
X119356000Y-130290677D01*
X119356000Y-130131322D01*
X119030966Y-129346620D01*
X118430380Y-128746034D01*
X117645678Y-128421000D01*
X116796322Y-128421000D01*
X116011620Y-128746034D01*
X115411034Y-129346620D01*
X115086000Y-130131322D01*
X115086000Y-130980678D01*
X115411034Y-131765380D01*
X115550597Y-131904943D01*
X107965905Y-131904943D01*
X107891057Y-131890055D01*
X107816209Y-131904943D01*
X107816205Y-131904943D01*
X107642662Y-131939463D01*
X107594519Y-131949039D01*
X107480941Y-132024930D01*
X107343128Y-132117014D01*
X107300728Y-132180470D01*
X104736639Y-134744560D01*
X104164000Y-134744560D01*
X103916235Y-134793843D01*
X103706191Y-134934191D01*
X103565843Y-135144235D01*
X103516560Y-135392000D01*
X103516560Y-136642000D01*
X103565843Y-136889765D01*
X103602791Y-136945061D01*
X103447035Y-136976043D01*
X103236991Y-137116391D01*
X103096643Y-137326435D01*
X103047360Y-137574200D01*
X103047360Y-138544200D01*
X103096643Y-138791965D01*
X103236991Y-139002009D01*
X103255236Y-139014200D01*
X103236991Y-139026391D01*
X103096643Y-139236435D01*
X103047360Y-139484200D01*
X103047360Y-140454200D01*
X103096643Y-140701965D01*
X103236991Y-140912009D01*
X103447035Y-141052357D01*
X103684800Y-141099651D01*
X103684801Y-144090916D01*
X103578654Y-144134884D01*
X103153884Y-144559654D01*
X102924000Y-145114642D01*
X102924000Y-145715358D01*
X103153884Y-146270346D01*
X103578654Y-146695116D01*
X104133642Y-146925000D01*
X104734358Y-146925000D01*
X105289346Y-146695116D01*
X105458496Y-146525966D01*
X105460843Y-146537765D01*
X105601191Y-146747809D01*
X105811235Y-146888157D01*
X106059000Y-146937440D01*
X107809000Y-146937440D01*
X108056765Y-146888157D01*
X108266809Y-146747809D01*
X108407157Y-146537765D01*
X108456440Y-146290000D01*
X108456440Y-144540000D01*
X108407157Y-144292235D01*
X108266809Y-144082191D01*
X108056765Y-143941843D01*
X107809000Y-143892560D01*
X107694000Y-143892560D01*
X107694000Y-141099651D01*
X107931765Y-141052357D01*
X108141809Y-140912009D01*
X108282157Y-140701965D01*
X108331440Y-140454200D01*
X108331440Y-139484200D01*
X108282157Y-139236435D01*
X108141809Y-139026391D01*
X108123564Y-139014200D01*
X108141809Y-139002009D01*
X108282157Y-138791965D01*
X108331440Y-138544200D01*
X108331440Y-137574200D01*
X108282157Y-137326435D01*
X108141809Y-137116391D01*
X107931765Y-136976043D01*
X107731168Y-136936142D01*
X107762157Y-136889765D01*
X107806053Y-136669082D01*
X107961929Y-136564929D01*
X108004331Y-136501470D01*
X110522802Y-133983000D01*
X114388198Y-133983000D01*
X113626638Y-134744560D01*
X113054000Y-134744560D01*
X112806235Y-134793843D01*
X112596191Y-134934191D01*
X112455843Y-135144235D01*
X112406560Y-135392000D01*
X112406560Y-136642000D01*
X112455843Y-136889765D01*
X112516793Y-136980983D01*
X112286235Y-137026843D01*
X112076191Y-137167191D01*
X111935843Y-137377235D01*
X111886560Y-137625000D01*
X111886560Y-138595000D01*
X111935843Y-138842765D01*
X112076191Y-139052809D01*
X112094436Y-139065000D01*
X112076191Y-139077191D01*
X111935843Y-139287235D01*
X111886560Y-139535000D01*
X111886560Y-140505000D01*
X111935843Y-140752765D01*
X112076191Y-140962809D01*
X112286235Y-141103157D01*
X112524000Y-141150451D01*
X112524001Y-144111959D01*
X112468654Y-144134884D01*
X112043884Y-144559654D01*
X111814000Y-145114642D01*
X111814000Y-145715358D01*
X112043884Y-146270346D01*
X112468654Y-146695116D01*
X113023642Y-146925000D01*
X113624358Y-146925000D01*
X114179346Y-146695116D01*
X114348496Y-146525966D01*
X114350843Y-146537765D01*
X114491191Y-146747809D01*
X114701235Y-146888157D01*
X114949000Y-146937440D01*
X116699000Y-146937440D01*
X116946765Y-146888157D01*
X117156809Y-146747809D01*
X117297157Y-146537765D01*
X117346440Y-146290000D01*
X117346440Y-144540000D01*
X117297157Y-144292235D01*
X117156809Y-144082191D01*
X116946765Y-143941843D01*
X116699000Y-143892560D01*
X116584000Y-143892560D01*
X116584000Y-141150451D01*
X116821765Y-141103157D01*
X117031809Y-140962809D01*
X117172157Y-140752765D01*
X117221440Y-140505000D01*
X117221440Y-139535000D01*
X117172157Y-139287235D01*
X117031809Y-139077191D01*
X117013564Y-139065000D01*
X117031809Y-139052809D01*
X117172157Y-138842765D01*
X117221440Y-138595000D01*
X117221440Y-137625000D01*
X117172157Y-137377235D01*
X117031809Y-137167191D01*
X116821765Y-137026843D01*
X116591207Y-136980983D01*
X116652157Y-136889765D01*
X116696053Y-136669082D01*
X116851929Y-136564929D01*
X116894331Y-136501470D01*
X118512781Y-134883022D01*
X121562770Y-134883022D01*
X121486191Y-134934191D01*
X121345843Y-135144235D01*
X121296560Y-135392000D01*
X121296560Y-136642000D01*
X121345843Y-136889765D01*
X121406793Y-136980983D01*
X121176235Y-137026843D01*
X120966191Y-137167191D01*
X120825843Y-137377235D01*
X120776560Y-137625000D01*
X120776560Y-138595000D01*
X120825843Y-138842765D01*
X120966191Y-139052809D01*
X120984436Y-139065000D01*
X120966191Y-139077191D01*
X120825843Y-139287235D01*
X120776560Y-139535000D01*
X120776560Y-140505000D01*
X120825843Y-140752765D01*
X120966191Y-140962809D01*
X121176235Y-141103157D01*
X121414000Y-141150451D01*
X121414001Y-144111959D01*
X121358654Y-144134884D01*
X120933884Y-144559654D01*
X120704000Y-145114642D01*
X120704000Y-145715358D01*
X120933884Y-146270346D01*
X121358654Y-146695116D01*
X121913642Y-146925000D01*
X122514358Y-146925000D01*
X123069346Y-146695116D01*
X123238496Y-146525966D01*
X123240843Y-146537765D01*
X123381191Y-146747809D01*
X123591235Y-146888157D01*
X123839000Y-146937440D01*
X125589000Y-146937440D01*
X125836765Y-146888157D01*
X126046809Y-146747809D01*
X126187157Y-146537765D01*
X126236440Y-146290000D01*
X126236440Y-144540000D01*
X126187157Y-144292235D01*
X126046809Y-144082191D01*
X125836765Y-143941843D01*
X125589000Y-143892560D01*
X125474000Y-143892560D01*
X125474000Y-141150451D01*
X125711765Y-141103157D01*
X125921809Y-140962809D01*
X126062157Y-140752765D01*
X126111440Y-140505000D01*
X126111440Y-139535000D01*
X126062157Y-139287235D01*
X125921809Y-139077191D01*
X125903564Y-139065000D01*
X125921809Y-139052809D01*
X126062157Y-138842765D01*
X126111440Y-138595000D01*
X126111440Y-137625000D01*
X126062157Y-137377235D01*
X125921809Y-137167191D01*
X125711765Y-137026843D01*
X125481207Y-136980983D01*
X125542157Y-136889765D01*
X125586053Y-136669082D01*
X125741929Y-136564929D01*
X125784331Y-136501470D01*
X126502758Y-135783044D01*
X130186560Y-135783044D01*
X130186560Y-136642000D01*
X130235843Y-136889765D01*
X130296793Y-136980983D01*
X130066235Y-137026843D01*
X129856191Y-137167191D01*
X129715843Y-137377235D01*
X129666560Y-137625000D01*
X129666560Y-138595000D01*
X129715843Y-138842765D01*
X129856191Y-139052809D01*
X129874436Y-139065000D01*
X129856191Y-139077191D01*
X129715843Y-139287235D01*
X129666560Y-139535000D01*
X129666560Y-140505000D01*
X129715843Y-140752765D01*
X129856191Y-140962809D01*
X130066235Y-141103157D01*
X130314000Y-141152440D01*
X130344001Y-141152440D01*
X130344000Y-142800148D01*
X130344000Y-144095390D01*
X130248654Y-144134884D01*
X129823884Y-144559654D01*
X129594000Y-145114642D01*
X129594000Y-145715358D01*
X129823884Y-146270346D01*
X130248654Y-146695116D01*
X130803642Y-146925000D01*
X131404358Y-146925000D01*
X131959346Y-146695116D01*
X132128496Y-146525966D01*
X132130843Y-146537765D01*
X132271191Y-146747809D01*
X132481235Y-146888157D01*
X132729000Y-146937440D01*
X134479000Y-146937440D01*
X134726765Y-146888157D01*
X134936809Y-146747809D01*
X135077157Y-146537765D01*
X135126440Y-146290000D01*
X135126440Y-144540000D01*
X135077157Y-144292235D01*
X134936809Y-144082191D01*
X134726765Y-143941843D01*
X134479000Y-143892560D01*
X134364000Y-143892560D01*
X134364000Y-141150451D01*
X134601765Y-141103157D01*
X134811809Y-140962809D01*
X134952157Y-140752765D01*
X135001440Y-140505000D01*
X135001440Y-139535000D01*
X134952157Y-139287235D01*
X134811809Y-139077191D01*
X134793564Y-139065000D01*
X134811809Y-139052809D01*
X134952157Y-138842765D01*
X135001440Y-138595000D01*
X135001440Y-137625000D01*
X134952157Y-137377235D01*
X134811809Y-137167191D01*
X134601765Y-137026843D01*
X134371207Y-136980983D01*
X134432157Y-136889765D01*
X134454587Y-136777000D01*
X134940155Y-136777000D01*
X135015002Y-136791888D01*
X135089849Y-136777000D01*
X135089854Y-136777000D01*
X135311539Y-136732904D01*
X135562931Y-136564929D01*
X135605333Y-136501470D01*
X139464001Y-132642803D01*
X139464000Y-134802018D01*
X139266191Y-134934191D01*
X139125843Y-135144235D01*
X139076560Y-135392000D01*
X139076560Y-136642000D01*
X139125843Y-136889765D01*
X139186793Y-136980983D01*
X138956235Y-137026843D01*
X138746191Y-137167191D01*
X138605843Y-137377235D01*
X138556560Y-137625000D01*
X138556560Y-138595000D01*
X138605843Y-138842765D01*
X138746191Y-139052809D01*
X138764436Y-139065000D01*
X138746191Y-139077191D01*
X138605843Y-139287235D01*
X138556560Y-139535000D01*
X138556560Y-140505000D01*
X138605843Y-140752765D01*
X138746191Y-140962809D01*
X138956235Y-141103157D01*
X139204000Y-141152440D01*
X139234001Y-141152440D01*
X139234000Y-144095390D01*
X139138654Y-144134884D01*
X138713884Y-144559654D01*
X138484000Y-145114642D01*
X138484000Y-145715358D01*
X138713884Y-146270346D01*
X139138654Y-146695116D01*
X139693642Y-146925000D01*
X140294358Y-146925000D01*
X140849346Y-146695116D01*
X141018496Y-146525966D01*
X141020843Y-146537765D01*
X141161191Y-146747809D01*
X141371235Y-146888157D01*
X141619000Y-146937440D01*
X143369000Y-146937440D01*
X143616765Y-146888157D01*
X143826809Y-146747809D01*
X143967157Y-146537765D01*
X144016440Y-146290000D01*
X144016440Y-144540000D01*
X143967157Y-144292235D01*
X143826809Y-144082191D01*
X143616765Y-143941843D01*
X143369000Y-143892560D01*
X143254000Y-143892560D01*
X143254000Y-141150451D01*
X143491765Y-141103157D01*
X143701809Y-140962809D01*
X143842157Y-140752765D01*
X143891440Y-140505000D01*
X143891440Y-139535000D01*
X143842157Y-139287235D01*
X143701809Y-139077191D01*
X143683564Y-139065000D01*
X143701809Y-139052809D01*
X143842157Y-138842765D01*
X143891440Y-138595000D01*
X143891440Y-137625000D01*
X143842157Y-137377235D01*
X143701809Y-137167191D01*
X143491765Y-137026843D01*
X143261207Y-136980983D01*
X143322157Y-136889765D01*
X143371440Y-136642000D01*
X143371440Y-135392000D01*
X143322157Y-135144235D01*
X143181809Y-134934191D01*
X142984000Y-134802018D01*
X142984000Y-132630951D01*
X143025528Y-132658699D01*
X146868300Y-136501472D01*
X146910701Y-136564929D01*
X147162093Y-136732904D01*
X147383778Y-136777000D01*
X147383782Y-136777000D01*
X147458629Y-136791888D01*
X147533476Y-136777000D01*
X147993413Y-136777000D01*
X148015843Y-136889765D01*
X148076793Y-136980983D01*
X147846235Y-137026843D01*
X147636191Y-137167191D01*
X147495843Y-137377235D01*
X147446560Y-137625000D01*
X147446560Y-138595000D01*
X147495843Y-138842765D01*
X147636191Y-139052809D01*
X147654436Y-139065000D01*
X147636191Y-139077191D01*
X147495843Y-139287235D01*
X147446560Y-139535000D01*
X147446560Y-140505000D01*
X147495843Y-140752765D01*
X147636191Y-140962809D01*
X147846235Y-141103157D01*
X148084000Y-141150451D01*
X148084001Y-143435143D01*
X148084000Y-143435148D01*
X148084000Y-144095390D01*
X147988654Y-144134884D01*
X147563884Y-144559654D01*
X147334000Y-145114642D01*
X147334000Y-145715358D01*
X147563884Y-146270346D01*
X147988654Y-146695116D01*
X148543642Y-146925000D01*
X149144358Y-146925000D01*
X149699346Y-146695116D01*
X149868496Y-146525966D01*
X149870843Y-146537765D01*
X150011191Y-146747809D01*
X150221235Y-146888157D01*
X150469000Y-146937440D01*
X152219000Y-146937440D01*
X152466765Y-146888157D01*
X152676809Y-146747809D01*
X152817157Y-146537765D01*
X152866440Y-146290000D01*
X152866440Y-144540000D01*
X152817157Y-144292235D01*
X152676809Y-144082191D01*
X152466765Y-143941843D01*
X152219000Y-143892560D01*
X152144000Y-143892560D01*
X152144000Y-143671848D01*
X152158888Y-143597000D01*
X152144000Y-143522152D01*
X152144000Y-141150451D01*
X152381765Y-141103157D01*
X152591809Y-140962809D01*
X152732157Y-140752765D01*
X152781440Y-140505000D01*
X152781440Y-139535000D01*
X152732157Y-139287235D01*
X152591809Y-139077191D01*
X152573564Y-139065000D01*
X152591809Y-139052809D01*
X152732157Y-138842765D01*
X152781440Y-138595000D01*
X152781440Y-137625000D01*
X152732157Y-137377235D01*
X152591809Y-137167191D01*
X152381765Y-137026843D01*
X152151207Y-136980983D01*
X152212157Y-136889765D01*
X152261440Y-136642000D01*
X152261440Y-135392000D01*
X152258454Y-135376988D01*
X155539187Y-135376988D01*
X156663670Y-136501472D01*
X156706071Y-136564929D01*
X156861947Y-136669082D01*
X156905843Y-136889765D01*
X156966793Y-136980983D01*
X156736235Y-137026843D01*
X156526191Y-137167191D01*
X156385843Y-137377235D01*
X156336560Y-137625000D01*
X156336560Y-138595000D01*
X156385843Y-138842765D01*
X156526191Y-139052809D01*
X156544436Y-139065000D01*
X156526191Y-139077191D01*
X156385843Y-139287235D01*
X156336560Y-139535000D01*
X156336560Y-140505000D01*
X156385843Y-140752765D01*
X156526191Y-140962809D01*
X156736235Y-141103157D01*
X156974000Y-141150451D01*
X156974001Y-143435143D01*
X156974000Y-143435148D01*
X156974000Y-144095390D01*
X156878654Y-144134884D01*
X156453884Y-144559654D01*
X156224000Y-145114642D01*
X156224000Y-145715358D01*
X156453884Y-146270346D01*
X156878654Y-146695116D01*
X157433642Y-146925000D01*
X158034358Y-146925000D01*
X158589346Y-146695116D01*
X158758496Y-146525966D01*
X158760843Y-146537765D01*
X158901191Y-146747809D01*
X159111235Y-146888157D01*
X159359000Y-146937440D01*
X161109000Y-146937440D01*
X161356765Y-146888157D01*
X161566809Y-146747809D01*
X161707157Y-146537765D01*
X161756440Y-146290000D01*
X161756440Y-144540000D01*
X161707157Y-144292235D01*
X161566809Y-144082191D01*
X161356765Y-143941843D01*
X161109000Y-143892560D01*
X161034000Y-143892560D01*
X161034000Y-143671848D01*
X161048888Y-143597000D01*
X161034000Y-143522152D01*
X161034000Y-141150451D01*
X161271765Y-141103157D01*
X161481809Y-140962809D01*
X161622157Y-140752765D01*
X161671440Y-140505000D01*
X161671440Y-139535000D01*
X161622157Y-139287235D01*
X161481809Y-139077191D01*
X161463564Y-139065000D01*
X161481809Y-139052809D01*
X161622157Y-138842765D01*
X161671440Y-138595000D01*
X161671440Y-137625000D01*
X161622157Y-137377235D01*
X161481809Y-137167191D01*
X161271765Y-137026843D01*
X161041207Y-136980983D01*
X161102157Y-136889765D01*
X161151440Y-136642000D01*
X161151440Y-135392000D01*
X161102157Y-135144235D01*
X160961809Y-134934191D01*
X160751765Y-134793843D01*
X160504000Y-134744560D01*
X159931362Y-134744560D01*
X159492812Y-134306011D01*
X160466799Y-134306011D01*
X162662259Y-136501472D01*
X162704660Y-136564929D01*
X162956052Y-136732904D01*
X163177737Y-136777000D01*
X163177741Y-136777000D01*
X163252588Y-136791888D01*
X163327435Y-136777000D01*
X165773413Y-136777000D01*
X165795843Y-136889765D01*
X165856793Y-136980983D01*
X165626235Y-137026843D01*
X165416191Y-137167191D01*
X165275843Y-137377235D01*
X165226560Y-137625000D01*
X165226560Y-138595000D01*
X165275843Y-138842765D01*
X165416191Y-139052809D01*
X165434436Y-139065000D01*
X165416191Y-139077191D01*
X165275843Y-139287235D01*
X165226560Y-139535000D01*
X165226560Y-140505000D01*
X165275843Y-140752765D01*
X165416191Y-140962809D01*
X165626235Y-141103157D01*
X165864001Y-141150451D01*
X165864000Y-143435148D01*
X165864000Y-144095390D01*
X165768654Y-144134884D01*
X165343884Y-144559654D01*
X165114000Y-145114642D01*
X165114000Y-145715358D01*
X165343884Y-146270346D01*
X165768654Y-146695116D01*
X166323642Y-146925000D01*
X166924358Y-146925000D01*
X167479346Y-146695116D01*
X167648496Y-146525966D01*
X167650843Y-146537765D01*
X167791191Y-146747809D01*
X168001235Y-146888157D01*
X168249000Y-146937440D01*
X169999000Y-146937440D01*
X170246765Y-146888157D01*
X170456809Y-146747809D01*
X170597157Y-146537765D01*
X170646440Y-146290000D01*
X170646440Y-144540000D01*
X170597157Y-144292235D01*
X170456809Y-144082191D01*
X170246765Y-143941843D01*
X169999000Y-143892560D01*
X169884000Y-143892560D01*
X169884000Y-141152440D01*
X169914000Y-141152440D01*
X170161765Y-141103157D01*
X170371809Y-140962809D01*
X170512157Y-140752765D01*
X170561440Y-140505000D01*
X170561440Y-139535000D01*
X170512157Y-139287235D01*
X170371809Y-139077191D01*
X170353564Y-139065000D01*
X170371809Y-139052809D01*
X170512157Y-138842765D01*
X170561440Y-138595000D01*
X170561440Y-137625000D01*
X170512157Y-137377235D01*
X170371809Y-137167191D01*
X170161765Y-137026843D01*
X169931207Y-136980983D01*
X169992157Y-136889765D01*
X170041440Y-136642000D01*
X170041440Y-135392000D01*
X169992157Y-135144235D01*
X169851809Y-134934191D01*
X169641765Y-134793843D01*
X169394000Y-134744560D01*
X168821361Y-134744560D01*
X168659330Y-134582529D01*
X168616928Y-134519070D01*
X168365536Y-134351095D01*
X168143851Y-134306999D01*
X168143846Y-134306999D01*
X168068999Y-134292111D01*
X167994152Y-134306999D01*
X163255802Y-134306999D01*
X161560332Y-132611530D01*
X161517930Y-132548071D01*
X161266538Y-132380096D01*
X161044853Y-132336000D01*
X161044848Y-132336000D01*
X160970001Y-132321112D01*
X160895154Y-132336000D01*
X153992317Y-132336000D01*
X154229909Y-132288740D01*
X154704577Y-131971577D01*
X155021740Y-131496909D01*
X155133113Y-130937000D01*
X155076234Y-130651050D01*
X172961000Y-130651050D01*
X172961000Y-131400950D01*
X173247974Y-132093767D01*
X173778233Y-132624026D01*
X174471050Y-132911000D01*
X175220950Y-132911000D01*
X175913767Y-132624026D01*
X176444026Y-132093767D01*
X176731000Y-131400950D01*
X176731000Y-130651050D01*
X176444026Y-129958233D01*
X175913767Y-129427974D01*
X175220950Y-129141000D01*
X174471050Y-129141000D01*
X173778233Y-129427974D01*
X173247974Y-129958233D01*
X172961000Y-130651050D01*
X155076234Y-130651050D01*
X155021740Y-130377091D01*
X154704577Y-129902423D01*
X154229909Y-129585260D01*
X153811333Y-129502000D01*
X153528667Y-129502000D01*
X153110091Y-129585260D01*
X152635423Y-129902423D01*
X152400000Y-130254758D01*
X152164577Y-129902423D01*
X151689909Y-129585260D01*
X151271333Y-129502000D01*
X150988667Y-129502000D01*
X150764999Y-129546490D01*
X150764999Y-119726845D01*
X150779887Y-119651998D01*
X150764999Y-119577151D01*
X150764999Y-119577147D01*
X150720903Y-119355462D01*
X150552928Y-119104070D01*
X150489472Y-119061670D01*
X148559801Y-117132000D01*
X148731333Y-117132000D01*
X149149909Y-117048740D01*
X149624577Y-116731577D01*
X149860000Y-116379242D01*
X150095423Y-116731577D01*
X150370001Y-116915044D01*
X150370001Y-117636148D01*
X150355112Y-117711000D01*
X150370001Y-117785852D01*
X150414097Y-118007537D01*
X150582072Y-118258929D01*
X150645528Y-118301329D01*
X156842560Y-124498362D01*
X156842560Y-125071000D01*
X156891843Y-125318765D01*
X157032191Y-125528809D01*
X157242235Y-125669157D01*
X157490000Y-125718440D01*
X158740000Y-125718440D01*
X158987765Y-125669157D01*
X159197809Y-125528809D01*
X159298674Y-125377855D01*
X159303260Y-125400909D01*
X159620423Y-125875577D01*
X160095091Y-126192740D01*
X160513667Y-126276000D01*
X160796333Y-126276000D01*
X161214909Y-126192740D01*
X161689577Y-125875577D01*
X162006740Y-125400909D01*
X162118113Y-124841000D01*
X162006740Y-124281091D01*
X161689577Y-123806423D01*
X161337242Y-123571000D01*
X161689577Y-123335577D01*
X162006740Y-122860909D01*
X162118113Y-122301000D01*
X162006740Y-121741091D01*
X161689577Y-121266423D01*
X161337242Y-121031000D01*
X161689577Y-120795577D01*
X162006740Y-120320909D01*
X162118113Y-119761000D01*
X162006740Y-119201091D01*
X161689577Y-118726423D01*
X161305892Y-118470053D01*
X161510134Y-118373389D01*
X161886041Y-117958423D01*
X162046904Y-117570039D01*
X161924915Y-117348000D01*
X160782000Y-117348000D01*
X160782000Y-117368000D01*
X160528000Y-117368000D01*
X160528000Y-117348000D01*
X159385085Y-117348000D01*
X159263096Y-117570039D01*
X159423959Y-117958423D01*
X159799866Y-118373389D01*
X160004108Y-118470053D01*
X159620423Y-118726423D01*
X159303260Y-119201091D01*
X159191887Y-119761000D01*
X159303260Y-120320909D01*
X159620423Y-120795577D01*
X159972758Y-121031000D01*
X159620423Y-121266423D01*
X159340071Y-121686000D01*
X159246459Y-121686000D01*
X159197809Y-121613191D01*
X158987765Y-121472843D01*
X158740000Y-121423560D01*
X157490000Y-121423560D01*
X157242235Y-121472843D01*
X157032191Y-121613191D01*
X156891843Y-121823235D01*
X156842560Y-122071000D01*
X156842560Y-122348758D01*
X151890000Y-117396199D01*
X151890000Y-116915043D01*
X152164577Y-116731577D01*
X152235735Y-116625082D01*
X152331673Y-116856698D01*
X152510301Y-117035327D01*
X152743690Y-117132000D01*
X153384250Y-117132000D01*
X153543000Y-116973250D01*
X153543000Y-115824000D01*
X153797000Y-115824000D01*
X153797000Y-116973250D01*
X153955750Y-117132000D01*
X154596310Y-117132000D01*
X154829699Y-117035327D01*
X155008327Y-116856698D01*
X155105000Y-116623309D01*
X155105000Y-115982750D01*
X154946250Y-115824000D01*
X153797000Y-115824000D01*
X153543000Y-115824000D01*
X153523000Y-115824000D01*
X153523000Y-115570000D01*
X153543000Y-115570000D01*
X153543000Y-114420750D01*
X153797000Y-114420750D01*
X153797000Y-115570000D01*
X154946250Y-115570000D01*
X155105000Y-115411250D01*
X155105000Y-114770691D01*
X155008327Y-114537302D01*
X154829699Y-114358673D01*
X154596310Y-114262000D01*
X153955750Y-114262000D01*
X153797000Y-114420750D01*
X153543000Y-114420750D01*
X153384250Y-114262000D01*
X152743690Y-114262000D01*
X152510301Y-114358673D01*
X152331673Y-114537302D01*
X152235735Y-114768918D01*
X152164577Y-114662423D01*
X151689909Y-114345260D01*
X151271333Y-114262000D01*
X150988667Y-114262000D01*
X150570091Y-114345260D01*
X150095423Y-114662423D01*
X149860000Y-115014758D01*
X149624577Y-114662423D01*
X149149909Y-114345260D01*
X148731333Y-114262000D01*
X148448667Y-114262000D01*
X148030091Y-114345260D01*
X147555423Y-114662423D01*
X147320000Y-115014758D01*
X147084577Y-114662423D01*
X146609909Y-114345260D01*
X146191333Y-114262000D01*
X145908667Y-114262000D01*
X145490091Y-114345260D01*
X145015423Y-114662423D01*
X144780000Y-115014758D01*
X144544577Y-114662423D01*
X144069909Y-114345260D01*
X143651333Y-114262000D01*
X143368667Y-114262000D01*
X142950091Y-114345260D01*
X142475423Y-114662423D01*
X142240000Y-115014758D01*
X142004577Y-114662423D01*
X141529909Y-114345260D01*
X141111333Y-114262000D01*
X140828667Y-114262000D01*
X140410091Y-114345260D01*
X139935423Y-114662423D01*
X139700000Y-115014758D01*
X139464577Y-114662423D01*
X138989909Y-114345260D01*
X138571333Y-114262000D01*
X138288667Y-114262000D01*
X137870091Y-114345260D01*
X137395423Y-114662423D01*
X137160000Y-115014758D01*
X136924577Y-114662423D01*
X136449909Y-114345260D01*
X136031333Y-114262000D01*
X135748667Y-114262000D01*
X135330091Y-114345260D01*
X134855423Y-114662423D01*
X134620000Y-115014758D01*
X134384577Y-114662423D01*
X133909909Y-114345260D01*
X133491333Y-114262000D01*
X133208667Y-114262000D01*
X132790091Y-114345260D01*
X132315423Y-114662423D01*
X132080000Y-115014758D01*
X131844577Y-114662423D01*
X131369909Y-114345260D01*
X130951333Y-114262000D01*
X130668667Y-114262000D01*
X130250091Y-114345260D01*
X129775423Y-114662423D01*
X129540000Y-115014758D01*
X129304577Y-114662423D01*
X128829909Y-114345260D01*
X128411333Y-114262000D01*
X128128667Y-114262000D01*
X127710091Y-114345260D01*
X127235423Y-114662423D01*
X127000000Y-115014758D01*
X126764577Y-114662423D01*
X126289909Y-114345260D01*
X125871333Y-114262000D01*
X125588667Y-114262000D01*
X125170091Y-114345260D01*
X124695423Y-114662423D01*
X124460000Y-115014758D01*
X124224577Y-114662423D01*
X123749909Y-114345260D01*
X123331333Y-114262000D01*
X123048667Y-114262000D01*
X122630091Y-114345260D01*
X122155423Y-114662423D01*
X121920000Y-115014758D01*
X121684577Y-114662423D01*
X121209909Y-114345260D01*
X120791333Y-114262000D01*
X120508667Y-114262000D01*
X120090091Y-114345260D01*
X119615423Y-114662423D01*
X119298260Y-115137091D01*
X119288988Y-115183704D01*
X119288988Y-112741750D01*
X127874000Y-112741750D01*
X127874000Y-112932309D01*
X127970673Y-113165698D01*
X128149301Y-113344327D01*
X128382690Y-113441000D01*
X128873250Y-113441000D01*
X129032000Y-113282250D01*
X129032000Y-112583000D01*
X129286000Y-112583000D01*
X129286000Y-113282250D01*
X129444750Y-113441000D01*
X129935310Y-113441000D01*
X130168699Y-113344327D01*
X130347327Y-113165698D01*
X130444000Y-112932309D01*
X130444000Y-112741750D01*
X130285250Y-112583000D01*
X129286000Y-112583000D01*
X129032000Y-112583000D01*
X128032750Y-112583000D01*
X127874000Y-112741750D01*
X119288988Y-112741750D01*
X119288988Y-107438811D01*
X119456560Y-107271240D01*
X119456560Y-107734000D01*
X119505843Y-107981765D01*
X119646191Y-108191809D01*
X119856235Y-108332157D01*
X120104000Y-108381440D01*
X121704000Y-108381440D01*
X121951765Y-108332157D01*
X122161809Y-108191809D01*
X122302157Y-107981765D01*
X122328785Y-107847894D01*
X122409423Y-107968577D01*
X122884091Y-108285740D01*
X123302667Y-108369000D01*
X123585333Y-108369000D01*
X124003909Y-108285740D01*
X124478577Y-107968577D01*
X124714000Y-107616242D01*
X124949423Y-107968577D01*
X125424091Y-108285740D01*
X125842667Y-108369000D01*
X126125333Y-108369000D01*
X126543909Y-108285740D01*
X127018577Y-107968577D01*
X127254000Y-107616242D01*
X127489423Y-107968577D01*
X127964091Y-108285740D01*
X128382667Y-108369000D01*
X128399001Y-108369000D01*
X128399000Y-109580440D01*
X128261235Y-109607843D01*
X128051191Y-109748191D01*
X127910843Y-109958235D01*
X127861560Y-110206000D01*
X127861560Y-110906000D01*
X127910843Y-111153765D01*
X128051191Y-111363809D01*
X128261235Y-111504157D01*
X128289209Y-111509721D01*
X128149301Y-111567673D01*
X127970673Y-111746302D01*
X127874000Y-111979691D01*
X127874000Y-112170250D01*
X128032750Y-112329000D01*
X129032000Y-112329000D01*
X129032000Y-112309000D01*
X129286000Y-112309000D01*
X129286000Y-112329000D01*
X130285250Y-112329000D01*
X130444000Y-112170250D01*
X130444000Y-111979691D01*
X130347327Y-111746302D01*
X130168699Y-111567673D01*
X130028791Y-111509721D01*
X130056765Y-111504157D01*
X130266809Y-111363809D01*
X130407157Y-111153765D01*
X130456440Y-110906000D01*
X130456440Y-110206000D01*
X130407157Y-109958235D01*
X130354214Y-109879000D01*
X132331560Y-109879000D01*
X132331560Y-110879000D01*
X132380843Y-111126765D01*
X132521191Y-111336809D01*
X132584334Y-111379000D01*
X132521191Y-111421191D01*
X132380843Y-111631235D01*
X132331560Y-111879000D01*
X132331560Y-112879000D01*
X132380843Y-113126765D01*
X132521191Y-113336809D01*
X132731235Y-113477157D01*
X132979000Y-113526440D01*
X134229000Y-113526440D01*
X134476765Y-113477157D01*
X134686809Y-113336809D01*
X134827157Y-113126765D01*
X134876440Y-112879000D01*
X134876440Y-112306362D01*
X134963473Y-112219329D01*
X135026929Y-112176929D01*
X135081737Y-112094903D01*
X135194903Y-111925538D01*
X135194903Y-111925537D01*
X135194904Y-111925536D01*
X135202967Y-111885000D01*
X137880688Y-111885000D01*
X137890853Y-111909540D01*
X138280460Y-112299147D01*
X138789506Y-112510000D01*
X139340494Y-112510000D01*
X139849540Y-112299147D01*
X140239147Y-111909540D01*
X140450000Y-111400494D01*
X140450000Y-110849506D01*
X140239147Y-110340460D01*
X139849540Y-109950853D01*
X139825000Y-109940688D01*
X139825000Y-109407801D01*
X140900114Y-108332688D01*
X141082667Y-108369000D01*
X141365333Y-108369000D01*
X141783909Y-108285740D01*
X142258577Y-107968577D01*
X142494000Y-107616242D01*
X142729423Y-107968577D01*
X143004000Y-108152044D01*
X143004001Y-110107312D01*
X142770853Y-110340460D01*
X142560000Y-110849506D01*
X142560000Y-111400494D01*
X142770853Y-111909540D01*
X143160460Y-112299147D01*
X143669506Y-112510000D01*
X144220494Y-112510000D01*
X144729540Y-112299147D01*
X145119147Y-111909540D01*
X145129312Y-111885000D01*
X147698560Y-111885000D01*
X147698560Y-112371000D01*
X147747843Y-112618765D01*
X147888191Y-112828809D01*
X148098235Y-112969157D01*
X148346000Y-113018440D01*
X149596000Y-113018440D01*
X149843765Y-112969157D01*
X150053809Y-112828809D01*
X150194157Y-112618765D01*
X150243440Y-112371000D01*
X150243440Y-111371000D01*
X150194157Y-111123235D01*
X150053809Y-110913191D01*
X149990666Y-110871000D01*
X150053809Y-110828809D01*
X150072796Y-110800393D01*
X150289126Y-110890000D01*
X150700874Y-110890000D01*
X151081280Y-110732431D01*
X151372431Y-110441280D01*
X151530000Y-110060874D01*
X151530000Y-109649126D01*
X151372431Y-109268720D01*
X151081280Y-108977569D01*
X150700874Y-108820000D01*
X150289126Y-108820000D01*
X150056049Y-108916543D01*
X150053809Y-108913191D01*
X149843765Y-108772843D01*
X149596000Y-108723560D01*
X148346000Y-108723560D01*
X148098235Y-108772843D01*
X147888191Y-108913191D01*
X147747843Y-109123235D01*
X147698560Y-109371000D01*
X147698560Y-110365000D01*
X145129312Y-110365000D01*
X145119147Y-110340460D01*
X144729540Y-109950853D01*
X144524000Y-109865716D01*
X144524000Y-108152043D01*
X144798577Y-107968577D01*
X145034000Y-107616242D01*
X145269423Y-107968577D01*
X145744091Y-108285740D01*
X146162667Y-108369000D01*
X146445333Y-108369000D01*
X146863909Y-108285740D01*
X147338577Y-107968577D01*
X147574000Y-107616242D01*
X147809423Y-107968577D01*
X148284091Y-108285740D01*
X148702667Y-108369000D01*
X148985333Y-108369000D01*
X149403909Y-108285740D01*
X149878577Y-107968577D01*
X150114000Y-107616242D01*
X150349423Y-107968577D01*
X150824091Y-108285740D01*
X151242667Y-108369000D01*
X151525333Y-108369000D01*
X151943909Y-108285740D01*
X152418577Y-107968577D01*
X152654000Y-107616242D01*
X152889423Y-107968577D01*
X153364091Y-108285740D01*
X153782667Y-108369000D01*
X154065333Y-108369000D01*
X154483909Y-108285740D01*
X154958577Y-107968577D01*
X155142043Y-107694000D01*
X157673199Y-107694000D01*
X159256312Y-109277114D01*
X159191887Y-109601000D01*
X159303260Y-110160909D01*
X159620423Y-110635577D01*
X159895000Y-110819044D01*
X159895001Y-110922956D01*
X159620423Y-111106423D01*
X159303260Y-111581091D01*
X159191887Y-112141000D01*
X159303260Y-112700909D01*
X159620423Y-113175577D01*
X159972758Y-113411000D01*
X159620423Y-113646423D01*
X159303260Y-114121091D01*
X159191887Y-114681000D01*
X159303260Y-115240909D01*
X159620423Y-115715577D01*
X160004108Y-115971947D01*
X159799866Y-116068611D01*
X159423959Y-116483577D01*
X159263096Y-116871961D01*
X159385085Y-117094000D01*
X160528000Y-117094000D01*
X160528000Y-117074000D01*
X160782000Y-117074000D01*
X160782000Y-117094000D01*
X161924915Y-117094000D01*
X162046904Y-116871961D01*
X161886041Y-116483577D01*
X161510134Y-116068611D01*
X161305892Y-115971947D01*
X161689577Y-115715577D01*
X162006740Y-115240909D01*
X162118113Y-114681000D01*
X162006740Y-114121091D01*
X161689577Y-113646423D01*
X161337242Y-113411000D01*
X161689577Y-113175577D01*
X162006740Y-112700909D01*
X162118113Y-112141000D01*
X162006740Y-111581091D01*
X161689577Y-111106423D01*
X161415000Y-110922957D01*
X161415000Y-110819043D01*
X161689577Y-110635577D01*
X162006740Y-110160909D01*
X162118113Y-109601000D01*
X166811887Y-109601000D01*
X166923260Y-110160909D01*
X167240423Y-110635577D01*
X167592758Y-110871000D01*
X167240423Y-111106423D01*
X166923260Y-111581091D01*
X166811887Y-112141000D01*
X166923260Y-112700909D01*
X167240423Y-113175577D01*
X167592758Y-113411000D01*
X167240423Y-113646423D01*
X166923260Y-114121091D01*
X166811887Y-114681000D01*
X166923260Y-115240909D01*
X167240423Y-115715577D01*
X167592758Y-115951000D01*
X167240423Y-116186423D01*
X166923260Y-116661091D01*
X166811887Y-117221000D01*
X166923260Y-117780909D01*
X167240423Y-118255577D01*
X167592758Y-118491000D01*
X167240423Y-118726423D01*
X166923260Y-119201091D01*
X166811887Y-119761000D01*
X166923260Y-120320909D01*
X167240423Y-120795577D01*
X167592758Y-121031000D01*
X167240423Y-121266423D01*
X166923260Y-121741091D01*
X166811887Y-122301000D01*
X166923260Y-122860909D01*
X167240423Y-123335577D01*
X167361106Y-123416215D01*
X167227235Y-123442843D01*
X167017191Y-123583191D01*
X166876843Y-123793235D01*
X166827560Y-124041000D01*
X166827560Y-125641000D01*
X166876843Y-125888765D01*
X167017191Y-126098809D01*
X167227235Y-126239157D01*
X167475000Y-126288440D01*
X169075000Y-126288440D01*
X169322765Y-126239157D01*
X169532809Y-126098809D01*
X169673157Y-125888765D01*
X169722440Y-125641000D01*
X169722440Y-124041000D01*
X169673157Y-123793235D01*
X169532809Y-123583191D01*
X169322765Y-123442843D01*
X169188894Y-123416215D01*
X169309577Y-123335577D01*
X169626740Y-122860909D01*
X169738113Y-122301000D01*
X169626740Y-121741091D01*
X169309577Y-121266423D01*
X168957242Y-121031000D01*
X169309577Y-120795577D01*
X169626740Y-120320909D01*
X169738113Y-119761000D01*
X169626740Y-119201091D01*
X169309577Y-118726423D01*
X168957242Y-118491000D01*
X169309577Y-118255577D01*
X169626740Y-117780909D01*
X169738113Y-117221000D01*
X169626740Y-116661091D01*
X169309577Y-116186423D01*
X168957242Y-115951000D01*
X169309577Y-115715577D01*
X169626740Y-115240909D01*
X169738113Y-114681000D01*
X169626740Y-114121091D01*
X169309577Y-113646423D01*
X168957242Y-113411000D01*
X169309577Y-113175577D01*
X169626740Y-112700909D01*
X169738113Y-112141000D01*
X169626740Y-111581091D01*
X169309577Y-111106423D01*
X168957242Y-110871000D01*
X169309577Y-110635577D01*
X169626740Y-110160909D01*
X169738113Y-109601000D01*
X169626740Y-109041091D01*
X169309577Y-108566423D01*
X168834909Y-108249260D01*
X168416333Y-108166000D01*
X168133667Y-108166000D01*
X167715091Y-108249260D01*
X167240423Y-108566423D01*
X166923260Y-109041091D01*
X166811887Y-109601000D01*
X162118113Y-109601000D01*
X162006740Y-109041091D01*
X161689577Y-108566423D01*
X161214909Y-108249260D01*
X160796333Y-108166000D01*
X160513667Y-108166000D01*
X160331114Y-108202312D01*
X158578331Y-106449530D01*
X158535929Y-106386071D01*
X158284537Y-106218096D01*
X158062852Y-106174000D01*
X158062847Y-106174000D01*
X157988000Y-106159112D01*
X157913153Y-106174000D01*
X155142043Y-106174000D01*
X154958577Y-105899423D01*
X154483909Y-105582260D01*
X154065333Y-105499000D01*
X153782667Y-105499000D01*
X153364091Y-105582260D01*
X152889423Y-105899423D01*
X152654000Y-106251758D01*
X152418577Y-105899423D01*
X151943909Y-105582260D01*
X151525333Y-105499000D01*
X151242667Y-105499000D01*
X150824091Y-105582260D01*
X150349423Y-105899423D01*
X150114000Y-106251758D01*
X149878577Y-105899423D01*
X149403909Y-105582260D01*
X148985333Y-105499000D01*
X148702667Y-105499000D01*
X148284091Y-105582260D01*
X147809423Y-105899423D01*
X147574000Y-106251758D01*
X147338577Y-105899423D01*
X146863909Y-105582260D01*
X146445333Y-105499000D01*
X146162667Y-105499000D01*
X145744091Y-105582260D01*
X145269423Y-105899423D01*
X145034000Y-106251758D01*
X144798577Y-105899423D01*
X144323909Y-105582260D01*
X143905333Y-105499000D01*
X143622667Y-105499000D01*
X143204091Y-105582260D01*
X142729423Y-105899423D01*
X142494000Y-106251758D01*
X142258577Y-105899423D01*
X141783909Y-105582260D01*
X141365333Y-105499000D01*
X141082667Y-105499000D01*
X140664091Y-105582260D01*
X140189423Y-105899423D01*
X139954000Y-106251758D01*
X139718577Y-105899423D01*
X139243909Y-105582260D01*
X138825333Y-105499000D01*
X138542667Y-105499000D01*
X138124091Y-105582260D01*
X137649423Y-105899423D01*
X137393053Y-106283108D01*
X137296389Y-106078866D01*
X136881423Y-105702959D01*
X136493039Y-105542096D01*
X136271000Y-105664085D01*
X136271000Y-106807000D01*
X136291000Y-106807000D01*
X136291000Y-107061000D01*
X136271000Y-107061000D01*
X136271000Y-108203915D01*
X136493039Y-108325904D01*
X136881423Y-108165041D01*
X137296389Y-107789134D01*
X137393053Y-107584892D01*
X137649423Y-107968577D01*
X138124091Y-108285740D01*
X138542667Y-108369000D01*
X138714199Y-108369000D01*
X138580530Y-108502669D01*
X138517071Y-108545071D01*
X138349096Y-108796464D01*
X138305000Y-109018149D01*
X138305000Y-109018153D01*
X138290112Y-109093000D01*
X138305000Y-109167847D01*
X138305000Y-109940688D01*
X138280460Y-109950853D01*
X137890853Y-110340460D01*
X137880688Y-110365000D01*
X134932847Y-110365000D01*
X134888305Y-110356140D01*
X135206280Y-110224431D01*
X135497431Y-109933280D01*
X135655000Y-109552874D01*
X135655000Y-109141126D01*
X135497431Y-108760720D01*
X135206280Y-108469569D01*
X134825874Y-108312000D01*
X134414126Y-108312000D01*
X134033720Y-108469569D01*
X133742569Y-108760720D01*
X133592569Y-109122852D01*
X133483862Y-109231560D01*
X132979000Y-109231560D01*
X132731235Y-109280843D01*
X132521191Y-109421191D01*
X132380843Y-109631235D01*
X132331560Y-109879000D01*
X130354214Y-109879000D01*
X130266809Y-109748191D01*
X130056765Y-109607843D01*
X129919000Y-109580440D01*
X129919000Y-107803317D01*
X130029423Y-107968577D01*
X130504091Y-108285740D01*
X130922667Y-108369000D01*
X131205333Y-108369000D01*
X131623909Y-108285740D01*
X132098577Y-107968577D01*
X132334000Y-107616242D01*
X132569423Y-107968577D01*
X133044091Y-108285740D01*
X133462667Y-108369000D01*
X133745333Y-108369000D01*
X134163909Y-108285740D01*
X134638577Y-107968577D01*
X134894947Y-107584892D01*
X134991611Y-107789134D01*
X135406577Y-108165041D01*
X135794961Y-108325904D01*
X136017000Y-108203915D01*
X136017000Y-107061000D01*
X135997000Y-107061000D01*
X135997000Y-106807000D01*
X136017000Y-106807000D01*
X136017000Y-105664085D01*
X135794961Y-105542096D01*
X135406577Y-105702959D01*
X134991611Y-106078866D01*
X134894947Y-106283108D01*
X134638577Y-105899423D01*
X134163909Y-105582260D01*
X133745333Y-105499000D01*
X133462667Y-105499000D01*
X133044091Y-105582260D01*
X132569423Y-105899423D01*
X132334000Y-106251758D01*
X132098577Y-105899423D01*
X131623909Y-105582260D01*
X131205333Y-105499000D01*
X131033801Y-105499000D01*
X131527911Y-105004890D01*
X157943524Y-105004890D01*
X158113355Y-105414924D01*
X158503642Y-105843183D01*
X159028108Y-106089486D01*
X159258000Y-105968819D01*
X159258000Y-104775000D01*
X158064845Y-104775000D01*
X157943524Y-105004890D01*
X131527911Y-105004890D01*
X135213474Y-101319328D01*
X135276930Y-101276928D01*
X135444905Y-101025536D01*
X135489001Y-100803851D01*
X135489001Y-100803847D01*
X135503889Y-100728999D01*
X135489001Y-100654151D01*
X135489001Y-100602203D01*
X135584091Y-100665740D01*
X136002667Y-100749000D01*
X136285333Y-100749000D01*
X136703909Y-100665740D01*
X137178577Y-100348577D01*
X137414000Y-99996242D01*
X137649423Y-100348577D01*
X138124091Y-100665740D01*
X138542667Y-100749000D01*
X138825333Y-100749000D01*
X139243909Y-100665740D01*
X139718577Y-100348577D01*
X139974947Y-99964892D01*
X140071611Y-100169134D01*
X140486577Y-100545041D01*
X140874961Y-100705904D01*
X141097000Y-100583915D01*
X141097000Y-99441000D01*
X141077000Y-99441000D01*
X141077000Y-99187000D01*
X141097000Y-99187000D01*
X141097000Y-98044085D01*
X140874961Y-97922096D01*
X140486577Y-98082959D01*
X140071611Y-98458866D01*
X139974947Y-98663108D01*
X139718577Y-98279423D01*
X139243909Y-97962260D01*
X138825333Y-97879000D01*
X138542667Y-97879000D01*
X138124091Y-97962260D01*
X137649423Y-98279423D01*
X137414000Y-98631758D01*
X137178577Y-98279423D01*
X136703909Y-97962260D01*
X136285333Y-97879000D01*
X136002667Y-97879000D01*
X135584091Y-97962260D01*
X135489001Y-98025797D01*
X135489001Y-98014061D01*
X135503889Y-97939214D01*
X135489001Y-97864367D01*
X135489001Y-97864362D01*
X135444905Y-97642677D01*
X135276930Y-97391285D01*
X135213474Y-97348885D01*
X135202414Y-97337825D01*
X135602086Y-96938153D01*
X135670909Y-96772000D01*
X139261091Y-96772000D01*
X139329914Y-96938153D01*
X139789847Y-97398086D01*
X140390778Y-97647000D01*
X141041222Y-97647000D01*
X141642153Y-97398086D01*
X142102086Y-96938153D01*
X142351000Y-96337222D01*
X142351000Y-95686778D01*
X142102086Y-95085847D01*
X141642153Y-94625914D01*
X141041222Y-94377000D01*
X140390778Y-94377000D01*
X139789847Y-94625914D01*
X139329914Y-95085847D01*
X139261091Y-95252000D01*
X135670909Y-95252000D01*
X135602086Y-95085847D01*
X135142153Y-94625914D01*
X134541222Y-94377000D01*
X134534803Y-94377000D01*
X138536472Y-90375332D01*
X138599928Y-90332932D01*
X138767903Y-90081540D01*
X138811999Y-89859855D01*
X138811999Y-89859851D01*
X138826887Y-89785004D01*
X138811999Y-89710157D01*
X138811999Y-89077440D01*
X139077000Y-89077440D01*
X139277000Y-89037658D01*
X139477000Y-89077440D01*
X139564637Y-89077440D01*
X140371982Y-89884786D01*
X139789847Y-90125914D01*
X139329914Y-90585847D01*
X139081000Y-91186778D01*
X139081000Y-91837222D01*
X139329914Y-92438153D01*
X139789847Y-92898086D01*
X140390778Y-93147000D01*
X141041222Y-93147000D01*
X141642153Y-92898086D01*
X142102086Y-92438153D01*
X142351000Y-91837222D01*
X142351000Y-91797005D01*
X142567145Y-91839999D01*
X142567150Y-91839999D01*
X142641997Y-91854887D01*
X142716844Y-91839999D01*
X142720560Y-91839999D01*
X142720560Y-92105000D01*
X142769843Y-92352765D01*
X142910191Y-92562809D01*
X143120235Y-92703157D01*
X143258000Y-92730560D01*
X143258001Y-97951537D01*
X143204091Y-97962260D01*
X142729423Y-98279423D01*
X142473053Y-98663108D01*
X142376389Y-98458866D01*
X141961423Y-98082959D01*
X141573039Y-97922096D01*
X141351000Y-98044085D01*
X141351000Y-99187000D01*
X141371000Y-99187000D01*
X141371000Y-99441000D01*
X141351000Y-99441000D01*
X141351000Y-100583915D01*
X141573039Y-100705904D01*
X141961423Y-100545041D01*
X142376389Y-100169134D01*
X142473053Y-99964892D01*
X142729423Y-100348577D01*
X143204091Y-100665740D01*
X143622667Y-100749000D01*
X143905333Y-100749000D01*
X144087887Y-100712688D01*
X147142672Y-103767474D01*
X147185072Y-103830930D01*
X147436464Y-103998905D01*
X147658149Y-104043001D01*
X147658153Y-104043001D01*
X147733000Y-104057889D01*
X147807847Y-104043001D01*
X158046288Y-104043001D01*
X157943524Y-104291110D01*
X158064845Y-104521000D01*
X159258000Y-104521000D01*
X159258000Y-104501000D01*
X159512000Y-104501000D01*
X159512000Y-104521000D01*
X159532000Y-104521000D01*
X159532000Y-104775000D01*
X159512000Y-104775000D01*
X159512000Y-105968819D01*
X159741892Y-106089486D01*
X160266358Y-105843183D01*
X160455039Y-105636145D01*
X160476843Y-105745765D01*
X160617191Y-105955809D01*
X160827235Y-106096157D01*
X161075000Y-106145440D01*
X162775000Y-106145440D01*
X163022765Y-106096157D01*
X163232809Y-105955809D01*
X163373157Y-105745765D01*
X163422440Y-105498000D01*
X163422440Y-105296483D01*
X163572929Y-105195929D01*
X163602970Y-105150969D01*
X163647930Y-105120928D01*
X163815905Y-104869536D01*
X163860001Y-104647851D01*
X163860001Y-104647847D01*
X163874889Y-104573000D01*
X163860001Y-104498153D01*
X163860001Y-101618845D01*
X163874889Y-101543998D01*
X163860001Y-101469151D01*
X163860001Y-101469147D01*
X163815905Y-101247462D01*
X163746031Y-101142888D01*
X163690330Y-101059525D01*
X163690328Y-101059523D01*
X163647930Y-100996070D01*
X163584477Y-100953672D01*
X163105295Y-100474492D01*
X163323839Y-100147418D01*
X163439092Y-99568000D01*
X163323839Y-98988582D01*
X162995625Y-98497375D01*
X162504418Y-98169161D01*
X162071256Y-98083000D01*
X161778744Y-98083000D01*
X161558592Y-98126791D01*
X160907000Y-97475199D01*
X160907000Y-84783852D01*
X160921889Y-84709000D01*
X160907000Y-84634148D01*
X160907000Y-82928059D01*
X160921888Y-82853212D01*
X160907000Y-82778365D01*
X160907000Y-82778361D01*
X160862904Y-82556676D01*
X160694929Y-82305284D01*
X160631473Y-82262884D01*
X159019639Y-80651050D01*
X172961000Y-80651050D01*
X172961000Y-81400950D01*
X173247974Y-82093767D01*
X173778233Y-82624026D01*
X174471050Y-82911000D01*
X175220950Y-82911000D01*
X175913767Y-82624026D01*
X176444026Y-82093767D01*
X176731000Y-81400950D01*
X176731000Y-80651050D01*
X176444026Y-79958233D01*
X175913767Y-79427974D01*
X175220950Y-79141000D01*
X174471050Y-79141000D01*
X173778233Y-79427974D01*
X173247974Y-79958233D01*
X172961000Y-80651050D01*
X159019639Y-80651050D01*
X158997414Y-80628825D01*
X159397086Y-80229153D01*
X159646000Y-79628222D01*
X159646000Y-78977778D01*
X159397086Y-78376847D01*
X158937153Y-77916914D01*
X158336222Y-77668000D01*
X157685778Y-77668000D01*
X157084847Y-77916914D01*
X156624914Y-78376847D01*
X156376000Y-78977778D01*
X156376000Y-79628222D01*
X156624914Y-80229153D01*
X157084847Y-80689086D01*
X157243597Y-80754842D01*
X157295097Y-81013750D01*
X157416499Y-81195440D01*
X157463072Y-81265142D01*
X157526528Y-81307542D01*
X159387000Y-83168015D01*
X159387001Y-83949000D01*
X155817590Y-83949000D01*
X152497414Y-80628825D01*
X152897086Y-80229153D01*
X153146000Y-79628222D01*
X153146000Y-78977778D01*
X152897086Y-78376847D01*
X152437153Y-77916914D01*
X151836222Y-77668000D01*
X151185778Y-77668000D01*
X150584847Y-77916914D01*
X150124914Y-78376847D01*
X149876000Y-78977778D01*
X149876000Y-79628222D01*
X150124914Y-80229153D01*
X150584847Y-80689086D01*
X150743597Y-80754842D01*
X150795097Y-81013750D01*
X150916499Y-81195440D01*
X150963072Y-81265142D01*
X151026528Y-81307542D01*
X154912460Y-85193476D01*
X154954858Y-85256929D01*
X155018311Y-85299327D01*
X155018313Y-85299329D01*
X155124080Y-85370000D01*
X155206250Y-85424904D01*
X155427935Y-85469000D01*
X155427939Y-85469000D01*
X155502786Y-85483888D01*
X155577633Y-85469000D01*
X159387000Y-85469000D01*
X159387000Y-90646308D01*
X159229538Y-90541095D01*
X159007853Y-90496999D01*
X159007848Y-90496999D01*
X158933001Y-90482111D01*
X158858154Y-90496999D01*
X148218801Y-90496999D01*
X146795551Y-89073750D01*
X147024765Y-89028157D01*
X147056844Y-89006723D01*
X147071833Y-89016738D01*
X147377000Y-89077440D01*
X147677000Y-89077440D01*
X147982167Y-89016738D01*
X148240875Y-88843875D01*
X148413738Y-88585167D01*
X148445112Y-88427440D01*
X148952000Y-88427440D01*
X149305003Y-88357223D01*
X149604264Y-88157264D01*
X149699321Y-88015000D01*
X149819307Y-88015000D01*
X149820131Y-88015341D01*
X149779443Y-88076235D01*
X149730160Y-88324000D01*
X149730160Y-89224000D01*
X149779443Y-89471765D01*
X149919791Y-89681809D01*
X150129835Y-89822157D01*
X150377600Y-89871440D01*
X151577600Y-89871440D01*
X151825365Y-89822157D01*
X152035409Y-89681809D01*
X152050650Y-89659000D01*
X153358950Y-89659000D01*
X153374191Y-89681809D01*
X153584235Y-89822157D01*
X153832000Y-89871440D01*
X155032000Y-89871440D01*
X155279765Y-89822157D01*
X155489809Y-89681809D01*
X155505050Y-89659000D01*
X157041950Y-89659000D01*
X157057191Y-89681809D01*
X157267235Y-89822157D01*
X157515000Y-89871440D01*
X158715000Y-89871440D01*
X158962765Y-89822157D01*
X159172809Y-89681809D01*
X159313157Y-89471765D01*
X159362440Y-89224000D01*
X159362440Y-88324000D01*
X159313157Y-88076235D01*
X159172809Y-87866191D01*
X158962765Y-87725843D01*
X158715000Y-87676560D01*
X157515000Y-87676560D01*
X157267235Y-87725843D01*
X157057191Y-87866191D01*
X157041950Y-87889000D01*
X155505050Y-87889000D01*
X155489809Y-87866191D01*
X155279765Y-87725843D01*
X155032000Y-87676560D01*
X153832000Y-87676560D01*
X153584235Y-87725843D01*
X153374191Y-87866191D01*
X153358950Y-87889000D01*
X152050650Y-87889000D01*
X152035409Y-87866191D01*
X151874546Y-87758705D01*
X151879937Y-87731600D01*
X151862600Y-87644439D01*
X151862600Y-87644435D01*
X151811252Y-87386290D01*
X151775954Y-87333463D01*
X151665024Y-87167445D01*
X151665023Y-87167444D01*
X151615649Y-87093551D01*
X151541756Y-87044177D01*
X151395431Y-86897852D01*
X151245431Y-86535720D01*
X150954280Y-86244569D01*
X150573874Y-86087000D01*
X150162126Y-86087000D01*
X149781720Y-86244569D01*
X149781289Y-86245000D01*
X149699321Y-86245000D01*
X149604264Y-86102736D01*
X149562000Y-86074496D01*
X149562000Y-79203277D01*
X149734809Y-79087809D01*
X149875157Y-78877765D01*
X149924440Y-78630000D01*
X149924440Y-77641138D01*
X151144625Y-76420954D01*
X151185778Y-76438000D01*
X151836222Y-76438000D01*
X152437153Y-76189086D01*
X152897086Y-75729153D01*
X152914132Y-75688000D01*
X153303422Y-75688000D01*
X153785569Y-76170148D01*
X153935569Y-76532280D01*
X154226720Y-76823431D01*
X154607126Y-76981000D01*
X155018874Y-76981000D01*
X155399280Y-76823431D01*
X155690431Y-76532280D01*
X155840431Y-76170147D01*
X156322579Y-75688000D01*
X156607868Y-75688000D01*
X156624914Y-75729153D01*
X157084847Y-76189086D01*
X157685778Y-76438000D01*
X158336222Y-76438000D01*
X158937153Y-76189086D01*
X159397086Y-75729153D01*
X159646000Y-75128222D01*
X159646000Y-74477778D01*
X159397086Y-73876847D01*
X158937153Y-73416914D01*
X158336222Y-73168000D01*
X157685778Y-73168000D01*
X157084847Y-73416914D01*
X156624914Y-73876847D01*
X156607868Y-73918000D01*
X156043159Y-73918000D01*
X155955999Y-73900663D01*
X155868839Y-73918000D01*
X155868835Y-73918000D01*
X155610690Y-73969348D01*
X155502880Y-74041385D01*
X155391845Y-74115576D01*
X155391844Y-74115577D01*
X155317951Y-74164951D01*
X155268577Y-74238844D01*
X154813000Y-74694421D01*
X154357425Y-74238847D01*
X154308049Y-74164951D01*
X154015310Y-73969348D01*
X153757165Y-73918000D01*
X153757161Y-73918000D01*
X153670000Y-73900663D01*
X153582839Y-73918000D01*
X152914132Y-73918000D01*
X152897086Y-73876847D01*
X152437153Y-73416914D01*
X151836222Y-73168000D01*
X151185778Y-73168000D01*
X150584847Y-73416914D01*
X150124914Y-73876847D01*
X149876000Y-74477778D01*
X149876000Y-75128222D01*
X149893046Y-75169375D01*
X149279387Y-75783035D01*
X149277000Y-75782560D01*
X148077000Y-75782560D01*
X147829235Y-75831843D01*
X147619191Y-75972191D01*
X147478843Y-76182235D01*
X147429560Y-76430000D01*
X147429560Y-78630000D01*
X147478843Y-78877765D01*
X147619191Y-79087809D01*
X147792001Y-79203278D01*
X147792000Y-85094000D01*
X146618007Y-85094000D01*
X146255874Y-84944000D01*
X145844126Y-84944000D01*
X145481993Y-85094000D01*
X144665161Y-85094000D01*
X144578000Y-85076663D01*
X144490839Y-85094000D01*
X144490835Y-85094000D01*
X144232690Y-85145348D01*
X143939951Y-85340951D01*
X143890576Y-85414846D01*
X143662845Y-85642577D01*
X143588952Y-85691951D01*
X143539578Y-85765844D01*
X143539576Y-85765846D01*
X143393348Y-85984691D01*
X143353990Y-86182560D01*
X142777000Y-86182560D01*
X142687392Y-86200384D01*
X142646814Y-86139654D01*
X142617329Y-86095526D01*
X142617327Y-86095524D01*
X142574929Y-86032071D01*
X142511476Y-85989673D01*
X142016330Y-85494529D01*
X141973929Y-85431071D01*
X141722537Y-85263096D01*
X141500852Y-85219000D01*
X141500847Y-85219000D01*
X141426000Y-85204112D01*
X141351153Y-85219000D01*
X138717846Y-85219000D01*
X138642998Y-85204112D01*
X138568150Y-85219000D01*
X138568146Y-85219000D01*
X138402244Y-85252000D01*
X138346460Y-85263096D01*
X138229943Y-85340951D01*
X138095069Y-85431071D01*
X138052669Y-85494527D01*
X137567527Y-85979670D01*
X137504071Y-86022070D01*
X137461671Y-86085526D01*
X137461670Y-86085527D01*
X137400653Y-86176846D01*
X137336096Y-86273462D01*
X137307719Y-86416125D01*
X137277111Y-86569999D01*
X137292000Y-86644851D01*
X137291999Y-89470201D01*
X135770285Y-90991915D01*
X135602086Y-90585847D01*
X135142153Y-90125914D01*
X135101000Y-90108868D01*
X135101000Y-89345159D01*
X135118337Y-89257999D01*
X135101000Y-89170840D01*
X135101000Y-89170835D01*
X135049652Y-88912690D01*
X135020000Y-88868313D01*
X135020000Y-88821126D01*
X134877592Y-88477322D01*
X135124765Y-88428157D01*
X135334809Y-88287809D01*
X135475157Y-88077765D01*
X135524440Y-87830000D01*
X135524440Y-86889437D01*
X135547376Y-86855111D01*
X135580652Y-86805310D01*
X135632000Y-86547165D01*
X135632000Y-86547161D01*
X135649337Y-86460001D01*
X135632000Y-86372841D01*
X135632000Y-78038007D01*
X135782000Y-77675874D01*
X135782000Y-77264126D01*
X135632929Y-76904234D01*
X136742000Y-76904234D01*
X136742000Y-77355766D01*
X136914793Y-77772926D01*
X137234074Y-78092207D01*
X137651234Y-78265000D01*
X138102766Y-78265000D01*
X138519926Y-78092207D01*
X138839207Y-77772926D01*
X139012000Y-77355766D01*
X139012000Y-76904234D01*
X144722000Y-76904234D01*
X144722000Y-77355766D01*
X144894793Y-77772926D01*
X145214074Y-78092207D01*
X145631234Y-78265000D01*
X146082766Y-78265000D01*
X146499926Y-78092207D01*
X146819207Y-77772926D01*
X146992000Y-77355766D01*
X146992000Y-76904234D01*
X146819207Y-76487074D01*
X146499926Y-76167793D01*
X146082766Y-75995000D01*
X145631234Y-75995000D01*
X145214074Y-76167793D01*
X144894793Y-76487074D01*
X144722000Y-76904234D01*
X139012000Y-76904234D01*
X138839207Y-76487074D01*
X138519926Y-76167793D01*
X138102766Y-75995000D01*
X137651234Y-75995000D01*
X137234074Y-76167793D01*
X136914793Y-76487074D01*
X136742000Y-76904234D01*
X135632929Y-76904234D01*
X135624431Y-76883720D01*
X135333280Y-76592569D01*
X134952874Y-76435000D01*
X134541126Y-76435000D01*
X134424440Y-76483333D01*
X134424440Y-76430000D01*
X134375157Y-76182235D01*
X134234809Y-75972191D01*
X134024765Y-75831843D01*
X133777000Y-75782560D01*
X132577000Y-75782560D01*
X132329235Y-75831843D01*
X132119191Y-75972191D01*
X131978843Y-76182235D01*
X131929560Y-76430000D01*
X131929560Y-78630000D01*
X131978843Y-78877765D01*
X132119191Y-79087809D01*
X132329235Y-79228157D01*
X132577000Y-79277440D01*
X133777000Y-79277440D01*
X133862000Y-79260533D01*
X133862001Y-85782560D01*
X133277000Y-85782560D01*
X133029235Y-85831843D01*
X132819191Y-85972191D01*
X132678843Y-86182235D01*
X132629560Y-86430000D01*
X132629560Y-87830000D01*
X132678843Y-88077765D01*
X132819191Y-88287809D01*
X133029235Y-88428157D01*
X133100000Y-88442233D01*
X133100000Y-88458992D01*
X132950000Y-88821126D01*
X132950000Y-89232874D01*
X133107569Y-89613280D01*
X133331001Y-89836712D01*
X133331001Y-90108868D01*
X133289847Y-90125914D01*
X132829914Y-90585847D01*
X132581000Y-91186778D01*
X132581000Y-91837222D01*
X132829914Y-92438153D01*
X133289847Y-92898086D01*
X133695915Y-93066285D01*
X131724281Y-95037920D01*
X131682334Y-94827037D01*
X131298865Y-94253135D01*
X130933000Y-94008672D01*
X130933000Y-81149159D01*
X130950337Y-81061999D01*
X130933000Y-80974839D01*
X130933000Y-80974835D01*
X130881652Y-80716690D01*
X130777313Y-80560537D01*
X130735424Y-80497845D01*
X130735423Y-80497844D01*
X130686049Y-80423951D01*
X130612156Y-80374577D01*
X129937424Y-79699846D01*
X129888049Y-79625951D01*
X129595310Y-79430348D01*
X129397440Y-79390989D01*
X129397440Y-78514000D01*
X129348157Y-78266235D01*
X129207809Y-78056191D01*
X128997765Y-77915843D01*
X128750000Y-77866560D01*
X125250000Y-77866560D01*
X125002235Y-77915843D01*
X124792191Y-78056191D01*
X124651843Y-78266235D01*
X124602560Y-78514000D01*
X124602560Y-79313000D01*
X119908611Y-79313000D01*
X119941001Y-79150166D01*
X119941001Y-79150161D01*
X119958338Y-79063002D01*
X119941001Y-78975842D01*
X119941001Y-77620158D01*
X119958338Y-77532998D01*
X119941001Y-77445838D01*
X119941001Y-77445834D01*
X119889653Y-77187689D01*
X119794664Y-77045528D01*
X119743425Y-76968844D01*
X119743424Y-76968843D01*
X119694050Y-76894950D01*
X119620157Y-76845576D01*
X118283427Y-75508847D01*
X118234051Y-75434951D01*
X117941312Y-75239348D01*
X117683167Y-75188000D01*
X117683163Y-75188000D01*
X117596002Y-75170663D01*
X117508841Y-75188000D01*
X115685440Y-75188000D01*
X115685440Y-75067000D01*
X115636157Y-74819235D01*
X115495809Y-74609191D01*
X115285765Y-74468843D01*
X115038000Y-74419560D01*
X114038000Y-74419560D01*
X113790235Y-74468843D01*
X113580191Y-74609191D01*
X113538000Y-74672334D01*
X113495809Y-74609191D01*
X113285765Y-74468843D01*
X113038000Y-74419560D01*
X112038000Y-74419560D01*
X111790235Y-74468843D01*
X111580191Y-74609191D01*
X111439843Y-74819235D01*
X111390560Y-75067000D01*
X111390560Y-75165000D01*
X111142696Y-75165000D01*
X111140157Y-75152235D01*
X110999809Y-74942191D01*
X110789765Y-74801843D01*
X110542000Y-74752560D01*
X107942000Y-74752560D01*
X107694235Y-74801843D01*
X107484191Y-74942191D01*
X107443346Y-75003320D01*
X107301698Y-74861673D01*
X107068309Y-74765000D01*
X105927750Y-74765000D01*
X105769000Y-74923750D01*
X105769000Y-76073000D01*
X105789000Y-76073000D01*
X105789000Y-76327000D01*
X105769000Y-76327000D01*
X105769000Y-77476250D01*
X105927750Y-77635000D01*
X107068309Y-77635000D01*
X107301698Y-77538327D01*
X107443346Y-77396680D01*
X107484191Y-77457809D01*
X107694235Y-77598157D01*
X107942000Y-77647440D01*
X110542000Y-77647440D01*
X110789765Y-77598157D01*
X110999809Y-77457809D01*
X111140157Y-77247765D01*
X111142696Y-77235000D01*
X111457874Y-77235000D01*
X111741000Y-77117726D01*
X111741000Y-77421874D01*
X111747380Y-77437278D01*
X111668191Y-77490191D01*
X111527843Y-77700235D01*
X111478560Y-77948000D01*
X111478560Y-78648000D01*
X111527843Y-78895765D01*
X111668191Y-79105809D01*
X111878235Y-79246157D01*
X111887500Y-79248000D01*
X111878235Y-79249843D01*
X111668191Y-79390191D01*
X111527843Y-79600235D01*
X111478560Y-79848000D01*
X111478560Y-80548000D01*
X111527843Y-80795765D01*
X111668191Y-81005809D01*
X111878235Y-81146157D01*
X112016001Y-81173560D01*
X112016001Y-81853148D01*
X112001112Y-81928000D01*
X112050900Y-82178299D01*
X111683553Y-82545646D01*
X111477000Y-82504560D01*
X111027000Y-82504560D01*
X110779235Y-82553843D01*
X110569191Y-82694191D01*
X110428843Y-82904235D01*
X110379560Y-83152000D01*
X110379560Y-83752000D01*
X110428843Y-83999765D01*
X110569191Y-84209809D01*
X110779235Y-84350157D01*
X111027000Y-84399440D01*
X111477000Y-84399440D01*
X111724765Y-84350157D01*
X111933513Y-84210675D01*
X112148537Y-84167904D01*
X112399929Y-83999929D01*
X112442331Y-83936470D01*
X113336473Y-83042329D01*
X113399929Y-82999929D01*
X113567904Y-82748537D01*
X113612000Y-82526851D01*
X113612000Y-82526848D01*
X113626888Y-82452000D01*
X113612000Y-82377152D01*
X113612000Y-82078846D01*
X113626888Y-82003999D01*
X113612000Y-81929152D01*
X113612000Y-81929148D01*
X113567904Y-81707463D01*
X113536000Y-81659715D01*
X113536000Y-81173560D01*
X113673765Y-81146157D01*
X113883809Y-81005809D01*
X114024157Y-80795765D01*
X114073440Y-80548000D01*
X114073440Y-79975361D01*
X114132008Y-79916794D01*
X114208191Y-80030809D01*
X114391000Y-80152959D01*
X114391001Y-83890418D01*
X113243844Y-85037576D01*
X113187420Y-85094000D01*
X112770578Y-85094000D01*
X112664425Y-84987847D01*
X112615049Y-84913951D01*
X112322310Y-84718348D01*
X112064165Y-84667000D01*
X112064161Y-84667000D01*
X111977000Y-84649663D01*
X111889839Y-84667000D01*
X111744456Y-84667000D01*
X111724765Y-84653843D01*
X111477000Y-84604560D01*
X111027000Y-84604560D01*
X110779235Y-84653843D01*
X110569191Y-84794191D01*
X110428843Y-85004235D01*
X110399210Y-85153211D01*
X109696422Y-85856000D01*
X108608440Y-85856000D01*
X108608440Y-85841000D01*
X108559157Y-85593235D01*
X108418809Y-85383191D01*
X108210304Y-85243871D01*
X108506938Y-84799927D01*
X108626072Y-84201000D01*
X108576909Y-83953843D01*
X108599048Y-83939050D01*
X108724032Y-83752000D01*
X108794651Y-83646311D01*
X108798273Y-83628101D01*
X108845999Y-83388166D01*
X108845999Y-83388162D01*
X108863336Y-83301001D01*
X108845999Y-83213840D01*
X108845999Y-82725836D01*
X108794651Y-82467691D01*
X108599048Y-82174952D01*
X108510169Y-82115565D01*
X108552046Y-82025742D01*
X108431997Y-81788000D01*
X107188000Y-81788000D01*
X107188000Y-81808000D01*
X106934000Y-81808000D01*
X106934000Y-81788000D01*
X105690003Y-81788000D01*
X105569954Y-82025742D01*
X105823034Y-82568576D01*
X106210174Y-82923376D01*
X105954327Y-83094327D01*
X105615062Y-83602073D01*
X105495928Y-84201000D01*
X105615062Y-84799927D01*
X105911696Y-85243871D01*
X105703191Y-85383191D01*
X105562843Y-85593235D01*
X105513560Y-85841000D01*
X105513560Y-87641000D01*
X105562843Y-87888765D01*
X105703191Y-88098809D01*
X105913235Y-88239157D01*
X106161000Y-88288440D01*
X107961000Y-88288440D01*
X108208765Y-88239157D01*
X108418809Y-88098809D01*
X108559157Y-87888765D01*
X108608440Y-87641000D01*
X108608440Y-87626000D01*
X109975839Y-87626000D01*
X110063000Y-87643337D01*
X110150161Y-87626000D01*
X110150165Y-87626000D01*
X110408310Y-87574652D01*
X110701049Y-87379049D01*
X110750425Y-87305153D01*
X111557474Y-86498104D01*
X111636951Y-86617049D01*
X111929690Y-86812652D01*
X112187835Y-86864000D01*
X112316839Y-86864000D01*
X112403999Y-86881337D01*
X112491159Y-86864000D01*
X113187420Y-86864000D01*
X119003001Y-92679582D01*
X119003001Y-93756560D01*
X118788000Y-93756560D01*
X118540235Y-93805843D01*
X118330191Y-93946191D01*
X118189843Y-94156235D01*
X118140560Y-94404000D01*
X118140560Y-95880757D01*
X115620440Y-93360639D01*
X115620440Y-90788000D01*
X115571157Y-90540235D01*
X115430809Y-90330191D01*
X115220765Y-90189843D01*
X114973000Y-90140560D01*
X113373000Y-90140560D01*
X113125235Y-90189843D01*
X112915191Y-90330191D01*
X112774843Y-90540235D01*
X112725560Y-90788000D01*
X112725560Y-92440638D01*
X109429639Y-95736560D01*
X108357000Y-95736560D01*
X108109235Y-95785843D01*
X107957000Y-95887564D01*
X107804765Y-95785843D01*
X107557000Y-95736560D01*
X106057000Y-95736560D01*
X105809235Y-95785843D01*
X105657953Y-95886927D01*
X105616699Y-95845673D01*
X105383310Y-95749000D01*
X104792750Y-95749000D01*
X104634000Y-95907750D01*
X104634000Y-97257000D01*
X104654000Y-97257000D01*
X104654000Y-97511000D01*
X104634000Y-97511000D01*
X104634000Y-97531000D01*
X104380000Y-97531000D01*
X104380000Y-97511000D01*
X103280750Y-97511000D01*
X103122000Y-97669750D01*
X103122000Y-98510309D01*
X103218673Y-98743698D01*
X103397301Y-98922327D01*
X103630690Y-99019000D01*
X104221250Y-99019000D01*
X104379998Y-98860252D01*
X104379998Y-98933424D01*
X104116931Y-99196491D01*
X103982765Y-99106843D01*
X103735000Y-99057560D01*
X102735000Y-99057560D01*
X102487235Y-99106843D01*
X102277191Y-99247191D01*
X102236346Y-99308320D01*
X102094698Y-99166673D01*
X101861309Y-99070000D01*
X101520750Y-99070000D01*
X101362000Y-99228750D01*
X101362000Y-100203000D01*
X101382000Y-100203000D01*
X101382000Y-100457000D01*
X101362000Y-100457000D01*
X101362000Y-100477000D01*
X101108000Y-100477000D01*
X101108000Y-100457000D01*
X100258750Y-100457000D01*
X100100000Y-100615750D01*
X100100000Y-101081310D01*
X100196673Y-101314699D01*
X100375302Y-101493327D01*
X100608691Y-101590000D01*
X100847322Y-101590000D01*
X100687235Y-101621843D01*
X100477191Y-101762191D01*
X100336843Y-101972235D01*
X100287560Y-102220000D01*
X100287560Y-103520000D01*
X100336843Y-103767765D01*
X100477191Y-103977809D01*
X100525000Y-104009754D01*
X100525001Y-106426197D01*
X99595929Y-107355269D01*
X99338182Y-107304000D01*
X99035818Y-107304000D01*
X98588073Y-107393062D01*
X98487801Y-107460062D01*
X98487801Y-99578690D01*
X100100000Y-99578690D01*
X100100000Y-100044250D01*
X100258750Y-100203000D01*
X101108000Y-100203000D01*
X101108000Y-99228750D01*
X100949250Y-99070000D01*
X100608691Y-99070000D01*
X100375302Y-99166673D01*
X100196673Y-99345301D01*
X100100000Y-99578690D01*
X98487801Y-99578690D01*
X98487801Y-96257691D01*
X103122000Y-96257691D01*
X103122000Y-97098250D01*
X103280750Y-97257000D01*
X104380000Y-97257000D01*
X104380000Y-95907750D01*
X104221250Y-95749000D01*
X103630690Y-95749000D01*
X103397301Y-95845673D01*
X103218673Y-96024302D01*
X103122000Y-96257691D01*
X98487801Y-96257691D01*
X98487801Y-91483800D01*
X98903158Y-91483800D01*
X99458146Y-91253916D01*
X99882916Y-90829146D01*
X100112800Y-90274158D01*
X100112800Y-90084000D01*
X104259560Y-90084000D01*
X104259560Y-92084000D01*
X104308843Y-92331765D01*
X104449191Y-92541809D01*
X104659235Y-92682157D01*
X104907000Y-92731440D01*
X108707000Y-92731440D01*
X108954765Y-92682157D01*
X109164809Y-92541809D01*
X109305157Y-92331765D01*
X109354440Y-92084000D01*
X109354440Y-90084000D01*
X109305157Y-89836235D01*
X109164809Y-89626191D01*
X108954765Y-89485843D01*
X108707000Y-89436560D01*
X104907000Y-89436560D01*
X104659235Y-89485843D01*
X104449191Y-89626191D01*
X104308843Y-89836235D01*
X104259560Y-90084000D01*
X100112800Y-90084000D01*
X100112800Y-89673442D01*
X99882916Y-89118454D01*
X99488262Y-88723800D01*
X99882916Y-88329146D01*
X100112800Y-87774158D01*
X100112800Y-87173442D01*
X99882916Y-86618454D01*
X99488262Y-86223800D01*
X99882916Y-85829146D01*
X100112800Y-85274158D01*
X100112800Y-84673442D01*
X99882916Y-84118454D01*
X99706041Y-83941579D01*
X99837499Y-83887127D01*
X100016127Y-83708498D01*
X100112800Y-83475109D01*
X100112800Y-82759550D01*
X99954050Y-82600800D01*
X98729800Y-82600800D01*
X98729800Y-82620800D01*
X98475800Y-82620800D01*
X98475800Y-82600800D01*
X97251550Y-82600800D01*
X97092800Y-82759550D01*
X97092800Y-83475109D01*
X97189473Y-83708498D01*
X97368101Y-83887127D01*
X97499559Y-83941579D01*
X97322684Y-84118454D01*
X97092800Y-84673442D01*
X97092800Y-85274158D01*
X97322684Y-85829146D01*
X97717338Y-86223800D01*
X97322684Y-86618454D01*
X97092800Y-87173442D01*
X97092800Y-87774158D01*
X97132294Y-87869505D01*
X96793320Y-88208479D01*
X96729861Y-88250881D01*
X96561886Y-88502274D01*
X96517790Y-88723959D01*
X96517790Y-88723963D01*
X96502902Y-88798810D01*
X96517790Y-88873657D01*
X96517791Y-115544351D01*
X96502902Y-115619203D01*
X96561887Y-115915740D01*
X96683206Y-116097306D01*
X96729862Y-116167132D01*
X96793318Y-116209532D01*
X99150270Y-118566485D01*
X99192670Y-118629941D01*
X99444062Y-118797916D01*
X99665747Y-118842012D01*
X99665752Y-118842012D01*
X99740599Y-118856900D01*
X99815446Y-118842012D01*
X106078141Y-118842012D01*
X106152988Y-118856900D01*
X106227835Y-118842012D01*
X106227840Y-118842012D01*
X106449525Y-118797916D01*
X106700917Y-118629941D01*
X106743319Y-118566482D01*
X107507296Y-117802506D01*
X107602642Y-117842000D01*
X108203358Y-117842000D01*
X108758346Y-117612116D01*
X109153000Y-117217462D01*
X109547654Y-117612116D01*
X110102642Y-117842000D01*
X110703358Y-117842000D01*
X111258346Y-117612116D01*
X111435221Y-117435241D01*
X111489673Y-117566699D01*
X111668302Y-117745327D01*
X111901691Y-117842000D01*
X112617250Y-117842000D01*
X112775998Y-117683252D01*
X112775998Y-117747423D01*
X100852422Y-129671000D01*
X98878440Y-129671000D01*
X98878440Y-129056000D01*
X98829157Y-128808235D01*
X98688809Y-128598191D01*
X98478765Y-128457843D01*
X98231000Y-128408560D01*
X95231000Y-128408560D01*
X94983235Y-128457843D01*
X94773191Y-128598191D01*
X94665000Y-128760109D01*
X94665000Y-81472491D01*
X97092800Y-81472491D01*
X97092800Y-82188050D01*
X97251550Y-82346800D01*
X98475800Y-82346800D01*
X98475800Y-81122550D01*
X98729800Y-81122550D01*
X98729800Y-82346800D01*
X99954050Y-82346800D01*
X100112800Y-82188050D01*
X100112800Y-81472491D01*
X100039802Y-81296258D01*
X105569954Y-81296258D01*
X105690003Y-81534000D01*
X106934000Y-81534000D01*
X106934000Y-80290622D01*
X107188000Y-80290622D01*
X107188000Y-81534000D01*
X108431997Y-81534000D01*
X108552046Y-81296258D01*
X108298966Y-80753424D01*
X107857417Y-80348760D01*
X107425740Y-80169964D01*
X107188000Y-80290622D01*
X106934000Y-80290622D01*
X106696260Y-80169964D01*
X106264583Y-80348760D01*
X105823034Y-80753424D01*
X105569954Y-81296258D01*
X100039802Y-81296258D01*
X100016127Y-81239102D01*
X99837499Y-81060473D01*
X99604110Y-80963800D01*
X98888550Y-80963800D01*
X98729800Y-81122550D01*
X98475800Y-81122550D01*
X98317050Y-80963800D01*
X97601490Y-80963800D01*
X97368101Y-81060473D01*
X97189473Y-81239102D01*
X97092800Y-81472491D01*
X94665000Y-81472491D01*
X94665000Y-77195724D01*
X94906723Y-77779296D01*
X95844874Y-78717447D01*
X97070627Y-79225170D01*
X98397373Y-79225170D01*
X99623126Y-78717447D01*
X100561277Y-77779296D01*
X101069000Y-76553543D01*
X101069000Y-76485750D01*
X103707000Y-76485750D01*
X103707000Y-77126310D01*
X103803673Y-77359699D01*
X103982302Y-77538327D01*
X104215691Y-77635000D01*
X105356250Y-77635000D01*
X105515000Y-77476250D01*
X105515000Y-76327000D01*
X103865750Y-76327000D01*
X103707000Y-76485750D01*
X101069000Y-76485750D01*
X101069000Y-75273690D01*
X103707000Y-75273690D01*
X103707000Y-75914250D01*
X103865750Y-76073000D01*
X105515000Y-76073000D01*
X105515000Y-74923750D01*
X105356250Y-74765000D01*
X104215691Y-74765000D01*
X103982302Y-74861673D01*
X103803673Y-75040301D01*
X103707000Y-75273690D01*
X101069000Y-75273690D01*
X101069000Y-75226797D01*
X100561277Y-74001044D01*
X99635233Y-73075000D01*
X165832947Y-73075000D01*
X164906898Y-74001049D01*
G36*
X119298260Y-116256909D02*
X119615423Y-116731577D01*
X120090091Y-117048740D01*
X120508667Y-117132000D01*
X120791333Y-117132000D01*
X121209909Y-117048740D01*
X121684577Y-116731577D01*
X121920000Y-116379242D01*
X122155423Y-116731577D01*
X122630091Y-117048740D01*
X123048667Y-117132000D01*
X123331333Y-117132000D01*
X123749909Y-117048740D01*
X124224577Y-116731577D01*
X124460000Y-116379242D01*
X124695423Y-116731577D01*
X125170091Y-117048740D01*
X125588667Y-117132000D01*
X125871333Y-117132000D01*
X126289909Y-117048740D01*
X126764577Y-116731577D01*
X127000000Y-116379242D01*
X127235423Y-116731577D01*
X127512713Y-116916856D01*
X127554097Y-117124907D01*
X127666181Y-117292652D01*
X127722072Y-117376299D01*
X127785528Y-117418699D01*
X131175001Y-120808173D01*
X131175002Y-129546491D01*
X130951333Y-129502000D01*
X130668667Y-129502000D01*
X130250091Y-129585260D01*
X129775423Y-129902423D01*
X129519053Y-130286108D01*
X129422389Y-130081866D01*
X129007423Y-129705959D01*
X128619039Y-129545096D01*
X128397000Y-129667085D01*
X128397000Y-130810000D01*
X128417000Y-130810000D01*
X128417000Y-131064000D01*
X128397000Y-131064000D01*
X128397000Y-131084000D01*
X128143000Y-131084000D01*
X128143000Y-131064000D01*
X128123000Y-131064000D01*
X128123000Y-130810000D01*
X128143000Y-130810000D01*
X128143000Y-129667085D01*
X127920961Y-129545096D01*
X127532577Y-129705959D01*
X127117611Y-130081866D01*
X127020947Y-130286108D01*
X126764577Y-129902423D01*
X126490000Y-129718957D01*
X126490000Y-129426456D01*
X126504888Y-129351608D01*
X126490000Y-129276760D01*
X126490000Y-129276756D01*
X126445904Y-129055071D01*
X126445904Y-129055070D01*
X126320329Y-128867135D01*
X126277929Y-128803679D01*
X126214473Y-128761279D01*
X119288988Y-121835795D01*
X119288988Y-116210296D01*
X119298260Y-116256909D01*
X119298260Y-116256909D01*
G37*
X119298260Y-116256909D02*
X119615423Y-116731577D01*
X120090091Y-117048740D01*
X120508667Y-117132000D01*
X120791333Y-117132000D01*
X121209909Y-117048740D01*
X121684577Y-116731577D01*
X121920000Y-116379242D01*
X122155423Y-116731577D01*
X122630091Y-117048740D01*
X123048667Y-117132000D01*
X123331333Y-117132000D01*
X123749909Y-117048740D01*
X124224577Y-116731577D01*
X124460000Y-116379242D01*
X124695423Y-116731577D01*
X125170091Y-117048740D01*
X125588667Y-117132000D01*
X125871333Y-117132000D01*
X126289909Y-117048740D01*
X126764577Y-116731577D01*
X127000000Y-116379242D01*
X127235423Y-116731577D01*
X127512713Y-116916856D01*
X127554097Y-117124907D01*
X127666181Y-117292652D01*
X127722072Y-117376299D01*
X127785528Y-117418699D01*
X131175001Y-120808173D01*
X131175002Y-129546491D01*
X130951333Y-129502000D01*
X130668667Y-129502000D01*
X130250091Y-129585260D01*
X129775423Y-129902423D01*
X129519053Y-130286108D01*
X129422389Y-130081866D01*
X129007423Y-129705959D01*
X128619039Y-129545096D01*
X128397000Y-129667085D01*
X128397000Y-130810000D01*
X128417000Y-130810000D01*
X128417000Y-131064000D01*
X128397000Y-131064000D01*
X128397000Y-131084000D01*
X128143000Y-131084000D01*
X128143000Y-131064000D01*
X128123000Y-131064000D01*
X128123000Y-130810000D01*
X128143000Y-130810000D01*
X128143000Y-129667085D01*
X127920961Y-129545096D01*
X127532577Y-129705959D01*
X127117611Y-130081866D01*
X127020947Y-130286108D01*
X126764577Y-129902423D01*
X126490000Y-129718957D01*
X126490000Y-129426456D01*
X126504888Y-129351608D01*
X126490000Y-129276760D01*
X126490000Y-129276756D01*
X126445904Y-129055071D01*
X126445904Y-129055070D01*
X126320329Y-128867135D01*
X126277929Y-128803679D01*
X126214473Y-128761279D01*
X119288988Y-121835795D01*
X119288988Y-116210296D01*
X119298260Y-116256909D01*
G36*
X105919451Y-107863895D02*
X105957685Y-107871500D01*
X106141137Y-107907991D01*
X106141141Y-107907991D01*
X106215989Y-107922879D01*
X106290837Y-107907991D01*
X106562594Y-107907991D01*
X106417302Y-107968173D01*
X106238673Y-108146801D01*
X106142000Y-108380190D01*
X106142000Y-108870750D01*
X106300750Y-109029500D01*
X107000000Y-109029500D01*
X107000000Y-109009500D01*
X107254000Y-109009500D01*
X107254000Y-109029500D01*
X107274000Y-109029500D01*
X107274000Y-109283500D01*
X107254000Y-109283500D01*
X107254000Y-110119839D01*
X107186097Y-110221463D01*
X107142001Y-110443148D01*
X107142001Y-110443152D01*
X107127113Y-110517999D01*
X107142001Y-110592846D01*
X107142002Y-113518196D01*
X105798705Y-114861494D01*
X105703358Y-114822000D01*
X105102642Y-114822000D01*
X104547654Y-115051884D01*
X104122884Y-115476654D01*
X104113879Y-115498394D01*
X103965060Y-115449545D01*
X103082605Y-116332000D01*
X103096748Y-116346143D01*
X102917143Y-116525748D01*
X102903000Y-116511605D01*
X102888858Y-116525748D01*
X102709253Y-116346143D01*
X102723395Y-116332000D01*
X102709253Y-116317858D01*
X102888858Y-116138253D01*
X102903000Y-116152395D01*
X103785455Y-115269940D01*
X103702116Y-115016047D01*
X103137694Y-114810410D01*
X102537542Y-114836421D01*
X102103884Y-115016047D01*
X102020546Y-115269938D01*
X101905914Y-115155306D01*
X101852000Y-115209220D01*
X101852000Y-111664750D01*
X106142000Y-111664750D01*
X106142000Y-112155310D01*
X106238673Y-112388699D01*
X106417302Y-112567327D01*
X106650691Y-112664000D01*
X106841250Y-112664000D01*
X107000000Y-112505250D01*
X107000000Y-111506000D01*
X106300750Y-111506000D01*
X106142000Y-111664750D01*
X101852000Y-111664750D01*
X101852000Y-110374000D01*
X101878182Y-110374000D01*
X102325927Y-110284938D01*
X102769871Y-109988304D01*
X102909191Y-110196809D01*
X103119235Y-110337157D01*
X103367000Y-110386440D01*
X105167000Y-110386440D01*
X105414765Y-110337157D01*
X105624809Y-110196809D01*
X105765157Y-109986765D01*
X105814440Y-109739000D01*
X105814440Y-109442250D01*
X106142000Y-109442250D01*
X106142000Y-109932810D01*
X106238673Y-110166199D01*
X106340225Y-110267750D01*
X106238673Y-110369301D01*
X106142000Y-110602690D01*
X106142000Y-111093250D01*
X106300750Y-111252000D01*
X107000000Y-111252000D01*
X107000000Y-109283500D01*
X106300750Y-109283500D01*
X106142000Y-109442250D01*
X105814440Y-109442250D01*
X105814440Y-107939000D01*
X105781115Y-107771461D01*
X105919451Y-107863895D01*
X105919451Y-107863895D01*
G37*
X105919451Y-107863895D02*
X105957685Y-107871500D01*
X106141137Y-107907991D01*
X106141141Y-107907991D01*
X106215989Y-107922879D01*
X106290837Y-107907991D01*
X106562594Y-107907991D01*
X106417302Y-107968173D01*
X106238673Y-108146801D01*
X106142000Y-108380190D01*
X106142000Y-108870750D01*
X106300750Y-109029500D01*
X107000000Y-109029500D01*
X107000000Y-109009500D01*
X107254000Y-109009500D01*
X107254000Y-109029500D01*
X107274000Y-109029500D01*
X107274000Y-109283500D01*
X107254000Y-109283500D01*
X107254000Y-110119839D01*
X107186097Y-110221463D01*
X107142001Y-110443148D01*
X107142001Y-110443152D01*
X107127113Y-110517999D01*
X107142001Y-110592846D01*
X107142002Y-113518196D01*
X105798705Y-114861494D01*
X105703358Y-114822000D01*
X105102642Y-114822000D01*
X104547654Y-115051884D01*
X104122884Y-115476654D01*
X104113879Y-115498394D01*
X103965060Y-115449545D01*
X103082605Y-116332000D01*
X103096748Y-116346143D01*
X102917143Y-116525748D01*
X102903000Y-116511605D01*
X102888858Y-116525748D01*
X102709253Y-116346143D01*
X102723395Y-116332000D01*
X102709253Y-116317858D01*
X102888858Y-116138253D01*
X102903000Y-116152395D01*
X103785455Y-115269940D01*
X103702116Y-115016047D01*
X103137694Y-114810410D01*
X102537542Y-114836421D01*
X102103884Y-115016047D01*
X102020546Y-115269938D01*
X101905914Y-115155306D01*
X101852000Y-115209220D01*
X101852000Y-111664750D01*
X106142000Y-111664750D01*
X106142000Y-112155310D01*
X106238673Y-112388699D01*
X106417302Y-112567327D01*
X106650691Y-112664000D01*
X106841250Y-112664000D01*
X107000000Y-112505250D01*
X107000000Y-111506000D01*
X106300750Y-111506000D01*
X106142000Y-111664750D01*
X101852000Y-111664750D01*
X101852000Y-110374000D01*
X101878182Y-110374000D01*
X102325927Y-110284938D01*
X102769871Y-109988304D01*
X102909191Y-110196809D01*
X103119235Y-110337157D01*
X103367000Y-110386440D01*
X105167000Y-110386440D01*
X105414765Y-110337157D01*
X105624809Y-110196809D01*
X105765157Y-109986765D01*
X105814440Y-109739000D01*
X105814440Y-109442250D01*
X106142000Y-109442250D01*
X106142000Y-109932810D01*
X106238673Y-110166199D01*
X106340225Y-110267750D01*
X106238673Y-110369301D01*
X106142000Y-110602690D01*
X106142000Y-111093250D01*
X106300750Y-111252000D01*
X107000000Y-111252000D01*
X107000000Y-109283500D01*
X106300750Y-109283500D01*
X106142000Y-109442250D01*
X105814440Y-109442250D01*
X105814440Y-107939000D01*
X105781115Y-107771461D01*
X105919451Y-107863895D01*
G36*
X114356326Y-115193867D02*
X114316327Y-115097301D01*
X114137698Y-114918673D01*
X113904309Y-114822000D01*
X113188750Y-114822000D01*
X113030000Y-114980750D01*
X113030000Y-116205000D01*
X113050000Y-116205000D01*
X113050000Y-116459000D01*
X113030000Y-116459000D01*
X113030000Y-116479000D01*
X112776000Y-116479000D01*
X112776000Y-116459000D01*
X112756000Y-116459000D01*
X112756000Y-116205000D01*
X112776000Y-116205000D01*
X112776000Y-114980750D01*
X112617250Y-114822000D01*
X111901691Y-114822000D01*
X111668302Y-114918673D01*
X111489673Y-115097301D01*
X111435221Y-115228759D01*
X111288000Y-115081538D01*
X111288000Y-113737578D01*
X112238148Y-112787431D01*
X112600280Y-112637431D01*
X112891431Y-112346280D01*
X113049000Y-111965874D01*
X113049000Y-111554126D01*
X112891431Y-111173720D01*
X112618266Y-110900555D01*
X114356327Y-109162494D01*
X114356326Y-115193867D01*
X114356326Y-115193867D01*
G37*
X114356326Y-115193867D02*
X114316327Y-115097301D01*
X114137698Y-114918673D01*
X113904309Y-114822000D01*
X113188750Y-114822000D01*
X113030000Y-114980750D01*
X113030000Y-116205000D01*
X113050000Y-116205000D01*
X113050000Y-116459000D01*
X113030000Y-116459000D01*
X113030000Y-116479000D01*
X112776000Y-116479000D01*
X112776000Y-116459000D01*
X112756000Y-116459000D01*
X112756000Y-116205000D01*
X112776000Y-116205000D01*
X112776000Y-114980750D01*
X112617250Y-114822000D01*
X111901691Y-114822000D01*
X111668302Y-114918673D01*
X111489673Y-115097301D01*
X111435221Y-115228759D01*
X111288000Y-115081538D01*
X111288000Y-113737578D01*
X112238148Y-112787431D01*
X112600280Y-112637431D01*
X112891431Y-112346280D01*
X113049000Y-111965874D01*
X113049000Y-111554126D01*
X112891431Y-111173720D01*
X112618266Y-110900555D01*
X114356327Y-109162494D01*
X114356326Y-115193867D01*
G36*
X102236843Y-103767765D02*
X102377191Y-103977809D01*
X102425001Y-104009755D01*
X102425001Y-104042151D01*
X102410112Y-104117002D01*
X102469097Y-104413539D01*
X102579949Y-104579440D01*
X102637072Y-104664931D01*
X102700528Y-104707331D01*
X105313995Y-107320799D01*
X105167000Y-107291560D01*
X103367000Y-107291560D01*
X103119235Y-107340843D01*
X102909191Y-107481191D01*
X102769871Y-107689696D01*
X102325927Y-107393062D01*
X101878182Y-107304000D01*
X101810374Y-107304000D01*
X101832929Y-107288929D01*
X102000904Y-107037537D01*
X102045000Y-106815852D01*
X102045000Y-106815848D01*
X102059888Y-106741001D01*
X102045000Y-106666154D01*
X102045000Y-104009754D01*
X102092809Y-103977809D01*
X102233157Y-103767765D01*
X102235000Y-103758500D01*
X102236843Y-103767765D01*
X102236843Y-103767765D01*
G37*
X102236843Y-103767765D02*
X102377191Y-103977809D01*
X102425001Y-104009755D01*
X102425001Y-104042151D01*
X102410112Y-104117002D01*
X102469097Y-104413539D01*
X102579949Y-104579440D01*
X102637072Y-104664931D01*
X102700528Y-104707331D01*
X105313995Y-107320799D01*
X105167000Y-107291560D01*
X103367000Y-107291560D01*
X103119235Y-107340843D01*
X102909191Y-107481191D01*
X102769871Y-107689696D01*
X102325927Y-107393062D01*
X101878182Y-107304000D01*
X101810374Y-107304000D01*
X101832929Y-107288929D01*
X102000904Y-107037537D01*
X102045000Y-106815852D01*
X102045000Y-106815848D01*
X102059888Y-106741001D01*
X102045000Y-106666154D01*
X102045000Y-104009754D01*
X102092809Y-103977809D01*
X102233157Y-103767765D01*
X102235000Y-103758500D01*
X102236843Y-103767765D01*
G36*
X119440887Y-99314000D02*
X119552260Y-99873909D01*
X119869423Y-100348577D01*
X120138698Y-100528501D01*
X117701539Y-102965659D01*
X117775000Y-102788310D01*
X117775000Y-102647750D01*
X117616250Y-102489000D01*
X116492000Y-102489000D01*
X116492000Y-102509000D01*
X116238000Y-102509000D01*
X116238000Y-102489000D01*
X116218000Y-102489000D01*
X116218000Y-102235000D01*
X116238000Y-102235000D01*
X116238000Y-102215000D01*
X116492000Y-102215000D01*
X116492000Y-102235000D01*
X117616250Y-102235000D01*
X117775000Y-102076250D01*
X117775000Y-101935690D01*
X117678327Y-101702301D01*
X117499698Y-101523673D01*
X117266309Y-101427000D01*
X116650750Y-101427000D01*
X116492002Y-101585748D01*
X116492002Y-101560189D01*
X119103193Y-98948999D01*
X119513490Y-98948999D01*
X119440887Y-99314000D01*
X119440887Y-99314000D01*
G37*
X119440887Y-99314000D02*
X119552260Y-99873909D01*
X119869423Y-100348577D01*
X120138698Y-100528501D01*
X117701539Y-102965659D01*
X117775000Y-102788310D01*
X117775000Y-102647750D01*
X117616250Y-102489000D01*
X116492000Y-102489000D01*
X116492000Y-102509000D01*
X116238000Y-102509000D01*
X116238000Y-102489000D01*
X116218000Y-102489000D01*
X116218000Y-102235000D01*
X116238000Y-102235000D01*
X116238000Y-102215000D01*
X116492000Y-102215000D01*
X116492000Y-102235000D01*
X117616250Y-102235000D01*
X117775000Y-102076250D01*
X117775000Y-101935690D01*
X117678327Y-101702301D01*
X117499698Y-101523673D01*
X117266309Y-101427000D01*
X116650750Y-101427000D01*
X116492002Y-101585748D01*
X116492002Y-101560189D01*
X119103193Y-98948999D01*
X119513490Y-98948999D01*
X119440887Y-99314000D01*
G36*
X102277191Y-101412809D02*
X102487235Y-101553157D01*
X102709891Y-101597446D01*
X102587235Y-101621843D01*
X102377191Y-101762191D01*
X102236843Y-101972235D01*
X102235000Y-101981500D01*
X102233157Y-101972235D01*
X102092809Y-101762191D01*
X101882765Y-101621843D01*
X101722678Y-101590000D01*
X101861309Y-101590000D01*
X102094698Y-101493327D01*
X102236346Y-101351680D01*
X102277191Y-101412809D01*
X102277191Y-101412809D01*
G37*
X102277191Y-101412809D02*
X102487235Y-101553157D01*
X102709891Y-101597446D01*
X102587235Y-101621843D01*
X102377191Y-101762191D01*
X102236843Y-101972235D01*
X102235000Y-101981500D01*
X102233157Y-101972235D01*
X102092809Y-101762191D01*
X101882765Y-101621843D01*
X101722678Y-101590000D01*
X101861309Y-101590000D01*
X102094698Y-101493327D01*
X102236346Y-101351680D01*
X102277191Y-101412809D01*
M02*
