M48
;DRILL file {KiCad (5.0-dev-4122-gf60c251)} date Monday, 11 June 2018 at 17:11:01
;FORMAT={-:-/ absolute / metric / decimal}
FMAT,2
METRIC,TZ
T1C0.400
T2C0.500
T3C0.800
T4C1.000
T5C1.050
T6C1.100
T7C1.500
T8C2.700
%
G90
G05
M71
T1
X105.283Y-114.3
X109.22Y-104.775
X110.236Y-100.838
X111.252Y-76.2
X112.014Y-111.76
X112.268Y-114.3
X112.649Y-104.902
X112.776Y-77.216
X115.241Y-108.369
X117.221Y-97.917
X133.985Y-89.027
X134.62Y-109.347
X134.747Y-77.47
X146.05Y-85.979
X150.368Y-87.122
X150.495Y-109.855
X154.813Y-75.946
X157.48Y-98.298
T2
X95.709Y-75.89
X96.302Y-74.458
X96.302Y-77.322
X97.734Y-73.865
X97.734Y-77.915
X99.166Y-74.458
X99.166Y-77.322
X99.759Y-75.89
X107.823Y-101.986
X107.823Y-103.886
X95.709Y-145.89
X96.302Y-144.458
X96.302Y-147.322
X97.734Y-143.865
X97.734Y-147.915
X99.166Y-144.458
X99.166Y-147.322
X99.759Y-145.89
X165.709Y-75.89
X166.302Y-74.458
X166.302Y-77.322
X167.734Y-73.865
X167.734Y-77.915
X169.166Y-74.458
X169.166Y-77.322
X169.759Y-75.89
X175.709Y-145.89
X176.302Y-144.458
X176.302Y-147.322
X177.734Y-143.865
X177.734Y-147.915
X179.166Y-144.458
X179.166Y-147.322
X179.759Y-145.89
T3
X160.655Y-109.601
X160.655Y-112.141
X160.655Y-114.681
X160.655Y-117.221
X160.655Y-119.761
X160.655Y-122.301
X160.655Y-124.841
X168.275Y-109.601
X168.275Y-112.141
X168.275Y-114.681
X168.275Y-117.221
X168.275Y-119.761
X168.275Y-122.301
X168.275Y-124.841
X120.65Y-115.697
X120.65Y-130.937
X123.19Y-115.697
X123.19Y-130.937
X125.73Y-115.697
X125.73Y-130.937
X128.27Y-115.697
X128.27Y-130.937
X130.81Y-115.697
X130.81Y-130.937
X133.35Y-115.697
X133.35Y-130.937
X135.89Y-115.697
X135.89Y-130.937
X138.43Y-115.697
X138.43Y-130.937
X140.97Y-115.697
X140.97Y-130.937
X143.51Y-115.697
X143.51Y-130.937
X146.05Y-115.697
X146.05Y-130.937
X148.59Y-115.697
X148.59Y-130.937
X151.13Y-115.697
X151.13Y-130.937
X153.67Y-115.697
X153.67Y-130.937
X120.904Y-99.314
X120.904Y-106.934
X123.444Y-99.314
X123.444Y-106.934
X125.984Y-99.314
X125.984Y-106.934
X128.524Y-99.314
X128.524Y-106.934
X131.064Y-99.314
X131.064Y-106.934
X133.604Y-99.314
X133.604Y-106.934
X136.144Y-99.314
X136.144Y-106.934
X138.684Y-99.314
X138.684Y-106.934
X141.224Y-99.314
X141.224Y-106.934
X143.764Y-99.314
X143.764Y-106.934
X146.304Y-99.314
X146.304Y-106.934
X148.844Y-99.314
X148.844Y-106.934
X151.384Y-99.314
X151.384Y-106.934
X153.924Y-99.314
X153.924Y-106.934
X139.065Y-111.125
X143.945Y-111.125
T4
X98.603Y-82.474
X98.603Y-84.974
X98.603Y-87.474
X98.603Y-89.974
X99.187Y-108.839
X101.727Y-108.839
X104.267Y-108.839
X100.403Y-116.332
X102.903Y-116.332
X105.403Y-116.332
X107.903Y-116.332
X110.403Y-116.332
X112.903Y-116.332
X107.061Y-81.661
X107.061Y-84.201
X107.061Y-86.741
X159.385Y-99.568
X159.385Y-102.108
X159.385Y-104.648
X161.925Y-99.568
X161.925Y-102.108
X161.925Y-104.648
T5
X122.214Y-145.415
X124.714Y-145.415
X157.734Y-145.415
X160.234Y-145.415
X104.434Y-145.415
X106.934Y-145.415
X113.324Y-145.415
X115.824Y-145.415
X131.104Y-145.415
X133.604Y-145.415
X166.624Y-145.415
X169.124Y-145.415
X139.994Y-145.415
X142.494Y-145.415
X117.094Y-84.495
X117.094Y-86.995
X148.844Y-145.415
X151.344Y-145.415
T6
X151.511Y-74.803
X151.511Y-79.303
X158.011Y-74.803
X158.011Y-79.303
X134.216Y-91.512
X134.216Y-96.012
X140.716Y-91.512
X140.716Y-96.012
X119.888Y-95.504
X130.048Y-95.504
T7
X96.731Y-130.556
X117.221Y-130.556
T8
X97.734Y-145.89
X167.734Y-75.89
X177.734Y-145.89
X97.734Y-75.89
T4
X122.3Y-82.264G85X122.3Y-84.264
G05
X128.Y-80.264G85X126.Y-80.264
G05
X128.Y-86.264G85X126.Y-86.264
G05
T0
M30
