%TF.GenerationSoftware,KiCad,Pcbnew,(5.0-dev-4122-gf60c251)*%
%TF.CreationDate,2018-06-11T17:10:56+01:00*%
%TF.ProjectId,ThermocoupleLogger,546865726D6F636F75706C654C6F6767,ca9ed02408*%
%TF.SameCoordinates,Original*%
%TF.FileFunction,Soldermask,Top*%
%TF.FilePolarity,Negative*%
%FSLAX46Y46*%
G04 Gerber Fmt 4.6, Leading zero omitted, Abs format (unit mm)*
G04 Created by KiCad (PCBNEW (5.0-dev-4122-gf60c251)) date Monday, 11 June 2018 at 17:10:56*
%MOMM*%
%LPD*%
G01*
G04 APERTURE LIST*
%ADD10C,0.010000*%
%ADD11C,2.500000*%
%ADD12C,5.400000*%
%ADD13C,0.800000*%
%ADD14R,2.600000X1.600000*%
%ADD15C,1.750000*%
%ADD16R,1.750000X1.750000*%
%ADD17R,1.500000X0.970000*%
%ADD18R,1.200000X2.200000*%
%ADD19R,1.600000X1.400000*%
%ADD20C,0.100000*%
%ADD21C,1.100000*%
%ADD22C,0.600000*%
%ADD23R,0.700000X1.600000*%
%ADD24O,1.700000X1.700000*%
%ADD25R,1.700000X1.700000*%
%ADD26O,1.600000X1.600000*%
%ADD27R,1.600000X1.600000*%
%ADD28R,1.550000X0.600000*%
%ADD29R,0.700000X1.300000*%
%ADD30R,3.000000X3.000000*%
%ADD31C,3.000000*%
%ADD32R,1.200000X0.900000*%
%ADD33O,1.800000X1.800000*%
%ADD34R,1.800000X1.800000*%
%ADD35R,1.500000X2.000000*%
%ADD36R,3.800000X2.000000*%
%ADD37R,1.000000X1.250000*%
%ADD38R,1.220000X0.650000*%
%ADD39C,2.000000*%
%ADD40R,1.250000X1.000000*%
%ADD41R,1.600000X3.000000*%
%ADD42R,1.300000X0.700000*%
%ADD43O,2.200000X2.200000*%
%ADD44R,2.200000X2.200000*%
%ADD45C,1.000000*%
%ADD46C,1.500000*%
%ADD47R,3.500000X3.500000*%
%ADD48R,0.450000X0.600000*%
G04 APERTURE END LIST*
D10*
G36*
X173328860Y-120334399D02*
X173395295Y-120216795D01*
X173497945Y-120123317D01*
X173584024Y-120079528D01*
X173722514Y-120048918D01*
X173860491Y-120058019D01*
X173981984Y-120105367D01*
X174000750Y-120117752D01*
X174088308Y-120208191D01*
X174148453Y-120327069D01*
X174178318Y-120460007D01*
X174175034Y-120592627D01*
X174135732Y-120710550D01*
X174123144Y-120731334D01*
X174044294Y-120813603D01*
X173935670Y-120881426D01*
X173818195Y-120923593D01*
X173748699Y-120931940D01*
X173639475Y-120912666D01*
X173525010Y-120862150D01*
X173426058Y-120791358D01*
X173377195Y-120735698D01*
X173316776Y-120603479D01*
X173301676Y-120466503D01*
X173328860Y-120334399D01*
X173328860Y-120334399D01*
G37*
X173328860Y-120334399D02*
X173395295Y-120216795D01*
X173497945Y-120123317D01*
X173584024Y-120079528D01*
X173722514Y-120048918D01*
X173860491Y-120058019D01*
X173981984Y-120105367D01*
X174000750Y-120117752D01*
X174088308Y-120208191D01*
X174148453Y-120327069D01*
X174178318Y-120460007D01*
X174175034Y-120592627D01*
X174135732Y-120710550D01*
X174123144Y-120731334D01*
X174044294Y-120813603D01*
X173935670Y-120881426D01*
X173818195Y-120923593D01*
X173748699Y-120931940D01*
X173639475Y-120912666D01*
X173525010Y-120862150D01*
X173426058Y-120791358D01*
X173377195Y-120735698D01*
X173316776Y-120603479D01*
X173301676Y-120466503D01*
X173328860Y-120334399D01*
G36*
X176194945Y-120093740D02*
X176466428Y-120093519D01*
X176691518Y-120092757D01*
X176874621Y-120091314D01*
X177020140Y-120089046D01*
X177132483Y-120085809D01*
X177216055Y-120081462D01*
X177275259Y-120075860D01*
X177314503Y-120068862D01*
X177338192Y-120060324D01*
X177344295Y-120056448D01*
X177381843Y-120030162D01*
X177409985Y-120019449D01*
X177430074Y-120029630D01*
X177443463Y-120066028D01*
X177451505Y-120133964D01*
X177455553Y-120238762D01*
X177456960Y-120385742D01*
X177457100Y-120500140D01*
X177456415Y-120650422D01*
X177454508Y-120781613D01*
X177451602Y-120885913D01*
X177447917Y-120955521D01*
X177443676Y-120982635D01*
X177443388Y-120982740D01*
X177414354Y-120972185D01*
X177357409Y-120945614D01*
X177330100Y-120931940D01*
X177302660Y-120919074D01*
X177272294Y-120908581D01*
X177233820Y-120900220D01*
X177182055Y-120893749D01*
X177111818Y-120888929D01*
X177017927Y-120885518D01*
X176895201Y-120883275D01*
X176738459Y-120881959D01*
X176542517Y-120881330D01*
X176302196Y-120881145D01*
X176237650Y-120881140D01*
X175980169Y-120881393D01*
X175768649Y-120882269D01*
X175598251Y-120883944D01*
X175464138Y-120886592D01*
X175361471Y-120890390D01*
X175285413Y-120895513D01*
X175231126Y-120902137D01*
X175193772Y-120910437D01*
X175169838Y-120919893D01*
X175094900Y-120958645D01*
X175094900Y-120093740D01*
X176194945Y-120093740D01*
X176194945Y-120093740D01*
G37*
X176194945Y-120093740D02*
X176466428Y-120093519D01*
X176691518Y-120092757D01*
X176874621Y-120091314D01*
X177020140Y-120089046D01*
X177132483Y-120085809D01*
X177216055Y-120081462D01*
X177275259Y-120075860D01*
X177314503Y-120068862D01*
X177338192Y-120060324D01*
X177344295Y-120056448D01*
X177381843Y-120030162D01*
X177409985Y-120019449D01*
X177430074Y-120029630D01*
X177443463Y-120066028D01*
X177451505Y-120133964D01*
X177455553Y-120238762D01*
X177456960Y-120385742D01*
X177457100Y-120500140D01*
X177456415Y-120650422D01*
X177454508Y-120781613D01*
X177451602Y-120885913D01*
X177447917Y-120955521D01*
X177443676Y-120982635D01*
X177443388Y-120982740D01*
X177414354Y-120972185D01*
X177357409Y-120945614D01*
X177330100Y-120931940D01*
X177302660Y-120919074D01*
X177272294Y-120908581D01*
X177233820Y-120900220D01*
X177182055Y-120893749D01*
X177111818Y-120888929D01*
X177017927Y-120885518D01*
X176895201Y-120883275D01*
X176738459Y-120881959D01*
X176542517Y-120881330D01*
X176302196Y-120881145D01*
X176237650Y-120881140D01*
X175980169Y-120881393D01*
X175768649Y-120882269D01*
X175598251Y-120883944D01*
X175464138Y-120886592D01*
X175361471Y-120890390D01*
X175285413Y-120895513D01*
X175231126Y-120902137D01*
X175193772Y-120910437D01*
X175169838Y-120919893D01*
X175094900Y-120958645D01*
X175094900Y-120093740D01*
X176194945Y-120093740D01*
G36*
X174231300Y-121676593D02*
X174231300Y-121131281D01*
X174432687Y-121330061D01*
X174795591Y-121659769D01*
X175069715Y-121874189D01*
X175173300Y-121952637D01*
X175293429Y-122047196D01*
X175417102Y-122147290D01*
X175531319Y-122242342D01*
X175623081Y-122321774D01*
X175650660Y-122346872D01*
X175738112Y-122428304D01*
X175829256Y-122358346D01*
X176018504Y-122222904D01*
X176157950Y-122135362D01*
X176240186Y-122080492D01*
X176319512Y-122019216D01*
X176325507Y-122014067D01*
X176408481Y-121945118D01*
X176511037Y-121864593D01*
X176621188Y-121781398D01*
X176726947Y-121704438D01*
X176816325Y-121642621D01*
X176873447Y-121606964D01*
X176926496Y-121571883D01*
X177004962Y-121513354D01*
X177096152Y-121441520D01*
X177187372Y-121366525D01*
X177265932Y-121298512D01*
X177304920Y-121262140D01*
X177330981Y-121238251D01*
X177378306Y-121195977D01*
X177387470Y-121187863D01*
X177457100Y-121126285D01*
X177457100Y-122252740D01*
X177378823Y-122252740D01*
X177302295Y-122269503D01*
X177197049Y-122316733D01*
X177071139Y-122389847D01*
X176932616Y-122484259D01*
X176818433Y-122571798D01*
X176726213Y-122643072D01*
X176635169Y-122708393D01*
X176562435Y-122755563D01*
X176551733Y-122761669D01*
X176485334Y-122801711D01*
X176437184Y-122836998D01*
X176428400Y-122845641D01*
X176389716Y-122880202D01*
X176333150Y-122920425D01*
X176284993Y-122958114D01*
X176263387Y-122988625D01*
X176263300Y-122989926D01*
X176287991Y-122998802D01*
X176359281Y-123005922D01*
X176472992Y-123011076D01*
X176624944Y-123014057D01*
X176759861Y-123014740D01*
X176939163Y-123014056D01*
X177075170Y-123011645D01*
X177175375Y-123006965D01*
X177247269Y-122999477D01*
X177298343Y-122988642D01*
X177336088Y-122973919D01*
X177337711Y-122973096D01*
X177397391Y-122937623D01*
X177435518Y-122906117D01*
X177437661Y-122903246D01*
X177443223Y-122918743D01*
X177448162Y-122978093D01*
X177452212Y-123074354D01*
X177455107Y-123200581D01*
X177456582Y-123349829D01*
X177456711Y-123401546D01*
X177457100Y-123928051D01*
X177387250Y-123898372D01*
X177328658Y-123870199D01*
X177293270Y-123848116D01*
X177264042Y-123844283D01*
X177188681Y-123840683D01*
X177071851Y-123837381D01*
X176918217Y-123834444D01*
X176732446Y-123831941D01*
X176519202Y-123829936D01*
X176283151Y-123828498D01*
X176028959Y-123827693D01*
X175857190Y-123827541D01*
X175553211Y-123827599D01*
X175295812Y-123827870D01*
X175080774Y-123828494D01*
X174903878Y-123829614D01*
X174760904Y-123831371D01*
X174647633Y-123833907D01*
X174559845Y-123837364D01*
X174493321Y-123841883D01*
X174443841Y-123847607D01*
X174407186Y-123854678D01*
X174379137Y-123863236D01*
X174355474Y-123873424D01*
X174345599Y-123878341D01*
X174283769Y-123909096D01*
X174244560Y-123927150D01*
X174238629Y-123929141D01*
X174236407Y-123905005D01*
X174234456Y-123837652D01*
X174232884Y-123734668D01*
X174231801Y-123603634D01*
X174231315Y-123452135D01*
X174231300Y-123418423D01*
X174231564Y-123245280D01*
X174232731Y-123116711D01*
X174235364Y-123026494D01*
X174240023Y-122968403D01*
X174247272Y-122936216D01*
X174257672Y-122923708D01*
X174271785Y-122924654D01*
X174275750Y-122926176D01*
X174364573Y-122959535D01*
X174453081Y-122983601D01*
X174552041Y-122999760D01*
X174672221Y-123009398D01*
X174824388Y-123013900D01*
X174963988Y-123014740D01*
X175383804Y-123014741D01*
X175310800Y-122938541D01*
X175260457Y-122890927D01*
X175223178Y-122864346D01*
X175216383Y-122862340D01*
X175190450Y-122847203D01*
X175137028Y-122807712D01*
X175067045Y-122752752D01*
X174991429Y-122691208D01*
X174921109Y-122631963D01*
X174867014Y-122583901D01*
X174840900Y-122557101D01*
X174813634Y-122534779D01*
X174757530Y-122496404D01*
X174713900Y-122468538D01*
X174626198Y-122410335D01*
X174539598Y-122347389D01*
X174511262Y-122325041D01*
X174444636Y-122280327D01*
X174383543Y-122254932D01*
X174367290Y-122252740D01*
X174323577Y-122252218D01*
X174290402Y-122246549D01*
X174266312Y-122229578D01*
X174249855Y-122195151D01*
X174239577Y-122137114D01*
X174234027Y-122049312D01*
X174231751Y-121925590D01*
X174231296Y-121759795D01*
X174231300Y-121676593D01*
X174231300Y-121676593D01*
G37*
X174231300Y-121676593D02*
X174231300Y-121131281D01*
X174432687Y-121330061D01*
X174795591Y-121659769D01*
X175069715Y-121874189D01*
X175173300Y-121952637D01*
X175293429Y-122047196D01*
X175417102Y-122147290D01*
X175531319Y-122242342D01*
X175623081Y-122321774D01*
X175650660Y-122346872D01*
X175738112Y-122428304D01*
X175829256Y-122358346D01*
X176018504Y-122222904D01*
X176157950Y-122135362D01*
X176240186Y-122080492D01*
X176319512Y-122019216D01*
X176325507Y-122014067D01*
X176408481Y-121945118D01*
X176511037Y-121864593D01*
X176621188Y-121781398D01*
X176726947Y-121704438D01*
X176816325Y-121642621D01*
X176873447Y-121606964D01*
X176926496Y-121571883D01*
X177004962Y-121513354D01*
X177096152Y-121441520D01*
X177187372Y-121366525D01*
X177265932Y-121298512D01*
X177304920Y-121262140D01*
X177330981Y-121238251D01*
X177378306Y-121195977D01*
X177387470Y-121187863D01*
X177457100Y-121126285D01*
X177457100Y-122252740D01*
X177378823Y-122252740D01*
X177302295Y-122269503D01*
X177197049Y-122316733D01*
X177071139Y-122389847D01*
X176932616Y-122484259D01*
X176818433Y-122571798D01*
X176726213Y-122643072D01*
X176635169Y-122708393D01*
X176562435Y-122755563D01*
X176551733Y-122761669D01*
X176485334Y-122801711D01*
X176437184Y-122836998D01*
X176428400Y-122845641D01*
X176389716Y-122880202D01*
X176333150Y-122920425D01*
X176284993Y-122958114D01*
X176263387Y-122988625D01*
X176263300Y-122989926D01*
X176287991Y-122998802D01*
X176359281Y-123005922D01*
X176472992Y-123011076D01*
X176624944Y-123014057D01*
X176759861Y-123014740D01*
X176939163Y-123014056D01*
X177075170Y-123011645D01*
X177175375Y-123006965D01*
X177247269Y-122999477D01*
X177298343Y-122988642D01*
X177336088Y-122973919D01*
X177337711Y-122973096D01*
X177397391Y-122937623D01*
X177435518Y-122906117D01*
X177437661Y-122903246D01*
X177443223Y-122918743D01*
X177448162Y-122978093D01*
X177452212Y-123074354D01*
X177455107Y-123200581D01*
X177456582Y-123349829D01*
X177456711Y-123401546D01*
X177457100Y-123928051D01*
X177387250Y-123898372D01*
X177328658Y-123870199D01*
X177293270Y-123848116D01*
X177264042Y-123844283D01*
X177188681Y-123840683D01*
X177071851Y-123837381D01*
X176918217Y-123834444D01*
X176732446Y-123831941D01*
X176519202Y-123829936D01*
X176283151Y-123828498D01*
X176028959Y-123827693D01*
X175857190Y-123827541D01*
X175553211Y-123827599D01*
X175295812Y-123827870D01*
X175080774Y-123828494D01*
X174903878Y-123829614D01*
X174760904Y-123831371D01*
X174647633Y-123833907D01*
X174559845Y-123837364D01*
X174493321Y-123841883D01*
X174443841Y-123847607D01*
X174407186Y-123854678D01*
X174379137Y-123863236D01*
X174355474Y-123873424D01*
X174345599Y-123878341D01*
X174283769Y-123909096D01*
X174244560Y-123927150D01*
X174238629Y-123929141D01*
X174236407Y-123905005D01*
X174234456Y-123837652D01*
X174232884Y-123734668D01*
X174231801Y-123603634D01*
X174231315Y-123452135D01*
X174231300Y-123418423D01*
X174231564Y-123245280D01*
X174232731Y-123116711D01*
X174235364Y-123026494D01*
X174240023Y-122968403D01*
X174247272Y-122936216D01*
X174257672Y-122923708D01*
X174271785Y-122924654D01*
X174275750Y-122926176D01*
X174364573Y-122959535D01*
X174453081Y-122983601D01*
X174552041Y-122999760D01*
X174672221Y-123009398D01*
X174824388Y-123013900D01*
X174963988Y-123014740D01*
X175383804Y-123014741D01*
X175310800Y-122938541D01*
X175260457Y-122890927D01*
X175223178Y-122864346D01*
X175216383Y-122862340D01*
X175190450Y-122847203D01*
X175137028Y-122807712D01*
X175067045Y-122752752D01*
X174991429Y-122691208D01*
X174921109Y-122631963D01*
X174867014Y-122583901D01*
X174840900Y-122557101D01*
X174813634Y-122534779D01*
X174757530Y-122496404D01*
X174713900Y-122468538D01*
X174626198Y-122410335D01*
X174539598Y-122347389D01*
X174511262Y-122325041D01*
X174444636Y-122280327D01*
X174383543Y-122254932D01*
X174367290Y-122252740D01*
X174323577Y-122252218D01*
X174290402Y-122246549D01*
X174266312Y-122229578D01*
X174249855Y-122195151D01*
X174239577Y-122137114D01*
X174234027Y-122049312D01*
X174231751Y-121925590D01*
X174231296Y-121759795D01*
X174231300Y-121676593D01*
D11*
X174846000Y-131026000D03*
D12*
X97734000Y-75890170D03*
D13*
X99759000Y-75890170D03*
X99165891Y-77322061D03*
X97734000Y-77915170D03*
X96302109Y-77322061D03*
X95709000Y-75890170D03*
X96302109Y-74458279D03*
X97734000Y-73865170D03*
X99165891Y-74458279D03*
X179166066Y-144458284D03*
X177734175Y-143865175D03*
X176302284Y-144458284D03*
X175709175Y-145890175D03*
X176302284Y-147322066D03*
X177734175Y-147915175D03*
X179166066Y-147322066D03*
X179759175Y-145890175D03*
D12*
X177734175Y-145890175D03*
D13*
X99166066Y-144458284D03*
X97734175Y-143865175D03*
X96302284Y-144458284D03*
X95709175Y-145890175D03*
X96302284Y-147322066D03*
X97734175Y-147915175D03*
X99166066Y-147322066D03*
X99759175Y-145890175D03*
D12*
X97734175Y-145890175D03*
D13*
X169166066Y-74458284D03*
X167734175Y-73865175D03*
X166302284Y-74458284D03*
X165709175Y-75890175D03*
X166302284Y-77322066D03*
X167734175Y-77915175D03*
X169166066Y-77322066D03*
X169759175Y-75890175D03*
D12*
X167734175Y-75890175D03*
D14*
X109242000Y-76200000D03*
X105642000Y-76200000D03*
D15*
X98602800Y-89973800D03*
X98602800Y-87473800D03*
X98602800Y-84973800D03*
D16*
X98602800Y-82473800D03*
D11*
X174846000Y-81026000D03*
D17*
X142494000Y-138110000D03*
X142494000Y-140020000D03*
X157734000Y-140020000D03*
X157734000Y-138110000D03*
X106934000Y-138059200D03*
X106934000Y-139969200D03*
X104444800Y-139969200D03*
X104444800Y-138059200D03*
X113284000Y-140020000D03*
X113284000Y-138110000D03*
X122174000Y-140020000D03*
X122174000Y-138110000D03*
X131064000Y-140020000D03*
X131064000Y-138110000D03*
X139954000Y-140020000D03*
X139954000Y-138110000D03*
X148844000Y-140020000D03*
X148844000Y-138110000D03*
X166624000Y-140020000D03*
X166624000Y-138110000D03*
X115824000Y-138110000D03*
X115824000Y-140020000D03*
X124714000Y-138110000D03*
X124714000Y-140020000D03*
X133604000Y-138110000D03*
X133604000Y-140020000D03*
X151384000Y-138110000D03*
X151384000Y-140020000D03*
X160274000Y-138110000D03*
X160274000Y-140020000D03*
X169164000Y-138110000D03*
X169164000Y-140020000D03*
D18*
X133177000Y-77530000D03*
X148677000Y-77530000D03*
D19*
X134077000Y-87130000D03*
D20*
G36*
X148978955Y-86481324D02*
X149005650Y-86485284D01*
X149031828Y-86491841D01*
X149057238Y-86500933D01*
X149081634Y-86512472D01*
X149104782Y-86526346D01*
X149126458Y-86542422D01*
X149146454Y-86560546D01*
X149164578Y-86580542D01*
X149180654Y-86602218D01*
X149194528Y-86625366D01*
X149206067Y-86649762D01*
X149215159Y-86675172D01*
X149221716Y-86701350D01*
X149225676Y-86728045D01*
X149227000Y-86755000D01*
X149227000Y-87505000D01*
X149225676Y-87531955D01*
X149221716Y-87558650D01*
X149215159Y-87584828D01*
X149206067Y-87610238D01*
X149194528Y-87634634D01*
X149180654Y-87657782D01*
X149164578Y-87679458D01*
X149146454Y-87699454D01*
X149126458Y-87717578D01*
X149104782Y-87733654D01*
X149081634Y-87747528D01*
X149057238Y-87759067D01*
X149031828Y-87768159D01*
X149005650Y-87774716D01*
X148978955Y-87778676D01*
X148952000Y-87780000D01*
X148402000Y-87780000D01*
X148375045Y-87778676D01*
X148348350Y-87774716D01*
X148322172Y-87768159D01*
X148296762Y-87759067D01*
X148272366Y-87747528D01*
X148249218Y-87733654D01*
X148227542Y-87717578D01*
X148207546Y-87699454D01*
X148189422Y-87679458D01*
X148173346Y-87657782D01*
X148159472Y-87634634D01*
X148147933Y-87610238D01*
X148138841Y-87584828D01*
X148132284Y-87558650D01*
X148128324Y-87531955D01*
X148127000Y-87505000D01*
X148127000Y-86755000D01*
X148128324Y-86728045D01*
X148132284Y-86701350D01*
X148138841Y-86675172D01*
X148147933Y-86649762D01*
X148159472Y-86625366D01*
X148173346Y-86602218D01*
X148189422Y-86580542D01*
X148207546Y-86560546D01*
X148227542Y-86542422D01*
X148249218Y-86526346D01*
X148272366Y-86512472D01*
X148296762Y-86500933D01*
X148322172Y-86491841D01*
X148348350Y-86485284D01*
X148375045Y-86481324D01*
X148402000Y-86480000D01*
X148952000Y-86480000D01*
X148978955Y-86481324D01*
X148978955Y-86481324D01*
G37*
D21*
X148677000Y-87130000D03*
D20*
G36*
X147691703Y-86830722D02*
X147706264Y-86832882D01*
X147720543Y-86836459D01*
X147734403Y-86841418D01*
X147747710Y-86847712D01*
X147760336Y-86855280D01*
X147772159Y-86864048D01*
X147783066Y-86873934D01*
X147792952Y-86884841D01*
X147801720Y-86896664D01*
X147809288Y-86909290D01*
X147815582Y-86922597D01*
X147820541Y-86936457D01*
X147824118Y-86950736D01*
X147826278Y-86965297D01*
X147827000Y-86980000D01*
X147827000Y-88280000D01*
X147826278Y-88294703D01*
X147824118Y-88309264D01*
X147820541Y-88323543D01*
X147815582Y-88337403D01*
X147809288Y-88350710D01*
X147801720Y-88363336D01*
X147792952Y-88375159D01*
X147783066Y-88386066D01*
X147772159Y-88395952D01*
X147760336Y-88404720D01*
X147747710Y-88412288D01*
X147734403Y-88418582D01*
X147720543Y-88423541D01*
X147706264Y-88427118D01*
X147691703Y-88429278D01*
X147677000Y-88430000D01*
X147377000Y-88430000D01*
X147362297Y-88429278D01*
X147347736Y-88427118D01*
X147333457Y-88423541D01*
X147319597Y-88418582D01*
X147306290Y-88412288D01*
X147293664Y-88404720D01*
X147281841Y-88395952D01*
X147270934Y-88386066D01*
X147261048Y-88375159D01*
X147252280Y-88363336D01*
X147244712Y-88350710D01*
X147238418Y-88337403D01*
X147233459Y-88323543D01*
X147229882Y-88309264D01*
X147227722Y-88294703D01*
X147227000Y-88280000D01*
X147227000Y-86980000D01*
X147227722Y-86965297D01*
X147229882Y-86950736D01*
X147233459Y-86936457D01*
X147238418Y-86922597D01*
X147244712Y-86909290D01*
X147252280Y-86896664D01*
X147261048Y-86884841D01*
X147270934Y-86873934D01*
X147281841Y-86864048D01*
X147293664Y-86855280D01*
X147306290Y-86847712D01*
X147319597Y-86841418D01*
X147333457Y-86836459D01*
X147347736Y-86832882D01*
X147362297Y-86830722D01*
X147377000Y-86830000D01*
X147677000Y-86830000D01*
X147691703Y-86830722D01*
X147691703Y-86830722D01*
G37*
D22*
X147527000Y-87630000D03*
D23*
X145327000Y-87630000D03*
X146427000Y-87630000D03*
X144227000Y-87630000D03*
X143127000Y-87630000D03*
X142027000Y-87630000D03*
X138727000Y-87630000D03*
X139827000Y-87630000D03*
X140927000Y-87630000D03*
D15*
X100403000Y-116332000D03*
X102903000Y-116332000D03*
X105403000Y-116332000D03*
X107903000Y-116332000D03*
X110403000Y-116332000D03*
D16*
X112903000Y-116332000D03*
D24*
X159385000Y-99568000D03*
X161925000Y-99568000D03*
X159385000Y-102108000D03*
X161925000Y-102108000D03*
X159385000Y-104648000D03*
D25*
X161925000Y-104648000D03*
D26*
X160655000Y-124841000D03*
X168275000Y-109601000D03*
X160655000Y-122301000D03*
X168275000Y-112141000D03*
X160655000Y-119761000D03*
X168275000Y-114681000D03*
X160655000Y-117221000D03*
X168275000Y-117221000D03*
X160655000Y-114681000D03*
X168275000Y-119761000D03*
X160655000Y-112141000D03*
X168275000Y-122301000D03*
X160655000Y-109601000D03*
D27*
X168275000Y-124841000D03*
D28*
X116365000Y-102362000D03*
X116365000Y-103632000D03*
X116365000Y-104902000D03*
X116365000Y-106172000D03*
X110965000Y-106172000D03*
X110965000Y-104902000D03*
X110965000Y-103632000D03*
X110965000Y-102362000D03*
D29*
X109027000Y-111379000D03*
X107127000Y-111379000D03*
D30*
X96731000Y-130556000D03*
D31*
X117221000Y-130556000D03*
D32*
X158115000Y-92074000D03*
X158115000Y-88774000D03*
D33*
X107061000Y-81661000D03*
X107061000Y-84201000D03*
D34*
X107061000Y-86741000D03*
D35*
X104507000Y-97384000D03*
X109107000Y-97384000D03*
X106807000Y-97384000D03*
D36*
X106807000Y-91084000D03*
D37*
X106664000Y-136017000D03*
X104664000Y-136017000D03*
X149114000Y-136017000D03*
X151114000Y-136017000D03*
X142224000Y-136017000D03*
X140224000Y-136017000D03*
X113554000Y-136017000D03*
X115554000Y-136017000D03*
X124444000Y-136017000D03*
X122444000Y-136017000D03*
X131334000Y-136017000D03*
X133334000Y-136017000D03*
X160004000Y-136017000D03*
X158004000Y-136017000D03*
X166894000Y-136017000D03*
X168894000Y-136017000D03*
D16*
X106934000Y-145415000D03*
D15*
X104434000Y-145415000D03*
X113324000Y-145415000D03*
D16*
X115824000Y-145415000D03*
D15*
X122214000Y-145415000D03*
D16*
X124714000Y-145415000D03*
X133604000Y-145415000D03*
D15*
X131104000Y-145415000D03*
X139994000Y-145415000D03*
D16*
X142494000Y-145415000D03*
X151344000Y-145415000D03*
D15*
X148844000Y-145415000D03*
X157734000Y-145415000D03*
D16*
X160234000Y-145415000D03*
X169124000Y-145415000D03*
D15*
X166624000Y-145415000D03*
D33*
X99187000Y-108839000D03*
X101727000Y-108839000D03*
D34*
X104267000Y-108839000D03*
D38*
X115276000Y-79248000D03*
X117896000Y-78298000D03*
X117896000Y-80198000D03*
D39*
X140716000Y-91512000D03*
X140716000Y-96012000D03*
X134216000Y-91512000D03*
X134216000Y-96012000D03*
D37*
X112538000Y-75692000D03*
X114538000Y-75692000D03*
D40*
X148971000Y-109871000D03*
X148971000Y-111871000D03*
D41*
X114173000Y-96688000D03*
X114173000Y-92288000D03*
D29*
X107127000Y-109156500D03*
X109027000Y-109156500D03*
D37*
X106950000Y-106172000D03*
X108950000Y-106172000D03*
X108823000Y-100076000D03*
X106823000Y-100076000D03*
D40*
X158115000Y-122571000D03*
X158115000Y-124571000D03*
D42*
X129159000Y-110556000D03*
X129159000Y-112456000D03*
D43*
X130048000Y-95504000D03*
D44*
X119888000Y-95504000D03*
D37*
X101235000Y-100330000D03*
X103235000Y-100330000D03*
D42*
X112776000Y-80198000D03*
X112776000Y-78298000D03*
D39*
X151511000Y-79303000D03*
X151511000Y-74803000D03*
X158011000Y-79303000D03*
X158011000Y-74803000D03*
D40*
X133604000Y-112379000D03*
X133604000Y-110379000D03*
D45*
X107823000Y-103886000D03*
X107823000Y-101986000D03*
D27*
X120904000Y-106934000D03*
D26*
X153924000Y-99314000D03*
X123444000Y-106934000D03*
X151384000Y-99314000D03*
X125984000Y-106934000D03*
X148844000Y-99314000D03*
X128524000Y-106934000D03*
X146304000Y-99314000D03*
X131064000Y-106934000D03*
X143764000Y-99314000D03*
X133604000Y-106934000D03*
X141224000Y-99314000D03*
X136144000Y-106934000D03*
X138684000Y-99314000D03*
X138684000Y-106934000D03*
X136144000Y-99314000D03*
X141224000Y-106934000D03*
X133604000Y-99314000D03*
X143764000Y-106934000D03*
X131064000Y-99314000D03*
X146304000Y-106934000D03*
X128524000Y-99314000D03*
X148844000Y-106934000D03*
X125984000Y-99314000D03*
X151384000Y-106934000D03*
X123444000Y-99314000D03*
X153924000Y-106934000D03*
X120904000Y-99314000D03*
D42*
X148717000Y-96835000D03*
X148717000Y-94935000D03*
X144018000Y-91755000D03*
X144018000Y-89855000D03*
X151765000Y-94935000D03*
X151765000Y-96835000D03*
D29*
X101285000Y-102870000D03*
X103185000Y-102870000D03*
D46*
X139065000Y-111125000D03*
X143945000Y-111125000D03*
D26*
X153670000Y-130937000D03*
X120650000Y-115697000D03*
X151130000Y-130937000D03*
X123190000Y-115697000D03*
X148590000Y-130937000D03*
X125730000Y-115697000D03*
X146050000Y-130937000D03*
X128270000Y-115697000D03*
X143510000Y-130937000D03*
X130810000Y-115697000D03*
X140970000Y-130937000D03*
X133350000Y-115697000D03*
X138430000Y-130937000D03*
X135890000Y-115697000D03*
X135890000Y-130937000D03*
X138430000Y-115697000D03*
X133350000Y-130937000D03*
X140970000Y-115697000D03*
X130810000Y-130937000D03*
X143510000Y-115697000D03*
X128270000Y-130937000D03*
X146050000Y-115697000D03*
X125730000Y-130937000D03*
X148590000Y-115697000D03*
X123190000Y-130937000D03*
X151130000Y-115697000D03*
X120650000Y-130937000D03*
D27*
X153670000Y-115697000D03*
D15*
X117094000Y-86995000D03*
D16*
X117094000Y-84495000D03*
D32*
X154432000Y-88774000D03*
X154432000Y-92074000D03*
X150977600Y-88774000D03*
X150977600Y-92074000D03*
D47*
X122300000Y-83264000D03*
X127000000Y-80264000D03*
X127000000Y-86264000D03*
D48*
X111252000Y-83452000D03*
X111252000Y-85552000D03*
D11*
X104846000Y-131026000D03*
M02*
