%TF.GenerationSoftware,KiCad,Pcbnew,(5.0-dev-4122-gf60c251)*%
%TF.CreationDate,2018-06-11T17:10:56+01:00*%
%TF.ProjectId,ThermocoupleLogger,546865726D6F636F75706C654C6F6767,ca9ed02408*%
%TF.SameCoordinates,Original*%
%TF.FileFunction,Legend,Bot*%
%TF.FilePolarity,Positive*%
%FSLAX46Y46*%
G04 Gerber Fmt 4.6, Leading zero omitted, Abs format (unit mm)*
G04 Created by KiCad (PCBNEW (5.0-dev-4122-gf60c251)) date Monday, 11 June 2018 at 17:10:56*
%MOMM*%
%LPD*%
G01*
G04 APERTURE LIST*
%ADD10C,0.120000*%
%ADD11C,0.150000*%
G04 APERTURE END LIST*
D10*
X94531000Y-127556000D02*
X100231000Y-127556000D01*
X94531000Y-127556000D02*
X94531000Y-133556000D01*
X94531000Y-133556000D02*
X100231000Y-133556000D01*
X100982754Y-134082384D02*
G75*
G03X100231000Y-133556000I-751754J-273616D01*
G01*
X123426671Y-130510719D02*
G75*
G02X100981000Y-134056000I-11495671J-45281D01*
G01*
X100982754Y-127029616D02*
G75*
G02X100231000Y-127556000I-751754J273616D01*
G01*
X123426671Y-130601281D02*
G75*
G03X100981000Y-127056000I-11495671J45281D01*
G01*
D11*
X97516714Y-134784571D02*
X97373857Y-134832190D01*
X97326238Y-134879809D01*
X97278619Y-134975047D01*
X97278619Y-135117904D01*
X97326238Y-135213142D01*
X97373857Y-135260761D01*
X97469095Y-135308380D01*
X97850047Y-135308380D01*
X97850047Y-134308380D01*
X97516714Y-134308380D01*
X97421476Y-134356000D01*
X97373857Y-134403619D01*
X97326238Y-134498857D01*
X97326238Y-134594095D01*
X97373857Y-134689333D01*
X97421476Y-134736952D01*
X97516714Y-134784571D01*
X97850047Y-134784571D01*
X96992904Y-134308380D02*
X96421476Y-134308380D01*
X96707190Y-135308380D02*
X96707190Y-134308380D01*
X96135761Y-134403619D02*
X96088142Y-134356000D01*
X95992904Y-134308380D01*
X95754809Y-134308380D01*
X95659571Y-134356000D01*
X95611952Y-134403619D01*
X95564333Y-134498857D01*
X95564333Y-134594095D01*
X95611952Y-134736952D01*
X96183380Y-135308380D01*
X95564333Y-135308380D01*
X100052428Y-130663142D02*
X98909571Y-130663142D01*
X99481000Y-131234571D02*
X99481000Y-130091714D01*
M02*
