<?xml version="1.0" standalone="no"?>
 <!DOCTYPE svg PUBLIC "-//W3C//DTD SVG 1.1//EN" 
 "http://www.w3.org/Graphics/SVG/1.1/DTD/svg11.dtd"> 
<svg xmlns="http://www.w3.org/2000/svg" version="1.1" 
    width="29.7002cm" height="21.0007cm" viewBox="0 0 116930 82680 ">
<title>SVG Picture created as ThermocoupleLogger-B_Mask.svg date 2019/03/27 20:56:58 </title>
  <desc>Picture generated by PCBNEW </desc>
<g style="fill:#000000; fill-opacity:1;stroke:#000000; stroke-opacity:1;
stroke-linecap:round; stroke-linejoin:round; "
 transform="translate(0 0) scale(1 1)">
</g>
<g style="fill:#000000; fill-opacity:0.0; 
stroke:#000000; stroke-width:-0.000787402; stroke-opacity:1; 
stroke-linecap:round; stroke-linejoin:round;">
</g>
<g style="fill:#000000; fill-opacity:0.0; 
stroke:#000000; stroke-width:78.7402; stroke-opacity:1; 
stroke-linecap:round; stroke-linejoin:round;">
<path d="M94012 12399
L94012 72899
" />
<path d="M24012 68518
L24012 68518
" />
<path d="M24012 12399
L94012 12399
" />
<path d="M24012 72899
L94012 72899
" />
<path d="M24012 12399
L24012 72899
" />
<path d="M24012 13399
L24012 13399
" />
</g>
<g style="fill:#000000; fill-opacity:1.0; 
stroke:#000000; stroke-width:0; stroke-opacity:1; 
stroke-linecap:round; stroke-linejoin:round;">
<path style="fill:#000000; fill-opacity:1.0; 
stroke:#000000; stroke-width:0; stroke-opacity:1; 
stroke-linecap:round; stroke-linejoin:round;fill-rule:evenodd;"
d="M 90581,68229
90936,68376
90968,68390
91316,68622
91612,68918
91826,69238
91845,69267
92005,69653
92087,70064
92087,70483
92005,70894
91878,71200
91845,71281
91612,71629
91316,71925
90968,72158
90968,72158
90968,72158
90581,72318
90170,72400
89751,72400
89341,72318
88954,72158
88954,72158
88954,72158
88605,71925
88309,71629
88077,71281
88043,71200
87916,70894
87835,70483
87835,70064
87916,69653
88077,69267
88096,69238
88309,68918
88605,68622
88954,68390
88986,68376
89341,68229
89751,68148
90170,68148
90581,68229
Z" /> 
<path style="fill:#000000; fill-opacity:1.0; 
stroke:#000000; stroke-width:0; stroke-opacity:1; 
stroke-linecap:round; stroke-linejoin:round;fill-rule:evenodd;"
d="M 27589,68229
27943,68376
27976,68390
28324,68622
28620,68918
28833,69238
28853,69267
29013,69653
29094,70064
29094,70483
29013,70894
28886,71200
28853,71281
28620,71629
28324,71925
27976,72158
27976,72158
27976,72158
27589,72318
27178,72400
26759,72400
26348,72318
25961,72158
25961,72158
25961,72158
25613,71925
25317,71629
25084,71281
25051,71200
24924,70894
24843,70483
24843,70064
24924,69653
25084,69267
25104,69238
25317,68918
25613,68622
25961,68390
25994,68376
26348,68229
26759,68148
27178,68148
27589,68229
Z" /> 
<path style="fill:#000000; fill-opacity:1.0; 
stroke:#000000; stroke-width:0; stroke-opacity:1; 
stroke-linecap:round; stroke-linejoin:round;fill-rule:evenodd;"
d="M 41901,70588
40523,70588
40523,69210
41901,69210
41901,70588
Z" /> 
<path style="fill:#000000; fill-opacity:1.0; 
stroke:#000000; stroke-width:0; stroke-opacity:1; 
stroke-linecap:round; stroke-linejoin:round;fill-rule:evenodd;"
d="M 39445,69237
39516,69267
39570,69289
39683,69364
39779,69460
39779,69460
39855,69573
39906,69699
39933,69832
39933,69967
39906,70100
39873,70182
39855,70226
39779,70339
39683,70435
39570,70510
39570,70510
39570,70510
39445,70562
39312,70588
39176,70588
39043,70562
38918,70510
38918,70510
38918,70510
38805,70435
38709,70339
38633,70226
38615,70182
38581,70100
38555,69967
38555,69832
38581,69699
38633,69573
38709,69460
38709,69460
38805,69364
38918,69289
38971,69267
39043,69237
39176,69210
39312,69210
39445,69237
Z" /> 
<path style="fill:#000000; fill-opacity:1.0; 
stroke:#000000; stroke-width:0; stroke-opacity:1; 
stroke-linecap:round; stroke-linejoin:round;fill-rule:evenodd;"
d="M 34901,70588
33523,70588
33523,69210
34901,69210
34901,70588
Z" /> 
<path style="fill:#000000; fill-opacity:1.0; 
stroke:#000000; stroke-width:0; stroke-opacity:1; 
stroke-linecap:round; stroke-linejoin:round;fill-rule:evenodd;"
d="M 32445,69237
32516,69267
32570,69289
32683,69364
32779,69460
32779,69460
32855,69573
32906,69699
32933,69832
32933,69967
32906,70100
32873,70182
32855,70226
32779,70339
32683,70435
32570,70510
32570,70510
32570,70510
32445,70562
32312,70588
32176,70588
32043,70562
31918,70510
31918,70510
31918,70510
31805,70435
31709,70339
31633,70226
31615,70182
31581,70100
31555,69967
31555,69832
31581,69699
31633,69573
31709,69460
31709,69460
31805,69364
31918,69289
31971,69267
32043,69237
32176,69210
32312,69210
32445,69237
Z" /> 
<path style="fill:#000000; fill-opacity:1.0; 
stroke:#000000; stroke-width:0; stroke-opacity:1; 
stroke-linecap:round; stroke-linejoin:round;fill-rule:evenodd;"
d="M 81413,69237
81485,69267
81539,69289
81652,69364
81748,69460
81748,69460
81823,69573
81875,69699
81901,69832
81901,69967
81875,70100
81841,70182
81823,70226
81748,70339
81652,70435
81539,70510
81539,70510
81539,70510
81413,70562
81280,70588
81145,70588
81011,70562
80886,70510
80886,70510
80886,70510
80773,70435
80677,70339
80602,70226
80584,70182
80550,70100
80523,69967
80523,69832
80550,69699
80602,69573
80677,69460
80677,69460
80773,69364
80886,69289
80940,69267
81011,69237
81145,69210
81280,69210
81413,69237
Z" /> 
<path style="fill:#000000; fill-opacity:1.0; 
stroke:#000000; stroke-width:0; stroke-opacity:1; 
stroke-linecap:round; stroke-linejoin:round;fill-rule:evenodd;"
d="M 83870,70588
82492,70588
82492,69210
83870,69210
83870,70588
Z" /> 
<path style="fill:#000000; fill-opacity:1.0; 
stroke:#000000; stroke-width:0; stroke-opacity:1; 
stroke-linecap:round; stroke-linejoin:round;fill-rule:evenodd;"
d="M 76870,70588
75492,70588
75492,69210
76870,69210
76870,70588
Z" /> 
<path style="fill:#000000; fill-opacity:1.0; 
stroke:#000000; stroke-width:0; stroke-opacity:1; 
stroke-linecap:round; stroke-linejoin:round;fill-rule:evenodd;"
d="M 74413,69237
74485,69267
74539,69289
74652,69364
74748,69460
74748,69460
74823,69573
74875,69699
74901,69832
74901,69967
74875,70100
74841,70182
74823,70226
74748,70339
74652,70435
74539,70510
74539,70510
74539,70510
74413,70562
74280,70588
74145,70588
74011,70562
73886,70510
73886,70510
73886,70510
73773,70435
73677,70339
73602,70226
73584,70182
73550,70100
73523,69967
73523,69832
73550,69699
73602,69573
73677,69460
73677,69460
73773,69364
73886,69289
73940,69267
74011,69237
74145,69210
74280,69210
74413,69237
Z" /> 
<path style="fill:#000000; fill-opacity:1.0; 
stroke:#000000; stroke-width:0; stroke-opacity:1; 
stroke-linecap:round; stroke-linejoin:round;fill-rule:evenodd;"
d="M 67413,69237
67485,69267
67539,69289
67652,69364
67748,69460
67748,69460
67823,69573
67875,69699
67901,69832
67901,69967
67875,70100
67841,70182
67823,70226
67748,70339
67652,70435
67539,70510
67539,70510
67539,70510
67413,70562
67280,70588
67145,70588
67011,70562
66886,70510
66886,70510
66886,70510
66773,70435
66677,70339
66602,70226
66584,70182
66550,70100
66523,69967
66523,69832
66550,69699
66602,69573
66677,69460
66677,69460
66773,69364
66886,69289
66940,69267
67011,69237
67145,69210
67280,69210
67413,69237
Z" /> 
<path style="fill:#000000; fill-opacity:1.0; 
stroke:#000000; stroke-width:0; stroke-opacity:1; 
stroke-linecap:round; stroke-linejoin:round;fill-rule:evenodd;"
d="M 69870,70588
68492,70588
68492,69210
69870,69210
69870,70588
Z" /> 
<path style="fill:#000000; fill-opacity:1.0; 
stroke:#000000; stroke-width:0; stroke-opacity:1; 
stroke-linecap:round; stroke-linejoin:round;fill-rule:evenodd;"
d="M 62901,70588
61523,70588
61523,69210
62901,69210
62901,70588
Z" /> 
<path style="fill:#000000; fill-opacity:1.0; 
stroke:#000000; stroke-width:0; stroke-opacity:1; 
stroke-linecap:round; stroke-linejoin:round;fill-rule:evenodd;"
d="M 60445,69237
60516,69267
60570,69289
60683,69364
60779,69460
60779,69460
60855,69573
60906,69699
60933,69832
60933,69967
60906,70100
60873,70182
60855,70226
60779,70339
60683,70435
60570,70510
60570,70510
60570,70510
60445,70562
60312,70588
60176,70588
60043,70562
59918,70510
59918,70510
59918,70510
59805,70435
59709,70339
59633,70226
59615,70182
59581,70100
59555,69967
59555,69832
59581,69699
59633,69573
59709,69460
59709,69460
59805,69364
59918,69289
59971,69267
60043,69237
60176,69210
60312,69210
60445,69237
Z" /> 
<path style="fill:#000000; fill-opacity:1.0; 
stroke:#000000; stroke-width:0; stroke-opacity:1; 
stroke-linecap:round; stroke-linejoin:round;fill-rule:evenodd;"
d="M 55901,70588
54523,70588
54523,69210
55901,69210
55901,70588
Z" /> 
<path style="fill:#000000; fill-opacity:1.0; 
stroke:#000000; stroke-width:0; stroke-opacity:1; 
stroke-linecap:round; stroke-linejoin:round;fill-rule:evenodd;"
d="M 48901,70588
47523,70588
47523,69210
48901,69210
48901,70588
Z" /> 
<path style="fill:#000000; fill-opacity:1.0; 
stroke:#000000; stroke-width:0; stroke-opacity:1; 
stroke-linecap:round; stroke-linejoin:round;fill-rule:evenodd;"
d="M 46445,69237
46516,69267
46570,69289
46683,69364
46779,69460
46779,69460
46855,69573
46906,69699
46933,69832
46933,69967
46906,70100
46873,70182
46855,70226
46779,70339
46683,70435
46570,70510
46570,70510
46570,70510
46445,70562
46312,70588
46176,70588
46043,70562
45918,70510
45918,70510
45918,70510
45805,70435
45709,70339
45633,70226
45615,70182
45581,70100
45555,69967
45555,69832
45581,69699
45633,69573
45709,69460
45709,69460
45805,69364
45918,69289
45971,69267
46043,69237
46176,69210
46312,69210
46445,69237
Z" /> 
<path style="fill:#000000; fill-opacity:1.0; 
stroke:#000000; stroke-width:0; stroke-opacity:1; 
stroke-linecap:round; stroke-linejoin:round;fill-rule:evenodd;"
d="M 53445,69237
53516,69267
53570,69289
53683,69364
53779,69460
53779,69460
53855,69573
53906,69699
53933,69832
53933,69967
53906,70100
53873,70182
53855,70226
53779,70339
53683,70435
53570,70510
53570,70510
53570,70510
53445,70562
53312,70588
53176,70588
53043,70562
52918,70510
52918,70510
52918,70510
52805,70435
52709,70339
52633,70226
52615,70182
52581,70100
52555,69967
52555,69832
52581,69699
52633,69573
52709,69460
52709,69460
52805,69364
52918,69289
52971,69267
53043,69237
53176,69210
53312,69210
53445,69237
Z" /> 
<path style="fill:#000000; fill-opacity:1.0; 
stroke:#000000; stroke-width:0; stroke-opacity:1; 
stroke-linecap:round; stroke-linejoin:round;fill-rule:evenodd;"
d="M 87974,57623
88153,57697
88153,57697
88314,57805
88451,57942
88559,58103
88633,58282
88671,58473
88671,58666
88633,58857
88595,58947
88559,59036
88451,59197
88314,59334
88153,59442
88153,59442
88153,59442
87974,59516
87783,59554
87590,59554
87399,59516
87220,59442
87220,59442
87220,59442
87059,59334
86922,59197
86814,59036
86777,58947
86740,58857
86702,58666
86702,58473
86740,58282
86814,58103
86922,57942
87059,57805
87220,57697
87220,57697
87399,57623
87590,57585
87783,57585
87974,57623
Z" /> 
<path style="fill:#000000; fill-opacity:1.0; 
stroke:#000000; stroke-width:0; stroke-opacity:1; 
stroke-linecap:round; stroke-linejoin:round;fill-rule:evenodd;"
d="M 32855,57623
33035,57697
33035,57697
33196,57805
33333,57942
33441,58103
33515,58282
33553,58473
33553,58666
33515,58857
33477,58947
33441,59036
33333,59197
33196,59334
33035,59442
33035,59442
33035,59442
32855,59516
32665,59554
32471,59554
32281,59516
32102,59442
32102,59442
32102,59442
31941,59334
31804,59197
31696,59036
31659,58947
31622,58857
31584,58666
31584,58473
31622,58282
31696,58103
31804,57942
31941,57805
32102,57697
32102,57697
32281,57623
32471,57585
32665,57585
32855,57623
Z" /> 
<path style="fill:#000000; fill-opacity:1.0; 
stroke:#000000; stroke-width:0; stroke-opacity:1; 
stroke-linecap:round; stroke-linejoin:round;fill-rule:evenodd;"
d="M 42657,57064
42872,57153
42872,57153
42969,57218
43065,57282
43230,57447
43359,57640
43448,57855
43494,58083
43494,58316
43448,58544
43366,58742
43359,58759
43230,58952
43065,59117
42872,59246
42872,59246
42872,59246
42657,59335
42429,59381
42196,59381
41968,59335
41753,59246
41753,59246
41753,59246
41560,59117
41395,58952
41266,58759
41259,58742
41177,58544
41131,58316
41131,58083
41177,57855
41266,57640
41395,57447
41560,57282
41656,57218
41753,57153
41753,57153
41968,57064
42196,57018
42429,57018
42657,57064
Z" /> 
<path style="fill:#000000; fill-opacity:1.0; 
stroke:#000000; stroke-width:0; stroke-opacity:1; 
stroke-linecap:round; stroke-linejoin:round;fill-rule:evenodd;"
d="M 27360,59381
24998,59381
24998,57018
27360,57018
27360,59381
Z" /> 
<path style="fill:#000000; fill-opacity:1.0; 
stroke:#000000; stroke-width:0; stroke-opacity:1; 
stroke-linecap:round; stroke-linejoin:round;fill-rule:evenodd;"
d="M 69074,57873
69136,57879
69255,57915
69255,57915
69364,57973
69460,58052
69502,58103
69539,58148
69597,58257
69633,58376
69645,58499
69633,58623
69620,58666
69597,58742
69539,58851
69460,58947
69364,59026
69345,59036
69255,59084
69136,59120
69074,59126
69043,59129
68982,59129
68951,59126
68889,59120
68770,59084
68680,59036
68661,59026
68565,58947
68486,58851
68428,58742
68405,58666
68392,58623
68379,58499
68392,58376
68428,58257
68486,58148
68523,58103
68565,58052
68661,57973
68770,57915
68770,57915
68889,57879
68951,57873
68982,57870
69043,57870
69074,57873
Z" /> 
<path style="fill:#000000; fill-opacity:1.0; 
stroke:#000000; stroke-width:0; stroke-opacity:1; 
stroke-linecap:round; stroke-linejoin:round;fill-rule:evenodd;"
d="M 71074,57873
71136,57879
71255,57915
71255,57915
71364,57973
71460,58052
71502,58103
71539,58148
71597,58257
71633,58376
71645,58499
71633,58623
71620,58666
71597,58742
71539,58851
71460,58947
71364,59026
71345,59036
71255,59084
71136,59120
71074,59126
71043,59129
70982,59129
70951,59126
70889,59120
70770,59084
70680,59036
70661,59026
70565,58947
70486,58851
70428,58742
70405,58666
70392,58623
70379,58499
70392,58376
70428,58257
70486,58148
70523,58103
70565,58052
70661,57973
70770,57915
70770,57915
70889,57879
70951,57873
70982,57870
71043,57870
71074,57873
Z" /> 
<path style="fill:#000000; fill-opacity:1.0; 
stroke:#000000; stroke-width:0; stroke-opacity:1; 
stroke-linecap:round; stroke-linejoin:round;fill-rule:evenodd;"
d="M 67074,57873
67136,57879
67255,57915
67255,57915
67364,57973
67460,58052
67502,58103
67539,58148
67597,58257
67633,58376
67645,58499
67633,58623
67620,58666
67597,58742
67539,58851
67460,58947
67364,59026
67345,59036
67255,59084
67136,59120
67074,59126
67043,59129
66982,59129
66951,59126
66889,59120
66770,59084
66680,59036
66661,59026
66565,58947
66486,58851
66428,58742
66405,58666
66392,58623
66379,58499
66392,58376
66428,58257
66486,58148
66523,58103
66565,58052
66661,57973
66770,57915
66770,57915
66889,57879
66951,57873
66982,57870
67043,57870
67074,57873
Z" /> 
<path style="fill:#000000; fill-opacity:1.0; 
stroke:#000000; stroke-width:0; stroke-opacity:1; 
stroke-linecap:round; stroke-linejoin:round;fill-rule:evenodd;"
d="M 65074,57873
65136,57879
65255,57915
65255,57915
65364,57973
65460,58052
65502,58103
65539,58148
65597,58257
65633,58376
65645,58499
65633,58623
65620,58666
65597,58742
65539,58851
65460,58947
65364,59026
65345,59036
65255,59084
65136,59120
65074,59126
65043,59129
64982,59129
64951,59126
64889,59120
64770,59084
64680,59036
64661,59026
64565,58947
64486,58851
64428,58742
64405,58666
64392,58623
64379,58499
64392,58376
64428,58257
64486,58148
64523,58103
64565,58052
64661,57973
64770,57915
64770,57915
64889,57879
64951,57873
64982,57870
65043,57870
65074,57873
Z" /> 
<path style="fill:#000000; fill-opacity:1.0; 
stroke:#000000; stroke-width:0; stroke-opacity:1; 
stroke-linecap:round; stroke-linejoin:round;fill-rule:evenodd;"
d="M 63074,57873
63136,57879
63255,57915
63255,57915
63364,57973
63460,58052
63502,58103
63539,58148
63597,58257
63633,58376
63645,58499
63633,58623
63620,58666
63597,58742
63539,58851
63460,58947
63364,59026
63345,59036
63255,59084
63136,59120
63074,59126
63043,59129
62982,59129
62951,59126
62889,59120
62770,59084
62680,59036
62661,59026
62565,58947
62486,58851
62428,58742
62405,58666
62392,58623
62379,58499
62392,58376
62428,58257
62486,58148
62523,58103
62565,58052
62661,57973
62770,57915
62770,57915
62889,57879
62951,57873
62982,57870
63043,57870
63074,57873
Z" /> 
<path style="fill:#000000; fill-opacity:1.0; 
stroke:#000000; stroke-width:0; stroke-opacity:1; 
stroke-linecap:round; stroke-linejoin:round;fill-rule:evenodd;"
d="M 61074,57873
61136,57879
61255,57915
61255,57915
61364,57973
61460,58052
61502,58103
61539,58148
61597,58257
61633,58376
61645,58499
61633,58623
61620,58666
61597,58742
61539,58851
61460,58947
61364,59026
61345,59036
61255,59084
61136,59120
61074,59126
61043,59129
60982,59129
60951,59126
60889,59120
60770,59084
60680,59036
60661,59026
60565,58947
60486,58851
60428,58742
60405,58666
60392,58623
60379,58499
60392,58376
60428,58257
60486,58148
60523,58103
60565,58052
60661,57973
60770,57915
60770,57915
60889,57879
60951,57873
60982,57870
61043,57870
61074,57873
Z" /> 
<path style="fill:#000000; fill-opacity:1.0; 
stroke:#000000; stroke-width:0; stroke-opacity:1; 
stroke-linecap:round; stroke-linejoin:round;fill-rule:evenodd;"
d="M 59074,57873
59136,57879
59255,57915
59255,57915
59364,57973
59460,58052
59502,58103
59539,58148
59597,58257
59633,58376
59645,58499
59633,58623
59620,58666
59597,58742
59539,58851
59460,58947
59364,59026
59345,59036
59255,59084
59136,59120
59074,59126
59043,59129
58982,59129
58951,59126
58889,59120
58770,59084
58680,59036
58661,59026
58565,58947
58486,58851
58428,58742
58405,58666
58392,58623
58379,58499
58392,58376
58428,58257
58486,58148
58523,58103
58565,58052
58661,57973
58770,57915
58770,57915
58889,57879
58951,57873
58982,57870
59043,57870
59074,57873
Z" /> 
<path style="fill:#000000; fill-opacity:1.0; 
stroke:#000000; stroke-width:0; stroke-opacity:1; 
stroke-linecap:round; stroke-linejoin:round;fill-rule:evenodd;"
d="M 57074,57873
57136,57879
57255,57915
57255,57915
57364,57973
57460,58052
57502,58103
57539,58148
57597,58257
57633,58376
57645,58499
57633,58623
57620,58666
57597,58742
57539,58851
57460,58947
57364,59026
57345,59036
57255,59084
57136,59120
57074,59126
57043,59129
56982,59129
56951,59126
56889,59120
56770,59084
56680,59036
56661,59026
56565,58947
56486,58851
56428,58742
56405,58666
56392,58623
56379,58499
56392,58376
56428,58257
56486,58148
56523,58103
56565,58052
56661,57973
56770,57915
56770,57915
56889,57879
56951,57873
56982,57870
57043,57870
57074,57873
Z" /> 
<path style="fill:#000000; fill-opacity:1.0; 
stroke:#000000; stroke-width:0; stroke-opacity:1; 
stroke-linecap:round; stroke-linejoin:round;fill-rule:evenodd;"
d="M 55074,57873
55136,57879
55255,57915
55255,57915
55364,57973
55460,58052
55502,58103
55539,58148
55597,58257
55633,58376
55645,58499
55633,58623
55620,58666
55597,58742
55539,58851
55460,58947
55364,59026
55345,59036
55255,59084
55136,59120
55074,59126
55043,59129
54982,59129
54951,59126
54889,59120
54770,59084
54680,59036
54661,59026
54565,58947
54486,58851
54428,58742
54405,58666
54392,58623
54379,58499
54392,58376
54428,58257
54486,58148
54523,58103
54565,58052
54661,57973
54770,57915
54770,57915
54889,57879
54951,57873
54982,57870
55043,57870
55074,57873
Z" /> 
<path style="fill:#000000; fill-opacity:1.0; 
stroke:#000000; stroke-width:0; stroke-opacity:1; 
stroke-linecap:round; stroke-linejoin:round;fill-rule:evenodd;"
d="M 53074,57873
53136,57879
53255,57915
53255,57915
53364,57973
53460,58052
53502,58103
53539,58148
53597,58257
53633,58376
53645,58499
53633,58623
53620,58666
53597,58742
53539,58851
53460,58947
53364,59026
53345,59036
53255,59084
53136,59120
53074,59126
53043,59129
52982,59129
52951,59126
52889,59120
52770,59084
52680,59036
52661,59026
52565,58947
52486,58851
52428,58742
52405,58666
52392,58623
52379,58499
52392,58376
52428,58257
52486,58148
52523,58103
52565,58052
52661,57973
52770,57915
52770,57915
52889,57879
52951,57873
52982,57870
53043,57870
53074,57873
Z" /> 
<path style="fill:#000000; fill-opacity:1.0; 
stroke:#000000; stroke-width:0; stroke-opacity:1; 
stroke-linecap:round; stroke-linejoin:round;fill-rule:evenodd;"
d="M 51074,57873
51136,57879
51255,57915
51255,57915
51364,57973
51460,58052
51502,58103
51539,58148
51597,58257
51633,58376
51645,58499
51633,58623
51620,58666
51597,58742
51539,58851
51460,58947
51364,59026
51345,59036
51255,59084
51136,59120
51074,59126
51043,59129
50982,59129
50951,59126
50889,59120
50770,59084
50680,59036
50661,59026
50565,58947
50486,58851
50428,58742
50405,58666
50392,58623
50379,58499
50392,58376
50428,58257
50486,58148
50523,58103
50565,58052
50661,57973
50770,57915
50770,57915
50889,57879
50951,57873
50982,57870
51043,57870
51074,57873
Z" /> 
<path style="fill:#000000; fill-opacity:1.0; 
stroke:#000000; stroke-width:0; stroke-opacity:1; 
stroke-linecap:round; stroke-linejoin:round;fill-rule:evenodd;"
d="M 49074,57873
49136,57879
49255,57915
49255,57915
49364,57973
49460,58052
49502,58103
49539,58148
49597,58257
49633,58376
49645,58499
49633,58623
49620,58666
49597,58742
49539,58851
49460,58947
49364,59026
49345,59036
49255,59084
49136,59120
49074,59126
49043,59129
48982,59129
48951,59126
48889,59120
48770,59084
48680,59036
48661,59026
48565,58947
48486,58851
48428,58742
48405,58666
48392,58623
48379,58499
48392,58376
48428,58257
48486,58148
48523,58103
48565,58052
48661,57973
48770,57915
48770,57915
48889,57879
48951,57873
48982,57870
49043,57870
49074,57873
Z" /> 
<path style="fill:#000000; fill-opacity:1.0; 
stroke:#000000; stroke-width:0; stroke-opacity:1; 
stroke-linecap:round; stroke-linejoin:round;fill-rule:evenodd;"
d="M 45074,57873
45136,57879
45255,57915
45255,57915
45364,57973
45460,58052
45502,58103
45539,58148
45597,58257
45633,58376
45645,58499
45633,58623
45620,58666
45597,58742
45539,58851
45460,58947
45364,59026
45345,59036
45255,59084
45136,59120
45074,59126
45043,59129
44982,59129
44951,59126
44889,59120
44770,59084
44680,59036
44661,59026
44565,58947
44486,58851
44428,58742
44405,58666
44392,58623
44379,58499
44392,58376
44428,58257
44486,58148
44523,58103
44565,58052
44661,57973
44770,57915
44770,57915
44889,57879
44951,57873
44982,57870
45043,57870
45074,57873
Z" /> 
<path style="fill:#000000; fill-opacity:1.0; 
stroke:#000000; stroke-width:0; stroke-opacity:1; 
stroke-linecap:round; stroke-linejoin:round;fill-rule:evenodd;"
d="M 47074,57873
47136,57879
47255,57915
47255,57915
47364,57973
47460,58052
47502,58103
47539,58148
47597,58257
47633,58376
47645,58499
47633,58623
47620,58666
47597,58742
47539,58851
47460,58947
47364,59026
47345,59036
47255,59084
47136,59120
47074,59126
47043,59129
46982,59129
46951,59126
46889,59120
46770,59084
46680,59036
46661,59026
46565,58947
46486,58851
46428,58742
46405,58666
46392,58623
46379,58499
46392,58376
46428,58257
46486,58148
46523,58103
46565,58052
46661,57973
46770,57915
46770,57915
46889,57879
46951,57873
46982,57870
47043,57870
47074,57873
Z" /> 
<path style="fill:#000000; fill-opacity:1.0; 
stroke:#000000; stroke-width:0; stroke-opacity:1; 
stroke-linecap:round; stroke-linejoin:round;fill-rule:evenodd;"
d="M 76574,53073
76636,53079
76755,53115
76755,53115
76864,53173
76864,53173
76864,53173
76960,53252
77039,53348
77097,53457
77133,53576
77145,53699
77133,53823
77097,53942
77097,53942
77039,54051
76960,54147
76864,54226
76755,54284
76755,54284
76636,54320
76574,54326
76543,54329
76482,54329
76451,54326
76389,54320
76270,54284
76270,54284
76161,54226
76065,54147
75986,54051
75928,53942
75928,53942
75892,53823
75879,53699
75892,53576
75928,53457
75986,53348
76065,53252
76161,53173
76161,53173
76161,53173
76270,53115
76270,53115
76389,53079
76451,53073
76482,53070
76543,53070
76574,53073
Z" /> 
<path style="fill:#000000; fill-opacity:1.0; 
stroke:#000000; stroke-width:0; stroke-opacity:1; 
stroke-linecap:round; stroke-linejoin:round;fill-rule:evenodd;"
d="M 83142,54329
81883,54329
81883,53070
83142,53070
83142,54329
Z" /> 
<path style="fill:#000000; fill-opacity:1.0; 
stroke:#000000; stroke-width:0; stroke-opacity:1; 
stroke-linecap:round; stroke-linejoin:round;fill-rule:evenodd;"
d="M 76574,51073
76636,51079
76755,51115
76755,51115
76864,51173
76864,51173
76864,51173
76960,51252
77039,51348
77097,51457
77133,51576
77145,51699
77133,51823
77097,51942
77097,51942
77039,52051
76960,52147
76864,52226
76755,52284
76755,52284
76636,52320
76574,52326
76543,52329
76482,52329
76451,52326
76389,52320
76270,52284
76270,52284
76161,52226
76065,52147
75986,52051
75928,51942
75928,51942
75892,51823
75879,51699
75892,51576
75928,51457
75986,51348
76065,51252
76161,51173
76161,51173
76161,51173
76270,51115
76270,51115
76389,51079
76451,51073
76482,51070
76543,51070
76574,51073
Z" /> 
<path style="fill:#000000; fill-opacity:1.0; 
stroke:#000000; stroke-width:0; stroke-opacity:1; 
stroke-linecap:round; stroke-linejoin:round;fill-rule:evenodd;"
d="M 82574,51073
82636,51079
82755,51115
82755,51115
82864,51173
82864,51173
82864,51173
82960,51252
83039,51348
83097,51457
83133,51576
83145,51699
83133,51823
83097,51942
83097,51942
83039,52051
82960,52147
82864,52226
82755,52284
82755,52284
82636,52320
82574,52326
82543,52329
82482,52329
82451,52326
82389,52320
82270,52284
82270,52284
82161,52226
82065,52147
81986,52051
81928,51942
81928,51942
81892,51823
81879,51699
81892,51576
81928,51457
81986,51348
82065,51252
82161,51173
82161,51173
82161,51173
82270,51115
82270,51115
82389,51079
82451,51073
82482,51070
82543,51070
82574,51073
Z" /> 
<path style="fill:#000000; fill-opacity:1.0; 
stroke:#000000; stroke-width:0; stroke-opacity:1; 
stroke-linecap:round; stroke-linejoin:round;fill-rule:evenodd;"
d="M 76574,49073
76636,49079
76755,49115
76755,49115
76864,49173
76864,49173
76864,49173
76960,49252
77039,49348
77097,49457
77133,49576
77145,49699
77133,49823
77097,49942
77097,49942
77039,50051
76960,50147
76864,50226
76755,50284
76755,50284
76636,50320
76574,50326
76543,50329
76482,50329
76451,50326
76389,50320
76270,50284
76270,50284
76161,50226
76065,50147
75986,50051
75928,49942
75928,49942
75892,49823
75879,49699
75892,49576
75928,49457
75986,49348
76065,49252
76161,49173
76161,49173
76161,49173
76270,49115
76270,49115
76389,49079
76451,49073
76482,49070
76543,49070
76574,49073
Z" /> 
<path style="fill:#000000; fill-opacity:1.0; 
stroke:#000000; stroke-width:0; stroke-opacity:1; 
stroke-linecap:round; stroke-linejoin:round;fill-rule:evenodd;"
d="M 82574,49073
82636,49079
82755,49115
82755,49115
82864,49173
82864,49173
82864,49173
82960,49252
83039,49348
83097,49457
83133,49576
83145,49699
83133,49823
83097,49942
83097,49942
83039,50051
82960,50147
82864,50226
82755,50284
82755,50284
82636,50320
82574,50326
82543,50329
82482,50329
82451,50326
82389,50320
82270,50284
82270,50284
82161,50226
82065,50147
81986,50051
81928,49942
81928,49942
81892,49823
81879,49699
81892,49576
81928,49457
81986,49348
82065,49252
82161,49173
82161,49173
82161,49173
82270,49115
82270,49115
82389,49079
82451,49073
82482,49070
82543,49070
82574,49073
Z" /> 
<path style="fill:#000000; fill-opacity:1.0; 
stroke:#000000; stroke-width:0; stroke-opacity:1; 
stroke-linecap:round; stroke-linejoin:round;fill-rule:evenodd;"
d="M 76574,47073
76636,47079
76755,47115
76755,47115
76864,47173
76864,47173
76864,47173
76960,47252
77039,47348
77097,47457
77133,47576
77145,47699
77133,47823
77097,47942
77097,47942
77039,48051
76960,48147
76864,48226
76755,48284
76755,48284
76636,48320
76574,48326
76543,48329
76482,48329
76451,48326
76389,48320
76270,48284
76270,48284
76161,48226
76065,48147
75986,48051
75928,47942
75928,47942
75892,47823
75879,47699
75892,47576
75928,47457
75986,47348
76065,47252
76161,47173
76161,47173
76161,47173
76270,47115
76270,47115
76389,47079
76451,47073
76482,47070
76543,47070
76574,47073
Z" /> 
<path style="fill:#000000; fill-opacity:1.0; 
stroke:#000000; stroke-width:0; stroke-opacity:1; 
stroke-linecap:round; stroke-linejoin:round;fill-rule:evenodd;"
d="M 82574,47073
82636,47079
82755,47115
82755,47115
82864,47173
82864,47173
82864,47173
82960,47252
83039,47348
83097,47457
83133,47576
83145,47699
83133,47823
83097,47942
83097,47942
83039,48051
82960,48147
82864,48226
82755,48284
82755,48284
82636,48320
82574,48326
82543,48329
82482,48329
82451,48326
82389,48320
82270,48284
82270,48284
82161,48226
82065,48147
81986,48051
81928,47942
81928,47942
81892,47823
81879,47699
81892,47576
81928,47457
81986,47348
82065,47252
82161,47173
82161,47173
82161,47173
82270,47115
82270,47115
82389,47079
82451,47073
82482,47070
82543,47070
82574,47073
Z" /> 
<path style="fill:#000000; fill-opacity:1.0; 
stroke:#000000; stroke-width:0; stroke-opacity:1; 
stroke-linecap:round; stroke-linejoin:round;fill-rule:evenodd;"
d="M 33208,46337
33302,46376
33333,46389
33446,46464
33542,46560
33618,46673
33618,46673
33669,46799
33696,46932
33696,47067
33669,47200
33618,47326
33618,47326
33542,47439
33446,47535
33333,47610
33333,47610
33333,47610
33208,47662
33075,47688
32939,47688
32806,47662
32681,47610
32681,47610
32681,47610
32568,47535
32472,47439
32396,47326
32396,47326
32344,47200
32318,47067
32318,46932
32344,46799
32396,46673
32396,46673
32472,46560
32568,46464
32681,46389
32712,46376
32806,46337
32939,46310
33075,46310
33208,46337
Z" /> 
<path style="fill:#000000; fill-opacity:1.0; 
stroke:#000000; stroke-width:0; stroke-opacity:1; 
stroke-linecap:round; stroke-linejoin:round;fill-rule:evenodd;"
d="M 39601,47688
38223,47688
38223,46310
39601,46310
39601,47688
Z" /> 
<path style="fill:#000000; fill-opacity:1.0; 
stroke:#000000; stroke-width:0; stroke-opacity:1; 
stroke-linecap:round; stroke-linejoin:round;fill-rule:evenodd;"
d="M 37145,46337
37239,46376
37270,46389
37383,46464
37479,46560
37555,46673
37555,46673
37606,46799
37633,46932
37633,47067
37606,47200
37555,47326
37555,47326
37479,47439
37383,47535
37270,47610
37270,47610
37270,47610
37145,47662
37012,47688
36876,47688
36743,47662
36618,47610
36618,47610
36618,47610
36505,47535
36409,47439
36333,47326
36333,47326
36281,47200
36255,47067
36255,46932
36281,46799
36333,46673
36333,46673
36409,46560
36505,46464
36618,46389
36649,46376
36743,46337
36876,46310
37012,46310
37145,46337
Z" /> 
<path style="fill:#000000; fill-opacity:1.0; 
stroke:#000000; stroke-width:0; stroke-opacity:1; 
stroke-linecap:round; stroke-linejoin:round;fill-rule:evenodd;"
d="M 31239,46337
31334,46376
31365,46389
31478,46464
31574,46560
31649,46673
31649,46673
31701,46799
31727,46932
31727,47067
31701,47200
31649,47326
31649,47326
31574,47439
31478,47535
31365,47610
31365,47610
31365,47610
31239,47662
31106,47688
30971,47688
30837,47662
30712,47610
30712,47610
30712,47610
30599,47535
30503,47439
30428,47326
30428,47326
30376,47200
30349,47067
30349,46932
30376,46799
30428,46673
30428,46673
30503,46560
30599,46464
30712,46389
30743,46376
30837,46337
30971,46310
31106,46310
31239,46337
Z" /> 
<path style="fill:#000000; fill-opacity:1.0; 
stroke:#000000; stroke-width:0; stroke-opacity:1; 
stroke-linecap:round; stroke-linejoin:round;fill-rule:evenodd;"
d="M 35176,46337
35271,46376
35302,46389
35415,46464
35511,46560
35586,46673
35586,46673
35638,46799
35664,46932
35664,47067
35638,47200
35586,47326
35586,47326
35511,47439
35415,47535
35302,47610
35302,47610
35302,47610
35176,47662
35043,47688
34908,47688
34774,47662
34649,47610
34649,47610
34649,47610
34536,47535
34440,47439
34365,47326
34365,47326
34313,47200
34286,47067
34286,46932
34313,46799
34365,46673
34365,46673
34440,46560
34536,46464
34649,46389
34680,46376
34774,46337
34908,46310
35043,46310
35176,46337
Z" /> 
<path style="fill:#000000; fill-opacity:1.0; 
stroke:#000000; stroke-width:0; stroke-opacity:1; 
stroke-linecap:round; stroke-linejoin:round;fill-rule:evenodd;"
d="M 29271,46337
29365,46376
29396,46389
29509,46464
29605,46560
29681,46673
29681,46673
29732,46799
29759,46932
29759,47067
29732,47200
29681,47326
29681,47326
29605,47439
29509,47535
29396,47610
29396,47610
29396,47610
29271,47662
29138,47688
29002,47688
28869,47662
28744,47610
28744,47610
28744,47610
28631,47535
28535,47439
28459,47326
28459,47326
28407,47200
28381,47067
28381,46932
28407,46799
28459,46673
28459,46673
28535,46560
28631,46464
28744,46389
28775,46376
28869,46337
29002,46310
29138,46310
29271,46337
Z" /> 
<path style="fill:#000000; fill-opacity:1.0; 
stroke:#000000; stroke-width:0; stroke-opacity:1; 
stroke-linecap:round; stroke-linejoin:round;fill-rule:evenodd;"
d="M 61074,45873
61136,45879
61255,45915
61255,45915
61364,45973
61364,45973
61364,45973
61460,46052
61539,46148
61597,46257
61633,46376
61645,46499
61633,46623
61597,46742
61597,46742
61539,46851
61460,46947
61364,47026
61286,47067
61255,47084
61136,47120
61074,47126
61043,47129
60982,47129
60951,47126
60889,47120
60770,47084
60739,47067
60661,47026
60565,46947
60486,46851
60428,46742
60428,46742
60392,46623
60379,46499
60392,46376
60428,46257
60486,46148
60565,46052
60661,45973
60661,45973
60661,45973
60770,45915
60770,45915
60889,45879
60951,45873
60982,45870
61043,45870
61074,45873
Z" /> 
<path style="fill:#000000; fill-opacity:1.0; 
stroke:#000000; stroke-width:0; stroke-opacity:1; 
stroke-linecap:round; stroke-linejoin:round;fill-rule:evenodd;"
d="M 65074,45873
65136,45879
65255,45915
65255,45915
65364,45973
65364,45973
65364,45973
65460,46052
65539,46148
65597,46257
65633,46376
65645,46499
65633,46623
65597,46742
65597,46742
65539,46851
65460,46947
65364,47026
65286,47067
65255,47084
65136,47120
65074,47126
65043,47129
64982,47129
64951,47126
64889,47120
64770,47084
64739,47067
64661,47026
64565,46947
64486,46851
64428,46742
64428,46742
64392,46623
64379,46499
64392,46376
64428,46257
64486,46148
64565,46052
64661,45973
64661,45973
64661,45973
64770,45915
64770,45915
64889,45879
64951,45873
64982,45870
65043,45870
65074,45873
Z" /> 
<path style="fill:#000000; fill-opacity:1.0; 
stroke:#000000; stroke-width:0; stroke-opacity:1; 
stroke-linecap:round; stroke-linejoin:round;fill-rule:evenodd;"
d="M 59074,45873
59136,45879
59255,45915
59255,45915
59364,45973
59364,45973
59364,45973
59460,46052
59539,46148
59597,46257
59633,46376
59645,46499
59633,46623
59597,46742
59597,46742
59539,46851
59460,46947
59364,47026
59286,47067
59255,47084
59136,47120
59074,47126
59043,47129
58982,47129
58951,47126
58889,47120
58770,47084
58739,47067
58661,47026
58565,46947
58486,46851
58428,46742
58428,46742
58392,46623
58379,46499
58392,46376
58428,46257
58486,46148
58565,46052
58661,45973
58661,45973
58661,45973
58770,45915
58770,45915
58889,45879
58951,45873
58982,45870
59043,45870
59074,45873
Z" /> 
<path style="fill:#000000; fill-opacity:1.0; 
stroke:#000000; stroke-width:0; stroke-opacity:1; 
stroke-linecap:round; stroke-linejoin:round;fill-rule:evenodd;"
d="M 63074,45873
63136,45879
63255,45915
63255,45915
63364,45973
63364,45973
63364,45973
63460,46052
63539,46148
63597,46257
63633,46376
63645,46499
63633,46623
63597,46742
63597,46742
63539,46851
63460,46947
63364,47026
63286,47067
63255,47084
63136,47120
63074,47126
63043,47129
62982,47129
62951,47126
62889,47120
62770,47084
62739,47067
62661,47026
62565,46947
62486,46851
62428,46742
62428,46742
62392,46623
62379,46499
62392,46376
62428,46257
62486,46148
62565,46052
62661,45973
62661,45973
62661,45973
62770,45915
62770,45915
62889,45879
62951,45873
62982,45870
63043,45870
63074,45873
Z" /> 
<path style="fill:#000000; fill-opacity:1.0; 
stroke:#000000; stroke-width:0; stroke-opacity:1; 
stroke-linecap:round; stroke-linejoin:round;fill-rule:evenodd;"
d="M 57074,45873
57136,45879
57255,45915
57255,45915
57364,45973
57364,45973
57364,45973
57460,46052
57539,46148
57597,46257
57633,46376
57645,46499
57633,46623
57597,46742
57597,46742
57539,46851
57460,46947
57364,47026
57286,47067
57255,47084
57136,47120
57074,47126
57043,47129
56982,47129
56951,47126
56889,47120
56770,47084
56739,47067
56661,47026
56565,46947
56486,46851
56428,46742
56428,46742
56392,46623
56379,46499
56392,46376
56428,46257
56486,46148
56565,46052
56661,45973
56661,45973
56661,45973
56770,45915
56770,45915
56889,45879
56951,45873
56982,45870
57043,45870
57074,45873
Z" /> 
<path style="fill:#000000; fill-opacity:1.0; 
stroke:#000000; stroke-width:0; stroke-opacity:1; 
stroke-linecap:round; stroke-linejoin:round;fill-rule:evenodd;"
d="M 55074,45873
55136,45879
55255,45915
55255,45915
55364,45973
55364,45973
55364,45973
55460,46052
55539,46148
55597,46257
55633,46376
55645,46499
55633,46623
55597,46742
55597,46742
55539,46851
55460,46947
55364,47026
55286,47067
55255,47084
55136,47120
55074,47126
55043,47129
54982,47129
54951,47126
54889,47120
54770,47084
54739,47067
54661,47026
54565,46947
54486,46851
54428,46742
54428,46742
54392,46623
54379,46499
54392,46376
54428,46257
54486,46148
54565,46052
54661,45973
54661,45973
54661,45973
54770,45915
54770,45915
54889,45879
54951,45873
54982,45870
55043,45870
55074,45873
Z" /> 
<path style="fill:#000000; fill-opacity:1.0; 
stroke:#000000; stroke-width:0; stroke-opacity:1; 
stroke-linecap:round; stroke-linejoin:round;fill-rule:evenodd;"
d="M 45074,45873
45136,45879
45255,45915
45255,45915
45364,45973
45364,45973
45364,45973
45460,46052
45539,46148
45597,46257
45633,46376
45645,46499
45633,46623
45597,46742
45597,46742
45539,46851
45460,46947
45364,47026
45286,47067
45255,47084
45136,47120
45074,47126
45043,47129
44982,47129
44951,47126
44889,47120
44770,47084
44739,47067
44661,47026
44565,46947
44486,46851
44428,46742
44428,46742
44392,46623
44379,46499
44392,46376
44428,46257
44486,46148
44565,46052
44661,45973
44661,45973
44661,45973
44770,45915
44770,45915
44889,45879
44951,45873
44982,45870
45043,45870
45074,45873
Z" /> 
<path style="fill:#000000; fill-opacity:1.0; 
stroke:#000000; stroke-width:0; stroke-opacity:1; 
stroke-linecap:round; stroke-linejoin:round;fill-rule:evenodd;"
d="M 51074,45873
51136,45879
51255,45915
51255,45915
51364,45973
51364,45973
51364,45973
51460,46052
51539,46148
51597,46257
51633,46376
51645,46499
51633,46623
51597,46742
51597,46742
51539,46851
51460,46947
51364,47026
51286,47067
51255,47084
51136,47120
51074,47126
51043,47129
50982,47129
50951,47126
50889,47120
50770,47084
50739,47067
50661,47026
50565,46947
50486,46851
50428,46742
50428,46742
50392,46623
50379,46499
50392,46376
50428,46257
50486,46148
50565,46052
50661,45973
50661,45973
50661,45973
50770,45915
50770,45915
50889,45879
50951,45873
50982,45870
51043,45870
51074,45873
Z" /> 
<path style="fill:#000000; fill-opacity:1.0; 
stroke:#000000; stroke-width:0; stroke-opacity:1; 
stroke-linecap:round; stroke-linejoin:round;fill-rule:evenodd;"
d="M 49074,45873
49136,45879
49255,45915
49255,45915
49364,45973
49364,45973
49364,45973
49460,46052
49539,46148
49597,46257
49633,46376
49645,46499
49633,46623
49597,46742
49597,46742
49539,46851
49460,46947
49364,47026
49286,47067
49255,47084
49136,47120
49074,47126
49043,47129
48982,47129
48951,47126
48889,47120
48770,47084
48739,47067
48661,47026
48565,46947
48486,46851
48428,46742
48428,46742
48392,46623
48379,46499
48392,46376
48428,46257
48486,46148
48565,46052
48661,45973
48661,45973
48661,45973
48770,45915
48770,45915
48889,45879
48951,45873
48982,45870
49043,45870
49074,45873
Z" /> 
<path style="fill:#000000; fill-opacity:1.0; 
stroke:#000000; stroke-width:0; stroke-opacity:1; 
stroke-linecap:round; stroke-linejoin:round;fill-rule:evenodd;"
d="M 53074,45873
53136,45879
53255,45915
53255,45915
53364,45973
53364,45973
53364,45973
53460,46052
53539,46148
53597,46257
53633,46376
53645,46499
53633,46623
53597,46742
53597,46742
53539,46851
53460,46947
53364,47026
53286,47067
53255,47084
53136,47120
53074,47126
53043,47129
52982,47129
52951,47126
52889,47120
52770,47084
52739,47067
52661,47026
52565,46947
52486,46851
52428,46742
52428,46742
52392,46623
52379,46499
52392,46376
52428,46257
52486,46148
52565,46052
52661,45973
52661,45973
52661,45973
52770,45915
52770,45915
52889,45879
52951,45873
52982,45870
53043,45870
53074,45873
Z" /> 
<path style="fill:#000000; fill-opacity:1.0; 
stroke:#000000; stroke-width:0; stroke-opacity:1; 
stroke-linecap:round; stroke-linejoin:round;fill-rule:evenodd;"
d="M 47074,45873
47136,45879
47255,45915
47255,45915
47364,45973
47364,45973
47364,45973
47460,46052
47539,46148
47597,46257
47633,46376
47645,46499
47633,46623
47597,46742
47597,46742
47539,46851
47460,46947
47364,47026
47286,47067
47255,47084
47136,47120
47074,47126
47043,47129
46982,47129
46951,47126
46889,47120
46770,47084
46739,47067
46661,47026
46565,46947
46486,46851
46428,46742
46428,46742
46392,46623
46379,46499
46392,46376
46428,46257
46486,46148
46565,46052
46661,45973
46661,45973
46661,45973
46770,45915
46770,45915
46889,45879
46951,45873
46982,45870
47043,45870
47074,45873
Z" /> 
<path style="fill:#000000; fill-opacity:1.0; 
stroke:#000000; stroke-width:0; stroke-opacity:1; 
stroke-linecap:round; stroke-linejoin:round;fill-rule:evenodd;"
d="M 67074,45873
67136,45879
67255,45915
67255,45915
67364,45973
67364,45973
67364,45973
67460,46052
67539,46148
67597,46257
67633,46376
67645,46499
67633,46623
67597,46742
67597,46742
67539,46851
67460,46947
67364,47026
67286,47067
67255,47084
67136,47120
67074,47126
67043,47129
66982,47129
66951,47126
66889,47120
66770,47084
66739,47067
66661,47026
66565,46947
66486,46851
66428,46742
66428,46742
66392,46623
66379,46499
66392,46376
66428,46257
66486,46148
66565,46052
66661,45973
66661,45973
66661,45973
66770,45915
66770,45915
66889,45879
66951,45873
66982,45870
67043,45870
67074,45873
Z" /> 
<path style="fill:#000000; fill-opacity:1.0; 
stroke:#000000; stroke-width:0; stroke-opacity:1; 
stroke-linecap:round; stroke-linejoin:round;fill-rule:evenodd;"
d="M 69074,45873
69136,45879
69255,45915
69255,45915
69364,45973
69364,45973
69364,45973
69460,46052
69539,46148
69597,46257
69633,46376
69645,46499
69633,46623
69597,46742
69597,46742
69539,46851
69460,46947
69364,47026
69286,47067
69255,47084
69136,47120
69074,47126
69043,47129
68982,47129
68951,47126
68889,47120
68770,47084
68739,47067
68661,47026
68565,46947
68486,46851
68428,46742
68428,46742
68392,46623
68379,46499
68392,46376
68428,46257
68486,46148
68565,46052
68661,45973
68661,45973
68661,45973
68770,45915
68770,45915
68889,45879
68951,45873
68982,45870
69043,45870
69074,45873
Z" /> 
<path style="fill:#000000; fill-opacity:1.0; 
stroke:#000000; stroke-width:0; stroke-opacity:1; 
stroke-linecap:round; stroke-linejoin:round;fill-rule:evenodd;"
d="M 71642,47129
70383,47129
70383,45870
71642,45870
71642,47129
Z" /> 
<path style="fill:#000000; fill-opacity:1.0; 
stroke:#000000; stroke-width:0; stroke-opacity:1; 
stroke-linecap:round; stroke-linejoin:round;fill-rule:evenodd;"
d="M 76574,45073
76636,45079
76755,45115
76755,45115
76864,45173
76864,45173
76864,45173
76960,45252
77039,45348
77097,45457
77133,45576
77145,45699
77133,45823
77097,45942
77097,45942
77039,46051
76960,46147
76864,46226
76755,46284
76755,46284
76636,46320
76574,46326
76543,46329
76482,46329
76451,46326
76389,46320
76270,46284
76270,46284
76161,46226
76065,46147
75986,46051
75928,45942
75928,45942
75892,45823
75879,45699
75892,45576
75928,45457
75986,45348
76065,45252
76161,45173
76161,45173
76161,45173
76270,45115
76270,45115
76389,45079
76451,45073
76482,45070
76543,45070
76574,45073
Z" /> 
<path style="fill:#000000; fill-opacity:1.0; 
stroke:#000000; stroke-width:0; stroke-opacity:1; 
stroke-linecap:round; stroke-linejoin:round;fill-rule:evenodd;"
d="M 82574,45073
82636,45079
82755,45115
82755,45115
82864,45173
82864,45173
82864,45173
82960,45252
83039,45348
83097,45457
83133,45576
83145,45699
83133,45823
83097,45942
83097,45942
83039,46051
82960,46147
82864,46226
82755,46284
82755,46284
82636,46320
82574,46326
82543,46329
82482,46329
82451,46326
82389,46320
82270,46284
82270,46284
82161,46226
82065,46147
81986,46051
81928,45942
81928,45942
81892,45823
81879,45699
81892,45576
81928,45457
81986,45348
82065,45252
82161,45173
82161,45173
82161,45173
82270,45115
82270,45115
82389,45079
82451,45073
82482,45070
82543,45070
82574,45073
Z" /> 
<path style="fill:#000000; fill-opacity:1.0; 
stroke:#000000; stroke-width:0; stroke-opacity:1; 
stroke-linecap:round; stroke-linejoin:round;fill-rule:evenodd;"
d="M 82566,43072
82636,43079
82755,43115
82755,43115
82864,43173
82864,43173
82864,43173
82960,43252
83039,43348
83097,43457
83133,43576
83145,43699
83133,43823
83097,43942
83097,43942
83039,44051
82960,44147
82864,44226
82755,44284
82755,44284
82636,44320
82574,44326
82543,44329
82482,44329
82451,44326
82389,44320
82270,44284
82270,44284
82161,44226
82065,44147
81986,44051
81928,43942
81928,43942
81892,43823
81879,43699
81892,43576
81928,43457
81986,43348
82065,43252
82161,43173
82161,43173
82161,43173
82270,43115
82270,43115
82389,43079
82459,43072
82482,43070
82543,43070
82566,43072
Z" /> 
<path style="fill:#000000; fill-opacity:1.0; 
stroke:#000000; stroke-width:0; stroke-opacity:1; 
stroke-linecap:round; stroke-linejoin:round;fill-rule:evenodd;"
d="M 76566,43072
76636,43079
76755,43115
76755,43115
76864,43173
76864,43173
76864,43173
76960,43252
77039,43348
77097,43457
77133,43576
77145,43699
77133,43823
77097,43942
77097,43942
77039,44051
76960,44147
76864,44226
76755,44284
76755,44284
76636,44320
76574,44326
76543,44329
76482,44329
76451,44326
76389,44320
76270,44284
76270,44284
76161,44226
76065,44147
75986,44051
75928,43942
75928,43942
75892,43823
75879,43699
75892,43576
75928,43457
75986,43348
76065,43252
76161,43173
76161,43173
76161,43173
76270,43115
76270,43115
76389,43079
76459,43072
76482,43070
76543,43070
76566,43072
Z" /> 
<path style="fill:#000000; fill-opacity:1.0; 
stroke:#000000; stroke-width:0; stroke-opacity:1; 
stroke-linecap:round; stroke-linejoin:round;fill-rule:evenodd;"
d="M 63527,42332
63635,42376
63731,42441
63814,42523
63878,42620
63923,42727
63946,42841
63946,42958
63923,43072
63878,43179
63814,43276
63731,43358
63635,43423
63527,43467
63413,43490
63297,43490
63183,43467
63075,43423
62979,43358
62896,43276
62832,43179
62787,43072
62764,42958
62764,42841
62787,42727
62832,42620
62896,42523
62979,42441
63075,42376
63183,42332
63297,42309
63413,42309
63527,42332
Z" /> 
<path style="fill:#000000; fill-opacity:1.0; 
stroke:#000000; stroke-width:0; stroke-opacity:1; 
stroke-linecap:round; stroke-linejoin:round;fill-rule:evenodd;"
d="M 59685,42332
59792,42376
59889,42441
59971,42523
60036,42620
60080,42727
60103,42841
60103,42958
60080,43072
60036,43179
59971,43276
59889,43358
59792,43423
59685,43467
59571,43490
59454,43490
59340,43467
59233,43423
59136,43358
59054,43276
58989,43179
58945,43072
58922,42958
58922,42841
58945,42727
58989,42620
59054,42523
59136,42441
59233,42376
59340,42332
59454,42309
59571,42309
59685,42332
Z" /> 
<path style="fill:#000000; fill-opacity:1.0; 
stroke:#000000; stroke-width:0; stroke-opacity:1; 
stroke-linecap:round; stroke-linejoin:round;fill-rule:evenodd;"
d="M 76574,41073
76636,41079
76755,41115
76755,41115
76864,41173
76960,41252
77039,41348
77097,41457
77097,41457
77133,41576
77145,41699
77133,41823
77097,41942
77097,41942
77039,42051
76960,42147
76864,42226
76755,42284
76755,42284
76636,42320
76574,42326
76543,42329
76482,42329
76451,42326
76389,42320
76270,42284
76270,42284
76161,42226
76065,42147
75986,42051
75928,41942
75928,41942
75892,41823
75879,41699
75892,41576
75928,41457
75928,41457
75986,41348
76065,41252
76161,41173
76270,41115
76270,41115
76389,41079
76451,41073
76482,41070
76543,41070
76574,41073
Z" /> 
<path style="fill:#000000; fill-opacity:1.0; 
stroke:#000000; stroke-width:0; stroke-opacity:1; 
stroke-linecap:round; stroke-linejoin:round;fill-rule:evenodd;"
d="M 82574,41073
82636,41079
82755,41115
82755,41115
82864,41173
82960,41252
83039,41348
83097,41457
83097,41457
83133,41576
83145,41699
83133,41823
83097,41942
83097,41942
83039,42051
82960,42147
82864,42226
82755,42284
82755,42284
82636,42320
82574,42326
82543,42329
82482,42329
82451,42326
82389,42320
82270,42284
82270,42284
82161,42226
82065,42147
81986,42051
81928,41942
81928,41942
81892,41823
81879,41699
81892,41576
81928,41457
81928,41457
81986,41348
82065,41252
82161,41173
82270,41115
82270,41115
82389,41079
82451,41073
82482,41070
82543,41070
82574,41073
Z" /> 
<path style="fill:#000000; fill-opacity:1.0; 
stroke:#000000; stroke-width:0; stroke-opacity:1; 
stroke-linecap:round; stroke-linejoin:round;fill-rule:evenodd;"
d="M 32821,41808
31404,41808
31404,40391
32821,40391
32821,41808
Z" /> 
<path style="fill:#000000; fill-opacity:1.0; 
stroke:#000000; stroke-width:0; stroke-opacity:1; 
stroke-linecap:round; stroke-linejoin:round;fill-rule:evenodd;"
d="M 30251,40401
30251,40401
30251,40401
30385,40442
30385,40442
30385,40442
30508,40507
30616,40596
30705,40704
30770,40827
30811,40961
30825,41099
30811,41238
30811,41238
30811,41238
30778,41348
30770,41372
30705,41495
30616,41603
30508,41692
30385,41757
30385,41757
30385,41757
30251,41798
30251,41798
30251,41798
30147,41808
30078,41808
29974,41798
29974,41798
29974,41798
29840,41757
29840,41757
29840,41757
29717,41692
29609,41603
29520,41495
29455,41372
29447,41348
29414,41238
29414,41238
29414,41238
29400,41099
29414,40961
29455,40827
29520,40704
29609,40596
29717,40507
29840,40442
29840,40442
29840,40442
29974,40401
29974,40401
29974,40401
30078,40391
30147,40391
30251,40401
Z" /> 
<path style="fill:#000000; fill-opacity:1.0; 
stroke:#000000; stroke-width:0; stroke-opacity:1; 
stroke-linecap:round; stroke-linejoin:round;fill-rule:evenodd;"
d="M 28251,40401
28251,40401
28251,40401
28385,40442
28385,40442
28385,40442
28508,40507
28616,40596
28705,40704
28770,40827
28811,40961
28825,41099
28811,41238
28811,41238
28811,41238
28778,41348
28770,41372
28705,41495
28616,41603
28508,41692
28385,41757
28385,41757
28385,41757
28251,41798
28251,41798
28251,41798
28147,41808
28078,41808
27974,41798
27974,41798
27974,41798
27840,41757
27840,41757
27840,41757
27717,41692
27609,41603
27520,41495
27455,41372
27447,41348
27414,41238
27414,41238
27414,41238
27400,41099
27414,40961
27455,40827
27520,40704
27609,40596
27717,40507
27840,40442
27840,40442
27840,40442
27974,40401
27974,40401
27974,40401
28078,40391
28147,40391
28251,40401
Z" /> 
<path style="fill:#000000; fill-opacity:1.0; 
stroke:#000000; stroke-width:0; stroke-opacity:1; 
stroke-linecap:round; stroke-linejoin:round;fill-rule:evenodd;"
d="M 45842,40229
44583,40229
44583,38970
45842,38970
45842,40229
Z" /> 
<path style="fill:#000000; fill-opacity:1.0; 
stroke:#000000; stroke-width:0; stroke-opacity:1; 
stroke-linecap:round; stroke-linejoin:round;fill-rule:evenodd;"
d="M 69274,38973
69336,38979
69455,39015
69455,39015
69564,39073
69564,39073
69564,39073
69660,39152
69739,39248
69797,39357
69833,39476
69845,39599
69833,39723
69797,39842
69797,39842
69739,39951
69660,40047
69564,40126
69455,40184
69455,40184
69336,40220
69274,40226
69243,40229
69182,40229
69151,40226
69089,40220
68970,40184
68970,40184
68861,40126
68765,40047
68686,39951
68628,39842
68628,39842
68592,39723
68579,39599
68592,39476
68628,39357
68686,39248
68765,39152
68861,39073
68861,39073
68861,39073
68970,39015
68970,39015
69089,38979
69151,38973
69182,38970
69243,38970
69274,38973
Z" /> 
<path style="fill:#000000; fill-opacity:1.0; 
stroke:#000000; stroke-width:0; stroke-opacity:1; 
stroke-linecap:round; stroke-linejoin:round;fill-rule:evenodd;"
d="M 71274,38973
71336,38979
71455,39015
71455,39015
71564,39073
71564,39073
71564,39073
71660,39152
71739,39248
71797,39357
71833,39476
71845,39599
71833,39723
71797,39842
71797,39842
71739,39951
71660,40047
71564,40126
71455,40184
71455,40184
71336,40220
71274,40226
71243,40229
71182,40229
71151,40226
71089,40220
70970,40184
70970,40184
70861,40126
70765,40047
70686,39951
70628,39842
70628,39842
70592,39723
70579,39599
70592,39476
70628,39357
70686,39248
70765,39152
70861,39073
70861,39073
70861,39073
70970,39015
70970,39015
71089,38979
71151,38973
71182,38970
71243,38970
71274,38973
Z" /> 
<path style="fill:#000000; fill-opacity:1.0; 
stroke:#000000; stroke-width:0; stroke-opacity:1; 
stroke-linecap:round; stroke-linejoin:round;fill-rule:evenodd;"
d="M 63274,38973
63336,38979
63455,39015
63455,39015
63564,39073
63564,39073
63564,39073
63660,39152
63739,39248
63797,39357
63833,39476
63845,39599
63833,39723
63797,39842
63797,39842
63739,39951
63660,40047
63564,40126
63455,40184
63455,40184
63336,40220
63274,40226
63243,40229
63182,40229
63151,40226
63089,40220
62970,40184
62970,40184
62861,40126
62765,40047
62686,39951
62628,39842
62628,39842
62592,39723
62579,39599
62592,39476
62628,39357
62686,39248
62765,39152
62861,39073
62861,39073
62861,39073
62970,39015
62970,39015
63089,38979
63151,38973
63182,38970
63243,38970
63274,38973
Z" /> 
<path style="fill:#000000; fill-opacity:1.0; 
stroke:#000000; stroke-width:0; stroke-opacity:1; 
stroke-linecap:round; stroke-linejoin:round;fill-rule:evenodd;"
d="M 65274,38973
65336,38979
65455,39015
65455,39015
65564,39073
65564,39073
65564,39073
65660,39152
65739,39248
65797,39357
65833,39476
65845,39599
65833,39723
65797,39842
65797,39842
65739,39951
65660,40047
65564,40126
65455,40184
65455,40184
65336,40220
65274,40226
65243,40229
65182,40229
65151,40226
65089,40220
64970,40184
64970,40184
64861,40126
64765,40047
64686,39951
64628,39842
64628,39842
64592,39723
64579,39599
64592,39476
64628,39357
64686,39248
64765,39152
64861,39073
64861,39073
64861,39073
64970,39015
64970,39015
65089,38979
65151,38973
65182,38970
65243,38970
65274,38973
Z" /> 
<path style="fill:#000000; fill-opacity:1.0; 
stroke:#000000; stroke-width:0; stroke-opacity:1; 
stroke-linecap:round; stroke-linejoin:round;fill-rule:evenodd;"
d="M 67274,38973
67336,38979
67455,39015
67455,39015
67564,39073
67564,39073
67564,39073
67660,39152
67739,39248
67797,39357
67833,39476
67845,39599
67833,39723
67797,39842
67797,39842
67739,39951
67660,40047
67564,40126
67455,40184
67455,40184
67336,40220
67274,40226
67243,40229
67182,40229
67151,40226
67089,40220
66970,40184
66970,40184
66861,40126
66765,40047
66686,39951
66628,39842
66628,39842
66592,39723
66579,39599
66592,39476
66628,39357
66686,39248
66765,39152
66861,39073
66861,39073
66861,39073
66970,39015
66970,39015
67089,38979
67151,38973
67182,38970
67243,38970
67274,38973
Z" /> 
<path style="fill:#000000; fill-opacity:1.0; 
stroke:#000000; stroke-width:0; stroke-opacity:1; 
stroke-linecap:round; stroke-linejoin:round;fill-rule:evenodd;"
d="M 61274,38973
61336,38979
61455,39015
61455,39015
61564,39073
61564,39073
61564,39073
61660,39152
61739,39248
61797,39357
61833,39476
61845,39599
61833,39723
61797,39842
61797,39842
61739,39951
61660,40047
61564,40126
61455,40184
61455,40184
61336,40220
61274,40226
61243,40229
61182,40229
61151,40226
61089,40220
60970,40184
60970,40184
60861,40126
60765,40047
60686,39951
60628,39842
60628,39842
60592,39723
60579,39599
60592,39476
60628,39357
60686,39248
60765,39152
60861,39073
60861,39073
60861,39073
60970,39015
60970,39015
61089,38979
61151,38973
61182,38970
61243,38970
61274,38973
Z" /> 
<path style="fill:#000000; fill-opacity:1.0; 
stroke:#000000; stroke-width:0; stroke-opacity:1; 
stroke-linecap:round; stroke-linejoin:round;fill-rule:evenodd;"
d="M 59274,38973
59336,38979
59455,39015
59455,39015
59564,39073
59564,39073
59564,39073
59660,39152
59739,39248
59797,39357
59833,39476
59845,39599
59833,39723
59797,39842
59797,39842
59739,39951
59660,40047
59564,40126
59455,40184
59455,40184
59336,40220
59274,40226
59243,40229
59182,40229
59151,40226
59089,40220
58970,40184
58970,40184
58861,40126
58765,40047
58686,39951
58628,39842
58628,39842
58592,39723
58579,39599
58592,39476
58628,39357
58686,39248
58765,39152
58861,39073
58861,39073
58861,39073
58970,39015
58970,39015
59089,38979
59151,38973
59182,38970
59243,38970
59274,38973
Z" /> 
<path style="fill:#000000; fill-opacity:1.0; 
stroke:#000000; stroke-width:0; stroke-opacity:1; 
stroke-linecap:round; stroke-linejoin:round;fill-rule:evenodd;"
d="M 47274,38973
47336,38979
47455,39015
47455,39015
47564,39073
47564,39073
47564,39073
47660,39152
47739,39248
47797,39357
47833,39476
47845,39599
47833,39723
47797,39842
47797,39842
47739,39951
47660,40047
47564,40126
47455,40184
47455,40184
47336,40220
47274,40226
47243,40229
47182,40229
47151,40226
47089,40220
46970,40184
46970,40184
46861,40126
46765,40047
46686,39951
46628,39842
46628,39842
46592,39723
46579,39599
46592,39476
46628,39357
46686,39248
46765,39152
46861,39073
46861,39073
46861,39073
46970,39015
46970,39015
47089,38979
47151,38973
47182,38970
47243,38970
47274,38973
Z" /> 
<path style="fill:#000000; fill-opacity:1.0; 
stroke:#000000; stroke-width:0; stroke-opacity:1; 
stroke-linecap:round; stroke-linejoin:round;fill-rule:evenodd;"
d="M 49274,38973
49336,38979
49455,39015
49455,39015
49564,39073
49564,39073
49564,39073
49660,39152
49739,39248
49797,39357
49833,39476
49845,39599
49833,39723
49797,39842
49797,39842
49739,39951
49660,40047
49564,40126
49455,40184
49455,40184
49336,40220
49274,40226
49243,40229
49182,40229
49151,40226
49089,40220
48970,40184
48970,40184
48861,40126
48765,40047
48686,39951
48628,39842
48628,39842
48592,39723
48579,39599
48592,39476
48628,39357
48686,39248
48765,39152
48861,39073
48861,39073
48861,39073
48970,39015
48970,39015
49089,38979
49151,38973
49182,38970
49243,38970
49274,38973
Z" /> 
<path style="fill:#000000; fill-opacity:1.0; 
stroke:#000000; stroke-width:0; stroke-opacity:1; 
stroke-linecap:round; stroke-linejoin:round;fill-rule:evenodd;"
d="M 51274,38973
51336,38979
51455,39015
51455,39015
51564,39073
51564,39073
51564,39073
51660,39152
51739,39248
51797,39357
51833,39476
51845,39599
51833,39723
51797,39842
51797,39842
51739,39951
51660,40047
51564,40126
51455,40184
51455,40184
51336,40220
51274,40226
51243,40229
51182,40229
51151,40226
51089,40220
50970,40184
50970,40184
50861,40126
50765,40047
50686,39951
50628,39842
50628,39842
50592,39723
50579,39599
50592,39476
50628,39357
50686,39248
50765,39152
50861,39073
50861,39073
50861,39073
50970,39015
50970,39015
51089,38979
51151,38973
51182,38970
51243,38970
51274,38973
Z" /> 
<path style="fill:#000000; fill-opacity:1.0; 
stroke:#000000; stroke-width:0; stroke-opacity:1; 
stroke-linecap:round; stroke-linejoin:round;fill-rule:evenodd;"
d="M 53274,38973
53336,38979
53455,39015
53455,39015
53564,39073
53564,39073
53564,39073
53660,39152
53739,39248
53797,39357
53833,39476
53845,39599
53833,39723
53797,39842
53797,39842
53739,39951
53660,40047
53564,40126
53455,40184
53455,40184
53336,40220
53274,40226
53243,40229
53182,40229
53151,40226
53089,40220
52970,40184
52970,40184
52861,40126
52765,40047
52686,39951
52628,39842
52628,39842
52592,39723
52579,39599
52592,39476
52628,39357
52686,39248
52765,39152
52861,39073
52861,39073
52861,39073
52970,39015
52970,39015
53089,38979
53151,38973
53182,38970
53243,38970
53274,38973
Z" /> 
<path style="fill:#000000; fill-opacity:1.0; 
stroke:#000000; stroke-width:0; stroke-opacity:1; 
stroke-linecap:round; stroke-linejoin:round;fill-rule:evenodd;"
d="M 55274,38973
55336,38979
55455,39015
55455,39015
55564,39073
55564,39073
55564,39073
55660,39152
55739,39248
55797,39357
55833,39476
55845,39599
55833,39723
55797,39842
55797,39842
55739,39951
55660,40047
55564,40126
55455,40184
55455,40184
55336,40220
55274,40226
55243,40229
55182,40229
55151,40226
55089,40220
54970,40184
54970,40184
54861,40126
54765,40047
54686,39951
54628,39842
54628,39842
54592,39723
54579,39599
54592,39476
54628,39357
54686,39248
54765,39152
54861,39073
54861,39073
54861,39073
54970,39015
54970,39015
55089,38979
55151,38973
55182,38970
55243,38970
55274,38973
Z" /> 
<path style="fill:#000000; fill-opacity:1.0; 
stroke:#000000; stroke-width:0; stroke-opacity:1; 
stroke-linecap:round; stroke-linejoin:round;fill-rule:evenodd;"
d="M 57274,38973
57336,38979
57455,39015
57455,39015
57564,39073
57564,39073
57564,39073
57660,39152
57739,39248
57797,39357
57833,39476
57845,39599
57833,39723
57797,39842
57797,39842
57739,39951
57660,40047
57564,40126
57455,40184
57455,40184
57336,40220
57274,40226
57243,40229
57182,40229
57151,40226
57089,40220
56970,40184
56970,40184
56861,40126
56765,40047
56686,39951
56628,39842
56628,39842
56592,39723
56579,39599
56592,39476
56628,39357
56686,39248
56765,39152
56861,39073
56861,39073
56861,39073
56970,39015
56970,39015
57089,38979
57151,38973
57182,38970
57243,38970
57274,38973
Z" /> 
<path style="fill:#000000; fill-opacity:1.0; 
stroke:#000000; stroke-width:0; stroke-opacity:1; 
stroke-linecap:round; stroke-linejoin:round;fill-rule:evenodd;"
d="M 78182,38469
76843,38469
76843,37130
78182,37130
78182,38469
Z" /> 
<path style="fill:#000000; fill-opacity:1.0; 
stroke:#000000; stroke-width:0; stroke-opacity:1; 
stroke-linecap:round; stroke-linejoin:round;fill-rule:evenodd;"
d="M 75644,37140
75707,37159
75770,37178
75770,37178
75886,37240
75988,37324
76072,37426
76085,37450
76134,37542
76145,37578
76172,37668
76185,37799
76172,37931
76134,38057
76072,38173
75988,38275
75886,38359
75770,38421
75770,38421
75707,38440
75644,38459
75545,38469
75480,38469
75381,38459
75318,38440
75255,38421
75255,38421
75139,38359
75037,38275
74953,38173
74891,38057
74853,37931
74840,37799
74853,37668
74880,37578
74891,37542
74940,37450
74953,37426
75037,37324
75139,37240
75255,37178
75255,37178
75318,37159
75381,37140
75480,37130
75545,37130
75644,37140
Z" /> 
<path style="fill:#000000; fill-opacity:1.0; 
stroke:#000000; stroke-width:0; stroke-opacity:1; 
stroke-linecap:round; stroke-linejoin:round;fill-rule:evenodd;"
d="M 35027,36821
35027,36821
35027,36821
35099,36851
35131,36872
35163,36894
35218,36949
35261,37013
35291,37085
35306,37161
35306,37238
35291,37314
35291,37314
35261,37386
35218,37450
35163,37505
35099,37548
35099,37548
35099,37548
35027,37578
34951,37593
34874,37593
34798,37578
34726,37548
34726,37548
34726,37548
34661,37505
34607,37450
34564,37386
34534,37314
34534,37314
34519,37238
34519,37161
34534,37085
34564,37013
34607,36949
34661,36894
34694,36872
34726,36851
34798,36821
34798,36821
34798,36821
34874,36806
34951,36806
35027,36821
Z" /> 
<path style="fill:#000000; fill-opacity:1.0; 
stroke:#000000; stroke-width:0; stroke-opacity:1; 
stroke-linecap:round; stroke-linejoin:round;fill-rule:evenodd;"
d="M 77644,35140
77707,35159
77770,35178
77770,35178
77886,35240
77988,35324
78072,35426
78134,35542
78172,35668
78185,35799
78172,35931
78172,35931
78135,36052
78134,36057
78072,36173
77988,36275
77886,36359
77770,36421
77770,36421
77707,36440
77644,36459
77545,36469
77480,36469
77381,36459
77318,36440
77255,36421
77255,36421
77139,36359
77037,36275
76953,36173
76891,36057
76890,36052
76853,35931
76853,35931
76840,35799
76853,35668
76891,35542
76953,35426
77037,35324
77139,35240
77255,35178
77255,35178
77318,35159
77381,35140
77480,35130
77545,35130
77644,35140
Z" /> 
<path style="fill:#000000; fill-opacity:1.0; 
stroke:#000000; stroke-width:0; stroke-opacity:1; 
stroke-linecap:round; stroke-linejoin:round;fill-rule:evenodd;"
d="M 75644,35140
75707,35159
75770,35178
75770,35178
75886,35240
75988,35324
76072,35426
76134,35542
76172,35668
76185,35799
76172,35931
76172,35931
76135,36052
76134,36057
76072,36173
75988,36275
75886,36359
75770,36421
75770,36421
75707,36440
75644,36459
75545,36469
75480,36469
75381,36459
75318,36440
75255,36421
75255,36421
75139,36359
75037,36275
74953,36173
74891,36057
74890,36052
74853,35931
74853,35931
74840,35799
74853,35668
74891,35542
74953,35426
75037,35324
75139,35240
75255,35178
75255,35178
75318,35159
75381,35140
75480,35130
75545,35130
75644,35140
Z" /> 
<path style="fill:#000000; fill-opacity:1.0; 
stroke:#000000; stroke-width:0; stroke-opacity:1; 
stroke-linecap:round; stroke-linejoin:round;fill-rule:evenodd;"
d="M 35027,35325
35027,35325
35027,35325
35099,35355
35131,35376
35163,35398
35218,35452
35261,35517
35291,35589
35306,35665
35306,35742
35291,35818
35291,35818
35261,35890
35218,35954
35163,36009
35099,36052
35099,36052
35099,36052
35027,36082
34951,36097
34874,36097
34798,36082
34726,36052
34726,36052
34726,36052
34661,36009
34607,35954
34564,35890
34534,35818
34534,35818
34519,35742
34519,35665
34534,35589
34564,35517
34607,35452
34661,35398
34694,35376
34726,35355
34798,35325
34798,35325
34798,35325
34874,35310
34951,35310
35027,35325
Z" /> 
<path style="fill:#000000; fill-opacity:1.0; 
stroke:#000000; stroke-width:0; stroke-opacity:1; 
stroke-linecap:round; stroke-linejoin:round;fill-rule:evenodd;"
d="M 77644,33140
77683,33152
77770,33178
77770,33178
77886,33240
77988,33324
78072,33426
78134,33542
78172,33668
78185,33799
78172,33931
78134,34057
78072,34173
77988,34275
77886,34359
77770,34421
77770,34421
77707,34440
77644,34459
77545,34469
77480,34469
77381,34459
77318,34440
77255,34421
77255,34421
77139,34359
77037,34275
76953,34173
76891,34057
76853,33931
76840,33799
76853,33668
76891,33542
76953,33426
77037,33324
77139,33240
77255,33178
77255,33178
77342,33152
77381,33140
77480,33130
77545,33130
77644,33140
Z" /> 
<path style="fill:#000000; fill-opacity:1.0; 
stroke:#000000; stroke-width:0; stroke-opacity:1; 
stroke-linecap:round; stroke-linejoin:round;fill-rule:evenodd;"
d="M 75644,33140
75683,33152
75770,33178
75770,33178
75886,33240
75988,33324
76072,33426
76134,33542
76172,33668
76185,33799
76172,33931
76134,34057
76072,34173
75988,34275
75886,34359
75770,34421
75770,34421
75707,34440
75644,34459
75545,34469
75480,34469
75381,34459
75318,34440
75255,34421
75255,34421
75139,34359
75037,34275
74953,34173
74891,34057
74853,33931
74840,33799
74853,33668
74891,33542
74953,33426
75037,33324
75139,33240
75255,33178
75255,33178
75342,33152
75381,33140
75480,33130
75545,33130
75644,33140
Z" /> 
<path style="fill:#000000; fill-opacity:1.0; 
stroke:#000000; stroke-width:0; stroke-opacity:1; 
stroke-linecap:round; stroke-linejoin:round;fill-rule:evenodd;"
d="M 55274,32973
55336,32979
55455,33015
55455,33015
55564,33073
55564,33073
55564,33073
55660,33152
55739,33248
55797,33357
55833,33476
55845,33599
55833,33723
55797,33842
55797,33842
55739,33951
55660,34047
55564,34126
55455,34184
55455,34184
55336,34220
55274,34226
55243,34229
55182,34229
55151,34226
55089,34220
54970,34184
54970,34184
54861,34126
54765,34047
54686,33951
54628,33842
54628,33842
54592,33723
54579,33599
54592,33476
54628,33357
54686,33248
54765,33152
54861,33073
54861,33073
54861,33073
54970,33015
54970,33015
55089,32979
55151,32973
55182,32970
55243,32970
55274,32973
Z" /> 
<path style="fill:#000000; fill-opacity:1.0; 
stroke:#000000; stroke-width:0; stroke-opacity:1; 
stroke-linecap:round; stroke-linejoin:round;fill-rule:evenodd;"
d="M 51274,32973
51336,32979
51455,33015
51455,33015
51564,33073
51564,33073
51564,33073
51660,33152
51739,33248
51797,33357
51833,33476
51845,33599
51833,33723
51797,33842
51797,33842
51739,33951
51660,34047
51564,34126
51455,34184
51455,34184
51336,34220
51274,34226
51243,34229
51182,34229
51151,34226
51089,34220
50970,34184
50970,34184
50861,34126
50765,34047
50686,33951
50628,33842
50628,33842
50592,33723
50579,33599
50592,33476
50628,33357
50686,33248
50765,33152
50861,33073
50861,33073
50861,33073
50970,33015
50970,33015
51089,32979
51151,32973
51182,32970
51243,32970
51274,32973
Z" /> 
<path style="fill:#000000; fill-opacity:1.0; 
stroke:#000000; stroke-width:0; stroke-opacity:1; 
stroke-linecap:round; stroke-linejoin:round;fill-rule:evenodd;"
d="M 49274,32973
49336,32979
49455,33015
49455,33015
49564,33073
49564,33073
49564,33073
49660,33152
49739,33248
49797,33357
49833,33476
49845,33599
49833,33723
49797,33842
49797,33842
49739,33951
49660,34047
49564,34126
49455,34184
49455,34184
49336,34220
49274,34226
49243,34229
49182,34229
49151,34226
49089,34220
48970,34184
48970,34184
48861,34126
48765,34047
48686,33951
48628,33842
48628,33842
48592,33723
48579,33599
48592,33476
48628,33357
48686,33248
48765,33152
48861,33073
48861,33073
48861,33073
48970,33015
48970,33015
49089,32979
49151,32973
49182,32970
49243,32970
49274,32973
Z" /> 
<path style="fill:#000000; fill-opacity:1.0; 
stroke:#000000; stroke-width:0; stroke-opacity:1; 
stroke-linecap:round; stroke-linejoin:round;fill-rule:evenodd;"
d="M 47274,32973
47336,32979
47455,33015
47455,33015
47564,33073
47564,33073
47564,33073
47660,33152
47739,33248
47797,33357
47833,33476
47845,33599
47833,33723
47797,33842
47797,33842
47739,33951
47660,34047
47564,34126
47455,34184
47455,34184
47336,34220
47274,34226
47243,34229
47182,34229
47151,34226
47089,34220
46970,34184
46970,34184
46861,34126
46765,34047
46686,33951
46628,33842
46628,33842
46592,33723
46579,33599
46592,33476
46628,33357
46686,33248
46765,33152
46861,33073
46861,33073
46861,33073
46970,33015
46970,33015
47089,32979
47151,32973
47182,32970
47243,32970
47274,32973
Z" /> 
<path style="fill:#000000; fill-opacity:1.0; 
stroke:#000000; stroke-width:0; stroke-opacity:1; 
stroke-linecap:round; stroke-linejoin:round;fill-rule:evenodd;"
d="M 53274,32973
53336,32979
53455,33015
53455,33015
53564,33073
53564,33073
53564,33073
53660,33152
53739,33248
53797,33357
53833,33476
53845,33599
53833,33723
53797,33842
53797,33842
53739,33951
53660,34047
53564,34126
53455,34184
53455,34184
53336,34220
53274,34226
53243,34229
53182,34229
53151,34226
53089,34220
52970,34184
52970,34184
52861,34126
52765,34047
52686,33951
52628,33842
52628,33842
52592,33723
52579,33599
52592,33476
52628,33357
52686,33248
52765,33152
52861,33073
52861,33073
52861,33073
52970,33015
52970,33015
53089,32979
53151,32973
53182,32970
53243,32970
53274,32973
Z" /> 
<path style="fill:#000000; fill-opacity:1.0; 
stroke:#000000; stroke-width:0; stroke-opacity:1; 
stroke-linecap:round; stroke-linejoin:round;fill-rule:evenodd;"
d="M 57274,32973
57336,32979
57455,33015
57455,33015
57564,33073
57564,33073
57564,33073
57660,33152
57739,33248
57797,33357
57833,33476
57845,33599
57833,33723
57797,33842
57797,33842
57739,33951
57660,34047
57564,34126
57455,34184
57455,34184
57336,34220
57274,34226
57243,34229
57182,34229
57151,34226
57089,34220
56970,34184
56970,34184
56861,34126
56765,34047
56686,33951
56628,33842
56628,33842
56592,33723
56579,33599
56592,33476
56628,33357
56686,33248
56765,33152
56861,33073
56861,33073
56861,33073
56970,33015
56970,33015
57089,32979
57151,32973
57182,32970
57243,32970
57274,32973
Z" /> 
<path style="fill:#000000; fill-opacity:1.0; 
stroke:#000000; stroke-width:0; stroke-opacity:1; 
stroke-linecap:round; stroke-linejoin:round;fill-rule:evenodd;"
d="M 59274,32973
59336,32979
59455,33015
59455,33015
59564,33073
59564,33073
59564,33073
59660,33152
59739,33248
59797,33357
59833,33476
59845,33599
59833,33723
59797,33842
59797,33842
59739,33951
59660,34047
59564,34126
59455,34184
59455,34184
59336,34220
59274,34226
59243,34229
59182,34229
59151,34226
59089,34220
58970,34184
58970,34184
58861,34126
58765,34047
58686,33951
58628,33842
58628,33842
58592,33723
58579,33599
58592,33476
58628,33357
58686,33248
58765,33152
58861,33073
58861,33073
58861,33073
58970,33015
58970,33015
59089,32979
59151,32973
59182,32970
59243,32970
59274,32973
Z" /> 
<path style="fill:#000000; fill-opacity:1.0; 
stroke:#000000; stroke-width:0; stroke-opacity:1; 
stroke-linecap:round; stroke-linejoin:round;fill-rule:evenodd;"
d="M 45274,32973
45336,32979
45455,33015
45455,33015
45564,33073
45564,33073
45564,33073
45660,33152
45739,33248
45797,33357
45833,33476
45845,33599
45833,33723
45797,33842
45797,33842
45739,33951
45660,34047
45564,34126
45455,34184
45455,34184
45336,34220
45274,34226
45243,34229
45182,34229
45151,34226
45089,34220
44970,34184
44970,34184
44861,34126
44765,34047
44686,33951
44628,33842
44628,33842
44592,33723
44579,33599
44592,33476
44628,33357
44686,33248
44765,33152
44861,33073
44861,33073
44861,33073
44970,33015
44970,33015
45089,32979
45151,32973
45182,32970
45243,32970
45274,32973
Z" /> 
<path style="fill:#000000; fill-opacity:1.0; 
stroke:#000000; stroke-width:0; stroke-opacity:1; 
stroke-linecap:round; stroke-linejoin:round;fill-rule:evenodd;"
d="M 61274,32973
61336,32979
61455,33015
61455,33015
61564,33073
61564,33073
61564,33073
61660,33152
61739,33248
61797,33357
61833,33476
61845,33599
61833,33723
61797,33842
61797,33842
61739,33951
61660,34047
61564,34126
61455,34184
61455,34184
61336,34220
61274,34226
61243,34229
61182,34229
61151,34226
61089,34220
60970,34184
60970,34184
60861,34126
60765,34047
60686,33951
60628,33842
60628,33842
60592,33723
60579,33599
60592,33476
60628,33357
60686,33248
60765,33152
60861,33073
60861,33073
60861,33073
60970,33015
60970,33015
61089,32979
61151,32973
61182,32970
61243,32970
61274,32973
Z" /> 
<path style="fill:#000000; fill-opacity:1.0; 
stroke:#000000; stroke-width:0; stroke-opacity:1; 
stroke-linecap:round; stroke-linejoin:round;fill-rule:evenodd;"
d="M 63274,32973
63336,32979
63455,33015
63455,33015
63564,33073
63564,33073
63564,33073
63660,33152
63739,33248
63797,33357
63833,33476
63845,33599
63833,33723
63797,33842
63797,33842
63739,33951
63660,34047
63564,34126
63455,34184
63455,34184
63336,34220
63274,34226
63243,34229
63182,34229
63151,34226
63089,34220
62970,34184
62970,34184
62861,34126
62765,34047
62686,33951
62628,33842
62628,33842
62592,33723
62579,33599
62592,33476
62628,33357
62686,33248
62765,33152
62861,33073
62861,33073
62861,33073
62970,33015
62970,33015
63089,32979
63151,32973
63182,32970
63243,32970
63274,32973
Z" /> 
<path style="fill:#000000; fill-opacity:1.0; 
stroke:#000000; stroke-width:0; stroke-opacity:1; 
stroke-linecap:round; stroke-linejoin:round;fill-rule:evenodd;"
d="M 65274,32973
65336,32979
65455,33015
65455,33015
65564,33073
65564,33073
65564,33073
65660,33152
65739,33248
65797,33357
65833,33476
65845,33599
65833,33723
65797,33842
65797,33842
65739,33951
65660,34047
65564,34126
65455,34184
65455,34184
65336,34220
65274,34226
65243,34229
65182,34229
65151,34226
65089,34220
64970,34184
64970,34184
64861,34126
64765,34047
64686,33951
64628,33842
64628,33842
64592,33723
64579,33599
64592,33476
64628,33357
64686,33248
64765,33152
64861,33073
64861,33073
64861,33073
64970,33015
64970,33015
65089,32979
65151,32973
65182,32970
65243,32970
65274,32973
Z" /> 
<path style="fill:#000000; fill-opacity:1.0; 
stroke:#000000; stroke-width:0; stroke-opacity:1; 
stroke-linecap:round; stroke-linejoin:round;fill-rule:evenodd;"
d="M 67274,32973
67336,32979
67455,33015
67455,33015
67564,33073
67564,33073
67564,33073
67660,33152
67739,33248
67797,33357
67833,33476
67845,33599
67833,33723
67797,33842
67797,33842
67739,33951
67660,34047
67564,34126
67455,34184
67455,34184
67336,34220
67274,34226
67243,34229
67182,34229
67151,34226
67089,34220
66970,34184
66970,34184
66861,34126
66765,34047
66686,33951
66628,33842
66628,33842
66592,33723
66579,33599
66592,33476
66628,33357
66686,33248
66765,33152
66861,33073
66861,33073
66861,33073
66970,33015
66970,33015
67089,32979
67151,32973
67182,32970
67243,32970
67274,32973
Z" /> 
<path style="fill:#000000; fill-opacity:1.0; 
stroke:#000000; stroke-width:0; stroke-opacity:1; 
stroke-linecap:round; stroke-linejoin:round;fill-rule:evenodd;"
d="M 69274,32973
69336,32979
69455,33015
69455,33015
69564,33073
69564,33073
69564,33073
69660,33152
69739,33248
69797,33357
69833,33476
69845,33599
69833,33723
69797,33842
69797,33842
69739,33951
69660,34047
69564,34126
69455,34184
69455,34184
69336,34220
69274,34226
69243,34229
69182,34229
69151,34226
69089,34220
68970,34184
68970,34184
68861,34126
68765,34047
68686,33951
68628,33842
68628,33842
68592,33723
68579,33599
68592,33476
68628,33357
68686,33248
68765,33152
68861,33073
68861,33073
68861,33073
68970,33015
68970,33015
69089,32979
69151,32973
69182,32970
69243,32970
69274,32973
Z" /> 
<path style="fill:#000000; fill-opacity:1.0; 
stroke:#000000; stroke-width:0; stroke-opacity:1; 
stroke-linecap:round; stroke-linejoin:round;fill-rule:evenodd;"
d="M 71274,32973
71336,32979
71455,33015
71455,33015
71564,33073
71564,33073
71564,33073
71660,33152
71739,33248
71797,33357
71833,33476
71845,33599
71833,33723
71797,33842
71797,33842
71739,33951
71660,34047
71564,34126
71455,34184
71455,34184
71336,34220
71274,34226
71243,34229
71182,34229
71151,34226
71089,34220
70970,34184
70970,34184
70861,34126
70765,34047
70686,33951
70628,33842
70628,33842
70592,33723
70579,33599
70592,33476
70628,33357
70686,33248
70765,33152
70861,33073
70861,33073
70861,33073
70970,33015
70970,33015
71089,32979
71151,32973
71182,32970
71243,32970
71274,32973
Z" /> 
<path style="fill:#000000; fill-opacity:1.0; 
stroke:#000000; stroke-width:0; stroke-opacity:1; 
stroke-linecap:round; stroke-linejoin:round;fill-rule:evenodd;"
d="M 55873,30232
55924,30242
56067,30302
56196,30388
56306,30498
56392,30626
56451,30770
56482,30922
56482,31077
56451,31229
56392,31372
56306,31501
56196,31611
56067,31697
55924,31757
55873,31767
55772,31787
55617,31787
55515,31767
55465,31757
55321,31697
55192,31611
55083,31501
54997,31372
54937,31229
54907,31077
54907,30922
54937,30770
54997,30626
55083,30498
55192,30388
55321,30302
55465,30242
55515,30232
55617,30212
55772,30212
55873,30232
Z" /> 
<path style="fill:#000000; fill-opacity:1.0; 
stroke:#000000; stroke-width:0; stroke-opacity:1; 
stroke-linecap:round; stroke-linejoin:round;fill-rule:evenodd;"
d="M 60991,30232
61042,30242
61185,30302
61314,30388
61424,30498
61510,30626
61570,30770
61600,30922
61600,31077
61570,31229
61510,31372
61424,31501
61314,31611
61185,31697
61042,31757
60991,31767
60890,31787
60735,31787
60633,31767
60583,31757
60439,31697
60311,31611
60201,31501
60115,31372
60055,31229
60025,31077
60025,30922
60055,30770
60115,30626
60201,30498
60311,30388
60439,30302
60583,30242
60633,30232
60735,30212
60890,30212
60991,30232
Z" /> 
<path style="fill:#000000; fill-opacity:1.0; 
stroke:#000000; stroke-width:0; stroke-opacity:1; 
stroke-linecap:round; stroke-linejoin:round;fill-rule:evenodd;"
d="M 45279,31466
43546,31466
43546,29733
45279,29733
45279,31466
Z" /> 
<path style="fill:#000000; fill-opacity:1.0; 
stroke:#000000; stroke-width:0; stroke-opacity:1; 
stroke-linecap:round; stroke-linejoin:round;fill-rule:evenodd;"
d="M 52519,29740
52582,29746
52703,29783
52746,29795
52896,29876
53028,29984
53136,30116
53217,30266
53217,30266
53266,30430
53283,30599
53266,30769
53229,30890
53217,30933
53136,31083
53028,31215
52896,31323
52746,31404
52703,31416
52582,31453
52519,31459
52455,31466
52370,31466
52306,31459
52243,31453
52122,31416
52079,31404
51929,31323
51797,31215
51689,31083
51608,30933
51595,30890
51559,30769
51542,30599
51559,30430
51608,30266
51608,30266
51689,30116
51797,29984
51929,29876
52079,29795
52122,29783
52243,29746
52306,29740
52370,29733
52455,29733
52519,29740
Z" /> 
<path style="fill:#000000; fill-opacity:1.0; 
stroke:#000000; stroke-width:0; stroke-opacity:1; 
stroke-linecap:round; stroke-linejoin:round;fill-rule:evenodd;"
d="M 55849,26684
55924,26699
56067,26758
56196,26845
56306,26954
56392,27083
56451,27226
56482,27379
56482,27534
56451,27686
56392,27829
56306,27958
56196,28068
56067,28154
55924,28213
55873,28223
55772,28244
55617,28244
55515,28223
55465,28213
55321,28154
55192,28068
55083,27958
54997,27829
54937,27686
54907,27534
54907,27379
54937,27226
54997,27083
55083,26954
55192,26845
55321,26758
55465,26699
55539,26684
55617,26669
55772,26669
55849,26684
Z" /> 
<path style="fill:#000000; fill-opacity:1.0; 
stroke:#000000; stroke-width:0; stroke-opacity:1; 
stroke-linecap:round; stroke-linejoin:round;fill-rule:evenodd;"
d="M 60968,26684
61042,26699
61185,26758
61314,26845
61424,26954
61510,27083
61570,27226
61600,27379
61600,27534
61570,27686
61510,27829
61424,27958
61314,28068
61185,28154
61042,28213
60991,28223
60890,28244
60735,28244
60633,28223
60583,28213
60439,28154
60311,28068
60201,27958
60115,27829
60055,27686
60025,27534
60025,27379
60055,27226
60115,27083
60201,26954
60311,26845
60439,26758
60583,26699
60657,26684
60735,26669
60890,26669
60968,26684
Z" /> 
<path style="fill:#000000; fill-opacity:1.0; 
stroke:#000000; stroke-width:0; stroke-opacity:1; 
stroke-linecap:round; stroke-linejoin:round;fill-rule:evenodd;"
d="M 27853,25582
27979,25634
27979,25634
28092,25710
28188,25806
28188,25806
28263,25919
28315,26044
28341,26177
28341,26313
28315,26446
28263,26571
28263,26571
28188,26684
28092,26780
27979,26856
27979,26856
27979,26856
27853,26907
27720,26934
27585,26934
27451,26907
27326,26856
27326,26856
27326,26856
27213,26780
27117,26684
27042,26571
27042,26571
26990,26446
26963,26313
26963,26177
26990,26044
27042,25919
27117,25806
27117,25806
27213,25710
27326,25634
27326,25634
27451,25582
27585,25556
27720,25556
27853,25582
Z" /> 
<path style="fill:#000000; fill-opacity:1.0; 
stroke:#000000; stroke-width:0; stroke-opacity:1; 
stroke-linecap:round; stroke-linejoin:round;fill-rule:evenodd;"
d="M 27853,23614
27979,23666
27979,23666
28092,23741
28188,23837
28188,23837
28263,23950
28315,24076
28341,24209
28341,24344
28315,24477
28301,24510
28263,24603
28188,24716
28092,24812
27979,24887
27979,24887
27979,24887
27853,24939
27720,24965
27585,24965
27451,24939
27326,24887
27326,24887
27326,24887
27213,24812
27117,24716
27042,24603
27003,24510
26990,24477
26963,24344
26963,24209
26990,24076
27042,23950
27117,23837
27117,23837
27213,23741
27326,23666
27326,23666
27451,23614
27585,23588
27720,23588
27853,23614
Z" /> 
<path style="fill:#000000; fill-opacity:1.0; 
stroke:#000000; stroke-width:0; stroke-opacity:1; 
stroke-linecap:round; stroke-linejoin:round;fill-rule:evenodd;"
d="M 51390,24702
48635,24702
48635,21946
51390,21946
51390,24702
Z" /> 
<path style="fill:#000000; fill-opacity:1.0; 
stroke:#000000; stroke-width:0; stroke-opacity:1; 
stroke-linecap:round; stroke-linejoin:round;fill-rule:evenodd;"
d="M 42413,23237
42539,23289
42539,23289
42652,23364
42748,23460
42748,23460
42823,23573
42875,23699
42901,23832
42901,23967
42875,24100
42830,24209
42823,24226
42748,24339
42652,24435
42539,24510
42539,24510
42539,24510
42413,24562
42280,24588
42145,24588
42011,24562
41886,24510
41886,24510
41886,24510
41773,24435
41677,24339
41602,24226
41595,24209
41550,24100
41523,23967
41523,23832
41550,23699
41602,23573
41677,23460
41677,23460
41773,23364
41886,23289
41886,23289
42011,23237
42145,23210
42280,23210
42413,23237
Z" /> 
<path style="fill:#000000; fill-opacity:1.0; 
stroke:#000000; stroke-width:0; stroke-opacity:1; 
stroke-linecap:round; stroke-linejoin:round;fill-rule:evenodd;"
d="M 35021,24408
33604,24408
33604,22991
35021,22991
35021,24408
Z" /> 
<path style="fill:#000000; fill-opacity:1.0; 
stroke:#000000; stroke-width:0; stroke-opacity:1; 
stroke-linecap:round; stroke-linejoin:round;fill-rule:evenodd;"
d="M 27853,21645
27979,21697
27979,21697
28092,21773
28188,21869
28188,21869
28263,21982
28315,22107
28341,22240
28341,22376
28315,22509
28269,22620
28263,22634
28188,22747
28092,22843
27979,22919
27979,22919
27979,22919
27853,22970
27720,22997
27585,22997
27451,22970
27326,22919
27326,22919
27326,22919
27213,22843
27117,22747
27042,22634
27036,22620
26990,22509
26963,22376
26963,22240
26990,22107
27042,21982
27117,21869
27117,21869
27213,21773
27326,21697
27326,21697
27451,21645
27585,21619
27720,21619
27853,21645
Z" /> 
<path style="fill:#000000; fill-opacity:1.0; 
stroke:#000000; stroke-width:0; stroke-opacity:1; 
stroke-linecap:round; stroke-linejoin:round;fill-rule:evenodd;"
d="M 42901,22620
41523,22620
41523,21242
42901,21242
42901,22620
Z" /> 
<path style="fill:#000000; fill-opacity:1.0; 
stroke:#000000; stroke-width:0; stroke-opacity:1; 
stroke-linecap:round; stroke-linejoin:round;fill-rule:evenodd;"
d="M 34451,21001
34451,21001
34451,21001
34585,21042
34585,21042
34585,21042
34708,21107
34816,21196
34905,21304
34970,21427
35011,21561
35025,21699
35011,21838
34970,21972
34905,22095
34816,22203
34708,22292
34585,22357
34585,22357
34585,22357
34451,22398
34451,22398
34451,22398
34347,22408
34278,22408
34174,22398
34174,22398
34174,22398
34040,22357
34040,22357
34040,22357
33917,22292
33809,22203
33720,22095
33655,21972
33614,21838
33600,21699
33614,21561
33655,21427
33720,21304
33809,21196
33917,21107
34040,21042
34040,21042
34040,21042
34174,21001
34174,21001
34174,21001
34278,20991
34347,20991
34451,21001
Z" /> 
<path style="fill:#000000; fill-opacity:1.0; 
stroke:#000000; stroke-width:0; stroke-opacity:1; 
stroke-linecap:round; stroke-linejoin:round;fill-rule:evenodd;"
d="M 47690,22340
44934,22340
44934,19584
47690,19584
47690,22340
Z" /> 
<path style="fill:#000000; fill-opacity:1.0; 
stroke:#000000; stroke-width:0; stroke-opacity:1; 
stroke-linecap:round; stroke-linejoin:round;fill-rule:evenodd;"
d="M 28341,21028
26963,21028
26963,19650
28341,19650
28341,21028
Z" /> 
<path style="fill:#000000; fill-opacity:1.0; 
stroke:#000000; stroke-width:0; stroke-opacity:1; 
stroke-linecap:round; stroke-linejoin:round;fill-rule:evenodd;"
d="M 34451,19001
34451,19001
34451,19001
34585,19042
34585,19042
34585,19042
34708,19107
34816,19196
34905,19304
34970,19427
34970,19427
34970,19427
34988,19487
35011,19561
35025,19699
35011,19838
35011,19838
35011,19838
34973,19964
34970,19972
34905,20095
34816,20203
34708,20292
34585,20357
34585,20357
34585,20357
34451,20398
34451,20398
34451,20398
34347,20408
34278,20408
34174,20398
34174,20398
34174,20398
34040,20357
34040,20357
34040,20357
33917,20292
33809,20203
33720,20095
33655,19972
33652,19964
33614,19838
33614,19838
33614,19838
33600,19699
33614,19561
33636,19487
33655,19427
33655,19427
33655,19427
33720,19304
33809,19196
33917,19107
34040,19042
34040,19042
34040,19042
34174,19001
34174,19001
34174,19001
34278,18991
34347,18991
34451,19001
Z" /> 
<path style="fill:#000000; fill-opacity:1.0; 
stroke:#000000; stroke-width:0; stroke-opacity:1; 
stroke-linecap:round; stroke-linejoin:round;fill-rule:evenodd;"
d="M 87974,18253
88153,18327
88153,18327
88314,18435
88451,18572
88559,18733
88633,18912
88671,19103
88671,19296
88633,19487
88565,19650
88559,19666
88451,19827
88314,19964
88153,20072
88153,20072
88153,20072
87974,20146
87783,20184
87590,20184
87399,20146
87220,20072
87220,20072
87220,20072
87059,19964
86922,19827
86814,19666
86808,19650
86740,19487
86702,19296
86702,19103
86740,18912
86814,18733
86922,18572
87059,18435
87220,18327
87220,18327
87399,18253
87590,18215
87783,18215
87974,18253
Z" /> 
<path style="fill:#000000; fill-opacity:1.0; 
stroke:#000000; stroke-width:0; stroke-opacity:1; 
stroke-linecap:round; stroke-linejoin:round;fill-rule:evenodd;"
d="M 51390,19977
48635,19977
48635,17222
51390,17222
51390,19977
Z" /> 
<path style="fill:#000000; fill-opacity:1.0; 
stroke:#000000; stroke-width:0; stroke-opacity:1; 
stroke-linecap:round; stroke-linejoin:round;fill-rule:evenodd;"
d="M 69491,17076
69542,17086
69685,17145
69814,17231
69924,17341
70010,17470
70070,17613
70100,17765
70100,17920
70070,18072
70010,18216
69924,18345
69814,18454
69685,18541
69542,18600
69491,18610
69390,18630
69235,18630
69133,18610
69083,18600
68939,18541
68811,18454
68701,18345
68615,18216
68555,18072
68525,17920
68525,17765
68555,17613
68615,17470
68701,17341
68811,17231
68939,17145
69083,17086
69133,17076
69235,17055
69390,17055
69491,17076
Z" /> 
<path style="fill:#000000; fill-opacity:1.0; 
stroke:#000000; stroke-width:0; stroke-opacity:1; 
stroke-linecap:round; stroke-linejoin:round;fill-rule:evenodd;"
d="M 74610,17076
74660,17086
74804,17145
74933,17231
75042,17341
75128,17470
75188,17613
75218,17765
75218,17920
75188,18072
75128,18216
75042,18345
74933,18454
74804,18541
74660,18600
74610,18610
74508,18630
74353,18630
74252,18610
74201,18600
74058,18541
73929,18454
73819,18345
73733,18216
73673,18072
73643,17920
73643,17765
73673,17613
73733,17470
73819,17341
73929,17231
74058,17145
74201,17086
74252,17076
74353,17055
74508,17055
74610,17076
Z" /> 
<path style="fill:#000000; fill-opacity:1.0; 
stroke:#000000; stroke-width:0; stroke-opacity:1; 
stroke-linecap:round; stroke-linejoin:round;fill-rule:evenodd;"
d="M 82707,13111
83061,13258
83094,13271
83442,13504
83738,13800
83971,14148
83971,14148
84131,14535
84213,14946
84213,15365
84131,15776
84004,16082
83971,16163
83738,16511
83442,16807
83094,17040
83094,17040
83094,17040
82707,17200
82296,17281
81877,17281
81466,17200
81080,17040
81080,17040
81080,17040
80731,16807
80435,16511
80203,16163
80169,16082
80042,15776
79961,15365
79961,14946
80042,14535
80203,14148
80203,14148
80435,13800
80731,13504
81080,13271
81112,13258
81466,13111
81877,13030
82296,13030
82707,13111
Z" /> 
<path style="fill:#000000; fill-opacity:1.0; 
stroke:#000000; stroke-width:0; stroke-opacity:1; 
stroke-linecap:round; stroke-linejoin:round;fill-rule:evenodd;"
d="M 27588,13111
27943,13258
27975,13271
28324,13504
28620,13800
28800,14070
28852,14148
29013,14535
29094,14946
29094,15365
29013,15776
28886,16082
28852,16163
28620,16511
28324,16807
27975,17040
27975,17040
27975,17040
27588,17200
27178,17281
26759,17281
26348,17200
25961,17040
25961,17040
25961,17040
25613,16807
25317,16511
25084,16163
25051,16082
24924,15776
24842,15365
24842,14946
24924,14535
25084,14148
25137,14070
25317,13800
25613,13504
25961,13271
25993,13258
26348,13111
26759,13030
27178,13030
27588,13111
Z" /> 
<path style="fill:#000000; fill-opacity:1.0; 
stroke:#000000; stroke-width:0; stroke-opacity:1; 
stroke-linecap:round; stroke-linejoin:round;fill-rule:evenodd;"
d="M 69480,13530
69542,13542
69685,13602
69814,13688
69924,13798
70010,13926
70070,14070
70100,14222
70100,14377
70070,14529
70010,14672
69924,14801
69814,14911
69685,14997
69542,15057
69507,15064
69390,15087
69235,15087
69118,15064
69083,15057
68939,14997
68811,14911
68701,14801
68615,14672
68555,14529
68525,14377
68525,14222
68555,14070
68615,13926
68701,13798
68811,13688
68939,13602
69083,13542
69145,13530
69235,13512
69390,13512
69480,13530
Z" /> 
<path style="fill:#000000; fill-opacity:1.0; 
stroke:#000000; stroke-width:0; stroke-opacity:1; 
stroke-linecap:round; stroke-linejoin:round;fill-rule:evenodd;"
d="M 74598,13530
74660,13542
74804,13602
74933,13688
75042,13798
75128,13926
75188,14070
75218,14222
75218,14377
75188,14529
75128,14672
75042,14801
74933,14911
74804,14997
74660,15057
74625,15064
74508,15087
74353,15087
74236,15064
74201,15057
74058,14997
73929,14911
73819,14801
73733,14672
73673,14529
73643,14377
73643,14222
73673,14070
73733,13926
73819,13798
73929,13688
74058,13602
74201,13542
74263,13530
74353,13512
74508,13512
74598,13530
Z" /> 
</g> 
</svg>
