<?xml version="1.0" standalone="no"?>
 <!DOCTYPE svg PUBLIC "-//W3C//DTD SVG 1.1//EN" 
 "http://www.w3.org/Graphics/SVG/1.1/DTD/svg11.dtd"> 
<svg xmlns="http://www.w3.org/2000/svg" version="1.1" 
    width="29.7002cm" height="21.0007cm" viewBox="0 0 116930 82680 ">
<title>SVG Picture created as ThermocoupleLogger-B_Fab.svg date 2019/03/27 20:56:58 </title>
  <desc>Picture generated by PCBNEW </desc>
<g style="fill:#000000; fill-opacity:1;stroke:#000000; stroke-opacity:1;
stroke-linecap:round; stroke-linejoin:round; "
 transform="translate(0 0) scale(1 1)">
</g>
<g style="fill:#000000; fill-opacity:0.0; 
stroke:#000000; stroke-width:-0.000787402; stroke-opacity:1; 
stroke-linecap:round; stroke-linejoin:round;">
</g>
<g style="fill:#000000; fill-opacity:0.0; 
stroke:#000000; stroke-width:78.7402; stroke-opacity:1; 
stroke-linecap:round; stroke-linejoin:round;">
<path d="M94012 12399
L94012 72899
" />
<path d="M24012 68518
L24012 68518
" />
<path d="M24012 12399
L94012 12399
" />
<path d="M24012 72899
L94012 72899
" />
<path d="M24012 12399
L24012 72899
" />
<path d="M24012 13399
L24012 13399
" />
<path d="M24525.6 60168.5 A314.961 314.961 0.0 0 0 24840.5 60483.4 " />
<path d="M24840.5 55916.5 A314.961 314.961 0.0 0 0 24525.6 56231.5 " />
<path d="M26179 59223
L26179 57176
" />
<path d="M38935 59223.6 A1023.62 1023.62 0.0 0 0 38935 57176.3 " />
<path d="M29600.9 60949.7 A708.661 708.661 0.0 0 0 28935 60483.4 " />
<path d="M38935 59223
L26179 59223
" />
<path d="M26179 57176
L38935 57176
" />
<path d="M24525 60168
L24525 56231
" />
<path d="M24840 55916
L28959 55916
" />
<path d="M28959 60483
L24840 60483
" />
<path d="M30273.6 59223.6 A7940.27 7940.27 0.0 0 0 46021.6 57176.3 " />
<path d="M33265.7 59223.6 A4988.05 4988.05 0.0 0 0 43133.1 58039.6 " />
<path d="M36651.5 59223.6 A1812.73 1812.73 0.0 0 0 39955 58061.5 " />
<path d="M44739 64279
L43999 63599
" />
<path d="M44739 52119
L44019 52779
" />
<path d="M39955 58338.4 A1812.73 1812.73 0.0 0 0 36651.5 57176.3 " />
<path d="M43133.1 58360.3 A4988.05 4988.05 0.0 0 0 33265.7 57176.3 " />
<path d="M46021.6 59223.6 A7940.27 7940.27 0.0 0 0 30273.6 57176.3 " />
<path d="M29604.3 60955.9 A8976.81 8976.81 0.0 0 0 47124.2 58140.6 " />
<path d="M47124.2 58259.3 A8976.81 8976.81 0.0 0 0 29604.3 55444.1 " />
<path d="M28935 55916.5 A708.661 708.661 0.0 0 0 29600.9 55450.2 " />
<g >
</g>
<g >
</g>
<g >
</g>
<g >
</g>
<g >
</g>
<g >
</g>
<g >
</g>
<g >
</g>
<g >
</g>
<g >
</g>
<g >
</g>
<g >
</g>
<g >
</g>
<g >
</g>
<g >
</g>
<g >
</g>
<g >
</g>
<g >
</g>
<g >
</g>
<g >
</g>
<g >
</g>
<g >
</g>
<g >
</g>
<g >
</g>
<g >
</g>
<g >
</g>
<g >
</g>
<g >
</g>
<g >
</g>
<g >
</g>
<g >
</g>
<g >
</g>
<g >
</g>
<g >
</g>
<g >
</g>
<g >
</g>
<g >
</g>
<g >
</g>
<g >
</g>
<g >
</g>
<g >
</g>
<g >
</g>
<g >
</g>
<g >
</g>
<g >
</g>
<g >
</g>
<g >
</g>
<g >
</g>
<g >
</g>
<g >
</g>
<g >
</g>
<g >
</g>
<g >
</g>
<g >
</g>
<g >
</g>
<g >
</g>
<g >
</g>
<g >
</g>
<g >
</g>
<g >
</g>
<g >
</g>
<g >
</g>
<g >
</g>
<g >
</g>
<g >
</g>
<g >
</g>
<g >
</g>
<g >
</g>
<g >
</g>
<g >
</g>
<g >
</g>
<g >
</g>
<g >
</g>
<g >
</g>
<g >
</g>
<g >
</g>
<g >
</g>
<g >
</g>
<g >
</g>
<g >
</g>
<g >
</g>
<g >
</g>
<g >
</g>
</g>
<g style="fill:#000000; fill-opacity:0.0; 
stroke:#000000; stroke-width:118.11; stroke-opacity:1; 
stroke-linecap:round; stroke-linejoin:round;">
<path d="M39621 47907
L39508 47945
L39471 47982
L39433 48057
L39433 48169
L39471 48244
L39508 48282
L39583 48319
L39883 48319
L39883 47532
L39621 47532
L39546 47570
L39508 47607
L39471 47682
L39471 47757
L39508 47832
L39546 47870
L39621 47907
L39883 47907
" />
<path d="M38758 48319
L38758 47907
L38796 47832
L38871 47795
L39021 47795
L39096 47832
" />
<path d="M38758 48282
L38833 48319
L39021 48319
L39096 48282
L39133 48207
L39133 48132
L39096 48057
L39021 48019
L38833 48019
L38758 47982
" />
<path d="M38496 47795
L38196 47795
" />
<path d="M38383 47532
L38383 48207
L38346 48282
L38271 48319
L38196 48319
" />
<path d="M38046 47795
L37746 47795
" />
<path d="M37933 47532
L37933 48207
L37896 48282
L37821 48319
L37746 48319
" />
<path d="M37183 48282
L37258 48319
L37408 48319
L37483 48282
L37521 48207
L37521 47907
L37483 47832
L37408 47795
L37258 47795
L37183 47832
L37146 47907
L37146 47982
L37521 48057
" />
<path d="M36809 48319
L36809 47795
" />
<path d="M36809 47945
L36771 47870
L36734 47832
L36659 47795
L36584 47795
" />
<path d="M36396 47795
L36209 48319
" />
<path d="M36021 47795
L36209 48319
L36284 48507
L36321 48544
L36396 48582
" />
<g >
</g>
</g> 
</svg>
