<?xml version="1.0" standalone="no"?>
 <!DOCTYPE svg PUBLIC "-//W3C//DTD SVG 1.1//EN" 
 "http://www.w3.org/Graphics/SVG/1.1/DTD/svg11.dtd"> 
<svg xmlns="http://www.w3.org/2000/svg" version="1.1" 
    width="29.7002cm" height="21.0007cm" viewBox="0 0 116930 82680 ">
<title>SVG Picture created as ThermocoupleLogger-F_CrtYd.svg date 2019/03/27 20:56:58 </title>
  <desc>Picture generated by PCBNEW </desc>
<g style="fill:#000000; fill-opacity:1;stroke:#000000; stroke-opacity:1;
stroke-linecap:round; stroke-linejoin:round; "
 transform="translate(0 0) scale(1 1)">
</g>
<g style="fill:#000000; fill-opacity:0.0; 
stroke:#000000; stroke-width:-0.000787402; stroke-opacity:1; 
stroke-linecap:round; stroke-linejoin:round;">
</g>
<g style="fill:#000000; fill-opacity:0.0; 
stroke:#000000; stroke-width:78.7402; stroke-opacity:1; 
stroke-linecap:round; stroke-linejoin:round;">
<path d="M94012 12399
L94012 72899
" />
<path d="M24012 68518
L24012 68518
" />
<path d="M24012 12399
L94012 12399
" />
<path d="M24012 72899
L94012 72899
" />
<path d="M24012 12399
L24012 72899
" />
<path d="M24012 13399
L24012 13399
" />
</g>
<g style="fill:#000000; fill-opacity:0.0; 
stroke:#000000; stroke-width:39.3701; stroke-opacity:1; 
stroke-linecap:round; stroke-linejoin:round;">
<circle cx="87687" cy="58570" r="2165.35" /> 
<circle cx="26968.9" cy="15156" r="2322.83" /> 
<circle cx="89961.1" cy="70274.1" r="2322.83" /> 
<circle cx="26969" cy="70274.1" r="2322.83" /> 
<circle cx="82087.1" cy="15156" r="2322.83" /> 
<path d="M31975 16226
L32723 16226
" />
<path d="M31975 14573
L31975 16226
" />
<path d="M32723 14573
L31975 14573
" />
<path d="M32723 16226
L32723 16384
" />
<path d="M32723 14415
L32723 14573
" />
<path d="M32723 14415
L33628 13510
" />
<path d="M32723 16384
L33628 17289
" />
<path d="M33628 13510
L36502 13510
" />
<path d="M33628 17289
L36502 17289
" />
<path d="M36502 16226
L36502 17289
" />
<path d="M37250 16226
L36502 16226
" />
<path d="M37250 14573
L37250 16226
" />
<path d="M36502 14573
L37250 14573
" />
<path d="M36502 13510
L36502 14573
" />
<path d="M29897 28568
L29897 18017
" />
<path d="M24582 28568
L29897 28568
" />
<path d="M24582 18017
L24582 28568
" />
<path d="M29897 18017
L24582 18017
" />
<circle cx="87687" cy="19200" r="2165.35" /> 
<path d="M63000 63569
L63000 66230
" />
<path d="M61425 63569
L63000 63569
" />
<path d="M61425 66230
L61425 63569
" />
<path d="M63000 66230
L61425 66230
" />
<path d="M73425 66230
L73425 63569
" />
<path d="M75000 66230
L73425 66230
" />
<path d="M75000 63569
L75000 66230
" />
<path d="M73425 63569
L75000 63569
" />
<path d="M35000 63529
L35000 66190
" />
<path d="M33425 63529
L35000 63529
" />
<path d="M33425 66190
L33425 63529
" />
<path d="M35000 66190
L33425 66190
" />
<path d="M31465 66190
L31465 63529
" />
<path d="M33040 66190
L31465 66190
" />
<path d="M33040 63529
L33040 66190
" />
<path d="M31465 63529
L33040 63529
" />
<path d="M38425 66230
L38425 63569
" />
<path d="M40000 66230
L38425 66230
" />
<path d="M40000 63569
L40000 66230
" />
<path d="M38425 63569
L40000 63569
" />
<path d="M45425 66230
L45425 63569
" />
<path d="M47000 66230
L45425 66230
" />
<path d="M47000 63569
L47000 66230
" />
<path d="M45425 63569
L47000 63569
" />
<path d="M52425 66230
L52425 63569
" />
<path d="M54000 66230
L52425 66230
" />
<path d="M54000 63569
L54000 66230
" />
<path d="M52425 63569
L54000 63569
" />
<path d="M59425 66230
L59425 63569
" />
<path d="M61000 66230
L59425 66230
" />
<path d="M61000 63569
L61000 66230
" />
<path d="M59425 63569
L61000 63569
" />
<path d="M66425 66230
L66425 63569
" />
<path d="M68000 66230
L66425 66230
" />
<path d="M68000 63569
L68000 66230
" />
<path d="M66425 63569
L68000 63569
" />
<path d="M80425 66230
L80425 63569
" />
<path d="M82000 66230
L80425 66230
" />
<path d="M82000 63569
L82000 66230
" />
<path d="M80425 63569
L82000 63569
" />
<path d="M42000 63569
L42000 66230
" />
<path d="M40425 63569
L42000 63569
" />
<path d="M40425 66230
L40425 63569
" />
<path d="M42000 66230
L40425 66230
" />
<path d="M49000 63569
L49000 66230
" />
<path d="M47425 63569
L49000 63569
" />
<path d="M47425 66230
L47425 63569
" />
<path d="M49000 66230
L47425 66230
" />
<path d="M56000 63569
L56000 66230
" />
<path d="M54425 63569
L56000 63569
" />
<path d="M54425 66230
L54425 63569
" />
<path d="M56000 66230
L54425 66230
" />
<path d="M70000 63569
L70000 66230
" />
<path d="M68425 63569
L70000 63569
" />
<path d="M68425 66230
L68425 63569
" />
<path d="M70000 66230
L68425 66230
" />
<path d="M77000 63569
L77000 66230
" />
<path d="M75425 63569
L77000 63569
" />
<path d="M75425 66230
L75425 63569
" />
<path d="M77000 66230
L75425 66230
" />
<path d="M84000 63569
L84000 66230
" />
<path d="M82425 63569
L84000 63569
" />
<path d="M82425 66230
L82425 63569
" />
<path d="M84000 66230
L82425 66230
" />
<path d="M67081 12588
L67081 15344
" />
<path d="M67081 15344
L67868 15344
" />
<path d="M67868 15344
L67868 17510
" />
<path d="M67868 17510
L67081 17510
" />
<path d="M67081 17510
L67081 23218
" />
<path d="M67081 23218
L67868 23218
" />
<path d="M67868 23218
L67868 24793
" />
<path d="M67868 24793
L66687 24793
" />
<path d="M66687 24793
L66687 25187
" />
<path d="M66687 25187
L58813 25187
" />
<path d="M58813 25187
L58813 24203
" />
<path d="M58813 24203
L56451 24203
" />
<path d="M56451 24203
L56451 24793
" />
<path d="M56451 24793
L54679 24793
" />
<path d="M54679 24793
L54679 23218
" />
<path d="M54679 23218
L54876 23218
" />
<path d="M54876 23218
L54876 17510
" />
<path d="M54876 17510
L54089 17510
" />
<path d="M54089 17510
L54089 15344
" />
<path d="M54089 15344
L54876 15344
" />
<path d="M54876 15344
L54876 12588
" />
<path d="M26747 49244
L41235 49244
" />
<path d="M26747 43929
L26747 49244
" />
<path d="M41235 43929
L26747 43929
" />
<path d="M41235 49244
L41235 43929
" />
<path d="M74087 39217
L78930 39217
" />
<path d="M74087 32406
L74087 39217
" />
<path d="M78930 32406
L74087 32406
" />
<path d="M78930 39217
L78930 32406
" />
<path d="M75662 54959
L83379 54959
" />
<path d="M75662 40471
L75662 54959
" />
<path d="M83379 40471
L75662 40471
" />
<path d="M83379 54959
L83379 40471
" />
<path d="M36575 39625
L42449 39625
" />
<path d="M36575 35373
L42449 35373
" />
<path d="M42449 35373
L42449 39625
" />
<path d="M36575 35373
L36575 39625
" />
<path d="M36333 43808
L33892 43808
" />
<path d="M36333 43808
L36333 42391
" />
<path d="M33892 42391
L33892 43808
" />
<path d="M33892 42391
L36333 42391
" />
<path d="M73607 28450
L73607 24749
" />
<path d="M73607 24749
L75418 24749
" />
<path d="M75418 24749
L75418 28450
" />
<path d="M73607 28450
L75418 28450
" />
<path d="M32147 17566
L32147 25833
" />
<path d="M36013 17566
L32147 17566
" />
<path d="M36013 25833
L36013 17566
" />
<path d="M32147 25833
L36013 25833
" />
<path d="M31278 33064
L36947 33064
" />
<path d="M36947 33064
L36947 26135
" />
<path d="M36947 26135
L31278 26135
" />
<path d="M31278 26135
L31278 33064
" />
<path d="M34590 63185
L31835 63185
" />
<path d="M34590 63185
L34590 61807
" />
<path d="M31835 61807
L31835 63185
" />
<path d="M31835 61807
L34590 61807
" />
<path d="M66835 61807
L69590 61807
" />
<path d="M66835 61807
L66835 63185
" />
<path d="M69590 63185
L69590 61807
" />
<path d="M69590 63185
L66835 63185
" />
<path d="M62590 63185
L59835 63185
" />
<path d="M62590 63185
L62590 61807
" />
<path d="M59835 61807
L59835 63185
" />
<path d="M59835 61807
L62590 61807
" />
<path d="M38835 61807
L41590 61807
" />
<path d="M38835 61807
L38835 63185
" />
<path d="M41590 63185
L41590 61807
" />
<path d="M41590 63185
L38835 63185
" />
<path d="M48590 63185
L45835 63185
" />
<path d="M48590 63185
L48590 61807
" />
<path d="M45835 61807
L45835 63185
" />
<path d="M45835 61807
L48590 61807
" />
<path d="M52835 61807
L55590 61807
" />
<path d="M52835 61807
L52835 63185
" />
<path d="M55590 63185
L55590 61807
" />
<path d="M55590 63185
L52835 63185
" />
<path d="M76590 63185
L73835 63185
" />
<path d="M76590 63185
L76590 61807
" />
<path d="M73835 61807
L73835 63185
" />
<path d="M73835 61807
L76590 61807
" />
<path d="M80835 61807
L83590 61807
" />
<path d="M80835 61807
L80835 63185
" />
<path d="M83590 63185
L83590 61807
" />
<path d="M83590 63185
L80835 63185
" />
<path d="M36535 72144
L36535 66829
" />
<path d="M36535 66829
L29921 66829
" />
<path d="M29921 66829
L29921 72144
" />
<path d="M29921 72144
L36535 72144
" />
<path d="M36921 72144
L43535 72144
" />
<path d="M36921 66829
L36921 72144
" />
<path d="M43535 66829
L36921 66829
" />
<path d="M43535 72144
L43535 66829
" />
<path d="M43921 72144
L50535 72144
" />
<path d="M43921 66829
L43921 72144
" />
<path d="M50535 66829
L43921 66829
" />
<path d="M50535 72144
L50535 66829
" />
<path d="M57535 72144
L57535 66829
" />
<path d="M57535 66829
L50921 66829
" />
<path d="M50921 66829
L50921 72144
" />
<path d="M50921 72144
L57535 72144
" />
<path d="M57921 72144
L64535 72144
" />
<path d="M57921 66829
L57921 72144
" />
<path d="M64535 66829
L57921 66829
" />
<path d="M64535 72144
L64535 66829
" />
<path d="M71504 72144
L71504 66829
" />
<path d="M71504 66829
L64890 66829
" />
<path d="M64890 66829
L64890 72144
" />
<path d="M64890 72144
L71504 72144
" />
<path d="M71890 72144
L78504 72144
" />
<path d="M71890 66829
L71890 72144
" />
<path d="M78504 66829
L71890 66829
" />
<path d="M78504 72144
L78504 66829
" />
<path d="M85504 72144
L85504 66829
" />
<path d="M85504 66829
L78890 66829
" />
<path d="M78890 66829
L78890 72144
" />
<path d="M78890 72144
L85504 72144
" />
<path d="M26766 42871
L33459 42871
" />
<path d="M26766 39918
L26766 42871
" />
<path d="M33459 39918
L26766 39918
" />
<path d="M33459 42871
L33459 39918
" />
<path d="M40104 16461
L43521 16461
" />
<path d="M40104 16461
L40104 19138
" />
<path d="M43521 19138
L43521 16461
" />
<path d="M43521 19138
L40104 19138
" />
<path d="M54710 26275
L54513 26275
" />
<path d="M54513 26275
L54513 26472
" />
<path d="M54710 32181
L54513 32181
" />
<path d="M54513 32181
L54513 31984
" />
<path d="M61994 31984
L61994 32181
" />
<path d="M61994 32181
L61797 32181
" />
<path d="M61994 26472
L61994 26275
" />
<path d="M61994 26275
L61797 26275
" />
<path d="M61797 32181
L54710 32181
" />
<path d="M61994 26472
L61994 31984
" />
<path d="M54710 26275
L61797 26275
" />
<path d="M54513 31984
L54513 26472
" />
<path d="M38035 14314
L40790 14314
" />
<path d="M38035 14314
L38035 15692
" />
<path d="M40790 15692
L40790 14314
" />
<path d="M40790 15692
L38035 15692
" />
<path d="M68005 41322
L68005 44077
" />
<path d="M68005 41322
L66627 41322
" />
<path d="M66627 44077
L68005 44077
" />
<path d="M66627 44077
L66627 41322
" />
<path d="M37755 32910
L37755 26689
" />
<path d="M37755 32910
L42109 32910
" />
<path d="M42109 26689
L37755 26689
" />
<path d="M42109 26689
L42109 32910
" />
<path d="M33892 40641
L36333 40641
" />
<path d="M33892 40641
L33892 42058
" />
<path d="M36333 42058
L36333 40641
" />
<path d="M36333 42058
L33892 42058
" />
<path d="M33635 38307
L36390 38307
" />
<path d="M33635 38307
L33635 39685
" />
<path d="M36390 39685
L36390 38307
" />
<path d="M36390 39685
L33635 39685
" />
<path d="M36290 34885
L33535 34885
" />
<path d="M36290 34885
L36290 33507
" />
<path d="M33535 33507
L33535 34885
" />
<path d="M33535 33507
L36290 33507
" />
<path d="M75205 51322
L75205 54077
" />
<path d="M75205 51322
L73827 51322
" />
<path d="M73827 54077
L75205 54077
" />
<path d="M73827 54077
L73827 51322
" />
<path d="M52421 41979
L52421 44420
" />
<path d="M52421 41979
L51004 41979
" />
<path d="M51004 44420
L52421 44420
" />
<path d="M51004 44420
L51004 41979
" />
<path d="M53507 29261
L43349 29261
" />
<path d="M53507 31938
L53507 29261
" />
<path d="M43349 31938
L53507 31938
" />
<path d="M43349 29261
L43349 31938
" />
<path d="M29135 33707
L31890 33707
" />
<path d="M29135 33707
L29135 35085
" />
<path d="M31890 35085
L31890 33707
" />
<path d="M31890 35085
L29135 35085
" />
<path d="M38104 19020
L38104 16579
" />
<path d="M38104 19020
L39521 19020
" />
<path d="M39521 16579
L38104 16579
" />
<path d="M39521 16579
L39521 19020
" />
<path d="M68131 18827
L68131 13315
" />
<path d="M68328 13118
L75415 13118
" />
<path d="M75612 13315
L75612 18827
" />
<path d="M75415 19024
L68328 19024
" />
<path d="M75612 13118
L75415 13118
" />
<path d="M75612 13315
L75612 13118
" />
<path d="M75612 19024
L75415 19024
" />
<path d="M75612 18827
L75612 19024
" />
<path d="M68131 19024
L68131 18827
" />
<path d="M68328 19024
L68131 19024
" />
<path d="M68131 13118
L68131 13315
" />
<path d="M68328 13118
L68131 13118
" />
<path d="M54527 44477
L54527 41722
" />
<path d="M54527 44477
L55905 44477
" />
<path d="M55905 41722
L54527 41722
" />
<path d="M55905 41722
L55905 44477
" />
<circle cx="34913" cy="36451.9" r="1535.43" /> 
<path d="M43953 40466
L72457 40466
" />
<path d="M72457 40466
L72457 32749
" />
<path d="M72457 32749
L43953 32749
" />
<path d="M43953 32749
L43953 40466
" />
<path d="M66404 32120
L66404 29679
" />
<path d="M66404 32120
L67821 32120
" />
<path d="M67821 29679
L66404 29679
" />
<path d="M67821 29679
L67821 32120
" />
<path d="M62704 28120
L62704 25679
" />
<path d="M62704 28120
L64121 28120
" />
<path d="M64121 25679
L62704 25679
" />
<path d="M64121 25679
L64121 28120
" />
<path d="M70221 29679
L70221 32120
" />
<path d="M70221 29679
L68804 29679
" />
<path d="M68804 32120
L70221 32120
" />
<path d="M68804 32120
L68804 29679
" />
<path d="M29292 35691
L31733 35691
" />
<path d="M29292 35691
L29292 37108
" />
<path d="M31733 37108
L31733 35691
" />
<path d="M31733 37108
L29292 37108
" />
<path d="M56741 45104
L66111 45104
" />
<path d="M56741 40695
L56741 45104
" />
<path d="M66111 40695
L56741 40695
" />
<path d="M66111 45104
L66111 40695
" />
<path d="M72233 59334
L72233 45673
" />
<path d="M43808 59334
L72233 59334
" />
<path d="M43808 45673
L43808 59334
" />
<path d="M72233 45673
L43808 45673
" />
<path d="M44457 26222
L44457 19608
" />
<path d="M39142 26222
L44457 26222
" />
<path d="M39142 19608
L39142 26222
" />
<path d="M44457 19608
L39142 19608
" />
<path d="M70707 28450
L72518 28450
" />
<path d="M72518 24749
L72518 28450
" />
<path d="M70707 24749
L72518 24749
" />
<path d="M70707 28450
L70707 24749
" />
<path d="M67987 28450
L69798 28450
" />
<path d="M69798 24749
L69798 28450
" />
<path d="M67987 24749
L69798 24749
" />
<path d="M67987 28450
L67987 24749
" />
<path d="M46272 12300
L53753 12300
" />
<path d="M46272 19387
L46272 12300
" />
<path d="M44698 19387
L46272 19387
" />
<path d="M44698 22536
L44698 19387
" />
<path d="M46272 22536
L44698 22536
" />
<path d="M46272 24111
L46272 22536
" />
<path d="M48438 24111
L46272 24111
" />
<path d="M48438 24899
L48438 24111
" />
<path d="M51587 24899
L48438 24899
" />
<path d="M51587 24111
L51587 24899
" />
<path d="M53556 24111
L51587 24111
" />
<path d="M53753 24111
L53753 12300
" />
<path d="M53556 24111
L53753 24111
" />
<path d="M36864 23196
L38360 23196
" />
<path d="M38360 23196
L38360 20677
" />
<path d="M36864 20677
L38360 20677
" />
<path d="M36864 23196
L36864 20677
" />
<circle cx="32568.9" cy="58570" r="2165.35" /> 
<path d="M81560 38922
L80064 38922
" />
<path d="M80064 38922
L80064 36277
" />
<path d="M80064 36277
L81560 36277
" />
<path d="M81560 36277
L81560 38922
" />
<g >
</g>
<g >
</g>
<g >
</g>
<g >
</g>
<g >
</g>
<g >
</g>
<g >
</g>
<g >
</g>
<g >
</g>
<g >
</g>
<g >
</g>
<g >
</g>
<g >
</g>
<g >
</g>
<g >
</g>
<g >
</g>
<g >
</g>
<g >
</g>
<g >
</g>
<g >
</g>
<g >
</g>
<g >
</g>
<g >
</g>
<g >
</g>
<g >
</g>
<g >
</g>
<g >
</g>
<g >
</g>
<g >
</g>
<g >
</g>
<g >
</g>
<g >
</g>
<g >
</g>
<g >
</g>
<g >
</g>
<g >
</g>
<g >
</g>
<g >
</g>
<g >
</g>
<g >
</g>
<g >
</g>
<g >
</g>
<g >
</g>
<g >
</g>
<g >
</g>
<g >
</g>
<g >
</g>
<g >
</g>
<g >
</g>
<g >
</g>
<g >
</g>
<g >
</g>
<g >
</g>
<g >
</g>
<g >
</g>
<g >
</g>
<g >
</g>
<g >
</g>
<g >
</g>
<g >
</g>
<g >
</g>
<g >
</g>
<g >
</g>
<g >
</g>
<g >
</g>
<g >
</g>
<g >
</g>
<g >
</g>
<g >
</g>
<g >
</g>
<g >
</g>
<g >
</g>
<g >
</g>
<g >
</g>
<g >
</g>
<g >
</g>
<g >
</g>
<g >
</g>
<g >
</g>
<g >
</g>
<g >
</g>
<g >
</g>
<g >
</g>
<g >
</g>
</g> 
</svg>
