<?xml version="1.0" standalone="no"?>
 <!DOCTYPE svg PUBLIC "-//W3C//DTD SVG 1.1//EN" 
 "http://www.w3.org/Graphics/SVG/1.1/DTD/svg11.dtd"> 
<svg xmlns="http://www.w3.org/2000/svg" version="1.1" 
    width="29.7002cm" height="21.0007cm" viewBox="0 0 116930 82680 ">
<title>SVG Picture created as ThermocoupleLogger-F_SilkS.svg date 2019/03/28 17:00:02 </title>
  <desc>Picture generated by PCBNEW </desc>
<g style="fill:#000000; fill-opacity:1;stroke:#000000; stroke-opacity:1;
stroke-linecap:round; stroke-linejoin:round; "
 transform="translate(0 0) scale(1 1)">
</g>
<g style="fill:#000000; fill-opacity:0.0; 
stroke:#000000; stroke-width:-0.000787402; stroke-opacity:1; 
stroke-linecap:round; stroke-linejoin:round;">
</g>
<g style="fill:#000000; fill-opacity:0.0; 
stroke:#000000; stroke-width:157.48; stroke-opacity:1; 
stroke-linecap:round; stroke-linejoin:round;">
<path d="M96701 62899
L96701 67324
" />
<path d="M17901 67332
L96697 67332
" />
</g>
<g style="fill:#000000; fill-opacity:0.0; 
stroke:#000000; stroke-width:118.11; stroke-opacity:1; 
stroke-linecap:round; stroke-linejoin:round;">
<path d="M34525 41924
L34675 41924
L34750 41962
L34825 42037
L34862 42187
L34862 42449
L34825 42599
L34750 42674
L34675 42712
L34525 42712
L34450 42674
L34375 42599
L34337 42449
L34337 42187
L34375 42037
L34450 41962
L34525 41924
" />
<path d="M35200 42187
L35200 42712
" />
<path d="M35200 42262
L35237 42224
L35312 42187
L35424 42187
L35499 42224
L35537 42299
L35537 42712
" />
<path d="M36474 41887
L35799 42899
" />
<path d="M36887 41924
L37037 41924
L37112 41962
L37187 42037
L37224 42187
L37224 42449
L37187 42599
L37112 42674
L37037 42712
L36887 42712
L36812 42674
L36737 42599
L36699 42449
L36699 42187
L36737 42037
L36812 41962
L36887 41924
" />
<path d="M37449 42187
L37749 42187
" />
<path d="M37562 42712
L37562 42037
L37599 41962
L37674 41924
L37749 41924
" />
<path d="M37899 42187
L38199 42187
" />
<path d="M38012 42712
L38012 42037
L38049 41962
L38124 41924
L38199 41924
" />
</g>
<g style="fill:#000000; fill-opacity:0.0; 
stroke:#000000; stroke-width:157.48; stroke-opacity:1; 
stroke-linecap:round; stroke-linejoin:round;">
<path d="M30622 21607
L17905 21607
" />
<path d="M17901 62940
L17901 67340
" />
<path d="M83861 62900
L65621 62900
" />
<path d="M87591 62900
L96701 62900
" />
<path d="M87551 60900
L96641 60900
" />
<path d="M65621 60900
L83861 60900
" />
<path d="M61984 62909
L24624 62909
" />
<path d="M24631 60910
L61991 60910
" />
<path d="M21001 60920
L17901 60920
" />
<path d="M20971 62920
L17897 62938
" />
<path d="M20971.1 62920 A1000.2 1000.2 0.0 0 0 20993.7 60920.7 " />
<path d="M24641.1 60910 A1000 1000 0.0 0 0 24624.5 62909.9 " />
<path d="M61971.1 62910 A1000 1000 0.0 0 0 61992.4 60910.2 " />
<path d="M65621.1 60900 A1000.2 1000.2 0.0 1 0 65622.9 62900 " />
<path d="M83851.1 62900 A1000.2 1000.2 0.0 1 0 83871.1 60899.8 " />
<path d="M87541.9 60900 A1000.2 1000.2 0.0 0 0 87581.1 62900 " />
<path d="M91501.1 19540 A1000.8 1000.8 0.0 0 0 91541.1 21540.8 " />
<path d="M55281.1 21580 A1000.8 1000.8 0.0 1 0 55281.1 19580 " />
<path d="M17861 19560
L17861 19560
" />
<path d="M30621 19560
L17861 19560
" />
<path d="M34281 21580
L55281 21580
" />
<path d="M55261 19580
L34301 19580
" />
<path d="M30621.1 21600 A1020 1020 0.0 0 0 30621.1 19560 " />
<path d="M34301.1 19580 A1000.2 1000.2 0.0 1 0 34281.1 21580.2 " />
<path d="M87881 21570
L59051 21570
" />
<path d="M58901 19590
L87911 19590
" />
<path d="M58981.1 19580 A990.202 990.202 0.0 0 0 59021.1 21560 " />
<path d="M91551 21544
L96638 21552
" />
<path d="M96601 19540
L91501 19540
" />
<path d="M96601 14340
L96601 19540
" />
<path d="M87881.1 21580 A996 996 0.0 0 0 87889.2 19588 " />
<path d="M17861 14320
L96590 14324
" />
<path d="M17861 19560
L17861 14320
" />
</g>
<g style="fill:#000000; fill-opacity:0.0; 
stroke:#000000; stroke-width:236.22; stroke-opacity:1; 
stroke-linecap:round; stroke-linejoin:round;">
<path d="M20795 38874
L20795 37693
L21076 37693
L21245 37749
L21358 37861
L21414 37974
L21470 38199
L21470 38368
L21414 38593
L21358 38705
L21245 38818
L21076 38874
L20795 38874
" />
<path d="M22426 38818
L22314 38874
L22089 38874
L21976 38818
L21920 38705
L21920 38255
L21976 38143
L22089 38086
L22314 38086
L22426 38143
L22482 38255
L22482 38368
L21920 38480
" />
<path d="M22932 38818
L23045 38874
L23270 38874
L23382 38818
L23439 38705
L23439 38649
L23382 38536
L23270 38480
L23101 38480
L22989 38424
L22932 38311
L22932 38255
L22989 38143
L23101 38086
L23270 38086
L23382 38143
" />
<path d="M23945 38874
L23945 38086
" />
<path d="M23945 37693
L23888 37749
L23945 37805
L24001 37749
L23945 37693
L23945 37805
" />
<path d="M25013 38086
L25013 39043
L24957 39155
L24901 39211
L24788 39268
L24620 39268
L24507 39211
" />
<path d="M25013 38818
L24901 38874
L24676 38874
L24563 38818
L24507 38761
L24451 38649
L24451 38311
L24507 38199
L24563 38143
L24676 38086
L24901 38086
L25013 38143
" />
<path d="M25576 38086
L25576 38874
" />
<path d="M25576 38199
L25632 38143
L25744 38086
L25913 38086
L26026 38143
L26082 38255
L26082 38874
" />
<path d="M27094 38818
L26982 38874
L26757 38874
L26644 38818
L26588 38705
L26588 38255
L26644 38143
L26757 38086
L26982 38086
L27094 38143
L27151 38255
L27151 38368
L26588 38480
" />
<path d="M28163 38874
L28163 37693
" />
<path d="M28163 38818
L28050 38874
L27825 38874
L27713 38818
L27657 38761
L27601 38649
L27601 38311
L27657 38199
L27713 38143
L27825 38086
L28050 38086
L28163 38143
" />
<path d="M29513 38086
L29738 38874
L29963 38311
L30188 38874
L30413 38086
" />
<path d="M30863 38874
L30863 38086
" />
<path d="M30863 37693
L30806 37749
L30863 37805
L30919 37749
L30863 37693
L30863 37805
" />
<path d="M31256 38086
L31706 38086
" />
<path d="M31425 37693
L31425 38705
L31481 38818
L31594 38874
L31706 38874
" />
<path d="M32100 38874
L32100 37693
" />
<path d="M32606 38874
L32606 38255
L32550 38143
L32437 38086
L32269 38086
L32156 38143
L32100 38199
" />
</g>
<g style="fill:#000000; fill-opacity:0.0; 
stroke:#000000; stroke-width:157.48; stroke-opacity:1; 
stroke-linecap:round; stroke-linejoin:round;">
<path d="M65464 58396
L65393 58358
L65243 58358
L65164 58396
L65079 58471
L65032 58546
L65014 58696
L65042 58771
L65107 58846
L65178 58883
L65328 58883
L65407 58846
" />
<path d="M65351 58096
L65159 58133
L64957 58246
L64821 58433
L64761 58621
L64775 58808
L64864 58996
L65037 59108
L65220 59146
L65412 59108
L65614 58996
L65749 58808
L65810 58621
L65796 58433
L65707 58246
L65534 58133
L65351 58096
" />
<path d="M66424 58208
L66354 58771
L66303 58883
L66218 58958
L66101 58996
L66026 58996
" />
<path d="M66813 58996
L66743 58958
L66710 58921
L66682 58846
L66710 58621
L66757 58546
L66799 58508
L66879 58471
L66991 58471
L67062 58508
L67095 58546
L67123 58621
L67095 58846
L67048 58921
L67006 58958
L66926 58996
L66813 58996
" />
<path d="M67413 58996
L67512 58208
" />
<path d="M67751 58996
L67802 58583
L67774 58508
L67704 58471
L67591 58471
L67512 58508
L67470 58546
" />
<path d="M68191 58471
L68126 58996
" />
<path d="M68182 58546
L68224 58508
L68304 58471
L68416 58471
L68487 58508
L68515 58583
L68463 58996
" />
<path d="M69438 58996
L69536 58208
L69836 58208
L69907 58246
L69940 58283
L69968 58358
L69954 58471
L69907 58546
L69865 58583
L69785 58621
L69485 58621
" />
<path d="M70563 58996
L70614 58583
L70586 58508
L70516 58471
L70366 58471
L70286 58508
" />
<path d="M70568 58958
L70488 58996
L70300 58996
L70230 58958
L70202 58883
L70211 58808
L70258 58733
L70338 58696
L70525 58696
L70605 58658
" />
<path d="M70891 58471
L71191 58471
" />
<path d="M71036 58208
L70952 58883
L70980 58958
L71050 58996
L71125 58996
" />
<path d="M71692 58958
L71613 58996
L71463 58996
L71392 58958
L71364 58883
L71402 58583
L71449 58508
L71528 58471
L71678 58471
L71749 58508
L71777 58583
L71767 58658
L71383 58733
" />
<path d="M72063 58996
L72128 58471
" />
<path d="M72119 58546
L72161 58508
L72241 58471
L72353 58471
L72424 58508
L72452 58583
L72400 58996
" />
<path d="M72452 58583
L72499 58508
L72578 58471
L72691 58471
L72761 58508
L72789 58583
L72738 58996
" />
<path d="M73450 58996
L73502 58583
L73473 58508
L73403 58471
L73253 58471
L73174 58508
" />
<path d="M73455 58958
L73375 58996
L73188 58996
L73117 58958
L73089 58883
L73099 58808
L73145 58733
L73225 58696
L73413 58696
L73492 58658
" />
<path d="M73891 58471
L73825 58996
" />
<path d="M73881 58546
L73923 58508
L74003 58471
L74116 58471
L74186 58508
L74214 58583
L74162 58996
" />
<path d="M74580 58958
L74575 58996
L74528 59071
L74486 59108
" />
<path d="M75836 58208
L75765 58771
L75714 58883
L75629 58958
L75512 58996
L75437 58996
" />
<path d="M76112 58996
L76211 58208
L76511 58208
L76581 58246
L76614 58283
L76642 58358
L76628 58471
L76581 58546
L76539 58583
L76459 58621
L76159 58621
" />
<path d="M77551 58583
L77814 58583
" />
<path d="M77874 58996
L77500 58996
L77598 58208
L77973 58208
" />
<path d="M78278 58471
L78212 58996
" />
<path d="M78268 58546
L78310 58508
L78390 58471
L78503 58471
L78573 58508
L78601 58583
L78549 58996
" />
<path d="M78877 58471
L79177 58471
" />
<path d="M79023 58208
L78938 58883
L78967 58958
L79037 58996
L79112 58996
" />
<path d="M79679 58958
L79599 58996
L79449 58996
L79379 58958
L79351 58883
L79388 58583
L79435 58508
L79515 58471
L79665 58471
L79735 58508
L79763 58583
L79754 58658
L79370 58733
" />
<path d="M80049 58996
L80115 58471
" />
<path d="M80096 58621
L80143 58546
L80185 58508
L80265 58471
L80340 58471
" />
<path d="M80602 58471
L80504 59258
" />
<path d="M80598 58508
L80677 58471
L80827 58471
L80898 58508
L80930 58546
L80958 58621
L80930 58846
L80883 58921
L80841 58958
L80762 58996
L80612 58996
L80541 58958
" />
<path d="M81249 58996
L81315 58471
" />
<path d="M81296 58621
L81343 58546
L81385 58508
L81465 58471
L81540 58471
" />
<path d="M81737 58996
L81802 58471
" />
<path d="M81835 58208
L81793 58246
L81826 58283
L81868 58246
L81835 58208
L81826 58283
" />
<path d="M82079 58958
L82149 58996
L82299 58996
L82379 58958
L82425 58883
L82430 58846
L82402 58771
L82332 58733
L82219 58733
L82149 58696
L82121 58621
L82126 58583
L82172 58508
L82252 58471
L82365 58471
L82435 58508
" />
<path d="M83054 58958
L82974 58996
L82824 58996
L82754 58958
L82725 58883
L82763 58583
L82810 58508
L82889 58471
L83039 58471
L83110 58508
L83138 58583
L83129 58658
L82744 58733
" />
<path d="M83391 58958
L83461 58996
L83611 58996
L83691 58958
L83738 58883
L83743 58846
L83714 58771
L83644 58733
L83532 58733
L83461 58696
L83433 58621
L83438 58583
L83485 58508
L83564 58471
L83677 58471
L83747 58508
" />
</g>
<g style="fill:#000000; fill-opacity:0.0; 
stroke:#000000; stroke-width:236.22; stroke-opacity:1; 
stroke-linecap:round; stroke-linejoin:round;">
<path d="M44710 55193
L45385 55193
" />
<path d="M45048 56374
L45048 55193
" />
<path d="M46454 56261
L46397 56318
L46229 56374
L46116 56374
L45948 56318
L45835 56205
L45779 56093
L45723 55868
L45723 55699
L45779 55474
L45835 55361
L45948 55249
L46116 55193
L46229 55193
L46397 55249
L46454 55305
" />
<path d="M47129 55699
L47016 55643
L46960 55586
L46904 55474
L46904 55418
L46960 55305
L47016 55249
L47129 55193
L47354 55193
L47466 55249
L47522 55305
L47579 55418
L47579 55474
L47522 55586
L47466 55643
L47354 55699
L47129 55699
L47016 55755
L46960 55811
L46904 55924
L46904 56149
L46960 56261
L47016 56318
L47129 56374
L47354 56374
L47466 56318
L47522 56261
L47579 56149
L47579 55924
L47522 55811
L47466 55755
L47354 55699
" />
<path d="M37210 55193
L37885 55193
" />
<path d="M37548 56374
L37548 55193
" />
<path d="M38954 56261
L38897 56318
L38729 56374
L38616 56374
L38448 56318
L38335 56205
L38279 56093
L38223 55868
L38223 55699
L38279 55474
L38335 55361
L38448 55249
L38616 55193
L38729 55193
L38897 55249
L38954 55305
" />
<path d="M39347 55193
L40135 55193
L39629 56374
" />
<path d="M29710 55193
L30385 55193
" />
<path d="M30048 56374
L30048 55193
" />
<path d="M31454 56261
L31397 56318
L31229 56374
L31116 56374
L30948 56318
L30835 56205
L30779 56093
L30723 55868
L30723 55699
L30779 55474
L30835 55361
L30948 55249
L31116 55193
L31229 55193
L31397 55249
L31454 55305
" />
<path d="M32466 55193
L32241 55193
L32129 55249
L32072 55305
L31960 55474
L31904 55699
L31904 56149
L31960 56261
L32016 56318
L32129 56374
L32354 56374
L32466 56318
L32522 56261
L32579 56149
L32579 55868
L32522 55755
L32466 55699
L32354 55643
L32129 55643
L32016 55699
L31960 55755
L31904 55868
" />
<path d="M23210 55193
L23885 55193
" />
<path d="M23548 56374
L23548 55193
" />
<path d="M24954 56261
L24897 56318
L24729 56374
L24616 56374
L24448 56318
L24335 56205
L24279 56093
L24223 55868
L24223 55699
L24279 55474
L24335 55361
L24448 55249
L24616 55193
L24729 55193
L24897 55249
L24954 55305
" />
<path d="M26022 55193
L25460 55193
L25404 55755
L25460 55699
L25572 55643
L25854 55643
L25966 55699
L26022 55755
L26079 55868
L26079 56149
L26022 56261
L25966 56318
L25854 56374
L25572 56374
L25460 56318
L25404 56261
" />
<path d="M88210 54693
L88885 54693
" />
<path d="M88548 55874
L88548 54693
" />
<path d="M89954 55761
L89897 55818
L89729 55874
L89616 55874
L89448 55818
L89335 55705
L89279 55593
L89223 55368
L89223 55199
L89279 54974
L89335 54861
L89448 54749
L89616 54693
L89729 54693
L89897 54749
L89954 54805
" />
<path d="M90966 55086
L90966 55874
" />
<path d="M90685 54636
L90404 55480
L91135 55480
" />
<path d="M81210 54693
L81885 54693
" />
<path d="M81548 55874
L81548 54693
" />
<path d="M82954 55761
L82897 55818
L82729 55874
L82616 55874
L82448 55818
L82335 55705
L82279 55593
L82223 55368
L82223 55199
L82279 54974
L82335 54861
L82448 54749
L82616 54693
L82729 54693
L82897 54749
L82954 54805
" />
<path d="M83347 54693
L84079 54693
L83685 55143
L83854 55143
L83966 55199
L84022 55255
L84079 55368
L84079 55649
L84022 55761
L83966 55818
L83854 55874
L83516 55874
L83404 55818
L83347 55761
" />
<path d="M74210 54693
L74885 54693
" />
<path d="M74548 55874
L74548 54693
" />
<path d="M75954 55761
L75897 55818
L75729 55874
L75616 55874
L75448 55818
L75335 55705
L75279 55593
L75223 55368
L75223 55199
L75279 54974
L75335 54861
L75448 54749
L75616 54693
L75729 54693
L75897 54749
L75954 54805
" />
<path d="M76404 54805
L76460 54749
L76572 54693
L76854 54693
L76966 54749
L77022 54805
L77079 54918
L77079 55030
L77022 55199
L76347 55874
L77079 55874
" />
<path d="M66610 54533
L67285 54533
" />
<path d="M66948 55714
L66948 54533
" />
<path d="M68354 55601
L68297 55658
L68129 55714
L68016 55714
L67848 55658
L67735 55545
L67679 55433
L67623 55208
L67623 55039
L67679 54814
L67735 54701
L67848 54589
L68016 54533
L68129 54533
L68297 54589
L68354 54645
" />
<path d="M69479 55714
L68804 55714
" />
<path d="M69141 55714
L69141 54533
L69029 54701
L68916 54814
L68804 54870
" />
<path d="M26231 58359
L26118 58303
L26062 58246
L26006 58134
L26006 58078
L26062 57965
L26118 57909
L26231 57853
L26456 57853
L26568 57909
L26624 57965
L26681 58078
L26681 58134
L26624 58246
L26568 58303
L26456 58359
L26231 58359
L26118 58415
L26062 58471
L26006 58584
L26006 58809
L26062 58921
L26118 58978
L26231 59034
L26456 59034
L26568 58978
L26624 58921
L26681 58809
L26681 58584
L26624 58471
L26568 58415
L26456 58359
" />
<path d="M27187 58584
L28087 58584
" />
<path d="M29324 58921
L29268 58978
L29099 59034
L28987 59034
L28818 58978
L28705 58865
L28649 58753
L28593 58528
L28593 58359
L28649 58134
L28705 58021
L28818 57909
L28987 57853
L29099 57853
L29268 57909
L29324 57965
" />
<path d="M29830 59034
L29830 57853
" />
<path d="M30337 59034
L30337 58415
L30280 58303
L30168 58246
L29999 58246
L29887 58303
L29830 58359
" />
<path d="M31405 59034
L31405 58415
L31349 58303
L31236 58246
L31011 58246
L30899 58303
" />
<path d="M31405 58978
L31293 59034
L31011 59034
L30899 58978
L30843 58865
L30843 58753
L30899 58640
L31011 58584
L31293 58584
L31405 58528
" />
<path d="M31968 58246
L31968 59034
" />
<path d="M31968 58359
L32024 58303
L32136 58246
L32305 58246
L32417 58303
L32474 58415
L32474 59034
" />
<path d="M33036 58246
L33036 59034
" />
<path d="M33036 58359
L33092 58303
L33205 58246
L33374 58246
L33486 58303
L33542 58415
L33542 59034
" />
<path d="M34555 58978
L34442 59034
L34217 59034
L34105 58978
L34049 58865
L34049 58415
L34105 58303
L34217 58246
L34442 58246
L34555 58303
L34611 58415
L34611 58528
L34049 58640
" />
<path d="M35286 59034
L35173 58978
L35117 58865
L35117 57853
" />
<path d="M36467 57853
L37142 57853
" />
<path d="M36804 59034
L36804 57853
" />
<path d="M37536 59034
L37536 57853
" />
<path d="M38042 59034
L38042 58415
L37986 58303
L37873 58246
L37704 58246
L37592 58303
L37536 58359
" />
<path d="M39054 58978
L38942 59034
L38717 59034
L38604 58978
L38548 58865
L38548 58415
L38604 58303
L38717 58246
L38942 58246
L39054 58303
L39110 58415
L39110 58528
L38548 58640
" />
<path d="M39617 59034
L39617 58246
" />
<path d="M39617 58471
L39673 58359
L39729 58303
L39842 58246
L39954 58246
" />
<path d="M40348 59034
L40348 58246
" />
<path d="M40348 58359
L40404 58303
L40516 58246
L40685 58246
L40798 58303
L40854 58415
L40854 59034
" />
<path d="M40854 58415
L40910 58303
L41023 58246
L41191 58246
L41304 58303
L41360 58415
L41360 59034
" />
<path d="M42091 59034
L41979 58978
L41923 58921
L41866 58809
L41866 58471
L41923 58359
L41979 58303
L42091 58246
L42260 58246
L42373 58303
L42429 58359
L42485 58471
L42485 58809
L42429 58921
L42373 58978
L42260 59034
L42091 59034
" />
<path d="M43497 58978
L43385 59034
L43160 59034
L43047 58978
L42991 58921
L42935 58809
L42935 58471
L42991 58359
L43047 58303
L43160 58246
L43385 58246
L43497 58303
" />
<path d="M44172 59034
L44060 58978
L44004 58921
L43947 58809
L43947 58471
L44004 58359
L44060 58303
L44172 58246
L44341 58246
L44453 58303
L44510 58359
L44566 58471
L44566 58809
L44510 58921
L44453 58978
L44341 59034
L44172 59034
" />
<path d="M45578 58246
L45578 59034
" />
<path d="M45072 58246
L45072 58865
L45128 58978
L45241 59034
L45410 59034
L45522 58978
L45578 58921
" />
<path d="M46141 58246
L46141 59428
" />
<path d="M46141 58303
L46253 58246
L46478 58246
L46591 58303
L46647 58359
L46703 58471
L46703 58809
L46647 58921
L46591 58978
L46478 59034
L46253 59034
L46141 58978
" />
<path d="M47378 59034
L47266 58978
L47209 58865
L47209 57853
" />
<path d="M48278 58978
L48166 59034
L47941 59034
L47828 58978
L47772 58865
L47772 58415
L47828 58303
L47941 58246
L48166 58246
L48278 58303
L48334 58415
L48334 58528
L47772 58640
" />
<path d="M49740 59034
L49740 57853
L50022 57853
L50190 57909
L50303 58021
L50359 58134
L50415 58359
L50415 58528
L50359 58753
L50303 58865
L50190 58978
L50022 59034
L49740 59034
" />
<path d="M51428 59034
L51428 58415
L51371 58303
L51259 58246
L51034 58246
L50921 58303
" />
<path d="M51428 58978
L51315 59034
L51034 59034
L50921 58978
L50865 58865
L50865 58753
L50921 58640
L51034 58584
L51315 58584
L51428 58528
" />
<path d="M51821 58246
L52271 58246
" />
<path d="M51990 57853
L51990 58865
L52046 58978
L52159 59034
L52271 59034
" />
<path d="M53171 59034
L53171 58415
L53115 58303
L53002 58246
L52777 58246
L52665 58303
" />
<path d="M53171 58978
L53059 59034
L52777 59034
L52665 58978
L52609 58865
L52609 58753
L52665 58640
L52777 58584
L53059 58584
L53171 58528
" />
<path d="M53902 59034
L53790 58978
L53734 58865
L53734 57853
" />
<path d="M54521 59034
L54409 58978
L54352 58921
L54296 58809
L54296 58471
L54352 58359
L54409 58303
L54521 58246
L54690 58246
L54802 58303
L54858 58359
L54915 58471
L54915 58809
L54858 58921
L54802 58978
L54690 59034
L54521 59034
" />
<path d="M55927 58246
L55927 59203
L55871 59315
L55815 59371
L55702 59428
L55533 59428
L55421 59371
" />
<path d="M55927 58978
L55815 59034
L55590 59034
L55477 58978
L55421 58921
L55365 58809
L55365 58471
L55421 58359
L55477 58303
L55590 58246
L55815 58246
L55927 58303
" />
<path d="M56996 58246
L56996 59203
L56939 59315
L56883 59371
L56771 59428
L56602 59428
L56489 59371
" />
<path d="M56996 58978
L56883 59034
L56658 59034
L56546 58978
L56489 58921
L56433 58809
L56433 58471
L56489 58359
L56546 58303
L56658 58246
L56883 58246
L56996 58303
" />
<path d="M58008 58978
L57896 59034
L57671 59034
L57558 58978
L57502 58865
L57502 58415
L57558 58303
L57671 58246
L57896 58246
L58008 58303
L58064 58415
L58064 58528
L57502 58640
" />
<path d="M58570 59034
L58570 58246
" />
<path d="M58570 58471
L58627 58359
L58683 58303
L58795 58246
L58908 58246
" />
</g>
<g style="fill:#000000; fill-opacity:0.0; 
stroke:#000000; stroke-width:118.11; stroke-opacity:1; 
stroke-linecap:round; stroke-linejoin:round;">
<path d="M40052 42598
L40165 42636
L40352 42636
L40427 42598
L40465 42561
L40502 42486
L40502 42411
L40465 42336
L40427 42298
L40352 42261
L40202 42223
L40127 42186
L40090 42148
L40052 42073
L40052 41998
L40090 41923
L40127 41886
L40202 41848
L40390 41848
L40502 41886
" />
<path d="M41139 42598
L41064 42636
L40914 42636
L40839 42598
L40802 42523
L40802 42223
L40839 42148
L40914 42111
L41064 42111
L41139 42148
L41177 42223
L41177 42298
L40802 42373
" />
<path d="M41627 42636
L41552 42598
L41514 42523
L41514 41848
" />
<path d="M42227 42598
L42152 42636
L42002 42636
L41927 42598
L41889 42523
L41889 42223
L41927 42148
L42002 42111
L42152 42111
L42227 42148
L42264 42223
L42264 42298
L41889 42373
" />
<path d="M42939 42598
L42864 42636
L42714 42636
L42639 42598
L42602 42561
L42564 42486
L42564 42261
L42602 42186
L42639 42148
L42714 42111
L42864 42111
L42939 42148
" />
<path d="M43164 42111
L43464 42111
" />
<path d="M43277 41848
L43277 42523
L43314 42598
L43389 42636
L43464 42636
" />
<path d="M34277 41538
L34390 41576
L34577 41576
L34652 41538
L34690 41501
L34727 41426
L34727 41351
L34690 41276
L34652 41238
L34577 41201
L34427 41163
L34352 41126
L34315 41088
L34277 41013
L34277 40938
L34315 40863
L34352 40826
L34427 40788
L34615 40788
L34727 40826
" />
<path d="M34990 41051
L35139 41576
L35289 41201
L35439 41576
L35589 41051
" />
<path d="M35889 41576
L35889 41051
" />
<path d="M35889 40788
L35852 40826
L35889 40863
L35927 40826
L35889 40788
L35889 40863
" />
<path d="M36152 41051
L36452 41051
" />
<path d="M36264 40788
L36264 41463
L36302 41538
L36377 41576
L36452 41576
" />
<path d="M37052 41538
L36977 41576
L36827 41576
L36752 41538
L36714 41501
L36677 41426
L36677 41201
L36714 41126
L36752 41088
L36827 41051
L36977 41051
L37052 41088
" />
<path d="M37389 41576
L37389 40788
" />
<path d="M37727 41576
L37727 41163
L37689 41088
L37614 41051
L37502 41051
L37427 41088
L37389 41126
" />
<path d="M70870 23596
L70870 22808
L71057 22808
L71170 22846
L71245 22921
L71282 22996
L71320 23146
L71320 23258
L71282 23408
L71245 23483
L71170 23558
L71057 23596
L70870 23596
" />
<path d="M71657 23596
L71657 23071
" />
<path d="M71657 22808
L71620 22846
L71657 22883
L71695 22846
L71657 22808
L71657 22883
" />
<path d="M71994 23558
L72069 23596
L72219 23596
L72294 23558
L72332 23483
L72332 23446
L72294 23371
L72219 23333
L72107 23333
L72032 23296
L71994 23221
L71994 23183
L72032 23108
L72107 23071
L72219 23071
L72294 23108
" />
<path d="M72669 23071
L72669 23858
" />
<path d="M72669 23108
L72744 23071
L72894 23071
L72969 23108
L73007 23146
L73044 23221
L73044 23446
L73007 23521
L72969 23558
L72894 23596
L72744 23596
L72669 23558
" />
<path d="M73494 23596
L73419 23558
L73382 23483
L73382 22808
" />
<path d="M74132 23596
L74132 23183
L74094 23108
L74019 23071
L73869 23071
L73794 23108
" />
<path d="M74132 23558
L74057 23596
L73869 23596
L73794 23558
L73757 23483
L73757 23408
L73794 23333
L73869 23296
L74057 23296
L74132 23258
" />
<path d="M74432 23071
L74619 23596
" />
<path d="M74807 23071
L74619 23596
L74544 23783
L74507 23821
L74432 23858
" />
<path d="M69745 45258
L69857 45296
L70045 45296
L70120 45258
L70157 45221
L70195 45146
L70195 45071
L70157 44996
L70120 44958
L70045 44921
L69895 44883
L69820 44846
L69782 44808
L69745 44733
L69745 44658
L69782 44583
L69820 44546
L69895 44508
L70082 44508
L70195 44546
" />
<path d="M70832 45258
L70757 45296
L70607 45296
L70532 45258
L70494 45183
L70494 44883
L70532 44808
L70607 44771
L70757 44771
L70832 44808
L70869 44883
L70869 44958
L70494 45033
" />
<path d="M71207 45296
L71207 44771
" />
<path d="M71207 44921
L71244 44846
L71282 44808
L71357 44771
L71432 44771
" />
<path d="M71694 45296
L71694 44771
" />
<path d="M71694 44508
L71657 44546
L71694 44583
L71732 44546
L71694 44508
L71694 44583
" />
<path d="M72407 45296
L72407 44883
L72369 44808
L72294 44771
L72144 44771
L72069 44808
" />
<path d="M72407 45258
L72332 45296
L72144 45296
L72069 45258
L72032 45183
L72032 45108
L72069 45033
L72144 44996
L72332 44996
L72407 44958
" />
<path d="M72894 45296
L72819 45258
L72782 45183
L72782 44508
" />
<path d="M77545 44883
L77807 44883
" />
<path d="M77920 45296
L77545 45296
L77545 44508
L77920 44508
" />
<path d="M78257 44771
L78257 45296
" />
<path d="M78257 44846
L78295 44808
L78370 44771
L78482 44771
L78557 44808
L78595 44883
L78595 45296
" />
<path d="M79307 45258
L79232 45296
L79082 45296
L79007 45258
L78969 45221
L78932 45146
L78932 44921
L78969 44846
L79007 44808
L79082 44771
L79232 44771
L79307 44808
" />
<path d="M79757 45296
L79682 45258
L79644 45221
L79607 45146
L79607 44921
L79644 44846
L79682 44808
L79757 44771
L79869 44771
L79944 44808
L79982 44846
L80019 44921
L80019 45146
L79982 45221
L79944 45258
L79869 45296
L79757 45296
" />
<path d="M80694 45296
L80694 44508
" />
<path d="M80694 45258
L80619 45296
L80469 45296
L80394 45258
L80357 45221
L80319 45146
L80319 44921
L80357 44846
L80394 44808
L80469 44771
L80619 44771
L80694 44808
" />
<path d="M81369 45258
L81294 45296
L81144 45296
L81069 45258
L81032 45183
L81032 44883
L81069 44808
L81144 44771
L81294 44771
L81369 44808
L81407 44883
L81407 44958
L81032 45033
" />
<path d="M81744 45296
L81744 44771
" />
<path d="M81744 44921
L81782 44846
L81819 44808
L81894 44771
L81969 44771
" />
</g>
<g style="fill:#000000; fill-opacity:0.0; 
stroke:#000000; stroke-width:157.48; stroke-opacity:1; 
stroke-linecap:round; stroke-linejoin:round;">
<path d="M17901 60920
L17901 21610
" />
<path d="M96641 60900
L96641 21569
" />
</g>
<g style="fill:#000000; fill-opacity:0.0; 
stroke:#000000; stroke-width:94.4882; stroke-opacity:1; 
stroke-linecap:round; stroke-linejoin:round;">
<path d="M49704 23180
L49297 23180
" />
<path d="M49704 24299
L49297 24299
" />
<path d="M64142 50536
L64142 50943
" />
<path d="M65260 50536
L65260 50943
" />
<path d="M49704 24780
L49297 24780
" />
<path d="M49704 25899
L49297 25899
" />
<path d="M49297 27499
L49704 27499
" />
<path d="M49297 26380
L49704 26380
" />
<path d="M71342 50748
L71342 51156
" />
<path d="M72460 50748
L72460 51156
" />
<path d="M78542 50436
L78542 50843
" />
<path d="M79660 50436
L79660 50843
" />
<path d="M85742 50416
L85742 50823
" />
<path d="M86860 50416
L86860 50823
" />
<path d="M27551 50736
L27551 51143
" />
<path d="M28669 50736
L28669 51143
" />
<path d="M34702 50736
L34702 51143
" />
<path d="M35820 50736
L35820 51143
" />
<path d="M41951 50757
L41951 51165
" />
<path d="M43069 50757
L43069 51165
" />
<path d="M48842 51036
L48842 51443
" />
<path d="M49960 51036
L49960 51443
" />
<path d="M35820 47943
L35820 47536
" />
<path d="M34702 47943
L34702 47536
" />
<path d="M28669 47943
L28669 47536
" />
<path d="M27551 47943
L27551 47536
" />
<path d="M86860 54343
L86860 53936
" />
<path d="M85742 54343
L85742 53936
" />
<path d="M86860 47595
L86860 47188
" />
<path d="M85742 47595
L85742 47188
" />
<path d="M79660 54343
L79660 53936
" />
<path d="M78542 54343
L78542 53936
" />
<path d="M79660 47543
L79660 47136
" />
<path d="M78542 47543
L78542 47136
" />
<path d="M72460 54691
L72460 54284
" />
<path d="M71342 54691
L71342 54284
" />
<path d="M72460 47931
L72460 47523
" />
<path d="M71342 47931
L71342 47523
" />
<path d="M65260 54503
L65260 54096
" />
<path d="M64142 54503
L64142 54096
" />
<path d="M65260 47943
L65260 47536
" />
<path d="M64142 47943
L64142 47536
" />
<path d="M35820 54743
L35820 54336
" />
<path d="M34702 54743
L34702 54336
" />
<path d="M43020 47943
L43020 47536
" />
<path d="M41902 47943
L41902 47536
" />
<path d="M43020 54743
L43020 54336
" />
<path d="M41902 54743
L41902 54336
" />
<path d="M28620 54743
L28620 54336
" />
<path d="M27502 54743
L27502 54336
" />
<path d="M50620 54743
L50620 54336
" />
<path d="M49502 54743
L49502 54336
" />
<path d="M50620 47943
L50620 47536
" />
<path d="M49502 47943
L49502 47536
" />
<path d="M62504 38780
L62097 38780
" />
<path d="M62504 39899
L62097 39899
" />
<path d="M41482 30512
L41482 30020
" />
<path d="M41728 30266
L41236 30266
" />
<path d="M41047 27604
L40209 26766
" />
<path d="M41047 30275
L40209 31113
" />
<path d="M41047 30275
L41047 29774
" />
<path d="M41047 27604
L41047 28105
" />
<path d="M40209 26766
L36701 26766
" />
<path d="M40209 31113
L36701 31113
" />
<path d="M36701 31113
L36701 29774
" />
<path d="M36701 26766
L36701 28105
" />
<path d="M41482 25834
L41482 25341
" />
<path d="M41728 25588
L41236 25588
" />
<path d="M41047 22926
L40209 22088
" />
<path d="M41047 25596
L40209 26434
" />
<path d="M41047 25596
L41047 25095
" />
<path d="M41047 22926
L41047 23426
" />
<path d="M40209 22088
L36701 22088
" />
<path d="M40209 26434
L36701 26434
" />
<path d="M36701 26434
L36701 25095
" />
<path d="M36701 22088
L36701 23426
" />
<path d="M66161 39091
L66449 39379
" />
<path d="M66952 38300
L67240 38588
" />
<path d="M52020 51443
L52020 51036
" />
<path d="M50902 51443
L50902 51036
" />
<path d="M81160 36983
L81160 36576
" />
<path d="M80042 36983
L80042 36576
" />
<path d="M79160 36996
L79160 36588
" />
<path d="M78042 36996
L78042 36588
" />
<path d="M83160 36983
L83160 36576
" />
<path d="M82042 36983
L82042 36576
" />
<path d="M71323 27855
L71035 28143
" />
<path d="M72114 28645
L71826 28933
" />
<path d="M72463 29075
L72175 29363
" />
<path d="M73254 29865
L72966 30153
" />
<path d="M69753 44287
L69753 43240
" />
<path d="M70801 44287
L69753 44287
" />
<path d="M71801 44287
L71801 42192
" />
<path d="M71801 42192
L75848 42192
" />
<path d="M71801 44287
L75848 44287
" />
<path d="M75848 44287
L75848 42192
" />
<path d="M76204 25838
L76338 25705
" />
<path d="M75202 24836
L76204 25838
" />
<path d="M74200 27843
L73197 26841
" />
<path d="M72975 25059
L73420 24613
" />
<path d="M76427 27620
L75981 28066
" />
<path d="M76649 27843
L76427 27620
" />
<path d="M23668 27528
L23668 30599
" />
<path d="M22093 27528
L22093 30599
" />
<path d="M23668 27528
L22093 27528
" />
<path d="M21808 27528
L21808 30599
" />
<path d="M20233 27528
L20233 30599
" />
<path d="M21808 27528
L20233 27528
" />
<path d="M19972 34190
L19972 34313
" />
<path d="M19972 32366
L19972 32489
" />
<path d="M20381.5 34190.4 A1181.1 1181.1 0.0 0 0 22020.9 34190.3 " />
<path d="M22020.9 32489.7 A1181.1 1181.1 0.0 0 0 20381.5 32489.6 " />
<path d="M19972.8 34312.8 A1566.93 1566.93 0.0 0 0 22517.9 34189.3 " />
<path d="M22517.9 32490.7 A1566.93 1566.93 0.0 0 0 19972.8 32367.2 " />
</g>
<g style="fill:#000000; fill-opacity:0.0; 
stroke:#000000; stroke-width:78.7402; stroke-opacity:1; 
stroke-linecap:round; stroke-linejoin:round;">
<path d="M62968 46273
L61668 46273
" />
<path d="M62968 47572
L62968 46273
" />
<path d="M62968 56406
L61668 56406
" />
<path d="M62968 55107
L62968 56406
" />
<path d="M52834 46273
L54133 46273
" />
<path d="M52834 47572
L52834 46273
" />
<path d="M53739 56406
L54133 56406
" />
<path d="M52834 55501
L53739 56406
" />
<path d="M52834 55107
L52834 55501
" />
</g>
<g style="fill:#000000; fill-opacity:0.0; 
stroke:#000000; stroke-width:118.11; stroke-opacity:1; 
stroke-linecap:round; stroke-linejoin:round;">
<path d="M73586 34629
L74268 33947
" />
<path d="M69675 38791
L69842 38624
" />
<path d="M65638 34754
L65805 34587
" />
<path d="M69675 30717
L69508 30884
" />
<path d="M73711 34754
L73544 34921
" />
<path d="M69675 30717
L69842 30884
" />
<path d="M65638 34754
L65805 34921
" />
<path d="M69675 38791
L69508 38624
" />
<path d="M73711 34754
L73586 34629
" />
</g>
<g style="fill:#000000; fill-opacity:0.0; 
stroke:#000000; stroke-width:94.4882; stroke-opacity:1; 
stroke-linecap:round; stroke-linejoin:round;">
<path d="M48257 30138
L48257 28988
" />
<path d="M50745 30138
L50745 28437
" />
<path d="M50745 30138
L50012 30138
" />
<path d="M48257 30138
L48989 30138
" />
<path d="M18682 29044
L18682 29451
" />
<path d="M19800 29044
L19800 29451
" />
<path d="M30600 32306
L30600 32713
" />
<path d="M31718 32306
L31718 32713
" />
<path d="M74561 31991
L74849 32279
" />
<path d="M75352 31200
L75640 31488
" />
<path d="M83160 39783
L83160 39376
" />
<path d="M82042 39783
L82042 39376
" />
<path d="M79160 39783
L79160 39376
" />
<path d="M78042 39783
L78042 39376
" />
<path d="M81160 39783
L81160 39376
" />
<path d="M80042 39783
L80042 39376
" />
<path d="M62520 31540
L62113 31540
" />
<path d="M62520 32659
L62113 32659
" />
<path d="M62504 29780
L62097 29780
" />
<path d="M62504 30899
L62097 30899
" />
<path d="M81244 33100
L80837 33100
" />
<path d="M81244 34219
L80837 34219
" />
<path d="M86142 26136
L86142 26543
" />
<path d="M87260 26136
L87260 26543
" />
<path d="M65735 53984
L66720 53984
" />
<path d="M65735 52999
L65735 53984
" />
<path d="M70066 48354
L70066 50755
" />
<path d="M67743 48354
L70066 48354
" />
<path d="M67743 47763
L67743 48354
" />
<path d="M70066 53157
L70066 50755
" />
<path d="M67743 53157
L70066 53157
" />
<path d="M67743 53747
L67743 53157
" />
<path d="M65971 47763
L65971 49180
" />
<path d="M66562 47763
L65971 47763
" />
<path d="M66562 49180
L66562 47763
" />
<path d="M65971 49180
L66562 49180
" />
<path d="M65971 52330
L65971 53747
" />
<path d="M66562 52330
L65971 52330
" />
<path d="M66562 53747
L66562 52330
" />
<path d="M65971 53747
L66562 53747
" />
<path d="M65971 50362
L65971 51149
" />
<path d="M66562 50362
L65971 50362
" />
<path d="M66562 51149
L66562 50362
" />
<path d="M65971 51149
L66562 51149
" />
<path d="M65964 47755
L65964 53755
" />
<path d="M70664 47755
L65964 47755
" />
<path d="M70664 53755
L70664 47755
" />
<path d="M65964 53755
L70664 53755
" />
<path d="M72955 54244
L73940 54244
" />
<path d="M72955 53259
L72955 54244
" />
<path d="M77286 48614
L77286 51015
" />
<path d="M74963 48614
L77286 48614
" />
<path d="M74963 48023
L74963 48614
" />
<path d="M77286 53417
L77286 51015
" />
<path d="M74963 53417
L77286 53417
" />
<path d="M74963 54007
L74963 53417
" />
<path d="M73191 48023
L73191 49440
" />
<path d="M73782 48023
L73191 48023
" />
<path d="M73782 49440
L73782 48023
" />
<path d="M73191 49440
L73782 49440
" />
<path d="M73191 52590
L73191 54007
" />
<path d="M73782 52590
L73191 52590
" />
<path d="M73782 54007
L73782 52590
" />
<path d="M73191 54007
L73782 54007
" />
<path d="M73191 50622
L73191 51409
" />
<path d="M73782 50622
L73191 50622
" />
<path d="M73782 51409
L73782 50622
" />
<path d="M73191 51409
L73782 51409
" />
<path d="M73184 48015
L73184 54015
" />
<path d="M77884 48015
L73184 48015
" />
<path d="M77884 54015
L77884 48015
" />
<path d="M73184 54015
L77884 54015
" />
<path d="M80135 53984
L81120 53984
" />
<path d="M80135 52999
L80135 53984
" />
<path d="M84466 48354
L84466 50755
" />
<path d="M82143 48354
L84466 48354
" />
<path d="M82143 47763
L82143 48354
" />
<path d="M84466 53157
L84466 50755
" />
<path d="M82143 53157
L84466 53157
" />
<path d="M82143 53747
L82143 53157
" />
<path d="M80371 47763
L80371 49180
" />
<path d="M80962 47763
L80371 47763
" />
<path d="M80962 49180
L80962 47763
" />
<path d="M80371 49180
L80962 49180
" />
<path d="M80371 52330
L80371 53747
" />
<path d="M80962 52330
L80371 52330
" />
<path d="M80962 53747
L80962 52330
" />
<path d="M80371 53747
L80962 53747
" />
<path d="M80371 50362
L80371 51149
" />
<path d="M80962 50362
L80371 50362
" />
<path d="M80962 51149
L80962 50362
" />
<path d="M80371 51149
L80962 51149
" />
<path d="M80364 47755
L80364 53755
" />
<path d="M85064 47755
L80364 47755
" />
<path d="M85064 53755
L85064 47755
" />
<path d="M80364 53755
L85064 53755
" />
<path d="M87335 53984
L88320 53984
" />
<path d="M87335 52999
L87335 53984
" />
<path d="M91666 48354
L91666 50755
" />
<path d="M89343 48354
L91666 48354
" />
<path d="M89343 47763
L89343 48354
" />
<path d="M91666 53157
L91666 50755
" />
<path d="M89343 53157
L91666 53157
" />
<path d="M89343 53747
L89343 53157
" />
<path d="M87571 47763
L87571 49180
" />
<path d="M88162 47763
L87571 47763
" />
<path d="M88162 49180
L88162 47763
" />
<path d="M87571 49180
L88162 49180
" />
<path d="M87571 52330
L87571 53747
" />
<path d="M88162 52330
L87571 52330
" />
<path d="M88162 53747
L88162 52330
" />
<path d="M87571 53747
L88162 53747
" />
<path d="M87571 50362
L87571 51149
" />
<path d="M88162 50362
L87571 50362
" />
<path d="M88162 51149
L88162 50362
" />
<path d="M87571 51149
L88162 51149
" />
<path d="M87564 47755
L87564 53755
" />
<path d="M92264 47755
L87564 47755
" />
<path d="M92264 53755
L92264 47755
" />
<path d="M87564 53755
L92264 53755
" />
<path d="M21895 54352
L22880 54352
" />
<path d="M21895 53368
L21895 54352
" />
<path d="M26226 48722
L26226 51124
" />
<path d="M23903 48722
L26226 48722
" />
<path d="M23903 48132
L23903 48722
" />
<path d="M26226 53525
L26226 51124
" />
<path d="M23903 53525
L26226 53525
" />
<path d="M23903 54116
L23903 53525
" />
<path d="M22131 48132
L22131 49549
" />
<path d="M22722 48132
L22131 48132
" />
<path d="M22722 49549
L22722 48132
" />
<path d="M22131 49549
L22722 49549
" />
<path d="M22131 52699
L22131 54116
" />
<path d="M22722 52699
L22131 52699
" />
<path d="M22722 54116
L22722 52699
" />
<path d="M22131 54116
L22722 54116
" />
<path d="M22131 50730
L22131 51517
" />
<path d="M22722 50730
L22131 50730
" />
<path d="M22722 51517
L22722 50730
" />
<path d="M22131 51517
L22722 51517
" />
<path d="M22124 48124
L22124 54124
" />
<path d="M26824 48124
L22124 48124
" />
<path d="M26824 54124
L26824 48124
" />
<path d="M22124 54124
L26824 54124
" />
<path d="M29095 54384
L30080 54384
" />
<path d="M29095 53399
L29095 54384
" />
<path d="M33426 48754
L33426 51155
" />
<path d="M31103 48754
L33426 48754
" />
<path d="M31103 48163
L31103 48754
" />
<path d="M33426 53557
L33426 51155
" />
<path d="M31103 53557
L33426 53557
" />
<path d="M31103 54147
L31103 53557
" />
<path d="M29331 48163
L29331 49580
" />
<path d="M29922 48163
L29331 48163
" />
<path d="M29922 49580
L29922 48163
" />
<path d="M29331 49580
L29922 49580
" />
<path d="M29331 52730
L29331 54147
" />
<path d="M29922 52730
L29331 52730
" />
<path d="M29922 54147
L29922 52730
" />
<path d="M29331 54147
L29922 54147
" />
<path d="M29331 50762
L29331 51549
" />
<path d="M29922 50762
L29331 50762
" />
<path d="M29922 51549
L29922 50762
" />
<path d="M29331 51549
L29922 51549
" />
<path d="M29324 48155
L29324 54155
" />
<path d="M34024 48155
L29324 48155
" />
<path d="M34024 54155
L34024 48155
" />
<path d="M29324 54155
L34024 54155
" />
<path d="M36295 54384
L37280 54384
" />
<path d="M36295 53399
L36295 54384
" />
<path d="M40626 48754
L40626 51155
" />
<path d="M38303 48754
L40626 48754
" />
<path d="M38303 48163
L38303 48754
" />
<path d="M40626 53557
L40626 51155
" />
<path d="M38303 53557
L40626 53557
" />
<path d="M38303 54147
L38303 53557
" />
<path d="M36531 48163
L36531 49580
" />
<path d="M37122 48163
L36531 48163
" />
<path d="M37122 49580
L37122 48163
" />
<path d="M36531 49580
L37122 49580
" />
<path d="M36531 52730
L36531 54147
" />
<path d="M37122 52730
L36531 52730
" />
<path d="M37122 54147
L37122 52730
" />
<path d="M36531 54147
L37122 54147
" />
<path d="M36531 50762
L36531 51549
" />
<path d="M37122 50762
L36531 50762
" />
<path d="M37122 51549
L37122 50762
" />
<path d="M36531 51549
L37122 51549
" />
<path d="M36524 48155
L36524 54155
" />
<path d="M41224 48155
L36524 48155
" />
<path d="M41224 54155
L41224 48155
" />
<path d="M36524 54155
L41224 54155
" />
<path d="M43435 54332
L44420 54332
" />
<path d="M43435 53348
L43435 54332
" />
<path d="M47766 48702
L47766 51104
" />
<path d="M45443 48702
L47766 48702
" />
<path d="M45443 48112
L45443 48702
" />
<path d="M47766 53505
L47766 51104
" />
<path d="M45443 53505
L47766 53505
" />
<path d="M45443 54096
L45443 53505
" />
<path d="M43671 48112
L43671 49529
" />
<path d="M44262 48112
L43671 48112
" />
<path d="M44262 49529
L44262 48112
" />
<path d="M43671 49529
L44262 49529
" />
<path d="M43671 52679
L43671 54096
" />
<path d="M44262 52679
L43671 52679
" />
<path d="M44262 54096
L44262 52679
" />
<path d="M43671 54096
L44262 54096
" />
<path d="M43671 50710
L43671 51497
" />
<path d="M44262 50710
L43671 50710
" />
<path d="M44262 51497
L44262 50710
" />
<path d="M43671 51497
L44262 51497
" />
<path d="M43664 48104
L43664 54104
" />
<path d="M48364 48104
L43664 48104
" />
<path d="M48364 54104
L48364 48104
" />
<path d="M43664 54104
L48364 54104
" />
<path d="M34175 40312
L35160 40312
" />
<path d="M34175 39328
L34175 40312
" />
<path d="M38506 34682
L38506 37084
" />
<path d="M36183 34682
L38506 34682
" />
<path d="M36183 34092
L36183 34682
" />
<path d="M38506 39485
L38506 37084
" />
<path d="M36183 39485
L38506 39485
" />
<path d="M36183 40076
L36183 39485
" />
<path d="M34411 34092
L34411 35509
" />
<path d="M35002 34092
L34411 34092
" />
<path d="M35002 35509
L35002 34092
" />
<path d="M34411 35509
L35002 35509
" />
<path d="M34411 38659
L34411 40076
" />
<path d="M35002 38659
L34411 38659
" />
<path d="M35002 40076
L35002 38659
" />
<path d="M34411 40076
L35002 40076
" />
<path d="M34411 36690
L34411 37477
" />
<path d="M35002 36690
L34411 36690
" />
<path d="M35002 37477
L35002 36690
" />
<path d="M34411 37477
L35002 37477
" />
<path d="M34404 34084
L34404 40084
" />
<path d="M39104 34084
L34404 34084
" />
<path d="M39104 40084
L39104 34084
" />
<path d="M34404 40084
L39104 40084
" />
<path d="M35567 22607
L34583 22607
" />
<path d="M35567 23591
L35567 22607
" />
<path d="M31236 28237
L31236 25836
" />
<path d="M33559 28237
L31236 28237
" />
<path d="M33559 28828
L33559 28237
" />
<path d="M31236 23434
L31236 25836
" />
<path d="M33559 23434
L31236 23434
" />
<path d="M33559 22843
L33559 23434
" />
<path d="M35331 28828
L35331 27410
" />
<path d="M34740 28828
L35331 28828
" />
<path d="M34740 27410
L34740 28828
" />
<path d="M35331 27410
L34740 27410
" />
<path d="M35331 24261
L35331 22843
" />
<path d="M34740 24261
L35331 24261
" />
<path d="M34740 22843
L34740 24261
" />
<path d="M35331 22843
L34740 22843
" />
<path d="M35331 26229
L35331 25442
" />
<path d="M34740 26229
L35331 26229
" />
<path d="M34740 25442
L34740 26229
" />
<path d="M35331 25442
L34740 25442
" />
<path d="M35338 28836
L35338 22836
" />
<path d="M30638 28836
L35338 28836
" />
<path d="M30638 22836
L30638 28836
" />
<path d="M35338 22836
L30638 22836
" />
<path d="M77513 44307
L77513 43260
" />
<path d="M78561 44307
L77513 44307
" />
<path d="M79561 44307
L79561 42212
" />
<path d="M79561 42212
L87608 42212
" />
<path d="M79561 44307
L87608 44307
" />
<path d="M87608 44307
L87608 42212
" />
<path d="M63073 27187
L63073 26140
" />
<path d="M64121 27187
L63073 27187
" />
<path d="M63073 25140
L63073 23092
" />
<path d="M65121 25140
L63073 25140
" />
<path d="M65121 27187
L65121 25140
" />
<path d="M63073 23092
L69168 23092
" />
<path d="M65121 27187
L69168 27187
" />
<path d="M69168 27187
L69168 23092
" />
</g>
<g style="fill:#000000; fill-opacity:0.0; 
stroke:#000000; stroke-width:118.11; stroke-opacity:1; 
stroke-linecap:round; stroke-linejoin:round;">
<path d="M95799 40245
L95799 34458
" />
<path d="M95799 34458
L95838 33395
" />
<path d="M95838 33395
L95957 32489
" />
<path d="M95957 32489
L96114 31623
" />
<path d="M96114 31623
L96350 30796
" />
<path d="M85327 32253
L84303 32253
" />
<path d="M91783 40245
L86114 40245
" />
<path d="M93988 40245
L95799 40245
" />
<path d="M96350 30796
L96350 28670
" />
<path d="M96350 28670
L93988 28670
" />
<path d="M86114 28670
L91783 28670
" />
<path d="M85799 32607
L85799 32843
" />
<path d="M85799 32843
L86035 32843
" />
<path d="M86035 32843
L86035 32607
" />
<path d="M86035 32607
L85799 32607
" />
<path d="M85327 32253
L85327 29891
" />
<path d="M60177 31027
L60177 29826
" />
<path d="M52008 31027
L52008 37129
" />
<path d="M60394 31027
L60394 37129
" />
<path d="M52008 31027
L52287 31027
" />
<path d="M52008 37129
L52287 37129
" />
<path d="M60394 37129
L60114 37129
" />
<path d="M60394 31027
L60177 31027
" />
<path d="M60967 40511
L59864 40511
" />
<path d="M60967 44527
L64234 44527
" />
<path d="M60967 40472
L64234 40472
" />
<path d="M60967 44527
L60967 44413
" />
<path d="M64234 44527
L64234 44413
" />
<path d="M64234 40472
L64234 40586
" />
<path d="M60967 40472
L60967 40511
" />
</g>
<g style="fill:#000000; fill-opacity:0.0; 
stroke:#000000; stroke-width:94.4882; stroke-opacity:1; 
stroke-linecap:round; stroke-linejoin:round;">
<path d="M63345 34609
L63345 35759
" />
<path d="M60857 34609
L60857 36310
" />
<path d="M60857 34609
L61589 34609
" />
<path d="M63345 34609
L62612 34609
" />
<path d="M47405 28318
L47405 29184
" />
<path d="M47617 28318
L47405 28318
" />
<path d="M47617 27137
L47617 28318
" />
<path d="M42397 28318
L42397 30546
" />
<path d="M42184 28318
L42397 28318
" />
<path d="M42184 27137
L42184 28318
" />
</g>
<g style="fill:#000000; fill-opacity:0.0; 
stroke:#000000; stroke-width:157.48; stroke-opacity:1; 
stroke-linecap:round; stroke-linejoin:round;">
<path d="M29621 27769
L29621 34659
" />
<path d="M29621 34659
L29030 34659
" />
<path d="M26471 34659
L24896 34659
" />
<path d="M24896 34659
L24896 33674
" />
<path d="M24896 31312
L24896 27178
" />
<path d="M24896 27178
L24306 27178
" />
<path d="M24306 27178
L24306 26194
" />
<path d="M24306 26194
L24896 26194
" />
</g>
<g style="fill:#000000; fill-opacity:0.0; 
stroke:#000000; stroke-width:78.7402; stroke-opacity:1; 
stroke-linecap:round; stroke-linejoin:round;">
<circle cx="23715.8" cy="22848.2" r="196.85" /> 
</g>
<g style="fill:#000000; fill-opacity:0.0; 
stroke:#000000; stroke-width:94.4882; stroke-opacity:1; 
stroke-linecap:round; stroke-linejoin:round;">
<path d="M81427 25913
L80246 25913
" />
<path d="M78277 26897
L78277 30440
" />
<path d="M80246 31424
L81427 31424
" />
<path d="M83395 30440
L83395 26897
" />
<path d="M43299 34625
L42118 34625
" />
<path d="M40149 35609
L40149 39152
" />
<path d="M42118 40136
L43299 40136
" />
<path d="M45267 39152
L45267 35609
" />
<path d="M87548 22292
L87548 23340
" />
<path d="M86501 22292
L87548 22292
" />
<path d="M85501 24387
L85501 22292
" />
<path d="M75453 24387
L85501 24387
" />
<path d="M75453 22292
L75453 24387
" />
<path d="M85501 22292
L75453 22292
" />
</g>
<g style="fill:#000000; fill-opacity:1.0; 
stroke:#000000; stroke-width:7.87402; stroke-opacity:1; 
stroke-linecap:round; stroke-linejoin:round;">
<path style="fill:#000000; fill-opacity:1.0; 
stroke:#000000; stroke-width:7.87402; stroke-opacity:1; 
stroke-linecap:round; stroke-linejoin:round;fill-rule:evenodd;"
d="M 29905,41785
29906,42044
29907,42267
29909,42456
29910,42614
29912,42744
29914,42849
29917,42932
29920,42996
29924,43044
29929,43079
29934,43105
29941,43123
29946,43135
29982,43200
29341,43200
29341,43140
29338,43097
29332,43080
29332,43080
29311,43090
29270,43116
29249,43130
29144,43183
29019,43219
28886,43238
28760,43236
28681,43221
28536,43157
28406,43061
28299,42941
28251,42861
28198,42736
28164,42606
28145,42457
28141,42310
28142,42300
28772,42300
28775,42438
28786,42543
28806,42621
28837,42679
28881,42724
28906,42741
28990,42771
29089,42769
29195,42735
29214,42725
29291,42686
29296,42253
29301,41821
29249,41786
29199,41765
29128,41749
29082,41743
29013,41741
28966,41749
28927,41772
28906,41788
28853,41846
28815,41921
28789,42019
28775,42145
28772,42300
28142,42300
28154,42077
28192,41873
28254,41697
28339,41552
28448,41438
28579,41356
28733,41306
28764,41301
28855,41294
28955,41300
29055,41315
29144,41338
29213,41367
29250,41399
29267,41418
29280,41414
29289,41384
29295,41324
29299,41232
29300,41104
29301,41034
29300,40897
29299,40793
29295,40717
29290,40662
29282,40621
29270,40589
29263,40574
29225,40500
29899,40500
29905,41785
Z" /> 
<path style="fill:#000000; fill-opacity:1.0; 
stroke:#000000; stroke-width:7.87402; stroke-opacity:1; 
stroke-linecap:round; stroke-linejoin:round;fill-rule:evenodd;"
d="M 27370,41308
27508,41340
27602,41375
27675,41419
27740,41477
27782,41520
27816,41561
27843,41603
27865,41652
27881,41713
27894,41788
27903,41884
27909,42004
27914,42153
27917,42335
27919,42430
27923,42613
27926,42760
27929,42876
27933,42964
27938,43030
27943,43077
27950,43110
27959,43133
27966,43145
28002,43200
27363,43200
27351,43079
27272,43132
27149,43194
27007,43230
26858,43239
26713,43218
26687,43211
26540,43146
26422,43053
26333,42936
26276,42796
26253,42637
26252,42620
26253,42597
26826,42597
26830,42667
26838,42691
26887,42755
26962,42797
27051,42816
27145,42808
27174,42798
27243,42765
27287,42724
27311,42665
27320,42579
27321,42536
27321,42380
27190,42380
27061,42391
26952,42425
26877,42473
26843,42526
26826,42597
26253,42597
26254,42529
26265,42461
26288,42395
26307,42355
26389,42232
26503,42133
26647,42058
26823,42008
27028,41983
27138,41980
27326,41980
27315,41898
27287,41809
27230,41747
27146,41713
27036,41707
26900,41728
26761,41771
26694,41793
26643,41804
26618,41804
26618,41804
26604,41779
26580,41727
26551,41658
26520,41583
26492,41512
26471,41455
26461,41422
26461,41419
26478,41405
26512,41400
26553,41395
26621,41382
26706,41362
26767,41348
26976,41308
27180,41294
27370,41308
Z" /> 
<path style="fill:#000000; fill-opacity:1.0; 
stroke:#000000; stroke-width:7.87402; stroke-opacity:1; 
stroke-linecap:round; stroke-linejoin:round;fill-rule:evenodd;"
d="M 25730,40642
25762,40650
25818,40668
25893,40696
25977,40731
26062,40768
26136,40803
26191,40832
26216,40848
26208,40866
26183,40909
26144,40970
26098,41041
26050,41113
26003,41181
25965,41235
25939,41267
25917,41265
25875,41241
25841,41215
25727,41142
25597,41106
25472,41105
25338,41137
25224,41203
25132,41301
25062,41431
25014,41592
24988,41784
24986,42000
25003,42194
25038,42357
25094,42489
25171,42595
25271,42679
25295,42693
25356,42725
25412,42742
25481,42748
25531,42748
25656,42736
25766,42698
25871,42630
25911,42597
25953,42562
25982,42543
25988,42542
26006,42568
26036,42619
26076,42685
26121,42761
26165,42838
26206,42909
26237,42965
26255,42999
26258,43006
26238,43016
26192,43040
26131,43073
26127,43075
25999,43138
25887,43182
25775,43210
25649,43225
25531,43231
25379,43232
25259,43225
25188,43212
25005,43146
24837,43044
24688,42911
24560,42750
24456,42565
24381,42358
24377,42346
24349,42199
24334,42030
24333,41854
24345,41684
24371,41536
24378,41510
24458,41295
24570,41101
24713,40932
24884,40790
24901,40779
25041,40706
25204,40654
25381,40625
25560,40621
25730,40642
Z" /> 
<path style="fill:#000000; fill-opacity:1.0; 
stroke:#000000; stroke-width:7.87402; stroke-opacity:1; 
stroke-linecap:round; stroke-linejoin:round;fill-rule:evenodd;"
d="M 24081,40198
24098,40204
24113,40217
24125,40240
24135,40275
24143,40324
24149,40391
24153,40477
24157,40586
24159,40719
24160,40880
24161,41070
24161,41292
24161,41549
24161,41843
24161,41890
24161,42185
24160,42443
24160,42666
24159,42857
24158,43018
24157,43152
24155,43261
24153,43349
24150,43416
24147,43466
24143,43502
24139,43527
24134,43541
24129,43548
24120,43554
24105,43559
24079,43563
24041,43566
23989,43570
23919,43572
23830,43574
23718,43576
23582,43577
23419,43578
23226,43579
23000,43579
22741,43579
22444,43579
22401,43580
22098,43579
21834,43579
21604,43579
21407,43578
21240,43577
21100,43576
20985,43574
20893,43572
20821,43570
20766,43567
20727,43563
20700,43559
20682,43554
20673,43549
20672,43548
20666,43539
20661,43523
20657,43497
20653,43459
20650,43406
20648,43335
20646,43244
20644,43131
20643,42993
20642,42827
20641,42630
20641,42401
20641,42137
20641,41890
20641,41594
20641,41336
20641,41113
20642,40922
20643,40761
20644,40665
20861,40665
20869,40685
20890,40728
20901,40749
20909,40768
20917,40788
20923,40813
20928,40848
20931,40894
20935,40955
20937,41035
20938,41138
20940,41265
20940,41421
20941,41609
20941,41832
20941,41940
20940,42147
20940,42343
20938,42523
20937,42683
20934,42821
20932,42932
20929,43013
20926,43060
20924,43071
20905,43102
20885,43145
20861,43200
21276,43199
21398,43198
21504,43196
21588,43194
21645,43190
21669,43186
21668,43184
21645,43157
21617,43112
21613,43105
21602,43076
21593,43037
21587,42981
21583,42903
21581,42798
21581,42658
21581,42650
21582,42511
21584,42398
21589,42317
21595,42270
21600,42260
21623,42275
21653,42312
21655,42315
21687,42359
21714,42390
21738,42419
21769,42468
21780,42487
21813,42539
21862,42609
21918,42683
21929,42697
22015,42809
22086,42917
22140,43013
22172,43092
22181,43138
22181,43200
23068,43200
23058,43189
23181,43189
23200,43192
23252,43195
23333,43197
23435,43199
23553,43199
23561,43200
23700,43199
23803,43197
23874,43193
23918,43187
23938,43179
23940,43175
23928,43140
23910,43111
23903,43096
23897,43070
23892,43030
23888,42973
23885,42894
23883,42790
23882,42658
23881,42494
23881,42296
23881,42206
23881,41340
23200,41340
23230,41399
23238,41419
23244,41449
23250,41493
23254,41554
23256,41636
23259,41743
23260,41879
23260,42048
23261,42239
23261,42437
23260,42600
23259,42730
23258,42833
23255,42912
23252,42971
23247,43015
23241,43047
23233,43073
23223,43094
23221,43100
23196,43149
23182,43183
23181,43189
23058,43189
23019,43145
22985,43106
22962,43081
22961,43080
22915,43030
22859,42964
22800,42891
22746,42821
22705,42765
22689,42740
22657,42690
22607,42618
22546,42534
22481,42447
22418,42367
22369,42308
22321,42248
22276,42182
22273,42177
22173,42021
22097,41918
22042,41846
22107,41777
22162,41715
22233,41631
22311,41535
22388,41438
22456,41350
22479,41320
22719,41021
22907,40818
23064,40660
22634,40660
22488,40660
22378,40661
22297,40664
22243,40670
22208,40681
22190,40697
22182,40720
22181,40751
22181,40767
22168,40809
22138,40862
22124,40880
22078,40941
22028,41012
22011,41040
21977,41092
21950,41129
21941,41140
21918,41163
21879,41206
21832,41262
21783,41322
21741,41376
21711,41417
21701,41435
21687,41458
21654,41496
21641,41510
21581,41567
21581,41236
21582,41092
21586,40980
21595,40891
21609,40816
21630,40747
21650,40695
21653,40683
21646,40674
21625,40668
21584,40663
21520,40661
21426,40660
21299,40660
21263,40660
21141,40660
21034,40661
20948,40662
20888,40663
20861,40665
20861,40665
20644,40665
20644,40627
20646,40518
20648,40430
20651,40363
20654,40313
20658,40277
20662,40252
20667,40238
20672,40231
20682,40224
20699,40219
20728,40214
20769,40210
20827,40207
20905,40205
21005,40203
21130,40202
21283,40201
21467,40200
21685,40200
21940,40200
23221,40200
23221,40275
23236,40367
23278,40460
23337,40539
23379,40574
23468,40611
23571,40620
23677,40601
23774,40558
23851,40492
23863,40477
23900,40397
23917,40306
23926,40199
24012,40200
24038,40199
24061,40197
24081,40198
Z" /> 
<g >
</g>
<g >
</g>
<g >
</g>
<g >
</g>
<g >
</g>
<g >
</g>
<g >
</g>
<g >
</g>
<g >
</g>
<g >
</g>
<g >
</g>
<g >
</g>
<g >
</g>
<g >
</g>
<g >
</g>
<g >
</g>
<g >
</g>
<g >
</g>
<g >
</g>
<g >
</g>
<g >
</g>
<g >
</g>
<g >
</g>
<g >
</g>
<g >
</g>
<g >
</g>
<g >
</g>
<g >
</g>
<g >
</g>
<g >
</g>
<g >
</g>
<g >
</g>
<g >
</g>
<g >
</g>
<g >
</g>
<g >
</g>
<g >
</g>
<g >
</g>
<g >
</g>
<g >
</g>
<g >
</g>
<g >
</g>
<g >
</g>
<g >
</g>
<g >
</g>
<g >
</g>
<g >
</g>
<g >
</g>
<g >
</g>
<g >
</g>
<g >
</g>
<g >
</g>
<g >
</g>
<g >
</g>
<g >
</g>
<g >
</g>
<g >
</g>
<g >
</g>
<g >
</g>
<g >
</g>
<g >
</g>
<g >
</g>
<g >
</g>
<g >
</g>
<g >
</g>
<g >
</g>
<g >
</g>
<g >
</g>
<g >
</g>
<g >
</g>
<g >
</g>
<g >
</g>
<g >
</g>
<g >
</g>
<g >
</g>
<g >
</g>
<g >
</g>
<g >
</g>
<g >
</g>
<g >
</g>
<g >
</g>
<g >
</g>
<g >
</g>
<g >
</g>
<g >
</g>
<g >
</g>
<g >
</g>
<g >
</g>
</g>
<g style="fill:#000000; fill-opacity:0.0; 
stroke:#000000; stroke-width:7.87402; stroke-opacity:1; 
stroke-linecap:round; stroke-linejoin:round;">
</g>
<g style="fill:#000000; fill-opacity:0.0; 
stroke:#000000; stroke-width:118.11; stroke-opacity:1; 
stroke-linecap:round; stroke-linejoin:round;">
<path d="M49369 25320
L49332 25357
L49219 25395
L49144 25395
L49032 25357
L48957 25282
L48919 25207
L48882 25057
L48882 24945
L48919 24795
L48957 24720
L49032 24645
L49144 24608
L49219 24608
L49332 24645
L49369 24683
" />
<path d="M50044 24870
L50044 25395
" />
<path d="M49857 24570
L49669 25132
L50157 25132
" />
<path d="M66281 50871
L66319 50908
L66356 51021
L66356 51096
L66319 51208
L66244 51283
L66169 51321
L66019 51358
L65906 51358
L65756 51321
L65681 51283
L65606 51208
L65569 51096
L65569 51021
L65606 50908
L65644 50871
" />
<path d="M65569 50196
L65569 50346
L65606 50421
L65644 50458
L65756 50533
L65906 50571
L66206 50571
L66281 50533
L66319 50496
L66356 50421
L66356 50271
L66319 50196
L66281 50158
L66206 50121
L66019 50121
L65944 50158
L65906 50196
L65869 50271
L65869 50421
L65906 50496
L65944 50533
L66019 50571
" />
<path d="M49369 26920
L49332 26957
L49219 26995
L49144 26995
L49032 26957
L48957 26882
L48919 26807
L48882 26657
L48882 26545
L48919 26395
L48957 26320
L49032 26245
L49144 26208
L49219 26208
L49332 26245
L49369 26283
" />
<path d="M49632 26208
L50119 26208
L49857 26507
L49969 26507
L50044 26545
L50082 26582
L50119 26657
L50119 26845
L50082 26920
L50044 26957
L49969 26995
L49744 26995
L49669 26957
L49632 26920
" />
<path d="M49369 25922
L49332 25959
L49219 25996
L49144 25996
L49032 25959
L48957 25884
L48919 25809
L48882 25659
L48882 25547
L48919 25397
L48957 25322
L49032 25247
L49144 25209
L49219 25209
L49332 25247
L49369 25284
" />
<path d="M50082 25209
L49707 25209
L49669 25584
L49707 25547
L49782 25509
L49969 25509
L50044 25547
L50082 25584
L50119 25659
L50119 25847
L50082 25922
L50044 25959
L49969 25996
L49782 25996
L49707 25959
L49669 25922
" />
<path d="M73481 51083
L73519 51121
L73556 51233
L73556 51308
L73519 51421
L73444 51496
L73369 51533
L73219 51571
L73106 51571
L72956 51533
L72881 51496
L72806 51421
L72769 51308
L72769 51233
L72806 51121
L72844 51083
" />
<path d="M72769 50821
L72769 50296
L73556 50633
" />
<path d="M80681 50771
L80719 50808
L80756 50921
L80756 50996
L80719 51108
L80644 51183
L80569 51221
L80419 51258
L80306 51258
L80156 51221
L80081 51183
L80006 51108
L79969 50996
L79969 50921
L80006 50808
L80044 50771
" />
<path d="M80306 50321
L80269 50396
L80231 50433
L80156 50471
L80119 50471
L80044 50433
L80006 50396
L79969 50321
L79969 50171
L80006 50096
L80044 50058
L80119 50021
L80156 50021
L80231 50058
L80269 50096
L80306 50171
L80306 50321
L80344 50396
L80381 50433
L80456 50471
L80606 50471
L80681 50433
L80719 50396
L80756 50321
L80756 50171
L80719 50096
L80681 50058
L80606 50021
L80456 50021
L80381 50058
L80344 50096
L80306 50171
" />
<path d="M87881 50751
L87919 50788
L87956 50901
L87956 50976
L87919 51088
L87844 51163
L87769 51201
L87619 51238
L87506 51238
L87356 51201
L87281 51163
L87206 51088
L87169 50976
L87169 50901
L87206 50788
L87244 50751
" />
<path d="M87956 50376
L87956 50226
L87919 50151
L87881 50113
L87769 50038
L87619 50001
L87319 50001
L87244 50038
L87206 50076
L87169 50151
L87169 50301
L87206 50376
L87244 50413
L87319 50451
L87506 50451
L87581 50413
L87619 50376
L87656 50301
L87656 50151
L87619 50076
L87581 50038
L87506 50001
" />
<path d="M29691 51446
L29728 51483
L29766 51596
L29766 51671
L29728 51783
L29653 51858
L29578 51896
L29428 51933
L29316 51933
L29166 51896
L29091 51858
L29016 51783
L28978 51671
L28978 51596
L29016 51483
L29053 51446
" />
<path d="M29766 50696
L29766 51146
" />
<path d="M29766 50921
L28978 50921
L29091 50996
L29166 51071
L29203 51146
" />
<path d="M28978 50208
L28978 50133
L29016 50058
L29053 50021
L29128 49983
L29278 49946
L29466 49946
L29616 49983
L29691 50021
L29728 50058
L29766 50133
L29766 50208
L29728 50283
L29691 50321
L29616 50358
L29466 50396
L29278 50396
L29128 50358
L29053 50321
L29016 50283
L28978 50208
" />
<path d="M36841 51446
L36879 51483
L36916 51596
L36916 51671
L36879 51783
L36804 51858
L36729 51896
L36579 51933
L36466 51933
L36316 51896
L36241 51858
L36166 51783
L36129 51671
L36129 51596
L36166 51483
L36204 51446
" />
<path d="M36916 50696
L36916 51146
" />
<path d="M36916 50921
L36129 50921
L36241 50996
L36316 51071
L36354 51146
" />
<path d="M36916 49946
L36916 50396
" />
<path d="M36916 50171
L36129 50171
L36241 50246
L36316 50321
L36354 50396
" />
<path d="M44091 51467
L44128 51505
L44166 51617
L44166 51692
L44128 51805
L44053 51880
L43978 51917
L43828 51955
L43716 51955
L43566 51917
L43491 51880
L43416 51805
L43378 51692
L43378 51617
L43416 51505
L43453 51467
" />
<path d="M44166 50717
L44166 51167
" />
<path d="M44166 50942
L43378 50942
L43491 51017
L43566 51092
L43603 51167
" />
<path d="M43453 50417
L43416 50380
L43378 50305
L43378 50117
L43416 50042
L43453 50005
L43528 49967
L43603 49967
L43716 50005
L44166 50455
L44166 49967
" />
<path d="M50981 51746
L51019 51783
L51056 51896
L51056 51971
L51019 52083
L50944 52158
L50869 52196
L50719 52233
L50606 52233
L50456 52196
L50381 52158
L50306 52083
L50269 51971
L50269 51896
L50306 51783
L50344 51746
" />
<path d="M51056 50996
L51056 51446
" />
<path d="M51056 51221
L50269 51221
L50381 51296
L50456 51371
L50494 51446
" />
<path d="M50269 50733
L50269 50246
L50569 50508
L50569 50396
L50606 50321
L50644 50283
L50719 50246
L50906 50246
L50981 50283
L51019 50321
L51056 50396
L51056 50621
L51019 50696
L50981 50733
" />
<path d="M34318 48246
L34318 48621
L33530 48621
" />
<path d="M34318 47571
L34318 48021
" />
<path d="M34318 47796
L33530 47796
L33643 47871
L33718 47946
L33755 48021
" />
<path d="M34318 46821
L34318 47271
" />
<path d="M34318 47046
L33530 47046
L33643 47121
L33718 47196
L33755 47271
" />
<path d="M27167 47871
L27167 48246
L26380 48246
" />
<path d="M27167 47571
L27167 47421
L27130 47346
L27092 47308
L26980 47233
L26830 47196
L26530 47196
L26455 47233
L26417 47271
L26380 47346
L26380 47496
L26417 47571
L26455 47608
L26530 47646
L26717 47646
L26792 47608
L26830 47571
L26867 47496
L26867 47346
L26830 47271
L26792 47233
L26717 47196
" />
<path d="M85358 54271
L85358 54646
L84570 54646
" />
<path d="M84908 53896
L84870 53971
L84833 54008
L84758 54046
L84720 54046
L84645 54008
L84608 53971
L84570 53896
L84570 53746
L84608 53671
L84645 53633
L84720 53596
L84758 53596
L84833 53633
L84870 53671
L84908 53746
L84908 53896
L84945 53971
L84983 54008
L85058 54046
L85208 54046
L85283 54008
L85320 53971
L85358 53896
L85358 53746
L85320 53671
L85283 53633
L85208 53596
L85058 53596
L84983 53633
L84945 53671
L84908 53746
" />
<path d="M85358 47523
L85358 47898
L84570 47898
" />
<path d="M84570 47335
L84570 46810
L85358 47148
" />
<path d="M78158 54271
L78158 54646
L77370 54646
" />
<path d="M77370 53671
L77370 53821
L77408 53896
L77445 53933
L77558 54008
L77708 54046
L78008 54046
L78083 54008
L78120 53971
L78158 53896
L78158 53746
L78120 53671
L78083 53633
L78008 53596
L77820 53596
L77745 53633
L77708 53671
L77670 53746
L77670 53896
L77708 53971
L77745 54008
L77820 54046
" />
<path d="M78158 47471
L78158 47846
L77370 47846
" />
<path d="M77370 46833
L77370 47208
L77745 47246
L77708 47208
L77670 47133
L77670 46946
L77708 46871
L77745 46833
L77820 46796
L78008 46796
L78083 46833
L78120 46871
L78158 46946
L78158 47133
L78120 47208
L78083 47246
" />
<path d="M70958 54619
L70958 54994
L70170 54994
" />
<path d="M70433 54019
L70958 54019
" />
<path d="M70133 54206
L70695 54394
L70695 53906
" />
<path d="M70958 47858
L70958 48233
L70170 48233
" />
<path d="M70170 47671
L70170 47183
L70470 47446
L70470 47333
L70508 47258
L70545 47221
L70620 47183
L70808 47183
L70883 47221
L70920 47258
L70958 47333
L70958 47558
L70920 47633
L70883 47671
" />
<path d="M63758 54431
L63758 54806
L62970 54806
" />
<path d="M63045 54206
L63008 54168
L62970 54093
L62970 53906
L63008 53831
L63045 53793
L63120 53756
L63195 53756
L63308 53793
L63758 54243
L63758 53756
" />
<path d="M63758 47871
L63758 48246
L62970 48246
" />
<path d="M63758 47196
L63758 47646
" />
<path d="M63758 47421
L62970 47421
L63083 47496
L63158 47571
L63195 47646
" />
<path d="M34318 55046
L34318 55421
L33530 55421
" />
<path d="M34318 54371
L34318 54821
" />
<path d="M34318 54596
L33530 54596
L33643 54671
L33718 54746
L33755 54821
" />
<path d="M33605 54071
L33568 54033
L33530 53958
L33530 53771
L33568 53696
L33605 53658
L33680 53621
L33755 53621
L33868 53658
L34318 54108
L34318 53621
" />
<path d="M41518 48246
L41518 48621
L40730 48621
" />
<path d="M41518 47571
L41518 48021
" />
<path d="M41518 47796
L40730 47796
L40843 47871
L40918 47946
L40955 48021
" />
<path d="M40730 47308
L40730 46821
L41030 47083
L41030 46971
L41068 46896
L41105 46858
L41180 46821
L41368 46821
L41443 46858
L41480 46896
L41518 46971
L41518 47196
L41480 47271
L41443 47308
" />
<path d="M41518 55046
L41518 55421
L40730 55421
" />
<path d="M41518 54371
L41518 54821
" />
<path d="M41518 54596
L40730 54596
L40843 54671
L40918 54746
L40955 54821
" />
<path d="M40993 53696
L41518 53696
" />
<path d="M40693 53883
L41255 54071
L41255 53583
" />
<path d="M27118 55046
L27118 55421
L26330 55421
" />
<path d="M27118 54371
L27118 54821
" />
<path d="M27118 54596
L26330 54596
L26443 54671
L26518 54746
L26555 54821
" />
<path d="M26330 53883
L26330 53808
L26368 53733
L26405 53696
L26480 53658
L26630 53621
L26818 53621
L26968 53658
L27043 53696
L27080 53733
L27118 53808
L27118 53883
L27080 53958
L27043 53996
L26968 54033
L26818 54071
L26630 54071
L26480 54033
L26405 53996
L26368 53958
L26330 53883
" />
<path d="M49118 55046
L49118 55421
L48330 55421
" />
<path d="M49118 54371
L49118 54821
" />
<path d="M49118 54596
L48330 54596
L48443 54671
L48518 54746
L48555 54821
" />
<path d="M48330 53696
L48330 53846
L48368 53921
L48405 53958
L48518 54033
L48668 54071
L48968 54071
L49043 54033
L49080 53996
L49118 53921
L49118 53771
L49080 53696
L49043 53658
L48968 53621
L48780 53621
L48705 53658
L48668 53696
L48630 53771
L48630 53921
L48668 53996
L48705 54033
L48780 54071
" />
<path d="M49118 48246
L49118 48621
L48330 48621
" />
<path d="M49118 47571
L49118 48021
" />
<path d="M49118 47796
L48330 47796
L48443 47871
L48518 47946
L48555 48021
" />
<path d="M48330 46858
L48330 47233
L48705 47271
L48668 47233
L48630 47158
L48630 46971
L48668 46896
L48705 46858
L48780 46821
L48968 46821
L49043 46858
L49080 46896
L49118 46971
L49118 47158
L49080 47233
L49043 47271
" />
<path d="M62169 40995
L61907 40620
" />
<path d="M61719 40995
L61719 40208
L62019 40208
L62094 40245
L62132 40283
L62169 40357
L62169 40470
L62132 40545
L62094 40582
L62019 40620
L61719 40620
" />
<path d="M62432 40208
L62919 40208
L62657 40507
L62769 40507
L62844 40545
L62882 40582
L62919 40657
L62919 40845
L62882 40920
L62844 40957
L62769 40995
L62544 40995
L62469 40957
L62432 40920
" />
<path d="M38743 32134
L38705 32172
L38593 32209
L38518 32209
L38405 32172
L38330 32097
L38293 32022
L38255 31872
L38255 31759
L38293 31609
L38330 31534
L38405 31459
L38518 31422
L38593 31422
L38705 31459
L38743 31497
" />
<path d="M39493 32209
L39043 32209
" />
<path d="M39268 32209
L39268 31422
L39193 31534
L39118 31609
L39043 31647
" />
<path d="M38743 27455
L38705 27493
L38593 27530
L38518 27530
L38405 27493
L38330 27418
L38293 27343
L38255 27193
L38255 27080
L38293 26930
L38330 26855
L38405 26780
L38518 26743
L38593 26743
L38705 26780
L38743 26818
" />
<path d="M39043 26818
L39080 26780
L39155 26743
L39343 26743
L39418 26780
L39455 26818
L39493 26893
L39493 26968
L39455 27080
L39005 27530
L39493 27530
" />
<path d="M67063 37762
L67010 37762
L66903 37709
L66850 37656
L66797 37550
L66797 37444
L66824 37364
L66903 37231
L66983 37152
L67116 37072
L67195 37046
L67301 37046
L67407 37099
L67460 37152
L67513 37258
L67513 37311
" />
<path d="M67725 37523
L67778 37523
L67858 37550
L67990 37682
L68017 37762
L68017 37815
L67990 37894
L67937 37947
L67831 38000
L67195 38000
L67540 38345
" />
<path d="M68441 38133
L68494 38186
L68521 38265
L68521 38319
L68494 38398
L68415 38531
L68282 38663
L68150 38743
L68070 38769
L68017 38769
L67937 38743
L67884 38690
L67858 38610
L67858 38557
L67884 38478
L67964 38345
L68097 38212
L68229 38133
L68309 38106
L68362 38106
L68441 38133
" />
<path d="M50443 51746
L50480 51783
L50518 51896
L50518 51971
L50480 52083
L50405 52158
L50330 52196
L50180 52233
L50068 52233
L49918 52196
L49843 52158
L49768 52083
L49730 51971
L49730 51896
L49768 51783
L49805 51746
" />
<path d="M50518 50996
L50518 51446
" />
<path d="M50518 51221
L49730 51221
L49843 51296
L49918 51371
L49955 51446
" />
<path d="M50518 50621
L50518 50471
L50480 50396
L50443 50358
L50330 50283
L50180 50246
L49880 50246
L49805 50283
L49768 50321
L49730 50396
L49730 50546
L49768 50621
L49805 50658
L49880 50696
L50068 50696
L50143 50658
L50180 50621
L50218 50546
L50218 50396
L50180 50321
L50143 50283
L50068 50246
" />
<path d="M79583 37286
L79620 37323
L79658 37436
L79658 37511
L79620 37623
L79545 37698
L79470 37736
L79320 37773
L79208 37773
L79058 37736
L78983 37698
L78908 37623
L78870 37511
L78870 37436
L78908 37323
L78945 37286
" />
<path d="M79658 36536
L79658 36986
" />
<path d="M79658 36761
L78870 36761
L78983 36836
L79058 36911
L79095 36986
" />
<path d="M79208 36086
L79170 36161
L79133 36198
L79058 36236
L79020 36236
L78945 36198
L78908 36161
L78870 36086
L78870 35936
L78908 35861
L78945 35823
L79020 35786
L79058 35786
L79133 35823
L79170 35861
L79208 35936
L79208 36086
L79245 36161
L79283 36198
L79358 36236
L79508 36236
L79583 36198
L79620 36161
L79658 36086
L79658 35936
L79620 35861
L79583 35823
L79508 35786
L79358 35786
L79283 35823
L79245 35861
L79208 35936
" />
<path d="M77583 37298
L77620 37336
L77658 37448
L77658 37523
L77620 37636
L77545 37711
L77470 37748
L77320 37786
L77208 37786
L77058 37748
L76983 37711
L76908 37636
L76870 37523
L76870 37448
L76908 37336
L76945 37298
" />
<path d="M77658 36548
L77658 36998
" />
<path d="M77658 36773
L76870 36773
L76983 36848
L77058 36923
L77095 36998
" />
<path d="M76870 36286
L76870 35761
L77658 36098
" />
<path d="M81583 37286
L81620 37323
L81658 37436
L81658 37511
L81620 37623
L81545 37698
L81470 37736
L81320 37773
L81208 37773
L81058 37736
L80983 37698
L80908 37623
L80870 37511
L80870 37436
L80908 37323
L80945 37286
" />
<path d="M81658 36536
L81658 36986
" />
<path d="M81658 36761
L80870 36761
L80983 36836
L81058 36911
L81095 36986
" />
<path d="M80870 35861
L80870 36011
L80908 36086
L80945 36123
L81058 36198
L81208 36236
L81508 36236
L81583 36198
L81620 36161
L81658 36086
L81658 35936
L81620 35861
L81583 35823
L81508 35786
L81320 35786
L81245 35823
L81208 35861
L81170 35936
L81170 36086
L81208 36161
L81245 36198
L81320 36236
" />
<path d="M72334 29869
L72334 29922
L72281 30028
L72228 30082
L72122 30135
L72016 30135
L71937 30108
L71804 30028
L71724 29949
L71645 29816
L71618 29737
L71618 29631
L71671 29525
L71724 29472
L71830 29419
L71883 29419
" />
<path d="M72918 29392
L72599 29710
" />
<path d="M72758 29551
L72202 28994
L72228 29127
L72228 29233
L72202 29313
" />
<path d="M72864 28332
L72599 28597
L72838 28888
L72838 28835
L72864 28756
L72997 28623
L73077 28597
L73130 28597
L73209 28623
L73342 28756
L73368 28835
L73368 28888
L73342 28968
L73209 29101
L73130 29127
L73077 29127
" />
<path d="M73474 31089
L73474 31142
L73421 31248
L73368 31302
L73262 31355
L73156 31355
L73077 31328
L72944 31248
L72864 31169
L72785 31036
L72758 30957
L72758 30851
L72811 30745
L72864 30692
L72970 30639
L73023 30639
" />
<path d="M74058 30612
L73739 30930
" />
<path d="M73898 30771
L73342 30214
L73368 30347
L73368 30453
L73342 30533
" />
<path d="M74164 29764
L74535 30135
" />
<path d="M73819 29684
L74084 30214
L74429 29870
" />
<path d="M68535 43502
L69097 43502
L69210 43539
L69285 43614
L69322 43727
L69322 43802
" />
<path d="M68610 43165
L68572 43127
L68535 43052
L68535 42865
L68572 42790
L68610 42752
L68685 42715
L68760 42715
L68872 42752
L69322 43202
L69322 42715
" />
<path d="M72890 27620
L72625 27885
" />
<path d="M72996 27143
L72890 27620
L73367 27514
" />
<path d="M73287 28548
L72969 28230
" />
<path d="M73128 28389
L73685 27832
L73553 27859
L73447 27859
L73367 27832
" />
<path d="M24812 29881
L24024 29881
L24024 29693
L24062 29581
L24137 29506
L24212 29468
L24362 29431
L24474 29431
L24624 29468
L24699 29506
L24774 29581
L24812 29693
L24812 29881
" />
<path d="M24024 29168
L24024 28681
L24324 28943
L24324 28831
L24362 28756
L24399 28718
L24474 28681
L24662 28681
L24737 28718
L24774 28756
L24812 28831
L24812 29056
L24774 29131
L24737 29168
" />
<path d="M22952 29881
L22164 29881
L22164 29693
L22202 29581
L22277 29506
L22352 29468
L22502 29431
L22614 29431
L22764 29468
L22839 29506
L22914 29581
L22952 29693
L22952 29881
" />
<path d="M22239 29131
L22202 29093
L22164 29018
L22164 28831
L22202 28756
L22239 28718
L22314 28681
L22389 28681
L22502 28718
L22952 29168
L22952 28681
" />
<path d="M20619 31365
L20619 30578
L20807 30578
L20919 30615
L20994 30690
L21032 30765
L21069 30915
L21069 31028
L21032 31178
L20994 31253
L20919 31328
L20807 31365
L20619 31365
" />
<path d="M21819 31365
L21369 31365
" />
<path d="M21594 31365
L21594 30578
L21519 30690
L21444 30765
L21369 30803
" />
<path d="M51733 51939
L52371 51939
L52446 51902
L52483 51864
L52521 51789
L52521 51639
L52483 51564
L52446 51527
L52371 51489
L51733 51489
" />
<path d="M51996 50777
L52521 50777
" />
<path d="M51696 50965
L52258 51152
L52258 50665
" />
<path d="M72640 38807
L72083 38250
" />
<path d="M73170 38170
L73170 38223
L73117 38329
L73064 38382
L72958 38435
L72852 38435
L72773 38409
L72640 38329
L72561 38250
L72481 38117
L72455 38038
L72455 37932
L72508 37826
L72561 37772
L72667 37719
L72720 37719
" />
<path d="M73754 37693
L73436 38011
" />
<path d="M73595 37852
L73038 37295
L73064 37428
L73064 37534
L73038 37613
" />
<path d="M51038 30139
L51675 30139
L51750 30102
L51788 30064
L51825 29989
L51825 29839
L51788 29764
L51750 29727
L51675 29689
L51038 29689
" />
<path d="M51113 29352
L51075 29315
L51038 29240
L51038 29052
L51075 28977
L51113 28940
L51188 28902
L51263 28902
L51375 28940
L51825 29390
L51825 28902
" />
<path d="M20896 29379
L20521 29641
" />
<path d="M20896 29829
L20109 29829
L20109 29529
L20146 29454
L20184 29416
L20259 29379
L20371 29379
L20446 29416
L20484 29454
L20521 29529
L20521 29829
" />
<path d="M20896 28629
L20896 29079
" />
<path d="M20896 28854
L20109 28854
L20221 28929
L20296 29004
L20334 29079
" />
<path d="M32814 32641
L32439 32903
" />
<path d="M32814 33091
L32027 33091
L32027 32791
L32064 32716
L32102 32678
L32177 32641
L32289 32641
L32364 32678
L32402 32716
L32439 32791
L32439 33091
" />
<path d="M32102 32341
L32064 32303
L32027 32228
L32027 32041
L32064 31966
L32102 31928
L32177 31891
L32252 31891
L32364 31928
L32814 32378
L32814 31891
" />
<path d="M75675 30980
L75754 30529
" />
<path d="M75356 30662
L75913 30105
L76125 30317
L76152 30397
L76152 30450
L76125 30529
L76046 30609
L75966 30635
L75913 30635
L75834 30609
L75622 30397
" />
<path d="M76523 31086
L76152 31457
" />
<path d="M76603 30741
L76072 31006
L76417 31351
" />
<path d="M81658 39711
L81283 39973
" />
<path d="M81658 40161
L80870 40161
L80870 39861
L80908 39786
L80945 39748
L81020 39711
L81133 39711
L81208 39748
L81245 39786
L81283 39861
L81283 40161
" />
<path d="M80870 38998
L80870 39373
L81245 39411
L81208 39373
L81170 39298
L81170 39111
L81208 39036
L81245 38998
L81320 38961
L81508 38961
L81583 38998
L81620 39036
L81658 39111
L81658 39298
L81620 39373
L81583 39411
" />
<path d="M77658 39711
L77283 39973
" />
<path d="M77658 40161
L76870 40161
L76870 39861
L76908 39786
L76945 39748
L77020 39711
L77133 39711
L77208 39748
L77245 39786
L77283 39861
L77283 40161
" />
<path d="M76870 39036
L76870 39186
L76908 39261
L76945 39298
L77058 39373
L77208 39411
L77508 39411
L77583 39373
L77620 39336
L77658 39261
L77658 39111
L77620 39036
L77583 38998
L77508 38961
L77320 38961
L77245 38998
L77208 39036
L77170 39111
L77170 39261
L77208 39336
L77245 39373
L77320 39411
" />
<path d="M79658 39711
L79283 39973
" />
<path d="M79658 40161
L78870 40161
L78870 39861
L78908 39786
L78945 39748
L79020 39711
L79133 39711
L79208 39748
L79245 39786
L79283 39861
L79283 40161
" />
<path d="M78870 39448
L78870 38923
L79658 39261
" />
<path d="M62185 33755
L61923 33380
" />
<path d="M61735 33755
L61735 32968
L62035 32968
L62110 33005
L62148 33043
L62185 33117
L62185 33230
L62148 33305
L62110 33342
L62035 33380
L61735 33380
" />
<path d="M62635 33305
L62560 33267
L62523 33230
L62485 33155
L62485 33117
L62523 33043
L62560 33005
L62635 32968
L62785 32968
L62860 33005
L62898 33043
L62935 33117
L62935 33155
L62898 33230
L62860 33267
L62785 33305
L62635 33305
L62560 33342
L62523 33380
L62485 33455
L62485 33605
L62523 33680
L62560 33717
L62635 33755
L62785 33755
L62860 33717
L62898 33680
L62935 33605
L62935 33455
L62898 33380
L62860 33342
L62785 33305
" />
<path d="M62169 31995
L61907 31620
" />
<path d="M61719 31995
L61719 31208
L62019 31208
L62094 31245
L62132 31283
L62169 31357
L62169 31470
L62132 31545
L62094 31582
L62019 31620
L61719 31620
" />
<path d="M62544 31995
L62694 31995
L62769 31957
L62807 31920
L62882 31807
L62919 31657
L62919 31357
L62882 31283
L62844 31245
L62769 31208
L62619 31208
L62544 31245
L62507 31283
L62469 31357
L62469 31545
L62507 31620
L62544 31657
L62619 31695
L62769 31695
L62844 31657
L62882 31620
L62919 31545
" />
<path d="M80534 35315
L80272 34940
" />
<path d="M80084 35315
L80084 34528
L80384 34528
L80459 34565
L80497 34603
L80534 34677
L80534 34790
L80497 34865
L80459 34902
L80384 34940
L80084 34940
" />
<path d="M81284 35315
L80834 35315
" />
<path d="M81059 35315
L81059 34528
L80984 34640
L80909 34715
L80834 34752
" />
<path d="M81772 34528
L81847 34528
L81922 34565
L81959 34603
L81997 34677
L82034 34827
L82034 35015
L81997 35165
L81959 35240
L81922 35277
L81847 35315
L81772 35315
L81697 35277
L81659 35240
L81622 35165
L81584 35015
L81584 34827
L81622 34677
L81659 34603
L81697 34565
L81772 34528
" />
<path d="M88356 26846
L87981 27108
" />
<path d="M88356 27296
L87569 27296
L87569 26996
L87606 26921
L87644 26883
L87719 26846
L87831 26846
L87906 26883
L87944 26921
L87981 26996
L87981 27296
" />
<path d="M88356 26096
L88356 26546
" />
<path d="M88356 26321
L87569 26321
L87681 26396
L87756 26471
L87794 26546
" />
<path d="M88356 25346
L88356 25796
" />
<path d="M88356 25571
L87569 25571
L87681 25646
L87756 25721
L87794 25796
" />
<path d="M64674 51355
L65312 51355
L65387 51318
L65424 51280
L65462 51205
L65462 51055
L65424 50980
L65387 50943
L65312 50905
L64674 50905
" />
<path d="M64674 50605
L64674 50118
L64974 50380
L64974 50268
L65012 50193
L65049 50155
L65124 50118
L65312 50118
L65387 50155
L65424 50193
L65462 50268
L65462 50493
L65424 50568
L65387 50605
" />
<path d="M71894 51615
L72532 51615
L72607 51578
L72644 51540
L72682 51465
L72682 51315
L72644 51240
L72607 51203
L72532 51165
L71894 51165
" />
<path d="M71894 50415
L71894 50790
L72269 50828
L72232 50790
L72194 50715
L72194 50528
L72232 50453
L72269 50415
L72344 50378
L72532 50378
L72607 50415
L72644 50453
L72682 50528
L72682 50715
L72644 50790
L72607 50828
" />
<path d="M79074 51355
L79712 51355
L79787 51318
L79824 51280
L79862 51205
L79862 51055
L79824 50980
L79787 50943
L79712 50905
L79074 50905
" />
<path d="M79074 50193
L79074 50343
L79112 50418
L79149 50455
L79262 50530
L79412 50568
L79712 50568
L79787 50530
L79824 50493
L79862 50418
L79862 50268
L79824 50193
L79787 50155
L79712 50118
L79524 50118
L79449 50155
L79412 50193
L79374 50268
L79374 50418
L79412 50493
L79449 50530
L79524 50568
" />
<path d="M86274 51355
L86912 51355
L86987 51318
L87024 51280
L87062 51205
L87062 51055
L87024 50980
L86987 50943
L86912 50905
L86274 50905
" />
<path d="M86274 50605
L86274 50080
L87062 50418
" />
<path d="M20834 51724
L21472 51724
L21547 51686
L21584 51649
L21622 51574
L21622 51424
L21584 51349
L21547 51311
L21472 51274
L20834 51274
" />
<path d="M21172 50786
L21134 50861
L21097 50899
L21022 50936
L20984 50936
L20909 50899
L20872 50861
L20834 50786
L20834 50636
L20872 50561
L20909 50524
L20984 50486
L21022 50486
L21097 50524
L21134 50561
L21172 50636
L21172 50786
L21209 50861
L21247 50899
L21322 50936
L21472 50936
L21547 50899
L21584 50861
L21622 50786
L21622 50636
L21584 50561
L21547 50524
L21472 50486
L21322 50486
L21247 50524
L21209 50561
L21172 50636
" />
<path d="M28034 51755
L28672 51755
L28747 51718
L28784 51680
L28822 51605
L28822 51455
L28784 51380
L28747 51343
L28672 51305
L28034 51305
" />
<path d="M28822 50893
L28822 50743
L28784 50668
L28747 50630
L28634 50555
L28484 50518
L28184 50518
L28109 50555
L28072 50593
L28034 50668
L28034 50818
L28072 50893
L28109 50930
L28184 50968
L28372 50968
L28447 50930
L28484 50893
L28522 50818
L28522 50668
L28484 50593
L28447 50555
L28372 50518
" />
<path d="M35234 52130
L35872 52130
L35947 52093
L35984 52055
L36022 51980
L36022 51830
L35984 51755
L35947 51718
L35872 51680
L35234 51680
" />
<path d="M36022 50893
L36022 51343
" />
<path d="M36022 51118
L35234 51118
L35347 51193
L35422 51268
L35459 51343
" />
<path d="M35234 50405
L35234 50330
L35272 50255
L35309 50218
L35384 50180
L35534 50143
L35722 50143
L35872 50180
L35947 50218
L35984 50255
L36022 50330
L36022 50405
L35984 50480
L35947 50518
L35872 50555
L35722 50593
L35534 50593
L35384 50555
L35309 50518
L35272 50480
L35234 50405
" />
<path d="M42374 52079
L43012 52079
L43087 52041
L43124 52004
L43162 51929
L43162 51779
L43124 51704
L43087 51666
L43012 51629
L42374 51629
" />
<path d="M43162 50841
L43162 51291
" />
<path d="M43162 51066
L42374 51066
L42487 51141
L42562 51216
L42599 51291
" />
<path d="M43162 50091
L43162 50541
" />
<path d="M43162 50316
L42374 50316
L42487 50391
L42562 50466
L42599 50541
" />
<path d="M33864 38134
L33902 38021
L33902 37834
L33864 37759
L33827 37721
L33752 37684
L33677 37684
L33602 37721
L33564 37759
L33527 37834
L33489 37984
L33452 38059
L33414 38096
L33339 38134
L33264 38134
L33189 38096
L33152 38059
L33114 37984
L33114 37796
L33152 37684
" />
<path d="M33114 37421
L33902 37234
L33339 37084
L33902 36934
L33114 36746
" />
<path d="M33902 36034
L33902 36484
" />
<path d="M33902 36259
L33114 36259
L33227 36334
L33302 36409
L33339 36484
" />
<path d="M36140 26454
L36178 26342
L36215 26304
L36290 26267
L36403 26267
L36478 26304
L36515 26342
L36553 26417
L36553 26717
L35765 26717
L35765 26454
L35803 26379
L35840 26342
L35915 26304
L35990 26304
L36065 26342
L36103 26379
L36140 26454
L36140 26717
" />
<path d="M35765 26042
L35765 25592
" />
<path d="M36553 25817
L35765 25817
" />
<path d="M36553 24917
L36553 25367
" />
<path d="M36553 25142
L35765 25142
L35878 25217
L35953 25292
L35990 25367
" />
<path d="M76295 43522
L76857 43522
L76970 43559
L77045 43634
L77082 43747
L77082 43822
" />
<path d="M76295 43222
L76295 42735
L76595 42997
L76595 42885
L76632 42810
L76670 42772
L76745 42735
L76932 42735
L77007 42772
L77045 42810
L77082 42885
L77082 43110
L77045 43185
L77007 43222
" />
<path d="M62642 25721
L61855 25721
L61855 25421
L61892 25346
L61930 25308
L62005 25271
L62117 25271
L62192 25308
L62230 25346
L62267 25421
L62267 25721
" />
<path d="M62642 24521
L62642 24971
" />
<path d="M62642 24746
L61855 24746
L61967 24821
L62042 24896
L62080 24971
" />
<path d="M60691 35053
L61328 35053
L61403 35015
L61441 34978
L61478 34903
L61478 34753
L61441 34678
L61403 34641
L61328 34603
L60691 34603
" />
<path d="M61478 33816
L61478 34266
" />
<path d="M61478 34041
L60691 34041
L60803 34116
L60878 34191
L60916 34266
" />
<path d="M60691 33553
L60691 33066
L60991 33328
L60991 33216
L61028 33141
L61066 33103
L61141 33066
L61328 33066
L61403 33103
L61441 33141
L61478 33216
L61478 33441
L61441 33516
L61403 33553
" />
<path d="M61626 39312
L61626 39950
L61663 40025
L61701 40062
L61776 40100
L61926 40100
L62001 40062
L62038 40025
L62076 39950
L62076 39312
" />
<path d="M62863 40100
L62413 40100
" />
<path d="M62638 40100
L62638 39312
L62563 39425
L62488 39500
L62413 39537
" />
<path d="M63538 39575
L63538 40100
" />
<path d="M63351 39275
L63163 39837
L63650 39837
" />
<path d="M60563 35282
L60526 35357
L60451 35432
L60338 35545
L60301 35620
L60301 35695
" />
<path d="M60488 35657
L60451 35732
L60376 35807
L60226 35845
L59963 35845
L59813 35807
L59738 35732
L59701 35657
L59701 35507
L59738 35432
L59813 35357
L59963 35320
L60226 35320
L60376 35357
L60451 35432
L60488 35507
L60488 35657
" />
<path d="M60488 34570
L60488 35020
" />
<path d="M60488 34795
L59701 34795
L59813 34870
L59888 34945
L59926 35020
" />
<path d="M40926 26973
L41564 26973
L41639 26935
L41676 26898
L41714 26823
L41714 26673
L41676 26598
L41639 26561
L41564 26523
L40926 26523
" />
<path d="M41714 25736
L41714 26186
" />
<path d="M41714 25961
L40926 25961
L41039 26036
L41114 26111
L41151 26186
" />
</g>
<g style="fill:#000000; fill-opacity:0.0; 
stroke:#000000; stroke-width:39.3701; stroke-opacity:1; 
stroke-linecap:round; stroke-linejoin:round;">
<path d="M23371 31546
L23934 31546
L24046 31584
L24121 31659
L24159 31772
L24159 31847
" />
<path d="M24159 30758
L24159 31209
" />
<path d="M24159 30983
L23371 30983
L23483 31058
L23558 31134
L23596 31209
" />
<path d="M28886 33254
L28886 33516
" />
<path d="M29299 33516
L28511 33516
L28511 33141
" />
<path d="M29224 32390
L29262 32428
L29299 32541
L29299 32616
L29262 32728
L29187 32803
L29112 32841
L28961 32878
L28849 32878
L28699 32841
L28624 32803
L28549 32728
L28511 32616
L28511 32541
L28549 32428
L28586 32390
" />
<path d="M28511 31715
L28511 31865
L28549 31940
L28586 31978
L28699 32053
L28849 32090
L29149 32090
L29224 32053
L29262 32015
L29299 31940
L29299 31790
L29262 31715
L29224 31677
L29149 31640
L28961 31640
L28886 31677
L28849 31715
L28811 31790
L28811 31940
L28849 32015
L28886 32053
L28961 32090
" />
<path d="M28849 31189
L28811 31264
L28774 31302
L28699 31339
L28661 31339
L28586 31302
L28549 31264
L28511 31189
L28511 31039
L28549 30964
L28586 30927
L28661 30889
L28699 30889
L28774 30927
L28811 30964
L28849 31039
L28849 31189
L28886 31264
L28924 31302
L28999 31339
L29149 31339
L29224 31302
L29262 31264
L29299 31189
L29299 31039
L29262 30964
L29224 30927
L29149 30889
L28999 30889
L28924 30927
L28886 30964
L28849 31039
" />
<path d="M29299 30138
L29299 30589
" />
<path d="M29299 30364
L28511 30364
L28624 30439
L28699 30514
L28736 30589
" />
<path d="M28586 29838
L28549 29801
L28511 29725
L28511 29538
L28549 29463
L28586 29425
L28661 29388
L28736 29388
L28849 29425
L29299 29876
L29299 29388
" />
<path d="M28511 29125
L28511 28599
L29299 28937
" />
</g>
<g style="fill:#000000; fill-opacity:0.0; 
stroke:#000000; stroke-width:118.11; stroke-opacity:1; 
stroke-linecap:round; stroke-linejoin:round;">
<path d="M84633 27747
L84671 27635
L84671 27447
L84633 27372
L84596 27335
L84521 27297
L84446 27297
L84371 27335
L84333 27372
L84296 27447
L84258 27597
L84221 27672
L84183 27710
L84108 27747
L84033 27747
L83958 27710
L83921 27672
L83883 27597
L83883 27410
L83921 27297
" />
<path d="M83883 27035
L84671 26847
L84108 26698
L84671 26548
L83883 26360
" />
<path d="M83958 26098
L83921 26060
L83883 25985
L83883 25798
L83921 25723
L83958 25685
L84033 25648
L84108 25648
L84221 25685
L84671 26135
L84671 25648
" />
<path d="M39681 38430
L39718 38318
L39718 38130
L39681 38055
L39643 38018
L39568 37980
L39493 37980
L39418 38018
L39381 38055
L39343 38130
L39306 38280
L39268 38355
L39231 38393
L39156 38430
L39081 38430
L39006 38393
L38968 38355
L38931 38280
L38931 38093
L38968 37980
" />
<path d="M38931 37718
L39718 37530
L39156 37380
L39718 37230
L38931 37043
" />
<path d="M38931 36818
L38931 36331
L39231 36593
L39231 36481
L39268 36406
L39306 36368
L39381 36331
L39568 36331
L39643 36368
L39681 36406
L39718 36481
L39718 36706
L39681 36781
L39643 36818
" />
<path d="M87904 24314
L88541 24314
L88616 24277
L88654 24239
L88691 24164
L88691 24014
L88654 23939
L88616 23902
L88541 23864
L87904 23864
" />
<path d="M88691 23077
L88691 23527
" />
<path d="M88691 23302
L87904 23302
L88017 23377
L88092 23452
L88129 23527
" />
<path d="M87979 22777
L87942 22740
L87904 22665
L87904 22477
L87942 22402
L87979 22365
L88054 22327
L88129 22327
L88242 22365
L88691 22815
L88691 22327
" />
<g >
</g>
</g> 
</svg>
