<?xml version="1.0" standalone="no"?>
 <!DOCTYPE svg PUBLIC "-//W3C//DTD SVG 1.1//EN" 
 "http://www.w3.org/Graphics/SVG/1.1/DTD/svg11.dtd"> 
<svg xmlns="http://www.w3.org/2000/svg" version="1.1" 
    width="29.7002cm" height="21.0007cm" viewBox="0 0 116930 82680 ">
<title>SVG Picture created as ThermocoupleLogger-B_Paste.svg date 2019/03/28 17:00:02 </title>
  <desc>Picture generated by PCBNEW </desc>
<g style="fill:#000000; fill-opacity:1;stroke:#000000; stroke-opacity:1;
stroke-linecap:round; stroke-linejoin:round; "
 transform="translate(0 0) scale(1 1)">
</g>
<g style="fill:#000000; fill-opacity:0.0; 
stroke:#000000; stroke-width:-0.000787402; stroke-opacity:1; 
stroke-linecap:round; stroke-linejoin:round;">
</g>
<g style="fill:#000000; fill-opacity:0.0; 
stroke:#000000; stroke-width:157.48; stroke-opacity:1; 
stroke-linecap:round; stroke-linejoin:round;">
<path d="M96701 62899
L96701 67324
" />
<path d="M17901 67332
L96697 67332
" />
<path d="M30622 21607
L17905 21607
" />
<path d="M17901 62940
L17901 67340
" />
<path d="M83861 62900
L65621 62900
" />
<path d="M87591 62900
L96701 62900
" />
<path d="M87551 60900
L96641 60900
" />
<path d="M65621 60900
L83861 60900
" />
<path d="M61984 62909
L24624 62909
" />
<path d="M24631 60910
L61991 60910
" />
<path d="M21001 60920
L17901 60920
" />
<path d="M20971 62920
L17897 62938
" />
<path d="M20971.1 62920 A1000.2 1000.2 0.0 0 0 20993.7 60920.7 " />
<path d="M24641.1 60910 A1000 1000 0.0 0 0 24624.5 62909.9 " />
<path d="M61971.1 62910 A1000 1000 0.0 0 0 61992.4 60910.2 " />
<path d="M65621.1 60900 A1000.2 1000.2 0.0 1 0 65622.9 62900 " />
<path d="M83851.1 62900 A1000.2 1000.2 0.0 1 0 83871.1 60899.8 " />
<path d="M87541.9 60900 A1000.2 1000.2 0.0 0 0 87581.1 62900 " />
<path d="M91501.1 19540 A1000.8 1000.8 0.0 0 0 91541.1 21540.8 " />
<path d="M55281.1 21580 A1000.8 1000.8 0.0 1 0 55281.1 19580 " />
<path d="M17861 19560
L17861 19560
" />
<path d="M30621 19560
L17861 19560
" />
<path d="M34281 21580
L55281 21580
" />
<path d="M55261 19580
L34301 19580
" />
<path d="M30621.1 21600 A1020 1020 0.0 0 0 30621.1 19560 " />
<path d="M34301.1 19580 A1000.2 1000.2 0.0 1 0 34281.1 21580.2 " />
<path d="M87881 21570
L59051 21570
" />
<path d="M58901 19590
L87911 19590
" />
<path d="M58981.1 19580 A990.202 990.202 0.0 0 0 59021.1 21560 " />
<path d="M91551 21544
L96638 21552
" />
<path d="M96601 19540
L91501 19540
" />
<path d="M96601 14340
L96601 19540
" />
<path d="M87881.1 21580 A996 996 0.0 0 0 87889.2 19588 " />
<path d="M17861 14320
L96590 14324
" />
<path d="M17861 19560
L17861 14320
" />
<path d="M17901 60920
L17901 21610
" />
<path d="M96641 60900
L96641 21569
" />
<g >
</g>
<g >
</g>
<g >
</g>
<g >
</g>
<g >
</g>
<g >
</g>
<g >
</g>
<g >
</g>
<g >
</g>
<g >
</g>
<g >
</g>
<g >
</g>
<g >
</g>
<g >
</g>
<g >
</g>
<g >
</g>
<g >
</g>
<g >
</g>
<g >
</g>
<g >
</g>
<g >
</g>
<g >
</g>
<g >
</g>
<g >
</g>
<g >
</g>
<g >
</g>
<g >
</g>
<g >
</g>
<g >
</g>
<g >
</g>
<g >
</g>
<g >
</g>
<g >
</g>
<g >
</g>
<g >
</g>
<g >
</g>
<g >
</g>
<g >
</g>
<g >
</g>
<g style="fill:#000000; fill-opacity:0.0; 
stroke:#000000; stroke-width:0; stroke-opacity:1; 
stroke-linecap:round; stroke-linejoin:round;">
</g>
<g style="fill:#000000; fill-opacity:1.0; 
stroke:#000000; stroke-width:0; stroke-opacity:1; 
stroke-linecap:round; stroke-linejoin:round;">
<path style="fill:#000000; fill-opacity:1.0; 
stroke:#000000; stroke-width:0; stroke-opacity:1; 
stroke-linecap:round; stroke-linejoin:round;fill-rule:evenodd;"
d="M 72440,34241
72458,34243
72477,34248
72494,34254
72511,34262
72528,34272
72543,34283
72557,34296
72828,34567
72841,34581
72852,34597
72862,34613
72870,34630
72876,34647
72881,34666
72883,34684
72884,34703
72883,34722
72881,34741
72876,34759
72870,34777
72862,34794
72852,34810
72841,34825
72828,34839
72320,35347
72306,35360
72291,35371
72275,35380
72258,35389
72240,35395
72222,35399
72203,35402
72184,35403
72165,35402
72147,35399
72129,35395
72111,35389
72094,35380
72078,35371
72063,35360
72049,35347
71777,35076
71764,35062
71753,35046
71744,35030
71736,35013
71729,34996
71725,34977
71722,34959
71721,34940
71722,34921
71725,34902
71729,34884
71736,34866
71744,34849
71753,34833
71764,34818
71777,34804
72285,34296
72299,34283
72314,34272
72330,34262
72347,34254
72365,34248
72383,34243
72402,34241
72421,34240
72440,34241
Z" /> 
<path style="fill:#000000; fill-opacity:1.0; 
stroke:#000000; stroke-width:0; stroke-opacity:1; 
stroke-linecap:round; stroke-linejoin:round;fill-rule:evenodd;"
d="M 71396,33197
71414,33200
71433,33204
71450,33210
71467,33219
71484,33228
71499,33239
71513,33252
71784,33523
71797,33537
71808,33553
71818,33569
71826,33586
71832,33603
71837,33622
71839,33640
71840,33659
71839,33678
71837,33697
71832,33715
71826,33733
71818,33750
71808,33766
71797,33781
71784,33795
71276,34303
71262,34316
71247,34327
71231,34337
71214,34345
71196,34351
71178,34356
71159,34358
71140,34359
71122,34358
71103,34356
71085,34351
71067,34345
71050,34337
71034,34327
71019,34316
71005,34303
70733,34032
70721,34018
70709,34002
70700,33986
70692,33969
70685,33952
70681,33933
70678,33915
70677,33896
70678,33877
70681,33858
70685,33840
70692,33822
70700,33805
70709,33789
70721,33774
70733,33760
71241,33252
71255,33239
71270,33228
71286,33219
71304,33210
71321,33204
71340,33200
71358,33197
71377,33196
71396,33197
Z" /> 
</g>
<g >
<path style="fill:#000000; fill-opacity:1.0; 
stroke:#000000; stroke-width:0; stroke-opacity:1; 
stroke-linecap:round; stroke-linejoin:round;fill-rule:evenodd;"
d="M 70500,32281
70518,32283
70537,32288
70554,32294
70571,32302
70588,32312
70603,32323
70617,32336
70888,32607
70901,32621
70912,32637
70922,32653
70930,32670
70936,32687
70941,32706
70943,32724
70944,32743
70943,32762
70941,32781
70936,32799
70930,32817
70922,32834
70912,32850
70901,32865
70888,32879
70380,33387
70366,33400
70351,33411
70335,33420
70318,33429
70300,33435
70282,33439
70263,33442
70244,33443
70225,33442
70207,33439
70189,33435
70171,33429
70154,33420
70138,33411
70123,33400
70109,33387
69837,33116
69824,33102
69813,33086
69804,33070
69796,33053
69789,33036
69785,33017
69782,32999
69781,32980
69782,32961
69785,32942
69789,32924
69796,32906
69804,32889
69813,32873
69824,32858
69837,32844
70345,32336
70359,32323
70374,32312
70390,32302
70407,32294
70425,32288
70443,32283
70462,32281
70481,32280
70500,32281
Z" /> 
<path style="fill:#000000; fill-opacity:1.0; 
stroke:#000000; stroke-width:0; stroke-opacity:1; 
stroke-linecap:round; stroke-linejoin:round;fill-rule:evenodd;"
d="M 69456,31237
69474,31240
69493,31244
69510,31250
69527,31259
69544,31268
69559,31279
69573,31292
69844,31563
69857,31577
69868,31593
69878,31609
69886,31626
69892,31643
69897,31662
69899,31680
69900,31699
69899,31718
69897,31737
69892,31755
69886,31773
69878,31790
69868,31806
69857,31821
69844,31835
69336,32343
69322,32356
69307,32367
69291,32377
69274,32385
69256,32391
69238,32396
69219,32398
69200,32399
69182,32398
69163,32396
69145,32391
69127,32385
69110,32377
69094,32367
69079,32356
69065,32343
68793,32072
68781,32058
68769,32042
68760,32026
68752,32009
68745,31992
68741,31973
68738,31955
68737,31936
68738,31917
68741,31898
68745,31880
68752,31862
68760,31845
68769,31829
68781,31814
68793,31800
69301,31292
69315,31279
69330,31268
69346,31259
69364,31250
69381,31244
69400,31240
69418,31237
69437,31236
69456,31237
Z" /> 
</g>
<g >
</g>
<g >
</g>
<g >
</g>
<g >
</g>
<g >
</g>
<g >
</g>
<g >
</g>
<g >
</g>
<g >
</g>
<g >
</g>
<g >
</g>
<g >
</g>
<g >
</g>
<g >
</g>
<g >
</g>
<g >
</g>
<g >
</g>
<g >
</g>
<g >
</g>
<g >
</g>
<g >
</g>
<g >
</g>
<g >
</g>
<g >
</g>
<g >
</g>
<g >
</g>
<g >
</g>
<g >
</g>
<g >
</g>
<g >
</g>
<g >
</g>
<g >
</g>
<g >
</g>
<g >
</g>
<g >
</g>
<g >
</g>
<g >
</g>
<g >
</g>
<g >
</g>
<g >
</g>
<g >
</g>
<g >
</g>
<g >
<circle cx="27693.3" cy="16584.1" r="984.252" /> 
</g>
<g style="fill:#000000; fill-opacity:1.0; 
stroke:#000000; stroke-width:118.11; stroke-opacity:1; 
stroke-linecap:round; stroke-linejoin:round;">
</g>
<g >
</g>
<g style="fill:#000000; fill-opacity:1.0; 
stroke:#000000; stroke-width:0; stroke-opacity:1; 
stroke-linecap:round; stroke-linejoin:round;">
<circle cx="82811.4" cy="16584.1" r="984.252" /> 
</g>
<g style="fill:#000000; fill-opacity:1.0; 
stroke:#000000; stroke-width:118.11; stroke-opacity:1; 
stroke-linecap:round; stroke-linejoin:round;">
</g>
<g >
</g>
<g style="fill:#000000; fill-opacity:1.0; 
stroke:#000000; stroke-width:0; stroke-opacity:1; 
stroke-linecap:round; stroke-linejoin:round;">
<circle cx="27693.3" cy="63828.2" r="984.252" /> 
</g>
<g style="fill:#000000; fill-opacity:1.0; 
stroke:#000000; stroke-width:118.11; stroke-opacity:1; 
stroke-linecap:round; stroke-linejoin:round;">
</g>
<g >
</g>
<g style="fill:#000000; fill-opacity:1.0; 
stroke:#000000; stroke-width:0; stroke-opacity:1; 
stroke-linecap:round; stroke-linejoin:round;">
<circle cx="90685.4" cy="63828.2" r="984.252" /> 
</g>
<g style="fill:#000000; fill-opacity:1.0; 
stroke:#000000; stroke-width:118.11; stroke-opacity:1; 
stroke-linecap:round; stroke-linejoin:round;">
</g>
<g >
</g>
<g >
</g>
<g >
</g>
<g >
</g>
<g >
</g>
</g> 
</svg>
