<?xml version="1.0" standalone="no"?>
 <!DOCTYPE svg PUBLIC "-//W3C//DTD SVG 1.1//EN" 
 "http://www.w3.org/Graphics/SVG/1.1/DTD/svg11.dtd"> 
<svg xmlns="http://www.w3.org/2000/svg" version="1.1" 
    width="29.7002cm" height="21.0007cm" viewBox="0 0 116930 82680 ">
<title>SVG Picture created as ThermocoupleLogger-B_Fab.svg date 2019/03/28 17:00:02 </title>
  <desc>Picture generated by PCBNEW </desc>
<g style="fill:#000000; fill-opacity:1;stroke:#000000; stroke-opacity:1;
stroke-linecap:round; stroke-linejoin:round; "
 transform="translate(0 0) scale(1 1)">
</g>
<g style="fill:#000000; fill-opacity:0.0; 
stroke:#000000; stroke-width:-0.000787402; stroke-opacity:1; 
stroke-linecap:round; stroke-linejoin:round;">
</g>
<g style="fill:#000000; fill-opacity:0.0; 
stroke:#000000; stroke-width:157.48; stroke-opacity:1; 
stroke-linecap:round; stroke-linejoin:round;">
<path d="M96701 62899
L96701 67324
" />
<path d="M17901 67332
L96697 67332
" />
<path d="M30622 21607
L17905 21607
" />
<path d="M17901 62940
L17901 67340
" />
<path d="M83861 62900
L65621 62900
" />
<path d="M87591 62900
L96701 62900
" />
<path d="M87551 60900
L96641 60900
" />
<path d="M65621 60900
L83861 60900
" />
<path d="M61984 62909
L24624 62909
" />
<path d="M24631 60910
L61991 60910
" />
<path d="M21001 60920
L17901 60920
" />
<path d="M20971 62920
L17897 62938
" />
<path d="M20971.1 62920 A1000.2 1000.2 0.0 0 0 20993.7 60920.7 " />
<path d="M24641.1 60910 A1000 1000 0.0 0 0 24624.5 62909.9 " />
<path d="M61971.1 62910 A1000 1000 0.0 0 0 61992.4 60910.2 " />
<path d="M65621.1 60900 A1000.2 1000.2 0.0 1 0 65622.9 62900 " />
<path d="M83851.1 62900 A1000.2 1000.2 0.0 1 0 83871.1 60899.8 " />
<path d="M87541.9 60900 A1000.2 1000.2 0.0 0 0 87581.1 62900 " />
<path d="M91501.1 19540 A1000.8 1000.8 0.0 0 0 91541.1 21540.8 " />
<path d="M55281.1 21580 A1000.8 1000.8 0.0 1 0 55281.1 19580 " />
<path d="M17861 19560
L17861 19560
" />
<path d="M30621 19560
L17861 19560
" />
<path d="M34281 21580
L55281 21580
" />
<path d="M55261 19580
L34301 19580
" />
<path d="M30621.1 21600 A1020 1020 0.0 0 0 30621.1 19560 " />
<path d="M34301.1 19580 A1000.2 1000.2 0.0 1 0 34281.1 21580.2 " />
<path d="M87881 21570
L59051 21570
" />
<path d="M58901 19590
L87911 19590
" />
<path d="M58981.1 19580 A990.202 990.202 0.0 0 0 59021.1 21560 " />
<path d="M91551 21544
L96638 21552
" />
<path d="M96601 19540
L91501 19540
" />
<path d="M96601 14340
L96601 19540
" />
<path d="M87881.1 21580 A996 996 0.0 0 0 87889.2 19588 " />
<path d="M17861 14320
L96590 14324
" />
<path d="M17861 19560
L17861 14320
" />
<path d="M17901 60920
L17901 21610
" />
<path d="M96641 60900
L96641 21569
" />
</g>
<g style="fill:#000000; fill-opacity:0.0; 
stroke:#000000; stroke-width:78.7402; stroke-opacity:1; 
stroke-linecap:round; stroke-linejoin:round;">
<path d="M54132.6 24286.5 A314.961 314.961 0.0 0 0 53817.7 24601.4 " />
<path d="M58384.6 24601.4 A314.961 314.961 0.0 0 0 58069.6 24286.5 " />
<path d="M55077 25940
L57124 25940
" />
<path d="M55077.5 38695.9 A1023.62 1023.62 0.0 0 0 57124.7 38695.9 " />
<path d="M53351.4 29361.8 A708.661 708.661 0.0 0 0 53817.7 28695.9 " />
<path d="M55077 38695
L55077 25940
" />
<path d="M57124 25940
L57124 38695
" />
<path d="M54132 24286
L58069 24286
" />
<path d="M58384 24601
L58384 28720
" />
<path d="M53817 28720
L53817 24601
" />
<path d="M55077.5 30034.5 A7940.27 7940.27 0.0 0 0 57124.7 45782.5 " />
<path d="M55077.5 33026.6 A4988.05 4988.05 0.0 0 0 56261.5 42894 " />
<path d="M55077.5 36412.4 A1812.73 1812.73 0.0 0 0 56239.6 39715.9 " />
<path d="M50021 44500
L50701 43760
" />
<path d="M62181 44500
L61521 43780
" />
<path d="M55962.7 39715.9 A1812.73 1812.73 0.0 0 0 57124.7 36412.4 " />
<path d="M55940.8 42894 A4988.05 4988.05 0.0 0 0 57124.7 33026.6 " />
<path d="M55077.5 45782.5 A7940.27 7940.27 0.0 0 0 57124.7 30034.5 " />
<path d="M53345.2 29365.2 A8976.81 8976.81 0.0 0 0 56160.5 46885.1 " />
<path d="M56041.8 46885.1 A8976.81 8976.81 0.0 0 0 58857 29365.2 " />
<path d="M58384.6 28695.9 A708.661 708.661 0.0 0 0 58850.9 29361.8 " />
<path d="M72671 34522
L71558 33409
" />
<path d="M72003 35190
L72671 34522
" />
<path d="M70890 34077
L72003 35190
" />
<path d="M71558 33409
L70890 34077
" />
<path d="M70731 32562
L69618 31449
" />
<path d="M70063 33230
L70731 32562
" />
<path d="M68950 32117
L70063 33230
" />
<path d="M69618 31449
L68950 32117
" />
<g >
</g>
<g >
</g>
<g >
</g>
<g >
</g>
<g >
</g>
<g >
</g>
<g >
</g>
<g >
</g>
<g >
</g>
<g >
</g>
<g >
</g>
<g >
</g>
<g >
</g>
<g >
</g>
<g >
</g>
<g >
</g>
<g >
</g>
<g >
</g>
<g >
</g>
<g >
</g>
<g >
</g>
<g >
</g>
<g >
</g>
<g >
</g>
<g >
</g>
<g >
</g>
<g >
</g>
<g >
</g>
<g >
</g>
<g >
</g>
<g >
</g>
<g >
</g>
<g >
</g>
<g >
</g>
<g >
</g>
<g >
</g>
<g >
</g>
<g >
</g>
<g >
</g>
<g >
</g>
<g >
</g>
<g >
</g>
<g >
</g>
<g >
</g>
<g >
</g>
<g >
</g>
<g >
</g>
<g >
</g>
<g >
</g>
<g >
</g>
<g >
</g>
<g >
</g>
<g >
</g>
<g >
</g>
<g >
</g>
<g >
</g>
<g >
</g>
<g >
</g>
<g >
</g>
<g >
</g>
<g >
</g>
<g >
</g>
<g >
</g>
<g >
</g>
<g >
</g>
<g >
</g>
<g >
</g>
<g >
</g>
<g >
</g>
<g >
</g>
<g >
</g>
<g >
</g>
<g >
</g>
<g >
</g>
<g >
</g>
<g >
</g>
<g >
</g>
<g >
</g>
<g >
</g>
<g >
</g>
<g >
</g>
<g >
</g>
<g >
</g>
<g >
</g>
<g >
</g>
<g >
</g>
<g >
</g>
<g >
</g>
</g>
<g style="fill:#000000; fill-opacity:0.0; 
stroke:#000000; stroke-width:118.11; stroke-opacity:1; 
stroke-linecap:round; stroke-linejoin:round;">
<path d="M65906 34038
L65906 34526
L66206 34263
L66206 34376
L66243 34451
L66281 34488
L66356 34526
L66543 34526
L66618 34488
L66656 34451
L66693 34376
L66693 34151
L66656 34076
L66618 34038
" />
<path d="M65906 34751
L66693 35013
L65906 35276
" />
<path d="M66956 36363
L66956 36176
L65831 36176
L65831 36363
" />
<path d="M66618 37113
L66656 37076
L66693 36963
L66693 36888
L66656 36776
L66581 36701
L66506 36663
L66356 36626
L66243 36626
L66093 36663
L66018 36701
L65943 36776
L65906 36888
L65906 36963
L65943 37076
L65981 37113
" />
<path d="M66693 37901
L66318 37638
" />
<path d="M66693 37451
L65906 37451
L65906 37751
L65943 37826
L65981 37863
L66056 37901
L66168 37901
L66243 37863
L66281 37826
L66318 37751
L66318 37451
" />
<path d="M65981 38200
L65943 38238
L65906 38313
L65906 38500
L65943 38575
L65981 38613
L66056 38650
L66131 38650
L66243 38613
L66693 38163
L66693 38650
" />
<path d="M65906 39138
L65906 39213
L65943 39288
L65981 39325
L66056 39363
L66206 39400
L66393 39400
L66543 39363
L66618 39325
L66656 39288
L66693 39213
L66693 39138
L66656 39063
L66618 39025
L66543 38988
L66393 38950
L66206 38950
L66056 38988
L65981 39025
L65943 39063
L65906 39138
" />
<path d="M65906 39663
L65906 40150
L66206 39888
L66206 40000
L66243 40075
L66281 40113
L66356 40150
L66543 40150
L66618 40113
L66656 40075
L66693 40000
L66693 39775
L66656 39700
L66618 39663
" />
<path d="M65981 40450
L65943 40488
L65906 40563
L65906 40750
L65943 40825
L65981 40863
L66056 40900
L66131 40900
L66243 40863
L66693 40413
L66693 40900
" />
<path d="M66956 41163
L66956 41350
L65831 41350
L65831 41163
" />
<path d="M56044 25321
L56082 25433
L56119 25471
L56194 25508
L56307 25508
L56382 25471
L56419 25433
L56457 25358
L56457 25058
L55669 25058
L55669 25321
L55707 25396
L55744 25433
L55819 25471
L55894 25471
L55969 25433
L56007 25396
L56044 25321
L56044 25058
" />
<path d="M55669 25733
L55669 26183
" />
<path d="M56457 25958
L55669 25958
" />
<path d="M55744 26408
L55707 26446
L55669 26521
L55669 26708
L55707 26783
L55744 26821
L55819 26858
L55894 26858
L56007 26821
L56457 26371
L56457 26858
" />
<path d="M73309 34494
L73627 34813
" />
<path d="M73468 34653
L74025 34097
L73998 34229
L73998 34335
L74025 34415
" />
<path d="M73521 33593
L73468 33540
L73389 33513
L73336 33513
L73256 33540
L73124 33619
L72991 33752
L72911 33885
L72885 33964
L72885 34017
L72911 34097
L72964 34150
L73044 34176
L73097 34176
L73177 34150
L73309 34070
L73442 33938
L73521 33805
L73548 33725
L73548 33672
L73521 33593
" />
<path d="M72991 33063
L72938 33010
L72858 32983
L72805 32983
L72726 33010
L72593 33089
L72461 33222
L72381 33354
L72355 33434
L72355 33487
L72381 33566
L72434 33619
L72514 33646
L72567 33646
L72646 33619
L72779 33540
L72911 33407
L72991 33275
L73017 33195
L73017 33142
L72991 33063
" />
<path d="M72381 32824
L72010 33195
" />
<path d="M72328 32877
L72328 32824
L72302 32745
L72222 32665
L72143 32638
L72063 32665
L71771 32957
" />
<path d="M71612 32214
L71798 32400
" />
<path d="M71506 32691
L72063 32135
L71798 31870
" />
</g>
<g style="fill:#000000; fill-opacity:0.0; 
stroke:#000000; stroke-width:62.9921; stroke-opacity:1; 
stroke-linecap:round; stroke-linejoin:round;">
<path d="M71860 34578
L71860 34604
L71887 34657
L71913 34684
L71966 34710
L72019 34710
L72059 34697
L72125 34657
L72165 34618
L72205 34551
L72218 34512
L72218 34459
L72192 34406
L72165 34379
L72112 34353
L72086 34353
" />
<path d="M71979 34246
L71979 34220
L71966 34180
L71900 34114
L71860 34101
L71834 34101
L71794 34114
L71767 34140
L71741 34193
L71741 34512
L71569 34339
" />
<path d="M71714 33981
L71714 33955
L71701 33915
L71635 33849
L71595 33836
L71569 33836
L71529 33849
L71502 33875
L71476 33928
L71476 34246
L71303 34074
" />
</g>
<g style="fill:#000000; fill-opacity:0.0; 
stroke:#000000; stroke-width:118.11; stroke-opacity:1; 
stroke-linecap:round; stroke-linejoin:round;">
<path d="M71369 32534
L71687 32853
" />
<path d="M71528 32693
L72085 32137
L72058 32269
L72058 32375
L72085 32455
" />
<path d="M71581 31633
L71528 31580
L71449 31553
L71396 31553
L71316 31580
L71184 31659
L71051 31792
L70971 31925
L70945 32004
L70945 32057
L70971 32137
L71024 32190
L71104 32216
L71157 32216
L71237 32190
L71369 32110
L71502 31978
L71581 31845
L71608 31765
L71608 31712
L71581 31633
" />
<path d="M71051 31103
L70998 31050
L70918 31023
L70865 31023
L70786 31050
L70653 31129
L70521 31262
L70441 31394
L70415 31474
L70415 31527
L70441 31606
L70494 31659
L70574 31686
L70627 31686
L70706 31659
L70839 31580
L70971 31447
L71051 31315
L71077 31235
L71077 31182
L71051 31103
" />
<path d="M70441 30864
L70070 31235
" />
<path d="M70388 30917
L70388 30864
L70362 30785
L70282 30705
L70203 30678
L70123 30705
L69831 30997
" />
<path d="M69672 30254
L69858 30440
" />
<path d="M69566 30731
L70123 30175
L69858 29910
" />
</g>
<g style="fill:#000000; fill-opacity:0.0; 
stroke:#000000; stroke-width:62.9921; stroke-opacity:1; 
stroke-linecap:round; stroke-linejoin:round;">
<path d="M69920 32618
L69920 32644
L69947 32697
L69973 32724
L70026 32750
L70079 32750
L70119 32737
L70185 32697
L70225 32658
L70265 32591
L70278 32552
L70278 32499
L70252 32446
L70225 32419
L70172 32393
L70146 32393
" />
<path d="M70039 32286
L70039 32260
L70026 32220
L69960 32154
L69920 32141
L69894 32141
L69854 32154
L69827 32180
L69801 32233
L69801 32552
L69629 32379
" />
<path d="M69363 32114
L69522 32273
" />
<path d="M69443 32194
L69721 31915
L69708 31982
L69708 32035
L69721 32074
" />
</g>
<g style="fill:#000000; fill-opacity:0.0; 
stroke:#000000; stroke-width:118.11; stroke-opacity:1; 
stroke-linecap:round; stroke-linejoin:round;">
<path d="M24769 54782
L24769 53995
L24506 54557
L24244 53995
L24244 54782
" />
<path d="M23756 54782
L23831 54745
L23869 54707
L23906 54632
L23906 54407
L23869 54332
L23831 54295
L23756 54257
L23644 54257
L23569 54295
L23532 54332
L23494 54407
L23494 54632
L23532 54707
L23569 54745
L23644 54782
L23756 54782
" />
<path d="M22819 54257
L22819 54782
" />
<path d="M23157 54257
L23157 54670
L23119 54745
L23044 54782
L22932 54782
L22857 54745
L22819 54707
" />
<path d="M22444 54257
L22444 54782
" />
<path d="M22444 54332
L22407 54295
L22332 54257
L22219 54257
L22144 54295
L22107 54370
L22107 54782
" />
<path d="M21844 54257
L21544 54257
" />
<path d="M21732 53995
L21732 54670
L21694 54745
L21619 54782
L21544 54782
" />
<path d="M21282 54782
L21282 54257
" />
<path d="M21282 53995
L21319 54032
L21282 54070
L21244 54032
L21282 53995
L21282 54070
" />
<path d="M20907 54257
L20907 54782
" />
<path d="M20907 54332
L20869 54295
L20794 54257
L20682 54257
L20607 54295
L20569 54370
L20569 54782
" />
<path d="M19857 54257
L19857 54895
L19894 54970
L19932 55007
L20007 55045
L20119 55045
L20194 55007
" />
<path d="M19857 54745
L19932 54782
L20082 54782
L20157 54745
L20194 54707
L20232 54632
L20232 54407
L20194 54332
L20157 54295
L20082 54257
L19932 54257
L19857 54295
" />
<path d="M19670 54857
L19070 54857
" />
<path d="M18882 54782
L18882 53995
" />
<path d="M18882 54370
L18432 54370
" />
<path d="M18432 54782
L18432 53995
" />
<path d="M17945 54782
L18020 54745
L18057 54707
L18095 54632
L18095 54407
L18057 54332
L18020 54295
L17945 54257
L17832 54257
L17757 54295
L17720 54332
L17682 54407
L17682 54632
L17720 54707
L17757 54745
L17832 54782
L17945 54782
" />
<path d="M17232 54782
L17307 54745
L17345 54670
L17345 53995
" />
<path d="M16632 54745
L16707 54782
L16857 54782
L16932 54745
L16970 54670
L16970 54370
L16932 54295
L16857 54257
L16707 54257
L16632 54295
L16595 54370
L16595 54445
L16970 54520
" />
<path d="M21968 57696
L21968 56908
L21706 57471
L21443 56908
L21443 57696
" />
<path d="M21068 57696
L21068 56908
" />
<path d="M20618 57696
L20956 57246
" />
<path d="M20618 56908
L21068 57358
" />
<path d="M20356 56908
L19868 56908
L20131 57208
L20018 57208
L19943 57246
L19906 57283
L19868 57358
L19868 57546
L19906 57621
L19943 57658
L20018 57696
L20243 57696
L20318 57658
L20356 57621
" />
<path d="M97769 54782
L97769 53995
L97506 54557
L97244 53995
L97244 54782
" />
<path d="M96756 54782
L96831 54745
L96869 54707
L96906 54632
L96906 54407
L96869 54332
L96831 54295
L96756 54257
L96644 54257
L96569 54295
L96532 54332
L96494 54407
L96494 54632
L96532 54707
L96569 54745
L96644 54782
L96756 54782
" />
<path d="M95819 54257
L95819 54782
" />
<path d="M96157 54257
L96157 54670
L96119 54745
L96044 54782
L95932 54782
L95857 54745
L95819 54707
" />
<path d="M95444 54257
L95444 54782
" />
<path d="M95444 54332
L95407 54295
L95332 54257
L95219 54257
L95144 54295
L95107 54370
L95107 54782
" />
<path d="M94844 54257
L94544 54257
" />
<path d="M94732 53995
L94732 54670
L94694 54745
L94619 54782
L94544 54782
" />
<path d="M94282 54782
L94282 54257
" />
<path d="M94282 53995
L94319 54032
L94282 54070
L94244 54032
L94282 53995
L94282 54070
" />
<path d="M93907 54257
L93907 54782
" />
<path d="M93907 54332
L93869 54295
L93794 54257
L93682 54257
L93607 54295
L93569 54370
L93569 54782
" />
<path d="M92857 54257
L92857 54895
L92894 54970
L92932 55007
L93007 55045
L93119 55045
L93194 55007
" />
<path d="M92857 54745
L92932 54782
L93082 54782
L93157 54745
L93194 54707
L93232 54632
L93232 54407
L93194 54332
L93157 54295
L93082 54257
L92932 54257
L92857 54295
" />
<path d="M92670 54857
L92070 54857
" />
<path d="M91882 54782
L91882 53995
" />
<path d="M91882 54370
L91432 54370
" />
<path d="M91432 54782
L91432 53995
" />
<path d="M90945 54782
L91020 54745
L91057 54707
L91095 54632
L91095 54407
L91057 54332
L91020 54295
L90945 54257
L90832 54257
L90757 54295
L90720 54332
L90682 54407
L90682 54632
L90720 54707
L90757 54745
L90832 54782
L90945 54782
" />
<path d="M90232 54782
L90307 54745
L90345 54670
L90345 53995
" />
<path d="M89632 54745
L89707 54782
L89857 54782
L89932 54745
L89970 54670
L89970 54370
L89932 54295
L89857 54257
L89707 54257
L89632 54295
L89595 54370
L89595 54445
L89970 54520
" />
<path d="M94968 57696
L94968 56908
L94706 57471
L94443 56908
L94443 57696
" />
<path d="M94068 57696
L94068 56908
" />
<path d="M93618 57696
L93956 57246
" />
<path d="M93618 56908
L94068 57358
" />
<path d="M92943 57171
L92943 57696
" />
<path d="M93131 56871
L93318 57433
L92831 57433
" />
<g >
</g>
</g> 
</svg>
