<?xml version="1.0" standalone="no"?>
 <!DOCTYPE svg PUBLIC "-//W3C//DTD SVG 1.1//EN" 
 "http://www.w3.org/Graphics/SVG/1.1/DTD/svg11.dtd"> 
<svg xmlns="http://www.w3.org/2000/svg" version="1.1" 
    width="29.7002cm" height="21.0007cm" viewBox="0 0 116930 82680 ">
<title>SVG Picture created as ThermocoupleLogger-B_Mask.svg date 2019/03/28 17:00:02 </title>
  <desc>Picture generated by PCBNEW </desc>
<g style="fill:#000000; fill-opacity:1;stroke:#000000; stroke-opacity:1;
stroke-linecap:round; stroke-linejoin:round; "
 transform="translate(0 0) scale(1 1)">
</g>
<g style="fill:#000000; fill-opacity:0.0; 
stroke:#000000; stroke-width:-0.000787402; stroke-opacity:1; 
stroke-linecap:round; stroke-linejoin:round;">
</g>
<g style="fill:#000000; fill-opacity:0.0; 
stroke:#000000; stroke-width:157.48; stroke-opacity:1; 
stroke-linecap:round; stroke-linejoin:round;">
<path d="M96701 62899
L96701 67324
" />
<path d="M17901 67332
L96697 67332
" />
<path d="M30622 21607
L17905 21607
" />
<path d="M17901 62940
L17901 67340
" />
<path d="M83861 62900
L65621 62900
" />
<path d="M87591 62900
L96701 62900
" />
<path d="M87551 60900
L96641 60900
" />
<path d="M65621 60900
L83861 60900
" />
<path d="M61984 62909
L24624 62909
" />
<path d="M24631 60910
L61991 60910
" />
<path d="M21001 60920
L17901 60920
" />
<path d="M20971 62920
L17897 62938
" />
<path d="M20971.1 62920 A1000.2 1000.2 0.0 0 0 20993.7 60920.7 " />
<path d="M24641.1 60910 A1000 1000 0.0 0 0 24624.5 62909.9 " />
<path d="M61971.1 62910 A1000 1000 0.0 0 0 61992.4 60910.2 " />
<path d="M65621.1 60900 A1000.2 1000.2 0.0 1 0 65622.9 62900 " />
<path d="M83851.1 62900 A1000.2 1000.2 0.0 1 0 83871.1 60899.8 " />
<path d="M87541.9 60900 A1000.2 1000.2 0.0 0 0 87581.1 62900 " />
<path d="M91501.1 19540 A1000.8 1000.8 0.0 0 0 91541.1 21540.8 " />
<path d="M55281.1 21580 A1000.8 1000.8 0.0 1 0 55281.1 19580 " />
<path d="M17861 19560
L17861 19560
" />
<path d="M30621 19560
L17861 19560
" />
<path d="M34281 21580
L55281 21580
" />
<path d="M55261 19580
L34301 19580
" />
<path d="M30621.1 21600 A1020 1020 0.0 0 0 30621.1 19560 " />
<path d="M34301.1 19580 A1000.2 1000.2 0.0 1 0 34281.1 21580.2 " />
<path d="M87881 21570
L59051 21570
" />
<path d="M58901 19590
L87911 19590
" />
<path d="M58981.1 19580 A990.202 990.202 0.0 0 0 59021.1 21560 " />
<path d="M91551 21544
L96638 21552
" />
<path d="M96601 19540
L91501 19540
" />
<path d="M96601 14340
L96601 19540
" />
<path d="M87881.1 21580 A996 996 0.0 0 0 87889.2 19588 " />
<path d="M17861 14320
L96590 14324
" />
<path d="M17861 19560
L17861 14320
" />
<path d="M17901 60920
L17901 21610
" />
<path d="M96641 60900
L96641 21569
" />
</g>
<g style="fill:#000000; fill-opacity:1.0; 
stroke:#000000; stroke-width:0; stroke-opacity:1; 
stroke-linecap:round; stroke-linejoin:round;">
<path style="fill:#000000; fill-opacity:1.0; 
stroke:#000000; stroke-width:0; stroke-opacity:1; 
stroke-linecap:round; stroke-linejoin:round;fill-rule:evenodd;"
d="M 90972,62881
91151,62955
91151,62955
91312,63063
91449,63200
91557,63361
91631,63541
91669,63731
91669,63925
91631,64115
91557,64294
91557,64294
91449,64455
91312,64592
91151,64700
91151,64700
91151,64700
90972,64774
90782,64812
90588,64812
90398,64774
90219,64700
90219,64700
90219,64700
90057,64592
89920,64455
89813,64294
89813,64294
89738,64115
89701,63925
89701,63731
89738,63541
89813,63361
89920,63200
90057,63063
90219,62955
90219,62955
90398,62881
90588,62843
90782,62843
90972,62881
Z" /> 
<path style="fill:#000000; fill-opacity:1.0; 
stroke:#000000; stroke-width:0; stroke-opacity:1; 
stroke-linecap:round; stroke-linejoin:round;fill-rule:evenodd;"
d="M 27980,62881
28159,62955
28159,62955
28320,63063
28457,63200
28565,63361
28639,63541
28677,63731
28677,63925
28639,64115
28565,64294
28565,64294
28457,64455
28320,64592
28159,64700
28159,64700
28159,64700
27980,64774
27790,64812
27596,64812
27406,64774
27227,64700
27227,64700
27227,64700
27065,64592
26928,64455
26821,64294
26821,64294
26746,64115
26709,63925
26709,63731
26746,63541
26821,63361
26928,63200
27065,63063
27227,62955
27227,62955
27406,62881
27596,62843
27790,62843
27980,62881
Z" /> 
<path style="fill:#000000; fill-opacity:1.0; 
stroke:#000000; stroke-width:0; stroke-opacity:1; 
stroke-linecap:round; stroke-linejoin:round;fill-rule:evenodd;"
d="M 94321,55295
94675,55442
94708,55455
95056,55688
95352,55984
95394,56048
95585,56332
95745,56719
95827,57130
95827,57549
95745,57960
95618,58266
95585,58347
95352,58695
95056,58991
94708,59224
94708,59224
94708,59224
94321,59384
93910,59465
93491,59465
93081,59384
92694,59224
92694,59224
92694,59224
92345,58991
92049,58695
91817,58347
91783,58266
91656,57960
91575,57549
91575,57130
91656,56719
91817,56332
92007,56048
92049,55984
92345,55688
92694,55455
92726,55442
93081,55295
93491,55214
93910,55214
94321,55295
Z" /> 
<path style="fill:#000000; fill-opacity:1.0; 
stroke:#000000; stroke-width:0; stroke-opacity:1; 
stroke-linecap:round; stroke-linejoin:round;fill-rule:evenodd;"
d="M 21321,55295
21675,55442
21708,55455
22056,55688
22352,55984
22394,56048
22585,56332
22745,56719
22827,57130
22827,57549
22745,57960
22618,58266
22585,58347
22352,58695
22056,58991
21708,59224
21708,59224
21708,59224
21321,59384
20910,59465
20491,59465
20081,59384
19694,59224
19694,59224
19694,59224
19345,58991
19049,58695
18817,58347
18783,58266
18656,57960
18575,57549
18575,57130
18656,56719
18817,56332
19007,56048
19049,55984
19345,55688
19694,55455
19726,55442
20081,55295
20491,55214
20910,55214
21321,55295
Z" /> 
<path style="fill:#000000; fill-opacity:1.0; 
stroke:#000000; stroke-width:0; stroke-opacity:1; 
stroke-linecap:round; stroke-linejoin:round;fill-rule:evenodd;"
d="M 31945,51473
31969,51480
31991,51492
32010,51508
32026,51527
32038,51549
32045,51573
32048,51602
32048,52677
32045,52706
32038,52730
32026,52752
32010,52771
31991,52787
31969,52799
31945,52806
31916,52809
30605,52809
30576,52806
30552,52799
30530,52787
30511,52771
30495,52752
30483,52730
30476,52706
30473,52677
30473,51602
30476,51573
30483,51549
30495,51527
30511,51508
30530,51492
30552,51480
30576,51473
30605,51470
31916,51470
31945,51473
Z" /> 
<path style="fill:#000000; fill-opacity:1.0; 
stroke:#000000; stroke-width:0; stroke-opacity:1; 
stroke-linecap:round; stroke-linejoin:round;fill-rule:evenodd;"
d="M 39145,51473
39169,51480
39191,51492
39210,51508
39226,51527
39238,51549
39245,51573
39248,51602
39248,52677
39245,52706
39238,52730
39226,52752
39210,52771
39191,52787
39169,52799
39145,52806
39116,52809
37805,52809
37776,52806
37752,52799
37730,52787
37711,52771
37695,52752
37683,52730
37676,52706
37673,52677
37673,51602
37676,51573
37683,51549
37695,51527
37711,51508
37730,51492
37752,51480
37776,51473
37805,51470
39116,51470
39145,51473
Z" /> 
<path style="fill:#000000; fill-opacity:1.0; 
stroke:#000000; stroke-width:0; stroke-opacity:1; 
stroke-linecap:round; stroke-linejoin:round;fill-rule:evenodd;"
d="M 24745,51442
24769,51449
24791,51461
24810,51476
24826,51496
24838,51518
24845,51541
24848,51571
24848,52645
24845,52675
24838,52698
24826,52720
24810,52740
24791,52755
24769,52767
24745,52774
24716,52777
23405,52777
23376,52774
23352,52767
23330,52755
23311,52740
23295,52720
23283,52698
23276,52675
23273,52645
23273,51571
23276,51541
23283,51518
23295,51496
23311,51476
23330,51461
23352,51449
23376,51442
23405,51439
24716,51439
24745,51442
Z" /> 
<path style="fill:#000000; fill-opacity:1.0; 
stroke:#000000; stroke-width:0; stroke-opacity:1; 
stroke-linecap:round; stroke-linejoin:round;fill-rule:evenodd;"
d="M 46285,51422
46309,51429
46331,51441
46350,51456
46366,51476
46378,51498
46385,51521
46388,51551
46388,52625
46385,52655
46378,52678
46366,52700
46350,52720
46331,52735
46309,52747
46285,52754
46256,52757
44945,52757
44916,52754
44892,52747
44870,52735
44851,52720
44835,52700
44823,52678
44816,52655
44813,52625
44813,51551
44816,51521
44823,51498
44835,51476
44851,51456
44870,51441
44892,51429
44916,51422
44945,51419
46256,51419
46285,51422
Z" /> 
<path style="fill:#000000; fill-opacity:1.0; 
stroke:#000000; stroke-width:0; stroke-opacity:1; 
stroke-linecap:round; stroke-linejoin:round;fill-rule:evenodd;"
d="M 75805,51333
75829,51340
75851,51352
75870,51368
75886,51387
75898,51409
75905,51433
75908,51462
75908,52537
75905,52566
75898,52590
75886,52612
75870,52631
75851,52647
75829,52659
75805,52666
75776,52669
74465,52669
74436,52666
74412,52659
74390,52647
74371,52631
74355,52612
74343,52590
74336,52566
74333,52537
74333,51462
74336,51433
74343,51409
74355,51387
74371,51368
74390,51352
74412,51340
74436,51333
74465,51330
75776,51330
75805,51333
Z" /> 
<path style="fill:#000000; fill-opacity:1.0; 
stroke:#000000; stroke-width:0; stroke-opacity:1; 
stroke-linecap:round; stroke-linejoin:round;fill-rule:evenodd;"
d="M 68585,51073
68609,51080
68631,51092
68650,51108
68666,51127
68678,51149
68685,51173
68688,51202
68688,52277
68685,52306
68678,52330
68666,52352
68650,52371
68631,52387
68609,52399
68585,52406
68556,52409
67245,52409
67216,52406
67192,52399
67170,52387
67151,52371
67135,52352
67123,52330
67116,52306
67113,52277
67113,51202
67116,51173
67123,51149
67135,51127
67151,51108
67170,51092
67192,51080
67216,51073
67245,51070
68556,51070
68585,51073
Z" /> 
<path style="fill:#000000; fill-opacity:1.0; 
stroke:#000000; stroke-width:0; stroke-opacity:1; 
stroke-linecap:round; stroke-linejoin:round;fill-rule:evenodd;"
d="M 82985,51073
83009,51080
83031,51092
83050,51108
83066,51127
83078,51149
83085,51173
83088,51202
83088,52277
83085,52306
83078,52330
83066,52352
83050,52371
83031,52387
83009,52399
82985,52406
82956,52409
81645,52409
81616,52406
81592,52399
81570,52387
81551,52371
81535,52352
81523,52330
81516,52306
81513,52277
81513,51202
81516,51173
81523,51149
81535,51127
81551,51108
81570,51092
81592,51080
81616,51073
81645,51070
82956,51070
82985,51073
Z" /> 
<path style="fill:#000000; fill-opacity:1.0; 
stroke:#000000; stroke-width:0; stroke-opacity:1; 
stroke-linecap:round; stroke-linejoin:round;fill-rule:evenodd;"
d="M 90185,51073
90209,51080
90231,51092
90250,51108
90266,51127
90278,51149
90285,51173
90288,51202
90288,52277
90285,52306
90278,52330
90266,52352
90250,52371
90231,52387
90209,52399
90185,52406
90156,52409
88845,52409
88816,52406
88792,52399
88770,52387
88751,52371
88735,52352
88723,52330
88716,52306
88713,52277
88713,51202
88716,51173
88723,51149
88735,51127
88751,51108
88770,51092
88792,51080
88816,51073
88845,51070
90156,51070
90185,51073
Z" /> 
<path style="fill:#000000; fill-opacity:1.0; 
stroke:#000000; stroke-width:0; stroke-opacity:1; 
stroke-linecap:round; stroke-linejoin:round;fill-rule:evenodd;"
d="M 38710,49511
38773,49531
38836,49550
38836,49550
38952,49612
39054,49695
39138,49797
39200,49914
39238,50040
39251,50171
39238,50302
39219,50365
39210,50397
39200,50428
39138,50545
39054,50647
38952,50730
38895,50761
38836,50792
38773,50811
38710,50831
38612,50840
38310,50840
38211,50831
38148,50811
38085,50792
38026,50761
37969,50730
37867,50647
37783,50545
37721,50428
37712,50397
37702,50365
37683,50302
37670,50171
37683,50040
37721,49914
37783,49797
37867,49695
37969,49612
38085,49550
38085,49550
38148,49531
38211,49511
38310,49502
38612,49502
38710,49511
Z" /> 
<path style="fill:#000000; fill-opacity:1.0; 
stroke:#000000; stroke-width:0; stroke-opacity:1; 
stroke-linecap:round; stroke-linejoin:round;fill-rule:evenodd;"
d="M 31510,49511
31573,49531
31636,49550
31636,49550
31752,49612
31854,49695
31938,49797
32000,49914
32038,50040
32051,50171
32038,50302
32019,50365
32010,50397
32000,50428
31938,50545
31854,50647
31752,50730
31695,50761
31636,50792
31573,50811
31510,50831
31412,50840
31110,50840
31011,50831
30948,50811
30885,50792
30826,50761
30769,50730
30667,50647
30583,50545
30521,50428
30512,50397
30502,50365
30483,50302
30470,50171
30483,50040
30521,49914
30583,49797
30667,49695
30769,49612
30885,49550
30885,49550
30948,49531
31011,49511
31110,49502
31412,49502
31510,49511
Z" /> 
<path style="fill:#000000; fill-opacity:1.0; 
stroke:#000000; stroke-width:0; stroke-opacity:1; 
stroke-linecap:round; stroke-linejoin:round;fill-rule:evenodd;"
d="M 24310,49480
24370,49498
24436,49518
24436,49518
24552,49580
24654,49664
24738,49766
24789,49862
24800,49882
24819,49945
24838,50008
24851,50140
24838,50271
24820,50330
24801,50392
24800,50397
24738,50513
24654,50615
24552,50699
24436,50761
24436,50761
24376,50779
24310,50799
24212,50809
23910,50809
23811,50799
23745,50779
23685,50761
23685,50761
23569,50699
23467,50615
23383,50513
23321,50397
23320,50392
23301,50330
23283,50271
23270,50140
23283,50008
23302,49945
23321,49882
23332,49862
23383,49766
23467,49664
23569,49580
23685,49518
23685,49518
23751,49498
23811,49480
23910,49470
24212,49470
24310,49480
Z" /> 
<path style="fill:#000000; fill-opacity:1.0; 
stroke:#000000; stroke-width:0; stroke-opacity:1; 
stroke-linecap:round; stroke-linejoin:round;fill-rule:evenodd;"
d="M 45850,49460
45889,49472
45976,49498
45976,49498
46092,49560
46194,49644
46278,49746
46305,49797
46340,49862
46352,49902
46378,49988
46391,50120
46378,50251
46340,50377
46278,50493
46194,50595
46092,50679
45996,50730
45976,50741
45913,50760
45850,50779
45752,50789
45450,50789
45351,50779
45288,50760
45225,50741
45205,50730
45109,50679
45007,50595
44923,50493
44861,50377
44823,50251
44810,50120
44823,49988
44849,49902
44861,49862
44896,49797
44923,49746
45007,49644
45109,49560
45225,49498
45225,49498
45312,49472
45351,49460
45450,49450
45752,49450
45850,49460
Z" /> 
<path style="fill:#000000; fill-opacity:1.0; 
stroke:#000000; stroke-width:0; stroke-opacity:1; 
stroke-linecap:round; stroke-linejoin:round;fill-rule:evenodd;"
d="M 75370,49371
75433,49391
75496,49410
75496,49410
75612,49472
75714,49555
75798,49657
75860,49774
75898,49900
75911,50031
75898,50162
75879,50225
75865,50271
75860,50288
75798,50405
75714,50507
75612,50590
75566,50615
75496,50652
75433,50671
75370,50691
75272,50700
74970,50700
74871,50691
74808,50671
74745,50652
74675,50615
74629,50590
74527,50507
74443,50405
74381,50288
74376,50271
74362,50225
74343,50162
74330,50031
74343,49900
74381,49774
74443,49657
74527,49555
74629,49472
74745,49410
74745,49410
74808,49391
74871,49371
74970,49362
75272,49362
75370,49371
Z" /> 
<path style="fill:#000000; fill-opacity:1.0; 
stroke:#000000; stroke-width:0; stroke-opacity:1; 
stroke-linecap:round; stroke-linejoin:round;fill-rule:evenodd;"
d="M 82550,49111
82613,49131
82676,49150
82676,49150
82792,49212
82894,49295
82978,49397
83011,49460
83040,49514
83053,49555
83078,49640
83091,49771
83078,49902
83075,49914
83046,50008
83040,50028
82978,50145
82894,50247
82792,50330
82676,50392
82676,50392
82636,50405
82550,50431
82452,50440
82150,50440
82051,50431
81966,50405
81925,50392
81925,50392
81809,50330
81707,50247
81623,50145
81561,50028
81555,50008
81526,49914
81523,49902
81510,49771
81523,49640
81548,49555
81561,49514
81590,49460
81623,49397
81707,49295
81809,49212
81925,49150
81925,49150
81988,49131
82051,49111
82150,49102
82452,49102
82550,49111
Z" /> 
<path style="fill:#000000; fill-opacity:1.0; 
stroke:#000000; stroke-width:0; stroke-opacity:1; 
stroke-linecap:round; stroke-linejoin:round;fill-rule:evenodd;"
d="M 89750,49111
89813,49131
89876,49150
89876,49150
89992,49212
90094,49295
90178,49397
90211,49460
90240,49514
90253,49555
90278,49640
90291,49771
90278,49902
90275,49914
90246,50008
90240,50028
90178,50145
90094,50247
89992,50330
89876,50392
89876,50392
89836,50405
89750,50431
89652,50440
89350,50440
89251,50431
89166,50405
89125,50392
89125,50392
89009,50330
88907,50247
88823,50145
88761,50028
88755,50008
88726,49914
88723,49902
88710,49771
88723,49640
88748,49555
88761,49514
88790,49460
88823,49397
88907,49295
89009,49212
89125,49150
89125,49150
89188,49131
89251,49111
89350,49102
89652,49102
89750,49111
Z" /> 
<path style="fill:#000000; fill-opacity:1.0; 
stroke:#000000; stroke-width:0; stroke-opacity:1; 
stroke-linecap:round; stroke-linejoin:round;fill-rule:evenodd;"
d="M 68150,49111
68213,49131
68276,49150
68276,49150
68392,49212
68494,49295
68578,49397
68611,49460
68640,49514
68653,49555
68678,49640
68691,49771
68678,49902
68675,49914
68646,50008
68640,50028
68578,50145
68494,50247
68392,50330
68276,50392
68276,50392
68236,50405
68150,50431
68052,50440
67750,50440
67651,50431
67566,50405
67525,50392
67525,50392
67409,50330
67307,50247
67223,50145
67161,50028
67155,50008
67126,49914
67123,49902
67110,49771
67123,49640
67148,49555
67161,49514
67190,49460
67223,49397
67307,49295
67409,49212
67525,49150
67525,49150
67588,49131
67651,49111
67750,49102
68052,49102
68150,49111
Z" /> 
<path style="fill:#000000; fill-opacity:1.0; 
stroke:#000000; stroke-width:0; stroke-opacity:1; 
stroke-linecap:round; stroke-linejoin:round;fill-rule:evenodd;"
d="M 86692,42600
86752,42618
86818,42638
86818,42638
86934,42700
87036,42784
87120,42886
87182,43002
87220,43128
87233,43260
87220,43391
87182,43517
87120,43633
87036,43735
86934,43819
86818,43881
86818,43881
86758,43899
86692,43919
86594,43929
86528,43929
86429,43919
86363,43899
86303,43881
86303,43881
86187,43819
86085,43735
86001,43633
85939,43517
85901,43391
85888,43260
85901,43128
85939,43002
86001,42886
86085,42784
86187,42700
86303,42638
86303,42638
86369,42618
86429,42600
86528,42590
86594,42590
86692,42600
Z" /> 
<path style="fill:#000000; fill-opacity:1.0; 
stroke:#000000; stroke-width:0; stroke-opacity:1; 
stroke-linecap:round; stroke-linejoin:round;fill-rule:evenodd;"
d="M 84692,42600
84752,42618
84818,42638
84818,42638
84934,42700
85036,42784
85120,42886
85182,43002
85220,43128
85233,43260
85220,43391
85182,43517
85120,43633
85036,43735
84934,43819
84818,43881
84818,43881
84758,43899
84692,43919
84594,43929
84528,43929
84429,43919
84363,43899
84303,43881
84303,43881
84187,43819
84085,43735
84001,43633
83939,43517
83901,43391
83888,43260
83901,43128
83939,43002
84001,42886
84085,42784
84187,42700
84303,42638
84303,42638
84369,42618
84429,42600
84528,42590
84594,42590
84692,42600
Z" /> 
<path style="fill:#000000; fill-opacity:1.0; 
stroke:#000000; stroke-width:0; stroke-opacity:1; 
stroke-linecap:round; stroke-linejoin:round;fill-rule:evenodd;"
d="M 82692,42600
82752,42618
82818,42638
82818,42638
82934,42700
83036,42784
83120,42886
83182,43002
83220,43128
83233,43260
83220,43391
83182,43517
83120,43633
83036,43735
82934,43819
82818,43881
82818,43881
82758,43899
82692,43919
82594,43929
82528,43929
82429,43919
82363,43899
82303,43881
82303,43881
82187,43819
82085,43735
82001,43633
81939,43517
81901,43391
81888,43260
81901,43128
81939,43002
82001,42886
82085,42784
82187,42700
82303,42638
82303,42638
82369,42618
82429,42600
82528,42590
82594,42590
82692,42600
Z" /> 
<path style="fill:#000000; fill-opacity:1.0; 
stroke:#000000; stroke-width:0; stroke-opacity:1; 
stroke-linecap:round; stroke-linejoin:round;fill-rule:evenodd;"
d="M 80692,42600
80752,42618
80818,42638
80818,42638
80934,42700
81036,42784
81120,42886
81182,43002
81220,43128
81233,43260
81220,43391
81182,43517
81120,43633
81036,43735
80934,43819
80818,43881
80818,43881
80758,43899
80692,43919
80594,43929
80528,43929
80429,43919
80363,43899
80303,43881
80303,43881
80187,43819
80085,43735
80001,43633
79939,43517
79901,43391
79888,43260
79901,43128
79939,43002
80001,42886
80085,42784
80187,42700
80303,42638
80303,42638
80369,42618
80429,42600
80528,42590
80594,42590
80692,42600
Z" /> 
<path style="fill:#000000; fill-opacity:1.0; 
stroke:#000000; stroke-width:0; stroke-opacity:1; 
stroke-linecap:round; stroke-linejoin:round;fill-rule:evenodd;"
d="M 79230,43929
77891,43929
77891,42590
79230,42590
79230,43929
Z" /> 
<path style="fill:#000000; fill-opacity:1.0; 
stroke:#000000; stroke-width:0; stroke-opacity:1; 
stroke-linecap:round; stroke-linejoin:round;fill-rule:evenodd;"
d="M 71470,43909
70131,43909
70131,42570
71470,42570
71470,43909
Z" /> 
<path style="fill:#000000; fill-opacity:1.0; 
stroke:#000000; stroke-width:0; stroke-opacity:1; 
stroke-linecap:round; stroke-linejoin:round;fill-rule:evenodd;"
d="M 74932,42580
74966,42590
75058,42618
75058,42618
75174,42680
75276,42764
75360,42866
75422,42982
75460,43108
75473,43240
75460,43371
75422,43497
75360,43613
75276,43715
75174,43799
75137,43819
75058,43861
74995,43880
74932,43899
74834,43909
74768,43909
74669,43899
74606,43880
74543,43861
74464,43819
74427,43799
74325,43715
74241,43613
74179,43497
74141,43371
74128,43240
74141,43108
74179,42982
74241,42866
74325,42764
74427,42680
74543,42618
74543,42618
74635,42590
74669,42580
74768,42570
74834,42570
74932,42580
Z" /> 
<path style="fill:#000000; fill-opacity:1.0; 
stroke:#000000; stroke-width:0; stroke-opacity:1; 
stroke-linecap:round; stroke-linejoin:round;fill-rule:evenodd;"
d="M 72932,42580
72966,42590
73058,42618
73058,42618
73174,42680
73276,42764
73360,42866
73422,42982
73460,43108
73473,43240
73460,43371
73422,43497
73360,43613
73276,43715
73174,43799
73137,43819
73058,43861
72995,43880
72932,43899
72834,43909
72768,43909
72669,43899
72606,43880
72543,43861
72464,43819
72427,43799
72325,43715
72241,43613
72179,43497
72141,43371
72128,43240
72141,43108
72179,42982
72241,42866
72325,42764
72427,42680
72543,42618
72543,42618
72635,42590
72669,42580
72768,42570
72834,42570
72932,42580
Z" /> 
<path style="fill:#000000; fill-opacity:1.0; 
stroke:#000000; stroke-width:0; stroke-opacity:1; 
stroke-linecap:round; stroke-linejoin:round;fill-rule:evenodd;"
d="M 56445,40938
56660,41027
56660,41027
56757,41092
56854,41156
57018,41320
57147,41514
57236,41729
57282,41957
57282,42190
57236,42418
57165,42590
57147,42633
57102,42700
57046,42784
57018,42826
56854,42991
56660,43120
56660,43120
56660,43120
56445,43209
56217,43254
55984,43254
55756,43209
55541,43120
55541,43120
55541,43120
55348,42991
55183,42826
55155,42784
55099,42700
55054,42633
55036,42590
54965,42418
54920,42190
54920,41957
54965,41729
55054,41514
55183,41320
55348,41156
55444,41092
55541,41027
55541,41027
55756,40938
55984,40892
56217,40892
56445,40938
Z" /> 
<path style="fill:#000000; fill-opacity:1.0; 
stroke:#000000; stroke-width:0; stroke-opacity:1; 
stroke-linecap:round; stroke-linejoin:round;fill-rule:evenodd;"
d="M 41116,39172
41166,39182
41310,39242
41439,39328
41548,39438
41634,39567
41694,39710
41724,39862
41724,40017
41694,40169
41634,40312
41548,40441
41439,40551
41310,40637
41166,40697
41116,40707
41014,40727
40859,40727
40758,40707
40707,40697
40564,40637
40435,40551
40325,40441
40239,40312
40179,40169
40149,40017
40149,39862
40179,39710
40239,39567
40325,39438
40435,39328
40564,39242
40707,39182
40758,39172
40859,39152
41014,39152
41116,39172
Z" /> 
<path style="fill:#000000; fill-opacity:1.0; 
stroke:#000000; stroke-width:0; stroke-opacity:1; 
stroke-linecap:round; stroke-linejoin:round;fill-rule:evenodd;"
d="M 44659,39172
44710,39182
44853,39242
44982,39328
45092,39438
45178,39567
45237,39710
45267,39862
45267,40017
45237,40169
45178,40312
45092,40441
44982,40551
44853,40637
44710,40697
44659,40707
44557,40727
44402,40727
44301,40707
44250,40697
44107,40637
43978,40551
43868,40441
43782,40312
43723,40169
43693,40017
43693,39862
43723,39710
43782,39567
43868,39438
43978,39328
44107,39242
44250,39182
44301,39172
44402,39152
44557,39152
44659,39172
Z" /> 
<path style="fill:#000000; fill-opacity:1.0; 
stroke:#000000; stroke-width:0; stroke-opacity:1; 
stroke-linecap:round; stroke-linejoin:round;fill-rule:evenodd;"
d="M 37025,37402
37049,37409
37071,37421
37090,37436
37106,37456
37118,37478
37125,37501
37128,37531
37128,38605
37125,38635
37118,38658
37106,38680
37090,38700
37071,38715
37049,38727
37025,38734
36996,38737
35685,38737
35656,38734
35632,38727
35610,38715
35591,38700
35575,38680
35563,38658
35556,38635
35553,38605
35553,37531
35556,37501
35563,37478
35575,37456
35591,37436
35610,37421
35632,37409
35656,37402
35685,37399
36996,37399
37025,37402
Z" /> 
<path style="fill:#000000; fill-opacity:1.0; 
stroke:#000000; stroke-width:0; stroke-opacity:1; 
stroke-linecap:round; stroke-linejoin:round;fill-rule:evenodd;"
d="M 36590,35440
36653,35459
36716,35478
36716,35478
36832,35540
36934,35624
37018,35726
37080,35842
37118,35968
37131,36100
37118,36231
37080,36357
37018,36473
36934,36575
36832,36659
36716,36721
36716,36721
36653,36740
36590,36759
36492,36769
36190,36769
36091,36759
36028,36740
35965,36721
35965,36721
35849,36659
35747,36575
35663,36473
35601,36357
35563,36231
35550,36100
35563,35968
35601,35842
35663,35726
35747,35624
35849,35540
35965,35478
35965,35478
36028,35459
36091,35440
36190,35430
36492,35430
36590,35440
Z" /> 
<path style="fill:#000000; fill-opacity:1.0; 
stroke:#000000; stroke-width:0; stroke-opacity:1; 
stroke-linecap:round; stroke-linejoin:round;fill-rule:evenodd;"
d="M 41116,34054
41166,34064
41310,34124
41439,34210
41548,34319
41634,34448
41684,34567
41694,34592
41724,34744
41724,34899
41716,34940
41694,35051
41634,35194
41548,35323
41439,35433
41310,35519
41166,35579
41116,35589
41014,35609
40859,35609
40758,35589
40707,35579
40564,35519
40435,35433
40325,35323
40239,35194
40179,35051
40157,34940
40149,34899
40149,34744
40179,34592
40190,34567
40239,34448
40325,34319
40435,34210
40564,34124
40707,34064
40758,34054
40859,34034
41014,34034
41116,34054
Z" /> 
<path style="fill:#000000; fill-opacity:1.0; 
stroke:#000000; stroke-width:0; stroke-opacity:1; 
stroke-linecap:round; stroke-linejoin:round;fill-rule:evenodd;"
d="M 44659,34054
44710,34064
44853,34124
44982,34210
45092,34319
45178,34448
45227,34567
45237,34592
45267,34744
45267,34899
45259,34940
45237,35051
45178,35194
45092,35323
44982,35433
44853,35519
44710,35579
44659,35589
44557,35609
44402,35609
44301,35589
44250,35579
44107,35519
43978,35433
43868,35323
43782,35194
43723,35051
43701,34940
43693,34899
43693,34744
43723,34592
43733,34567
43782,34448
43868,34319
43978,34210
44107,34124
44250,34064
44301,34054
44402,34034
44557,34034
44659,34054
Z" /> 
<path style="fill:#000000; fill-opacity:1.0; 
stroke:#000000; stroke-width:0; stroke-opacity:1; 
stroke-linecap:round; stroke-linejoin:round;fill-rule:evenodd;"
d="M 72449,34223
72475,34231
72500,34244
72525,34265
72859,34599
72880,34624
72893,34649
72901,34675
72904,34703
72901,34731
72893,34758
72880,34782
72859,34807
72289,35378
72263,35399
72239,35412
72212,35420
72184,35423
72157,35420
72130,35412
72105,35399
72080,35378
71746,35044
71725,35019
71712,34994
71704,34968
71701,34940
71704,34912
71712,34885
71725,34861
71746,34835
72317,34265
72342,34244
72366,34231
72393,34223
72421,34220
72449,34223
Z" /> 
<path style="fill:#000000; fill-opacity:1.0; 
stroke:#000000; stroke-width:0; stroke-opacity:1; 
stroke-linecap:round; stroke-linejoin:round;fill-rule:evenodd;"
d="M 28469,34273
28573,34305
28669,34356
28753,34425
28821,34508
28873,34604
28904,34708
28915,34816
28904,34924
28873,35028
28821,35124
28753,35208
28669,35277
28573,35328
28469,35359
28388,35367
27232,35367
27151,35359
27047,35328
26951,35277
26867,35208
26798,35124
26747,35028
26715,34924
26705,34816
26715,34708
26747,34604
26798,34508
26867,34425
26951,34356
27047,34305
27151,34273
27232,34265
28388,34265
28469,34273
Z" /> 
<path style="fill:#000000; fill-opacity:1.0; 
stroke:#000000; stroke-width:0; stroke-opacity:1; 
stroke-linecap:round; stroke-linejoin:round;fill-rule:evenodd;"
d="M 71405,33179
71431,33187
71456,33200
71481,33221
71815,33555
71836,33580
71849,33605
71857,33631
71860,33659
71857,33687
71849,33714
71836,33738
71815,33764
71245,34334
71219,34355
71195,34368
71168,34376
71140,34379
71113,34376
71086,34368
71061,34355
71036,34334
70702,34000
70681,33975
70668,33950
70660,33924
70657,33896
70660,33868
70668,33841
70681,33817
70702,33792
71273,33221
71298,33200
71323,33187
71349,33179
71377,33176
71405,33179
Z" /> 
<path style="fill:#000000; fill-opacity:1.0; 
stroke:#000000; stroke-width:0; stroke-opacity:1; 
stroke-linecap:round; stroke-linejoin:round;fill-rule:evenodd;"
d="M 21407,32658
21435,32670
21536,32711
21652,32789
21751,32888
21788,32942
21829,33004
21882,33133
21909,33270
21909,33409
21882,33546
21835,33659
21829,33675
21751,33791
21652,33890
21536,33968
21536,33968
21536,33968
21407,34021
21270,34048
21131,34048
20994,34021
20865,33968
20865,33968
20865,33968
20749,33890
20650,33791
20573,33675
20566,33659
20519,33546
20492,33409
20492,33270
20519,33133
20573,33004
20614,32942
20650,32888
20749,32789
20865,32711
20966,32670
20994,32658
21131,32631
21270,32631
21407,32658
Z" /> 
<path style="fill:#000000; fill-opacity:1.0; 
stroke:#000000; stroke-width:0; stroke-opacity:1; 
stroke-linecap:round; stroke-linejoin:round;fill-rule:evenodd;"
d="M 19909,34048
18492,34048
18492,32631
19909,32631
19909,34048
Z" /> 
<path style="fill:#000000; fill-opacity:1.0; 
stroke:#000000; stroke-width:0; stroke-opacity:1; 
stroke-linecap:round; stroke-linejoin:round;fill-rule:evenodd;"
d="M 23407,32658
23435,32670
23536,32711
23652,32789
23751,32888
23788,32942
23829,33004
23882,33133
23909,33270
23909,33409
23882,33546
23835,33659
23829,33675
23751,33791
23652,33890
23536,33968
23536,33968
23536,33968
23407,34021
23270,34048
23131,34048
22994,34021
22865,33968
22865,33968
22865,33968
22749,33890
22650,33791
22573,33675
22566,33659
22519,33546
22492,33409
22492,33270
22519,33133
22573,33004
22614,32942
22650,32888
22749,32789
22865,32711
22966,32670
22994,32658
23131,32631
23270,32631
23407,32658
Z" /> 
<path style="fill:#000000; fill-opacity:1.0; 
stroke:#000000; stroke-width:0; stroke-opacity:1; 
stroke-linecap:round; stroke-linejoin:round;fill-rule:evenodd;"
d="M 25477,31438
25581,31470
25677,31521
25760,31590
25829,31674
25881,31770
25912,31873
25920,31954
25920,33111
25912,33192
25881,33296
25829,33392
25760,33476
25677,33544
25581,33596
25477,33627
25369,33638
25261,33627
25157,33596
25061,33544
24977,33476
24908,33392
24857,33296
24826,33192
24818,33111
24818,31954
24826,31873
24857,31770
24908,31674
24977,31590
25061,31521
25157,31470
25261,31438
25369,31428
25477,31438
Z" /> 
<path style="fill:#000000; fill-opacity:1.0; 
stroke:#000000; stroke-width:0; stroke-opacity:1; 
stroke-linecap:round; stroke-linejoin:round;fill-rule:evenodd;"
d="M 70509,32263
70535,32271
70560,32284
70585,32305
70919,32639
70940,32664
70953,32689
70961,32715
70964,32743
70961,32771
70953,32798
70940,32822
70919,32847
70349,33418
70323,33439
70299,33452
70272,33460
70244,33463
70217,33460
70190,33452
70165,33439
70140,33418
69806,33084
69785,33059
69772,33034
69764,33008
69761,32980
69764,32952
69772,32925
69785,32901
69806,32875
70377,32305
70402,32284
70426,32271
70453,32263
70481,32260
70509,32263
Z" /> 
<path style="fill:#000000; fill-opacity:1.0; 
stroke:#000000; stroke-width:0; stroke-opacity:1; 
stroke-linecap:round; stroke-linejoin:round;fill-rule:evenodd;"
d="M 69465,31219
69491,31227
69516,31240
69541,31261
69875,31595
69896,31620
69909,31645
69917,31671
69920,31699
69917,31727
69909,31754
69896,31778
69875,31804
69305,32374
69279,32395
69255,32408
69228,32416
69200,32419
69173,32416
69146,32408
69121,32395
69096,32374
68762,32040
68741,32015
68728,31990
68720,31964
68717,31936
68720,31908
68728,31881
68741,31857
68762,31832
69333,31261
69358,31240
69383,31227
69409,31219
69437,31216
69465,31219
Z" /> 
<path style="fill:#000000; fill-opacity:1.0; 
stroke:#000000; stroke-width:0; stroke-opacity:1; 
stroke-linecap:round; stroke-linejoin:round;fill-rule:evenodd;"
d="M 27454,30866
27576,30916
27576,30916
27685,30989
27778,31082
27824,31150
27852,31192
27902,31314
27928,31443
27928,31575
27902,31704
27893,31727
27852,31826
27778,31936
27685,32029
27576,32102
27576,32102
27576,32102
27454,32153
27325,32178
27193,32178
27063,32153
26942,32102
26942,32102
26942,32102
26832,32029
26739,31936
26666,31826
26624,31727
26615,31704
26589,31575
26589,31443
26615,31314
26666,31192
26694,31150
26739,31082
26832,30989
26942,30916
26942,30916
27063,30866
27193,30840
27325,30840
27454,30866
Z" /> 
<path style="fill:#000000; fill-opacity:1.0; 
stroke:#000000; stroke-width:0; stroke-opacity:1; 
stroke-linecap:round; stroke-linejoin:round;fill-rule:evenodd;"
d="M 79244,30460
79294,30470
79438,30530
79567,30616
79676,30726
79762,30855
79818,30989
79822,30998
79852,31150
79852,31305
79832,31406
79822,31457
79762,31600
79676,31729
79567,31839
79438,31925
79294,31985
79266,31990
79142,32015
78987,32015
78863,31990
78835,31985
78692,31925
78563,31839
78453,31729
78367,31600
78307,31457
78297,31406
78277,31305
78277,31150
78307,30998
78311,30989
78367,30855
78453,30726
78563,30616
78692,30530
78835,30470
78886,30460
78987,30440
79142,30440
79244,30460
Z" /> 
<path style="fill:#000000; fill-opacity:1.0; 
stroke:#000000; stroke-width:0; stroke-opacity:1; 
stroke-linecap:round; stroke-linejoin:round;fill-rule:evenodd;"
d="M 82787,30460
82838,30470
82981,30530
83110,30616
83220,30726
83306,30855
83362,30989
83365,30998
83395,31150
83395,31305
83375,31406
83365,31457
83306,31600
83220,31729
83110,31839
82981,31925
82838,31985
82809,31990
82685,32015
82530,32015
82407,31990
82378,31985
82235,31925
82106,31839
81996,31729
81910,31600
81851,31457
81841,31406
81821,31305
81821,31150
81851,30998
81854,30989
81910,30855
81996,30726
82106,30616
82235,30530
82378,30470
82429,30460
82530,30440
82685,30440
82787,30460
Z" /> 
<path style="fill:#000000; fill-opacity:1.0; 
stroke:#000000; stroke-width:0; stroke-opacity:1; 
stroke-linecap:round; stroke-linejoin:round;fill-rule:evenodd;"
d="M 29242,25683
29331,25710
29414,25754
29414,25754
29414,25754
29486,25814
29504,25835
29546,25886
29590,25969
29617,26058
29624,26128
29624,27126
29617,27196
29590,27286
29546,27368
29486,27441
29414,27500
29331,27544
29242,27572
29148,27581
29055,27572
28966,27544
28883,27500
28810,27441
28751,27368
28707,27286
28680,27196
28673,27126
28673,26128
28680,26058
28707,25969
28751,25886
28763,25871
28810,25814
28883,25754
28883,25754
28883,25754
28966,25710
29055,25683
29148,25674
29242,25683
Z" /> 
<path style="fill:#000000; fill-opacity:1.0; 
stroke:#000000; stroke-width:0; stroke-opacity:1; 
stroke-linecap:round; stroke-linejoin:round;fill-rule:evenodd;"
d="M 33651,26160
33714,26179
33777,26198
33777,26198
33893,26261
33995,26344
34079,26446
34141,26562
34179,26689
34192,26820
34179,26951
34141,27077
34079,27193
33995,27295
33893,27379
33778,27441
33777,27441
33714,27460
33651,27479
33552,27489
33250,27489
33152,27479
33089,27460
33026,27441
33025,27441
32910,27379
32808,27295
32724,27193
32662,27077
32624,26951
32611,26820
32624,26689
32662,26562
32724,26446
32808,26344
32910,26261
33026,26198
33026,26198
33089,26179
33152,26160
33250,26151
33552,26151
33651,26160
Z" /> 
<path style="fill:#000000; fill-opacity:1.0; 
stroke:#000000; stroke-width:0; stroke-opacity:1; 
stroke-linecap:round; stroke-linejoin:round;fill-rule:evenodd;"
d="M 57282,27121
54920,27121
54920,24758
57282,24758
57282,27121
Z" /> 
<path style="fill:#000000; fill-opacity:1.0; 
stroke:#000000; stroke-width:0; stroke-opacity:1; 
stroke-linecap:round; stroke-linejoin:round;fill-rule:evenodd;"
d="M 79231,25340
79294,25352
79438,25412
79567,25498
79676,25607
79762,25736
79822,25880
79823,25886
79852,26032
79852,26187
79848,26205
79822,26339
79762,26482
79676,26611
79567,26721
79438,26807
79294,26867
79244,26877
79142,26897
78987,26897
78886,26877
78835,26867
78692,26807
78563,26721
78453,26611
78367,26482
78307,26339
78281,26205
78277,26187
78277,26032
78306,25886
78307,25880
78367,25736
78453,25607
78563,25498
78692,25412
78835,25352
78899,25340
78987,25322
79142,25322
79231,25340
Z" /> 
<path style="fill:#000000; fill-opacity:1.0; 
stroke:#000000; stroke-width:0; stroke-opacity:1; 
stroke-linecap:round; stroke-linejoin:round;fill-rule:evenodd;"
d="M 82774,25340
82838,25352
82981,25412
83110,25498
83220,25607
83306,25736
83365,25880
83366,25886
83395,26032
83395,26187
83392,26205
83365,26339
83306,26482
83220,26611
83110,26721
82981,26807
82838,26867
82787,26877
82685,26897
82530,26897
82429,26877
82378,26867
82235,26807
82106,26721
81996,26611
81910,26482
81851,26339
81824,26205
81821,26187
81821,26032
81850,25886
81851,25880
81910,25736
81996,25607
82106,25498
82235,25412
82378,25352
82442,25340
82530,25322
82685,25322
82774,25340
Z" /> 
<path style="fill:#000000; fill-opacity:1.0; 
stroke:#000000; stroke-width:0; stroke-opacity:1; 
stroke-linecap:round; stroke-linejoin:round;fill-rule:evenodd;"
d="M 66252,25480
66311,25498
66378,25518
66378,25518
66494,25580
66596,25664
66680,25766
66742,25882
66742,25882
66755,25925
66780,26008
66793,26140
66780,26271
66742,26397
66680,26513
66596,26615
66494,26699
66453,26721
66378,26761
66315,26780
66252,26799
66154,26809
66088,26809
65989,26799
65926,26780
65863,26761
65789,26721
65747,26699
65645,26615
65561,26513
65499,26397
65461,26271
65448,26140
65461,26008
65486,25925
65499,25882
65499,25882
65561,25766
65645,25664
65747,25580
65863,25518
65863,25518
65930,25498
65989,25480
66088,25470
66154,25470
66252,25480
Z" /> 
<path style="fill:#000000; fill-opacity:1.0; 
stroke:#000000; stroke-width:0; stroke-opacity:1; 
stroke-linecap:round; stroke-linejoin:round;fill-rule:evenodd;"
d="M 68252,25480
68311,25498
68378,25518
68378,25518
68494,25580
68596,25664
68680,25766
68742,25882
68742,25882
68755,25925
68780,26008
68793,26140
68780,26271
68742,26397
68680,26513
68596,26615
68494,26699
68453,26721
68378,26761
68315,26780
68252,26799
68154,26809
68088,26809
67989,26799
67926,26780
67863,26761
67789,26721
67747,26699
67645,26615
67561,26513
67499,26397
67461,26271
67448,26140
67461,26008
67486,25925
67499,25882
67499,25882
67561,25766
67645,25664
67747,25580
67863,25518
67863,25518
67930,25498
67989,25480
68088,25470
68154,25470
68252,25480
Z" /> 
<path style="fill:#000000; fill-opacity:1.0; 
stroke:#000000; stroke-width:0; stroke-opacity:1; 
stroke-linecap:round; stroke-linejoin:round;fill-rule:evenodd;"
d="M 64790,26809
63451,26809
63451,25470
64790,25470
64790,26809
Z" /> 
<path style="fill:#000000; fill-opacity:1.0; 
stroke:#000000; stroke-width:0; stroke-opacity:1; 
stroke-linecap:round; stroke-linejoin:round;fill-rule:evenodd;"
d="M 94081,22535
94435,22682
94468,22695
94816,22928
95112,23224
95345,23572
95345,23572
95505,23959
95587,24370
95587,24789
95505,25200
95345,25587
95345,25587
95112,25935
94816,26231
94468,26464
94468,26464
94468,26464
94081,26624
93670,26705
93251,26705
92841,26624
92454,26464
92454,26464
92454,26464
92105,26231
91809,25935
91577,25587
91577,25587
91416,25200
91335,24789
91335,24370
91416,23959
91577,23572
91577,23572
91809,23224
92105,22928
92454,22695
92486,22682
92841,22535
93251,22454
93670,22454
94081,22535
Z" /> 
<path style="fill:#000000; fill-opacity:1.0; 
stroke:#000000; stroke-width:0; stroke-opacity:1; 
stroke-linecap:round; stroke-linejoin:round;fill-rule:evenodd;"
d="M 27454,25354
27576,25404
27576,25404
27685,25477
27778,25571
27849,25676
27852,25680
27902,25802
27928,25931
27928,26063
27902,26193
27868,26275
27852,26314
27778,26424
27685,26517
27576,26590
27576,26590
27576,26590
27454,26641
27325,26667
27193,26667
27063,26641
26942,26590
26942,26590
26942,26590
26832,26517
26739,26424
26666,26314
26649,26275
26615,26193
26589,26063
26589,25931
26615,25802
26666,25680
26668,25676
26739,25571
26832,25477
26942,25404
26942,25404
27063,25354
27193,25328
27325,25328
27454,25354
Z" /> 
<path style="fill:#000000; fill-opacity:1.0; 
stroke:#000000; stroke-width:0; stroke-opacity:1; 
stroke-linecap:round; stroke-linejoin:round;fill-rule:evenodd;"
d="M 21361,22435
21715,22582
21748,22595
22096,22828
22392,23124
22625,23472
22625,23472
22785,23859
22867,24270
22867,24689
22785,25100
22634,25463
22625,25487
22392,25835
22096,26131
21748,26364
21748,26364
21748,26364
21361,26524
20950,26605
20531,26605
20121,26524
19734,26364
19734,26364
19734,26364
19385,26131
19089,25835
18857,25487
18847,25463
18696,25100
18615,24689
18615,24270
18696,23859
18857,23472
18857,23472
19089,23124
19385,22828
19734,22595
19766,22582
20121,22435
20531,22354
20950,22354
21361,22435
Z" /> 
<path style="fill:#000000; fill-opacity:1.0; 
stroke:#000000; stroke-width:0; stroke-opacity:1; 
stroke-linecap:round; stroke-linejoin:round;fill-rule:evenodd;"
d="M 25462,24187
25552,24214
25634,24258
25634,24258
25634,24258
25707,24318
25750,24370
25766,24390
25810,24473
25838,24562
25844,24632
25844,25630
25838,25700
25810,25790
25766,25872
25707,25945
25634,26004
25552,26048
25462,26075
25369,26085
25276,26075
25186,26048
25103,26004
25031,25945
24972,25872
24927,25790
24900,25700
24893,25630
24893,24632
24900,24562
24927,24473
24972,24390
24988,24370
25031,24318
25103,24258
25103,24258
25103,24258
25186,24214
25276,24187
25369,24178
25462,24187
Z" /> 
<path style="fill:#000000; fill-opacity:1.0; 
stroke:#000000; stroke-width:0; stroke-opacity:1; 
stroke-linecap:round; stroke-linejoin:round;fill-rule:evenodd;"
d="M 34086,24185
34110,24192
34132,24204
34151,24220
34167,24239
34179,24261
34186,24285
34189,24314
34189,25388
34186,25418
34179,25442
34167,25464
34151,25483
34132,25499
34110,25510
34086,25518
34057,25521
32746,25521
32717,25518
32693,25510
32671,25499
32652,25483
32636,25464
32624,25442
32617,25418
32614,25388
32614,24314
32617,24285
32624,24261
32636,24239
32652,24220
32671,24204
32693,24192
32717,24185
32746,24182
34057,24182
34086,24185
Z" /> 
<path style="fill:#000000; fill-opacity:1.0; 
stroke:#000000; stroke-width:0; stroke-opacity:1; 
stroke-linecap:round; stroke-linejoin:round;fill-rule:evenodd;"
d="M 29242,23478
29331,23505
29414,23550
29414,23550
29414,23550
29486,23609
29504,23631
29546,23681
29590,23764
29617,23854
29624,23924
29624,24921
29617,24991
29590,25081
29546,25164
29486,25236
29414,25295
29331,25340
29242,25367
29148,25376
29055,25367
28966,25340
28883,25295
28810,25236
28751,25164
28707,25081
28680,24991
28673,24921
28673,23924
28680,23854
28706,23766
28707,23764
28707,23764
28751,23681
28775,23653
28810,23609
28883,23550
28883,23550
28883,23550
28966,23505
29055,23478
29148,23469
29242,23478
Z" /> 
<path style="fill:#000000; fill-opacity:1.0; 
stroke:#000000; stroke-width:0; stroke-opacity:1; 
stroke-linecap:round; stroke-linejoin:round;fill-rule:evenodd;"
d="M 64252,23480
64302,23495
64378,23518
64378,23518
64494,23580
64596,23664
64680,23766
64742,23882
64780,24008
64793,24140
64780,24271
64776,24285
64744,24390
64742,24397
64680,24513
64596,24615
64494,24699
64383,24758
64378,24761
64315,24780
64252,24799
64154,24809
64088,24809
63989,24799
63926,24780
63863,24761
63859,24758
63747,24699
63645,24615
63561,24513
63499,24397
63497,24390
63465,24285
63461,24271
63448,24140
63461,24008
63499,23882
63561,23766
63645,23664
63747,23580
63863,23518
63863,23518
63939,23495
63989,23480
64088,23470
64154,23470
64252,23480
Z" /> 
<path style="fill:#000000; fill-opacity:1.0; 
stroke:#000000; stroke-width:0; stroke-opacity:1; 
stroke-linecap:round; stroke-linejoin:round;fill-rule:evenodd;"
d="M 68252,23480
68302,23495
68378,23518
68378,23518
68494,23580
68596,23664
68680,23766
68742,23882
68780,24008
68793,24140
68780,24271
68776,24285
68744,24390
68742,24397
68680,24513
68596,24615
68494,24699
68383,24758
68378,24761
68315,24780
68252,24799
68154,24809
68088,24809
67989,24799
67926,24780
67863,24761
67859,24758
67747,24699
67645,24615
67561,24513
67499,24397
67497,24390
67465,24285
67461,24271
67448,24140
67461,24008
67499,23882
67561,23766
67645,23664
67747,23580
67863,23518
67863,23518
67939,23495
67989,23480
68088,23470
68154,23470
68252,23480
Z" /> 
<path style="fill:#000000; fill-opacity:1.0; 
stroke:#000000; stroke-width:0; stroke-opacity:1; 
stroke-linecap:round; stroke-linejoin:round;fill-rule:evenodd;"
d="M 66252,23480
66302,23495
66378,23518
66378,23518
66494,23580
66596,23664
66680,23766
66742,23882
66780,24008
66793,24140
66780,24271
66776,24285
66744,24390
66742,24397
66680,24513
66596,24615
66494,24699
66383,24758
66378,24761
66315,24780
66252,24799
66154,24809
66088,24809
65989,24799
65926,24780
65863,24761
65859,24758
65747,24699
65645,24615
65561,24513
65499,24397
65497,24390
65465,24285
65461,24271
65448,24140
65461,24008
65499,23882
65561,23766
65645,23664
65747,23580
65863,23518
65863,23518
65939,23495
65989,23480
66088,23470
66154,23470
66252,23480
Z" /> 
<path style="fill:#000000; fill-opacity:1.0; 
stroke:#000000; stroke-width:0; stroke-opacity:1; 
stroke-linecap:round; stroke-linejoin:round;fill-rule:evenodd;"
d="M 87170,24009
85831,24009
85831,22670
87170,22670
87170,24009
Z" /> 
<path style="fill:#000000; fill-opacity:1.0; 
stroke:#000000; stroke-width:0; stroke-opacity:1; 
stroke-linecap:round; stroke-linejoin:round;fill-rule:evenodd;"
d="M 76632,22680
76683,22695
76758,22718
76758,22718
76874,22780
76976,22864
77060,22966
77104,23049
77122,23082
77136,23130
77160,23208
77173,23340
77160,23471
77146,23518
77122,23597
77122,23597
77060,23713
76976,23815
76874,23899
76828,23924
76758,23961
76695,23980
76632,23999
76534,24009
76468,24009
76369,23999
76306,23980
76243,23961
76173,23924
76127,23899
76025,23815
75941,23713
75879,23597
75879,23597
75855,23518
75841,23471
75828,23340
75841,23208
75865,23130
75879,23082
75897,23049
75941,22966
76025,22864
76127,22780
76243,22718
76243,22718
76318,22695
76369,22680
76468,22670
76534,22670
76632,22680
Z" /> 
<path style="fill:#000000; fill-opacity:1.0; 
stroke:#000000; stroke-width:0; stroke-opacity:1; 
stroke-linecap:round; stroke-linejoin:round;fill-rule:evenodd;"
d="M 80632,22680
80683,22695
80758,22718
80758,22718
80874,22780
80976,22864
81060,22966
81104,23049
81122,23082
81136,23130
81160,23208
81173,23340
81160,23471
81146,23518
81122,23597
81122,23597
81060,23713
80976,23815
80874,23899
80828,23924
80758,23961
80695,23980
80632,23999
80534,24009
80468,24009
80369,23999
80306,23980
80243,23961
80173,23924
80127,23899
80025,23815
79941,23713
79879,23597
79879,23597
79855,23518
79841,23471
79828,23340
79841,23208
79865,23130
79879,23082
79897,23049
79941,22966
80025,22864
80127,22780
80243,22718
80243,22718
80318,22695
80369,22680
80468,22670
80534,22670
80632,22680
Z" /> 
<path style="fill:#000000; fill-opacity:1.0; 
stroke:#000000; stroke-width:0; stroke-opacity:1; 
stroke-linecap:round; stroke-linejoin:round;fill-rule:evenodd;"
d="M 82632,22680
82683,22695
82758,22718
82758,22718
82874,22780
82976,22864
83060,22966
83104,23049
83122,23082
83136,23130
83160,23208
83173,23340
83160,23471
83146,23518
83122,23597
83122,23597
83060,23713
82976,23815
82874,23899
82828,23924
82758,23961
82695,23980
82632,23999
82534,24009
82468,24009
82369,23999
82306,23980
82243,23961
82173,23924
82127,23899
82025,23815
81941,23713
81879,23597
81879,23597
81855,23518
81841,23471
81828,23340
81841,23208
81865,23130
81879,23082
81897,23049
81941,22966
82025,22864
82127,22780
82243,22718
82243,22718
82318,22695
82369,22680
82468,22670
82534,22670
82632,22680
Z" /> 
<path style="fill:#000000; fill-opacity:1.0; 
stroke:#000000; stroke-width:0; stroke-opacity:1; 
stroke-linecap:round; stroke-linejoin:round;fill-rule:evenodd;"
d="M 84632,22680
84683,22695
84758,22718
84758,22718
84874,22780
84976,22864
85060,22966
85104,23049
85122,23082
85136,23130
85160,23208
85173,23340
85160,23471
85146,23518
85122,23597
85122,23597
85060,23713
84976,23815
84874,23899
84828,23924
84758,23961
84695,23980
84632,23999
84534,24009
84468,24009
84369,23999
84306,23980
84243,23961
84173,23924
84127,23899
84025,23815
83941,23713
83879,23597
83879,23597
83855,23518
83841,23471
83828,23340
83841,23208
83865,23130
83879,23082
83897,23049
83941,22966
84025,22864
84127,22780
84243,22718
84243,22718
84318,22695
84369,22680
84468,22670
84534,22670
84632,22680
Z" /> 
<path style="fill:#000000; fill-opacity:1.0; 
stroke:#000000; stroke-width:0; stroke-opacity:1; 
stroke-linecap:round; stroke-linejoin:round;fill-rule:evenodd;"
d="M 78632,22680
78683,22695
78758,22718
78758,22718
78874,22780
78976,22864
79060,22966
79104,23049
79122,23082
79136,23130
79160,23208
79173,23340
79160,23471
79146,23518
79122,23597
79122,23597
79060,23713
78976,23815
78874,23899
78828,23924
78758,23961
78695,23980
78632,23999
78534,24009
78468,24009
78369,23999
78306,23980
78243,23961
78173,23924
78127,23899
78025,23815
77941,23713
77879,23597
77879,23597
77855,23518
77841,23471
77828,23340
77841,23208
77865,23130
77879,23082
77897,23049
77941,22966
78025,22864
78127,22780
78243,22718
78243,22718
78318,22695
78369,22680
78468,22670
78534,22670
78632,22680
Z" /> 
<path style="fill:#000000; fill-opacity:1.0; 
stroke:#000000; stroke-width:0; stroke-opacity:1; 
stroke-linecap:round; stroke-linejoin:round;fill-rule:evenodd;"
d="M 24832,21982
24922,22009
25004,22053
25004,22053
25004,22053
25077,22113
25127,22174
25136,22185
25180,22268
25208,22358
25215,22427
25215,23425
25208,23495
25201,23518
25184,23572
25180,23585
25136,23668
25077,23740
25004,23799
24922,23844
24832,23871
24739,23880
24646,23871
24556,23844
24473,23799
24401,23740
24342,23668
24297,23585
24294,23572
24277,23518
24270,23495
24263,23425
24263,22427
24270,22358
24297,22268
24342,22185
24352,22172
24401,22113
24473,22053
24473,22053
24473,22053
24556,22009
24646,21982
24739,21973
24832,21982
Z" /> 
<path style="fill:#000000; fill-opacity:1.0; 
stroke:#000000; stroke-width:0; stroke-opacity:1; 
stroke-linecap:round; stroke-linejoin:round;fill-rule:evenodd;"
d="M 27980,15637
28159,15711
28159,15711
28320,15819
28457,15956
28565,16117
28639,16297
28677,16487
28677,16681
28639,16871
28565,17050
28565,17050
28457,17211
28320,17348
28159,17456
28159,17456
28159,17456
27980,17530
27790,17568
27596,17568
27406,17530
27227,17456
27227,17456
27227,17456
27065,17348
26928,17211
26821,17050
26821,17050
26746,16871
26709,16681
26709,16487
26746,16297
26821,16117
26928,15956
27065,15819
27227,15711
27227,15711
27406,15637
27596,15599
27790,15599
27980,15637
Z" /> 
<path style="fill:#000000; fill-opacity:1.0; 
stroke:#000000; stroke-width:0; stroke-opacity:1; 
stroke-linecap:round; stroke-linejoin:round;fill-rule:evenodd;"
d="M 83098,15637
83277,15711
83277,15711
83438,15819
83575,15956
83683,16117
83757,16297
83795,16487
83795,16681
83757,16871
83683,17050
83683,17050
83575,17211
83438,17348
83277,17456
83277,17456
83277,17456
83098,17530
82908,17568
82714,17568
82524,17530
82345,17456
82345,17456
82345,17456
82183,17348
82046,17211
81939,17050
81939,17050
81864,16871
81827,16681
81827,16487
81864,16297
81939,16117
82046,15956
82183,15819
82345,15711
82345,15711
82524,15637
82714,15599
82908,15599
83098,15637
Z" /> 
</g> 
</svg>
