<?xml version="1.0" standalone="no"?>
 <!DOCTYPE svg PUBLIC "-//W3C//DTD SVG 1.1//EN" 
 "http://www.w3.org/Graphics/SVG/1.1/DTD/svg11.dtd"> 
<svg xmlns="http://www.w3.org/2000/svg" version="1.1" 
    width="29.7002cm" height="21.0007cm" viewBox="0 0 116930 82680 ">
<title>SVG Picture created as ThermocoupleLogger-Margin.svg date 2019/03/28 17:00:02 </title>
  <desc>Picture generated by PCBNEW </desc>
<g style="fill:#000000; fill-opacity:1;stroke:#000000; stroke-opacity:1;
stroke-linecap:round; stroke-linejoin:round; "
 transform="translate(0 0) scale(1 1)">
</g>
<g style="fill:#000000; fill-opacity:0.0; 
stroke:#000000; stroke-width:-0.000787402; stroke-opacity:1; 
stroke-linecap:round; stroke-linejoin:round;">
</g>
<g style="fill:#000000; fill-opacity:0.0; 
stroke:#000000; stroke-width:157.48; stroke-opacity:1; 
stroke-linecap:round; stroke-linejoin:round;">
<path d="M96701 62899
L96701 67324
" />
<path d="M17901 67332
L96697 67332
" />
<path d="M30622 21607
L17905 21607
" />
<path d="M17901 62940
L17901 67340
" />
<path d="M83861 62900
L65621 62900
" />
<path d="M87591 62900
L96701 62900
" />
<path d="M87551 60900
L96641 60900
" />
<path d="M65621 60900
L83861 60900
" />
<path d="M61984 62909
L24624 62909
" />
<path d="M24631 60910
L61991 60910
" />
<path d="M21001 60920
L17901 60920
" />
<path d="M20971 62920
L17897 62938
" />
<path d="M20971.1 62920 A1000.2 1000.2 0.0 0 0 20993.7 60920.7 " />
<path d="M24641.1 60910 A1000 1000 0.0 0 0 24624.5 62909.9 " />
<path d="M61971.1 62910 A1000 1000 0.0 0 0 61992.4 60910.2 " />
<path d="M65621.1 60900 A1000.2 1000.2 0.0 1 0 65622.9 62900 " />
<path d="M83851.1 62900 A1000.2 1000.2 0.0 1 0 83871.1 60899.8 " />
<path d="M87541.9 60900 A1000.2 1000.2 0.0 0 0 87581.1 62900 " />
<path d="M91501.1 19540 A1000.8 1000.8 0.0 0 0 91541.1 21540.8 " />
<path d="M55281.1 21580 A1000.8 1000.8 0.0 1 0 55281.1 19580 " />
<path d="M17861 19560
L17861 19560
" />
<path d="M30621 19560
L17861 19560
" />
<path d="M34281 21580
L55281 21580
" />
<path d="M55261 19580
L34301 19580
" />
<path d="M30621.1 21600 A1020 1020 0.0 0 0 30621.1 19560 " />
<path d="M34301.1 19580 A1000.2 1000.2 0.0 1 0 34281.1 21580.2 " />
<path d="M87881 21570
L59051 21570
" />
<path d="M58901 19590
L87911 19590
" />
<path d="M58981.1 19580 A990.202 990.202 0.0 0 0 59021.1 21560 " />
<path d="M91551 21544
L96638 21552
" />
<path d="M96601 19540
L91501 19540
" />
<path d="M96601 14340
L96601 19540
" />
<path d="M87881.1 21580 A996 996 0.0 0 0 87889.2 19588 " />
<path d="M17861 14320
L96590 14324
" />
<path d="M17861 19560
L17861 14320
" />
<path d="M17901 60920
L17901 21610
" />
<path d="M96641 60900
L96641 21569
" />
<g >
</g>
<g >
</g>
<g >
</g>
<g >
</g>
<g >
</g>
<g >
</g>
<g >
</g>
<g >
</g>
<g >
</g>
<g >
</g>
<g >
</g>
<g >
</g>
<g >
</g>
<g >
</g>
<g >
</g>
<g >
</g>
<g >
</g>
<g >
</g>
<g >
</g>
<g >
</g>
<g >
</g>
<g >
</g>
<g >
</g>
<g >
</g>
<g >
</g>
<g >
</g>
<g >
</g>
<g >
</g>
<g >
</g>
<g >
</g>
<g >
</g>
<g >
</g>
<g >
</g>
<g >
</g>
<g >
</g>
<g >
</g>
<g >
</g>
<g >
</g>
<g >
</g>
<g >
</g>
<g >
</g>
<g >
</g>
<g >
</g>
<g >
</g>
<g >
</g>
<g >
</g>
<g >
</g>
<g >
</g>
<g >
</g>
<g >
</g>
<g >
</g>
<g >
</g>
<g >
</g>
<g >
</g>
<g >
</g>
<g >
</g>
<g >
</g>
<g >
</g>
<g >
</g>
<g >
</g>
<g >
</g>
<g >
</g>
<g >
</g>
<g >
</g>
<g >
</g>
<g >
</g>
<g >
</g>
<g >
</g>
<g >
</g>
<g >
</g>
<g >
</g>
<g >
</g>
<g >
</g>
<g >
</g>
<g >
</g>
<g >
</g>
<g >
</g>
<g >
</g>
<g >
</g>
<g >
</g>
<g >
</g>
<g >
</g>
<g >
</g>
<g >
</g>
<g >
</g>
<g >
</g>
<g >
</g>
<g >
</g>
<g >
</g>
</g> 
</svg>
