<?xml version="1.0" standalone="no"?>
 <!DOCTYPE svg PUBLIC "-//W3C//DTD SVG 1.1//EN" 
 "http://www.w3.org/Graphics/SVG/1.1/DTD/svg11.dtd"> 
<svg xmlns="http://www.w3.org/2000/svg" version="1.1" 
    width="29.7002cm" height="21.0007cm" viewBox="0 0 116930 82680 ">
<title>SVG Picture created as ThermocoupleLogger-F_CrtYd.svg date 2019/03/28 17:00:02 </title>
  <desc>Picture generated by PCBNEW </desc>
<g style="fill:#000000; fill-opacity:1;stroke:#000000; stroke-opacity:1;
stroke-linecap:round; stroke-linejoin:round; "
 transform="translate(0 0) scale(1 1)">
</g>
<g style="fill:#000000; fill-opacity:0.0; 
stroke:#000000; stroke-width:-0.000787402; stroke-opacity:1; 
stroke-linecap:round; stroke-linejoin:round;">
</g>
<g style="fill:#000000; fill-opacity:0.0; 
stroke:#000000; stroke-width:157.48; stroke-opacity:1; 
stroke-linecap:round; stroke-linejoin:round;">
<path d="M96701 62899
L96701 67324
" />
<path d="M17901 67332
L96697 67332
" />
<path d="M30622 21607
L17905 21607
" />
<path d="M17901 62940
L17901 67340
" />
<path d="M83861 62900
L65621 62900
" />
<path d="M87591 62900
L96701 62900
" />
<path d="M87551 60900
L96641 60900
" />
<path d="M65621 60900
L83861 60900
" />
<path d="M61984 62909
L24624 62909
" />
<path d="M24631 60910
L61991 60910
" />
<path d="M21001 60920
L17901 60920
" />
<path d="M20971 62920
L17897 62938
" />
<path d="M20971.1 62920 A1000.2 1000.2 0.0 0 0 20993.7 60920.7 " />
<path d="M24641.1 60910 A1000 1000 0.0 0 0 24624.5 62909.9 " />
<path d="M61971.1 62910 A1000 1000 0.0 0 0 61992.4 60910.2 " />
<path d="M65621.1 60900 A1000.2 1000.2 0.0 1 0 65622.9 62900 " />
<path d="M83851.1 62900 A1000.2 1000.2 0.0 1 0 83871.1 60899.8 " />
<path d="M87541.9 60900 A1000.2 1000.2 0.0 0 0 87581.1 62900 " />
<path d="M91501.1 19540 A1000.8 1000.8 0.0 0 0 91541.1 21540.8 " />
<path d="M55281.1 21580 A1000.8 1000.8 0.0 1 0 55281.1 19580 " />
<path d="M17861 19560
L17861 19560
" />
<path d="M30621 19560
L17861 19560
" />
<path d="M34281 21580
L55281 21580
" />
<path d="M55261 19580
L34301 19580
" />
<path d="M30621.1 21600 A1020 1020 0.0 0 0 30621.1 19560 " />
<path d="M34301.1 19580 A1000.2 1000.2 0.0 1 0 34281.1 21580.2 " />
<path d="M87881 21570
L59051 21570
" />
<path d="M58901 19590
L87911 19590
" />
<path d="M58981.1 19580 A990.202 990.202 0.0 0 0 59021.1 21560 " />
<path d="M91551 21544
L96638 21552
" />
<path d="M96601 19540
L91501 19540
" />
<path d="M96601 14340
L96601 19540
" />
<path d="M87881.1 21580 A996 996 0.0 0 0 87889.2 19588 " />
<path d="M17861 14320
L96590 14324
" />
<path d="M17861 19560
L17861 14320
" />
<path d="M17901 60920
L17901 21610
" />
<path d="M96641 60900
L96641 21569
" />
</g>
<g style="fill:#000000; fill-opacity:0.0; 
stroke:#000000; stroke-width:39.3701; stroke-opacity:1; 
stroke-linecap:round; stroke-linejoin:round;">
<path d="M48178 22991
L50823 22991
" />
<path d="M48178 24488
L48178 22991
" />
<path d="M50823 24488
L48178 24488
" />
<path d="M50823 22991
L50823 24488
" />
<path d="M63953 52062
L63953 49417
" />
<path d="M65449 52062
L63953 52062
" />
<path d="M65449 49417
L65449 52062
" />
<path d="M63953 49417
L65449 49417
" />
<path d="M48178 24591
L50823 24591
" />
<path d="M48178 26088
L48178 24591
" />
<path d="M50823 26088
L48178 26088
" />
<path d="M50823 24591
L50823 26088
" />
<path d="M50823 27688
L48178 27688
" />
<path d="M50823 26191
L50823 27688
" />
<path d="M48178 26191
L50823 26191
" />
<path d="M48178 27688
L48178 26191
" />
<path d="M71153 52275
L71153 49629
" />
<path d="M72649 52275
L71153 52275
" />
<path d="M72649 49629
L72649 52275
" />
<path d="M71153 49629
L72649 49629
" />
<path d="M78353 51962
L78353 49317
" />
<path d="M79849 51962
L78353 51962
" />
<path d="M79849 49317
L79849 51962
" />
<path d="M78353 49317
L79849 49317
" />
<path d="M85553 51942
L85553 49297
" />
<path d="M87049 51942
L85553 51942
" />
<path d="M87049 49297
L87049 51942
" />
<path d="M85553 49297
L87049 49297
" />
<path d="M27362 52262
L27362 49617
" />
<path d="M28858 52262
L27362 52262
" />
<path d="M28858 49617
L28858 52262
" />
<path d="M27362 49617
L28858 49617
" />
<path d="M34513 52262
L34513 49617
" />
<path d="M36009 52262
L34513 52262
" />
<path d="M36009 49617
L36009 52262
" />
<path d="M34513 49617
L36009 49617
" />
<path d="M41762 52284
L41762 49638
" />
<path d="M43258 52284
L41762 52284
" />
<path d="M43258 49638
L43258 52284
" />
<path d="M41762 49638
L43258 49638
" />
<path d="M48653 52562
L48653 49917
" />
<path d="M50149 52562
L48653 52562
" />
<path d="M50149 49917
L50149 52562
" />
<path d="M48653 49917
L50149 49917
" />
<path d="M36009 46417
L36009 49062
" />
<path d="M34513 46417
L36009 46417
" />
<path d="M34513 49062
L34513 46417
" />
<path d="M36009 49062
L34513 49062
" />
<path d="M28858 46417
L28858 49062
" />
<path d="M27362 46417
L28858 46417
" />
<path d="M27362 49062
L27362 46417
" />
<path d="M28858 49062
L27362 49062
" />
<path d="M87049 52817
L87049 55462
" />
<path d="M85553 52817
L87049 52817
" />
<path d="M85553 55462
L85553 52817
" />
<path d="M87049 55462
L85553 55462
" />
<path d="M87049 46069
L87049 48714
" />
<path d="M85553 46069
L87049 46069
" />
<path d="M85553 48714
L85553 46069
" />
<path d="M87049 48714
L85553 48714
" />
<path d="M79849 52817
L79849 55462
" />
<path d="M78353 52817
L79849 52817
" />
<path d="M78353 55462
L78353 52817
" />
<path d="M79849 55462
L78353 55462
" />
<path d="M79849 46017
L79849 48662
" />
<path d="M78353 46017
L79849 46017
" />
<path d="M78353 48662
L78353 46017
" />
<path d="M79849 48662
L78353 48662
" />
<path d="M72649 53165
L72649 55810
" />
<path d="M71153 53165
L72649 53165
" />
<path d="M71153 55810
L71153 53165
" />
<path d="M72649 55810
L71153 55810
" />
<path d="M72649 46404
L72649 49050
" />
<path d="M71153 46404
L72649 46404
" />
<path d="M71153 49050
L71153 46404
" />
<path d="M72649 49050
L71153 49050
" />
<path d="M65449 52977
L65449 55622
" />
<path d="M63953 52977
L65449 52977
" />
<path d="M63953 55622
L63953 52977
" />
<path d="M65449 55622
L63953 55622
" />
<path d="M65449 46417
L65449 49062
" />
<path d="M63953 46417
L65449 46417
" />
<path d="M63953 49062
L63953 46417
" />
<path d="M65449 49062
L63953 49062
" />
<path d="M36009 53217
L36009 55862
" />
<path d="M34513 53217
L36009 53217
" />
<path d="M34513 55862
L34513 53217
" />
<path d="M36009 55862
L34513 55862
" />
<path d="M43209 46417
L43209 49062
" />
<path d="M41713 46417
L43209 46417
" />
<path d="M41713 49062
L41713 46417
" />
<path d="M43209 49062
L41713 49062
" />
<path d="M43209 53217
L43209 55862
" />
<path d="M41713 53217
L43209 53217
" />
<path d="M41713 55862
L41713 53217
" />
<path d="M43209 55862
L41713 55862
" />
<path d="M28809 53217
L28809 55862
" />
<path d="M27313 53217
L28809 53217
" />
<path d="M27313 55862
L27313 53217
" />
<path d="M28809 55862
L27313 55862
" />
<path d="M50809 53217
L50809 55862
" />
<path d="M49313 53217
L50809 53217
" />
<path d="M49313 55862
L49313 53217
" />
<path d="M50809 55862
L49313 55862
" />
<path d="M50809 46417
L50809 49062
" />
<path d="M49313 46417
L50809 46417
" />
<path d="M49313 49062
L49313 46417
" />
<path d="M50809 49062
L49313 49062
" />
<path d="M60978 38591
L63623 38591
" />
<path d="M60978 40088
L60978 38591
" />
<path d="M63623 40088
L60978 40088
" />
<path d="M63623 38591
L63623 40088
" />
<path d="M41984 28113
L41157 28113
" />
<path d="M41984 29766
L41984 28113
" />
<path d="M41157 29766
L41984 29766
" />
<path d="M41157 28113
L41157 27562
" />
<path d="M41157 30317
L41157 29766
" />
<path d="M41157 30317
L40252 31223
" />
<path d="M41157 27562
L40252 26656
" />
<path d="M40252 31223
L36590 31223
" />
<path d="M40252 26656
L36590 26656
" />
<path d="M36590 28113
L36590 26656
" />
<path d="M35764 28113
L36590 28113
" />
<path d="M35764 29766
L35764 28113
" />
<path d="M36590 29766
L35764 29766
" />
<path d="M36590 31223
L36590 29766
" />
<path d="M41984 23434
L41157 23434
" />
<path d="M41984 25088
L41984 23434
" />
<path d="M41157 25088
L41984 25088
" />
<path d="M41157 23434
L41157 22883
" />
<path d="M41157 25639
L41157 25088
" />
<path d="M41157 25639
L40252 26544
" />
<path d="M41157 22883
L40252 21977
" />
<path d="M40252 26544
L36590 26544
" />
<path d="M40252 21977
L36590 21977
" />
<path d="M36590 23434
L36590 21977
" />
<path d="M35764 23434
L36590 23434
" />
<path d="M35764 25088
L35764 23434
" />
<path d="M36590 25088
L35764 25088
" />
<path d="M36590 26544
L36590 25088
" />
<path d="M67107 40304
L65236 38433
" />
<path d="M68165 39246
L67107 40304
" />
<path d="M66294 37375
L68165 39246
" />
<path d="M65236 38433
L66294 37375
" />
<path d="M52209 49917
L52209 52562
" />
<path d="M50713 49917
L52209 49917
" />
<path d="M50713 52562
L50713 49917
" />
<path d="M52209 52562
L50713 52562
" />
<path d="M81349 35457
L81349 38102
" />
<path d="M79853 35457
L81349 35457
" />
<path d="M79853 38102
L79853 35457
" />
<path d="M81349 38102
L79853 38102
" />
<path d="M79349 35469
L79349 38115
" />
<path d="M77853 35469
L79349 35469
" />
<path d="M77853 38115
L77853 35469
" />
<path d="M79349 38115
L77853 38115
" />
<path d="M83349 35457
L83349 38102
" />
<path d="M81853 35457
L83349 35457
" />
<path d="M81853 38102
L81853 35457
" />
<path d="M83349 38102
L81853 38102
" />
<path d="M70110 28800
L71981 26930
" />
<path d="M71168 29858
L70110 28800
" />
<path d="M73039 27988
L71168 29858
" />
<path d="M71981 26930
L73039 27988
" />
<path d="M71250 30020
L73121 28150
" />
<path d="M72308 31078
L71250 30020
" />
<path d="M74179 29208
L72308 31078
" />
<path d="M73121 28150
L74179 29208
" />
<path d="M69383 41822
L69383 44657
" />
<path d="M76194 41822
L69383 41822
" />
<path d="M76194 44657
L76194 41822
" />
<path d="M69383 44657
L76194 44657
" />
<path d="M71750 25727
L75313 29290
" />
<path d="M74088 23389
L71750 25727
" />
<path d="M77652 26952
L74088 23389
" />
<path d="M75313 29290
L77652 26952
" />
<path d="M23786 27449
L21975 27449
" />
<path d="M21975 31150
L21975 27449
" />
<path d="M23786 31150
L21975 31150
" />
<path d="M23786 27449
L23786 31150
" />
<path d="M21926 27449
L20115 27449
" />
<path d="M20115 31150
L20115 27449
" />
<path d="M21926 31150
L20115 31150
" />
<path d="M21926 27449
L21926 31150
" />
<path d="M24122 31568
L18295 31568
" />
<path d="M24122 35111
L24122 31568
" />
<path d="M18295 35111
L24122 35111
" />
<path d="M18295 31568
L18295 35111
" />
<path d="M52586 46025
L52586 56654
" />
<path d="M63216 46025
L52586 46025
" />
<path d="M63216 56654
L63216 46025
" />
<path d="M52586 56654
L63216 56654
" />
<path d="M69675 29075
L63995 34754
" />
<path d="M75354 34754
L69675 40433
" />
<path d="M69675 40433
L63995 34754
" />
<path d="M75354 34754
L69675 29075
" />
<path d="M48123 28201
L50879 28201
" />
<path d="M48123 30878
L48123 28201
" />
<path d="M50879 30878
L48123 30878
" />
<path d="M50879 28201
L50879 30878
" />
<path d="M18493 30570
L18493 27925
" />
<path d="M19989 30570
L18493 30570
" />
<path d="M19989 27925
L19989 30570
" />
<path d="M18493 27925
L19989 27925
" />
<path d="M30411 33832
L30411 31187
" />
<path d="M31907 33832
L30411 33832
" />
<path d="M31907 31187
L31907 33832
" />
<path d="M30411 31187
L31907 31187
" />
<path d="M75507 33204
L73636 31333
" />
<path d="M76565 32146
L75507 33204
" />
<path d="M74694 30275
L76565 32146
" />
<path d="M73636 31333
L74694 30275
" />
<path d="M83349 38257
L83349 40902
" />
<path d="M81853 38257
L83349 38257
" />
<path d="M81853 40902
L81853 38257
" />
<path d="M83349 40902
L81853 40902
" />
<path d="M79349 38257
L79349 40902
" />
<path d="M77853 38257
L79349 38257
" />
<path d="M77853 40902
L77853 38257
" />
<path d="M79349 40902
L77853 40902
" />
<path d="M81349 38257
L81349 40902
" />
<path d="M79853 38257
L81349 38257
" />
<path d="M79853 40902
L79853 38257
" />
<path d="M81349 40902
L79853 40902
" />
<path d="M60994 31351
L63639 31351
" />
<path d="M60994 32848
L60994 31351
" />
<path d="M63639 32848
L60994 32848
" />
<path d="M63639 31351
L63639 32848
" />
<path d="M60978 29591
L63623 29591
" />
<path d="M60978 31088
L60978 29591
" />
<path d="M63623 31088
L60978 31088
" />
<path d="M63623 29591
L63623 31088
" />
<path d="M79718 32911
L82363 32911
" />
<path d="M79718 34408
L79718 32911
" />
<path d="M82363 34408
L79718 34408
" />
<path d="M82363 32911
L82363 34408
" />
<path d="M85953 27662
L85953 25017
" />
<path d="M87449 27662
L85953 27662
" />
<path d="M87449 25017
L87449 27662
" />
<path d="M85953 25017
L87449 25017
" />
<path d="M65657 47448
L65657 54062
" />
<path d="M70971 47448
L65657 47448
" />
<path d="M70971 54062
L70971 47448
" />
<path d="M65657 54062
L70971 54062
" />
<path d="M72877 47708
L72877 54322
" />
<path d="M78191 47708
L72877 47708
" />
<path d="M78191 54322
L78191 47708
" />
<path d="M72877 54322
L78191 54322
" />
<path d="M80057 47448
L80057 54062
" />
<path d="M85371 47448
L80057 47448
" />
<path d="M85371 54062
L85371 47448
" />
<path d="M80057 54062
L85371 54062
" />
<path d="M87257 47448
L87257 54062
" />
<path d="M92571 47448
L87257 47448
" />
<path d="M92571 54062
L92571 47448
" />
<path d="M87257 54062
L92571 54062
" />
<path d="M21817 47817
L21817 54431
" />
<path d="M27131 47817
L21817 47817
" />
<path d="M27131 54431
L27131 47817
" />
<path d="M21817 54431
L27131 54431
" />
<path d="M29017 47848
L29017 54462
" />
<path d="M34331 47848
L29017 47848
" />
<path d="M34331 54462
L34331 47848
" />
<path d="M29017 54462
L34331 54462
" />
<path d="M36217 47848
L36217 54462
" />
<path d="M41531 47848
L36217 47848
" />
<path d="M41531 54462
L41531 47848
" />
<path d="M36217 54462
L41531 54462
" />
<path d="M43357 47797
L43357 54411
" />
<path d="M48671 47797
L43357 47797
" />
<path d="M48671 54411
L48671 47797
" />
<path d="M43357 54411
L48671 54411
" />
<path d="M34097 33777
L34097 40391
" />
<path d="M39411 33777
L34097 33777
" />
<path d="M39411 40391
L39411 33777
" />
<path d="M34097 40391
L39411 40391
" />
<path d="M35646 29143
L35646 22528
" />
<path d="M30331 29143
L35646 29143
" />
<path d="M30331 22528
L30331 29143
" />
<path d="M35646 22528
L30331 22528
" />
<path d="M77143 41842
L77143 44677
" />
<path d="M87970 41842
L77143 41842
" />
<path d="M87970 44677
L87970 41842
" />
<path d="M77143 44677
L87970 44677
" />
<path d="M62703 22714
L62703 27557
" />
<path d="M69514 22714
L62703 22714
" />
<path d="M69514 27557
L69514 22714
" />
<path d="M62703 27557
L69514 27557
" />
<path d="M96744 40560
L93988 40560
" />
<path d="M93988 40560
L93988 41347
" />
<path d="M93988 41347
L91823 41347
" />
<path d="M91823 41347
L91823 40560
" />
<path d="M91823 40560
L86114 40560
" />
<path d="M86114 40560
L86114 41347
" />
<path d="M86114 41347
L84539 41347
" />
<path d="M84539 41347
L84539 40166
" />
<path d="M84539 40166
L84146 40166
" />
<path d="M84146 40166
L84146 32292
" />
<path d="M84146 32292
L85130 32292
" />
<path d="M85130 32292
L85130 29930
" />
<path d="M85130 29930
L84539 29930
" />
<path d="M84539 29930
L84539 28158
" />
<path d="M84539 28158
L86114 28158
" />
<path d="M86114 28158
L86114 28355
" />
<path d="M86114 28355
L91823 28355
" />
<path d="M91823 28355
L91823 27568
" />
<path d="M91823 27568
L93988 27568
" />
<path d="M93988 27568
L93988 28355
" />
<path d="M93988 28355
L96744 28355
" />
<path d="M51870 29629
L51870 38527
" />
<path d="M60531 29629
L60531 38527
" />
<path d="M60531 38527
L51870 38527
" />
<path d="M60531 29629
L51870 29629
" />
<path d="M59664 44625
L65538 44625
" />
<path d="M59664 40374
L65538 40374
" />
<path d="M65538 40374
L65538 44625
" />
<path d="M59664 40374
L59664 44625
" />
<path d="M63479 36546
L60723 36546
" />
<path d="M63479 33869
L63479 36546
" />
<path d="M60723 33869
L63479 33869
" />
<path d="M60723 36546
L60723 33869
" />
<path d="M42145 22003
L42145 30743
" />
<path d="M47657 22003
L42145 22003
" />
<path d="M47657 30743
L47657 22003
" />
<path d="M42145 30743
L47657 30743
" />
<path d="M78080 24928
L83592 24928
" />
<path d="M83789 25125
L83789 32212
" />
<path d="M83592 32409
L78080 32409
" />
<path d="M77884 32212
L77884 25125
" />
<path d="M83789 32409
L83789 32212
" />
<path d="M83592 32409
L83789 32409
" />
<path d="M77884 32409
L77884 32212
" />
<path d="M78080 32409
L77884 32409
" />
<path d="M77884 24928
L78080 24928
" />
<path d="M77884 25125
L77884 24928
" />
<path d="M83789 24928
L83592 24928
" />
<path d="M83789 25125
L83789 24928
" />
<path d="M39952 33640
L45464 33640
" />
<path d="M45661 33837
L45661 40924
" />
<path d="M45464 41121
L39952 41121
" />
<path d="M39756 40924
L39756 33837
" />
<path d="M45661 41121
L45661 40924
" />
<path d="M45464 41121
L45661 41121
" />
<path d="M39756 41121
L39756 40924
" />
<path d="M39952 41121
L39756 41121
" />
<path d="M39756 33640
L39952 33640
" />
<path d="M39756 33837
L39756 33640
" />
<path d="M45661 33640
L45464 33640
" />
<path d="M45661 33837
L45661 33640
" />
<circle cx="20741.1" cy="24480" r="2322.83" /> 
<circle cx="93461.1" cy="24580" r="2322.83" /> 
<circle cx="27693.3" cy="16584.1" r="2165.35" /> 
<circle cx="82811.4" cy="16584.1" r="2165.35" /> 
<circle cx="27693.3" cy="63828.2" r="2165.35" /> 
<circle cx="90685.4" cy="63828.2" r="2165.35" /> 
<path d="M87918 24757
L87918 21922
" />
<path d="M75083 24757
L87918 24757
" />
<path d="M75083 21922
L75083 24757
" />
<path d="M87918 21922
L75083 21922
" />
<g >
</g>
<g >
</g>
<g >
</g>
<g >
</g>
<g >
</g>
<g >
</g>
<g >
</g>
<g >
</g>
<g >
</g>
<g >
</g>
<g >
</g>
<g >
</g>
<g >
</g>
<g >
</g>
<g >
</g>
<g >
</g>
<g >
</g>
<g >
</g>
<g >
</g>
<g >
</g>
<g >
</g>
<g >
</g>
<g >
</g>
<g >
</g>
<g >
</g>
<g >
</g>
<g >
</g>
<g >
</g>
<g >
</g>
<g >
</g>
<g >
</g>
<g >
</g>
<g >
</g>
<g >
</g>
<g >
</g>
<g >
</g>
<g >
</g>
<g >
</g>
<g >
</g>
<g >
</g>
<g >
</g>
<g >
</g>
<g >
</g>
<g >
</g>
<g >
</g>
<g >
</g>
<g >
</g>
<g >
</g>
<g >
</g>
<g >
</g>
<g >
</g>
<g >
</g>
<g >
</g>
<g >
</g>
<g >
</g>
<g >
</g>
<g >
</g>
<g >
</g>
<g >
</g>
<g >
</g>
<g >
</g>
<g >
</g>
<g >
</g>
<g >
</g>
<g >
</g>
<g >
</g>
<g >
</g>
<g >
</g>
<g >
</g>
<g >
</g>
<g >
</g>
<g >
</g>
<g >
</g>
<g >
</g>
<g >
</g>
<g >
</g>
<g >
</g>
<g >
</g>
<g >
</g>
<g >
</g>
<g >
</g>
<g >
</g>
<g >
</g>
<g >
</g>
<g >
</g>
<g >
</g>
<g >
</g>
<g >
</g>
<g >
</g>
</g> 
</svg>
