<?xml version="1.0" standalone="no"?>
 <!DOCTYPE svg PUBLIC "-//W3C//DTD SVG 1.1//EN" 
 "http://www.w3.org/Graphics/SVG/1.1/DTD/svg11.dtd"> 
<svg xmlns="http://www.w3.org/2000/svg" version="1.1" 
    width="29.7002cm" height="21.0007cm" viewBox="0 0 116930 82680 ">
<title>SVG Picture created as ThermocoupleLogger-B_SilkS.svg date 2019/03/28 17:00:02 </title>
  <desc>Picture generated by PCBNEW </desc>
<g style="fill:#000000; fill-opacity:1;stroke:#000000; stroke-opacity:1;
stroke-linecap:round; stroke-linejoin:round; "
 transform="translate(0 0) scale(1 1)">
</g>
<g style="fill:#000000; fill-opacity:0.0; 
stroke:#000000; stroke-width:-0.000787402; stroke-opacity:1; 
stroke-linecap:round; stroke-linejoin:round;">
</g>
<g style="fill:#000000; fill-opacity:0.0; 
stroke:#000000; stroke-width:157.48; stroke-opacity:1; 
stroke-linecap:round; stroke-linejoin:round;">
<path d="M96701 62899
L96701 67324
" />
<path d="M17901 67332
L96697 67332
" />
<path d="M30622 21607
L17905 21607
" />
<path d="M17901 62940
L17901 67340
" />
<path d="M83861 62900
L65621 62900
" />
<path d="M87591 62900
L96701 62900
" />
<path d="M87551 60900
L96641 60900
" />
<path d="M65621 60900
L83861 60900
" />
<path d="M61984 62909
L24624 62909
" />
<path d="M24631 60910
L61991 60910
" />
<path d="M21001 60920
L17901 60920
" />
<path d="M20971 62920
L17897 62938
" />
<path d="M20971.1 62920 A1000.2 1000.2 0.0 0 0 20993.7 60920.7 " />
<path d="M24641.1 60910 A1000 1000 0.0 0 0 24624.5 62909.9 " />
<path d="M61971.1 62910 A1000 1000 0.0 0 0 61992.4 60910.2 " />
<path d="M65621.1 60900 A1000.2 1000.2 0.0 1 0 65622.9 62900 " />
<path d="M83851.1 62900 A1000.2 1000.2 0.0 1 0 83871.1 60899.8 " />
<path d="M87541.9 60900 A1000.2 1000.2 0.0 0 0 87581.1 62900 " />
<path d="M91501.1 19540 A1000.8 1000.8 0.0 0 0 91541.1 21540.8 " />
<path d="M55281.1 21580 A1000.8 1000.8 0.0 1 0 55281.1 19580 " />
<path d="M17861 19560
L17861 19560
" />
<path d="M30621 19560
L17861 19560
" />
<path d="M34281 21580
L55281 21580
" />
<path d="M55261 19580
L34301 19580
" />
<path d="M30621.1 21600 A1020 1020 0.0 0 0 30621.1 19560 " />
<path d="M34301.1 19580 A1000.2 1000.2 0.0 1 0 34281.1 21580.2 " />
<path d="M87881 21570
L59051 21570
" />
<path d="M58901 19590
L87911 19590
" />
<path d="M58981.1 19580 A990.202 990.202 0.0 0 0 59021.1 21560 " />
<path d="M91551 21544
L96638 21552
" />
<path d="M96601 19540
L91501 19540
" />
<path d="M96601 14340
L96601 19540
" />
<path d="M87881.1 21580 A996 996 0.0 0 0 87889.2 19588 " />
<path d="M17861 14320
L96590 14324
" />
<path d="M17861 19560
L17861 14320
" />
<path d="M17901 60920
L17901 21610
" />
<path d="M96641 60900
L96641 21569
" />
</g>
<g style="fill:#000000; fill-opacity:0.0; 
stroke:#000000; stroke-width:94.4882; stroke-opacity:1; 
stroke-linecap:round; stroke-linejoin:round;">
<path d="M58463 24207
L58463 28695
" />
<path d="M58463 24207
L53738 24207
" />
<path d="M53738 24207
L53738 28695
" />
<path d="M53324.4 29287.8 A629.921 629.921 0.0 0 0 53738.9 28695.9 " />
<path d="M53345.2 29286.5 A9051.78 9051.78 0.0 0 0 56136.8 46960.2 " />
<path d="M58463.3 28695.9 A629.921 629.921 0.0 0 0 58877.8 29287.8 " />
<path d="M56065.5 46960.2 A9051.78 9051.78 0.0 0 0 58857 29286.5 " />
<path d="M72032 33760
L72320 34048
" />
<path d="M71241 34551
L71529 34839
" />
<path d="M70092 31800
L70380 32088
" />
<path d="M69301 32591
L69589 32879
" />
<g >
</g>
<g >
</g>
<g >
</g>
<g >
</g>
<g >
</g>
<g >
</g>
<g >
</g>
<g >
</g>
<g >
</g>
<g >
</g>
<g >
</g>
<g >
</g>
<g >
</g>
<g >
</g>
<g >
</g>
<g >
</g>
<g >
</g>
<g >
</g>
<g >
</g>
<g >
</g>
<g >
</g>
<g >
</g>
<g >
</g>
<g >
</g>
<g >
</g>
<g >
</g>
<g >
</g>
<g >
</g>
<g >
</g>
<g >
</g>
<g >
</g>
<g >
</g>
<g >
</g>
<g >
</g>
<g >
</g>
<g >
</g>
<g >
</g>
<g >
</g>
<g >
</g>
<g >
</g>
<g >
</g>
<g >
</g>
<g >
</g>
<g >
</g>
<g >
</g>
<g >
</g>
<g >
</g>
<g >
</g>
<g >
</g>
<g >
</g>
<g >
</g>
<g >
</g>
<g >
</g>
<g >
</g>
<g >
</g>
<g >
</g>
<g >
</g>
<g >
</g>
<g >
</g>
<g >
</g>
<g >
</g>
<g >
</g>
<g >
</g>
<g >
</g>
<g >
</g>
<g >
</g>
<g >
</g>
<g >
</g>
<g >
</g>
<g >
</g>
<g >
</g>
<g >
</g>
<g >
</g>
<g >
</g>
<g >
</g>
<g >
</g>
<g >
</g>
<g >
</g>
<g >
</g>
<g >
</g>
<g >
</g>
<g >
</g>
<g >
</g>
<g >
</g>
<g >
</g>
<g >
</g>
<g >
</g>
<g >
</g>
</g>
<g style="fill:#000000; fill-opacity:0.0; 
stroke:#000000; stroke-width:118.11; stroke-opacity:1; 
stroke-linecap:round; stroke-linejoin:round;">
<path d="M52659 25321
L52696 25433
L52734 25471
L52809 25508
L52921 25508
L52996 25471
L53034 25433
L53071 25358
L53071 25058
L52284 25058
L52284 25321
L52321 25396
L52359 25433
L52434 25471
L52509 25471
L52584 25433
L52621 25396
L52659 25321
L52659 25058
" />
<path d="M52284 25733
L52284 26183
" />
<path d="M53071 25958
L52284 25958
" />
<path d="M52359 26408
L52321 26446
L52284 26521
L52284 26708
L52321 26783
L52359 26821
L52434 26858
L52509 26858
L52621 26821
L53071 26371
L53071 26858
" />
<path d="M56185 27655
L56185 28555
" />
<path d="M56635 28105
L55735 28105
" />
<path d="M71021 35775
L71021 35828
L71074 35934
L71127 35987
L71233 36040
L71339 36040
L71419 36014
L71551 35934
L71631 35854
L71710 35722
L71737 35642
L71737 35536
L71684 35430
L71631 35377
L71525 35324
L71472 35324
" />
<path d="M71260 35112
L71260 35059
L71233 34980
L71101 34847
L71021 34820
L70968 34820
L70888 34847
L70835 34900
L70782 35006
L70782 35642
L70438 35298
" />
<path d="M70729 34582
L70729 34529
L70703 34449
L70570 34317
L70491 34290
L70438 34290
L70358 34317
L70305 34370
L70252 34476
L70252 35112
L69907 34767
" />
<path d="M69081 33815
L69081 33868
L69134 33974
L69187 34027
L69293 34080
L69399 34080
L69479 34054
L69611 33974
L69691 33894
L69770 33762
L69797 33682
L69797 33576
L69744 33470
L69691 33417
L69585 33364
L69532 33364
" />
<path d="M69320 33152
L69320 33099
L69293 33020
L69161 32887
L69081 32860
L69028 32860
L68948 32887
L68895 32940
L68842 33046
L68842 33682
L68498 33338
" />
<path d="M67967 32807
L68286 33126
" />
<path d="M68127 32967
L68683 32410
L68657 32542
L68657 32648
L68683 32728
" />
<g >
</g>
</g> 
</svg>
