M48
;DRILL file {KiCad (5.0-dev-4122-gf60c251)} date Monday, 11 June 2018 at 14:34:34
;FORMAT={-:-/ absolute / metric / decimal}
FMAT,2
METRIC,TZ
T1C0.500
T2C1.000
T3C2.500
%
G90
G05
M71
T1
X85.23Y-63.975
X85.23Y-66.175
X86.03Y-63.975
X86.03Y-66.175
X86.83Y-63.975
X86.83Y-66.175
X157.95Y-63.924
X157.95Y-66.124
X158.75Y-63.924
X158.75Y-66.124
X159.55Y-63.924
X159.55Y-66.124
X125.07Y-116.464
X125.07Y-118.664
X125.87Y-116.464
X125.87Y-118.664
X126.67Y-116.464
X126.67Y-118.664
X72.987Y-116.464
X72.987Y-118.664
X73.787Y-116.464
X73.787Y-118.664
X74.587Y-116.464
X74.587Y-118.664
X116.624Y-63.975
X116.624Y-66.175
X117.424Y-63.975
X117.424Y-66.175
X118.224Y-63.975
X118.224Y-66.175
X152.895Y-116.443
X152.895Y-118.643
X153.695Y-116.443
X153.695Y-118.643
X154.495Y-116.443
X154.495Y-118.643
T2
X163.195Y-79.65
X163.195Y-87.63
T3
X80.Y-60.
X80.Y-120.
X150.Y-60.
X160.Y-120.
T0
M30
