M48
;DRILL file {KiCad (5.0-dev-4122-gf60c251)} date Monday, 11 June 2018 at 14:34:34
;FORMAT={-:-/ absolute / metric / decimal}
FMAT,2
METRIC,TZ
T1C0.400
T2C0.500
T3C0.600
T4C0.700
T5C0.800
T6C0.900
T7C1.000
T8C1.050
T9C1.100
T10C1.500
T11C1.700
T12C2.700
%
G90
G05
M71
T1
X90.8Y-73.5
X99.471Y-81.691
X105.54Y-76.012
X107.696Y-74.422
X109.964Y-72.663
X110.109Y-73.787
X111.379Y-104.14
X116.74Y-100.702
X117.094Y-104.14
X117.729Y-96.774
X117.856Y-79.629
X119.288Y-96.256
X120.65Y-89.662
X121.92Y-86.868
X123.698Y-72.898
X123.698Y-98.806
X123.858Y-80.79
X125.476Y-91.44
X125.476Y-101.6
X125.476Y-102.87
X125.476Y-104.14
X126.162Y-87.96
X127.037Y-86.568
X127.762Y-83.312
X127.897Y-89.208
X128.448Y-91.694
X128.666Y-94.548
X129.736Y-94.982
X129.923Y-82.479
X131.502Y-76.501
X131.634Y-89.368
X131.877Y-83.363
X132.232Y-85.725
X132.334Y-75.946
X132.842Y-89.154
X133.014Y-81.55
X133.063Y-77.447
X134.036Y-73.076
X134.112Y-89.154
X134.112Y-91.186
X134.391Y-82.499
X134.671Y-71.425
X135.153Y-84.404
X135.306Y-83.388
X136.169Y-70.231
X136.906Y-88.138
X137.352Y-87.06
X138.556Y-80.098
X138.786Y-73.681
X140.665Y-71.679
X143.85Y-73.52
X143.91Y-83.712
X146.05Y-76.2
X146.05Y-77.216
X146.395Y-83.979
X149.098Y-83.529
X150.774Y-81.813
X156.21Y-74.168
X160.579Y-74.27
X162.255Y-91.999
T2
X69.095Y-111.76
X69.688Y-110.328
X69.688Y-113.192
X71.12Y-109.735
X71.12Y-113.785
X72.552Y-110.328
X72.552Y-113.192
X73.145Y-111.76
X161.805Y-111.76
X162.398Y-110.328
X162.398Y-113.192
X163.83Y-109.735
X163.83Y-113.785
X165.262Y-110.328
X165.262Y-113.192
X165.855Y-111.76
X161.5Y-70.155
X162.093Y-68.723
X162.093Y-71.587
X163.525Y-68.13
X163.525Y-72.18
X164.957Y-68.723
X164.957Y-71.587
X165.55Y-70.155
X69.146Y-70.028
X69.739Y-68.596
X69.739Y-71.46
X71.171Y-68.003
X71.171Y-72.053
X72.603Y-68.596
X72.603Y-71.46
X73.196Y-70.028
T3
X106.754Y-67.61
X112.415Y-79.875
X115.153Y-79.858
X121.42Y-107.069
X124.536Y-86.566
X137.885Y-75.841
X137.909Y-78.593
T6
X69.215Y-81.28
X71.755Y-81.28
X74.295Y-81.28
T7
X144.602Y-93.878
X147.142Y-93.878
X149.682Y-93.878
X152.222Y-93.878
X154.762Y-93.878
X141.986Y-68.58
X144.526Y-68.58
X147.066Y-68.58
X149.606Y-68.58
X152.146Y-68.58
X154.686Y-68.58
X134.747Y-93.853
X137.287Y-93.853
X139.827Y-93.853
X126.263Y-69.596
X126.263Y-72.136
X128.803Y-69.596
X128.803Y-72.136
X131.343Y-69.596
X131.343Y-72.136
T8
X75.387Y-102.616
X75.387Y-105.116
X131.064Y-102.148
X131.064Y-104.648
X87.25Y-70.5
X87.25Y-73.
X93.675Y-102.656
X93.675Y-105.156
X84.531Y-102.656
X84.531Y-105.156
X102.743Y-102.591
X102.743Y-105.091
X158.496Y-102.148
X158.496Y-104.648
X149.352Y-102.148
X149.352Y-104.648
X140.233Y-102.478
X140.233Y-104.978
X90.983Y-84.785
X90.983Y-87.285
T9
X145.242Y-72.098
X145.242Y-78.598
X149.742Y-72.098
X149.742Y-78.598
X96.82Y-83.162
X96.82Y-89.662
X101.32Y-83.162
X101.32Y-89.662
T10
X116.078Y-71.882
X116.078Y-92.372
T11
X79.449Y-71.955
X79.449Y-78.955
T12
X71.12Y-111.76
X163.83Y-111.76
X163.525Y-70.155
X71.171Y-70.028
T4
X76.249Y-68.405G85X76.249Y-67.705
G05
X77.049Y-71.205G85X77.049Y-70.505
G05
T5
X77.049Y-80.705G85X77.049Y-79.805
G05
X80.599Y-83.155G85X79.699Y-83.155
G05
X81.849Y-70.255G85X81.849Y-69.655
G05
X81.849Y-73.055G85X81.849Y-72.455
G05
T0
M30
