<?xml version="1.0" standalone="no"?>
 <!DOCTYPE svg PUBLIC "-//W3C//DTD SVG 1.1//EN" 
 "http://www.w3.org/Graphics/SVG/1.1/DTD/svg11.dtd"> 
<svg xmlns="http://www.w3.org/2000/svg" version="1.1" 
    width="29.7002cm" height="21.0007cm" viewBox="0 0 116930 82680 ">
<title>SVG Picture created as ThermocoupleLogger-F_Paste.svg date 2019/03/15 21:34:39 </title>
  <desc>Picture generated by PCBNEW </desc>
<g style="fill:#000000; fill-opacity:1;stroke:#000000; stroke-opacity:1;
stroke-linecap:round; stroke-linejoin:round; "
 transform="translate(0 0) scale(1 1)">
</g>
<g style="fill:#000000; fill-opacity:0.0; 
stroke:#000000; stroke-width:-0.000787402; stroke-opacity:1; 
stroke-linecap:round; stroke-linejoin:round;">
</g>
<g style="fill:#000000; fill-opacity:0.0; 
stroke:#000000; stroke-width:78.7402; stroke-opacity:1; 
stroke-linecap:round; stroke-linejoin:round;">
<path d="M93465 12845
L93465 73345
" />
<path d="M23465 68963
L23465 68963
" />
<path d="M23465 12845
L93465 12845
" />
<path d="M23465 73345
L93465 73345
" />
<path d="M23465 12845
L23465 73345
" />
<path d="M23465 13845
L23465 13845
" />
</g>
<g style="fill:#000000; fill-opacity:0.0; 
stroke:#000000; stroke-width:0; stroke-opacity:1; 
stroke-linecap:round; stroke-linejoin:round;">
</g>
<g style="fill:#000000; fill-opacity:1.0; 
stroke:#000000; stroke-width:0; stroke-opacity:1; 
stroke-linecap:round; stroke-linejoin:round;">
<polyline style="fill-rule:evenodd;"
points="39817,27529
39836,27532
39855,27537
39873,27543
39890,27551
39907,27561
39922,27573
39937,27586
39950,27600
39961,27616
39971,27632
39979,27650
39986,27668
39991,27687
39993,27706
39994,27725
39994,29516
39993,29536
39991,29555
39986,29573
39979,29592
39971,29609
39961,29626
39950,29641
39937,29655
39922,29668
39907,29680
39890,29690
39873,29698
39855,29705
39836,29709
39817,29712
39798,29713
38931,29713
38912,29712
38893,29709
38874,29705
38856,29698
38839,29690
38822,29680
38807,29668
38792,29655
38779,29641
38768,29626
38758,29609
38750,29592
38743,29573
38738,29555
38736,29536
38735,29516
38735,27725
38736,27706
38738,27687
38743,27668
38750,27650
38758,27632
38768,27616
38779,27600
38792,27586
38807,27573
38822,27561
38839,27551
38856,27543
38874,27537
38893,27532
38912,27529
38931,27528
39798,27528
39817,27529
" /> 
<polyline style="fill-rule:evenodd;"
points="39817,30777
39836,30780
39855,30785
39873,30791
39890,30799
39907,30809
39922,30821
39937,30834
39950,30848
39961,30864
39971,30880
39979,30898
39986,30916
39991,30935
39993,30954
39994,30973
39994,32764
39993,32784
39991,32803
39986,32821
39979,32840
39971,32857
39961,32874
39950,32889
39937,32903
39922,32916
39907,32928
39890,32938
39873,32946
39855,32953
39836,32957
39817,32960
39798,32961
38931,32961
38912,32960
38893,32957
38874,32953
38856,32946
38839,32938
38822,32928
38807,32916
38792,32903
38779,32889
38768,32874
38758,32857
38750,32840
38743,32821
38738,32803
38736,32784
38735,32764
38735,30973
38736,30954
38738,30935
38743,30916
38750,30898
38758,30880
38768,30864
38779,30848
38792,30834
38807,30821
38822,30809
38839,30799
38856,30791
38874,30785
38893,30780
38912,30777
38931,30776
39798,30776
39817,30777
" /> 
<polyline style="fill-rule:evenodd;"
points="40228,35208
40701,35208
40701,36429
40228,36429
40228,35208
" /> 
<polyline style="fill-rule:evenodd;"
points="39228,35208
39701,35208
39701,36429
39228,36429
39228,35208
" /> 
<polyline style="fill-rule:evenodd;"
points="38228,35208
38701,35208
38701,36429
38228,36429
38228,35208
" /> 
<polyline style="fill-rule:evenodd;"
points="37228,35208
37701,35208
37701,36429
37228,36429
37228,35208
" /> 
<polyline style="fill-rule:evenodd;"
points="37228,39460
37701,39460
37701,40681
37228,40681
37228,39460
" /> 
<polyline style="fill-rule:evenodd;"
points="38228,39460
38701,39460
38701,40681
38228,40681
38228,39460
" /> 
<polyline style="fill-rule:evenodd;"
points="39228,39460
39701,39460
39701,40681
39228,40681
39228,39460
" /> 
<polyline style="fill-rule:evenodd;"
points="40228,39460
40701,39460
40701,40681
40228,40681
40228,39460
" /> 
<polyline style="fill-rule:evenodd;"
points="54801,16026
54801,17758
53856,17758
53856,16026
54801,16026
" /> 
<polyline style="fill-rule:evenodd;"
points="67005,16026
67005,17758
66061,17758
66061,16026
67005,16026
" /> 
<polyline style="fill-rule:evenodd;"
points="55667,23900
55667,25002
54407,25002
54407,23900
55667,23900
" /> 
<polyline style="fill-rule:evenodd;"
points="67005,23900
67005,25002
66061,25002
66061,23900
67005,23900
" /> 
<polyline style="fill-rule:evenodd;"
points="65903,24215
65903,25475
65352,25475
65352,24215
65903,24215
" /> 
<polyline style="fill-rule:evenodd;"
points="64171,24215
64171,25475
63620,25475
63620,24215
64171,24215
" /> 
<polyline style="fill-rule:evenodd;"
points="65037,24215
65037,25475
64486,25475
64486,24215
65037,24215
" /> 
<polyline style="fill-rule:evenodd;"
points="63305,24215
63305,25475
62753,25475
62753,24215
63305,24215
" /> 
<polyline style="fill-rule:evenodd;"
points="62439,24215
62439,25475
61887,25475
61887,24215
62439,24215
" /> 
<polyline style="fill-rule:evenodd;"
points="61572,24215
61572,25475
61021,25475
61021,24215
61572,24215
" /> 
<polyline style="fill-rule:evenodd;"
points="58974,24215
58974,25475
58423,25475
58423,24215
58974,24215
" /> 
<polyline style="fill-rule:evenodd;"
points="59840,24215
59840,25475
59289,25475
59289,24215
59840,24215
" /> 
<polyline style="fill-rule:evenodd;"
points="60706,24215
60706,25475
60155,25475
60155,24215
60706,24215
" /> 
<polyline style="fill-rule:evenodd;"
points="32344,33312
31163,33312
31163,31738
32344,31738
32344,33312
" /> 
<polyline style="fill-rule:evenodd;"
points="35966,33312
34785,33312
34785,31738
35966,31738
35966,33312
" /> 
<polyline style="fill-rule:evenodd;"
points="34155,33312
32974,33312
32974,31738
34155,31738
34155,33312
" /> 
<polyline style="fill-rule:evenodd;"
points="35061,28352
32068,28352
32068,26777
35061,26777
35061,28352
" /> 
<polyline style="fill-rule:evenodd;"
points="40713,17989
40713,18501
39753,18501
39753,17989
40713,17989
" /> 
<polyline style="fill-rule:evenodd;"
points="42776,17241
42776,17752
41816,17752
41816,17241
42776,17241
" /> 
<polyline style="fill-rule:evenodd;"
points="42776,18737
42776,19249
41816,19249
41816,18737
42776,18737
" /> 
<polyline style="fill-rule:evenodd;"
points="37242,21791
36887,21791
36887,21319
37242,21319
37242,21791
" /> 
<polyline style="fill-rule:evenodd;"
points="37242,23445
36887,23445
36887,22972
37242,22972
37242,23445
" /> 
<polyline style="fill-rule:evenodd;"
points="74437,26100
73492,26100
73492,25391
74437,25391
74437,26100
" /> 
<polyline style="fill-rule:evenodd;"
points="74437,28698
73492,28698
73492,27990
74437,27990
74437,28698
" /> 
<polyline style="fill-rule:evenodd;"
points="71537,26100
70592,26100
70592,25391
71537,25391
71537,26100
" /> 
<polyline style="fill-rule:evenodd;"
points="71537,28698
70592,28698
70592,27990
71537,27990
71537,28698
" /> 
<polyline style="fill-rule:evenodd;"
points="68817,26100
67872,26100
67872,25391
68817,25391
68817,26100
" /> 
<polyline style="fill-rule:evenodd;"
points="68817,28698
67872,28698
67872,27990
68817,27990
68817,28698
" /> 
<polyline style="fill-rule:evenodd;"
points="35513,42994
35532,42997
35550,43002
35568,43008
35585,43016
35601,43026
35616,43037
35630,43050
35643,43064
35654,43079
35664,43095
35672,43112
35678,43130
35683,43148
35686,43167
35687,43185
35687,43904
35686,43923
35683,43941
35678,43960
35672,43977
35664,43994
35654,44011
35643,44026
35630,44040
35616,44052
35601,44063
35585,44073
35568,44081
35550,44088
35532,44092
35513,44095
35495,44096
35111,44096
35092,44095
35073,44092
35055,44088
35037,44081
35020,44073
35004,44063
34989,44052
34975,44040
34962,44026
34951,44011
34941,43994
34933,43977
34927,43960
34923,43941
34920,43923
34919,43904
34919,43185
34920,43167
34923,43148
34927,43130
34933,43112
34941,43095
34951,43079
34962,43064
34975,43050
34989,43037
35004,43026
35020,43016
35037,43008
35055,43002
35073,42997
35092,42994
35111,42993
35495,42993
35513,42994
" /> 
<polyline style="fill-rule:evenodd;"
points="34037,42994
34056,42997
34074,43002
34092,43008
34109,43016
34125,43026
34140,43037
34154,43050
34167,43064
34178,43079
34188,43095
34196,43112
34202,43130
34206,43148
34209,43167
34210,43185
34210,43904
34209,43923
34206,43941
34202,43960
34196,43977
34188,43994
34178,44011
34167,44026
34154,44040
34140,44052
34125,44063
34109,44073
34092,44081
34074,44088
34056,44092
34037,44095
34018,44096
33634,44096
33616,44095
33597,44092
33579,44088
33561,44081
33544,44073
33528,44063
33513,44052
33499,44040
33486,44026
33475,44011
33465,43994
33457,43977
33451,43960
33446,43941
33443,43923
33442,43904
33442,43185
33443,43167
33446,43148
33451,43130
33457,43112
33465,43095
33475,43079
33486,43064
33499,43050
33513,43037
33528,43026
33544,43016
33561,43008
33579,43002
33597,42997
33616,42994
33634,42993
34018,42993
34037,42994
" /> 
<polyline style="fill-rule:evenodd;"
points="35513,41244
35532,41247
35550,41252
35568,41258
35585,41266
35601,41276
35616,41287
35630,41300
35643,41314
35654,41329
35664,41345
35672,41362
35678,41380
35683,41398
35686,41417
35687,41435
35687,42154
35686,42173
35683,42191
35678,42210
35672,42227
35664,42244
35654,42261
35643,42276
35630,42290
35616,42302
35601,42313
35585,42323
35568,42331
35550,42338
35532,42342
35513,42345
35495,42346
35111,42346
35092,42345
35073,42342
35055,42338
35037,42331
35020,42323
35004,42313
34989,42302
34975,42290
34962,42276
34951,42261
34941,42244
34933,42227
34927,42210
34923,42191
34920,42173
34919,42154
34919,41435
34920,41417
34923,41398
34927,41380
34933,41362
34941,41345
34951,41329
34962,41314
34975,41300
34989,41287
35004,41276
35020,41266
35037,41258
35055,41252
35073,41247
35092,41244
35111,41243
35495,41243
35513,41244
" /> 
<polyline style="fill-rule:evenodd;"
points="34037,41244
34056,41247
34074,41252
34092,41258
34109,41266
34125,41276
34140,41287
34154,41300
34167,41314
34178,41329
34188,41345
34196,41362
34202,41380
34206,41398
34209,41417
34210,41435
34210,42154
34209,42173
34206,42191
34202,42210
34196,42227
34188,42244
34178,42261
34167,42276
34154,42290
34140,42302
34125,42313
34109,42323
34092,42331
34074,42338
34056,42342
34037,42345
34018,42346
33634,42346
33616,42345
33597,42342
33579,42338
33561,42331
33544,42323
33528,42313
33513,42302
33499,42290
33486,42276
33475,42261
33465,42244
33457,42227
33451,42210
33446,42191
33443,42173
33442,42154
33442,41435
33443,41417
33446,41398
33451,41380
33457,41362
33465,41345
33475,41329
33486,41314
33499,41300
33513,41287
33528,41276
33544,41266
33561,41258
33579,41252
33597,41247
33616,41244
33634,41243
34018,41243
34037,41244
" /> 
<polyline style="fill-rule:evenodd;"
points="51543,44000
51561,44003
51579,44007
51597,44014
51614,44022
51630,44031
51646,44043
51659,44055
51672,44069
51683,44084
51693,44100
51701,44117
51707,44135
51712,44153
51715,44172
51716,44191
51716,44575
51715,44594
51712,44612
51707,44630
51701,44648
51693,44665
51683,44681
51672,44696
51659,44710
51646,44723
51630,44734
51614,44744
51597,44752
51579,44758
51561,44763
51543,44766
51524,44767
50805,44767
50786,44766
50768,44763
50750,44758
50732,44752
50715,44744
50699,44734
50683,44723
50670,44710
50657,44696
50646,44681
50636,44665
50628,44648
50622,44630
50617,44612
50614,44594
50613,44575
50613,44191
50614,44172
50617,44153
50622,44135
50628,44117
50636,44100
50646,44084
50657,44069
50670,44055
50683,44043
50699,44031
50715,44022
50732,44014
50750,44007
50768,44003
50786,44000
50805,43999
51524,43999
51543,44000
" /> 
<polyline style="fill-rule:evenodd;"
points="51543,42523
51561,42526
51579,42531
51597,42537
51614,42545
51630,42555
51646,42566
51659,42579
51672,42593
51683,42608
51693,42624
51701,42641
51707,42659
51712,42677
51715,42696
51716,42715
51716,43098
51715,43117
51712,43136
51707,43154
51701,43172
51693,43189
51683,43205
51672,43220
51659,43234
51646,43247
51630,43258
51614,43268
51597,43276
51579,43282
51561,43287
51543,43289
51524,43290
50805,43290
50786,43289
50768,43287
50750,43282
50732,43276
50715,43268
50699,43258
50683,43247
50670,43234
50657,43220
50646,43205
50636,43189
50628,43172
50622,43154
50617,43136
50614,43117
50613,43098
50613,42715
50614,42696
50617,42677
50622,42659
50628,42641
50636,42624
50646,42608
50657,42593
50670,42579
50683,42566
50699,42555
50715,42545
50732,42537
50750,42531
50768,42526
50786,42523
50805,42523
51524,42523
51543,42523
" /> 
<polyline style="fill-rule:evenodd;"
points="38643,17123
38661,17126
38679,17131
38697,17137
38714,17145
38730,17155
38746,17166
38759,17179
38772,17193
38783,17208
38793,17224
38801,17241
38807,17259
38812,17277
38815,17296
38816,17315
38816,17698
38815,17717
38812,17736
38807,17754
38801,17772
38793,17789
38783,17805
38772,17820
38759,17834
38746,17847
38730,17858
38714,17868
38697,17876
38679,17882
38661,17887
38643,17889
38624,17890
37905,17890
37886,17889
37868,17887
37850,17882
37832,17876
37815,17868
37799,17858
37783,17847
37770,17834
37757,17820
37746,17805
37736,17789
37728,17772
37722,17754
37717,17736
37714,17717
37713,17698
37713,17315
37714,17296
37717,17277
37722,17259
37728,17241
37736,17224
37746,17208
37757,17193
37770,17179
37783,17166
37799,17155
37815,17145
37832,17137
37850,17131
37868,17126
37886,17123
37905,17123
38624,17123
38643,17123
" /> 
<polyline style="fill-rule:evenodd;"
points="38643,18600
38661,18603
38679,18607
38697,18614
38714,18622
38730,18631
38746,18643
38759,18655
38772,18669
38783,18684
38793,18700
38801,18717
38807,18735
38812,18753
38815,18772
38816,18791
38816,19175
38815,19194
38812,19212
38807,19230
38801,19248
38793,19265
38783,19281
38772,19296
38759,19310
38746,19323
38730,19334
38714,19344
38697,19352
38679,19358
38661,19363
38643,19366
38624,19367
37905,19367
37886,19366
37868,19363
37850,19358
37832,19352
37815,19344
37799,19334
37783,19323
37770,19310
37757,19296
37746,19281
37736,19265
37728,19248
37722,19230
37717,19212
37714,19194
37713,19175
37713,18791
37714,18772
37717,18753
37722,18735
37728,18717
37736,18700
37746,18684
37757,18669
37770,18655
37783,18643
37799,18631
37815,18622
37832,18614
37850,18607
37868,18603
37886,18600
37905,18599
38624,18599
38643,18600
" /> 
<polyline style="fill-rule:evenodd;"
points="66943,30223
66961,30226
66979,30231
66997,30237
67014,30245
67030,30255
67046,30266
67059,30279
67072,30293
67083,30308
67093,30324
67101,30341
67107,30359
67112,30377
67115,30396
67116,30415
67116,30798
67115,30817
67112,30836
67107,30854
67101,30872
67093,30889
67083,30905
67072,30920
67059,30934
67046,30947
67030,30958
67014,30968
66997,30976
66979,30982
66961,30987
66943,30989
66924,30990
66205,30990
66186,30989
66168,30987
66150,30982
66132,30976
66115,30968
66099,30958
66083,30947
66070,30934
66057,30920
66046,30905
66036,30889
66028,30872
66022,30854
66017,30836
66014,30817
66013,30798
66013,30415
66014,30396
66017,30377
66022,30359
66028,30341
66036,30324
66046,30308
66057,30293
66070,30279
66083,30266
66099,30255
66115,30245
66132,30237
66150,30231
66168,30226
66186,30223
66205,30223
66924,30223
66943,30223
" /> 
<polyline style="fill-rule:evenodd;"
points="66943,31700
66961,31703
66979,31707
66997,31714
67014,31722
67030,31731
67046,31743
67059,31755
67072,31769
67083,31784
67093,31800
67101,31817
67107,31835
67112,31853
67115,31872
67116,31891
67116,32275
67115,32294
67112,32312
67107,32330
67101,32348
67093,32365
67083,32381
67072,32396
67059,32410
67046,32423
67030,32434
67014,32444
66997,32452
66979,32458
66961,32463
66943,32466
66924,32467
66205,32467
66186,32466
66168,32463
66150,32458
66132,32452
66115,32444
66099,32434
66083,32423
66070,32410
66057,32396
66046,32381
66036,32365
66028,32348
66022,32330
66017,32312
66014,32294
66013,32275
66013,31891
66014,31872
66017,31853
66022,31835
66028,31817
66036,31800
66046,31784
66057,31769
66070,31755
66083,31743
66099,31731
66115,31722
66132,31714
66150,31707
66168,31703
66186,31700
66205,31699
66924,31699
66943,31700
" /> 
<polyline style="fill-rule:evenodd;"
points="63243,26223
63261,26226
63279,26231
63297,26237
63314,26245
63330,26255
63346,26266
63359,26279
63372,26293
63383,26308
63393,26324
63401,26341
63407,26359
63412,26377
63415,26396
63416,26415
63416,26798
63415,26817
63412,26836
63407,26854
63401,26872
63393,26889
63383,26905
63372,26920
63359,26934
63346,26947
63330,26958
63314,26968
63297,26976
63279,26982
63261,26987
63243,26989
63224,26990
62505,26990
62486,26989
62468,26987
62450,26982
62432,26976
62415,26968
62399,26958
62383,26947
62370,26934
62357,26920
62346,26905
62336,26889
62328,26872
62322,26854
62317,26836
62314,26817
62313,26798
62313,26415
62314,26396
62317,26377
62322,26359
62328,26341
62336,26324
62346,26308
62357,26293
62370,26279
62383,26266
62399,26255
62415,26245
62432,26237
62450,26231
62468,26226
62486,26223
62505,26223
63224,26223
63243,26223
" /> 
<polyline style="fill-rule:evenodd;"
points="63243,27700
63261,27703
63279,27707
63297,27714
63314,27722
63330,27731
63346,27743
63359,27755
63372,27769
63383,27784
63393,27800
63401,27817
63407,27835
63412,27853
63415,27872
63416,27891
63416,28275
63415,28294
63412,28312
63407,28330
63401,28348
63393,28365
63383,28381
63372,28396
63359,28410
63346,28423
63330,28434
63314,28444
63297,28452
63279,28458
63261,28463
63243,28466
63224,28467
62505,28467
62486,28466
62468,28463
62450,28458
62432,28452
62415,28444
62399,28434
62383,28423
62370,28410
62357,28396
62346,28381
62336,28365
62328,28348
62322,28330
62317,28312
62314,28294
62313,28275
62313,27891
62314,27872
62317,27853
62322,27835
62328,27817
62336,27800
62346,27784
62357,27769
62370,27755
62383,27743
62399,27731
62415,27722
62432,27714
62450,27707
62468,27703
62486,27700
62505,27699
63224,27699
63243,27700
" /> 
<polyline style="fill-rule:evenodd;"
points="69343,30223
69361,30226
69379,30231
69397,30237
69414,30245
69430,30255
69446,30266
69459,30279
69472,30293
69483,30308
69493,30324
69501,30341
69507,30359
69512,30377
69515,30396
69516,30415
69516,30798
69515,30817
69512,30836
69507,30854
69501,30872
69493,30889
69483,30905
69472,30920
69459,30934
69446,30947
69430,30958
69414,30968
69397,30976
69379,30982
69361,30987
69343,30989
69324,30990
68605,30990
68586,30989
68568,30987
68550,30982
68532,30976
68515,30968
68499,30958
68483,30947
68470,30934
68457,30920
68446,30905
68436,30889
68428,30872
68422,30854
68417,30836
68414,30817
68413,30798
68413,30415
68414,30396
68417,30377
68422,30359
68428,30341
68436,30324
68446,30308
68457,30293
68470,30279
68483,30266
68499,30255
68515,30245
68532,30237
68550,30231
68568,30226
68586,30223
68605,30223
69324,30223
69343,30223
" /> 
<polyline style="fill-rule:evenodd;"
points="69343,31700
69361,31703
69379,31707
69397,31714
69414,31722
69430,31731
69446,31743
69459,31755
69472,31769
69483,31784
69493,31800
69501,31817
69507,31835
69512,31853
69515,31872
69516,31891
69516,32275
69515,32294
69512,32312
69507,32330
69501,32348
69493,32365
69483,32381
69472,32396
69459,32410
69446,32423
69430,32434
69414,32444
69397,32452
69379,32458
69361,32463
69343,32466
69324,32467
68605,32467
68586,32466
68568,32463
68550,32458
68532,32452
68515,32444
68499,32434
68483,32423
68470,32410
68457,32396
68446,32381
68436,32365
68428,32348
68422,32330
68417,32312
68414,32294
68413,32275
68413,31891
68414,31872
68417,31853
68422,31835
68428,31817
68436,31800
68446,31784
68457,31769
68470,31755
68483,31743
68499,31731
68515,31722
68532,31714
68550,31707
68568,31703
68586,31700
68605,31699
69324,31699
69343,31700
" /> 
<polyline style="fill-rule:evenodd;"
points="29437,36294
29456,36297
29474,36302
29492,36308
29509,36316
29525,36326
29540,36337
29554,36350
29567,36364
29578,36379
29588,36395
29596,36412
29602,36430
29606,36448
29609,36467
29610,36485
29610,37204
29609,37223
29606,37241
29602,37260
29596,37277
29588,37294
29578,37311
29567,37326
29554,37340
29540,37352
29525,37363
29509,37373
29492,37381
29474,37388
29456,37392
29437,37395
29418,37396
29034,37396
29016,37395
28997,37392
28979,37388
28961,37381
28944,37373
28928,37363
28913,37352
28899,37340
28886,37326
28875,37311
28865,37294
28857,37277
28851,37260
28846,37241
28843,37223
28842,37204
28842,36485
28843,36467
28846,36448
28851,36430
28857,36412
28865,36395
28875,36379
28886,36364
28899,36350
28913,36337
28928,36326
28944,36316
28961,36308
28979,36302
28997,36297
29016,36294
29034,36293
29418,36293
29437,36294
" /> 
<polyline style="fill-rule:evenodd;"
points="30913,36294
30932,36297
30950,36302
30968,36308
30985,36316
31001,36326
31016,36337
31030,36350
31043,36364
31054,36379
31064,36395
31072,36412
31078,36430
31083,36448
31086,36467
31087,36485
31087,37204
31086,37223
31083,37241
31078,37260
31072,37277
31064,37294
31054,37311
31043,37326
31030,37340
31016,37352
31001,37363
30985,37373
30968,37381
30950,37388
30932,37392
30913,37395
30895,37396
30511,37396
30492,37395
30473,37392
30455,37388
30437,37381
30420,37373
30404,37363
30389,37352
30375,37340
30362,37326
30351,37311
30341,37294
30333,37277
30327,37260
30323,37241
30320,37223
30319,37204
30319,36485
30320,36467
30323,36448
30327,36430
30333,36412
30341,36395
30351,36379
30362,36364
30375,36350
30389,36337
30404,36326
30420,36316
30437,36308
30455,36302
30473,36297
30492,36294
30511,36293
30895,36293
30913,36294
" /> 
<polyline style="fill-rule:evenodd;"
points="62043,64223
62061,64226
62079,64231
62097,64237
62114,64245
62130,64255
62146,64266
62159,64279
62172,64293
62183,64308
62193,64324
62201,64341
62207,64359
62212,64377
62215,64396
62216,64415
62216,64798
62215,64817
62212,64836
62207,64854
62201,64872
62193,64889
62183,64905
62172,64920
62159,64934
62146,64947
62130,64958
62114,64968
62097,64976
62079,64982
62061,64987
62043,64989
62024,64990
61305,64990
61286,64989
61268,64987
61250,64982
61232,64976
61215,64968
61199,64958
61183,64947
61170,64934
61157,64920
61146,64905
61136,64889
61128,64872
61122,64854
61117,64836
61114,64817
61113,64798
61113,64415
61114,64396
61117,64377
61122,64359
61128,64341
61136,64324
61146,64308
61157,64293
61170,64279
61183,64266
61199,64255
61215,64245
61232,64237
61250,64231
61268,64226
61286,64223
61305,64223
62024,64223
62043,64223
" /> 
<polyline style="fill-rule:evenodd;"
points="62043,65700
62061,65703
62079,65707
62097,65714
62114,65722
62130,65731
62146,65743
62159,65755
62172,65769
62183,65784
62193,65800
62201,65817
62207,65835
62212,65853
62215,65872
62216,65891
62216,66275
62215,66294
62212,66312
62207,66330
62201,66348
62193,66365
62183,66381
62172,66396
62159,66410
62146,66423
62130,66434
62114,66444
62097,66452
62079,66458
62061,66463
62043,66466
62024,66467
61305,66467
61286,66466
61268,66463
61250,66458
61232,66452
61215,66444
61199,66434
61183,66423
61170,66410
61157,66396
61146,66381
61136,66365
61128,66348
61122,66330
61117,66312
61114,66294
61113,66275
61113,65891
61114,65872
61117,65853
61122,65835
61128,65817
61136,65800
61146,65784
61157,65769
61170,65755
61183,65743
61199,65731
61215,65722
61232,65714
61250,65707
61268,65703
61286,65700
61305,65699
62024,65699
62043,65700
" /> 
<polyline style="fill-rule:evenodd;"
points="74043,65700
74061,65703
74079,65707
74097,65714
74114,65722
74130,65731
74146,65743
74159,65755
74172,65769
74183,65784
74193,65800
74201,65817
74207,65835
74212,65853
74215,65872
74216,65891
74216,66275
74215,66294
74212,66312
74207,66330
74201,66348
74193,66365
74183,66381
74172,66396
74159,66410
74146,66423
74130,66434
74114,66444
74097,66452
74079,66458
74061,66463
74043,66466
74024,66467
73305,66467
73286,66466
73268,66463
73250,66458
73232,66452
73215,66444
73199,66434
73183,66423
73170,66410
73157,66396
73146,66381
73136,66365
73128,66348
73122,66330
73117,66312
73114,66294
73113,66275
73113,65891
73114,65872
73117,65853
73122,65835
73128,65817
73136,65800
73146,65784
73157,65769
73170,65755
73183,65743
73199,65731
73215,65722
73232,65714
73250,65707
73268,65703
73286,65700
73305,65699
74024,65699
74043,65700
" /> 
<polyline style="fill-rule:evenodd;"
points="74043,64223
74061,64226
74079,64231
74097,64237
74114,64245
74130,64255
74146,64266
74159,64279
74172,64293
74183,64308
74193,64324
74201,64341
74207,64359
74212,64377
74215,64396
74216,64415
74216,64798
74215,64817
74212,64836
74207,64854
74201,64872
74193,64889
74183,64905
74172,64920
74159,64934
74146,64947
74130,64958
74114,64968
74097,64976
74079,64982
74061,64987
74043,64989
74024,64990
73305,64990
73286,64989
73268,64987
73250,64982
73232,64976
73215,64968
73199,64958
73183,64947
73170,64934
73157,64920
73146,64905
73136,64889
73128,64872
73122,64854
73117,64836
73114,64817
73113,64798
73113,64415
73114,64396
73117,64377
73122,64359
73128,64341
73136,64324
73146,64308
73157,64293
73170,64279
73183,64266
73199,64255
73215,64245
73232,64237
73250,64231
73268,64226
73286,64223
73305,64223
74024,64223
74043,64223
" /> 
<polyline style="fill-rule:evenodd;"
points="34043,64183
34061,64186
34079,64191
34097,64197
34114,64205
34130,64215
34146,64226
34159,64239
34172,64253
34183,64268
34193,64284
34201,64301
34207,64319
34212,64337
34215,64356
34216,64375
34216,64758
34215,64777
34212,64796
34207,64814
34201,64832
34193,64849
34183,64865
34172,64880
34159,64894
34146,64907
34130,64918
34114,64928
34097,64936
34079,64942
34061,64947
34043,64949
34024,64950
33305,64950
33286,64949
33268,64947
33250,64942
33232,64936
33215,64928
33199,64918
33183,64907
33170,64894
33157,64880
33146,64865
33136,64849
33128,64832
33122,64814
33117,64796
33114,64777
33113,64758
33113,64375
33114,64356
33117,64337
33122,64319
33128,64301
33136,64284
33146,64268
33157,64253
33170,64239
33183,64226
33199,64215
33215,64205
33232,64197
33250,64191
33268,64186
33286,64183
33305,64183
34024,64183
34043,64183
" /> 
<polyline style="fill-rule:evenodd;"
points="34043,65660
34061,65663
34079,65667
34097,65674
34114,65682
34130,65691
34146,65703
34159,65715
34172,65729
34183,65744
34193,65760
34201,65777
34207,65795
34212,65813
34215,65832
34216,65851
34216,66235
34215,66254
34212,66272
34207,66290
34201,66308
34193,66325
34183,66341
34172,66356
34159,66370
34146,66383
34130,66394
34114,66404
34097,66412
34079,66418
34061,66423
34043,66426
34024,66427
33305,66427
33286,66426
33268,66423
33250,66418
33232,66412
33215,66404
33199,66394
33183,66383
33170,66370
33157,66356
33146,66341
33136,66325
33128,66308
33122,66290
33117,66272
33114,66254
33113,66235
33113,65851
33114,65832
33117,65813
33122,65795
33128,65777
33136,65760
33146,65744
33157,65729
33170,65715
33183,65703
33199,65691
33215,65682
33232,65674
33250,65667
33268,65663
33286,65660
33305,65659
34024,65659
34043,65660
" /> 
<polyline style="fill-rule:evenodd;"
points="32083,65660
32101,65663
32119,65667
32137,65674
32154,65682
32170,65691
32186,65703
32199,65715
32212,65729
32223,65744
32233,65760
32241,65777
32247,65795
32252,65813
32255,65832
32256,65851
32256,66235
32255,66254
32252,66272
32247,66290
32241,66308
32233,66325
32223,66341
32212,66356
32199,66370
32186,66383
32170,66394
32154,66404
32137,66412
32119,66418
32101,66423
32083,66426
32064,66427
31345,66427
31326,66426
31308,66423
31290,66418
31272,66412
31255,66404
31239,66394
31223,66383
31210,66370
31197,66356
31186,66341
31176,66325
31168,66308
31162,66290
31157,66272
31154,66254
31153,66235
31153,65851
31154,65832
31157,65813
31162,65795
31168,65777
31176,65760
31186,65744
31197,65729
31210,65715
31223,65703
31239,65691
31255,65682
31272,65674
31290,65667
31308,65663
31326,65660
31345,65659
32064,65659
32083,65660
" /> 
<polyline style="fill-rule:evenodd;"
points="32083,64183
32101,64186
32119,64191
32137,64197
32154,64205
32170,64215
32186,64226
32199,64239
32212,64253
32223,64268
32233,64284
32241,64301
32247,64319
32252,64337
32255,64356
32256,64375
32256,64758
32255,64777
32252,64796
32247,64814
32241,64832
32233,64849
32223,64865
32212,64880
32199,64894
32186,64907
32170,64918
32154,64928
32137,64936
32119,64942
32101,64947
32083,64949
32064,64950
31345,64950
31326,64949
31308,64947
31290,64942
31272,64936
31255,64928
31239,64918
31223,64907
31210,64894
31197,64880
31186,64865
31176,64849
31168,64832
31162,64814
31157,64796
31154,64777
31153,64758
31153,64375
31154,64356
31157,64337
31162,64319
31168,64301
31176,64284
31186,64268
31197,64253
31210,64239
31223,64226
31239,64215
31255,64205
31272,64197
31290,64191
31308,64186
31326,64183
31345,64183
32064,64183
32083,64183
" /> 
<polyline style="fill-rule:evenodd;"
points="39043,65700
39061,65703
39079,65707
39097,65714
39114,65722
39130,65731
39146,65743
39159,65755
39172,65769
39183,65784
39193,65800
39201,65817
39207,65835
39212,65853
39215,65872
39216,65891
39216,66275
39215,66294
39212,66312
39207,66330
39201,66348
39193,66365
39183,66381
39172,66396
39159,66410
39146,66423
39130,66434
39114,66444
39097,66452
39079,66458
39061,66463
39043,66466
39024,66467
38305,66467
38286,66466
38268,66463
38250,66458
38232,66452
38215,66444
38199,66434
38183,66423
38170,66410
38157,66396
38146,66381
38136,66365
38128,66348
38122,66330
38117,66312
38114,66294
38113,66275
38113,65891
38114,65872
38117,65853
38122,65835
38128,65817
38136,65800
38146,65784
38157,65769
38170,65755
38183,65743
38199,65731
38215,65722
38232,65714
38250,65707
38268,65703
38286,65700
38305,65699
39024,65699
39043,65700
" /> 
<polyline style="fill-rule:evenodd;"
points="39043,64223
39061,64226
39079,64231
39097,64237
39114,64245
39130,64255
39146,64266
39159,64279
39172,64293
39183,64308
39193,64324
39201,64341
39207,64359
39212,64377
39215,64396
39216,64415
39216,64798
39215,64817
39212,64836
39207,64854
39201,64872
39193,64889
39183,64905
39172,64920
39159,64934
39146,64947
39130,64958
39114,64968
39097,64976
39079,64982
39061,64987
39043,64989
39024,64990
38305,64990
38286,64989
38268,64987
38250,64982
38232,64976
38215,64968
38199,64958
38183,64947
38170,64934
38157,64920
38146,64905
38136,64889
38128,64872
38122,64854
38117,64836
38114,64817
38113,64798
38113,64415
38114,64396
38117,64377
38122,64359
38128,64341
38136,64324
38146,64308
38157,64293
38170,64279
38183,64266
38199,64255
38215,64245
38232,64237
38250,64231
38268,64226
38286,64223
38305,64223
39024,64223
39043,64223
" /> 
<polyline style="fill-rule:evenodd;"
points="46043,65700
46061,65703
46079,65707
46097,65714
46114,65722
46130,65731
46146,65743
46159,65755
46172,65769
46183,65784
46193,65800
46201,65817
46207,65835
46212,65853
46215,65872
46216,65891
46216,66275
46215,66294
46212,66312
46207,66330
46201,66348
46193,66365
46183,66381
46172,66396
46159,66410
46146,66423
46130,66434
46114,66444
46097,66452
46079,66458
46061,66463
46043,66466
46024,66467
45305,66467
45286,66466
45268,66463
45250,66458
45232,66452
45215,66444
45199,66434
45183,66423
45170,66410
45157,66396
45146,66381
45136,66365
45128,66348
45122,66330
45117,66312
45114,66294
45113,66275
45113,65891
45114,65872
45117,65853
45122,65835
45128,65817
45136,65800
45146,65784
45157,65769
45170,65755
45183,65743
45199,65731
45215,65722
45232,65714
45250,65707
45268,65703
45286,65700
45305,65699
46024,65699
46043,65700
" /> 
<polyline style="fill-rule:evenodd;"
points="46043,64223
46061,64226
46079,64231
46097,64237
46114,64245
46130,64255
46146,64266
46159,64279
46172,64293
46183,64308
46193,64324
46201,64341
46207,64359
46212,64377
46215,64396
46216,64415
46216,64798
46215,64817
46212,64836
46207,64854
46201,64872
46193,64889
46183,64905
46172,64920
46159,64934
46146,64947
46130,64958
46114,64968
46097,64976
46079,64982
46061,64987
46043,64989
46024,64990
45305,64990
45286,64989
45268,64987
45250,64982
45232,64976
45215,64968
45199,64958
45183,64947
45170,64934
45157,64920
45146,64905
45136,64889
45128,64872
45122,64854
45117,64836
45114,64817
45113,64798
45113,64415
45114,64396
45117,64377
45122,64359
45128,64341
45136,64324
45146,64308
45157,64293
45170,64279
45183,64266
45199,64255
45215,64245
45232,64237
45250,64231
45268,64226
45286,64223
45305,64223
46024,64223
46043,64223
" /> 
<polyline style="fill-rule:evenodd;"
points="53043,65700
53061,65703
53079,65707
53097,65714
53114,65722
53130,65731
53146,65743
53159,65755
53172,65769
53183,65784
53193,65800
53201,65817
53207,65835
53212,65853
53215,65872
53216,65891
53216,66275
53215,66294
53212,66312
53207,66330
53201,66348
53193,66365
53183,66381
53172,66396
53159,66410
53146,66423
53130,66434
53114,66444
53097,66452
53079,66458
53061,66463
53043,66466
53024,66467
52305,66467
52286,66466
52268,66463
52250,66458
52232,66452
52215,66444
52199,66434
52183,66423
52170,66410
52157,66396
52146,66381
52136,66365
52128,66348
52122,66330
52117,66312
52114,66294
52113,66275
52113,65891
52114,65872
52117,65853
52122,65835
52128,65817
52136,65800
52146,65784
52157,65769
52170,65755
52183,65743
52199,65731
52215,65722
52232,65714
52250,65707
52268,65703
52286,65700
52305,65699
53024,65699
53043,65700
" /> 
<polyline style="fill-rule:evenodd;"
points="53043,64223
53061,64226
53079,64231
53097,64237
53114,64245
53130,64255
53146,64266
53159,64279
53172,64293
53183,64308
53193,64324
53201,64341
53207,64359
53212,64377
53215,64396
53216,64415
53216,64798
53215,64817
53212,64836
53207,64854
53201,64872
53193,64889
53183,64905
53172,64920
53159,64934
53146,64947
53130,64958
53114,64968
53097,64976
53079,64982
53061,64987
53043,64989
53024,64990
52305,64990
52286,64989
52268,64987
52250,64982
52232,64976
52215,64968
52199,64958
52183,64947
52170,64934
52157,64920
52146,64905
52136,64889
52128,64872
52122,64854
52117,64836
52114,64817
52113,64798
52113,64415
52114,64396
52117,64377
52122,64359
52128,64341
52136,64324
52146,64308
52157,64293
52170,64279
52183,64266
52199,64255
52215,64245
52232,64237
52250,64231
52268,64226
52286,64223
52305,64223
53024,64223
53043,64223
" /> 
<polyline style="fill-rule:evenodd;"
points="60043,65700
60061,65703
60079,65707
60097,65714
60114,65722
60130,65731
60146,65743
60159,65755
60172,65769
60183,65784
60193,65800
60201,65817
60207,65835
60212,65853
60215,65872
60216,65891
60216,66275
60215,66294
60212,66312
60207,66330
60201,66348
60193,66365
60183,66381
60172,66396
60159,66410
60146,66423
60130,66434
60114,66444
60097,66452
60079,66458
60061,66463
60043,66466
60024,66467
59305,66467
59286,66466
59268,66463
59250,66458
59232,66452
59215,66444
59199,66434
59183,66423
59170,66410
59157,66396
59146,66381
59136,66365
59128,66348
59122,66330
59117,66312
59114,66294
59113,66275
59113,65891
59114,65872
59117,65853
59122,65835
59128,65817
59136,65800
59146,65784
59157,65769
59170,65755
59183,65743
59199,65731
59215,65722
59232,65714
59250,65707
59268,65703
59286,65700
59305,65699
60024,65699
60043,65700
" /> 
<polyline style="fill-rule:evenodd;"
points="60043,64223
60061,64226
60079,64231
60097,64237
60114,64245
60130,64255
60146,64266
60159,64279
60172,64293
60183,64308
60193,64324
60201,64341
60207,64359
60212,64377
60215,64396
60216,64415
60216,64798
60215,64817
60212,64836
60207,64854
60201,64872
60193,64889
60183,64905
60172,64920
60159,64934
60146,64947
60130,64958
60114,64968
60097,64976
60079,64982
60061,64987
60043,64989
60024,64990
59305,64990
59286,64989
59268,64987
59250,64982
59232,64976
59215,64968
59199,64958
59183,64947
59170,64934
59157,64920
59146,64905
59136,64889
59128,64872
59122,64854
59117,64836
59114,64817
59113,64798
59113,64415
59114,64396
59117,64377
59122,64359
59128,64341
59136,64324
59146,64308
59157,64293
59170,64279
59183,64266
59199,64255
59215,64245
59232,64237
59250,64231
59268,64226
59286,64223
59305,64223
60024,64223
60043,64223
" /> 
<polyline style="fill-rule:evenodd;"
points="67043,65700
67061,65703
67079,65707
67097,65714
67114,65722
67130,65731
67146,65743
67159,65755
67172,65769
67183,65784
67193,65800
67201,65817
67207,65835
67212,65853
67215,65872
67216,65891
67216,66275
67215,66294
67212,66312
67207,66330
67201,66348
67193,66365
67183,66381
67172,66396
67159,66410
67146,66423
67130,66434
67114,66444
67097,66452
67079,66458
67061,66463
67043,66466
67024,66467
66305,66467
66286,66466
66268,66463
66250,66458
66232,66452
66215,66444
66199,66434
66183,66423
66170,66410
66157,66396
66146,66381
66136,66365
66128,66348
66122,66330
66117,66312
66114,66294
66113,66275
66113,65891
66114,65872
66117,65853
66122,65835
66128,65817
66136,65800
66146,65784
66157,65769
66170,65755
66183,65743
66199,65731
66215,65722
66232,65714
66250,65707
66268,65703
66286,65700
66305,65699
67024,65699
67043,65700
" /> 
<polyline style="fill-rule:evenodd;"
points="67043,64223
67061,64226
67079,64231
67097,64237
67114,64245
67130,64255
67146,64266
67159,64279
67172,64293
67183,64308
67193,64324
67201,64341
67207,64359
67212,64377
67215,64396
67216,64415
67216,64798
67215,64817
67212,64836
67207,64854
67201,64872
67193,64889
67183,64905
67172,64920
67159,64934
67146,64947
67130,64958
67114,64968
67097,64976
67079,64982
67061,64987
67043,64989
67024,64990
66305,64990
66286,64989
66268,64987
66250,64982
66232,64976
66215,64968
66199,64958
66183,64947
66170,64934
66157,64920
66146,64905
66136,64889
66128,64872
66122,64854
66117,64836
66114,64817
66113,64798
66113,64415
66114,64396
66117,64377
66122,64359
66128,64341
66136,64324
66146,64308
66157,64293
66170,64279
66183,64266
66199,64255
66215,64245
66232,64237
66250,64231
66268,64226
66286,64223
66305,64223
67024,64223
67043,64223
" /> 
<polyline style="fill-rule:evenodd;"
points="81043,65700
81061,65703
81079,65707
81097,65714
81114,65722
81130,65731
81146,65743
81159,65755
81172,65769
81183,65784
81193,65800
81201,65817
81207,65835
81212,65853
81215,65872
81216,65891
81216,66275
81215,66294
81212,66312
81207,66330
81201,66348
81193,66365
81183,66381
81172,66396
81159,66410
81146,66423
81130,66434
81114,66444
81097,66452
81079,66458
81061,66463
81043,66466
81024,66467
80305,66467
80286,66466
80268,66463
80250,66458
80232,66452
80215,66444
80199,66434
80183,66423
80170,66410
80157,66396
80146,66381
80136,66365
80128,66348
80122,66330
80117,66312
80114,66294
80113,66275
80113,65891
80114,65872
80117,65853
80122,65835
80128,65817
80136,65800
80146,65784
80157,65769
80170,65755
80183,65743
80199,65731
80215,65722
80232,65714
80250,65707
80268,65703
80286,65700
80305,65699
81024,65699
81043,65700
" /> 
<polyline style="fill-rule:evenodd;"
points="81043,64223
81061,64226
81079,64231
81097,64237
81114,64245
81130,64255
81146,64266
81159,64279
81172,64293
81183,64308
81193,64324
81201,64341
81207,64359
81212,64377
81215,64396
81216,64415
81216,64798
81215,64817
81212,64836
81207,64854
81201,64872
81193,64889
81183,64905
81172,64920
81159,64934
81146,64947
81130,64958
81114,64968
81097,64976
81079,64982
81061,64987
81043,64989
81024,64990
80305,64990
80286,64989
80268,64987
80250,64982
80232,64976
80215,64968
80199,64958
80183,64947
80170,64934
80157,64920
80146,64905
80136,64889
80128,64872
80122,64854
80117,64836
80114,64817
80113,64798
80113,64415
80114,64396
80117,64377
80122,64359
80128,64341
80136,64324
80146,64308
80157,64293
80170,64279
80183,64266
80199,64255
80215,64245
80232,64237
80250,64231
80268,64226
80286,64223
80305,64223
81024,64223
81043,64223
" /> 
<polyline style="fill-rule:evenodd;"
points="41043,64223
41061,64226
41079,64231
41097,64237
41114,64245
41130,64255
41146,64266
41159,64279
41172,64293
41183,64308
41193,64324
41201,64341
41207,64359
41212,64377
41215,64396
41216,64415
41216,64798
41215,64817
41212,64836
41207,64854
41201,64872
41193,64889
41183,64905
41172,64920
41159,64934
41146,64947
41130,64958
41114,64968
41097,64976
41079,64982
41061,64987
41043,64989
41024,64990
40305,64990
40286,64989
40268,64987
40250,64982
40232,64976
40215,64968
40199,64958
40183,64947
40170,64934
40157,64920
40146,64905
40136,64889
40128,64872
40122,64854
40117,64836
40114,64817
40113,64798
40113,64415
40114,64396
40117,64377
40122,64359
40128,64341
40136,64324
40146,64308
40157,64293
40170,64279
40183,64266
40199,64255
40215,64245
40232,64237
40250,64231
40268,64226
40286,64223
40305,64223
41024,64223
41043,64223
" /> 
<polyline style="fill-rule:evenodd;"
points="41043,65700
41061,65703
41079,65707
41097,65714
41114,65722
41130,65731
41146,65743
41159,65755
41172,65769
41183,65784
41193,65800
41201,65817
41207,65835
41212,65853
41215,65872
41216,65891
41216,66275
41215,66294
41212,66312
41207,66330
41201,66348
41193,66365
41183,66381
41172,66396
41159,66410
41146,66423
41130,66434
41114,66444
41097,66452
41079,66458
41061,66463
41043,66466
41024,66467
40305,66467
40286,66466
40268,66463
40250,66458
40232,66452
40215,66444
40199,66434
40183,66423
40170,66410
40157,66396
40146,66381
40136,66365
40128,66348
40122,66330
40117,66312
40114,66294
40113,66275
40113,65891
40114,65872
40117,65853
40122,65835
40128,65817
40136,65800
40146,65784
40157,65769
40170,65755
40183,65743
40199,65731
40215,65722
40232,65714
40250,65707
40268,65703
40286,65700
40305,65699
41024,65699
41043,65700
" /> 
<polyline style="fill-rule:evenodd;"
points="48043,64223
48061,64226
48079,64231
48097,64237
48114,64245
48130,64255
48146,64266
48159,64279
48172,64293
48183,64308
48193,64324
48201,64341
48207,64359
48212,64377
48215,64396
48216,64415
48216,64798
48215,64817
48212,64836
48207,64854
48201,64872
48193,64889
48183,64905
48172,64920
48159,64934
48146,64947
48130,64958
48114,64968
48097,64976
48079,64982
48061,64987
48043,64989
48024,64990
47305,64990
47286,64989
47268,64987
47250,64982
47232,64976
47215,64968
47199,64958
47183,64947
47170,64934
47157,64920
47146,64905
47136,64889
47128,64872
47122,64854
47117,64836
47114,64817
47113,64798
47113,64415
47114,64396
47117,64377
47122,64359
47128,64341
47136,64324
47146,64308
47157,64293
47170,64279
47183,64266
47199,64255
47215,64245
47232,64237
47250,64231
47268,64226
47286,64223
47305,64223
48024,64223
48043,64223
" /> 
<polyline style="fill-rule:evenodd;"
points="48043,65700
48061,65703
48079,65707
48097,65714
48114,65722
48130,65731
48146,65743
48159,65755
48172,65769
48183,65784
48193,65800
48201,65817
48207,65835
48212,65853
48215,65872
48216,65891
48216,66275
48215,66294
48212,66312
48207,66330
48201,66348
48193,66365
48183,66381
48172,66396
48159,66410
48146,66423
48130,66434
48114,66444
48097,66452
48079,66458
48061,66463
48043,66466
48024,66467
47305,66467
47286,66466
47268,66463
47250,66458
47232,66452
47215,66444
47199,66434
47183,66423
47170,66410
47157,66396
47146,66381
47136,66365
47128,66348
47122,66330
47117,66312
47114,66294
47113,66275
47113,65891
47114,65872
47117,65853
47122,65835
47128,65817
47136,65800
47146,65784
47157,65769
47170,65755
47183,65743
47199,65731
47215,65722
47232,65714
47250,65707
47268,65703
47286,65700
47305,65699
48024,65699
48043,65700
" /> 
<polyline style="fill-rule:evenodd;"
points="55043,64223
55061,64226
55079,64231
55097,64237
55114,64245
55130,64255
55146,64266
55159,64279
55172,64293
55183,64308
55193,64324
55201,64341
55207,64359
55212,64377
55215,64396
55216,64415
55216,64798
55215,64817
55212,64836
55207,64854
55201,64872
55193,64889
55183,64905
55172,64920
55159,64934
55146,64947
55130,64958
55114,64968
55097,64976
55079,64982
55061,64987
55043,64989
55024,64990
54305,64990
54286,64989
54268,64987
54250,64982
54232,64976
54215,64968
54199,64958
54183,64947
54170,64934
54157,64920
54146,64905
54136,64889
54128,64872
54122,64854
54117,64836
54114,64817
54113,64798
54113,64415
54114,64396
54117,64377
54122,64359
54128,64341
54136,64324
54146,64308
54157,64293
54170,64279
54183,64266
54199,64255
54215,64245
54232,64237
54250,64231
54268,64226
54286,64223
54305,64223
55024,64223
55043,64223
" /> 
<polyline style="fill-rule:evenodd;"
points="55043,65700
55061,65703
55079,65707
55097,65714
55114,65722
55130,65731
55146,65743
55159,65755
55172,65769
55183,65784
55193,65800
55201,65817
55207,65835
55212,65853
55215,65872
55216,65891
55216,66275
55215,66294
55212,66312
55207,66330
55201,66348
55193,66365
55183,66381
55172,66396
55159,66410
55146,66423
55130,66434
55114,66444
55097,66452
55079,66458
55061,66463
55043,66466
55024,66467
54305,66467
54286,66466
54268,66463
54250,66458
54232,66452
54215,66444
54199,66434
54183,66423
54170,66410
54157,66396
54146,66381
54136,66365
54128,66348
54122,66330
54117,66312
54114,66294
54113,66275
54113,65891
54114,65872
54117,65853
54122,65835
54128,65817
54136,65800
54146,65784
54157,65769
54170,65755
54183,65743
54199,65731
54215,65722
54232,65714
54250,65707
54268,65703
54286,65700
54305,65699
55024,65699
55043,65700
" /> 
<polyline style="fill-rule:evenodd;"
points="69043,64223
69061,64226
69079,64231
69097,64237
69114,64245
69130,64255
69146,64266
69159,64279
69172,64293
69183,64308
69193,64324
69201,64341
69207,64359
69212,64377
69215,64396
69216,64415
69216,64798
69215,64817
69212,64836
69207,64854
69201,64872
69193,64889
69183,64905
69172,64920
69159,64934
69146,64947
69130,64958
69114,64968
69097,64976
69079,64982
69061,64987
69043,64989
69024,64990
68305,64990
68286,64989
68268,64987
68250,64982
68232,64976
68215,64968
68199,64958
68183,64947
68170,64934
68157,64920
68146,64905
68136,64889
68128,64872
68122,64854
68117,64836
68114,64817
68113,64798
68113,64415
68114,64396
68117,64377
68122,64359
68128,64341
68136,64324
68146,64308
68157,64293
68170,64279
68183,64266
68199,64255
68215,64245
68232,64237
68250,64231
68268,64226
68286,64223
68305,64223
69024,64223
69043,64223
" /> 
<polyline style="fill-rule:evenodd;"
points="69043,65700
69061,65703
69079,65707
69097,65714
69114,65722
69130,65731
69146,65743
69159,65755
69172,65769
69183,65784
69193,65800
69201,65817
69207,65835
69212,65853
69215,65872
69216,65891
69216,66275
69215,66294
69212,66312
69207,66330
69201,66348
69193,66365
69183,66381
69172,66396
69159,66410
69146,66423
69130,66434
69114,66444
69097,66452
69079,66458
69061,66463
69043,66466
69024,66467
68305,66467
68286,66466
68268,66463
68250,66458
68232,66452
68215,66444
68199,66434
68183,66423
68170,66410
68157,66396
68146,66381
68136,66365
68128,66348
68122,66330
68117,66312
68114,66294
68113,66275
68113,65891
68114,65872
68117,65853
68122,65835
68128,65817
68136,65800
68146,65784
68157,65769
68170,65755
68183,65743
68199,65731
68215,65722
68232,65714
68250,65707
68268,65703
68286,65700
68305,65699
69024,65699
69043,65700
" /> 
<polyline style="fill-rule:evenodd;"
points="76043,64223
76061,64226
76079,64231
76097,64237
76114,64245
76130,64255
76146,64266
76159,64279
76172,64293
76183,64308
76193,64324
76201,64341
76207,64359
76212,64377
76215,64396
76216,64415
76216,64798
76215,64817
76212,64836
76207,64854
76201,64872
76193,64889
76183,64905
76172,64920
76159,64934
76146,64947
76130,64958
76114,64968
76097,64976
76079,64982
76061,64987
76043,64989
76024,64990
75305,64990
75286,64989
75268,64987
75250,64982
75232,64976
75215,64968
75199,64958
75183,64947
75170,64934
75157,64920
75146,64905
75136,64889
75128,64872
75122,64854
75117,64836
75114,64817
75113,64798
75113,64415
75114,64396
75117,64377
75122,64359
75128,64341
75136,64324
75146,64308
75157,64293
75170,64279
75183,64266
75199,64255
75215,64245
75232,64237
75250,64231
75268,64226
75286,64223
75305,64223
76024,64223
76043,64223
" /> 
<polyline style="fill-rule:evenodd;"
points="76043,65700
76061,65703
76079,65707
76097,65714
76114,65722
76130,65731
76146,65743
76159,65755
76172,65769
76183,65784
76193,65800
76201,65817
76207,65835
76212,65853
76215,65872
76216,65891
76216,66275
76215,66294
76212,66312
76207,66330
76201,66348
76193,66365
76183,66381
76172,66396
76159,66410
76146,66423
76130,66434
76114,66444
76097,66452
76079,66458
76061,66463
76043,66466
76024,66467
75305,66467
75286,66466
75268,66463
75250,66458
75232,66452
75215,66444
75199,66434
75183,66423
75170,66410
75157,66396
75146,66381
75136,66365
75128,66348
75122,66330
75117,66312
75114,66294
75113,66275
75113,65891
75114,65872
75117,65853
75122,65835
75128,65817
75136,65800
75146,65784
75157,65769
75170,65755
75183,65743
75199,65731
75215,65722
75232,65714
75250,65707
75268,65703
75286,65700
75305,65699
76024,65699
76043,65700
" /> 
<polyline style="fill-rule:evenodd;"
points="83043,64223
83061,64226
83079,64231
83097,64237
83114,64245
83130,64255
83146,64266
83159,64279
83172,64293
83183,64308
83193,64324
83201,64341
83207,64359
83212,64377
83215,64396
83216,64415
83216,64798
83215,64817
83212,64836
83207,64854
83201,64872
83193,64889
83183,64905
83172,64920
83159,64934
83146,64947
83130,64958
83114,64968
83097,64976
83079,64982
83061,64987
83043,64989
83024,64990
82305,64990
82286,64989
82268,64987
82250,64982
82232,64976
82215,64968
82199,64958
82183,64947
82170,64934
82157,64920
82146,64905
82136,64889
82128,64872
82122,64854
82117,64836
82114,64817
82113,64798
82113,64415
82114,64396
82117,64377
82122,64359
82128,64341
82136,64324
82146,64308
82157,64293
82170,64279
82183,64266
82199,64255
82215,64245
82232,64237
82250,64231
82268,64226
82286,64223
82305,64223
83024,64223
83043,64223
" /> 
<polyline style="fill-rule:evenodd;"
points="83043,65700
83061,65703
83079,65707
83097,65714
83114,65722
83130,65731
83146,65743
83159,65755
83172,65769
83183,65784
83193,65800
83201,65817
83207,65835
83212,65853
83215,65872
83216,65891
83216,66275
83215,66294
83212,66312
83207,66330
83201,66348
83193,66365
83183,66381
83172,66396
83159,66410
83146,66423
83130,66434
83114,66444
83097,66452
83079,66458
83061,66463
83043,66466
83024,66467
82305,66467
82286,66466
82268,66463
82250,66458
82232,66452
82215,66444
82199,66434
82183,66423
82170,66410
82157,66396
82146,66381
82136,66365
82128,66348
82122,66330
82117,66312
82114,66294
82113,66275
82113,65891
82114,65872
82117,65853
82122,65835
82128,65817
82136,65800
82146,65784
82157,65769
82170,65755
82183,65743
82199,65731
82215,65722
82232,65714
82250,65707
82268,65703
82286,65700
82305,65699
83024,65699
83043,65700
" /> 
<polyline style="fill-rule:evenodd;"
points="33613,62394
33632,62397
33650,62402
33668,62408
33685,62416
33701,62426
33716,62437
33730,62450
33743,62464
33754,62479
33764,62495
33772,62512
33778,62530
33783,62548
33786,62567
33787,62585
33787,63304
33786,63323
33783,63341
33778,63360
33772,63377
33764,63394
33754,63411
33743,63426
33730,63440
33716,63452
33701,63463
33685,63473
33668,63481
33650,63488
33632,63492
33613,63495
33595,63496
33211,63496
33192,63495
33173,63492
33155,63488
33137,63481
33120,63473
33104,63463
33089,63452
33075,63440
33062,63426
33051,63411
33041,63394
33033,63377
33027,63360
33023,63341
33020,63323
33019,63304
33019,62585
33020,62567
33023,62548
33027,62530
33033,62512
33041,62495
33051,62479
33062,62464
33075,62450
33089,62437
33104,62426
33120,62416
33137,62408
33155,62402
33173,62397
33192,62394
33211,62393
33595,62393
33613,62394
" /> 
<polyline style="fill-rule:evenodd;"
points="32137,62394
32156,62397
32174,62402
32192,62408
32209,62416
32225,62426
32240,62437
32254,62450
32267,62464
32278,62479
32288,62495
32296,62512
32302,62530
32306,62548
32309,62567
32310,62585
32310,63304
32309,63323
32306,63341
32302,63360
32296,63377
32288,63394
32278,63411
32267,63426
32254,63440
32240,63452
32225,63463
32209,63473
32192,63481
32174,63488
32156,63492
32137,63495
32118,63496
31734,63496
31716,63495
31697,63492
31679,63488
31661,63481
31644,63473
31628,63463
31613,63452
31599,63440
31586,63426
31575,63411
31565,63394
31557,63377
31551,63360
31546,63341
31543,63323
31542,63304
31542,62585
31543,62567
31546,62548
31551,62530
31557,62512
31565,62495
31575,62479
31586,62464
31599,62450
31613,62437
31628,62426
31644,62416
31661,62408
31679,62402
31697,62397
31716,62394
31734,62393
32118,62393
32137,62394
" /> 
<polyline style="fill-rule:evenodd;"
points="68613,62394
68632,62397
68650,62402
68668,62408
68685,62416
68701,62426
68716,62437
68730,62450
68743,62464
68754,62479
68764,62495
68772,62512
68778,62530
68783,62548
68786,62567
68787,62585
68787,63304
68786,63323
68783,63341
68778,63360
68772,63377
68764,63394
68754,63411
68743,63426
68730,63440
68716,63452
68701,63463
68685,63473
68668,63481
68650,63488
68632,63492
68613,63495
68595,63496
68211,63496
68192,63495
68173,63492
68155,63488
68137,63481
68120,63473
68104,63463
68089,63452
68075,63440
68062,63426
68051,63411
68041,63394
68033,63377
68027,63360
68023,63341
68020,63323
68019,63304
68019,62585
68020,62567
68023,62548
68027,62530
68033,62512
68041,62495
68051,62479
68062,62464
68075,62450
68089,62437
68104,62426
68120,62416
68137,62408
68155,62402
68173,62397
68192,62394
68211,62393
68595,62393
68613,62394
" /> 
<polyline style="fill-rule:evenodd;"
points="67137,62394
67156,62397
67174,62402
67192,62408
67209,62416
67225,62426
67240,62437
67254,62450
67267,62464
67278,62479
67288,62495
67296,62512
67302,62530
67306,62548
67309,62567
67310,62585
67310,63304
67309,63323
67306,63341
67302,63360
67296,63377
67288,63394
67278,63411
67267,63426
67254,63440
67240,63452
67225,63463
67209,63473
67192,63481
67174,63488
67156,63492
67137,63495
67118,63496
66734,63496
66716,63495
66697,63492
66679,63488
66661,63481
66644,63473
66628,63463
66613,63452
66599,63440
66586,63426
66575,63411
66565,63394
66557,63377
66551,63360
66546,63341
66543,63323
66542,63304
66542,62585
66543,62567
66546,62548
66551,62530
66557,62512
66565,62495
66575,62479
66586,62464
66599,62450
66613,62437
66628,62426
66644,62416
66661,62408
66679,62402
66697,62397
66716,62394
66734,62393
67118,62393
67137,62394
" /> 
<polyline style="fill-rule:evenodd;"
points="61613,62394
61632,62397
61650,62402
61668,62408
61685,62416
61701,62426
61716,62437
61730,62450
61743,62464
61754,62479
61764,62495
61772,62512
61778,62530
61783,62548
61786,62567
61787,62585
61787,63304
61786,63323
61783,63341
61778,63360
61772,63377
61764,63394
61754,63411
61743,63426
61730,63440
61716,63452
61701,63463
61685,63473
61668,63481
61650,63488
61632,63492
61613,63495
61595,63496
61211,63496
61192,63495
61173,63492
61155,63488
61137,63481
61120,63473
61104,63463
61089,63452
61075,63440
61062,63426
61051,63411
61041,63394
61033,63377
61027,63360
61023,63341
61020,63323
61019,63304
61019,62585
61020,62567
61023,62548
61027,62530
61033,62512
61041,62495
61051,62479
61062,62464
61075,62450
61089,62437
61104,62426
61120,62416
61137,62408
61155,62402
61173,62397
61192,62394
61211,62393
61595,62393
61613,62394
" /> 
<polyline style="fill-rule:evenodd;"
points="60137,62394
60156,62397
60174,62402
60192,62408
60209,62416
60225,62426
60240,62437
60254,62450
60267,62464
60278,62479
60288,62495
60296,62512
60302,62530
60306,62548
60309,62567
60310,62585
60310,63304
60309,63323
60306,63341
60302,63360
60296,63377
60288,63394
60278,63411
60267,63426
60254,63440
60240,63452
60225,63463
60209,63473
60192,63481
60174,63488
60156,63492
60137,63495
60118,63496
59734,63496
59716,63495
59697,63492
59679,63488
59661,63481
59644,63473
59628,63463
59613,63452
59599,63440
59586,63426
59575,63411
59565,63394
59557,63377
59551,63360
59546,63341
59543,63323
59542,63304
59542,62585
59543,62567
59546,62548
59551,62530
59557,62512
59565,62495
59575,62479
59586,62464
59599,62450
59613,62437
59628,62426
59644,62416
59661,62408
59679,62402
59697,62397
59716,62394
59734,62393
60118,62393
60137,62394
" /> 
<polyline style="fill-rule:evenodd;"
points="40613,62394
40632,62397
40650,62402
40668,62408
40685,62416
40701,62426
40716,62437
40730,62450
40743,62464
40754,62479
40764,62495
40772,62512
40778,62530
40783,62548
40786,62567
40787,62585
40787,63304
40786,63323
40783,63341
40778,63360
40772,63377
40764,63394
40754,63411
40743,63426
40730,63440
40716,63452
40701,63463
40685,63473
40668,63481
40650,63488
40632,63492
40613,63495
40595,63496
40211,63496
40192,63495
40173,63492
40155,63488
40137,63481
40120,63473
40104,63463
40089,63452
40075,63440
40062,63426
40051,63411
40041,63394
40033,63377
40027,63360
40023,63341
40020,63323
40019,63304
40019,62585
40020,62567
40023,62548
40027,62530
40033,62512
40041,62495
40051,62479
40062,62464
40075,62450
40089,62437
40104,62426
40120,62416
40137,62408
40155,62402
40173,62397
40192,62394
40211,62393
40595,62393
40613,62394
" /> 
<polyline style="fill-rule:evenodd;"
points="39137,62394
39156,62397
39174,62402
39192,62408
39209,62416
39225,62426
39240,62437
39254,62450
39267,62464
39278,62479
39288,62495
39296,62512
39302,62530
39306,62548
39309,62567
39310,62585
39310,63304
39309,63323
39306,63341
39302,63360
39296,63377
39288,63394
39278,63411
39267,63426
39254,63440
39240,63452
39225,63463
39209,63473
39192,63481
39174,63488
39156,63492
39137,63495
39118,63496
38734,63496
38716,63495
38697,63492
38679,63488
38661,63481
38644,63473
38628,63463
38613,63452
38599,63440
38586,63426
38575,63411
38565,63394
38557,63377
38551,63360
38546,63341
38543,63323
38542,63304
38542,62585
38543,62567
38546,62548
38551,62530
38557,62512
38565,62495
38575,62479
38586,62464
38599,62450
38613,62437
38628,62426
38644,62416
38661,62408
38679,62402
38697,62397
38716,62394
38734,62393
39118,62393
39137,62394
" /> 
<polyline style="fill-rule:evenodd;"
points="47613,62394
47632,62397
47650,62402
47668,62408
47685,62416
47701,62426
47716,62437
47730,62450
47743,62464
47754,62479
47764,62495
47772,62512
47778,62530
47783,62548
47786,62567
47787,62585
47787,63304
47786,63323
47783,63341
47778,63360
47772,63377
47764,63394
47754,63411
47743,63426
47730,63440
47716,63452
47701,63463
47685,63473
47668,63481
47650,63488
47632,63492
47613,63495
47595,63496
47211,63496
47192,63495
47173,63492
47155,63488
47137,63481
47120,63473
47104,63463
47089,63452
47075,63440
47062,63426
47051,63411
47041,63394
47033,63377
47027,63360
47023,63341
47020,63323
47019,63304
47019,62585
47020,62567
47023,62548
47027,62530
47033,62512
47041,62495
47051,62479
47062,62464
47075,62450
47089,62437
47104,62426
47120,62416
47137,62408
47155,62402
47173,62397
47192,62394
47211,62393
47595,62393
47613,62394
" /> 
<polyline style="fill-rule:evenodd;"
points="46137,62394
46156,62397
46174,62402
46192,62408
46209,62416
46225,62426
46240,62437
46254,62450
46267,62464
46278,62479
46288,62495
46296,62512
46302,62530
46306,62548
46309,62567
46310,62585
46310,63304
46309,63323
46306,63341
46302,63360
46296,63377
46288,63394
46278,63411
46267,63426
46254,63440
46240,63452
46225,63463
46209,63473
46192,63481
46174,63488
46156,63492
46137,63495
46118,63496
45734,63496
45716,63495
45697,63492
45679,63488
45661,63481
45644,63473
45628,63463
45613,63452
45599,63440
45586,63426
45575,63411
45565,63394
45557,63377
45551,63360
45546,63341
45543,63323
45542,63304
45542,62585
45543,62567
45546,62548
45551,62530
45557,62512
45565,62495
45575,62479
45586,62464
45599,62450
45613,62437
45628,62426
45644,62416
45661,62408
45679,62402
45697,62397
45716,62394
45734,62393
46118,62393
46137,62394
" /> 
<polyline style="fill-rule:evenodd;"
points="54613,62394
54632,62397
54650,62402
54668,62408
54685,62416
54701,62426
54716,62437
54730,62450
54743,62464
54754,62479
54764,62495
54772,62512
54778,62530
54783,62548
54786,62567
54787,62585
54787,63304
54786,63323
54783,63341
54778,63360
54772,63377
54764,63394
54754,63411
54743,63426
54730,63440
54716,63452
54701,63463
54685,63473
54668,63481
54650,63488
54632,63492
54613,63495
54595,63496
54211,63496
54192,63495
54173,63492
54155,63488
54137,63481
54120,63473
54104,63463
54089,63452
54075,63440
54062,63426
54051,63411
54041,63394
54033,63377
54027,63360
54023,63341
54020,63323
54019,63304
54019,62585
54020,62567
54023,62548
54027,62530
54033,62512
54041,62495
54051,62479
54062,62464
54075,62450
54089,62437
54104,62426
54120,62416
54137,62408
54155,62402
54173,62397
54192,62394
54211,62393
54595,62393
54613,62394
" /> 
<polyline style="fill-rule:evenodd;"
points="53137,62394
53156,62397
53174,62402
53192,62408
53209,62416
53225,62426
53240,62437
53254,62450
53267,62464
53278,62479
53288,62495
53296,62512
53302,62530
53306,62548
53309,62567
53310,62585
53310,63304
53309,63323
53306,63341
53302,63360
53296,63377
53288,63394
53278,63411
53267,63426
53254,63440
53240,63452
53225,63463
53209,63473
53192,63481
53174,63488
53156,63492
53137,63495
53118,63496
52734,63496
52716,63495
52697,63492
52679,63488
52661,63481
52644,63473
52628,63463
52613,63452
52599,63440
52586,63426
52575,63411
52565,63394
52557,63377
52551,63360
52546,63341
52543,63323
52542,63304
52542,62585
52543,62567
52546,62548
52551,62530
52557,62512
52565,62495
52575,62479
52586,62464
52599,62450
52613,62437
52628,62426
52644,62416
52661,62408
52679,62402
52697,62397
52716,62394
52734,62393
53118,62393
53137,62394
" /> 
<polyline style="fill-rule:evenodd;"
points="75613,62394
75632,62397
75650,62402
75668,62408
75685,62416
75701,62426
75716,62437
75730,62450
75743,62464
75754,62479
75764,62495
75772,62512
75778,62530
75783,62548
75786,62567
75787,62585
75787,63304
75786,63323
75783,63341
75778,63360
75772,63377
75764,63394
75754,63411
75743,63426
75730,63440
75716,63452
75701,63463
75685,63473
75668,63481
75650,63488
75632,63492
75613,63495
75595,63496
75211,63496
75192,63495
75173,63492
75155,63488
75137,63481
75120,63473
75104,63463
75089,63452
75075,63440
75062,63426
75051,63411
75041,63394
75033,63377
75027,63360
75023,63341
75020,63323
75019,63304
75019,62585
75020,62567
75023,62548
75027,62530
75033,62512
75041,62495
75051,62479
75062,62464
75075,62450
75089,62437
75104,62426
75120,62416
75137,62408
75155,62402
75173,62397
75192,62394
75211,62393
75595,62393
75613,62394
" /> 
<polyline style="fill-rule:evenodd;"
points="74137,62394
74156,62397
74174,62402
74192,62408
74209,62416
74225,62426
74240,62437
74254,62450
74267,62464
74278,62479
74288,62495
74296,62512
74302,62530
74306,62548
74309,62567
74310,62585
74310,63304
74309,63323
74306,63341
74302,63360
74296,63377
74288,63394
74278,63411
74267,63426
74254,63440
74240,63452
74225,63463
74209,63473
74192,63481
74174,63488
74156,63492
74137,63495
74118,63496
73734,63496
73716,63495
73697,63492
73679,63488
73661,63481
73644,63473
73628,63463
73613,63452
73599,63440
73586,63426
73575,63411
73565,63394
73557,63377
73551,63360
73546,63341
73543,63323
73542,63304
73542,62585
73543,62567
73546,62548
73551,62530
73557,62512
73565,62495
73575,62479
73586,62464
73599,62450
73613,62437
73628,62426
73644,62416
73661,62408
73679,62402
73697,62397
73716,62394
73734,62393
74118,62393
74137,62394
" /> 
<polyline style="fill-rule:evenodd;"
points="82613,62394
82632,62397
82650,62402
82668,62408
82685,62416
82701,62426
82716,62437
82730,62450
82743,62464
82754,62479
82764,62495
82772,62512
82778,62530
82783,62548
82786,62567
82787,62585
82787,63304
82786,63323
82783,63341
82778,63360
82772,63377
82764,63394
82754,63411
82743,63426
82730,63440
82716,63452
82701,63463
82685,63473
82668,63481
82650,63488
82632,63492
82613,63495
82595,63496
82211,63496
82192,63495
82173,63492
82155,63488
82137,63481
82120,63473
82104,63463
82089,63452
82075,63440
82062,63426
82051,63411
82041,63394
82033,63377
82027,63360
82023,63341
82020,63323
82019,63304
82019,62585
82020,62567
82023,62548
82027,62530
82033,62512
82041,62495
82051,62479
82062,62464
82075,62450
82089,62437
82104,62426
82120,62416
82137,62408
82155,62402
82173,62397
82192,62394
82211,62393
82595,62393
82613,62394
" /> 
<polyline style="fill-rule:evenodd;"
points="81137,62394
81156,62397
81174,62402
81192,62408
81209,62416
81225,62426
81240,62437
81254,62450
81267,62464
81278,62479
81288,62495
81296,62512
81302,62530
81306,62548
81309,62567
81310,62585
81310,63304
81309,63323
81306,63341
81302,63360
81296,63377
81288,63394
81278,63411
81267,63426
81254,63440
81240,63452
81225,63463
81209,63473
81192,63481
81174,63488
81156,63492
81137,63495
81118,63496
80734,63496
80716,63495
80697,63492
80679,63488
80661,63481
80644,63473
80628,63463
80613,63452
80599,63440
80586,63426
80575,63411
80565,63394
80557,63377
80551,63360
80546,63341
80543,63323
80542,63304
80542,62585
80543,62567
80546,62548
80551,62530
80557,62512
80565,62495
80575,62479
80586,62464
80599,62450
80613,62437
80628,62426
80644,62416
80661,62408
80679,62402
80697,62397
80716,62394
80734,62393
81118,62393
81137,62394
" /> 
<polyline style="fill-rule:evenodd;"
points="38337,14894
38356,14897
38374,14902
38392,14908
38409,14916
38425,14926
38440,14937
38454,14950
38467,14964
38478,14979
38488,14995
38496,15012
38502,15030
38506,15048
38509,15067
38510,15085
38510,15804
38509,15823
38506,15841
38502,15860
38496,15877
38488,15894
38478,15911
38467,15926
38454,15940
38440,15952
38425,15963
38409,15973
38392,15981
38374,15988
38356,15992
38337,15995
38318,15996
37934,15996
37916,15995
37897,15992
37879,15988
37861,15981
37844,15973
37828,15963
37813,15952
37799,15940
37786,15926
37775,15911
37765,15894
37757,15877
37751,15860
37746,15841
37743,15823
37742,15804
37742,15085
37743,15067
37746,15048
37751,15030
37757,15012
37765,14995
37775,14979
37786,14964
37799,14950
37813,14937
37828,14926
37844,14916
37861,14908
37879,14902
37897,14897
37916,14894
37934,14893
38318,14893
38337,14894
" /> 
<polyline style="fill-rule:evenodd;"
points="39813,14894
39832,14897
39850,14902
39868,14908
39885,14916
39901,14926
39916,14937
39930,14950
39943,14964
39954,14979
39964,14995
39972,15012
39978,15030
39983,15048
39986,15067
39987,15085
39987,15804
39986,15823
39983,15841
39978,15860
39972,15877
39964,15894
39954,15911
39943,15926
39930,15940
39916,15952
39901,15963
39885,15973
39868,15981
39850,15988
39832,15992
39813,15995
39795,15996
39411,15996
39392,15995
39373,15992
39355,15988
39337,15981
39320,15973
39304,15963
39289,15952
39275,15940
39262,15926
39251,15911
39241,15894
39233,15877
39227,15860
39223,15841
39220,15823
39219,15804
39219,15085
39220,15067
39223,15048
39227,15030
39233,15012
39241,14995
39251,14979
39262,14964
39275,14950
39289,14937
39304,14926
39320,14916
39337,14908
39355,14902
39373,14897
39392,14894
39411,14893
39795,14893
39813,14894
" /> 
<polyline style="fill-rule:evenodd;"
points="55043,43800
55061,43803
55079,43807
55097,43814
55114,43822
55130,43831
55146,43843
55159,43855
55172,43869
55183,43884
55193,43900
55201,43917
55207,43935
55212,43953
55215,43972
55216,43991
55216,44375
55215,44394
55212,44412
55207,44430
55201,44448
55193,44465
55183,44481
55172,44496
55159,44510
55146,44523
55130,44534
55114,44544
55097,44552
55079,44558
55061,44563
55043,44566
55024,44567
54305,44567
54286,44566
54268,44563
54250,44558
54232,44552
54215,44544
54199,44534
54183,44523
54170,44510
54157,44496
54146,44481
54136,44465
54128,44448
54122,44430
54117,44412
54114,44394
54113,44375
54113,43991
54114,43972
54117,43953
54122,43935
54128,43917
54136,43900
54146,43884
54157,43869
54170,43855
54183,43843
54199,43831
54215,43822
54232,43814
54250,43807
54268,43803
54286,43800
54305,43799
55024,43799
55043,43800
" /> 
<polyline style="fill-rule:evenodd;"
points="55043,42323
55061,42326
55079,42331
55097,42337
55114,42345
55130,42355
55146,42366
55159,42379
55172,42393
55183,42408
55193,42424
55201,42441
55207,42459
55212,42477
55215,42496
55216,42515
55216,42898
55215,42917
55212,42936
55207,42954
55201,42972
55193,42989
55183,43005
55172,43020
55159,43034
55146,43047
55130,43058
55114,43068
55097,43076
55079,43082
55061,43087
55043,43089
55024,43090
54305,43090
54286,43089
54268,43087
54250,43082
54232,43076
54215,43068
54199,43058
54183,43047
54170,43034
54157,43020
54146,43005
54136,42989
54128,42972
54122,42954
54117,42936
54114,42917
54113,42898
54113,42515
54114,42496
54117,42477
54122,42459
54128,42441
54136,42424
54146,42408
54157,42393
54170,42379
54183,42366
54199,42355
54215,42345
54232,42337
54250,42331
54268,42326
54286,42323
54305,42323
55024,42323
55043,42323
" /> 
<polyline style="fill-rule:evenodd;"
points="74343,53500
74361,53503
74379,53507
74397,53514
74414,53522
74430,53531
74446,53543
74459,53555
74472,53569
74483,53584
74493,53600
74501,53617
74507,53635
74512,53653
74515,53672
74516,53691
74516,54075
74515,54094
74512,54112
74507,54130
74501,54148
74493,54165
74483,54181
74472,54196
74459,54210
74446,54223
74430,54234
74414,54244
74397,54252
74379,54258
74361,54263
74343,54266
74324,54267
73605,54267
73586,54266
73568,54263
73550,54258
73532,54252
73515,54244
73499,54234
73483,54223
73470,54210
73457,54196
73446,54181
73436,54165
73428,54148
73422,54130
73417,54112
73414,54094
73413,54075
73413,53691
73414,53672
73417,53653
73422,53635
73428,53617
73436,53600
73446,53584
73457,53569
73470,53555
73483,53543
73499,53531
73515,53522
73532,53514
73550,53507
73568,53503
73586,53500
73605,53499
74324,53499
74343,53500
" /> 
<polyline style="fill-rule:evenodd;"
points="74343,52023
74361,52026
74379,52031
74397,52037
74414,52045
74430,52055
74446,52066
74459,52079
74472,52093
74483,52108
74493,52124
74501,52141
74507,52159
74512,52177
74515,52196
74516,52215
74516,52598
74515,52617
74512,52636
74507,52654
74501,52672
74493,52689
74483,52705
74472,52720
74459,52734
74446,52747
74430,52758
74414,52768
74397,52776
74379,52782
74361,52787
74343,52789
74324,52790
73605,52790
73586,52789
73568,52787
73550,52782
73532,52776
73515,52768
73499,52758
73483,52747
73470,52734
73457,52720
73446,52705
73436,52689
73428,52672
73422,52654
73417,52636
73414,52617
73413,52598
73413,52215
73414,52196
73417,52177
73422,52159
73428,52141
73436,52124
73446,52108
73457,52093
73470,52079
73483,52066
73499,52055
73515,52045
73532,52037
73550,52031
73568,52026
73586,52023
73605,52023
74324,52023
74343,52023
" /> 
<polyline style="fill-rule:evenodd;"
points="30913,34294
30932,34297
30950,34302
30968,34308
30985,34316
31001,34326
31016,34337
31030,34350
31043,34364
31054,34379
31064,34395
31072,34412
31078,34430
31083,34448
31086,34467
31087,34485
31087,35204
31086,35223
31083,35241
31078,35260
31072,35277
31064,35294
31054,35311
31043,35326
31030,35340
31016,35352
31001,35363
30985,35373
30968,35381
30950,35388
30932,35392
30913,35395
30895,35396
30511,35396
30492,35395
30473,35392
30455,35388
30437,35381
30420,35373
30404,35363
30389,35352
30375,35340
30362,35326
30351,35311
30341,35294
30333,35277
30327,35260
30323,35241
30320,35223
30319,35204
30319,34485
30320,34467
30323,34448
30327,34430
30333,34412
30341,34395
30351,34379
30362,34364
30375,34350
30389,34337
30404,34326
30420,34316
30437,34308
30455,34302
30473,34297
30492,34294
30511,34293
30895,34293
30913,34294
" /> 
<polyline style="fill-rule:evenodd;"
points="29437,34294
29456,34297
29474,34302
29492,34308
29509,34316
29525,34326
29540,34337
29554,34350
29567,34364
29578,34379
29588,34395
29596,34412
29602,34430
29606,34448
29609,34467
29610,34485
29610,35204
29609,35223
29606,35241
29602,35260
29596,35277
29588,35294
29578,35311
29567,35326
29554,35340
29540,35352
29525,35363
29509,35373
29492,35381
29474,35388
29456,35392
29437,35395
29418,35396
29034,35396
29016,35395
28997,35392
28979,35388
28961,35381
28944,35373
28928,35363
28913,35352
28899,35340
28886,35326
28875,35311
28865,35294
28857,35277
28851,35260
28846,35241
28843,35223
28842,35204
28842,34485
28843,34467
28846,34448
28851,34430
28857,34412
28865,34395
28875,34379
28886,34364
28899,34350
28913,34337
28928,34326
28944,34316
28961,34308
28979,34302
28997,34297
29016,34294
29034,34293
29418,34293
29437,34294
" /> 
<polyline style="fill-rule:evenodd;"
points="68843,43600
68861,43603
68879,43607
68897,43614
68914,43622
68930,43631
68946,43643
68959,43655
68972,43669
68983,43684
68993,43700
69001,43717
69007,43735
69012,43753
69015,43772
69016,43791
69016,44175
69015,44194
69012,44212
69007,44230
69001,44248
68993,44265
68983,44281
68972,44296
68959,44310
68946,44323
68930,44334
68914,44344
68897,44352
68879,44358
68861,44363
68843,44366
68824,44367
68105,44367
68086,44366
68068,44363
68050,44358
68032,44352
68015,44344
67999,44334
67983,44323
67970,44310
67957,44296
67946,44281
67936,44265
67928,44248
67922,44230
67917,44212
67914,44194
67913,44175
67913,43791
67914,43772
67917,43753
67922,43735
67928,43717
67936,43700
67946,43684
67957,43669
67970,43655
67983,43643
67999,43631
68015,43622
68032,43614
68050,43607
68068,43603
68086,43600
68105,43599
68824,43599
68843,43600
" /> 
<polyline style="fill-rule:evenodd;"
points="68843,42123
68861,42126
68879,42131
68897,42137
68914,42145
68930,42155
68946,42166
68959,42179
68972,42193
68983,42208
68993,42224
69001,42241
69007,42259
69012,42277
69015,42296
69016,42315
69016,42698
69015,42717
69012,42736
69007,42754
69001,42772
68993,42789
68983,42805
68972,42820
68959,42834
68946,42847
68930,42858
68914,42868
68897,42876
68879,42882
68861,42887
68843,42889
68824,42890
68105,42890
68086,42889
68068,42887
68050,42882
68032,42876
68015,42868
67999,42858
67983,42847
67970,42834
67957,42820
67946,42805
67936,42789
67928,42772
67922,42754
67917,42736
67914,42717
67913,42698
67913,42315
67914,42296
67917,42277
67922,42259
67928,42241
67936,42224
67946,42208
67957,42193
67970,42179
67983,42166
67999,42155
68015,42145
68032,42137
68050,42131
68068,42126
68086,42123
68105,42123
68824,42123
68843,42123
" /> 
<polyline style="fill-rule:evenodd;"
points="36328,15216
36347,15218
36366,15223
36384,15230
36401,15238
36418,15248
36433,15259
36448,15272
36461,15287
36472,15302
36482,15319
36490,15336
36497,15354
36502,15373
36504,15392
36505,15412
36505,16278
36504,16297
36502,16316
36497,16335
36490,16353
36482,16370
36472,16387
36461,16403
36448,16417
36433,16430
36418,16441
36401,16451
36384,16460
36366,16466
36347,16471
36328,16474
36309,16475
34655,16475
34636,16474
34617,16471
34598,16466
34580,16460
34562,16451
34546,16441
34530,16430
34516,16417
34503,16403
34491,16387
34481,16370
34473,16353
34467,16335
34462,16316
34459,16297
34458,16278
34458,15412
34459,15392
34462,15373
34467,15354
34473,15336
34481,15319
34491,15302
34503,15287
34516,15272
34530,15259
34546,15248
34562,15238
34580,15230
34598,15223
34617,15218
34636,15216
34655,15215
36309,15215
36328,15216
" /> 
<polyline style="fill-rule:evenodd;"
points="33493,15216
33512,15218
33531,15223
33549,15230
33567,15238
33583,15248
33599,15259
33613,15272
33626,15287
33638,15302
33648,15319
33656,15336
33662,15354
33667,15373
33670,15392
33671,15412
33671,16278
33670,16297
33667,16316
33662,16335
33656,16353
33648,16370
33638,16387
33626,16403
33613,16417
33599,16430
33583,16441
33567,16451
33549,16460
33531,16466
33512,16471
33493,16474
33474,16475
31820,16475
31801,16474
31782,16471
31763,16466
31745,16460
31728,16451
31711,16441
31696,16430
31681,16417
31668,16403
31657,16387
31647,16370
31639,16353
31632,16335
31627,16316
31625,16297
31624,16278
31624,15412
31625,15392
31627,15373
31632,15354
31639,15336
31647,15319
31657,15302
31668,15287
31681,15272
31696,15259
31711,15248
31728,15238
31745,15230
31763,15223
31782,15218
31801,15216
31820,15215
33474,15215
33493,15216
" /> 
<polyline style="fill-rule:evenodd;"
points="80643,36923
80661,36926
80679,36931
80697,36937
80714,36945
80730,36955
80746,36966
80759,36979
80772,36993
80783,37008
80793,37024
80801,37041
80807,37059
80812,37077
80815,37096
80816,37115
80816,37498
80815,37517
80812,37536
80807,37554
80801,37572
80793,37589
80783,37605
80772,37620
80759,37634
80746,37647
80730,37658
80714,37668
80697,37676
80679,37682
80661,37687
80643,37689
80624,37690
79905,37690
79886,37689
79868,37687
79850,37682
79832,37676
79815,37668
79799,37658
79783,37647
79770,37634
79757,37620
79746,37605
79736,37589
79728,37572
79722,37554
79717,37536
79714,37517
79713,37498
79713,37115
79714,37096
79717,37077
79722,37059
79728,37041
79736,37024
79746,37008
79757,36993
79770,36979
79783,36966
79799,36955
79815,36945
79832,36937
79850,36931
79868,36926
79886,36923
79905,36923
80624,36923
80643,36923
" /> 
<polyline style="fill-rule:evenodd;"
points="80643,38400
80661,38403
80679,38407
80697,38414
80714,38422
80730,38431
80746,38443
80759,38455
80772,38469
80783,38484
80793,38500
80801,38517
80807,38535
80812,38553
80815,38572
80816,38591
80816,38975
80815,38994
80812,39012
80807,39030
80801,39048
80793,39065
80783,39081
80772,39096
80759,39110
80746,39123
80730,39134
80714,39144
80697,39152
80679,39158
80661,39163
80643,39166
80624,39167
79905,39167
79886,39166
79868,39163
79850,39158
79832,39152
79815,39144
79799,39134
79783,39123
79770,39110
79757,39096
79746,39081
79736,39065
79728,39048
79722,39030
79717,39012
79714,38994
79713,38975
79713,38591
79714,38572
79717,38553
79722,38535
79728,38517
79736,38500
79746,38484
79757,38469
79770,38455
79783,38443
79799,38431
79815,38422
79832,38414
79850,38407
79868,38403
79886,38400
79905,38399
80624,38399
80643,38400
" /> 
</g> 
</svg>
