<?xml version="1.0" standalone="no"?>
 <!DOCTYPE svg PUBLIC "-//W3C//DTD SVG 1.1//EN" 
 "http://www.w3.org/Graphics/SVG/1.1/DTD/svg11.dtd"> 
<svg xmlns="http://www.w3.org/2000/svg" version="1.1" 
    width="29.7002cm" height="21.0007cm" viewBox="0 0 116930 82680 ">
<title>SVG Picture created as ThermocoupleLogger-B_Mask.svg date 2019/03/15 21:34:39 </title>
  <desc>Picture generated by PCBNEW </desc>
<g style="fill:#000000; fill-opacity:1;stroke:#000000; stroke-opacity:1;
stroke-linecap:round; stroke-linejoin:round; "
 transform="translate(0 0) scale(1 1)">
</g>
<g style="fill:#000000; fill-opacity:0.0; 
stroke:#000000; stroke-width:-0.000787402; stroke-opacity:1; 
stroke-linecap:round; stroke-linejoin:round;">
</g>
<g style="fill:#000000; fill-opacity:0.0; 
stroke:#000000; stroke-width:78.7402; stroke-opacity:1; 
stroke-linecap:round; stroke-linejoin:round;">
<path d="M23465 12845
L23465 73345
" />
<path d="M93465 68963
L93465 68963
" />
<path d="M93465 12845
L23465 12845
" />
<path d="M93465 73345
L23465 73345
" />
<path d="M93465 12845
L93465 73345
" />
<path d="M93465 13845
L93465 13845
" />
</g>
<g style="fill:#000000; fill-opacity:1.0; 
stroke:#000000; stroke-width:0; stroke-opacity:1; 
stroke-linecap:round; stroke-linejoin:round;">
<polyline style="fill-rule:evenodd;"
points="85102,69567
84976,69605
84859,69667
84757,69751
84674,69853
84634,69927
84612,69969
84573,70095
84573,70095
84564,70194
84564,70496
84573,70594
84612,70720
84674,70836
84757,70938
84859,71022
84902,71045
84976,71084
85010,71094
85102,71122
85233,71135
85364,71122
85490,71084
85607,71022
85709,70938
85792,70836
85818,70788
85854,70720
85865,70684
85893,70594
85902,70496
85902,70194
85893,70095
85854,69969
85792,69853
85709,69751
85607,69667
85490,69605
85364,69567
85233,69554
85102,69567
" /> 
<polyline style="fill-rule:evenodd;"
points="78102,69567
77976,69605
77859,69667
77757,69751
77674,69853
77634,69927
77612,69969
77573,70095
77573,70095
77564,70194
77564,70496
77573,70594
77612,70720
77674,70836
77757,70938
77859,71022
77902,71045
77976,71084
78010,71094
78102,71122
78233,71135
78364,71122
78490,71084
78607,71022
78709,70938
78792,70836
78818,70788
78854,70720
78865,70684
78893,70594
78902,70496
78902,70194
78893,70095
78854,69969
78792,69853
78709,69751
78607,69667
78490,69605
78364,69567
78233,69554
78102,69567
" /> 
<polyline style="fill-rule:evenodd;"
points="71102,69567
70976,69605
70859,69667
70757,69751
70674,69853
70634,69927
70612,69969
70573,70095
70573,70095
70564,70194
70564,70496
70573,70594
70612,70720
70674,70836
70757,70938
70859,71022
70902,71045
70976,71084
71010,71094
71102,71122
71233,71135
71364,71122
71490,71084
71607,71022
71709,70938
71792,70836
71818,70788
71854,70720
71865,70684
71893,70594
71902,70496
71902,70194
71893,70095
71854,69969
71792,69853
71709,69751
71607,69667
71490,69605
71364,69567
71233,69554
71102,69567
" /> 
<polyline style="fill-rule:evenodd;"
points="64102,69567
63976,69605
63859,69667
63757,69751
63674,69853
63634,69927
63612,69969
63573,70095
63573,70095
63564,70194
63564,70496
63573,70594
63612,70720
63674,70836
63757,70938
63859,71022
63902,71045
63976,71084
64010,71094
64102,71122
64233,71135
64364,71122
64490,71084
64607,71022
64709,70938
64792,70836
64818,70788
64854,70720
64865,70684
64893,70594
64902,70496
64902,70194
64893,70095
64854,69969
64792,69853
64709,69751
64607,69667
64490,69605
64364,69567
64233,69554
64102,69567
" /> 
<polyline style="fill-rule:evenodd;"
points="57102,69567
56976,69605
56859,69667
56757,69751
56674,69853
56634,69927
56612,69969
56573,70095
56573,70095
56564,70194
56564,70496
56573,70594
56612,70720
56674,70836
56757,70938
56859,71022
56902,71045
56976,71084
57010,71094
57102,71122
57233,71135
57364,71122
57490,71084
57607,71022
57709,70938
57792,70836
57818,70788
57854,70720
57865,70684
57893,70594
57902,70496
57902,70194
57893,70095
57854,69969
57792,69853
57709,69751
57607,69667
57490,69605
57364,69567
57233,69554
57102,69567
" /> 
<polyline style="fill-rule:evenodd;"
points="50133,69567
50007,69605
49891,69667
49789,69751
49705,69853
49666,69927
49643,69969
49605,70095
49605,70095
49595,70194
49595,70496
49605,70594
49643,70720
49705,70836
49789,70938
49891,71022
49933,71045
50007,71084
50041,71094
50133,71122
50265,71135
50396,71122
50522,71084
50638,71022
50740,70938
50824,70836
50850,70788
50886,70720
50897,70684
50924,70594
50934,70496
50934,70194
50924,70095
50886,69969
50824,69853
50740,69751
50638,69667
50522,69605
50396,69567
50265,69554
50133,69567
" /> 
<polyline style="fill-rule:evenodd;"
points="43133,69567
43007,69605
42891,69667
42789,69751
42705,69853
42666,69927
42643,69969
42605,70095
42605,70095
42595,70194
42595,70496
42605,70594
42643,70720
42705,70836
42789,70938
42891,71022
42933,71045
43007,71084
43041,71094
43133,71122
43265,71135
43396,71122
43522,71084
43638,71022
43740,70938
43824,70836
43850,70788
43886,70720
43897,70684
43924,70594
43934,70496
43934,70194
43924,70095
43886,69969
43824,69853
43740,69751
43638,69667
43522,69605
43396,69567
43265,69554
43133,69567
" /> 
<polyline style="fill-rule:evenodd;"
points="36133,69567
36007,69605
35891,69667
35789,69751
35705,69853
35666,69927
35643,69969
35605,70095
35605,70095
35595,70194
35595,70496
35605,70594
35643,70720
35705,70836
35789,70938
35891,71022
35933,71045
36007,71084
36041,71094
36133,71122
36265,71135
36396,71122
36522,71084
36638,71022
36740,70938
36824,70836
36850,70788
36886,70720
36897,70684
36924,70594
36934,70496
36934,70194
36924,70095
36886,69969
36824,69853
36740,69751
36638,69667
36522,69605
36396,69567
36265,69554
36133,69567
" /> 
<polyline style="fill-rule:evenodd;"
points="82698,69560
82674,69567
82652,69579
82633,69595
82617,69614
82605,69636
82598,69660
82595,69689
82595,71000
82598,71029
82605,71053
82617,71075
82633,71094
82652,71110
82674,71122
82698,71129
82727,71132
83802,71132
83831,71129
83855,71122
83877,71110
83896,71094
83912,71075
83924,71053
83931,71029
83934,71000
83934,69689
83931,69660
83924,69636
83912,69614
83896,69595
83877,69579
83855,69567
83831,69560
83802,69557
82727,69557
82698,69560
" /> 
<polyline style="fill-rule:evenodd;"
points="54698,69560
54674,69567
54652,69579
54633,69595
54617,69614
54605,69636
54598,69660
54595,69689
54595,71000
54598,71029
54605,71053
54617,71075
54633,71094
54652,71110
54674,71122
54698,71129
54727,71132
55802,71132
55831,71129
55855,71122
55877,71110
55896,71094
55912,71075
55924,71053
55931,71029
55934,71000
55934,69689
55931,69660
55924,69636
55912,69614
55896,69595
55877,69579
55855,69567
55831,69560
55802,69557
54727,69557
54698,69560
" /> 
<polyline style="fill-rule:evenodd;"
points="75698,69560
75674,69567
75652,69579
75633,69595
75617,69614
75605,69636
75598,69660
75595,69689
75595,71000
75598,71029
75605,71053
75617,71075
75633,71094
75652,71110
75674,71122
75698,71129
75727,71132
76802,71132
76831,71129
76855,71122
76877,71110
76896,71094
76912,71075
76924,71053
76931,71029
76934,71000
76934,69689
76931,69660
76924,69636
76912,69614
76896,69595
76877,69579
76855,69567
76831,69560
76802,69557
75727,69557
75698,69560
" /> 
<polyline style="fill-rule:evenodd;"
points="68698,69560
68674,69567
68652,69579
68633,69595
68617,69614
68605,69636
68598,69660
68595,69689
68595,71000
68598,71029
68605,71053
68617,71075
68633,71094
68652,71110
68674,71122
68698,71129
68727,71132
69802,71132
69831,71129
69855,71122
69877,71110
69896,71094
69912,71075
69924,71053
69931,71029
69934,71000
69934,69689
69931,69660
69924,69636
69912,69614
69896,69595
69877,69579
69855,69567
69831,69560
69802,69557
68727,69557
68698,69560
" /> 
<polyline style="fill-rule:evenodd;"
points="61698,69560
61674,69567
61652,69579
61633,69595
61617,69614
61605,69636
61598,69660
61595,69689
61595,71000
61598,71029
61605,71053
61617,71075
61633,71094
61652,71110
61674,71122
61698,71129
61727,71132
62802,71132
62831,71129
62855,71122
62877,71110
62896,71094
62912,71075
62924,71053
62931,71029
62934,71000
62934,69689
62931,69660
62924,69636
62912,69614
62896,69595
62877,69579
62855,69567
62831,69560
62802,69557
61727,69557
61698,69560
" /> 
<polyline style="fill-rule:evenodd;"
points="47729,69560
47706,69567
47684,69579
47664,69595
47649,69614
47637,69636
47630,69660
47627,69689
47627,71000
47630,71029
47637,71053
47649,71075
47664,71094
47684,71110
47706,71122
47729,71129
47759,71132
48833,71132
48863,71129
48886,71122
48908,71110
48928,71094
48943,71075
48955,71053
48962,71029
48965,71000
48965,69689
48962,69660
48955,69636
48943,69614
48928,69595
48908,69579
48886,69567
48863,69560
48833,69557
47759,69557
47729,69560
" /> 
<polyline style="fill-rule:evenodd;"
points="40729,69560
40706,69567
40684,69579
40664,69595
40649,69614
40637,69636
40630,69660
40627,69689
40627,71000
40630,71029
40637,71053
40649,71075
40664,71094
40684,71110
40706,71122
40729,71129
40759,71132
41833,71132
41863,71129
41886,71122
41908,71110
41928,71094
41943,71075
41955,71053
41962,71029
41965,71000
41965,69689
41962,69660
41955,69636
41943,69614
41928,69595
41908,69579
41886,69567
41863,69560
41833,69557
40759,69557
40729,69560
" /> 
<polyline style="fill-rule:evenodd;"
points="33729,69560
33706,69567
33684,69579
33664,69595
33649,69614
33637,69636
33630,69660
33627,69689
33627,71000
33630,71029
33637,71053
33649,71075
33664,71094
33684,71110
33706,71122
33729,71129
33759,71132
34833,71132
34863,71129
34886,71122
34908,71110
34928,71094
34943,71075
34955,71053
34962,71029
34965,71000
34965,69689
34962,69660
34955,69636
34943,69614
34928,69595
34908,69579
34886,69567
34863,69560
34833,69557
33759,69557
33729,69560
" /> 
<polyline style="fill-rule:evenodd;"
points="32898,68316
32812,68351
32735,68403
32669,68469
32617,68546
32582,68632
32564,68723
32564,68816
32582,68908
32617,68994
32669,69071
32735,69137
32812,69188
32898,69224
32990,69242
33083,69242
33174,69224
33260,69188
33337,69137
33403,69071
33455,68994
33490,68908
33509,68816
33509,68723
33490,68632
33455,68546
33403,68469
33337,68403
33260,68351
33174,68316
33083,68297
32990,68297
32898,68316
" /> 
<polyline style="fill-rule:evenodd;"
points="39898,68316
39812,68351
39735,68403
39669,68469
39617,68546
39582,68632
39564,68723
39564,68816
39582,68908
39617,68994
39669,69071
39735,69137
39812,69188
39898,69224
39990,69242
40083,69242
40174,69224
40260,69188
40337,69137
40403,69071
40455,68994
40490,68908
40509,68816
40509,68723
40490,68632
40455,68546
40403,68469
40337,68403
40260,68351
40174,68316
40083,68297
39990,68297
39898,68316
" /> 
<polyline style="fill-rule:evenodd;"
points="81867,68316
81781,68351
81703,68403
81638,68469
81586,68546
81550,68632
81532,68723
81532,68816
81550,68908
81586,68994
81638,69071
81703,69137
81781,69188
81867,69224
81958,69242
82051,69242
82142,69224
82228,69188
82306,69137
82372,69071
82423,68994
82459,68908
82477,68816
82477,68723
82459,68632
82423,68546
82372,68469
82306,68403
82228,68351
82142,68316
82051,68297
81958,68297
81867,68316
" /> 
<polyline style="fill-rule:evenodd;"
points="46898,68316
46812,68351
46735,68403
46669,68469
46617,68546
46582,68632
46564,68723
46564,68816
46582,68908
46617,68994
46669,69071
46735,69137
46812,69188
46898,69224
46990,69242
47083,69242
47174,69224
47260,69188
47337,69137
47403,69071
47455,68994
47490,68908
47509,68816
47509,68723
47490,68632
47455,68546
47403,68469
47337,68403
47260,68351
47174,68316
47083,68297
46990,68297
46898,68316
" /> 
<polyline style="fill-rule:evenodd;"
points="60867,68316
60781,68351
60703,68403
60638,68469
60586,68546
60550,68632
60532,68723
60532,68816
60550,68908
60586,68994
60638,69071
60703,69137
60781,69188
60867,69224
60958,69242
61051,69242
61142,69224
61228,69188
61306,69137
61372,69071
61423,68994
61459,68908
61477,68816
61477,68723
61459,68632
61423,68546
61372,68469
61306,68403
61228,68351
61142,68316
61051,68297
60958,68297
60867,68316
" /> 
<polyline style="fill-rule:evenodd;"
points="74867,68316
74781,68351
74703,68403
74638,68469
74586,68546
74550,68632
74532,68723
74532,68816
74550,68908
74586,68994
74638,69071
74703,69137
74781,69188
74867,69224
74958,69242
75051,69242
75142,69224
75228,69188
75306,69137
75372,69071
75423,68994
75459,68908
75477,68816
75477,68723
75459,68632
75423,68546
75372,68469
75306,68403
75228,68351
75142,68316
75051,68297
74958,68297
74867,68316
" /> 
<polyline style="fill-rule:evenodd;"
points="67867,68316
67781,68351
67703,68403
67638,68469
67586,68546
67550,68632
67532,68723
67532,68816
67550,68908
67586,68994
67638,69071
67703,69137
67781,69188
67867,69224
67958,69242
68051,69242
68142,69224
68228,69188
68306,69137
68372,69071
68423,68994
68459,68908
68477,68816
68477,68723
68459,68632
68423,68546
68372,68469
68306,68403
68228,68351
68142,68316
68051,68297
67958,68297
67867,68316
" /> 
<polyline style="fill-rule:evenodd;"
points="90117,59826
92479,59826
92479,57464
90117,57464
90117,59826
" /> 
<polyline style="fill-rule:evenodd;"
points="74896,57494
74820,57509
74605,57598
74414,57725
74412,57727
74247,57892
74247,57892
74118,58085
74029,58300
74024,58324
73983,58528
73983,58761
74029,58989
74118,59204
74247,59398
74412,59562
74412,59562
74605,59691
74820,59780
74896,59795
75048,59826
75281,59826
75433,59795
75509,59780
75724,59691
75917,59562
75917,59562
76082,59398
76211,59204
76300,58989
76346,58761
76346,58528
76305,58324
76300,58300
76211,58085
76082,57892
76082,57892
75917,57727
75915,57725
75724,57598
75509,57509
75433,57494
75281,57464
75048,57464
74896,57494
" /> 
<polyline style="fill-rule:evenodd;"
points="66372,58321
66341,58324
66282,58342
66222,58360
66113,58418
66017,58497
65938,58593
65880,58702
65844,58821
65832,58945
65844,59068
65880,59187
65938,59296
66017,59392
66113,59471
66222,59529
66282,59547
66341,59565
66372,59568
66434,59575
66495,59575
66557,59568
66588,59565
66647,59547
66707,59529
66816,59471
66912,59392
66991,59296
67049,59187
67085,59068
67097,58945
67085,58821
67049,58702
66991,58593
66912,58497
66816,58418
66707,58360
66647,58342
66588,58324
66557,58321
66495,58315
66434,58315
66372,58321
" /> 
<polyline style="fill-rule:evenodd;"
points="64372,58321
64341,58324
64282,58342
64222,58360
64113,58418
64017,58497
63938,58593
63880,58702
63844,58821
63832,58945
63844,59068
63880,59187
63938,59296
64017,59392
64113,59471
64222,59529
64282,59547
64341,59565
64372,59568
64434,59575
64495,59575
64557,59568
64588,59565
64647,59547
64707,59529
64816,59471
64912,59392
64991,59296
65049,59187
65085,59068
65097,58945
65085,58821
65049,58702
64991,58593
64912,58497
64816,58418
64707,58360
64647,58342
64588,58324
64557,58321
64495,58315
64434,58315
64372,58321
" /> 
<polyline style="fill-rule:evenodd;"
points="62372,58321
62341,58324
62282,58342
62222,58360
62113,58418
62017,58497
61938,58593
61880,58702
61844,58821
61832,58945
61844,59068
61880,59187
61938,59296
62017,59392
62113,59471
62222,59529
62282,59547
62341,59565
62372,59568
62434,59575
62495,59575
62557,59568
62588,59565
62647,59547
62707,59529
62816,59471
62912,59392
62991,59296
63049,59187
63085,59068
63097,58945
63085,58821
63049,58702
62991,58593
62912,58497
62816,58418
62707,58360
62647,58342
62588,58324
62557,58321
62495,58315
62434,58315
62372,58321
" /> 
<polyline style="fill-rule:evenodd;"
points="60372,58321
60341,58324
60282,58342
60222,58360
60113,58418
60017,58497
59938,58593
59880,58702
59844,58821
59832,58945
59844,59068
59880,59187
59938,59296
60017,59392
60113,59471
60222,59529
60282,59547
60341,59565
60372,59568
60434,59575
60495,59575
60557,59568
60588,59565
60647,59547
60707,59529
60816,59471
60912,59392
60991,59296
61049,59187
61085,59068
61097,58945
61085,58821
61049,58702
60991,58593
60912,58497
60816,58418
60707,58360
60647,58342
60588,58324
60557,58321
60495,58315
60434,58315
60372,58321
" /> 
<polyline style="fill-rule:evenodd;"
points="58372,58321
58341,58324
58282,58342
58222,58360
58113,58418
58017,58497
57938,58593
57880,58702
57844,58821
57832,58945
57844,59068
57880,59187
57938,59296
58017,59392
58113,59471
58222,59529
58282,59547
58341,59565
58372,59568
58434,59575
58495,59575
58557,59568
58588,59565
58647,59547
58707,59529
58816,59471
58912,59392
58991,59296
59049,59187
59085,59068
59097,58945
59085,58821
59049,58702
58991,58593
58912,58497
58816,58418
58707,58360
58647,58342
58588,58324
58557,58321
58495,58315
58434,58315
58372,58321
" /> 
<polyline style="fill-rule:evenodd;"
points="54372,58321
54341,58324
54282,58342
54222,58360
54113,58418
54017,58497
53938,58593
53880,58702
53844,58821
53832,58945
53844,59068
53880,59187
53938,59296
54017,59392
54113,59471
54222,59529
54282,59547
54341,59565
54372,59568
54434,59575
54495,59575
54557,59568
54588,59565
54647,59547
54707,59529
54816,59471
54912,59392
54991,59296
55049,59187
55085,59068
55097,58945
55085,58821
55049,58702
54991,58593
54912,58497
54816,58418
54707,58360
54647,58342
54588,58324
54557,58321
54495,58315
54434,58315
54372,58321
" /> 
<polyline style="fill-rule:evenodd;"
points="52372,58321
52341,58324
52282,58342
52222,58360
52113,58418
52017,58497
51938,58593
51880,58702
51844,58821
51832,58945
51844,59068
51880,59187
51938,59296
52017,59392
52113,59471
52222,59529
52282,59547
52341,59565
52372,59568
52434,59575
52495,59575
52557,59568
52588,59565
52647,59547
52707,59529
52816,59471
52912,59392
52991,59296
53049,59187
53085,59068
53097,58945
53085,58821
53049,58702
52991,58593
52912,58497
52816,58418
52707,58360
52647,58342
52588,58324
52557,58321
52495,58315
52434,58315
52372,58321
" /> 
<polyline style="fill-rule:evenodd;"
points="50372,58321
50341,58324
50282,58342
50222,58360
50113,58418
50017,58497
49938,58593
49880,58702
49844,58821
49832,58945
49844,59068
49880,59187
49938,59296
50017,59392
50113,59471
50222,59529
50282,59547
50341,59565
50372,59568
50434,59575
50495,59575
50557,59568
50588,59565
50647,59547
50707,59529
50816,59471
50912,59392
50991,59296
51049,59187
51085,59068
51097,58945
51085,58821
51049,58702
50991,58593
50912,58497
50816,58418
50707,58360
50647,58342
50588,58324
50557,58321
50495,58315
50434,58315
50372,58321
" /> 
<polyline style="fill-rule:evenodd;"
points="48372,58321
48341,58324
48282,58342
48222,58360
48113,58418
48017,58497
47938,58593
47880,58702
47844,58821
47832,58945
47844,59068
47880,59187
47938,59296
48017,59392
48113,59471
48222,59529
48282,59547
48341,59565
48372,59568
48434,59575
48495,59575
48557,59568
48588,59565
48647,59547
48707,59529
48816,59471
48912,59392
48991,59296
49049,59187
49085,59068
49097,58945
49085,58821
49049,58702
48991,58593
48912,58497
48816,58418
48707,58360
48647,58342
48588,58324
48557,58321
48495,58315
48434,58315
48372,58321
" /> 
<polyline style="fill-rule:evenodd;"
points="46372,58321
46341,58324
46282,58342
46222,58360
46113,58418
46017,58497
45938,58593
45880,58702
45844,58821
45832,58945
45844,59068
45880,59187
45938,59296
46017,59392
46113,59471
46222,59529
46282,59547
46341,59565
46372,59568
46434,59575
46495,59575
46557,59568
46588,59565
46647,59547
46707,59529
46816,59471
46912,59392
46991,59296
47049,59187
47085,59068
47097,58945
47085,58821
47049,58702
46991,58593
46912,58497
46816,58418
46707,58360
46647,58342
46588,58324
46557,58321
46495,58315
46434,58315
46372,58321
" /> 
<polyline style="fill-rule:evenodd;"
points="56372,58321
56341,58324
56282,58342
56222,58360
56113,58418
56017,58497
55938,58593
55880,58702
55844,58821
55832,58945
55844,59068
55880,59187
55938,59296
56017,59392
56113,59471
56222,59529
56282,59547
56341,59565
56372,59568
56434,59575
56495,59575
56557,59568
56588,59565
56647,59547
56707,59529
56816,59471
56912,59392
56991,59296
57049,59187
57085,59068
57097,58945
57085,58821
57049,58702
56991,58593
56912,58497
56816,58418
56707,58360
56647,58342
56588,58324
56557,58321
56495,58315
56434,58315
56372,58321
" /> 
<polyline style="fill-rule:evenodd;"
points="68372,58321
68341,58324
68282,58342
68222,58360
68113,58418
68017,58497
67938,58593
67880,58702
67844,58821
67832,58945
67844,59068
67880,59187
67938,59296
68017,59392
68113,59471
68222,59529
68282,59547
68341,59565
68372,59568
68434,59575
68495,59575
68557,59568
68588,59565
68647,59547
68707,59529
68816,59471
68912,59392
68991,59296
69049,59187
69085,59068
69097,58945
69085,58821
69049,58702
68991,58593
68912,58497
68816,58418
68707,58360
68647,58342
68588,58324
68557,58321
68495,58315
68434,58315
68372,58321
" /> 
<polyline style="fill-rule:evenodd;"
points="70372,58321
70341,58324
70282,58342
70222,58360
70113,58418
70017,58497
69938,58593
69880,58702
69844,58821
69832,58945
69844,59068
69880,59187
69938,59296
70017,59392
70113,59471
70222,59529
70282,59547
70341,59565
70372,59568
70434,59575
70495,59575
70557,59568
70588,59565
70647,59547
70707,59529
70816,59471
70912,59392
70991,59296
71049,59187
71085,59068
71097,58945
71085,58821
71049,58702
70991,58593
70912,58497
70816,58418
70707,58360
70647,58342
70588,58324
70557,58321
70495,58315
70434,58315
70372,58321
" /> 
<polyline style="fill-rule:evenodd;"
points="72372,58321
72341,58324
72282,58342
72222,58360
72113,58418
72017,58497
71938,58593
71880,58702
71844,58821
71832,58945
71844,59068
71880,59187
71938,59296
72017,59392
72113,59471
72222,59529
72282,59547
72341,59565
72372,59568
72434,59575
72495,59575
72557,59568
72588,59565
72647,59547
72707,59529
72816,59471
72912,59392
72991,59296
73049,59187
73085,59068
73097,58945
73085,58821
73049,58702
72991,58593
72912,58497
72816,58418
72707,58360
72647,58342
72588,58324
72557,58321
72495,58315
72434,58315
72372,58321
" /> 
<polyline style="fill-rule:evenodd;"
points="40872,53521
40841,53524
40782,53542
40722,53560
40613,53618
40517,53697
40438,53793
40380,53902
40344,54021
40332,54145
40344,54268
40380,54387
40438,54496
40517,54592
40613,54671
40722,54729
40782,54747
40841,54765
40872,54768
40934,54775
40995,54775
41057,54768
41088,54765
41147,54747
41207,54729
41316,54671
41412,54592
41491,54496
41549,54387
41585,54268
41597,54145
41585,54021
41549,53902
41491,53793
41412,53697
41316,53618
41207,53560
41147,53542
41088,53524
41057,53521
40995,53515
40934,53515
40872,53521
" /> 
<polyline style="fill-rule:evenodd;"
points="34335,54775
35594,54775
35594,53515
34335,53515
34335,54775
" /> 
<polyline style="fill-rule:evenodd;"
points="34872,51521
34841,51524
34782,51542
34722,51560
34613,51618
34517,51697
34438,51793
34380,51902
34344,52021
34332,52145
34344,52268
34380,52387
34438,52496
34517,52592
34613,52671
34722,52729
34782,52747
34841,52765
34872,52768
34934,52775
34995,52775
35057,52768
35088,52765
35147,52747
35207,52729
35316,52671
35412,52592
35491,52496
35549,52387
35585,52268
35597,52145
35585,52021
35549,51902
35491,51793
35412,51697
35316,51618
35207,51560
35147,51542
35088,51524
35057,51521
34995,51515
34934,51515
34872,51521
" /> 
<polyline style="fill-rule:evenodd;"
points="40872,51521
40841,51524
40782,51542
40722,51560
40613,51618
40517,51697
40438,51793
40380,51902
40344,52021
40332,52145
40344,52268
40380,52387
40438,52496
40517,52592
40613,52671
40722,52729
40782,52747
40841,52765
40872,52768
40934,52775
40995,52775
41057,52768
41088,52765
41147,52747
41207,52729
41316,52671
41412,52592
41491,52496
41549,52387
41585,52268
41597,52145
41585,52021
41549,51902
41491,51793
41412,51697
41316,51618
41207,51560
41147,51542
41088,51524
41057,51521
40995,51515
40934,51515
40872,51521
" /> 
<polyline style="fill-rule:evenodd;"
points="34872,49521
34841,49524
34782,49542
34722,49560
34613,49618
34517,49697
34438,49793
34380,49902
34344,50021
34332,50145
34344,50268
34380,50387
34438,50496
34517,50592
34613,50671
34722,50729
34782,50747
34841,50765
34872,50768
34934,50775
34995,50775
35057,50768
35088,50765
35147,50747
35207,50729
35316,50671
35412,50592
35491,50496
35549,50387
35585,50268
35597,50145
35585,50021
35549,49902
35491,49793
35412,49697
35316,49618
35207,49560
35147,49542
35088,49524
35057,49521
34995,49515
34934,49515
34872,49521
" /> 
<polyline style="fill-rule:evenodd;"
points="40872,49521
40841,49524
40782,49542
40722,49560
40613,49618
40517,49697
40438,49793
40380,49902
40344,50021
40332,50145
40344,50268
40380,50387
40438,50496
40517,50592
40613,50671
40722,50729
40782,50747
40841,50765
40872,50768
40934,50775
40995,50775
41057,50768
41088,50765
41147,50747
41207,50729
41316,50671
41412,50592
41491,50496
41549,50387
41585,50268
41597,50145
41585,50021
41549,49902
41491,49793
41412,49697
41316,49618
41207,49560
41147,49542
41088,49524
41057,49521
40995,49515
40934,49515
40872,49521
" /> 
<polyline style="fill-rule:evenodd;"
points="34872,47521
34841,47524
34823,47529
34722,47560
34613,47618
34517,47697
34438,47793
34380,47902
34362,47962
34344,48021
34332,48145
34335,48179
34344,48268
34380,48387
34438,48496
34517,48592
34613,48671
34722,48729
34782,48747
34841,48765
34872,48768
34934,48775
34995,48775
35057,48768
35088,48765
35147,48747
35207,48729
35316,48671
35412,48592
35491,48496
35549,48387
35585,48268
35594,48179
35597,48145
35585,48021
35567,47962
35549,47902
35491,47793
35412,47697
35316,47618
35207,47560
35106,47529
35088,47524
35057,47521
34995,47515
34934,47515
34872,47521
" /> 
<polyline style="fill-rule:evenodd;"
points="40872,47521
40841,47524
40823,47529
40722,47560
40613,47618
40517,47697
40438,47793
40380,47902
40362,47962
40344,48021
40332,48145
40335,48179
40344,48268
40380,48387
40438,48496
40517,48592
40613,48671
40722,48729
40782,48747
40841,48765
40872,48768
40934,48775
40995,48775
41057,48768
41088,48765
41147,48747
41207,48729
41316,48671
41412,48592
41491,48496
41549,48387
41585,48268
41594,48179
41597,48145
41585,48021
41567,47962
41549,47902
41491,47793
41412,47697
41316,47618
41207,47560
41106,47529
41088,47524
41057,47521
40995,47515
40934,47515
40872,47521
" /> 
<polyline style="fill-rule:evenodd;"
points="86307,46687
86181,46725
86065,46787
85963,46871
85879,46973
85840,47047
85817,47089
85779,47215
85779,47215
85769,47313
85769,47576
85779,47674
85817,47800
85879,47917
85963,48019
86065,48102
86107,48125
86181,48164
86215,48175
86307,48203
86439,48216
86570,48203
86696,48164
86812,48102
86914,48019
86998,47917
87024,47868
87060,47800
87071,47765
87098,47674
87108,47576
87108,47313
87098,47215
87060,47089
86998,46973
86914,46871
86812,46787
86696,46725
86570,46687
86439,46674
86307,46687
" /> 
<polyline style="fill-rule:evenodd;"
points="80402,46687
80276,46725
80159,46787
80057,46871
79974,46973
79934,47047
79912,47089
79873,47215
79873,47215
79864,47313
79864,47576
79873,47674
79912,47800
79974,47917
80057,48019
80159,48102
80202,48125
80276,48164
80310,48175
80402,48203
80533,48216
80664,48203
80790,48164
80907,48102
81009,48019
81092,47917
81118,47868
81154,47800
81165,47765
81193,47674
81202,47576
81202,47313
81193,47215
81154,47089
81092,46973
81009,46871
80907,46787
80790,46725
80664,46687
80533,46674
80402,46687
" /> 
<polyline style="fill-rule:evenodd;"
points="88276,46687
88150,46725
88033,46787
87931,46871
87848,46973
87808,47047
87786,47089
87747,47215
87747,47215
87738,47313
87738,47576
87747,47674
87786,47800
87848,47917
87931,48019
88033,48102
88076,48125
88150,48164
88184,48175
88276,48203
88407,48216
88538,48203
88664,48164
88781,48102
88883,48019
88966,47917
88992,47868
89028,47800
89039,47765
89067,47674
89076,47576
89076,47313
89067,47215
89028,47089
88966,46973
88883,46871
88781,46787
88664,46725
88538,46687
88407,46674
88276,46687
" /> 
<polyline style="fill-rule:evenodd;"
points="84339,46687
84213,46725
84096,46787
83994,46871
83911,46973
83871,47047
83849,47089
83810,47215
83810,47215
83801,47313
83801,47576
83810,47674
83849,47800
83911,47917
83994,48019
84096,48102
84139,48125
84213,48164
84247,48175
84339,48203
84470,48216
84601,48203
84727,48164
84844,48102
84946,48019
85029,47917
85055,47868
85091,47800
85102,47765
85130,47674
85139,47576
85139,47313
85130,47215
85091,47089
85029,46973
84946,46871
84844,46787
84727,46725
84601,46687
84470,46674
84339,46687
" /> 
<polyline style="fill-rule:evenodd;"
points="82370,46687
82244,46725
82128,46787
82026,46871
81942,46973
81903,47047
81880,47089
81842,47215
81842,47215
81832,47313
81832,47576
81842,47674
81880,47800
81942,47917
82026,48019
82128,48102
82170,48125
82244,48164
82278,48175
82370,48203
82502,48216
82633,48203
82759,48164
82875,48102
82977,48019
83061,47917
83087,47868
83123,47800
83134,47765
83161,47674
83171,47576
83171,47313
83161,47215
83123,47089
83061,46973
82977,46871
82875,46787
82759,46725
82633,46687
82502,46674
82370,46687
" /> 
<polyline style="fill-rule:evenodd;"
points="77998,46680
77974,46687
77952,46699
77933,46715
77917,46734
77905,46756
77898,46780
77895,46809
77895,48080
77898,48110
77905,48134
77917,48155
77933,48175
77952,48190
77974,48202
77998,48209
78027,48212
79102,48212
79131,48209
79155,48202
79177,48190
79196,48175
79212,48155
79224,48134
79231,48110
79234,48080
79234,46809
79231,46780
79224,46756
79212,46734
79196,46715
79177,46699
79155,46687
79131,46680
79102,46677
78027,46677
77998,46680
" /> 
<polyline style="fill-rule:evenodd;"
points="54372,46321
54341,46324
54282,46342
54222,46360
54113,46418
54017,46497
53938,46593
53880,46702
53873,46725
53844,46821
53832,46945
53844,47068
53862,47127
53880,47187
53938,47296
54017,47392
54113,47471
54222,47529
54282,47547
54341,47565
54372,47568
54434,47575
54495,47575
54557,47568
54588,47565
54647,47547
54707,47529
54816,47471
54912,47392
54991,47296
55049,47187
55067,47127
55085,47068
55097,46945
55085,46821
55056,46725
55049,46702
54991,46593
54912,46497
54816,46418
54707,46360
54647,46342
54588,46324
54557,46321
54495,46315
54434,46315
54372,46321
" /> 
<polyline style="fill-rule:evenodd;"
points="52372,46321
52341,46324
52282,46342
52222,46360
52113,46418
52017,46497
51938,46593
51880,46702
51873,46725
51844,46821
51832,46945
51844,47068
51862,47127
51880,47187
51938,47296
52017,47392
52113,47471
52222,47529
52282,47547
52341,47565
52372,47568
52434,47575
52495,47575
52557,47568
52588,47565
52647,47547
52707,47529
52816,47471
52912,47392
52991,47296
53049,47187
53067,47127
53085,47068
53097,46945
53085,46821
53056,46725
53049,46702
52991,46593
52912,46497
52816,46418
52707,46360
52647,46342
52588,46324
52557,46321
52495,46315
52434,46315
52372,46321
" /> 
<polyline style="fill-rule:evenodd;"
points="56372,46321
56341,46324
56282,46342
56222,46360
56113,46418
56017,46497
55938,46593
55880,46702
55873,46725
55844,46821
55832,46945
55844,47068
55862,47127
55880,47187
55938,47296
56017,47392
56113,47471
56222,47529
56282,47547
56341,47565
56372,47568
56434,47575
56495,47575
56557,47568
56588,47565
56647,47547
56707,47529
56816,47471
56912,47392
56991,47296
57049,47187
57067,47127
57085,47068
57097,46945
57085,46821
57056,46725
57049,46702
56991,46593
56912,46497
56816,46418
56707,46360
56647,46342
56588,46324
56557,46321
56495,46315
56434,46315
56372,46321
" /> 
<polyline style="fill-rule:evenodd;"
points="50372,46321
50341,46324
50282,46342
50222,46360
50113,46418
50017,46497
49938,46593
49880,46702
49873,46725
49844,46821
49832,46945
49844,47068
49862,47127
49880,47187
49938,47296
50017,47392
50113,47471
50222,47529
50282,47547
50341,47565
50372,47568
50434,47575
50495,47575
50557,47568
50588,47565
50647,47547
50707,47529
50816,47471
50912,47392
50991,47296
51049,47187
51067,47127
51085,47068
51097,46945
51085,46821
51056,46725
51049,46702
50991,46593
50912,46497
50816,46418
50707,46360
50647,46342
50588,46324
50557,46321
50495,46315
50434,46315
50372,46321
" /> 
<polyline style="fill-rule:evenodd;"
points="58372,46321
58341,46324
58282,46342
58222,46360
58113,46418
58017,46497
57938,46593
57880,46702
57873,46725
57844,46821
57832,46945
57844,47068
57862,47127
57880,47187
57938,47296
58017,47392
58113,47471
58222,47529
58282,47547
58341,47565
58372,47568
58434,47575
58495,47575
58557,47568
58588,47565
58647,47547
58707,47529
58816,47471
58912,47392
58991,47296
59049,47187
59067,47127
59085,47068
59097,46945
59085,46821
59056,46725
59049,46702
58991,46593
58912,46497
58816,46418
58707,46360
58647,46342
58588,46324
58557,46321
58495,46315
58434,46315
58372,46321
" /> 
<polyline style="fill-rule:evenodd;"
points="45835,47575
47094,47575
47094,46315
45835,46315
45835,47575
" /> 
<polyline style="fill-rule:evenodd;"
points="60372,46321
60341,46324
60282,46342
60222,46360
60113,46418
60017,46497
59938,46593
59880,46702
59873,46725
59844,46821
59832,46945
59844,47068
59862,47127
59880,47187
59938,47296
60017,47392
60113,47471
60222,47529
60282,47547
60341,47565
60372,47568
60434,47575
60495,47575
60557,47568
60588,47565
60647,47547
60707,47529
60816,47471
60912,47392
60991,47296
61049,47187
61067,47127
61085,47068
61097,46945
61085,46821
61056,46725
61049,46702
60991,46593
60912,46497
60816,46418
60707,46360
60647,46342
60588,46324
60557,46321
60495,46315
60434,46315
60372,46321
" /> 
<polyline style="fill-rule:evenodd;"
points="48372,46321
48341,46324
48282,46342
48222,46360
48113,46418
48017,46497
47938,46593
47880,46702
47873,46725
47844,46821
47832,46945
47844,47068
47862,47127
47880,47187
47938,47296
48017,47392
48113,47471
48222,47529
48282,47547
48341,47565
48372,47568
48434,47575
48495,47575
48557,47568
48588,47565
48647,47547
48707,47529
48816,47471
48912,47392
48991,47296
49049,47187
49067,47127
49085,47068
49097,46945
49085,46821
49056,46725
49049,46702
48991,46593
48912,46497
48816,46418
48707,46360
48647,46342
48588,46324
48557,46321
48495,46315
48434,46315
48372,46321
" /> 
<polyline style="fill-rule:evenodd;"
points="62372,46321
62341,46324
62282,46342
62222,46360
62113,46418
62017,46497
61938,46593
61880,46702
61873,46725
61844,46821
61832,46945
61844,47068
61862,47127
61880,47187
61938,47296
62017,47392
62113,47471
62222,47529
62282,47547
62341,47565
62372,47568
62434,47575
62495,47575
62557,47568
62588,47565
62647,47547
62707,47529
62816,47471
62912,47392
62991,47296
63049,47187
63067,47127
63085,47068
63097,46945
63085,46821
63056,46725
63049,46702
62991,46593
62912,46497
62816,46418
62707,46360
62647,46342
62588,46324
62557,46321
62495,46315
62434,46315
62372,46321
" /> 
<polyline style="fill-rule:evenodd;"
points="64372,46321
64341,46324
64282,46342
64222,46360
64113,46418
64017,46497
63938,46593
63880,46702
63873,46725
63844,46821
63832,46945
63844,47068
63862,47127
63880,47187
63938,47296
64017,47392
64113,47471
64222,47529
64282,47547
64341,47565
64372,47568
64434,47575
64495,47575
64557,47568
64588,47565
64647,47547
64707,47529
64816,47471
64912,47392
64991,47296
65049,47187
65067,47127
65085,47068
65097,46945
65085,46821
65056,46725
65049,46702
64991,46593
64912,46497
64816,46418
64707,46360
64647,46342
64588,46324
64557,46321
64495,46315
64434,46315
64372,46321
" /> 
<polyline style="fill-rule:evenodd;"
points="66372,46321
66341,46324
66282,46342
66222,46360
66113,46418
66017,46497
65938,46593
65880,46702
65873,46725
65844,46821
65832,46945
65844,47068
65862,47127
65880,47187
65938,47296
66017,47392
66113,47471
66222,47529
66282,47547
66341,47565
66372,47568
66434,47575
66495,47575
66557,47568
66588,47565
66647,47547
66707,47529
66816,47471
66912,47392
66991,47296
67049,47187
67067,47127
67085,47068
67097,46945
67085,46821
67056,46725
67049,46702
66991,46593
66912,46497
66816,46418
66707,46360
66647,46342
66588,46324
66557,46321
66495,46315
66434,46315
66372,46321
" /> 
<polyline style="fill-rule:evenodd;"
points="68372,46321
68341,46324
68282,46342
68222,46360
68113,46418
68017,46497
67938,46593
67880,46702
67873,46725
67844,46821
67832,46945
67844,47068
67862,47127
67880,47187
67938,47296
68017,47392
68113,47471
68222,47529
68282,47547
68341,47565
68372,47568
68434,47575
68495,47575
68557,47568
68588,47565
68647,47547
68707,47529
68816,47471
68912,47392
68991,47296
69049,47187
69067,47127
69085,47068
69097,46945
69085,46821
69056,46725
69049,46702
68991,46593
68912,46497
68816,46418
68707,46360
68647,46342
68588,46324
68557,46321
68495,46315
68434,46315
68372,46321
" /> 
<polyline style="fill-rule:evenodd;"
points="70372,46321
70341,46324
70282,46342
70222,46360
70113,46418
70017,46497
69938,46593
69880,46702
69873,46725
69844,46821
69832,46945
69844,47068
69862,47127
69880,47187
69938,47296
70017,47392
70113,47471
70222,47529
70282,47547
70341,47565
70372,47568
70434,47575
70495,47575
70557,47568
70588,47565
70647,47547
70707,47529
70816,47471
70912,47392
70991,47296
71049,47187
71067,47127
71085,47068
71097,46945
71085,46821
71056,46725
71049,46702
70991,46593
70912,46497
70816,46418
70707,46360
70647,46342
70588,46324
70557,46321
70495,46315
70434,46315
70372,46321
" /> 
<polyline style="fill-rule:evenodd;"
points="72372,46321
72341,46324
72282,46342
72222,46360
72113,46418
72017,46497
71938,46593
71880,46702
71873,46725
71844,46821
71832,46945
71844,47068
71862,47127
71880,47187
71938,47296
72017,47392
72113,47471
72222,47529
72282,47547
72341,47565
72372,47568
72434,47575
72495,47575
72557,47568
72588,47565
72647,47547
72707,47529
72816,47471
72912,47392
72991,47296
73049,47187
73067,47127
73085,47068
73097,46945
73085,46821
73056,46725
73049,46702
72991,46593
72912,46497
72816,46418
72707,46360
72647,46342
72588,46324
72557,46321
72495,46315
72434,46315
72372,46321
" /> 
<polyline style="fill-rule:evenodd;"
points="34872,45521
34841,45524
34782,45542
34722,45560
34613,45618
34517,45697
34438,45793
34380,45902
34380,45902
34344,46021
34332,46145
34344,46268
34361,46324
34380,46387
34438,46496
34517,46592
34613,46671
34722,46729
34782,46747
34841,46765
34872,46768
34934,46775
34995,46775
35057,46768
35088,46765
35147,46747
35207,46729
35316,46671
35412,46592
35491,46496
35549,46387
35568,46324
35585,46268
35597,46145
35585,46021
35549,45902
35549,45902
35491,45793
35412,45697
35316,45618
35207,45560
35147,45542
35088,45524
35057,45521
34995,45515
34934,45515
34872,45521
" /> 
<polyline style="fill-rule:evenodd;"
points="40872,45521
40841,45524
40782,45542
40722,45560
40613,45618
40517,45697
40438,45793
40380,45902
40380,45902
40344,46021
40332,46145
40344,46268
40361,46324
40380,46387
40438,46496
40517,46592
40613,46671
40722,46729
40782,46747
40841,46765
40872,46768
40934,46775
40995,46775
41057,46768
41088,46765
41147,46747
41207,46729
41316,46671
41412,46592
41491,46496
41549,46387
41568,46324
41585,46268
41597,46145
41585,46021
41549,45902
41549,45902
41491,45793
41412,45697
41316,45618
41207,45560
41147,45542
41088,45524
41057,45521
40995,45515
40934,45515
40872,45521
" /> 
<polyline style="fill-rule:evenodd;"
points="77167,45416
77081,45451
77003,45503
76938,45569
76886,45646
76850,45732
76832,45823
76832,45916
76850,46008
76886,46094
76938,46171
77003,46237
77081,46288
77167,46324
77258,46342
77351,46342
77442,46324
77528,46288
77606,46237
77672,46171
77723,46094
77759,46008
77777,45916
77777,45823
77759,45732
77723,45646
77672,45569
77606,45503
77528,45451
77442,45416
77351,45397
77258,45397
77167,45416
" /> 
<polyline style="fill-rule:evenodd;"
points="40872,43521
40841,43524
40782,43542
40722,43560
40613,43618
40517,43697
40438,43793
40380,43902
40362,43962
40346,44012
40344,44021
40332,44145
40344,44268
40380,44387
40438,44496
40517,44592
40613,44671
40722,44729
40782,44747
40841,44765
40872,44768
40934,44775
40995,44775
41057,44768
41088,44765
41147,44747
41207,44729
41316,44671
41412,44592
41491,44496
41549,44387
41585,44268
41597,44145
41585,44021
41583,44012
41567,43962
41549,43902
41491,43793
41412,43697
41316,43618
41207,43560
41147,43542
41088,43524
41057,43521
40995,43515
40934,43515
40872,43521
" /> 
<polyline style="fill-rule:evenodd;"
points="34872,43521
34841,43524
34782,43542
34722,43560
34613,43618
34517,43697
34438,43793
34380,43902
34362,43962
34346,44012
34344,44021
34332,44145
34344,44268
34380,44387
34438,44496
34517,44592
34613,44671
34722,44729
34782,44747
34841,44765
34872,44768
34934,44775
34995,44775
35057,44768
35088,44765
35147,44747
35207,44729
35316,44671
35412,44592
35491,44496
35549,44387
35585,44268
35597,44145
35585,44021
35583,44012
35567,43962
35549,43902
35491,43793
35412,43697
35316,43618
35207,43560
35147,43542
35088,43524
35057,43521
34995,43515
34934,43515
34872,43521
" /> 
<polyline style="fill-rule:evenodd;"
points="53349,42865
53292,42877
53248,42895
53185,42921
53088,42986
53006,43068
52941,43165
52915,43228
52897,43272
52874,43386
52874,43503
52897,43617
52897,43618
52941,43724
53006,43821
53088,43903
53185,43968
53248,43994
53292,44012
53336,44021
53406,44035
53523,44035
53593,44021
53637,44012
53681,43994
53744,43968
53841,43903
53923,43821
53988,43724
54032,43618
54032,43617
54055,43503
54055,43386
54032,43272
54014,43228
53988,43165
53923,43068
53841,42986
53744,42921
53681,42895
53637,42877
53580,42865
53523,42854
53406,42854
53349,42865
" /> 
<polyline style="fill-rule:evenodd;"
points="57192,42865
57135,42877
57090,42895
57027,42921
56931,42986
56848,43068
56784,43165
56758,43228
56739,43272
56716,43386
56716,43503
56739,43617
56740,43618
56784,43724
56848,43821
56931,43903
57027,43968
57090,43994
57135,44012
57178,44021
57249,44035
57365,44035
57436,44021
57479,44012
57524,43994
57587,43968
57683,43903
57766,43821
57830,43724
57874,43618
57875,43617
57898,43503
57898,43386
57875,43272
57856,43228
57830,43165
57766,43068
57683,42986
57587,42921
57524,42895
57479,42877
57422,42865
57365,42854
57249,42854
57192,42865
" /> 
<polyline style="fill-rule:evenodd;"
points="40872,41521
40841,41524
40782,41542
40722,41560
40613,41618
40517,41697
40438,41793
40380,41902
40344,42021
40332,42145
40344,42268
40380,42387
40438,42496
40517,42592
40613,42671
40722,42729
40782,42747
40841,42765
40872,42768
40934,42775
40995,42775
41057,42768
41088,42765
41147,42747
41207,42729
41316,42671
41412,42592
41491,42496
41549,42387
41585,42268
41597,42145
41585,42021
41549,41902
41491,41793
41412,41697
41316,41618
41207,41560
41147,41542
41088,41524
41057,41521
40995,41515
40934,41515
40872,41521
" /> 
<polyline style="fill-rule:evenodd;"
points="34872,41521
34841,41524
34782,41542
34722,41560
34613,41618
34517,41697
34438,41793
34380,41902
34344,42021
34332,42145
34344,42268
34380,42387
34438,42496
34517,42592
34613,42671
34722,42729
34782,42747
34841,42765
34872,42768
34934,42775
34995,42775
35057,42768
35088,42765
35147,42747
35207,42729
35316,42671
35412,42592
35491,42496
35549,42387
35585,42268
35597,42145
35585,42021
35549,41902
35491,41793
35412,41697
35316,41618
35207,41560
35147,41542
35088,41524
35057,41521
34995,41515
34934,41515
34872,41521
" /> 
<polyline style="fill-rule:evenodd;"
points="84656,42253
86073,42253
86073,40836
84656,40836
84656,42253
" /> 
<polyline style="fill-rule:evenodd;"
points="87226,40846
87092,40887
86969,40953
86861,41041
86772,41149
86707,41272
86666,41406
86652,41545
86666,41684
86707,41817
86772,41940
86861,42048
86969,42137
87092,42203
87226,42243
87330,42253
87399,42253
87503,42243
87637,42203
87760,42137
87868,42048
87957,41940
88022,41817
88063,41684
88077,41545
88063,41406
88022,41272
87957,41149
87868,41041
87760,40953
87637,40887
87503,40846
87399,40836
87330,40836
87226,40846
" /> 
<polyline style="fill-rule:evenodd;"
points="89226,40846
89092,40887
88969,40953
88861,41041
88772,41149
88707,41272
88666,41406
88652,41545
88666,41684
88707,41817
88772,41940
88861,42048
88969,42137
89092,42203
89226,42243
89330,42253
89399,42253
89503,42243
89637,42203
89760,42137
89868,42048
89957,41940
90022,41817
90063,41684
90077,41545
90063,41406
90022,41272
89957,41149
89868,41041
89760,40953
89637,40887
89503,40846
89399,40836
89330,40836
89226,40846
" /> 
<polyline style="fill-rule:evenodd;"
points="64172,39421
64141,39424
64082,39442
64022,39460
63913,39518
63817,39597
63738,39693
63680,39802
63644,39921
63632,40045
63644,40168
63680,40287
63738,40396
63817,40492
63913,40571
64022,40629
64082,40647
64141,40665
64172,40668
64234,40675
64295,40675
64357,40668
64388,40665
64447,40647
64507,40629
64616,40571
64712,40492
64791,40396
64849,40287
64885,40168
64897,40045
64885,39921
64849,39802
64791,39693
64712,39597
64616,39518
64507,39460
64447,39442
64388,39424
64357,39421
64295,39415
64234,39415
64172,39421
" /> 
<polyline style="fill-rule:evenodd;"
points="66172,39421
66141,39424
66082,39442
66022,39460
65913,39518
65817,39597
65738,39693
65680,39802
65644,39921
65632,40045
65644,40168
65680,40287
65738,40396
65817,40492
65913,40571
66022,40629
66082,40647
66141,40665
66172,40668
66234,40675
66295,40675
66357,40668
66388,40665
66447,40647
66507,40629
66616,40571
66712,40492
66791,40396
66849,40287
66885,40168
66897,40045
66885,39921
66849,39802
66791,39693
66712,39597
66616,39518
66507,39460
66447,39442
66388,39424
66357,39421
66295,39415
66234,39415
66172,39421
" /> 
<polyline style="fill-rule:evenodd;"
points="62172,39421
62141,39424
62082,39442
62022,39460
61913,39518
61817,39597
61738,39693
61680,39802
61644,39921
61632,40045
61644,40168
61680,40287
61738,40396
61817,40492
61913,40571
62022,40629
62082,40647
62141,40665
62172,40668
62234,40675
62295,40675
62357,40668
62388,40665
62447,40647
62507,40629
62616,40571
62712,40492
62791,40396
62849,40287
62885,40168
62897,40045
62885,39921
62849,39802
62791,39693
62712,39597
62616,39518
62507,39460
62447,39442
62388,39424
62357,39421
62295,39415
62234,39415
62172,39421
" /> 
<polyline style="fill-rule:evenodd;"
points="68172,39421
68141,39424
68082,39442
68022,39460
67913,39518
67817,39597
67738,39693
67680,39802
67644,39921
67632,40045
67644,40168
67680,40287
67738,40396
67817,40492
67913,40571
68022,40629
68082,40647
68141,40665
68172,40668
68234,40675
68295,40675
68357,40668
68388,40665
68447,40647
68507,40629
68616,40571
68712,40492
68791,40396
68849,40287
68885,40168
68897,40045
68885,39921
68849,39802
68791,39693
68712,39597
68616,39518
68507,39460
68447,39442
68388,39424
68357,39421
68295,39415
68234,39415
68172,39421
" /> 
<polyline style="fill-rule:evenodd;"
points="60172,39421
60141,39424
60082,39442
60022,39460
59913,39518
59817,39597
59738,39693
59680,39802
59644,39921
59632,40045
59644,40168
59680,40287
59738,40396
59817,40492
59913,40571
60022,40629
60082,40647
60141,40665
60172,40668
60234,40675
60295,40675
60357,40668
60388,40665
60447,40647
60507,40629
60616,40571
60712,40492
60791,40396
60849,40287
60885,40168
60897,40045
60885,39921
60849,39802
60791,39693
60712,39597
60616,39518
60507,39460
60447,39442
60388,39424
60357,39421
60295,39415
60234,39415
60172,39421
" /> 
<polyline style="fill-rule:evenodd;"
points="58172,39421
58141,39424
58082,39442
58022,39460
57913,39518
57817,39597
57738,39693
57680,39802
57644,39921
57632,40045
57644,40168
57680,40287
57738,40396
57817,40492
57913,40571
58022,40629
58082,40647
58141,40665
58172,40668
58234,40675
58295,40675
58357,40668
58388,40665
58447,40647
58507,40629
58616,40571
58712,40492
58791,40396
58849,40287
58885,40168
58897,40045
58885,39921
58849,39802
58791,39693
58712,39597
58616,39518
58507,39460
58447,39442
58388,39424
58357,39421
58295,39415
58234,39415
58172,39421
" /> 
<polyline style="fill-rule:evenodd;"
points="70172,39421
70141,39424
70082,39442
70022,39460
69913,39518
69817,39597
69738,39693
69680,39802
69644,39921
69632,40045
69644,40168
69680,40287
69738,40396
69817,40492
69913,40571
70022,40629
70082,40647
70141,40665
70172,40668
70234,40675
70295,40675
70357,40668
70388,40665
70447,40647
70507,40629
70616,40571
70712,40492
70791,40396
70849,40287
70885,40168
70897,40045
70885,39921
70849,39802
70791,39693
70712,39597
70616,39518
70507,39460
70447,39442
70388,39424
70357,39421
70295,39415
70234,39415
70172,39421
" /> 
<polyline style="fill-rule:evenodd;"
points="56172,39421
56141,39424
56082,39442
56022,39460
55913,39518
55817,39597
55738,39693
55680,39802
55644,39921
55632,40045
55644,40168
55680,40287
55738,40396
55817,40492
55913,40571
56022,40629
56082,40647
56141,40665
56172,40668
56234,40675
56295,40675
56357,40668
56388,40665
56447,40647
56507,40629
56616,40571
56712,40492
56791,40396
56849,40287
56885,40168
56897,40045
56885,39921
56849,39802
56791,39693
56712,39597
56616,39518
56507,39460
56447,39442
56388,39424
56357,39421
56295,39415
56234,39415
56172,39421
" /> 
<polyline style="fill-rule:evenodd;"
points="46172,39421
46141,39424
46082,39442
46022,39460
45913,39518
45817,39597
45738,39693
45680,39802
45644,39921
45632,40045
45644,40168
45680,40287
45738,40396
45817,40492
45913,40571
46022,40629
46082,40647
46141,40665
46172,40668
46234,40675
46295,40675
46357,40668
46388,40665
46447,40647
46507,40629
46616,40571
46712,40492
46791,40396
46849,40287
46885,40168
46897,40045
46885,39921
46849,39802
46791,39693
46712,39597
46616,39518
46507,39460
46447,39442
46388,39424
46357,39421
46295,39415
46234,39415
46172,39421
" /> 
<polyline style="fill-rule:evenodd;"
points="54172,39421
54141,39424
54082,39442
54022,39460
53913,39518
53817,39597
53738,39693
53680,39802
53644,39921
53632,40045
53644,40168
53680,40287
53738,40396
53817,40492
53913,40571
54022,40629
54082,40647
54141,40665
54172,40668
54234,40675
54295,40675
54357,40668
54388,40665
54447,40647
54507,40629
54616,40571
54712,40492
54791,40396
54849,40287
54885,40168
54897,40045
54885,39921
54849,39802
54791,39693
54712,39597
54616,39518
54507,39460
54447,39442
54388,39424
54357,39421
54295,39415
54234,39415
54172,39421
" /> 
<polyline style="fill-rule:evenodd;"
points="48172,39421
48141,39424
48082,39442
48022,39460
47913,39518
47817,39597
47738,39693
47680,39802
47644,39921
47632,40045
47644,40168
47680,40287
47738,40396
47817,40492
47913,40571
48022,40629
48082,40647
48141,40665
48172,40668
48234,40675
48295,40675
48357,40668
48388,40665
48447,40647
48507,40629
48616,40571
48712,40492
48791,40396
48849,40287
48885,40168
48897,40045
48885,39921
48849,39802
48791,39693
48712,39597
48616,39518
48507,39460
48447,39442
48388,39424
48357,39421
48295,39415
48234,39415
48172,39421
" /> 
<polyline style="fill-rule:evenodd;"
points="52172,39421
52141,39424
52082,39442
52022,39460
51913,39518
51817,39597
51738,39693
51680,39802
51644,39921
51632,40045
51644,40168
51680,40287
51738,40396
51817,40492
51913,40571
52022,40629
52082,40647
52141,40665
52172,40668
52234,40675
52295,40675
52357,40668
52388,40665
52447,40647
52507,40629
52616,40571
52712,40492
52791,40396
52849,40287
52885,40168
52897,40045
52885,39921
52849,39802
52791,39693
52712,39597
52616,39518
52507,39460
52447,39442
52388,39424
52357,39421
52295,39415
52234,39415
52172,39421
" /> 
<polyline style="fill-rule:evenodd;"
points="50172,39421
50141,39424
50082,39442
50022,39460
49913,39518
49817,39597
49738,39693
49680,39802
49644,39921
49632,40045
49644,40168
49680,40287
49738,40396
49817,40492
49913,40571
50022,40629
50082,40647
50141,40665
50172,40668
50234,40675
50295,40675
50357,40668
50388,40665
50447,40647
50507,40629
50616,40571
50712,40492
50791,40396
50849,40287
50885,40168
50897,40045
50885,39921
50849,39802
50791,39693
50712,39597
50616,39518
50507,39460
50447,39442
50388,39424
50357,39421
50295,39415
50234,39415
50172,39421
" /> 
<polyline style="fill-rule:evenodd;"
points="71635,40675
72894,40675
72894,39415
71635,39415
71635,40675
" /> 
<polyline style="fill-rule:evenodd;"
points="39295,38914
40634,38914
40634,37575
39295,37575
39295,38914
" /> 
<polyline style="fill-rule:evenodd;"
points="41833,37585
41707,37623
41591,37685
41489,37769
41405,37871
41343,37987
41305,38113
41292,38245
41305,38376
41343,38502
41405,38618
41489,38720
41591,38804
41707,38866
41833,38904
41932,38914
41997,38914
42096,38904
42222,38866
42338,38804
42440,38720
42524,38618
42586,38502
42624,38376
42637,38245
42624,38113
42586,37987
42524,37871
42440,37769
42338,37685
42222,37623
42096,37585
41997,37575
41932,37575
41833,37585
" /> 
<polyline style="fill-rule:evenodd;"
points="82450,37266
82378,37296
82314,37338
82314,37339
82259,37394
82259,37394
82216,37458
82186,37530
82171,37606
82171,37683
82186,37759
82216,37831
82259,37896
82314,37950
82314,37950
82378,37994
82450,38023
82526,38038
82603,38038
82679,38023
82751,37994
82815,37950
82815,37950
82870,37896
82913,37831
82943,37759
82958,37683
82958,37606
82943,37530
82913,37458
82870,37394
82870,37394
82815,37339
82815,37338
82751,37296
82679,37266
82603,37251
82526,37251
82450,37266
" /> 
<polyline style="fill-rule:evenodd;"
points="39833,35585
39707,35623
39591,35685
39489,35769
39405,35871
39343,35987
39305,36113
39292,36245
39305,36376
39343,36502
39405,36618
39489,36720
39591,36804
39707,36866
39833,36904
39932,36914
39997,36914
40096,36904
40222,36866
40338,36804
40440,36720
40524,36618
40586,36502
40624,36376
40637,36245
40624,36113
40586,35987
40524,35871
40440,35769
40338,35685
40222,35623
40096,35585
39997,35575
39932,35575
39833,35585
" /> 
<polyline style="fill-rule:evenodd;"
points="41833,35585
41707,35623
41591,35685
41489,35769
41405,35871
41343,35987
41305,36113
41292,36245
41305,36376
41343,36502
41405,36618
41489,36720
41591,36804
41707,36866
41833,36904
41932,36914
41997,36914
42096,36904
42222,36866
42338,36804
42440,36720
42524,36618
42586,36502
42624,36376
42637,36245
42624,36113
42586,35987
42524,35871
42440,35769
42338,35685
42222,35623
42096,35585
41997,35575
41932,35575
41833,35585
" /> 
<polyline style="fill-rule:evenodd;"
points="82450,35770
82378,35800
82314,35842
82314,35843
82259,35898
82216,35962
82186,36034
82171,36110
82171,36187
82186,36263
82216,36335
82259,36400
82314,36454
82314,36454
82378,36497
82450,36527
82526,36542
82603,36542
82679,36527
82751,36497
82815,36454
82815,36454
82870,36400
82913,36335
82943,36263
82958,36187
82958,36110
82943,36034
82913,35962
82870,35898
82815,35843
82815,35842
82751,35800
82679,35770
82603,35755
82526,35755
82450,35770
" /> 
<polyline style="fill-rule:evenodd;"
points="41833,33585
41707,33623
41591,33685
41489,33769
41405,33871
41343,33987
41305,34113
41292,34245
41305,34376
41343,34502
41405,34618
41489,34720
41591,34804
41707,34866
41833,34904
41932,34914
41997,34914
42096,34904
42222,34866
42338,34804
42440,34720
42524,34618
42586,34502
42624,34376
42637,34245
42624,34113
42586,33987
42524,33871
42440,33769
42338,33685
42222,33623
42096,33585
41997,33575
41932,33575
41833,33585
" /> 
<polyline style="fill-rule:evenodd;"
points="39833,33585
39707,33623
39591,33685
39489,33769
39405,33871
39343,33987
39305,34113
39292,34245
39305,34376
39343,34502
39405,34618
39489,34720
39591,34804
39707,34866
39833,34904
39932,34914
39997,34914
40096,34904
40222,34866
40338,34804
40440,34720
40524,34618
40586,34502
40624,34376
40637,34245
40624,34113
40586,33987
40524,33871
40440,33769
40338,33685
40222,33623
40096,33585
39997,33575
39932,33575
39833,33585
" /> 
<polyline style="fill-rule:evenodd;"
points="48172,33421
48141,33424
48082,33442
48022,33460
47913,33518
47817,33597
47738,33693
47680,33802
47644,33921
47632,34045
47644,34168
47680,34287
47738,34396
47817,34492
47913,34571
48022,34629
48082,34647
48141,34665
48172,34668
48234,34675
48295,34675
48357,34668
48388,34665
48447,34647
48507,34629
48616,34571
48712,34492
48791,34396
48849,34287
48885,34168
48897,34045
48885,33921
48849,33802
48791,33693
48712,33597
48616,33518
48507,33460
48447,33442
48388,33424
48357,33421
48295,33415
48234,33415
48172,33421
" /> 
<polyline style="fill-rule:evenodd;"
points="54172,33421
54141,33424
54082,33442
54022,33460
53913,33518
53817,33597
53738,33693
53680,33802
53644,33921
53632,34045
53644,34168
53680,34287
53738,34396
53817,34492
53913,34571
54022,34629
54082,34647
54141,34665
54172,34668
54234,34675
54295,34675
54357,34668
54388,34665
54447,34647
54507,34629
54616,34571
54712,34492
54791,34396
54849,34287
54885,34168
54897,34045
54885,33921
54849,33802
54791,33693
54712,33597
54616,33518
54507,33460
54447,33442
54388,33424
54357,33421
54295,33415
54234,33415
54172,33421
" /> 
<polyline style="fill-rule:evenodd;"
points="66172,33421
66141,33424
66082,33442
66022,33460
65913,33518
65817,33597
65738,33693
65680,33802
65644,33921
65632,34045
65644,34168
65680,34287
65738,34396
65817,34492
65913,34571
66022,34629
66082,34647
66141,34665
66172,34668
66234,34675
66295,34675
66357,34668
66388,34665
66447,34647
66507,34629
66616,34571
66712,34492
66791,34396
66849,34287
66885,34168
66897,34045
66885,33921
66849,33802
66791,33693
66712,33597
66616,33518
66507,33460
66447,33442
66388,33424
66357,33421
66295,33415
66234,33415
66172,33421
" /> 
<polyline style="fill-rule:evenodd;"
points="68172,33421
68141,33424
68082,33442
68022,33460
67913,33518
67817,33597
67738,33693
67680,33802
67644,33921
67632,34045
67644,34168
67680,34287
67738,34396
67817,34492
67913,34571
68022,34629
68082,34647
68141,34665
68172,34668
68234,34675
68295,34675
68357,34668
68388,34665
68447,34647
68507,34629
68616,34571
68712,34492
68791,34396
68849,34287
68885,34168
68897,34045
68885,33921
68849,33802
68791,33693
68712,33597
68616,33518
68507,33460
68447,33442
68388,33424
68357,33421
68295,33415
68234,33415
68172,33421
" /> 
<polyline style="fill-rule:evenodd;"
points="70172,33421
70141,33424
70082,33442
70022,33460
69913,33518
69817,33597
69738,33693
69680,33802
69644,33921
69632,34045
69644,34168
69680,34287
69738,34396
69817,34492
69913,34571
70022,34629
70082,34647
70141,34665
70172,34668
70234,34675
70295,34675
70357,34668
70388,34665
70447,34647
70507,34629
70616,34571
70712,34492
70791,34396
70849,34287
70885,34168
70897,34045
70885,33921
70849,33802
70791,33693
70712,33597
70616,33518
70507,33460
70447,33442
70388,33424
70357,33421
70295,33415
70234,33415
70172,33421
" /> 
<polyline style="fill-rule:evenodd;"
points="72172,33421
72141,33424
72082,33442
72022,33460
71913,33518
71817,33597
71738,33693
71680,33802
71644,33921
71632,34045
71644,34168
71680,34287
71738,34396
71817,34492
71913,34571
72022,34629
72082,34647
72141,34665
72172,34668
72234,34675
72295,34675
72357,34668
72388,34665
72447,34647
72507,34629
72616,34571
72712,34492
72791,34396
72849,34287
72885,34168
72897,34045
72885,33921
72849,33802
72791,33693
72712,33597
72616,33518
72507,33460
72447,33442
72388,33424
72357,33421
72295,33415
72234,33415
72172,33421
" /> 
<polyline style="fill-rule:evenodd;"
points="46172,33421
46141,33424
46082,33442
46022,33460
45913,33518
45817,33597
45738,33693
45680,33802
45644,33921
45632,34045
45644,34168
45680,34287
45738,34396
45817,34492
45913,34571
46022,34629
46082,34647
46141,34665
46172,34668
46234,34675
46295,34675
46357,34668
46388,34665
46447,34647
46507,34629
46616,34571
46712,34492
46791,34396
46849,34287
46885,34168
46897,34045
46885,33921
46849,33802
46791,33693
46712,33597
46616,33518
46507,33460
46447,33442
46388,33424
46357,33421
46295,33415
46234,33415
46172,33421
" /> 
<polyline style="fill-rule:evenodd;"
points="62172,33421
62141,33424
62082,33442
62022,33460
61913,33518
61817,33597
61738,33693
61680,33802
61644,33921
61632,34045
61644,34168
61680,34287
61738,34396
61817,34492
61913,34571
62022,34629
62082,34647
62141,34665
62172,34668
62234,34675
62295,34675
62357,34668
62388,34665
62447,34647
62507,34629
62616,34571
62712,34492
62791,34396
62849,34287
62885,34168
62897,34045
62885,33921
62849,33802
62791,33693
62712,33597
62616,33518
62507,33460
62447,33442
62388,33424
62357,33421
62295,33415
62234,33415
62172,33421
" /> 
<polyline style="fill-rule:evenodd;"
points="50172,33421
50141,33424
50082,33442
50022,33460
49913,33518
49817,33597
49738,33693
49680,33802
49644,33921
49632,34045
49644,34168
49680,34287
49738,34396
49817,34492
49913,34571
50022,34629
50082,34647
50141,34665
50172,34668
50234,34675
50295,34675
50357,34668
50388,34665
50447,34647
50507,34629
50616,34571
50712,34492
50791,34396
50849,34287
50885,34168
50897,34045
50885,33921
50849,33802
50791,33693
50712,33597
50616,33518
50507,33460
50447,33442
50388,33424
50357,33421
50295,33415
50234,33415
50172,33421
" /> 
<polyline style="fill-rule:evenodd;"
points="60172,33421
60141,33424
60082,33442
60022,33460
59913,33518
59817,33597
59738,33693
59680,33802
59644,33921
59632,34045
59644,34168
59680,34287
59738,34396
59817,34492
59913,34571
60022,34629
60082,34647
60141,34665
60172,34668
60234,34675
60295,34675
60357,34668
60388,34665
60447,34647
60507,34629
60616,34571
60712,34492
60791,34396
60849,34287
60885,34168
60897,34045
60885,33921
60849,33802
60791,33693
60712,33597
60616,33518
60507,33460
60447,33442
60388,33424
60357,33421
60295,33415
60234,33415
60172,33421
" /> 
<polyline style="fill-rule:evenodd;"
points="58172,33421
58141,33424
58082,33442
58022,33460
57913,33518
57817,33597
57738,33693
57680,33802
57644,33921
57632,34045
57644,34168
57680,34287
57738,34396
57817,34492
57913,34571
58022,34629
58082,34647
58141,34665
58172,34668
58234,34675
58295,34675
58357,34668
58388,34665
58447,34647
58507,34629
58616,34571
58712,34492
58791,34396
58849,34287
58885,34168
58897,34045
58885,33921
58849,33802
58791,33693
58712,33597
58616,33518
58507,33460
58447,33442
58388,33424
58357,33421
58295,33415
58234,33415
58172,33421
" /> 
<polyline style="fill-rule:evenodd;"
points="56172,33421
56141,33424
56082,33442
56022,33460
55913,33518
55817,33597
55738,33693
55680,33802
55644,33921
55632,34045
55644,34168
55680,34287
55738,34396
55817,34492
55913,34571
56022,34629
56082,34647
56141,34665
56172,34668
56234,34675
56295,34675
56357,34668
56388,34665
56447,34647
56507,34629
56616,34571
56712,34492
56791,34396
56849,34287
56885,34168
56897,34045
56885,33921
56849,33802
56791,33693
56712,33597
56616,33518
56507,33460
56447,33442
56388,33424
56357,33421
56295,33415
56234,33415
56172,33421
" /> 
<polyline style="fill-rule:evenodd;"
points="52172,33421
52141,33424
52082,33442
52022,33460
51913,33518
51817,33597
51738,33693
51680,33802
51644,33921
51632,34045
51644,34168
51680,34287
51738,34396
51817,34492
51913,34571
52022,34629
52082,34647
52141,34665
52172,34668
52234,34675
52295,34675
52357,34668
52388,34665
52447,34647
52507,34629
52616,34571
52712,34492
52791,34396
52849,34287
52885,34168
52897,34045
52885,33921
52849,33802
52791,33693
52712,33597
52616,33518
52507,33460
52447,33442
52388,33424
52357,33421
52295,33415
52234,33415
52172,33421
" /> 
<polyline style="fill-rule:evenodd;"
points="64172,33421
64141,33424
64082,33442
64022,33460
63913,33518
63817,33597
63738,33693
63680,33802
63644,33921
63632,34045
63644,34168
63680,34287
63738,34396
63817,34492
63913,34571
64022,34629
64082,34647
64141,34665
64172,34668
64234,34675
64295,34675
64357,34668
64388,34665
64447,34647
64507,34629
64616,34571
64712,34492
64791,34396
64849,34287
64885,34168
64897,34045
64885,33921
64849,33802
64791,33693
64712,33597
64616,33518
64507,33460
64447,33442
64388,33424
64357,33421
64295,33415
64234,33415
64172,33421
" /> 
<polyline style="fill-rule:evenodd;"
points="61644,30669
61553,30687
61410,30747
61281,30833
61171,30943
61085,31072
61025,31215
60995,31367
60995,31522
61025,31674
61085,31818
61171,31947
61281,32056
61410,32142
61553,32202
61644,32220
61705,32232
61860,32232
61921,32220
62012,32202
62156,32142
62285,32056
62394,31947
62480,31818
62540,31674
62570,31522
62570,31367
62540,31215
62480,31072
62394,30943
62285,30833
62156,30747
62012,30687
61921,30669
61860,30657
61705,30657
61644,30669
" /> 
<polyline style="fill-rule:evenodd;"
points="56526,30669
56435,30687
56292,30747
56163,30833
56053,30943
55967,31072
55907,31215
55877,31367
55877,31522
55907,31674
55967,31818
56053,31947
56163,32056
56292,32142
56435,32202
56526,32220
56587,32232
56742,32232
56803,32220
56894,32202
57037,32142
57166,32056
57276,31947
57362,31818
57422,31674
57452,31522
57452,31367
57422,31215
57362,31072
57276,30943
57166,30833
57037,30747
56894,30687
56803,30669
56742,30657
56587,30657
56526,30669
" /> 
<polyline style="fill-rule:evenodd;"
points="72198,31911
73931,31911
73931,30178
72198,30178
72198,31911
" /> 
<polyline style="fill-rule:evenodd;"
points="64895,30191
64731,30241
64731,30241
64581,30321
64449,30429
64341,30561
64273,30687
64260,30712
64211,30875
64194,31045
64211,31214
64257,31367
64260,31378
64341,31528
64449,31660
64581,31768
64731,31849
64731,31849
64895,31898
65022,31911
65107,31911
65234,31898
65398,31849
65398,31849
65548,31768
65680,31660
65788,31528
65869,31378
65872,31367
65918,31214
65935,31045
65918,30875
65869,30712
65856,30687
65788,30561
65680,30429
65548,30321
65398,30241
65398,30241
65234,30191
65107,30178
65022,30178
64895,30191
" /> 
<polyline style="fill-rule:evenodd;"
points="56526,27126
56435,27144
56292,27204
56163,27290
56053,27399
55967,27528
55907,27672
55877,27824
55877,27979
55907,28131
55967,28274
56053,28403
56163,28513
56292,28599
56435,28658
56526,28677
56587,28689
56742,28689
56803,28677
56894,28658
57037,28599
57166,28513
57276,28403
57362,28274
57422,28131
57452,27979
57452,27824
57422,27672
57362,27528
57276,27399
57166,27290
57037,27204
56894,27144
56803,27126
56742,27114
56587,27114
56526,27126
" /> 
<polyline style="fill-rule:evenodd;"
points="61644,27126
61553,27144
61410,27204
61281,27290
61171,27399
61085,27528
61025,27672
60995,27824
60995,27979
61025,28131
61085,28274
61171,28403
61281,28513
61410,28599
61553,28658
61644,28677
61705,28689
61860,28689
61921,28677
62012,28658
62156,28599
62285,28513
62394,28403
62480,28274
62540,28131
62570,27979
62570,27824
62540,27672
62480,27528
62394,27399
62285,27290
62156,27204
62012,27144
61921,27126
61860,27114
61705,27114
61644,27126
" /> 
<polyline style="fill-rule:evenodd;"
points="89595,26031
89469,26069
89352,26131
89251,26215
89167,26316
89105,26433
89066,26559
89054,26690
89066,26821
89105,26947
89167,27064
89251,27166
89352,27249
89469,27311
89595,27350
89693,27359
89956,27359
90054,27350
90180,27311
90297,27249
90398,27166
90482,27064
90544,26947
90583,26821
90595,26690
90583,26559
90544,26433
90482,26316
90398,26215
90297,26131
90180,26069
90054,26031
89956,26021
89693,26021
89595,26031
" /> 
<polyline style="fill-rule:evenodd;"
points="89595,24062
89469,24100
89352,24162
89251,24246
89167,24348
89105,24464
89066,24590
89054,24722
89066,24853
89105,24979
89167,25095
89251,25197
89352,25281
89469,25343
89595,25381
89693,25391
89956,25391
90054,25381
90180,25343
90297,25281
90398,25197
90482,25095
90544,24979
90583,24853
90595,24722
90583,24590
90544,24464
90482,24348
90398,24246
90297,24162
90180,24100
90054,24062
89956,24052
89693,24052
89595,24062
" /> 
<polyline style="fill-rule:evenodd;"
points="66087,25147
68842,25147
68842,22391
66087,22391
66087,25147
" /> 
<polyline style="fill-rule:evenodd;"
points="75015,23685
74889,23723
74773,23785
74671,23869
74587,23971
74525,24087
74487,24213
74474,24345
74487,24476
74525,24602
74587,24718
74671,24820
74773,24904
74889,24966
75015,25004
75114,25014
75415,25014
75514,25004
75640,24966
75756,24904
75858,24820
75942,24718
76004,24602
76042,24476
76055,24345
76042,24213
76004,24087
75942,23971
75858,23869
75756,23785
75640,23723
75514,23685
75415,23675
75114,23675
75015,23685
" /> 
<polyline style="fill-rule:evenodd;"
points="82377,24895
83952,24895
83952,23395
82377,23395
82377,24895
" /> 
<polyline style="fill-rule:evenodd;"
points="89595,22094
89469,22132
89352,22194
89251,22278
89167,22379
89105,22496
89066,22622
89054,22753
89066,22884
89105,23010
89167,23127
89251,23229
89352,23312
89469,23374
89595,23413
89693,23422
89956,23422
90054,23413
90180,23374
90297,23312
90398,23229
90482,23127
90544,23010
90583,22884
90595,22753
90583,22622
90544,22496
90482,22379
90398,22278
90297,22194
90180,22132
90054,22094
89956,22084
89693,22084
89595,22094
" /> 
<polyline style="fill-rule:evenodd;"
points="74580,21710
74556,21717
74534,21729
74515,21744
74499,21764
74487,21786
74480,21809
74477,21839
74477,22913
74480,22943
74487,22967
74499,22989
74515,23008
74534,23024
74556,23035
74580,23042
74609,23045
75920,23045
75949,23042
75973,23035
75995,23024
76014,23008
76030,22989
76042,22967
76049,22943
76052,22913
76052,21839
76049,21809
76042,21786
76030,21764
76014,21744
75995,21729
75973,21717
75949,21710
75920,21707
74609,21707
74580,21710
" /> 
<polyline style="fill-rule:evenodd;"
points="82980,21405
82839,21448
82708,21518
82594,21612
82500,21726
82431,21856
82388,21998
82373,22145
82388,22292
82431,22433
82500,22563
82594,22678
82708,22771
82839,22841
82980,22884
83090,22895
83239,22895
83349,22884
83490,22841
83621,22771
83735,22678
83829,22563
83898,22433
83941,22292
83956,22145
83941,21998
83898,21856
83829,21726
83735,21612
83621,21518
83490,21448
83349,21405
83239,21395
83090,21395
82980,21405
" /> 
<polyline style="fill-rule:evenodd;"
points="70302,20042
70182,20078
70072,20137
69975,20217
69896,20313
69836,20424
69800,20544
69787,20673
69787,22140
69800,22270
69836,22390
69896,22500
69975,22597
70072,22677
70182,22736
70302,22772
70432,22785
71899,22785
72028,22772
72148,22736
72259,22677
72356,22597
72435,22500
72494,22390
72530,22270
72543,22140
72543,20673
72530,20544
72494,20424
72435,20313
72356,20217
72259,20137
72148,20078
72028,20042
71899,20029
70432,20029
70302,20042
" /> 
<polyline style="fill-rule:evenodd;"
points="89159,20118
89136,20125
89114,20137
89094,20153
89079,20172
89067,20194
89060,20218
89057,20248
89057,21322
89060,21351
89067,21375
89079,21397
89094,21416
89114,21432
89136,21444
89159,21451
89189,21454
90460,21454
90490,21451
90513,21444
90535,21432
90555,21416
90570,21397
90582,21375
90589,21351
90592,21322
90592,20248
90589,20218
90582,20194
90570,20172
90555,20153
90535,20137
90513,20125
90490,20118
90460,20115
89189,20115
89159,20118
" /> 
<polyline style="fill-rule:evenodd;"
points="82980,19405
82839,19448
82708,19518
82594,19612
82500,19726
82431,19856
82388,19998
82373,20145
82388,20292
82431,20433
82500,20563
82594,20678
82708,20771
82839,20841
82980,20884
83090,20895
83239,20895
83349,20884
83490,20841
83621,20771
83735,20678
83829,20563
83898,20433
83941,20292
83956,20145
83941,19998
83898,19856
83829,19726
83735,19612
83621,19518
83490,19448
83349,19405
83239,19395
83090,19395
82980,19405
" /> 
<polyline style="fill-rule:evenodd;"
points="66522,17874
66421,17905
66327,17955
66245,18022
66178,18104
66128,18198
66097,18299
66087,18410
66087,19680
66097,19790
66128,19891
66178,19985
66245,20067
66327,20134
66421,20184
66522,20215
66633,20226
68296,20226
68407,20215
68508,20184
68602,20134
68684,20067
68751,19985
68801,19891
68832,19790
68842,19680
68842,18410
68832,18299
68801,18198
68751,18104
68684,18022
68602,17955
68508,17905
68407,17874
68296,17864
66633,17864
66522,17874
" /> 
<polyline style="fill-rule:evenodd;"
points="42908,17513
42817,17531
42673,17590
42544,17676
42435,17786
42349,17915
42289,18058
42280,18104
42259,18210
42259,18365
42271,18426
42289,18518
42349,18661
42435,18790
42544,18900
42673,18986
42817,19045
42908,19063
42969,19075
43124,19075
43185,19063
43276,19045
43419,18986
43548,18900
43658,18790
43744,18661
43804,18518
43822,18426
43834,18365
43834,18210
43813,18104
43804,18058
43744,17915
43658,17786
43548,17676
43419,17590
43276,17531
43185,17513
43124,17501
42969,17501
42908,17513
" /> 
<polyline style="fill-rule:evenodd;"
points="48026,17513
47935,17531
47792,17590
47663,17676
47553,17786
47467,17915
47407,18058
47398,18104
47377,18210
47377,18365
47389,18426
47407,18518
47467,18661
47553,18790
47663,18900
47792,18986
47935,19045
48026,19063
48087,19075
48242,19075
48303,19063
48394,19045
48537,18986
48666,18900
48776,18790
48862,18661
48922,18518
48940,18426
48952,18365
48952,18210
48931,18104
48922,18058
48862,17915
48776,17786
48666,17676
48537,17590
48394,17531
48303,17513
48242,17501
48087,17501
48026,17513
" /> 
<polyline style="fill-rule:evenodd;"
points="42908,13969
42817,13987
42673,14047
42544,14133
42435,14243
42349,14372
42289,14515
42259,14667
42259,14822
42289,14974
42349,15118
42435,15247
42544,15356
42673,15442
42817,15502
42908,15520
42969,15532
43124,15532
43185,15520
43276,15502
43419,15442
43548,15356
43658,15247
43744,15118
43804,14974
43834,14822
43834,14667
43804,14515
43744,14372
43658,14243
43548,14133
43419,14047
43276,13987
43185,13969
43124,13957
42969,13957
42908,13969
" /> 
<polyline style="fill-rule:evenodd;"
points="48026,13969
47935,13987
47792,14047
47663,14133
47553,14243
47467,14372
47407,14515
47377,14667
47377,14822
47407,14974
47467,15118
47553,15247
47663,15356
47792,15442
47935,15502
48026,15520
48087,15532
48242,15532
48303,15520
48394,15502
48537,15442
48666,15356
48776,15247
48862,15118
48922,14974
48952,14822
48952,14667
48922,14515
48862,14372
48776,14243
48666,14133
48537,14047
48394,13987
48303,13969
48242,13957
48087,13957
48026,13969
" /> 
</g> 
</svg>
