<?xml version="1.0" standalone="no"?>
 <!DOCTYPE svg PUBLIC "-//W3C//DTD SVG 1.1//EN" 
 "http://www.w3.org/Graphics/SVG/1.1/DTD/svg11.dtd"> 
<svg xmlns="http://www.w3.org/2000/svg" version="1.1" 
    width="29.7002cm" height="21.0007cm" viewBox="0 0 116930 82680 ">
<title>SVG Picture created as ThermocoupleLogger-B_SilkS.svg date 2019/03/15 21:34:39 </title>
  <desc>Picture generated by PCBNEW </desc>
<g style="fill:#000000; fill-opacity:1;stroke:#000000; stroke-opacity:1;
stroke-linecap:round; stroke-linejoin:round; "
 transform="translate(0 0) scale(1 1)">
</g>
<g style="fill:#000000; fill-opacity:0.0; 
stroke:#000000; stroke-width:-0.000787402; stroke-opacity:1; 
stroke-linecap:round; stroke-linejoin:round;">
</g>
<g style="fill:#000000; fill-opacity:0.0; 
stroke:#000000; stroke-width:78.7402; stroke-opacity:1; 
stroke-linecap:round; stroke-linejoin:round;">
<path d="M23465 12845
L23465 73345
" />
<path d="M93465 68963
L93465 68963
" />
<path d="M93465 12845
L23465 12845
" />
<path d="M93465 73345
L23465 73345
" />
<path d="M93465 12845
L93465 73345
" />
<path d="M93465 13845
L93465 13845
" />
</g>
<g style="fill:#000000; fill-opacity:0.0; 
stroke:#000000; stroke-width:94.4882; stroke-opacity:1; 
stroke-linecap:round; stroke-linejoin:round;">
<path d="M93031 56282
L88542 56282
" />
<path d="M93031 56282
L93031 61007
" />
<path d="M93031 61007
L88542 61007
" />
<path d="M88543 61007.3 A629.921 629.921 0.0 0 0 87951 61421.8 " />
<path d="M70278.6 58609.5 A9051.78 9051.78 0.0 0 0 87952.4 61401 " />
<path d="M87951 55868.4 A629.921 629.921 0.0 0 0 88543 56282.9 " />
<path d="M87952.4 55889.2 A9051.78 9051.78 0.0 0 0 70278.6 58680.8 " />
</g>
<g style="fill:#000000; fill-opacity:0.0; 
stroke:#000000; stroke-width:118.11; stroke-opacity:1; 
stroke-linecap:round; stroke-linejoin:round;">
<path d="M90680 61974
L90792 62012
L90830 62049
L90867 62124
L90867 62237
L90830 62312
L90792 62349
L90717 62387
L90417 62387
L90417 61599
L90680 61599
L90755 61637
L90792 61674
L90830 61749
L90830 61824
L90792 61899
L90755 61937
L90680 61974
L90417 61974
" />
<path d="M91092 61599
L91542 61599
" />
<path d="M91317 62387
L91317 61599
" />
<path d="M91767 61674
L91805 61637
L91880 61599
L92067 61599
L92142 61637
L92179 61674
L92217 61749
L92217 61824
L92179 61937
L91730 62387
L92217 62387
" />
<path d="M88683 58729
L89583 58729
" />
<path d="M89133 59179
L89133 58279
" />
</g> 
</svg>
