<?xml version="1.0" standalone="no"?>
 <!DOCTYPE svg PUBLIC "-//W3C//DTD SVG 1.1//EN" 
 "http://www.w3.org/Graphics/SVG/1.1/DTD/svg11.dtd"> 
<svg xmlns="http://www.w3.org/2000/svg" version="1.1" 
    width="29.7002cm" height="21.0007cm" viewBox="0 0 116930 82680 ">
<title>SVG Picture created as ThermocoupleLogger-F_SilkS.svg date 2019/03/15 17:47:59 </title>
  <desc>Picture generated by PCBNEW </desc>
<g style="fill:#000000; fill-opacity:1;stroke:#000000; stroke-opacity:1;
stroke-linecap:round; stroke-linejoin:round; "
 transform="translate(0 0) scale(1 1)">
</g>
<g style="fill:#000000; fill-opacity:0.0; 
stroke:#000000; stroke-width:-0.000787402; stroke-opacity:1; 
stroke-linecap:round; stroke-linejoin:round;">
</g>
<g style="fill:#000000; fill-opacity:0.0; 
stroke:#000000; stroke-width:78.7402; stroke-opacity:1; 
stroke-linecap:round; stroke-linejoin:round;">
<path d="M93465 12845
L93465 73345
" />
<path d="M23465 68963
L23465 68963
" />
<path d="M23465 12845
L93465 12845
" />
</g>
<g style="fill:#000000; fill-opacity:0.0; 
stroke:#000000; stroke-width:196.85; stroke-opacity:1; 
stroke-linecap:round; stroke-linejoin:round;">
<path d="M25108 30523
L25146 30452
L25146 30302
L25108 30223
L25033 30138
L24958 30092
L24808 30073
L24733 30101
L24658 30167
L24621 30237
L24621 30387
L24658 30467
" />
<path d="M25408 30410
L25371 30218
L25258 30017
L25071 29881
L24883 29820
L24696 29834
L24508 29923
L24396 30096
L24358 30279
L24396 30471
L24508 30673
L24696 30809
L24883 30870
L25071 30856
L25258 30766
L25371 30593
L25408 30410
" />
<path d="M25221 31212
L25258 31254
L25296 31334
L25296 31521
L25258 31591
L25221 31624
L25146 31652
L25071 31643
L24958 31591
L24508 31085
L24508 31573
" />
<path d="M25296 32158
L25296 32233
L25258 32304
L25221 32337
L25146 32365
L24996 32383
L24808 32360
L24658 32304
L24583 32257
L24546 32215
L24508 32135
L24508 32060
L24546 31990
L24583 31957
L24658 31929
L24808 31910
L24996 31934
L25146 31990
L25221 32037
L25258 32079
L25296 32158
" />
<path d="M24508 33072
L24508 32622
" />
<path d="M24508 32847
L25296 32946
L25183 32857
L25108 32772
L25071 32693
" />
<path d="M25296 33433
L25296 33958
L24508 33522
" />
<path d="M24546 34202
L24508 34197
L24433 34150
L24396 34108
" />
<path d="M25296 35458
L24733 35388
L24621 35336
L24546 35252
L24508 35135
L24508 35060
" />
<path d="M24508 35735
L25296 35833
L25296 36133
L25258 36203
L25221 36236
L25146 36264
L25033 36250
L24958 36203
L24921 36161
L24883 36081
L24883 35781
" />
<path d="M24921 37173
L24921 37436
" />
<path d="M24508 37497
L24508 37122
L25296 37220
L25296 37595
" />
<path d="M25033 37900
L24508 37834
" />
<path d="M24958 37891
L24996 37933
L25033 38012
L25033 38125
L24996 38195
L24921 38223
L24508 38172
" />
<path d="M25033 38500
L25033 38800
" />
<path d="M25296 38645
L24621 38561
L24546 38589
L24508 38659
L24508 38734
" />
<path d="M24546 39301
L24508 39222
L24508 39072
L24546 39001
L24621 38973
L24921 39011
L24996 39058
L25033 39137
L25033 39287
L24996 39358
L24921 39386
L24846 39376
L24771 38992
" />
<path d="M24508 39672
L25033 39737
" />
<path d="M24883 39718
L24958 39765
L24996 39808
L25033 39887
L25033 39962
" />
<path d="M25033 40225
L24246 40126
" />
<path d="M24996 40220
L25033 40300
L25033 40450
L24996 40520
L24958 40553
L24883 40581
L24658 40553
L24583 40506
L24546 40464
L24508 40384
L24508 40234
L24546 40164
" />
<path d="M24508 40871
L25033 40937
" />
<path d="M24883 40918
L24958 40965
L24996 41007
L25033 41087
L25033 41162
" />
<path d="M24508 41359
L25033 41425
" />
<path d="M25296 41457
L25258 41415
L25221 41448
L25258 41490
L25296 41457
L25221 41448
" />
<path d="M24546 41701
L24508 41771
L24508 41921
L24546 42001
L24621 42048
L24658 42053
L24733 42024
L24771 41954
L24771 41842
L24808 41771
L24883 41743
L24921 41748
L24996 41795
L25033 41874
L25033 41987
L24996 42057
" />
<path d="M24546 42676
L24508 42596
L24508 42446
L24546 42376
L24621 42348
L24921 42385
L24996 42432
L25033 42512
L25033 42662
L24996 42732
L24921 42760
L24846 42751
L24771 42367
" />
<path d="M24546 43013
L24508 43084
L24508 43234
L24546 43313
L24621 43360
L24658 43365
L24733 43337
L24771 43266
L24771 43154
L24808 43084
L24883 43056
L24921 43060
L24996 43107
L25033 43187
L25033 43299
L24996 43370
" />
</g>
<g style="fill:#000000; fill-opacity:0.0; 
stroke:#000000; stroke-width:236.22; stroke-opacity:1; 
stroke-linecap:round; stroke-linejoin:round;">
<path d="M69115 14429
L70014 14429
" />
<path d="M73915 14429
L74814 14429
" />
<path d="M74365 14879
L74365 13979
" />
</g>
<g style="fill:#000000; fill-opacity:0.0; 
stroke:#000000; stroke-width:118.11; stroke-opacity:1; 
stroke-linecap:round; stroke-linejoin:round;">
<path d="M70290 20801
L70027 20426
" />
<path d="M69840 20801
L69840 20013
L70140 20013
L70215 20051
L70252 20088
L70290 20163
L70290 20276
L70252 20351
L70215 20388
L70140 20426
L69840 20426
" />
<path d="M70927 20763
L70852 20801
L70702 20801
L70627 20763
L70590 20688
L70590 20388
L70627 20313
L70702 20276
L70852 20276
L70927 20313
L70965 20388
L70965 20463
L70590 20538
" />
<path d="M71265 20763
L71339 20801
L71489 20801
L71564 20763
L71602 20688
L71602 20651
L71564 20576
L71489 20538
L71377 20538
L71302 20501
L71265 20426
L71265 20388
L71302 20313
L71377 20276
L71489 20276
L71564 20313
" />
<path d="M72239 20763
L72164 20801
L72014 20801
L71939 20763
L71902 20688
L71902 20388
L71939 20313
L72014 20276
L72164 20276
L72239 20313
L72277 20388
L72277 20463
L71902 20538
" />
<path d="M72502 20276
L72802 20276
" />
<path d="M72614 20013
L72614 20688
L72652 20763
L72727 20801
L72802 20801
" />
</g>
<g style="fill:#000000; fill-opacity:0.0; 
stroke:#000000; stroke-width:236.22; stroke-opacity:1; 
stroke-linecap:round; stroke-linejoin:round;">
<path d="M91124 68018
L91068 68130
L91011 68187
L90899 68243
L90843 68243
L90730 68187
L90674 68130
L90618 68018
L90618 67793
L90674 67680
L90730 67624
L90843 67568
L90899 67568
L91011 67624
L91068 67680
L91124 67793
L91124 68018
L91180 68130
L91236 68187
L91349 68243
L91574 68243
L91686 68187
L91743 68130
L91799 68018
L91799 67793
L91743 67680
L91686 67624
L91574 67568
L91349 67568
L91236 67624
L91180 67680
L91124 67793
" />
<path d="M91349 67062
L91349 66162
" />
<path d="M91686 64924
L91743 64981
L91799 65149
L91799 65262
L91743 65431
L91630 65543
L91518 65599
L91293 65656
L91124 65656
L90899 65599
L90786 65543
L90674 65431
L90618 65262
L90618 65149
L90674 64981
L90730 64924
" />
<path d="M91799 64418
L90618 64418
" />
<path d="M91799 63912
L91180 63912
L91068 63968
L91011 64081
L91011 64250
L91068 64362
L91124 64418
" />
<path d="M91799 62843
L91180 62843
L91068 62900
L91011 63012
L91011 63237
L91068 63350
" />
<path d="M91743 62843
L91799 62956
L91799 63237
L91743 63350
L91630 63406
L91518 63406
L91405 63350
L91349 63237
L91349 62956
L91293 62843
" />
<path d="M91011 62281
L91799 62281
" />
<path d="M91124 62281
L91068 62225
L91011 62112
L91011 61944
L91068 61831
L91180 61775
L91799 61775
" />
<path d="M91011 61212
L91799 61212
" />
<path d="M91124 61212
L91068 61156
L91011 61044
L91011 60875
L91068 60763
L91180 60706
L91799 60706
" />
<path d="M91743 59694
L91799 59806
L91799 60031
L91743 60144
L91630 60200
L91180 60200
L91068 60144
L91011 60031
L91011 59806
L91068 59694
L91180 59638
L91293 59638
L91405 60200
" />
<path d="M91799 58963
L91743 59075
L91630 59131
L90618 59131
" />
<path d="M90618 57782
L90618 57107
" />
<path d="M91799 57444
L90618 57444
" />
<path d="M91799 56713
L90618 56713
" />
<path d="M91799 56207
L91180 56207
L91068 56263
L91011 56376
L91011 56544
L91068 56657
L91124 56713
" />
<path d="M91743 55194
L91799 55307
L91799 55532
L91743 55644
L91630 55701
L91180 55701
L91068 55644
L91011 55532
L91011 55307
L91068 55194
L91180 55138
L91293 55138
L91405 55701
" />
<path d="M91799 54632
L91011 54632
" />
<path d="M91236 54632
L91124 54576
L91068 54520
L91011 54407
L91011 54295
" />
<path d="M91799 53901
L91011 53901
" />
<path d="M91124 53901
L91068 53845
L91011 53732
L91011 53563
L91068 53451
L91180 53395
L91799 53395
" />
<path d="M91180 53395
L91068 53338
L91011 53226
L91011 53057
L91068 52945
L91180 52888
L91799 52888
" />
<path d="M91799 52157
L91743 52270
L91686 52326
L91574 52382
L91236 52382
L91124 52326
L91068 52270
L91011 52157
L91011 51989
L91068 51876
L91124 51820
L91236 51764
L91574 51764
L91686 51820
L91743 51876
L91799 51989
L91799 52157
" />
<path d="M91743 50751
L91799 50864
L91799 51089
L91743 51201
L91686 51257
L91574 51314
L91236 51314
L91124 51257
L91068 51201
L91011 51089
L91011 50864
L91068 50751
" />
<path d="M91799 50076
L91743 50189
L91686 50245
L91574 50301
L91236 50301
L91124 50245
L91068 50189
L91011 50076
L91011 49908
L91068 49795
L91124 49739
L91236 49683
L91574 49683
L91686 49739
L91743 49795
L91799 49908
L91799 50076
" />
<path d="M91011 48670
L91799 48670
" />
<path d="M91011 49176
L91630 49176
L91743 49120
L91799 49008
L91799 48839
L91743 48727
L91686 48670
" />
<path d="M91011 48108
L92193 48108
" />
<path d="M91068 48108
L91011 47995
L91011 47770
L91068 47658
L91124 47602
L91236 47545
L91574 47545
L91686 47602
L91743 47658
L91799 47770
L91799 47995
L91743 48108
" />
<path d="M91799 46870
L91743 46983
L91630 47039
L90618 47039
" />
<path d="M91743 45971
L91799 46083
L91799 46308
L91743 46421
L91630 46477
L91180 46477
L91068 46421
L91011 46308
L91011 46083
L91068 45971
L91180 45914
L91293 45914
L91405 46477
" />
<path d="M91799 44340
L91743 44452
L91630 44508
L90618 44508
" />
<path d="M91799 43721
L91743 43833
L91686 43890
L91574 43946
L91236 43946
L91124 43890
L91068 43833
L91011 43721
L91011 43552
L91068 43440
L91124 43383
L91236 43327
L91574 43327
L91686 43383
L91743 43440
L91799 43552
L91799 43721
" />
<path d="M91011 42315
L91968 42315
L92080 42371
L92136 42427
L92193 42540
L92193 42709
L92136 42821
" />
<path d="M91743 42315
L91799 42427
L91799 42652
L91743 42765
L91686 42821
L91574 42877
L91236 42877
L91124 42821
L91068 42765
L91011 42652
L91011 42427
L91068 42315
" />
<path d="M91011 41246
L91968 41246
L92080 41302
L92136 41359
L92193 41471
L92193 41640
L92136 41752
" />
<path d="M91743 41246
L91799 41359
L91799 41584
L91743 41696
L91686 41752
L91574 41809
L91236 41809
L91124 41752
L91068 41696
L91011 41584
L91011 41359
L91068 41246
" />
<path d="M91743 40234
L91799 40346
L91799 40571
L91743 40684
L91630 40740
L91180 40740
L91068 40684
L91011 40571
L91011 40346
L91068 40234
L91180 40178
L91293 40178
L91405 40740
" />
<path d="M91799 39671
L91011 39671
" />
<path d="M91236 39671
L91124 39615
L91068 39559
L91011 39446
L91011 39334
" />
</g>
<g style="fill:#000000; fill-opacity:0.0; 
stroke:#000000; stroke-width:78.7402; stroke-opacity:1; 
stroke-linecap:round; stroke-linejoin:round;">
<path d="M23465 73345
L93465 73345
" />
<path d="M23465 12845
L23465 73345
" />
<path d="M23465 13845
L23465 13845
" />
</g>
<g style="fill:#000000; fill-opacity:0.0; 
stroke:#000000; stroke-width:118.11; stroke-opacity:1; 
stroke-linecap:round; stroke-linejoin:round;">
<path d="M29933 52201
L29933 51413
L30121 51413
L30233 51451
L30308 51526
L30346 51601
L30383 51751
L30383 51863
L30346 52013
L30308 52088
L30233 52163
L30121 52201
L29933 52201
" />
<path d="M30721 52201
L30721 51676
" />
<path d="M30721 51413
L30683 51451
L30721 51488
L30758 51451
L30721 51413
L30721 51488
" />
<path d="M31058 52163
L31133 52201
L31283 52201
L31358 52163
L31396 52088
L31396 52051
L31358 51976
L31283 51938
L31171 51938
L31096 51901
L31058 51826
L31058 51788
L31096 51713
L31171 51676
L31283 51676
L31358 51713
" />
<path d="M31733 51676
L31733 52463
" />
<path d="M31733 51713
L31808 51676
L31958 51676
L32033 51713
L32071 51751
L32108 51826
L32108 52051
L32071 52126
L32033 52163
L31958 52201
L31808 52201
L31733 52163
" />
<path d="M32558 52201
L32483 52163
L32446 52088
L32446 51413
" />
<path d="M33196 52201
L33196 51788
L33158 51713
L33083 51676
L32933 51676
L32858 51713
" />
<path d="M33196 52163
L33121 52201
L32933 52201
L32858 52163
L32821 52088
L32821 52013
L32858 51938
L32933 51901
L33121 51901
L33196 51863
" />
<path d="M33496 51676
L33683 52201
" />
<path d="M33870 51676
L33683 52201
L33608 52388
L33571 52426
L33496 52463
" />
<path d="M35657 36445
L36287 35815
" />
<path d="M36287 35815
L42272 35815
" />
<path d="M42272 35815
L42272 40075
" />
<path d="M42272 40075
L35657 40075
" />
<path d="M35657 40075
L35657 36445
" />
<path d="M66218 13978
L60431 13978
" />
<path d="M60431 13978
L59368 13939
" />
<path d="M59368 13939
L58462 13821
" />
<path d="M58462 13821
L57596 13664
" />
<path d="M57596 13664
L56769 13427
" />
<path d="M58226 24451
L58226 25475
" />
<path d="M66218 17994
L66218 23664
" />
<path d="M66218 15790
L66218 13978
" />
<path d="M56769 13427
L54643 13427
" />
<path d="M54643 13427
L54643 15790
" />
<path d="M54643 23664
L54643 17994
" />
<path d="M58580 23978
L58816 23978
" />
<path d="M58816 23978
L58816 23742
" />
<path d="M58816 23742
L58580 23742
" />
<path d="M58580 23742
L58580 23978
" />
<path d="M58226 24451
L55864 24451
" />
</g>
<g style="fill:#000000; fill-opacity:0.0; 
stroke:#000000; stroke-width:94.4882; stroke-opacity:1; 
stroke-linecap:round; stroke-linejoin:round;">
<path d="M53087 24478
L51039 24478
" />
<path d="M53087 12903
L53087 24478
" />
<path d="M45842 24478
L45842 22982
" />
<path d="M47968 24478
L45842 24478
" />
<path d="M45842 12903
L53087 12903
" />
<path d="M45842 19832
L45842 12903
" />
<path d="M53244 23808
L53244 24635
" />
<path d="M52417 24635
L53244 24635
" />
<path d="M28304 41119
L28304 40466
" />
<path d="M28304 43214
L28304 41970
" />
<path d="M30824 40718
L30824 40466
" />
<path d="M30824 43214
L30824 42371
" />
<path d="M26320 43214
L26320 40466
" />
<path d="M32809 43214
L32809 40466
" />
<path d="M32809 40466
L26320 40466
" />
<path d="M32809 43214
L26320 43214
" />
<path d="M76878 55192
L78177 55192
" />
<path d="M76878 41097
L76878 55192
" />
<path d="M81051 41097
L76878 41097
" />
<path d="M81051 55192
L81051 41097
" />
<path d="M79752 55192
L81051 55192
" />
<path d="M79752.4 55192.4 A787.402 787.402 0.0 0 0 78177.6 55192.4 " />
<path d="M46337 29887
L46337 32202
" />
<path d="M46526 29887
L46526 32202
" />
<path d="M46431 29887
L46431 32202
" />
<path d="M50809 31045
L50006 31045
" />
<path d="M44920 31045
L45723 31045
" />
<path d="M50006 29887
L45723 29887
" />
<path d="M50006 32202
L50006 29887
" />
<path d="M45723 32202
L50006 32202
" />
<path d="M45723 29887
L45723 32202
" />
<path d="M54950 29082
L54950 30264
" />
<path d="M55934 32232
L59477 32232
" />
<path d="M60461 30264
L60461 29082
" />
<path d="M59477 27114
L55934 27114
" />
<path d="M68568 15926
L68568 17107
" />
<path d="M69552 19075
L73095 19075
" />
<path d="M74079 17107
L74079 15926
" />
<path d="M73095 13957
L69552 13957
" />
<path d="M78012 39292
L76965 39292
" />
<path d="M78012 38245
L78012 39292
" />
<path d="M75965 39292
L73917 39292
" />
<path d="M75965 37245
L75965 39292
" />
<path d="M78012 37245
L75965 37245
" />
<path d="M73917 39292
L73917 33197
" />
<path d="M78012 37245
L78012 33197
" />
<path d="M78012 33197
L73917 33197
" />
<path d="M40609 49610
L40609 48626
" />
<path d="M39624 49610
L40609 49610
" />
<path d="M27105 45279
L33443 45279
" />
<path d="M27105 47602
L27105 45279
" />
<path d="M26514 47602
L27105 47602
" />
<path d="M39782 45279
L33443 45279
" />
<path d="M39782 47602
L39782 45279
" />
<path d="M40372 47602
L39782 47602
" />
<path d="M26514 49374
L27931 49374
" />
<path d="M26514 48783
L26514 49374
" />
<path d="M27931 48783
L26514 48783
" />
<path d="M27931 49374
L27931 48783
" />
<path d="M38955 49374
L40372 49374
" />
<path d="M38955 48783
L38955 49374
" />
<path d="M40372 48783
L38955 48783
" />
<path d="M40372 49374
L40372 48783
" />
<path d="M29113 49374
L37774 49374
" />
<path d="M29113 48783
L29113 49374
" />
<path d="M37774 48783
L29113 48783
" />
<path d="M37774 49374
L37774 48783
" />
<path d="M26506 49382
L40380 49382
" />
<path d="M26506 44681
L26506 49382
" />
<path d="M40380 44681
L26506 44681
" />
<path d="M40380 49382
L40380 44681
" />
<path d="M30879 33273
L30879 28541
" />
<path d="M36250 31501
L36250 28541
" />
<path d="M30879 28541
L31872 28541
" />
<path d="M36250 28541
L35257 28541
" />
<path d="M40937 27636
L40445 27636
" />
<path d="M40691 27390
L40691 27882
" />
<path d="M38029 28071
L37191 28910
" />
<path d="M40700 28071
L41538 28910
" />
<path d="M40700 28071
L40199 28071
" />
<path d="M38029 28071
L38530 28071
" />
<path d="M37191 28910
L37191 32418
" />
<path d="M41538 28910
L41538 32418
" />
<path d="M41538 32418
L40199 32418
" />
<path d="M37191 32418
L38530 32418
" />
<path d="M31190 20687
L32379 20687
" />
<path d="M31190 23601
L32379 23601
" />
<path d="M32379 26176
L32379 18113
" />
<path d="M31190 18113
L34844 18113
" />
<path d="M31190 26176
L34844 26176
" />
<path d="M34844 26176
L34844 18113
" />
<path d="M31190 26176
L31190 18113
" />
<path d="M40532 19434
L42446 19434
" />
<path d="M40516 19426
L40516 18638
" />
<path d="M40516 17024
L41973 17024
" />
<path d="M40516 17851
L40516 17024
" />
<path d="M35909 72510
L35909 71526
" />
<path d="M34924 72510
L35909 72510
" />
<path d="M30279 68179
L32680 68179
" />
<path d="M30279 70502
L30279 68179
" />
<path d="M29688 70502
L30279 70502
" />
<path d="M32680 68179
L34247 68179
" />
<path d="M35082 70502
L35082 69447
" />
<path d="M35672 70502
L35082 70502
" />
<path d="M29688 72274
L31105 72274
" />
<path d="M29688 71683
L29688 72274
" />
<path d="M31105 71683
L29688 71683
" />
<path d="M31105 72274
L31105 71683
" />
<path d="M34255 72274
L35672 72274
" />
<path d="M34255 71683
L34255 72274
" />
<path d="M35672 71683
L34255 71683
" />
<path d="M35672 72274
L35672 71683
" />
<path d="M32287 72274
L33074 72274
" />
<path d="M32287 71683
L32287 72274
" />
<path d="M33074 71683
L32287 71683
" />
<path d="M33074 72274
L33074 71683
" />
<path d="M29680 72282
L35680 72282
" />
<path d="M29680 67581
L29680 72282
" />
<path d="M35680 67581
L29680 67581
" />
<path d="M35680 72282
L35680 67581
" />
<path d="M42909 72510
L42909 71526
" />
<path d="M41924 72510
L42909 72510
" />
<path d="M37279 68179
L39680 68179
" />
<path d="M37279 70502
L37279 68179
" />
<path d="M36688 70502
L37279 70502
" />
<path d="M39680 68179
L41247 68179
" />
<path d="M42082 70502
L42082 69447
" />
<path d="M42672 70502
L42082 70502
" />
<path d="M36688 72274
L38105 72274
" />
<path d="M36688 71683
L36688 72274
" />
<path d="M38105 71683
L36688 71683
" />
<path d="M38105 72274
L38105 71683
" />
<path d="M41255 72274
L42672 72274
" />
<path d="M41255 71683
L41255 72274
" />
<path d="M42672 71683
L41255 71683
" />
<path d="M42672 72274
L42672 71683
" />
<path d="M39287 72274
L40074 72274
" />
<path d="M39287 71683
L39287 72274
" />
<path d="M40074 71683
L39287 71683
" />
<path d="M40074 72274
L40074 71683
" />
<path d="M36680 72282
L42680 72282
" />
<path d="M36680 67581
L36680 72282
" />
<path d="M42680 67581
L36680 67581
" />
<path d="M42680 72282
L42680 67581
" />
<path d="M49909 72510
L49909 71526
" />
<path d="M48924 72510
L49909 72510
" />
<path d="M44279 68179
L46680 68179
" />
<path d="M44279 70502
L44279 68179
" />
<path d="M43688 70502
L44279 70502
" />
<path d="M46680 68179
L48247 68179
" />
<path d="M49082 70502
L49082 69447
" />
<path d="M49672 70502
L49082 70502
" />
<path d="M43688 72274
L45105 72274
" />
<path d="M43688 71683
L43688 72274
" />
<path d="M45105 71683
L43688 71683
" />
<path d="M45105 72274
L45105 71683
" />
<path d="M48255 72274
L49672 72274
" />
<path d="M48255 71683
L48255 72274
" />
<path d="M49672 71683
L48255 71683
" />
<path d="M49672 72274
L49672 71683
" />
<path d="M46287 72274
L47074 72274
" />
<path d="M46287 71683
L46287 72274
" />
<path d="M47074 71683
L46287 71683
" />
<path d="M47074 72274
L47074 71683
" />
<path d="M43680 72282
L49680 72282
" />
<path d="M43680 67581
L43680 72282
" />
<path d="M49680 67581
L43680 67581
" />
<path d="M49680 72282
L49680 67581
" />
<path d="M56909 72510
L56909 71526
" />
<path d="M55924 72510
L56909 72510
" />
<path d="M51279 68179
L53680 68179
" />
<path d="M51279 70502
L51279 68179
" />
<path d="M50688 70502
L51279 70502
" />
<path d="M53680 68179
L55247 68179
" />
<path d="M56082 70502
L56082 69447
" />
<path d="M56672 70502
L56082 70502
" />
<path d="M50688 72274
L52105 72274
" />
<path d="M50688 71683
L50688 72274
" />
<path d="M52105 71683
L50688 71683
" />
<path d="M52105 72274
L52105 71683
" />
<path d="M55255 72274
L56672 72274
" />
<path d="M55255 71683
L55255 72274
" />
<path d="M56672 71683
L55255 71683
" />
<path d="M56672 72274
L56672 71683
" />
<path d="M53287 72274
L54074 72274
" />
<path d="M53287 71683
L53287 72274
" />
<path d="M54074 71683
L53287 71683
" />
<path d="M54074 72274
L54074 71683
" />
<path d="M50680 72282
L56680 72282
" />
<path d="M50680 67581
L50680 72282
" />
<path d="M56680 67581
L50680 67581
" />
<path d="M56680 72282
L56680 67581
" />
<path d="M63909 72510
L63909 71526
" />
<path d="M62924 72510
L63909 72510
" />
<path d="M58279 68179
L60680 68179
" />
<path d="M58279 70502
L58279 68179
" />
<path d="M57688 70502
L58279 70502
" />
<path d="M60680 68179
L62247 68179
" />
<path d="M63082 70502
L63082 69447
" />
<path d="M63672 70502
L63082 70502
" />
<path d="M57688 72274
L59105 72274
" />
<path d="M57688 71683
L57688 72274
" />
<path d="M59105 71683
L57688 71683
" />
<path d="M59105 72274
L59105 71683
" />
<path d="M62255 72274
L63672 72274
" />
<path d="M62255 71683
L62255 72274
" />
<path d="M63672 71683
L62255 71683
" />
<path d="M63672 72274
L63672 71683
" />
<path d="M60287 72274
L61074 72274
" />
<path d="M60287 71683
L60287 72274
" />
<path d="M61074 71683
L60287 71683
" />
<path d="M61074 72274
L61074 71683
" />
<path d="M57680 72282
L63680 72282
" />
<path d="M57680 67581
L57680 72282
" />
<path d="M63680 67581
L57680 67581
" />
<path d="M63680 72282
L63680 67581
" />
<path d="M70877 72510
L70877 71526
" />
<path d="M69893 72510
L70877 72510
" />
<path d="M65247 68179
L67649 68179
" />
<path d="M65247 70502
L65247 68179
" />
<path d="M64657 70502
L65247 70502
" />
<path d="M67649 68179
L69216 68179
" />
<path d="M70050 70502
L70050 69447
" />
<path d="M70641 70502
L70050 70502
" />
<path d="M64657 72274
L66074 72274
" />
<path d="M64657 71683
L64657 72274
" />
<path d="M66074 71683
L64657 71683
" />
<path d="M66074 72274
L66074 71683
" />
<path d="M69224 72274
L70641 72274
" />
<path d="M69224 71683
L69224 72274
" />
<path d="M70641 71683
L69224 71683
" />
<path d="M70641 72274
L70641 71683
" />
<path d="M67255 72274
L68042 72274
" />
<path d="M67255 71683
L67255 72274
" />
<path d="M68042 71683
L67255 71683
" />
<path d="M68042 72274
L68042 71683
" />
<path d="M64649 72282
L70649 72282
" />
<path d="M64649 67581
L64649 72282
" />
<path d="M70649 67581
L64649 67581
" />
<path d="M70649 72282
L70649 67581
" />
<path d="M77877 72510
L77877 71526
" />
<path d="M76893 72510
L77877 72510
" />
<path d="M72247 68179
L74649 68179
" />
<path d="M72247 70502
L72247 68179
" />
<path d="M71657 70502
L72247 70502
" />
<path d="M74649 68179
L76216 68179
" />
<path d="M77050 70502
L77050 69447
" />
<path d="M77641 70502
L77050 70502
" />
<path d="M71657 72274
L73074 72274
" />
<path d="M71657 71683
L71657 72274
" />
<path d="M73074 71683
L71657 71683
" />
<path d="M73074 72274
L73074 71683
" />
<path d="M76224 72274
L77641 72274
" />
<path d="M76224 71683
L76224 72274
" />
<path d="M77641 71683
L76224 71683
" />
<path d="M77641 72274
L77641 71683
" />
<path d="M74255 72274
L75042 72274
" />
<path d="M74255 71683
L74255 72274
" />
<path d="M75042 71683
L74255 71683
" />
<path d="M75042 72274
L75042 71683
" />
<path d="M71649 72282
L77649 72282
" />
<path d="M71649 67581
L71649 72282
" />
<path d="M77649 67581
L71649 67581
" />
<path d="M77649 72282
L77649 67581
" />
<path d="M84877 72510
L84877 71526
" />
<path d="M83893 72510
L84877 72510
" />
<path d="M79247 68179
L81649 68179
" />
<path d="M79247 70502
L79247 68179
" />
<path d="M78657 70502
L79247 70502
" />
<path d="M81649 68179
L83216 68179
" />
<path d="M84050 70502
L84050 69447
" />
<path d="M84641 70502
L84050 70502
" />
<path d="M78657 72274
L80074 72274
" />
<path d="M78657 71683
L78657 72274
" />
<path d="M80074 71683
L78657 71683
" />
<path d="M80074 72274
L80074 71683
" />
<path d="M83224 72274
L84641 72274
" />
<path d="M83224 71683
L83224 72274
" />
<path d="M84641 71683
L83224 71683
" />
<path d="M84641 72274
L84641 71683
" />
<path d="M81255 72274
L82042 72274
" />
<path d="M81255 71683
L81255 72274
" />
<path d="M82042 71683
L81255 71683
" />
<path d="M82042 72274
L82042 71683
" />
<path d="M78649 72282
L84649 72282
" />
<path d="M78649 67581
L78649 72282
" />
<path d="M84649 67581
L78649 67581
" />
<path d="M84649 72282
L84649 67581
" />
<path d="M43830 20132
L42846 20132
" />
<path d="M43830 21116
L43830 20132
" />
<path d="M39499 25762
L39499 23360
" />
<path d="M41822 25762
L39499 25762
" />
<path d="M41822 26352
L41822 25762
" />
<path d="M39499 23360
L39499 21793
" />
<path d="M41822 20959
L40767 20959
" />
<path d="M41822 20368
L41822 20959
" />
<path d="M43594 26352
L43594 24935
" />
<path d="M43003 26352
L43594 26352
" />
<path d="M43003 24935
L43003 26352
" />
<path d="M43594 24935
L43003 24935
" />
<path d="M43594 21786
L43594 20368
" />
<path d="M43003 21786
L43594 21786
" />
<path d="M43003 20368
L43003 21786
" />
<path d="M43594 20368
L43003 20368
" />
<path d="M43594 23754
L43594 22967
" />
<path d="M43003 23754
L43594 23754
" />
<path d="M43003 22967
L43003 23754
" />
<path d="M43594 22967
L43003 22967
" />
<path d="M43602 26360
L43602 20360
" />
<path d="M38901 26360
L43602 26360
" />
<path d="M38901 20360
L38901 26360
" />
<path d="M43602 20360
L38901 20360
" />
<path d="M34365 35558.5 A1338.58 1338.58 0.0 0 0 34365 38235.7 " />
<path d="M34365 38235.7 A1338.58 1338.58 0.0 0 0 34365 35558.5 " />
<path d="M43617 34958
L43617 36257
" />
<path d="M71712 34958
L43617 34958
" />
<path d="M71712 39131
L71712 34958
" />
<path d="M43617 39131
L71712 39131
" />
<path d="M43617 37832
L43617 39131
" />
<path d="M43617.8 37832.5 A787.402 787.402 0.0 0 0 43617.8 36257.7 " />
<path d="M71512 58031
L71512 53732
" />
<path d="M43417 58031
L71512 58031
" />
<path d="M43417 47858
L43417 58031
" />
<path d="M71512 47858
L43417 47858
" />
<path d="M71512 52157
L71512 47858
" />
<path d="M71512.2 52157.7 A787.402 787.402 0.0 0 0 71512.2 53732.5 " />
<path d="M59083.1 41456.9 A1988.19 1988.19 0.0 0 0 59083.1 45433.3 " />
<path d="M64004.4 45433.3 A1988.19 1988.19 0.0 0 0 64004.4 41456.9 " />
<path d="M64004 41456
L59083 41456
" />
<path d="M64004 45433
L59083 45433
" />
<path d="M36395 23563
L36395 21555
" />
<path d="M37734 23563
L37734 21555
" />
<path d="M36395 23563
L37734 23563
" />
<path d="M73177 28816
L73177 25745
" />
<path d="M74752 28816
L74752 25745
" />
<path d="M73177 28816
L74752 28816
" />
<path d="M70277 28816
L70277 25745
" />
<path d="M71852 28816
L71852 25745
" />
<path d="M70277 28816
L71852 28816
" />
<path d="M67557 28816
L67557 25745
" />
<path d="M69132 28816
L69132 25745
" />
<path d="M67557 28816
L69132 28816
" />
<path d="M34361 44104
L34768 44104
" />
<path d="M34361 42986
L34768 42986
" />
<path d="M34361 42354
L34768 42354
" />
<path d="M34361 41236
L34768 41236
" />
<path d="M50605 43441
L50605 43848
" />
<path d="M51724 43441
L51724 43848
" />
<path d="M38824 18448
L38824 18041
" />
<path d="M37705 18448
L37705 18041
" />
<path d="M67124 31548
L67124 31141
" />
<path d="M66005 31548
L66005 31141
" />
<path d="M63424 27548
L63424 27141
" />
<path d="M62305 27548
L62305 27141
" />
<path d="M69524 31548
L69524 31141
" />
<path d="M68405 31548
L68405 31141
" />
<path d="M30168 36286
L29761 36286
" />
<path d="M30168 37404
L29761 37404
" />
<path d="M62224 65548
L62224 65141
" />
<path d="M61105 65548
L61105 65141
" />
<path d="M73105 65141
L73105 65548
" />
<path d="M74224 65141
L74224 65548
" />
<path d="M34224 65508
L34224 65101
" />
<path d="M33105 65508
L33105 65101
" />
<path d="M31145 65101
L31145 65508
" />
<path d="M32264 65101
L32264 65508
" />
<path d="M38105 65141
L38105 65548
" />
<path d="M39224 65141
L39224 65548
" />
<path d="M45105 65141
L45105 65548
" />
<path d="M46224 65141
L46224 65548
" />
<path d="M52105 65141
L52105 65548
" />
<path d="M53224 65141
L53224 65548
" />
<path d="M59105 65141
L59105 65548
" />
<path d="M60224 65141
L60224 65548
" />
<path d="M66105 65141
L66105 65548
" />
<path d="M67224 65141
L67224 65548
" />
<path d="M80105 65141
L80105 65548
" />
<path d="M81224 65141
L81224 65548
" />
<path d="M41224 65548
L41224 65141
" />
<path d="M40105 65548
L40105 65141
" />
<path d="M48224 65548
L48224 65141
" />
<path d="M47105 65548
L47105 65141
" />
<path d="M55224 65548
L55224 65141
" />
<path d="M54105 65548
L54105 65141
" />
<path d="M69224 65548
L69224 65141
" />
<path d="M68105 65548
L68105 65141
" />
<path d="M76224 65548
L76224 65141
" />
<path d="M75105 65548
L75105 65141
" />
<path d="M83224 65548
L83224 65141
" />
<path d="M82105 65548
L82105 65141
" />
<path d="M32461 63504
L32868 63504
" />
<path d="M32461 62386
L32868 62386
" />
<path d="M67461 63504
L67868 63504
" />
<path d="M67461 62386
L67868 62386
" />
<path d="M60461 63504
L60868 63504
" />
<path d="M60461 62386
L60868 62386
" />
<path d="M39461 63504
L39868 63504
" />
<path d="M39461 62386
L39868 62386
" />
<path d="M46461 63504
L46868 63504
" />
<path d="M46461 62386
L46868 62386
" />
<path d="M53461 63504
L53868 63504
" />
<path d="M53461 62386
L53868 62386
" />
<path d="M74461 63504
L74868 63504
" />
<path d="M74461 62386
L74868 62386
" />
<path d="M81461 63504
L81868 63504
" />
<path d="M81461 62386
L81868 62386
" />
<path d="M39068 14886
L38661 14886
" />
<path d="M39068 16004
L38661 16004
" />
<path d="M54105 43241
L54105 43648
" />
<path d="M55224 43241
L55224 43648
" />
<path d="M73405 52941
L73405 53348
" />
<path d="M74524 52941
L74524 53348
" />
<path d="M29761 35404
L30168 35404
" />
<path d="M29761 34286
L30168 34286
" />
<path d="M67905 43041
L67905 43448
" />
<path d="M69024 43041
L69024 43448
" />
<path d="M29270 18541
L28286 18541
" />
<path d="M29270 19525
L29270 18541
" />
<path d="M24939 28107
L24939 23737
" />
<path d="M27262 28107
L24939 28107
" />
<path d="M27262 28698
L27262 28107
" />
<path d="M24939 19367
L24939 23737
" />
<path d="M27262 19367
L24939 19367
" />
<path d="M27262 18777
L27262 19367
" />
<path d="M29034 28698
L29034 27281
" />
<path d="M28443 28698
L29034 28698
" />
<path d="M28443 27281
L28443 28698
" />
<path d="M29034 27281
L28443 27281
" />
<path d="M29034 20194
L29034 18777
" />
<path d="M28443 20194
L29034 20194
" />
<path d="M28443 18777
L28443 20194
" />
<path d="M29034 18777
L28443 18777
" />
<path d="M29034 26100
L29034 21375
" />
<path d="M28443 26100
L29034 26100
" />
<path d="M28443 21375
L28443 26100
" />
<path d="M29034 21375
L28443 21375
" />
<path d="M29042 28706
L29042 18769
" />
<path d="M24341 28706
L29042 28706
" />
<path d="M24341 18769
L24341 28706
" />
<path d="M29042 18769
L24341 18769
" />
<path d="M31899 14419
L31899 14813
" />
<path d="M31702 14616
L32096 14616
" />
<path d="M32285 16786
L33123 17624
" />
<path d="M32285 14903
L33123 14065
" />
<path d="M32285 14903
L32285 15010
" />
<path d="M32285 16786
L32285 16679
" />
<path d="M33123 17624
L35844 17624
" />
<path d="M33123 14065
L35844 14065
" />
<path d="M35844 14065
L35844 15010
" />
<path d="M35844 17624
L35844 16679
" />
<path d="M80824 38248
L80824 37841
" />
<path d="M79705 38248
L79705 37841
" />
</g>
<g style="fill:#000000; fill-opacity:0.0; 
stroke:#000000; stroke-width:118.11; stroke-opacity:1; 
stroke-linecap:round; stroke-linejoin:round;">
<path d="M37990 34596
L37990 35234
L38027 35309
L38065 35346
L38140 35384
L38290 35384
L38365 35346
L38402 35309
L38440 35234
L38440 34596
" />
<path d="M39227 35384
L38777 35384
" />
<path d="M39002 35384
L39002 34596
L38927 34709
L38852 34784
L38777 34821
" />
<path d="M39939 34596
L39564 34596
L39527 34971
L39564 34934
L39639 34896
L39827 34896
L39902 34934
L39939 34971
L39977 35046
L39977 35234
L39939 35309
L39902 35346
L39827 35384
L39639 35384
L39564 35346
L39527 35309
" />
<path d="M44506 17378
L45068 17378
L45181 17415
L45256 17490
L45293 17603
L45293 17678
" />
<path d="M45293 16591
L45293 17040
" />
<path d="M45293 16816
L44506 16816
L44618 16891
L44693 16966
L44731 17040
" />
<path d="M29490 44433
L29415 44395
L29340 44320
L29227 44208
L29152 44170
L29077 44170
" />
<path d="M29115 44358
L29040 44320
L28965 44245
L28927 44095
L28927 43833
L28965 43683
L29040 43608
L29115 43570
L29265 43570
L29340 43608
L29415 43683
L29452 43833
L29452 44095
L29415 44245
L29340 44320
L29265 44358
L29115 44358
" />
<path d="M29752 43645
L29789 43608
L29864 43570
L30052 43570
L30127 43608
L30164 43645
L30202 43720
L30202 43795
L30164 43908
L29714 44358
L30202 44358
" />
<path d="M83033 54319
L83671 54319
L83746 54282
L83783 54245
L83821 54170
L83821 54020
L83783 53945
L83746 53907
L83671 53870
L83033 53870
" />
<path d="M83821 53082
L83821 53532
" />
<path d="M83821 53307
L83033 53307
L83146 53382
L83221 53457
L83258 53532
" />
<path d="M83033 52820
L83033 52332
L83333 52595
L83333 52482
L83371 52407
L83408 52370
L83483 52332
L83671 52332
L83746 52370
L83783 52407
L83821 52482
L83821 52707
L83783 52782
L83746 52820
" />
<path d="M47283 29503
L47283 28716
L47471 28716
L47583 28753
L47658 28828
L47696 28903
L47733 29053
L47733 29166
L47696 29316
L47658 29391
L47583 29466
L47471 29503
L47283 29503
" />
<path d="M48483 29503
L48033 29503
" />
<path d="M48258 29503
L48258 28716
L48183 28828
L48108 28903
L48033 28941
" />
<path d="M43658 29747
L43658 28960
" />
<path d="M44108 29747
L43771 29297
" />
<path d="M44108 28960
L43658 29410
" />
<path d="M56656 33338
L56768 33376
L56956 33376
L57031 33338
L57068 33301
L57106 33226
L57106 33151
L57068 33076
L57031 33038
L56956 33001
L56806 32963
L56731 32926
L56693 32888
L56656 32813
L56656 32738
L56693 32663
L56731 32626
L56806 32588
L56993 32588
L57106 32626
" />
<path d="M57368 32588
L57555 33376
L57705 32813
L57855 33376
L58043 32588
" />
<path d="M58305 32663
L58343 32626
L58418 32588
L58605 32588
L58680 32626
L58718 32663
L58755 32738
L58755 32813
L58718 32926
L58268 33376
L58755 33376
" />
<path d="M70274 20181
L70386 20219
L70574 20219
L70649 20181
L70686 20144
L70724 20069
L70724 19994
L70686 19919
L70649 19881
L70574 19844
L70424 19806
L70349 19769
L70311 19731
L70274 19657
L70274 19582
L70311 19507
L70349 19469
L70424 19432
L70611 19432
L70724 19469
" />
<path d="M70986 19432
L71174 20219
L71324 19657
L71474 20219
L71661 19432
" />
<path d="M72373 20219
L71923 20219
" />
<path d="M72148 20219
L72148 19432
L72073 19544
L71998 19619
L71923 19657
" />
<path d="M75383 40435
L75383 39648
L75683 39648
L75758 39686
L75796 39723
L75833 39798
L75833 39911
L75796 39986
L75758 40023
L75683 40061
L75383 40061
" />
<path d="M76583 40435
L76133 40435
" />
<path d="M76358 40435
L76358 39648
L76283 39761
L76208 39836
L76133 39873
" />
<path d="M32468 49809
L32468 50446
L32506 50521
L32543 50559
L32618 50596
L32768 50596
L32843 50559
L32881 50521
L32918 50446
L32918 49809
" />
<path d="M33706 50596
L33256 50596
" />
<path d="M33481 50596
L33481 49809
L33406 49921
L33331 49996
L33256 50034
" />
<path d="M34006 49884
L34043 49846
L34118 49809
L34306 49809
L34381 49846
L34418 49884
L34456 49959
L34456 50034
L34418 50146
L33968 50596
L34456 50596
" />
<path d="M29590 30645
L30227 30645
L30302 30607
L30340 30570
L30377 30495
L30377 30345
L30340 30270
L30302 30232
L30227 30195
L29590 30195
" />
<path d="M30377 29407
L30377 29857
" />
<path d="M30377 29632
L29590 29632
L29702 29707
L29777 29782
L29815 29857
" />
<path d="M41333 34526
L41296 34563
L41183 34601
L41108 34601
L40996 34563
L40921 34488
L40883 34413
L40846 34263
L40846 34151
L40883 34001
L40921 33926
L40996 33851
L41108 33813
L41183 33813
L41296 33851
L41333 33888
" />
<path d="M41633 33888
L41671 33851
L41746 33813
L41933 33813
L42008 33851
L42046 33888
L42083 33963
L42083 34038
L42046 34151
L41596 34601
L42083 34601
" />
<path d="M29971 22745
L30609 22745
L30684 22707
L30721 22670
L30759 22595
L30759 22445
L30721 22370
L30684 22332
L30609 22295
L29971 22295
" />
<path d="M30046 21957
L30009 21920
L29971 21845
L29971 21657
L30009 21582
L30046 21545
L30121 21507
L30196 21507
L30309 21545
L30759 21995
L30759 21507
" />
<path d="M41390 16776
L41315 16738
L41240 16663
L41127 16551
L41052 16513
L40977 16513
" />
<path d="M41015 16701
L40940 16663
L40865 16588
L40827 16438
L40827 16176
L40865 16026
L40940 15951
L41015 15913
L41165 15913
L41240 15951
L41315 16026
L41352 16176
L41352 16438
L41315 16588
L41240 16663
L41165 16701
L41015 16701
" />
<path d="M42102 16701
L41652 16701
" />
<path d="M41877 16701
L41877 15913
L41802 16026
L41727 16101
L41652 16138
" />
<path d="M29465 66313
L29465 66951
L29502 67026
L29540 67063
L29615 67101
L29765 67101
L29840 67063
L29877 67026
L29915 66951
L29915 66313
" />
<path d="M30214 66313
L30702 66313
L30439 66613
L30552 66613
L30627 66651
L30664 66688
L30702 66763
L30702 66951
L30664 67026
L30627 67063
L30552 67101
L30327 67101
L30252 67063
L30214 67026
" />
<path d="M36465 66313
L36465 66951
L36502 67026
L36540 67063
L36615 67101
L36765 67101
L36840 67063
L36877 67026
L36915 66951
L36915 66313
" />
<path d="M37627 66576
L37627 67101
" />
<path d="M37439 66276
L37252 66838
L37739 66838
" />
<path d="M43565 66313
L43565 66951
L43602 67026
L43640 67063
L43715 67101
L43865 67101
L43940 67063
L43977 67026
L44015 66951
L44015 66313
" />
<path d="M44764 66313
L44389 66313
L44352 66688
L44389 66651
L44464 66613
L44652 66613
L44727 66651
L44764 66688
L44802 66763
L44802 66951
L44764 67026
L44727 67063
L44652 67101
L44464 67101
L44389 67063
L44352 67026
" />
<path d="M50465 66313
L50465 66951
L50502 67026
L50540 67063
L50615 67101
L50765 67101
L50840 67063
L50877 67026
L50915 66951
L50915 66313
" />
<path d="M51627 66313
L51477 66313
L51402 66351
L51364 66388
L51289 66501
L51252 66651
L51252 66951
L51289 67026
L51327 67063
L51402 67101
L51552 67101
L51627 67063
L51664 67026
L51702 66951
L51702 66763
L51664 66688
L51627 66651
L51552 66613
L51402 66613
L51327 66651
L51289 66688
L51252 66763
" />
<path d="M57465 66313
L57465 66951
L57502 67026
L57540 67063
L57615 67101
L57765 67101
L57840 67063
L57877 67026
L57915 66951
L57915 66313
" />
<path d="M58214 66313
L58739 66313
L58402 67101
" />
<path d="M64465 66313
L64465 66951
L64502 67026
L64540 67063
L64615 67101
L64765 67101
L64840 67063
L64877 67026
L64915 66951
L64915 66313
" />
<path d="M65402 66651
L65327 66613
L65289 66576
L65252 66501
L65252 66463
L65289 66388
L65327 66351
L65402 66313
L65552 66313
L65627 66351
L65664 66388
L65702 66463
L65702 66501
L65664 66576
L65627 66613
L65552 66651
L65402 66651
L65327 66688
L65289 66726
L65252 66801
L65252 66951
L65289 67026
L65327 67063
L65402 67101
L65552 67101
L65627 67063
L65664 67026
L65702 66951
L65702 66801
L65664 66726
L65627 66688
L65552 66651
" />
<path d="M71465 66213
L71465 66851
L71502 66926
L71540 66963
L71615 67001
L71765 67001
L71840 66963
L71877 66926
L71915 66851
L71915 66213
" />
<path d="M72327 67001
L72477 67001
L72552 66963
L72589 66926
L72664 66813
L72702 66663
L72702 66363
L72664 66288
L72627 66251
L72552 66213
L72402 66213
L72327 66251
L72289 66288
L72252 66363
L72252 66551
L72289 66626
L72327 66663
L72402 66701
L72552 66701
L72627 66663
L72664 66626
L72702 66551
" />
<path d="M77890 66213
L77890 66851
L77927 66926
L77965 66963
L78040 67001
L78190 67001
L78265 66963
L78302 66926
L78340 66851
L78340 66213
" />
<path d="M79127 67001
L78677 67001
" />
<path d="M78902 67001
L78902 66213
L78827 66326
L78752 66401
L78677 66438
" />
<path d="M79614 66213
L79689 66213
L79764 66251
L79802 66288
L79839 66363
L79877 66513
L79877 66701
L79839 66851
L79802 66926
L79764 66963
L79689 67001
L79614 67001
L79539 66963
L79502 66926
L79464 66851
L79427 66701
L79427 66513
L79464 66363
L79502 66288
L79539 66251
L79614 66213
" />
<path d="M44404 23979
L44441 23867
L44479 23829
L44554 23792
L44666 23792
L44741 23829
L44778 23867
L44816 23942
L44816 24242
L44029 24242
L44029 23979
L44066 23904
L44104 23867
L44179 23829
L44254 23829
L44329 23867
L44366 23904
L44404 23979
L44404 24242
" />
<path d="M44029 23567
L44029 23117
" />
<path d="M44816 23342
L44029 23342
" />
<path d="M44816 22442
L44816 22892
" />
<path d="M44816 22667
L44029 22667
L44141 22742
L44216 22817
L44254 22892
" />
<path d="M36472 37272
L36847 37272
" />
<path d="M36059 37534
L36472 37272
L36059 37009
" />
<path d="M36134 36784
L36097 36747
L36059 36672
L36059 36484
L36097 36409
L36134 36372
L36209 36334
L36284 36334
L36397 36372
L36847 36822
L36847 36334
" />
<path d="M42351 38019
L42989 38019
L43064 37982
L43101 37945
L43139 37870
L43139 37720
L43101 37645
L43064 37607
L42989 37570
L42351 37570
" />
<path d="M43139 36782
L43139 37232
" />
<path d="M43139 37007
L42351 37007
L42464 37082
L42539 37157
L42576 37232
" />
<path d="M42614 36107
L43139 36107
" />
<path d="M42314 36295
L42876 36482
L42876 35995
" />
<path d="M71868 53919
L72505 53919
L72580 53882
L72618 53845
L72655 53770
L72655 53620
L72618 53545
L72580 53507
L72505 53470
L71868 53470
" />
<path d="M72655 52682
L72655 53132
" />
<path d="M72655 52907
L71868 52907
L71980 52982
L72055 53057
L72093 53132
" />
<path d="M72655 51932
L72655 52382
" />
<path d="M72655 52157
L71868 52157
L71980 52232
L72055 52307
L72093 52382
" />
<path d="M61168 46201
L61168 46576
" />
<path d="M60906 45789
L61168 46201
L61431 45789
" />
<path d="M62106 46576
L61656 46576
" />
<path d="M61881 46576
L61881 45789
L61806 45901
L61731 45976
L61656 46014
" />
<path d="M35964 22963
L35177 22963
L35177 22775
L35214 22663
L35289 22588
L35364 22550
L35514 22513
L35627 22513
L35777 22550
L35852 22588
L35927 22663
L35964 22775
L35964 22963
" />
<path d="M35252 22213
L35214 22175
L35177 22100
L35177 21913
L35214 21838
L35252 21800
L35327 21763
L35402 21763
L35514 21800
L35964 22250
L35964 21763
" />
<path d="M72746 27626
L71959 27626
L71959 27438
L71996 27326
L72071 27251
L72146 27213
L72296 27176
L72408 27176
L72558 27213
L72633 27251
L72708 27326
L72746 27438
L72746 27626
" />
<path d="M72221 26501
L72746 26501
" />
<path d="M71921 26688
L72483 26876
L72483 26388
" />
<path d="M69846 27626
L69059 27626
L69059 27438
L69096 27326
L69171 27251
L69246 27213
L69396 27176
L69508 27176
L69658 27213
L69733 27251
L69808 27326
L69846 27438
L69846 27626
" />
<path d="M69059 26913
L69059 26426
L69358 26688
L69358 26576
L69396 26501
L69433 26463
L69508 26426
L69696 26426
L69771 26463
L69808 26501
L69846 26576
L69846 26801
L69808 26876
L69771 26913
" />
<path d="M67126 27626
L66339 27626
L66339 27438
L66376 27326
L66451 27251
L66526 27213
L66676 27176
L66788 27176
L66938 27213
L67013 27251
L67088 27326
L67126 27438
L67126 27626
" />
<path d="M66339 26463
L66339 26838
L66713 26876
L66676 26838
L66638 26763
L66638 26576
L66676 26501
L66713 26463
L66788 26426
L66976 26426
L67051 26463
L67088 26501
L67126 26576
L67126 26763
L67088 26838
L67051 26876
" />
<path d="M34433 42602
L34171 42227
" />
<path d="M33983 42602
L33983 41814
L34283 41814
L34358 41852
L34396 41889
L34433 41964
L34433 42077
L34396 42152
L34358 42189
L34283 42227
L33983 42227
" />
<path d="M34696 41814
L35221 41814
L34883 42602
" />
<path d="M34433 40852
L34171 40477
" />
<path d="M33983 40852
L33983 40064
L34283 40064
L34358 40102
L34396 40139
L34433 40214
L34433 40327
L34396 40402
L34358 40439
L34283 40477
L33983 40477
" />
<path d="M35108 40064
L34958 40064
L34883 40102
L34846 40139
L34771 40252
L34733 40402
L34733 40702
L34771 40777
L34808 40814
L34883 40852
L35033 40852
L35108 40814
L35146 40777
L35183 40702
L35183 40514
L35146 40439
L35108 40402
L35033 40364
L34883 40364
L34808 40402
L34771 40439
L34733 40514
" />
<path d="M52820 43776
L52445 44038
" />
<path d="M52820 44226
L52033 44226
L52033 43926
L52070 43851
L52108 43813
L52182 43776
L52295 43776
L52370 43813
L52407 43851
L52445 43926
L52445 44226
" />
<path d="M52370 43326
L52332 43401
L52295 43438
L52220 43476
L52182 43476
L52108 43438
L52070 43401
L52033 43326
L52033 43176
L52070 43101
L52108 43063
L52182 43026
L52220 43026
L52295 43063
L52332 43101
L52370 43176
L52370 43326
L52407 43401
L52445 43438
L52520 43476
L52670 43476
L52745 43438
L52782 43401
L52820 43326
L52820 43176
L52782 43101
L52745 43063
L52670 43026
L52520 43026
L52445 43063
L52407 43101
L52370 43176
" />
<path d="M37321 18376
L36947 18638
" />
<path d="M37321 18826
L36534 18826
L36534 18526
L36572 18451
L36609 18413
L36684 18376
L36797 18376
L36872 18413
L36909 18451
L36947 18526
L36947 18826
" />
<path d="M37321 17626
L37321 18076
" />
<path d="M37321 17851
L36534 17851
L36647 17926
L36722 18001
L36759 18076
" />
<path d="M65621 31476
L65247 31738
" />
<path d="M65621 31926
L64834 31926
L64834 31626
L64872 31551
L64909 31513
L64984 31476
L65097 31476
L65172 31513
L65209 31551
L65247 31626
L65247 31926
" />
<path d="M65097 30801
L65621 30801
" />
<path d="M64797 30988
L65359 31176
L65359 30688
" />
<path d="M61921 27476
L61547 27738
" />
<path d="M61921 27926
L61134 27926
L61134 27626
L61172 27551
L61209 27513
L61284 27476
L61397 27476
L61472 27513
L61509 27551
L61547 27626
L61547 27926
" />
<path d="M61134 26763
L61134 27138
L61509 27176
L61472 27138
L61434 27063
L61434 26876
L61472 26801
L61509 26763
L61584 26726
L61772 26726
L61847 26763
L61884 26801
L61921 26876
L61921 27063
L61884 27138
L61847 27176
" />
<path d="M68021 31476
L67647 31738
" />
<path d="M68021 31926
L67234 31926
L67234 31626
L67272 31551
L67309 31513
L67384 31476
L67497 31476
L67572 31513
L67609 31551
L67647 31626
L67647 31926
" />
<path d="M67234 31213
L67234 30726
L67534 30988
L67534 30876
L67572 30801
L67609 30763
L67684 30726
L67872 30726
L67947 30763
L67984 30801
L68021 30876
L68021 31101
L67984 31176
L67947 31213
" />
<path d="M29833 38500
L29571 38125
" />
<path d="M29383 38500
L29383 37713
L29683 37713
L29758 37750
L29796 37788
L29833 37863
L29833 37975
L29796 38050
L29758 38088
L29683 38125
L29383 38125
" />
<path d="M30133 37788
L30171 37750
L30246 37713
L30433 37713
L30508 37750
L30546 37788
L30583 37863
L30583 37938
L30546 38050
L30096 38500
L30583 38500
" />
<path d="M63621 65851
L63621 66226
L62833 66226
" />
<path d="M63621 65176
L63621 65626
" />
<path d="M63621 65401
L62833 65401
L62946 65476
L63021 65551
L63058 65626
" />
<path d="M62833 64913
L62833 64426
L63133 64688
L63133 64576
L63171 64501
L63208 64463
L63283 64426
L63471 64426
L63546 64463
L63583 64501
L63621 64576
L63621 64801
L63583 64876
L63546 64913
" />
<path d="M72621 65476
L72621 65851
L71833 65851
" />
<path d="M71833 65288
L71833 64763
L72621 65101
" />
<path d="M35621 65376
L35621 65751
L34833 65751
" />
<path d="M35621 65076
L35621 64926
L35583 64851
L35546 64813
L35433 64738
L35283 64701
L34983 64701
L34908 64738
L34871 64776
L34833 64851
L34833 65001
L34871 65076
L34908 65113
L34983 65151
L35171 65151
L35246 65113
L35283 65076
L35321 65001
L35321 64851
L35283 64776
L35246 64738
L35171 64701
" />
<path d="M30421 65436
L30421 65811
L29633 65811
" />
<path d="M30421 64761
L30421 65211
" />
<path d="M30421 64986
L29633 64986
L29746 65061
L29821 65136
L29858 65211
" />
<path d="M37521 65476
L37521 65851
L36733 65851
" />
<path d="M36808 65251
L36771 65213
L36733 65138
L36733 64951
L36771 64876
L36808 64838
L36883 64801
L36958 64801
L37071 64838
L37521 65288
L37521 64801
" />
<path d="M44521 65476
L44521 65851
L43733 65851
" />
<path d="M43733 65288
L43733 64801
L44033 65063
L44033 64951
L44071 64876
L44108 64838
L44183 64801
L44371 64801
L44446 64838
L44483 64876
L44521 64951
L44521 65176
L44483 65251
L44446 65288
" />
<path d="M51621 65476
L51621 65851
L50833 65851
" />
<path d="M51096 64876
L51621 64876
" />
<path d="M50796 65063
L51358 65251
L51358 64763
" />
<path d="M58621 65476
L58621 65851
L57833 65851
" />
<path d="M57833 64838
L57833 65213
L58208 65251
L58171 65213
L58133 65138
L58133 64951
L58171 64876
L58208 64838
L58283 64801
L58471 64801
L58546 64838
L58583 64876
L58621 64951
L58621 65138
L58583 65213
L58546 65251
" />
<path d="M65621 65476
L65621 65851
L64833 65851
" />
<path d="M64833 64876
L64833 65026
L64871 65101
L64908 65138
L65021 65213
L65171 65251
L65471 65251
L65546 65213
L65583 65176
L65621 65101
L65621 64951
L65583 64876
L65546 64838
L65471 64801
L65283 64801
L65208 64838
L65171 64876
L65133 64951
L65133 65101
L65171 65176
L65208 65213
L65283 65251
" />
<path d="M79621 65476
L79621 65851
L78833 65851
" />
<path d="M79171 65101
L79133 65176
L79096 65213
L79021 65251
L78983 65251
L78908 65213
L78871 65176
L78833 65101
L78833 64951
L78871 64876
L78908 64838
L78983 64801
L79021 64801
L79096 64838
L79133 64876
L79171 64951
L79171 65101
L79208 65176
L79246 65213
L79321 65251
L79471 65251
L79546 65213
L79583 65176
L79621 65101
L79621 64951
L79583 64876
L79546 64838
L79471 64801
L79321 64801
L79246 64838
L79208 64876
L79171 64951
" />
<path d="M42621 65851
L42621 66226
L41833 66226
" />
<path d="M42621 65176
L42621 65626
" />
<path d="M42621 65401
L41833 65401
L41946 65476
L42021 65551
L42058 65626
" />
<path d="M41833 64688
L41833 64613
L41871 64538
L41908 64501
L41983 64463
L42133 64426
L42321 64426
L42471 64463
L42546 64501
L42583 64538
L42621 64613
L42621 64688
L42583 64763
L42546 64801
L42471 64838
L42321 64876
L42133 64876
L41983 64838
L41908 64801
L41871 64763
L41833 64688
" />
<path d="M49521 65851
L49521 66226
L48733 66226
" />
<path d="M49521 65176
L49521 65626
" />
<path d="M49521 65401
L48733 65401
L48846 65476
L48921 65551
L48958 65626
" />
<path d="M49521 64426
L49521 64876
" />
<path d="M49521 64651
L48733 64651
L48846 64726
L48921 64801
L48958 64876
" />
<path d="M56621 65851
L56621 66226
L55833 66226
" />
<path d="M56621 65176
L56621 65626
" />
<path d="M56621 65401
L55833 65401
L55946 65476
L56021 65551
L56058 65626
" />
<path d="M55908 64876
L55871 64838
L55833 64763
L55833 64576
L55871 64501
L55908 64463
L55983 64426
L56058 64426
L56171 64463
L56621 64913
L56621 64426
" />
<path d="M70521 65851
L70521 66226
L69733 66226
" />
<path d="M70521 65176
L70521 65626
" />
<path d="M70521 65401
L69733 65401
L69846 65476
L69921 65551
L69958 65626
" />
<path d="M69996 64501
L70521 64501
" />
<path d="M69696 64688
L70258 64876
L70258 64388
" />
<path d="M77521 65851
L77521 66226
L76733 66226
" />
<path d="M77521 65176
L77521 65626
" />
<path d="M77521 65401
L76733 65401
L76846 65476
L76921 65551
L76958 65626
" />
<path d="M76733 64463
L76733 64838
L77108 64876
L77071 64838
L77033 64763
L77033 64576
L77071 64501
L77108 64463
L77183 64426
L77371 64426
L77446 64463
L77483 64501
L77521 64576
L77521 64763
L77483 64838
L77446 64876
" />
<path d="M84621 65851
L84621 66226
L83833 66226
" />
<path d="M84621 65176
L84621 65626
" />
<path d="M84621 65401
L83833 65401
L83946 65476
L84021 65551
L84058 65626
" />
<path d="M83833 64501
L83833 64651
L83871 64726
L83908 64763
L84021 64838
L84171 64876
L84471 64876
L84546 64838
L84583 64801
L84621 64726
L84621 64576
L84583 64501
L84546 64463
L84471 64426
L84283 64426
L84208 64463
L84171 64501
L84133 64576
L84133 64726
L84171 64801
L84208 64838
L84283 64876
" />
<path d="M32533 61927
L32496 61964
L32383 62002
L32308 62002
L32196 61964
L32121 61889
L32083 61814
L32046 61664
L32046 61552
L32083 61402
L32121 61327
L32196 61252
L32308 61214
L32383 61214
L32496 61252
L32533 61289
" />
<path d="M33246 61214
L32871 61214
L32833 61589
L32871 61552
L32946 61514
L33133 61514
L33208 61552
L33246 61589
L33283 61664
L33283 61852
L33246 61927
L33208 61964
L33133 62002
L32946 62002
L32871 61964
L32833 61927
" />
<path d="M67158 61927
L67121 61964
L67008 62002
L66933 62002
L66821 61964
L66746 61889
L66708 61814
L66671 61664
L66671 61552
L66708 61402
L66746 61327
L66821 61252
L66933 61214
L67008 61214
L67121 61252
L67158 61289
" />
<path d="M67908 62002
L67458 62002
" />
<path d="M67683 62002
L67683 61214
L67608 61327
L67533 61402
L67458 61439
" />
<path d="M68396 61214
L68471 61214
L68546 61252
L68583 61289
L68621 61364
L68658 61514
L68658 61702
L68621 61852
L68583 61927
L68546 61964
L68471 62002
L68396 62002
L68321 61964
L68283 61927
L68246 61852
L68208 61702
L68208 61514
L68246 61364
L68283 61289
L68321 61252
L68396 61214
" />
<path d="M60533 61927
L60496 61964
L60383 62002
L60308 62002
L60196 61964
L60121 61889
L60083 61814
L60046 61664
L60046 61552
L60083 61402
L60121 61327
L60196 61252
L60308 61214
L60383 61214
L60496 61252
L60533 61289
" />
<path d="M60908 62002
L61058 62002
L61133 61964
L61171 61927
L61246 61814
L61283 61664
L61283 61364
L61246 61289
L61208 61252
L61133 61214
L60983 61214
L60908 61252
L60871 61289
L60833 61364
L60833 61552
L60871 61627
L60908 61664
L60983 61702
L61133 61702
L61208 61664
L61246 61627
L61283 61552
" />
<path d="M39533 61927
L39496 61964
L39383 62002
L39308 62002
L39196 61964
L39121 61889
L39083 61814
L39046 61664
L39046 61552
L39083 61402
L39121 61327
L39196 61252
L39308 61214
L39383 61214
L39496 61252
L39533 61289
" />
<path d="M40208 61214
L40058 61214
L39983 61252
L39946 61289
L39871 61402
L39833 61552
L39833 61852
L39871 61927
L39908 61964
L39983 62002
L40133 62002
L40208 61964
L40246 61927
L40283 61852
L40283 61664
L40246 61589
L40208 61552
L40133 61514
L39983 61514
L39908 61552
L39871 61589
L39833 61664
" />
<path d="M46533 61927
L46496 61964
L46383 62002
L46308 62002
L46196 61964
L46121 61889
L46083 61814
L46046 61664
L46046 61552
L46083 61402
L46121 61327
L46196 61252
L46308 61214
L46383 61214
L46496 61252
L46533 61289
" />
<path d="M46796 61214
L47321 61214
L46983 62002
" />
<path d="M53533 61927
L53496 61964
L53383 62002
L53308 62002
L53196 61964
L53121 61889
L53083 61814
L53046 61664
L53046 61552
L53083 61402
L53121 61327
L53196 61252
L53308 61214
L53383 61214
L53496 61252
L53533 61289
" />
<path d="M53983 61552
L53908 61514
L53871 61477
L53833 61402
L53833 61364
L53871 61289
L53908 61252
L53983 61214
L54133 61214
L54208 61252
L54246 61289
L54283 61364
L54283 61402
L54246 61477
L54208 61514
L54133 61552
L53983 61552
L53908 61589
L53871 61627
L53833 61702
L53833 61852
L53871 61927
L53908 61964
L53983 62002
L54133 62002
L54208 61964
L54246 61927
L54283 61852
L54283 61702
L54246 61627
L54208 61589
L54133 61552
" />
<path d="M74158 61927
L74121 61964
L74008 62002
L73933 62002
L73821 61964
L73746 61889
L73708 61814
L73671 61664
L73671 61552
L73708 61402
L73746 61327
L73821 61252
L73933 61214
L74008 61214
L74121 61252
L74158 61289
" />
<path d="M74908 62002
L74458 62002
" />
<path d="M74683 62002
L74683 61214
L74608 61327
L74533 61402
L74458 61439
" />
<path d="M75658 62002
L75208 62002
" />
<path d="M75433 62002
L75433 61214
L75358 61327
L75283 61402
L75208 61439
" />
<path d="M81158 61927
L81121 61964
L81008 62002
L80933 62002
L80821 61964
L80746 61889
L80708 61814
L80671 61664
L80671 61552
L80708 61402
L80746 61327
L80821 61252
L80933 61214
L81008 61214
L81121 61252
L81158 61289
" />
<path d="M81908 62002
L81458 62002
" />
<path d="M81683 62002
L81683 61214
L81608 61327
L81533 61402
L81458 61439
" />
<path d="M82208 61289
L82246 61252
L82321 61214
L82508 61214
L82583 61252
L82621 61289
L82658 61364
L82658 61439
L82621 61552
L82171 62002
L82658 62002
" />
<path d="M38733 17025
L38696 17063
L38583 17100
L38508 17100
L38396 17063
L38321 16988
L38283 16913
L38246 16763
L38246 16650
L38283 16500
L38321 16425
L38396 16350
L38508 16313
L38583 16313
L38696 16350
L38733 16388
" />
<path d="M38996 16313
L39483 16313
L39221 16613
L39333 16613
L39408 16650
L39446 16688
L39483 16763
L39483 16950
L39446 17025
L39408 17063
L39333 17100
L39108 17100
L39033 17063
L38996 17025
" />
<path d="M56245 43951
L56282 43988
L56320 44101
L56320 44176
L56282 44288
L56207 44363
L56132 44401
L55982 44438
L55870 44438
L55720 44401
L55645 44363
L55570 44288
L55533 44176
L55533 44101
L55570 43988
L55608 43951
" />
<path d="M56320 43201
L56320 43651
" />
<path d="M56320 43426
L55533 43426
L55645 43501
L55720 43576
L55757 43651
" />
<path d="M55533 42488
L55533 42863
L55907 42901
L55870 42863
L55832 42788
L55832 42601
L55870 42526
L55907 42488
L55982 42451
L56170 42451
L56245 42488
L56282 42526
L56320 42601
L56320 42788
L56282 42863
L56245 42901
" />
<path d="M75545 53651
L75582 53688
L75620 53801
L75620 53876
L75582 53988
L75507 54063
L75432 54101
L75282 54138
L75170 54138
L75020 54101
L74945 54063
L74870 53988
L74833 53876
L74833 53801
L74870 53688
L74908 53651
" />
<path d="M75620 52901
L75620 53351
" />
<path d="M75620 53126
L74833 53126
L74945 53201
L75020 53276
L75057 53351
" />
<path d="M74833 52638
L74833 52151
L75132 52413
L75132 52301
L75170 52226
L75207 52188
L75282 52151
L75470 52151
L75545 52188
L75582 52226
L75620 52301
L75620 52526
L75582 52601
L75545 52638
" />
<path d="M29833 33827
L29796 33864
L29683 33902
L29608 33902
L29496 33864
L29421 33789
L29383 33714
L29346 33564
L29346 33452
L29383 33302
L29421 33227
L29496 33152
L29608 33114
L29683 33114
L29796 33152
L29833 33189
" />
<path d="M30583 33902
L30133 33902
" />
<path d="M30358 33902
L30358 33114
L30283 33227
L30208 33302
L30133 33339
" />
<path d="M70045 43751
L70082 43788
L70120 43901
L70120 43976
L70082 44088
L70007 44163
L69932 44201
L69782 44238
L69670 44238
L69520 44201
L69445 44163
L69370 44088
L69333 43976
L69333 43901
L69370 43788
L69408 43751
" />
<path d="M70120 43001
L70120 43451
" />
<path d="M70120 43226
L69333 43226
L69445 43301
L69520 43376
L69557 43451
" />
<path d="M69595 42326
L70120 42326
" />
<path d="M69295 42513
L69857 42701
L69857 42213
" />
<path d="M30256 24319
L29469 24319
L29469 24019
L29506 23944
L29544 23906
L29619 23869
L29731 23869
L29806 23906
L29844 23944
L29881 24019
L29881 24319
" />
<path d="M29544 23569
L29506 23531
L29469 23456
L29469 23269
L29506 23194
L29544 23156
L29619 23119
L29694 23119
L29806 23156
L30256 23606
L30256 23119
" />
<path d="M30733 17726
L30696 17763
L30583 17801
L30508 17801
L30396 17763
L30321 17688
L30283 17613
L30246 17463
L30246 17351
L30283 17201
L30321 17126
L30396 17051
L30508 17013
L30583 17013
L30696 17051
L30733 17088
" />
<path d="M31408 17276
L31408 17801
" />
<path d="M31221 16976
L31033 17538
L31521 17538
" />
<path d="M79321 38176
L78947 38438
" />
<path d="M79321 38626
L78534 38626
L78534 38326
L78572 38251
L78609 38213
L78684 38176
L78797 38176
L78872 38213
L78909 38251
L78947 38326
L78947 38626
" />
<path d="M79321 37801
L79321 37651
L79284 37576
L79247 37538
L79134 37463
L78984 37426
L78684 37426
L78609 37463
L78572 37501
L78534 37576
L78534 37726
L78572 37801
L78609 37838
L78684 37876
L78872 37876
L78947 37838
L78984 37801
L79022 37726
L79022 37576
L78984 37501
L78947 37463
L78872 37426
" />
</g> 
</svg>
