<?xml version="1.0" standalone="no"?>
 <!DOCTYPE svg PUBLIC "-//W3C//DTD SVG 1.1//EN" 
 "http://www.w3.org/Graphics/SVG/1.1/DTD/svg11.dtd"> 
<svg xmlns="http://www.w3.org/2000/svg" version="1.1" 
    width="29.7002cm" height="21.0007cm" viewBox="0 0 116930 82680 ">
<title>SVG Picture created as ThermocoupleLogger-Cmts_User.svg date 2019/03/15 17:47:59 </title>
  <desc>Picture generated by PCBNEW </desc>
<g style="fill:#000000; fill-opacity:1;stroke:#000000; stroke-opacity:1;
stroke-linecap:round; stroke-linejoin:round; "
 transform="translate(0 0) scale(1 1)">
</g>
<g style="fill:#000000; fill-opacity:0.0; 
stroke:#000000; stroke-width:-0.000787402; stroke-opacity:1; 
stroke-linecap:round; stroke-linejoin:round;">
</g>
<g style="fill:#000000; fill-opacity:0.0; 
stroke:#000000; stroke-width:78.7402; stroke-opacity:1; 
stroke-linecap:round; stroke-linejoin:round;">
<path d="M93465 12845
L93465 73345
" />
<path d="M23465 68963
L23465 68963
" />
<path d="M23465 12845
L93465 12845
" />
<path d="M23465 73345
L93465 73345
" />
<path d="M23465 12845
L23465 73345
" />
<path d="M23465 13845
L23465 13845
" />
</g>
<g style="fill:#000000; fill-opacity:0.0; 
stroke:#000000; stroke-width:39.3701; stroke-opacity:1; 
stroke-linecap:round; stroke-linejoin:round;">
<path d="M67517 13034
L65942 13034
" />
<path d="M65942 13034
L65155 13821
" />
<path d="M65155 13821
L57281 13821
" />
<path d="M57281 13821
L56494 13034
" />
<path d="M56494 13034
L53344 13034
" />
<path d="M37502 37234
L37502 37037
L37615 37234
L37615 37037
" />
<path d="M37746 37037
L37783 37037
L37802 37046
L37821 37065
L37830 37102
L37830 37168
L37821 37206
L37802 37224
L37783 37234
L37746 37234
L37727 37224
L37708 37206
L37699 37168
L37699 37102
L37708 37065
L37727 37046
L37746 37037
" />
<path d="M38177 37234
L38111 37140
" />
<path d="M38065 37234
L38065 37037
L38140 37037
L38158 37046
L38168 37056
L38177 37074
L38177 37102
L38168 37121
L38158 37131
L38140 37140
L38065 37140
" />
<path d="M38299 37037
L38336 37037
L38355 37046
L38374 37065
L38383 37102
L38383 37168
L38374 37206
L38355 37224
L38336 37234
L38299 37234
L38280 37224
L38261 37206
L38252 37168
L38252 37102
L38261 37065
L38280 37046
L38299 37037
" />
<path d="M38468 37037
L38468 37196
L38477 37215
L38486 37224
L38505 37234
L38543 37234
L38561 37224
L38571 37215
L38580 37196
L38580 37037
" />
<path d="M38646 37037
L38758 37037
" />
<path d="M38702 37234
L38702 37037
" />
<path d="M38824 37234
L38824 37037
" />
<path d="M38918 37234
L38918 37037
L39030 37234
L39030 37037
" />
<path d="M39227 37046
L39208 37037
L39180 37037
L39152 37046
L39133 37065
L39124 37084
L39114 37121
L39114 37149
L39124 37187
L39133 37206
L39152 37224
L39180 37234
L39199 37234
L39227 37224
L39236 37215
L39236 37149
L39199 37149
" />
<path d="M33754 36357
L33623 36357
L33623 36082
" />
<path d="M33898 36082
L33951 36082
L33977 36095
L34003 36121
L34016 36174
L34016 36265
L34003 36318
L33977 36344
L33951 36357
L33898 36357
L33872 36344
L33846 36318
L33833 36265
L33833 36174
L33846 36121
L33872 36095
L33898 36082
" />
<path d="M34292 36331
L34279 36344
L34240 36357
L34213 36357
L34174 36344
L34148 36318
L34135 36292
L34121 36239
L34121 36200
L34135 36147
L34148 36121
L34174 36095
L34213 36082
L34240 36082
L34279 36095
L34292 36108
" />
<path d="M34397 36279
L34528 36279
" />
<path d="M34371 36357
L34463 36082
L34555 36357
" />
<path d="M34778 36357
L34646 36357
L34646 36082
" />
<path d="M33544 36633
L33518 36620
L33478 36620
L33439 36633
L33413 36659
L33400 36685
L33387 36738
L33387 36777
L33400 36830
L33413 36856
L33439 36882
L33478 36895
L33505 36895
L33544 36882
L33557 36869
L33557 36777
L33505 36777
" />
<path d="M33833 36895
L33741 36764
" />
<path d="M33675 36895
L33675 36620
L33780 36620
L33806 36633
L33820 36646
L33833 36672
L33833 36712
L33820 36738
L33806 36751
L33780 36764
L33675 36764
" />
<path d="M34003 36620
L34056 36620
L34082 36633
L34108 36659
L34121 36712
L34121 36803
L34108 36856
L34082 36882
L34056 36895
L34003 36895
L33977 36882
L33951 36856
L33938 36803
L33938 36712
L33951 36659
L33977 36633
L34003 36620
" />
<path d="M34240 36620
L34240 36843
L34253 36869
L34266 36882
L34292 36895
L34345 36895
L34371 36882
L34384 36869
L34397 36843
L34397 36620
" />
<path d="M34528 36895
L34528 36620
L34686 36895
L34686 36620
" />
<path d="M34817 36895
L34817 36620
L34883 36620
L34922 36633
L34948 36659
L34961 36685
L34974 36738
L34974 36777
L34961 36830
L34948 36856
L34922 36882
L34883 36895
L34817 36895
" />
<path d="M33566 37419
L33566 37144
L33671 37144
L33697 37157
L33710 37170
L33723 37196
L33723 37236
L33710 37262
L33697 37275
L33671 37288
L33566 37288
" />
<path d="M33972 37419
L33841 37419
L33841 37144
" />
<path d="M34051 37341
L34182 37341
" />
<path d="M34025 37419
L34117 37144
L34209 37419
" />
<path d="M34301 37419
L34301 37144
L34458 37419
L34458 37144
" />
<path d="M34589 37275
L34681 37275
" />
<path d="M34720 37419
L34589 37419
L34589 37144
L34720 37144
" />
</g> 
</svg>
