<?xml version="1.0" standalone="no"?>
 <!DOCTYPE svg PUBLIC "-//W3C//DTD SVG 1.1//EN" 
 "http://www.w3.org/Graphics/SVG/1.1/DTD/svg11.dtd"> 
<svg xmlns="http://www.w3.org/2000/svg" version="1.1" 
    width="29.7002cm" height="21.0007cm" viewBox="0 0 116930 82680 ">
<title>SVG Picture created as ThermocoupleLogger-F_CrtYd.svg date 2019/03/15 17:47:59 </title>
  <desc>Picture generated by PCBNEW </desc>
<g style="fill:#000000; fill-opacity:1;stroke:#000000; stroke-opacity:1;
stroke-linecap:round; stroke-linejoin:round; "
 transform="translate(0 0) scale(1 1)">
</g>
<g style="fill:#000000; fill-opacity:0.0; 
stroke:#000000; stroke-width:-0.000787402; stroke-opacity:1; 
stroke-linecap:round; stroke-linejoin:round;">
</g>
<g style="fill:#000000; fill-opacity:0.0; 
stroke:#000000; stroke-width:78.7402; stroke-opacity:1; 
stroke-linecap:round; stroke-linejoin:round;">
<path d="M93465 12845
L93465 73345
" />
<path d="M23465 68963
L23465 68963
" />
<path d="M23465 12845
L93465 12845
" />
<path d="M23465 73345
L93465 73345
" />
<path d="M23465 12845
L23465 73345
" />
<path d="M23465 13845
L23465 13845
" />
</g>
<g style="fill:#000000; fill-opacity:0.0; 
stroke:#000000; stroke-width:39.3701; stroke-opacity:1; 
stroke-linecap:round; stroke-linejoin:round;">
<path d="M42390 35701
L42390 40189
" />
<path d="M42390 40189
L35539 40189
" />
<path d="M35539 40189
L35539 35701
" />
<path d="M35539 35701
L42390 35701
" />
<path d="M66533 13034
L66533 15790
" />
<path d="M66533 15790
L67320 15790
" />
<path d="M67320 15790
L67320 17955
" />
<path d="M67320 17955
L66533 17955
" />
<path d="M66533 17955
L66533 23664
" />
<path d="M66533 23664
L67320 23664
" />
<path d="M67320 23664
L67320 25238
" />
<path d="M67320 25238
L66139 25238
" />
<path d="M66139 25238
L66139 25632
" />
<path d="M66139 25632
L58265 25632
" />
<path d="M58265 25632
L58265 24648
" />
<path d="M58265 24648
L55903 24648
" />
<path d="M55903 24648
L55903 25238
" />
<path d="M55903 25238
L54131 25238
" />
<path d="M54131 25238
L54131 23664
" />
<path d="M54131 23664
L54328 23664
" />
<path d="M54328 23664
L54328 17955
" />
<path d="M54328 17955
L53541 17955
" />
<path d="M53541 17955
L53541 15790
" />
<path d="M53541 15790
L54328 15790
" />
<path d="M54328 15790
L54328 13034
" />
<path d="M45724 12745
L53205 12745
" />
<path d="M45724 19832
L45724 12745
" />
<path d="M44150 19832
L45724 19832
" />
<path d="M44150 22982
L44150 19832
" />
<path d="M45724 22982
L44150 22982
" />
<path d="M45724 24556
L45724 22982
" />
<path d="M47890 24556
L45724 24556
" />
<path d="M47890 25344
L47890 24556
" />
<path d="M51039 25344
L47890 25344
" />
<path d="M51039 24556
L51039 25344
" />
<path d="M53008 24556
L51039 24556
" />
<path d="M53205 24556
L53205 12745
" />
<path d="M53008 24556
L53205 24556
" />
<path d="M26218 43316
L32911 43316
" />
<path d="M26218 40364
L26218 43316
" />
<path d="M32911 40364
L26218 40364
" />
<path d="M32911 43316
L32911 40364
" />
<path d="M75114 55365
L82831 55365
" />
<path d="M75114 40916
L75114 55365
" />
<path d="M82831 40916
L75114 40916
" />
<path d="M82831 55365
L82831 40916
" />
<path d="M52927 29785
L42802 29785
" />
<path d="M52927 32304
L52927 29785
" />
<path d="M42802 32304
L52927 32304
" />
<path d="M42802 29785
L42802 32304
" />
<path d="M53965 32429
L53965 26917
" />
<path d="M54162 26720
L61249 26720
" />
<path d="M61446 26917
L61446 32429
" />
<path d="M61249 32626
L54162 32626
" />
<path d="M61446 26720
L61249 26720
" />
<path d="M61446 26917
L61446 26720
" />
<path d="M61446 32626
L61249 32626
" />
<path d="M61446 32429
L61446 32626
" />
<path d="M53965 32626
L53965 32429
" />
<path d="M54162 32626
L53965 32626
" />
<path d="M53965 26720
L53965 26917
" />
<path d="M54162 26720
L53965 26720
" />
<path d="M67583 19272
L67583 13760
" />
<path d="M67780 13564
L74867 13564
" />
<path d="M75064 13760
L75064 19272
" />
<path d="M74867 19469
L67780 19469
" />
<path d="M75064 13564
L74867 13564
" />
<path d="M75064 13760
L75064 13564
" />
<path d="M75064 19469
L74867 19469
" />
<path d="M75064 19272
L75064 19469
" />
<path d="M67583 19469
L67583 19272
" />
<path d="M67780 19469
L67583 19469
" />
<path d="M67583 13564
L67583 13760
" />
<path d="M67780 13564
L67583 13564
" />
<path d="M73539 39662
L78382 39662
" />
<path d="M73539 32851
L73539 39662
" />
<path d="M78382 32851
L73539 32851
" />
<path d="M78382 39662
L78382 32851
" />
<path d="M26199 49689
L40687 49689
" />
<path d="M26199 44374
L26199 49689
" />
<path d="M40687 44374
L26199 44374
" />
<path d="M40687 49689
L40687 44374
" />
<path d="M30730 33509
L36399 33509
" />
<path d="M36399 33509
L36399 26580
" />
<path d="M36399 26580
L30730 26580
" />
<path d="M30730 26580
L30730 33509
" />
<path d="M38538 27134
L38538 27961
" />
<path d="M40191 27134
L38538 27134
" />
<path d="M40191 27961
L40191 27134
" />
<path d="M38538 27961
L37987 27961
" />
<path d="M40742 27961
L40191 27961
" />
<path d="M40742 27961
L41648 28867
" />
<path d="M37987 27961
L37081 28867
" />
<path d="M41648 28867
L41648 32528
" />
<path d="M37081 28867
L37081 32528
" />
<path d="M38538 32528
L37081 32528
" />
<path d="M38538 33355
L38538 32528
" />
<path d="M40191 33355
L38538 33355
" />
<path d="M40191 32528
L40191 33355
" />
<path d="M41648 32528
L40191 32528
" />
<path d="M31087 18011
L31087 26278
" />
<path d="M34953 18011
L31087 18011
" />
<path d="M34953 26278
L34953 18011
" />
<path d="M31087 26278
L34953 26278
" />
<path d="M39556 16906
L42973 16906
" />
<path d="M39556 16906
L39556 19583
" />
<path d="M42973 19583
L42973 16906
" />
<path d="M42973 19583
L39556 19583
" />
<path d="M29373 72589
L35987 72589
" />
<path d="M29373 67274
L29373 72589
" />
<path d="M35987 67274
L29373 67274
" />
<path d="M35987 72589
L35987 67274
" />
<path d="M36373 72589
L42987 72589
" />
<path d="M36373 67274
L36373 72589
" />
<path d="M42987 67274
L36373 67274
" />
<path d="M42987 72589
L42987 67274
" />
<path d="M43373 72589
L49987 72589
" />
<path d="M43373 67274
L43373 72589
" />
<path d="M49987 67274
L43373 67274
" />
<path d="M49987 72589
L49987 67274
" />
<path d="M50373 72589
L56987 72589
" />
<path d="M50373 67274
L50373 72589
" />
<path d="M56987 67274
L50373 67274
" />
<path d="M56987 72589
L56987 67274
" />
<path d="M57373 72589
L63987 72589
" />
<path d="M57373 67274
L57373 72589
" />
<path d="M63987 67274
L57373 67274
" />
<path d="M63987 72589
L63987 67274
" />
<path d="M64342 72589
L70956 72589
" />
<path d="M64342 67274
L64342 72589
" />
<path d="M70956 67274
L64342 67274
" />
<path d="M70956 72589
L70956 67274
" />
<path d="M71342 72589
L77956 72589
" />
<path d="M71342 67274
L71342 72589
" />
<path d="M77956 67274
L71342 67274
" />
<path d="M77956 72589
L77956 67274
" />
<path d="M78342 72589
L84956 72589
" />
<path d="M78342 67274
L78342 72589
" />
<path d="M84956 67274
L78342 67274
" />
<path d="M84956 72589
L84956 67274
" />
<path d="M43909 26667
L43909 20053
" />
<path d="M38594 26667
L43909 26667
" />
<path d="M38594 20053
L38594 26667
" />
<path d="M43909 20053
L38594 20053
" />
<circle cx="34365" cy="36897.1" r="1535.43" /> 
<path d="M43444 33194
L43444 40911
" />
<path d="M71869 33194
L43444 33194
" />
<path d="M71869 40911
L71869 33194
" />
<path d="M43444 40911
L71869 40911
" />
<path d="M71685 59779
L71685 46118
" />
<path d="M43260 59779
L71685 59779
" />
<path d="M43260 46118
L43260 59779
" />
<path d="M71685 46118
L43260 46118
" />
<path d="M56850 45649
L66220 45649
" />
<path d="M56850 41240
L56850 45649
" />
<path d="M66220 41240
L56850 41240
" />
<path d="M66220 45649
L66220 41240
" />
<path d="M36316 23641
L37813 23641
" />
<path d="M37813 23641
L37813 21122
" />
<path d="M36316 21122
L37813 21122
" />
<path d="M36316 23641
L36316 21122
" />
<path d="M73059 28895
L74870 28895
" />
<path d="M74870 25194
L74870 28895
" />
<path d="M73059 25194
L74870 25194
" />
<path d="M73059 28895
L73059 25194
" />
<path d="M70159 28895
L71970 28895
" />
<path d="M71970 25194
L71970 28895
" />
<path d="M70159 25194
L71970 25194
" />
<path d="M70159 28895
L70159 25194
" />
<path d="M67439 28895
L69250 28895
" />
<path d="M69250 25194
L69250 28895
" />
<path d="M67439 25194
L69250 25194
" />
<path d="M67439 28895
L67439 25194
" />
<path d="M35887 44293
L33242 44293
" />
<path d="M35887 42797
L35887 44293
" />
<path d="M33242 42797
L35887 42797
" />
<path d="M33242 44293
L33242 42797
" />
<path d="M35887 42543
L33242 42543
" />
<path d="M35887 41047
L35887 42543
" />
<path d="M33242 41047
L35887 41047
" />
<path d="M33242 42543
L33242 41047
" />
<path d="M50416 44967
L50416 42322
" />
<path d="M51913 44967
L50416 44967
" />
<path d="M51913 42322
L51913 44967
" />
<path d="M50416 42322
L51913 42322
" />
<path d="M39013 16922
L39013 19567
" />
<path d="M37516 16922
L39013 16922
" />
<path d="M37516 19567
L37516 16922
" />
<path d="M39013 19567
L37516 19567
" />
<path d="M67313 30022
L67313 32667
" />
<path d="M65816 30022
L67313 30022
" />
<path d="M65816 32667
L65816 30022
" />
<path d="M67313 32667
L65816 32667
" />
<path d="M63613 26022
L63613 28667
" />
<path d="M62116 26022
L63613 26022
" />
<path d="M62116 28667
L62116 26022
" />
<path d="M63613 28667
L62116 28667
" />
<path d="M69713 30022
L69713 32667
" />
<path d="M68216 30022
L69713 30022
" />
<path d="M68216 32667
L68216 30022
" />
<path d="M69713 32667
L68216 32667
" />
<path d="M28642 36097
L31287 36097
" />
<path d="M28642 37593
L28642 36097
" />
<path d="M31287 37593
L28642 37593
" />
<path d="M31287 36097
L31287 37593
" />
<path d="M62413 64022
L62413 66667
" />
<path d="M60916 64022
L62413 64022
" />
<path d="M60916 66667
L60916 64022
" />
<path d="M62413 66667
L60916 66667
" />
<path d="M72916 66667
L72916 64022
" />
<path d="M74413 66667
L72916 66667
" />
<path d="M74413 64022
L74413 66667
" />
<path d="M72916 64022
L74413 64022
" />
<path d="M34413 63982
L34413 66627
" />
<path d="M32916 63982
L34413 63982
" />
<path d="M32916 66627
L32916 63982
" />
<path d="M34413 66627
L32916 66627
" />
<path d="M30956 66627
L30956 63982
" />
<path d="M32453 66627
L30956 66627
" />
<path d="M32453 63982
L32453 66627
" />
<path d="M30956 63982
L32453 63982
" />
<path d="M37916 66667
L37916 64022
" />
<path d="M39413 66667
L37916 66667
" />
<path d="M39413 64022
L39413 66667
" />
<path d="M37916 64022
L39413 64022
" />
<path d="M44916 66667
L44916 64022
" />
<path d="M46413 66667
L44916 66667
" />
<path d="M46413 64022
L46413 66667
" />
<path d="M44916 64022
L46413 64022
" />
<path d="M51916 66667
L51916 64022
" />
<path d="M53413 66667
L51916 66667
" />
<path d="M53413 64022
L53413 66667
" />
<path d="M51916 64022
L53413 64022
" />
<path d="M58916 66667
L58916 64022
" />
<path d="M60413 66667
L58916 66667
" />
<path d="M60413 64022
L60413 66667
" />
<path d="M58916 64022
L60413 64022
" />
<path d="M65916 66667
L65916 64022
" />
<path d="M67413 66667
L65916 66667
" />
<path d="M67413 64022
L67413 66667
" />
<path d="M65916 64022
L67413 64022
" />
<path d="M79916 66667
L79916 64022
" />
<path d="M81413 66667
L79916 66667
" />
<path d="M81413 64022
L81413 66667
" />
<path d="M79916 64022
L81413 64022
" />
<path d="M41413 64022
L41413 66667
" />
<path d="M39916 64022
L41413 64022
" />
<path d="M39916 66667
L39916 64022
" />
<path d="M41413 66667
L39916 66667
" />
<path d="M48413 64022
L48413 66667
" />
<path d="M46916 64022
L48413 64022
" />
<path d="M46916 66667
L46916 64022
" />
<path d="M48413 66667
L46916 66667
" />
<path d="M55413 64022
L55413 66667
" />
<path d="M53916 64022
L55413 64022
" />
<path d="M53916 66667
L53916 64022
" />
<path d="M55413 66667
L53916 66667
" />
<path d="M69413 64022
L69413 66667
" />
<path d="M67916 64022
L69413 64022
" />
<path d="M67916 66667
L67916 64022
" />
<path d="M69413 66667
L67916 66667
" />
<path d="M76413 64022
L76413 66667
" />
<path d="M74916 64022
L76413 64022
" />
<path d="M74916 66667
L74916 64022
" />
<path d="M76413 66667
L74916 66667
" />
<path d="M83413 64022
L83413 66667
" />
<path d="M81916 64022
L83413 64022
" />
<path d="M81916 66667
L81916 64022
" />
<path d="M83413 66667
L81916 66667
" />
<path d="M33987 63693
L31342 63693
" />
<path d="M33987 62197
L33987 63693
" />
<path d="M31342 62197
L33987 62197
" />
<path d="M31342 63693
L31342 62197
" />
<path d="M68987 63693
L66342 63693
" />
<path d="M68987 62197
L68987 63693
" />
<path d="M66342 62197
L68987 62197
" />
<path d="M66342 63693
L66342 62197
" />
<path d="M61987 63693
L59342 63693
" />
<path d="M61987 62197
L61987 63693
" />
<path d="M59342 62197
L61987 62197
" />
<path d="M59342 63693
L59342 62197
" />
<path d="M40987 63693
L38342 63693
" />
<path d="M40987 62197
L40987 63693
" />
<path d="M38342 62197
L40987 62197
" />
<path d="M38342 63693
L38342 62197
" />
<path d="M47987 63693
L45342 63693
" />
<path d="M47987 62197
L47987 63693
" />
<path d="M45342 62197
L47987 62197
" />
<path d="M45342 63693
L45342 62197
" />
<path d="M54987 63693
L52342 63693
" />
<path d="M54987 62197
L54987 63693
" />
<path d="M52342 62197
L54987 62197
" />
<path d="M52342 63693
L52342 62197
" />
<path d="M75987 63693
L73342 63693
" />
<path d="M75987 62197
L75987 63693
" />
<path d="M73342 62197
L75987 62197
" />
<path d="M73342 63693
L73342 62197
" />
<path d="M82987 63693
L80342 63693
" />
<path d="M82987 62197
L82987 63693
" />
<path d="M80342 62197
L82987 62197
" />
<path d="M80342 63693
L80342 62197
" />
<path d="M37542 14697
L40187 14697
" />
<path d="M37542 16193
L37542 14697
" />
<path d="M40187 16193
L37542 16193
" />
<path d="M40187 14697
L40187 16193
" />
<path d="M53916 44767
L53916 42122
" />
<path d="M55413 44767
L53916 44767
" />
<path d="M55413 42122
L55413 44767
" />
<path d="M53916 42122
L55413 42122
" />
<path d="M73216 54467
L73216 51822
" />
<path d="M74713 54467
L73216 54467
" />
<path d="M74713 51822
L74713 54467
" />
<path d="M73216 51822
L74713 51822
" />
<path d="M31287 35593
L28642 35593
" />
<path d="M31287 34097
L31287 35593
" />
<path d="M28642 34097
L31287 34097
" />
<path d="M28642 35593
L28642 34097
" />
<path d="M67716 44567
L67716 41922
" />
<path d="M69213 44567
L67716 44567
" />
<path d="M69213 41922
L69213 44567
" />
<path d="M67716 41922
L69213 41922
" />
<path d="M29349 29013
L29349 18462
" />
<path d="M24034 29013
L29349 29013
" />
<path d="M24034 18462
L24034 29013
" />
<path d="M29349 18462
L24034 18462
" />
<path d="M31427 16671
L32175 16671
" />
<path d="M31427 15018
L31427 16671
" />
<path d="M32175 15018
L31427 15018
" />
<path d="M32175 16671
L32175 16829
" />
<path d="M32175 14860
L32175 15018
" />
<path d="M32175 14860
L33080 13955
" />
<path d="M32175 16829
L33080 17734
" />
<path d="M33080 13955
L35954 13955
" />
<path d="M33080 17734
L35954 17734
" />
<path d="M35954 16671
L35954 17734
" />
<path d="M36702 16671
L35954 16671
" />
<path d="M36702 15018
L36702 16671
" />
<path d="M35954 15018
L36702 15018
" />
<path d="M35954 13955
L35954 15018
" />
<path d="M81013 36722
L81013 39367
" />
<path d="M79516 36722
L81013 36722
" />
<path d="M79516 39367
L79516 36722
" />
<path d="M81013 39367
L79516 39367
" />
</g> 
</svg>
