<?xml version="1.0" standalone="no"?>
 <!DOCTYPE svg PUBLIC "-//W3C//DTD SVG 1.1//EN" 
 "http://www.w3.org/Graphics/SVG/1.1/DTD/svg11.dtd"> 
<svg xmlns="http://www.w3.org/2000/svg" version="1.1" 
    width="29.7002cm" height="21.0007cm" viewBox="0 0 116930 82680 ">
<title>SVG Picture created as ThermocoupleLogger-B_Fab.svg date 2019/03/15 17:47:59 </title>
  <desc>Picture generated by PCBNEW </desc>
<g style="fill:#000000; fill-opacity:1;stroke:#000000; stroke-opacity:1;
stroke-linecap:round; stroke-linejoin:round; "
 transform="translate(0 0) scale(1 1)">
</g>
<g style="fill:#000000; fill-opacity:0.0; 
stroke:#000000; stroke-width:-0.000787402; stroke-opacity:1; 
stroke-linecap:round; stroke-linejoin:round;">
</g>
<g style="fill:#000000; fill-opacity:0.0; 
stroke:#000000; stroke-width:78.7402; stroke-opacity:1; 
stroke-linecap:round; stroke-linejoin:round;">
<path d="M23465 12845
L23465 73345
" />
<path d="M93465 68963
L93465 68963
" />
<path d="M93465 12845
L23465 12845
" />
<path d="M93465 73345
L23465 73345
" />
<path d="M93465 12845
L93465 73345
" />
<path d="M93465 13845
L93465 13845
" />
<path d="M92637.4 60928.6 A314.961 314.961 0.0 0 0 92952.4 60613.6 " />
<path d="M92952.4 56676.6 A314.961 314.961 0.0 0 0 92637.4 56361.7 " />
<path d="M91298 59668
L91298 57621
" />
<path d="M78543 57621.5 A1023.62 1023.62 0.0 0 0 78543 59668.7 " />
<path d="M88543 60928.6 A708.661 708.661 0.0 0 0 87877 61394.9 " />
<path d="M78542 59668
L91298 59668
" />
<path d="M91298 57621
L78542 57621
" />
<path d="M92952 60613
L92952 56676
" />
<path d="M92637 56361
L88518 56361
" />
<path d="M88518 60928
L92637 60928
" />
<path d="M71456.3 57621.5 A7940.27 7940.27 0.0 0 0 87204.4 59668.7 " />
<path d="M74344.9 58484.8 A4988.05 4988.05 0.0 0 0 84212.2 59668.7 " />
<path d="M77522.9 58506.7 A1812.73 1812.73 0.0 0 0 80826.4 59668.7 " />
<path d="M72738 64725
L73478 64045
" />
<path d="M72738 52565
L73458 53225
" />
<path d="M80826.4 57621.5 A1812.73 1812.73 0.0 0 0 77522.9 58783.6 " />
<path d="M84212.2 57621.5 A4988.05 4988.05 0.0 0 0 74344.9 58805.5 " />
<path d="M87204.4 57621.5 A7940.27 7940.27 0.0 0 0 71456.3 59668.7 " />
<path d="M70353.7 58585.8 A8976.81 8976.81 0.0 0 0 87873.7 61401 " />
<path d="M87873.7 55889.2 A8976.81 8976.81 0.0 0 0 70353.7 58704.4 " />
<path d="M87877 55895.4 A708.661 708.661 0.0 0 0 88543 56361.7 " />
</g>
<g style="fill:#000000; fill-opacity:0.0; 
stroke:#000000; stroke-width:118.11; stroke-opacity:1; 
stroke-linecap:round; stroke-linejoin:round;">
<path d="M77856 48352
L77969 48390
L78006 48427
L78044 48502
L78044 48615
L78006 48690
L77969 48727
L77894 48765
L77594 48765
L77594 47977
L77856 47977
L77931 48015
L77969 48052
L78006 48127
L78006 48202
L77969 48277
L77931 48315
L77856 48352
L77594 48352
" />
<path d="M78719 48765
L78719 48352
L78681 48277
L78606 48240
L78456 48240
L78381 48277
" />
<path d="M78719 48727
L78644 48765
L78456 48765
L78381 48727
L78344 48652
L78344 48577
L78381 48502
L78456 48465
L78644 48465
L78719 48427
" />
<path d="M78981 48240
L79281 48240
" />
<path d="M79094 47977
L79094 48652
L79131 48727
L79206 48765
L79281 48765
" />
<path d="M79431 48240
L79731 48240
" />
<path d="M79544 47977
L79544 48652
L79581 48727
L79656 48765
L79731 48765
" />
<path d="M80293 48727
L80218 48765
L80069 48765
L79994 48727
L79956 48652
L79956 48352
L79994 48277
L80069 48240
L80218 48240
L80293 48277
L80331 48352
L80331 48427
L79956 48502
" />
<path d="M80668 48765
L80668 48240
" />
<path d="M80668 48390
L80706 48315
L80743 48277
L80818 48240
L80893 48240
" />
<path d="M81081 48240
L81268 48765
" />
<path d="M81456 48240
L81268 48765
L81193 48952
L81156 48990
L81081 49027
" />
<path d="M90680 58588
L90792 58626
L90830 58663
L90867 58738
L90867 58851
L90830 58926
L90792 58963
L90717 59001
L90417 59001
L90417 58213
L90680 58213
L90755 58251
L90792 58288
L90830 58363
L90830 58438
L90792 58513
L90755 58551
L90680 58588
L90417 58588
" />
<path d="M91092 58213
L91542 58213
" />
<path d="M91317 59001
L91317 58213
" />
<path d="M91767 58288
L91805 58251
L91880 58213
L92067 58213
L92142 58251
L92179 58288
L92217 58363
L92217 58438
L92179 58551
L91730 59001
L92217 59001
" />
</g> 
</svg>
