<?xml version="1.0" standalone="no"?>
 <!DOCTYPE svg PUBLIC "-//W3C//DTD SVG 1.1//EN" 
 "http://www.w3.org/Graphics/SVG/1.1/DTD/svg11.dtd"> 
<svg xmlns="http://www.w3.org/2000/svg" version="1.1" 
    width="29.7002cm" height="21.0007cm" viewBox="0 0 116930 82680 ">
<title>SVG Picture created as ThermocoupleLogger-F_CrtYd.svg date 2019/03/15 17:49:43 </title>
  <desc>Picture generated by PCBNEW </desc>
<g style="fill:#000000; fill-opacity:1;stroke:#000000; stroke-opacity:1;
stroke-linecap:round; stroke-linejoin:round; "
 transform="translate(0 0) scale(1 1)">
</g>
<g style="fill:#000000; fill-opacity:0.0; 
stroke:#000000; stroke-width:-0.000787402; stroke-opacity:1; 
stroke-linecap:round; stroke-linejoin:round;">
</g>
<g style="fill:#000000; fill-opacity:0.0; 
stroke:#000000; stroke-width:78.7402; stroke-opacity:1; 
stroke-linecap:round; stroke-linejoin:round;">
<path d="M93465 12875
L93465 73375
" />
<path d="M23465 68993
L23465 68993
" />
<path d="M23465 12875
L93465 12875
" />
<path d="M23465 73375
L93465 73375
" />
<path d="M23465 12875
L23465 73375
" />
<path d="M23465 13875
L23465 13875
" />
</g>
<g style="fill:#000000; fill-opacity:0.0; 
stroke:#000000; stroke-width:39.3701; stroke-opacity:1; 
stroke-linecap:round; stroke-linejoin:round;">
<path d="M53008 24587
L53205 24587
" />
<path d="M53205 24587
L53205 12776
" />
<path d="M53008 24587
L51039 24587
" />
<path d="M51039 24587
L51039 25374
" />
<path d="M51039 25374
L47890 25374
" />
<path d="M47890 25374
L47890 24587
" />
<path d="M47890 24587
L45724 24587
" />
<path d="M45724 24587
L45724 23012
" />
<path d="M45724 23012
L44150 23012
" />
<path d="M44150 23012
L44150 19862
" />
<path d="M44150 19862
L45724 19862
" />
<path d="M45724 19862
L45724 12776
" />
<path d="M45724 12776
L53205 12776
" />
<path d="M36373 72619
L42987 72619
" />
<path d="M36373 67304
L36373 72619
" />
<path d="M42987 67304
L36373 67304
" />
<path d="M42987 72619
L42987 67304
" />
<path d="M43373 72619
L49987 72619
" />
<path d="M43373 67304
L43373 72619
" />
<path d="M49987 67304
L43373 67304
" />
<path d="M49987 72619
L49987 67304
" />
<path d="M50373 72619
L56987 72619
" />
<path d="M50373 67304
L50373 72619
" />
<path d="M56987 67304
L50373 67304
" />
<path d="M56987 72619
L56987 67304
" />
<path d="M57373 72619
L63987 72619
" />
<path d="M57373 67304
L57373 72619
" />
<path d="M63987 67304
L57373 67304
" />
<path d="M63987 72619
L63987 67304
" />
<path d="M64342 72619
L70956 72619
" />
<path d="M64342 67304
L64342 72619
" />
<path d="M70956 67304
L64342 67304
" />
<path d="M70956 72619
L70956 67304
" />
<path d="M71342 72619
L77956 72619
" />
<path d="M71342 67304
L71342 72619
" />
<path d="M77956 67304
L71342 67304
" />
<path d="M77956 72619
L77956 67304
" />
<path d="M78342 72619
L84956 72619
" />
<path d="M78342 67304
L78342 72619
" />
<path d="M84956 67304
L78342 67304
" />
<path d="M84956 72619
L84956 67304
" />
<circle cx="34365" cy="36927.4" r="1338.58" /> 
<path d="M29373 72619
L35987 72619
" />
<path d="M29373 67304
L29373 72619
" />
<path d="M35987 67304
L29373 67304
" />
<path d="M35987 72619
L35987 67304
" />
<path d="M35539 35731
L42390 35731
" />
<path d="M35539 40219
L35539 35731
" />
<path d="M42390 40219
L35539 40219
" />
<path d="M42390 35731
L42390 40219
" />
<path d="M41648 32558
L40191 32558
" />
<path d="M40191 32558
L40191 33188
" />
<path d="M40191 33188
L38538 33188
" />
<path d="M38538 33188
L38538 32558
" />
<path d="M38538 32558
L37081 32558
" />
<path d="M37081 28897
L37081 32558
" />
<path d="M41648 28897
L41648 32558
" />
<path d="M37987 27991
L37081 28897
" />
<path d="M40742 27991
L41648 28897
" />
<path d="M40742 27991
L40191 27991
" />
<path d="M38538 27991
L37987 27991
" />
<path d="M40191 27991
L40191 27362
" />
<path d="M40191 27362
L38538 27362
" />
<path d="M38538 27362
L38538 27991
" />
<path d="M43909 20084
L38594 20084
" />
<path d="M38594 20084
L38594 26698
" />
<path d="M38594 26698
L43909 26698
" />
<path d="M43909 26698
L43909 20084
" />
<path d="M40687 49719
L40687 44404
" />
<path d="M40687 44404
L26199 44404
" />
<path d="M26199 44404
L26199 49719
" />
<path d="M26199 49719
L40687 49719
" />
<path d="M66533 13064
L66533 15820
" />
<path d="M66533 15820
L67320 15820
" />
<path d="M67320 15820
L67320 17985
" />
<path d="M67320 17985
L66533 17985
" />
<path d="M66533 17985
L66533 23694
" />
<path d="M66533 23694
L67320 23694
" />
<path d="M67320 23694
L67320 25269
" />
<path d="M67320 25269
L66139 25269
" />
<path d="M66139 25269
L66139 25662
" />
<path d="M66139 25662
L58265 25662
" />
<path d="M58265 25662
L58265 24678
" />
<path d="M58265 24678
L55903 24678
" />
<path d="M55903 24678
L55903 25269
" />
<path d="M55903 25269
L54131 25269
" />
<path d="M54131 25269
L54131 23694
" />
<path d="M54131 23694
L54328 23694
" />
<path d="M54328 23694
L54328 17985
" />
<path d="M54328 17985
L53541 17985
" />
<path d="M53541 17985
L53541 15820
" />
<path d="M53541 15820
L54328 15820
" />
<path d="M54328 15820
L54328 13064
" />
<path d="M26218 43347
L32911 43347
" />
<path d="M26218 40394
L26218 43347
" />
<path d="M32911 40394
L26218 40394
" />
<path d="M32911 43347
L32911 40394
" />
<path d="M75114 55395
L82831 55395
" />
<path d="M75114 40947
L75114 55395
" />
<path d="M82831 40947
L75114 40947
" />
<path d="M82831 55395
L82831 40947
" />
<path d="M52927 29815
L42802 29815
" />
<path d="M52927 32335
L52927 29815
" />
<path d="M42802 32335
L52927 32335
" />
<path d="M42802 29815
L42802 32335
" />
<path d="M53965 32459
L53965 26947
" />
<path d="M54162 26751
L61249 26751
" />
<path d="M61446 26947
L61446 32459
" />
<path d="M61249 32656
L54162 32656
" />
<path d="M61446 26751
L61249 26751
" />
<path d="M61446 26947
L61446 26751
" />
<path d="M61446 32656
L61249 32656
" />
<path d="M61446 32459
L61446 32656
" />
<path d="M53965 32656
L53965 32459
" />
<path d="M54162 32656
L53965 32656
" />
<path d="M53965 26751
L53965 26947
" />
<path d="M54162 26751
L53965 26751
" />
<path d="M67583 19302
L67583 13791
" />
<path d="M67780 13594
L74867 13594
" />
<path d="M75064 13791
L75064 19302
" />
<path d="M74867 19499
L67780 19499
" />
<path d="M75064 13594
L74867 13594
" />
<path d="M75064 13791
L75064 13594
" />
<path d="M75064 19499
L74867 19499
" />
<path d="M75064 19302
L75064 19499
" />
<path d="M67583 19499
L67583 19302
" />
<path d="M67780 19499
L67583 19499
" />
<path d="M67583 13594
L67583 13791
" />
<path d="M67780 13594
L67583 13594
" />
<path d="M73539 39692
L78382 39692
" />
<path d="M73539 32881
L73539 39692
" />
<path d="M78382 32881
L73539 32881
" />
<path d="M78382 39692
L78382 32881
" />
<path d="M30730 33540
L36399 33540
" />
<path d="M36399 33540
L36399 26610
" />
<path d="M36399 26610
L30730 26610
" />
<path d="M30730 26610
L30730 33540
" />
<path d="M31087 18041
L31087 26309
" />
<path d="M34953 18041
L31087 18041
" />
<path d="M34953 26309
L34953 18041
" />
<path d="M31087 26309
L34953 26309
" />
<path d="M39556 16936
L42973 16936
" />
<path d="M39556 16936
L39556 19614
" />
<path d="M42973 19614
L42973 16936
" />
<path d="M42973 19614
L39556 19614
" />
<path d="M43444 33225
L43444 40941
" />
<path d="M71869 33225
L43444 33225
" />
<path d="M71869 40941
L71869 33225
" />
<path d="M43444 40941
L71869 40941
" />
<path d="M71685 59810
L71685 46148
" />
<path d="M43260 59810
L71685 59810
" />
<path d="M43260 46148
L43260 59810
" />
<path d="M71685 46148
L43260 46148
" />
<path d="M56850 45680
L66220 45680
" />
<path d="M56850 41270
L56850 45680
" />
<path d="M66220 41270
L56850 41270
" />
<path d="M66220 45680
L66220 41270
" />
<path d="M36316 23672
L37813 23672
" />
<path d="M37813 23672
L37813 21152
" />
<path d="M36316 21152
L37813 21152
" />
<path d="M36316 23672
L36316 21152
" />
<path d="M73059 28925
L74870 28925
" />
<path d="M74870 25225
L74870 28925
" />
<path d="M73059 25225
L74870 25225
" />
<path d="M73059 28925
L73059 25225
" />
<path d="M70159 28925
L71970 28925
" />
<path d="M71970 25225
L71970 28925
" />
<path d="M70159 25225
L71970 25225
" />
<path d="M70159 28925
L70159 25225
" />
<path d="M67439 28925
L69250 28925
" />
<path d="M69250 25225
L69250 28925
" />
<path d="M67439 25225
L69250 25225
" />
<path d="M67439 28925
L67439 25225
" />
<path d="M35887 44323
L33242 44323
" />
<path d="M35887 42827
L35887 44323
" />
<path d="M33242 42827
L35887 42827
" />
<path d="M33242 44323
L33242 42827
" />
<path d="M35887 42573
L33242 42573
" />
<path d="M35887 41077
L35887 42573
" />
<path d="M33242 41077
L35887 41077
" />
<path d="M33242 42573
L33242 41077
" />
<path d="M50416 44998
L50416 42352
" />
<path d="M51913 44998
L50416 44998
" />
<path d="M51913 42352
L51913 44998
" />
<path d="M50416 42352
L51913 42352
" />
<path d="M39013 16952
L39013 19598
" />
<path d="M37516 16952
L39013 16952
" />
<path d="M37516 19598
L37516 16952
" />
<path d="M39013 19598
L37516 19598
" />
<path d="M67313 30052
L67313 32698
" />
<path d="M65816 30052
L67313 30052
" />
<path d="M65816 32698
L65816 30052
" />
<path d="M67313 32698
L65816 32698
" />
<path d="M63613 26052
L63613 28698
" />
<path d="M62116 26052
L63613 26052
" />
<path d="M62116 28698
L62116 26052
" />
<path d="M63613 28698
L62116 28698
" />
<path d="M69713 30052
L69713 32698
" />
<path d="M68216 30052
L69713 30052
" />
<path d="M68216 32698
L68216 30052
" />
<path d="M69713 32698
L68216 32698
" />
<path d="M28642 36127
L31287 36127
" />
<path d="M28642 37623
L28642 36127
" />
<path d="M31287 37623
L28642 37623
" />
<path d="M31287 36127
L31287 37623
" />
<path d="M62413 64052
L62413 66698
" />
<path d="M60916 64052
L62413 64052
" />
<path d="M60916 66698
L60916 64052
" />
<path d="M62413 66698
L60916 66698
" />
<path d="M72916 66698
L72916 64052
" />
<path d="M74413 66698
L72916 66698
" />
<path d="M74413 64052
L74413 66698
" />
<path d="M72916 64052
L74413 64052
" />
<path d="M34413 64012
L34413 66658
" />
<path d="M32916 64012
L34413 64012
" />
<path d="M32916 66658
L32916 64012
" />
<path d="M34413 66658
L32916 66658
" />
<path d="M30956 66658
L30956 64012
" />
<path d="M32453 66658
L30956 66658
" />
<path d="M32453 64012
L32453 66658
" />
<path d="M30956 64012
L32453 64012
" />
<path d="M37916 66698
L37916 64052
" />
<path d="M39413 66698
L37916 66698
" />
<path d="M39413 64052
L39413 66698
" />
<path d="M37916 64052
L39413 64052
" />
<path d="M44916 66698
L44916 64052
" />
<path d="M46413 66698
L44916 66698
" />
<path d="M46413 64052
L46413 66698
" />
<path d="M44916 64052
L46413 64052
" />
<path d="M51916 66698
L51916 64052
" />
<path d="M53413 66698
L51916 66698
" />
<path d="M53413 64052
L53413 66698
" />
<path d="M51916 64052
L53413 64052
" />
<path d="M58916 66698
L58916 64052
" />
<path d="M60413 66698
L58916 66698
" />
<path d="M60413 64052
L60413 66698
" />
<path d="M58916 64052
L60413 64052
" />
<path d="M65916 66698
L65916 64052
" />
<path d="M67413 66698
L65916 66698
" />
<path d="M67413 64052
L67413 66698
" />
<path d="M65916 64052
L67413 64052
" />
<path d="M79916 66698
L79916 64052
" />
<path d="M81413 66698
L79916 66698
" />
<path d="M81413 64052
L81413 66698
" />
<path d="M79916 64052
L81413 64052
" />
<path d="M41413 64052
L41413 66698
" />
<path d="M39916 64052
L41413 64052
" />
<path d="M39916 66698
L39916 64052
" />
<path d="M41413 66698
L39916 66698
" />
<path d="M48413 64052
L48413 66698
" />
<path d="M46916 64052
L48413 64052
" />
<path d="M46916 66698
L46916 64052
" />
<path d="M48413 66698
L46916 66698
" />
<path d="M55413 64052
L55413 66698
" />
<path d="M53916 64052
L55413 64052
" />
<path d="M53916 66698
L53916 64052
" />
<path d="M55413 66698
L53916 66698
" />
<path d="M69413 64052
L69413 66698
" />
<path d="M67916 64052
L69413 64052
" />
<path d="M67916 66698
L67916 64052
" />
<path d="M69413 66698
L67916 66698
" />
<path d="M76413 64052
L76413 66698
" />
<path d="M74916 64052
L76413 64052
" />
<path d="M74916 66698
L74916 64052
" />
<path d="M76413 66698
L74916 66698
" />
<path d="M83413 64052
L83413 66698
" />
<path d="M81916 64052
L83413 64052
" />
<path d="M81916 66698
L81916 64052
" />
<path d="M83413 66698
L81916 66698
" />
<path d="M33987 63723
L31342 63723
" />
<path d="M33987 62227
L33987 63723
" />
<path d="M31342 62227
L33987 62227
" />
<path d="M31342 63723
L31342 62227
" />
<path d="M68987 63723
L66342 63723
" />
<path d="M68987 62227
L68987 63723
" />
<path d="M66342 62227
L68987 62227
" />
<path d="M66342 63723
L66342 62227
" />
<path d="M61987 63723
L59342 63723
" />
<path d="M61987 62227
L61987 63723
" />
<path d="M59342 62227
L61987 62227
" />
<path d="M59342 63723
L59342 62227
" />
<path d="M40987 63723
L38342 63723
" />
<path d="M40987 62227
L40987 63723
" />
<path d="M38342 62227
L40987 62227
" />
<path d="M38342 63723
L38342 62227
" />
<path d="M47987 63723
L45342 63723
" />
<path d="M47987 62227
L47987 63723
" />
<path d="M45342 62227
L47987 62227
" />
<path d="M45342 63723
L45342 62227
" />
<path d="M54987 63723
L52342 63723
" />
<path d="M54987 62227
L54987 63723
" />
<path d="M52342 62227
L54987 62227
" />
<path d="M52342 63723
L52342 62227
" />
<path d="M75987 63723
L73342 63723
" />
<path d="M75987 62227
L75987 63723
" />
<path d="M73342 62227
L75987 62227
" />
<path d="M73342 63723
L73342 62227
" />
<path d="M82987 63723
L80342 63723
" />
<path d="M82987 62227
L82987 63723
" />
<path d="M80342 62227
L82987 62227
" />
<path d="M80342 63723
L80342 62227
" />
<path d="M37542 14727
L40187 14727
" />
<path d="M37542 16223
L37542 14727
" />
<path d="M40187 16223
L37542 16223
" />
<path d="M40187 14727
L40187 16223
" />
<path d="M53916 44798
L53916 42152
" />
<path d="M55413 44798
L53916 44798
" />
<path d="M55413 42152
L55413 44798
" />
<path d="M53916 42152
L55413 42152
" />
<path d="M73216 54498
L73216 51852
" />
<path d="M74713 54498
L73216 54498
" />
<path d="M74713 51852
L74713 54498
" />
<path d="M73216 51852
L74713 51852
" />
<path d="M31287 35623
L28642 35623
" />
<path d="M31287 34127
L31287 35623
" />
<path d="M28642 34127
L31287 34127
" />
<path d="M28642 35623
L28642 34127
" />
<path d="M67716 44598
L67716 41952
" />
<path d="M69213 44598
L67716 44598
" />
<path d="M69213 41952
L69213 44598
" />
<path d="M67716 41952
L69213 41952
" />
<path d="M29349 29043
L29349 18492
" />
<path d="M24034 29043
L29349 29043
" />
<path d="M24034 18492
L24034 29043
" />
<path d="M29349 18492
L24034 18492
" />
<path d="M31427 16702
L32175 16702
" />
<path d="M31427 15048
L31427 16702
" />
<path d="M32175 15048
L31427 15048
" />
<path d="M32175 16702
L32175 16859
" />
<path d="M32175 14891
L32175 15048
" />
<path d="M32175 14891
L33080 13985
" />
<path d="M32175 16859
L33080 17765
" />
<path d="M33080 13985
L35954 13985
" />
<path d="M33080 17765
L35954 17765
" />
<path d="M35954 16702
L35954 17765
" />
<path d="M36702 16702
L35954 16702
" />
<path d="M36702 15048
L36702 16702
" />
<path d="M35954 15048
L36702 15048
" />
<path d="M35954 13985
L35954 15048
" />
<path d="M81013 36752
L81013 39398
" />
<path d="M79516 36752
L81013 36752
" />
<path d="M79516 39398
L79516 36752
" />
<path d="M81013 39398
L79516 39398
" />
</g> 
</svg>
