<?xml version="1.0" standalone="no"?>
 <!DOCTYPE svg PUBLIC "-//W3C//DTD SVG 1.1//EN" 
 "http://www.w3.org/Graphics/SVG/1.1/DTD/svg11.dtd"> 
<svg xmlns="http://www.w3.org/2000/svg" version="1.1" 
    width="29.7002cm" height="21.0007cm" viewBox="0 0 116930 82680 ">
<title>SVG Picture created as ThermocoupleLogger-F_SilkS.svg date 2019/03/15 17:49:43 </title>
  <desc>Picture generated by PCBNEW </desc>
<g style="fill:#000000; fill-opacity:1;stroke:#000000; stroke-opacity:1;
stroke-linecap:round; stroke-linejoin:round; "
 transform="translate(0 0) scale(1 1)">
</g>
<g style="fill:#000000; fill-opacity:0.0; 
stroke:#000000; stroke-width:-0.000787402; stroke-opacity:1; 
stroke-linecap:round; stroke-linejoin:round;">
</g>
<g style="fill:#000000; fill-opacity:0.0; 
stroke:#000000; stroke-width:78.7402; stroke-opacity:1; 
stroke-linecap:round; stroke-linejoin:round;">
<path d="M93465 12875
L93465 73375
" />
<path d="M23465 68993
L23465 68993
" />
<path d="M23465 12875
L93465 12875
" />
</g>
<g style="fill:#000000; fill-opacity:0.0; 
stroke:#000000; stroke-width:196.85; stroke-opacity:1; 
stroke-linecap:round; stroke-linejoin:round;">
<path d="M25108 30553
L25146 30483
L25146 30333
L25108 30253
L25033 30169
L24958 30122
L24808 30103
L24733 30131
L24658 30197
L24621 30267
L24621 30417
L24658 30497
" />
<path d="M25408 30441
L25371 30248
L25258 30047
L25071 29911
L24883 29850
L24696 29864
L24508 29953
L24396 30127
L24358 30309
L24396 30502
L24508 30703
L24696 30839
L24883 30900
L25071 30886
L25258 30797
L25371 30623
L25408 30441
" />
<path d="M25221 31242
L25258 31284
L25296 31364
L25296 31551
L25258 31622
L25221 31654
L25146 31683
L25071 31673
L24958 31622
L24508 31115
L24508 31603
" />
<path d="M25296 32189
L25296 32264
L25258 32334
L25221 32367
L25146 32395
L24996 32414
L24808 32390
L24658 32334
L24583 32287
L24546 32245
L24508 32165
L24508 32090
L24546 32020
L24583 31987
L24658 31959
L24808 31940
L24996 31964
L25146 32020
L25221 32067
L25258 32109
L25296 32189
" />
<path d="M24508 33103
L24508 32653
" />
<path d="M24508 32878
L25296 32976
L25183 32887
L25108 32803
L25071 32723
" />
<path d="M25296 33464
L25296 33989
L24508 33553
" />
<path d="M24546 34232
L24508 34228
L24433 34181
L24396 34139
" />
<path d="M25296 35488
L24733 35418
L24621 35367
L24546 35282
L24508 35165
L24508 35090
" />
<path d="M24508 35765
L25296 35863
L25296 36163
L25258 36234
L25221 36266
L25146 36295
L25033 36280
L24958 36234
L24921 36191
L24883 36112
L24883 35812
" />
<path d="M24921 37204
L24921 37466
" />
<path d="M24508 37527
L24508 37152
L25296 37251
L25296 37626
" />
<path d="M25033 37930
L24508 37865
" />
<path d="M24958 37921
L24996 37963
L25033 38043
L25033 38155
L24996 38226
L24921 38254
L24508 38202
" />
<path d="M25033 38530
L25033 38830
" />
<path d="M25296 38675
L24621 38591
L24546 38619
L24508 38690
L24508 38765
" />
<path d="M24546 39332
L24508 39252
L24508 39102
L24546 39032
L24621 39004
L24921 39041
L24996 39088
L25033 39168
L25033 39318
L24996 39388
L24921 39416
L24846 39407
L24771 39022
" />
<path d="M24508 39702
L25033 39768
" />
<path d="M24883 39749
L24958 39796
L24996 39838
L25033 39918
L25033 39993
" />
<path d="M25033 40255
L24246 40157
" />
<path d="M24996 40250
L25033 40330
L25033 40480
L24996 40550
L24958 40583
L24883 40611
L24658 40583
L24583 40536
L24546 40494
L24508 40414
L24508 40264
L24546 40194
" />
<path d="M24508 40902
L25033 40967
" />
<path d="M24883 40949
L24958 40996
L24996 41038
L25033 41117
L25033 41192
" />
<path d="M24508 41389
L25033 41455
" />
<path d="M25296 41488
L25258 41445
L25221 41478
L25258 41520
L25296 41488
L25221 41478
" />
<path d="M24546 41731
L24508 41802
L24508 41952
L24546 42031
L24621 42078
L24658 42083
L24733 42055
L24771 41984
L24771 41872
L24808 41802
L24883 41774
L24921 41778
L24996 41825
L25033 41905
L25033 42017
L24996 42088
" />
<path d="M24546 42706
L24508 42627
L24508 42477
L24546 42406
L24621 42378
L24921 42416
L24996 42463
L25033 42542
L25033 42692
L24996 42762
L24921 42791
L24846 42781
L24771 42397
" />
<path d="M24546 43044
L24508 43114
L24508 43264
L24546 43344
L24621 43391
L24658 43395
L24733 43367
L24771 43297
L24771 43184
L24808 43114
L24883 43086
L24921 43091
L24996 43137
L25033 43217
L25033 43330
L24996 43400
" />
</g>
<g style="fill:#000000; fill-opacity:0.0; 
stroke:#000000; stroke-width:236.22; stroke-opacity:1; 
stroke-linecap:round; stroke-linejoin:round;">
<path d="M69115 14459
L70014 14459
" />
<path d="M73915 14459
L74814 14459
" />
<path d="M74365 14909
L74365 14009
" />
</g>
<g style="fill:#000000; fill-opacity:0.0; 
stroke:#000000; stroke-width:118.11; stroke-opacity:1; 
stroke-linecap:round; stroke-linejoin:round;">
<path d="M70290 20831
L70027 20456
" />
<path d="M69840 20831
L69840 20044
L70140 20044
L70215 20081
L70252 20119
L70290 20194
L70290 20306
L70252 20381
L70215 20419
L70140 20456
L69840 20456
" />
<path d="M70927 20794
L70852 20831
L70702 20831
L70627 20794
L70590 20719
L70590 20419
L70627 20344
L70702 20306
L70852 20306
L70927 20344
L70965 20419
L70965 20494
L70590 20569
" />
<path d="M71265 20794
L71339 20831
L71489 20831
L71564 20794
L71602 20719
L71602 20681
L71564 20606
L71489 20569
L71377 20569
L71302 20531
L71265 20456
L71265 20419
L71302 20344
L71377 20306
L71489 20306
L71564 20344
" />
<path d="M72239 20794
L72164 20831
L72014 20831
L71939 20794
L71902 20719
L71902 20419
L71939 20344
L72014 20306
L72164 20306
L72239 20344
L72277 20419
L72277 20494
L71902 20569
" />
<path d="M72502 20306
L72802 20306
" />
<path d="M72614 20044
L72614 20719
L72652 20794
L72727 20831
L72802 20831
" />
</g>
<g style="fill:#000000; fill-opacity:0.0; 
stroke:#000000; stroke-width:236.22; stroke-opacity:1; 
stroke-linecap:round; stroke-linejoin:round;">
<path d="M91124 68048
L91068 68161
L91011 68217
L90899 68273
L90843 68273
L90730 68217
L90674 68161
L90618 68048
L90618 67823
L90674 67711
L90730 67654
L90843 67598
L90899 67598
L91011 67654
L91068 67711
L91124 67823
L91124 68048
L91180 68161
L91236 68217
L91349 68273
L91574 68273
L91686 68217
L91743 68161
L91799 68048
L91799 67823
L91743 67711
L91686 67654
L91574 67598
L91349 67598
L91236 67654
L91180 67711
L91124 67823
" />
<path d="M91349 67092
L91349 66192
" />
<path d="M91686 64955
L91743 65011
L91799 65180
L91799 65292
L91743 65461
L91630 65573
L91518 65630
L91293 65686
L91124 65686
L90899 65630
L90786 65573
L90674 65461
L90618 65292
L90618 65180
L90674 65011
L90730 64955
" />
<path d="M91799 64449
L90618 64449
" />
<path d="M91799 63942
L91180 63942
L91068 63999
L91011 64111
L91011 64280
L91068 64392
L91124 64449
" />
<path d="M91799 62874
L91180 62874
L91068 62930
L91011 63043
L91011 63268
L91068 63380
" />
<path d="M91743 62874
L91799 62986
L91799 63268
L91743 63380
L91630 63436
L91518 63436
L91405 63380
L91349 63268
L91349 62986
L91293 62874
" />
<path d="M91011 62311
L91799 62311
" />
<path d="M91124 62311
L91068 62255
L91011 62143
L91011 61974
L91068 61861
L91180 61805
L91799 61805
" />
<path d="M91011 61243
L91799 61243
" />
<path d="M91124 61243
L91068 61187
L91011 61074
L91011 60905
L91068 60793
L91180 60737
L91799 60737
" />
<path d="M91743 59724
L91799 59837
L91799 60062
L91743 60174
L91630 60230
L91180 60230
L91068 60174
L91011 60062
L91011 59837
L91068 59724
L91180 59668
L91293 59668
L91405 60230
" />
<path d="M91799 58993
L91743 59106
L91630 59162
L90618 59162
" />
<path d="M90618 57812
L90618 57137
" />
<path d="M91799 57474
L90618 57474
" />
<path d="M91799 56743
L90618 56743
" />
<path d="M91799 56237
L91180 56237
L91068 56293
L91011 56406
L91011 56575
L91068 56687
L91124 56743
" />
<path d="M91743 55225
L91799 55337
L91799 55562
L91743 55675
L91630 55731
L91180 55731
L91068 55675
L91011 55562
L91011 55337
L91068 55225
L91180 55169
L91293 55169
L91405 55731
" />
<path d="M91799 54662
L91011 54662
" />
<path d="M91236 54662
L91124 54606
L91068 54550
L91011 54437
L91011 54325
" />
<path d="M91799 53931
L91011 53931
" />
<path d="M91124 53931
L91068 53875
L91011 53762
L91011 53594
L91068 53481
L91180 53425
L91799 53425
" />
<path d="M91180 53425
L91068 53369
L91011 53256
L91011 53088
L91068 52975
L91180 52919
L91799 52919
" />
<path d="M91799 52188
L91743 52300
L91686 52356
L91574 52413
L91236 52413
L91124 52356
L91068 52300
L91011 52188
L91011 52019
L91068 51906
L91124 51850
L91236 51794
L91574 51794
L91686 51850
L91743 51906
L91799 52019
L91799 52188
" />
<path d="M91743 50782
L91799 50894
L91799 51119
L91743 51232
L91686 51288
L91574 51344
L91236 51344
L91124 51288
L91068 51232
L91011 51119
L91011 50894
L91068 50782
" />
<path d="M91799 50107
L91743 50219
L91686 50275
L91574 50332
L91236 50332
L91124 50275
L91068 50219
L91011 50107
L91011 49938
L91068 49825
L91124 49769
L91236 49713
L91574 49713
L91686 49769
L91743 49825
L91799 49938
L91799 50107
" />
<path d="M91011 48701
L91799 48701
" />
<path d="M91011 49207
L91630 49207
L91743 49151
L91799 49038
L91799 48869
L91743 48757
L91686 48701
" />
<path d="M91011 48138
L92193 48138
" />
<path d="M91068 48138
L91011 48026
L91011 47801
L91068 47688
L91124 47632
L91236 47576
L91574 47576
L91686 47632
L91743 47688
L91799 47801
L91799 48026
L91743 48138
" />
<path d="M91799 46901
L91743 47013
L91630 47070
L90618 47070
" />
<path d="M91743 46001
L91799 46113
L91799 46338
L91743 46451
L91630 46507
L91180 46507
L91068 46451
L91011 46338
L91011 46113
L91068 46001
L91180 45945
L91293 45945
L91405 46507
" />
<path d="M91799 44370
L91743 44482
L91630 44539
L90618 44539
" />
<path d="M91799 43751
L91743 43864
L91686 43920
L91574 43976
L91236 43976
L91124 43920
L91068 43864
L91011 43751
L91011 43582
L91068 43470
L91124 43414
L91236 43357
L91574 43357
L91686 43414
L91743 43470
L91799 43582
L91799 43751
" />
<path d="M91011 42345
L91968 42345
L92080 42401
L92136 42458
L92193 42570
L92193 42739
L92136 42851
" />
<path d="M91743 42345
L91799 42458
L91799 42683
L91743 42795
L91686 42851
L91574 42908
L91236 42908
L91124 42851
L91068 42795
L91011 42683
L91011 42458
L91068 42345
" />
<path d="M91011 41277
L91968 41277
L92080 41333
L92136 41389
L92193 41501
L92193 41670
L92136 41783
" />
<path d="M91743 41277
L91799 41389
L91799 41614
L91743 41726
L91686 41783
L91574 41839
L91236 41839
L91124 41783
L91068 41726
L91011 41614
L91011 41389
L91068 41277
" />
<path d="M91743 40264
L91799 40377
L91799 40602
L91743 40714
L91630 40770
L91180 40770
L91068 40714
L91011 40602
L91011 40377
L91068 40264
L91180 40208
L91293 40208
L91405 40770
" />
<path d="M91799 39702
L91011 39702
" />
<path d="M91236 39702
L91124 39645
L91068 39589
L91011 39477
L91011 39364
" />
</g>
<g style="fill:#000000; fill-opacity:0.0; 
stroke:#000000; stroke-width:78.7402; stroke-opacity:1; 
stroke-linecap:round; stroke-linejoin:round;">
<path d="M23465 73375
L93465 73375
" />
<path d="M23465 12875
L23465 73375
" />
<path d="M23465 13875
L23465 13875
" />
</g>
<g style="fill:#000000; fill-opacity:0.0; 
stroke:#000000; stroke-width:118.11; stroke-opacity:1; 
stroke-linecap:round; stroke-linejoin:round;">
<path d="M29933 52231
L29933 51444
L30121 51444
L30233 51481
L30308 51556
L30346 51631
L30383 51781
L30383 51894
L30346 52044
L30308 52119
L30233 52194
L30121 52231
L29933 52231
" />
<path d="M30721 52231
L30721 51706
" />
<path d="M30721 51444
L30683 51481
L30721 51519
L30758 51481
L30721 51444
L30721 51519
" />
<path d="M31058 52194
L31133 52231
L31283 52231
L31358 52194
L31396 52119
L31396 52081
L31358 52006
L31283 51969
L31171 51969
L31096 51931
L31058 51856
L31058 51819
L31096 51744
L31171 51706
L31283 51706
L31358 51744
" />
<path d="M31733 51706
L31733 52494
" />
<path d="M31733 51744
L31808 51706
L31958 51706
L32033 51744
L32071 51781
L32108 51856
L32108 52081
L32071 52156
L32033 52194
L31958 52231
L31808 52231
L31733 52194
" />
<path d="M32558 52231
L32483 52194
L32446 52119
L32446 51444
" />
<path d="M33196 52231
L33196 51819
L33158 51744
L33083 51706
L32933 51706
L32858 51744
" />
<path d="M33196 52194
L33121 52231
L32933 52231
L32858 52194
L32821 52119
L32821 52044
L32858 51969
L32933 51931
L33121 51931
L33196 51894
" />
<path d="M33496 51706
L33683 52231
" />
<path d="M33870 51706
L33683 52231
L33608 52419
L33571 52456
L33496 52494
" />
</g>
<g style="fill:#000000; fill-opacity:0.0; 
stroke:#000000; stroke-width:94.4882; stroke-opacity:1; 
stroke-linecap:round; stroke-linejoin:round;">
<path d="M52417 24665
L53244 24665
" />
<path d="M53244 23839
L53244 24665
" />
<path d="M45842 19862
L45842 12933
" />
<path d="M45842 12933
L53087 12933
" />
<path d="M47968 24508
L45842 24508
" />
<path d="M45842 24508
L45842 23012
" />
<path d="M53087 12933
L53087 24508
" />
<path d="M53087 24508
L51039 24508
" />
<path d="M42909 72540
L42909 71556
" />
<path d="M41924 72540
L42909 72540
" />
<path d="M37279 68210
L39680 68210
" />
<path d="M37279 70532
L37279 68210
" />
<path d="M36688 70532
L37279 70532
" />
<path d="M42082 68210
L39680 68210
" />
<path d="M42082 70532
L42082 68210
" />
<path d="M42672 70532
L42082 70532
" />
<path d="M36688 72304
L38105 72304
" />
<path d="M36688 71714
L36688 72304
" />
<path d="M38105 71714
L36688 71714
" />
<path d="M38105 72304
L38105 71714
" />
<path d="M41255 72304
L42672 72304
" />
<path d="M41255 71714
L41255 72304
" />
<path d="M42672 71714
L41255 71714
" />
<path d="M42672 72304
L42672 71714
" />
<path d="M39287 72304
L40074 72304
" />
<path d="M39287 71714
L39287 72304
" />
<path d="M40074 71714
L39287 71714
" />
<path d="M40074 72304
L40074 71714
" />
<path d="M36680 72312
L42680 72312
" />
<path d="M36680 67611
L36680 72312
" />
<path d="M42680 67611
L36680 67611
" />
<path d="M42680 72312
L42680 67611
" />
<path d="M49909 72540
L49909 71556
" />
<path d="M48924 72540
L49909 72540
" />
<path d="M44279 68210
L46680 68210
" />
<path d="M44279 70532
L44279 68210
" />
<path d="M43688 70532
L44279 70532
" />
<path d="M49082 68210
L46680 68210
" />
<path d="M49082 70532
L49082 68210
" />
<path d="M49672 70532
L49082 70532
" />
<path d="M43688 72304
L45105 72304
" />
<path d="M43688 71714
L43688 72304
" />
<path d="M45105 71714
L43688 71714
" />
<path d="M45105 72304
L45105 71714
" />
<path d="M48255 72304
L49672 72304
" />
<path d="M48255 71714
L48255 72304
" />
<path d="M49672 71714
L48255 71714
" />
<path d="M49672 72304
L49672 71714
" />
<path d="M46287 72304
L47074 72304
" />
<path d="M46287 71714
L46287 72304
" />
<path d="M47074 71714
L46287 71714
" />
<path d="M47074 72304
L47074 71714
" />
<path d="M43680 72312
L49680 72312
" />
<path d="M43680 67611
L43680 72312
" />
<path d="M49680 67611
L43680 67611
" />
<path d="M49680 72312
L49680 67611
" />
<path d="M56909 72540
L56909 71556
" />
<path d="M55924 72540
L56909 72540
" />
<path d="M51279 68210
L53680 68210
" />
<path d="M51279 70532
L51279 68210
" />
<path d="M50688 70532
L51279 70532
" />
<path d="M56082 68210
L53680 68210
" />
<path d="M56082 70532
L56082 68210
" />
<path d="M56672 70532
L56082 70532
" />
<path d="M50688 72304
L52105 72304
" />
<path d="M50688 71714
L50688 72304
" />
<path d="M52105 71714
L50688 71714
" />
<path d="M52105 72304
L52105 71714
" />
<path d="M55255 72304
L56672 72304
" />
<path d="M55255 71714
L55255 72304
" />
<path d="M56672 71714
L55255 71714
" />
<path d="M56672 72304
L56672 71714
" />
<path d="M53287 72304
L54074 72304
" />
<path d="M53287 71714
L53287 72304
" />
<path d="M54074 71714
L53287 71714
" />
<path d="M54074 72304
L54074 71714
" />
<path d="M50680 72312
L56680 72312
" />
<path d="M50680 67611
L50680 72312
" />
<path d="M56680 67611
L50680 67611
" />
<path d="M56680 72312
L56680 67611
" />
<path d="M63909 72540
L63909 71556
" />
<path d="M62924 72540
L63909 72540
" />
<path d="M58279 68210
L60680 68210
" />
<path d="M58279 70532
L58279 68210
" />
<path d="M57688 70532
L58279 70532
" />
<path d="M63082 68210
L60680 68210
" />
<path d="M63082 70532
L63082 68210
" />
<path d="M63672 70532
L63082 70532
" />
<path d="M57688 72304
L59105 72304
" />
<path d="M57688 71714
L57688 72304
" />
<path d="M59105 71714
L57688 71714
" />
<path d="M59105 72304
L59105 71714
" />
<path d="M62255 72304
L63672 72304
" />
<path d="M62255 71714
L62255 72304
" />
<path d="M63672 71714
L62255 71714
" />
<path d="M63672 72304
L63672 71714
" />
<path d="M60287 72304
L61074 72304
" />
<path d="M60287 71714
L60287 72304
" />
<path d="M61074 71714
L60287 71714
" />
<path d="M61074 72304
L61074 71714
" />
<path d="M57680 72312
L63680 72312
" />
<path d="M57680 67611
L57680 72312
" />
<path d="M63680 67611
L57680 67611
" />
<path d="M63680 72312
L63680 67611
" />
<path d="M70877 72540
L70877 71556
" />
<path d="M69893 72540
L70877 72540
" />
<path d="M65247 68210
L67649 68210
" />
<path d="M65247 70532
L65247 68210
" />
<path d="M64657 70532
L65247 70532
" />
<path d="M70050 68210
L67649 68210
" />
<path d="M70050 70532
L70050 68210
" />
<path d="M70641 70532
L70050 70532
" />
<path d="M64657 72304
L66074 72304
" />
<path d="M64657 71714
L64657 72304
" />
<path d="M66074 71714
L64657 71714
" />
<path d="M66074 72304
L66074 71714
" />
<path d="M69224 72304
L70641 72304
" />
<path d="M69224 71714
L69224 72304
" />
<path d="M70641 71714
L69224 71714
" />
<path d="M70641 72304
L70641 71714
" />
<path d="M67255 72304
L68042 72304
" />
<path d="M67255 71714
L67255 72304
" />
<path d="M68042 71714
L67255 71714
" />
<path d="M68042 72304
L68042 71714
" />
<path d="M64649 72312
L70649 72312
" />
<path d="M64649 67611
L64649 72312
" />
<path d="M70649 67611
L64649 67611
" />
<path d="M70649 72312
L70649 67611
" />
<path d="M77877 72540
L77877 71556
" />
<path d="M76893 72540
L77877 72540
" />
<path d="M72247 68210
L74649 68210
" />
<path d="M72247 70532
L72247 68210
" />
<path d="M71657 70532
L72247 70532
" />
<path d="M77050 68210
L74649 68210
" />
<path d="M77050 70532
L77050 68210
" />
<path d="M77641 70532
L77050 70532
" />
<path d="M71657 72304
L73074 72304
" />
<path d="M71657 71714
L71657 72304
" />
<path d="M73074 71714
L71657 71714
" />
<path d="M73074 72304
L73074 71714
" />
<path d="M76224 72304
L77641 72304
" />
<path d="M76224 71714
L76224 72304
" />
<path d="M77641 71714
L76224 71714
" />
<path d="M77641 72304
L77641 71714
" />
<path d="M74255 72304
L75042 72304
" />
<path d="M74255 71714
L74255 72304
" />
<path d="M75042 71714
L74255 71714
" />
<path d="M75042 72304
L75042 71714
" />
<path d="M71649 72312
L77649 72312
" />
<path d="M71649 67611
L71649 72312
" />
<path d="M77649 67611
L71649 67611
" />
<path d="M77649 72312
L77649 67611
" />
<path d="M84877 72540
L84877 71556
" />
<path d="M83893 72540
L84877 72540
" />
<path d="M79247 68210
L81649 68210
" />
<path d="M79247 70532
L79247 68210
" />
<path d="M78657 70532
L79247 70532
" />
<path d="M84050 68210
L81649 68210
" />
<path d="M84050 70532
L84050 68210
" />
<path d="M84641 70532
L84050 70532
" />
<path d="M78657 72304
L80074 72304
" />
<path d="M78657 71714
L78657 72304
" />
<path d="M80074 71714
L78657 71714
" />
<path d="M80074 72304
L80074 71714
" />
<path d="M83224 72304
L84641 72304
" />
<path d="M83224 71714
L83224 72304
" />
<path d="M84641 71714
L83224 71714
" />
<path d="M84641 72304
L84641 71714
" />
<path d="M81255 72304
L82042 72304
" />
<path d="M81255 71714
L81255 72304
" />
<path d="M82042 71714
L81255 71714
" />
<path d="M82042 72304
L82042 71714
" />
<path d="M78649 72312
L84649 72312
" />
<path d="M78649 67611
L78649 72312
" />
<path d="M84649 67611
L78649 67611
" />
<path d="M84649 72312
L84649 67611
" />
<path d="M33787.9 36179.2 A944.882 944.882 0.0 0 0 33787.7 37675.4 " />
<path d="M34942.3 37675.4 A944.882 944.882 0.0 0 0 34942.1 36179.2 " />
<path d="M35909 72540
L35909 71556
" />
<path d="M34924 72540
L35909 72540
" />
<path d="M30279 68210
L32680 68210
" />
<path d="M30279 70532
L30279 68210
" />
<path d="M29688 70532
L30279 70532
" />
<path d="M35082 68210
L32680 68210
" />
<path d="M35082 70532
L35082 68210
" />
<path d="M35672 70532
L35082 70532
" />
<path d="M29688 72304
L31105 72304
" />
<path d="M29688 71714
L29688 72304
" />
<path d="M31105 71714
L29688 71714
" />
<path d="M31105 72304
L31105 71714
" />
<path d="M34255 72304
L35672 72304
" />
<path d="M34255 71714
L34255 72304
" />
<path d="M35672 71714
L34255 71714
" />
<path d="M35672 72304
L35672 71714
" />
<path d="M32287 72304
L33074 72304
" />
<path d="M32287 71714
L32287 72304
" />
<path d="M33074 71714
L32287 71714
" />
<path d="M33074 72304
L33074 71714
" />
<path d="M29680 72312
L35680 72312
" />
<path d="M29680 67611
L29680 72312
" />
<path d="M35680 67611
L29680 67611
" />
<path d="M35680 72312
L35680 67611
" />
</g>
<g style="fill:#000000; fill-opacity:0.0; 
stroke:#000000; stroke-width:118.11; stroke-opacity:1; 
stroke-linecap:round; stroke-linejoin:round;">
<path d="M35657 40105
L35657 36475
" />
<path d="M42272 40105
L35657 40105
" />
<path d="M42272 35845
L42272 40105
" />
<path d="M36287 35845
L42272 35845
" />
<path d="M35657 36475
L36287 35845
" />
</g>
<g style="fill:#000000; fill-opacity:0.0; 
stroke:#000000; stroke-width:94.4882; stroke-opacity:1; 
stroke-linecap:round; stroke-linejoin:round;">
<path d="M37191 32448
L38530 32448
" />
<path d="M41538 32448
L40199 32448
" />
<path d="M41538 28940
L41538 32448
" />
<path d="M37191 28940
L37191 32448
" />
<path d="M38029 28102
L38530 28102
" />
<path d="M40700 28102
L40199 28102
" />
<path d="M40700 28102
L41538 28940
" />
<path d="M38029 28102
L37191 28940
" />
<path d="M43602 20391
L38901 20391
" />
<path d="M38901 20391
L38901 26391
" />
<path d="M38901 26391
L43602 26391
" />
<path d="M43602 26391
L43602 20391
" />
<path d="M43594 22997
L43003 22997
" />
<path d="M43003 22997
L43003 23784
" />
<path d="M43003 23784
L43594 23784
" />
<path d="M43594 23784
L43594 22997
" />
<path d="M43594 20399
L43003 20399
" />
<path d="M43003 20399
L43003 21816
" />
<path d="M43003 21816
L43594 21816
" />
<path d="M43594 21816
L43594 20399
" />
<path d="M43594 24965
L43003 24965
" />
<path d="M43003 24965
L43003 26383
" />
<path d="M43003 26383
L43594 26383
" />
<path d="M43594 26383
L43594 24965
" />
<path d="M41822 20399
L41822 20989
" />
<path d="M41822 20989
L39499 20989
" />
<path d="M39499 20989
L39499 23391
" />
<path d="M41822 26383
L41822 25792
" />
<path d="M41822 25792
L39499 25792
" />
<path d="M39499 25792
L39499 23391
" />
<path d="M43830 21147
L43830 20162
" />
<path d="M43830 20162
L42846 20162
" />
<path d="M40380 49412
L40380 44711
" />
<path d="M40380 44711
L26506 44711
" />
<path d="M26506 44711
L26506 49412
" />
<path d="M26506 49412
L40380 49412
" />
<path d="M37774 49404
L37774 48814
" />
<path d="M37774 48814
L29113 48814
" />
<path d="M29113 48814
L29113 49404
" />
<path d="M29113 49404
L37774 49404
" />
<path d="M40372 49404
L40372 48814
" />
<path d="M40372 48814
L38955 48814
" />
<path d="M38955 48814
L38955 49404
" />
<path d="M38955 49404
L40372 49404
" />
<path d="M27931 49404
L27931 48814
" />
<path d="M27931 48814
L26514 48814
" />
<path d="M26514 48814
L26514 49404
" />
<path d="M26514 49404
L27931 49404
" />
<path d="M40372 47632
L39782 47632
" />
<path d="M39782 47632
L39782 46577
" />
<path d="M33443 45310
L38947 45310
" />
<path d="M26514 47632
L27105 47632
" />
<path d="M27105 47632
L27105 45310
" />
<path d="M27105 45310
L33443 45310
" />
<path d="M39624 49640
L40609 49640
" />
<path d="M40609 49640
L40609 48656
" />
</g>
<g style="fill:#000000; fill-opacity:0.0; 
stroke:#000000; stroke-width:118.11; stroke-opacity:1; 
stroke-linecap:round; stroke-linejoin:round;">
<path d="M66218 14009
L60431 14009
" />
<path d="M60431 14009
L59368 13969
" />
<path d="M59368 13969
L58462 13851
" />
<path d="M58462 13851
L57596 13694
" />
<path d="M57596 13694
L56769 13458
" />
<path d="M58226 24481
L58226 25505
" />
<path d="M66218 18025
L66218 23694
" />
<path d="M66218 15820
L66218 14009
" />
<path d="M56769 13458
L54643 13458
" />
<path d="M54643 13458
L54643 15820
" />
<path d="M54643 23694
L54643 18025
" />
<path d="M58580 24009
L58816 24009
" />
<path d="M58816 24009
L58816 23773
" />
<path d="M58816 23773
L58580 23773
" />
<path d="M58580 23773
L58580 24009
" />
<path d="M58226 24481
L55864 24481
" />
</g>
<g style="fill:#000000; fill-opacity:0.0; 
stroke:#000000; stroke-width:94.4882; stroke-opacity:1; 
stroke-linecap:round; stroke-linejoin:round;">
<path d="M28304 41150
L28304 40496
" />
<path d="M28304 43244
L28304 42000
" />
<path d="M30824 40748
L30824 40496
" />
<path d="M30824 43244
L30824 42402
" />
<path d="M26320 43244
L26320 40496
" />
<path d="M32809 43244
L32809 40496
" />
<path d="M32809 40496
L26320 40496
" />
<path d="M32809 43244
L26320 43244
" />
<path d="M76878 55222
L78177 55222
" />
<path d="M76878 41128
L76878 55222
" />
<path d="M81051 41128
L76878 41128
" />
<path d="M81051 55222
L81051 41128
" />
<path d="M79752 55222
L81051 55222
" />
<path d="M79752.4 55222.7 A787.402 787.402 0.0 0 0 78177.6 55222.7 " />
<path d="M46337 29917
L46337 32232
" />
<path d="M46526 29917
L46526 32232
" />
<path d="M46431 29917
L46431 32232
" />
<path d="M50809 31075
L50006 31075
" />
<path d="M44920 31075
L45723 31075
" />
<path d="M50006 29917
L45723 29917
" />
<path d="M50006 32232
L50006 29917
" />
<path d="M45723 32232
L50006 32232
" />
<path d="M45723 29917
L45723 32232
" />
<path d="M54950 29113
L54950 30294
" />
<path d="M55934 32262
L59477 32262
" />
<path d="M60461 30294
L60461 29113
" />
<path d="M59477 27144
L55934 27144
" />
<path d="M68568 15956
L68568 17137
" />
<path d="M69552 19106
L73095 19106
" />
<path d="M74079 17137
L74079 15956
" />
<path d="M73095 13988
L69552 13988
" />
<path d="M78012 39322
L76965 39322
" />
<path d="M78012 38275
L78012 39322
" />
<path d="M75965 39322
L73917 39322
" />
<path d="M75965 37275
L75965 39322
" />
<path d="M78012 37275
L75965 37275
" />
<path d="M73917 39322
L73917 33228
" />
<path d="M78012 37275
L78012 33228
" />
<path d="M78012 33228
L73917 33228
" />
<path d="M30879 33303
L30879 28571
" />
<path d="M36250 31532
L36250 28571
" />
<path d="M30879 28571
L31872 28571
" />
<path d="M36250 28571
L35257 28571
" />
<path d="M31190 20717
L32379 20717
" />
<path d="M31190 23632
L32379 23632
" />
<path d="M32379 26206
L32379 18143
" />
<path d="M31190 18143
L34844 18143
" />
<path d="M31190 26206
L34844 26206
" />
<path d="M34844 26206
L34844 18143
" />
<path d="M31190 26206
L31190 18143
" />
<path d="M40532 19464
L42446 19464
" />
<path d="M40516 19456
L40516 18669
" />
<path d="M40516 17054
L41973 17054
" />
<path d="M40516 17881
L40516 17054
" />
<path d="M43617 34988
L43617 36288
" />
<path d="M71712 34988
L43617 34988
" />
<path d="M71712 39162
L71712 34988
" />
<path d="M43617 39162
L71712 39162
" />
<path d="M43617 37862
L43617 39162
" />
<path d="M43617.8 37862.8 A787.402 787.402 0.0 0 0 43617.8 36288 " />
<path d="M71512 58062
L71512 53762
" />
<path d="M43417 58062
L71512 58062
" />
<path d="M43417 47888
L43417 58062
" />
<path d="M71512 47888
L43417 47888
" />
<path d="M71512 52188
L71512 47888
" />
<path d="M71512.2 52188 A787.402 787.402 0.0 0 0 71512.2 53762.8 " />
<path d="M59083.1 41487.2 A1988.19 1988.19 0.0 0 0 59083.1 45463.6 " />
<path d="M64004.4 45463.6 A1988.19 1988.19 0.0 0 0 64004.4 41487.2 " />
<path d="M64004 41487
L59083 41487
" />
<path d="M64004 45463
L59083 45463
" />
<path d="M36395 23593
L36395 21585
" />
<path d="M37734 23593
L37734 21585
" />
<path d="M36395 23593
L37734 23593
" />
<path d="M73177 28847
L73177 25776
" />
<path d="M74752 28847
L74752 25776
" />
<path d="M73177 28847
L74752 28847
" />
<path d="M70277 28847
L70277 25776
" />
<path d="M71852 28847
L71852 25776
" />
<path d="M70277 28847
L71852 28847
" />
<path d="M67557 28847
L67557 25776
" />
<path d="M69132 28847
L69132 25776
" />
<path d="M67557 28847
L69132 28847
" />
<path d="M34361 44134
L34768 44134
" />
<path d="M34361 43016
L34768 43016
" />
<path d="M34361 42384
L34768 42384
" />
<path d="M34361 41266
L34768 41266
" />
<path d="M50605 43471
L50605 43879
" />
<path d="M51724 43471
L51724 43879
" />
<path d="M38824 18479
L38824 18071
" />
<path d="M37705 18479
L37705 18071
" />
<path d="M67124 31579
L67124 31171
" />
<path d="M66005 31579
L66005 31171
" />
<path d="M63424 27579
L63424 27171
" />
<path d="M62305 27579
L62305 27171
" />
<path d="M69524 31579
L69524 31171
" />
<path d="M68405 31579
L68405 31171
" />
<path d="M30168 36316
L29761 36316
" />
<path d="M30168 37434
L29761 37434
" />
<path d="M62224 65579
L62224 65171
" />
<path d="M61105 65579
L61105 65171
" />
<path d="M73105 65171
L73105 65579
" />
<path d="M74224 65171
L74224 65579
" />
<path d="M34224 65539
L34224 65131
" />
<path d="M33105 65539
L33105 65131
" />
<path d="M31145 65131
L31145 65539
" />
<path d="M32264 65131
L32264 65539
" />
<path d="M38105 65171
L38105 65579
" />
<path d="M39224 65171
L39224 65579
" />
<path d="M45105 65171
L45105 65579
" />
<path d="M46224 65171
L46224 65579
" />
<path d="M52105 65171
L52105 65579
" />
<path d="M53224 65171
L53224 65579
" />
<path d="M59105 65171
L59105 65579
" />
<path d="M60224 65171
L60224 65579
" />
<path d="M66105 65171
L66105 65579
" />
<path d="M67224 65171
L67224 65579
" />
<path d="M80105 65171
L80105 65579
" />
<path d="M81224 65171
L81224 65579
" />
<path d="M41224 65579
L41224 65171
" />
<path d="M40105 65579
L40105 65171
" />
<path d="M48224 65579
L48224 65171
" />
<path d="M47105 65579
L47105 65171
" />
<path d="M55224 65579
L55224 65171
" />
<path d="M54105 65579
L54105 65171
" />
<path d="M69224 65579
L69224 65171
" />
<path d="M68105 65579
L68105 65171
" />
<path d="M76224 65579
L76224 65171
" />
<path d="M75105 65579
L75105 65171
" />
<path d="M83224 65579
L83224 65171
" />
<path d="M82105 65579
L82105 65171
" />
<path d="M32461 63534
L32868 63534
" />
<path d="M32461 62416
L32868 62416
" />
<path d="M67461 63534
L67868 63534
" />
<path d="M67461 62416
L67868 62416
" />
<path d="M60461 63534
L60868 63534
" />
<path d="M60461 62416
L60868 62416
" />
<path d="M39461 63534
L39868 63534
" />
<path d="M39461 62416
L39868 62416
" />
<path d="M46461 63534
L46868 63534
" />
<path d="M46461 62416
L46868 62416
" />
<path d="M53461 63534
L53868 63534
" />
<path d="M53461 62416
L53868 62416
" />
<path d="M74461 63534
L74868 63534
" />
<path d="M74461 62416
L74868 62416
" />
<path d="M81461 63534
L81868 63534
" />
<path d="M81461 62416
L81868 62416
" />
<path d="M39068 14916
L38661 14916
" />
<path d="M39068 16034
L38661 16034
" />
<path d="M54105 43271
L54105 43679
" />
<path d="M55224 43271
L55224 43679
" />
<path d="M73405 52971
L73405 53379
" />
<path d="M74524 52971
L74524 53379
" />
<path d="M29761 35434
L30168 35434
" />
<path d="M29761 34316
L30168 34316
" />
<path d="M67905 43071
L67905 43479
" />
<path d="M69024 43071
L69024 43479
" />
<path d="M29270 18571
L28286 18571
" />
<path d="M29270 19555
L29270 18571
" />
<path d="M24939 28138
L24939 23768
" />
<path d="M27262 28138
L24939 28138
" />
<path d="M27262 28728
L27262 28138
" />
<path d="M24939 19398
L24939 23768
" />
<path d="M27262 19398
L24939 19398
" />
<path d="M27262 18807
L27262 19398
" />
<path d="M29034 28728
L29034 27311
" />
<path d="M28443 28728
L29034 28728
" />
<path d="M28443 27311
L28443 28728
" />
<path d="M29034 27311
L28443 27311
" />
<path d="M29034 20224
L29034 18807
" />
<path d="M28443 20224
L29034 20224
" />
<path d="M28443 18807
L28443 20224
" />
<path d="M29034 18807
L28443 18807
" />
<path d="M29034 26130
L29034 21405
" />
<path d="M28443 26130
L29034 26130
" />
<path d="M28443 21405
L28443 26130
" />
<path d="M29034 21405
L28443 21405
" />
<path d="M29042 28736
L29042 18799
" />
<path d="M24341 28736
L29042 28736
" />
<path d="M24341 18799
L24341 28736
" />
<path d="M29042 18799
L24341 18799
" />
<path d="M31899 14450
L31899 14843
" />
<path d="M31702 14647
L32096 14647
" />
<path d="M32285 16816
L33123 17654
" />
<path d="M32285 14934
L33123 14095
" />
<path d="M32285 14934
L32285 15040
" />
<path d="M32285 16816
L32285 16710
" />
<path d="M33123 17654
L35844 17654
" />
<path d="M33123 14095
L35844 14095
" />
<path d="M35844 14095
L35844 15040
" />
<path d="M35844 17654
L35844 16710
" />
<path d="M80824 38279
L80824 37871
" />
<path d="M79705 38279
L79705 37871
" />
</g>
<g style="fill:#000000; fill-opacity:0.0; 
stroke:#000000; stroke-width:118.11; stroke-opacity:1; 
stroke-linecap:round; stroke-linejoin:round;">
<path d="M44506 17408
L45068 17408
L45181 17446
L45256 17521
L45293 17633
L45293 17708
" />
<path d="M45293 16621
L45293 17071
" />
<path d="M45293 16846
L44506 16846
L44618 16921
L44693 16996
L44731 17071
" />
<path d="M36465 66244
L36465 66881
L36502 66956
L36540 66994
L36615 67031
L36765 67031
L36840 66994
L36877 66956
L36915 66881
L36915 66244
" />
<path d="M37627 66506
L37627 67031
" />
<path d="M37439 66206
L37252 66769
L37739 66769
" />
<path d="M43465 66244
L43465 66881
L43502 66956
L43540 66994
L43615 67031
L43765 67031
L43840 66994
L43877 66956
L43915 66881
L43915 66244
" />
<path d="M44664 66244
L44289 66244
L44252 66619
L44289 66581
L44364 66544
L44552 66544
L44627 66581
L44664 66619
L44702 66694
L44702 66881
L44664 66956
L44627 66994
L44552 67031
L44364 67031
L44289 66994
L44252 66956
" />
<path d="M50465 66244
L50465 66881
L50502 66956
L50540 66994
L50615 67031
L50765 67031
L50840 66994
L50877 66956
L50915 66881
L50915 66244
" />
<path d="M51627 66244
L51477 66244
L51402 66281
L51364 66319
L51289 66431
L51252 66581
L51252 66881
L51289 66956
L51327 66994
L51402 67031
L51552 67031
L51627 66994
L51664 66956
L51702 66881
L51702 66694
L51664 66619
L51627 66581
L51552 66544
L51402 66544
L51327 66581
L51289 66619
L51252 66694
" />
<path d="M57465 66244
L57465 66881
L57502 66956
L57540 66994
L57615 67031
L57765 67031
L57840 66994
L57877 66956
L57915 66881
L57915 66244
" />
<path d="M58214 66244
L58739 66244
L58402 67031
" />
<path d="M64465 66244
L64465 66881
L64502 66956
L64540 66994
L64615 67031
L64765 67031
L64840 66994
L64877 66956
L64915 66881
L64915 66244
" />
<path d="M65402 66581
L65327 66544
L65289 66506
L65252 66431
L65252 66394
L65289 66319
L65327 66281
L65402 66244
L65552 66244
L65627 66281
L65664 66319
L65702 66394
L65702 66431
L65664 66506
L65627 66544
L65552 66581
L65402 66581
L65327 66619
L65289 66656
L65252 66731
L65252 66881
L65289 66956
L65327 66994
L65402 67031
L65552 67031
L65627 66994
L65664 66956
L65702 66881
L65702 66731
L65664 66656
L65627 66619
L65552 66581
" />
<path d="M71465 66244
L71465 66881
L71502 66956
L71540 66994
L71615 67031
L71765 67031
L71840 66994
L71877 66956
L71915 66881
L71915 66244
" />
<path d="M72327 67031
L72477 67031
L72552 66994
L72589 66956
L72664 66844
L72702 66694
L72702 66394
L72664 66319
L72627 66281
L72552 66244
L72402 66244
L72327 66281
L72289 66319
L72252 66394
L72252 66581
L72289 66656
L72327 66694
L72402 66731
L72552 66731
L72627 66694
L72664 66656
L72702 66581
" />
<path d="M77890 66244
L77890 66881
L77927 66956
L77965 66994
L78040 67031
L78190 67031
L78265 66994
L78302 66956
L78340 66881
L78340 66244
" />
<path d="M79127 67031
L78677 67031
" />
<path d="M78902 67031
L78902 66244
L78827 66356
L78752 66431
L78677 66469
" />
<path d="M79614 66244
L79689 66244
L79764 66281
L79802 66319
L79839 66394
L79877 66544
L79877 66731
L79839 66881
L79802 66956
L79764 66994
L79689 67031
L79614 67031
L79539 66994
L79502 66956
L79464 66881
L79427 66731
L79427 66544
L79464 66394
L79502 66319
L79539 66281
L79614 66244
" />
<path d="M32613 37302
L32988 37302
" />
<path d="M32201 37564
L32613 37302
L32201 37039
" />
<path d="M32276 36814
L32239 36777
L32201 36702
L32201 36514
L32239 36439
L32276 36402
L32351 36364
L32426 36364
L32538 36402
L32988 36852
L32988 36364
" />
<path d="M29465 66244
L29465 66881
L29502 66956
L29540 66994
L29615 67031
L29765 67031
L29840 66994
L29877 66956
L29915 66881
L29915 66244
" />
<path d="M30214 66244
L30702 66244
L30439 66544
L30552 66544
L30627 66581
L30664 66619
L30702 66694
L30702 66881
L30664 66956
L30627 66994
L30552 67031
L30327 67031
L30252 66994
L30214 66956
" />
<path d="M37990 34626
L37990 35264
L38027 35339
L38065 35376
L38140 35414
L38290 35414
L38365 35376
L38402 35339
L38440 35264
L38440 34626
" />
<path d="M39227 35414
L38777 35414
" />
<path d="M39002 35414
L39002 34626
L38927 34739
L38852 34814
L38777 34851
" />
<path d="M39939 34626
L39564 34626
L39527 35001
L39564 34964
L39639 34926
L39827 34926
L39902 34964
L39939 35001
L39977 35076
L39977 35264
L39939 35339
L39902 35376
L39827 35414
L39639 35414
L39564 35376
L39527 35339
" />
<path d="M42559 30406
L42597 30444
L42634 30556
L42634 30631
L42597 30744
L42522 30819
L42447 30856
L42297 30894
L42184 30894
L42034 30856
L41959 30819
L41884 30744
L41847 30631
L41847 30556
L41884 30444
L41922 30406
" />
<path d="M41922 30106
L41884 30069
L41847 29994
L41847 29806
L41884 29731
L41922 29694
L41997 29656
L42072 29656
L42184 29694
L42634 30144
L42634 29656
" />
<path d="M44404 24009
L44441 23897
L44479 23859
L44554 23822
L44666 23822
L44741 23859
L44778 23897
L44816 23972
L44816 24272
L44029 24272
L44029 24009
L44066 23934
L44104 23897
L44179 23859
L44254 23859
L44329 23897
L44366 23934
L44404 24009
L44404 24272
" />
<path d="M44029 23597
L44029 23147
" />
<path d="M44816 23372
L44029 23372
" />
<path d="M44816 22472
L44816 22922
" />
<path d="M44816 22697
L44029 22697
L44141 22772
L44216 22847
L44254 22922
" />
<path d="M32468 49839
L32468 50476
L32506 50551
L32543 50589
L32618 50626
L32768 50626
L32843 50589
L32881 50551
L32918 50476
L32918 49839
" />
<path d="M33706 50626
L33256 50626
" />
<path d="M33481 50626
L33481 49839
L33406 49951
L33331 50026
L33256 50064
" />
<path d="M34006 49914
L34043 49877
L34118 49839
L34306 49839
L34381 49877
L34418 49914
L34456 49989
L34456 50064
L34418 50176
L33968 50626
L34456 50626
" />
<path d="M29490 44463
L29415 44425
L29340 44350
L29227 44238
L29152 44200
L29077 44200
" />
<path d="M29115 44388
L29040 44350
L28965 44275
L28927 44125
L28927 43863
L28965 43713
L29040 43638
L29115 43600
L29265 43600
L29340 43638
L29415 43713
L29452 43863
L29452 44125
L29415 44275
L29340 44350
L29265 44388
L29115 44388
" />
<path d="M29752 43675
L29789 43638
L29864 43600
L30052 43600
L30127 43638
L30164 43675
L30202 43750
L30202 43825
L30164 43938
L29714 44388
L30202 44388
" />
<path d="M83033 54350
L83671 54350
L83746 54312
L83783 54275
L83821 54200
L83821 54050
L83783 53975
L83746 53937
L83671 53900
L83033 53900
" />
<path d="M83821 53112
L83821 53562
" />
<path d="M83821 53337
L83033 53337
L83146 53412
L83221 53487
L83258 53562
" />
<path d="M83033 52850
L83033 52363
L83333 52625
L83333 52513
L83371 52438
L83408 52400
L83483 52363
L83671 52363
L83746 52400
L83783 52438
L83821 52513
L83821 52738
L83783 52813
L83746 52850
" />
<path d="M47283 29534
L47283 28746
L47471 28746
L47583 28784
L47658 28859
L47696 28934
L47733 29084
L47733 29196
L47696 29346
L47658 29421
L47583 29496
L47471 29534
L47283 29534
" />
<path d="M48483 29534
L48033 29534
" />
<path d="M48258 29534
L48258 28746
L48183 28859
L48108 28934
L48033 28971
" />
<path d="M43658 29778
L43658 28990
" />
<path d="M44108 29778
L43771 29328
" />
<path d="M44108 28990
L43658 29440
" />
<path d="M56656 33368
L56768 33406
L56956 33406
L57031 33368
L57068 33331
L57106 33256
L57106 33181
L57068 33106
L57031 33068
L56956 33031
L56806 32993
L56731 32956
L56693 32919
L56656 32844
L56656 32769
L56693 32694
L56731 32656
L56806 32619
L56993 32619
L57106 32656
" />
<path d="M57368 32619
L57555 33406
L57705 32844
L57855 33406
L58043 32619
" />
<path d="M58305 32694
L58343 32656
L58418 32619
L58605 32619
L58680 32656
L58718 32694
L58755 32769
L58755 32844
L58718 32956
L58268 33406
L58755 33406
" />
<path d="M70274 20212
L70386 20249
L70574 20249
L70649 20212
L70686 20174
L70724 20099
L70724 20024
L70686 19949
L70649 19912
L70574 19874
L70424 19837
L70349 19799
L70311 19762
L70274 19687
L70274 19612
L70311 19537
L70349 19499
L70424 19462
L70611 19462
L70724 19499
" />
<path d="M70986 19462
L71174 20249
L71324 19687
L71474 20249
L71661 19462
" />
<path d="M72373 20249
L71923 20249
" />
<path d="M72148 20249
L72148 19462
L72073 19574
L71998 19649
L71923 19687
" />
<path d="M75383 40466
L75383 39678
L75683 39678
L75758 39716
L75796 39753
L75833 39828
L75833 39941
L75796 40016
L75758 40053
L75683 40091
L75383 40091
" />
<path d="M76583 40466
L76133 40466
" />
<path d="M76358 40466
L76358 39678
L76283 39791
L76208 39866
L76133 39903
" />
<path d="M29590 30675
L30227 30675
L30302 30637
L30340 30600
L30377 30525
L30377 30375
L30340 30300
L30302 30262
L30227 30225
L29590 30225
" />
<path d="M30377 29438
L30377 29887
" />
<path d="M30377 29662
L29590 29662
L29702 29737
L29777 29812
L29815 29887
" />
<path d="M29971 22775
L30609 22775
L30684 22737
L30721 22700
L30759 22625
L30759 22475
L30721 22400
L30684 22362
L30609 22325
L29971 22325
" />
<path d="M30046 21987
L30009 21950
L29971 21875
L29971 21687
L30009 21613
L30046 21575
L30121 21538
L30196 21538
L30309 21575
L30759 22025
L30759 21538
" />
<path d="M41390 16806
L41315 16769
L41240 16694
L41127 16581
L41052 16544
L40977 16544
" />
<path d="M41015 16731
L40940 16694
L40865 16619
L40827 16469
L40827 16206
L40865 16056
L40940 15981
L41015 15944
L41165 15944
L41240 15981
L41315 16056
L41352 16206
L41352 16469
L41315 16619
L41240 16694
L41165 16731
L41015 16731
" />
<path d="M42102 16731
L41652 16731
" />
<path d="M41877 16731
L41877 15944
L41802 16056
L41727 16131
L41652 16169
" />
<path d="M42351 38050
L42989 38050
L43064 38012
L43101 37975
L43139 37900
L43139 37750
L43101 37675
L43064 37637
L42989 37600
L42351 37600
" />
<path d="M43139 36812
L43139 37262
" />
<path d="M43139 37037
L42351 37037
L42464 37112
L42539 37187
L42576 37262
" />
<path d="M42614 36138
L43139 36138
" />
<path d="M42314 36325
L42876 36513
L42876 36025
" />
<path d="M71868 53950
L72505 53950
L72580 53912
L72618 53875
L72655 53800
L72655 53650
L72618 53575
L72580 53537
L72505 53500
L71868 53500
" />
<path d="M72655 52712
L72655 53162
" />
<path d="M72655 52937
L71868 52937
L71980 53012
L72055 53087
L72093 53162
" />
<path d="M72655 51963
L72655 52413
" />
<path d="M72655 52188
L71868 52188
L71980 52263
L72055 52338
L72093 52413
" />
<path d="M61168 46232
L61168 46607
" />
<path d="M60906 45819
L61168 46232
L61431 45819
" />
<path d="M62106 46607
L61656 46607
" />
<path d="M61881 46607
L61881 45819
L61806 45932
L61731 46007
L61656 46044
" />
<path d="M35964 22993
L35177 22993
L35177 22806
L35214 22693
L35289 22618
L35364 22581
L35514 22543
L35627 22543
L35777 22581
L35852 22618
L35927 22693
L35964 22806
L35964 22993
" />
<path d="M35252 22243
L35214 22206
L35177 22131
L35177 21943
L35214 21868
L35252 21831
L35327 21793
L35402 21793
L35514 21831
L35964 22281
L35964 21793
" />
<path d="M72746 27656
L71959 27656
L71959 27469
L71996 27356
L72071 27281
L72146 27244
L72296 27206
L72408 27206
L72558 27244
L72633 27281
L72708 27356
L72746 27469
L72746 27656
" />
<path d="M72221 26531
L72746 26531
" />
<path d="M71921 26719
L72483 26906
L72483 26419
" />
<path d="M69846 27656
L69059 27656
L69059 27469
L69096 27356
L69171 27281
L69246 27244
L69396 27206
L69508 27206
L69658 27244
L69733 27281
L69808 27356
L69846 27469
L69846 27656
" />
<path d="M69059 26944
L69059 26456
L69358 26719
L69358 26606
L69396 26531
L69433 26494
L69508 26456
L69696 26456
L69771 26494
L69808 26531
L69846 26606
L69846 26831
L69808 26906
L69771 26944
" />
<path d="M67126 27656
L66339 27656
L66339 27469
L66376 27356
L66451 27281
L66526 27244
L66676 27206
L66788 27206
L66938 27244
L67013 27281
L67088 27356
L67126 27469
L67126 27656
" />
<path d="M66339 26494
L66339 26869
L66713 26906
L66676 26869
L66638 26794
L66638 26606
L66676 26531
L66713 26494
L66788 26456
L66976 26456
L67051 26494
L67088 26531
L67126 26606
L67126 26794
L67088 26869
L67051 26906
" />
<path d="M34433 42632
L34171 42257
" />
<path d="M33983 42632
L33983 41845
L34283 41845
L34358 41882
L34396 41920
L34433 41995
L34433 42107
L34396 42182
L34358 42219
L34283 42257
L33983 42257
" />
<path d="M34696 41845
L35221 41845
L34883 42632
" />
<path d="M34433 40882
L34171 40507
" />
<path d="M33983 40882
L33983 40095
L34283 40095
L34358 40132
L34396 40170
L34433 40245
L34433 40357
L34396 40432
L34358 40469
L34283 40507
L33983 40507
" />
<path d="M35108 40095
L34958 40095
L34883 40132
L34846 40170
L34771 40282
L34733 40432
L34733 40732
L34771 40807
L34808 40844
L34883 40882
L35033 40882
L35108 40844
L35146 40807
L35183 40732
L35183 40544
L35146 40469
L35108 40432
L35033 40394
L34883 40394
L34808 40432
L34771 40469
L34733 40544
" />
<path d="M52820 43806
L52445 44069
" />
<path d="M52820 44256
L52033 44256
L52033 43956
L52070 43881
L52108 43844
L52182 43806
L52295 43806
L52370 43844
L52407 43881
L52445 43956
L52445 44256
" />
<path d="M52370 43356
L52332 43431
L52295 43469
L52220 43506
L52182 43506
L52108 43469
L52070 43431
L52033 43356
L52033 43206
L52070 43131
L52108 43094
L52182 43056
L52220 43056
L52295 43094
L52332 43131
L52370 43206
L52370 43356
L52407 43431
L52445 43469
L52520 43506
L52670 43506
L52745 43469
L52782 43431
L52820 43356
L52820 43206
L52782 43131
L52745 43094
L52670 43056
L52520 43056
L52445 43094
L52407 43131
L52370 43206
" />
<path d="M37321 18406
L36947 18669
" />
<path d="M37321 18856
L36534 18856
L36534 18556
L36572 18481
L36609 18444
L36684 18406
L36797 18406
L36872 18444
L36909 18481
L36947 18556
L36947 18856
" />
<path d="M37321 17656
L37321 18106
" />
<path d="M37321 17881
L36534 17881
L36647 17956
L36722 18031
L36759 18106
" />
<path d="M65621 31506
L65247 31769
" />
<path d="M65621 31956
L64834 31956
L64834 31656
L64872 31581
L64909 31544
L64984 31506
L65097 31506
L65172 31544
L65209 31581
L65247 31656
L65247 31956
" />
<path d="M65097 30831
L65621 30831
" />
<path d="M64797 31019
L65359 31206
L65359 30719
" />
<path d="M61921 27506
L61547 27769
" />
<path d="M61921 27956
L61134 27956
L61134 27656
L61172 27581
L61209 27544
L61284 27506
L61397 27506
L61472 27544
L61509 27581
L61547 27656
L61547 27956
" />
<path d="M61134 26794
L61134 27169
L61509 27206
L61472 27169
L61434 27094
L61434 26906
L61472 26831
L61509 26794
L61584 26756
L61772 26756
L61847 26794
L61884 26831
L61921 26906
L61921 27094
L61884 27169
L61847 27206
" />
<path d="M68021 31506
L67647 31769
" />
<path d="M68021 31956
L67234 31956
L67234 31656
L67272 31581
L67309 31544
L67384 31506
L67497 31506
L67572 31544
L67609 31581
L67647 31656
L67647 31956
" />
<path d="M67234 31244
L67234 30756
L67534 31019
L67534 30906
L67572 30831
L67609 30794
L67684 30756
L67872 30756
L67947 30794
L67984 30831
L68021 30906
L68021 31131
L67984 31206
L67947 31244
" />
<path d="M29833 38530
L29571 38155
" />
<path d="M29383 38530
L29383 37743
L29683 37743
L29758 37780
L29796 37818
L29833 37893
L29833 38005
L29796 38080
L29758 38118
L29683 38155
L29383 38155
" />
<path d="M30133 37818
L30171 37780
L30246 37743
L30433 37743
L30508 37780
L30546 37818
L30583 37893
L30583 37968
L30546 38080
L30096 38530
L30583 38530
" />
<path d="M63621 65881
L63621 66256
L62833 66256
" />
<path d="M63621 65206
L63621 65656
" />
<path d="M63621 65431
L62833 65431
L62946 65506
L63021 65581
L63058 65656
" />
<path d="M62833 64944
L62833 64456
L63133 64719
L63133 64606
L63171 64531
L63208 64494
L63283 64456
L63471 64456
L63546 64494
L63583 64531
L63621 64606
L63621 64831
L63583 64906
L63546 64944
" />
<path d="M72621 65506
L72621 65881
L71833 65881
" />
<path d="M71833 65319
L71833 64794
L72621 65131
" />
<path d="M35621 65406
L35621 65781
L34833 65781
" />
<path d="M35621 65106
L35621 64956
L35583 64881
L35546 64844
L35433 64769
L35283 64731
L34983 64731
L34908 64769
L34871 64806
L34833 64881
L34833 65031
L34871 65106
L34908 65144
L34983 65181
L35171 65181
L35246 65144
L35283 65106
L35321 65031
L35321 64881
L35283 64806
L35246 64769
L35171 64731
" />
<path d="M30421 65466
L30421 65841
L29633 65841
" />
<path d="M30421 64791
L30421 65241
" />
<path d="M30421 65016
L29633 65016
L29746 65091
L29821 65166
L29858 65241
" />
<path d="M37521 65506
L37521 65881
L36733 65881
" />
<path d="M36808 65281
L36771 65244
L36733 65169
L36733 64981
L36771 64906
L36808 64869
L36883 64831
L36958 64831
L37071 64869
L37521 65319
L37521 64831
" />
<path d="M44521 65506
L44521 65881
L43733 65881
" />
<path d="M43733 65319
L43733 64831
L44033 65094
L44033 64981
L44071 64906
L44108 64869
L44183 64831
L44371 64831
L44446 64869
L44483 64906
L44521 64981
L44521 65206
L44483 65281
L44446 65319
" />
<path d="M51621 65506
L51621 65881
L50833 65881
" />
<path d="M51096 64906
L51621 64906
" />
<path d="M50796 65094
L51358 65281
L51358 64794
" />
<path d="M58621 65506
L58621 65881
L57833 65881
" />
<path d="M57833 64869
L57833 65244
L58208 65281
L58171 65244
L58133 65169
L58133 64981
L58171 64906
L58208 64869
L58283 64831
L58471 64831
L58546 64869
L58583 64906
L58621 64981
L58621 65169
L58583 65244
L58546 65281
" />
<path d="M65621 65506
L65621 65881
L64833 65881
" />
<path d="M64833 64906
L64833 65056
L64871 65131
L64908 65169
L65021 65244
L65171 65281
L65471 65281
L65546 65244
L65583 65206
L65621 65131
L65621 64981
L65583 64906
L65546 64869
L65471 64831
L65283 64831
L65208 64869
L65171 64906
L65133 64981
L65133 65131
L65171 65206
L65208 65244
L65283 65281
" />
<path d="M79621 65506
L79621 65881
L78833 65881
" />
<path d="M79171 65131
L79133 65206
L79096 65244
L79021 65281
L78983 65281
L78908 65244
L78871 65206
L78833 65131
L78833 64981
L78871 64906
L78908 64869
L78983 64831
L79021 64831
L79096 64869
L79133 64906
L79171 64981
L79171 65131
L79208 65206
L79246 65244
L79321 65281
L79471 65281
L79546 65244
L79583 65206
L79621 65131
L79621 64981
L79583 64906
L79546 64869
L79471 64831
L79321 64831
L79246 64869
L79208 64906
L79171 64981
" />
<path d="M42621 65881
L42621 66256
L41833 66256
" />
<path d="M42621 65206
L42621 65656
" />
<path d="M42621 65431
L41833 65431
L41946 65506
L42021 65581
L42058 65656
" />
<path d="M41833 64719
L41833 64644
L41871 64569
L41908 64531
L41983 64494
L42133 64456
L42321 64456
L42471 64494
L42546 64531
L42583 64569
L42621 64644
L42621 64719
L42583 64794
L42546 64831
L42471 64869
L42321 64906
L42133 64906
L41983 64869
L41908 64831
L41871 64794
L41833 64719
" />
<path d="M49521 65881
L49521 66256
L48733 66256
" />
<path d="M49521 65206
L49521 65656
" />
<path d="M49521 65431
L48733 65431
L48846 65506
L48921 65581
L48958 65656
" />
<path d="M49521 64456
L49521 64906
" />
<path d="M49521 64681
L48733 64681
L48846 64756
L48921 64831
L48958 64906
" />
<path d="M56621 65881
L56621 66256
L55833 66256
" />
<path d="M56621 65206
L56621 65656
" />
<path d="M56621 65431
L55833 65431
L55946 65506
L56021 65581
L56058 65656
" />
<path d="M55908 64906
L55871 64869
L55833 64794
L55833 64606
L55871 64531
L55908 64494
L55983 64456
L56058 64456
L56171 64494
L56621 64944
L56621 64456
" />
<path d="M70521 65881
L70521 66256
L69733 66256
" />
<path d="M70521 65206
L70521 65656
" />
<path d="M70521 65431
L69733 65431
L69846 65506
L69921 65581
L69958 65656
" />
<path d="M69996 64531
L70521 64531
" />
<path d="M69696 64719
L70258 64906
L70258 64419
" />
<path d="M77521 65881
L77521 66256
L76733 66256
" />
<path d="M77521 65206
L77521 65656
" />
<path d="M77521 65431
L76733 65431
L76846 65506
L76921 65581
L76958 65656
" />
<path d="M76733 64494
L76733 64869
L77108 64906
L77071 64869
L77033 64794
L77033 64606
L77071 64531
L77108 64494
L77183 64456
L77371 64456
L77446 64494
L77483 64531
L77521 64606
L77521 64794
L77483 64869
L77446 64906
" />
<path d="M84621 65881
L84621 66256
L83833 66256
" />
<path d="M84621 65206
L84621 65656
" />
<path d="M84621 65431
L83833 65431
L83946 65506
L84021 65581
L84058 65656
" />
<path d="M83833 64531
L83833 64681
L83871 64756
L83908 64794
L84021 64869
L84171 64906
L84471 64906
L84546 64869
L84583 64831
L84621 64756
L84621 64606
L84583 64531
L84546 64494
L84471 64456
L84283 64456
L84208 64494
L84171 64531
L84133 64606
L84133 64756
L84171 64831
L84208 64869
L84283 64906
" />
<path d="M32533 61957
L32496 61994
L32383 62032
L32308 62032
L32196 61994
L32121 61919
L32083 61844
L32046 61694
L32046 61582
L32083 61432
L32121 61357
L32196 61282
L32308 61245
L32383 61245
L32496 61282
L32533 61320
" />
<path d="M33246 61245
L32871 61245
L32833 61619
L32871 61582
L32946 61544
L33133 61544
L33208 61582
L33246 61619
L33283 61694
L33283 61882
L33246 61957
L33208 61994
L33133 62032
L32946 62032
L32871 61994
L32833 61957
" />
<path d="M67158 61957
L67121 61994
L67008 62032
L66933 62032
L66821 61994
L66746 61919
L66708 61844
L66671 61694
L66671 61582
L66708 61432
L66746 61357
L66821 61282
L66933 61245
L67008 61245
L67121 61282
L67158 61320
" />
<path d="M67908 62032
L67458 62032
" />
<path d="M67683 62032
L67683 61245
L67608 61357
L67533 61432
L67458 61469
" />
<path d="M68396 61245
L68471 61245
L68546 61282
L68583 61320
L68621 61395
L68658 61544
L68658 61732
L68621 61882
L68583 61957
L68546 61994
L68471 62032
L68396 62032
L68321 61994
L68283 61957
L68246 61882
L68208 61732
L68208 61544
L68246 61395
L68283 61320
L68321 61282
L68396 61245
" />
<path d="M60533 61957
L60496 61994
L60383 62032
L60308 62032
L60196 61994
L60121 61919
L60083 61844
L60046 61694
L60046 61582
L60083 61432
L60121 61357
L60196 61282
L60308 61245
L60383 61245
L60496 61282
L60533 61320
" />
<path d="M60908 62032
L61058 62032
L61133 61994
L61171 61957
L61246 61844
L61283 61694
L61283 61395
L61246 61320
L61208 61282
L61133 61245
L60983 61245
L60908 61282
L60871 61320
L60833 61395
L60833 61582
L60871 61657
L60908 61694
L60983 61732
L61133 61732
L61208 61694
L61246 61657
L61283 61582
" />
<path d="M39533 61957
L39496 61994
L39383 62032
L39308 62032
L39196 61994
L39121 61919
L39083 61844
L39046 61694
L39046 61582
L39083 61432
L39121 61357
L39196 61282
L39308 61245
L39383 61245
L39496 61282
L39533 61320
" />
<path d="M40208 61245
L40058 61245
L39983 61282
L39946 61320
L39871 61432
L39833 61582
L39833 61882
L39871 61957
L39908 61994
L39983 62032
L40133 62032
L40208 61994
L40246 61957
L40283 61882
L40283 61694
L40246 61619
L40208 61582
L40133 61544
L39983 61544
L39908 61582
L39871 61619
L39833 61694
" />
<path d="M46533 61957
L46496 61994
L46383 62032
L46308 62032
L46196 61994
L46121 61919
L46083 61844
L46046 61694
L46046 61582
L46083 61432
L46121 61357
L46196 61282
L46308 61245
L46383 61245
L46496 61282
L46533 61320
" />
<path d="M46796 61245
L47321 61245
L46983 62032
" />
<path d="M53533 61957
L53496 61994
L53383 62032
L53308 62032
L53196 61994
L53121 61919
L53083 61844
L53046 61694
L53046 61582
L53083 61432
L53121 61357
L53196 61282
L53308 61245
L53383 61245
L53496 61282
L53533 61320
" />
<path d="M53983 61582
L53908 61544
L53871 61507
L53833 61432
L53833 61395
L53871 61320
L53908 61282
L53983 61245
L54133 61245
L54208 61282
L54246 61320
L54283 61395
L54283 61432
L54246 61507
L54208 61544
L54133 61582
L53983 61582
L53908 61619
L53871 61657
L53833 61732
L53833 61882
L53871 61957
L53908 61994
L53983 62032
L54133 62032
L54208 61994
L54246 61957
L54283 61882
L54283 61732
L54246 61657
L54208 61619
L54133 61582
" />
<path d="M74158 61957
L74121 61994
L74008 62032
L73933 62032
L73821 61994
L73746 61919
L73708 61844
L73671 61694
L73671 61582
L73708 61432
L73746 61357
L73821 61282
L73933 61245
L74008 61245
L74121 61282
L74158 61320
" />
<path d="M74908 62032
L74458 62032
" />
<path d="M74683 62032
L74683 61245
L74608 61357
L74533 61432
L74458 61469
" />
<path d="M75658 62032
L75208 62032
" />
<path d="M75433 62032
L75433 61245
L75358 61357
L75283 61432
L75208 61469
" />
<path d="M81158 61957
L81121 61994
L81008 62032
L80933 62032
L80821 61994
L80746 61919
L80708 61844
L80671 61694
L80671 61582
L80708 61432
L80746 61357
L80821 61282
L80933 61245
L81008 61245
L81121 61282
L81158 61320
" />
<path d="M81908 62032
L81458 62032
" />
<path d="M81683 62032
L81683 61245
L81608 61357
L81533 61432
L81458 61469
" />
<path d="M82208 61320
L82246 61282
L82321 61245
L82508 61245
L82583 61282
L82621 61320
L82658 61395
L82658 61469
L82621 61582
L82171 62032
L82658 62032
" />
<path d="M38733 17055
L38696 17093
L38583 17130
L38508 17130
L38396 17093
L38321 17018
L38283 16943
L38246 16793
L38246 16680
L38283 16530
L38321 16455
L38396 16380
L38508 16343
L38583 16343
L38696 16380
L38733 16418
" />
<path d="M38996 16343
L39483 16343
L39221 16643
L39333 16643
L39408 16680
L39446 16718
L39483 16793
L39483 16980
L39446 17055
L39408 17093
L39333 17130
L39108 17130
L39033 17093
L38996 17055
" />
<path d="M56245 43981
L56282 44019
L56320 44131
L56320 44206
L56282 44319
L56207 44394
L56132 44431
L55982 44469
L55870 44469
L55720 44431
L55645 44394
L55570 44319
L55533 44206
L55533 44131
L55570 44019
L55608 43981
" />
<path d="M56320 43231
L56320 43681
" />
<path d="M56320 43456
L55533 43456
L55645 43531
L55720 43606
L55757 43681
" />
<path d="M55533 42519
L55533 42894
L55907 42931
L55870 42894
L55832 42819
L55832 42631
L55870 42556
L55907 42519
L55982 42481
L56170 42481
L56245 42519
L56282 42556
L56320 42631
L56320 42819
L56282 42894
L56245 42931
" />
<path d="M75545 53681
L75582 53719
L75620 53831
L75620 53906
L75582 54019
L75507 54094
L75432 54131
L75282 54169
L75170 54169
L75020 54131
L74945 54094
L74870 54019
L74833 53906
L74833 53831
L74870 53719
L74908 53681
" />
<path d="M75620 52931
L75620 53381
" />
<path d="M75620 53156
L74833 53156
L74945 53231
L75020 53306
L75057 53381
" />
<path d="M74833 52669
L74833 52181
L75132 52444
L75132 52331
L75170 52256
L75207 52219
L75282 52181
L75470 52181
L75545 52219
L75582 52256
L75620 52331
L75620 52556
L75582 52631
L75545 52669
" />
<path d="M29833 33857
L29796 33894
L29683 33932
L29608 33932
L29496 33894
L29421 33819
L29383 33744
L29346 33594
L29346 33482
L29383 33332
L29421 33257
L29496 33182
L29608 33145
L29683 33145
L29796 33182
L29833 33220
" />
<path d="M30583 33932
L30133 33932
" />
<path d="M30358 33932
L30358 33145
L30283 33257
L30208 33332
L30133 33369
" />
<path d="M70045 43781
L70082 43819
L70120 43931
L70120 44006
L70082 44119
L70007 44194
L69932 44231
L69782 44269
L69670 44269
L69520 44231
L69445 44194
L69370 44119
L69333 44006
L69333 43931
L69370 43819
L69408 43781
" />
<path d="M70120 43031
L70120 43481
" />
<path d="M70120 43256
L69333 43256
L69445 43331
L69520 43406
L69557 43481
" />
<path d="M69595 42356
L70120 42356
" />
<path d="M69295 42544
L69857 42731
L69857 42244
" />
<path d="M30256 24349
L29469 24349
L29469 24049
L29506 23974
L29544 23936
L29619 23899
L29731 23899
L29806 23936
L29844 23974
L29881 24049
L29881 24349
" />
<path d="M29544 23599
L29506 23561
L29469 23486
L29469 23299
L29506 23224
L29544 23187
L29619 23149
L29694 23149
L29806 23187
L30256 23636
L30256 23149
" />
<path d="M30733 17756
L30696 17794
L30583 17831
L30508 17831
L30396 17794
L30321 17719
L30283 17644
L30246 17494
L30246 17381
L30283 17231
L30321 17156
L30396 17081
L30508 17044
L30583 17044
L30696 17081
L30733 17119
" />
<path d="M31408 17306
L31408 17831
" />
<path d="M31221 17006
L31033 17569
L31521 17569
" />
<path d="M79321 38206
L78947 38469
" />
<path d="M79321 38656
L78534 38656
L78534 38356
L78572 38281
L78609 38244
L78684 38206
L78797 38206
L78872 38244
L78909 38281
L78947 38356
L78947 38656
" />
<path d="M79321 37831
L79321 37681
L79284 37606
L79247 37569
L79134 37494
L78984 37456
L78684 37456
L78609 37494
L78572 37531
L78534 37606
L78534 37756
L78572 37831
L78609 37869
L78684 37906
L78872 37906
L78947 37869
L78984 37831
L79022 37756
L79022 37606
L78984 37531
L78947 37494
L78872 37456
" />
</g> 
</svg>
