<?xml version="1.0" standalone="no"?>
 <!DOCTYPE svg PUBLIC "-//W3C//DTD SVG 1.1//EN" 
 "http://www.w3.org/Graphics/SVG/1.1/DTD/svg11.dtd"> 
<svg xmlns="http://www.w3.org/2000/svg" version="1.1" 
    width="29.7002cm" height="21.0007cm" viewBox="0 0 116930 82680 ">
<title>SVG Picture created as ThermocoupleLogger-B_SilkS.svg date 2019/03/15 17:49:43 </title>
  <desc>Picture generated by PCBNEW </desc>
<g style="fill:#000000; fill-opacity:1;stroke:#000000; stroke-opacity:1;
stroke-linecap:round; stroke-linejoin:round; "
 transform="translate(0 0) scale(1 1)">
</g>
<g style="fill:#000000; fill-opacity:0.0; 
stroke:#000000; stroke-width:-0.000787402; stroke-opacity:1; 
stroke-linecap:round; stroke-linejoin:round;">
</g>
<g style="fill:#000000; fill-opacity:0.0; 
stroke:#000000; stroke-width:78.7402; stroke-opacity:1; 
stroke-linecap:round; stroke-linejoin:round;">
<path d="M23465 12875
L23465 73375
" />
<path d="M93465 68993
L93465 68993
" />
<path d="M93465 12875
L23465 12875
" />
<path d="M93465 73375
L23465 73375
" />
<path d="M93465 12875
L93465 73375
" />
<path d="M93465 13875
L93465 13875
" />
</g>
<g style="fill:#000000; fill-opacity:0.0; 
stroke:#000000; stroke-width:94.4882; stroke-opacity:1; 
stroke-linecap:round; stroke-linejoin:round;">
<path d="M93031 56313
L88542 56313
" />
<path d="M93031 56313
L93031 61037
" />
<path d="M93031 61037
L88542 61037
" />
<path d="M88543 61037.6 A629.921 629.921 0.0 0 0 87951 61452.1 " />
<path d="M70278.6 58639.8 A9051.78 9051.78 0.0 0 0 87952.4 61431.3 " />
<path d="M87951 55898.8 A629.921 629.921 0.0 0 0 88543 56313.2 " />
<path d="M87952.4 55919.5 A9051.78 9051.78 0.0 0 0 70278.6 58711.1 " />
</g>
<g style="fill:#000000; fill-opacity:0.0; 
stroke:#000000; stroke-width:118.11; stroke-opacity:1; 
stroke-linecap:round; stroke-linejoin:round;">
<path d="M90680 62005
L90792 62042
L90830 62080
L90867 62154
L90867 62267
L90830 62342
L90792 62379
L90717 62417
L90417 62417
L90417 61630
L90680 61630
L90755 61667
L90792 61705
L90830 61780
L90830 61855
L90792 61930
L90755 61967
L90680 62005
L90417 62005
" />
<path d="M91092 61630
L91542 61630
" />
<path d="M91317 62417
L91317 61630
" />
<path d="M91767 61705
L91805 61667
L91880 61630
L92067 61630
L92142 61667
L92179 61705
L92217 61780
L92217 61855
L92179 61967
L91730 62417
L92217 62417
" />
<path d="M88683 58759
L89583 58759
" />
<path d="M89133 59209
L89133 58309
" />
</g> 
</svg>
