<?xml version="1.0" standalone="no"?>
 <!DOCTYPE svg PUBLIC "-//W3C//DTD SVG 1.1//EN" 
 "http://www.w3.org/Graphics/SVG/1.1/DTD/svg11.dtd"> 
<svg xmlns="http://www.w3.org/2000/svg" version="1.1" 
    width="29.7002cm" height="21.0007cm" viewBox="0 0 116930 82680 ">
<title>SVG Picture created as ThermocoupleLogger-B_Mask.svg date 2019/03/28 10:51:20 </title>
  <desc>Picture generated by PCBNEW </desc>
<g style="fill:#000000; fill-opacity:1;stroke:#000000; stroke-opacity:1;
stroke-linecap:round; stroke-linejoin:round; "
 transform="translate(0 0) scale(1 1)">
</g>
<g style="fill:#000000; fill-opacity:0.0; 
stroke:#000000; stroke-width:-0.000787402; stroke-opacity:1; 
stroke-linecap:round; stroke-linejoin:round;">
</g>
<g style="fill:#000000; fill-opacity:0.0; 
stroke:#000000; stroke-width:78.7402; stroke-opacity:1; 
stroke-linecap:round; stroke-linejoin:round;">
<path d="M93971 12875
L93971 73375
" />
<path d="M23971 68993
L23971 68993
" />
<path d="M23971 12875
L93971 12875
" />
<path d="M23971 73375
L93971 73375
" />
<path d="M23971 12875
L23971 73375
" />
<path d="M23971 13875
L23971 13875
" />
</g>
<g style="fill:#000000; fill-opacity:1.0; 
stroke:#000000; stroke-width:0; stroke-opacity:1; 
stroke-linecap:round; stroke-linejoin:round;">
<path style="fill:#000000; fill-opacity:1.0; 
stroke:#000000; stroke-width:0; stroke-opacity:1; 
stroke-linecap:round; stroke-linejoin:round;fill-rule:evenodd;"
d="M 32334,69597
32397,69616
32460,69635
32460,69635
32577,69698
32678,69781
32762,69883
32824,69999
32862,70126
32872,70224
32872,70526
32862,70624
32824,70750
32762,70867
32678,70969
32577,71052
32460,71114
32334,71153
32203,71166
32072,71153
31980,71125
31946,71114
31888,71084
31829,71052
31727,70969
31644,70867
31582,70750
31543,70624
31534,70526
31534,70224
31543,70126
31582,69999
31644,69883
31727,69781
31829,69698
31946,69635
31946,69635
32009,69616
32072,69597
32203,69584
32334,69597
Z" /> 
<path style="fill:#000000; fill-opacity:1.0; 
stroke:#000000; stroke-width:0; stroke-opacity:1; 
stroke-linecap:round; stroke-linejoin:round;fill-rule:evenodd;"
d="M 39334,69597
39397,69616
39460,69635
39460,69635
39577,69698
39678,69781
39762,69883
39824,69999
39862,70126
39872,70224
39872,70526
39862,70624
39824,70750
39762,70867
39678,70969
39577,71052
39460,71114
39334,71153
39203,71166
39072,71153
38980,71125
38946,71114
38888,71084
38829,71052
38727,70969
38644,70867
38582,70750
38543,70624
38534,70526
38534,70224
38543,70126
38582,69999
38644,69883
38727,69781
38829,69698
38946,69635
38946,69635
39009,69616
39072,69597
39203,69584
39334,69597
Z" /> 
<path style="fill:#000000; fill-opacity:1.0; 
stroke:#000000; stroke-width:0; stroke-opacity:1; 
stroke-linecap:round; stroke-linejoin:round;fill-rule:evenodd;"
d="M 46334,69597
46397,69616
46460,69635
46460,69635
46577,69698
46678,69781
46762,69883
46824,69999
46862,70126
46872,70224
46872,70526
46862,70624
46824,70750
46762,70867
46678,70969
46577,71052
46460,71114
46334,71153
46203,71166
46072,71153
45980,71125
45946,71114
45888,71084
45829,71052
45727,70969
45644,70867
45582,70750
45543,70624
45534,70526
45534,70224
45543,70126
45582,69999
45644,69883
45727,69781
45829,69698
45946,69635
45946,69635
46009,69616
46072,69597
46203,69584
46334,69597
Z" /> 
<path style="fill:#000000; fill-opacity:1.0; 
stroke:#000000; stroke-width:0; stroke-opacity:1; 
stroke-linecap:round; stroke-linejoin:round;fill-rule:evenodd;"
d="M 53334,69597
53397,69616
53460,69635
53460,69635
53577,69698
53678,69781
53762,69883
53824,69999
53862,70126
53872,70224
53872,70526
53862,70624
53824,70750
53762,70867
53678,70969
53577,71052
53460,71114
53334,71153
53203,71166
53072,71153
52980,71125
52946,71114
52888,71084
52829,71052
52727,70969
52644,70867
52582,70750
52543,70624
52534,70526
52534,70224
52543,70126
52582,69999
52644,69883
52727,69781
52829,69698
52946,69635
52946,69635
53009,69616
53072,69597
53203,69584
53334,69597
Z" /> 
<path style="fill:#000000; fill-opacity:1.0; 
stroke:#000000; stroke-width:0; stroke-opacity:1; 
stroke-linecap:round; stroke-linejoin:round;fill-rule:evenodd;"
d="M 60334,69597
60397,69616
60460,69635
60460,69635
60577,69698
60678,69781
60762,69883
60824,69999
60862,70126
60872,70224
60872,70526
60862,70624
60824,70750
60762,70867
60678,70969
60577,71052
60460,71114
60334,71153
60203,71166
60072,71153
59980,71125
59946,71114
59888,71084
59829,71052
59727,70969
59644,70867
59582,70750
59543,70624
59534,70526
59534,70224
59543,70126
59582,69999
59644,69883
59727,69781
59829,69698
59946,69635
59946,69635
60009,69616
60072,69597
60203,69584
60334,69597
Z" /> 
<path style="fill:#000000; fill-opacity:1.0; 
stroke:#000000; stroke-width:0; stroke-opacity:1; 
stroke-linecap:round; stroke-linejoin:round;fill-rule:evenodd;"
d="M 67303,69597
67366,69616
67429,69635
67429,69635
67545,69698
67647,69781
67731,69883
67793,69999
67831,70126
67841,70224
67841,70526
67831,70624
67793,70750
67731,70867
67647,70969
67545,71052
67429,71114
67303,71153
67171,71166
67040,71153
66948,71125
66914,71114
66856,71084
66798,71052
66696,70969
66612,70867
66550,70750
66512,70624
66502,70526
66502,70224
66512,70126
66550,69999
66612,69883
66696,69781
66798,69698
66914,69635
66914,69635
66977,69616
67040,69597
67171,69584
67303,69597
Z" /> 
<path style="fill:#000000; fill-opacity:1.0; 
stroke:#000000; stroke-width:0; stroke-opacity:1; 
stroke-linecap:round; stroke-linejoin:round;fill-rule:evenodd;"
d="M 74303,69597
74366,69616
74429,69635
74429,69635
74545,69698
74647,69781
74731,69883
74793,69999
74831,70126
74841,70224
74841,70526
74831,70624
74793,70750
74731,70867
74647,70969
74545,71052
74429,71114
74303,71153
74171,71166
74040,71153
73948,71125
73914,71114
73856,71084
73798,71052
73696,70969
73612,70867
73550,70750
73512,70624
73502,70526
73502,70224
73512,70126
73550,69999
73612,69883
73696,69781
73798,69698
73914,69635
73914,69635
73977,69616
74040,69597
74171,69584
74303,69597
Z" /> 
<path style="fill:#000000; fill-opacity:1.0; 
stroke:#000000; stroke-width:0; stroke-opacity:1; 
stroke-linecap:round; stroke-linejoin:round;fill-rule:evenodd;"
d="M 81303,69597
81366,69616
81429,69635
81429,69635
81545,69698
81647,69781
81731,69883
81793,69999
81831,70126
81841,70224
81841,70526
81831,70624
81793,70750
81731,70867
81647,70969
81545,71052
81429,71114
81303,71153
81171,71166
81040,71153
80948,71125
80914,71114
80856,71084
80798,71052
80696,70969
80612,70867
80550,70750
80512,70624
80502,70526
80502,70224
80512,70126
80550,69999
80612,69883
80696,69781
80798,69698
80914,69635
80914,69635
80977,69616
81040,69597
81171,69584
81303,69597
Z" /> 
<path style="fill:#000000; fill-opacity:1.0; 
stroke:#000000; stroke-width:0; stroke-opacity:1; 
stroke-linecap:round; stroke-linejoin:round;fill-rule:evenodd;"
d="M 34738,69590
34762,69598
34784,69609
34803,69625
34819,69644
34831,69666
34838,69690
34841,69720
34841,71030
34838,71060
34831,71084
34819,71105
34803,71125
34784,71140
34762,71152
34738,71159
34708,71162
33634,71162
33605,71159
33581,71152
33559,71140
33540,71125
33524,71105
33512,71084
33505,71060
33502,71030
33502,69720
33505,69690
33512,69666
33524,69644
33540,69625
33559,69609
33581,69598
33605,69590
33634,69588
34708,69588
34738,69590
Z" /> 
<path style="fill:#000000; fill-opacity:1.0; 
stroke:#000000; stroke-width:0; stroke-opacity:1; 
stroke-linecap:round; stroke-linejoin:round;fill-rule:evenodd;"
d="M 41738,69590
41762,69598
41784,69609
41803,69625
41819,69644
41831,69666
41838,69690
41841,69720
41841,71030
41838,71060
41831,71084
41819,71105
41803,71125
41784,71140
41762,71152
41738,71159
41708,71162
40634,71162
40605,71159
40581,71152
40559,71140
40540,71125
40524,71105
40512,71084
40505,71060
40502,71030
40502,69720
40505,69690
40512,69666
40524,69644
40540,69625
40559,69609
40581,69598
40605,69590
40634,69588
41708,69588
41738,69590
Z" /> 
<path style="fill:#000000; fill-opacity:1.0; 
stroke:#000000; stroke-width:0; stroke-opacity:1; 
stroke-linecap:round; stroke-linejoin:round;fill-rule:evenodd;"
d="M 48738,69590
48762,69598
48784,69609
48803,69625
48819,69644
48831,69666
48838,69690
48841,69720
48841,71030
48838,71060
48831,71084
48819,71105
48803,71125
48784,71140
48762,71152
48738,71159
48708,71162
47634,71162
47605,71159
47581,71152
47559,71140
47540,71125
47524,71105
47512,71084
47505,71060
47502,71030
47502,69720
47505,69690
47512,69666
47524,69644
47540,69625
47559,69609
47581,69598
47605,69590
47634,69588
48708,69588
48738,69590
Z" /> 
<path style="fill:#000000; fill-opacity:1.0; 
stroke:#000000; stroke-width:0; stroke-opacity:1; 
stroke-linecap:round; stroke-linejoin:round;fill-rule:evenodd;"
d="M 55738,69590
55762,69598
55784,69609
55803,69625
55819,69644
55831,69666
55838,69690
55841,69720
55841,71030
55838,71060
55831,71084
55819,71105
55803,71125
55784,71140
55762,71152
55738,71159
55708,71162
54634,71162
54605,71159
54581,71152
54559,71140
54540,71125
54524,71105
54512,71084
54505,71060
54502,71030
54502,69720
54505,69690
54512,69666
54524,69644
54540,69625
54559,69609
54581,69598
54605,69590
54634,69588
55708,69588
55738,69590
Z" /> 
<path style="fill:#000000; fill-opacity:1.0; 
stroke:#000000; stroke-width:0; stroke-opacity:1; 
stroke-linecap:round; stroke-linejoin:round;fill-rule:evenodd;"
d="M 62738,69590
62762,69598
62784,69609
62803,69625
62819,69644
62831,69666
62838,69690
62841,69720
62841,71030
62838,71060
62831,71084
62819,71105
62803,71125
62784,71140
62762,71152
62738,71159
62708,71162
61634,71162
61605,71159
61581,71152
61559,71140
61540,71125
61524,71105
61512,71084
61505,71060
61502,71030
61502,69720
61505,69690
61512,69666
61524,69644
61540,69625
61559,69609
61581,69598
61605,69590
61634,69588
62708,69588
62738,69590
Z" /> 
<path style="fill:#000000; fill-opacity:1.0; 
stroke:#000000; stroke-width:0; stroke-opacity:1; 
stroke-linecap:round; stroke-linejoin:round;fill-rule:evenodd;"
d="M 69707,69590
69730,69598
69752,69609
69772,69625
69787,69644
69799,69666
69806,69690
69809,69720
69809,71030
69806,71060
69799,71084
69787,71105
69772,71125
69752,71140
69730,71152
69707,71159
69677,71162
68603,71162
68573,71159
68549,71152
68527,71140
68508,71125
68492,71105
68481,71084
68474,71060
68471,71030
68471,69720
68474,69690
68481,69666
68492,69644
68508,69625
68527,69609
68549,69598
68573,69590
68603,69588
69677,69588
69707,69590
Z" /> 
<path style="fill:#000000; fill-opacity:1.0; 
stroke:#000000; stroke-width:0; stroke-opacity:1; 
stroke-linecap:round; stroke-linejoin:round;fill-rule:evenodd;"
d="M 76707,69590
76730,69598
76752,69609
76772,69625
76787,69644
76799,69666
76806,69690
76809,69720
76809,71030
76806,71060
76799,71084
76787,71105
76772,71125
76752,71140
76730,71152
76707,71159
76677,71162
75603,71162
75573,71159
75549,71152
75527,71140
75508,71125
75492,71105
75481,71084
75474,71060
75471,71030
75471,69720
75474,69690
75481,69666
75492,69644
75508,69625
75527,69609
75549,69598
75573,69590
75603,69588
76677,69588
76707,69590
Z" /> 
<path style="fill:#000000; fill-opacity:1.0; 
stroke:#000000; stroke-width:0; stroke-opacity:1; 
stroke-linecap:round; stroke-linejoin:round;fill-rule:evenodd;"
d="M 83707,69590
83730,69598
83752,69609
83772,69625
83787,69644
83799,69666
83806,69690
83809,69720
83809,71030
83806,71060
83799,71084
83787,71105
83772,71125
83752,71140
83730,71152
83707,71159
83677,71162
82603,71162
82573,71159
82549,71152
82527,71140
82508,71125
82492,71105
82481,71084
82474,71060
82471,71030
82471,69720
82474,69690
82481,69666
82492,69644
82508,69625
82527,69609
82549,69598
82573,69590
82603,69588
83677,69588
83707,69590
Z" /> 
<path style="fill:#000000; fill-opacity:1.0; 
stroke:#000000; stroke-width:0; stroke-opacity:1; 
stroke-linecap:round; stroke-linejoin:round;fill-rule:evenodd;"
d="M 27319,59856
24956,59856
24956,57494
27319,57494
27319,59856
Z" /> 
<path style="fill:#000000; fill-opacity:1.0; 
stroke:#000000; stroke-width:0; stroke-opacity:1; 
stroke-linecap:round; stroke-linejoin:round;fill-rule:evenodd;"
d="M 42616,57539
42831,57628
42831,57628
42928,57693
43024,57758
43189,57922
43318,58115
43407,58330
43452,58559
43452,58791
43407,59019
43325,59217
43318,59234
43189,59428
43024,59592
42831,59722
42831,59722
42831,59722
42616,59811
42388,59856
42155,59856
41927,59811
41712,59722
41712,59722
41712,59722
41518,59592
41354,59428
41225,59234
41218,59217
41136,59019
41090,58791
41090,58559
41136,58330
41225,58115
41354,57922
41518,57758
41615,57693
41712,57628
41712,57628
41927,57539
42155,57494
42388,57494
42616,57539
Z" /> 
<path style="fill:#000000; fill-opacity:1.0; 
stroke:#000000; stroke-width:0; stroke-opacity:1; 
stroke-linecap:round; stroke-linejoin:round;fill-rule:evenodd;"
d="M 71033,58348
71095,58354
71214,58390
71214,58390
71323,58449
71323,58449
71323,58449
71419,58527
71498,58623
71556,58733
71592,58851
71604,58975
71592,59098
71556,59217
71556,59217
71498,59327
71419,59423
71323,59501
71214,59560
71214,59560
71095,59596
71033,59602
71002,59605
70940,59605
70910,59602
70848,59596
70729,59560
70729,59560
70620,59501
70524,59423
70445,59327
70387,59217
70387,59217
70351,59098
70338,58975
70351,58851
70387,58733
70445,58623
70524,58527
70620,58449
70620,58449
70620,58449
70729,58390
70729,58390
70848,58354
70910,58348
70940,58345
71002,58345
71033,58348
Z" /> 
<path style="fill:#000000; fill-opacity:1.0; 
stroke:#000000; stroke-width:0; stroke-opacity:1; 
stroke-linecap:round; stroke-linejoin:round;fill-rule:evenodd;"
d="M 65033,58348
65095,58354
65214,58390
65214,58390
65323,58449
65323,58449
65323,58449
65419,58527
65498,58623
65556,58733
65592,58851
65604,58975
65592,59098
65556,59217
65556,59217
65498,59327
65419,59423
65323,59501
65214,59560
65214,59560
65095,59596
65033,59602
65002,59605
64940,59605
64910,59602
64848,59596
64729,59560
64729,59560
64620,59501
64524,59423
64445,59327
64387,59217
64387,59217
64351,59098
64338,58975
64351,58851
64387,58733
64445,58623
64524,58527
64620,58449
64620,58449
64620,58449
64729,58390
64729,58390
64848,58354
64910,58348
64940,58345
65002,58345
65033,58348
Z" /> 
<path style="fill:#000000; fill-opacity:1.0; 
stroke:#000000; stroke-width:0; stroke-opacity:1; 
stroke-linecap:round; stroke-linejoin:round;fill-rule:evenodd;"
d="M 69033,58348
69095,58354
69214,58390
69214,58390
69323,58449
69323,58449
69323,58449
69419,58527
69498,58623
69556,58733
69592,58851
69604,58975
69592,59098
69556,59217
69556,59217
69498,59327
69419,59423
69323,59501
69214,59560
69214,59560
69095,59596
69033,59602
69002,59605
68940,59605
68910,59602
68848,59596
68729,59560
68729,59560
68620,59501
68524,59423
68445,59327
68387,59217
68387,59217
68351,59098
68338,58975
68351,58851
68387,58733
68445,58623
68524,58527
68620,58449
68620,58449
68620,58449
68729,58390
68729,58390
68848,58354
68910,58348
68940,58345
69002,58345
69033,58348
Z" /> 
<path style="fill:#000000; fill-opacity:1.0; 
stroke:#000000; stroke-width:0; stroke-opacity:1; 
stroke-linecap:round; stroke-linejoin:round;fill-rule:evenodd;"
d="M 67033,58348
67095,58354
67214,58390
67214,58390
67323,58449
67323,58449
67323,58449
67419,58527
67498,58623
67556,58733
67592,58851
67604,58975
67592,59098
67556,59217
67556,59217
67498,59327
67419,59423
67323,59501
67214,59560
67214,59560
67095,59596
67033,59602
67002,59605
66940,59605
66910,59602
66848,59596
66729,59560
66729,59560
66620,59501
66524,59423
66445,59327
66387,59217
66387,59217
66351,59098
66338,58975
66351,58851
66387,58733
66445,58623
66524,58527
66620,58449
66620,58449
66620,58449
66729,58390
66729,58390
66848,58354
66910,58348
66940,58345
67002,58345
67033,58348
Z" /> 
<path style="fill:#000000; fill-opacity:1.0; 
stroke:#000000; stroke-width:0; stroke-opacity:1; 
stroke-linecap:round; stroke-linejoin:round;fill-rule:evenodd;"
d="M 63033,58348
63095,58354
63214,58390
63214,58390
63323,58449
63323,58449
63323,58449
63419,58527
63498,58623
63556,58733
63592,58851
63604,58975
63592,59098
63556,59217
63556,59217
63498,59327
63419,59423
63323,59501
63214,59560
63214,59560
63095,59596
63033,59602
63002,59605
62940,59605
62910,59602
62848,59596
62729,59560
62729,59560
62620,59501
62524,59423
62445,59327
62387,59217
62387,59217
62351,59098
62338,58975
62351,58851
62387,58733
62445,58623
62524,58527
62620,58449
62620,58449
62620,58449
62729,58390
62729,58390
62848,58354
62910,58348
62940,58345
63002,58345
63033,58348
Z" /> 
<path style="fill:#000000; fill-opacity:1.0; 
stroke:#000000; stroke-width:0; stroke-opacity:1; 
stroke-linecap:round; stroke-linejoin:round;fill-rule:evenodd;"
d="M 61033,58348
61095,58354
61214,58390
61214,58390
61323,58449
61323,58449
61323,58449
61419,58527
61498,58623
61556,58733
61592,58851
61604,58975
61592,59098
61556,59217
61556,59217
61498,59327
61419,59423
61323,59501
61214,59560
61214,59560
61095,59596
61033,59602
61002,59605
60940,59605
60910,59602
60848,59596
60729,59560
60729,59560
60620,59501
60524,59423
60445,59327
60387,59217
60387,59217
60351,59098
60338,58975
60351,58851
60387,58733
60445,58623
60524,58527
60620,58449
60620,58449
60620,58449
60729,58390
60729,58390
60848,58354
60910,58348
60940,58345
61002,58345
61033,58348
Z" /> 
<path style="fill:#000000; fill-opacity:1.0; 
stroke:#000000; stroke-width:0; stroke-opacity:1; 
stroke-linecap:round; stroke-linejoin:round;fill-rule:evenodd;"
d="M 59033,58348
59095,58354
59214,58390
59214,58390
59323,58449
59323,58449
59323,58449
59419,58527
59498,58623
59556,58733
59592,58851
59604,58975
59592,59098
59556,59217
59556,59217
59498,59327
59419,59423
59323,59501
59214,59560
59214,59560
59095,59596
59033,59602
59002,59605
58940,59605
58910,59602
58848,59596
58729,59560
58729,59560
58620,59501
58524,59423
58445,59327
58387,59217
58387,59217
58351,59098
58338,58975
58351,58851
58387,58733
58445,58623
58524,58527
58620,58449
58620,58449
58620,58449
58729,58390
58729,58390
58848,58354
58910,58348
58940,58345
59002,58345
59033,58348
Z" /> 
<path style="fill:#000000; fill-opacity:1.0; 
stroke:#000000; stroke-width:0; stroke-opacity:1; 
stroke-linecap:round; stroke-linejoin:round;fill-rule:evenodd;"
d="M 57033,58348
57095,58354
57214,58390
57214,58390
57323,58449
57323,58449
57323,58449
57419,58527
57498,58623
57556,58733
57592,58851
57604,58975
57592,59098
57556,59217
57556,59217
57498,59327
57419,59423
57323,59501
57214,59560
57214,59560
57095,59596
57033,59602
57002,59605
56940,59605
56910,59602
56848,59596
56729,59560
56729,59560
56620,59501
56524,59423
56445,59327
56387,59217
56387,59217
56351,59098
56338,58975
56351,58851
56387,58733
56445,58623
56524,58527
56620,58449
56620,58449
56620,58449
56729,58390
56729,58390
56848,58354
56910,58348
56940,58345
57002,58345
57033,58348
Z" /> 
<path style="fill:#000000; fill-opacity:1.0; 
stroke:#000000; stroke-width:0; stroke-opacity:1; 
stroke-linecap:round; stroke-linejoin:round;fill-rule:evenodd;"
d="M 45033,58348
45095,58354
45214,58390
45214,58390
45323,58449
45323,58449
45323,58449
45419,58527
45498,58623
45556,58733
45592,58851
45604,58975
45592,59098
45556,59217
45556,59217
45498,59327
45419,59423
45323,59501
45214,59560
45214,59560
45095,59596
45033,59602
45002,59605
44940,59605
44910,59602
44848,59596
44729,59560
44729,59560
44620,59501
44524,59423
44445,59327
44387,59217
44387,59217
44351,59098
44338,58975
44351,58851
44387,58733
44445,58623
44524,58527
44620,58449
44620,58449
44620,58449
44729,58390
44729,58390
44848,58354
44910,58348
44940,58345
45002,58345
45033,58348
Z" /> 
<path style="fill:#000000; fill-opacity:1.0; 
stroke:#000000; stroke-width:0; stroke-opacity:1; 
stroke-linecap:round; stroke-linejoin:round;fill-rule:evenodd;"
d="M 47033,58348
47095,58354
47214,58390
47214,58390
47323,58449
47323,58449
47323,58449
47419,58527
47498,58623
47556,58733
47592,58851
47604,58975
47592,59098
47556,59217
47556,59217
47498,59327
47419,59423
47323,59501
47214,59560
47214,59560
47095,59596
47033,59602
47002,59605
46940,59605
46910,59602
46848,59596
46729,59560
46729,59560
46620,59501
46524,59423
46445,59327
46387,59217
46387,59217
46351,59098
46338,58975
46351,58851
46387,58733
46445,58623
46524,58527
46620,58449
46620,58449
46620,58449
46729,58390
46729,58390
46848,58354
46910,58348
46940,58345
47002,58345
47033,58348
Z" /> 
<path style="fill:#000000; fill-opacity:1.0; 
stroke:#000000; stroke-width:0; stroke-opacity:1; 
stroke-linecap:round; stroke-linejoin:round;fill-rule:evenodd;"
d="M 55033,58348
55095,58354
55214,58390
55214,58390
55323,58449
55323,58449
55323,58449
55419,58527
55498,58623
55556,58733
55592,58851
55604,58975
55592,59098
55556,59217
55556,59217
55498,59327
55419,59423
55323,59501
55214,59560
55214,59560
55095,59596
55033,59602
55002,59605
54940,59605
54910,59602
54848,59596
54729,59560
54729,59560
54620,59501
54524,59423
54445,59327
54387,59217
54387,59217
54351,59098
54338,58975
54351,58851
54387,58733
54445,58623
54524,58527
54620,58449
54620,58449
54620,58449
54729,58390
54729,58390
54848,58354
54910,58348
54940,58345
55002,58345
55033,58348
Z" /> 
<path style="fill:#000000; fill-opacity:1.0; 
stroke:#000000; stroke-width:0; stroke-opacity:1; 
stroke-linecap:round; stroke-linejoin:round;fill-rule:evenodd;"
d="M 49033,58348
49095,58354
49214,58390
49214,58390
49323,58449
49323,58449
49323,58449
49419,58527
49498,58623
49556,58733
49592,58851
49604,58975
49592,59098
49556,59217
49556,59217
49498,59327
49419,59423
49323,59501
49214,59560
49214,59560
49095,59596
49033,59602
49002,59605
48940,59605
48910,59602
48848,59596
48729,59560
48729,59560
48620,59501
48524,59423
48445,59327
48387,59217
48387,59217
48351,59098
48338,58975
48351,58851
48387,58733
48445,58623
48524,58527
48620,58449
48620,58449
48620,58449
48729,58390
48729,58390
48848,58354
48910,58348
48940,58345
49002,58345
49033,58348
Z" /> 
<path style="fill:#000000; fill-opacity:1.0; 
stroke:#000000; stroke-width:0; stroke-opacity:1; 
stroke-linecap:round; stroke-linejoin:round;fill-rule:evenodd;"
d="M 51033,58348
51095,58354
51214,58390
51214,58390
51323,58449
51323,58449
51323,58449
51419,58527
51498,58623
51556,58733
51592,58851
51604,58975
51592,59098
51556,59217
51556,59217
51498,59327
51419,59423
51323,59501
51214,59560
51214,59560
51095,59596
51033,59602
51002,59605
50940,59605
50910,59602
50848,59596
50729,59560
50729,59560
50620,59501
50524,59423
50445,59327
50387,59217
50387,59217
50351,59098
50338,58975
50351,58851
50387,58733
50445,58623
50524,58527
50620,58449
50620,58449
50620,58449
50729,58390
50729,58390
50848,58354
50910,58348
50940,58345
51002,58345
51033,58348
Z" /> 
<path style="fill:#000000; fill-opacity:1.0; 
stroke:#000000; stroke-width:0; stroke-opacity:1; 
stroke-linecap:round; stroke-linejoin:round;fill-rule:evenodd;"
d="M 53033,58348
53095,58354
53214,58390
53214,58390
53323,58449
53323,58449
53323,58449
53419,58527
53498,58623
53556,58733
53592,58851
53604,58975
53592,59098
53556,59217
53556,59217
53498,59327
53419,59423
53323,59501
53214,59560
53214,59560
53095,59596
53033,59602
53002,59605
52940,59605
52910,59602
52848,59596
52729,59560
52729,59560
52620,59501
52524,59423
52445,59327
52387,59217
52387,59217
52351,59098
52338,58975
52351,58851
52387,58733
52445,58623
52524,58527
52620,58449
52620,58449
52620,58449
52729,58390
52729,58390
52848,58354
52910,58348
52940,58345
53002,58345
53033,58348
Z" /> 
<path style="fill:#000000; fill-opacity:1.0; 
stroke:#000000; stroke-width:0; stroke-opacity:1; 
stroke-linecap:round; stroke-linejoin:round;fill-rule:evenodd;"
d="M 77996,53877
78059,53896
78122,53915
78122,53915
78239,53977
78341,54061
78424,54163
78486,54279
78525,54405
78538,54536
78525,54668
78486,54794
78424,54910
78341,55012
78239,55096
78122,55158
78122,55158
78059,55177
77996,55196
77898,55206
77635,55206
77537,55196
77474,55177
77411,55158
77411,55158
77295,55096
77193,55012
77109,54910
77047,54794
77009,54668
76996,54536
77009,54405
77047,54279
77109,54163
77193,54061
77295,53977
77411,53915
77411,53915
77474,53896
77537,53877
77635,53867
77898,53867
77996,53877
Z" /> 
<path style="fill:#000000; fill-opacity:1.0; 
stroke:#000000; stroke-width:0; stroke-opacity:1; 
stroke-linecap:round; stroke-linejoin:round;fill-rule:evenodd;"
d="M 90286,53985
89027,53985
89027,52725
90286,52725
90286,53985
Z" /> 
<path style="fill:#000000; fill-opacity:1.0; 
stroke:#000000; stroke-width:0; stroke-opacity:1; 
stroke-linecap:round; stroke-linejoin:round;fill-rule:evenodd;"
d="M 83718,52728
83780,52734
83899,52770
83899,52770
84008,52829
84104,52908
84183,53004
84241,53113
84241,53113
84277,53232
84289,53355
84277,53479
84241,53597
84241,53597
84183,53707
84104,53803
84008,53882
83899,53940
83899,53940
83780,53976
83718,53982
83687,53985
83625,53985
83595,53982
83533,53976
83414,53940
83414,53940
83305,53882
83209,53803
83130,53707
83072,53597
83072,53597
83036,53479
83023,53355
83036,53232
83072,53113
83072,53113
83130,53004
83209,52908
83305,52829
83414,52770
83414,52770
83533,52734
83595,52728
83625,52725
83687,52725
83718,52728
Z" /> 
<path style="fill:#000000; fill-opacity:1.0; 
stroke:#000000; stroke-width:0; stroke-opacity:1; 
stroke-linecap:round; stroke-linejoin:round;fill-rule:evenodd;"
d="M 77996,51908
78059,51927
78122,51947
78122,51947
78239,52009
78341,52092
78424,52194
78486,52310
78525,52437
78538,52568
78525,52699
78486,52825
78424,52941
78341,53043
78239,53127
78122,53189
78122,53189
78059,53208
77996,53227
77898,53237
77635,53237
77537,53227
77474,53208
77411,53189
77411,53189
77295,53127
77193,53043
77109,52941
77047,52825
77009,52699
76996,52568
77009,52437
77047,52310
77109,52194
77193,52092
77295,52009
77411,51947
77411,51947
77474,51927
77537,51908
77635,51899
77898,51899
77996,51908
Z" /> 
<path style="fill:#000000; fill-opacity:1.0; 
stroke:#000000; stroke-width:0; stroke-opacity:1; 
stroke-linecap:round; stroke-linejoin:round;fill-rule:evenodd;"
d="M 83718,50728
83780,50734
83899,50770
83899,50770
84008,50829
84008,50829
84008,50829
84104,50908
84183,51004
84241,51113
84277,51232
84289,51355
84277,51479
84275,51485
84241,51597
84183,51707
84104,51803
84008,51882
83899,51940
83899,51940
83780,51976
83718,51982
83687,51985
83625,51985
83595,51982
83533,51976
83414,51940
83414,51940
83305,51882
83209,51803
83130,51707
83072,51597
83038,51485
83036,51479
83023,51355
83036,51232
83072,51113
83130,51004
83209,50908
83305,50829
83305,50829
83305,50829
83414,50770
83414,50770
83533,50734
83595,50728
83625,50725
83687,50725
83718,50728
Z" /> 
<path style="fill:#000000; fill-opacity:1.0; 
stroke:#000000; stroke-width:0; stroke-opacity:1; 
stroke-linecap:round; stroke-linejoin:round;fill-rule:evenodd;"
d="M 89718,50728
89780,50734
89899,50770
89899,50770
90008,50829
90008,50829
90008,50829
90104,50908
90183,51004
90241,51113
90277,51232
90289,51355
90277,51479
90275,51485
90241,51597
90183,51707
90104,51803
90008,51882
89899,51940
89899,51940
89780,51976
89718,51982
89687,51985
89625,51985
89595,51982
89533,51976
89414,51940
89414,51940
89305,51882
89209,51803
89130,51707
89072,51597
89038,51485
89036,51479
89023,51355
89036,51232
89072,51113
89130,51004
89209,50908
89305,50829
89305,50829
89305,50829
89414,50770
89414,50770
89533,50734
89595,50728
89625,50725
89687,50725
89718,50728
Z" /> 
<path style="fill:#000000; fill-opacity:1.0; 
stroke:#000000; stroke-width:0; stroke-opacity:1; 
stroke-linecap:round; stroke-linejoin:round;fill-rule:evenodd;"
d="M 28823,49713
28990,49783
28990,49783
29141,49884
29270,50012
29344,50124
29370,50163
29440,50331
29475,50509
29475,50690
29440,50868
29396,50973
29370,51036
29270,51187
29141,51315
28990,51416
28990,51416
28990,51416
28823,51485
28645,51521
28463,51521
28285,51485
28118,51416
28118,51416
28118,51416
27967,51315
27838,51187
27738,51036
27712,50973
27668,50868
27633,50690
27633,50509
27668,50331
27738,50163
27764,50124
27838,50012
27967,49884
28118,49783
28118,49783
28285,49713
28463,49678
28645,49678
28823,49713
Z" /> 
<path style="fill:#000000; fill-opacity:1.0; 
stroke:#000000; stroke-width:0; stroke-opacity:1; 
stroke-linecap:round; stroke-linejoin:round;fill-rule:evenodd;"
d="M 77996,49940
78059,49959
78122,49978
78122,49978
78239,50040
78341,50124
78424,50226
78486,50342
78525,50468
78538,50599
78525,50731
78486,50857
78424,50973
78341,51075
78239,51159
78122,51221
78122,51221
78086,51232
77996,51259
77898,51269
77635,51269
77537,51259
77447,51232
77411,51221
77411,51221
77295,51159
77193,51075
77109,50973
77047,50857
77009,50731
76996,50599
77009,50468
77047,50342
77109,50226
77193,50124
77295,50040
77411,49978
77411,49978
77474,49959
77537,49940
77635,49930
77898,49930
77996,49940
Z" /> 
<path style="fill:#000000; fill-opacity:1.0; 
stroke:#000000; stroke-width:0; stroke-opacity:1; 
stroke-linecap:round; stroke-linejoin:round;fill-rule:evenodd;"
d="M 89718,48728
89780,48734
89899,48770
89899,48770
90008,48829
90104,48908
90183,49004
90238,49106
90241,49113
90277,49232
90289,49355
90277,49479
90241,49597
90241,49597
90183,49707
90104,49803
90008,49882
89917,49930
89899,49940
89780,49976
89718,49982
89687,49985
89625,49985
89595,49982
89533,49976
89414,49940
89396,49930
89305,49882
89209,49803
89130,49707
89072,49597
89072,49597
89036,49479
89023,49355
89036,49232
89072,49113
89075,49106
89130,49004
89209,48908
89305,48829
89414,48770
89414,48770
89533,48734
89595,48728
89625,48725
89687,48725
89718,48728
Z" /> 
<path style="fill:#000000; fill-opacity:1.0; 
stroke:#000000; stroke-width:0; stroke-opacity:1; 
stroke-linecap:round; stroke-linejoin:round;fill-rule:evenodd;"
d="M 83718,48728
83780,48734
83899,48770
83899,48770
84008,48829
84104,48908
84183,49004
84238,49106
84241,49113
84277,49232
84289,49355
84277,49479
84241,49597
84241,49597
84183,49707
84104,49803
84008,49882
83917,49930
83899,49940
83780,49976
83718,49982
83687,49985
83625,49985
83595,49982
83533,49976
83414,49940
83396,49930
83305,49882
83209,49803
83130,49707
83072,49597
83072,49597
83036,49479
83023,49355
83036,49232
83072,49113
83075,49106
83130,49004
83209,48908
83305,48829
83414,48770
83414,48770
83533,48734
83595,48728
83625,48725
83687,48725
83718,48728
Z" /> 
<path style="fill:#000000; fill-opacity:1.0; 
stroke:#000000; stroke-width:0; stroke-opacity:1; 
stroke-linecap:round; stroke-linejoin:round;fill-rule:evenodd;"
d="M 77996,47971
78059,47990
78122,48010
78122,48010
78239,48072
78341,48155
78424,48257
78486,48373
78525,48500
78538,48631
78525,48762
78486,48888
78424,49004
78341,49106
78239,49190
78161,49232
78122,49252
78059,49271
77996,49290
77898,49300
77635,49300
77537,49290
77474,49271
77411,49252
77373,49232
77295,49190
77193,49106
77109,49004
77047,48888
77009,48762
76996,48631
77009,48500
77047,48373
77109,48257
77193,48155
77295,48072
77411,48010
77411,48010
77474,47990
77537,47971
77635,47962
77898,47962
77996,47971
Z" /> 
<path style="fill:#000000; fill-opacity:1.0; 
stroke:#000000; stroke-width:0; stroke-opacity:1; 
stroke-linecap:round; stroke-linejoin:round;fill-rule:evenodd;"
d="M 83718,46728
83780,46734
83899,46770
83899,46770
84008,46829
84104,46908
84183,47004
84234,47099
84241,47113
84277,47232
84289,47355
84277,47479
84241,47597
84241,47597
84183,47707
84104,47803
84008,47882
83899,47940
83899,47940
83780,47976
83718,47982
83687,47985
83625,47985
83595,47982
83533,47976
83414,47940
83414,47940
83305,47882
83209,47803
83130,47707
83072,47597
83072,47597
83036,47479
83023,47355
83036,47232
83072,47113
83079,47099
83130,47004
83209,46908
83305,46829
83414,46770
83414,46770
83533,46734
83595,46728
83625,46725
83687,46725
83718,46728
Z" /> 
<path style="fill:#000000; fill-opacity:1.0; 
stroke:#000000; stroke-width:0; stroke-opacity:1; 
stroke-linecap:round; stroke-linejoin:round;fill-rule:evenodd;"
d="M 89718,46728
89780,46734
89899,46770
89899,46770
90008,46829
90104,46908
90183,47004
90234,47099
90241,47113
90277,47232
90289,47355
90277,47479
90241,47597
90241,47597
90183,47707
90104,47803
90008,47882
89899,47940
89899,47940
89780,47976
89718,47982
89687,47985
89625,47985
89595,47982
89533,47976
89414,47940
89414,47940
89305,47882
89209,47803
89130,47707
89072,47597
89072,47597
89036,47479
89023,47355
89036,47232
89072,47113
89079,47099
89130,47004
89209,46908
89305,46829
89414,46770
89414,46770
89533,46734
89595,46728
89625,46725
89687,46725
89718,46728
Z" /> 
<path style="fill:#000000; fill-opacity:1.0; 
stroke:#000000; stroke-width:0; stroke-opacity:1; 
stroke-linecap:round; stroke-linejoin:round;fill-rule:evenodd;"
d="M 47033,46348
47095,46354
47214,46390
47214,46390
47323,46449
47419,46527
47498,46623
47552,46725
47556,46733
47592,46851
47604,46975
47592,47098
47556,47217
47556,47217
47498,47327
47419,47423
47323,47501
47235,47548
47214,47560
47095,47596
47033,47602
47002,47605
46940,47605
46910,47602
46848,47596
46729,47560
46708,47548
46620,47501
46524,47423
46445,47327
46387,47217
46387,47217
46351,47098
46338,46975
46351,46851
46387,46733
46391,46725
46445,46623
46524,46527
46620,46449
46729,46390
46729,46390
46848,46354
46910,46348
46940,46345
47002,46345
47033,46348
Z" /> 
<path style="fill:#000000; fill-opacity:1.0; 
stroke:#000000; stroke-width:0; stroke-opacity:1; 
stroke-linecap:round; stroke-linejoin:round;fill-rule:evenodd;"
d="M 45033,46348
45095,46354
45214,46390
45214,46390
45323,46449
45419,46527
45498,46623
45552,46725
45556,46733
45592,46851
45604,46975
45592,47098
45556,47217
45556,47217
45498,47327
45419,47423
45323,47501
45235,47548
45214,47560
45095,47596
45033,47602
45002,47605
44940,47605
44910,47602
44848,47596
44729,47560
44708,47548
44620,47501
44524,47423
44445,47327
44387,47217
44387,47217
44351,47098
44338,46975
44351,46851
44387,46733
44391,46725
44445,46623
44524,46527
44620,46449
44729,46390
44729,46390
44848,46354
44910,46348
44940,46345
45002,46345
45033,46348
Z" /> 
<path style="fill:#000000; fill-opacity:1.0; 
stroke:#000000; stroke-width:0; stroke-opacity:1; 
stroke-linecap:round; stroke-linejoin:round;fill-rule:evenodd;"
d="M 49033,46348
49095,46354
49214,46390
49214,46390
49323,46449
49419,46527
49498,46623
49552,46725
49556,46733
49592,46851
49604,46975
49592,47098
49556,47217
49556,47217
49498,47327
49419,47423
49323,47501
49235,47548
49214,47560
49095,47596
49033,47602
49002,47605
48940,47605
48910,47602
48848,47596
48729,47560
48708,47548
48620,47501
48524,47423
48445,47327
48387,47217
48387,47217
48351,47098
48338,46975
48351,46851
48387,46733
48391,46725
48445,46623
48524,46527
48620,46449
48729,46390
48729,46390
48848,46354
48910,46348
48940,46345
49002,46345
49033,46348
Z" /> 
<path style="fill:#000000; fill-opacity:1.0; 
stroke:#000000; stroke-width:0; stroke-opacity:1; 
stroke-linecap:round; stroke-linejoin:round;fill-rule:evenodd;"
d="M 51033,46348
51095,46354
51214,46390
51214,46390
51323,46449
51419,46527
51498,46623
51552,46725
51556,46733
51592,46851
51604,46975
51592,47098
51556,47217
51556,47217
51498,47327
51419,47423
51323,47501
51235,47548
51214,47560
51095,47596
51033,47602
51002,47605
50940,47605
50910,47602
50848,47596
50729,47560
50708,47548
50620,47501
50524,47423
50445,47327
50387,47217
50387,47217
50351,47098
50338,46975
50351,46851
50387,46733
50391,46725
50445,46623
50524,46527
50620,46449
50729,46390
50729,46390
50848,46354
50910,46348
50940,46345
51002,46345
51033,46348
Z" /> 
<path style="fill:#000000; fill-opacity:1.0; 
stroke:#000000; stroke-width:0; stroke-opacity:1; 
stroke-linecap:round; stroke-linejoin:round;fill-rule:evenodd;"
d="M 71601,47605
70341,47605
70341,46345
71601,46345
71601,47605
Z" /> 
<path style="fill:#000000; fill-opacity:1.0; 
stroke:#000000; stroke-width:0; stroke-opacity:1; 
stroke-linecap:round; stroke-linejoin:round;fill-rule:evenodd;"
d="M 53033,46348
53095,46354
53214,46390
53214,46390
53323,46449
53419,46527
53498,46623
53552,46725
53556,46733
53592,46851
53604,46975
53592,47098
53556,47217
53556,47217
53498,47327
53419,47423
53323,47501
53235,47548
53214,47560
53095,47596
53033,47602
53002,47605
52940,47605
52910,47602
52848,47596
52729,47560
52708,47548
52620,47501
52524,47423
52445,47327
52387,47217
52387,47217
52351,47098
52338,46975
52351,46851
52387,46733
52391,46725
52445,46623
52524,46527
52620,46449
52729,46390
52729,46390
52848,46354
52910,46348
52940,46345
53002,46345
53033,46348
Z" /> 
<path style="fill:#000000; fill-opacity:1.0; 
stroke:#000000; stroke-width:0; stroke-opacity:1; 
stroke-linecap:round; stroke-linejoin:round;fill-rule:evenodd;"
d="M 55033,46348
55095,46354
55214,46390
55214,46390
55323,46449
55419,46527
55498,46623
55552,46725
55556,46733
55592,46851
55604,46975
55592,47098
55556,47217
55556,47217
55498,47327
55419,47423
55323,47501
55235,47548
55214,47560
55095,47596
55033,47602
55002,47605
54940,47605
54910,47602
54848,47596
54729,47560
54708,47548
54620,47501
54524,47423
54445,47327
54387,47217
54387,47217
54351,47098
54338,46975
54351,46851
54387,46733
54391,46725
54445,46623
54524,46527
54620,46449
54729,46390
54729,46390
54848,46354
54910,46348
54940,46345
55002,46345
55033,46348
Z" /> 
<path style="fill:#000000; fill-opacity:1.0; 
stroke:#000000; stroke-width:0; stroke-opacity:1; 
stroke-linecap:round; stroke-linejoin:round;fill-rule:evenodd;"
d="M 57033,46348
57095,46354
57214,46390
57214,46390
57323,46449
57419,46527
57498,46623
57552,46725
57556,46733
57592,46851
57604,46975
57592,47098
57556,47217
57556,47217
57498,47327
57419,47423
57323,47501
57235,47548
57214,47560
57095,47596
57033,47602
57002,47605
56940,47605
56910,47602
56848,47596
56729,47560
56708,47548
56620,47501
56524,47423
56445,47327
56387,47217
56387,47217
56351,47098
56338,46975
56351,46851
56387,46733
56391,46725
56445,46623
56524,46527
56620,46449
56729,46390
56729,46390
56848,46354
56910,46348
56940,46345
57002,46345
57033,46348
Z" /> 
<path style="fill:#000000; fill-opacity:1.0; 
stroke:#000000; stroke-width:0; stroke-opacity:1; 
stroke-linecap:round; stroke-linejoin:round;fill-rule:evenodd;"
d="M 69033,46348
69095,46354
69214,46390
69214,46390
69323,46449
69419,46527
69498,46623
69552,46725
69556,46733
69592,46851
69604,46975
69592,47098
69556,47217
69556,47217
69498,47327
69419,47423
69323,47501
69235,47548
69214,47560
69095,47596
69033,47602
69002,47605
68940,47605
68910,47602
68848,47596
68729,47560
68708,47548
68620,47501
68524,47423
68445,47327
68387,47217
68387,47217
68351,47098
68338,46975
68351,46851
68387,46733
68391,46725
68445,46623
68524,46527
68620,46449
68729,46390
68729,46390
68848,46354
68910,46348
68940,46345
69002,46345
69033,46348
Z" /> 
<path style="fill:#000000; fill-opacity:1.0; 
stroke:#000000; stroke-width:0; stroke-opacity:1; 
stroke-linecap:round; stroke-linejoin:round;fill-rule:evenodd;"
d="M 59033,46348
59095,46354
59214,46390
59214,46390
59323,46449
59419,46527
59498,46623
59552,46725
59556,46733
59592,46851
59604,46975
59592,47098
59556,47217
59556,47217
59498,47327
59419,47423
59323,47501
59235,47548
59214,47560
59095,47596
59033,47602
59002,47605
58940,47605
58910,47602
58848,47596
58729,47560
58708,47548
58620,47501
58524,47423
58445,47327
58387,47217
58387,47217
58351,47098
58338,46975
58351,46851
58387,46733
58391,46725
58445,46623
58524,46527
58620,46449
58729,46390
58729,46390
58848,46354
58910,46348
58940,46345
59002,46345
59033,46348
Z" /> 
<path style="fill:#000000; fill-opacity:1.0; 
stroke:#000000; stroke-width:0; stroke-opacity:1; 
stroke-linecap:round; stroke-linejoin:round;fill-rule:evenodd;"
d="M 67033,46348
67095,46354
67214,46390
67214,46390
67323,46449
67419,46527
67498,46623
67552,46725
67556,46733
67592,46851
67604,46975
67592,47098
67556,47217
67556,47217
67498,47327
67419,47423
67323,47501
67235,47548
67214,47560
67095,47596
67033,47602
67002,47605
66940,47605
66910,47602
66848,47596
66729,47560
66708,47548
66620,47501
66524,47423
66445,47327
66387,47217
66387,47217
66351,47098
66338,46975
66351,46851
66387,46733
66391,46725
66445,46623
66524,46527
66620,46449
66729,46390
66729,46390
66848,46354
66910,46348
66940,46345
67002,46345
67033,46348
Z" /> 
<path style="fill:#000000; fill-opacity:1.0; 
stroke:#000000; stroke-width:0; stroke-opacity:1; 
stroke-linecap:round; stroke-linejoin:round;fill-rule:evenodd;"
d="M 65033,46348
65095,46354
65214,46390
65214,46390
65323,46449
65419,46527
65498,46623
65552,46725
65556,46733
65592,46851
65604,46975
65592,47098
65556,47217
65556,47217
65498,47327
65419,47423
65323,47501
65235,47548
65214,47560
65095,47596
65033,47602
65002,47605
64940,47605
64910,47602
64848,47596
64729,47560
64708,47548
64620,47501
64524,47423
64445,47327
64387,47217
64387,47217
64351,47098
64338,46975
64351,46851
64387,46733
64391,46725
64445,46623
64524,46527
64620,46449
64729,46390
64729,46390
64848,46354
64910,46348
64940,46345
65002,46345
65033,46348
Z" /> 
<path style="fill:#000000; fill-opacity:1.0; 
stroke:#000000; stroke-width:0; stroke-opacity:1; 
stroke-linecap:round; stroke-linejoin:round;fill-rule:evenodd;"
d="M 61033,46348
61095,46354
61214,46390
61214,46390
61323,46449
61419,46527
61498,46623
61552,46725
61556,46733
61592,46851
61604,46975
61592,47098
61556,47217
61556,47217
61498,47327
61419,47423
61323,47501
61235,47548
61214,47560
61095,47596
61033,47602
61002,47605
60940,47605
60910,47602
60848,47596
60729,47560
60708,47548
60620,47501
60524,47423
60445,47327
60387,47217
60387,47217
60351,47098
60338,46975
60351,46851
60387,46733
60391,46725
60445,46623
60524,46527
60620,46449
60729,46390
60729,46390
60848,46354
60910,46348
60940,46345
61002,46345
61033,46348
Z" /> 
<path style="fill:#000000; fill-opacity:1.0; 
stroke:#000000; stroke-width:0; stroke-opacity:1; 
stroke-linecap:round; stroke-linejoin:round;fill-rule:evenodd;"
d="M 63033,46348
63095,46354
63214,46390
63214,46390
63323,46449
63419,46527
63498,46623
63552,46725
63556,46733
63592,46851
63604,46975
63592,47098
63556,47217
63556,47217
63498,47327
63419,47423
63323,47501
63235,47548
63214,47560
63095,47596
63033,47602
63002,47605
62940,47605
62910,47602
62848,47596
62729,47560
62708,47548
62620,47501
62524,47423
62445,47327
62387,47217
62387,47217
62351,47098
62338,46975
62351,46851
62387,46733
62391,46725
62445,46623
62524,46527
62620,46449
62729,46390
62729,46390
62848,46354
62910,46348
62940,46345
63002,46345
63033,46348
Z" /> 
<path style="fill:#000000; fill-opacity:1.0; 
stroke:#000000; stroke-width:0; stroke-opacity:1; 
stroke-linecap:round; stroke-linejoin:round;fill-rule:evenodd;"
d="M 30791,45776
30959,45846
30959,45846
31110,45947
31238,46075
31313,46187
31339,46226
31408,46394
31444,46572
31444,46753
31408,46931
31365,47036
31339,47099
31238,47250
31110,47378
30959,47479
30959,47479
30959,47479
30791,47548
30613,47584
30432,47584
30254,47548
30086,47479
30086,47479
30086,47479
29935,47378
29807,47250
29706,47099
29680,47036
29637,46931
29601,46753
29601,46572
29637,46394
29706,46226
29732,46187
29807,46075
29935,45947
30086,45846
30086,45846
30254,45776
30432,45741
30613,45741
30791,45776
Z" /> 
<path style="fill:#000000; fill-opacity:1.0; 
stroke:#000000; stroke-width:0; stroke-opacity:1; 
stroke-linecap:round; stroke-linejoin:round;fill-rule:evenodd;"
d="M 26854,45776
27022,45846
27022,45846
27173,45947
27301,46075
27376,46187
27402,46226
27471,46394
27507,46572
27507,46753
27471,46931
27428,47036
27402,47099
27301,47250
27173,47378
27022,47479
27022,47479
27022,47479
26854,47548
26676,47584
26495,47584
26317,47548
26149,47479
26149,47479
26149,47479
25998,47378
25870,47250
25769,47099
25743,47036
25700,46931
25664,46753
25664,46572
25700,46394
25769,46226
25795,46187
25870,46075
25998,45947
26149,45846
26149,45846
26317,45776
26495,45741
26676,45741
26854,45776
Z" /> 
<path style="fill:#000000; fill-opacity:1.0; 
stroke:#000000; stroke-width:0; stroke-opacity:1; 
stroke-linecap:round; stroke-linejoin:round;fill-rule:evenodd;"
d="M 77996,46003
78059,46022
78122,46041
78122,46041
78239,46103
78341,46187
78424,46289
78486,46405
78500,46449
78525,46531
78538,46662
78525,46794
78486,46920
78424,47036
78341,47138
78239,47222
78122,47284
78122,47284
78059,47303
77996,47322
77898,47332
77635,47332
77537,47322
77474,47303
77411,47284
77411,47284
77295,47222
77193,47138
77109,47036
77047,46920
77009,46794
76996,46662
77009,46531
77034,46449
77047,46405
77109,46289
77193,46187
77295,46103
77411,46041
77411,46041
77474,46022
77537,46003
77635,45993
77898,45993
77996,46003
Z" /> 
<path style="fill:#000000; fill-opacity:1.0; 
stroke:#000000; stroke-width:0; stroke-opacity:1; 
stroke-linecap:round; stroke-linejoin:round;fill-rule:evenodd;"
d="M 83718,44728
83780,44734
83899,44770
83899,44770
84008,44829
84008,44829
84008,44829
84104,44908
84183,45004
84241,45113
84277,45232
84289,45355
84277,45479
84241,45597
84241,45597
84183,45707
84104,45803
84008,45882
83899,45940
83899,45940
83780,45976
83718,45982
83687,45985
83625,45985
83595,45982
83533,45976
83414,45940
83414,45940
83305,45882
83209,45803
83130,45707
83072,45597
83072,45597
83036,45479
83023,45355
83036,45232
83072,45113
83130,45004
83209,44908
83305,44829
83305,44829
83305,44829
83414,44770
83414,44770
83533,44734
83595,44728
83625,44725
83687,44725
83718,44728
Z" /> 
<path style="fill:#000000; fill-opacity:1.0; 
stroke:#000000; stroke-width:0; stroke-opacity:1; 
stroke-linecap:round; stroke-linejoin:round;fill-rule:evenodd;"
d="M 89718,44728
89780,44734
89899,44770
89899,44770
90008,44829
90008,44829
90008,44829
90104,44908
90183,45004
90241,45113
90277,45232
90289,45355
90277,45479
90241,45597
90241,45597
90183,45707
90104,45803
90008,45882
89899,45940
89899,45940
89780,45976
89718,45982
89687,45985
89625,45985
89595,45982
89533,45976
89414,45940
89414,45940
89305,45882
89209,45803
89130,45707
89072,45597
89072,45597
89036,45479
89023,45355
89036,45232
89072,45113
89130,45004
89209,44908
89305,44829
89305,44829
89305,44829
89414,44770
89414,44770
89533,44734
89595,44728
89625,44725
89687,44725
89718,44728
Z" /> 
<path style="fill:#000000; fill-opacity:1.0; 
stroke:#000000; stroke-width:0; stroke-opacity:1; 
stroke-linecap:round; stroke-linejoin:round;fill-rule:evenodd;"
d="M 77996,44034
78059,44053
78122,44072
78122,44072
78239,44135
78341,44218
78424,44320
78486,44436
78525,44563
78538,44694
78525,44825
78486,44951
78424,45067
78341,45169
78239,45253
78122,45315
78122,45315
78059,45334
77996,45353
77898,45363
77635,45363
77537,45353
77474,45334
77411,45315
77411,45315
77295,45253
77193,45169
77109,45067
77047,44951
77009,44825
76996,44694
77009,44563
77047,44436
77109,44320
77193,44218
77295,44135
77411,44072
77411,44072
77474,44053
77537,44034
77635,44025
77898,44025
77996,44034
Z" /> 
<path style="fill:#000000; fill-opacity:1.0; 
stroke:#000000; stroke-width:0; stroke-opacity:1; 
stroke-linecap:round; stroke-linejoin:round;fill-rule:evenodd;"
d="M 64144,42907
64251,42952
64348,43016
64430,43098
64495,43195
64539,43303
64562,43417
64562,43533
64539,43647
64495,43755
64430,43851
64348,43934
64251,43998
64144,44043
64030,44065
63913,44065
63799,44043
63692,43998
63595,43934
63513,43851
63448,43755
63404,43647
63381,43533
63381,43417
63404,43303
63448,43195
63513,43098
63595,43016
63692,42952
63799,42907
63913,42884
64030,42884
64144,42907
Z" /> 
<path style="fill:#000000; fill-opacity:1.0; 
stroke:#000000; stroke-width:0; stroke-opacity:1; 
stroke-linecap:round; stroke-linejoin:round;fill-rule:evenodd;"
d="M 60301,42907
60409,42952
60505,43016
60588,43098
60652,43195
60697,43303
60719,43417
60719,43533
60697,43647
60652,43755
60588,43851
60505,43934
60409,43998
60301,44043
60187,44065
60071,44065
59957,44043
59849,43998
59752,43934
59670,43851
59606,43755
59561,43647
59538,43533
59538,43417
59561,43303
59606,43195
59670,43098
59752,43016
59849,42952
59957,42907
60071,42884
60187,42884
60301,42907
Z" /> 
<path style="fill:#000000; fill-opacity:1.0; 
stroke:#000000; stroke-width:0; stroke-opacity:1; 
stroke-linecap:round; stroke-linejoin:round;fill-rule:evenodd;"
d="M 89718,42728
89780,42734
89899,42770
89899,42770
90008,42829
90104,42908
90183,43004
90233,43098
90241,43113
90277,43232
90289,43355
90277,43479
90261,43533
90241,43597
90183,43707
90104,43803
90008,43882
89911,43934
89899,43940
89780,43976
89718,43982
89687,43985
89625,43985
89595,43982
89533,43976
89414,43940
89402,43934
89305,43882
89209,43803
89130,43707
89072,43597
89052,43533
89036,43479
89023,43355
89036,43232
89072,43113
89079,43098
89130,43004
89209,42908
89305,42829
89414,42770
89414,42770
89533,42734
89595,42728
89625,42725
89687,42725
89718,42728
Z" /> 
<path style="fill:#000000; fill-opacity:1.0; 
stroke:#000000; stroke-width:0; stroke-opacity:1; 
stroke-linecap:round; stroke-linejoin:round;fill-rule:evenodd;"
d="M 83718,42728
83780,42734
83899,42770
83899,42770
84008,42829
84104,42908
84183,43004
84233,43098
84241,43113
84277,43232
84289,43355
84277,43479
84261,43533
84241,43597
84183,43707
84104,43803
84008,43882
83911,43934
83899,43940
83780,43976
83718,43982
83687,43985
83625,43985
83595,43982
83533,43976
83414,43940
83402,43934
83305,43882
83209,43803
83130,43707
83072,43597
83052,43533
83036,43479
83023,43355
83036,43232
83072,43113
83079,43098
83130,43004
83209,42908
83305,42829
83414,42770
83414,42770
83533,42734
83595,42728
83625,42725
83687,42725
83718,42728
Z" /> 
<path style="fill:#000000; fill-opacity:1.0; 
stroke:#000000; stroke-width:0; stroke-opacity:1; 
stroke-linecap:round; stroke-linejoin:round;fill-rule:evenodd;"
d="M 77996,42066
78038,42078
78122,42104
78122,42104
78239,42166
78341,42250
78424,42352
78486,42468
78525,42594
78538,42725
78525,42857
78486,42983
78424,43099
78341,43201
78239,43285
78122,43347
78122,43347
78059,43366
77996,43385
77898,43395
77635,43395
77537,43385
77474,43366
77411,43347
77411,43347
77295,43285
77193,43201
77109,43099
77047,42983
77009,42857
76996,42725
77009,42594
77047,42468
77109,42352
77193,42250
77295,42166
77411,42104
77411,42104
77495,42078
77537,42066
77635,42056
77898,42056
77996,42066
Z" /> 
<path style="fill:#000000; fill-opacity:1.0; 
stroke:#000000; stroke-width:0; stroke-opacity:1; 
stroke-linecap:round; stroke-linejoin:round;fill-rule:evenodd;"
d="M 32780,42284
31363,42284
31363,40866
32780,40866
32780,42284
Z" /> 
<path style="fill:#000000; fill-opacity:1.0; 
stroke:#000000; stroke-width:0; stroke-opacity:1; 
stroke-linecap:round; stroke-linejoin:round;fill-rule:evenodd;"
d="M 30210,40877
30210,40877
30210,40877
30344,40917
30344,40917
30344,40917
30467,40983
30575,41071
30663,41179
30729,41302
30729,41302
30729,41302
30745,41355
30770,41436
30783,41575
30770,41714
30729,41847
30663,41971
30575,42078
30467,42167
30344,42233
30344,42233
30344,42233
30210,42273
30210,42273
30210,42273
30106,42284
30037,42284
29932,42273
29932,42273
29932,42273
29799,42233
29799,42233
29799,42233
29676,42167
29568,42078
29479,41971
29414,41847
29373,41714
29359,41575
29373,41436
29397,41355
29414,41302
29414,41302
29414,41302
29479,41179
29568,41071
29676,40983
29799,40917
29799,40917
29799,40917
29932,40877
29932,40877
29932,40877
30037,40866
30106,40866
30210,40877
Z" /> 
<path style="fill:#000000; fill-opacity:1.0; 
stroke:#000000; stroke-width:0; stroke-opacity:1; 
stroke-linecap:round; stroke-linejoin:round;fill-rule:evenodd;"
d="M 28210,40877
28210,40877
28210,40877
28344,40917
28344,40917
28344,40917
28467,40983
28575,41071
28663,41179
28729,41302
28729,41302
28729,41302
28745,41355
28770,41436
28783,41575
28770,41714
28729,41847
28663,41971
28575,42078
28467,42167
28344,42233
28344,42233
28344,42233
28210,42273
28210,42273
28210,42273
28106,42284
28037,42284
27932,42273
27932,42273
27932,42273
27799,42233
27799,42233
27799,42233
27676,42167
27568,42078
27479,41971
27414,41847
27373,41714
27359,41575
27373,41436
27397,41355
27414,41302
27414,41302
27414,41302
27479,41179
27568,41071
27676,40983
27799,40917
27799,40917
27799,40917
27932,40877
27932,40877
27932,40877
28037,40866
28106,40866
28210,40877
Z" /> 
<path style="fill:#000000; fill-opacity:1.0; 
stroke:#000000; stroke-width:0; stroke-opacity:1; 
stroke-linecap:round; stroke-linejoin:round;fill-rule:evenodd;"
d="M 89718,40728
89780,40734
89899,40770
89899,40770
90008,40829
90104,40908
90183,41004
90241,41113
90241,41113
90277,41232
90289,41355
90277,41479
90248,41575
90241,41597
90183,41707
90104,41803
90008,41882
89899,41940
89899,41940
89780,41976
89718,41982
89687,41985
89625,41985
89595,41982
89533,41976
89414,41940
89414,41940
89305,41882
89209,41803
89130,41707
89072,41597
89065,41575
89036,41479
89023,41355
89036,41232
89072,41113
89072,41113
89130,41004
89209,40908
89305,40829
89414,40770
89414,40770
89533,40734
89595,40728
89625,40725
89687,40725
89718,40728
Z" /> 
<path style="fill:#000000; fill-opacity:1.0; 
stroke:#000000; stroke-width:0; stroke-opacity:1; 
stroke-linecap:round; stroke-linejoin:round;fill-rule:evenodd;"
d="M 83718,40728
83780,40734
83899,40770
83899,40770
84008,40829
84104,40908
84183,41004
84241,41113
84241,41113
84277,41232
84289,41355
84277,41479
84248,41575
84241,41597
84183,41707
84104,41803
84008,41882
83899,41940
83899,41940
83780,41976
83718,41982
83687,41985
83625,41985
83595,41982
83533,41976
83414,41940
83414,41940
83305,41882
83209,41803
83130,41707
83072,41597
83065,41575
83036,41479
83023,41355
83036,41232
83072,41113
83072,41113
83130,41004
83209,40908
83305,40829
83414,40770
83414,40770
83533,40734
83595,40728
83625,40725
83687,40725
83718,40728
Z" /> 
<path style="fill:#000000; fill-opacity:1.0; 
stroke:#000000; stroke-width:0; stroke-opacity:1; 
stroke-linecap:round; stroke-linejoin:round;fill-rule:evenodd;"
d="M 77996,40097
78059,40116
78122,40135
78122,40135
78239,40198
78341,40281
78424,40383
78486,40499
78525,40626
78538,40757
78525,40888
78525,40888
78496,40983
78486,41014
78424,41130
78341,41232
78239,41316
78165,41355
78122,41378
78059,41397
77996,41416
77898,41426
77635,41426
77537,41416
77474,41397
77411,41378
77368,41355
77295,41316
77193,41232
77109,41130
77047,41014
77037,40983
77009,40888
77009,40888
76996,40757
77009,40626
77047,40499
77109,40383
77193,40281
77295,40198
77411,40135
77411,40135
77474,40116
77537,40097
77635,40088
77898,40088
77996,40097
Z" /> 
<path style="fill:#000000; fill-opacity:1.0; 
stroke:#000000; stroke-width:0; stroke-opacity:1; 
stroke-linecap:round; stroke-linejoin:round;fill-rule:evenodd;"
d="M 49232,39448
49295,39454
49414,39490
49414,39490
49523,39549
49523,39549
49523,39549
49619,39627
49698,39723
49756,39833
49792,39951
49804,40075
49792,40198
49767,40281
49756,40317
49698,40427
49619,40523
49523,40601
49414,40660
49414,40660
49295,40696
49233,40702
49202,40705
49140,40705
49110,40702
49048,40696
48929,40660
48929,40660
48820,40601
48724,40523
48645,40427
48587,40317
48576,40281
48551,40198
48538,40075
48551,39951
48587,39833
48645,39723
48724,39627
48820,39549
48820,39549
48820,39549
48929,39490
48929,39490
49048,39454
49111,39448
49140,39445
49202,39445
49232,39448
Z" /> 
<path style="fill:#000000; fill-opacity:1.0; 
stroke:#000000; stroke-width:0; stroke-opacity:1; 
stroke-linecap:round; stroke-linejoin:round;fill-rule:evenodd;"
d="M 71232,39448
71295,39454
71414,39490
71414,39490
71523,39549
71523,39549
71523,39549
71619,39627
71698,39723
71756,39833
71792,39951
71804,40075
71792,40198
71767,40281
71756,40317
71698,40427
71619,40523
71523,40601
71414,40660
71414,40660
71295,40696
71233,40702
71202,40705
71140,40705
71110,40702
71048,40696
70929,40660
70929,40660
70820,40601
70724,40523
70645,40427
70587,40317
70576,40281
70551,40198
70538,40075
70551,39951
70587,39833
70645,39723
70724,39627
70820,39549
70820,39549
70820,39549
70929,39490
70929,39490
71048,39454
71111,39448
71140,39445
71202,39445
71232,39448
Z" /> 
<path style="fill:#000000; fill-opacity:1.0; 
stroke:#000000; stroke-width:0; stroke-opacity:1; 
stroke-linecap:round; stroke-linejoin:round;fill-rule:evenodd;"
d="M 69232,39448
69295,39454
69414,39490
69414,39490
69523,39549
69523,39549
69523,39549
69619,39627
69698,39723
69756,39833
69792,39951
69804,40075
69792,40198
69767,40281
69756,40317
69698,40427
69619,40523
69523,40601
69414,40660
69414,40660
69295,40696
69233,40702
69202,40705
69140,40705
69110,40702
69048,40696
68929,40660
68929,40660
68820,40601
68724,40523
68645,40427
68587,40317
68576,40281
68551,40198
68538,40075
68551,39951
68587,39833
68645,39723
68724,39627
68820,39549
68820,39549
68820,39549
68929,39490
68929,39490
69048,39454
69111,39448
69140,39445
69202,39445
69232,39448
Z" /> 
<path style="fill:#000000; fill-opacity:1.0; 
stroke:#000000; stroke-width:0; stroke-opacity:1; 
stroke-linecap:round; stroke-linejoin:round;fill-rule:evenodd;"
d="M 67232,39448
67295,39454
67414,39490
67414,39490
67523,39549
67523,39549
67523,39549
67619,39627
67698,39723
67756,39833
67792,39951
67804,40075
67792,40198
67767,40281
67756,40317
67698,40427
67619,40523
67523,40601
67414,40660
67414,40660
67295,40696
67233,40702
67202,40705
67140,40705
67110,40702
67048,40696
66929,40660
66929,40660
66820,40601
66724,40523
66645,40427
66587,40317
66576,40281
66551,40198
66538,40075
66551,39951
66587,39833
66645,39723
66724,39627
66820,39549
66820,39549
66820,39549
66929,39490
66929,39490
67048,39454
67111,39448
67140,39445
67202,39445
67232,39448
Z" /> 
<path style="fill:#000000; fill-opacity:1.0; 
stroke:#000000; stroke-width:0; stroke-opacity:1; 
stroke-linecap:round; stroke-linejoin:round;fill-rule:evenodd;"
d="M 65232,39448
65295,39454
65414,39490
65414,39490
65523,39549
65523,39549
65523,39549
65619,39627
65698,39723
65756,39833
65792,39951
65804,40075
65792,40198
65767,40281
65756,40317
65698,40427
65619,40523
65523,40601
65414,40660
65414,40660
65295,40696
65233,40702
65202,40705
65140,40705
65110,40702
65048,40696
64929,40660
64929,40660
64820,40601
64724,40523
64645,40427
64587,40317
64576,40281
64551,40198
64538,40075
64551,39951
64587,39833
64645,39723
64724,39627
64820,39549
64820,39549
64820,39549
64929,39490
64929,39490
65048,39454
65111,39448
65140,39445
65202,39445
65232,39448
Z" /> 
<path style="fill:#000000; fill-opacity:1.0; 
stroke:#000000; stroke-width:0; stroke-opacity:1; 
stroke-linecap:round; stroke-linejoin:round;fill-rule:evenodd;"
d="M 63232,39448
63295,39454
63414,39490
63414,39490
63523,39549
63523,39549
63523,39549
63619,39627
63698,39723
63756,39833
63792,39951
63804,40075
63792,40198
63767,40281
63756,40317
63698,40427
63619,40523
63523,40601
63414,40660
63414,40660
63295,40696
63233,40702
63202,40705
63140,40705
63110,40702
63048,40696
62929,40660
62929,40660
62820,40601
62724,40523
62645,40427
62587,40317
62576,40281
62551,40198
62538,40075
62551,39951
62587,39833
62645,39723
62724,39627
62820,39549
62820,39549
62820,39549
62929,39490
62929,39490
63048,39454
63111,39448
63140,39445
63202,39445
63232,39448
Z" /> 
<path style="fill:#000000; fill-opacity:1.0; 
stroke:#000000; stroke-width:0; stroke-opacity:1; 
stroke-linecap:round; stroke-linejoin:round;fill-rule:evenodd;"
d="M 61232,39448
61295,39454
61414,39490
61414,39490
61523,39549
61523,39549
61523,39549
61619,39627
61698,39723
61756,39833
61792,39951
61804,40075
61792,40198
61767,40281
61756,40317
61698,40427
61619,40523
61523,40601
61414,40660
61414,40660
61295,40696
61233,40702
61202,40705
61140,40705
61110,40702
61048,40696
60929,40660
60929,40660
60820,40601
60724,40523
60645,40427
60587,40317
60576,40281
60551,40198
60538,40075
60551,39951
60587,39833
60645,39723
60724,39627
60820,39549
60820,39549
60820,39549
60929,39490
60929,39490
61048,39454
61111,39448
61140,39445
61202,39445
61232,39448
Z" /> 
<path style="fill:#000000; fill-opacity:1.0; 
stroke:#000000; stroke-width:0; stroke-opacity:1; 
stroke-linecap:round; stroke-linejoin:round;fill-rule:evenodd;"
d="M 59232,39448
59295,39454
59414,39490
59414,39490
59523,39549
59523,39549
59523,39549
59619,39627
59698,39723
59756,39833
59792,39951
59804,40075
59792,40198
59767,40281
59756,40317
59698,40427
59619,40523
59523,40601
59414,40660
59414,40660
59295,40696
59233,40702
59202,40705
59140,40705
59110,40702
59048,40696
58929,40660
58929,40660
58820,40601
58724,40523
58645,40427
58587,40317
58576,40281
58551,40198
58538,40075
58551,39951
58587,39833
58645,39723
58724,39627
58820,39549
58820,39549
58820,39549
58929,39490
58929,39490
59048,39454
59111,39448
59140,39445
59202,39445
59232,39448
Z" /> 
<path style="fill:#000000; fill-opacity:1.0; 
stroke:#000000; stroke-width:0; stroke-opacity:1; 
stroke-linecap:round; stroke-linejoin:round;fill-rule:evenodd;"
d="M 57232,39448
57295,39454
57414,39490
57414,39490
57523,39549
57523,39549
57523,39549
57619,39627
57698,39723
57756,39833
57792,39951
57804,40075
57792,40198
57767,40281
57756,40317
57698,40427
57619,40523
57523,40601
57414,40660
57414,40660
57295,40696
57233,40702
57202,40705
57140,40705
57110,40702
57048,40696
56929,40660
56929,40660
56820,40601
56724,40523
56645,40427
56587,40317
56576,40281
56551,40198
56538,40075
56551,39951
56587,39833
56645,39723
56724,39627
56820,39549
56820,39549
56820,39549
56929,39490
56929,39490
57048,39454
57111,39448
57140,39445
57202,39445
57232,39448
Z" /> 
<path style="fill:#000000; fill-opacity:1.0; 
stroke:#000000; stroke-width:0; stroke-opacity:1; 
stroke-linecap:round; stroke-linejoin:round;fill-rule:evenodd;"
d="M 55232,39448
55295,39454
55414,39490
55414,39490
55523,39549
55523,39549
55523,39549
55619,39627
55698,39723
55756,39833
55792,39951
55804,40075
55792,40198
55767,40281
55756,40317
55698,40427
55619,40523
55523,40601
55414,40660
55414,40660
55295,40696
55233,40702
55202,40705
55140,40705
55110,40702
55048,40696
54929,40660
54929,40660
54820,40601
54724,40523
54645,40427
54587,40317
54576,40281
54551,40198
54538,40075
54551,39951
54587,39833
54645,39723
54724,39627
54820,39549
54820,39549
54820,39549
54929,39490
54929,39490
55048,39454
55111,39448
55140,39445
55202,39445
55232,39448
Z" /> 
<path style="fill:#000000; fill-opacity:1.0; 
stroke:#000000; stroke-width:0; stroke-opacity:1; 
stroke-linecap:round; stroke-linejoin:round;fill-rule:evenodd;"
d="M 53232,39448
53295,39454
53414,39490
53414,39490
53523,39549
53523,39549
53523,39549
53619,39627
53698,39723
53756,39833
53792,39951
53804,40075
53792,40198
53767,40281
53756,40317
53698,40427
53619,40523
53523,40601
53414,40660
53414,40660
53295,40696
53233,40702
53202,40705
53140,40705
53110,40702
53048,40696
52929,40660
52929,40660
52820,40601
52724,40523
52645,40427
52587,40317
52576,40281
52551,40198
52538,40075
52551,39951
52587,39833
52645,39723
52724,39627
52820,39549
52820,39549
52820,39549
52929,39490
52929,39490
53048,39454
53111,39448
53140,39445
53202,39445
53232,39448
Z" /> 
<path style="fill:#000000; fill-opacity:1.0; 
stroke:#000000; stroke-width:0; stroke-opacity:1; 
stroke-linecap:round; stroke-linejoin:round;fill-rule:evenodd;"
d="M 51232,39448
51295,39454
51414,39490
51414,39490
51523,39549
51523,39549
51523,39549
51619,39627
51698,39723
51756,39833
51792,39951
51804,40075
51792,40198
51767,40281
51756,40317
51698,40427
51619,40523
51523,40601
51414,40660
51414,40660
51295,40696
51233,40702
51202,40705
51140,40705
51110,40702
51048,40696
50929,40660
50929,40660
50820,40601
50724,40523
50645,40427
50587,40317
50576,40281
50551,40198
50538,40075
50551,39951
50587,39833
50645,39723
50724,39627
50820,39549
50820,39549
50820,39549
50929,39490
50929,39490
51048,39454
51111,39448
51140,39445
51202,39445
51232,39448
Z" /> 
<path style="fill:#000000; fill-opacity:1.0; 
stroke:#000000; stroke-width:0; stroke-opacity:1; 
stroke-linecap:round; stroke-linejoin:round;fill-rule:evenodd;"
d="M 47232,39448
47295,39454
47414,39490
47414,39490
47523,39549
47523,39549
47523,39549
47619,39627
47698,39723
47756,39833
47792,39951
47804,40075
47792,40198
47767,40281
47756,40317
47698,40427
47619,40523
47523,40601
47414,40660
47414,40660
47295,40696
47233,40702
47202,40705
47140,40705
47110,40702
47048,40696
46929,40660
46929,40660
46820,40601
46724,40523
46645,40427
46587,40317
46576,40281
46551,40198
46538,40075
46551,39951
46587,39833
46645,39723
46724,39627
46820,39549
46820,39549
46820,39549
46929,39490
46929,39490
47048,39454
47111,39448
47140,39445
47202,39445
47232,39448
Z" /> 
<path style="fill:#000000; fill-opacity:1.0; 
stroke:#000000; stroke-width:0; stroke-opacity:1; 
stroke-linecap:round; stroke-linejoin:round;fill-rule:evenodd;"
d="M 45801,40705
44541,40705
44541,39445
45801,39445
45801,40705
Z" /> 
<path style="fill:#000000; fill-opacity:1.0; 
stroke:#000000; stroke-width:0; stroke-opacity:1; 
stroke-linecap:round; stroke-linejoin:round;fill-rule:evenodd;"
d="M 77996,38129
78059,38148
78122,38167
78122,38167
78239,38229
78341,38313
78424,38415
78486,38531
78525,38657
78538,38788
78525,38920
78486,39046
78424,39162
78341,39264
78239,39348
78122,39410
78122,39410
78059,39429
77996,39448
77898,39458
77635,39458
77537,39448
77474,39429
77411,39410
77411,39410
77295,39348
77193,39264
77109,39162
77047,39046
77009,38920
76996,38788
77009,38657
77047,38531
77109,38415
77193,38313
77295,38229
77411,38167
77411,38167
77474,38148
77537,38129
77635,38119
77898,38119
77996,38129
Z" /> 
<path style="fill:#000000; fill-opacity:1.0; 
stroke:#000000; stroke-width:0; stroke-opacity:1; 
stroke-linecap:round; stroke-linejoin:round;fill-rule:evenodd;"
d="M 34986,37296
34986,37296
34986,37296
35058,37326
35090,37348
35122,37369
35177,37424
35196,37451
35219,37486
35220,37488
35250,37560
35265,37636
35265,37714
35250,37790
35250,37790
35220,37861
35177,37926
35122,37981
35058,38024
35058,38024
35058,38024
34986,38054
34910,38069
34833,38069
34757,38054
34685,38024
34685,38024
34685,38024
34620,37981
34566,37926
34522,37861
34493,37790
34493,37790
34478,37714
34478,37636
34493,37560
34522,37488
34524,37486
34547,37451
34566,37424
34620,37369
34652,37348
34685,37326
34757,37296
34757,37296
34757,37296
34833,37281
34910,37281
34986,37296
Z" /> 
<path style="fill:#000000; fill-opacity:1.0; 
stroke:#000000; stroke-width:0; stroke-opacity:1; 
stroke-linecap:round; stroke-linejoin:round;fill-rule:evenodd;"
d="M 78432,36153
78456,36161
78478,36172
78497,36188
78513,36207
78524,36229
78531,36253
78534,36283
78534,37357
78531,37386
78524,37410
78513,37432
78497,37451
78478,37467
78456,37479
78432,37486
78402,37489
77131,37489
77102,37486
77078,37479
77056,37467
77037,37451
77021,37432
77009,37410
77002,37386
76999,37357
76999,36283
77002,36253
77009,36229
77021,36207
77037,36188
77056,36172
77078,36161
77102,36153
77131,36151
78402,36151
78432,36153
Z" /> 
<path style="fill:#000000; fill-opacity:1.0; 
stroke:#000000; stroke-width:0; stroke-opacity:1; 
stroke-linecap:round; stroke-linejoin:round;fill-rule:evenodd;"
d="M 34986,35800
34986,35800
34986,35800
35058,35830
35090,35852
35122,35873
35177,35928
35220,35992
35250,36064
35265,36140
35265,36218
35250,36294
35250,36294
35220,36365
35177,36430
35122,36485
35058,36528
35058,36528
35058,36528
34986,36557
34910,36573
34833,36573
34757,36557
34685,36528
34685,36528
34685,36528
34620,36485
34566,36430
34522,36365
34493,36294
34493,36294
34478,36218
34478,36140
34493,36064
34522,35992
34566,35928
34620,35873
34652,35852
34685,35830
34757,35800
34757,35800
34757,35800
34833,35785
34910,35785
34986,35800
Z" /> 
<path style="fill:#000000; fill-opacity:1.0; 
stroke:#000000; stroke-width:0; stroke-opacity:1; 
stroke-linecap:round; stroke-linejoin:round;fill-rule:evenodd;"
d="M 53233,33448
53295,33454
53414,33490
53414,33490
53523,33549
53523,33549
53523,33549
53619,33627
53698,33723
53756,33833
53792,33951
53804,34075
53792,34198
53756,34317
53756,34317
53698,34427
53619,34523
53523,34601
53414,34660
53414,34660
53295,34696
53233,34702
53202,34705
53140,34705
53110,34702
53048,34696
52929,34660
52929,34660
52820,34601
52724,34523
52645,34427
52587,34317
52587,34317
52551,34198
52538,34075
52551,33951
52587,33833
52645,33723
52724,33627
52820,33549
52820,33549
52820,33549
52929,33490
52929,33490
53048,33454
53110,33448
53140,33445
53202,33445
53233,33448
Z" /> 
<path style="fill:#000000; fill-opacity:1.0; 
stroke:#000000; stroke-width:0; stroke-opacity:1; 
stroke-linecap:round; stroke-linejoin:round;fill-rule:evenodd;"
d="M 55233,33448
55295,33454
55414,33490
55414,33490
55523,33549
55523,33549
55523,33549
55619,33627
55698,33723
55756,33833
55792,33951
55804,34075
55792,34198
55756,34317
55756,34317
55698,34427
55619,34523
55523,34601
55414,34660
55414,34660
55295,34696
55233,34702
55202,34705
55140,34705
55110,34702
55048,34696
54929,34660
54929,34660
54820,34601
54724,34523
54645,34427
54587,34317
54587,34317
54551,34198
54538,34075
54551,33951
54587,33833
54645,33723
54724,33627
54820,33549
54820,33549
54820,33549
54929,33490
54929,33490
55048,33454
55110,33448
55140,33445
55202,33445
55233,33448
Z" /> 
<path style="fill:#000000; fill-opacity:1.0; 
stroke:#000000; stroke-width:0; stroke-opacity:1; 
stroke-linecap:round; stroke-linejoin:round;fill-rule:evenodd;"
d="M 71233,33448
71295,33454
71414,33490
71414,33490
71523,33549
71523,33549
71523,33549
71619,33627
71698,33723
71756,33833
71792,33951
71804,34075
71792,34198
71756,34317
71756,34317
71698,34427
71619,34523
71523,34601
71414,34660
71414,34660
71295,34696
71233,34702
71202,34705
71140,34705
71110,34702
71048,34696
70929,34660
70929,34660
70820,34601
70724,34523
70645,34427
70587,34317
70587,34317
70551,34198
70538,34075
70551,33951
70587,33833
70645,33723
70724,33627
70820,33549
70820,33549
70820,33549
70929,33490
70929,33490
71048,33454
71110,33448
71140,33445
71202,33445
71233,33448
Z" /> 
<path style="fill:#000000; fill-opacity:1.0; 
stroke:#000000; stroke-width:0; stroke-opacity:1; 
stroke-linecap:round; stroke-linejoin:round;fill-rule:evenodd;"
d="M 69233,33448
69295,33454
69414,33490
69414,33490
69523,33549
69523,33549
69523,33549
69619,33627
69698,33723
69756,33833
69792,33951
69804,34075
69792,34198
69756,34317
69756,34317
69698,34427
69619,34523
69523,34601
69414,34660
69414,34660
69295,34696
69233,34702
69202,34705
69140,34705
69110,34702
69048,34696
68929,34660
68929,34660
68820,34601
68724,34523
68645,34427
68587,34317
68587,34317
68551,34198
68538,34075
68551,33951
68587,33833
68645,33723
68724,33627
68820,33549
68820,33549
68820,33549
68929,33490
68929,33490
69048,33454
69110,33448
69140,33445
69202,33445
69233,33448
Z" /> 
<path style="fill:#000000; fill-opacity:1.0; 
stroke:#000000; stroke-width:0; stroke-opacity:1; 
stroke-linecap:round; stroke-linejoin:round;fill-rule:evenodd;"
d="M 67233,33448
67295,33454
67414,33490
67414,33490
67523,33549
67523,33549
67523,33549
67619,33627
67698,33723
67756,33833
67792,33951
67804,34075
67792,34198
67756,34317
67756,34317
67698,34427
67619,34523
67523,34601
67414,34660
67414,34660
67295,34696
67233,34702
67202,34705
67140,34705
67110,34702
67048,34696
66929,34660
66929,34660
66820,34601
66724,34523
66645,34427
66587,34317
66587,34317
66551,34198
66538,34075
66551,33951
66587,33833
66645,33723
66724,33627
66820,33549
66820,33549
66820,33549
66929,33490
66929,33490
67048,33454
67110,33448
67140,33445
67202,33445
67233,33448
Z" /> 
<path style="fill:#000000; fill-opacity:1.0; 
stroke:#000000; stroke-width:0; stroke-opacity:1; 
stroke-linecap:round; stroke-linejoin:round;fill-rule:evenodd;"
d="M 65233,33448
65295,33454
65414,33490
65414,33490
65523,33549
65523,33549
65523,33549
65619,33627
65698,33723
65756,33833
65792,33951
65804,34075
65792,34198
65756,34317
65756,34317
65698,34427
65619,34523
65523,34601
65414,34660
65414,34660
65295,34696
65233,34702
65202,34705
65140,34705
65110,34702
65048,34696
64929,34660
64929,34660
64820,34601
64724,34523
64645,34427
64587,34317
64587,34317
64551,34198
64538,34075
64551,33951
64587,33833
64645,33723
64724,33627
64820,33549
64820,33549
64820,33549
64929,33490
64929,33490
65048,33454
65110,33448
65140,33445
65202,33445
65233,33448
Z" /> 
<path style="fill:#000000; fill-opacity:1.0; 
stroke:#000000; stroke-width:0; stroke-opacity:1; 
stroke-linecap:round; stroke-linejoin:round;fill-rule:evenodd;"
d="M 45233,33448
45295,33454
45414,33490
45414,33490
45523,33549
45523,33549
45523,33549
45619,33627
45698,33723
45756,33833
45792,33951
45804,34075
45792,34198
45756,34317
45756,34317
45698,34427
45619,34523
45523,34601
45414,34660
45414,34660
45295,34696
45233,34702
45202,34705
45140,34705
45110,34702
45048,34696
44929,34660
44929,34660
44820,34601
44724,34523
44645,34427
44587,34317
44587,34317
44551,34198
44538,34075
44551,33951
44587,33833
44645,33723
44724,33627
44820,33549
44820,33549
44820,33549
44929,33490
44929,33490
45048,33454
45110,33448
45140,33445
45202,33445
45233,33448
Z" /> 
<path style="fill:#000000; fill-opacity:1.0; 
stroke:#000000; stroke-width:0; stroke-opacity:1; 
stroke-linecap:round; stroke-linejoin:round;fill-rule:evenodd;"
d="M 47233,33448
47295,33454
47414,33490
47414,33490
47523,33549
47523,33549
47523,33549
47619,33627
47698,33723
47756,33833
47792,33951
47804,34075
47792,34198
47756,34317
47756,34317
47698,34427
47619,34523
47523,34601
47414,34660
47414,34660
47295,34696
47233,34702
47202,34705
47140,34705
47110,34702
47048,34696
46929,34660
46929,34660
46820,34601
46724,34523
46645,34427
46587,34317
46587,34317
46551,34198
46538,34075
46551,33951
46587,33833
46645,33723
46724,33627
46820,33549
46820,33549
46820,33549
46929,33490
46929,33490
47048,33454
47110,33448
47140,33445
47202,33445
47233,33448
Z" /> 
<path style="fill:#000000; fill-opacity:1.0; 
stroke:#000000; stroke-width:0; stroke-opacity:1; 
stroke-linecap:round; stroke-linejoin:round;fill-rule:evenodd;"
d="M 49233,33448
49295,33454
49414,33490
49414,33490
49523,33549
49523,33549
49523,33549
49619,33627
49698,33723
49756,33833
49792,33951
49804,34075
49792,34198
49756,34317
49756,34317
49698,34427
49619,34523
49523,34601
49414,34660
49414,34660
49295,34696
49233,34702
49202,34705
49140,34705
49110,34702
49048,34696
48929,34660
48929,34660
48820,34601
48724,34523
48645,34427
48587,34317
48587,34317
48551,34198
48538,34075
48551,33951
48587,33833
48645,33723
48724,33627
48820,33549
48820,33549
48820,33549
48929,33490
48929,33490
49048,33454
49110,33448
49140,33445
49202,33445
49233,33448
Z" /> 
<path style="fill:#000000; fill-opacity:1.0; 
stroke:#000000; stroke-width:0; stroke-opacity:1; 
stroke-linecap:round; stroke-linejoin:round;fill-rule:evenodd;"
d="M 61233,33448
61295,33454
61414,33490
61414,33490
61523,33549
61523,33549
61523,33549
61619,33627
61698,33723
61756,33833
61792,33951
61804,34075
61792,34198
61756,34317
61756,34317
61698,34427
61619,34523
61523,34601
61414,34660
61414,34660
61295,34696
61233,34702
61202,34705
61140,34705
61110,34702
61048,34696
60929,34660
60929,34660
60820,34601
60724,34523
60645,34427
60587,34317
60587,34317
60551,34198
60538,34075
60551,33951
60587,33833
60645,33723
60724,33627
60820,33549
60820,33549
60820,33549
60929,33490
60929,33490
61048,33454
61110,33448
61140,33445
61202,33445
61233,33448
Z" /> 
<path style="fill:#000000; fill-opacity:1.0; 
stroke:#000000; stroke-width:0; stroke-opacity:1; 
stroke-linecap:round; stroke-linejoin:round;fill-rule:evenodd;"
d="M 51233,33448
51295,33454
51414,33490
51414,33490
51523,33549
51523,33549
51523,33549
51619,33627
51698,33723
51756,33833
51792,33951
51804,34075
51792,34198
51756,34317
51756,34317
51698,34427
51619,34523
51523,34601
51414,34660
51414,34660
51295,34696
51233,34702
51202,34705
51140,34705
51110,34702
51048,34696
50929,34660
50929,34660
50820,34601
50724,34523
50645,34427
50587,34317
50587,34317
50551,34198
50538,34075
50551,33951
50587,33833
50645,33723
50724,33627
50820,33549
50820,33549
50820,33549
50929,33490
50929,33490
51048,33454
51110,33448
51140,33445
51202,33445
51233,33448
Z" /> 
<path style="fill:#000000; fill-opacity:1.0; 
stroke:#000000; stroke-width:0; stroke-opacity:1; 
stroke-linecap:round; stroke-linejoin:round;fill-rule:evenodd;"
d="M 63233,33448
63295,33454
63414,33490
63414,33490
63523,33549
63523,33549
63523,33549
63619,33627
63698,33723
63756,33833
63792,33951
63804,34075
63792,34198
63756,34317
63756,34317
63698,34427
63619,34523
63523,34601
63414,34660
63414,34660
63295,34696
63233,34702
63202,34705
63140,34705
63110,34702
63048,34696
62929,34660
62929,34660
62820,34601
62724,34523
62645,34427
62587,34317
62587,34317
62551,34198
62538,34075
62551,33951
62587,33833
62645,33723
62724,33627
62820,33549
62820,33549
62820,33549
62929,33490
62929,33490
63048,33454
63110,33448
63140,33445
63202,33445
63233,33448
Z" /> 
<path style="fill:#000000; fill-opacity:1.0; 
stroke:#000000; stroke-width:0; stroke-opacity:1; 
stroke-linecap:round; stroke-linejoin:round;fill-rule:evenodd;"
d="M 59233,33448
59295,33454
59414,33490
59414,33490
59523,33549
59523,33549
59523,33549
59619,33627
59698,33723
59756,33833
59792,33951
59804,34075
59792,34198
59756,34317
59756,34317
59698,34427
59619,34523
59523,34601
59414,34660
59414,34660
59295,34696
59233,34702
59202,34705
59140,34705
59110,34702
59048,34696
58929,34660
58929,34660
58820,34601
58724,34523
58645,34427
58587,34317
58587,34317
58551,34198
58538,34075
58551,33951
58587,33833
58645,33723
58724,33627
58820,33549
58820,33549
58820,33549
58929,33490
58929,33490
59048,33454
59110,33448
59140,33445
59202,33445
59233,33448
Z" /> 
<path style="fill:#000000; fill-opacity:1.0; 
stroke:#000000; stroke-width:0; stroke-opacity:1; 
stroke-linecap:round; stroke-linejoin:round;fill-rule:evenodd;"
d="M 57233,33448
57295,33454
57414,33490
57414,33490
57523,33549
57523,33549
57523,33549
57619,33627
57698,33723
57756,33833
57792,33951
57804,34075
57792,34198
57756,34317
57756,34317
57698,34427
57619,34523
57523,34601
57414,34660
57414,34660
57295,34696
57233,34702
57202,34705
57140,34705
57110,34702
57048,34696
56929,34660
56929,34660
56820,34601
56724,34523
56645,34427
56587,34317
56587,34317
56551,34198
56538,34075
56551,33951
56587,33833
56645,33723
56724,33627
56820,33549
56820,33549
56820,33549
56929,33490
56929,33490
57048,33454
57110,33448
57140,33445
57202,33445
57233,33448
Z" /> 
<path style="fill:#000000; fill-opacity:1.0; 
stroke:#000000; stroke-width:0; stroke-opacity:1; 
stroke-linecap:round; stroke-linejoin:round;fill-rule:evenodd;"
d="M 60950,30708
61001,30718
61144,30777
61273,30863
61383,30973
61469,31102
61529,31245
61559,31397
61559,31552
61529,31705
61469,31848
61383,31977
61273,32087
61144,32173
61001,32232
60950,32242
60849,32262
60694,32262
60592,32242
60542,32232
60398,32173
60269,32087
60160,31977
60074,31848
60014,31705
59984,31552
59984,31397
60014,31245
60074,31102
60160,30973
60269,30863
60398,30777
60542,30718
60592,30708
60694,30688
60849,30688
60950,30708
Z" /> 
<path style="fill:#000000; fill-opacity:1.0; 
stroke:#000000; stroke-width:0; stroke-opacity:1; 
stroke-linecap:round; stroke-linejoin:round;fill-rule:evenodd;"
d="M 55832,30708
55883,30718
56026,30777
56155,30863
56265,30973
56351,31102
56410,31245
56441,31397
56441,31552
56410,31705
56351,31848
56265,31977
56155,32087
56026,32173
55883,32232
55832,32242
55731,32262
55576,32262
55474,32242
55424,32232
55280,32173
55151,32087
55042,31977
54955,31848
54896,31705
54866,31552
54866,31397
54896,31245
54955,31102
55042,30973
55151,30863
55280,30777
55424,30718
55474,30708
55576,30688
55731,30688
55832,30708
Z" /> 
<path style="fill:#000000; fill-opacity:1.0; 
stroke:#000000; stroke-width:0; stroke-opacity:1; 
stroke-linecap:round; stroke-linejoin:round;fill-rule:evenodd;"
d="M 52478,30215
52541,30221
52662,30258
52704,30271
52855,30351
52987,30460
53095,30591
53175,30742
53175,30742
53225,30905
53242,31075
53225,31245
53188,31366
53175,31408
53095,31558
52987,31690
52855,31799
52704,31879
52662,31892
52541,31929
52478,31935
52414,31941
52329,31941
52265,31935
52202,31929
52081,31892
52038,31879
51888,31799
51756,31690
51648,31558
51567,31408
51554,31366
51518,31245
51501,31075
51518,30905
51567,30742
51567,30742
51648,30591
51756,30460
51888,30351
52038,30271
52081,30258
52202,30221
52265,30215
52329,30209
52414,30209
52478,30215
Z" /> 
<path style="fill:#000000; fill-opacity:1.0; 
stroke:#000000; stroke-width:0; stroke-opacity:1; 
stroke-linecap:round; stroke-linejoin:round;fill-rule:evenodd;"
d="M 45238,31941
43505,31941
43505,30209
45238,30209
45238,31941
Z" /> 
<path style="fill:#000000; fill-opacity:1.0; 
stroke:#000000; stroke-width:0; stroke-opacity:1; 
stroke-linecap:round; stroke-linejoin:round;fill-rule:evenodd;"
d="M 60950,27164
61001,27174
61144,27234
61273,27320
61383,27430
61469,27559
61529,27702
61529,27702
61559,27854
61559,28009
61544,28083
61529,28161
61469,28305
61383,28434
61273,28543
61144,28629
61001,28689
60950,28699
60849,28719
60694,28719
60592,28699
60542,28689
60398,28629
60269,28543
60160,28434
60074,28305
60014,28161
59999,28083
59984,28009
59984,27854
60014,27702
60014,27702
60074,27559
60160,27430
60269,27320
60398,27234
60542,27174
60592,27164
60694,27144
60849,27144
60950,27164
Z" /> 
<path style="fill:#000000; fill-opacity:1.0; 
stroke:#000000; stroke-width:0; stroke-opacity:1; 
stroke-linecap:round; stroke-linejoin:round;fill-rule:evenodd;"
d="M 55832,27164
55883,27174
56026,27234
56155,27320
56265,27430
56351,27559
56410,27702
56410,27702
56441,27854
56441,28009
56426,28083
56410,28161
56351,28305
56265,28434
56155,28543
56026,28629
55883,28689
55832,28699
55731,28719
55576,28719
55474,28699
55424,28689
55280,28629
55151,28543
55042,28434
54955,28305
54896,28161
54881,28083
54866,28009
54866,27854
54896,27702
54896,27702
54955,27559
55042,27430
55151,27320
55280,27234
55424,27174
55474,27164
55576,27144
55731,27144
55832,27164
Z" /> 
<path style="fill:#000000; fill-opacity:1.0; 
stroke:#000000; stroke-width:0; stroke-opacity:1; 
stroke-linecap:round; stroke-linejoin:round;fill-rule:evenodd;"
d="M 90011,28277
88672,28277
88672,26938
90011,26938
90011,28277
Z" /> 
<path style="fill:#000000; fill-opacity:1.0; 
stroke:#000000; stroke-width:0; stroke-opacity:1; 
stroke-linecap:round; stroke-linejoin:round;fill-rule:evenodd;"
d="M 87473,26948
87536,26967
87599,26986
87599,26986
87715,27048
87817,27132
87901,27234
87925,27280
87963,27350
87972,27380
88001,27476
88014,27607
88001,27738
87963,27865
87901,27981
87817,28083
87715,28166
87599,28229
87599,28229
87536,28248
87473,28267
87374,28277
87309,28277
87210,28267
87147,28248
87084,28229
87084,28229
86968,28166
86866,28083
86782,27981
86720,27865
86682,27738
86669,27607
86682,27476
86711,27380
86720,27350
86758,27280
86782,27234
86866,27132
86968,27048
87084,26986
87084,26986
87147,26967
87210,26948
87309,26938
87374,26938
87473,26948
Z" /> 
<path style="fill:#000000; fill-opacity:1.0; 
stroke:#000000; stroke-width:0; stroke-opacity:1; 
stroke-linecap:round; stroke-linejoin:round;fill-rule:evenodd;"
d="M 27841,26061
27904,26080
27967,26099
27967,26099
28083,26161
28185,26245
28269,26347
28331,26463
28369,26589
28382,26720
28369,26852
28369,26852
28340,26948
28331,26978
28269,27094
28185,27196
28083,27280
27967,27342
27967,27342
27904,27361
27841,27380
27743,27390
27480,27390
27382,27380
27319,27361
27256,27342
27256,27342
27139,27280
27037,27196
26954,27094
26892,26978
26882,26948
26853,26852
26853,26852
26840,26720
26853,26589
26892,26463
26954,26347
27037,26245
27139,26161
27256,26099
27256,26099
27319,26080
27382,26061
27480,26051
27743,26051
27841,26061
Z" /> 
<path style="fill:#000000; fill-opacity:1.0; 
stroke:#000000; stroke-width:0; stroke-opacity:1; 
stroke-linecap:round; stroke-linejoin:round;fill-rule:evenodd;"
d="M 87473,24948
87536,24967
87599,24986
87599,24986
87715,25048
87817,25132
87901,25234
87963,25350
87970,25373
88001,25476
88014,25607
88001,25738
87963,25865
87901,25981
87817,26083
87715,26166
87599,26229
87599,26229
87545,26245
87473,26267
87374,26277
87309,26277
87210,26267
87138,26245
87084,26229
87084,26229
86968,26166
86866,26083
86782,25981
86720,25865
86682,25738
86669,25607
86682,25476
86713,25373
86720,25350
86782,25234
86866,25132
86968,25048
87084,24986
87084,24986
87147,24967
87210,24948
87309,24938
87374,24938
87473,24948
Z" /> 
<path style="fill:#000000; fill-opacity:1.0; 
stroke:#000000; stroke-width:0; stroke-opacity:1; 
stroke-linecap:round; stroke-linejoin:round;fill-rule:evenodd;"
d="M 89473,24948
89536,24967
89599,24986
89599,24986
89715,25048
89817,25132
89901,25234
89963,25350
89970,25373
90001,25476
90014,25607
90001,25738
89963,25865
89901,25981
89817,26083
89715,26166
89599,26229
89599,26229
89545,26245
89473,26267
89374,26277
89309,26277
89210,26267
89138,26245
89084,26229
89084,26229
88968,26166
88866,26083
88782,25981
88720,25865
88682,25738
88669,25607
88682,25476
88713,25373
88720,25350
88782,25234
88866,25132
88968,25048
89084,24986
89084,24986
89147,24967
89210,24948
89309,24938
89374,24938
89473,24948
Z" /> 
<path style="fill:#000000; fill-opacity:1.0; 
stroke:#000000; stroke-width:0; stroke-opacity:1; 
stroke-linecap:round; stroke-linejoin:round;fill-rule:evenodd;"
d="M 27841,24092
27904,24111
27967,24131
27967,24131
28083,24193
28185,24276
28266,24375
28269,24378
28331,24495
28335,24506
28369,24621
28382,24752
28369,24883
28354,24934
28335,24996
28331,25009
28269,25126
28185,25227
28083,25311
27967,25373
27967,25373
27904,25392
27841,25412
27743,25421
27480,25421
27382,25412
27319,25392
27256,25373
27256,25373
27139,25311
27037,25227
26954,25126
26892,25009
26888,24996
26869,24934
26853,24883
26840,24752
26853,24621
26888,24506
26892,24495
26954,24378
26957,24375
27037,24276
27139,24193
27256,24131
27256,24131
27319,24111
27382,24092
27480,24083
27743,24083
27841,24092
Z" /> 
<path style="fill:#000000; fill-opacity:1.0; 
stroke:#000000; stroke-width:0; stroke-opacity:1; 
stroke-linecap:round; stroke-linejoin:round;fill-rule:evenodd;"
d="M 51349,25177
48593,25177
48593,22421
51349,22421
51349,25177
Z" /> 
<path style="fill:#000000; fill-opacity:1.0; 
stroke:#000000; stroke-width:0; stroke-opacity:1; 
stroke-linecap:round; stroke-linejoin:round;fill-rule:evenodd;"
d="M 42421,23715
42484,23734
42547,23754
42547,23754
42663,23816
42765,23899
42849,24001
42911,24118
42911,24118
42915,24131
42949,24244
42962,24375
42949,24506
42949,24506
42914,24621
42911,24632
42849,24749
42765,24850
42663,24934
42638,24948
42547,24996
42484,25015
42421,25035
42322,25044
42020,25044
41922,25035
41859,25015
41796,24996
41705,24948
41680,24934
41578,24850
41494,24749
41432,24632
41428,24621
41394,24506
41394,24506
41381,24375
41394,24244
41428,24131
41432,24118
41432,24118
41494,24001
41578,23899
41680,23816
41796,23754
41796,23754
41859,23734
41922,23715
42020,23706
42322,23706
42421,23715
Z" /> 
<path style="fill:#000000; fill-opacity:1.0; 
stroke:#000000; stroke-width:0; stroke-opacity:1; 
stroke-linecap:round; stroke-linejoin:round;fill-rule:evenodd;"
d="M 35059,24925
33484,24925
33484,23425
35059,23425
35059,24925
Z" /> 
<path style="fill:#000000; fill-opacity:1.0; 
stroke:#000000; stroke-width:0; stroke-opacity:1; 
stroke-linecap:round; stroke-linejoin:round;fill-rule:evenodd;"
d="M 87473,22948
87536,22967
87599,22986
87599,22986
87715,23048
87817,23132
87901,23234
87963,23350
88001,23476
88014,23607
88001,23738
87963,23865
87901,23981
87817,24083
87715,24166
87599,24229
87599,24229
87549,24244
87473,24267
87374,24277
87309,24277
87210,24267
87134,24244
87084,24229
87084,24229
86968,24166
86866,24083
86782,23981
86720,23865
86682,23738
86669,23607
86682,23476
86720,23350
86782,23234
86866,23132
86968,23048
87084,22986
87084,22986
87147,22967
87210,22948
87309,22938
87374,22938
87473,22948
Z" /> 
<path style="fill:#000000; fill-opacity:1.0; 
stroke:#000000; stroke-width:0; stroke-opacity:1; 
stroke-linecap:round; stroke-linejoin:round;fill-rule:evenodd;"
d="M 89473,22948
89536,22967
89599,22986
89599,22986
89715,23048
89817,23132
89901,23234
89963,23350
90001,23476
90014,23607
90001,23738
89963,23865
89901,23981
89817,24083
89715,24166
89599,24229
89599,24229
89549,24244
89473,24267
89374,24277
89309,24277
89210,24267
89134,24244
89084,24229
89084,24229
88968,24166
88866,24083
88782,23981
88720,23865
88682,23738
88669,23607
88682,23476
88720,23350
88782,23234
88866,23132
88968,23048
89084,22986
89084,22986
89147,22967
89210,22948
89309,22938
89374,22938
89473,22948
Z" /> 
<path style="fill:#000000; fill-opacity:1.0; 
stroke:#000000; stroke-width:0; stroke-opacity:1; 
stroke-linecap:round; stroke-linejoin:round;fill-rule:evenodd;"
d="M 27841,22124
27904,22143
27967,22162
27967,22162
28083,22224
28185,22308
28253,22390
28269,22410
28331,22526
28350,22589
28369,22652
28382,22783
28369,22915
28331,23041
28269,23157
28185,23259
28083,23343
27967,23405
27967,23405
27904,23424
27841,23443
27743,23453
27480,23453
27382,23443
27319,23424
27256,23405
27256,23405
27139,23343
27037,23259
26954,23157
26892,23041
26853,22915
26840,22783
26853,22652
26872,22589
26892,22526
26954,22410
26970,22390
27037,22308
27139,22224
27256,22162
27256,22162
27319,22143
27382,22124
27480,22114
27743,22114
27841,22124
Z" /> 
<path style="fill:#000000; fill-opacity:1.0; 
stroke:#000000; stroke-width:0; stroke-opacity:1; 
stroke-linecap:round; stroke-linejoin:round;fill-rule:evenodd;"
d="M 42856,21740
42880,21747
42902,21759
42921,21775
42937,21794
42949,21816
42956,21840
42959,21869
42959,22944
42956,22973
42949,22997
42937,23019
42921,23038
42902,23054
42880,23066
42856,23073
42827,23076
41516,23076
41487,23073
41463,23066
41441,23054
41422,23038
41406,23019
41394,22997
41387,22973
41384,22944
41384,21869
41387,21840
41394,21816
41406,21794
41422,21775
41441,21759
41463,21747
41487,21740
41516,21737
42827,21737
42856,21740
Z" /> 
<path style="fill:#000000; fill-opacity:1.0; 
stroke:#000000; stroke-width:0; stroke-opacity:1; 
stroke-linecap:round; stroke-linejoin:round;fill-rule:evenodd;"
d="M 34456,21436
34597,21479
34727,21548
34842,21642
34935,21756
35005,21887
35048,22028
35062,22175
35048,22322
35005,22463
34935,22594
34842,22708
34727,22802
34597,22871
34456,22914
34346,22925
34197,22925
34087,22914
33946,22871
33815,22802
33701,22708
33607,22594
33538,22463
33495,22322
33480,22175
33495,22028
33538,21887
33607,21756
33701,21642
33815,21548
33946,21479
34087,21436
34197,21425
34346,21425
34456,21436
Z" /> 
<path style="fill:#000000; fill-opacity:1.0; 
stroke:#000000; stroke-width:0; stroke-opacity:1; 
stroke-linecap:round; stroke-linejoin:round;fill-rule:evenodd;"
d="M 47134,20072
47253,20108
47364,20167
47461,20247
47540,20344
47599,20454
47636,20574
47649,20704
47649,22170
47636,22300
47599,22420
47540,22530
47461,22627
47364,22707
47253,22766
47134,22802
47004,22815
45537,22815
45408,22802
45288,22766
45177,22707
45080,22627
45001,22530
44942,22420
44905,22300
44893,22170
44893,20704
44905,20574
44942,20454
45001,20344
45080,20247
45177,20167
45288,20108
45408,20072
45537,20059
47004,20059
47134,20072
Z" /> 
<path style="fill:#000000; fill-opacity:1.0; 
stroke:#000000; stroke-width:0; stroke-opacity:1; 
stroke-linecap:round; stroke-linejoin:round;fill-rule:evenodd;"
d="M 28276,20149
28300,20156
28322,20168
28341,20183
28357,20203
28369,20224
28376,20248
28379,20278
28379,21352
28376,21382
28369,21405
28357,21427
28341,21447
28322,21462
28300,21474
28276,21481
28247,21484
26976,21484
26946,21481
26922,21474
26901,21462
26881,21447
26866,21427
26854,21405
26847,21382
26844,21352
26844,20278
26847,20248
26854,20224
26866,20203
26881,20183
26901,20168
26922,20156
26946,20149
26976,20146
28247,20146
28276,20149
Z" /> 
<path style="fill:#000000; fill-opacity:1.0; 
stroke:#000000; stroke-width:0; stroke-opacity:1; 
stroke-linecap:round; stroke-linejoin:round;fill-rule:evenodd;"
d="M 34456,19436
34597,19479
34727,19548
34842,19642
34935,19756
35005,19887
35048,20028
35062,20175
35048,20322
35005,20463
34935,20594
34842,20708
34727,20802
34597,20871
34456,20914
34346,20925
34197,20925
34087,20914
33946,20871
33815,20802
33701,20708
33607,20594
33538,20463
33495,20322
33480,20175
33495,20028
33538,19887
33607,19756
33701,19642
33815,19548
33946,19479
34087,19436
34197,19425
34346,19425
34456,19436
Z" /> 
<path style="fill:#000000; fill-opacity:1.0; 
stroke:#000000; stroke-width:0; stroke-opacity:1; 
stroke-linecap:round; stroke-linejoin:round;fill-rule:evenodd;"
d="M 50914,17905
51015,17935
51108,17985
51190,18053
51258,18135
51308,18228
51338,18330
51349,18440
51349,19710
51338,19820
51308,19922
51258,20015
51190,20097
51108,20164
51015,20214
50914,20245
50803,20256
49140,20256
49029,20245
48928,20214
48834,20164
48752,20097
48685,20015
48635,19922
48604,19820
48593,19710
48593,18440
48604,18330
48635,18228
48685,18135
48752,18053
48834,17985
48928,17935
49029,17905
49140,17894
50803,17894
50914,17905
Z" /> 
<path style="fill:#000000; fill-opacity:1.0; 
stroke:#000000; stroke-width:0; stroke-opacity:1; 
stroke-linecap:round; stroke-linejoin:round;fill-rule:evenodd;"
d="M 74568,17551
74619,17561
74762,17620
74891,17707
75001,17816
75087,17945
75147,18089
75147,18089
75177,18241
75177,18396
75159,18484
75147,18548
75087,18691
75001,18820
74891,18930
74762,19016
74619,19075
74568,19085
74467,19106
74312,19106
74211,19085
74160,19075
74017,19016
73888,18930
73778,18820
73692,18691
73632,18548
73620,18484
73602,18396
73602,18241
73632,18089
73632,18089
73692,17945
73778,17816
73888,17707
74017,17620
74160,17561
74211,17551
74312,17531
74467,17531
74568,17551
Z" /> 
<path style="fill:#000000; fill-opacity:1.0; 
stroke:#000000; stroke-width:0; stroke-opacity:1; 
stroke-linecap:round; stroke-linejoin:round;fill-rule:evenodd;"
d="M 69450,17551
69501,17561
69644,17620
69773,17707
69883,17816
69969,17945
70029,18089
70029,18089
70059,18241
70059,18396
70041,18484
70029,18548
69969,18691
69883,18820
69773,18930
69644,19016
69501,19075
69450,19085
69349,19106
69194,19106
69092,19085
69042,19075
68898,19016
68769,18930
68660,18820
68574,18691
68514,18548
68502,18484
68484,18396
68484,18241
68514,18089
68514,18089
68574,17945
68660,17816
68769,17707
68898,17620
69042,17561
69092,17551
69194,17531
69349,17531
69450,17551
Z" /> 
<path style="fill:#000000; fill-opacity:1.0; 
stroke:#000000; stroke-width:0; stroke-opacity:1; 
stroke-linecap:round; stroke-linejoin:round;fill-rule:evenodd;"
d="M 74568,14008
74619,14018
74762,14077
74891,14163
75001,14273
75087,14402
75147,14545
75177,14697
75177,14852
75147,15005
75087,15148
75001,15277
74891,15387
74762,15473
74619,15532
74568,15542
74467,15562
74312,15562
74211,15542
74160,15532
74017,15473
73888,15387
73778,15277
73692,15148
73632,15005
73602,14852
73602,14697
73632,14545
73692,14402
73778,14273
73888,14163
74017,14077
74160,14018
74211,14008
74312,13988
74467,13988
74568,14008
Z" /> 
<path style="fill:#000000; fill-opacity:1.0; 
stroke:#000000; stroke-width:0; stroke-opacity:1; 
stroke-linecap:round; stroke-linejoin:round;fill-rule:evenodd;"
d="M 69450,14008
69501,14018
69644,14077
69773,14163
69883,14273
69969,14402
70029,14545
70059,14697
70059,14852
70029,15005
69969,15148
69883,15277
69773,15387
69644,15473
69501,15532
69450,15542
69349,15562
69194,15562
69092,15542
69042,15532
68898,15473
68769,15387
68660,15277
68574,15148
68514,15005
68484,14852
68484,14697
68514,14545
68574,14402
68660,14273
68769,14163
68898,14077
69042,14018
69092,14008
69194,13988
69349,13988
69450,14008
Z" /> 
</g> 
</svg>
