<?xml version="1.0" standalone="no"?>
 <!DOCTYPE svg PUBLIC "-//W3C//DTD SVG 1.1//EN" 
 "http://www.w3.org/Graphics/SVG/1.1/DTD/svg11.dtd"> 
<svg xmlns="http://www.w3.org/2000/svg" version="1.1" 
    width="29.7002cm" height="21.0007cm" viewBox="0 0 116930 82680 ">
<title>SVG Picture created as ThermocoupleLogger-F_Paste.svg date 2019/03/28 10:51:20 </title>
  <desc>Picture generated by PCBNEW </desc>
<g style="fill:#000000; fill-opacity:1;stroke:#000000; stroke-opacity:1;
stroke-linecap:round; stroke-linejoin:round; "
 transform="translate(0 0) scale(1 1)">
</g>
<g style="fill:#000000; fill-opacity:0.0; 
stroke:#000000; stroke-width:-0.000787402; stroke-opacity:1; 
stroke-linecap:round; stroke-linejoin:round;">
</g>
<g style="fill:#000000; fill-opacity:0.0; 
stroke:#000000; stroke-width:78.7402; stroke-opacity:1; 
stroke-linecap:round; stroke-linejoin:round;">
<path d="M93971 12875
L93971 73375
" />
<path d="M23971 68993
L23971 68993
" />
<path d="M23971 12875
L93971 12875
" />
<path d="M23971 73375
L93971 73375
" />
<path d="M23971 12875
L23971 73375
" />
<path d="M23971 13875
L23971 13875
" />
<g >
</g>
<g >
</g>
<g >
</g>
<g >
</g>
<g >
</g>
<g >
</g>
<g >
</g>
<g >
</g>
<g >
</g>
<g >
</g>
<g >
</g>
<g >
</g>
<g >
</g>
<g >
</g>
<g style="fill:#000000; fill-opacity:0.0; 
stroke:#000000; stroke-width:0; stroke-opacity:1; 
stroke-linecap:round; stroke-linejoin:round;">
</g>
<g style="fill:#000000; fill-opacity:1.0; 
stroke:#000000; stroke-width:0; stroke-opacity:1; 
stroke-linecap:round; stroke-linejoin:round;">
<path style="fill:#000000; fill-opacity:1.0; 
stroke:#000000; stroke-width:0; stroke-opacity:1; 
stroke-linecap:round; stroke-linejoin:round;fill-rule:evenodd;"
d="M 36558,39239
38290,39239
38290,39711
36558,39711
36558,39239
Z" /> 
<path style="fill:#000000; fill-opacity:1.0; 
stroke:#000000; stroke-width:0; stroke-opacity:1; 
stroke-linecap:round; stroke-linejoin:round;fill-rule:evenodd;"
d="M 40652,39239
42385,39239
42385,39711
40652,39711
40652,39239
Z" /> 
<path style="fill:#000000; fill-opacity:1.0; 
stroke:#000000; stroke-width:0; stroke-opacity:1; 
stroke-linecap:round; stroke-linejoin:round;fill-rule:evenodd;"
d="M 36558,38239
38290,38239
38290,38711
36558,38711
36558,38239
Z" /> 
<path style="fill:#000000; fill-opacity:1.0; 
stroke:#000000; stroke-width:0; stroke-opacity:1; 
stroke-linecap:round; stroke-linejoin:round;fill-rule:evenodd;"
d="M 40652,38239
42385,38239
42385,38711
40652,38711
40652,38239
Z" /> 
<path style="fill:#000000; fill-opacity:1.0; 
stroke:#000000; stroke-width:0; stroke-opacity:1; 
stroke-linecap:round; stroke-linejoin:round;fill-rule:evenodd;"
d="M 36558,37239
38290,37239
38290,37711
36558,37711
36558,37239
Z" /> 
<path style="fill:#000000; fill-opacity:1.0; 
stroke:#000000; stroke-width:0; stroke-opacity:1; 
stroke-linecap:round; stroke-linejoin:round;fill-rule:evenodd;"
d="M 40652,37239
42385,37239
42385,37711
40652,37711
40652,37239
Z" /> 
<path style="fill:#000000; fill-opacity:1.0; 
stroke:#000000; stroke-width:0; stroke-opacity:1; 
stroke-linecap:round; stroke-linejoin:round;fill-rule:evenodd;"
d="M 36558,36239
38290,36239
38290,36711
36558,36711
36558,36239
Z" /> 
<path style="fill:#000000; fill-opacity:1.0; 
stroke:#000000; stroke-width:0; stroke-opacity:1; 
stroke-linecap:round; stroke-linejoin:round;fill-rule:evenodd;"
d="M 40652,36239
42385,36239
42385,36711
40652,36711
40652,36239
Z" /> 
</g>
<g >
<path style="fill:#000000; fill-opacity:1.0; 
stroke:#000000; stroke-width:0; stroke-opacity:1; 
stroke-linecap:round; stroke-linejoin:round;fill-rule:evenodd;"
d="M 40324,27559
40343,27562
40362,27567
40380,27573
40397,27582
40414,27592
40429,27603
40444,27616
40457,27630
40468,27646
40478,27662
40486,27680
40493,27698
40498,27717
40500,27736
40501,27755
40501,29547
40500,29566
40498,29585
40493,29604
40486,29622
40478,29639
40468,29656
40457,29671
40444,29686
40429,29699
40414,29710
40397,29720
40380,29728
40362,29735
40343,29740
40324,29742
40304,29743
39438,29743
39419,29742
39400,29740
39381,29735
39363,29728
39346,29720
39329,29710
39313,29699
39299,29686
39286,29671
39275,29656
39265,29639
39256,29622
39250,29604
39245,29585
39242,29566
39241,29547
39241,27755
39242,27736
39245,27717
39250,27698
39256,27680
39265,27662
39275,27646
39286,27630
39299,27616
39313,27603
39329,27592
39346,27582
39363,27573
39381,27567
39400,27562
39419,27559
39438,27558
40304,27558
40324,27559
Z" /> 
<path style="fill:#000000; fill-opacity:1.0; 
stroke:#000000; stroke-width:0; stroke-opacity:1; 
stroke-linecap:round; stroke-linejoin:round;fill-rule:evenodd;"
d="M 40324,30807
40343,30810
40362,30815
40380,30821
40397,30830
40414,30840
40429,30851
40444,30864
40457,30878
40468,30894
40478,30910
40486,30928
40493,30946
40498,30965
40500,30984
40501,31003
40501,32795
40500,32814
40498,32833
40493,32852
40486,32870
40478,32887
40468,32904
40457,32919
40444,32934
40429,32947
40414,32958
40397,32968
40380,32976
40362,32983
40343,32988
40324,32991
40304,32991
39438,32991
39419,32991
39400,32988
39381,32983
39363,32976
39346,32968
39329,32958
39313,32947
39299,32934
39286,32919
39275,32904
39265,32887
39256,32870
39250,32852
39245,32833
39242,32814
39241,32795
39241,31003
39242,30984
39245,30965
39250,30946
39256,30928
39265,30910
39275,30894
39286,30878
39299,30864
39313,30851
39329,30840
39346,30830
39363,30821
39381,30815
39400,30810
39419,30807
39438,30806
40304,30806
40324,30807
Z" /> 
</g>
<g >
</g>
<g >
<path style="fill:#000000; fill-opacity:1.0; 
stroke:#000000; stroke-width:0; stroke-opacity:1; 
stroke-linecap:round; stroke-linejoin:round;fill-rule:evenodd;"
d="M 61213,24245
61213,25505
60662,25505
60662,24245
61213,24245
Z" /> 
<path style="fill:#000000; fill-opacity:1.0; 
stroke:#000000; stroke-width:0; stroke-opacity:1; 
stroke-linecap:round; stroke-linejoin:round;fill-rule:evenodd;"
d="M 60347,24245
60347,25505
59796,25505
59796,24245
60347,24245
Z" /> 
<path style="fill:#000000; fill-opacity:1.0; 
stroke:#000000; stroke-width:0; stroke-opacity:1; 
stroke-linecap:round; stroke-linejoin:round;fill-rule:evenodd;"
d="M 59481,24245
59481,25505
58930,25505
58930,24245
59481,24245
Z" /> 
<path style="fill:#000000; fill-opacity:1.0; 
stroke:#000000; stroke-width:0; stroke-opacity:1; 
stroke-linecap:round; stroke-linejoin:round;fill-rule:evenodd;"
d="M 62079,24245
62079,25505
61528,25505
61528,24245
62079,24245
Z" /> 
<path style="fill:#000000; fill-opacity:1.0; 
stroke:#000000; stroke-width:0; stroke-opacity:1; 
stroke-linecap:round; stroke-linejoin:round;fill-rule:evenodd;"
d="M 62945,24245
62945,25505
62394,25505
62394,24245
62945,24245
Z" /> 
<path style="fill:#000000; fill-opacity:1.0; 
stroke:#000000; stroke-width:0; stroke-opacity:1; 
stroke-linecap:round; stroke-linejoin:round;fill-rule:evenodd;"
d="M 63812,24245
63812,25505
63260,25505
63260,24245
63812,24245
Z" /> 
<path style="fill:#000000; fill-opacity:1.0; 
stroke:#000000; stroke-width:0; stroke-opacity:1; 
stroke-linecap:round; stroke-linejoin:round;fill-rule:evenodd;"
d="M 65544,24245
65544,25505
64993,25505
64993,24245
65544,24245
Z" /> 
<path style="fill:#000000; fill-opacity:1.0; 
stroke:#000000; stroke-width:0; stroke-opacity:1; 
stroke-linecap:round; stroke-linejoin:round;fill-rule:evenodd;"
d="M 64678,24245
64678,25505
64127,25505
64127,24245
64678,24245
Z" /> 
<path style="fill:#000000; fill-opacity:1.0; 
stroke:#000000; stroke-width:0; stroke-opacity:1; 
stroke-linecap:round; stroke-linejoin:round;fill-rule:evenodd;"
d="M 66410,24245
66410,25505
65859,25505
65859,24245
66410,24245
Z" /> 
<path style="fill:#000000; fill-opacity:1.0; 
stroke:#000000; stroke-width:0; stroke-opacity:1; 
stroke-linecap:round; stroke-linejoin:round;fill-rule:evenodd;"
d="M 67512,23930
67512,25032
66567,25032
66567,23930
67512,23930
Z" /> 
<path style="fill:#000000; fill-opacity:1.0; 
stroke:#000000; stroke-width:0; stroke-opacity:1; 
stroke-linecap:round; stroke-linejoin:round;fill-rule:evenodd;"
d="M 56174,23930
56174,25032
54914,25032
54914,23930
56174,23930
Z" /> 
<path style="fill:#000000; fill-opacity:1.0; 
stroke:#000000; stroke-width:0; stroke-opacity:1; 
stroke-linecap:round; stroke-linejoin:round;fill-rule:evenodd;"
d="M 67512,16056
67512,17788
66567,17788
66567,16056
67512,16056
Z" /> 
<path style="fill:#000000; fill-opacity:1.0; 
stroke:#000000; stroke-width:0; stroke-opacity:1; 
stroke-linecap:round; stroke-linejoin:round;fill-rule:evenodd;"
d="M 55308,16056
55308,17788
54363,17788
54363,16056
55308,16056
Z" /> 
</g>
<g >
</g>
<g >
</g>
<g >
</g>
<g >
</g>
<g >
</g>
<g >
</g>
<g >
<path style="fill:#000000; fill-opacity:1.0; 
stroke:#000000; stroke-width:0; stroke-opacity:1; 
stroke-linecap:round; stroke-linejoin:round;fill-rule:evenodd;"
d="M 35567,28382
32575,28382
32575,26807
35567,26807
35567,28382
Z" /> 
<path style="fill:#000000; fill-opacity:1.0; 
stroke:#000000; stroke-width:0; stroke-opacity:1; 
stroke-linecap:round; stroke-linejoin:round;fill-rule:evenodd;"
d="M 34662,33343
33481,33343
33481,31768
34662,31768
34662,33343
Z" /> 
<path style="fill:#000000; fill-opacity:1.0; 
stroke:#000000; stroke-width:0; stroke-opacity:1; 
stroke-linecap:round; stroke-linejoin:round;fill-rule:evenodd;"
d="M 36473,33343
35292,33343
35292,31768
36473,31768
36473,33343
Z" /> 
<path style="fill:#000000; fill-opacity:1.0; 
stroke:#000000; stroke-width:0; stroke-opacity:1; 
stroke-linecap:round; stroke-linejoin:round;fill-rule:evenodd;"
d="M 32851,33343
31670,33343
31670,31768
32851,31768
32851,33343
Z" /> 
</g>
<g >
</g>
<g >
<path style="fill:#000000; fill-opacity:1.0; 
stroke:#000000; stroke-width:0; stroke-opacity:1; 
stroke-linecap:round; stroke-linejoin:round;fill-rule:evenodd;"
d="M 41220,18019
41220,18531
40260,18531
40260,18019
41220,18019
Z" /> 
<path style="fill:#000000; fill-opacity:1.0; 
stroke:#000000; stroke-width:0; stroke-opacity:1; 
stroke-linecap:round; stroke-linejoin:round;fill-rule:evenodd;"
d="M 43283,17271
43283,17783
42323,17783
42323,17271
43283,17271
Z" /> 
<path style="fill:#000000; fill-opacity:1.0; 
stroke:#000000; stroke-width:0; stroke-opacity:1; 
stroke-linecap:round; stroke-linejoin:round;fill-rule:evenodd;"
d="M 43283,18767
43283,19279
42323,19279
42323,18767
43283,18767
Z" /> 
</g>
<g >
</g>
<g >
</g>
<g >
</g>
<g >
<path style="fill:#000000; fill-opacity:1.0; 
stroke:#000000; stroke-width:0; stroke-opacity:1; 
stroke-linecap:round; stroke-linejoin:round;fill-rule:evenodd;"
d="M 37749,21821
37394,21821
37394,21349
37749,21349
37749,21821
Z" /> 
<path style="fill:#000000; fill-opacity:1.0; 
stroke:#000000; stroke-width:0; stroke-opacity:1; 
stroke-linecap:round; stroke-linejoin:round;fill-rule:evenodd;"
d="M 37749,23475
37394,23475
37394,23002
37749,23002
37749,23475
Z" /> 
</g>
<g >
<path style="fill:#000000; fill-opacity:1.0; 
stroke:#000000; stroke-width:0; stroke-opacity:1; 
stroke-linecap:round; stroke-linejoin:round;fill-rule:evenodd;"
d="M 74944,26130
73999,26130
73999,25421
74944,25421
74944,26130
Z" /> 
<path style="fill:#000000; fill-opacity:1.0; 
stroke:#000000; stroke-width:0; stroke-opacity:1; 
stroke-linecap:round; stroke-linejoin:round;fill-rule:evenodd;"
d="M 74944,28728
73999,28728
73999,28020
74944,28020
74944,28728
Z" /> 
</g>
<g >
<path style="fill:#000000; fill-opacity:1.0; 
stroke:#000000; stroke-width:0; stroke-opacity:1; 
stroke-linecap:round; stroke-linejoin:round;fill-rule:evenodd;"
d="M 72044,26130
71099,26130
71099,25421
72044,25421
72044,26130
Z" /> 
<path style="fill:#000000; fill-opacity:1.0; 
stroke:#000000; stroke-width:0; stroke-opacity:1; 
stroke-linecap:round; stroke-linejoin:round;fill-rule:evenodd;"
d="M 72044,28728
71099,28728
71099,28020
72044,28020
72044,28728
Z" /> 
</g>
<g >
<path style="fill:#000000; fill-opacity:1.0; 
stroke:#000000; stroke-width:0; stroke-opacity:1; 
stroke-linecap:round; stroke-linejoin:round;fill-rule:evenodd;"
d="M 69324,26130
68379,26130
68379,25421
69324,25421
69324,26130
Z" /> 
<path style="fill:#000000; fill-opacity:1.0; 
stroke:#000000; stroke-width:0; stroke-opacity:1; 
stroke-linecap:round; stroke-linejoin:round;fill-rule:evenodd;"
d="M 69324,28728
68379,28728
68379,28020
69324,28020
69324,28728
Z" /> 
</g>
<g >
<path style="fill:#000000; fill-opacity:1.0; 
stroke:#000000; stroke-width:0; stroke-opacity:1; 
stroke-linecap:round; stroke-linejoin:round;fill-rule:evenodd;"
d="M 36020,43025
36039,43027
36057,43032
36075,43038
36092,43046
36108,43056
36123,43067
36137,43080
36150,43094
36161,43109
36171,43125
36179,43142
36185,43160
36190,43178
36193,43197
36193,43216
36193,43934
36193,43953
36190,43972
36185,43990
36179,44008
36171,44025
36161,44041
36150,44056
36137,44070
36123,44083
36108,44094
36092,44103
36075,44112
36057,44118
36039,44122
36020,44125
36002,44126
35618,44126
35599,44125
35580,44122
35562,44118
35544,44112
35527,44103
35511,44094
35496,44083
35482,44070
35469,44056
35458,44041
35448,44025
35440,44008
35434,43990
35429,43972
35427,43953
35426,43934
35426,43216
35427,43197
35429,43178
35434,43160
35440,43142
35448,43125
35458,43109
35469,43094
35482,43080
35496,43067
35511,43056
35527,43046
35544,43038
35562,43032
35580,43027
35599,43025
35618,43024
36002,43024
36020,43025
Z" /> 
<path style="fill:#000000; fill-opacity:1.0; 
stroke:#000000; stroke-width:0; stroke-opacity:1; 
stroke-linecap:round; stroke-linejoin:round;fill-rule:evenodd;"
d="M 34544,43025
34563,43027
34581,43032
34599,43038
34616,43046
34632,43056
34647,43067
34661,43080
34673,43094
34685,43109
34694,43125
34702,43142
34709,43160
34713,43178
34716,43197
34717,43216
34717,43934
34716,43953
34713,43972
34709,43990
34702,44008
34694,44025
34685,44041
34673,44056
34661,44070
34647,44083
34632,44094
34616,44103
34599,44112
34581,44118
34563,44122
34544,44125
34525,44126
34141,44126
34122,44125
34104,44122
34086,44118
34068,44112
34051,44103
34035,44094
34020,44083
34006,44070
33993,44056
33982,44041
33972,44025
33964,44008
33958,43990
33953,43972
33950,43953
33949,43934
33949,43216
33950,43197
33953,43178
33958,43160
33964,43142
33972,43125
33982,43109
33993,43094
34006,43080
34020,43067
34035,43056
34051,43046
34068,43038
34086,43032
34104,43027
34122,43025
34141,43024
34525,43024
34544,43025
Z" /> 
</g>
<g >
<path style="fill:#000000; fill-opacity:1.0; 
stroke:#000000; stroke-width:0; stroke-opacity:1; 
stroke-linecap:round; stroke-linejoin:round;fill-rule:evenodd;"
d="M 36020,41275
36039,41277
36057,41282
36075,41288
36092,41296
36108,41306
36123,41317
36137,41330
36150,41344
36161,41359
36171,41375
36179,41392
36185,41410
36190,41428
36193,41447
36193,41466
36193,42184
36193,42203
36190,42222
36185,42240
36179,42258
36171,42275
36161,42291
36150,42306
36137,42320
36123,42333
36108,42344
36092,42353
36075,42362
36057,42368
36039,42372
36020,42375
36002,42376
35618,42376
35599,42375
35580,42372
35562,42368
35544,42362
35527,42353
35511,42344
35496,42333
35482,42320
35469,42306
35458,42291
35448,42275
35440,42258
35434,42240
35429,42222
35427,42203
35426,42184
35426,41466
35427,41447
35429,41428
35434,41410
35440,41392
35448,41375
35458,41359
35469,41344
35482,41330
35496,41317
35511,41306
35527,41296
35544,41288
35562,41282
35580,41277
35599,41275
35618,41274
36002,41274
36020,41275
Z" /> 
<path style="fill:#000000; fill-opacity:1.0; 
stroke:#000000; stroke-width:0; stroke-opacity:1; 
stroke-linecap:round; stroke-linejoin:round;fill-rule:evenodd;"
d="M 34544,41275
34563,41277
34581,41282
34599,41288
34616,41296
34632,41306
34647,41317
34661,41330
34673,41344
34685,41359
34694,41375
34702,41392
34709,41410
34713,41428
34716,41447
34717,41466
34717,42184
34716,42203
34713,42222
34709,42240
34702,42258
34694,42275
34685,42291
34673,42306
34661,42320
34647,42333
34632,42344
34616,42353
34599,42362
34581,42368
34563,42372
34544,42375
34525,42376
34141,42376
34122,42375
34104,42372
34086,42368
34068,42362
34051,42353
34035,42344
34020,42333
34006,42320
33993,42306
33982,42291
33972,42275
33964,42258
33958,42240
33953,42222
33950,42203
33949,42184
33949,41466
33950,41447
33953,41428
33958,41410
33964,41392
33972,41375
33982,41359
33993,41344
34006,41330
34020,41317
34035,41306
34051,41296
34068,41288
34086,41282
34104,41277
34122,41275
34141,41274
34525,41274
34544,41275
Z" /> 
</g>
<g >
<path style="fill:#000000; fill-opacity:1.0; 
stroke:#000000; stroke-width:0; stroke-opacity:1; 
stroke-linecap:round; stroke-linejoin:round;fill-rule:evenodd;"
d="M 52049,44030
52068,44033
52086,44038
52104,44044
52121,44052
52137,44062
52152,44073
52166,44085
52179,44099
52190,44115
52200,44131
52208,44148
52214,44165
52219,44184
52222,44202
52223,44221
52223,44605
52222,44624
52219,44642
52214,44661
52208,44678
52200,44696
52190,44712
52179,44727
52166,44741
52152,44753
52137,44765
52121,44774
52104,44782
52086,44789
52068,44793
52049,44796
52031,44797
51312,44797
51293,44796
51275,44793
51256,44789
51239,44782
51222,44774
51206,44765
51190,44753
51176,44741
51164,44727
51153,44712
51143,44696
51135,44678
51128,44661
51124,44642
51121,44624
51120,44605
51120,44221
51121,44202
51124,44184
51128,44165
51135,44148
51143,44131
51153,44115
51164,44099
51176,44085
51190,44073
51206,44062
51222,44052
51239,44044
51256,44038
51275,44033
51293,44030
51312,44029
52031,44029
52049,44030
Z" /> 
<path style="fill:#000000; fill-opacity:1.0; 
stroke:#000000; stroke-width:0; stroke-opacity:1; 
stroke-linecap:round; stroke-linejoin:round;fill-rule:evenodd;"
d="M 52049,42554
52068,42557
52086,42561
52104,42567
52121,42576
52137,42585
52152,42596
52166,42609
52179,42623
52190,42638
52200,42654
52208,42671
52214,42689
52219,42707
52222,42726
52223,42745
52223,43129
52222,43147
52219,43166
52214,43184
52208,43202
52200,43219
52190,43235
52179,43250
52166,43264
52152,43277
52137,43288
52121,43298
52104,43306
52086,43312
52068,43317
52049,43320
52031,43321
51312,43321
51293,43320
51275,43317
51256,43312
51239,43306
51222,43298
51206,43288
51190,43277
51176,43264
51164,43250
51153,43235
51143,43219
51135,43202
51128,43184
51124,43166
51121,43147
51120,43129
51120,42745
51121,42726
51124,42707
51128,42689
51135,42671
51143,42654
51153,42638
51164,42623
51176,42609
51190,42596
51206,42585
51222,42576
51239,42567
51256,42561
51275,42557
51293,42554
51312,42553
52031,42553
52049,42554
Z" /> 
</g>
<g >
<path style="fill:#000000; fill-opacity:1.0; 
stroke:#000000; stroke-width:0; stroke-opacity:1; 
stroke-linecap:round; stroke-linejoin:round;fill-rule:evenodd;"
d="M 39149,17154
39168,17157
39186,17161
39204,17167
39221,17176
39237,17185
39252,17196
39266,17209
39279,17223
39290,17238
39300,17254
39308,17271
39314,17289
39319,17307
39322,17326
39323,17345
39323,17729
39322,17747
39319,17766
39314,17784
39308,17802
39300,17819
39290,17835
39279,17850
39266,17864
39252,17877
39237,17888
39221,17898
39204,17906
39186,17912
39168,17917
39149,17920
39131,17921
38412,17921
38393,17920
38375,17917
38356,17912
38339,17906
38322,17898
38306,17888
38290,17877
38276,17864
38264,17850
38253,17835
38243,17819
38235,17802
38228,17784
38224,17766
38221,17747
38220,17729
38220,17345
38221,17326
38224,17307
38228,17289
38235,17271
38243,17254
38253,17238
38264,17223
38276,17209
38290,17196
38306,17185
38322,17176
38339,17167
38356,17161
38375,17157
38393,17154
38412,17153
39131,17153
39149,17154
Z" /> 
<path style="fill:#000000; fill-opacity:1.0; 
stroke:#000000; stroke-width:0; stroke-opacity:1; 
stroke-linecap:round; stroke-linejoin:round;fill-rule:evenodd;"
d="M 39149,18630
39168,18633
39186,18638
39204,18644
39221,18652
39237,18662
39252,18673
39266,18685
39279,18699
39290,18715
39300,18731
39308,18748
39314,18765
39319,18784
39322,18802
39323,18821
39323,19205
39322,19224
39319,19242
39314,19261
39308,19278
39300,19296
39290,19312
39279,19327
39266,19341
39252,19353
39237,19365
39221,19374
39204,19382
39186,19389
39168,19393
39149,19396
39131,19397
38412,19397
38393,19396
38375,19393
38356,19389
38339,19382
38322,19374
38306,19365
38290,19353
38276,19341
38264,19327
38253,19312
38243,19296
38235,19278
38228,19261
38224,19242
38221,19224
38220,19205
38220,18821
38221,18802
38224,18784
38228,18765
38235,18748
38243,18731
38253,18715
38264,18699
38276,18685
38290,18673
38306,18662
38322,18652
38339,18644
38356,18638
38375,18633
38393,18630
38412,18629
39131,18629
39149,18630
Z" /> 
</g>
<g >
<path style="fill:#000000; fill-opacity:1.0; 
stroke:#000000; stroke-width:0; stroke-opacity:1; 
stroke-linecap:round; stroke-linejoin:round;fill-rule:evenodd;"
d="M 67449,30254
67468,30257
67486,30261
67504,30267
67521,30276
67537,30285
67552,30296
67566,30309
67579,30323
67590,30338
67600,30354
67608,30371
67614,30389
67619,30407
67622,30426
67623,30445
67623,30829
67622,30847
67619,30866
67614,30884
67608,30902
67600,30919
67590,30935
67579,30950
67566,30964
67552,30977
67537,30988
67521,30998
67504,31006
67486,31012
67468,31017
67449,31020
67431,31021
66712,31021
66693,31020
66675,31017
66656,31012
66639,31006
66622,30998
66606,30988
66590,30977
66576,30964
66564,30950
66553,30935
66543,30919
66535,30902
66528,30884
66524,30866
66521,30847
66520,30829
66520,30445
66521,30426
66524,30407
66528,30389
66535,30371
66543,30354
66553,30338
66564,30323
66576,30309
66590,30296
66606,30285
66622,30276
66639,30267
66656,30261
66675,30257
66693,30254
66712,30253
67431,30253
67449,30254
Z" /> 
<path style="fill:#000000; fill-opacity:1.0; 
stroke:#000000; stroke-width:0; stroke-opacity:1; 
stroke-linecap:round; stroke-linejoin:round;fill-rule:evenodd;"
d="M 67449,31730
67468,31733
67486,31738
67504,31744
67521,31752
67537,31762
67552,31773
67566,31785
67579,31799
67590,31815
67600,31831
67608,31848
67614,31865
67619,31884
67622,31902
67623,31921
67623,32305
67622,32324
67619,32342
67614,32361
67608,32378
67600,32396
67590,32412
67579,32427
67566,32441
67552,32453
67537,32465
67521,32474
67504,32482
67486,32489
67468,32493
67449,32496
67431,32497
66712,32497
66693,32496
66675,32493
66656,32489
66639,32482
66622,32474
66606,32465
66590,32453
66576,32441
66564,32427
66553,32412
66543,32396
66535,32378
66528,32361
66524,32342
66521,32324
66520,32305
66520,31921
66521,31902
66524,31884
66528,31865
66535,31848
66543,31831
66553,31815
66564,31799
66576,31785
66590,31773
66606,31762
66622,31752
66639,31744
66656,31738
66675,31733
66693,31730
66712,31729
67431,31729
67449,31730
Z" /> 
</g>
<g >
<path style="fill:#000000; fill-opacity:1.0; 
stroke:#000000; stroke-width:0; stroke-opacity:1; 
stroke-linecap:round; stroke-linejoin:round;fill-rule:evenodd;"
d="M 63749,26254
63768,26257
63786,26261
63804,26267
63821,26276
63837,26285
63852,26296
63866,26309
63879,26323
63890,26338
63900,26354
63908,26371
63914,26389
63919,26407
63922,26426
63923,26445
63923,26829
63922,26847
63919,26866
63914,26884
63908,26902
63900,26919
63890,26935
63879,26950
63866,26964
63852,26977
63837,26988
63821,26998
63804,27006
63786,27012
63768,27017
63749,27020
63731,27021
63012,27021
62993,27020
62975,27017
62956,27012
62939,27006
62922,26998
62906,26988
62890,26977
62876,26964
62864,26950
62853,26935
62843,26919
62835,26902
62828,26884
62824,26866
62821,26847
62820,26829
62820,26445
62821,26426
62824,26407
62828,26389
62835,26371
62843,26354
62853,26338
62864,26323
62876,26309
62890,26296
62906,26285
62922,26276
62939,26267
62956,26261
62975,26257
62993,26254
63012,26253
63731,26253
63749,26254
Z" /> 
<path style="fill:#000000; fill-opacity:1.0; 
stroke:#000000; stroke-width:0; stroke-opacity:1; 
stroke-linecap:round; stroke-linejoin:round;fill-rule:evenodd;"
d="M 63749,27730
63768,27733
63786,27738
63804,27744
63821,27752
63837,27762
63852,27773
63866,27785
63879,27799
63890,27815
63900,27831
63908,27848
63914,27865
63919,27884
63922,27902
63923,27921
63923,28305
63922,28324
63919,28342
63914,28361
63908,28378
63900,28396
63890,28412
63879,28427
63866,28441
63852,28453
63837,28465
63821,28474
63804,28482
63786,28489
63768,28493
63749,28496
63731,28497
63012,28497
62993,28496
62975,28493
62956,28489
62939,28482
62922,28474
62906,28465
62890,28453
62876,28441
62864,28427
62853,28412
62843,28396
62835,28378
62828,28361
62824,28342
62821,28324
62820,28305
62820,27921
62821,27902
62824,27884
62828,27865
62835,27848
62843,27831
62853,27815
62864,27799
62876,27785
62890,27773
62906,27762
62922,27752
62939,27744
62956,27738
62975,27733
62993,27730
63012,27729
63731,27729
63749,27730
Z" /> 
</g>
<g >
<path style="fill:#000000; fill-opacity:1.0; 
stroke:#000000; stroke-width:0; stroke-opacity:1; 
stroke-linecap:round; stroke-linejoin:round;fill-rule:evenodd;"
d="M 69849,30254
69868,30257
69886,30261
69904,30267
69921,30276
69937,30285
69952,30296
69966,30309
69979,30323
69990,30338
70000,30354
70008,30371
70014,30389
70019,30407
70022,30426
70023,30445
70023,30829
70022,30847
70019,30866
70014,30884
70008,30902
70000,30919
69990,30935
69979,30950
69966,30964
69952,30977
69937,30988
69921,30998
69904,31006
69886,31012
69868,31017
69849,31020
69831,31021
69112,31021
69093,31020
69075,31017
69056,31012
69039,31006
69022,30998
69006,30988
68990,30977
68976,30964
68964,30950
68953,30935
68943,30919
68935,30902
68928,30884
68924,30866
68921,30847
68920,30829
68920,30445
68921,30426
68924,30407
68928,30389
68935,30371
68943,30354
68953,30338
68964,30323
68976,30309
68990,30296
69006,30285
69022,30276
69039,30267
69056,30261
69075,30257
69093,30254
69112,30253
69831,30253
69849,30254
Z" /> 
<path style="fill:#000000; fill-opacity:1.0; 
stroke:#000000; stroke-width:0; stroke-opacity:1; 
stroke-linecap:round; stroke-linejoin:round;fill-rule:evenodd;"
d="M 69849,31730
69868,31733
69886,31738
69904,31744
69921,31752
69937,31762
69952,31773
69966,31785
69979,31799
69990,31815
70000,31831
70008,31848
70014,31865
70019,31884
70022,31902
70023,31921
70023,32305
70022,32324
70019,32342
70014,32361
70008,32378
70000,32396
69990,32412
69979,32427
69966,32441
69952,32453
69937,32465
69921,32474
69904,32482
69886,32489
69868,32493
69849,32496
69831,32497
69112,32497
69093,32496
69075,32493
69056,32489
69039,32482
69022,32474
69006,32465
68990,32453
68976,32441
68964,32427
68953,32412
68943,32396
68935,32378
68928,32361
68924,32342
68921,32324
68920,32305
68920,31921
68921,31902
68924,31884
68928,31865
68935,31848
68943,31831
68953,31815
68964,31799
68976,31785
68990,31773
69006,31762
69022,31752
69039,31744
69056,31738
69075,31733
69093,31730
69112,31729
69831,31729
69849,31730
Z" /> 
</g>
<g >
<path style="fill:#000000; fill-opacity:1.0; 
stroke:#000000; stroke-width:0; stroke-opacity:1; 
stroke-linecap:round; stroke-linejoin:round;fill-rule:evenodd;"
d="M 31420,36325
31439,36327
31457,36332
31475,36338
31492,36346
31508,36356
31523,36367
31537,36380
31550,36394
31561,36409
31571,36425
31579,36442
31585,36460
31590,36478
31593,36497
31593,36516
31593,37234
31593,37253
31590,37272
31585,37290
31579,37308
31571,37325
31561,37341
31550,37356
31537,37370
31523,37383
31508,37394
31492,37403
31475,37412
31457,37418
31439,37422
31420,37425
31402,37426
31018,37426
30999,37425
30980,37422
30962,37418
30944,37412
30927,37403
30911,37394
30896,37383
30882,37370
30869,37356
30858,37341
30848,37325
30840,37308
30834,37290
30829,37272
30827,37253
30826,37234
30826,36516
30827,36497
30829,36478
30834,36460
30840,36442
30848,36425
30858,36409
30869,36394
30882,36380
30896,36367
30911,36356
30927,36346
30944,36338
30962,36332
30980,36327
30999,36325
31018,36324
31402,36324
31420,36325
Z" /> 
<path style="fill:#000000; fill-opacity:1.0; 
stroke:#000000; stroke-width:0; stroke-opacity:1; 
stroke-linecap:round; stroke-linejoin:round;fill-rule:evenodd;"
d="M 29944,36325
29963,36327
29981,36332
29999,36338
30016,36346
30032,36356
30047,36367
30061,36380
30073,36394
30085,36409
30094,36425
30102,36442
30109,36460
30113,36478
30116,36497
30117,36516
30117,37234
30116,37253
30113,37272
30109,37290
30102,37308
30094,37325
30085,37341
30073,37356
30061,37370
30047,37383
30032,37394
30016,37403
29999,37412
29981,37418
29963,37422
29944,37425
29925,37426
29541,37426
29522,37425
29504,37422
29486,37418
29468,37412
29451,37403
29435,37394
29420,37383
29406,37370
29393,37356
29382,37341
29372,37325
29364,37308
29358,37290
29353,37272
29350,37253
29349,37234
29349,36516
29350,36497
29353,36478
29358,36460
29364,36442
29372,36425
29382,36409
29393,36394
29406,36380
29420,36367
29435,36356
29451,36346
29468,36338
29486,36332
29504,36327
29522,36325
29541,36324
29925,36324
29944,36325
Z" /> 
</g>
<g >
<path style="fill:#000000; fill-opacity:1.0; 
stroke:#000000; stroke-width:0; stroke-opacity:1; 
stroke-linecap:round; stroke-linejoin:round;fill-rule:evenodd;"
d="M 62549,64254
62568,64257
62586,64261
62604,64267
62621,64276
62637,64285
62652,64296
62666,64309
62679,64323
62690,64338
62700,64354
62708,64371
62714,64389
62719,64407
62722,64426
62723,64445
62723,64829
62722,64847
62719,64866
62714,64884
62708,64902
62700,64919
62690,64935
62679,64950
62666,64964
62652,64977
62637,64988
62621,64998
62604,65006
62586,65012
62568,65017
62549,65020
62531,65021
61812,65021
61793,65020
61775,65017
61756,65012
61739,65006
61722,64998
61706,64988
61690,64977
61676,64964
61664,64950
61653,64935
61643,64919
61635,64902
61628,64884
61624,64866
61621,64847
61620,64829
61620,64445
61621,64426
61624,64407
61628,64389
61635,64371
61643,64354
61653,64338
61664,64323
61676,64309
61690,64296
61706,64285
61722,64276
61739,64267
61756,64261
61775,64257
61793,64254
61812,64253
62531,64253
62549,64254
Z" /> 
<path style="fill:#000000; fill-opacity:1.0; 
stroke:#000000; stroke-width:0; stroke-opacity:1; 
stroke-linecap:round; stroke-linejoin:round;fill-rule:evenodd;"
d="M 62549,65730
62568,65733
62586,65738
62604,65744
62621,65752
62637,65762
62652,65773
62666,65785
62679,65799
62690,65815
62700,65831
62708,65848
62714,65865
62719,65884
62722,65902
62723,65921
62723,66305
62722,66324
62719,66342
62714,66361
62708,66378
62700,66396
62690,66412
62679,66427
62666,66441
62652,66453
62637,66465
62621,66474
62604,66482
62586,66489
62568,66493
62549,66496
62531,66497
61812,66497
61793,66496
61775,66493
61756,66489
61739,66482
61722,66474
61706,66465
61690,66453
61676,66441
61664,66427
61653,66412
61643,66396
61635,66378
61628,66361
61624,66342
61621,66324
61620,66305
61620,65921
61621,65902
61624,65884
61628,65865
61635,65848
61643,65831
61653,65815
61664,65799
61676,65785
61690,65773
61706,65762
61722,65752
61739,65744
61756,65738
61775,65733
61793,65730
61812,65729
62531,65729
62549,65730
Z" /> 
</g>
<g >
<path style="fill:#000000; fill-opacity:1.0; 
stroke:#000000; stroke-width:0; stroke-opacity:1; 
stroke-linecap:round; stroke-linejoin:round;fill-rule:evenodd;"
d="M 74549,65730
74568,65733
74586,65738
74604,65744
74621,65752
74637,65762
74652,65773
74666,65785
74679,65799
74690,65815
74700,65831
74708,65848
74714,65865
74719,65884
74722,65902
74723,65921
74723,66305
74722,66324
74719,66342
74714,66361
74708,66378
74700,66396
74690,66412
74679,66427
74666,66441
74652,66453
74637,66465
74621,66474
74604,66482
74586,66489
74568,66493
74549,66496
74531,66497
73812,66497
73793,66496
73775,66493
73756,66489
73739,66482
73722,66474
73706,66465
73690,66453
73676,66441
73664,66427
73653,66412
73643,66396
73635,66378
73628,66361
73624,66342
73621,66324
73620,66305
73620,65921
73621,65902
73624,65884
73628,65865
73635,65848
73643,65831
73653,65815
73664,65799
73676,65785
73690,65773
73706,65762
73722,65752
73739,65744
73756,65738
73775,65733
73793,65730
73812,65729
74531,65729
74549,65730
Z" /> 
<path style="fill:#000000; fill-opacity:1.0; 
stroke:#000000; stroke-width:0; stroke-opacity:1; 
stroke-linecap:round; stroke-linejoin:round;fill-rule:evenodd;"
d="M 74549,64254
74568,64257
74586,64261
74604,64267
74621,64276
74637,64285
74652,64296
74666,64309
74679,64323
74690,64338
74700,64354
74708,64371
74714,64389
74719,64407
74722,64426
74723,64445
74723,64829
74722,64847
74719,64866
74714,64884
74708,64902
74700,64919
74690,64935
74679,64950
74666,64964
74652,64977
74637,64988
74621,64998
74604,65006
74586,65012
74568,65017
74549,65020
74531,65021
73812,65021
73793,65020
73775,65017
73756,65012
73739,65006
73722,64998
73706,64988
73690,64977
73676,64964
73664,64950
73653,64935
73643,64919
73635,64902
73628,64884
73624,64866
73621,64847
73620,64829
73620,64445
73621,64426
73624,64407
73628,64389
73635,64371
73643,64354
73653,64338
73664,64323
73676,64309
73690,64296
73706,64285
73722,64276
73739,64267
73756,64261
73775,64257
73793,64254
73812,64253
74531,64253
74549,64254
Z" /> 
</g>
<g >
<path style="fill:#000000; fill-opacity:1.0; 
stroke:#000000; stroke-width:0; stroke-opacity:1; 
stroke-linecap:round; stroke-linejoin:round;fill-rule:evenodd;"
d="M 34549,64214
34568,64217
34586,64221
34604,64227
34621,64236
34637,64245
34652,64256
34666,64269
34679,64283
34690,64298
34700,64314
34708,64331
34714,64349
34719,64367
34722,64386
34723,64405
34723,64789
34722,64807
34719,64826
34714,64844
34708,64862
34700,64879
34690,64895
34679,64910
34666,64924
34652,64937
34637,64948
34621,64958
34604,64966
34586,64972
34568,64977
34549,64980
34531,64981
33812,64981
33793,64980
33775,64977
33756,64972
33739,64966
33722,64958
33706,64948
33690,64937
33676,64924
33664,64910
33653,64895
33643,64879
33635,64862
33628,64844
33624,64826
33621,64807
33620,64789
33620,64405
33621,64386
33624,64367
33628,64349
33635,64331
33643,64314
33653,64298
33664,64283
33676,64269
33690,64256
33706,64245
33722,64236
33739,64227
33756,64221
33775,64217
33793,64214
33812,64213
34531,64213
34549,64214
Z" /> 
<path style="fill:#000000; fill-opacity:1.0; 
stroke:#000000; stroke-width:0; stroke-opacity:1; 
stroke-linecap:round; stroke-linejoin:round;fill-rule:evenodd;"
d="M 34549,65690
34568,65693
34586,65698
34604,65704
34621,65712
34637,65722
34652,65733
34666,65745
34679,65759
34690,65775
34700,65791
34708,65808
34714,65825
34719,65844
34722,65862
34723,65881
34723,66265
34722,66284
34719,66302
34714,66321
34708,66338
34700,66356
34690,66372
34679,66387
34666,66401
34652,66413
34637,66425
34621,66434
34604,66442
34586,66449
34568,66453
34549,66456
34531,66457
33812,66457
33793,66456
33775,66453
33756,66449
33739,66442
33722,66434
33706,66425
33690,66413
33676,66401
33664,66387
33653,66372
33643,66356
33635,66338
33628,66321
33624,66302
33621,66284
33620,66265
33620,65881
33621,65862
33624,65844
33628,65825
33635,65808
33643,65791
33653,65775
33664,65759
33676,65745
33690,65733
33706,65722
33722,65712
33739,65704
33756,65698
33775,65693
33793,65690
33812,65689
34531,65689
34549,65690
Z" /> 
</g>
<g >
<path style="fill:#000000; fill-opacity:1.0; 
stroke:#000000; stroke-width:0; stroke-opacity:1; 
stroke-linecap:round; stroke-linejoin:round;fill-rule:evenodd;"
d="M 32589,65690
32608,65693
32626,65698
32644,65704
32661,65712
32677,65722
32692,65733
32706,65745
32719,65759
32730,65775
32740,65791
32748,65808
32754,65825
32759,65844
32762,65862
32763,65881
32763,66265
32762,66284
32759,66302
32754,66321
32748,66338
32740,66356
32730,66372
32719,66387
32706,66401
32692,66413
32677,66425
32661,66434
32644,66442
32626,66449
32608,66453
32589,66456
32571,66457
31852,66457
31833,66456
31815,66453
31796,66449
31779,66442
31762,66434
31746,66425
31730,66413
31716,66401
31704,66387
31693,66372
31683,66356
31675,66338
31668,66321
31664,66302
31661,66284
31660,66265
31660,65881
31661,65862
31664,65844
31668,65825
31675,65808
31683,65791
31693,65775
31704,65759
31716,65745
31730,65733
31746,65722
31762,65712
31779,65704
31796,65698
31815,65693
31833,65690
31852,65689
32571,65689
32589,65690
Z" /> 
<path style="fill:#000000; fill-opacity:1.0; 
stroke:#000000; stroke-width:0; stroke-opacity:1; 
stroke-linecap:round; stroke-linejoin:round;fill-rule:evenodd;"
d="M 32589,64214
32608,64217
32626,64221
32644,64227
32661,64236
32677,64245
32692,64256
32706,64269
32719,64283
32730,64298
32740,64314
32748,64331
32754,64349
32759,64367
32762,64386
32763,64405
32763,64789
32762,64807
32759,64826
32754,64844
32748,64862
32740,64879
32730,64895
32719,64910
32706,64924
32692,64937
32677,64948
32661,64958
32644,64966
32626,64972
32608,64977
32589,64980
32571,64981
31852,64981
31833,64980
31815,64977
31796,64972
31779,64966
31762,64958
31746,64948
31730,64937
31716,64924
31704,64910
31693,64895
31683,64879
31675,64862
31668,64844
31664,64826
31661,64807
31660,64789
31660,64405
31661,64386
31664,64367
31668,64349
31675,64331
31683,64314
31693,64298
31704,64283
31716,64269
31730,64256
31746,64245
31762,64236
31779,64227
31796,64221
31815,64217
31833,64214
31852,64213
32571,64213
32589,64214
Z" /> 
</g>
<g >
<path style="fill:#000000; fill-opacity:1.0; 
stroke:#000000; stroke-width:0; stroke-opacity:1; 
stroke-linecap:round; stroke-linejoin:round;fill-rule:evenodd;"
d="M 39549,65730
39568,65733
39586,65738
39604,65744
39621,65752
39637,65762
39652,65773
39666,65785
39679,65799
39690,65815
39700,65831
39708,65848
39714,65865
39719,65884
39722,65902
39723,65921
39723,66305
39722,66324
39719,66342
39714,66361
39708,66378
39700,66396
39690,66412
39679,66427
39666,66441
39652,66453
39637,66465
39621,66474
39604,66482
39586,66489
39568,66493
39549,66496
39531,66497
38812,66497
38793,66496
38775,66493
38756,66489
38739,66482
38722,66474
38706,66465
38690,66453
38676,66441
38664,66427
38653,66412
38643,66396
38635,66378
38628,66361
38624,66342
38621,66324
38620,66305
38620,65921
38621,65902
38624,65884
38628,65865
38635,65848
38643,65831
38653,65815
38664,65799
38676,65785
38690,65773
38706,65762
38722,65752
38739,65744
38756,65738
38775,65733
38793,65730
38812,65729
39531,65729
39549,65730
Z" /> 
<path style="fill:#000000; fill-opacity:1.0; 
stroke:#000000; stroke-width:0; stroke-opacity:1; 
stroke-linecap:round; stroke-linejoin:round;fill-rule:evenodd;"
d="M 39549,64254
39568,64257
39586,64261
39604,64267
39621,64276
39637,64285
39652,64296
39666,64309
39679,64323
39690,64338
39700,64354
39708,64371
39714,64389
39719,64407
39722,64426
39723,64445
39723,64829
39722,64847
39719,64866
39714,64884
39708,64902
39700,64919
39690,64935
39679,64950
39666,64964
39652,64977
39637,64988
39621,64998
39604,65006
39586,65012
39568,65017
39549,65020
39531,65021
38812,65021
38793,65020
38775,65017
38756,65012
38739,65006
38722,64998
38706,64988
38690,64977
38676,64964
38664,64950
38653,64935
38643,64919
38635,64902
38628,64884
38624,64866
38621,64847
38620,64829
38620,64445
38621,64426
38624,64407
38628,64389
38635,64371
38643,64354
38653,64338
38664,64323
38676,64309
38690,64296
38706,64285
38722,64276
38739,64267
38756,64261
38775,64257
38793,64254
38812,64253
39531,64253
39549,64254
Z" /> 
</g>
<g >
<path style="fill:#000000; fill-opacity:1.0; 
stroke:#000000; stroke-width:0; stroke-opacity:1; 
stroke-linecap:round; stroke-linejoin:round;fill-rule:evenodd;"
d="M 46549,65730
46568,65733
46586,65738
46604,65744
46621,65752
46637,65762
46652,65773
46666,65785
46679,65799
46690,65815
46700,65831
46708,65848
46714,65865
46719,65884
46722,65902
46723,65921
46723,66305
46722,66324
46719,66342
46714,66361
46708,66378
46700,66396
46690,66412
46679,66427
46666,66441
46652,66453
46637,66465
46621,66474
46604,66482
46586,66489
46568,66493
46549,66496
46531,66497
45812,66497
45793,66496
45775,66493
45756,66489
45739,66482
45722,66474
45706,66465
45690,66453
45676,66441
45664,66427
45653,66412
45643,66396
45635,66378
45628,66361
45624,66342
45621,66324
45620,66305
45620,65921
45621,65902
45624,65884
45628,65865
45635,65848
45643,65831
45653,65815
45664,65799
45676,65785
45690,65773
45706,65762
45722,65752
45739,65744
45756,65738
45775,65733
45793,65730
45812,65729
46531,65729
46549,65730
Z" /> 
<path style="fill:#000000; fill-opacity:1.0; 
stroke:#000000; stroke-width:0; stroke-opacity:1; 
stroke-linecap:round; stroke-linejoin:round;fill-rule:evenodd;"
d="M 46549,64254
46568,64257
46586,64261
46604,64267
46621,64276
46637,64285
46652,64296
46666,64309
46679,64323
46690,64338
46700,64354
46708,64371
46714,64389
46719,64407
46722,64426
46723,64445
46723,64829
46722,64847
46719,64866
46714,64884
46708,64902
46700,64919
46690,64935
46679,64950
46666,64964
46652,64977
46637,64988
46621,64998
46604,65006
46586,65012
46568,65017
46549,65020
46531,65021
45812,65021
45793,65020
45775,65017
45756,65012
45739,65006
45722,64998
45706,64988
45690,64977
45676,64964
45664,64950
45653,64935
45643,64919
45635,64902
45628,64884
45624,64866
45621,64847
45620,64829
45620,64445
45621,64426
45624,64407
45628,64389
45635,64371
45643,64354
45653,64338
45664,64323
45676,64309
45690,64296
45706,64285
45722,64276
45739,64267
45756,64261
45775,64257
45793,64254
45812,64253
46531,64253
46549,64254
Z" /> 
</g>
<g >
<path style="fill:#000000; fill-opacity:1.0; 
stroke:#000000; stroke-width:0; stroke-opacity:1; 
stroke-linecap:round; stroke-linejoin:round;fill-rule:evenodd;"
d="M 53549,65730
53568,65733
53586,65738
53604,65744
53621,65752
53637,65762
53652,65773
53666,65785
53679,65799
53690,65815
53700,65831
53708,65848
53714,65865
53719,65884
53722,65902
53723,65921
53723,66305
53722,66324
53719,66342
53714,66361
53708,66378
53700,66396
53690,66412
53679,66427
53666,66441
53652,66453
53637,66465
53621,66474
53604,66482
53586,66489
53568,66493
53549,66496
53531,66497
52812,66497
52793,66496
52775,66493
52756,66489
52739,66482
52722,66474
52706,66465
52690,66453
52676,66441
52664,66427
52653,66412
52643,66396
52635,66378
52628,66361
52624,66342
52621,66324
52620,66305
52620,65921
52621,65902
52624,65884
52628,65865
52635,65848
52643,65831
52653,65815
52664,65799
52676,65785
52690,65773
52706,65762
52722,65752
52739,65744
52756,65738
52775,65733
52793,65730
52812,65729
53531,65729
53549,65730
Z" /> 
<path style="fill:#000000; fill-opacity:1.0; 
stroke:#000000; stroke-width:0; stroke-opacity:1; 
stroke-linecap:round; stroke-linejoin:round;fill-rule:evenodd;"
d="M 53549,64254
53568,64257
53586,64261
53604,64267
53621,64276
53637,64285
53652,64296
53666,64309
53679,64323
53690,64338
53700,64354
53708,64371
53714,64389
53719,64407
53722,64426
53723,64445
53723,64829
53722,64847
53719,64866
53714,64884
53708,64902
53700,64919
53690,64935
53679,64950
53666,64964
53652,64977
53637,64988
53621,64998
53604,65006
53586,65012
53568,65017
53549,65020
53531,65021
52812,65021
52793,65020
52775,65017
52756,65012
52739,65006
52722,64998
52706,64988
52690,64977
52676,64964
52664,64950
52653,64935
52643,64919
52635,64902
52628,64884
52624,64866
52621,64847
52620,64829
52620,64445
52621,64426
52624,64407
52628,64389
52635,64371
52643,64354
52653,64338
52664,64323
52676,64309
52690,64296
52706,64285
52722,64276
52739,64267
52756,64261
52775,64257
52793,64254
52812,64253
53531,64253
53549,64254
Z" /> 
</g>
<g >
<path style="fill:#000000; fill-opacity:1.0; 
stroke:#000000; stroke-width:0; stroke-opacity:1; 
stroke-linecap:round; stroke-linejoin:round;fill-rule:evenodd;"
d="M 60549,65730
60568,65733
60586,65738
60604,65744
60621,65752
60637,65762
60652,65773
60666,65785
60679,65799
60690,65815
60700,65831
60708,65848
60714,65865
60719,65884
60722,65902
60723,65921
60723,66305
60722,66324
60719,66342
60714,66361
60708,66378
60700,66396
60690,66412
60679,66427
60666,66441
60652,66453
60637,66465
60621,66474
60604,66482
60586,66489
60568,66493
60549,66496
60531,66497
59812,66497
59793,66496
59775,66493
59756,66489
59739,66482
59722,66474
59706,66465
59690,66453
59676,66441
59664,66427
59653,66412
59643,66396
59635,66378
59628,66361
59624,66342
59621,66324
59620,66305
59620,65921
59621,65902
59624,65884
59628,65865
59635,65848
59643,65831
59653,65815
59664,65799
59676,65785
59690,65773
59706,65762
59722,65752
59739,65744
59756,65738
59775,65733
59793,65730
59812,65729
60531,65729
60549,65730
Z" /> 
<path style="fill:#000000; fill-opacity:1.0; 
stroke:#000000; stroke-width:0; stroke-opacity:1; 
stroke-linecap:round; stroke-linejoin:round;fill-rule:evenodd;"
d="M 60549,64254
60568,64257
60586,64261
60604,64267
60621,64276
60637,64285
60652,64296
60666,64309
60679,64323
60690,64338
60700,64354
60708,64371
60714,64389
60719,64407
60722,64426
60723,64445
60723,64829
60722,64847
60719,64866
60714,64884
60708,64902
60700,64919
60690,64935
60679,64950
60666,64964
60652,64977
60637,64988
60621,64998
60604,65006
60586,65012
60568,65017
60549,65020
60531,65021
59812,65021
59793,65020
59775,65017
59756,65012
59739,65006
59722,64998
59706,64988
59690,64977
59676,64964
59664,64950
59653,64935
59643,64919
59635,64902
59628,64884
59624,64866
59621,64847
59620,64829
59620,64445
59621,64426
59624,64407
59628,64389
59635,64371
59643,64354
59653,64338
59664,64323
59676,64309
59690,64296
59706,64285
59722,64276
59739,64267
59756,64261
59775,64257
59793,64254
59812,64253
60531,64253
60549,64254
Z" /> 
</g>
<g >
<path style="fill:#000000; fill-opacity:1.0; 
stroke:#000000; stroke-width:0; stroke-opacity:1; 
stroke-linecap:round; stroke-linejoin:round;fill-rule:evenodd;"
d="M 67549,65730
67568,65733
67586,65738
67604,65744
67621,65752
67637,65762
67652,65773
67666,65785
67679,65799
67690,65815
67700,65831
67708,65848
67714,65865
67719,65884
67722,65902
67723,65921
67723,66305
67722,66324
67719,66342
67714,66361
67708,66378
67700,66396
67690,66412
67679,66427
67666,66441
67652,66453
67637,66465
67621,66474
67604,66482
67586,66489
67568,66493
67549,66496
67531,66497
66812,66497
66793,66496
66775,66493
66756,66489
66739,66482
66722,66474
66706,66465
66690,66453
66676,66441
66664,66427
66653,66412
66643,66396
66635,66378
66628,66361
66624,66342
66621,66324
66620,66305
66620,65921
66621,65902
66624,65884
66628,65865
66635,65848
66643,65831
66653,65815
66664,65799
66676,65785
66690,65773
66706,65762
66722,65752
66739,65744
66756,65738
66775,65733
66793,65730
66812,65729
67531,65729
67549,65730
Z" /> 
<path style="fill:#000000; fill-opacity:1.0; 
stroke:#000000; stroke-width:0; stroke-opacity:1; 
stroke-linecap:round; stroke-linejoin:round;fill-rule:evenodd;"
d="M 67549,64254
67568,64257
67586,64261
67604,64267
67621,64276
67637,64285
67652,64296
67666,64309
67679,64323
67690,64338
67700,64354
67708,64371
67714,64389
67719,64407
67722,64426
67723,64445
67723,64829
67722,64847
67719,64866
67714,64884
67708,64902
67700,64919
67690,64935
67679,64950
67666,64964
67652,64977
67637,64988
67621,64998
67604,65006
67586,65012
67568,65017
67549,65020
67531,65021
66812,65021
66793,65020
66775,65017
66756,65012
66739,65006
66722,64998
66706,64988
66690,64977
66676,64964
66664,64950
66653,64935
66643,64919
66635,64902
66628,64884
66624,64866
66621,64847
66620,64829
66620,64445
66621,64426
66624,64407
66628,64389
66635,64371
66643,64354
66653,64338
66664,64323
66676,64309
66690,64296
66706,64285
66722,64276
66739,64267
66756,64261
66775,64257
66793,64254
66812,64253
67531,64253
67549,64254
Z" /> 
</g>
<g >
<path style="fill:#000000; fill-opacity:1.0; 
stroke:#000000; stroke-width:0; stroke-opacity:1; 
stroke-linecap:round; stroke-linejoin:round;fill-rule:evenodd;"
d="M 81549,65730
81568,65733
81586,65738
81604,65744
81621,65752
81637,65762
81652,65773
81666,65785
81679,65799
81690,65815
81700,65831
81708,65848
81714,65865
81719,65884
81722,65902
81723,65921
81723,66305
81722,66324
81719,66342
81714,66361
81708,66378
81700,66396
81690,66412
81679,66427
81666,66441
81652,66453
81637,66465
81621,66474
81604,66482
81586,66489
81568,66493
81549,66496
81531,66497
80812,66497
80793,66496
80775,66493
80756,66489
80739,66482
80722,66474
80706,66465
80690,66453
80676,66441
80664,66427
80653,66412
80643,66396
80635,66378
80628,66361
80624,66342
80621,66324
80620,66305
80620,65921
80621,65902
80624,65884
80628,65865
80635,65848
80643,65831
80653,65815
80664,65799
80676,65785
80690,65773
80706,65762
80722,65752
80739,65744
80756,65738
80775,65733
80793,65730
80812,65729
81531,65729
81549,65730
Z" /> 
<path style="fill:#000000; fill-opacity:1.0; 
stroke:#000000; stroke-width:0; stroke-opacity:1; 
stroke-linecap:round; stroke-linejoin:round;fill-rule:evenodd;"
d="M 81549,64254
81568,64257
81586,64261
81604,64267
81621,64276
81637,64285
81652,64296
81666,64309
81679,64323
81690,64338
81700,64354
81708,64371
81714,64389
81719,64407
81722,64426
81723,64445
81723,64829
81722,64847
81719,64866
81714,64884
81708,64902
81700,64919
81690,64935
81679,64950
81666,64964
81652,64977
81637,64988
81621,64998
81604,65006
81586,65012
81568,65017
81549,65020
81531,65021
80812,65021
80793,65020
80775,65017
80756,65012
80739,65006
80722,64998
80706,64988
80690,64977
80676,64964
80664,64950
80653,64935
80643,64919
80635,64902
80628,64884
80624,64866
80621,64847
80620,64829
80620,64445
80621,64426
80624,64407
80628,64389
80635,64371
80643,64354
80653,64338
80664,64323
80676,64309
80690,64296
80706,64285
80722,64276
80739,64267
80756,64261
80775,64257
80793,64254
80812,64253
81531,64253
81549,64254
Z" /> 
</g>
<g >
<path style="fill:#000000; fill-opacity:1.0; 
stroke:#000000; stroke-width:0; stroke-opacity:1; 
stroke-linecap:round; stroke-linejoin:round;fill-rule:evenodd;"
d="M 41549,64254
41568,64257
41586,64261
41604,64267
41621,64276
41637,64285
41652,64296
41666,64309
41679,64323
41690,64338
41700,64354
41708,64371
41714,64389
41719,64407
41722,64426
41723,64445
41723,64829
41722,64847
41719,64866
41714,64884
41708,64902
41700,64919
41690,64935
41679,64950
41666,64964
41652,64977
41637,64988
41621,64998
41604,65006
41586,65012
41568,65017
41549,65020
41531,65021
40812,65021
40793,65020
40775,65017
40756,65012
40739,65006
40722,64998
40706,64988
40690,64977
40676,64964
40664,64950
40653,64935
40643,64919
40635,64902
40628,64884
40624,64866
40621,64847
40620,64829
40620,64445
40621,64426
40624,64407
40628,64389
40635,64371
40643,64354
40653,64338
40664,64323
40676,64309
40690,64296
40706,64285
40722,64276
40739,64267
40756,64261
40775,64257
40793,64254
40812,64253
41531,64253
41549,64254
Z" /> 
<path style="fill:#000000; fill-opacity:1.0; 
stroke:#000000; stroke-width:0; stroke-opacity:1; 
stroke-linecap:round; stroke-linejoin:round;fill-rule:evenodd;"
d="M 41549,65730
41568,65733
41586,65738
41604,65744
41621,65752
41637,65762
41652,65773
41666,65785
41679,65799
41690,65815
41700,65831
41708,65848
41714,65865
41719,65884
41722,65902
41723,65921
41723,66305
41722,66324
41719,66342
41714,66361
41708,66378
41700,66396
41690,66412
41679,66427
41666,66441
41652,66453
41637,66465
41621,66474
41604,66482
41586,66489
41568,66493
41549,66496
41531,66497
40812,66497
40793,66496
40775,66493
40756,66489
40739,66482
40722,66474
40706,66465
40690,66453
40676,66441
40664,66427
40653,66412
40643,66396
40635,66378
40628,66361
40624,66342
40621,66324
40620,66305
40620,65921
40621,65902
40624,65884
40628,65865
40635,65848
40643,65831
40653,65815
40664,65799
40676,65785
40690,65773
40706,65762
40722,65752
40739,65744
40756,65738
40775,65733
40793,65730
40812,65729
41531,65729
41549,65730
Z" /> 
</g>
<g >
<path style="fill:#000000; fill-opacity:1.0; 
stroke:#000000; stroke-width:0; stroke-opacity:1; 
stroke-linecap:round; stroke-linejoin:round;fill-rule:evenodd;"
d="M 48549,64254
48568,64257
48586,64261
48604,64267
48621,64276
48637,64285
48652,64296
48666,64309
48679,64323
48690,64338
48700,64354
48708,64371
48714,64389
48719,64407
48722,64426
48723,64445
48723,64829
48722,64847
48719,64866
48714,64884
48708,64902
48700,64919
48690,64935
48679,64950
48666,64964
48652,64977
48637,64988
48621,64998
48604,65006
48586,65012
48568,65017
48549,65020
48531,65021
47812,65021
47793,65020
47775,65017
47756,65012
47739,65006
47722,64998
47706,64988
47690,64977
47676,64964
47664,64950
47653,64935
47643,64919
47635,64902
47628,64884
47624,64866
47621,64847
47620,64829
47620,64445
47621,64426
47624,64407
47628,64389
47635,64371
47643,64354
47653,64338
47664,64323
47676,64309
47690,64296
47706,64285
47722,64276
47739,64267
47756,64261
47775,64257
47793,64254
47812,64253
48531,64253
48549,64254
Z" /> 
<path style="fill:#000000; fill-opacity:1.0; 
stroke:#000000; stroke-width:0; stroke-opacity:1; 
stroke-linecap:round; stroke-linejoin:round;fill-rule:evenodd;"
d="M 48549,65730
48568,65733
48586,65738
48604,65744
48621,65752
48637,65762
48652,65773
48666,65785
48679,65799
48690,65815
48700,65831
48708,65848
48714,65865
48719,65884
48722,65902
48723,65921
48723,66305
48722,66324
48719,66342
48714,66361
48708,66378
48700,66396
48690,66412
48679,66427
48666,66441
48652,66453
48637,66465
48621,66474
48604,66482
48586,66489
48568,66493
48549,66496
48531,66497
47812,66497
47793,66496
47775,66493
47756,66489
47739,66482
47722,66474
47706,66465
47690,66453
47676,66441
47664,66427
47653,66412
47643,66396
47635,66378
47628,66361
47624,66342
47621,66324
47620,66305
47620,65921
47621,65902
47624,65884
47628,65865
47635,65848
47643,65831
47653,65815
47664,65799
47676,65785
47690,65773
47706,65762
47722,65752
47739,65744
47756,65738
47775,65733
47793,65730
47812,65729
48531,65729
48549,65730
Z" /> 
</g>
<g >
<path style="fill:#000000; fill-opacity:1.0; 
stroke:#000000; stroke-width:0; stroke-opacity:1; 
stroke-linecap:round; stroke-linejoin:round;fill-rule:evenodd;"
d="M 55549,64254
55568,64257
55586,64261
55604,64267
55621,64276
55637,64285
55652,64296
55666,64309
55679,64323
55690,64338
55700,64354
55708,64371
55714,64389
55719,64407
55722,64426
55723,64445
55723,64829
55722,64847
55719,64866
55714,64884
55708,64902
55700,64919
55690,64935
55679,64950
55666,64964
55652,64977
55637,64988
55621,64998
55604,65006
55586,65012
55568,65017
55549,65020
55531,65021
54812,65021
54793,65020
54775,65017
54756,65012
54739,65006
54722,64998
54706,64988
54690,64977
54676,64964
54664,64950
54653,64935
54643,64919
54635,64902
54628,64884
54624,64866
54621,64847
54620,64829
54620,64445
54621,64426
54624,64407
54628,64389
54635,64371
54643,64354
54653,64338
54664,64323
54676,64309
54690,64296
54706,64285
54722,64276
54739,64267
54756,64261
54775,64257
54793,64254
54812,64253
55531,64253
55549,64254
Z" /> 
<path style="fill:#000000; fill-opacity:1.0; 
stroke:#000000; stroke-width:0; stroke-opacity:1; 
stroke-linecap:round; stroke-linejoin:round;fill-rule:evenodd;"
d="M 55549,65730
55568,65733
55586,65738
55604,65744
55621,65752
55637,65762
55652,65773
55666,65785
55679,65799
55690,65815
55700,65831
55708,65848
55714,65865
55719,65884
55722,65902
55723,65921
55723,66305
55722,66324
55719,66342
55714,66361
55708,66378
55700,66396
55690,66412
55679,66427
55666,66441
55652,66453
55637,66465
55621,66474
55604,66482
55586,66489
55568,66493
55549,66496
55531,66497
54812,66497
54793,66496
54775,66493
54756,66489
54739,66482
54722,66474
54706,66465
54690,66453
54676,66441
54664,66427
54653,66412
54643,66396
54635,66378
54628,66361
54624,66342
54621,66324
54620,66305
54620,65921
54621,65902
54624,65884
54628,65865
54635,65848
54643,65831
54653,65815
54664,65799
54676,65785
54690,65773
54706,65762
54722,65752
54739,65744
54756,65738
54775,65733
54793,65730
54812,65729
55531,65729
55549,65730
Z" /> 
</g>
<g >
<path style="fill:#000000; fill-opacity:1.0; 
stroke:#000000; stroke-width:0; stroke-opacity:1; 
stroke-linecap:round; stroke-linejoin:round;fill-rule:evenodd;"
d="M 69549,64254
69568,64257
69586,64261
69604,64267
69621,64276
69637,64285
69652,64296
69666,64309
69679,64323
69690,64338
69700,64354
69708,64371
69714,64389
69719,64407
69722,64426
69723,64445
69723,64829
69722,64847
69719,64866
69714,64884
69708,64902
69700,64919
69690,64935
69679,64950
69666,64964
69652,64977
69637,64988
69621,64998
69604,65006
69586,65012
69568,65017
69549,65020
69531,65021
68812,65021
68793,65020
68775,65017
68756,65012
68739,65006
68722,64998
68706,64988
68690,64977
68676,64964
68664,64950
68653,64935
68643,64919
68635,64902
68628,64884
68624,64866
68621,64847
68620,64829
68620,64445
68621,64426
68624,64407
68628,64389
68635,64371
68643,64354
68653,64338
68664,64323
68676,64309
68690,64296
68706,64285
68722,64276
68739,64267
68756,64261
68775,64257
68793,64254
68812,64253
69531,64253
69549,64254
Z" /> 
<path style="fill:#000000; fill-opacity:1.0; 
stroke:#000000; stroke-width:0; stroke-opacity:1; 
stroke-linecap:round; stroke-linejoin:round;fill-rule:evenodd;"
d="M 69549,65730
69568,65733
69586,65738
69604,65744
69621,65752
69637,65762
69652,65773
69666,65785
69679,65799
69690,65815
69700,65831
69708,65848
69714,65865
69719,65884
69722,65902
69723,65921
69723,66305
69722,66324
69719,66342
69714,66361
69708,66378
69700,66396
69690,66412
69679,66427
69666,66441
69652,66453
69637,66465
69621,66474
69604,66482
69586,66489
69568,66493
69549,66496
69531,66497
68812,66497
68793,66496
68775,66493
68756,66489
68739,66482
68722,66474
68706,66465
68690,66453
68676,66441
68664,66427
68653,66412
68643,66396
68635,66378
68628,66361
68624,66342
68621,66324
68620,66305
68620,65921
68621,65902
68624,65884
68628,65865
68635,65848
68643,65831
68653,65815
68664,65799
68676,65785
68690,65773
68706,65762
68722,65752
68739,65744
68756,65738
68775,65733
68793,65730
68812,65729
69531,65729
69549,65730
Z" /> 
</g>
<g >
<path style="fill:#000000; fill-opacity:1.0; 
stroke:#000000; stroke-width:0; stroke-opacity:1; 
stroke-linecap:round; stroke-linejoin:round;fill-rule:evenodd;"
d="M 76549,64254
76568,64257
76586,64261
76604,64267
76621,64276
76637,64285
76652,64296
76666,64309
76679,64323
76690,64338
76700,64354
76708,64371
76714,64389
76719,64407
76722,64426
76723,64445
76723,64829
76722,64847
76719,64866
76714,64884
76708,64902
76700,64919
76690,64935
76679,64950
76666,64964
76652,64977
76637,64988
76621,64998
76604,65006
76586,65012
76568,65017
76549,65020
76531,65021
75812,65021
75793,65020
75775,65017
75756,65012
75739,65006
75722,64998
75706,64988
75690,64977
75676,64964
75664,64950
75653,64935
75643,64919
75635,64902
75628,64884
75624,64866
75621,64847
75620,64829
75620,64445
75621,64426
75624,64407
75628,64389
75635,64371
75643,64354
75653,64338
75664,64323
75676,64309
75690,64296
75706,64285
75722,64276
75739,64267
75756,64261
75775,64257
75793,64254
75812,64253
76531,64253
76549,64254
Z" /> 
<path style="fill:#000000; fill-opacity:1.0; 
stroke:#000000; stroke-width:0; stroke-opacity:1; 
stroke-linecap:round; stroke-linejoin:round;fill-rule:evenodd;"
d="M 76549,65730
76568,65733
76586,65738
76604,65744
76621,65752
76637,65762
76652,65773
76666,65785
76679,65799
76690,65815
76700,65831
76708,65848
76714,65865
76719,65884
76722,65902
76723,65921
76723,66305
76722,66324
76719,66342
76714,66361
76708,66378
76700,66396
76690,66412
76679,66427
76666,66441
76652,66453
76637,66465
76621,66474
76604,66482
76586,66489
76568,66493
76549,66496
76531,66497
75812,66497
75793,66496
75775,66493
75756,66489
75739,66482
75722,66474
75706,66465
75690,66453
75676,66441
75664,66427
75653,66412
75643,66396
75635,66378
75628,66361
75624,66342
75621,66324
75620,66305
75620,65921
75621,65902
75624,65884
75628,65865
75635,65848
75643,65831
75653,65815
75664,65799
75676,65785
75690,65773
75706,65762
75722,65752
75739,65744
75756,65738
75775,65733
75793,65730
75812,65729
76531,65729
76549,65730
Z" /> 
</g>
<g >
<path style="fill:#000000; fill-opacity:1.0; 
stroke:#000000; stroke-width:0; stroke-opacity:1; 
stroke-linecap:round; stroke-linejoin:round;fill-rule:evenodd;"
d="M 83549,64254
83568,64257
83586,64261
83604,64267
83621,64276
83637,64285
83652,64296
83666,64309
83679,64323
83690,64338
83700,64354
83708,64371
83714,64389
83719,64407
83722,64426
83723,64445
83723,64829
83722,64847
83719,64866
83714,64884
83708,64902
83700,64919
83690,64935
83679,64950
83666,64964
83652,64977
83637,64988
83621,64998
83604,65006
83586,65012
83568,65017
83549,65020
83531,65021
82812,65021
82793,65020
82775,65017
82756,65012
82739,65006
82722,64998
82706,64988
82690,64977
82676,64964
82664,64950
82653,64935
82643,64919
82635,64902
82628,64884
82624,64866
82621,64847
82620,64829
82620,64445
82621,64426
82624,64407
82628,64389
82635,64371
82643,64354
82653,64338
82664,64323
82676,64309
82690,64296
82706,64285
82722,64276
82739,64267
82756,64261
82775,64257
82793,64254
82812,64253
83531,64253
83549,64254
Z" /> 
<path style="fill:#000000; fill-opacity:1.0; 
stroke:#000000; stroke-width:0; stroke-opacity:1; 
stroke-linecap:round; stroke-linejoin:round;fill-rule:evenodd;"
d="M 83549,65730
83568,65733
83586,65738
83604,65744
83621,65752
83637,65762
83652,65773
83666,65785
83679,65799
83690,65815
83700,65831
83708,65848
83714,65865
83719,65884
83722,65902
83723,65921
83723,66305
83722,66324
83719,66342
83714,66361
83708,66378
83700,66396
83690,66412
83679,66427
83666,66441
83652,66453
83637,66465
83621,66474
83604,66482
83586,66489
83568,66493
83549,66496
83531,66497
82812,66497
82793,66496
82775,66493
82756,66489
82739,66482
82722,66474
82706,66465
82690,66453
82676,66441
82664,66427
82653,66412
82643,66396
82635,66378
82628,66361
82624,66342
82621,66324
82620,66305
82620,65921
82621,65902
82624,65884
82628,65865
82635,65848
82643,65831
82653,65815
82664,65799
82676,65785
82690,65773
82706,65762
82722,65752
82739,65744
82756,65738
82775,65733
82793,65730
82812,65729
83531,65729
83549,65730
Z" /> 
</g>
<g >
<path style="fill:#000000; fill-opacity:1.0; 
stroke:#000000; stroke-width:0; stroke-opacity:1; 
stroke-linecap:round; stroke-linejoin:round;fill-rule:evenodd;"
d="M 34120,62425
34139,62427
34157,62432
34175,62438
34192,62446
34208,62456
34223,62467
34237,62480
34250,62494
34261,62509
34271,62525
34279,62542
34285,62560
34290,62578
34293,62597
34293,62616
34293,63334
34293,63353
34290,63372
34285,63390
34279,63408
34271,63425
34261,63441
34250,63456
34237,63470
34223,63483
34208,63494
34192,63503
34175,63512
34157,63518
34139,63522
34120,63525
34102,63526
33718,63526
33699,63525
33680,63522
33662,63518
33644,63512
33627,63503
33611,63494
33596,63483
33582,63470
33569,63456
33558,63441
33548,63425
33540,63408
33534,63390
33529,63372
33527,63353
33526,63334
33526,62616
33527,62597
33529,62578
33534,62560
33540,62542
33548,62525
33558,62509
33569,62494
33582,62480
33596,62467
33611,62456
33627,62446
33644,62438
33662,62432
33680,62427
33699,62425
33718,62424
34102,62424
34120,62425
Z" /> 
<path style="fill:#000000; fill-opacity:1.0; 
stroke:#000000; stroke-width:0; stroke-opacity:1; 
stroke-linecap:round; stroke-linejoin:round;fill-rule:evenodd;"
d="M 32644,62425
32663,62427
32681,62432
32699,62438
32716,62446
32732,62456
32747,62467
32761,62480
32773,62494
32785,62509
32794,62525
32802,62542
32809,62560
32813,62578
32816,62597
32817,62616
32817,63334
32816,63353
32813,63372
32809,63390
32802,63408
32794,63425
32785,63441
32773,63456
32761,63470
32747,63483
32732,63494
32716,63503
32699,63512
32681,63518
32663,63522
32644,63525
32625,63526
32241,63526
32222,63525
32204,63522
32186,63518
32168,63512
32151,63503
32135,63494
32120,63483
32106,63470
32093,63456
32082,63441
32072,63425
32064,63408
32058,63390
32053,63372
32050,63353
32049,63334
32049,62616
32050,62597
32053,62578
32058,62560
32064,62542
32072,62525
32082,62509
32093,62494
32106,62480
32120,62467
32135,62456
32151,62446
32168,62438
32186,62432
32204,62427
32222,62425
32241,62424
32625,62424
32644,62425
Z" /> 
</g>
<g >
<path style="fill:#000000; fill-opacity:1.0; 
stroke:#000000; stroke-width:0; stroke-opacity:1; 
stroke-linecap:round; stroke-linejoin:round;fill-rule:evenodd;"
d="M 69120,62425
69139,62427
69157,62432
69175,62438
69192,62446
69208,62456
69223,62467
69237,62480
69250,62494
69261,62509
69271,62525
69279,62542
69285,62560
69290,62578
69293,62597
69293,62616
69293,63334
69293,63353
69290,63372
69285,63390
69279,63408
69271,63425
69261,63441
69250,63456
69237,63470
69223,63483
69208,63494
69192,63503
69175,63512
69157,63518
69139,63522
69120,63525
69102,63526
68718,63526
68699,63525
68680,63522
68662,63518
68644,63512
68627,63503
68611,63494
68596,63483
68582,63470
68569,63456
68558,63441
68548,63425
68540,63408
68534,63390
68529,63372
68527,63353
68526,63334
68526,62616
68527,62597
68529,62578
68534,62560
68540,62542
68548,62525
68558,62509
68569,62494
68582,62480
68596,62467
68611,62456
68627,62446
68644,62438
68662,62432
68680,62427
68699,62425
68718,62424
69102,62424
69120,62425
Z" /> 
<path style="fill:#000000; fill-opacity:1.0; 
stroke:#000000; stroke-width:0; stroke-opacity:1; 
stroke-linecap:round; stroke-linejoin:round;fill-rule:evenodd;"
d="M 67644,62425
67663,62427
67681,62432
67699,62438
67716,62446
67732,62456
67747,62467
67761,62480
67773,62494
67785,62509
67794,62525
67802,62542
67809,62560
67813,62578
67816,62597
67817,62616
67817,63334
67816,63353
67813,63372
67809,63390
67802,63408
67794,63425
67785,63441
67773,63456
67761,63470
67747,63483
67732,63494
67716,63503
67699,63512
67681,63518
67663,63522
67644,63525
67625,63526
67241,63526
67222,63525
67204,63522
67186,63518
67168,63512
67151,63503
67135,63494
67120,63483
67106,63470
67093,63456
67082,63441
67072,63425
67064,63408
67058,63390
67053,63372
67050,63353
67049,63334
67049,62616
67050,62597
67053,62578
67058,62560
67064,62542
67072,62525
67082,62509
67093,62494
67106,62480
67120,62467
67135,62456
67151,62446
67168,62438
67186,62432
67204,62427
67222,62425
67241,62424
67625,62424
67644,62425
Z" /> 
</g>
<g >
<path style="fill:#000000; fill-opacity:1.0; 
stroke:#000000; stroke-width:0; stroke-opacity:1; 
stroke-linecap:round; stroke-linejoin:round;fill-rule:evenodd;"
d="M 62120,62425
62139,62427
62157,62432
62175,62438
62192,62446
62208,62456
62223,62467
62237,62480
62250,62494
62261,62509
62271,62525
62279,62542
62285,62560
62290,62578
62293,62597
62293,62616
62293,63334
62293,63353
62290,63372
62285,63390
62279,63408
62271,63425
62261,63441
62250,63456
62237,63470
62223,63483
62208,63494
62192,63503
62175,63512
62157,63518
62139,63522
62120,63525
62102,63526
61718,63526
61699,63525
61680,63522
61662,63518
61644,63512
61627,63503
61611,63494
61596,63483
61582,63470
61569,63456
61558,63441
61548,63425
61540,63408
61534,63390
61529,63372
61527,63353
61526,63334
61526,62616
61527,62597
61529,62578
61534,62560
61540,62542
61548,62525
61558,62509
61569,62494
61582,62480
61596,62467
61611,62456
61627,62446
61644,62438
61662,62432
61680,62427
61699,62425
61718,62424
62102,62424
62120,62425
Z" /> 
<path style="fill:#000000; fill-opacity:1.0; 
stroke:#000000; stroke-width:0; stroke-opacity:1; 
stroke-linecap:round; stroke-linejoin:round;fill-rule:evenodd;"
d="M 60644,62425
60663,62427
60681,62432
60699,62438
60716,62446
60732,62456
60747,62467
60761,62480
60773,62494
60785,62509
60794,62525
60802,62542
60809,62560
60813,62578
60816,62597
60817,62616
60817,63334
60816,63353
60813,63372
60809,63390
60802,63408
60794,63425
60785,63441
60773,63456
60761,63470
60747,63483
60732,63494
60716,63503
60699,63512
60681,63518
60663,63522
60644,63525
60625,63526
60241,63526
60222,63525
60204,63522
60186,63518
60168,63512
60151,63503
60135,63494
60120,63483
60106,63470
60093,63456
60082,63441
60072,63425
60064,63408
60058,63390
60053,63372
60050,63353
60049,63334
60049,62616
60050,62597
60053,62578
60058,62560
60064,62542
60072,62525
60082,62509
60093,62494
60106,62480
60120,62467
60135,62456
60151,62446
60168,62438
60186,62432
60204,62427
60222,62425
60241,62424
60625,62424
60644,62425
Z" /> 
</g>
<g >
<path style="fill:#000000; fill-opacity:1.0; 
stroke:#000000; stroke-width:0; stroke-opacity:1; 
stroke-linecap:round; stroke-linejoin:round;fill-rule:evenodd;"
d="M 41120,62425
41139,62427
41157,62432
41175,62438
41192,62446
41208,62456
41223,62467
41237,62480
41250,62494
41261,62509
41271,62525
41279,62542
41285,62560
41290,62578
41293,62597
41293,62616
41293,63334
41293,63353
41290,63372
41285,63390
41279,63408
41271,63425
41261,63441
41250,63456
41237,63470
41223,63483
41208,63494
41192,63503
41175,63512
41157,63518
41139,63522
41120,63525
41102,63526
40718,63526
40699,63525
40680,63522
40662,63518
40644,63512
40627,63503
40611,63494
40596,63483
40582,63470
40569,63456
40558,63441
40548,63425
40540,63408
40534,63390
40529,63372
40527,63353
40526,63334
40526,62616
40527,62597
40529,62578
40534,62560
40540,62542
40548,62525
40558,62509
40569,62494
40582,62480
40596,62467
40611,62456
40627,62446
40644,62438
40662,62432
40680,62427
40699,62425
40718,62424
41102,62424
41120,62425
Z" /> 
<path style="fill:#000000; fill-opacity:1.0; 
stroke:#000000; stroke-width:0; stroke-opacity:1; 
stroke-linecap:round; stroke-linejoin:round;fill-rule:evenodd;"
d="M 39644,62425
39663,62427
39681,62432
39699,62438
39716,62446
39732,62456
39747,62467
39761,62480
39773,62494
39785,62509
39794,62525
39802,62542
39809,62560
39813,62578
39816,62597
39817,62616
39817,63334
39816,63353
39813,63372
39809,63390
39802,63408
39794,63425
39785,63441
39773,63456
39761,63470
39747,63483
39732,63494
39716,63503
39699,63512
39681,63518
39663,63522
39644,63525
39625,63526
39241,63526
39222,63525
39204,63522
39186,63518
39168,63512
39151,63503
39135,63494
39120,63483
39106,63470
39093,63456
39082,63441
39072,63425
39064,63408
39058,63390
39053,63372
39050,63353
39049,63334
39049,62616
39050,62597
39053,62578
39058,62560
39064,62542
39072,62525
39082,62509
39093,62494
39106,62480
39120,62467
39135,62456
39151,62446
39168,62438
39186,62432
39204,62427
39222,62425
39241,62424
39625,62424
39644,62425
Z" /> 
</g>
<g >
<path style="fill:#000000; fill-opacity:1.0; 
stroke:#000000; stroke-width:0; stroke-opacity:1; 
stroke-linecap:round; stroke-linejoin:round;fill-rule:evenodd;"
d="M 48120,62425
48139,62427
48157,62432
48175,62438
48192,62446
48208,62456
48223,62467
48237,62480
48250,62494
48261,62509
48271,62525
48279,62542
48285,62560
48290,62578
48293,62597
48293,62616
48293,63334
48293,63353
48290,63372
48285,63390
48279,63408
48271,63425
48261,63441
48250,63456
48237,63470
48223,63483
48208,63494
48192,63503
48175,63512
48157,63518
48139,63522
48120,63525
48102,63526
47718,63526
47699,63525
47680,63522
47662,63518
47644,63512
47627,63503
47611,63494
47596,63483
47582,63470
47569,63456
47558,63441
47548,63425
47540,63408
47534,63390
47529,63372
47527,63353
47526,63334
47526,62616
47527,62597
47529,62578
47534,62560
47540,62542
47548,62525
47558,62509
47569,62494
47582,62480
47596,62467
47611,62456
47627,62446
47644,62438
47662,62432
47680,62427
47699,62425
47718,62424
48102,62424
48120,62425
Z" /> 
<path style="fill:#000000; fill-opacity:1.0; 
stroke:#000000; stroke-width:0; stroke-opacity:1; 
stroke-linecap:round; stroke-linejoin:round;fill-rule:evenodd;"
d="M 46644,62425
46663,62427
46681,62432
46699,62438
46716,62446
46732,62456
46747,62467
46761,62480
46773,62494
46785,62509
46794,62525
46802,62542
46809,62560
46813,62578
46816,62597
46817,62616
46817,63334
46816,63353
46813,63372
46809,63390
46802,63408
46794,63425
46785,63441
46773,63456
46761,63470
46747,63483
46732,63494
46716,63503
46699,63512
46681,63518
46663,63522
46644,63525
46625,63526
46241,63526
46222,63525
46204,63522
46186,63518
46168,63512
46151,63503
46135,63494
46120,63483
46106,63470
46093,63456
46082,63441
46072,63425
46064,63408
46058,63390
46053,63372
46050,63353
46049,63334
46049,62616
46050,62597
46053,62578
46058,62560
46064,62542
46072,62525
46082,62509
46093,62494
46106,62480
46120,62467
46135,62456
46151,62446
46168,62438
46186,62432
46204,62427
46222,62425
46241,62424
46625,62424
46644,62425
Z" /> 
</g>
<g >
<path style="fill:#000000; fill-opacity:1.0; 
stroke:#000000; stroke-width:0; stroke-opacity:1; 
stroke-linecap:round; stroke-linejoin:round;fill-rule:evenodd;"
d="M 55120,62425
55139,62427
55157,62432
55175,62438
55192,62446
55208,62456
55223,62467
55237,62480
55250,62494
55261,62509
55271,62525
55279,62542
55285,62560
55290,62578
55293,62597
55293,62616
55293,63334
55293,63353
55290,63372
55285,63390
55279,63408
55271,63425
55261,63441
55250,63456
55237,63470
55223,63483
55208,63494
55192,63503
55175,63512
55157,63518
55139,63522
55120,63525
55102,63526
54718,63526
54699,63525
54680,63522
54662,63518
54644,63512
54627,63503
54611,63494
54596,63483
54582,63470
54569,63456
54558,63441
54548,63425
54540,63408
54534,63390
54529,63372
54527,63353
54526,63334
54526,62616
54527,62597
54529,62578
54534,62560
54540,62542
54548,62525
54558,62509
54569,62494
54582,62480
54596,62467
54611,62456
54627,62446
54644,62438
54662,62432
54680,62427
54699,62425
54718,62424
55102,62424
55120,62425
Z" /> 
<path style="fill:#000000; fill-opacity:1.0; 
stroke:#000000; stroke-width:0; stroke-opacity:1; 
stroke-linecap:round; stroke-linejoin:round;fill-rule:evenodd;"
d="M 53644,62425
53663,62427
53681,62432
53699,62438
53716,62446
53732,62456
53747,62467
53761,62480
53773,62494
53785,62509
53794,62525
53802,62542
53809,62560
53813,62578
53816,62597
53817,62616
53817,63334
53816,63353
53813,63372
53809,63390
53802,63408
53794,63425
53785,63441
53773,63456
53761,63470
53747,63483
53732,63494
53716,63503
53699,63512
53681,63518
53663,63522
53644,63525
53625,63526
53241,63526
53222,63525
53204,63522
53186,63518
53168,63512
53151,63503
53135,63494
53120,63483
53106,63470
53093,63456
53082,63441
53072,63425
53064,63408
53058,63390
53053,63372
53050,63353
53049,63334
53049,62616
53050,62597
53053,62578
53058,62560
53064,62542
53072,62525
53082,62509
53093,62494
53106,62480
53120,62467
53135,62456
53151,62446
53168,62438
53186,62432
53204,62427
53222,62425
53241,62424
53625,62424
53644,62425
Z" /> 
</g>
<g >
<path style="fill:#000000; fill-opacity:1.0; 
stroke:#000000; stroke-width:0; stroke-opacity:1; 
stroke-linecap:round; stroke-linejoin:round;fill-rule:evenodd;"
d="M 76120,62425
76139,62427
76157,62432
76175,62438
76192,62446
76208,62456
76223,62467
76237,62480
76250,62494
76261,62509
76271,62525
76279,62542
76285,62560
76290,62578
76293,62597
76293,62616
76293,63334
76293,63353
76290,63372
76285,63390
76279,63408
76271,63425
76261,63441
76250,63456
76237,63470
76223,63483
76208,63494
76192,63503
76175,63512
76157,63518
76139,63522
76120,63525
76102,63526
75718,63526
75699,63525
75680,63522
75662,63518
75644,63512
75627,63503
75611,63494
75596,63483
75582,63470
75569,63456
75558,63441
75548,63425
75540,63408
75534,63390
75529,63372
75527,63353
75526,63334
75526,62616
75527,62597
75529,62578
75534,62560
75540,62542
75548,62525
75558,62509
75569,62494
75582,62480
75596,62467
75611,62456
75627,62446
75644,62438
75662,62432
75680,62427
75699,62425
75718,62424
76102,62424
76120,62425
Z" /> 
<path style="fill:#000000; fill-opacity:1.0; 
stroke:#000000; stroke-width:0; stroke-opacity:1; 
stroke-linecap:round; stroke-linejoin:round;fill-rule:evenodd;"
d="M 74644,62425
74663,62427
74681,62432
74699,62438
74716,62446
74732,62456
74747,62467
74761,62480
74773,62494
74785,62509
74794,62525
74802,62542
74809,62560
74813,62578
74816,62597
74817,62616
74817,63334
74816,63353
74813,63372
74809,63390
74802,63408
74794,63425
74785,63441
74773,63456
74761,63470
74747,63483
74732,63494
74716,63503
74699,63512
74681,63518
74663,63522
74644,63525
74625,63526
74241,63526
74222,63525
74204,63522
74186,63518
74168,63512
74151,63503
74135,63494
74120,63483
74106,63470
74093,63456
74082,63441
74072,63425
74064,63408
74058,63390
74053,63372
74050,63353
74049,63334
74049,62616
74050,62597
74053,62578
74058,62560
74064,62542
74072,62525
74082,62509
74093,62494
74106,62480
74120,62467
74135,62456
74151,62446
74168,62438
74186,62432
74204,62427
74222,62425
74241,62424
74625,62424
74644,62425
Z" /> 
</g>
<g >
<path style="fill:#000000; fill-opacity:1.0; 
stroke:#000000; stroke-width:0; stroke-opacity:1; 
stroke-linecap:round; stroke-linejoin:round;fill-rule:evenodd;"
d="M 83120,62425
83139,62427
83157,62432
83175,62438
83192,62446
83208,62456
83223,62467
83237,62480
83250,62494
83261,62509
83271,62525
83279,62542
83285,62560
83290,62578
83293,62597
83293,62616
83293,63334
83293,63353
83290,63372
83285,63390
83279,63408
83271,63425
83261,63441
83250,63456
83237,63470
83223,63483
83208,63494
83192,63503
83175,63512
83157,63518
83139,63522
83120,63525
83102,63526
82718,63526
82699,63525
82680,63522
82662,63518
82644,63512
82627,63503
82611,63494
82596,63483
82582,63470
82569,63456
82558,63441
82548,63425
82540,63408
82534,63390
82529,63372
82527,63353
82526,63334
82526,62616
82527,62597
82529,62578
82534,62560
82540,62542
82548,62525
82558,62509
82569,62494
82582,62480
82596,62467
82611,62456
82627,62446
82644,62438
82662,62432
82680,62427
82699,62425
82718,62424
83102,62424
83120,62425
Z" /> 
<path style="fill:#000000; fill-opacity:1.0; 
stroke:#000000; stroke-width:0; stroke-opacity:1; 
stroke-linecap:round; stroke-linejoin:round;fill-rule:evenodd;"
d="M 81644,62425
81663,62427
81681,62432
81699,62438
81716,62446
81732,62456
81747,62467
81761,62480
81773,62494
81785,62509
81794,62525
81802,62542
81809,62560
81813,62578
81816,62597
81817,62616
81817,63334
81816,63353
81813,63372
81809,63390
81802,63408
81794,63425
81785,63441
81773,63456
81761,63470
81747,63483
81732,63494
81716,63503
81699,63512
81681,63518
81663,63522
81644,63525
81625,63526
81241,63526
81222,63525
81204,63522
81186,63518
81168,63512
81151,63503
81135,63494
81120,63483
81106,63470
81093,63456
81082,63441
81072,63425
81064,63408
81058,63390
81053,63372
81050,63353
81049,63334
81049,62616
81050,62597
81053,62578
81058,62560
81064,62542
81072,62525
81082,62509
81093,62494
81106,62480
81120,62467
81135,62456
81151,62446
81168,62438
81186,62432
81204,62427
81222,62425
81241,62424
81625,62424
81644,62425
Z" /> 
</g>
<g >
<path style="fill:#000000; fill-opacity:1.0; 
stroke:#000000; stroke-width:0; stroke-opacity:1; 
stroke-linecap:round; stroke-linejoin:round;fill-rule:evenodd;"
d="M 38844,14925
38863,14927
38881,14932
38899,14938
38916,14946
38932,14956
38947,14967
38961,14980
38973,14994
38985,15009
38994,15025
39002,15042
39009,15060
39013,15078
39016,15097
39017,15116
39017,15834
39016,15853
39013,15872
39009,15890
39002,15908
38994,15925
38985,15941
38973,15956
38961,15970
38947,15983
38932,15994
38916,16003
38899,16012
38881,16018
38863,16022
38844,16025
38825,16026
38441,16026
38422,16025
38404,16022
38386,16018
38368,16012
38351,16003
38335,15994
38320,15983
38306,15970
38293,15956
38282,15941
38272,15925
38264,15908
38258,15890
38253,15872
38250,15853
38249,15834
38249,15116
38250,15097
38253,15078
38258,15060
38264,15042
38272,15025
38282,15009
38293,14994
38306,14980
38320,14967
38335,14956
38351,14946
38368,14938
38386,14932
38404,14927
38422,14925
38441,14924
38825,14924
38844,14925
Z" /> 
<path style="fill:#000000; fill-opacity:1.0; 
stroke:#000000; stroke-width:0; stroke-opacity:1; 
stroke-linecap:round; stroke-linejoin:round;fill-rule:evenodd;"
d="M 40320,14925
40339,14927
40357,14932
40375,14938
40392,14946
40408,14956
40423,14967
40437,14980
40450,14994
40461,15009
40471,15025
40479,15042
40485,15060
40490,15078
40493,15097
40493,15116
40493,15834
40493,15853
40490,15872
40485,15890
40479,15908
40471,15925
40461,15941
40450,15956
40437,15970
40423,15983
40408,15994
40392,16003
40375,16012
40357,16018
40339,16022
40320,16025
40302,16026
39918,16026
39899,16025
39880,16022
39862,16018
39844,16012
39827,16003
39811,15994
39796,15983
39782,15970
39769,15956
39758,15941
39748,15925
39740,15908
39734,15890
39729,15872
39727,15853
39726,15834
39726,15116
39727,15097
39729,15078
39734,15060
39740,15042
39748,15025
39758,15009
39769,14994
39782,14980
39796,14967
39811,14956
39827,14946
39844,14938
39862,14932
39880,14927
39899,14925
39918,14924
40302,14924
40320,14925
Z" /> 
</g>
<g >
<path style="fill:#000000; fill-opacity:1.0; 
stroke:#000000; stroke-width:0; stroke-opacity:1; 
stroke-linecap:round; stroke-linejoin:round;fill-rule:evenodd;"
d="M 55549,43830
55568,43833
55586,43838
55604,43844
55621,43852
55637,43862
55652,43873
55666,43885
55679,43899
55690,43915
55700,43931
55708,43948
55714,43965
55719,43984
55722,44002
55723,44021
55723,44405
55722,44424
55719,44442
55714,44461
55708,44478
55700,44496
55690,44512
55679,44527
55666,44541
55652,44553
55637,44565
55621,44574
55604,44582
55586,44589
55568,44593
55549,44596
55531,44597
54812,44597
54793,44596
54775,44593
54756,44589
54739,44582
54722,44574
54706,44565
54690,44553
54676,44541
54664,44527
54653,44512
54643,44496
54635,44478
54628,44461
54624,44442
54621,44424
54620,44405
54620,44021
54621,44002
54624,43984
54628,43965
54635,43948
54643,43931
54653,43915
54664,43899
54676,43885
54690,43873
54706,43862
54722,43852
54739,43844
54756,43838
54775,43833
54793,43830
54812,43829
55531,43829
55549,43830
Z" /> 
<path style="fill:#000000; fill-opacity:1.0; 
stroke:#000000; stroke-width:0; stroke-opacity:1; 
stroke-linecap:round; stroke-linejoin:round;fill-rule:evenodd;"
d="M 55549,42354
55568,42357
55586,42361
55604,42367
55621,42376
55637,42385
55652,42396
55666,42409
55679,42423
55690,42438
55700,42454
55708,42471
55714,42489
55719,42507
55722,42526
55723,42545
55723,42929
55722,42947
55719,42966
55714,42984
55708,43002
55700,43019
55690,43035
55679,43050
55666,43064
55652,43077
55637,43088
55621,43098
55604,43106
55586,43112
55568,43117
55549,43120
55531,43121
54812,43121
54793,43120
54775,43117
54756,43112
54739,43106
54722,43098
54706,43088
54690,43077
54676,43064
54664,43050
54653,43035
54643,43019
54635,43002
54628,42984
54624,42966
54621,42947
54620,42929
54620,42545
54621,42526
54624,42507
54628,42489
54635,42471
54643,42454
54653,42438
54664,42423
54676,42409
54690,42396
54706,42385
54722,42376
54739,42367
54756,42361
54775,42357
54793,42354
54812,42353
55531,42353
55549,42354
Z" /> 
</g>
<g >
<path style="fill:#000000; fill-opacity:1.0; 
stroke:#000000; stroke-width:0; stroke-opacity:1; 
stroke-linecap:round; stroke-linejoin:round;fill-rule:evenodd;"
d="M 83204,58396
83222,58398
83241,58403
83258,58409
83275,58417
83292,58427
83307,58438
83321,58451
83333,58465
83345,58480
83354,58496
83362,58513
83369,58531
83373,58549
83376,58568
83377,58587
83377,59305
83376,59324
83373,59342
83369,59361
83362,59378
83354,59396
83345,59412
83333,59427
83321,59441
83307,59453
83292,59465
83275,59474
83258,59482
83241,59489
83222,59493
83204,59496
83185,59497
82801,59497
82782,59496
82764,59493
82745,59489
82728,59482
82711,59474
82694,59465
82679,59453
82665,59441
82653,59427
82642,59412
82632,59396
82624,59378
82617,59361
82613,59342
82610,59324
82609,59305
82609,58587
82610,58568
82613,58549
82617,58531
82624,58513
82632,58496
82642,58480
82653,58465
82665,58451
82679,58438
82694,58427
82711,58417
82728,58409
82745,58403
82764,58398
82782,58396
82801,58395
83185,58395
83204,58396
Z" /> 
<path style="fill:#000000; fill-opacity:1.0; 
stroke:#000000; stroke-width:0; stroke-opacity:1; 
stroke-linecap:round; stroke-linejoin:round;fill-rule:evenodd;"
d="M 81727,58396
81746,58398
81764,58403
81782,58409
81799,58417
81815,58427
81830,58438
81844,58451
81857,58465
81868,58480
81878,58496
81886,58513
81892,58531
81897,58549
81900,58568
81901,58587
81901,59305
81900,59324
81897,59342
81892,59361
81886,59378
81878,59396
81868,59412
81857,59427
81844,59441
81830,59453
81815,59465
81799,59474
81782,59482
81764,59489
81746,59493
81727,59496
81709,59497
81325,59497
81306,59496
81287,59493
81269,59489
81251,59482
81234,59474
81218,59465
81203,59453
81189,59441
81176,59427
81165,59412
81155,59396
81147,59378
81141,59361
81136,59342
81134,59324
81133,59305
81133,58587
81134,58568
81136,58549
81141,58531
81147,58513
81155,58496
81165,58480
81176,58465
81189,58451
81203,58438
81218,58427
81234,58417
81251,58409
81269,58403
81287,58398
81306,58396
81325,58395
81709,58395
81727,58396
Z" /> 
</g>
<g >
<path style="fill:#000000; fill-opacity:1.0; 
stroke:#000000; stroke-width:0; stroke-opacity:1; 
stroke-linecap:round; stroke-linejoin:round;fill-rule:evenodd;"
d="M 31420,34325
31439,34327
31457,34332
31475,34338
31492,34346
31508,34356
31523,34367
31537,34380
31550,34394
31561,34409
31571,34425
31579,34442
31585,34460
31590,34478
31593,34497
31593,34516
31593,35234
31593,35253
31590,35272
31585,35290
31579,35308
31571,35325
31561,35341
31550,35356
31537,35370
31523,35383
31508,35394
31492,35403
31475,35412
31457,35418
31439,35422
31420,35425
31402,35426
31018,35426
30999,35425
30980,35422
30962,35418
30944,35412
30927,35403
30911,35394
30896,35383
30882,35370
30869,35356
30858,35341
30848,35325
30840,35308
30834,35290
30829,35272
30827,35253
30826,35234
30826,34516
30827,34497
30829,34478
30834,34460
30840,34442
30848,34425
30858,34409
30869,34394
30882,34380
30896,34367
30911,34356
30927,34346
30944,34338
30962,34332
30980,34327
30999,34325
31018,34324
31402,34324
31420,34325
Z" /> 
<path style="fill:#000000; fill-opacity:1.0; 
stroke:#000000; stroke-width:0; stroke-opacity:1; 
stroke-linecap:round; stroke-linejoin:round;fill-rule:evenodd;"
d="M 29944,34325
29963,34327
29981,34332
29999,34338
30016,34346
30032,34356
30047,34367
30061,34380
30073,34394
30085,34409
30094,34425
30102,34442
30109,34460
30113,34478
30116,34497
30117,34516
30117,35234
30116,35253
30113,35272
30109,35290
30102,35308
30094,35325
30085,35341
30073,35356
30061,35370
30047,35383
30032,35394
30016,35403
29999,35412
29981,35418
29963,35422
29944,35425
29925,35426
29541,35426
29522,35425
29504,35422
29486,35418
29468,35412
29451,35403
29435,35394
29420,35383
29406,35370
29393,35356
29382,35341
29372,35325
29364,35308
29358,35290
29353,35272
29350,35253
29349,35234
29349,34516
29350,34497
29353,34478
29358,34460
29364,34442
29372,34425
29382,34409
29393,34394
29406,34380
29420,34367
29435,34356
29451,34346
29468,34338
29486,34332
29504,34327
29522,34325
29541,34324
29925,34324
29944,34325
Z" /> 
</g>
<g >
<path style="fill:#000000; fill-opacity:1.0; 
stroke:#000000; stroke-width:0; stroke-opacity:1; 
stroke-linecap:round; stroke-linejoin:round;fill-rule:evenodd;"
d="M 69349,43630
69368,43633
69386,43638
69404,43644
69421,43652
69437,43662
69452,43673
69466,43685
69479,43699
69490,43715
69500,43731
69508,43748
69514,43765
69519,43784
69522,43802
69523,43821
69523,44205
69522,44224
69519,44242
69514,44261
69508,44278
69500,44296
69490,44312
69479,44327
69466,44341
69452,44353
69437,44365
69421,44374
69404,44382
69386,44389
69368,44393
69349,44396
69331,44397
68612,44397
68593,44396
68575,44393
68556,44389
68539,44382
68522,44374
68506,44365
68490,44353
68476,44341
68464,44327
68453,44312
68443,44296
68435,44278
68428,44261
68424,44242
68421,44224
68420,44205
68420,43821
68421,43802
68424,43784
68428,43765
68435,43748
68443,43731
68453,43715
68464,43699
68476,43685
68490,43673
68506,43662
68522,43652
68539,43644
68556,43638
68575,43633
68593,43630
68612,43629
69331,43629
69349,43630
Z" /> 
<path style="fill:#000000; fill-opacity:1.0; 
stroke:#000000; stroke-width:0; stroke-opacity:1; 
stroke-linecap:round; stroke-linejoin:round;fill-rule:evenodd;"
d="M 69349,42154
69368,42157
69386,42161
69404,42167
69421,42176
69437,42185
69452,42196
69466,42209
69479,42223
69490,42238
69500,42254
69508,42271
69514,42289
69519,42307
69522,42326
69523,42345
69523,42729
69522,42747
69519,42766
69514,42784
69508,42802
69500,42819
69490,42835
69479,42850
69466,42864
69452,42877
69437,42888
69421,42898
69404,42906
69386,42912
69368,42917
69349,42920
69331,42921
68612,42921
68593,42920
68575,42917
68556,42912
68539,42906
68522,42898
68506,42888
68490,42877
68476,42864
68464,42850
68453,42835
68443,42819
68435,42802
68428,42784
68424,42766
68421,42747
68420,42729
68420,42345
68421,42326
68424,42307
68428,42289
68435,42271
68443,42254
68453,42238
68464,42223
68476,42209
68490,42196
68506,42185
68522,42176
68539,42167
68556,42161
68575,42157
68593,42154
68612,42153
69331,42153
69349,42154
Z" /> 
</g>
<g >
</g>
<g >
<path style="fill:#000000; fill-opacity:1.0; 
stroke:#000000; stroke-width:0; stroke-opacity:1; 
stroke-linecap:round; stroke-linejoin:round;fill-rule:evenodd;"
d="M 36835,15246
36854,15249
36873,15253
36891,15260
36908,15268
36925,15278
36940,15290
36955,15303
36968,15317
36979,15332
36989,15349
36997,15367
37004,15385
37009,15403
37011,15423
37012,15442
37012,16308
37011,16327
37009,16346
37004,16365
36997,16383
36989,16401
36979,16417
36968,16433
36955,16447
36940,16460
36925,16472
36908,16482
36891,16490
36873,16496
36854,16501
36835,16504
36815,16505
35162,16505
35143,16504
35124,16501
35105,16496
35087,16490
35069,16482
35053,16472
35037,16460
35023,16447
35010,16433
34998,16417
34988,16401
34980,16383
34974,16365
34969,16346
34966,16327
34965,16308
34965,15442
34966,15423
34969,15403
34974,15385
34980,15367
34988,15349
34998,15332
35010,15317
35023,15303
35037,15290
35053,15278
35069,15268
35087,15260
35105,15253
35124,15249
35143,15246
35162,15245
36815,15245
36835,15246
Z" /> 
<path style="fill:#000000; fill-opacity:1.0; 
stroke:#000000; stroke-width:0; stroke-opacity:1; 
stroke-linecap:round; stroke-linejoin:round;fill-rule:evenodd;"
d="M 34000,15246
34019,15249
34038,15253
34056,15260
34074,15268
34090,15278
34106,15290
34120,15303
34133,15317
34145,15332
34154,15349
34163,15367
34169,15385
34174,15403
34177,15423
34178,15442
34178,16308
34177,16327
34174,16346
34169,16365
34163,16383
34154,16401
34145,16417
34133,16433
34120,16447
34106,16460
34090,16472
34074,16482
34056,16490
34038,16496
34019,16501
34000,16504
33981,16505
32327,16505
32308,16504
32289,16501
32270,16496
32252,16490
32235,16482
32218,16472
32202,16460
32188,16447
32175,16433
32164,16417
32154,16401
32145,16383
32139,16365
32134,16346
32131,16327
32130,16308
32130,15442
32131,15423
32134,15403
32139,15385
32145,15367
32154,15349
32164,15332
32175,15317
32188,15303
32202,15290
32218,15278
32235,15268
32252,15260
32270,15253
32289,15249
32308,15246
32327,15245
33981,15245
34000,15246
Z" /> 
</g>
<g >
<path style="fill:#000000; fill-opacity:1.0; 
stroke:#000000; stroke-width:0; stroke-opacity:1; 
stroke-linecap:round; stroke-linejoin:round;fill-rule:evenodd;"
d="M 69483,20295
69502,20298
69520,20302
69538,20309
69555,20317
69571,20327
69586,20338
69600,20350
69613,20364
69624,20380
69634,20396
69642,20413
69648,20430
69653,20449
69656,20467
69656,20486
69656,20870
69656,20889
69653,20907
69648,20926
69642,20943
69634,20960
69624,20977
69613,20992
69600,21006
69586,21018
69571,21030
69555,21039
69538,21047
69520,21054
69502,21058
69483,21061
69465,21062
68746,21062
68727,21061
68709,21058
68690,21054
68673,21047
68656,21039
68639,21030
68624,21018
68610,21006
68598,20992
68586,20977
68577,20960
68569,20943
68562,20926
68558,20907
68555,20889
68554,20870
68554,20486
68555,20467
68558,20449
68562,20430
68569,20413
68577,20396
68586,20380
68598,20364
68610,20350
68624,20338
68639,20327
68656,20317
68673,20309
68690,20302
68709,20298
68727,20295
68746,20294
69465,20294
69483,20295
Z" /> 
<path style="fill:#000000; fill-opacity:1.0; 
stroke:#000000; stroke-width:0; stroke-opacity:1; 
stroke-linecap:round; stroke-linejoin:round;fill-rule:evenodd;"
d="M 69483,21772
69502,21774
69520,21779
69538,21785
69555,21793
69571,21803
69586,21814
69600,21827
69613,21841
69624,21856
69634,21872
69642,21889
69648,21907
69653,21925
69656,21944
69656,21963
69656,22346
69656,22365
69653,22384
69648,22402
69642,22420
69634,22437
69624,22453
69613,22468
69600,22482
69586,22495
69571,22506
69555,22516
69538,22524
69520,22530
69502,22535
69483,22537
69465,22538
68746,22538
68727,22537
68709,22535
68690,22530
68673,22524
68656,22516
68639,22506
68624,22495
68610,22482
68598,22468
68586,22453
68577,22437
68569,22420
68562,22402
68558,22384
68555,22365
68554,22346
68554,21963
68555,21944
68558,21925
68562,21907
68569,21889
68577,21872
68586,21856
68598,21841
68610,21827
68624,21814
68639,21803
68656,21793
68673,21785
68690,21779
68709,21774
68727,21772
68746,21771
69465,21771
69483,21772
Z" /> 
</g>
<g >
</g>
<g >
</g>
<g >
</g>
</g> 
</svg>
