<?xml version="1.0" standalone="no"?>
 <!DOCTYPE svg PUBLIC "-//W3C//DTD SVG 1.1//EN" 
 "http://www.w3.org/Graphics/SVG/1.1/DTD/svg11.dtd"> 
<svg xmlns="http://www.w3.org/2000/svg" version="1.1" 
    width="29.7002cm" height="21.0007cm" viewBox="0 0 116930 82680 ">
<title>SVG Picture created as ThermocoupleLogger-B_SilkS.svg date 2019/03/28 10:51:20 </title>
  <desc>Picture generated by PCBNEW </desc>
<g style="fill:#000000; fill-opacity:1;stroke:#000000; stroke-opacity:1;
stroke-linecap:round; stroke-linejoin:round; "
 transform="translate(0 0) scale(1 1)">
</g>
<g style="fill:#000000; fill-opacity:0.0; 
stroke:#000000; stroke-width:-0.000787402; stroke-opacity:1; 
stroke-linecap:round; stroke-linejoin:round;">
</g>
<g style="fill:#000000; fill-opacity:0.0; 
stroke:#000000; stroke-width:78.7402; stroke-opacity:1; 
stroke-linecap:round; stroke-linejoin:round;">
<path d="M93971 12875
L93971 73375
" />
<path d="M23971 68993
L23971 68993
" />
<path d="M23971 12875
L93971 12875
" />
<path d="M23971 73375
L93971 73375
" />
<path d="M23971 12875
L23971 73375
" />
<path d="M23971 13875
L23971 13875
" />
</g>
<g style="fill:#000000; fill-opacity:0.0; 
stroke:#000000; stroke-width:94.4882; stroke-opacity:1; 
stroke-linecap:round; stroke-linejoin:round;">
<path d="M47158.2 58711.1 A9051.78 9051.78 0.0 0 0 29484.5 55919.5 " />
<path d="M28893.9 56313.2 A629.921 629.921 0.0 0 0 29485.9 55898.8 " />
<path d="M29484.5 61431.3 A9051.78 9051.78 0.0 0 0 47158.2 58639.8 " />
<path d="M29485.9 61452.1 A629.921 629.921 0.0 0 0 28893.9 61037.6 " />
<path d="M24405 61037
L28893 61037
" />
<path d="M24405 56313
L24405 61037
" />
<path d="M24405 56313
L28893 56313
" />
<g >
</g>
<g >
</g>
<g >
</g>
<g >
</g>
<g >
</g>
<g >
</g>
<g >
</g>
<g >
</g>
<g >
</g>
<g >
</g>
<g >
</g>
<g >
</g>
<g >
</g>
<g >
</g>
<g >
</g>
<g >
</g>
<g >
</g>
<g >
</g>
<g >
</g>
<g >
</g>
<g >
</g>
<g >
</g>
<g >
</g>
<g >
</g>
<g >
</g>
<g >
</g>
<g >
</g>
<g >
</g>
<g >
</g>
<g >
</g>
<g >
</g>
<g >
</g>
<g >
</g>
<g >
</g>
<g >
</g>
<g >
</g>
<g >
</g>
<g >
</g>
<g >
</g>
<g >
</g>
<g >
</g>
<g >
</g>
<g >
</g>
<g >
</g>
<g >
</g>
<g >
</g>
<g >
</g>
<g >
</g>
<g >
</g>
<g >
</g>
<g >
</g>
<g >
</g>
<g >
</g>
<g >
</g>
<g >
</g>
<g >
</g>
<g >
</g>
<g >
</g>
<g >
</g>
<g >
</g>
<g >
</g>
<g >
</g>
<g >
</g>
<g >
</g>
<g >
</g>
<g >
</g>
<g >
</g>
<g >
</g>
<g >
</g>
<g >
</g>
<g >
</g>
<g >
</g>
<g >
</g>
</g>
<g style="fill:#000000; fill-opacity:0.0; 
stroke:#000000; stroke-width:118.11; stroke-opacity:1; 
stroke-linecap:round; stroke-linejoin:round;">
<path d="M26756 62005
L26644 62042
L26606 62080
L26569 62154
L26569 62267
L26606 62342
L26644 62379
L26719 62417
L27019 62417
L27019 61630
L26756 61630
L26681 61667
L26644 61705
L26606 61780
L26606 61855
L26644 61930
L26681 61967
L26756 62005
L27019 62005
" />
<path d="M26344 61630
L25894 61630
" />
<path d="M26119 62417
L26119 61630
" />
<path d="M25669 61705
L25631 61667
L25556 61630
L25369 61630
L25294 61667
L25256 61705
L25219 61780
L25219 61855
L25256 61967
L25706 62417
L25219 62417
" />
<path d="M28753 58759
L27853 58759
" />
<path d="M28303 59209
L28303 58309
" />
<g >
</g>
</g> 
</svg>
