<?xml version="1.0" standalone="no"?>
 <!DOCTYPE svg PUBLIC "-//W3C//DTD SVG 1.1//EN" 
 "http://www.w3.org/Graphics/SVG/1.1/DTD/svg11.dtd"> 
<svg xmlns="http://www.w3.org/2000/svg" version="1.1" 
    width="29.7002cm" height="21.0007cm" viewBox="0 0 116930 82680 ">
<title>SVG Picture created as ThermocoupleLogger-F_SilkS.svg date 2019/03/28 10:51:20 </title>
  <desc>Picture generated by PCBNEW </desc>
<g style="fill:#000000; fill-opacity:1;stroke:#000000; stroke-opacity:1;
stroke-linecap:round; stroke-linejoin:round; "
 transform="translate(0 0) scale(1 1)">
</g>
<g style="fill:#000000; fill-opacity:0.0; 
stroke:#000000; stroke-width:-0.000787402; stroke-opacity:1; 
stroke-linecap:round; stroke-linejoin:round;">
</g>
<g style="fill:#000000; fill-opacity:0.0; 
stroke:#000000; stroke-width:78.7402; stroke-opacity:1; 
stroke-linecap:round; stroke-linejoin:round;">
<path d="M93971 12875
L93971 73375
" />
<path d="M23971 68993
L23971 68993
" />
<path d="M23971 12875
L93971 12875
" />
</g>
<g style="fill:#000000; fill-opacity:0.0; 
stroke:#000000; stroke-width:196.85; stroke-opacity:1; 
stroke-linecap:round; stroke-linejoin:round;">
<path d="M25615 30553
L25653 30483
L25653 30333
L25615 30253
L25540 30169
L25465 30122
L25315 30103
L25240 30131
L25165 30197
L25128 30267
L25128 30417
L25165 30497
" />
<path d="M25915 30441
L25878 30248
L25765 30047
L25578 29911
L25390 29850
L25203 29864
L25015 29953
L24903 30127
L24865 30309
L24903 30502
L25015 30703
L25203 30839
L25390 30900
L25578 30886
L25765 30797
L25878 30623
L25915 30441
" />
<path d="M25728 31242
L25765 31284
L25803 31364
L25803 31551
L25765 31622
L25728 31654
L25653 31683
L25578 31673
L25465 31622
L25015 31115
L25015 31603
" />
<path d="M25803 32189
L25803 32264
L25765 32334
L25728 32367
L25653 32395
L25503 32414
L25315 32390
L25165 32334
L25090 32287
L25053 32245
L25015 32165
L25015 32090
L25053 32020
L25090 31987
L25165 31959
L25315 31940
L25503 31964
L25653 32020
L25728 32067
L25765 32109
L25803 32189
" />
<path d="M25015 33103
L25015 32653
" />
<path d="M25015 32878
L25803 32976
L25690 32887
L25615 32803
L25578 32723
" />
<path d="M25015 33478
L25015 33628
L25053 33707
L25090 33750
L25203 33839
L25353 33895
L25653 33932
L25728 33904
L25765 33871
L25803 33801
L25803 33651
L25765 33571
L25728 33529
L25653 33482
L25465 33459
L25390 33487
L25353 33520
L25315 33590
L25315 33740
L25353 33820
L25390 33862
L25465 33909
" />
<path d="M25053 34232
L25015 34228
L24940 34181
L24903 34139
" />
<path d="M25803 35488
L25240 35418
L25128 35367
L25053 35282
L25015 35165
L25015 35090
" />
<path d="M25015 35765
L25803 35863
L25803 36163
L25765 36234
L25728 36266
L25653 36295
L25540 36280
L25465 36234
L25428 36191
L25390 36112
L25390 35812
" />
<path d="M25428 37204
L25428 37466
" />
<path d="M25015 37527
L25015 37152
L25803 37251
L25803 37626
" />
<path d="M25540 37930
L25015 37865
" />
<path d="M25465 37921
L25503 37963
L25540 38043
L25540 38155
L25503 38226
L25428 38254
L25015 38202
" />
<path d="M25540 38530
L25540 38830
" />
<path d="M25803 38675
L25128 38591
L25053 38619
L25015 38690
L25015 38765
" />
<path d="M25053 39332
L25015 39252
L25015 39102
L25053 39032
L25128 39004
L25428 39041
L25503 39088
L25540 39168
L25540 39318
L25503 39388
L25428 39416
L25353 39407
L25278 39022
" />
<path d="M25015 39702
L25540 39768
" />
<path d="M25390 39749
L25465 39796
L25503 39838
L25540 39918
L25540 39993
" />
<path d="M25540 40255
L24753 40157
" />
<path d="M25503 40250
L25540 40330
L25540 40480
L25503 40550
L25465 40583
L25390 40611
L25165 40583
L25090 40536
L25053 40494
L25015 40414
L25015 40264
L25053 40194
" />
<path d="M25015 40902
L25540 40967
" />
<path d="M25390 40949
L25465 40996
L25503 41038
L25540 41117
L25540 41192
" />
<path d="M25015 41389
L25540 41455
" />
<path d="M25803 41488
L25765 41445
L25728 41478
L25765 41520
L25803 41488
L25728 41478
" />
<path d="M25053 41731
L25015 41802
L25015 41952
L25053 42031
L25128 42078
L25165 42083
L25240 42055
L25278 41984
L25278 41872
L25315 41802
L25390 41774
L25428 41778
L25503 41825
L25540 41905
L25540 42017
L25503 42088
" />
<path d="M25053 42706
L25015 42627
L25015 42477
L25053 42406
L25128 42378
L25428 42416
L25503 42463
L25540 42542
L25540 42692
L25503 42762
L25428 42791
L25353 42781
L25278 42397
" />
<path d="M25053 43044
L25015 43114
L25015 43264
L25053 43344
L25128 43391
L25165 43395
L25240 43367
L25278 43297
L25278 43184
L25315 43114
L25390 43086
L25428 43091
L25503 43137
L25540 43217
L25540 43330
L25503 43400
" />
</g>
<g style="fill:#000000; fill-opacity:0.0; 
stroke:#000000; stroke-width:236.22; stroke-opacity:1; 
stroke-linecap:round; stroke-linejoin:round;">
<path d="M69621 14459
L70521 14459
" />
<path d="M74421 14459
L75321 14459
" />
<path d="M74871 14909
L74871 14009
" />
</g>
<g style="fill:#000000; fill-opacity:0.0; 
stroke:#000000; stroke-width:118.11; stroke-opacity:1; 
stroke-linecap:round; stroke-linejoin:round;">
<path d="M70797 20831
L70534 20456
" />
<path d="M70347 20831
L70347 20044
L70647 20044
L70722 20081
L70759 20119
L70797 20194
L70797 20306
L70759 20381
L70722 20419
L70647 20456
L70347 20456
" />
<path d="M71434 20794
L71359 20831
L71209 20831
L71134 20794
L71096 20719
L71096 20419
L71134 20344
L71209 20306
L71359 20306
L71434 20344
L71471 20419
L71471 20494
L71096 20569
" />
<path d="M71771 20794
L71846 20831
L71996 20831
L72071 20794
L72109 20719
L72109 20681
L72071 20606
L71996 20569
L71884 20569
L71809 20531
L71771 20456
L71771 20419
L71809 20344
L71884 20306
L71996 20306
L72071 20344
" />
<path d="M72746 20794
L72671 20831
L72521 20831
L72446 20794
L72409 20719
L72409 20419
L72446 20344
L72521 20306
L72671 20306
L72746 20344
L72784 20419
L72784 20494
L72409 20569
" />
<path d="M73009 20306
L73309 20306
" />
<path d="M73121 20044
L73121 20719
L73159 20794
L73234 20831
L73309 20831
" />
</g>
<g style="fill:#000000; fill-opacity:0.0; 
stroke:#000000; stroke-width:236.22; stroke-opacity:1; 
stroke-linecap:round; stroke-linejoin:round;">
<path d="M91631 68048
L91575 68161
L91518 68217
L91406 68273
L91350 68273
L91237 68217
L91181 68161
L91125 68048
L91125 67823
L91181 67711
L91237 67654
L91350 67598
L91406 67598
L91518 67654
L91575 67711
L91631 67823
L91631 68048
L91687 68161
L91743 68217
L91856 68273
L92081 68273
L92193 68217
L92249 68161
L92306 68048
L92306 67823
L92249 67711
L92193 67654
L92081 67598
L91856 67598
L91743 67654
L91687 67711
L91631 67823
" />
<path d="M91856 67092
L91856 66192
" />
<path d="M92193 64955
L92249 65011
L92306 65180
L92306 65292
L92249 65461
L92137 65573
L92024 65630
L91800 65686
L91631 65686
L91406 65630
L91293 65573
L91181 65461
L91125 65292
L91125 65180
L91181 65011
L91237 64955
" />
<path d="M92306 64449
L91125 64449
" />
<path d="M92306 63942
L91687 63942
L91575 63999
L91518 64111
L91518 64280
L91575 64392
L91631 64449
" />
<path d="M92306 62874
L91687 62874
L91575 62930
L91518 63043
L91518 63268
L91575 63380
" />
<path d="M92249 62874
L92306 62986
L92306 63268
L92249 63380
L92137 63436
L92024 63436
L91912 63380
L91856 63268
L91856 62986
L91800 62874
" />
<path d="M91518 62311
L92306 62311
" />
<path d="M91631 62311
L91575 62255
L91518 62143
L91518 61974
L91575 61861
L91687 61805
L92306 61805
" />
<path d="M91518 61243
L92306 61243
" />
<path d="M91631 61243
L91575 61187
L91518 61074
L91518 60905
L91575 60793
L91687 60737
L92306 60737
" />
<path d="M92249 59724
L92306 59837
L92306 60062
L92249 60174
L92137 60230
L91687 60230
L91575 60174
L91518 60062
L91518 59837
L91575 59724
L91687 59668
L91800 59668
L91912 60230
" />
<path d="M92306 58993
L92249 59106
L92137 59162
L91125 59162
" />
<path d="M91125 57812
L91125 57137
" />
<path d="M92306 57474
L91125 57474
" />
<path d="M92306 56743
L91125 56743
" />
<path d="M92306 56237
L91687 56237
L91575 56293
L91518 56406
L91518 56575
L91575 56687
L91631 56743
" />
<path d="M92249 55225
L92306 55337
L92306 55562
L92249 55675
L92137 55731
L91687 55731
L91575 55675
L91518 55562
L91518 55337
L91575 55225
L91687 55169
L91800 55169
L91912 55731
" />
<path d="M92306 54662
L91518 54662
" />
<path d="M91743 54662
L91631 54606
L91575 54550
L91518 54437
L91518 54325
" />
<path d="M92306 53931
L91518 53931
" />
<path d="M91631 53931
L91575 53875
L91518 53762
L91518 53594
L91575 53481
L91687 53425
L92306 53425
" />
<path d="M91687 53425
L91575 53369
L91518 53256
L91518 53088
L91575 52975
L91687 52919
L92306 52919
" />
<path d="M92306 52188
L92249 52300
L92193 52356
L92081 52413
L91743 52413
L91631 52356
L91575 52300
L91518 52188
L91518 52019
L91575 51906
L91631 51850
L91743 51794
L92081 51794
L92193 51850
L92249 51906
L92306 52019
L92306 52188
" />
<path d="M92249 50782
L92306 50894
L92306 51119
L92249 51232
L92193 51288
L92081 51344
L91743 51344
L91631 51288
L91575 51232
L91518 51119
L91518 50894
L91575 50782
" />
<path d="M92306 50107
L92249 50219
L92193 50275
L92081 50332
L91743 50332
L91631 50275
L91575 50219
L91518 50107
L91518 49938
L91575 49825
L91631 49769
L91743 49713
L92081 49713
L92193 49769
L92249 49825
L92306 49938
L92306 50107
" />
<path d="M91518 48701
L92306 48701
" />
<path d="M91518 49207
L92137 49207
L92249 49151
L92306 49038
L92306 48869
L92249 48757
L92193 48701
" />
<path d="M91518 48138
L92699 48138
" />
<path d="M91575 48138
L91518 48026
L91518 47801
L91575 47688
L91631 47632
L91743 47576
L92081 47576
L92193 47632
L92249 47688
L92306 47801
L92306 48026
L92249 48138
" />
<path d="M92306 46901
L92249 47013
L92137 47070
L91125 47070
" />
<path d="M92249 46001
L92306 46113
L92306 46338
L92249 46451
L92137 46507
L91687 46507
L91575 46451
L91518 46338
L91518 46113
L91575 46001
L91687 45945
L91800 45945
L91912 46507
" />
<path d="M92306 44370
L92249 44482
L92137 44539
L91125 44539
" />
<path d="M92306 43751
L92249 43864
L92193 43920
L92081 43976
L91743 43976
L91631 43920
L91575 43864
L91518 43751
L91518 43582
L91575 43470
L91631 43414
L91743 43357
L92081 43357
L92193 43414
L92249 43470
L92306 43582
L92306 43751
" />
<path d="M91518 42345
L92474 42345
L92587 42401
L92643 42458
L92699 42570
L92699 42739
L92643 42851
" />
<path d="M92249 42345
L92306 42458
L92306 42683
L92249 42795
L92193 42851
L92081 42908
L91743 42908
L91631 42851
L91575 42795
L91518 42683
L91518 42458
L91575 42345
" />
<path d="M91518 41277
L92474 41277
L92587 41333
L92643 41389
L92699 41501
L92699 41670
L92643 41783
" />
<path d="M92249 41277
L92306 41389
L92306 41614
L92249 41726
L92193 41783
L92081 41839
L91743 41839
L91631 41783
L91575 41726
L91518 41614
L91518 41389
L91575 41277
" />
<path d="M92249 40264
L92306 40377
L92306 40602
L92249 40714
L92137 40770
L91687 40770
L91575 40714
L91518 40602
L91518 40377
L91575 40264
L91687 40208
L91800 40208
L91912 40770
" />
<path d="M92306 39702
L91518 39702
" />
<path d="M91743 39702
L91631 39645
L91575 39589
L91518 39477
L91518 39364
" />
</g>
<g style="fill:#000000; fill-opacity:0.0; 
stroke:#000000; stroke-width:78.7402; stroke-opacity:1; 
stroke-linecap:round; stroke-linejoin:round;">
<path d="M23971 73375
L93971 73375
" />
<path d="M23971 12875
L23971 73375
" />
<path d="M23971 13875
L23971 13875
" />
</g>
<g style="fill:#000000; fill-opacity:0.0; 
stroke:#000000; stroke-width:118.11; stroke-opacity:1; 
stroke-linecap:round; stroke-linejoin:round;">
<path d="M30440 52231
L30440 51444
L30628 51444
L30740 51481
L30815 51556
L30853 51631
L30890 51781
L30890 51894
L30853 52044
L30815 52119
L30740 52194
L30628 52231
L30440 52231
" />
<path d="M31228 52231
L31228 51706
" />
<path d="M31228 51444
L31190 51481
L31228 51519
L31265 51481
L31228 51444
L31228 51519
" />
<path d="M31565 52194
L31640 52231
L31790 52231
L31865 52194
L31903 52119
L31903 52081
L31865 52006
L31790 51969
L31678 51969
L31603 51931
L31565 51856
L31565 51819
L31603 51744
L31678 51706
L31790 51706
L31865 51744
" />
<path d="M32240 51706
L32240 52494
" />
<path d="M32240 51744
L32315 51706
L32465 51706
L32540 51744
L32578 51781
L32615 51856
L32615 52081
L32578 52156
L32540 52194
L32465 52231
L32315 52231
L32240 52194
" />
<path d="M33065 52231
L32990 52194
L32953 52119
L32953 51444
" />
<path d="M33702 52231
L33702 51819
L33665 51744
L33590 51706
L33440 51706
L33365 51744
" />
<path d="M33702 52194
L33627 52231
L33440 52231
L33365 52194
L33328 52119
L33328 52044
L33365 51969
L33440 51931
L33627 51931
L33702 51894
" />
<path d="M34002 51706
L34190 52231
" />
<path d="M34377 51706
L34190 52231
L34115 52419
L34077 52456
L34002 52494
" />
</g>
<g style="fill:#000000; fill-opacity:0.0; 
stroke:#000000; stroke-width:94.4882; stroke-opacity:1; 
stroke-linecap:round; stroke-linejoin:round;">
<path d="M79704 34804
L75003 34804
" />
<path d="M75003 34804
L75003 56552
" />
<path d="M75003 56552
L79704 56552
" />
<path d="M79704 56552
L79704 34804
" />
<path d="M79696 37410
L79105 37410
" />
<path d="M79105 37410
L79105 53946
" />
<path d="M79105 53946
L79696 53946
" />
<path d="M79696 53946
L79696 37410
" />
<path d="M79696 34812
L79105 34812
" />
<path d="M79105 34812
L79105 36229
" />
<path d="M79105 36229
L79696 36229
" />
<path d="M79696 36229
L79696 34812
" />
<path d="M79696 55127
L79105 55127
" />
<path d="M79105 55127
L79105 56544
" />
<path d="M79105 56544
L79696 56544
" />
<path d="M79696 56544
L79696 55127
" />
<path d="M77924 34812
L77924 35402
" />
<path d="M77924 35402
L75601 35402
" />
<path d="M75601 35402
L75601 45678
" />
<path d="M77924 56544
L77924 55954
" />
<path d="M77924 55954
L75601 55954
" />
<path d="M75601 55954
L75601 45678
" />
<path d="M79932 35560
L79932 34576
" />
<path d="M79932 34576
L78948 34576
" />
<path d="M52924 24665
L53751 24665
" />
<path d="M53751 23839
L53751 24665
" />
<path d="M46349 19862
L46349 12933
" />
<path d="M46349 12933
L53593 12933
" />
<path d="M48475 24508
L46349 24508
" />
<path d="M46349 24508
L46349 23012
" />
<path d="M53593 12933
L53593 24508
" />
<path d="M53593 24508
L51546 24508
" />
<circle cx="28554.6" cy="48632.1" r="4149.61" /> 
<path d="M43415 72540
L43415 71556
" />
<path d="M42431 72540
L43415 72540
" />
<path d="M37786 68210
L40187 68210
" />
<path d="M37786 70532
L37786 68210
" />
<path d="M37195 70532
L37786 70532
" />
<path d="M42589 68210
L40187 68210
" />
<path d="M42589 70532
L42589 68210
" />
<path d="M43179 70532
L42589 70532
" />
<path d="M37195 72304
L38612 72304
" />
<path d="M37195 71714
L37195 72304
" />
<path d="M38612 71714
L37195 71714
" />
<path d="M38612 72304
L38612 71714
" />
<path d="M41762 72304
L43179 72304
" />
<path d="M41762 71714
L41762 72304
" />
<path d="M43179 71714
L41762 71714
" />
<path d="M43179 72304
L43179 71714
" />
<path d="M39793 72304
L40581 72304
" />
<path d="M39793 71714
L39793 72304
" />
<path d="M40581 71714
L39793 71714
" />
<path d="M40581 72304
L40581 71714
" />
<path d="M37187 72312
L43187 72312
" />
<path d="M37187 67611
L37187 72312
" />
<path d="M43187 67611
L37187 67611
" />
<path d="M43187 72312
L43187 67611
" />
<path d="M50415 72540
L50415 71556
" />
<path d="M49431 72540
L50415 72540
" />
<path d="M44786 68210
L47187 68210
" />
<path d="M44786 70532
L44786 68210
" />
<path d="M44195 70532
L44786 70532
" />
<path d="M49589 68210
L47187 68210
" />
<path d="M49589 70532
L49589 68210
" />
<path d="M50179 70532
L49589 70532
" />
<path d="M44195 72304
L45612 72304
" />
<path d="M44195 71714
L44195 72304
" />
<path d="M45612 71714
L44195 71714
" />
<path d="M45612 72304
L45612 71714
" />
<path d="M48762 72304
L50179 72304
" />
<path d="M48762 71714
L48762 72304
" />
<path d="M50179 71714
L48762 71714
" />
<path d="M50179 72304
L50179 71714
" />
<path d="M46793 72304
L47581 72304
" />
<path d="M46793 71714
L46793 72304
" />
<path d="M47581 71714
L46793 71714
" />
<path d="M47581 72304
L47581 71714
" />
<path d="M44187 72312
L50187 72312
" />
<path d="M44187 67611
L44187 72312
" />
<path d="M50187 67611
L44187 67611
" />
<path d="M50187 72312
L50187 67611
" />
<path d="M57415 72540
L57415 71556
" />
<path d="M56431 72540
L57415 72540
" />
<path d="M51786 68210
L54187 68210
" />
<path d="M51786 70532
L51786 68210
" />
<path d="M51195 70532
L51786 70532
" />
<path d="M56589 68210
L54187 68210
" />
<path d="M56589 70532
L56589 68210
" />
<path d="M57179 70532
L56589 70532
" />
<path d="M51195 72304
L52612 72304
" />
<path d="M51195 71714
L51195 72304
" />
<path d="M52612 71714
L51195 71714
" />
<path d="M52612 72304
L52612 71714
" />
<path d="M55762 72304
L57179 72304
" />
<path d="M55762 71714
L55762 72304
" />
<path d="M57179 71714
L55762 71714
" />
<path d="M57179 72304
L57179 71714
" />
<path d="M53793 72304
L54581 72304
" />
<path d="M53793 71714
L53793 72304
" />
<path d="M54581 71714
L53793 71714
" />
<path d="M54581 72304
L54581 71714
" />
<path d="M51187 72312
L57187 72312
" />
<path d="M51187 67611
L51187 72312
" />
<path d="M57187 67611
L51187 67611
" />
<path d="M57187 72312
L57187 67611
" />
<path d="M64415 72540
L64415 71556
" />
<path d="M63431 72540
L64415 72540
" />
<path d="M58786 68210
L61187 68210
" />
<path d="M58786 70532
L58786 68210
" />
<path d="M58195 70532
L58786 70532
" />
<path d="M63589 68210
L61187 68210
" />
<path d="M63589 70532
L63589 68210
" />
<path d="M64179 70532
L63589 70532
" />
<path d="M58195 72304
L59612 72304
" />
<path d="M58195 71714
L58195 72304
" />
<path d="M59612 71714
L58195 71714
" />
<path d="M59612 72304
L59612 71714
" />
<path d="M62762 72304
L64179 72304
" />
<path d="M62762 71714
L62762 72304
" />
<path d="M64179 71714
L62762 71714
" />
<path d="M64179 72304
L64179 71714
" />
<path d="M60793 72304
L61581 72304
" />
<path d="M60793 71714
L60793 72304
" />
<path d="M61581 71714
L60793 71714
" />
<path d="M61581 72304
L61581 71714
" />
<path d="M58187 72312
L64187 72312
" />
<path d="M58187 67611
L58187 72312
" />
<path d="M64187 67611
L58187 67611
" />
<path d="M64187 72312
L64187 67611
" />
<path d="M71384 72540
L71384 71556
" />
<path d="M70400 72540
L71384 72540
" />
<path d="M65754 68210
L68156 68210
" />
<path d="M65754 70532
L65754 68210
" />
<path d="M65164 70532
L65754 70532
" />
<path d="M70557 68210
L68156 68210
" />
<path d="M70557 70532
L70557 68210
" />
<path d="M71148 70532
L70557 70532
" />
<path d="M65164 72304
L66581 72304
" />
<path d="M65164 71714
L65164 72304
" />
<path d="M66581 71714
L65164 71714
" />
<path d="M66581 72304
L66581 71714
" />
<path d="M69730 72304
L71148 72304
" />
<path d="M69730 71714
L69730 72304
" />
<path d="M71148 71714
L69730 71714
" />
<path d="M71148 72304
L71148 71714
" />
<path d="M67762 72304
L68549 72304
" />
<path d="M67762 71714
L67762 72304
" />
<path d="M68549 71714
L67762 71714
" />
<path d="M68549 72304
L68549 71714
" />
<path d="M65156 72312
L71156 72312
" />
<path d="M65156 67611
L65156 72312
" />
<path d="M71156 67611
L65156 67611
" />
<path d="M71156 72312
L71156 67611
" />
<path d="M78384 72540
L78384 71556
" />
<path d="M77400 72540
L78384 72540
" />
<path d="M72754 68210
L75156 68210
" />
<path d="M72754 70532
L72754 68210
" />
<path d="M72164 70532
L72754 70532
" />
<path d="M77557 68210
L75156 68210
" />
<path d="M77557 70532
L77557 68210
" />
<path d="M78148 70532
L77557 70532
" />
<path d="M72164 72304
L73581 72304
" />
<path d="M72164 71714
L72164 72304
" />
<path d="M73581 71714
L72164 71714
" />
<path d="M73581 72304
L73581 71714
" />
<path d="M76730 72304
L78148 72304
" />
<path d="M76730 71714
L76730 72304
" />
<path d="M78148 71714
L76730 71714
" />
<path d="M78148 72304
L78148 71714
" />
<path d="M74762 72304
L75549 72304
" />
<path d="M74762 71714
L74762 72304
" />
<path d="M75549 71714
L74762 71714
" />
<path d="M75549 72304
L75549 71714
" />
<path d="M72156 72312
L78156 72312
" />
<path d="M72156 67611
L72156 72312
" />
<path d="M78156 67611
L72156 67611
" />
<path d="M78156 72312
L78156 67611
" />
<path d="M85384 72540
L85384 71556
" />
<path d="M84400 72540
L85384 72540
" />
<path d="M79754 68210
L82156 68210
" />
<path d="M79754 70532
L79754 68210
" />
<path d="M79164 70532
L79754 70532
" />
<path d="M84557 68210
L82156 68210
" />
<path d="M84557 70532
L84557 68210
" />
<path d="M85148 70532
L84557 70532
" />
<path d="M79164 72304
L80581 72304
" />
<path d="M79164 71714
L79164 72304
" />
<path d="M80581 71714
L79164 71714
" />
<path d="M80581 72304
L80581 71714
" />
<path d="M83730 72304
L85148 72304
" />
<path d="M83730 71714
L83730 72304
" />
<path d="M85148 71714
L83730 71714
" />
<path d="M85148 72304
L85148 71714
" />
<path d="M81762 72304
L82549 72304
" />
<path d="M81762 71714
L81762 72304
" />
<path d="M82549 71714
L81762 71714
" />
<path d="M82549 72304
L82549 71714
" />
<path d="M79156 72312
L85156 72312
" />
<path d="M79156 67611
L79156 72312
" />
<path d="M85156 67611
L79156 67611
" />
<path d="M85156 72312
L85156 67611
" />
<path d="M34294.8 36179.2 A944.882 944.882 0.0 0 0 34294.6 37675.4 " />
<path d="M35449.2 37675.4 A944.882 944.882 0.0 0 0 35448.9 36179.2 " />
<path d="M36415 72540
L36415 71556
" />
<path d="M35431 72540
L36415 72540
" />
<path d="M30786 68210
L33187 68210
" />
<path d="M30786 70532
L30786 68210
" />
<path d="M30195 70532
L30786 70532
" />
<path d="M35589 68210
L33187 68210
" />
<path d="M35589 70532
L35589 68210
" />
<path d="M36179 70532
L35589 70532
" />
<path d="M30195 72304
L31612 72304
" />
<path d="M30195 71714
L30195 72304
" />
<path d="M31612 71714
L30195 71714
" />
<path d="M31612 72304
L31612 71714
" />
<path d="M34762 72304
L36179 72304
" />
<path d="M34762 71714
L34762 72304
" />
<path d="M36179 71714
L34762 71714
" />
<path d="M36179 72304
L36179 71714
" />
<path d="M32793 72304
L33581 72304
" />
<path d="M32793 71714
L32793 72304
" />
<path d="M33581 71714
L32793 71714
" />
<path d="M33581 72304
L33581 71714
" />
<path d="M30187 72312
L36187 72312
" />
<path d="M30187 67611
L30187 72312
" />
<path d="M36187 67611
L30187 67611
" />
<path d="M36187 72312
L36187 67611
" />
</g>
<g style="fill:#000000; fill-opacity:0.0; 
stroke:#000000; stroke-width:118.11; stroke-opacity:1; 
stroke-linecap:round; stroke-linejoin:round;">
<path d="M36164 40105
L36164 36475
" />
<path d="M42778 40105
L36164 40105
" />
<path d="M42778 35845
L42778 40105
" />
<path d="M36794 35845
L42778 35845
" />
<path d="M36164 36475
L36794 35845
" />
</g>
<g style="fill:#000000; fill-opacity:0.0; 
stroke:#000000; stroke-width:94.4882; stroke-opacity:1; 
stroke-linecap:round; stroke-linejoin:round;">
<path d="M37698 32448
L39037 32448
" />
<path d="M42045 32448
L40706 32448
" />
<path d="M42045 28940
L42045 32448
" />
<path d="M37698 28940
L37698 32448
" />
<path d="M38536 28102
L39037 28102
" />
<path d="M41206 28102
L40706 28102
" />
<path d="M41206 28102
L42045 28940
" />
<path d="M38536 28102
L37698 28940
" />
<path d="M44108 20391
L39408 20391
" />
<path d="M39408 20391
L39408 26391
" />
<path d="M39408 26391
L44108 26391
" />
<path d="M44108 26391
L44108 20391
" />
<path d="M44101 22997
L43510 22997
" />
<path d="M43510 22997
L43510 23784
" />
<path d="M43510 23784
L44101 23784
" />
<path d="M44101 23784
L44101 22997
" />
<path d="M44101 20399
L43510 20399
" />
<path d="M43510 20399
L43510 21816
" />
<path d="M43510 21816
L44101 21816
" />
<path d="M44101 21816
L44101 20399
" />
<path d="M44101 24965
L43510 24965
" />
<path d="M43510 24965
L43510 26383
" />
<path d="M43510 26383
L44101 26383
" />
<path d="M44101 26383
L44101 24965
" />
<path d="M42329 20399
L42329 20989
" />
<path d="M42329 20989
L40006 20989
" />
<path d="M40006 20989
L40006 23391
" />
<path d="M42329 26383
L42329 25792
" />
<path d="M42329 25792
L40006 25792
" />
<path d="M40006 25792
L40006 23391
" />
<path d="M44337 21147
L44337 20162
" />
<path d="M44337 20162
L43352 20162
" />
</g>
<g style="fill:#000000; fill-opacity:0.0; 
stroke:#000000; stroke-width:118.11; stroke-opacity:1; 
stroke-linecap:round; stroke-linejoin:round;">
<path d="M58733 24481
L56371 24481
" />
<path d="M59087 23773
L59087 24009
" />
<path d="M59323 23773
L59087 23773
" />
<path d="M59323 24009
L59323 23773
" />
<path d="M59087 24009
L59323 24009
" />
<path d="M55150 23694
L55150 18025
" />
<path d="M55150 13458
L55150 15820
" />
<path d="M57276 13458
L55150 13458
" />
<path d="M66725 15820
L66725 14009
" />
<path d="M66725 18025
L66725 23694
" />
<path d="M58733 24481
L58733 25505
" />
<path d="M58103 13694
L57276 13458
" />
<path d="M58969 13851
L58103 13694
" />
<path d="M59875 13969
L58969 13851
" />
<path d="M60938 14009
L59875 13969
" />
<path d="M66725 14009
L60938 14009
" />
</g>
<g style="fill:#000000; fill-opacity:0.0; 
stroke:#000000; stroke-width:94.4882; stroke-opacity:1; 
stroke-linecap:round; stroke-linejoin:round;">
<path d="M28811 41150
L28811 40496
" />
<path d="M28811 43244
L28811 42000
" />
<path d="M31331 40748
L31331 40496
" />
<path d="M31331 43244
L31331 42402
" />
<path d="M26827 43244
L26827 40496
" />
<path d="M33315 43244
L33315 40496
" />
<path d="M33315 40496
L26827 40496
" />
<path d="M33315 43244
L26827 43244
" />
<path d="M84570 54402
L85869 54402
" />
<path d="M84570 40308
L84570 54402
" />
<path d="M88743 40308
L84570 40308
" />
<path d="M88743 54402
L88743 40308
" />
<path d="M87444 54402
L88743 54402
" />
<path d="M87444.3 54403 A787.402 787.402 0.0 0 0 85869.5 54403 " />
<path d="M46844 29917
L46844 32232
" />
<path d="M47033 29917
L47033 32232
" />
<path d="M46938 29917
L46938 32232
" />
<path d="M51316 31075
L50513 31075
" />
<path d="M45427 31075
L46230 31075
" />
<path d="M50513 29917
L46230 29917
" />
<path d="M50513 32232
L50513 29917
" />
<path d="M46230 32232
L50513 32232
" />
<path d="M46230 29917
L46230 32232
" />
<path d="M55456 29113
L55456 30294
" />
<path d="M56441 32262
L59984 32262
" />
<path d="M60968 30294
L60968 29113
" />
<path d="M59984 27144
L56441 27144
" />
<path d="M69075 15956
L69075 17137
" />
<path d="M70059 19106
L73602 19106
" />
<path d="M74586 17137
L74586 15956
" />
<path d="M73602 13988
L70059 13988
" />
<path d="M90389 28654
L89341 28654
" />
<path d="M90389 27607
L90389 28654
" />
<path d="M88341 28654
L86294 28654
" />
<path d="M88341 26607
L88341 28654
" />
<path d="M90389 26607
L88341 26607
" />
<path d="M86294 28654
L86294 22560
" />
<path d="M90389 26607
L90389 22560
" />
<path d="M90389 22560
L86294 22560
" />
<path d="M36756 28571
L35764 28571
" />
<path d="M31386 28571
L32378 28571
" />
<path d="M36756 31532
L36756 28571
" />
<path d="M31386 33303
L31386 28571
" />
<path d="M31697 20717
L32886 20717
" />
<path d="M31697 23632
L32886 23632
" />
<path d="M32886 26206
L32886 18143
" />
<path d="M31697 18143
L35351 18143
" />
<path d="M31697 26206
L35351 26206
" />
<path d="M35351 26206
L35351 18143
" />
<path d="M31697 26206
L31697 18143
" />
<path d="M41039 19464
L42952 19464
" />
<path d="M41023 19456
L41023 18669
" />
<path d="M41023 17054
L42480 17054
" />
<path d="M41023 17881
L41023 17054
" />
<path d="M44124 34988
L44124 36288
" />
<path d="M72219 34988
L44124 34988
" />
<path d="M72219 39162
L72219 34988
" />
<path d="M44124 39162
L72219 39162
" />
<path d="M44124 37862
L44124 39162
" />
<path d="M44124.6 37862.8 A787.402 787.402 0.0 0 0 44124.6 36288 " />
<path d="M72019.1 52188 A787.402 787.402 0.0 0 0 72019.1 53762.8 " />
<path d="M72019 52188
L72019 47888
" />
<path d="M72019 47888
L43924 47888
" />
<path d="M43924 47888
L43924 58062
" />
<path d="M43924 58062
L72019 58062
" />
<path d="M72019 58062
L72019 53762
" />
<path d="M59590 41487.2 A1988.19 1988.19 0.0 0 0 59590 45463.6 " />
<path d="M64511.3 45463.6 A1988.19 1988.19 0.0 0 0 64511.3 41487.2 " />
<path d="M64511 41487
L59590 41487
" />
<path d="M64511 45463
L59590 45463
" />
<path d="M36902 23593
L36902 21585
" />
<path d="M38241 23593
L38241 21585
" />
<path d="M36902 23593
L38241 23593
" />
<path d="M73684 28847
L73684 25776
" />
<path d="M75259 28847
L75259 25776
" />
<path d="M73684 28847
L75259 28847
" />
<path d="M70784 28847
L70784 25776
" />
<path d="M72359 28847
L72359 25776
" />
<path d="M70784 28847
L72359 28847
" />
<path d="M68064 28847
L68064 25776
" />
<path d="M69639 28847
L69639 25776
" />
<path d="M68064 28847
L69639 28847
" />
<path d="M34868 44134
L35275 44134
" />
<path d="M34868 43016
L35275 43016
" />
<path d="M34868 42384
L35275 42384
" />
<path d="M34868 41266
L35275 41266
" />
<path d="M51112 43471
L51112 43879
" />
<path d="M52230 43471
L52230 43879
" />
<path d="M39330 18479
L39330 18071
" />
<path d="M38212 18479
L38212 18071
" />
<path d="M67630 31579
L67630 31171
" />
<path d="M66512 31579
L66512 31171
" />
<path d="M63930 27579
L63930 27171
" />
<path d="M62812 27579
L62812 27171
" />
<path d="M70030 31579
L70030 31171
" />
<path d="M68912 31579
L68912 31171
" />
<path d="M30675 37434
L30268 37434
" />
<path d="M30675 36316
L30268 36316
" />
<path d="M62730 65579
L62730 65171
" />
<path d="M61612 65579
L61612 65171
" />
<path d="M73612 65171
L73612 65579
" />
<path d="M74730 65171
L74730 65579
" />
<path d="M34730 65539
L34730 65131
" />
<path d="M33612 65539
L33612 65131
" />
<path d="M31652 65131
L31652 65539
" />
<path d="M32770 65131
L32770 65539
" />
<path d="M38612 65171
L38612 65579
" />
<path d="M39730 65171
L39730 65579
" />
<path d="M45612 65171
L45612 65579
" />
<path d="M46730 65171
L46730 65579
" />
<path d="M52612 65171
L52612 65579
" />
<path d="M53730 65171
L53730 65579
" />
<path d="M59612 65171
L59612 65579
" />
<path d="M60730 65171
L60730 65579
" />
<path d="M66612 65171
L66612 65579
" />
<path d="M67730 65171
L67730 65579
" />
<path d="M80612 65171
L80612 65579
" />
<path d="M81730 65171
L81730 65579
" />
<path d="M41730 65579
L41730 65171
" />
<path d="M40612 65579
L40612 65171
" />
<path d="M48730 65579
L48730 65171
" />
<path d="M47612 65579
L47612 65171
" />
<path d="M55730 65579
L55730 65171
" />
<path d="M54612 65579
L54612 65171
" />
<path d="M69730 65579
L69730 65171
" />
<path d="M68612 65579
L68612 65171
" />
<path d="M76730 65579
L76730 65171
" />
<path d="M75612 65579
L75612 65171
" />
<path d="M83730 65579
L83730 65171
" />
<path d="M82612 65579
L82612 65171
" />
<path d="M32968 63534
L33375 63534
" />
<path d="M32968 62416
L33375 62416
" />
<path d="M67968 63534
L68375 63534
" />
<path d="M67968 62416
L68375 62416
" />
<path d="M60968 63534
L61375 63534
" />
<path d="M60968 62416
L61375 62416
" />
<path d="M39968 63534
L40375 63534
" />
<path d="M39968 62416
L40375 62416
" />
<path d="M46968 63534
L47375 63534
" />
<path d="M46968 62416
L47375 62416
" />
<path d="M53968 63534
L54375 63534
" />
<path d="M53968 62416
L54375 62416
" />
<path d="M74968 63534
L75375 63534
" />
<path d="M74968 62416
L75375 62416
" />
<path d="M81968 63534
L82375 63534
" />
<path d="M81968 62416
L82375 62416
" />
<path d="M39575 14916
L39168 14916
" />
<path d="M39575 16034
L39168 16034
" />
<path d="M54612 43271
L54612 43679
" />
<path d="M55730 43271
L55730 43679
" />
<path d="M82051 59505
L82458 59505
" />
<path d="M82051 58387
L82458 58387
" />
<path d="M30268 35434
L30675 35434
" />
<path d="M30268 34316
L30675 34316
" />
<path d="M68412 43071
L68412 43479
" />
<path d="M69530 43071
L69530 43479
" />
<path d="M29777 18571
L28792 18571
" />
<path d="M29777 19555
L29777 18571
" />
<path d="M25446 28138
L25446 23768
" />
<path d="M27769 28138
L25446 28138
" />
<path d="M27769 28728
L27769 28138
" />
<path d="M25446 19398
L25446 23768
" />
<path d="M27769 19398
L25446 19398
" />
<path d="M27769 18807
L27769 19398
" />
<path d="M29541 28728
L29541 27311
" />
<path d="M28950 28728
L29541 28728
" />
<path d="M28950 27311
L28950 28728
" />
<path d="M29541 27311
L28950 27311
" />
<path d="M29541 20224
L29541 18807
" />
<path d="M28950 20224
L29541 20224
" />
<path d="M28950 18807
L28950 20224
" />
<path d="M29541 18807
L28950 18807
" />
<path d="M29541 26130
L29541 21405
" />
<path d="M28950 26130
L29541 26130
" />
<path d="M28950 21405
L28950 26130
" />
<path d="M29541 21405
L28950 21405
" />
<path d="M29548 28736
L29548 18799
" />
<path d="M24848 28736
L29548 28736
" />
<path d="M24848 18799
L24848 28736
" />
<path d="M29548 18799
L24848 18799
" />
<path d="M32406 14450
L32406 14843
" />
<path d="M32209 14647
L32603 14647
" />
<path d="M32792 16816
L33630 17654
" />
<path d="M32792 14934
L33630 14095
" />
<path d="M32792 14934
L32792 15040
" />
<path d="M32792 16816
L32792 16710
" />
<path d="M33630 17654
L36351 17654
" />
<path d="M33630 14095
L36351 14095
" />
<path d="M36351 14095
L36351 15040
" />
<path d="M36351 17654
L36351 16710
" />
<path d="M69664 21620
L69664 21213
" />
<path d="M68546 21620
L68546 21213
" />
<g >
</g>
<g >
</g>
<g >
</g>
<g >
</g>
<g >
</g>
<g >
</g>
<g >
</g>
<g >
</g>
<g >
</g>
<g >
</g>
<g >
</g>
<g >
</g>
<g >
</g>
<g >
</g>
<g >
</g>
<g >
</g>
<g >
</g>
<g >
</g>
<g >
</g>
<g >
</g>
<g >
</g>
<g >
</g>
<g >
</g>
<g >
</g>
<g >
</g>
<g >
</g>
<g >
</g>
<g >
</g>
<g >
</g>
<g >
</g>
<g >
</g>
<g >
</g>
<g >
</g>
<g >
</g>
<g >
</g>
<g >
</g>
<g >
</g>
<g >
</g>
<g >
</g>
<g >
</g>
<g >
</g>
<g >
</g>
<g >
</g>
<g >
</g>
<g >
</g>
<g >
</g>
<g >
</g>
<g >
</g>
<g >
</g>
<g >
</g>
<g >
</g>
<g >
</g>
<g >
</g>
<g >
</g>
<g >
</g>
<g >
</g>
<g >
</g>
<g >
</g>
<g >
</g>
<g >
</g>
<g >
</g>
<g >
</g>
<g >
</g>
<g >
</g>
<g >
</g>
<g >
</g>
<g >
</g>
<g >
</g>
<g >
</g>
<g >
</g>
<g >
</g>
<g >
</g>
<g >
</g>
</g>
<g style="fill:#000000; fill-opacity:0.0; 
stroke:#000000; stroke-width:118.11; stroke-opacity:1; 
stroke-linecap:round; stroke-linejoin:round;">
<path d="M80131 45941
L80693 45941
L80806 45978
L80881 46053
L80918 46166
L80918 46241
" />
<path d="M80206 45603
L80168 45566
L80131 45491
L80131 45303
L80168 45228
L80206 45191
L80281 45153
L80356 45153
L80468 45191
L80918 45641
L80918 45153
" />
<path d="M45013 17408
L45575 17408
L45688 17446
L45763 17521
L45800 17633
L45800 17708
" />
<path d="M45800 16621
L45800 17071
" />
<path d="M45800 16846
L45013 16846
L45125 16921
L45200 16996
L45238 17071
" />
<path d="M33950 49100
L33575 49362
" />
<path d="M33950 49549
L33162 49549
L33162 49250
L33200 49175
L33237 49137
L33312 49100
L33425 49100
L33500 49137
L33537 49175
L33575 49250
L33575 49549
" />
<path d="M33162 48875
L33950 48612
L33162 48350
" />
<path d="M33950 47675
L33950 48125
" />
<path d="M33950 47900
L33162 47900
L33275 47975
L33350 48050
L33387 48125
" />
<path d="M36971 66244
L36971 66881
L37009 66956
L37046 66994
L37121 67031
L37271 67031
L37346 66994
L37384 66956
L37421 66881
L37421 66244
" />
<path d="M38134 66506
L38134 67031
" />
<path d="M37946 66206
L37759 66769
L38246 66769
" />
<path d="M43971 66244
L43971 66881
L44009 66956
L44046 66994
L44121 67031
L44271 67031
L44346 66994
L44384 66956
L44421 66881
L44421 66244
" />
<path d="M45171 66244
L44796 66244
L44759 66619
L44796 66581
L44871 66544
L45059 66544
L45134 66581
L45171 66619
L45209 66694
L45209 66881
L45171 66956
L45134 66994
L45059 67031
L44871 67031
L44796 66994
L44759 66956
" />
<path d="M50971 66244
L50971 66881
L51009 66956
L51046 66994
L51121 67031
L51271 67031
L51346 66994
L51384 66956
L51421 66881
L51421 66244
" />
<path d="M52134 66244
L51984 66244
L51909 66281
L51871 66319
L51796 66431
L51759 66581
L51759 66881
L51796 66956
L51834 66994
L51909 67031
L52059 67031
L52134 66994
L52171 66956
L52209 66881
L52209 66694
L52171 66619
L52134 66581
L52059 66544
L51909 66544
L51834 66581
L51796 66619
L51759 66694
" />
<path d="M57971 66244
L57971 66881
L58009 66956
L58046 66994
L58121 67031
L58271 67031
L58346 66994
L58384 66956
L58421 66881
L58421 66244
" />
<path d="M58721 66244
L59246 66244
L58909 67031
" />
<path d="M64971 66244
L64971 66881
L65009 66956
L65046 66994
L65121 67031
L65271 67031
L65346 66994
L65384 66956
L65421 66881
L65421 66244
" />
<path d="M65909 66581
L65834 66544
L65796 66506
L65759 66431
L65759 66394
L65796 66319
L65834 66281
L65909 66244
L66059 66244
L66134 66281
L66171 66319
L66209 66394
L66209 66431
L66171 66506
L66134 66544
L66059 66581
L65909 66581
L65834 66619
L65796 66656
L65759 66731
L65759 66881
L65796 66956
L65834 66994
L65909 67031
L66059 67031
L66134 66994
L66171 66956
L66209 66881
L66209 66731
L66171 66656
L66134 66619
L66059 66581
" />
<path d="M71971 66244
L71971 66881
L72009 66956
L72046 66994
L72121 67031
L72271 67031
L72346 66994
L72384 66956
L72421 66881
L72421 66244
" />
<path d="M72834 67031
L72984 67031
L73059 66994
L73096 66956
L73171 66844
L73209 66694
L73209 66394
L73171 66319
L73134 66281
L73059 66244
L72909 66244
L72834 66281
L72796 66319
L72759 66394
L72759 66581
L72796 66656
L72834 66694
L72909 66731
L73059 66731
L73134 66694
L73171 66656
L73209 66581
" />
<path d="M78397 66244
L78397 66881
L78434 66956
L78472 66994
L78546 67031
L78696 67031
L78771 66994
L78809 66956
L78846 66881
L78846 66244
" />
<path d="M79634 67031
L79184 67031
" />
<path d="M79409 67031
L79409 66244
L79334 66356
L79259 66431
L79184 66469
" />
<path d="M80121 66244
L80196 66244
L80271 66281
L80309 66319
L80346 66394
L80384 66544
L80384 66731
L80346 66881
L80309 66956
L80271 66994
L80196 67031
L80121 67031
L80046 66994
L80009 66956
L79971 66881
L79934 66731
L79934 66544
L79971 66394
L80009 66319
L80046 66281
L80121 66244
" />
<path d="M33120 37302
L33495 37302
" />
<path d="M32708 37564
L33120 37302
L32708 37039
" />
<path d="M32783 36814
L32745 36777
L32708 36702
L32708 36514
L32745 36439
L32783 36402
L32858 36364
L32933 36364
L33045 36402
L33495 36852
L33495 36364
" />
<path d="M29971 66244
L29971 66881
L30009 66956
L30046 66994
L30121 67031
L30271 67031
L30346 66994
L30384 66956
L30421 66881
L30421 66244
" />
<path d="M30721 66244
L31209 66244
L30946 66544
L31059 66544
L31134 66581
L31171 66619
L31209 66694
L31209 66881
L31171 66956
L31134 66994
L31059 67031
L30834 67031
L30759 66994
L30721 66956
" />
<path d="M38497 34626
L38497 35264
L38534 35339
L38572 35376
L38646 35414
L38796 35414
L38871 35376
L38909 35339
L38946 35264
L38946 34626
" />
<path d="M39734 35414
L39284 35414
" />
<path d="M39509 35414
L39509 34626
L39434 34739
L39359 34814
L39284 34851
" />
<path d="M40446 34626
L40071 34626
L40034 35001
L40071 34964
L40146 34926
L40334 34926
L40409 34964
L40446 35001
L40484 35076
L40484 35264
L40446 35339
L40409 35376
L40334 35414
L40146 35414
L40071 35376
L40034 35339
" />
<path d="M43066 30406
L43103 30444
L43141 30556
L43141 30631
L43103 30744
L43028 30819
L42954 30856
L42804 30894
L42691 30894
L42541 30856
L42466 30819
L42391 30744
L42354 30631
L42354 30556
L42391 30444
L42429 30406
" />
<path d="M42429 30106
L42391 30069
L42354 29994
L42354 29806
L42391 29731
L42429 29694
L42504 29656
L42579 29656
L42691 29694
L43141 30144
L43141 29656
" />
<path d="M44910 24009
L44948 23897
L44985 23859
L45060 23822
L45173 23822
L45248 23859
L45285 23897
L45323 23972
L45323 24272
L44535 24272
L44535 24009
L44573 23934
L44610 23897
L44685 23859
L44760 23859
L44835 23897
L44873 23934
L44910 24009
L44910 24272
" />
<path d="M44535 23597
L44535 23147
" />
<path d="M45323 23372
L44535 23372
" />
<path d="M45323 22472
L45323 22922
" />
<path d="M45323 22697
L44535 22697
L44648 22772
L44723 22847
L44760 22922
" />
<path d="M29996 44463
L29921 44425
L29846 44350
L29734 44238
L29659 44200
L29584 44200
" />
<path d="M29621 44388
L29546 44350
L29471 44275
L29434 44125
L29434 43863
L29471 43713
L29546 43638
L29621 43600
L29771 43600
L29846 43638
L29921 43713
L29959 43863
L29959 44125
L29921 44275
L29846 44350
L29771 44388
L29621 44388
" />
<path d="M30259 43675
L30296 43638
L30371 43600
L30559 43600
L30634 43638
L30671 43675
L30709 43750
L30709 43825
L30671 43938
L30221 44388
L30709 44388
" />
<path d="M90725 53530
L91363 53530
L91438 53493
L91475 53455
L91513 53380
L91513 53230
L91475 53155
L91438 53118
L91363 53080
L90725 53080
" />
<path d="M91513 52293
L91513 52743
" />
<path d="M91513 52518
L90725 52518
L90838 52593
L90913 52668
L90950 52743
" />
<path d="M90725 52030
L90725 51543
L91025 51805
L91025 51693
L91063 51618
L91100 51580
L91175 51543
L91363 51543
L91438 51580
L91475 51618
L91513 51693
L91513 51918
L91475 51993
L91438 52030
" />
<path d="M47790 29534
L47790 28746
L47978 28746
L48090 28784
L48165 28859
L48203 28934
L48240 29084
L48240 29196
L48203 29346
L48165 29421
L48090 29496
L47978 29534
L47790 29534
" />
<path d="M48990 29534
L48540 29534
" />
<path d="M48765 29534
L48765 28746
L48690 28859
L48615 28934
L48540 28971
" />
<path d="M44165 29778
L44165 28990
" />
<path d="M44615 29778
L44278 29328
" />
<path d="M44615 28990
L44165 29440
" />
<path d="M57162 33368
L57275 33406
L57462 33406
L57537 33368
L57575 33331
L57612 33256
L57612 33181
L57575 33106
L57537 33068
L57462 33031
L57312 32993
L57237 32956
L57200 32919
L57162 32844
L57162 32769
L57200 32694
L57237 32656
L57312 32619
L57500 32619
L57612 32656
" />
<path d="M57875 32619
L58062 33406
L58212 32844
L58362 33406
L58550 32619
" />
<path d="M58812 32694
L58850 32656
L58925 32619
L59112 32619
L59187 32656
L59225 32694
L59262 32769
L59262 32844
L59225 32956
L58775 33406
L59262 33406
" />
<path d="M70781 20212
L70893 20249
L71081 20249
L71156 20212
L71193 20174
L71231 20099
L71231 20024
L71193 19949
L71156 19912
L71081 19874
L70931 19837
L70856 19799
L70818 19762
L70781 19687
L70781 19612
L70818 19537
L70856 19499
L70931 19462
L71118 19462
L71231 19499
" />
<path d="M71493 19462
L71680 20249
L71830 19687
L71980 20249
L72168 19462
" />
<path d="M72880 20249
L72430 20249
" />
<path d="M72655 20249
L72655 19462
L72580 19574
L72505 19649
L72430 19687
" />
<path d="M87760 29798
L87760 29011
L88060 29011
L88135 29048
L88173 29086
L88210 29161
L88210 29273
L88173 29348
L88135 29386
L88060 29423
L87760 29423
" />
<path d="M88960 29798
L88510 29798
" />
<path d="M88735 29798
L88735 29011
L88660 29123
L88585 29198
L88510 29236
" />
<path d="M30097 30675
L30734 30675
L30809 30637
L30847 30600
L30884 30525
L30884 30375
L30847 30300
L30809 30262
L30734 30225
L30097 30225
" />
<path d="M30884 29438
L30884 29887
" />
<path d="M30884 29662
L30097 29662
L30209 29737
L30284 29812
L30322 29887
" />
<path d="M30478 22775
L31115 22775
L31190 22737
L31228 22700
L31265 22625
L31265 22475
L31228 22400
L31190 22362
L31115 22325
L30478 22325
" />
<path d="M30553 21987
L30515 21950
L30478 21875
L30478 21687
L30515 21613
L30553 21575
L30628 21538
L30703 21538
L30815 21575
L31265 22025
L31265 21538
" />
<path d="M41896 16806
L41821 16769
L41746 16694
L41634 16581
L41559 16544
L41484 16544
" />
<path d="M41521 16731
L41446 16694
L41371 16619
L41334 16469
L41334 16206
L41371 16056
L41446 15981
L41521 15944
L41671 15944
L41746 15981
L41821 16056
L41859 16206
L41859 16469
L41821 16619
L41746 16694
L41671 16731
L41521 16731
" />
<path d="M42609 16731
L42159 16731
" />
<path d="M42384 16731
L42384 15944
L42309 16056
L42234 16131
L42159 16169
" />
<path d="M42858 38050
L43496 38050
L43571 38012
L43608 37975
L43646 37900
L43646 37750
L43608 37675
L43571 37637
L43496 37600
L42858 37600
" />
<path d="M43646 36812
L43646 37262
" />
<path d="M43646 37037
L42858 37037
L42971 37112
L43046 37187
L43083 37262
" />
<path d="M43121 36138
L43646 36138
" />
<path d="M42821 36325
L43383 36513
L43383 36025
" />
<path d="M72375 53950
L73012 53950
L73087 53912
L73125 53875
L73162 53800
L73162 53650
L73125 53575
L73087 53537
L73012 53500
L72375 53500
" />
<path d="M73162 52712
L73162 53162
" />
<path d="M73162 52937
L72375 52937
L72487 53012
L72562 53087
L72600 53162
" />
<path d="M73162 51963
L73162 52413
" />
<path d="M73162 52188
L72375 52188
L72487 52263
L72562 52338
L72600 52413
" />
<path d="M61675 46232
L61675 46607
" />
<path d="M61413 45819
L61675 46232
L61938 45819
" />
<path d="M62613 46607
L62163 46607
" />
<path d="M62388 46607
L62388 45819
L62313 45932
L62238 46007
L62163 46044
" />
<path d="M36471 22993
L35684 22993
L35684 22806
L35721 22693
L35796 22618
L35871 22581
L36021 22543
L36133 22543
L36283 22581
L36358 22618
L36433 22693
L36471 22806
L36471 22993
" />
<path d="M35758 22243
L35721 22206
L35684 22131
L35684 21943
L35721 21868
L35758 21831
L35833 21793
L35908 21793
L36021 21831
L36471 22281
L36471 21793
" />
<path d="M73253 27656
L72465 27656
L72465 27469
L72503 27356
L72578 27281
L72653 27244
L72803 27206
L72915 27206
L73065 27244
L73140 27281
L73215 27356
L73253 27469
L73253 27656
" />
<path d="M72728 26531
L73253 26531
" />
<path d="M72428 26719
L72990 26906
L72990 26419
" />
<path d="M70353 27656
L69565 27656
L69565 27469
L69603 27356
L69678 27281
L69753 27244
L69903 27206
L70015 27206
L70165 27244
L70240 27281
L70315 27356
L70353 27469
L70353 27656
" />
<path d="M69565 26944
L69565 26456
L69865 26719
L69865 26606
L69903 26531
L69940 26494
L70015 26456
L70203 26456
L70278 26494
L70315 26531
L70353 26606
L70353 26831
L70315 26906
L70278 26944
" />
<path d="M67633 27656
L66845 27656
L66845 27469
L66883 27356
L66958 27281
L67033 27244
L67183 27206
L67295 27206
L67445 27244
L67520 27281
L67595 27356
L67633 27469
L67633 27656
" />
<path d="M66845 26494
L66845 26869
L67220 26906
L67183 26869
L67145 26794
L67145 26606
L67183 26531
L67220 26494
L67295 26456
L67483 26456
L67558 26494
L67595 26531
L67633 26606
L67633 26794
L67595 26869
L67558 26906
" />
<path d="M34940 42632
L34678 42257
" />
<path d="M34490 42632
L34490 41845
L34790 41845
L34865 41882
L34903 41920
L34940 41995
L34940 42107
L34903 42182
L34865 42219
L34790 42257
L34490 42257
" />
<path d="M35203 41845
L35728 41845
L35390 42632
" />
<path d="M34940 40882
L34678 40507
" />
<path d="M34490 40882
L34490 40095
L34790 40095
L34865 40132
L34903 40170
L34940 40245
L34940 40357
L34903 40432
L34865 40469
L34790 40507
L34490 40507
" />
<path d="M35615 40095
L35465 40095
L35390 40132
L35353 40170
L35278 40282
L35240 40432
L35240 40732
L35278 40807
L35315 40844
L35390 40882
L35540 40882
L35615 40844
L35653 40807
L35690 40732
L35690 40544
L35653 40469
L35615 40432
L35540 40394
L35390 40394
L35315 40432
L35278 40469
L35240 40544
" />
<path d="M53327 43806
L52952 44069
" />
<path d="M53327 44256
L52539 44256
L52539 43956
L52577 43881
L52614 43844
L52689 43806
L52802 43806
L52877 43844
L52914 43881
L52952 43956
L52952 44256
" />
<path d="M52877 43356
L52839 43431
L52802 43469
L52727 43506
L52689 43506
L52614 43469
L52577 43431
L52539 43356
L52539 43206
L52577 43131
L52614 43094
L52689 43056
L52727 43056
L52802 43094
L52839 43131
L52877 43206
L52877 43356
L52914 43431
L52952 43469
L53027 43506
L53177 43506
L53252 43469
L53289 43431
L53327 43356
L53327 43206
L53289 43131
L53252 43094
L53177 43056
L53027 43056
L52952 43094
L52914 43131
L52877 43206
" />
<path d="M37828 18406
L37453 18669
" />
<path d="M37828 18856
L37041 18856
L37041 18556
L37078 18481
L37116 18444
L37191 18406
L37303 18406
L37378 18444
L37416 18481
L37453 18556
L37453 18856
" />
<path d="M37828 17656
L37828 18106
" />
<path d="M37828 17881
L37041 17881
L37153 17956
L37228 18031
L37266 18106
" />
<path d="M66128 31506
L65753 31769
" />
<path d="M66128 31956
L65341 31956
L65341 31656
L65378 31581
L65416 31544
L65491 31506
L65603 31506
L65678 31544
L65716 31581
L65753 31656
L65753 31956
" />
<path d="M65603 30831
L66128 30831
" />
<path d="M65303 31019
L65866 31206
L65866 30719
" />
<path d="M62428 27506
L62053 27769
" />
<path d="M62428 27956
L61641 27956
L61641 27656
L61678 27581
L61716 27544
L61791 27506
L61903 27506
L61978 27544
L62016 27581
L62053 27656
L62053 27956
" />
<path d="M61641 26794
L61641 27169
L62016 27206
L61978 27169
L61941 27094
L61941 26906
L61978 26831
L62016 26794
L62091 26756
L62278 26756
L62353 26794
L62391 26831
L62428 26906
L62428 27094
L62391 27169
L62353 27206
" />
<path d="M68528 31506
L68153 31769
" />
<path d="M68528 31956
L67741 31956
L67741 31656
L67778 31581
L67816 31544
L67891 31506
L68003 31506
L68078 31544
L68116 31581
L68153 31656
L68153 31956
" />
<path d="M67741 31244
L67741 30756
L68041 31019
L68041 30906
L68078 30831
L68116 30794
L68191 30756
L68378 30756
L68453 30794
L68491 30831
L68528 30906
L68528 31131
L68491 31206
L68453 31244
" />
<path d="M30340 38530
L30078 38155
" />
<path d="M29890 38530
L29890 37743
L30190 37743
L30265 37780
L30303 37818
L30340 37893
L30340 38005
L30303 38080
L30265 38118
L30190 38155
L29890 38155
" />
<path d="M30640 37818
L30678 37780
L30753 37743
L30940 37743
L31015 37780
L31053 37818
L31090 37893
L31090 37968
L31053 38080
L30603 38530
L31090 38530
" />
<path d="M64128 65881
L64128 66256
L63340 66256
" />
<path d="M64128 65206
L64128 65656
" />
<path d="M64128 65431
L63340 65431
L63453 65506
L63528 65581
L63565 65656
" />
<path d="M63340 64944
L63340 64456
L63640 64719
L63640 64606
L63678 64531
L63715 64494
L63790 64456
L63978 64456
L64053 64494
L64090 64531
L64128 64606
L64128 64831
L64090 64906
L64053 64944
" />
<path d="M73128 65506
L73128 65881
L72340 65881
" />
<path d="M72340 65319
L72340 64794
L73128 65131
" />
<path d="M36128 65406
L36128 65781
L35340 65781
" />
<path d="M36128 65106
L36128 64956
L36090 64881
L36053 64844
L35940 64769
L35790 64731
L35490 64731
L35415 64769
L35378 64806
L35340 64881
L35340 65031
L35378 65106
L35415 65144
L35490 65181
L35678 65181
L35753 65144
L35790 65106
L35828 65031
L35828 64881
L35790 64806
L35753 64769
L35678 64731
" />
<path d="M30928 65466
L30928 65841
L30140 65841
" />
<path d="M30928 64791
L30928 65241
" />
<path d="M30928 65016
L30140 65016
L30253 65091
L30328 65166
L30365 65241
" />
<path d="M38028 65506
L38028 65881
L37240 65881
" />
<path d="M37315 65281
L37278 65244
L37240 65169
L37240 64981
L37278 64906
L37315 64869
L37390 64831
L37465 64831
L37578 64869
L38028 65319
L38028 64831
" />
<path d="M45028 65506
L45028 65881
L44240 65881
" />
<path d="M44240 65319
L44240 64831
L44540 65094
L44540 64981
L44578 64906
L44615 64869
L44690 64831
L44878 64831
L44953 64869
L44990 64906
L45028 64981
L45028 65206
L44990 65281
L44953 65319
" />
<path d="M52128 65506
L52128 65881
L51340 65881
" />
<path d="M51603 64906
L52128 64906
" />
<path d="M51303 65094
L51865 65281
L51865 64794
" />
<path d="M59128 65506
L59128 65881
L58340 65881
" />
<path d="M58340 64869
L58340 65244
L58715 65281
L58678 65244
L58640 65169
L58640 64981
L58678 64906
L58715 64869
L58790 64831
L58978 64831
L59053 64869
L59090 64906
L59128 64981
L59128 65169
L59090 65244
L59053 65281
" />
<path d="M66128 65506
L66128 65881
L65340 65881
" />
<path d="M65340 64906
L65340 65056
L65378 65131
L65415 65169
L65528 65244
L65678 65281
L65978 65281
L66053 65244
L66090 65206
L66128 65131
L66128 64981
L66090 64906
L66053 64869
L65978 64831
L65790 64831
L65715 64869
L65678 64906
L65640 64981
L65640 65131
L65678 65206
L65715 65244
L65790 65281
" />
<path d="M80128 65506
L80128 65881
L79340 65881
" />
<path d="M79678 65131
L79640 65206
L79603 65244
L79528 65281
L79490 65281
L79415 65244
L79378 65206
L79340 65131
L79340 64981
L79378 64906
L79415 64869
L79490 64831
L79528 64831
L79603 64869
L79640 64906
L79678 64981
L79678 65131
L79715 65206
L79753 65244
L79828 65281
L79978 65281
L80053 65244
L80090 65206
L80128 65131
L80128 64981
L80090 64906
L80053 64869
L79978 64831
L79828 64831
L79753 64869
L79715 64906
L79678 64981
" />
<path d="M43128 65881
L43128 66256
L42340 66256
" />
<path d="M43128 65206
L43128 65656
" />
<path d="M43128 65431
L42340 65431
L42453 65506
L42528 65581
L42565 65656
" />
<path d="M42340 64719
L42340 64644
L42378 64569
L42415 64531
L42490 64494
L42640 64456
L42828 64456
L42978 64494
L43053 64531
L43090 64569
L43128 64644
L43128 64719
L43090 64794
L43053 64831
L42978 64869
L42828 64906
L42640 64906
L42490 64869
L42415 64831
L42378 64794
L42340 64719
" />
<path d="M50028 65881
L50028 66256
L49240 66256
" />
<path d="M50028 65206
L50028 65656
" />
<path d="M50028 65431
L49240 65431
L49353 65506
L49428 65581
L49465 65656
" />
<path d="M50028 64456
L50028 64906
" />
<path d="M50028 64681
L49240 64681
L49353 64756
L49428 64831
L49465 64906
" />
<path d="M57128 65881
L57128 66256
L56340 66256
" />
<path d="M57128 65206
L57128 65656
" />
<path d="M57128 65431
L56340 65431
L56453 65506
L56528 65581
L56565 65656
" />
<path d="M56415 64906
L56378 64869
L56340 64794
L56340 64606
L56378 64531
L56415 64494
L56490 64456
L56565 64456
L56678 64494
L57128 64944
L57128 64456
" />
<path d="M71028 65881
L71028 66256
L70240 66256
" />
<path d="M71028 65206
L71028 65656
" />
<path d="M71028 65431
L70240 65431
L70353 65506
L70428 65581
L70465 65656
" />
<path d="M70503 64531
L71028 64531
" />
<path d="M70203 64719
L70765 64906
L70765 64419
" />
<path d="M78028 65881
L78028 66256
L77240 66256
" />
<path d="M78028 65206
L78028 65656
" />
<path d="M78028 65431
L77240 65431
L77353 65506
L77428 65581
L77465 65656
" />
<path d="M77240 64494
L77240 64869
L77615 64906
L77578 64869
L77540 64794
L77540 64606
L77578 64531
L77615 64494
L77690 64456
L77878 64456
L77953 64494
L77990 64531
L78028 64606
L78028 64794
L77990 64869
L77953 64906
" />
<path d="M85128 65881
L85128 66256
L84340 66256
" />
<path d="M85128 65206
L85128 65656
" />
<path d="M85128 65431
L84340 65431
L84453 65506
L84528 65581
L84565 65656
" />
<path d="M84340 64531
L84340 64681
L84378 64756
L84415 64794
L84528 64869
L84678 64906
L84978 64906
L85053 64869
L85090 64831
L85128 64756
L85128 64606
L85090 64531
L85053 64494
L84978 64456
L84790 64456
L84715 64494
L84678 64531
L84640 64606
L84640 64756
L84678 64831
L84715 64869
L84790 64906
" />
<path d="M33040 61957
L33003 61994
L32890 62032
L32815 62032
L32703 61994
L32628 61919
L32590 61844
L32553 61694
L32553 61582
L32590 61432
L32628 61357
L32703 61282
L32815 61245
L32890 61245
L33003 61282
L33040 61320
" />
<path d="M33753 61245
L33378 61245
L33340 61619
L33378 61582
L33453 61544
L33640 61544
L33715 61582
L33753 61619
L33790 61694
L33790 61882
L33753 61957
L33715 61994
L33640 62032
L33453 62032
L33378 61994
L33340 61957
" />
<path d="M67665 61957
L67628 61994
L67515 62032
L67440 62032
L67328 61994
L67253 61919
L67215 61844
L67178 61694
L67178 61582
L67215 61432
L67253 61357
L67328 61282
L67440 61245
L67515 61245
L67628 61282
L67665 61320
" />
<path d="M68415 62032
L67965 62032
" />
<path d="M68190 62032
L68190 61245
L68115 61357
L68040 61432
L67965 61469
" />
<path d="M68903 61245
L68978 61245
L69053 61282
L69090 61320
L69128 61395
L69165 61544
L69165 61732
L69128 61882
L69090 61957
L69053 61994
L68978 62032
L68903 62032
L68828 61994
L68790 61957
L68753 61882
L68715 61732
L68715 61544
L68753 61395
L68790 61320
L68828 61282
L68903 61245
" />
<path d="M61040 61957
L61003 61994
L60890 62032
L60815 62032
L60703 61994
L60628 61919
L60590 61844
L60553 61694
L60553 61582
L60590 61432
L60628 61357
L60703 61282
L60815 61245
L60890 61245
L61003 61282
L61040 61320
" />
<path d="M61415 62032
L61565 62032
L61640 61994
L61678 61957
L61753 61844
L61790 61694
L61790 61395
L61753 61320
L61715 61282
L61640 61245
L61490 61245
L61415 61282
L61378 61320
L61340 61395
L61340 61582
L61378 61657
L61415 61694
L61490 61732
L61640 61732
L61715 61694
L61753 61657
L61790 61582
" />
<path d="M40040 61957
L40003 61994
L39890 62032
L39815 62032
L39703 61994
L39628 61919
L39590 61844
L39553 61694
L39553 61582
L39590 61432
L39628 61357
L39703 61282
L39815 61245
L39890 61245
L40003 61282
L40040 61320
" />
<path d="M40715 61245
L40565 61245
L40490 61282
L40453 61320
L40378 61432
L40340 61582
L40340 61882
L40378 61957
L40415 61994
L40490 62032
L40640 62032
L40715 61994
L40753 61957
L40790 61882
L40790 61694
L40753 61619
L40715 61582
L40640 61544
L40490 61544
L40415 61582
L40378 61619
L40340 61694
" />
<path d="M47040 61957
L47003 61994
L46890 62032
L46815 62032
L46703 61994
L46628 61919
L46590 61844
L46553 61694
L46553 61582
L46590 61432
L46628 61357
L46703 61282
L46815 61245
L46890 61245
L47003 61282
L47040 61320
" />
<path d="M47303 61245
L47828 61245
L47490 62032
" />
<path d="M54040 61957
L54003 61994
L53890 62032
L53815 62032
L53703 61994
L53628 61919
L53590 61844
L53553 61694
L53553 61582
L53590 61432
L53628 61357
L53703 61282
L53815 61245
L53890 61245
L54003 61282
L54040 61320
" />
<path d="M54490 61582
L54415 61544
L54378 61507
L54340 61432
L54340 61395
L54378 61320
L54415 61282
L54490 61245
L54640 61245
L54715 61282
L54753 61320
L54790 61395
L54790 61432
L54753 61507
L54715 61544
L54640 61582
L54490 61582
L54415 61619
L54378 61657
L54340 61732
L54340 61882
L54378 61957
L54415 61994
L54490 62032
L54640 62032
L54715 61994
L54753 61957
L54790 61882
L54790 61732
L54753 61657
L54715 61619
L54640 61582
" />
<path d="M74665 61957
L74628 61994
L74515 62032
L74440 62032
L74328 61994
L74253 61919
L74215 61844
L74178 61694
L74178 61582
L74215 61432
L74253 61357
L74328 61282
L74440 61245
L74515 61245
L74628 61282
L74665 61320
" />
<path d="M75415 62032
L74965 62032
" />
<path d="M75190 62032
L75190 61245
L75115 61357
L75040 61432
L74965 61469
" />
<path d="M76165 62032
L75715 62032
" />
<path d="M75940 62032
L75940 61245
L75865 61357
L75790 61432
L75715 61469
" />
<path d="M81665 61957
L81628 61994
L81515 62032
L81440 62032
L81328 61994
L81253 61919
L81215 61844
L81178 61694
L81178 61582
L81215 61432
L81253 61357
L81328 61282
L81440 61245
L81515 61245
L81628 61282
L81665 61320
" />
<path d="M82415 62032
L81965 62032
" />
<path d="M82190 62032
L82190 61245
L82115 61357
L82040 61432
L81965 61469
" />
<path d="M82715 61320
L82753 61282
L82828 61245
L83015 61245
L83090 61282
L83128 61320
L83165 61395
L83165 61469
L83128 61582
L82678 62032
L83165 62032
" />
<path d="M39240 17055
L39203 17093
L39090 17130
L39015 17130
L38903 17093
L38828 17018
L38790 16943
L38753 16793
L38753 16680
L38790 16530
L38828 16455
L38903 16380
L39015 16343
L39090 16343
L39203 16380
L39240 16418
" />
<path d="M39503 16343
L39990 16343
L39728 16643
L39840 16643
L39915 16680
L39953 16718
L39990 16793
L39990 16980
L39953 17055
L39915 17093
L39840 17130
L39615 17130
L39540 17093
L39503 17055
" />
<path d="M56752 43981
L56789 44019
L56827 44131
L56827 44206
L56789 44319
L56714 44394
L56639 44431
L56489 44469
L56377 44469
L56227 44431
L56152 44394
L56077 44319
L56039 44206
L56039 44131
L56077 44019
L56114 43981
" />
<path d="M56827 43231
L56827 43681
" />
<path d="M56827 43456
L56039 43456
L56152 43531
L56227 43606
L56264 43681
" />
<path d="M56039 42519
L56039 42894
L56414 42931
L56377 42894
L56339 42819
L56339 42631
L56377 42556
L56414 42519
L56489 42481
L56677 42481
L56752 42519
L56789 42556
L56827 42631
L56827 42819
L56789 42894
L56752 42931
" />
<path d="M81749 57928
L81711 57965
L81599 58003
L81524 58003
L81411 57965
L81336 57890
L81299 57815
L81261 57665
L81261 57553
L81299 57403
L81336 57328
L81411 57253
L81524 57215
L81599 57215
L81711 57253
L81749 57290
" />
<path d="M82499 58003
L82049 58003
" />
<path d="M82274 58003
L82274 57215
L82199 57328
L82124 57403
L82049 57440
" />
<path d="M82761 57215
L83248 57215
L82986 57515
L83098 57515
L83173 57553
L83211 57590
L83248 57665
L83248 57853
L83211 57928
L83173 57965
L83098 58003
L82874 58003
L82799 57965
L82761 57928
" />
<path d="M30340 33857
L30303 33894
L30190 33932
L30115 33932
L30003 33894
L29928 33819
L29890 33744
L29853 33594
L29853 33482
L29890 33332
L29928 33257
L30003 33182
L30115 33145
L30190 33145
L30303 33182
L30340 33220
" />
<path d="M31090 33932
L30640 33932
" />
<path d="M30865 33932
L30865 33145
L30790 33257
L30715 33332
L30640 33369
" />
<path d="M70552 43781
L70589 43819
L70627 43931
L70627 44006
L70589 44119
L70514 44194
L70439 44231
L70289 44269
L70177 44269
L70027 44231
L69952 44194
L69877 44119
L69839 44006
L69839 43931
L69877 43819
L69914 43781
" />
<path d="M70627 43031
L70627 43481
" />
<path d="M70627 43256
L69839 43256
L69952 43331
L70027 43406
L70064 43481
" />
<path d="M70102 42356
L70627 42356
" />
<path d="M69802 42544
L70364 42731
L70364 42244
" />
<path d="M30763 24349
L29975 24349
L29975 24049
L30013 23974
L30050 23936
L30125 23899
L30238 23899
L30313 23936
L30350 23974
L30388 24049
L30388 24349
" />
<path d="M30050 23599
L30013 23561
L29975 23486
L29975 23299
L30013 23224
L30050 23187
L30125 23149
L30200 23149
L30313 23187
L30763 23636
L30763 23149
" />
<path d="M31240 17756
L31203 17794
L31090 17831
L31015 17831
L30903 17794
L30828 17719
L30790 17644
L30753 17494
L30753 17381
L30790 17231
L30828 17156
L30903 17081
L31015 17044
L31090 17044
L31203 17081
L31240 17119
" />
<path d="M31915 17306
L31915 17831
" />
<path d="M31728 17006
L31540 17569
L32028 17569
" />
<path d="M68162 21548
L67787 21810
" />
<path d="M68162 21997
L67375 21997
L67375 21697
L67412 21622
L67450 21585
L67525 21548
L67637 21548
L67712 21585
L67750 21622
L67787 21697
L67787 21997
" />
<path d="M68162 21173
L68162 21023
L68125 20948
L68087 20910
L67975 20835
L67825 20798
L67525 20798
L67450 20835
L67412 20873
L67375 20948
L67375 21098
L67412 21173
L67450 21210
L67525 21248
L67712 21248
L67787 21210
L67825 21173
L67862 21098
L67862 20948
L67825 20873
L67787 20835
L67712 20798
" />
<g >
</g>
</g> 
</svg>
