<?xml version="1.0" standalone="no"?>
 <!DOCTYPE svg PUBLIC "-//W3C//DTD SVG 1.1//EN" 
 "http://www.w3.org/Graphics/SVG/1.1/DTD/svg11.dtd"> 
<svg xmlns="http://www.w3.org/2000/svg" version="1.1" 
    width="29.7002cm" height="21.0007cm" viewBox="0 0 116930 82680 ">
<title>SVG Picture created as ThermocoupleLogger-F_CrtYd.svg date 2019/03/28 10:51:20 </title>
  <desc>Picture generated by PCBNEW </desc>
<g style="fill:#000000; fill-opacity:1;stroke:#000000; stroke-opacity:1;
stroke-linecap:round; stroke-linejoin:round; "
 transform="translate(0 0) scale(1 1)">
</g>
<g style="fill:#000000; fill-opacity:0.0; 
stroke:#000000; stroke-width:-0.000787402; stroke-opacity:1; 
stroke-linecap:round; stroke-linejoin:round;">
</g>
<g style="fill:#000000; fill-opacity:0.0; 
stroke:#000000; stroke-width:78.7402; stroke-opacity:1; 
stroke-linecap:round; stroke-linejoin:round;">
<path d="M93971 12875
L93971 73375
" />
<path d="M23971 68993
L23971 68993
" />
<path d="M23971 12875
L93971 12875
" />
<path d="M23971 73375
L93971 73375
" />
<path d="M23971 12875
L23971 73375
" />
<path d="M23971 13875
L23971 13875
" />
</g>
<g style="fill:#000000; fill-opacity:0.0; 
stroke:#000000; stroke-width:39.3701; stroke-opacity:1; 
stroke-linecap:round; stroke-linejoin:round;">
<path d="M80011 34497
L74696 34497
" />
<path d="M74696 34497
L74696 56859
" />
<path d="M74696 56859
L80011 56859
" />
<path d="M80011 56859
L80011 34497
" />
<path d="M53515 24587
L53712 24587
" />
<path d="M53712 24587
L53712 12776
" />
<path d="M53515 24587
L51546 24587
" />
<path d="M51546 24587
L51546 25374
" />
<path d="M51546 25374
L48397 25374
" />
<path d="M48397 25374
L48397 24587
" />
<path d="M48397 24587
L46231 24587
" />
<path d="M46231 24587
L46231 23012
" />
<path d="M46231 23012
L44656 23012
" />
<path d="M44656 23012
L44656 19862
" />
<path d="M44656 19862
L46231 19862
" />
<path d="M46231 19862
L46231 12776
" />
<path d="M46231 12776
L53712 12776
" />
<path d="M32806 44379
L24263 44379
" />
<path d="M24263 44379
L24263 52883
" />
<path d="M24263 52883
L32806 52883
" />
<path d="M32806 52883
L32806 44379
" />
<path d="M36880 72619
L43494 72619
" />
<path d="M36880 67304
L36880 72619
" />
<path d="M43494 67304
L36880 67304
" />
<path d="M43494 72619
L43494 67304
" />
<path d="M43880 72619
L50494 72619
" />
<path d="M43880 67304
L43880 72619
" />
<path d="M50494 67304
L43880 67304
" />
<path d="M50494 72619
L50494 67304
" />
<path d="M50880 72619
L57494 72619
" />
<path d="M50880 67304
L50880 72619
" />
<path d="M57494 67304
L50880 67304
" />
<path d="M57494 72619
L57494 67304
" />
<path d="M57880 72619
L64494 72619
" />
<path d="M57880 67304
L57880 72619
" />
<path d="M64494 67304
L57880 67304
" />
<path d="M64494 72619
L64494 67304
" />
<path d="M64849 72619
L71463 72619
" />
<path d="M64849 67304
L64849 72619
" />
<path d="M71463 67304
L64849 67304
" />
<path d="M71463 72619
L71463 67304
" />
<path d="M71849 72619
L78463 72619
" />
<path d="M71849 67304
L71849 72619
" />
<path d="M78463 67304
L71849 67304
" />
<path d="M78463 72619
L78463 67304
" />
<path d="M78849 72619
L85463 72619
" />
<path d="M78849 67304
L78849 72619
" />
<path d="M85463 67304
L78849 67304
" />
<path d="M85463 72619
L85463 67304
" />
<circle cx="34871.9" cy="36927.4" r="1338.58" /> 
<path d="M29880 72619
L36494 72619
" />
<path d="M29880 67304
L29880 72619
" />
<path d="M36494 67304
L29880 67304
" />
<path d="M36494 72619
L36494 67304
" />
<path d="M36046 35731
L42897 35731
" />
<path d="M36046 40219
L36046 35731
" />
<path d="M42897 40219
L36046 40219
" />
<path d="M42897 35731
L42897 40219
" />
<path d="M42155 32558
L40698 32558
" />
<path d="M40698 32558
L40698 33188
" />
<path d="M40698 33188
L39045 33188
" />
<path d="M39045 33188
L39045 32558
" />
<path d="M39045 32558
L37588 32558
" />
<path d="M37588 28897
L37588 32558
" />
<path d="M42155 28897
L42155 32558
" />
<path d="M38493 27991
L37588 28897
" />
<path d="M41249 27991
L42155 28897
" />
<path d="M41249 27991
L40698 27991
" />
<path d="M39045 27991
L38493 27991
" />
<path d="M40698 27991
L40698 27362
" />
<path d="M40698 27362
L39045 27362
" />
<path d="M39045 27362
L39045 27991
" />
<path d="M44415 20084
L39101 20084
" />
<path d="M39101 20084
L39101 26698
" />
<path d="M39101 26698
L44415 26698
" />
<path d="M44415 26698
L44415 20084
" />
<path d="M54835 15820
L54835 13064
" />
<path d="M54048 15820
L54835 15820
" />
<path d="M54048 17985
L54048 15820
" />
<path d="M54835 17985
L54048 17985
" />
<path d="M54835 23694
L54835 17985
" />
<path d="M54638 23694
L54835 23694
" />
<path d="M54638 25269
L54638 23694
" />
<path d="M56410 25269
L54638 25269
" />
<path d="M56410 24678
L56410 25269
" />
<path d="M58772 24678
L56410 24678
" />
<path d="M58772 25662
L58772 24678
" />
<path d="M66646 25662
L58772 25662
" />
<path d="M66646 25269
L66646 25662
" />
<path d="M67827 25269
L66646 25269
" />
<path d="M67827 23694
L67827 25269
" />
<path d="M67040 23694
L67827 23694
" />
<path d="M67040 17985
L67040 23694
" />
<path d="M67827 17985
L67040 17985
" />
<path d="M67827 15820
L67827 17985
" />
<path d="M67040 15820
L67827 15820
" />
<path d="M67040 13064
L67040 15820
" />
<path d="M26725 43347
L33418 43347
" />
<path d="M26725 40394
L26725 43347
" />
<path d="M33418 40394
L26725 40394
" />
<path d="M33418 43347
L33418 40394
" />
<path d="M82806 54576
L90523 54576
" />
<path d="M82806 40127
L82806 54576
" />
<path d="M90523 40127
L82806 40127
" />
<path d="M90523 54576
L90523 40127
" />
<path d="M53434 29815
L43308 29815
" />
<path d="M53434 32335
L53434 29815
" />
<path d="M43308 32335
L53434 32335
" />
<path d="M43308 29815
L43308 32335
" />
<path d="M54472 32459
L54472 26947
" />
<path d="M54669 26751
L61756 26751
" />
<path d="M61952 26947
L61952 32459
" />
<path d="M61756 32656
L54669 32656
" />
<path d="M61952 26751
L61756 26751
" />
<path d="M61952 26947
L61952 26751
" />
<path d="M61952 32656
L61756 32656
" />
<path d="M61952 32459
L61952 32656
" />
<path d="M54472 32656
L54472 32459
" />
<path d="M54669 32656
L54472 32656
" />
<path d="M54472 26751
L54472 26947
" />
<path d="M54669 26751
L54472 26751
" />
<path d="M68090 19302
L68090 13791
" />
<path d="M68287 13594
L75374 13594
" />
<path d="M75571 13791
L75571 19302
" />
<path d="M75374 19499
L68287 19499
" />
<path d="M75571 13594
L75374 13594
" />
<path d="M75571 13791
L75571 13594
" />
<path d="M75571 19499
L75374 19499
" />
<path d="M75571 19302
L75571 19499
" />
<path d="M68090 19499
L68090 19302
" />
<path d="M68287 19499
L68090 19499
" />
<path d="M68090 13594
L68090 13791
" />
<path d="M68287 13594
L68090 13594
" />
<path d="M85916 29025
L90759 29025
" />
<path d="M85916 22214
L85916 29025
" />
<path d="M90759 22214
L85916 22214
" />
<path d="M90759 29025
L90759 22214
" />
<path d="M31237 26610
L31237 33540
" />
<path d="M36906 26610
L31237 26610
" />
<path d="M36906 33540
L36906 26610
" />
<path d="M31237 33540
L36906 33540
" />
<path d="M31594 18041
L31594 26309
" />
<path d="M35460 18041
L31594 18041
" />
<path d="M35460 26309
L35460 18041
" />
<path d="M31594 26309
L35460 26309
" />
<path d="M40063 16936
L43480 16936
" />
<path d="M40063 16936
L40063 19614
" />
<path d="M43480 19614
L43480 16936
" />
<path d="M43480 19614
L40063 19614
" />
<path d="M43951 33225
L43951 40941
" />
<path d="M72376 33225
L43951 33225
" />
<path d="M72376 40941
L72376 33225
" />
<path d="M43951 40941
L72376 40941
" />
<path d="M72192 46148
L43767 46148
" />
<path d="M43767 46148
L43767 59810
" />
<path d="M43767 59810
L72192 59810
" />
<path d="M72192 59810
L72192 46148
" />
<path d="M57357 45680
L66727 45680
" />
<path d="M57357 41270
L57357 45680
" />
<path d="M66727 41270
L57357 41270
" />
<path d="M66727 45680
L66727 41270
" />
<path d="M36823 23672
L38319 23672
" />
<path d="M38319 23672
L38319 21152
" />
<path d="M36823 21152
L38319 21152
" />
<path d="M36823 23672
L36823 21152
" />
<path d="M73566 28925
L75377 28925
" />
<path d="M75377 25225
L75377 28925
" />
<path d="M73566 25225
L75377 25225
" />
<path d="M73566 28925
L73566 25225
" />
<path d="M70666 28925
L72477 28925
" />
<path d="M72477 25225
L72477 28925
" />
<path d="M70666 25225
L72477 25225
" />
<path d="M70666 28925
L70666 25225
" />
<path d="M67946 28925
L69757 28925
" />
<path d="M69757 25225
L69757 28925
" />
<path d="M67946 25225
L69757 25225
" />
<path d="M67946 28925
L67946 25225
" />
<path d="M36394 44323
L33749 44323
" />
<path d="M36394 42827
L36394 44323
" />
<path d="M33749 42827
L36394 42827
" />
<path d="M33749 44323
L33749 42827
" />
<path d="M36394 42573
L33749 42573
" />
<path d="M36394 41077
L36394 42573
" />
<path d="M33749 41077
L36394 41077
" />
<path d="M33749 42573
L33749 41077
" />
<path d="M50923 44998
L50923 42352
" />
<path d="M52419 44998
L50923 44998
" />
<path d="M52419 42352
L52419 44998
" />
<path d="M50923 42352
L52419 42352
" />
<path d="M39519 16952
L39519 19598
" />
<path d="M38023 16952
L39519 16952
" />
<path d="M38023 19598
L38023 16952
" />
<path d="M39519 19598
L38023 19598
" />
<path d="M67819 30052
L67819 32698
" />
<path d="M66323 30052
L67819 30052
" />
<path d="M66323 32698
L66323 30052
" />
<path d="M67819 32698
L66323 32698
" />
<path d="M64119 26052
L64119 28698
" />
<path d="M62623 26052
L64119 26052
" />
<path d="M62623 28698
L62623 26052
" />
<path d="M64119 28698
L62623 28698
" />
<path d="M70219 30052
L70219 32698
" />
<path d="M68723 30052
L70219 30052
" />
<path d="M68723 32698
L68723 30052
" />
<path d="M70219 32698
L68723 32698
" />
<path d="M31794 36127
L31794 37623
" />
<path d="M31794 37623
L29149 37623
" />
<path d="M29149 37623
L29149 36127
" />
<path d="M29149 36127
L31794 36127
" />
<path d="M62919 64052
L62919 66698
" />
<path d="M61423 64052
L62919 64052
" />
<path d="M61423 66698
L61423 64052
" />
<path d="M62919 66698
L61423 66698
" />
<path d="M73423 66698
L73423 64052
" />
<path d="M74919 66698
L73423 66698
" />
<path d="M74919 64052
L74919 66698
" />
<path d="M73423 64052
L74919 64052
" />
<path d="M34919 64012
L34919 66658
" />
<path d="M33423 64012
L34919 64012
" />
<path d="M33423 66658
L33423 64012
" />
<path d="M34919 66658
L33423 66658
" />
<path d="M31463 66658
L31463 64012
" />
<path d="M32959 66658
L31463 66658
" />
<path d="M32959 64012
L32959 66658
" />
<path d="M31463 64012
L32959 64012
" />
<path d="M38423 66698
L38423 64052
" />
<path d="M39919 66698
L38423 66698
" />
<path d="M39919 64052
L39919 66698
" />
<path d="M38423 64052
L39919 64052
" />
<path d="M45423 66698
L45423 64052
" />
<path d="M46919 66698
L45423 66698
" />
<path d="M46919 64052
L46919 66698
" />
<path d="M45423 64052
L46919 64052
" />
<path d="M52423 66698
L52423 64052
" />
<path d="M53919 66698
L52423 66698
" />
<path d="M53919 64052
L53919 66698
" />
<path d="M52423 64052
L53919 64052
" />
<path d="M59423 66698
L59423 64052
" />
<path d="M60919 66698
L59423 66698
" />
<path d="M60919 64052
L60919 66698
" />
<path d="M59423 64052
L60919 64052
" />
<path d="M66423 66698
L66423 64052
" />
<path d="M67919 66698
L66423 66698
" />
<path d="M67919 64052
L67919 66698
" />
<path d="M66423 64052
L67919 64052
" />
<path d="M80423 66698
L80423 64052
" />
<path d="M81919 66698
L80423 66698
" />
<path d="M81919 64052
L81919 66698
" />
<path d="M80423 64052
L81919 64052
" />
<path d="M41919 64052
L41919 66698
" />
<path d="M40423 64052
L41919 64052
" />
<path d="M40423 66698
L40423 64052
" />
<path d="M41919 66698
L40423 66698
" />
<path d="M48919 64052
L48919 66698
" />
<path d="M47423 64052
L48919 64052
" />
<path d="M47423 66698
L47423 64052
" />
<path d="M48919 66698
L47423 66698
" />
<path d="M55919 64052
L55919 66698
" />
<path d="M54423 64052
L55919 64052
" />
<path d="M54423 66698
L54423 64052
" />
<path d="M55919 66698
L54423 66698
" />
<path d="M69919 64052
L69919 66698
" />
<path d="M68423 64052
L69919 64052
" />
<path d="M68423 66698
L68423 64052
" />
<path d="M69919 66698
L68423 66698
" />
<path d="M76919 64052
L76919 66698
" />
<path d="M75423 64052
L76919 64052
" />
<path d="M75423 66698
L75423 64052
" />
<path d="M76919 66698
L75423 66698
" />
<path d="M83919 64052
L83919 66698
" />
<path d="M82423 64052
L83919 64052
" />
<path d="M82423 66698
L82423 64052
" />
<path d="M83919 66698
L82423 66698
" />
<path d="M34494 63723
L31849 63723
" />
<path d="M34494 62227
L34494 63723
" />
<path d="M31849 62227
L34494 62227
" />
<path d="M31849 63723
L31849 62227
" />
<path d="M69494 63723
L66849 63723
" />
<path d="M69494 62227
L69494 63723
" />
<path d="M66849 62227
L69494 62227
" />
<path d="M66849 63723
L66849 62227
" />
<path d="M62494 63723
L59849 63723
" />
<path d="M62494 62227
L62494 63723
" />
<path d="M59849 62227
L62494 62227
" />
<path d="M59849 63723
L59849 62227
" />
<path d="M41494 63723
L38849 63723
" />
<path d="M41494 62227
L41494 63723
" />
<path d="M38849 62227
L41494 62227
" />
<path d="M38849 63723
L38849 62227
" />
<path d="M48494 63723
L45849 63723
" />
<path d="M48494 62227
L48494 63723
" />
<path d="M45849 62227
L48494 62227
" />
<path d="M45849 63723
L45849 62227
" />
<path d="M55494 63723
L52849 63723
" />
<path d="M55494 62227
L55494 63723
" />
<path d="M52849 62227
L55494 62227
" />
<path d="M52849 63723
L52849 62227
" />
<path d="M76494 63723
L73849 63723
" />
<path d="M76494 62227
L76494 63723
" />
<path d="M73849 62227
L76494 62227
" />
<path d="M73849 63723
L73849 62227
" />
<path d="M83494 63723
L80849 63723
" />
<path d="M83494 62227
L83494 63723
" />
<path d="M80849 62227
L83494 62227
" />
<path d="M80849 63723
L80849 62227
" />
<path d="M38049 14727
L40694 14727
" />
<path d="M38049 16223
L38049 14727
" />
<path d="M40694 16223
L38049 16223
" />
<path d="M40694 14727
L40694 16223
" />
<path d="M54423 44798
L54423 42152
" />
<path d="M55919 44798
L54423 44798
" />
<path d="M55919 42152
L55919 44798
" />
<path d="M54423 42152
L55919 42152
" />
<path d="M83578 59694
L80932 59694
" />
<path d="M83578 58198
L83578 59694
" />
<path d="M80932 58198
L83578 58198
" />
<path d="M80932 59694
L80932 58198
" />
<path d="M31794 35623
L29149 35623
" />
<path d="M31794 34127
L31794 35623
" />
<path d="M29149 34127
L31794 34127
" />
<path d="M29149 35623
L29149 34127
" />
<path d="M68223 44598
L68223 41952
" />
<path d="M69719 44598
L68223 44598
" />
<path d="M69719 41952
L69719 44598
" />
<path d="M68223 41952
L69719 41952
" />
<path d="M29855 29043
L29855 18492
" />
<path d="M24541 29043
L29855 29043
" />
<path d="M24541 18492
L24541 29043
" />
<path d="M29855 18492
L24541 18492
" />
<path d="M31934 16702
L32682 16702
" />
<path d="M31934 15048
L31934 16702
" />
<path d="M32682 15048
L31934 15048
" />
<path d="M32682 16702
L32682 16859
" />
<path d="M32682 14891
L32682 15048
" />
<path d="M32682 14891
L33587 13985
" />
<path d="M32682 16859
L33587 17765
" />
<path d="M33587 13985
L36461 13985
" />
<path d="M33587 17765
L36461 17765
" />
<path d="M36461 16702
L36461 17765
" />
<path d="M37209 16702
L36461 16702
" />
<path d="M37209 15048
L37209 16702
" />
<path d="M36461 15048
L37209 15048
" />
<path d="M36461 13985
L36461 15048
" />
<path d="M69853 20093
L69853 22739
" />
<path d="M68357 20093
L69853 20093
" />
<path d="M68357 22739
L68357 20093
" />
<path d="M69853 22739
L68357 22739
" />
<g >
</g>
<g >
</g>
<g >
</g>
<g >
</g>
<g >
</g>
<g >
</g>
<g >
</g>
<g >
</g>
<g >
</g>
<g >
</g>
<g >
</g>
<g >
</g>
<g >
</g>
<g >
</g>
<g >
</g>
<g >
</g>
<g >
</g>
<g >
</g>
<g >
</g>
<g >
</g>
<g >
</g>
<g >
</g>
<g >
</g>
<g >
</g>
<g >
</g>
<g >
</g>
<g >
</g>
<g >
</g>
<g >
</g>
<g >
</g>
<g >
</g>
<g >
</g>
<g >
</g>
<g >
</g>
<g >
</g>
<g >
</g>
<g >
</g>
<g >
</g>
<g >
</g>
<g >
</g>
<g >
</g>
<g >
</g>
<g >
</g>
<g >
</g>
<g >
</g>
<g >
</g>
<g >
</g>
<g >
</g>
<g >
</g>
<g >
</g>
<g >
</g>
<g >
</g>
<g >
</g>
<g >
</g>
<g >
</g>
<g >
</g>
<g >
</g>
<g >
</g>
<g >
</g>
<g >
</g>
<g >
</g>
<g >
</g>
<g >
</g>
<g >
</g>
<g >
</g>
<g >
</g>
<g >
</g>
<g >
</g>
<g >
</g>
<g >
</g>
<g >
</g>
<g >
</g>
<g >
</g>
<g >
</g>
</g> 
</svg>
