<?xml version="1.0" standalone="no"?>
 <!DOCTYPE svg PUBLIC "-//W3C//DTD SVG 1.1//EN" 
 "http://www.w3.org/Graphics/SVG/1.1/DTD/svg11.dtd"> 
<svg xmlns="http://www.w3.org/2000/svg" version="1.1" 
    width="29.7002cm" height="21.0007cm" viewBox="0 0 116930 82680 ">
<title>SVG Picture created as ThermocoupleLogger-B_Fab.svg date 2019/03/14 17:07:23 </title>
  <desc>Picture generated by PCBNEW </desc>
<g style="fill:#000000; fill-opacity:1;stroke:#000000; stroke-opacity:1;
stroke-linecap:round; stroke-linejoin:round; "
 transform="translate(0 0) scale(1 1)">
</g>
<g style="fill:#000000; fill-opacity:0.0; 
stroke:#000000; stroke-width:-0.000787402; stroke-opacity:1; 
stroke-linecap:round; stroke-linejoin:round;">
</g>
<g style="fill:#000000; fill-opacity:0.0; 
stroke:#000000; stroke-width:157.48; stroke-opacity:1; 
stroke-linecap:round; stroke-linejoin:round;">
<path d="M96543 62899
L96543 67324
" />
<path d="M17743 67332
L96539 67332
" />
<path d="M30465 21607
L17748 21607
" />
<path d="M17743 62940
L17743 67340
" />
<path d="M83703 62900
L65463 62900
" />
<path d="M87433 62900
L96543 62900
" />
<path d="M87393 60900
L96483 60900
" />
<path d="M65463 60900
L83703 60900
" />
<path d="M61827 62909
L24467 62909
" />
<path d="M24473 60910
L61833 60910
" />
<path d="M20843 60920
L17743 60920
" />
<path d="M20813 62920
L17740 62938
" />
<path d="M20813.7 62920 A1000.2 1000.2 0.0 0 0 20836.3 60920.7 " />
<path d="M24483.7 60910 A1000 1000 0.0 0 0 24467.1 62909.9 " />
<path d="M61813.7 62910 A1000 1000 0.0 0 0 61835 60910.2 " />
<path d="M65463.7 60900 A1000.2 1000.2 0.0 1 0 65465.5 62900 " />
<path d="M83693.7 62900 A1000.2 1000.2 0.0 1 0 83713.7 60899.8 " />
<path d="M87384.5 60900 A1000.2 1000.2 0.0 0 0 87423.7 62900 " />
<path d="M91343.7 19540 A1000.8 1000.8 0.0 0 0 91383.7 21540.8 " />
<path d="M55123.7 21580 A1000.8 1000.8 0.0 1 0 55123.7 19580 " />
<path d="M17703 19560
L17703 19560
" />
<path d="M30463 19560
L17703 19560
" />
<path d="M34123 21580
L55123 21580
" />
<path d="M55103 19580
L34143 19580
" />
<path d="M30463.7 21600 A1020 1020 0.0 0 0 30463.7 19560 " />
<path d="M34143.7 19580 A1000.2 1000.2 0.0 1 0 34123.7 21580.2 " />
<path d="M87723 21570
L58893 21570
" />
<path d="M58743 19590
L87753 19590
" />
<path d="M58823.7 19580 A990.202 990.202 0.0 0 0 58863.7 21560 " />
<path d="M91394 21544
L96480 21552
" />
<path d="M96443 19540
L91343 19540
" />
<path d="M96443 14340
L96443 19540
" />
<path d="M87723.7 21580 A996 996 0.0 0 0 87731.8 19588 " />
<path d="M17703 14320
L96433 14324
" />
<path d="M17703 19560
L17703 14320
" />
<path d="M17743 60920
L17743 21610
" />
<path d="M96483 60900
L96483 21569
" />
</g>
<g style="fill:#000000; fill-opacity:0.0; 
stroke:#000000; stroke-width:78.7402; stroke-opacity:1; 
stroke-linecap:round; stroke-linejoin:round;">
<path d="M50543 43780
L48519 45894
" />
<path d="M61343 43770
L63324 45900
" />
<path d="M53975.2 24443.9 A314.961 314.961 0.0 0 0 53660.3 24758.9 " />
<path d="M54920 25940
L56967 25940
" />
<path d="M54920.1 38695.9 A1023.62 1023.62 0.0 0 0 56967.4 38695.9 " />
<path d="M54920 38695
L54920 25940
" />
<path d="M56967 25940
L56967 38695
" />
<path d="M53975 24443
L57912 24443
" />
<path d="M54920.1 30018.7 A7955.89 7955.89 0.0 0 0 56967.4 45798.3 " />
<path d="M54920.1 33026.6 A4988.05 4988.05 0.0 0 0 56104.1 42894 " />
<path d="M54920.1 36412.4 A1812.73 1812.73 0.0 0 0 56082.2 39715.9 " />
<path d="M55805.3 39715.9 A1812.73 1812.73 0.0 0 0 56967.4 36412.4 " />
<path d="M55783.4 42894 A4988.05 4988.05 0.0 0 0 56967.4 33026.6 " />
<path d="M54920.1 45798.3 A7955.89 7955.89 0.0 0 0 56967.4 30018.7 " />
<path d="M58227.2 24758.9 A314.961 314.961 0.0 0 0 57912.2 24443.9 " />
<path d="M58227 24758
L58227 26688
" />
<path d="M53660 26688
L53660 24758
" />
<path d="M53194 27354 A708.661 708.661 0.0 0 0 53660.3 26688 " />
<path d="M58227.2 26688 A708.661 708.661 0.0 0 0 58693.5 27354 " />
<path d="M53187.8 27357.3 A10905.2 10905.2 0.0 0 0 55970.1 48813.6 " />
<path d="M55917.4 48813.6 A10905.2 10905.2 0.0 0 0 58699.6 27357.3 " />
<path d="M69472 31438
L68781 32128
" />
<path d="M70585 32551
L69472 31438
" />
<path d="M69895 33241
L70585 32551
" />
<path d="M68781 32128
L69895 33241
" />
<path d="M70721 34088
L71835 35201
" />
<path d="M71835 35201
L72525 34511
" />
<path d="M72525 34511
L71412 33398
" />
<path d="M71412 33398
L70721 34088
" />
</g>
<g style="fill:#000000; fill-opacity:0.0; 
stroke:#000000; stroke-width:118.11; stroke-opacity:1; 
stroke-linecap:round; stroke-linejoin:round;">
<path d="M24611 54782
L24611 53995
L24349 54557
L24087 53995
L24087 54782
" />
<path d="M23599 54782
L23674 54745
L23712 54707
L23749 54632
L23749 54407
L23712 54332
L23674 54295
L23599 54257
L23487 54257
L23412 54295
L23374 54332
L23337 54407
L23337 54632
L23374 54707
L23412 54745
L23487 54782
L23599 54782
" />
<path d="M22662 54257
L22662 54782
" />
<path d="M22999 54257
L22999 54670
L22962 54745
L22887 54782
L22774 54782
L22699 54745
L22662 54707
" />
<path d="M22287 54257
L22287 54782
" />
<path d="M22287 54332
L22249 54295
L22174 54257
L22062 54257
L21987 54295
L21949 54370
L21949 54782
" />
<path d="M21687 54257
L21387 54257
" />
<path d="M21574 53995
L21574 54670
L21537 54745
L21462 54782
L21387 54782
" />
<path d="M21124 54782
L21124 54257
" />
<path d="M21124 53995
L21162 54032
L21124 54070
L21087 54032
L21124 53995
L21124 54070
" />
<path d="M20749 54257
L20749 54782
" />
<path d="M20749 54332
L20712 54295
L20637 54257
L20524 54257
L20450 54295
L20412 54370
L20412 54782
" />
<path d="M19700 54257
L19700 54895
L19737 54970
L19775 55007
L19850 55045
L19962 55045
L20037 55007
" />
<path d="M19700 54745
L19775 54782
L19925 54782
L20000 54745
L20037 54707
L20075 54632
L20075 54407
L20037 54332
L20000 54295
L19925 54257
L19775 54257
L19700 54295
" />
<path d="M19512 54857
L18912 54857
" />
<path d="M18725 54782
L18725 53995
" />
<path d="M18725 54370
L18275 54370
" />
<path d="M18275 54782
L18275 53995
" />
<path d="M17787 54782
L17862 54745
L17900 54707
L17937 54632
L17937 54407
L17900 54332
L17862 54295
L17787 54257
L17675 54257
L17600 54295
L17562 54332
L17525 54407
L17525 54632
L17562 54707
L17600 54745
L17675 54782
L17787 54782
" />
<path d="M17075 54782
L17150 54745
L17187 54670
L17187 53995
" />
<path d="M16475 54745
L16550 54782
L16700 54782
L16775 54745
L16812 54670
L16812 54370
L16775 54295
L16700 54257
L16550 54257
L16475 54295
L16438 54370
L16438 54445
L16812 54520
" />
<path d="M21811 57696
L21811 56908
L21548 57471
L21286 56908
L21286 57696
" />
<path d="M20911 57696
L20911 56908
" />
<path d="M20461 57696
L20798 57246
" />
<path d="M20461 56908
L20911 57358
" />
<path d="M20198 56908
L19711 56908
L19973 57208
L19861 57208
L19786 57246
L19748 57283
L19711 57358
L19711 57546
L19748 57621
L19786 57658
L19861 57696
L20086 57696
L20161 57658
L20198 57621
" />
<path d="M97611 54782
L97611 53995
L97349 54557
L97087 53995
L97087 54782
" />
<path d="M96599 54782
L96674 54745
L96712 54707
L96749 54632
L96749 54407
L96712 54332
L96674 54295
L96599 54257
L96487 54257
L96412 54295
L96374 54332
L96337 54407
L96337 54632
L96374 54707
L96412 54745
L96487 54782
L96599 54782
" />
<path d="M95662 54257
L95662 54782
" />
<path d="M95999 54257
L95999 54670
L95962 54745
L95887 54782
L95774 54782
L95699 54745
L95662 54707
" />
<path d="M95287 54257
L95287 54782
" />
<path d="M95287 54332
L95249 54295
L95174 54257
L95062 54257
L94987 54295
L94949 54370
L94949 54782
" />
<path d="M94687 54257
L94387 54257
" />
<path d="M94574 53995
L94574 54670
L94537 54745
L94462 54782
L94387 54782
" />
<path d="M94124 54782
L94124 54257
" />
<path d="M94124 53995
L94162 54032
L94124 54070
L94087 54032
L94124 53995
L94124 54070
" />
<path d="M93749 54257
L93749 54782
" />
<path d="M93749 54332
L93712 54295
L93637 54257
L93524 54257
L93450 54295
L93412 54370
L93412 54782
" />
<path d="M92700 54257
L92700 54895
L92737 54970
L92775 55007
L92850 55045
L92962 55045
L93037 55007
" />
<path d="M92700 54745
L92775 54782
L92925 54782
L93000 54745
L93037 54707
L93075 54632
L93075 54407
L93037 54332
L93000 54295
L92925 54257
L92775 54257
L92700 54295
" />
<path d="M92512 54857
L91912 54857
" />
<path d="M91725 54782
L91725 53995
" />
<path d="M91725 54370
L91275 54370
" />
<path d="M91275 54782
L91275 53995
" />
<path d="M90787 54782
L90862 54745
L90900 54707
L90937 54632
L90937 54407
L90900 54332
L90862 54295
L90787 54257
L90675 54257
L90600 54295
L90562 54332
L90525 54407
L90525 54632
L90562 54707
L90600 54745
L90675 54782
L90787 54782
" />
<path d="M90075 54782
L90150 54745
L90187 54670
L90187 53995
" />
<path d="M89475 54745
L89550 54782
L89700 54782
L89775 54745
L89812 54670
L89812 54370
L89775 54295
L89700 54257
L89550 54257
L89475 54295
L89438 54370
L89438 54445
L89812 54520
" />
<path d="M94811 57696
L94811 56908
L94548 57471
L94286 56908
L94286 57696
" />
<path d="M93911 57696
L93911 56908
" />
<path d="M93461 57696
L93798 57246
" />
<path d="M93461 56908
L93911 57358
" />
<path d="M92786 57171
L92786 57696
" />
<path d="M92973 56871
L93161 57433
L92673 57433
" />
<path d="M67323 34038
L67323 34526
L67623 34263
L67623 34376
L67661 34451
L67698 34488
L67773 34526
L67960 34526
L68035 34488
L68073 34451
L68110 34376
L68110 34151
L68073 34076
L68035 34038
" />
<path d="M67323 34751
L68110 35013
L67323 35276
" />
<path d="M68373 36363
L68373 36176
L67248 36176
L67248 36363
" />
<path d="M68035 37113
L68073 37076
L68110 36963
L68110 36888
L68073 36776
L67998 36701
L67923 36663
L67773 36626
L67661 36626
L67511 36663
L67436 36701
L67361 36776
L67323 36888
L67323 36963
L67361 37076
L67398 37113
" />
<path d="M68110 37901
L67736 37638
" />
<path d="M68110 37451
L67323 37451
L67323 37751
L67361 37826
L67398 37863
L67473 37901
L67586 37901
L67661 37863
L67698 37826
L67736 37751
L67736 37451
" />
<path d="M67398 38200
L67361 38238
L67323 38313
L67323 38500
L67361 38575
L67398 38613
L67473 38650
L67548 38650
L67661 38613
L68110 38163
L68110 38650
" />
<path d="M67323 39138
L67323 39213
L67361 39288
L67398 39325
L67473 39363
L67623 39400
L67811 39400
L67960 39363
L68035 39325
L68073 39288
L68110 39213
L68110 39138
L68073 39063
L68035 39025
L67960 38988
L67811 38950
L67623 38950
L67473 38988
L67398 39025
L67361 39063
L67323 39138
" />
<path d="M67323 39663
L67323 40150
L67623 39888
L67623 40000
L67661 40075
L67698 40113
L67773 40150
L67960 40150
L68035 40113
L68073 40075
L68110 40000
L68110 39775
L68073 39700
L68035 39663
" />
<path d="M67398 40450
L67361 40488
L67323 40563
L67323 40750
L67361 40825
L67398 40863
L67473 40900
L67548 40900
L67661 40863
L68110 40413
L68110 40900
" />
<path d="M68373 41163
L68373 41350
L67248 41350
L67248 41163
" />
<path d="M71267 32479
L71586 32797
" />
<path d="M71426 32638
L71983 32081
L71957 32214
L71957 32320
L71983 32399
" />
<path d="M71480 31577
L71426 31524
L71347 31498
L71294 31498
L71214 31524
L71082 31604
L70949 31736
L70870 31869
L70843 31948
L70843 32001
L70870 32081
L70923 32134
L71002 32161
L71055 32161
L71135 32134
L71267 32054
L71400 31922
L71480 31789
L71506 31710
L71506 31657
L71480 31577
" />
<path d="M70949 31047
L70896 30994
L70817 30967
L70764 30967
L70684 30994
L70552 31073
L70419 31206
L70339 31339
L70313 31418
L70313 31471
L70339 31551
L70392 31604
L70472 31630
L70525 31630
L70605 31604
L70737 31524
L70870 31392
L70949 31259
L70976 31180
L70976 31127
L70949 31047
" />
<path d="M70339 30808
L69968 31180
" />
<path d="M70286 30861
L70286 30808
L70260 30729
L70180 30649
L70101 30623
L70021 30649
L69730 30941
" />
<path d="M69571 30199
L69756 30384
" />
<path d="M69465 30676
L70021 30119
L69756 29854
" />
<path d="M69007 33731
L69007 33784
L69060 33891
L69113 33944
L69219 33997
L69325 33997
L69405 33970
L69537 33891
L69617 33811
L69696 33678
L69723 33599
L69723 33493
L69670 33387
L69617 33334
L69511 33281
L69458 33281
" />
<path d="M69246 33069
L69246 33016
L69219 32936
L69087 32803
L69007 32777
L68954 32777
L68875 32803
L68822 32857
L68769 32963
L68769 33599
L68424 33254
" />
<path d="M67894 32724
L68212 33042
" />
<path d="M68053 32883
L68609 32326
L68583 32459
L68583 32565
L68609 32644
" />
<path d="M73207 34439
L73526 34757
" />
<path d="M73366 34598
L73923 34041
L73897 34174
L73897 34280
L73923 34359
" />
<path d="M73420 33537
L73366 33484
L73287 33458
L73234 33458
L73154 33484
L73022 33564
L72889 33696
L72810 33829
L72783 33908
L72783 33961
L72810 34041
L72863 34094
L72942 34121
L72995 34121
L73075 34094
L73207 34014
L73340 33882
L73420 33749
L73446 33670
L73446 33617
L73420 33537
" />
<path d="M72889 33007
L72836 32954
L72757 32927
L72704 32927
L72624 32954
L72492 33033
L72359 33166
L72279 33299
L72253 33378
L72253 33431
L72279 33511
L72332 33564
L72412 33590
L72465 33590
L72545 33564
L72677 33484
L72810 33352
L72889 33219
L72916 33140
L72916 33087
L72889 33007
" />
<path d="M72279 32768
L71908 33140
" />
<path d="M72226 32821
L72226 32768
L72200 32689
L72120 32609
L72041 32583
L71961 32609
L71670 32901
" />
<path d="M71511 32159
L71696 32344
" />
<path d="M71405 32636
L71961 32079
L71696 31814
" />
<path d="M70947 35691
L70947 35744
L71000 35851
L71053 35904
L71159 35957
L71265 35957
L71345 35930
L71477 35851
L71557 35771
L71636 35638
L71663 35559
L71663 35453
L71610 35347
L71557 35294
L71451 35241
L71398 35241
" />
<path d="M71186 35029
L71186 34976
L71159 34896
L71027 34763
L70947 34737
L70894 34737
L70815 34763
L70762 34817
L70709 34923
L70709 35559
L70364 35214
" />
<path d="M70656 34498
L70656 34445
L70629 34366
L70496 34233
L70417 34207
L70364 34207
L70284 34233
L70231 34286
L70178 34392
L70178 35029
L69834 34684
" />
</g> 
</svg>
