<?xml version="1.0" standalone="no"?>
 <!DOCTYPE svg PUBLIC "-//W3C//DTD SVG 1.1//EN" 
 "http://www.w3.org/Graphics/SVG/1.1/DTD/svg11.dtd"> 
<svg xmlns="http://www.w3.org/2000/svg" version="1.1" 
    width="29.7002cm" height="21.0007cm" viewBox="0 0 116930 82680 ">
<title>SVG Picture created as ThermocoupleLogger-B_SilkS.svg date 2019/03/14 17:07:23 </title>
  <desc>Picture generated by PCBNEW </desc>
<g style="fill:#000000; fill-opacity:1;stroke:#000000; stroke-opacity:1;
stroke-linecap:round; stroke-linejoin:round; "
 transform="translate(0 0) scale(1 1)">
</g>
<g style="fill:#000000; fill-opacity:0.0; 
stroke:#000000; stroke-width:-0.000787402; stroke-opacity:1; 
stroke-linecap:round; stroke-linejoin:round;">
</g>
<g style="fill:#000000; fill-opacity:0.0; 
stroke:#000000; stroke-width:157.48; stroke-opacity:1; 
stroke-linecap:round; stroke-linejoin:round;">
<path d="M96543 62899
L96543 67324
" />
<path d="M17743 67332
L96539 67332
" />
<path d="M30465 21607
L17748 21607
" />
<path d="M17743 62940
L17743 67340
" />
<path d="M83703 62900
L65463 62900
" />
<path d="M87433 62900
L96543 62900
" />
<path d="M87393 60900
L96483 60900
" />
<path d="M65463 60900
L83703 60900
" />
<path d="M61827 62909
L24467 62909
" />
<path d="M24473 60910
L61833 60910
" />
<path d="M20843 60920
L17743 60920
" />
<path d="M20813 62920
L17740 62938
" />
<path d="M20813.7 62920 A1000.2 1000.2 0.0 0 0 20836.3 60920.7 " />
<path d="M24483.7 60910 A1000 1000 0.0 0 0 24467.1 62909.9 " />
<path d="M61813.7 62910 A1000 1000 0.0 0 0 61835 60910.2 " />
<path d="M65463.7 60900 A1000.2 1000.2 0.0 1 0 65465.5 62900 " />
<path d="M83693.7 62900 A1000.2 1000.2 0.0 1 0 83713.7 60899.8 " />
<path d="M87384.5 60900 A1000.2 1000.2 0.0 0 0 87423.7 62900 " />
<path d="M91343.7 19540 A1000.8 1000.8 0.0 0 0 91383.7 21540.8 " />
<path d="M55123.7 21580 A1000.8 1000.8 0.0 1 0 55123.7 19580 " />
<path d="M17703 19560
L17703 19560
" />
<path d="M30463 19560
L17703 19560
" />
<path d="M34123 21580
L55123 21580
" />
<path d="M55103 19580
L34143 19580
" />
<path d="M30463.7 21600 A1020 1020 0.0 0 0 30463.7 19560 " />
<path d="M34143.7 19580 A1000.2 1000.2 0.0 1 0 34123.7 21580.2 " />
<path d="M87723 21570
L58893 21570
" />
<path d="M58743 19590
L87753 19590
" />
<path d="M58823.7 19580 A990.202 990.202 0.0 0 0 58863.7 21560 " />
<path d="M91394 21544
L96480 21552
" />
<path d="M96443 19540
L91343 19540
" />
<path d="M96443 14340
L96443 19540
" />
<path d="M87723.7 21580 A996 996 0.0 0 0 87731.8 19588 " />
<path d="M17703 14320
L96433 14324
" />
<path d="M17703 19560
L17703 14320
" />
<path d="M17743 60920
L17743 21610
" />
<path d="M96483 60900
L96483 21569
" />
</g>
<g style="fill:#000000; fill-opacity:1.0; 
stroke:#000000; stroke-width:0; stroke-opacity:1; 
stroke-linecap:round; stroke-linejoin:round;">
<polyline style="fill-rule:evenodd;"
points="18631,45909
18631,46224
18316,46224
18316,45909
18631,45909
" /> 
<polyline style="fill-rule:evenodd;"
points="18946,45909
18946,46224
18631,46224
18631,45909
18946,45909
" /> 
<polyline style="fill-rule:evenodd;"
points="19261,45909
19261,46224
18946,46224
18946,45909
19261,45909
" /> 
<polyline style="fill-rule:evenodd;"
points="19576,45909
19576,46224
19261,46224
19261,45909
19576,45909
" /> 
<polyline style="fill-rule:evenodd;"
points="19891,45909
19891,46224
19576,46224
19576,45909
19891,45909
" /> 
<polyline style="fill-rule:evenodd;"
points="20206,45909
20206,46224
19891,46224
19891,45909
20206,45909
" /> 
<polyline style="fill-rule:evenodd;"
points="20521,45909
20521,46224
20206,46224
20206,45909
20521,45909
" /> 
<polyline style="fill-rule:evenodd;"
points="21151,45909
21151,46224
20836,46224
20836,45909
21151,45909
" /> 
<polyline style="fill-rule:evenodd;"
points="21466,45909
21466,46224
21151,46224
21151,45909
21466,45909
" /> 
<polyline style="fill-rule:evenodd;"
points="22411,45909
22411,46224
22096,46224
22096,45909
22411,45909
" /> 
<polyline style="fill-rule:evenodd;"
points="23041,45909
23041,46224
22726,46224
22726,45909
23041,45909
" /> 
<polyline style="fill-rule:evenodd;"
points="23671,45909
23671,46224
23356,46224
23356,45909
23671,45909
" /> 
<polyline style="fill-rule:evenodd;"
points="23986,45909
23986,46224
23671,46224
23671,45909
23986,45909
" /> 
<polyline style="fill-rule:evenodd;"
points="24301,45909
24301,46224
23986,46224
23986,45909
24301,45909
" /> 
<polyline style="fill-rule:evenodd;"
points="24616,45909
24616,46224
24301,46224
24301,45909
24616,45909
" /> 
<polyline style="fill-rule:evenodd;"
points="25246,45909
25246,46224
24931,46224
24931,45909
25246,45909
" /> 
<polyline style="fill-rule:evenodd;"
points="26820,45909
26820,46224
26505,46224
26505,45909
26820,45909
" /> 
<polyline style="fill-rule:evenodd;"
points="27135,45909
27135,46224
26820,46224
26820,45909
27135,45909
" /> 
<polyline style="fill-rule:evenodd;"
points="27450,45909
27450,46224
27135,46224
27135,45909
27450,45909
" /> 
<polyline style="fill-rule:evenodd;"
points="27765,45909
27765,46224
27450,46224
27450,45909
27765,45909
" /> 
<polyline style="fill-rule:evenodd;"
points="28080,45909
28080,46224
27765,46224
27765,45909
28080,45909
" /> 
<polyline style="fill-rule:evenodd;"
points="28395,45909
28395,46224
28080,46224
28080,45909
28395,45909
" /> 
<polyline style="fill-rule:evenodd;"
points="28710,45909
28710,46224
28395,46224
28395,45909
28710,45909
" /> 
<polyline style="fill-rule:evenodd;"
points="18631,45594
18631,45909
18316,45909
18316,45594
18631,45594
" /> 
<polyline style="fill-rule:evenodd;"
points="20521,45594
20521,45909
20206,45909
20206,45594
20521,45594
" /> 
<polyline style="fill-rule:evenodd;"
points="22411,45594
22411,45909
22096,45909
22096,45594
22411,45594
" /> 
<polyline style="fill-rule:evenodd;"
points="23356,45594
23356,45909
23041,45909
23041,45594
23356,45594
" /> 
<polyline style="fill-rule:evenodd;"
points="23986,45594
23986,45909
23671,45909
23671,45594
23986,45594
" /> 
<polyline style="fill-rule:evenodd;"
points="24931,45594
24931,45909
24616,45909
24616,45594
24931,45594
" /> 
<polyline style="fill-rule:evenodd;"
points="25246,45594
25246,45909
24931,45909
24931,45594
25246,45594
" /> 
<polyline style="fill-rule:evenodd;"
points="25560,45594
25560,45909
25246,45909
25246,45594
25560,45594
" /> 
<polyline style="fill-rule:evenodd;"
points="25875,45594
25875,45909
25560,45909
25560,45594
25875,45594
" /> 
<polyline style="fill-rule:evenodd;"
points="26190,45594
26190,45909
25875,45909
25875,45594
26190,45594
" /> 
<polyline style="fill-rule:evenodd;"
points="26820,45594
26820,45909
26505,45909
26505,45594
26820,45594
" /> 
<polyline style="fill-rule:evenodd;"
points="28710,45594
28710,45909
28395,45909
28395,45594
28710,45594
" /> 
<polyline style="fill-rule:evenodd;"
points="18631,45279
18631,45594
18316,45594
18316,45279
18631,45279
" /> 
<polyline style="fill-rule:evenodd;"
points="19261,45279
19261,45594
18946,45594
18946,45279
19261,45279
" /> 
<polyline style="fill-rule:evenodd;"
points="19576,45279
19576,45594
19261,45594
19261,45279
19576,45279
" /> 
<polyline style="fill-rule:evenodd;"
points="19891,45279
19891,45594
19576,45594
19576,45279
19891,45279
" /> 
<polyline style="fill-rule:evenodd;"
points="20521,45279
20521,45594
20206,45594
20206,45279
20521,45279
" /> 
<polyline style="fill-rule:evenodd;"
points="21466,45279
21466,45594
21151,45594
21151,45279
21466,45279
" /> 
<polyline style="fill-rule:evenodd;"
points="21781,45279
21781,45594
21466,45594
21466,45279
21781,45279
" /> 
<polyline style="fill-rule:evenodd;"
points="22726,45279
22726,45594
22411,45594
22411,45279
22726,45279
" /> 
<polyline style="fill-rule:evenodd;"
points="24616,45279
24616,45594
24301,45594
24301,45279
24616,45279
" /> 
<polyline style="fill-rule:evenodd;"
points="24931,45279
24931,45594
24616,45594
24616,45279
24931,45279
" /> 
<polyline style="fill-rule:evenodd;"
points="25560,45279
25560,45594
25246,45594
25246,45279
25560,45279
" /> 
<polyline style="fill-rule:evenodd;"
points="26190,45279
26190,45594
25875,45594
25875,45279
26190,45279
" /> 
<polyline style="fill-rule:evenodd;"
points="26820,45279
26820,45594
26505,45594
26505,45279
26820,45279
" /> 
<polyline style="fill-rule:evenodd;"
points="27450,45279
27450,45594
27135,45594
27135,45279
27450,45279
" /> 
<polyline style="fill-rule:evenodd;"
points="27765,45279
27765,45594
27450,45594
27450,45279
27765,45279
" /> 
<polyline style="fill-rule:evenodd;"
points="28080,45279
28080,45594
27765,45594
27765,45279
28080,45279
" /> 
<polyline style="fill-rule:evenodd;"
points="28710,45279
28710,45594
28395,45594
28395,45279
28710,45279
" /> 
<polyline style="fill-rule:evenodd;"
points="18631,44965
18631,45279
18316,45279
18316,44965
18631,44965
" /> 
<polyline style="fill-rule:evenodd;"
points="19261,44965
19261,45279
18946,45279
18946,44965
19261,44965
" /> 
<polyline style="fill-rule:evenodd;"
points="19576,44965
19576,45279
19261,45279
19261,44965
19576,44965
" /> 
<polyline style="fill-rule:evenodd;"
points="19891,44965
19891,45279
19576,45279
19576,44965
19891,44965
" /> 
<polyline style="fill-rule:evenodd;"
points="20521,44965
20521,45279
20206,45279
20206,44965
20521,44965
" /> 
<polyline style="fill-rule:evenodd;"
points="21151,44965
21151,45279
20836,45279
20836,44965
21151,44965
" /> 
<polyline style="fill-rule:evenodd;"
points="21466,44965
21466,45279
21151,45279
21151,44965
21466,44965
" /> 
<polyline style="fill-rule:evenodd;"
points="22411,44965
22411,45279
22096,45279
22096,44965
22411,44965
" /> 
<polyline style="fill-rule:evenodd;"
points="23041,44965
23041,45279
22726,45279
22726,44965
23041,44965
" /> 
<polyline style="fill-rule:evenodd;"
points="23986,44965
23986,45279
23671,45279
23671,44965
23986,44965
" /> 
<polyline style="fill-rule:evenodd;"
points="24301,44965
24301,45279
23986,45279
23986,44965
24301,44965
" /> 
<polyline style="fill-rule:evenodd;"
points="24616,44965
24616,45279
24301,45279
24301,44965
24616,44965
" /> 
<polyline style="fill-rule:evenodd;"
points="24931,44965
24931,45279
24616,45279
24616,44965
24931,44965
" /> 
<polyline style="fill-rule:evenodd;"
points="25246,44965
25246,45279
24931,45279
24931,44965
25246,44965
" /> 
<polyline style="fill-rule:evenodd;"
points="26190,44965
26190,45279
25875,45279
25875,44965
26190,44965
" /> 
<polyline style="fill-rule:evenodd;"
points="26820,44965
26820,45279
26505,45279
26505,44965
26820,44965
" /> 
<polyline style="fill-rule:evenodd;"
points="27450,44965
27450,45279
27135,45279
27135,44965
27450,44965
" /> 
<polyline style="fill-rule:evenodd;"
points="27765,44965
27765,45279
27450,45279
27450,44965
27765,44965
" /> 
<polyline style="fill-rule:evenodd;"
points="28080,44965
28080,45279
27765,45279
27765,44965
28080,44965
" /> 
<polyline style="fill-rule:evenodd;"
points="28710,44965
28710,45279
28395,45279
28395,44965
28710,44965
" /> 
<polyline style="fill-rule:evenodd;"
points="18631,44650
18631,44965
18316,44965
18316,44650
18631,44650
" /> 
<polyline style="fill-rule:evenodd;"
points="19261,44650
19261,44965
18946,44965
18946,44650
19261,44650
" /> 
<polyline style="fill-rule:evenodd;"
points="19576,44650
19576,44965
19261,44965
19261,44650
19576,44650
" /> 
<polyline style="fill-rule:evenodd;"
points="19891,44650
19891,44965
19576,44965
19576,44650
19891,44650
" /> 
<polyline style="fill-rule:evenodd;"
points="20521,44650
20521,44965
20206,44965
20206,44650
20521,44650
" /> 
<polyline style="fill-rule:evenodd;"
points="21151,44650
21151,44965
20836,44965
20836,44650
21151,44650
" /> 
<polyline style="fill-rule:evenodd;"
points="21466,44650
21466,44965
21151,44965
21151,44650
21466,44650
" /> 
<polyline style="fill-rule:evenodd;"
points="22096,44650
22096,44965
21781,44965
21781,44650
22096,44650
" /> 
<polyline style="fill-rule:evenodd;"
points="22726,44650
22726,44965
22411,44965
22411,44650
22726,44650
" /> 
<polyline style="fill-rule:evenodd;"
points="23041,44650
23041,44965
22726,44965
22726,44650
23041,44650
" /> 
<polyline style="fill-rule:evenodd;"
points="24301,44650
24301,44965
23986,44965
23986,44650
24301,44650
" /> 
<polyline style="fill-rule:evenodd;"
points="24616,44650
24616,44965
24301,44965
24301,44650
24616,44650
" /> 
<polyline style="fill-rule:evenodd;"
points="24931,44650
24931,44965
24616,44965
24616,44650
24931,44650
" /> 
<polyline style="fill-rule:evenodd;"
points="26190,44650
26190,44965
25875,44965
25875,44650
26190,44650
" /> 
<polyline style="fill-rule:evenodd;"
points="26820,44650
26820,44965
26505,44965
26505,44650
26820,44650
" /> 
<polyline style="fill-rule:evenodd;"
points="27450,44650
27450,44965
27135,44965
27135,44650
27450,44650
" /> 
<polyline style="fill-rule:evenodd;"
points="27765,44650
27765,44965
27450,44965
27450,44650
27765,44650
" /> 
<polyline style="fill-rule:evenodd;"
points="28080,44650
28080,44965
27765,44965
27765,44650
28080,44650
" /> 
<polyline style="fill-rule:evenodd;"
points="28710,44650
28710,44965
28395,44965
28395,44650
28710,44650
" /> 
<polyline style="fill-rule:evenodd;"
points="18631,44335
18631,44650
18316,44650
18316,44335
18631,44335
" /> 
<polyline style="fill-rule:evenodd;"
points="20521,44335
20521,44650
20206,44650
20206,44335
20521,44335
" /> 
<polyline style="fill-rule:evenodd;"
points="21151,44335
21151,44650
20836,44650
20836,44335
21151,44335
" /> 
<polyline style="fill-rule:evenodd;"
points="21781,44335
21781,44650
21466,44650
21466,44335
21781,44335
" /> 
<polyline style="fill-rule:evenodd;"
points="22096,44335
22096,44650
21781,44650
21781,44335
22096,44335
" /> 
<polyline style="fill-rule:evenodd;"
points="22726,44335
22726,44650
22411,44650
22411,44335
22726,44335
" /> 
<polyline style="fill-rule:evenodd;"
points="23041,44335
23041,44650
22726,44650
22726,44335
23041,44335
" /> 
<polyline style="fill-rule:evenodd;"
points="23671,44335
23671,44650
23356,44650
23356,44335
23671,44335
" /> 
<polyline style="fill-rule:evenodd;"
points="24301,44335
24301,44650
23986,44650
23986,44335
24301,44335
" /> 
<polyline style="fill-rule:evenodd;"
points="24616,44335
24616,44650
24301,44650
24301,44335
24616,44335
" /> 
<polyline style="fill-rule:evenodd;"
points="26820,44335
26820,44650
26505,44650
26505,44335
26820,44335
" /> 
<polyline style="fill-rule:evenodd;"
points="28710,44335
28710,44650
28395,44650
28395,44335
28710,44335
" /> 
<polyline style="fill-rule:evenodd;"
points="18631,44020
18631,44335
18316,44335
18316,44020
18631,44020
" /> 
<polyline style="fill-rule:evenodd;"
points="18946,44020
18946,44335
18631,44335
18631,44020
18946,44020
" /> 
<polyline style="fill-rule:evenodd;"
points="19261,44020
19261,44335
18946,44335
18946,44020
19261,44020
" /> 
<polyline style="fill-rule:evenodd;"
points="19576,44020
19576,44335
19261,44335
19261,44020
19576,44020
" /> 
<polyline style="fill-rule:evenodd;"
points="19891,44020
19891,44335
19576,44335
19576,44020
19891,44020
" /> 
<polyline style="fill-rule:evenodd;"
points="20206,44020
20206,44335
19891,44335
19891,44020
20206,44020
" /> 
<polyline style="fill-rule:evenodd;"
points="20521,44020
20521,44335
20206,44335
20206,44020
20521,44020
" /> 
<polyline style="fill-rule:evenodd;"
points="21151,44020
21151,44335
20836,44335
20836,44020
21151,44020
" /> 
<polyline style="fill-rule:evenodd;"
points="21781,44020
21781,44335
21466,44335
21466,44020
21781,44020
" /> 
<polyline style="fill-rule:evenodd;"
points="22411,44020
22411,44335
22096,44335
22096,44020
22411,44020
" /> 
<polyline style="fill-rule:evenodd;"
points="23041,44020
23041,44335
22726,44335
22726,44020
23041,44020
" /> 
<polyline style="fill-rule:evenodd;"
points="23671,44020
23671,44335
23356,44335
23356,44020
23671,44020
" /> 
<polyline style="fill-rule:evenodd;"
points="24301,44020
24301,44335
23986,44335
23986,44020
24301,44020
" /> 
<polyline style="fill-rule:evenodd;"
points="24931,44020
24931,44335
24616,44335
24616,44020
24931,44020
" /> 
<polyline style="fill-rule:evenodd;"
points="25560,44020
25560,44335
25246,44335
25246,44020
25560,44020
" /> 
<polyline style="fill-rule:evenodd;"
points="26190,44020
26190,44335
25875,44335
25875,44020
26190,44020
" /> 
<polyline style="fill-rule:evenodd;"
points="26820,44020
26820,44335
26505,44335
26505,44020
26820,44020
" /> 
<polyline style="fill-rule:evenodd;"
points="27135,44020
27135,44335
26820,44335
26820,44020
27135,44020
" /> 
<polyline style="fill-rule:evenodd;"
points="27450,44020
27450,44335
27135,44335
27135,44020
27450,44020
" /> 
<polyline style="fill-rule:evenodd;"
points="27765,44020
27765,44335
27450,44335
27450,44020
27765,44020
" /> 
<polyline style="fill-rule:evenodd;"
points="28080,44020
28080,44335
27765,44335
27765,44020
28080,44020
" /> 
<polyline style="fill-rule:evenodd;"
points="28395,44020
28395,44335
28080,44335
28080,44020
28395,44020
" /> 
<polyline style="fill-rule:evenodd;"
points="28710,44020
28710,44335
28395,44335
28395,44020
28710,44020
" /> 
<polyline style="fill-rule:evenodd;"
points="21151,43705
21151,44020
20836,44020
20836,43705
21151,43705
" /> 
<polyline style="fill-rule:evenodd;"
points="21781,43705
21781,44020
21466,44020
21466,43705
21781,43705
" /> 
<polyline style="fill-rule:evenodd;"
points="23041,43705
23041,44020
22726,44020
22726,43705
23041,43705
" /> 
<polyline style="fill-rule:evenodd;"
points="23356,43705
23356,44020
23041,44020
23041,43705
23356,43705
" /> 
<polyline style="fill-rule:evenodd;"
points="23671,43705
23671,44020
23356,44020
23356,43705
23671,43705
" /> 
<polyline style="fill-rule:evenodd;"
points="23986,43705
23986,44020
23671,44020
23671,43705
23986,43705
" /> 
<polyline style="fill-rule:evenodd;"
points="24301,43705
24301,44020
23986,44020
23986,43705
24301,43705
" /> 
<polyline style="fill-rule:evenodd;"
points="25246,43705
25246,44020
24931,44020
24931,43705
25246,43705
" /> 
<polyline style="fill-rule:evenodd;"
points="25875,43705
25875,44020
25560,44020
25560,43705
25875,43705
" /> 
<polyline style="fill-rule:evenodd;"
points="18631,43390
18631,43705
18316,43705
18316,43390
18631,43390
" /> 
<polyline style="fill-rule:evenodd;"
points="19891,43390
19891,43705
19576,43705
19576,43390
19891,43390
" /> 
<polyline style="fill-rule:evenodd;"
points="20521,43390
20521,43705
20206,43705
20206,43390
20521,43390
" /> 
<polyline style="fill-rule:evenodd;"
points="20836,43390
20836,43705
20521,43705
20521,43390
20836,43390
" /> 
<polyline style="fill-rule:evenodd;"
points="21151,43390
21151,43705
20836,43705
20836,43390
21151,43390
" /> 
<polyline style="fill-rule:evenodd;"
points="21466,43390
21466,43705
21151,43705
21151,43390
21466,43390
" /> 
<polyline style="fill-rule:evenodd;"
points="22096,43390
22096,43705
21781,43705
21781,43390
22096,43390
" /> 
<polyline style="fill-rule:evenodd;"
points="22411,43390
22411,43705
22096,43705
22096,43390
22411,43390
" /> 
<polyline style="fill-rule:evenodd;"
points="22726,43390
22726,43705
22411,43705
22411,43390
22726,43390
" /> 
<polyline style="fill-rule:evenodd;"
points="23041,43390
23041,43705
22726,43705
22726,43390
23041,43390
" /> 
<polyline style="fill-rule:evenodd;"
points="23671,43390
23671,43705
23356,43705
23356,43390
23671,43390
" /> 
<polyline style="fill-rule:evenodd;"
points="24301,43390
24301,43705
23986,43705
23986,43390
24301,43390
" /> 
<polyline style="fill-rule:evenodd;"
points="24616,43390
24616,43705
24301,43705
24301,43390
24616,43390
" /> 
<polyline style="fill-rule:evenodd;"
points="26505,43390
26505,43705
26190,43705
26190,43390
26505,43390
" /> 
<polyline style="fill-rule:evenodd;"
points="26820,43390
26820,43705
26505,43705
26505,43390
26820,43390
" /> 
<polyline style="fill-rule:evenodd;"
points="27135,43390
27135,43705
26820,43705
26820,43390
27135,43390
" /> 
<polyline style="fill-rule:evenodd;"
points="27450,43390
27450,43705
27135,43705
27135,43390
27450,43390
" /> 
<polyline style="fill-rule:evenodd;"
points="27765,43390
27765,43705
27450,43705
27450,43390
27765,43390
" /> 
<polyline style="fill-rule:evenodd;"
points="28710,43390
28710,43705
28395,43705
28395,43390
28710,43390
" /> 
<polyline style="fill-rule:evenodd;"
points="18631,43075
18631,43390
18316,43390
18316,43075
18631,43075
" /> 
<polyline style="fill-rule:evenodd;"
points="18946,43075
18946,43390
18631,43390
18631,43075
18946,43075
" /> 
<polyline style="fill-rule:evenodd;"
points="19261,43075
19261,43390
18946,43390
18946,43075
19261,43075
" /> 
<polyline style="fill-rule:evenodd;"
points="21781,43075
21781,43390
21466,43390
21466,43075
21781,43075
" /> 
<polyline style="fill-rule:evenodd;"
points="22411,43075
22411,43390
22096,43390
22096,43075
22411,43075
" /> 
<polyline style="fill-rule:evenodd;"
points="22726,43075
22726,43390
22411,43390
22411,43075
22726,43075
" /> 
<polyline style="fill-rule:evenodd;"
points="24616,43075
24616,43390
24301,43390
24301,43075
24616,43075
" /> 
<polyline style="fill-rule:evenodd;"
points="24931,43075
24931,43390
24616,43390
24616,43075
24931,43075
" /> 
<polyline style="fill-rule:evenodd;"
points="25560,43075
25560,43390
25246,43390
25246,43075
25560,43075
" /> 
<polyline style="fill-rule:evenodd;"
points="26190,43075
26190,43390
25875,43390
25875,43075
26190,43075
" /> 
<polyline style="fill-rule:evenodd;"
points="28080,43075
28080,43390
27765,43390
27765,43075
28080,43075
" /> 
<polyline style="fill-rule:evenodd;"
points="28395,43075
28395,43390
28080,43390
28080,43075
28395,43075
" /> 
<polyline style="fill-rule:evenodd;"
points="28710,43075
28710,43390
28395,43390
28395,43075
28710,43075
" /> 
<polyline style="fill-rule:evenodd;"
points="19891,42760
19891,43075
19576,43075
19576,42760
19891,42760
" /> 
<polyline style="fill-rule:evenodd;"
points="20521,42760
20521,43075
20206,43075
20206,42760
20521,42760
" /> 
<polyline style="fill-rule:evenodd;"
points="21466,42760
21466,43075
21151,43075
21151,42760
21466,42760
" /> 
<polyline style="fill-rule:evenodd;"
points="21781,42760
21781,43075
21466,43075
21466,42760
21781,42760
" /> 
<polyline style="fill-rule:evenodd;"
points="23356,42760
23356,43075
23041,43075
23041,42760
23356,42760
" /> 
<polyline style="fill-rule:evenodd;"
points="23986,42760
23986,43075
23671,43075
23671,42760
23986,42760
" /> 
<polyline style="fill-rule:evenodd;"
points="24931,42760
24931,43075
24616,43075
24616,42760
24931,42760
" /> 
<polyline style="fill-rule:evenodd;"
points="25246,42760
25246,43075
24931,43075
24931,42760
25246,42760
" /> 
<polyline style="fill-rule:evenodd;"
points="25560,42760
25560,43075
25246,43075
25246,42760
25560,42760
" /> 
<polyline style="fill-rule:evenodd;"
points="25875,42760
25875,43075
25560,43075
25560,42760
25875,42760
" /> 
<polyline style="fill-rule:evenodd;"
points="26190,42760
26190,43075
25875,43075
25875,42760
26190,42760
" /> 
<polyline style="fill-rule:evenodd;"
points="26505,42760
26505,43075
26190,43075
26190,42760
26505,42760
" /> 
<polyline style="fill-rule:evenodd;"
points="26820,42760
26820,43075
26505,43075
26505,42760
26820,42760
" /> 
<polyline style="fill-rule:evenodd;"
points="28395,42760
28395,43075
28080,43075
28080,42760
28395,42760
" /> 
<polyline style="fill-rule:evenodd;"
points="28710,42760
28710,43075
28395,43075
28395,42760
28710,42760
" /> 
<polyline style="fill-rule:evenodd;"
points="19261,42445
19261,42760
18946,42760
18946,42445
19261,42445
" /> 
<polyline style="fill-rule:evenodd;"
points="22411,42445
22411,42760
22096,42760
22096,42445
22411,42445
" /> 
<polyline style="fill-rule:evenodd;"
points="23041,42445
23041,42760
22726,42760
22726,42445
23041,42445
" /> 
<polyline style="fill-rule:evenodd;"
points="23356,42445
23356,42760
23041,42760
23041,42445
23356,42445
" /> 
<polyline style="fill-rule:evenodd;"
points="23671,42445
23671,42760
23356,42760
23356,42445
23671,42445
" /> 
<polyline style="fill-rule:evenodd;"
points="23986,42445
23986,42760
23671,42760
23671,42445
23986,42445
" /> 
<polyline style="fill-rule:evenodd;"
points="24301,42445
24301,42760
23986,42760
23986,42445
24301,42445
" /> 
<polyline style="fill-rule:evenodd;"
points="25246,42445
25246,42760
24931,42760
24931,42445
25246,42445
" /> 
<polyline style="fill-rule:evenodd;"
points="25875,42445
25875,42760
25560,42760
25560,42445
25875,42445
" /> 
<polyline style="fill-rule:evenodd;"
points="26820,42445
26820,42760
26505,42760
26505,42445
26820,42445
" /> 
<polyline style="fill-rule:evenodd;"
points="27450,42445
27450,42760
27135,42760
27135,42445
27450,42445
" /> 
<polyline style="fill-rule:evenodd;"
points="27765,42445
27765,42760
27450,42760
27450,42445
27765,42445
" /> 
<polyline style="fill-rule:evenodd;"
points="28710,42445
28710,42760
28395,42760
28395,42445
28710,42445
" /> 
<polyline style="fill-rule:evenodd;"
points="18631,42130
18631,42445
18316,42445
18316,42130
18631,42130
" /> 
<polyline style="fill-rule:evenodd;"
points="18946,42130
18946,42445
18631,42445
18631,42130
18946,42130
" /> 
<polyline style="fill-rule:evenodd;"
points="19261,42130
19261,42445
18946,42445
18946,42130
19261,42130
" /> 
<polyline style="fill-rule:evenodd;"
points="19576,42130
19576,42445
19261,42445
19261,42130
19576,42130
" /> 
<polyline style="fill-rule:evenodd;"
points="20206,42130
20206,42445
19891,42445
19891,42130
20206,42130
" /> 
<polyline style="fill-rule:evenodd;"
points="20521,42130
20521,42445
20206,42445
20206,42130
20521,42130
" /> 
<polyline style="fill-rule:evenodd;"
points="21151,42130
21151,42445
20836,42445
20836,42130
21151,42130
" /> 
<polyline style="fill-rule:evenodd;"
points="22726,42130
22726,42445
22411,42445
22411,42130
22726,42130
" /> 
<polyline style="fill-rule:evenodd;"
points="23041,42130
23041,42445
22726,42445
22726,42130
23041,42130
" /> 
<polyline style="fill-rule:evenodd;"
points="24301,42130
24301,42445
23986,42445
23986,42130
24301,42130
" /> 
<polyline style="fill-rule:evenodd;"
points="24616,42130
24616,42445
24301,42445
24301,42130
24616,42130
" /> 
<polyline style="fill-rule:evenodd;"
points="24931,42130
24931,42445
24616,42445
24616,42130
24931,42130
" /> 
<polyline style="fill-rule:evenodd;"
points="26190,42130
26190,42445
25875,42445
25875,42130
26190,42130
" /> 
<polyline style="fill-rule:evenodd;"
points="27135,42130
27135,42445
26820,42445
26820,42130
27135,42130
" /> 
<polyline style="fill-rule:evenodd;"
points="27765,42130
27765,42445
27450,42445
27450,42130
27765,42130
" /> 
<polyline style="fill-rule:evenodd;"
points="19261,41815
19261,42130
18946,42130
18946,41815
19261,41815
" /> 
<polyline style="fill-rule:evenodd;"
points="19891,41815
19891,42130
19576,42130
19576,41815
19891,41815
" /> 
<polyline style="fill-rule:evenodd;"
points="21151,41815
21151,42130
20836,42130
20836,41815
21151,41815
" /> 
<polyline style="fill-rule:evenodd;"
points="21466,41815
21466,42130
21151,42130
21151,41815
21466,41815
" /> 
<polyline style="fill-rule:evenodd;"
points="21781,41815
21781,42130
21466,42130
21466,41815
21781,41815
" /> 
<polyline style="fill-rule:evenodd;"
points="22096,41815
22096,42130
21781,42130
21781,41815
22096,41815
" /> 
<polyline style="fill-rule:evenodd;"
points="22411,41815
22411,42130
22096,42130
22096,41815
22411,41815
" /> 
<polyline style="fill-rule:evenodd;"
points="23671,41815
23671,42130
23356,42130
23356,41815
23671,41815
" /> 
<polyline style="fill-rule:evenodd;"
points="23986,41815
23986,42130
23671,42130
23671,41815
23986,41815
" /> 
<polyline style="fill-rule:evenodd;"
points="24616,41815
24616,42130
24301,42130
24301,41815
24616,41815
" /> 
<polyline style="fill-rule:evenodd;"
points="25246,41815
25246,42130
24931,42130
24931,41815
25246,41815
" /> 
<polyline style="fill-rule:evenodd;"
points="25560,41815
25560,42130
25246,42130
25246,41815
25560,41815
" /> 
<polyline style="fill-rule:evenodd;"
points="26505,41815
26505,42130
26190,42130
26190,41815
26505,41815
" /> 
<polyline style="fill-rule:evenodd;"
points="26820,41815
26820,42130
26505,42130
26505,41815
26820,41815
" /> 
<polyline style="fill-rule:evenodd;"
points="28080,41815
28080,42130
27765,42130
27765,41815
28080,41815
" /> 
<polyline style="fill-rule:evenodd;"
points="18946,41500
18946,41815
18631,41815
18631,41500
18946,41500
" /> 
<polyline style="fill-rule:evenodd;"
points="19261,41500
19261,41815
18946,41815
18946,41500
19261,41500
" /> 
<polyline style="fill-rule:evenodd;"
points="19576,41500
19576,41815
19261,41815
19261,41500
19576,41500
" /> 
<polyline style="fill-rule:evenodd;"
points="19891,41500
19891,41815
19576,41815
19576,41500
19891,41500
" /> 
<polyline style="fill-rule:evenodd;"
points="20521,41500
20521,41815
20206,41815
20206,41500
20521,41500
" /> 
<polyline style="fill-rule:evenodd;"
points="20836,41500
20836,41815
20521,41815
20521,41500
20836,41500
" /> 
<polyline style="fill-rule:evenodd;"
points="21151,41500
21151,41815
20836,41815
20836,41500
21151,41500
" /> 
<polyline style="fill-rule:evenodd;"
points="22096,41500
22096,41815
21781,41815
21781,41500
22096,41500
" /> 
<polyline style="fill-rule:evenodd;"
points="23041,41500
23041,41815
22726,41815
22726,41500
23041,41500
" /> 
<polyline style="fill-rule:evenodd;"
points="23671,41500
23671,41815
23356,41815
23356,41500
23671,41500
" /> 
<polyline style="fill-rule:evenodd;"
points="24301,41500
24301,41815
23986,41815
23986,41500
24301,41500
" /> 
<polyline style="fill-rule:evenodd;"
points="24616,41500
24616,41815
24301,41815
24301,41500
24616,41500
" /> 
<polyline style="fill-rule:evenodd;"
points="27450,41500
27450,41815
27135,41815
27135,41500
27450,41500
" /> 
<polyline style="fill-rule:evenodd;"
points="18631,41185
18631,41500
18316,41500
18316,41185
18631,41185
" /> 
<polyline style="fill-rule:evenodd;"
points="19261,41185
19261,41500
18946,41500
18946,41185
19261,41185
" /> 
<polyline style="fill-rule:evenodd;"
points="19576,41185
19576,41500
19261,41500
19261,41185
19576,41185
" /> 
<polyline style="fill-rule:evenodd;"
points="21151,41185
21151,41500
20836,41500
20836,41185
21151,41185
" /> 
<polyline style="fill-rule:evenodd;"
points="21781,41185
21781,41500
21466,41500
21466,41185
21781,41185
" /> 
<polyline style="fill-rule:evenodd;"
points="22411,41185
22411,41500
22096,41500
22096,41185
22411,41185
" /> 
<polyline style="fill-rule:evenodd;"
points="24616,41185
24616,41500
24301,41500
24301,41185
24616,41185
" /> 
<polyline style="fill-rule:evenodd;"
points="24931,41185
24931,41500
24616,41500
24616,41185
24931,41185
" /> 
<polyline style="fill-rule:evenodd;"
points="25560,41185
25560,41500
25246,41500
25246,41185
25560,41185
" /> 
<polyline style="fill-rule:evenodd;"
points="26190,41185
26190,41500
25875,41500
25875,41185
26190,41185
" /> 
<polyline style="fill-rule:evenodd;"
points="26820,41185
26820,41500
26505,41500
26505,41185
26820,41185
" /> 
<polyline style="fill-rule:evenodd;"
points="27135,41185
27135,41500
26820,41500
26820,41185
27135,41185
" /> 
<polyline style="fill-rule:evenodd;"
points="27450,41185
27450,41500
27135,41500
27135,41185
27450,41185
" /> 
<polyline style="fill-rule:evenodd;"
points="27765,41185
27765,41500
27450,41500
27450,41185
27765,41185
" /> 
<polyline style="fill-rule:evenodd;"
points="28395,41185
28395,41500
28080,41500
28080,41185
28395,41185
" /> 
<polyline style="fill-rule:evenodd;"
points="18631,40870
18631,41185
18316,41185
18316,40870
18631,40870
" /> 
<polyline style="fill-rule:evenodd;"
points="18946,40870
18946,41185
18631,41185
18631,40870
18946,40870
" /> 
<polyline style="fill-rule:evenodd;"
points="19261,40870
19261,41185
18946,41185
18946,40870
19261,40870
" /> 
<polyline style="fill-rule:evenodd;"
points="19576,40870
19576,41185
19261,41185
19261,40870
19576,40870
" /> 
<polyline style="fill-rule:evenodd;"
points="20521,40870
20521,41185
20206,41185
20206,40870
20521,40870
" /> 
<polyline style="fill-rule:evenodd;"
points="21466,40870
21466,41185
21151,41185
21151,40870
21466,40870
" /> 
<polyline style="fill-rule:evenodd;"
points="22411,40870
22411,41185
22096,41185
22096,40870
22411,40870
" /> 
<polyline style="fill-rule:evenodd;"
points="22726,40870
22726,41185
22411,41185
22411,40870
22726,40870
" /> 
<polyline style="fill-rule:evenodd;"
points="23041,40870
23041,41185
22726,41185
22726,40870
23041,40870
" /> 
<polyline style="fill-rule:evenodd;"
points="23356,40870
23356,41185
23041,41185
23041,40870
23356,40870
" /> 
<polyline style="fill-rule:evenodd;"
points="24931,40870
24931,41185
24616,41185
24616,40870
24931,40870
" /> 
<polyline style="fill-rule:evenodd;"
points="25560,40870
25560,41185
25246,41185
25246,40870
25560,40870
" /> 
<polyline style="fill-rule:evenodd;"
points="25875,40870
25875,41185
25560,41185
25560,40870
25875,40870
" /> 
<polyline style="fill-rule:evenodd;"
points="26190,40870
26190,41185
25875,41185
25875,40870
26190,40870
" /> 
<polyline style="fill-rule:evenodd;"
points="26505,40870
26505,41185
26190,41185
26190,40870
26505,40870
" /> 
<polyline style="fill-rule:evenodd;"
points="26820,40870
26820,41185
26505,41185
26505,40870
26820,40870
" /> 
<polyline style="fill-rule:evenodd;"
points="27135,40870
27135,41185
26820,41185
26820,40870
27135,40870
" /> 
<polyline style="fill-rule:evenodd;"
points="27450,40870
27450,41185
27135,41185
27135,40870
27450,40870
" /> 
<polyline style="fill-rule:evenodd;"
points="27765,40870
27765,41185
27450,41185
27450,40870
27765,40870
" /> 
<polyline style="fill-rule:evenodd;"
points="28080,40870
28080,41185
27765,41185
27765,40870
28080,40870
" /> 
<polyline style="fill-rule:evenodd;"
points="28710,40870
28710,41185
28395,41185
28395,40870
28710,40870
" /> 
<polyline style="fill-rule:evenodd;"
points="18631,40555
18631,40870
18316,40870
18316,40555
18631,40555
" /> 
<polyline style="fill-rule:evenodd;"
points="19576,40555
19576,40870
19261,40870
19261,40555
19576,40555
" /> 
<polyline style="fill-rule:evenodd;"
points="19891,40555
19891,40870
19576,40870
19576,40555
19891,40555
" /> 
<polyline style="fill-rule:evenodd;"
points="20206,40555
20206,40870
19891,40870
19891,40555
20206,40555
" /> 
<polyline style="fill-rule:evenodd;"
points="20836,40555
20836,40870
20521,40870
20521,40555
20836,40555
" /> 
<polyline style="fill-rule:evenodd;"
points="21781,40555
21781,40870
21466,40870
21466,40555
21781,40555
" /> 
<polyline style="fill-rule:evenodd;"
points="22096,40555
22096,40870
21781,40870
21781,40555
22096,40555
" /> 
<polyline style="fill-rule:evenodd;"
points="22411,40555
22411,40870
22096,40870
22096,40555
22411,40555
" /> 
<polyline style="fill-rule:evenodd;"
points="23041,40555
23041,40870
22726,40870
22726,40555
23041,40555
" /> 
<polyline style="fill-rule:evenodd;"
points="23671,40555
23671,40870
23356,40870
23356,40555
23671,40555
" /> 
<polyline style="fill-rule:evenodd;"
points="23986,40555
23986,40870
23671,40870
23671,40555
23986,40555
" /> 
<polyline style="fill-rule:evenodd;"
points="24301,40555
24301,40870
23986,40870
23986,40555
24301,40555
" /> 
<polyline style="fill-rule:evenodd;"
points="24616,40555
24616,40870
24301,40870
24301,40555
24616,40555
" /> 
<polyline style="fill-rule:evenodd;"
points="25246,40555
25246,40870
24931,40870
24931,40555
25246,40555
" /> 
<polyline style="fill-rule:evenodd;"
points="26505,40555
26505,40870
26190,40870
26190,40555
26505,40555
" /> 
<polyline style="fill-rule:evenodd;"
points="26820,40555
26820,40870
26505,40870
26505,40555
26820,40555
" /> 
<polyline style="fill-rule:evenodd;"
points="27765,40555
27765,40870
27450,40870
27450,40555
27765,40555
" /> 
<polyline style="fill-rule:evenodd;"
points="28080,40555
28080,40870
27765,40870
27765,40555
28080,40555
" /> 
<polyline style="fill-rule:evenodd;"
points="28710,40555
28710,40870
28395,40870
28395,40555
28710,40555
" /> 
<polyline style="fill-rule:evenodd;"
points="19261,40240
19261,40555
18946,40555
18946,40240
19261,40240
" /> 
<polyline style="fill-rule:evenodd;"
points="20521,40240
20521,40555
20206,40555
20206,40240
20521,40240
" /> 
<polyline style="fill-rule:evenodd;"
points="21151,40240
21151,40555
20836,40555
20836,40240
21151,40240
" /> 
<polyline style="fill-rule:evenodd;"
points="21466,40240
21466,40555
21151,40555
21151,40240
21466,40240
" /> 
<polyline style="fill-rule:evenodd;"
points="22411,40240
22411,40555
22096,40555
22096,40240
22411,40240
" /> 
<polyline style="fill-rule:evenodd;"
points="22726,40240
22726,40555
22411,40555
22411,40240
22726,40240
" /> 
<polyline style="fill-rule:evenodd;"
points="23671,40240
23671,40555
23356,40555
23356,40240
23671,40240
" /> 
<polyline style="fill-rule:evenodd;"
points="24301,40240
24301,40555
23986,40555
23986,40240
24301,40240
" /> 
<polyline style="fill-rule:evenodd;"
points="24616,40240
24616,40555
24301,40555
24301,40240
24616,40240
" /> 
<polyline style="fill-rule:evenodd;"
points="27135,40240
27135,40555
26820,40555
26820,40240
27135,40240
" /> 
<polyline style="fill-rule:evenodd;"
points="27765,40240
27765,40555
27450,40555
27450,40240
27765,40240
" /> 
<polyline style="fill-rule:evenodd;"
points="18631,39925
18631,40240
18316,40240
18316,39925
18631,39925
" /> 
<polyline style="fill-rule:evenodd;"
points="19576,39925
19576,40240
19261,40240
19261,39925
19576,39925
" /> 
<polyline style="fill-rule:evenodd;"
points="19891,39925
19891,40240
19576,40240
19576,39925
19891,39925
" /> 
<polyline style="fill-rule:evenodd;"
points="20206,39925
20206,40240
19891,40240
19891,39925
20206,39925
" /> 
<polyline style="fill-rule:evenodd;"
points="20836,39925
20836,40240
20521,40240
20521,39925
20836,39925
" /> 
<polyline style="fill-rule:evenodd;"
points="21466,39925
21466,40240
21151,40240
21151,39925
21466,39925
" /> 
<polyline style="fill-rule:evenodd;"
points="22096,39925
22096,40240
21781,40240
21781,39925
22096,39925
" /> 
<polyline style="fill-rule:evenodd;"
points="22411,39925
22411,40240
22096,40240
22096,39925
22411,39925
" /> 
<polyline style="fill-rule:evenodd;"
points="22726,39925
22726,40240
22411,40240
22411,39925
22726,39925
" /> 
<polyline style="fill-rule:evenodd;"
points="24616,39925
24616,40240
24301,40240
24301,39925
24616,39925
" /> 
<polyline style="fill-rule:evenodd;"
points="24931,39925
24931,40240
24616,40240
24616,39925
24931,39925
" /> 
<polyline style="fill-rule:evenodd;"
points="25560,39925
25560,40240
25246,40240
25246,39925
25560,39925
" /> 
<polyline style="fill-rule:evenodd;"
points="26190,39925
26190,40240
25875,40240
25875,39925
26190,39925
" /> 
<polyline style="fill-rule:evenodd;"
points="26505,39925
26505,40240
26190,40240
26190,39925
26505,39925
" /> 
<polyline style="fill-rule:evenodd;"
points="27450,39925
27450,40240
27135,40240
27135,39925
27450,39925
" /> 
<polyline style="fill-rule:evenodd;"
points="28395,39925
28395,40240
28080,40240
28080,39925
28395,39925
" /> 
<polyline style="fill-rule:evenodd;"
points="18631,39610
18631,39925
18316,39925
18316,39610
18631,39610
" /> 
<polyline style="fill-rule:evenodd;"
points="18946,39610
18946,39925
18631,39925
18631,39610
18946,39610
" /> 
<polyline style="fill-rule:evenodd;"
points="19261,39610
19261,39925
18946,39925
18946,39610
19261,39610
" /> 
<polyline style="fill-rule:evenodd;"
points="19576,39610
19576,39925
19261,39925
19261,39610
19576,39610
" /> 
<polyline style="fill-rule:evenodd;"
points="19891,39610
19891,39925
19576,39925
19576,39610
19891,39610
" /> 
<polyline style="fill-rule:evenodd;"
points="20206,39610
20206,39925
19891,39925
19891,39610
20206,39610
" /> 
<polyline style="fill-rule:evenodd;"
points="20521,39610
20521,39925
20206,39925
20206,39610
20521,39610
" /> 
<polyline style="fill-rule:evenodd;"
points="21151,39610
21151,39925
20836,39925
20836,39610
21151,39610
" /> 
<polyline style="fill-rule:evenodd;"
points="22411,39610
22411,39925
22096,39925
22096,39610
22411,39610
" /> 
<polyline style="fill-rule:evenodd;"
points="22726,39610
22726,39925
22411,39925
22411,39610
22726,39610
" /> 
<polyline style="fill-rule:evenodd;"
points="23041,39610
23041,39925
22726,39925
22726,39610
23041,39610
" /> 
<polyline style="fill-rule:evenodd;"
points="23356,39610
23356,39925
23041,39925
23041,39610
23356,39610
" /> 
<polyline style="fill-rule:evenodd;"
points="23671,39610
23671,39925
23356,39925
23356,39610
23671,39610
" /> 
<polyline style="fill-rule:evenodd;"
points="25560,39610
25560,39925
25246,39925
25246,39610
25560,39610
" /> 
<polyline style="fill-rule:evenodd;"
points="25875,39610
25875,39925
25560,39925
25560,39610
25875,39610
" /> 
<polyline style="fill-rule:evenodd;"
points="26505,39610
26505,39925
26190,39925
26190,39610
26505,39610
" /> 
<polyline style="fill-rule:evenodd;"
points="26820,39610
26820,39925
26505,39925
26505,39610
26820,39610
" /> 
<polyline style="fill-rule:evenodd;"
points="28395,39610
28395,39925
28080,39925
28080,39610
28395,39610
" /> 
<polyline style="fill-rule:evenodd;"
points="28710,39610
28710,39925
28395,39925
28395,39610
28710,39610
" /> 
<polyline style="fill-rule:evenodd;"
points="18631,39295
18631,39610
18316,39610
18316,39295
18631,39295
" /> 
<polyline style="fill-rule:evenodd;"
points="18946,39295
18946,39610
18631,39610
18631,39295
18946,39295
" /> 
<polyline style="fill-rule:evenodd;"
points="19576,39295
19576,39610
19261,39610
19261,39295
19576,39295
" /> 
<polyline style="fill-rule:evenodd;"
points="19891,39295
19891,39610
19576,39610
19576,39295
19891,39295
" /> 
<polyline style="fill-rule:evenodd;"
points="21466,39295
21466,39610
21151,39610
21151,39295
21466,39295
" /> 
<polyline style="fill-rule:evenodd;"
points="22411,39295
22411,39610
22096,39610
22096,39295
22411,39295
" /> 
<polyline style="fill-rule:evenodd;"
points="23041,39295
23041,39610
22726,39610
22726,39295
23041,39295
" /> 
<polyline style="fill-rule:evenodd;"
points="24301,39295
24301,39610
23986,39610
23986,39295
24301,39295
" /> 
<polyline style="fill-rule:evenodd;"
points="24616,39295
24616,39610
24301,39610
24301,39295
24616,39295
" /> 
<polyline style="fill-rule:evenodd;"
points="24931,39295
24931,39610
24616,39610
24616,39295
24931,39295
" /> 
<polyline style="fill-rule:evenodd;"
points="26190,39295
26190,39610
25875,39610
25875,39295
26190,39295
" /> 
<polyline style="fill-rule:evenodd;"
points="26820,39295
26820,39610
26505,39610
26505,39295
26820,39295
" /> 
<polyline style="fill-rule:evenodd;"
points="27135,39295
27135,39610
26820,39610
26820,39295
27135,39295
" /> 
<polyline style="fill-rule:evenodd;"
points="27450,39295
27450,39610
27135,39610
27135,39295
27450,39295
" /> 
<polyline style="fill-rule:evenodd;"
points="27765,39295
27765,39610
27450,39610
27450,39295
27765,39295
" /> 
<polyline style="fill-rule:evenodd;"
points="28395,39295
28395,39610
28080,39610
28080,39295
28395,39295
" /> 
<polyline style="fill-rule:evenodd;"
points="19261,38980
19261,39295
18946,39295
18946,38980
19261,38980
" /> 
<polyline style="fill-rule:evenodd;"
points="20521,38980
20521,39295
20206,39295
20206,38980
20521,38980
" /> 
<polyline style="fill-rule:evenodd;"
points="20836,38980
20836,39295
20521,39295
20521,38980
20836,38980
" /> 
<polyline style="fill-rule:evenodd;"
points="21466,38980
21466,39295
21151,39295
21151,38980
21466,38980
" /> 
<polyline style="fill-rule:evenodd;"
points="21781,38980
21781,39295
21466,39295
21466,38980
21781,38980
" /> 
<polyline style="fill-rule:evenodd;"
points="23041,38980
23041,39295
22726,39295
22726,38980
23041,38980
" /> 
<polyline style="fill-rule:evenodd;"
points="23356,38980
23356,39295
23041,39295
23041,38980
23356,38980
" /> 
<polyline style="fill-rule:evenodd;"
points="23986,38980
23986,39295
23671,39295
23671,38980
23986,38980
" /> 
<polyline style="fill-rule:evenodd;"
points="24931,38980
24931,39295
24616,39295
24616,38980
24931,38980
" /> 
<polyline style="fill-rule:evenodd;"
points="25246,38980
25246,39295
24931,39295
24931,38980
25246,38980
" /> 
<polyline style="fill-rule:evenodd;"
points="25560,38980
25560,39295
25246,39295
25246,38980
25560,38980
" /> 
<polyline style="fill-rule:evenodd;"
points="25875,38980
25875,39295
25560,39295
25560,38980
25875,38980
" /> 
<polyline style="fill-rule:evenodd;"
points="26190,38980
26190,39295
25875,39295
25875,38980
26190,38980
" /> 
<polyline style="fill-rule:evenodd;"
points="26505,38980
26505,39295
26190,39295
26190,38980
26505,38980
" /> 
<polyline style="fill-rule:evenodd;"
points="26820,38980
26820,39295
26505,39295
26505,38980
26820,38980
" /> 
<polyline style="fill-rule:evenodd;"
points="27135,38980
27135,39295
26820,39295
26820,38980
27135,38980
" /> 
<polyline style="fill-rule:evenodd;"
points="27765,38980
27765,39295
27450,39295
27450,38980
27765,38980
" /> 
<polyline style="fill-rule:evenodd;"
points="28080,38980
28080,39295
27765,39295
27765,38980
28080,38980
" /> 
<polyline style="fill-rule:evenodd;"
points="28395,38980
28395,39295
28080,39295
28080,38980
28395,38980
" /> 
<polyline style="fill-rule:evenodd;"
points="19261,38665
19261,38980
18946,38980
18946,38665
19261,38665
" /> 
<polyline style="fill-rule:evenodd;"
points="21781,38665
21781,38980
21466,38980
21466,38665
21781,38665
" /> 
<polyline style="fill-rule:evenodd;"
points="23356,38665
23356,38980
23041,38980
23041,38665
23356,38665
" /> 
<polyline style="fill-rule:evenodd;"
points="23671,38665
23671,38980
23356,38980
23356,38665
23671,38665
" /> 
<polyline style="fill-rule:evenodd;"
points="23986,38665
23986,38980
23671,38980
23671,38665
23986,38665
" /> 
<polyline style="fill-rule:evenodd;"
points="24301,38665
24301,38980
23986,38980
23986,38665
24301,38665
" /> 
<polyline style="fill-rule:evenodd;"
points="25246,38665
25246,38980
24931,38980
24931,38665
25246,38665
" /> 
<polyline style="fill-rule:evenodd;"
points="25875,38665
25875,38980
25560,38980
25560,38665
25875,38665
" /> 
<polyline style="fill-rule:evenodd;"
points="26820,38665
26820,38980
26505,38980
26505,38665
26820,38665
" /> 
<polyline style="fill-rule:evenodd;"
points="28080,38665
28080,38980
27765,38980
27765,38665
28080,38665
" /> 
<polyline style="fill-rule:evenodd;"
points="18631,38350
18631,38665
18316,38665
18316,38350
18631,38350
" /> 
<polyline style="fill-rule:evenodd;"
points="18946,38350
18946,38665
18631,38665
18631,38350
18946,38350
" /> 
<polyline style="fill-rule:evenodd;"
points="19576,38350
19576,38665
19261,38665
19261,38350
19576,38350
" /> 
<polyline style="fill-rule:evenodd;"
points="19891,38350
19891,38665
19576,38665
19576,38350
19891,38350
" /> 
<polyline style="fill-rule:evenodd;"
points="20521,38350
20521,38665
20206,38665
20206,38350
20521,38350
" /> 
<polyline style="fill-rule:evenodd;"
points="20836,38350
20836,38665
20521,38665
20521,38350
20836,38350
" /> 
<polyline style="fill-rule:evenodd;"
points="21781,38350
21781,38665
21466,38665
21466,38350
21781,38350
" /> 
<polyline style="fill-rule:evenodd;"
points="22096,38350
22096,38665
21781,38665
21781,38350
22096,38350
" /> 
<polyline style="fill-rule:evenodd;"
points="22411,38350
22411,38665
22096,38665
22096,38350
22411,38350
" /> 
<polyline style="fill-rule:evenodd;"
points="22726,38350
22726,38665
22411,38665
22411,38350
22726,38350
" /> 
<polyline style="fill-rule:evenodd;"
points="23041,38350
23041,38665
22726,38665
22726,38350
23041,38350
" /> 
<polyline style="fill-rule:evenodd;"
points="23671,38350
23671,38665
23356,38665
23356,38350
23671,38350
" /> 
<polyline style="fill-rule:evenodd;"
points="24301,38350
24301,38665
23986,38665
23986,38350
24301,38350
" /> 
<polyline style="fill-rule:evenodd;"
points="24616,38350
24616,38665
24301,38665
24301,38350
24616,38350
" /> 
<polyline style="fill-rule:evenodd;"
points="26190,38350
26190,38665
25875,38665
25875,38350
26190,38350
" /> 
<polyline style="fill-rule:evenodd;"
points="26505,38350
26505,38665
26190,38665
26190,38350
26505,38350
" /> 
<polyline style="fill-rule:evenodd;"
points="26820,38350
26820,38665
26505,38665
26505,38350
26820,38350
" /> 
<polyline style="fill-rule:evenodd;"
points="27135,38350
27135,38665
26820,38665
26820,38350
27135,38350
" /> 
<polyline style="fill-rule:evenodd;"
points="27450,38350
27450,38665
27135,38665
27135,38350
27450,38350
" /> 
<polyline style="fill-rule:evenodd;"
points="28080,38350
28080,38665
27765,38665
27765,38350
28080,38350
" /> 
<polyline style="fill-rule:evenodd;"
points="28395,38350
28395,38665
28080,38665
28080,38350
28395,38350
" /> 
<polyline style="fill-rule:evenodd;"
points="21151,38035
21151,38350
20836,38350
20836,38035
21151,38035
" /> 
<polyline style="fill-rule:evenodd;"
points="22096,38035
22096,38350
21781,38350
21781,38035
22096,38035
" /> 
<polyline style="fill-rule:evenodd;"
points="22411,38035
22411,38350
22096,38350
22096,38035
22411,38035
" /> 
<polyline style="fill-rule:evenodd;"
points="23041,38035
23041,38350
22726,38350
22726,38035
23041,38035
" /> 
<polyline style="fill-rule:evenodd;"
points="24616,38035
24616,38350
24301,38350
24301,38035
24616,38035
" /> 
<polyline style="fill-rule:evenodd;"
points="24931,38035
24931,38350
24616,38350
24616,38035
24931,38035
" /> 
<polyline style="fill-rule:evenodd;"
points="25560,38035
25560,38350
25246,38350
25246,38035
25560,38035
" /> 
<polyline style="fill-rule:evenodd;"
points="25875,38035
25875,38350
25560,38350
25560,38035
25875,38035
" /> 
<polyline style="fill-rule:evenodd;"
points="26190,38035
26190,38350
25875,38350
25875,38035
26190,38035
" /> 
<polyline style="fill-rule:evenodd;"
points="27450,38035
27450,38350
27135,38350
27135,38035
27450,38035
" /> 
<polyline style="fill-rule:evenodd;"
points="27765,38035
27765,38350
27450,38350
27450,38035
27765,38035
" /> 
<polyline style="fill-rule:evenodd;"
points="28080,38035
28080,38350
27765,38350
27765,38035
28080,38035
" /> 
<polyline style="fill-rule:evenodd;"
points="28395,38035
28395,38350
28080,38350
28080,38035
28395,38035
" /> 
<polyline style="fill-rule:evenodd;"
points="28710,38035
28710,38350
28395,38350
28395,38035
28710,38035
" /> 
<polyline style="fill-rule:evenodd;"
points="18631,37720
18631,38035
18316,38035
18316,37720
18631,37720
" /> 
<polyline style="fill-rule:evenodd;"
points="18946,37720
18946,38035
18631,38035
18631,37720
18946,37720
" /> 
<polyline style="fill-rule:evenodd;"
points="19261,37720
19261,38035
18946,38035
18946,37720
19261,37720
" /> 
<polyline style="fill-rule:evenodd;"
points="19576,37720
19576,38035
19261,38035
19261,37720
19576,37720
" /> 
<polyline style="fill-rule:evenodd;"
points="19891,37720
19891,38035
19576,38035
19576,37720
19891,37720
" /> 
<polyline style="fill-rule:evenodd;"
points="20206,37720
20206,38035
19891,38035
19891,37720
20206,37720
" /> 
<polyline style="fill-rule:evenodd;"
points="20521,37720
20521,38035
20206,38035
20206,37720
20521,37720
" /> 
<polyline style="fill-rule:evenodd;"
points="21151,37720
21151,38035
20836,38035
20836,37720
21151,37720
" /> 
<polyline style="fill-rule:evenodd;"
points="21466,37720
21466,38035
21151,38035
21151,37720
21466,37720
" /> 
<polyline style="fill-rule:evenodd;"
points="21781,37720
21781,38035
21466,38035
21466,37720
21781,37720
" /> 
<polyline style="fill-rule:evenodd;"
points="23356,37720
23356,38035
23041,38035
23041,37720
23356,37720
" /> 
<polyline style="fill-rule:evenodd;"
points="23986,37720
23986,38035
23671,38035
23671,37720
23986,37720
" /> 
<polyline style="fill-rule:evenodd;"
points="24931,37720
24931,38035
24616,38035
24616,37720
24931,37720
" /> 
<polyline style="fill-rule:evenodd;"
points="25246,37720
25246,38035
24931,38035
24931,37720
25246,37720
" /> 
<polyline style="fill-rule:evenodd;"
points="25560,37720
25560,38035
25246,38035
25246,37720
25560,37720
" /> 
<polyline style="fill-rule:evenodd;"
points="25875,37720
25875,38035
25560,38035
25560,37720
25875,37720
" /> 
<polyline style="fill-rule:evenodd;"
points="26190,37720
26190,38035
25875,38035
25875,37720
26190,37720
" /> 
<polyline style="fill-rule:evenodd;"
points="26820,37720
26820,38035
26505,38035
26505,37720
26820,37720
" /> 
<polyline style="fill-rule:evenodd;"
points="27450,37720
27450,38035
27135,38035
27135,37720
27450,37720
" /> 
<polyline style="fill-rule:evenodd;"
points="27765,37720
27765,38035
27450,38035
27450,37720
27765,37720
" /> 
<polyline style="fill-rule:evenodd;"
points="28395,37720
28395,38035
28080,38035
28080,37720
28395,37720
" /> 
<polyline style="fill-rule:evenodd;"
points="28710,37720
28710,38035
28395,38035
28395,37720
28710,37720
" /> 
<polyline style="fill-rule:evenodd;"
points="18631,37405
18631,37720
18316,37720
18316,37405
18631,37405
" /> 
<polyline style="fill-rule:evenodd;"
points="20521,37405
20521,37720
20206,37720
20206,37405
20521,37405
" /> 
<polyline style="fill-rule:evenodd;"
points="21781,37405
21781,37720
21466,37720
21466,37405
21781,37405
" /> 
<polyline style="fill-rule:evenodd;"
points="22096,37405
22096,37720
21781,37720
21781,37405
22096,37405
" /> 
<polyline style="fill-rule:evenodd;"
points="22726,37405
22726,37720
22411,37720
22411,37405
22726,37405
" /> 
<polyline style="fill-rule:evenodd;"
points="23041,37405
23041,37720
22726,37720
22726,37405
23041,37405
" /> 
<polyline style="fill-rule:evenodd;"
points="23356,37405
23356,37720
23041,37720
23041,37405
23356,37405
" /> 
<polyline style="fill-rule:evenodd;"
points="23671,37405
23671,37720
23356,37720
23356,37405
23671,37405
" /> 
<polyline style="fill-rule:evenodd;"
points="23986,37405
23986,37720
23671,37720
23671,37405
23986,37405
" /> 
<polyline style="fill-rule:evenodd;"
points="24301,37405
24301,37720
23986,37720
23986,37405
24301,37405
" /> 
<polyline style="fill-rule:evenodd;"
points="25246,37405
25246,37720
24931,37720
24931,37405
25246,37405
" /> 
<polyline style="fill-rule:evenodd;"
points="25875,37405
25875,37720
25560,37720
25560,37405
25875,37405
" /> 
<polyline style="fill-rule:evenodd;"
points="26190,37405
26190,37720
25875,37720
25875,37405
26190,37405
" /> 
<polyline style="fill-rule:evenodd;"
points="27450,37405
27450,37720
27135,37720
27135,37405
27450,37405
" /> 
<polyline style="fill-rule:evenodd;"
points="27765,37405
27765,37720
27450,37720
27450,37405
27765,37405
" /> 
<polyline style="fill-rule:evenodd;"
points="28710,37405
28710,37720
28395,37720
28395,37405
28710,37405
" /> 
<polyline style="fill-rule:evenodd;"
points="18631,37090
18631,37405
18316,37405
18316,37090
18631,37090
" /> 
<polyline style="fill-rule:evenodd;"
points="19261,37090
19261,37405
18946,37405
18946,37090
19261,37090
" /> 
<polyline style="fill-rule:evenodd;"
points="19576,37090
19576,37405
19261,37405
19261,37090
19576,37090
" /> 
<polyline style="fill-rule:evenodd;"
points="19891,37090
19891,37405
19576,37405
19576,37090
19891,37090
" /> 
<polyline style="fill-rule:evenodd;"
points="20521,37090
20521,37405
20206,37405
20206,37090
20521,37090
" /> 
<polyline style="fill-rule:evenodd;"
points="21151,37090
21151,37405
20836,37405
20836,37090
21151,37090
" /> 
<polyline style="fill-rule:evenodd;"
points="24301,37090
24301,37405
23986,37405
23986,37090
24301,37090
" /> 
<polyline style="fill-rule:evenodd;"
points="24616,37090
24616,37405
24301,37405
24301,37090
24616,37090
" /> 
<polyline style="fill-rule:evenodd;"
points="24931,37090
24931,37405
24616,37405
24616,37090
24931,37090
" /> 
<polyline style="fill-rule:evenodd;"
points="26190,37090
26190,37405
25875,37405
25875,37090
26190,37090
" /> 
<polyline style="fill-rule:evenodd;"
points="26505,37090
26505,37405
26190,37405
26190,37090
26505,37090
" /> 
<polyline style="fill-rule:evenodd;"
points="26820,37090
26820,37405
26505,37405
26505,37090
26820,37090
" /> 
<polyline style="fill-rule:evenodd;"
points="27135,37090
27135,37405
26820,37405
26820,37090
27135,37090
" /> 
<polyline style="fill-rule:evenodd;"
points="27450,37090
27450,37405
27135,37405
27135,37090
27450,37090
" /> 
<polyline style="fill-rule:evenodd;"
points="27765,37090
27765,37405
27450,37405
27450,37090
27765,37090
" /> 
<polyline style="fill-rule:evenodd;"
points="18631,36776
18631,37090
18316,37090
18316,36776
18631,36776
" /> 
<polyline style="fill-rule:evenodd;"
points="19261,36776
19261,37090
18946,37090
18946,36776
19261,36776
" /> 
<polyline style="fill-rule:evenodd;"
points="19576,36776
19576,37090
19261,37090
19261,36776
19576,36776
" /> 
<polyline style="fill-rule:evenodd;"
points="19891,36776
19891,37090
19576,37090
19576,36776
19891,36776
" /> 
<polyline style="fill-rule:evenodd;"
points="20521,36776
20521,37090
20206,37090
20206,36776
20521,36776
" /> 
<polyline style="fill-rule:evenodd;"
points="21466,36776
21466,37090
21151,37090
21151,36776
21466,36776
" /> 
<polyline style="fill-rule:evenodd;"
points="22096,36776
22096,37090
21781,37090
21781,36776
22096,36776
" /> 
<polyline style="fill-rule:evenodd;"
points="23671,36776
23671,37090
23356,37090
23356,36776
23671,36776
" /> 
<polyline style="fill-rule:evenodd;"
points="23986,36776
23986,37090
23671,37090
23671,36776
23986,36776
" /> 
<polyline style="fill-rule:evenodd;"
points="24616,36776
24616,37090
24301,37090
24301,36776
24616,36776
" /> 
<polyline style="fill-rule:evenodd;"
points="25246,36776
25246,37090
24931,37090
24931,36776
25246,36776
" /> 
<polyline style="fill-rule:evenodd;"
points="25560,36776
25560,37090
25246,37090
25246,36776
25560,36776
" /> 
<polyline style="fill-rule:evenodd;"
points="25875,36776
25875,37090
25560,37090
25560,36776
25875,36776
" /> 
<polyline style="fill-rule:evenodd;"
points="26190,36776
26190,37090
25875,37090
25875,36776
26190,36776
" /> 
<polyline style="fill-rule:evenodd;"
points="27450,36776
27450,37090
27135,37090
27135,36776
27450,36776
" /> 
<polyline style="fill-rule:evenodd;"
points="28080,36776
28080,37090
27765,37090
27765,36776
28080,36776
" /> 
<polyline style="fill-rule:evenodd;"
points="28395,36776
28395,37090
28080,37090
28080,36776
28395,36776
" /> 
<polyline style="fill-rule:evenodd;"
points="28710,36776
28710,37090
28395,37090
28395,36776
28710,36776
" /> 
<polyline style="fill-rule:evenodd;"
points="18631,36461
18631,36776
18316,36776
18316,36461
18631,36461
" /> 
<polyline style="fill-rule:evenodd;"
points="19261,36461
19261,36776
18946,36776
18946,36461
19261,36461
" /> 
<polyline style="fill-rule:evenodd;"
points="19576,36461
19576,36776
19261,36776
19261,36461
19576,36461
" /> 
<polyline style="fill-rule:evenodd;"
points="19891,36461
19891,36776
19576,36776
19576,36461
19891,36461
" /> 
<polyline style="fill-rule:evenodd;"
points="20521,36461
20521,36776
20206,36776
20206,36461
20521,36461
" /> 
<polyline style="fill-rule:evenodd;"
points="21466,36461
21466,36776
21151,36776
21151,36461
21466,36461
" /> 
<polyline style="fill-rule:evenodd;"
points="22096,36461
22096,36776
21781,36776
21781,36461
22096,36461
" /> 
<polyline style="fill-rule:evenodd;"
points="22411,36461
22411,36776
22096,36776
22096,36461
22411,36461
" /> 
<polyline style="fill-rule:evenodd;"
points="23671,36461
23671,36776
23356,36776
23356,36461
23671,36461
" /> 
<polyline style="fill-rule:evenodd;"
points="24301,36461
24301,36776
23986,36776
23986,36461
24301,36461
" /> 
<polyline style="fill-rule:evenodd;"
points="24616,36461
24616,36776
24301,36776
24301,36461
24616,36461
" /> 
<polyline style="fill-rule:evenodd;"
points="25875,36461
25875,36776
25560,36776
25560,36461
25875,36461
" /> 
<polyline style="fill-rule:evenodd;"
points="27450,36461
27450,36776
27135,36776
27135,36461
27450,36461
" /> 
<polyline style="fill-rule:evenodd;"
points="18631,36146
18631,36461
18316,36461
18316,36146
18631,36146
" /> 
<polyline style="fill-rule:evenodd;"
points="20521,36146
20521,36461
20206,36461
20206,36146
20521,36146
" /> 
<polyline style="fill-rule:evenodd;"
points="24616,36146
24616,36461
24301,36461
24301,36146
24616,36146
" /> 
<polyline style="fill-rule:evenodd;"
points="24931,36146
24931,36461
24616,36461
24616,36146
24931,36146
" /> 
<polyline style="fill-rule:evenodd;"
points="25560,36146
25560,36461
25246,36461
25246,36146
25560,36146
" /> 
<polyline style="fill-rule:evenodd;"
points="25875,36146
25875,36461
25560,36461
25560,36146
25875,36146
" /> 
<polyline style="fill-rule:evenodd;"
points="26505,36146
26505,36461
26190,36461
26190,36146
26505,36146
" /> 
<polyline style="fill-rule:evenodd;"
points="26820,36146
26820,36461
26505,36461
26505,36146
26820,36146
" /> 
<polyline style="fill-rule:evenodd;"
points="27450,36146
27450,36461
27135,36461
27135,36146
27450,36146
" /> 
<polyline style="fill-rule:evenodd;"
points="27765,36146
27765,36461
27450,36461
27450,36146
27765,36146
" /> 
<polyline style="fill-rule:evenodd;"
points="18631,35831
18631,36146
18316,36146
18316,35831
18631,35831
" /> 
<polyline style="fill-rule:evenodd;"
points="18946,35831
18946,36146
18631,36146
18631,35831
18946,35831
" /> 
<polyline style="fill-rule:evenodd;"
points="19261,35831
19261,36146
18946,36146
18946,35831
19261,35831
" /> 
<polyline style="fill-rule:evenodd;"
points="19576,35831
19576,36146
19261,36146
19261,35831
19576,35831
" /> 
<polyline style="fill-rule:evenodd;"
points="19891,35831
19891,36146
19576,36146
19576,35831
19891,35831
" /> 
<polyline style="fill-rule:evenodd;"
points="20206,35831
20206,36146
19891,36146
19891,35831
20206,35831
" /> 
<polyline style="fill-rule:evenodd;"
points="20521,35831
20521,36146
20206,36146
20206,35831
20521,35831
" /> 
<polyline style="fill-rule:evenodd;"
points="21151,35831
21151,36146
20836,36146
20836,35831
21151,35831
" /> 
<polyline style="fill-rule:evenodd;"
points="21466,35831
21466,36146
21151,36146
21151,35831
21466,35831
" /> 
<polyline style="fill-rule:evenodd;"
points="21781,35831
21781,36146
21466,36146
21466,35831
21781,35831
" /> 
<polyline style="fill-rule:evenodd;"
points="22411,35831
22411,36146
22096,36146
22096,35831
22411,35831
" /> 
<polyline style="fill-rule:evenodd;"
points="22726,35831
22726,36146
22411,36146
22411,35831
22726,35831
" /> 
<polyline style="fill-rule:evenodd;"
points="23356,35831
23356,36146
23041,36146
23041,35831
23356,35831
" /> 
<polyline style="fill-rule:evenodd;"
points="24931,35831
24931,36146
24616,36146
24616,35831
24931,35831
" /> 
<polyline style="fill-rule:evenodd;"
points="25560,35831
25560,36146
25246,36146
25246,35831
25560,35831
" /> 
<polyline style="fill-rule:evenodd;"
points="25875,35831
25875,36146
25560,36146
25560,35831
25875,35831
" /> 
<polyline style="fill-rule:evenodd;"
points="26505,35831
26505,36146
26190,36146
26190,35831
26505,35831
" /> 
<polyline style="fill-rule:evenodd;"
points="27450,35831
27450,36146
27135,36146
27135,35831
27450,35831
" /> 
<polyline style="fill-rule:evenodd;"
points="27765,35831
27765,36146
27450,36146
27450,35831
27765,35831
" /> 
<polyline style="fill-rule:evenodd;"
points="28080,35831
28080,36146
27765,36146
27765,35831
28080,35831
" /> 
<polyline style="fill-rule:evenodd;"
points="28710,35831
28710,36146
28395,36146
28395,35831
28710,35831
" /> 
</g>
<g style="fill:#000000; fill-opacity:1.0; 
stroke:#000000; stroke-width:94.4882; stroke-opacity:1; 
stroke-linecap:round; stroke-linejoin:round;">
</g>
<g style="fill:#000000; fill-opacity:0.0; 
stroke:#000000; stroke-width:94.4882; stroke-opacity:1; 
stroke-linecap:round; stroke-linejoin:round;">
<path d="M53975 24325
L57912 24325
" />
<path d="M58345.3 24758.9 A433.071 433.071 0.0 0 0 57912.2 24325.8 " />
<path d="M53975.2 24325.8 A433.071 433.071 0.0 0 0 53542.2 24758.9 " />
<path d="M58345 24758
L58345 26688
" />
<path d="M53542 26688
L53542 24758
" />
<path d="M53153.6 27243 A590.551 590.551 0.0 0 0 53542.2 26688 " />
<path d="M58345.3 26688 A590.551 590.551 0.0 0 0 58733.9 27243 " />
<path d="M53172.1 27239.2 A11023.4 11023.4 0.0 0 0 55955.7 48931.9 " />
<path d="M55931.7 48931.9 A11023.4 11023.4 0.0 0 0 58715.4 27239.2 " />
<path d="M69488 33091
L68932 32534
" />
<path d="M69878 31588
L70435 32145
" />
<path d="M71818 33548
L72375 34105
" />
<path d="M71428 35051
L70872 34494
" />
</g>
<g style="fill:#000000; fill-opacity:0.0; 
stroke:#000000; stroke-width:118.11; stroke-opacity:1; 
stroke-linecap:round; stroke-linejoin:round;">
<path d="M29464 37695
L29511 37790
L29606 37885
L29749 38028
L29797 38123
L29797 38219
" />
<path d="M29559 38171
L29606 38266
L29702 38361
L29892 38409
L30226 38409
L30416 38361
L30511 38266
L30559 38171
L30559 37980
L30511 37885
L30416 37790
L30226 37742
L29892 37742
L29702 37790
L29606 37885
L29559 37980
L29559 38171
" />
<path d="M29559 36742
L30035 37076
" />
<path d="M29559 37314
L30559 37314
L30559 36933
L30511 36838
L30464 36790
L30368 36742
L30226 36742
L30130 36790
L30083 36838
L30035 36933
L30035 37314
" />
<path d="M29559 35790
L29559 36361
" />
<path d="M29559 36076
L30559 36076
L30416 36171
L30321 36266
L30273 36361
" />
<path d="M26242 47592
L26337 47640
L26528 47640
L26623 47592
L26670 47497
L26670 47116
L26623 47021
L26528 46973
L26337 46973
L26242 47021
L26194 47116
L26194 47211
L26670 47307
" />
<path d="M25242 47640
L25813 47640
" />
<path d="M25528 47640
L25528 46640
L25623 46783
L25718 46878
L25813 46926
" />
<path d="M24385 46973
L24385 47640
" />
<path d="M24623 46592
L24861 47307
L24242 47307
" />
<path d="M23432 47640
L23432 46640
" />
<path d="M23432 47592
L23528 47640
L23718 47640
L23813 47592
L23861 47545
L23908 47449
L23908 47164
L23861 47068
L23813 47021
L23718 46973
L23528 46973
L23432 47021
" />
<path d="M22908 47640
L22718 47640
L22623 47592
L22575 47545
L22480 47402
L22432 47211
L22432 46830
L22480 46735
L22528 46688
L22623 46640
L22813 46640
L22908 46688
L22956 46735
L23004 46830
L23004 47068
L22956 47164
L22908 47211
L22813 47259
L22623 47259
L22528 47211
L22480 47164
L22432 47068
" />
<path d="M22147 46973
L21766 46973
" />
<path d="M22004 47640
L22004 46783
L21956 46688
L21861 46640
L21766 46640
" />
<path d="M21528 46640
L20861 46640
L21289 47640
" />
<path d="M20528 46735
L20480 46688
L20385 46640
L20147 46640
L20051 46688
L20004 46735
L19956 46830
L19956 46926
L20004 47068
L20575 47640
L19956 47640
" />
<path d="M52344 24337
L52381 24449
L52419 24487
L52494 24524
L52606 24524
L52681 24487
L52719 24449
L52756 24374
L52756 24074
L51969 24074
L51969 24337
L52006 24412
L52044 24449
L52119 24487
L52194 24487
L52269 24449
L52306 24412
L52344 24337
L52344 24074
" />
<path d="M51969 24749
L51969 25199
" />
<path d="M52756 24974
L51969 24974
" />
<path d="M52044 25424
L52006 25461
L51969 25536
L51969 25724
L52006 25799
L52044 25836
L52119 25874
L52194 25874
L52306 25836
L52756 25386
L52756 25874
" />
<path d="M56028 27655
L56028 28555
" />
<path d="M56478 28105
L55578 28105
" />
<path d="M69007 33731
L69007 33784
L69060 33891
L69113 33944
L69219 33997
L69325 33997
L69405 33970
L69537 33891
L69617 33811
L69696 33678
L69723 33599
L69723 33493
L69670 33387
L69617 33334
L69511 33281
L69458 33281
" />
<path d="M69246 33069
L69246 33016
L69219 32936
L69087 32803
L69007 32777
L68954 32777
L68875 32803
L68822 32857
L68769 32963
L68769 33599
L68424 33254
" />
<path d="M67894 32724
L68212 33042
" />
<path d="M68053 32883
L68609 32326
L68583 32459
L68583 32565
L68609 32644
" />
<path d="M70947 35691
L70947 35744
L71000 35851
L71053 35904
L71159 35957
L71265 35957
L71345 35930
L71477 35851
L71557 35771
L71636 35638
L71663 35559
L71663 35453
L71610 35347
L71557 35294
L71451 35241
L71398 35241
" />
<path d="M71186 35029
L71186 34976
L71159 34896
L71027 34763
L70947 34737
L70894 34737
L70815 34763
L70762 34817
L70709 34923
L70709 35559
L70364 35214
" />
<path d="M70656 34498
L70656 34445
L70629 34366
L70496 34233
L70417 34207
L70364 34207
L70284 34233
L70231 34286
L70178 34392
L70178 35029
L69834 34684
" />
</g> 
</svg>
