<?xml version="1.0" standalone="no"?>
 <!DOCTYPE svg PUBLIC "-//W3C//DTD SVG 1.1//EN" 
 "http://www.w3.org/Graphics/SVG/1.1/DTD/svg11.dtd"> 
<svg xmlns="http://www.w3.org/2000/svg" version="1.1" 
    width="29.7002cm" height="21.0007cm" viewBox="0 0 116930 82680 ">
<title>SVG Picture created as ThermocoupleLogger-F_CrtYd.svg date 2019/03/14 17:07:23 </title>
  <desc>Picture generated by PCBNEW </desc>
<g style="fill:#000000; fill-opacity:1;stroke:#000000; stroke-opacity:1;
stroke-linecap:round; stroke-linejoin:round; "
 transform="translate(0 0) scale(1 1)">
</g>
<g style="fill:#000000; fill-opacity:0.0; 
stroke:#000000; stroke-width:-0.000787402; stroke-opacity:1; 
stroke-linecap:round; stroke-linejoin:round;">
</g>
<g style="fill:#000000; fill-opacity:0.0; 
stroke:#000000; stroke-width:157.48; stroke-opacity:1; 
stroke-linecap:round; stroke-linejoin:round;">
<path d="M96543 62899
L96543 67324
" />
<path d="M17743 67332
L96539 67332
" />
<path d="M30465 21607
L17748 21607
" />
<path d="M17743 62940
L17743 67340
" />
<path d="M83703 62900
L65463 62900
" />
<path d="M87433 62900
L96543 62900
" />
<path d="M87393 60900
L96483 60900
" />
<path d="M65463 60900
L83703 60900
" />
<path d="M61827 62909
L24467 62909
" />
<path d="M24473 60910
L61833 60910
" />
<path d="M20843 60920
L17743 60920
" />
<path d="M20813 62920
L17740 62938
" />
<path d="M20813.7 62920 A1000.2 1000.2 0.0 0 0 20836.3 60920.7 " />
<path d="M24483.7 60910 A1000 1000 0.0 0 0 24467.1 62909.9 " />
<path d="M61813.7 62910 A1000 1000 0.0 0 0 61835 60910.2 " />
<path d="M65463.7 60900 A1000.2 1000.2 0.0 1 0 65465.5 62900 " />
<path d="M83693.7 62900 A1000.2 1000.2 0.0 1 0 83713.7 60899.8 " />
<path d="M87384.5 60900 A1000.2 1000.2 0.0 0 0 87423.7 62900 " />
<path d="M91343.7 19540 A1000.8 1000.8 0.0 0 0 91383.7 21540.8 " />
<path d="M55123.7 21580 A1000.8 1000.8 0.0 1 0 55123.7 19580 " />
<path d="M17703 19560
L17703 19560
" />
<path d="M30463 19560
L17703 19560
" />
<path d="M34123 21580
L55123 21580
" />
<path d="M55103 19580
L34143 19580
" />
<path d="M30463.7 21600 A1020 1020 0.0 0 0 30463.7 19560 " />
<path d="M34143.7 19580 A1000.2 1000.2 0.0 1 0 34123.7 21580.2 " />
<path d="M87723 21570
L58893 21570
" />
<path d="M58743 19590
L87753 19590
" />
<path d="M58823.7 19580 A990.202 990.202 0.0 0 0 58863.7 21560 " />
<path d="M91394 21544
L96480 21552
" />
<path d="M96443 19540
L91343 19540
" />
<path d="M96443 14340
L96443 19540
" />
<path d="M87723.7 21580 A996 996 0.0 0 0 87731.8 19588 " />
<path d="M17703 14320
L96433 14324
" />
<path d="M17703 19560
L17703 14320
" />
<path d="M17743 60920
L17743 21610
" />
<path d="M96483 60900
L96483 21569
" />
</g>
<g style="fill:#000000; fill-opacity:0.0; 
stroke:#000000; stroke-width:39.3701; stroke-opacity:1; 
stroke-linecap:round; stroke-linejoin:round;">
<path d="M77923 24928
L83435 24928
" />
<path d="M83632 25125
L83632 32212
" />
<path d="M83435 32409
L77923 32409
" />
<path d="M77726 32212
L77726 25125
" />
<path d="M83632 32409
L83632 32212
" />
<path d="M83435 32409
L83632 32409
" />
<path d="M77726 32409
L77726 32212
" />
<path d="M77923 32409
L77726 32409
" />
<path d="M77726 24928
L77923 24928
" />
<path d="M77726 25125
L77726 24928
" />
<path d="M83632 24928
L83435 24928
" />
<path d="M83632 25125
L83632 24928
" />
<path d="M39795 33640
L45307 33640
" />
<path d="M45504 33837
L45504 40924
" />
<path d="M45307 41121
L39795 41121
" />
<path d="M39598 40924
L39598 33837
" />
<path d="M45504 41121
L45504 40924
" />
<path d="M45307 41121
L45504 41121
" />
<path d="M39598 41121
L39598 40924
" />
<path d="M39795 41121
L39598 41121
" />
<path d="M39598 33640
L39795 33640
" />
<path d="M39598 33837
L39598 33640
" />
<path d="M45504 33640
L45307 33640
" />
<path d="M45504 33837
L45504 33640
" />
<path d="M60939 31391
L63380 31391
" />
<path d="M60939 31391
L60939 32808
" />
<path d="M63380 32808
L63380 31391
" />
<path d="M63380 32808
L60939 32808
" />
<path d="M21769 27449
L19958 27449
" />
<path d="M19958 31150
L19958 27449
" />
<path d="M21769 31150
L19958 31150
" />
<path d="M21769 27449
L21769 31150
" />
<path d="M35606 22103
L41827 22103
" />
<path d="M35606 22103
L35606 26458
" />
<path d="M41827 26458
L41827 22103
" />
<path d="M41827 26458
L35606 26458
" />
<path d="M63321 36546
L60565 36546
" />
<path d="M63321 33869
L63321 36546
" />
<path d="M60565 33869
L63321 33869
" />
<path d="M60565 36546
L60565 33869
" />
<circle cx="20583.7" cy="24480" r="2322.83" /> 
<circle cx="93303.7" cy="24580" r="2322.83" /> 
<path d="M71592 25727
L75156 29290
" />
<path d="M73931 23389
L71592 25727
" />
<path d="M77494 26952
L73931 23389
" />
<path d="M75156 29290
L77494 26952
" />
<path d="M41827 31136
L35606 31136
" />
<path d="M41827 31136
L41827 26782
" />
<path d="M35606 26782
L35606 31136
" />
<path d="M35606 26782
L41827 26782
" />
<path d="M35488 22528
L30173 22528
" />
<path d="M30173 22528
L30173 29143
" />
<path d="M30173 29143
L35488 29143
" />
<path d="M35488 29143
L35488 22528
" />
<path d="M23965 31568
L18138 31568
" />
<path d="M23965 35111
L23965 31568
" />
<path d="M18138 35111
L23965 35111
" />
<path d="M18138 31568
L18138 35111
" />
<circle cx="27535.9" cy="16584.1" r="2165.35" /> 
<circle cx="82654" cy="16584.1" r="2165.35" /> 
<circle cx="27535.9" cy="63828.2" r="2165.35" /> 
<circle cx="90528" cy="63828.2" r="2165.35" /> 
<path d="M69517 28852
L63615 34754
" />
<path d="M75419 34754
L69517 40656
" />
<path d="M69517 40656
L63615 34754
" />
<path d="M75419 34754
L69517 28852
" />
<path d="M93831 28355
L96587 28355
" />
<path d="M93831 27568
L93831 28355
" />
<path d="M91665 27568
L93831 27568
" />
<path d="M91665 28355
L91665 27568
" />
<path d="M85957 28355
L91665 28355
" />
<path d="M85957 28158
L85957 28355
" />
<path d="M84382 28158
L85957 28158
" />
<path d="M84382 29930
L84382 28158
" />
<path d="M84972 29930
L84382 29930
" />
<path d="M84972 32292
L84972 29930
" />
<path d="M83988 32292
L84972 32292
" />
<path d="M83988 40166
L83988 32292
" />
<path d="M84382 40166
L83988 40166
" />
<path d="M84382 41347
L84382 40166
" />
<path d="M85957 41347
L84382 41347
" />
<path d="M85957 40560
L85957 41347
" />
<path d="M91665 40560
L85957 40560
" />
<path d="M91665 41347
L91665 40560
" />
<path d="M93831 41347
L91665 41347
" />
<path d="M93831 40560
L93831 41347
" />
<path d="M96587 40560
L93831 40560
" />
<path d="M33939 33777
L33939 40391
" />
<path d="M39254 33777
L33939 33777
" />
<path d="M39254 40391
L39254 33777
" />
<path d="M33939 40391
L39254 40391
" />
<path d="M62546 22714
L62546 27557
" />
<path d="M69357 22714
L62546 22714
" />
<path d="M69357 27557
L69357 22714
" />
<path d="M62546 27557
L69357 27557
" />
<path d="M74022 29130
L72073 31078
" />
<path d="M74022 29130
L73047 28155
" />
<path d="M71098 30104
L72073 31078
" />
<path d="M71098 30104
L73047 28155
" />
<path d="M69958 28884
L71907 26935
" />
<path d="M69958 28884
L70933 29858
" />
<path d="M72882 27910
L71907 26935
" />
<path d="M72882 27910
L70933 29858
" />
<path d="M51713 29629
L51713 38527
" />
<path d="M60374 29629
L60374 38527
" />
<path d="M60374 38527
L51713 38527
" />
<path d="M60374 29629
L51713 29629
" />
<path d="M83128 35402
L83128 38157
" />
<path d="M83128 35402
L81750 35402
" />
<path d="M81750 38157
L83128 38157
" />
<path d="M81750 38157
L81750 35402
" />
<path d="M77750 38170
L77750 35414
" />
<path d="M77750 38170
L79128 38170
" />
<path d="M79128 35414
L77750 35414
" />
<path d="M79128 35414
L79128 38170
" />
<path d="M83152 38359
L83152 40800
" />
<path d="M83152 38359
L81735 38359
" />
<path d="M81735 40800
L83152 40800
" />
<path d="M81735 40800
L81735 38359
" />
<path d="M77735 40800
L77735 38359
" />
<path d="M77735 40800
L79152 40800
" />
<path d="M79152 38359
L77735 38359
" />
<path d="M79152 38359
L79152 40800
" />
<path d="M79735 40800
L79735 38359
" />
<path d="M79735 40800
L81152 40800
" />
<path d="M81152 38359
L79735 38359
" />
<path d="M81152 38359
L81152 40800
" />
<path d="M81128 35402
L81128 38157
" />
<path d="M81128 35402
L79750 35402
" />
<path d="M79750 38157
L81128 38157
" />
<path d="M79750 38157
L79750 35402
" />
<path d="M76986 41842
L76986 44677
" />
<path d="M87813 41842
L76986 41842
" />
<path d="M87813 44677
L87813 41842
" />
<path d="M76986 44677
L87813 44677
" />
<path d="M63756 53040
L65331 53040
" />
<path d="M63756 55559
L65331 55559
" />
<path d="M65331 55559
L65331 53040
" />
<path d="M63756 55559
L63756 53040
" />
<path d="M41516 55799
L41516 53280
" />
<path d="M43091 55799
L43091 53280
" />
<path d="M41516 55799
L43091 55799
" />
<path d="M41516 53280
L43091 53280
" />
<path d="M72719 54322
L78034 54322
" />
<path d="M78034 54322
L78034 47708
" />
<path d="M78034 47708
L72719 47708
" />
<path d="M72719 47708
L72719 54322
" />
<path d="M52428 46025
L52428 56654
" />
<path d="M63058 46025
L52428 46025
" />
<path d="M63058 56654
L63058 46025
" />
<path d="M52428 56654
L63058 56654
" />
<path d="M70956 48987
L70956 46467
" />
<path d="M72531 48987
L72531 46467
" />
<path d="M70956 48987
L72531 48987
" />
<path d="M70956 46467
L72531 46467
" />
<path d="M47965 24654
L50721 24654
" />
<path d="M47965 24654
L47965 26032
" />
<path d="M50721 26032
L50721 24654
" />
<path d="M50721 26032
L47965 26032
" />
<path d="M50721 24432
L47965 24432
" />
<path d="M50721 24432
L50721 23054
" />
<path d="M47965 23054
L47965 24432
" />
<path d="M47965 23054
L50721 23054
" />
<path d="M50721 27625
L47965 27625
" />
<path d="M50721 27625
L50721 26247
" />
<path d="M47965 26247
L47965 27625
" />
<path d="M47965 26247
L50721 26247
" />
<path d="M63858 52117
L63858 49362
" />
<path d="M63858 52117
L65236 52117
" />
<path d="M65236 49362
L63858 49362
" />
<path d="M65236 49362
L65236 52117
" />
<path d="M71058 52330
L71058 49574
" />
<path d="M71058 52330
L72436 52330
" />
<path d="M72436 49574
L71058 49574
" />
<path d="M72436 49574
L72436 52330
" />
<path d="M78258 52017
L78258 49262
" />
<path d="M78258 52017
L79636 52017
" />
<path d="M79636 49262
L78258 49262
" />
<path d="M79636 49262
L79636 52017
" />
<path d="M86836 49242
L86836 51997
" />
<path d="M86836 49242
L85458 49242
" />
<path d="M85458 51997
L86836 51997
" />
<path d="M85458 51997
L85458 49242
" />
<path d="M28646 49562
L28646 52317
" />
<path d="M28646 49562
L27268 49562
" />
<path d="M27268 52317
L28646 52317
" />
<path d="M27268 52317
L27268 49562
" />
<path d="M35796 49562
L35796 52317
" />
<path d="M35796 49562
L34418 49562
" />
<path d="M34418 52317
L35796 52317
" />
<path d="M34418 52317
L34418 49562
" />
<path d="M41668 52339
L41668 49583
" />
<path d="M41668 52339
L43046 52339
" />
<path d="M43046 49583
L41668 49583
" />
<path d="M43046 49583
L43046 52339
" />
<path d="M49936 49862
L49936 52617
" />
<path d="M49936 49862
L48558 49862
" />
<path d="M48558 52617
L49936 52617
" />
<path d="M48558 52617
L48558 49862
" />
<path d="M63756 48999
L63756 46480
" />
<path d="M65331 48999
L65331 46480
" />
<path d="M63756 48999
L65331 48999
" />
<path d="M63756 46480
L65331 46480
" />
<path d="M70956 53228
L72531 53228
" />
<path d="M70956 55747
L72531 55747
" />
<path d="M72531 55747
L72531 53228
" />
<path d="M70956 55747
L70956 53228
" />
<path d="M78156 46080
L79731 46080
" />
<path d="M78156 48599
L79731 48599
" />
<path d="M79731 48599
L79731 46080
" />
<path d="M78156 48599
L78156 46080
" />
<path d="M78156 55399
L78156 52880
" />
<path d="M79731 55399
L79731 52880
" />
<path d="M78156 55399
L79731 55399
" />
<path d="M78156 52880
L79731 52880
" />
<path d="M85356 46132
L86931 46132
" />
<path d="M85356 48651
L86931 48651
" />
<path d="M86931 48651
L86931 46132
" />
<path d="M85356 48651
L85356 46132
" />
<path d="M85356 55399
L85356 52880
" />
<path d="M86931 55399
L86931 52880
" />
<path d="M85356 55399
L86931 55399
" />
<path d="M85356 52880
L86931 52880
" />
<path d="M27166 46480
L28740 46480
" />
<path d="M27166 48999
L28740 48999
" />
<path d="M28740 48999
L28740 46480
" />
<path d="M27166 48999
L27166 46480
" />
<path d="M27116 55799
L27116 53280
" />
<path d="M28691 55799
L28691 53280
" />
<path d="M27116 55799
L28691 55799
" />
<path d="M27116 53280
L28691 53280
" />
<path d="M34316 48999
L34316 46480
" />
<path d="M35891 48999
L35891 46480
" />
<path d="M34316 48999
L35891 48999
" />
<path d="M34316 46480
L35891 46480
" />
<path d="M34316 53280
L35891 53280
" />
<path d="M34316 55799
L35891 55799
" />
<path d="M35891 55799
L35891 53280
" />
<path d="M34316 55799
L34316 53280
" />
<path d="M41516 46480
L43091 46480
" />
<path d="M41516 48999
L43091 48999
" />
<path d="M43091 48999
L43091 46480
" />
<path d="M41516 48999
L41516 46480
" />
<path d="M49116 48999
L49116 46480
" />
<path d="M50691 48999
L50691 46480
" />
<path d="M49116 48999
L50691 48999
" />
<path d="M49116 46480
L50691 46480
" />
<path d="M49116 53280
L50691 53280
" />
<path d="M49116 55799
L50691 55799
" />
<path d="M50691 55799
L50691 53280
" />
<path d="M49116 55799
L49116 53280
" />
<path d="M18375 30468
L18375 28027
" />
<path d="M18375 30468
L19792 30468
" />
<path d="M19792 28027
L18375 28027
" />
<path d="M19792 28027
L19792 30468
" />
<path d="M30293 33730
L30293 31289
" />
<path d="M30293 33730
L31710 33730
" />
<path d="M31710 31289
L30293 31289
" />
<path d="M31710 31289
L31710 33730
" />
<path d="M63364 40048
L60923 40048
" />
<path d="M63364 40048
L63364 38631
" />
<path d="M60923 38631
L60923 40048
" />
<path d="M60923 38631
L63364 38631
" />
<path d="M75305 33104
L73579 31378
" />
<path d="M75305 33104
L76307 32101
" />
<path d="M74581 30375
L73579 31378
" />
<path d="M74581 30375
L76307 32101
" />
<path d="M79899 47448
L79899 54062
" />
<path d="M85214 47448
L79899 47448
" />
<path d="M85214 54062
L85214 47448
" />
<path d="M79899 54062
L85214 54062
" />
<path d="M87099 54062
L92414 54062
" />
<path d="M92414 54062
L92414 47448
" />
<path d="M92414 47448
L87099 47448
" />
<path d="M87099 47448
L87099 54062
" />
<path d="M21659 47817
L21659 54431
" />
<path d="M26974 47817
L21659 47817
" />
<path d="M26974 54431
L26974 47817
" />
<path d="M21659 54431
L26974 54431
" />
<path d="M28859 54462
L34174 54462
" />
<path d="M34174 54462
L34174 47848
" />
<path d="M34174 47848
L28859 47848
" />
<path d="M28859 47848
L28859 54462
" />
<path d="M36059 47848
L36059 54462
" />
<path d="M41374 47848
L36059 47848
" />
<path d="M41374 54462
L41374 47848
" />
<path d="M36059 54462
L41374 54462
" />
<path d="M43199 54411
L48514 54411
" />
<path d="M48514 54411
L48514 47797
" />
<path d="M48514 47797
L43199 47797
" />
<path d="M43199 47797
L43199 54411
" />
<path d="M65499 54062
L70814 54062
" />
<path d="M70814 54062
L70814 47448
" />
<path d="M70814 47448
L65499 47448
" />
<path d="M65499 47448
L65499 54062
" />
<path d="M59506 44625
L65380 44625
" />
<path d="M59506 40374
L65380 40374
" />
<path d="M65380 40374
L65380 44625
" />
<path d="M59506 40374
L59506 44625
" />
<path d="M51988 49862
L51988 52617
" />
<path d="M51988 49862
L50610 49862
" />
<path d="M50610 52617
L51988 52617
" />
<path d="M50610 52617
L50610 49862
" />
<path d="M41987 22003
L41987 30743
" />
<path d="M47499 22003
L41987 22003
" />
<path d="M47499 30743
L47499 22003
" />
<path d="M41987 30743
L47499 30743
" />
<path d="M47965 28201
L50721 28201
" />
<path d="M47965 30878
L47965 28201
" />
<path d="M50721 30878
L47965 30878
" />
<path d="M50721 28201
L50721 30878
" />
<path d="M87761 24757
L87761 21922
" />
<path d="M74926 24757
L87761 24757
" />
<path d="M74926 21922
L74926 24757
" />
<path d="M87761 21922
L74926 21922
" />
<path d="M60923 29631
L63364 29631
" />
<path d="M60923 29631
L60923 31048
" />
<path d="M63364 31048
L63364 29631
" />
<path d="M63364 31048
L60923 31048
" />
<path d="M69226 41822
L69226 44657
" />
<path d="M76037 41822
L69226 41822
" />
<path d="M76037 44657
L76037 41822
" />
<path d="M69226 44657
L76037 44657
" />
<path d="M23629 27449
L23629 31150
" />
<path d="M23629 31150
L21818 31150
" />
<path d="M21818 31150
L21818 27449
" />
<path d="M23629 27449
L21818 27449
" />
<path d="M67033 40298
L65084 38350
" />
<path d="M67033 40298
L68008 39324
" />
<path d="M66059 37375
L65084 38350
" />
<path d="M66059 37375
L68008 39324
" />
<path d="M82104 34368
L79663 34368
" />
<path d="M82104 34368
L82104 32951
" />
<path d="M79663 32951
L79663 34368
" />
<path d="M79663 32951
L82104 32951
" />
<path d="M85835 27560
L85835 25119
" />
<path d="M85835 27560
L87252 27560
" />
<path d="M87252 25119
L85835 25119
" />
<path d="M87252 25119
L87252 27560
" />
</g> 
</svg>
