<?xml version="1.0" standalone="no"?>
 <!DOCTYPE svg PUBLIC "-//W3C//DTD SVG 1.1//EN" 
 "http://www.w3.org/Graphics/SVG/1.1/DTD/svg11.dtd"> 
<svg xmlns="http://www.w3.org/2000/svg" version="1.1" 
    width="29.7002cm" height="21.0007cm" viewBox="0 0 116930 82680 ">
<title>SVG Picture created as ThermocoupleLogger-B_Mask.svg date 2019/03/14 17:07:23 </title>
  <desc>Picture generated by PCBNEW </desc>
<g style="fill:#000000; fill-opacity:1;stroke:#000000; stroke-opacity:1;
stroke-linecap:round; stroke-linejoin:round; "
 transform="translate(0 0) scale(1 1)">
</g>
<g style="fill:#000000; fill-opacity:0.0; 
stroke:#000000; stroke-width:-0.000787402; stroke-opacity:1; 
stroke-linecap:round; stroke-linejoin:round;">
</g>
<g style="fill:#000000; fill-opacity:0.0; 
stroke:#000000; stroke-width:157.48; stroke-opacity:1; 
stroke-linecap:round; stroke-linejoin:round;">
<path d="M96543 62899
L96543 67324
" />
<path d="M17743 67332
L96539 67332
" />
<path d="M30465 21607
L17748 21607
" />
<path d="M17743 62940
L17743 67340
" />
<path d="M83703 62900
L65463 62900
" />
<path d="M87433 62900
L96543 62900
" />
<path d="M87393 60900
L96483 60900
" />
<path d="M65463 60900
L83703 60900
" />
<path d="M61827 62909
L24467 62909
" />
<path d="M24473 60910
L61833 60910
" />
<path d="M20843 60920
L17743 60920
" />
<path d="M20813 62920
L17740 62938
" />
<path d="M20813.7 62920 A1000.2 1000.2 0.0 0 0 20836.3 60920.7 " />
<path d="M24483.7 60910 A1000 1000 0.0 0 0 24467.1 62909.9 " />
<path d="M61813.7 62910 A1000 1000 0.0 0 0 61835 60910.2 " />
<path d="M65463.7 60900 A1000.2 1000.2 0.0 1 0 65465.5 62900 " />
<path d="M83693.7 62900 A1000.2 1000.2 0.0 1 0 83713.7 60899.8 " />
<path d="M87384.5 60900 A1000.2 1000.2 0.0 0 0 87423.7 62900 " />
<path d="M91343.7 19540 A1000.8 1000.8 0.0 0 0 91383.7 21540.8 " />
<path d="M55123.7 21580 A1000.8 1000.8 0.0 1 0 55123.7 19580 " />
<path d="M17703 19560
L17703 19560
" />
<path d="M30463 19560
L17703 19560
" />
<path d="M34123 21580
L55123 21580
" />
<path d="M55103 19580
L34143 19580
" />
<path d="M30463.7 21600 A1020 1020 0.0 0 0 30463.7 19560 " />
<path d="M34143.7 19580 A1000.2 1000.2 0.0 1 0 34123.7 21580.2 " />
<path d="M87723 21570
L58893 21570
" />
<path d="M58743 19590
L87753 19590
" />
<path d="M58823.7 19580 A990.202 990.202 0.0 0 0 58863.7 21560 " />
<path d="M91394 21544
L96480 21552
" />
<path d="M96443 19540
L91343 19540
" />
<path d="M96443 14340
L96443 19540
" />
<path d="M87723.7 21580 A996 996 0.0 0 0 87731.8 19588 " />
<path d="M17703 14320
L96433 14324
" />
<path d="M17703 19560
L17703 14320
" />
<path d="M17743 60920
L17743 21610
" />
<path d="M96483 60900
L96483 21569
" />
</g>
<g style="fill:#000000; fill-opacity:1.0; 
stroke:#000000; stroke-width:0; stroke-opacity:1; 
stroke-linecap:round; stroke-linejoin:round;">
<polyline style="fill-rule:evenodd;"
points="90815,62881
90994,62955
91155,63063
91292,63200
91400,63361
91474,63541
91512,63731
91512,63925
91474,64115
91400,64294
91292,64455
91155,64592
90994,64700
90815,64774
90624,64812
90431,64812
90240,64774
90061,64700
89900,64592
89763,64455
89655,64294
89581,64115
89543,63925
89543,63731
89581,63541
89655,63361
89763,63200
89900,63063
90061,62955
90240,62881
90431,62843
90624,62843
90815,62881
" /> 
<polyline style="fill-rule:evenodd;"
points="27822,62881
28002,62955
28163,63063
28300,63200
28408,63361
28482,63541
28520,63731
28520,63925
28482,64115
28408,64294
28300,64455
28163,64592
28002,64700
27822,64774
27632,64812
27438,64812
27248,64774
27069,64700
26908,64592
26771,64455
26663,64294
26589,64115
26551,63925
26551,63731
26589,63541
26663,63361
26771,63200
26908,63063
27069,62955
27248,62881
27438,62843
27632,62843
27822,62881
" /> 
<polyline style="fill-rule:evenodd;"
points="63052,62581
63081,62586
63117,62601
63149,62623
63176,62650
63198,62682
63213,62718
63220,62756
63220,62795
63213,62833
63198,62869
63176,62901
63149,62929
63117,62950
63081,62965
63052,62971
63043,62972
63004,62972
62994,62971
62966,62965
62930,62950
62898,62929
62870,62901
62849,62869
62834,62833
62826,62795
62826,62756
62834,62718
62849,62682
62870,62650
62898,62623
62930,62601
62966,62586
62994,62581
63004,62579
63043,62579
63052,62581
" /> 
<polyline style="fill-rule:evenodd;"
points="23302,62581
23331,62586
23366,62601
23399,62623
23426,62650
23448,62682
23462,62718
23470,62756
23470,62795
23462,62833
23448,62869
23426,62901
23399,62929
23366,62950
23331,62965
23302,62971
23293,62972
23254,62972
23244,62971
23216,62965
23180,62950
23148,62929
23120,62901
23099,62869
23084,62833
23076,62795
23076,62756
23084,62718
23099,62682
23120,62650
23148,62623
23180,62601
23216,62586
23244,62581
23254,62579
23293,62579
23302,62581
" /> 
<polyline style="fill-rule:evenodd;"
points="22672,62581
22701,62586
22736,62601
22769,62623
22796,62650
22818,62682
22833,62718
22840,62756
22840,62795
22833,62833
22818,62869
22796,62901
22769,62929
22736,62950
22701,62965
22672,62971
22663,62972
22624,62972
22614,62971
22586,62965
22550,62950
22518,62929
22490,62901
22469,62869
22454,62833
22446,62795
22446,62756
22454,62718
22469,62682
22490,62650
22518,62623
22550,62601
22586,62586
22614,62581
22624,62579
22663,62579
22672,62581
" /> 
<polyline style="fill-rule:evenodd;"
points="22042,62581
22071,62586
22107,62601
22139,62623
22166,62650
22188,62682
22203,62718
22210,62756
22210,62795
22203,62833
22188,62869
22166,62901
22139,62929
22107,62950
22071,62965
22042,62971
22033,62972
21994,62972
21984,62971
21956,62965
21920,62950
21888,62929
21860,62901
21839,62869
21824,62833
21816,62795
21816,62756
21824,62718
21839,62682
21860,62650
21888,62623
21920,62601
21956,62586
21984,62581
21994,62579
22033,62579
22042,62581
" /> 
<polyline style="fill-rule:evenodd;"
points="64312,62581
64341,62586
64376,62601
64409,62623
64436,62650
64458,62682
64472,62718
64480,62756
64480,62795
64472,62833
64458,62869
64436,62901
64409,62929
64376,62950
64341,62965
64312,62971
64303,62972
64264,62972
64254,62971
64226,62965
64190,62950
64158,62929
64130,62901
64109,62869
64094,62833
64086,62795
64086,62756
64094,62718
64109,62682
64130,62650
64158,62623
64190,62601
64226,62586
64254,62581
64264,62579
64303,62579
64312,62581
" /> 
<polyline style="fill-rule:evenodd;"
points="63682,62581
63711,62586
63746,62601
63779,62623
63806,62650
63828,62682
63843,62718
63850,62756
63850,62795
63843,62833
63828,62869
63806,62901
63779,62929
63746,62950
63711,62965
63682,62971
63673,62972
63634,62972
63624,62971
63596,62965
63560,62950
63528,62929
63500,62901
63479,62869
63464,62833
63456,62795
63456,62756
63464,62718
63479,62682
63500,62650
63528,62623
63560,62601
63596,62586
63624,62581
63634,62579
63673,62579
63682,62581
" /> 
<polyline style="fill-rule:evenodd;"
points="86222,62565
86251,62570
86286,62585
86319,62607
86346,62634
86368,62666
86383,62702
86390,62740
86390,62779
86383,62817
86368,62853
86346,62885
86319,62912
86286,62934
86251,62949
86222,62954
86213,62956
86174,62956
86164,62954
86136,62949
86100,62934
86068,62912
86040,62885
86019,62853
86004,62817
85996,62779
85996,62740
86004,62702
86019,62666
86040,62634
86068,62607
86100,62585
86136,62570
86164,62565
86174,62563
86213,62563
86222,62565
" /> 
<polyline style="fill-rule:evenodd;"
points="84962,62565
84991,62570
85027,62585
85059,62607
85086,62634
85108,62666
85123,62702
85130,62740
85130,62779
85123,62817
85108,62853
85086,62885
85059,62912
85027,62934
84991,62949
84962,62954
84953,62956
84914,62956
84905,62954
84876,62949
84840,62934
84808,62912
84780,62885
84759,62853
84744,62817
84737,62779
84737,62740
84744,62702
84759,62666
84780,62634
84808,62607
84840,62585
84876,62570
84905,62565
84914,62563
84953,62563
84962,62565
" /> 
<polyline style="fill-rule:evenodd;"
points="85592,62565
85621,62570
85657,62585
85689,62607
85716,62634
85738,62666
85753,62702
85760,62740
85760,62779
85753,62817
85738,62853
85716,62885
85689,62912
85657,62934
85621,62949
85592,62954
85583,62956
85544,62956
85534,62954
85506,62949
85470,62934
85438,62912
85410,62885
85389,62853
85374,62817
85366,62779
85366,62740
85374,62702
85389,62666
85410,62634
85438,62607
85470,62585
85506,62570
85534,62565
85544,62563
85583,62563
85592,62565
" /> 
<polyline style="fill-rule:evenodd;"
points="22042,60848
22071,60854
22107,60869
22139,60890
22166,60918
22188,60950
22203,60986
22210,61024
22210,61063
22203,61101
22188,61137
22166,61169
22139,61196
22107,61218
22071,61233
22042,61238
22033,61240
21994,61240
21984,61238
21956,61233
21920,61218
21888,61196
21860,61169
21839,61137
21824,61101
21816,61063
21816,61024
21824,60986
21839,60950
21860,60918
21888,60890
21920,60869
21956,60854
21984,60848
21994,60847
22033,60847
22042,60848
" /> 
<polyline style="fill-rule:evenodd;"
points="63682,60848
63711,60854
63746,60869
63779,60890
63806,60918
63828,60950
63843,60986
63850,61024
63850,61063
63843,61101
63828,61137
63806,61169
63779,61196
63746,61218
63711,61233
63682,61238
63673,61240
63634,61240
63624,61238
63596,61233
63560,61218
63528,61196
63500,61169
63479,61137
63464,61101
63456,61063
63456,61024
63464,60986
63479,60950
63500,60918
63528,60890
63560,60869
63596,60854
63624,60848
63634,60847
63673,60847
63682,60848
" /> 
<polyline style="fill-rule:evenodd;"
points="22672,60848
22701,60854
22736,60869
22769,60890
22796,60918
22818,60950
22833,60986
22840,61024
22840,61063
22833,61101
22818,61137
22796,61169
22769,61196
22736,61218
22701,61233
22672,61238
22663,61240
22624,61240
22614,61238
22586,61233
22550,61218
22518,61196
22490,61169
22469,61137
22454,61101
22446,61063
22446,61024
22454,60986
22469,60950
22490,60918
22518,60890
22550,60869
22586,60854
22614,60848
22624,60847
22663,60847
22672,60848
" /> 
<polyline style="fill-rule:evenodd;"
points="23302,60848
23331,60854
23366,60869
23399,60890
23426,60918
23448,60950
23462,60986
23470,61024
23470,61063
23462,61101
23448,61137
23426,61169
23399,61196
23366,61218
23331,61233
23302,61238
23293,61240
23254,61240
23244,61238
23216,61233
23180,61218
23148,61196
23120,61169
23099,61137
23084,61101
23076,61063
23076,61024
23084,60986
23099,60950
23120,60918
23148,60890
23180,60869
23216,60854
23244,60848
23254,60847
23293,60847
23302,60848
" /> 
<polyline style="fill-rule:evenodd;"
points="63052,60848
63081,60854
63117,60869
63149,60890
63176,60918
63198,60950
63213,60986
63220,61024
63220,61063
63213,61101
63198,61137
63176,61169
63149,61196
63117,61218
63081,61233
63052,61238
63043,61240
63004,61240
62994,61238
62966,61233
62930,61218
62898,61196
62870,61169
62849,61137
62834,61101
62826,61063
62826,61024
62834,60986
62849,60950
62870,60918
62898,60890
62930,60869
62966,60854
62994,60848
63004,60847
63043,60847
63052,60848
" /> 
<polyline style="fill-rule:evenodd;"
points="64312,60848
64341,60854
64376,60869
64409,60890
64436,60918
64458,60950
64472,60986
64480,61024
64480,61063
64472,61101
64458,61137
64436,61169
64409,61196
64376,61218
64341,61233
64312,61238
64303,61240
64264,61240
64254,61238
64226,61233
64190,61218
64158,61196
64130,61169
64109,61137
64094,61101
64086,61063
64086,61024
64094,60986
64109,60950
64130,60918
64158,60890
64190,60869
64226,60854
64254,60848
64264,60847
64303,60847
64312,60848
" /> 
<polyline style="fill-rule:evenodd;"
points="86222,60832
86251,60838
86286,60853
86319,60874
86346,60902
86368,60934
86383,60970
86390,61008
86390,61047
86383,61085
86368,61120
86346,61153
86319,61180
86286,61202
86251,61217
86222,61222
86213,61224
86174,61224
86164,61222
86136,61217
86100,61202
86068,61180
86040,61153
86019,61120
86004,61085
85996,61047
85996,61008
86004,60970
86019,60934
86040,60902
86068,60874
86100,60853
86136,60838
86164,60832
86174,60830
86213,60830
86222,60832
" /> 
<polyline style="fill-rule:evenodd;"
points="85592,60832
85621,60838
85657,60853
85689,60874
85716,60902
85738,60934
85753,60970
85760,61008
85760,61047
85753,61085
85738,61120
85716,61153
85689,61180
85657,61202
85621,61217
85592,61222
85583,61224
85544,61224
85534,61222
85506,61217
85470,61202
85438,61180
85410,61153
85389,61120
85374,61085
85366,61047
85366,61008
85374,60970
85389,60934
85410,60902
85438,60874
85470,60853
85506,60838
85534,60832
85544,60830
85583,60830
85592,60832
" /> 
<polyline style="fill-rule:evenodd;"
points="84962,60832
84991,60838
85027,60853
85059,60874
85086,60902
85108,60934
85123,60970
85130,61008
85130,61047
85123,61085
85108,61120
85086,61153
85059,61180
85027,61202
84991,61217
84962,61222
84953,61224
84914,61224
84905,61222
84876,61217
84840,61202
84808,61180
84780,61153
84759,61120
84744,61085
84737,61047
84737,61008
84744,60970
84759,60934
84780,60902
84808,60874
84840,60853
84876,60838
84905,60832
84914,60830
84953,60830
84962,60832
" /> 
<polyline style="fill-rule:evenodd;"
points="94163,55295
94518,55442
94550,55455
94566,55466
94898,55688
95195,55984
95427,56332
95588,56719
95669,57130
95669,57549
95588,57960
95427,58347
95195,58695
94898,58991
94898,58991
94550,59224
94550,59224
94550,59224
94163,59384
93753,59465
93334,59465
92923,59384
92536,59224
92536,59224
92536,59224
92188,58991
92188,58991
91892,58695
91659,58347
91499,57960
91417,57549
91417,57130
91499,56719
91659,56332
91892,55984
92188,55688
92521,55466
92536,55455
92568,55442
92923,55295
93334,55214
93753,55214
94163,55295
" /> 
<polyline style="fill-rule:evenodd;"
points="21163,55295
21518,55442
21550,55455
21566,55466
21898,55688
22195,55984
22427,56332
22588,56719
22669,57130
22669,57549
22588,57960
22427,58347
22195,58695
21898,58991
21898,58991
21550,59224
21550,59224
21550,59224
21163,59384
20753,59465
20334,59465
19923,59384
19536,59224
19536,59224
19536,59224
19188,58991
19188,58991
18892,58695
18659,58347
18499,57960
18417,57549
18417,57130
18499,56719
18659,56332
18892,55984
19188,55688
19521,55466
19536,55455
19568,55442
19923,55295
20334,55214
20753,55214
21163,55295
" /> 
<polyline style="fill-rule:evenodd;"
points="38992,52828
37614,52828
37614,51451
38992,51451
38992,52828
" /> 
<polyline style="fill-rule:evenodd;"
points="31792,52828
30414,52828
30414,51451
31792,51451
31792,52828
" /> 
<polyline style="fill-rule:evenodd;"
points="24592,52797
23214,52797
23214,51419
24592,51419
24592,52797
" /> 
<polyline style="fill-rule:evenodd;"
points="46132,52777
44754,52777
44754,51399
46132,51399
46132,52777
" /> 
<polyline style="fill-rule:evenodd;"
points="75652,52688
74274,52688
74274,51311
75652,51311
75652,52688
" /> 
<polyline style="fill-rule:evenodd;"
points="68432,52428
67054,52428
67054,51051
68432,51051
68432,52428
" /> 
<polyline style="fill-rule:evenodd;"
points="82832,52428
81454,52428
81454,51051
82832,51051
82832,52428
" /> 
<polyline style="fill-rule:evenodd;"
points="90032,52428
88654,52428
88654,51051
90032,51051
90032,52428
" /> 
<polyline style="fill-rule:evenodd;"
points="38504,49508
38630,49560
38742,49636
38838,49732
38914,49845
38966,49970
38992,50103
38992,50239
38966,50372
38914,50497
38838,50610
38742,50706
38630,50782
38504,50833
38371,50860
38235,50860
38102,50833
37977,50782
37864,50706
37768,50610
37693,50497
37641,50372
37614,50239
37614,50103
37641,49970
37693,49845
37768,49732
37864,49636
37977,49560
38102,49508
38235,49482
38371,49482
38504,49508
" /> 
<polyline style="fill-rule:evenodd;"
points="31304,49508
31430,49560
31542,49636
31638,49732
31714,49845
31766,49970
31792,50103
31792,50239
31766,50372
31714,50497
31638,50610
31542,50706
31430,50782
31304,50833
31171,50860
31035,50860
30902,50833
30777,50782
30664,50706
30568,50610
30493,50497
30441,50372
30414,50239
30414,50103
30441,49970
30493,49845
30568,49732
30664,49636
30777,49560
30902,49508
31035,49482
31171,49482
31304,49508
" /> 
<polyline style="fill-rule:evenodd;"
points="24104,49477
24230,49529
24342,49604
24438,49700
24514,49813
24566,49939
24592,50072
24592,50207
24566,50340
24514,50466
24438,50579
24342,50675
24230,50750
24104,50802
23971,50828
23835,50828
23702,50802
23577,50750
23464,50675
23368,50579
23293,50466
23241,50340
23214,50207
23214,50072
23241,49939
23293,49813
23368,49700
23464,49604
23577,49529
23702,49477
23835,49451
23971,49451
24104,49477
" /> 
<polyline style="fill-rule:evenodd;"
points="45644,49457
45770,49509
45882,49584
45978,49680
46054,49793
46106,49919
46132,50052
46132,50187
46106,50320
46054,50446
45978,50559
45882,50655
45770,50730
45644,50782
45511,50808
45375,50808
45242,50782
45117,50730
45004,50655
44908,50559
44833,50446
44781,50320
44754,50187
44754,50052
44781,49919
44833,49793
44908,49680
45004,49584
45117,49509
45242,49457
45375,49431
45511,49431
45644,49457
" /> 
<polyline style="fill-rule:evenodd;"
points="75164,49368
75290,49420
75402,49496
75498,49592
75574,49705
75626,49830
75652,49963
75652,50099
75626,50232
75574,50357
75498,50470
75402,50566
75290,50642
75164,50693
75031,50720
74895,50720
74762,50693
74637,50642
74524,50566
74428,50470
74353,50357
74301,50232
74274,50099
74274,49963
74301,49830
74353,49705
74428,49592
74524,49496
74637,49420
74762,49368
74895,49342
75031,49342
75164,49368
" /> 
<polyline style="fill-rule:evenodd;"
points="82344,49108
82470,49160
82582,49236
82678,49332
82754,49445
82806,49570
82832,49703
82832,49839
82806,49972
82754,50097
82678,50210
82582,50306
82470,50382
82344,50433
82211,50460
82075,50460
81942,50433
81817,50382
81704,50306
81608,50210
81533,50097
81481,49972
81454,49839
81454,49703
81481,49570
81533,49445
81608,49332
81704,49236
81817,49160
81942,49108
82075,49082
82211,49082
82344,49108
" /> 
<polyline style="fill-rule:evenodd;"
points="89544,49108
89670,49160
89782,49236
89878,49332
89954,49445
90006,49570
90032,49703
90032,49839
90006,49972
89954,50097
89878,50210
89782,50306
89670,50382
89544,50433
89411,50460
89275,50460
89142,50433
89017,50382
88904,50306
88808,50210
88733,50097
88681,49972
88654,49839
88654,49703
88681,49570
88733,49445
88808,49332
88904,49236
89017,49160
89142,49108
89275,49082
89411,49082
89544,49108
" /> 
<polyline style="fill-rule:evenodd;"
points="67944,49108
68070,49160
68182,49236
68278,49332
68354,49445
68406,49570
68432,49703
68432,49839
68406,49972
68354,50097
68278,50210
68182,50306
68070,50382
67944,50433
67811,50460
67675,50460
67542,50433
67417,50382
67304,50306
67208,50210
67133,50097
67081,49972
67054,49839
67054,49703
67081,49570
67133,49445
67208,49332
67304,49236
67417,49160
67542,49108
67675,49082
67811,49082
67944,49108
" /> 
<polyline style="fill-rule:evenodd;"
points="86534,42600
86661,42638
86777,42700
86879,42784
86962,42886
87025,43002
87063,43128
87076,43260
87063,43391
87025,43517
86962,43633
86879,43735
86777,43819
86661,43881
86534,43919
86436,43929
86370,43929
86272,43919
86146,43881
86030,43819
85928,43735
85844,43633
85782,43517
85744,43391
85731,43260
85744,43128
85782,43002
85844,42886
85928,42784
86030,42700
86146,42638
86272,42600
86370,42590
86436,42590
86534,42600
" /> 
<polyline style="fill-rule:evenodd;"
points="84534,42600
84661,42638
84777,42700
84879,42784
84962,42886
85025,43002
85063,43128
85076,43260
85063,43391
85025,43517
84962,43633
84879,43735
84777,43819
84661,43881
84534,43919
84436,43929
84370,43929
84272,43919
84146,43881
84030,43819
83928,43735
83844,43633
83782,43517
83744,43391
83731,43260
83744,43128
83782,43002
83844,42886
83928,42784
84030,42700
84146,42638
84272,42600
84370,42590
84436,42590
84534,42600
" /> 
<polyline style="fill-rule:evenodd;"
points="82534,42600
82661,42638
82777,42700
82879,42784
82962,42886
83025,43002
83063,43128
83076,43260
83063,43391
83025,43517
82962,43633
82879,43735
82777,43819
82661,43881
82534,43919
82436,43929
82370,43929
82272,43919
82146,43881
82030,43819
81928,43735
81844,43633
81782,43517
81744,43391
81731,43260
81744,43128
81782,43002
81844,42886
81928,42784
82030,42700
82146,42638
82272,42600
82370,42590
82436,42590
82534,42600
" /> 
<polyline style="fill-rule:evenodd;"
points="80534,42600
80661,42638
80777,42700
80879,42784
80962,42886
81025,43002
81063,43128
81076,43260
81063,43391
81025,43517
80962,43633
80879,43735
80777,43819
80661,43881
80534,43919
80436,43929
80370,43929
80272,43919
80146,43881
80030,43819
79928,43735
79844,43633
79782,43517
79744,43391
79731,43260
79744,43128
79782,43002
79844,42886
79928,42784
80030,42700
80146,42638
80272,42600
80370,42590
80436,42590
80534,42600
" /> 
<polyline style="fill-rule:evenodd;"
points="79073,43929
77734,43929
77734,42590
79073,42590
79073,43929
" /> 
<polyline style="fill-rule:evenodd;"
points="72774,42580
72901,42618
73017,42680
73119,42764
73202,42866
73265,42982
73303,43108
73316,43240
73303,43371
73265,43497
73202,43613
73119,43715
73017,43799
72901,43861
72774,43899
72676,43909
72610,43909
72512,43899
72386,43861
72270,43799
72168,43715
72084,43613
72022,43497
71984,43371
71971,43240
71984,43108
72022,42982
72084,42866
72168,42764
72270,42680
72386,42618
72512,42580
72610,42570
72676,42570
72774,42580
" /> 
<polyline style="fill-rule:evenodd;"
points="71313,43909
69974,43909
69974,42570
71313,42570
71313,43909
" /> 
<polyline style="fill-rule:evenodd;"
points="74774,42580
74901,42618
75017,42680
75119,42764
75202,42866
75265,42982
75303,43108
75316,43240
75303,43371
75265,43497
75202,43613
75119,43715
75017,43799
74901,43861
74774,43899
74676,43909
74610,43909
74512,43899
74386,43861
74270,43799
74168,43715
74084,43613
74022,43497
73984,43371
73971,43240
73984,43108
74022,42982
74084,42866
74168,42764
74270,42680
74386,42618
74512,42580
74610,42570
74676,42570
74774,42580
" /> 
<polyline style="fill-rule:evenodd;"
points="56212,40923
56288,40938
56503,41027
56694,41154
56696,41156
56861,41320
56861,41320
56990,41514
57079,41729
57124,41957
57124,42190
57079,42418
56990,42633
56945,42700
56861,42826
56696,42991
56696,42991
56503,43120
56288,43209
56212,43224
56060,43254
55827,43254
55675,43224
55599,43209
55384,43120
55190,42991
55190,42991
55026,42826
54942,42700
54897,42633
54808,42418
54762,42190
54762,41957
54808,41729
54897,41514
55026,41320
55026,41320
55190,41156
55193,41154
55384,41027
55599,40938
55675,40923
55827,40892
56060,40892
56212,40923
" /> 
<polyline style="fill-rule:evenodd;"
points="40918,39164
41009,39182
41152,39242
41281,39328
41391,39438
41477,39567
41536,39710
41567,39862
41567,40017
41536,40169
41477,40312
41391,40441
41281,40551
41152,40637
41009,40697
40918,40715
40857,40727
40702,40727
40641,40715
40550,40697
40406,40637
40277,40551
40168,40441
40081,40312
40022,40169
39992,40017
39992,39862
40022,39710
40081,39567
40168,39438
40277,39328
40406,39242
40550,39182
40641,39164
40702,39152
40857,39152
40918,39164
" /> 
<polyline style="fill-rule:evenodd;"
points="44461,39164
44552,39182
44696,39242
44824,39328
44934,39438
45020,39567
45080,39710
45110,39862
45110,40017
45080,40169
45020,40312
44934,40441
44824,40551
44696,40637
44552,40697
44461,40715
44400,40727
44245,40727
44184,40715
44093,40697
43950,40637
43821,40551
43711,40441
43625,40312
43565,40169
43535,40017
43535,39862
43565,39710
43625,39567
43711,39438
43821,39328
43950,39242
44093,39182
44184,39164
44245,39152
44400,39152
44461,39164
" /> 
<polyline style="fill-rule:evenodd;"
points="36872,38757
35494,38757
35494,37379
36872,37379
36872,38757
" /> 
<polyline style="fill-rule:evenodd;"
points="36384,35437
36510,35489
36622,35564
36718,35660
36794,35773
36846,35899
36872,36032
36872,36167
36846,36300
36794,36426
36718,36539
36622,36635
36510,36710
36384,36762
36251,36788
36115,36788
35982,36762
35857,36710
35744,36635
35648,36539
35573,36426
35521,36300
35494,36167
35494,36032
35521,35899
35573,35773
35648,35660
35744,35564
35857,35489
35982,35437
36115,35411
36251,35411
36384,35437
" /> 
<polyline style="fill-rule:evenodd;"
points="40918,34046
41009,34064
41152,34124
41281,34210
41391,34319
41477,34448
41536,34592
41539,34604
41567,34744
41567,34899
41555,34960
41536,35051
41477,35194
41391,35323
41281,35433
41152,35519
41009,35579
40918,35597
40857,35609
40702,35609
40641,35597
40550,35579
40406,35519
40277,35433
40168,35323
40081,35194
40022,35051
40004,34960
39992,34899
39992,34744
40020,34604
40022,34592
40081,34448
40168,34319
40277,34210
40406,34124
40550,34064
40641,34046
40702,34034
40857,34034
40918,34046
" /> 
<polyline style="fill-rule:evenodd;"
points="44461,34046
44552,34064
44696,34124
44824,34210
44934,34319
45020,34448
45080,34592
45082,34604
45110,34744
45110,34899
45098,34960
45080,35051
45020,35194
44934,35323
44824,35433
44696,35519
44552,35579
44461,35597
44400,35609
44245,35609
44184,35597
44093,35579
43950,35519
43821,35433
43711,35323
43625,35194
43565,35051
43547,34960
43535,34899
43535,34744
43563,34604
43565,34592
43625,34448
43711,34319
43821,34210
43950,34124
44093,34064
44184,34046
44245,34034
44400,34034
44461,34046
" /> 
<polyline style="fill-rule:evenodd;"
points="72806,34787
72110,35483
71554,34926
72250,34230
72806,34787
" /> 
<polyline style="fill-rule:evenodd;"
points="28312,34273
28416,34305
28511,34356
28595,34425
28664,34508
28715,34604
28747,34708
28757,34816
28747,34924
28715,35028
28664,35124
28595,35208
28511,35277
28416,35328
28312,35359
28231,35367
27074,35367
26993,35359
26889,35328
26794,35277
26710,35208
26641,35124
26590,35028
26558,34924
26547,34816
26558,34708
26590,34604
26641,34508
26710,34425
26794,34356
26889,34305
26993,34273
27074,34265
28231,34265
28312,34273
" /> 
<polyline style="fill-rule:evenodd;"
points="71693,33673
70997,34369
70440,33812
71136,33116
71693,33673
" /> 
<polyline style="fill-rule:evenodd;"
points="19752,34048
18335,34048
18335,32631
19752,32631
19752,34048
" /> 
<polyline style="fill-rule:evenodd;"
points="23250,32658
23379,32711
23495,32789
23594,32888
23671,33004
23725,33133
23752,33270
23752,33409
23725,33546
23671,33675
23594,33791
23495,33890
23379,33968
23250,34021
23113,34048
22973,34048
22837,34021
22708,33968
22591,33890
22493,33791
22415,33675
22362,33546
22335,33409
22335,33270
22362,33133
22415,33004
22493,32888
22591,32789
22708,32711
22837,32658
22973,32631
23113,32631
23250,32658
" /> 
<polyline style="fill-rule:evenodd;"
points="21250,32658
21379,32711
21495,32789
21594,32888
21671,33004
21725,33133
21752,33270
21752,33409
21725,33546
21671,33675
21594,33791
21495,33890
21379,33968
21250,34021
21113,34048
20973,34048
20837,34021
20708,33968
20591,33890
20493,33791
20415,33675
20362,33546
20335,33409
20335,33270
20362,33133
20415,33004
20493,32888
20591,32789
20708,32711
20837,32658
20973,32631
21113,32631
21250,32658
" /> 
<polyline style="fill-rule:evenodd;"
points="25320,31438
25423,31470
25519,31521
25603,31590
25672,31674
25723,31770
25755,31873
25763,31954
25763,33111
25755,33192
25723,33296
25672,33392
25603,33476
25519,33544
25423,33596
25320,33627
25211,33638
25103,33627
25000,33596
24904,33544
24820,33476
24751,33392
24700,33296
24668,33192
24660,33111
24660,31954
24668,31873
24700,31770
24751,31674
24820,31590
24904,31521
25000,31470
25103,31438
25211,31428
25320,31438
" /> 
<polyline style="fill-rule:evenodd;"
points="70866,32827
70170,33523
69614,32966
70310,32270
70866,32827
" /> 
<polyline style="fill-rule:evenodd;"
points="69753,31713
69057,32409
68500,31852
69196,31156
69753,31713
" /> 
<polyline style="fill-rule:evenodd;"
points="27296,30866
27418,30916
27528,30989
27621,31082
27694,31192
27745,31314
27771,31443
27771,31575
27745,31704
27694,31826
27621,31936
27528,32029
27418,32102
27296,32153
27167,32178
27035,32178
26906,32153
26784,32102
26675,32029
26581,31936
26508,31826
26458,31704
26432,31575
26432,31443
26458,31314
26508,31192
26581,31082
26675,30989
26784,30916
26906,30866
27035,30840
27167,30840
27296,30866
" /> 
<polyline style="fill-rule:evenodd;"
points="79046,30452
79137,30470
79280,30530
79409,30616
79519,30726
79605,30855
79664,30998
79681,31082
79695,31150
79695,31305
79683,31366
79664,31457
79605,31600
79519,31729
79409,31839
79280,31925
79137,31985
79046,32003
78985,32015
78830,32015
78769,32003
78678,31985
78534,31925
78405,31839
78296,31729
78209,31600
78150,31457
78132,31366
78120,31305
78120,31150
78133,31082
78150,30998
78209,30855
78296,30726
78405,30616
78534,30530
78678,30470
78769,30452
78830,30440
78985,30440
79046,30452
" /> 
<polyline style="fill-rule:evenodd;"
points="82589,30452
82680,30470
82824,30530
82952,30616
83062,30726
83148,30855
83208,30998
83225,31082
83238,31150
83238,31305
83226,31366
83208,31457
83148,31600
83062,31729
82952,31839
82824,31925
82680,31985
82589,32003
82528,32015
82373,32015
82312,32003
82221,31985
82078,31925
81949,31839
81839,31729
81753,31600
81693,31457
81675,31366
81663,31305
81663,31150
81677,31082
81693,30998
81753,30855
81839,30726
81949,30616
82078,30530
82221,30470
82312,30452
82373,30440
82528,30440
82589,30452
" /> 
<polyline style="fill-rule:evenodd;"
points="29084,25683
29084,25683
29084,25683
29174,25710
29257,25754
29329,25814
29360,25852
29388,25886
29423,25952
29433,25969
29445,26008
29460,26058
29467,26128
29467,27126
29460,27196
29460,27196
29460,27196
29433,27286
29388,27368
29329,27441
29257,27500
29174,27544
29084,27572
29084,27572
29084,27572
28991,27581
28898,27572
28898,27572
28898,27572
28808,27544
28726,27500
28653,27441
28594,27368
28549,27286
28522,27196
28522,27196
28522,27196
28515,27126
28515,26128
28522,26058
28522,26058
28549,25969
28594,25886
28653,25814
28693,25781
28726,25754
28808,25710
28808,25710
28898,25683
28898,25683
28898,25683
28991,25674
29084,25683
" /> 
<polyline style="fill-rule:evenodd;"
points="33445,26157
33570,26209
33683,26285
33779,26381
33855,26493
33907,26619
33933,26752
33933,26888
33907,27021
33855,27146
33779,27259
33683,27355
33570,27430
33445,27482
33312,27509
33176,27509
33043,27482
32918,27430
32805,27355
32709,27259
32633,27146
32582,27021
32555,26888
32555,26752
32582,26619
32633,26493
32709,26381
32805,26285
32918,26209
33043,26157
33176,26131
33312,26131
33445,26157
" /> 
<polyline style="fill-rule:evenodd;"
points="57124,27121
54762,27121
54762,24758
57124,24758
57124,27121
" /> 
<polyline style="fill-rule:evenodd;"
points="79046,25334
79137,25352
79280,25412
79409,25498
79519,25607
79605,25736
79664,25880
79675,25935
79695,26032
79695,26187
79690,26209
79664,26339
79605,26482
79519,26611
79409,26721
79280,26807
79137,26867
79046,26885
78985,26897
78830,26897
78769,26885
78678,26867
78534,26807
78405,26721
78296,26611
78209,26482
78150,26339
78124,26209
78120,26187
78120,26032
78139,25935
78150,25880
78209,25736
78296,25607
78405,25498
78534,25412
78678,25352
78769,25334
78830,25322
78985,25322
79046,25334
" /> 
<polyline style="fill-rule:evenodd;"
points="82589,25334
82680,25352
82824,25412
82952,25498
83062,25607
83148,25736
83208,25880
83219,25935
83238,26032
83238,26187
83234,26209
83208,26339
83148,26482
83062,26611
82952,26721
82824,26807
82680,26867
82589,26885
82528,26897
82373,26897
82312,26885
82221,26867
82078,26807
81949,26721
81839,26611
81753,26482
81693,26339
81668,26209
81663,26187
81663,26032
81682,25935
81693,25880
81753,25736
81839,25607
81949,25498
82078,25412
82221,25352
82312,25334
82373,25322
82528,25322
82589,25334
" /> 
<polyline style="fill-rule:evenodd;"
points="68094,25480
68221,25518
68337,25580
68439,25664
68522,25766
68585,25882
68623,26008
68636,26140
68623,26271
68585,26397
68522,26513
68439,26615
68337,26699
68221,26761
68094,26799
67996,26809
67930,26809
67832,26799
67706,26761
67590,26699
67488,26615
67404,26513
67342,26397
67304,26271
67291,26140
67304,26008
67342,25882
67404,25766
67488,25664
67590,25580
67706,25518
67832,25480
67930,25470
67996,25470
68094,25480
" /> 
<polyline style="fill-rule:evenodd;"
points="66094,25480
66221,25518
66337,25580
66439,25664
66522,25766
66585,25882
66623,26008
66636,26140
66623,26271
66585,26397
66522,26513
66439,26615
66337,26699
66221,26761
66094,26799
65996,26809
65930,26809
65832,26799
65706,26761
65590,26699
65488,26615
65404,26513
65342,26397
65304,26271
65291,26140
65304,26008
65342,25882
65404,25766
65488,25664
65590,25580
65706,25518
65832,25480
65930,25470
65996,25470
66094,25480
" /> 
<polyline style="fill-rule:evenodd;"
points="64633,26809
63294,26809
63294,25470
64633,25470
64633,26809
" /> 
<polyline style="fill-rule:evenodd;"
points="93923,22535
94278,22682
94310,22695
94562,22864
94658,22928
94955,23224
94955,23224
95174,23553
95187,23572
95348,23959
95429,24370
95429,24789
95348,25200
95187,25587
95187,25587
95064,25771
94955,25935
94658,26231
94658,26231
94310,26464
94310,26464
94310,26464
93923,26624
93513,26705
93094,26705
92683,26624
92296,26464
92296,26464
92296,26464
91948,26231
91948,26231
91652,25935
91543,25771
91419,25587
91419,25587
91259,25200
91177,24789
91177,24370
91259,23959
91419,23572
91432,23553
91652,23224
91652,23224
91948,22928
92044,22864
92296,22695
92328,22682
92683,22535
93094,22454
93513,22454
93923,22535
" /> 
<polyline style="fill-rule:evenodd;"
points="27296,25354
27418,25404
27528,25477
27621,25571
27694,25680
27745,25802
27771,25931
27771,26063
27745,26193
27694,26314
27621,26424
27528,26517
27418,26590
27296,26641
27167,26667
27035,26667
26906,26641
26784,26590
26675,26517
26581,26424
26508,26314
26458,26193
26432,26063
26432,25931
26458,25802
26508,25680
26581,25571
26675,25477
26784,25404
26906,25354
27035,25328
27167,25328
27296,25354
" /> 
<polyline style="fill-rule:evenodd;"
points="21203,22435
21558,22582
21590,22595
21720,22682
21938,22828
22235,23124
22235,23124
22466,23471
22467,23472
22628,23859
22709,24270
22709,24689
22628,25100
22474,25470
22467,25487
22287,25756
22235,25835
21938,26131
21938,26131
21590,26364
21590,26364
21590,26364
21203,26524
20793,26605
20374,26605
19963,26524
19576,26364
19576,26364
19576,26364
19228,26131
19228,26131
18932,25835
18879,25756
18699,25487
18692,25470
18539,25100
18457,24689
18457,24270
18539,23859
18699,23472
18700,23471
18932,23124
18932,23124
19228,22828
19446,22682
19576,22595
19608,22582
19963,22435
20374,22354
20793,22354
21203,22435
" /> 
<polyline style="fill-rule:evenodd;"
points="25305,24187
25305,24187
25305,24187
25394,24214
25477,24258
25549,24318
25582,24357
25609,24390
25609,24390
25653,24473
25680,24562
25680,24562
25687,24632
25687,25630
25680,25700
25680,25700
25680,25700
25653,25790
25609,25872
25549,25945
25477,26004
25394,26048
25305,26075
25305,26075
25305,26075
25211,26085
25118,26075
25118,26075
25118,26075
25029,26048
24946,26004
24874,25945
24814,25872
24770,25790
24743,25700
24743,25700
24743,25700
24736,25630
24736,24632
24743,24562
24743,24562
24770,24473
24814,24390
24874,24318
24921,24279
24946,24258
25029,24214
25029,24214
25118,24187
25118,24187
25118,24187
25211,24178
25305,24187
" /> 
<polyline style="fill-rule:evenodd;"
points="33933,25540
32555,25540
32555,24162
33933,24162
33933,25540
" /> 
<polyline style="fill-rule:evenodd;"
points="29084,23478
29084,23478
29084,23478
29174,23505
29257,23550
29329,23609
29347,23631
29388,23681
29428,23755
29433,23764
29443,23799
29460,23854
29467,23924
29467,24921
29460,24991
29460,24991
29460,24991
29433,25081
29388,25164
29329,25236
29257,25295
29174,25340
29084,25367
29084,25367
29084,25367
28991,25376
28898,25367
28898,25367
28898,25367
28808,25340
28726,25295
28653,25236
28594,25164
28549,25081
28522,24991
28522,24991
28522,24991
28515,24921
28515,23924
28522,23854
28522,23854
28549,23764
28594,23681
28653,23609
28698,23572
28726,23550
28808,23505
28808,23505
28898,23478
28898,23478
28898,23478
28991,23469
29084,23478
" /> 
<polyline style="fill-rule:evenodd;"
points="68094,23480
68221,23518
68337,23580
68439,23664
68522,23766
68585,23882
68623,24008
68636,24140
68623,24271
68585,24397
68522,24513
68439,24615
68337,24699
68221,24761
68094,24799
67996,24809
67930,24809
67832,24799
67706,24761
67590,24699
67488,24615
67404,24513
67342,24397
67304,24271
67291,24140
67304,24008
67342,23882
67404,23766
67488,23664
67590,23580
67706,23518
67832,23480
67930,23470
67996,23470
68094,23480
" /> 
<polyline style="fill-rule:evenodd;"
points="66094,23480
66221,23518
66337,23580
66439,23664
66522,23766
66585,23882
66623,24008
66636,24140
66623,24271
66585,24397
66522,24513
66439,24615
66337,24699
66221,24761
66094,24799
65996,24809
65930,24809
65832,24799
65706,24761
65590,24699
65488,24615
65404,24513
65342,24397
65304,24271
65291,24140
65304,24008
65342,23882
65404,23766
65488,23664
65590,23580
65706,23518
65832,23480
65930,23470
65996,23470
66094,23480
" /> 
<polyline style="fill-rule:evenodd;"
points="64094,23480
64221,23518
64337,23580
64439,23664
64522,23766
64585,23882
64623,24008
64636,24140
64623,24271
64585,24397
64522,24513
64439,24615
64337,24699
64221,24761
64094,24799
63996,24809
63930,24809
63832,24799
63706,24761
63590,24699
63488,24615
63404,24513
63342,24397
63304,24271
63291,24140
63304,24008
63342,23882
63404,23766
63488,23664
63590,23580
63706,23518
63832,23480
63930,23470
63996,23470
64094,23480
" /> 
<polyline style="fill-rule:evenodd;"
points="76474,22680
76601,22718
76717,22780
76819,22864
76902,22966
76965,23082
77003,23208
77016,23340
77003,23471
76965,23597
76902,23713
76819,23815
76717,23899
76601,23961
76474,23999
76376,24009
76310,24009
76212,23999
76086,23961
75970,23899
75868,23815
75784,23713
75722,23597
75684,23471
75671,23340
75684,23208
75722,23082
75784,22966
75868,22864
75970,22780
76086,22718
76212,22680
76310,22670
76376,22670
76474,22680
" /> 
<polyline style="fill-rule:evenodd;"
points="78474,22680
78601,22718
78717,22780
78819,22864
78902,22966
78965,23082
79003,23208
79016,23340
79003,23471
78965,23597
78902,23713
78819,23815
78717,23899
78601,23961
78474,23999
78376,24009
78310,24009
78212,23999
78086,23961
77970,23899
77868,23815
77784,23713
77722,23597
77684,23471
77671,23340
77684,23208
77722,23082
77784,22966
77868,22864
77970,22780
78086,22718
78212,22680
78310,22670
78376,22670
78474,22680
" /> 
<polyline style="fill-rule:evenodd;"
points="80474,22680
80601,22718
80717,22780
80819,22864
80902,22966
80965,23082
81003,23208
81016,23340
81003,23471
80965,23597
80902,23713
80819,23815
80717,23899
80601,23961
80474,23999
80376,24009
80310,24009
80212,23999
80086,23961
79970,23899
79868,23815
79784,23713
79722,23597
79684,23471
79671,23340
79684,23208
79722,23082
79784,22966
79868,22864
79970,22780
80086,22718
80212,22680
80310,22670
80376,22670
80474,22680
" /> 
<polyline style="fill-rule:evenodd;"
points="82474,22680
82601,22718
82717,22780
82819,22864
82902,22966
82965,23082
83003,23208
83016,23340
83003,23471
82965,23597
82902,23713
82819,23815
82717,23899
82601,23961
82474,23999
82376,24009
82310,24009
82212,23999
82086,23961
81970,23899
81868,23815
81784,23713
81722,23597
81684,23471
81671,23340
81684,23208
81722,23082
81784,22966
81868,22864
81970,22780
82086,22718
82212,22680
82310,22670
82376,22670
82474,22680
" /> 
<polyline style="fill-rule:evenodd;"
points="84474,22680
84601,22718
84717,22780
84819,22864
84902,22966
84965,23082
85003,23208
85016,23340
85003,23471
84965,23597
84902,23713
84819,23815
84717,23899
84601,23961
84474,23999
84376,24009
84310,24009
84212,23999
84086,23961
83970,23899
83868,23815
83784,23713
83722,23597
83684,23471
83671,23340
83684,23208
83722,23082
83784,22966
83868,22864
83970,22780
84086,22718
84212,22680
84310,22670
84376,22670
84474,22680
" /> 
<polyline style="fill-rule:evenodd;"
points="87013,24009
85674,24009
85674,22670
87013,22670
87013,24009
" /> 
<polyline style="fill-rule:evenodd;"
points="24675,21982
24675,21982
24675,21982
24764,22009
24847,22053
24919,22113
24952,22153
24979,22185
25023,22268
25050,22358
25057,22427
25057,23425
25050,23495
25050,23495
25050,23495
25023,23585
24979,23668
24919,23740
24847,23799
24764,23844
24675,23871
24675,23871
24675,23871
24582,23880
24488,23871
24488,23871
24488,23871
24399,23844
24316,23799
24244,23740
24184,23668
24140,23585
24113,23495
24113,23495
24113,23495
24106,23425
24106,22427
24113,22358
24113,22358
24140,22268
24184,22185
24244,22113
24283,22080
24316,22053
24399,22009
24399,22009
24488,21982
24488,21982
24488,21982
24582,21973
24675,21982
" /> 
<polyline style="fill-rule:evenodd;"
points="57032,21251
57061,21256
57096,21271
57129,21293
57156,21320
57178,21352
57193,21388
57200,21426
57200,21465
57193,21503
57178,21539
57156,21571
57129,21599
57096,21620
57061,21635
57032,21641
57023,21642
56984,21642
56974,21641
56946,21635
56910,21620
56878,21599
56850,21571
56829,21539
56814,21503
56806,21465
56806,21426
56814,21388
56829,21352
56850,21320
56878,21293
56910,21271
56946,21256
56974,21251
56984,21249
57023,21249
57032,21251
" /> 
<polyline style="fill-rule:evenodd;"
points="56402,21251
56431,21256
56467,21271
56499,21293
56526,21320
56548,21352
56563,21388
56570,21426
56570,21465
56563,21503
56548,21539
56526,21571
56499,21599
56467,21620
56431,21635
56402,21641
56393,21642
56354,21642
56344,21641
56316,21635
56280,21620
56248,21599
56220,21571
56199,21539
56184,21503
56176,21465
56176,21426
56184,21388
56199,21352
56220,21320
56248,21293
56280,21271
56316,21256
56344,21251
56354,21249
56393,21249
56402,21251
" /> 
<polyline style="fill-rule:evenodd;"
points="31682,21251
31711,21256
31747,21271
31779,21293
31806,21320
31828,21352
31843,21388
31850,21426
31850,21465
31843,21503
31828,21539
31806,21571
31779,21599
31747,21620
31711,21635
31682,21641
31673,21642
31634,21642
31624,21641
31596,21635
31560,21620
31528,21599
31500,21571
31479,21539
31464,21503
31456,21465
31456,21426
31464,21388
31479,21352
31500,21320
31528,21293
31560,21271
31596,21256
31624,21251
31634,21249
31673,21249
31682,21251
" /> 
<polyline style="fill-rule:evenodd;"
points="32942,21251
32971,21256
33006,21271
33039,21293
33066,21320
33088,21352
33102,21388
33110,21426
33110,21465
33102,21503
33088,21539
33066,21571
33039,21599
33006,21620
32971,21635
32942,21641
32933,21642
32894,21642
32884,21641
32856,21635
32820,21620
32788,21599
32760,21571
32739,21539
32724,21503
32716,21465
32716,21426
32724,21388
32739,21352
32760,21320
32788,21293
32820,21271
32856,21256
32884,21251
32894,21249
32933,21249
32942,21251
" /> 
<polyline style="fill-rule:evenodd;"
points="57662,21251
57691,21256
57726,21271
57759,21293
57786,21320
57808,21352
57822,21388
57830,21426
57830,21465
57822,21503
57808,21539
57786,21571
57759,21599
57726,21620
57691,21635
57662,21641
57653,21642
57614,21642
57604,21641
57576,21635
57540,21620
57508,21599
57480,21571
57459,21539
57444,21503
57436,21465
57436,21426
57444,21388
57459,21352
57480,21320
57508,21293
57540,21271
57576,21256
57604,21251
57614,21249
57653,21249
57662,21251
" /> 
<polyline style="fill-rule:evenodd;"
points="32312,21251
32341,21256
32376,21271
32409,21293
32436,21320
32458,21352
32473,21388
32480,21426
32480,21465
32473,21503
32458,21539
32436,21571
32409,21599
32376,21620
32341,21635
32312,21641
32303,21642
32264,21642
32254,21641
32226,21635
32190,21620
32158,21599
32130,21571
32109,21539
32094,21503
32086,21465
32086,21426
32094,21388
32109,21352
32130,21320
32158,21293
32190,21271
32226,21256
32254,21251
32264,21249
32303,21249
32312,21251
" /> 
<polyline style="fill-rule:evenodd;"
points="90202,21211
90231,21216
90266,21231
90299,21253
90326,21280
90348,21312
90362,21348
90370,21386
90370,21425
90362,21463
90348,21499
90326,21531
90299,21559
90266,21580
90231,21595
90202,21601
90193,21602
90154,21602
90144,21601
90116,21595
90080,21580
90048,21559
90020,21531
89999,21499
89984,21463
89976,21425
89976,21386
89984,21348
89999,21312
90020,21280
90048,21253
90080,21231
90116,21216
90144,21211
90154,21209
90193,21209
90202,21211
" /> 
<polyline style="fill-rule:evenodd;"
points="89572,21211
89601,21216
89636,21231
89669,21253
89696,21280
89718,21312
89733,21348
89740,21386
89740,21425
89733,21463
89718,21499
89696,21531
89669,21559
89636,21580
89601,21595
89572,21601
89563,21602
89524,21602
89514,21601
89486,21595
89450,21580
89418,21559
89390,21531
89369,21499
89354,21463
89346,21425
89346,21386
89354,21348
89369,21312
89390,21280
89418,21253
89450,21231
89486,21216
89514,21211
89524,21209
89563,21209
89572,21211
" /> 
<polyline style="fill-rule:evenodd;"
points="88942,21211
88971,21216
89007,21231
89039,21253
89066,21280
89088,21312
89103,21348
89110,21386
89110,21425
89103,21463
89088,21499
89066,21531
89039,21559
89007,21580
88971,21595
88942,21601
88933,21602
88894,21602
88884,21601
88856,21595
88820,21580
88788,21559
88760,21531
88739,21499
88724,21463
88716,21425
88716,21386
88724,21348
88739,21312
88760,21280
88788,21253
88820,21231
88856,21216
88884,21211
88894,21209
88933,21209
88942,21211
" /> 
<polyline style="fill-rule:evenodd;"
points="32312,19518
32341,19524
32376,19539
32409,19560
32436,19588
32458,19620
32473,19656
32480,19694
32480,19733
32473,19771
32458,19807
32436,19839
32409,19866
32376,19888
32341,19903
32312,19908
32303,19910
32264,19910
32254,19908
32226,19903
32190,19888
32158,19866
32130,19839
32109,19807
32094,19771
32086,19733
32086,19694
32094,19656
32109,19620
32130,19588
32158,19560
32190,19539
32226,19524
32254,19518
32264,19517
32303,19517
32312,19518
" /> 
<polyline style="fill-rule:evenodd;"
points="31682,19518
31711,19524
31747,19539
31779,19560
31806,19588
31828,19620
31843,19656
31850,19694
31850,19733
31843,19771
31828,19807
31806,19839
31779,19866
31747,19888
31711,19903
31682,19908
31673,19910
31634,19910
31624,19908
31596,19903
31560,19888
31528,19866
31500,19839
31479,19807
31464,19771
31456,19733
31456,19694
31464,19656
31479,19620
31500,19588
31528,19560
31560,19539
31596,19524
31624,19518
31634,19517
31673,19517
31682,19518
" /> 
<polyline style="fill-rule:evenodd;"
points="56402,19518
56431,19524
56467,19539
56499,19560
56526,19588
56548,19620
56563,19656
56570,19694
56570,19733
56563,19771
56548,19807
56526,19839
56499,19866
56467,19888
56431,19903
56402,19908
56393,19910
56354,19910
56344,19908
56316,19903
56280,19888
56248,19866
56220,19839
56199,19807
56184,19771
56176,19733
56176,19694
56184,19656
56199,19620
56220,19588
56248,19560
56280,19539
56316,19524
56344,19518
56354,19517
56393,19517
56402,19518
" /> 
<polyline style="fill-rule:evenodd;"
points="32942,19518
32971,19524
33006,19539
33039,19560
33066,19588
33088,19620
33102,19656
33110,19694
33110,19733
33102,19771
33088,19807
33066,19839
33039,19866
33006,19888
32971,19903
32942,19908
32933,19910
32894,19910
32884,19908
32856,19903
32820,19888
32788,19866
32760,19839
32739,19807
32724,19771
32716,19733
32716,19694
32724,19656
32739,19620
32760,19588
32788,19560
32820,19539
32856,19524
32884,19518
32894,19517
32933,19517
32942,19518
" /> 
<polyline style="fill-rule:evenodd;"
points="57032,19518
57061,19524
57096,19539
57129,19560
57156,19588
57178,19620
57193,19656
57200,19694
57200,19733
57193,19771
57178,19807
57156,19839
57129,19866
57096,19888
57061,19903
57032,19908
57023,19910
56984,19910
56974,19908
56946,19903
56910,19888
56878,19866
56850,19839
56829,19807
56814,19771
56806,19733
56806,19694
56814,19656
56829,19620
56850,19588
56878,19560
56910,19539
56946,19524
56974,19518
56984,19517
57023,19517
57032,19518
" /> 
<polyline style="fill-rule:evenodd;"
points="57662,19518
57691,19524
57726,19539
57759,19560
57786,19588
57808,19620
57822,19656
57830,19694
57830,19733
57822,19771
57808,19807
57786,19839
57759,19866
57726,19888
57691,19903
57662,19908
57653,19910
57614,19910
57604,19908
57576,19903
57540,19888
57508,19866
57480,19839
57459,19807
57444,19771
57436,19733
57436,19694
57444,19656
57459,19620
57480,19588
57508,19560
57540,19539
57576,19524
57604,19518
57614,19517
57653,19517
57662,19518
" /> 
<polyline style="fill-rule:evenodd;"
points="89572,19478
89601,19484
89636,19499
89669,19520
89696,19548
89718,19580
89733,19616
89740,19654
89740,19693
89733,19731
89718,19767
89696,19799
89669,19826
89636,19848
89601,19863
89572,19868
89563,19870
89524,19870
89514,19868
89486,19863
89450,19848
89418,19826
89390,19799
89369,19767
89354,19731
89346,19693
89346,19654
89354,19616
89369,19580
89390,19548
89418,19520
89450,19499
89486,19484
89514,19478
89524,19477
89563,19477
89572,19478
" /> 
<polyline style="fill-rule:evenodd;"
points="90202,19478
90231,19484
90266,19499
90299,19520
90326,19548
90348,19580
90362,19616
90370,19654
90370,19693
90362,19731
90348,19767
90326,19799
90299,19826
90266,19848
90231,19863
90202,19868
90193,19870
90154,19870
90144,19868
90116,19863
90080,19848
90048,19826
90020,19799
89999,19767
89984,19731
89976,19693
89976,19654
89984,19616
89999,19580
90020,19548
90048,19520
90080,19499
90116,19484
90144,19478
90154,19477
90193,19477
90202,19478
" /> 
<polyline style="fill-rule:evenodd;"
points="88942,19478
88971,19484
89007,19499
89039,19520
89066,19548
89088,19580
89103,19616
89110,19654
89110,19693
89103,19731
89088,19767
89066,19799
89039,19826
89007,19848
88971,19863
88942,19868
88933,19870
88894,19870
88884,19868
88856,19863
88820,19848
88788,19826
88760,19799
88739,19767
88724,19731
88716,19693
88716,19654
88724,19616
88739,19580
88760,19548
88788,19520
88820,19499
88856,19484
88884,19478
88894,19477
88933,19477
88942,19478
" /> 
<polyline style="fill-rule:evenodd;"
points="27822,15637
28002,15711
28163,15819
28300,15956
28408,16117
28482,16296
28520,16487
28520,16681
28482,16871
28408,17050
28300,17211
28163,17348
28002,17456
27822,17530
27632,17568
27438,17568
27248,17530
27069,17456
26908,17348
26771,17211
26663,17050
26589,16871
26551,16681
26551,16487
26589,16296
26663,16117
26771,15956
26908,15819
27069,15711
27248,15637
27438,15599
27632,15599
27822,15637
" /> 
<polyline style="fill-rule:evenodd;"
points="82941,15637
83120,15711
83281,15819
83418,15956
83526,16117
83600,16296
83638,16487
83638,16681
83600,16871
83526,17050
83418,17211
83281,17348
83120,17456
82941,17530
82750,17568
82557,17568
82366,17530
82187,17456
82026,17348
81889,17211
81781,17050
81707,16871
81669,16681
81669,16487
81707,16296
81781,16117
81889,15956
82026,15819
82187,15711
82366,15637
82557,15599
82750,15599
82941,15637
" /> 
</g> 
</svg>
