<?xml version="1.0" standalone="no"?>
 <!DOCTYPE svg PUBLIC "-//W3C//DTD SVG 1.1//EN" 
 "http://www.w3.org/Graphics/SVG/1.1/DTD/svg11.dtd"> 
<svg xmlns="http://www.w3.org/2000/svg" version="1.1" 
    width="29.7002cm" height="21.0007cm" viewBox="0 0 116930 82680 ">
<title>SVG Picture created as ThermocoupleLogger-B_Mask.svg date 2019/03/15 21:00:30 </title>
  <desc>Picture generated by PCBNEW </desc>
<g style="fill:#000000; fill-opacity:1;stroke:#000000; stroke-opacity:1;
stroke-linecap:round; stroke-linejoin:round; "
 transform="translate(0 0) scale(1 1)">
</g>
<g style="fill:#000000; fill-opacity:0.0; 
stroke:#000000; stroke-width:-0.000787402; stroke-opacity:1; 
stroke-linecap:round; stroke-linejoin:round;">
</g>
<g style="fill:#000000; fill-opacity:0.0; 
stroke:#000000; stroke-width:78.7402; stroke-opacity:1; 
stroke-linecap:round; stroke-linejoin:round;">
<path d="M90772.1 73355.7 A2677.17 2677.17 0.0 0 0 93449.3 70678.6 " />
<path d="M23465 12875
L23465 73375
" />
<path d="M93465 68993
L93465 68993
" />
<path d="M93465 12875
L23465 12875
" />
<path d="M90772 73355
L23465 73375
" />
<path d="M93465 12875
L93449 70678
" />
<path d="M93465 13875
L93465 13875
" />
</g>
<g style="fill:#000000; fill-opacity:1.0; 
stroke:#000000; stroke-width:0; stroke-opacity:1; 
stroke-linecap:round; stroke-linejoin:round;">
<polyline style="fill-rule:evenodd;"
points="90151,68634
89797,68781
89765,68794
89749,68804
89416,69027
89120,69323
89120,69323
88918,69625
88888,69671
88727,70058
88646,70469
88646,70887
88727,71298
88854,71605
88888,71685
89053,71932
89120,72033
89416,72329
89416,72329
89765,72562
89765,72562
89765,72562
90151,72722
90562,72804
90981,72804
91392,72722
91779,72562
91779,72562
91779,72562
92127,72329
92127,72329
92423,72033
92491,71932
92656,71685
92689,71605
92816,71298
92898,70887
92898,70469
92816,70058
92656,69671
92625,69625
92423,69323
92423,69323
92127,69027
91794,68804
91779,68794
91746,68781
91392,68634
90981,68552
90562,68552
90151,68634
" /> 
<polyline style="fill-rule:evenodd;"
points="27081,68004
26726,68151
26694,68164
26678,68175
26345,68397
26049,68693
26049,68693
25826,69027
25817,69041
25656,69428
25575,69839
25575,70258
25656,70668
25811,71041
25817,71055
25882,71153
26049,71403
26345,71700
26345,71700
26694,71932
26694,71932
26694,71932
27081,72092
27491,72174
27910,72174
28321,72092
28708,71932
28708,71932
28708,71932
29056,71700
29056,71700
29352,71403
29520,71153
29585,71055
29591,71041
29745,70668
29827,70258
29827,69839
29745,69428
29585,69041
29575,69027
29352,68693
29352,68693
29056,68397
28723,68175
28708,68164
28676,68151
28321,68004
27910,67922
27491,67922
27081,68004
" /> 
<polyline style="fill-rule:evenodd;"
points="71102,69597
70976,69635
70859,69698
70757,69781
70674,69883
70635,69956
70612,69999
70573,70126
70573,70126
70564,70224
70564,70526
70573,70624
70612,70750
70674,70867
70757,70969
70859,71052
70902,71075
70976,71114
71010,71125
71102,71153
71233,71166
71364,71153
71490,71114
71607,71052
71709,70969
71792,70867
71818,70818
71854,70750
71867,70709
71893,70624
71902,70526
71902,70224
71893,70126
71854,69999
71792,69883
71709,69781
71607,69698
71490,69635
71364,69597
71233,69584
71102,69597
" /> 
<polyline style="fill-rule:evenodd;"
points="78102,69597
77976,69635
77859,69698
77757,69781
77674,69883
77635,69956
77612,69999
77573,70126
77573,70126
77564,70224
77564,70526
77573,70624
77612,70750
77674,70867
77757,70969
77859,71052
77902,71075
77976,71114
78010,71125
78102,71153
78233,71166
78364,71153
78490,71114
78607,71052
78709,70969
78792,70867
78818,70818
78854,70750
78867,70709
78893,70624
78902,70526
78902,70224
78893,70126
78854,69999
78792,69883
78709,69781
78607,69698
78490,69635
78364,69597
78233,69584
78102,69597
" /> 
<polyline style="fill-rule:evenodd;"
points="64102,69597
63976,69635
63859,69698
63757,69781
63674,69883
63635,69956
63612,69999
63573,70126
63573,70126
63564,70224
63564,70526
63573,70624
63612,70750
63674,70867
63757,70969
63859,71052
63902,71075
63976,71114
64010,71125
64102,71153
64233,71166
64364,71153
64490,71114
64607,71052
64709,70969
64792,70867
64818,70818
64854,70750
64867,70709
64893,70624
64902,70526
64902,70224
64893,70126
64854,69999
64792,69883
64709,69781
64607,69698
64490,69635
64364,69597
64233,69584
64102,69597
" /> 
<polyline style="fill-rule:evenodd;"
points="57102,69597
56976,69635
56859,69698
56757,69781
56674,69883
56635,69956
56612,69999
56573,70126
56573,70126
56564,70224
56564,70526
56573,70624
56612,70750
56674,70867
56757,70969
56859,71052
56902,71075
56976,71114
57010,71125
57102,71153
57233,71166
57364,71153
57490,71114
57607,71052
57709,70969
57792,70867
57818,70818
57854,70750
57867,70709
57893,70624
57902,70526
57902,70224
57893,70126
57854,69999
57792,69883
57709,69781
57607,69698
57490,69635
57364,69597
57233,69584
57102,69597
" /> 
<polyline style="fill-rule:evenodd;"
points="50133,69597
50007,69635
49891,69698
49789,69781
49705,69883
49666,69956
49643,69999
49605,70126
49605,70126
49595,70224
49595,70526
49605,70624
49643,70750
49705,70867
49789,70969
49891,71052
49933,71075
50007,71114
50041,71125
50133,71153
50265,71166
50396,71153
50522,71114
50638,71052
50740,70969
50824,70867
50850,70818
50886,70750
50898,70709
50924,70624
50934,70526
50934,70224
50924,70126
50886,69999
50824,69883
50740,69781
50638,69698
50522,69635
50396,69597
50265,69584
50133,69597
" /> 
<polyline style="fill-rule:evenodd;"
points="43133,69597
43007,69635
42891,69698
42789,69781
42705,69883
42666,69956
42643,69999
42605,70126
42605,70126
42595,70224
42595,70526
42605,70624
42643,70750
42705,70867
42789,70969
42891,71052
42933,71075
43007,71114
43041,71125
43133,71153
43265,71166
43396,71153
43522,71114
43638,71052
43740,70969
43824,70867
43850,70818
43886,70750
43898,70709
43924,70624
43934,70526
43934,70224
43924,70126
43886,69999
43824,69883
43740,69781
43638,69698
43522,69635
43396,69597
43265,69584
43133,69597
" /> 
<polyline style="fill-rule:evenodd;"
points="36133,69597
36007,69635
35891,69698
35789,69781
35705,69883
35666,69956
35643,69999
35605,70126
35605,70126
35595,70224
35595,70526
35605,70624
35643,70750
35705,70867
35789,70969
35891,71052
35933,71075
36007,71114
36041,71125
36133,71153
36265,71166
36396,71153
36522,71114
36638,71052
36740,70969
36824,70867
36850,70818
36886,70750
36898,70709
36924,70624
36934,70526
36934,70224
36924,70126
36886,69999
36824,69883
36740,69781
36638,69698
36522,69635
36396,69597
36265,69584
36133,69597
" /> 
<polyline style="fill-rule:evenodd;"
points="85102,69597
84976,69635
84859,69698
84757,69781
84674,69883
84635,69956
84612,69999
84573,70126
84573,70126
84564,70224
84564,70526
84573,70624
84612,70750
84674,70867
84757,70969
84859,71052
84902,71075
84976,71114
85010,71125
85102,71153
85233,71166
85364,71153
85490,71114
85607,71052
85709,70969
85792,70867
85818,70818
85854,70750
85867,70709
85893,70624
85902,70526
85902,70224
85893,70126
85854,69999
85792,69883
85709,69781
85607,69698
85490,69635
85364,69597
85233,69584
85102,69597
" /> 
<polyline style="fill-rule:evenodd;"
points="40729,69590
40706,69598
40684,69609
40664,69625
40649,69644
40637,69666
40630,69690
40627,69720
40627,71030
40630,71060
40637,71084
40649,71105
40664,71125
40684,71140
40706,71152
40729,71159
40759,71162
41833,71162
41863,71159
41886,71152
41908,71140
41928,71125
41943,71105
41955,71084
41962,71060
41965,71030
41965,69720
41962,69690
41955,69666
41943,69644
41928,69625
41908,69609
41886,69598
41863,69590
41833,69588
40759,69588
40729,69590
" /> 
<polyline style="fill-rule:evenodd;"
points="33729,69590
33706,69598
33684,69609
33664,69625
33649,69644
33637,69666
33630,69690
33627,69720
33627,71030
33630,71060
33637,71084
33649,71105
33664,71125
33684,71140
33706,71152
33729,71159
33759,71162
34833,71162
34863,71159
34886,71152
34908,71140
34928,71125
34943,71105
34955,71084
34962,71060
34965,71030
34965,69720
34962,69690
34955,69666
34943,69644
34928,69625
34908,69609
34886,69598
34863,69590
34833,69588
33759,69588
33729,69590
" /> 
<polyline style="fill-rule:evenodd;"
points="82698,69590
82674,69598
82652,69609
82633,69625
82617,69644
82605,69666
82598,69690
82595,69720
82595,71030
82598,71060
82605,71084
82617,71105
82633,71125
82652,71140
82674,71152
82698,71159
82727,71162
83802,71162
83831,71159
83855,71152
83877,71140
83896,71125
83912,71105
83924,71084
83931,71060
83934,71030
83934,69720
83931,69690
83924,69666
83912,69644
83896,69625
83877,69609
83855,69598
83831,69590
83802,69588
82727,69588
82698,69590
" /> 
<polyline style="fill-rule:evenodd;"
points="47729,69590
47706,69598
47684,69609
47664,69625
47649,69644
47637,69666
47630,69690
47627,69720
47627,71030
47630,71060
47637,71084
47649,71105
47664,71125
47684,71140
47706,71152
47729,71159
47759,71162
48833,71162
48863,71159
48886,71152
48908,71140
48928,71125
48943,71105
48955,71084
48962,71060
48965,71030
48965,69720
48962,69690
48955,69666
48943,69644
48928,69625
48908,69609
48886,69598
48863,69590
48833,69588
47759,69588
47729,69590
" /> 
<polyline style="fill-rule:evenodd;"
points="75698,69590
75674,69598
75652,69609
75633,69625
75617,69644
75605,69666
75598,69690
75595,69720
75595,71030
75598,71060
75605,71084
75617,71105
75633,71125
75652,71140
75674,71152
75698,71159
75727,71162
76802,71162
76831,71159
76855,71152
76877,71140
76896,71125
76912,71105
76924,71084
76931,71060
76934,71030
76934,69720
76931,69690
76924,69666
76912,69644
76896,69625
76877,69609
76855,69598
76831,69590
76802,69588
75727,69588
75698,69590
" /> 
<polyline style="fill-rule:evenodd;"
points="54698,69590
54674,69598
54652,69609
54633,69625
54617,69644
54605,69666
54598,69690
54595,69720
54595,71030
54598,71060
54605,71084
54617,71105
54633,71125
54652,71140
54674,71152
54698,71159
54727,71162
55802,71162
55831,71159
55855,71152
55877,71140
55896,71125
55912,71105
55924,71084
55931,71060
55934,71030
55934,69720
55931,69690
55924,69666
55912,69644
55896,69625
55877,69609
55855,69598
55831,69590
55802,69588
54727,69588
54698,69590
" /> 
<polyline style="fill-rule:evenodd;"
points="68698,69590
68674,69598
68652,69609
68633,69625
68617,69644
68605,69666
68598,69690
68595,69720
68595,71030
68598,71060
68605,71084
68617,71105
68633,71125
68652,71140
68674,71152
68698,71159
68727,71162
69802,71162
69831,71159
69855,71152
69877,71140
69896,71125
69912,71105
69924,71084
69931,71060
69934,71030
69934,69720
69931,69690
69924,69666
69912,69644
69896,69625
69877,69609
69855,69598
69831,69590
69802,69588
68727,69588
68698,69590
" /> 
<polyline style="fill-rule:evenodd;"
points="61698,69590
61674,69598
61652,69609
61633,69625
61617,69644
61605,69666
61598,69690
61595,69720
61595,71030
61598,71060
61605,71084
61617,71105
61633,71125
61652,71140
61674,71152
61698,71159
61727,71162
62802,71162
62831,71159
62855,71152
62877,71140
62896,71125
62912,71105
62924,71084
62931,71060
62934,71030
62934,69720
62931,69690
62924,69666
62912,69644
62896,69625
62877,69609
62855,69598
62831,69590
62802,69588
61727,69588
61698,69590
" /> 
<polyline style="fill-rule:evenodd;"
points="74896,57524
74820,57539
74605,57628
74414,57756
74412,57758
74247,57922
74247,57922
74118,58115
74029,58330
74024,58354
73983,58559
73983,58791
74029,59019
74118,59234
74247,59428
74412,59592
74412,59592
74605,59722
74820,59811
74896,59826
75048,59856
75281,59856
75433,59826
75509,59811
75724,59722
75917,59592
75917,59592
76082,59428
76211,59234
76300,59019
76346,58791
76346,58559
76305,58354
76300,58330
76211,58115
76082,57922
76082,57922
75917,57758
75915,57756
75724,57628
75509,57539
75433,57524
75281,57494
75048,57494
74896,57524
" /> 
<polyline style="fill-rule:evenodd;"
points="90117,59856
92479,59856
92479,57494
90117,57494
90117,59856
" /> 
<polyline style="fill-rule:evenodd;"
points="46372,58351
46341,58354
46282,58372
46222,58390
46113,58449
46017,58527
45938,58623
45880,58733
45844,58851
45832,58975
45844,59098
45880,59217
45938,59327
46017,59423
46113,59501
46222,59560
46282,59578
46341,59596
46372,59599
46434,59605
46495,59605
46557,59599
46588,59596
46647,59578
46707,59560
46816,59501
46912,59423
46991,59327
47049,59217
47085,59098
47097,58975
47085,58851
47049,58733
46991,58623
46912,58527
46816,58449
46707,58390
46647,58372
46588,58354
46557,58351
46495,58345
46434,58345
46372,58351
" /> 
<polyline style="fill-rule:evenodd;"
points="48372,58351
48341,58354
48282,58372
48222,58390
48113,58449
48017,58527
47938,58623
47880,58733
47844,58851
47832,58975
47844,59098
47880,59217
47938,59327
48017,59423
48113,59501
48222,59560
48282,59578
48341,59596
48372,59599
48434,59605
48495,59605
48557,59599
48588,59596
48647,59578
48707,59560
48816,59501
48912,59423
48991,59327
49049,59217
49085,59098
49097,58975
49085,58851
49049,58733
48991,58623
48912,58527
48816,58449
48707,58390
48647,58372
48588,58354
48557,58351
48495,58345
48434,58345
48372,58351
" /> 
<polyline style="fill-rule:evenodd;"
points="50372,58351
50341,58354
50282,58372
50222,58390
50113,58449
50017,58527
49938,58623
49880,58733
49844,58851
49832,58975
49844,59098
49880,59217
49938,59327
50017,59423
50113,59501
50222,59560
50282,59578
50341,59596
50372,59599
50434,59605
50495,59605
50557,59599
50588,59596
50647,59578
50707,59560
50816,59501
50912,59423
50991,59327
51049,59217
51085,59098
51097,58975
51085,58851
51049,58733
50991,58623
50912,58527
50816,58449
50707,58390
50647,58372
50588,58354
50557,58351
50495,58345
50434,58345
50372,58351
" /> 
<polyline style="fill-rule:evenodd;"
points="52372,58351
52341,58354
52282,58372
52222,58390
52113,58449
52017,58527
51938,58623
51880,58733
51844,58851
51832,58975
51844,59098
51880,59217
51938,59327
52017,59423
52113,59501
52222,59560
52282,59578
52341,59596
52372,59599
52434,59605
52495,59605
52557,59599
52588,59596
52647,59578
52707,59560
52816,59501
52912,59423
52991,59327
53049,59217
53085,59098
53097,58975
53085,58851
53049,58733
52991,58623
52912,58527
52816,58449
52707,58390
52647,58372
52588,58354
52557,58351
52495,58345
52434,58345
52372,58351
" /> 
<polyline style="fill-rule:evenodd;"
points="54372,58351
54341,58354
54282,58372
54222,58390
54113,58449
54017,58527
53938,58623
53880,58733
53844,58851
53832,58975
53844,59098
53880,59217
53938,59327
54017,59423
54113,59501
54222,59560
54282,59578
54341,59596
54372,59599
54434,59605
54495,59605
54557,59599
54588,59596
54647,59578
54707,59560
54816,59501
54912,59423
54991,59327
55049,59217
55085,59098
55097,58975
55085,58851
55049,58733
54991,58623
54912,58527
54816,58449
54707,58390
54647,58372
54588,58354
54557,58351
54495,58345
54434,58345
54372,58351
" /> 
<polyline style="fill-rule:evenodd;"
points="56372,58351
56341,58354
56282,58372
56222,58390
56113,58449
56017,58527
55938,58623
55880,58733
55844,58851
55832,58975
55844,59098
55880,59217
55938,59327
56017,59423
56113,59501
56222,59560
56282,59578
56341,59596
56372,59599
56434,59605
56495,59605
56557,59599
56588,59596
56647,59578
56707,59560
56816,59501
56912,59423
56991,59327
57049,59217
57085,59098
57097,58975
57085,58851
57049,58733
56991,58623
56912,58527
56816,58449
56707,58390
56647,58372
56588,58354
56557,58351
56495,58345
56434,58345
56372,58351
" /> 
<polyline style="fill-rule:evenodd;"
points="58372,58351
58341,58354
58282,58372
58222,58390
58113,58449
58017,58527
57938,58623
57880,58733
57844,58851
57832,58975
57844,59098
57880,59217
57938,59327
58017,59423
58113,59501
58222,59560
58282,59578
58341,59596
58372,59599
58434,59605
58495,59605
58557,59599
58588,59596
58647,59578
58707,59560
58816,59501
58912,59423
58991,59327
59049,59217
59085,59098
59097,58975
59085,58851
59049,58733
58991,58623
58912,58527
58816,58449
58707,58390
58647,58372
58588,58354
58557,58351
58495,58345
58434,58345
58372,58351
" /> 
<polyline style="fill-rule:evenodd;"
points="60372,58351
60341,58354
60282,58372
60222,58390
60113,58449
60017,58527
59938,58623
59880,58733
59844,58851
59832,58975
59844,59098
59880,59217
59938,59327
60017,59423
60113,59501
60222,59560
60282,59578
60341,59596
60372,59599
60434,59605
60495,59605
60557,59599
60588,59596
60647,59578
60707,59560
60816,59501
60912,59423
60991,59327
61049,59217
61085,59098
61097,58975
61085,58851
61049,58733
60991,58623
60912,58527
60816,58449
60707,58390
60647,58372
60588,58354
60557,58351
60495,58345
60434,58345
60372,58351
" /> 
<polyline style="fill-rule:evenodd;"
points="62372,58351
62341,58354
62282,58372
62222,58390
62113,58449
62017,58527
61938,58623
61880,58733
61844,58851
61832,58975
61844,59098
61880,59217
61938,59327
62017,59423
62113,59501
62222,59560
62282,59578
62341,59596
62372,59599
62434,59605
62495,59605
62557,59599
62588,59596
62647,59578
62707,59560
62816,59501
62912,59423
62991,59327
63049,59217
63085,59098
63097,58975
63085,58851
63049,58733
62991,58623
62912,58527
62816,58449
62707,58390
62647,58372
62588,58354
62557,58351
62495,58345
62434,58345
62372,58351
" /> 
<polyline style="fill-rule:evenodd;"
points="64372,58351
64341,58354
64282,58372
64222,58390
64113,58449
64017,58527
63938,58623
63880,58733
63844,58851
63832,58975
63844,59098
63880,59217
63938,59327
64017,59423
64113,59501
64222,59560
64282,59578
64341,59596
64372,59599
64434,59605
64495,59605
64557,59599
64588,59596
64647,59578
64707,59560
64816,59501
64912,59423
64991,59327
65049,59217
65085,59098
65097,58975
65085,58851
65049,58733
64991,58623
64912,58527
64816,58449
64707,58390
64647,58372
64588,58354
64557,58351
64495,58345
64434,58345
64372,58351
" /> 
<polyline style="fill-rule:evenodd;"
points="66372,58351
66341,58354
66282,58372
66222,58390
66113,58449
66017,58527
65938,58623
65880,58733
65844,58851
65832,58975
65844,59098
65880,59217
65938,59327
66017,59423
66113,59501
66222,59560
66282,59578
66341,59596
66372,59599
66434,59605
66495,59605
66557,59599
66588,59596
66647,59578
66707,59560
66816,59501
66912,59423
66991,59327
67049,59217
67085,59098
67097,58975
67085,58851
67049,58733
66991,58623
66912,58527
66816,58449
66707,58390
66647,58372
66588,58354
66557,58351
66495,58345
66434,58345
66372,58351
" /> 
<polyline style="fill-rule:evenodd;"
points="68372,58351
68341,58354
68282,58372
68222,58390
68113,58449
68017,58527
67938,58623
67880,58733
67844,58851
67832,58975
67844,59098
67880,59217
67938,59327
68017,59423
68113,59501
68222,59560
68282,59578
68341,59596
68372,59599
68434,59605
68495,59605
68557,59599
68588,59596
68647,59578
68707,59560
68816,59501
68912,59423
68991,59327
69049,59217
69085,59098
69097,58975
69085,58851
69049,58733
68991,58623
68912,58527
68816,58449
68707,58390
68647,58372
68588,58354
68557,58351
68495,58345
68434,58345
68372,58351
" /> 
<polyline style="fill-rule:evenodd;"
points="70372,58351
70341,58354
70282,58372
70222,58390
70113,58449
70017,58527
69938,58623
69880,58733
69844,58851
69832,58975
69844,59098
69880,59217
69938,59327
70017,59423
70113,59501
70222,59560
70282,59578
70341,59596
70372,59599
70434,59605
70495,59605
70557,59599
70588,59596
70647,59578
70707,59560
70816,59501
70912,59423
70991,59327
71049,59217
71085,59098
71097,58975
71085,58851
71049,58733
70991,58623
70912,58527
70816,58449
70707,58390
70647,58372
70588,58354
70557,58351
70495,58345
70434,58345
70372,58351
" /> 
<polyline style="fill-rule:evenodd;"
points="72372,58351
72341,58354
72282,58372
72222,58390
72113,58449
72017,58527
71938,58623
71880,58733
71844,58851
71832,58975
71844,59098
71880,59217
71938,59327
72017,59423
72113,59501
72222,59560
72282,59578
72341,59596
72372,59599
72434,59605
72495,59605
72557,59599
72588,59596
72647,59578
72707,59560
72816,59501
72912,59423
72991,59327
73049,59217
73085,59098
73097,58975
73085,58851
73049,58733
72991,58623
72912,58527
72816,58449
72707,58390
72647,58372
72588,58354
72557,58351
72495,58345
72434,58345
72372,58351
" /> 
<polyline style="fill-rule:evenodd;"
points="39440,53877
39313,53915
39197,53977
39095,54061
39012,54163
38949,54279
38911,54405
38898,54536
38911,54668
38949,54794
39012,54910
39095,55012
39197,55096
39313,55158
39440,55196
39538,55206
39801,55206
39899,55196
40025,55158
40141,55096
40243,55012
40327,54910
40389,54794
40427,54668
40440,54536
40427,54405
40389,54279
40327,54163
40243,54061
40141,53977
40025,53915
39899,53877
39801,53867
39538,53867
39440,53877
" /> 
<polyline style="fill-rule:evenodd;"
points="27150,53985
28409,53985
28409,52725
27150,52725
27150,53985
" /> 
<polyline style="fill-rule:evenodd;"
points="33687,52731
33656,52734
33597,52752
33537,52770
33428,52829
33332,52908
33253,53004
33195,53113
33159,53232
33146,53355
33159,53479
33195,53597
33253,53707
33332,53803
33428,53882
33537,53940
33597,53958
33656,53976
33667,53977
33749,53985
33810,53985
33892,53977
33903,53976
33962,53958
34022,53940
34131,53882
34227,53803
34306,53707
34364,53597
34400,53479
34412,53355
34400,53232
34364,53113
34306,53004
34227,52908
34131,52829
34022,52770
33962,52752
33903,52734
33872,52731
33810,52725
33749,52725
33687,52731
" /> 
<polyline style="fill-rule:evenodd;"
points="39440,51908
39313,51947
39197,52009
39095,52092
39012,52194
38949,52310
38911,52437
38898,52568
38911,52699
38949,52825
39012,52941
39095,53043
39197,53127
39313,53189
39440,53227
39538,53237
39801,53237
39899,53227
40025,53189
40141,53127
40243,53043
40327,52941
40389,52825
40427,52699
40440,52568
40427,52437
40389,52310
40327,52194
40243,52092
40141,52009
40025,51947
39899,51908
39801,51899
39538,51899
39440,51908
" /> 
<polyline style="fill-rule:evenodd;"
points="33696,50731
33656,50734
33597,50752
33537,50770
33428,50829
33332,50908
33253,51004
33195,51113
33195,51113
33159,51232
33146,51355
33159,51479
33161,51485
33195,51597
33253,51707
33332,51803
33428,51882
33537,51940
33597,51958
33656,51976
33687,51979
33749,51985
33810,51985
33872,51979
33903,51976
33962,51958
34022,51940
34131,51882
34227,51803
34306,51707
34364,51597
34398,51485
34400,51479
34412,51355
34400,51232
34364,51113
34364,51113
34306,51004
34227,50908
34131,50829
34022,50770
33962,50752
33903,50734
33863,50731
33810,50725
33749,50725
33696,50731
" /> 
<polyline style="fill-rule:evenodd;"
points="27696,50731
27656,50734
27597,50752
27537,50770
27428,50829
27332,50908
27253,51004
27195,51113
27195,51113
27159,51232
27146,51355
27159,51479
27161,51485
27195,51597
27253,51707
27332,51803
27428,51882
27537,51940
27597,51958
27656,51976
27687,51979
27749,51985
27810,51985
27872,51979
27903,51976
27962,51958
28022,51940
28131,51882
28227,51803
28306,51707
28364,51597
28398,51485
28400,51479
28412,51355
28400,51232
28364,51113
28364,51113
28306,51004
28227,50908
28131,50829
28022,50770
27962,50752
27903,50734
27863,50731
27810,50725
27749,50725
27696,50731
" /> 
<polyline style="fill-rule:evenodd;"
points="88613,49713
88445,49783
88295,49884
88166,50012
88065,50163
87996,50331
87961,50509
87961,50690
87996,50868
88065,51036
88166,51187
88295,51315
88445,51416
88613,51485
88791,51521
88973,51521
89151,51485
89318,51416
89469,51315
89597,51187
89698,51036
89768,50868
89803,50690
89803,50509
89768,50331
89698,50163
89597,50012
89469,49884
89318,49783
89151,49713
88973,49678
88791,49678
88613,49713
" /> 
<polyline style="fill-rule:evenodd;"
points="39440,49940
39313,49978
39197,50040
39095,50124
39012,50226
38949,50342
38911,50468
38898,50599
38911,50731
38949,50857
39012,50973
39095,51075
39197,51159
39313,51221
39440,51259
39538,51269
39801,51269
39899,51259
40025,51221
40141,51159
40243,51075
40327,50973
40389,50857
40427,50731
40440,50599
40427,50468
40389,50342
40327,50226
40243,50124
40141,50040
40025,49978
39899,49940
39801,49930
39538,49930
39440,49940
" /> 
<polyline style="fill-rule:evenodd;"
points="27687,48731
27656,48734
27597,48752
27537,48770
27428,48829
27332,48908
27253,49004
27195,49113
27159,49232
27146,49355
27159,49479
27195,49597
27253,49707
27332,49803
27428,49882
27537,49940
27597,49958
27656,49976
27676,49978
27749,49985
27810,49985
27883,49978
27903,49976
27962,49958
28022,49940
28131,49882
28227,49803
28306,49707
28364,49597
28400,49479
28412,49355
28400,49232
28364,49113
28306,49004
28227,48908
28131,48829
28022,48770
27962,48752
27903,48734
27872,48731
27810,48725
27749,48725
27687,48731
" /> 
<polyline style="fill-rule:evenodd;"
points="33687,48731
33656,48734
33597,48752
33537,48770
33428,48829
33332,48908
33253,49004
33195,49113
33159,49232
33146,49355
33159,49479
33195,49597
33253,49707
33332,49803
33428,49882
33537,49940
33597,49958
33656,49976
33676,49978
33749,49985
33810,49985
33883,49978
33903,49976
33962,49958
34022,49940
34131,49882
34227,49803
34306,49707
34364,49597
34400,49479
34412,49355
34400,49232
34364,49113
34306,49004
34227,48908
34131,48829
34022,48770
33962,48752
33903,48734
33872,48731
33810,48725
33749,48725
33687,48731
" /> 
<polyline style="fill-rule:evenodd;"
points="39440,47971
39313,48010
39197,48072
39095,48155
39012,48257
38949,48373
38911,48500
38898,48631
38911,48762
38949,48888
39012,49004
39095,49106
39197,49190
39313,49252
39440,49290
39538,49300
39801,49300
39899,49290
40025,49252
40141,49190
40243,49106
40327,49004
40389,48888
40427,48762
40440,48631
40427,48500
40389,48373
40327,48257
40243,48155
40141,48072
40025,48010
39899,47971
39801,47962
39538,47962
39440,47971
" /> 
<polyline style="fill-rule:evenodd;"
points="27687,46731
27656,46734
27597,46752
27537,46770
27428,46829
27332,46908
27253,47004
27195,47113
27187,47138
27159,47232
27146,47355
27159,47479
27177,47538
27195,47597
27253,47707
27332,47803
27428,47882
27537,47940
27597,47958
27656,47976
27687,47979
27749,47985
27810,47985
27872,47979
27903,47976
27962,47958
28022,47940
28131,47882
28227,47803
28306,47707
28364,47597
28382,47538
28400,47479
28412,47355
28400,47232
28372,47138
28364,47113
28306,47004
28227,46908
28131,46829
28022,46770
27962,46752
27903,46734
27872,46731
27810,46725
27749,46725
27687,46731
" /> 
<polyline style="fill-rule:evenodd;"
points="33687,46731
33656,46734
33597,46752
33537,46770
33428,46829
33332,46908
33253,47004
33195,47113
33187,47138
33159,47232
33146,47355
33159,47479
33177,47538
33195,47597
33253,47707
33332,47803
33428,47882
33537,47940
33597,47958
33656,47976
33687,47979
33749,47985
33810,47985
33872,47979
33903,47976
33962,47958
34022,47940
34131,47882
34227,47803
34306,47707
34364,47597
34382,47538
34400,47479
34412,47355
34400,47232
34372,47138
34364,47113
34306,47004
34227,46908
34131,46829
34022,46770
33962,46752
33903,46734
33872,46731
33810,46725
33749,46725
33687,46731
" /> 
<polyline style="fill-rule:evenodd;"
points="58372,46351
58341,46354
58282,46372
58222,46390
58113,46449
58017,46527
57938,46623
57880,46733
57874,46753
57844,46851
57832,46975
57844,47098
57848,47113
57880,47217
57938,47327
58017,47423
58113,47501
58222,47560
58282,47578
58341,47596
58359,47597
58434,47605
58495,47605
58570,47597
58588,47596
58647,47578
58707,47560
58816,47501
58912,47423
58991,47327
59049,47217
59081,47113
59085,47098
59097,46975
59085,46851
59055,46753
59049,46733
58991,46623
58912,46527
58816,46449
58707,46390
58647,46372
58588,46354
58557,46351
58495,46345
58434,46345
58372,46351
" /> 
<polyline style="fill-rule:evenodd;"
points="45835,47605
47094,47605
47094,46345
45835,46345
45835,47605
" /> 
<polyline style="fill-rule:evenodd;"
points="72372,46351
72341,46354
72282,46372
72222,46390
72113,46449
72017,46527
71938,46623
71880,46733
71874,46753
71844,46851
71832,46975
71844,47098
71848,47113
71880,47217
71938,47327
72017,47423
72113,47501
72222,47560
72282,47578
72341,47596
72359,47597
72434,47605
72495,47605
72570,47597
72588,47596
72647,47578
72707,47560
72816,47501
72912,47423
72991,47327
73049,47217
73081,47113
73085,47098
73097,46975
73085,46851
73055,46753
73049,46733
72991,46623
72912,46527
72816,46449
72707,46390
72647,46372
72588,46354
72557,46351
72495,46345
72434,46345
72372,46351
" /> 
<polyline style="fill-rule:evenodd;"
points="60372,46351
60341,46354
60282,46372
60222,46390
60113,46449
60017,46527
59938,46623
59880,46733
59874,46753
59844,46851
59832,46975
59844,47098
59848,47113
59880,47217
59938,47327
60017,47423
60113,47501
60222,47560
60282,47578
60341,47596
60359,47597
60434,47605
60495,47605
60570,47597
60588,47596
60647,47578
60707,47560
60816,47501
60912,47423
60991,47327
61049,47217
61081,47113
61085,47098
61097,46975
61085,46851
61055,46753
61049,46733
60991,46623
60912,46527
60816,46449
60707,46390
60647,46372
60588,46354
60557,46351
60495,46345
60434,46345
60372,46351
" /> 
<polyline style="fill-rule:evenodd;"
points="70372,46351
70341,46354
70282,46372
70222,46390
70113,46449
70017,46527
69938,46623
69880,46733
69874,46753
69844,46851
69832,46975
69844,47098
69848,47113
69880,47217
69938,47327
70017,47423
70113,47501
70222,47560
70282,47578
70341,47596
70359,47597
70434,47605
70495,47605
70570,47597
70588,47596
70647,47578
70707,47560
70816,47501
70912,47423
70991,47327
71049,47217
71081,47113
71085,47098
71097,46975
71085,46851
71055,46753
71049,46733
70991,46623
70912,46527
70816,46449
70707,46390
70647,46372
70588,46354
70557,46351
70495,46345
70434,46345
70372,46351
" /> 
<polyline style="fill-rule:evenodd;"
points="62372,46351
62341,46354
62282,46372
62222,46390
62113,46449
62017,46527
61938,46623
61880,46733
61874,46753
61844,46851
61832,46975
61844,47098
61848,47113
61880,47217
61938,47327
62017,47423
62113,47501
62222,47560
62282,47578
62341,47596
62359,47597
62434,47605
62495,47605
62570,47597
62588,47596
62647,47578
62707,47560
62816,47501
62912,47423
62991,47327
63049,47217
63081,47113
63085,47098
63097,46975
63085,46851
63055,46753
63049,46733
62991,46623
62912,46527
62816,46449
62707,46390
62647,46372
62588,46354
62557,46351
62495,46345
62434,46345
62372,46351
" /> 
<polyline style="fill-rule:evenodd;"
points="68372,46351
68341,46354
68282,46372
68222,46390
68113,46449
68017,46527
67938,46623
67880,46733
67874,46753
67844,46851
67832,46975
67844,47098
67848,47113
67880,47217
67938,47327
68017,47423
68113,47501
68222,47560
68282,47578
68341,47596
68359,47597
68434,47605
68495,47605
68570,47597
68588,47596
68647,47578
68707,47560
68816,47501
68912,47423
68991,47327
69049,47217
69081,47113
69085,47098
69097,46975
69085,46851
69055,46753
69049,46733
68991,46623
68912,46527
68816,46449
68707,46390
68647,46372
68588,46354
68557,46351
68495,46345
68434,46345
68372,46351
" /> 
<polyline style="fill-rule:evenodd;"
points="64372,46351
64341,46354
64282,46372
64222,46390
64113,46449
64017,46527
63938,46623
63880,46733
63874,46753
63844,46851
63832,46975
63844,47098
63848,47113
63880,47217
63938,47327
64017,47423
64113,47501
64222,47560
64282,47578
64341,47596
64359,47597
64434,47605
64495,47605
64570,47597
64588,47596
64647,47578
64707,47560
64816,47501
64912,47423
64991,47327
65049,47217
65081,47113
65085,47098
65097,46975
65085,46851
65055,46753
65049,46733
64991,46623
64912,46527
64816,46449
64707,46390
64647,46372
64588,46354
64557,46351
64495,46345
64434,46345
64372,46351
" /> 
<polyline style="fill-rule:evenodd;"
points="66372,46351
66341,46354
66282,46372
66222,46390
66113,46449
66017,46527
65938,46623
65880,46733
65874,46753
65844,46851
65832,46975
65844,47098
65848,47113
65880,47217
65938,47327
66017,47423
66113,47501
66222,47560
66282,47578
66341,47596
66359,47597
66434,47605
66495,47605
66570,47597
66588,47596
66647,47578
66707,47560
66816,47501
66912,47423
66991,47327
67049,47217
67081,47113
67085,47098
67097,46975
67085,46851
67055,46753
67049,46733
66991,46623
66912,46527
66816,46449
66707,46390
66647,46372
66588,46354
66557,46351
66495,46345
66434,46345
66372,46351
" /> 
<polyline style="fill-rule:evenodd;"
points="56372,46351
56341,46354
56282,46372
56222,46390
56113,46449
56017,46527
55938,46623
55880,46733
55874,46753
55844,46851
55832,46975
55844,47098
55848,47113
55880,47217
55938,47327
56017,47423
56113,47501
56222,47560
56282,47578
56341,47596
56359,47597
56434,47605
56495,47605
56570,47597
56588,47596
56647,47578
56707,47560
56816,47501
56912,47423
56991,47327
57049,47217
57081,47113
57085,47098
57097,46975
57085,46851
57055,46753
57049,46733
56991,46623
56912,46527
56816,46449
56707,46390
56647,46372
56588,46354
56557,46351
56495,46345
56434,46345
56372,46351
" /> 
<polyline style="fill-rule:evenodd;"
points="54372,46351
54341,46354
54282,46372
54222,46390
54113,46449
54017,46527
53938,46623
53880,46733
53874,46753
53844,46851
53832,46975
53844,47098
53848,47113
53880,47217
53938,47327
54017,47423
54113,47501
54222,47560
54282,47578
54341,47596
54359,47597
54434,47605
54495,47605
54570,47597
54588,47596
54647,47578
54707,47560
54816,47501
54912,47423
54991,47327
55049,47217
55081,47113
55085,47098
55097,46975
55085,46851
55055,46753
55049,46733
54991,46623
54912,46527
54816,46449
54707,46390
54647,46372
54588,46354
54557,46351
54495,46345
54434,46345
54372,46351
" /> 
<polyline style="fill-rule:evenodd;"
points="52372,46351
52341,46354
52282,46372
52222,46390
52113,46449
52017,46527
51938,46623
51880,46733
51874,46753
51844,46851
51832,46975
51844,47098
51848,47113
51880,47217
51938,47327
52017,47423
52113,47501
52222,47560
52282,47578
52341,47596
52359,47597
52434,47605
52495,47605
52570,47597
52588,47596
52647,47578
52707,47560
52816,47501
52912,47423
52991,47327
53049,47217
53081,47113
53085,47098
53097,46975
53085,46851
53055,46753
53049,46733
52991,46623
52912,46527
52816,46449
52707,46390
52647,46372
52588,46354
52557,46351
52495,46345
52434,46345
52372,46351
" /> 
<polyline style="fill-rule:evenodd;"
points="50372,46351
50341,46354
50282,46372
50222,46390
50113,46449
50017,46527
49938,46623
49880,46733
49874,46753
49844,46851
49832,46975
49844,47098
49848,47113
49880,47217
49938,47327
50017,47423
50113,47501
50222,47560
50282,47578
50341,47596
50359,47597
50434,47605
50495,47605
50570,47597
50588,47596
50647,47578
50707,47560
50816,47501
50912,47423
50991,47327
51049,47217
51081,47113
51085,47098
51097,46975
51085,46851
51055,46753
51049,46733
50991,46623
50912,46527
50816,46449
50707,46390
50647,46372
50588,46354
50557,46351
50495,46345
50434,46345
50372,46351
" /> 
<polyline style="fill-rule:evenodd;"
points="48372,46351
48341,46354
48282,46372
48222,46390
48113,46449
48017,46527
47938,46623
47880,46733
47874,46753
47844,46851
47832,46975
47844,47098
47848,47113
47880,47217
47938,47327
48017,47423
48113,47501
48222,47560
48282,47578
48341,47596
48359,47597
48434,47605
48495,47605
48570,47597
48588,47596
48647,47578
48707,47560
48816,47501
48912,47423
48991,47327
49049,47217
49081,47113
49085,47098
49097,46975
49085,46851
49055,46753
49049,46733
48991,46623
48912,46527
48816,46449
48707,46390
48647,46372
48588,46354
48557,46351
48495,46345
48434,46345
48372,46351
" /> 
<polyline style="fill-rule:evenodd;"
points="86645,45776
86477,45846
86326,45947
86198,46075
86097,46226
86027,46394
85992,46572
85992,46753
86027,46931
86097,47099
86198,47250
86326,47378
86477,47479
86645,47548
86823,47584
87004,47584
87182,47548
87350,47479
87501,47378
87629,47250
87730,47099
87799,46931
87835,46753
87835,46572
87799,46394
87730,46226
87629,46075
87501,45947
87350,45846
87182,45776
87004,45741
86823,45741
86645,45776
" /> 
<polyline style="fill-rule:evenodd;"
points="90582,45776
90414,45846
90263,45947
90135,46075
90034,46226
89964,46394
89929,46572
89929,46753
89964,46931
90034,47099
90135,47250
90263,47378
90414,47479
90582,47548
90760,47584
90941,47584
91119,47548
91287,47479
91438,47378
91566,47250
91667,47099
91736,46931
91772,46753
91772,46572
91736,46394
91667,46226
91566,46075
91438,45947
91287,45846
91119,45776
90941,45741
90760,45741
90582,45776
" /> 
<polyline style="fill-rule:evenodd;"
points="39440,46003
39313,46041
39197,46103
39095,46187
39012,46289
38949,46405
38911,46531
38898,46662
38911,46794
38949,46920
39012,47036
39095,47138
39197,47222
39313,47284
39440,47322
39538,47332
39801,47332
39899,47322
40025,47284
40141,47222
40243,47138
40327,47036
40389,46920
40427,46794
40440,46662
40427,46531
40389,46405
40327,46289
40243,46187
40141,46103
40025,46041
39899,46003
39801,45993
39538,45993
39440,46003
" /> 
<polyline style="fill-rule:evenodd;"
points="33687,44731
33656,44734
33597,44752
33537,44770
33428,44829
33332,44908
33253,45004
33195,45113
33195,45113
33159,45232
33147,45353
33146,45355
33159,45479
33195,45597
33253,45707
33332,45803
33428,45882
33537,45940
33597,45958
33656,45976
33687,45979
33749,45985
33810,45985
33872,45979
33903,45976
33962,45958
34022,45940
34131,45882
34227,45803
34306,45707
34364,45597
34400,45479
34412,45355
34412,45353
34400,45232
34364,45113
34364,45113
34306,45004
34227,44908
34131,44829
34022,44770
33962,44752
33903,44734
33872,44731
33810,44725
33749,44725
33687,44731
" /> 
<polyline style="fill-rule:evenodd;"
points="27687,44731
27656,44734
27597,44752
27537,44770
27428,44829
27332,44908
27253,45004
27195,45113
27195,45113
27159,45232
27147,45353
27146,45355
27159,45479
27195,45597
27253,45707
27332,45803
27428,45882
27537,45940
27597,45958
27656,45976
27687,45979
27749,45985
27810,45985
27872,45979
27903,45976
27962,45958
28022,45940
28131,45882
28227,45803
28306,45707
28364,45597
28400,45479
28412,45355
28412,45353
28400,45232
28364,45113
28364,45113
28306,45004
28227,44908
28131,44829
28022,44770
27962,44752
27903,44734
27872,44731
27810,44725
27749,44725
27687,44731
" /> 
<polyline style="fill-rule:evenodd;"
points="39440,44034
39313,44072
39197,44135
39095,44218
39012,44320
38949,44436
38911,44563
38898,44694
38911,44825
38949,44951
39012,45067
39095,45169
39197,45253
39313,45315
39440,45353
39538,45363
39801,45363
39899,45353
40025,45315
40141,45253
40243,45169
40327,45067
40389,44951
40427,44825
40440,44694
40427,44563
40389,44436
40327,44320
40243,44218
40141,44135
40025,44072
39899,44034
39801,44025
39538,44025
39440,44034
" /> 
<polyline style="fill-rule:evenodd;"
points="53349,42896
53292,42907
53248,42926
53185,42952
53088,43016
53006,43098
52941,43195
52897,43303
52874,43417
52874,43533
52897,43647
52941,43755
53006,43851
53088,43934
53185,43998
53248,44024
53292,44043
53349,44054
53406,44065
53523,44065
53580,44054
53637,44043
53681,44024
53744,43998
53841,43934
53923,43851
53988,43755
54032,43647
54055,43533
54055,43417
54032,43303
53988,43195
53923,43098
53841,43016
53744,42952
53681,42926
53637,42907
53580,42896
53523,42884
53406,42884
53349,42896
" /> 
<polyline style="fill-rule:evenodd;"
points="57192,42896
57135,42907
57090,42926
57027,42952
56931,43016
56848,43098
56784,43195
56739,43303
56716,43417
56716,43533
56739,43647
56784,43755
56848,43851
56931,43934
57027,43998
57090,44024
57135,44043
57192,44054
57249,44065
57365,44065
57422,44054
57479,44043
57524,44024
57587,43998
57683,43934
57766,43851
57830,43755
57875,43647
57898,43533
57898,43417
57875,43303
57830,43195
57766,43098
57683,43016
57587,42952
57524,42926
57479,42907
57422,42896
57365,42884
57249,42884
57192,42896
" /> 
<polyline style="fill-rule:evenodd;"
points="27687,42731
27656,42734
27597,42752
27537,42770
27428,42829
27332,42908
27253,43004
27195,43113
27195,43113
27168,43201
27159,43232
27146,43355
27159,43479
27195,43597
27253,43707
27332,43803
27428,43882
27537,43940
27597,43958
27656,43976
27687,43979
27749,43985
27810,43985
27872,43979
27903,43976
27962,43958
28022,43940
28131,43882
28227,43803
28306,43707
28364,43597
28400,43479
28412,43355
28400,43232
28391,43201
28364,43113
28364,43113
28306,43004
28227,42908
28131,42829
28022,42770
27962,42752
27903,42734
27872,42731
27810,42725
27749,42725
27687,42731
" /> 
<polyline style="fill-rule:evenodd;"
points="33687,42731
33656,42734
33597,42752
33537,42770
33428,42829
33332,42908
33253,43004
33195,43113
33195,43113
33168,43201
33159,43232
33146,43355
33159,43479
33195,43597
33253,43707
33332,43803
33428,43882
33537,43940
33597,43958
33656,43976
33687,43979
33749,43985
33810,43985
33872,43979
33903,43976
33962,43958
34022,43940
34131,43882
34227,43803
34306,43707
34364,43597
34400,43479
34412,43355
34400,43232
34391,43201
34364,43113
34364,43113
34306,43004
34227,42908
34131,42829
34022,42770
33962,42752
33903,42734
33872,42731
33810,42725
33749,42725
33687,42731
" /> 
<polyline style="fill-rule:evenodd;"
points="39440,42066
39313,42104
39197,42166
39095,42250
39012,42352
38949,42468
38911,42594
38898,42725
38911,42857
38949,42983
39012,43099
39095,43201
39197,43285
39313,43347
39440,43385
39538,43395
39801,43395
39899,43385
40025,43347
40141,43285
40243,43201
40327,43099
40389,42983
40427,42857
40440,42725
40427,42594
40389,42468
40327,42352
40243,42250
40141,42166
40025,42104
39899,42066
39801,42056
39538,42056
39440,42066
" /> 
<polyline style="fill-rule:evenodd;"
points="87226,40877
87092,40917
86969,40983
86861,41071
86772,41179
86707,41302
86666,41436
86652,41575
86666,41714
86707,41847
86772,41971
86861,42078
86969,42167
87092,42233
87226,42273
87330,42284
87399,42284
87503,42273
87637,42233
87760,42167
87868,42078
87957,41971
88022,41847
88063,41714
88077,41575
88063,41436
88022,41302
87957,41179
87868,41071
87760,40983
87637,40917
87503,40877
87399,40866
87330,40866
87226,40877
" /> 
<polyline style="fill-rule:evenodd;"
points="84656,42284
86073,42284
86073,40866
84656,40866
84656,42284
" /> 
<polyline style="fill-rule:evenodd;"
points="89226,40877
89092,40917
88969,40983
88861,41071
88772,41179
88707,41302
88666,41436
88652,41575
88666,41714
88707,41847
88772,41971
88861,42078
88969,42167
89092,42233
89226,42273
89330,42284
89399,42284
89503,42273
89637,42233
89760,42167
89868,42078
89957,41971
90022,41847
90063,41714
90077,41575
90063,41436
90022,41302
89957,41179
89868,41071
89760,40983
89637,40917
89503,40877
89399,40866
89330,40866
89226,40877
" /> 
<polyline style="fill-rule:evenodd;"
points="33687,40731
33656,40734
33597,40752
33537,40770
33428,40829
33332,40908
33253,41004
33195,41113
33159,41232
33146,41355
33159,41479
33195,41597
33253,41707
33332,41803
33428,41882
33537,41940
33597,41958
33656,41976
33687,41979
33749,41985
33810,41985
33872,41979
33903,41976
33962,41958
34022,41940
34131,41882
34227,41803
34306,41707
34364,41597
34400,41479
34412,41355
34400,41232
34364,41113
34306,41004
34227,40908
34131,40829
34022,40770
33962,40752
33903,40734
33872,40731
33810,40725
33749,40725
33687,40731
" /> 
<polyline style="fill-rule:evenodd;"
points="27687,40731
27656,40734
27597,40752
27537,40770
27428,40829
27332,40908
27253,41004
27195,41113
27159,41232
27146,41355
27159,41479
27195,41597
27253,41707
27332,41803
27428,41882
27537,41940
27597,41958
27656,41976
27687,41979
27749,41985
27810,41985
27872,41979
27903,41976
27962,41958
28022,41940
28131,41882
28227,41803
28306,41707
28364,41597
28400,41479
28412,41355
28400,41232
28364,41113
28306,41004
28227,40908
28131,40829
28022,40770
27962,40752
27903,40734
27872,40731
27810,40725
27749,40725
27687,40731
" /> 
<polyline style="fill-rule:evenodd;"
points="39440,40097
39313,40135
39197,40198
39095,40281
39012,40383
38949,40499
38911,40626
38898,40757
38911,40888
38949,41014
39012,41130
39095,41232
39197,41316
39313,41378
39440,41416
39538,41426
39801,41426
39899,41416
40025,41378
40141,41316
40243,41232
40327,41130
40389,41014
40427,40888
40440,40757
40427,40626
40389,40499
40327,40383
40243,40281
40141,40198
40025,40135
39899,40097
39801,40088
39538,40088
39440,40097
" /> 
<polyline style="fill-rule:evenodd;"
points="70172,39451
70141,39454
70082,39472
70022,39490
69913,39549
69817,39627
69738,39723
69680,39833
69644,39951
69632,40075
69644,40198
69680,40317
69738,40427
69817,40523
69913,40601
70022,40660
70082,40678
70141,40696
70172,40699
70234,40705
70295,40705
70357,40699
70388,40696
70447,40678
70507,40660
70616,40601
70712,40523
70791,40427
70849,40317
70885,40198
70897,40075
70885,39951
70849,39833
70791,39723
70712,39627
70616,39549
70507,39490
70447,39472
70388,39454
70357,39451
70295,39445
70234,39445
70172,39451
" /> 
<polyline style="fill-rule:evenodd;"
points="64172,39451
64141,39454
64082,39472
64022,39490
63913,39549
63817,39627
63738,39723
63680,39833
63644,39951
63632,40075
63644,40198
63680,40317
63738,40427
63817,40523
63913,40601
64022,40660
64082,40678
64141,40696
64172,40699
64234,40705
64295,40705
64357,40699
64388,40696
64447,40678
64507,40660
64616,40601
64712,40523
64791,40427
64849,40317
64885,40198
64897,40075
64885,39951
64849,39833
64791,39723
64712,39627
64616,39549
64507,39490
64447,39472
64388,39454
64357,39451
64295,39445
64234,39445
64172,39451
" /> 
<polyline style="fill-rule:evenodd;"
points="46172,39451
46141,39454
46082,39472
46022,39490
45913,39549
45817,39627
45738,39723
45680,39833
45644,39951
45632,40075
45644,40198
45680,40317
45738,40427
45817,40523
45913,40601
46022,40660
46082,40678
46141,40696
46172,40699
46234,40705
46295,40705
46357,40699
46388,40696
46447,40678
46507,40660
46616,40601
46712,40523
46791,40427
46849,40317
46885,40198
46897,40075
46885,39951
46849,39833
46791,39723
46712,39627
46616,39549
46507,39490
46447,39472
46388,39454
46357,39451
46295,39445
46234,39445
46172,39451
" /> 
<polyline style="fill-rule:evenodd;"
points="48172,39451
48141,39454
48082,39472
48022,39490
47913,39549
47817,39627
47738,39723
47680,39833
47644,39951
47632,40075
47644,40198
47680,40317
47738,40427
47817,40523
47913,40601
48022,40660
48082,40678
48141,40696
48172,40699
48234,40705
48295,40705
48357,40699
48388,40696
48447,40678
48507,40660
48616,40601
48712,40523
48791,40427
48849,40317
48885,40198
48897,40075
48885,39951
48849,39833
48791,39723
48712,39627
48616,39549
48507,39490
48447,39472
48388,39454
48357,39451
48295,39445
48234,39445
48172,39451
" /> 
<polyline style="fill-rule:evenodd;"
points="68172,39451
68141,39454
68082,39472
68022,39490
67913,39549
67817,39627
67738,39723
67680,39833
67644,39951
67632,40075
67644,40198
67680,40317
67738,40427
67817,40523
67913,40601
68022,40660
68082,40678
68141,40696
68172,40699
68234,40705
68295,40705
68357,40699
68388,40696
68447,40678
68507,40660
68616,40601
68712,40523
68791,40427
68849,40317
68885,40198
68897,40075
68885,39951
68849,39833
68791,39723
68712,39627
68616,39549
68507,39490
68447,39472
68388,39454
68357,39451
68295,39445
68234,39445
68172,39451
" /> 
<polyline style="fill-rule:evenodd;"
points="50172,39451
50141,39454
50082,39472
50022,39490
49913,39549
49817,39627
49738,39723
49680,39833
49644,39951
49632,40075
49644,40198
49680,40317
49738,40427
49817,40523
49913,40601
50022,40660
50082,40678
50141,40696
50172,40699
50234,40705
50295,40705
50357,40699
50388,40696
50447,40678
50507,40660
50616,40601
50712,40523
50791,40427
50849,40317
50885,40198
50897,40075
50885,39951
50849,39833
50791,39723
50712,39627
50616,39549
50507,39490
50447,39472
50388,39454
50357,39451
50295,39445
50234,39445
50172,39451
" /> 
<polyline style="fill-rule:evenodd;"
points="52172,39451
52141,39454
52082,39472
52022,39490
51913,39549
51817,39627
51738,39723
51680,39833
51644,39951
51632,40075
51644,40198
51680,40317
51738,40427
51817,40523
51913,40601
52022,40660
52082,40678
52141,40696
52172,40699
52234,40705
52295,40705
52357,40699
52388,40696
52447,40678
52507,40660
52616,40601
52712,40523
52791,40427
52849,40317
52885,40198
52897,40075
52885,39951
52849,39833
52791,39723
52712,39627
52616,39549
52507,39490
52447,39472
52388,39454
52357,39451
52295,39445
52234,39445
52172,39451
" /> 
<polyline style="fill-rule:evenodd;"
points="62172,39451
62141,39454
62082,39472
62022,39490
61913,39549
61817,39627
61738,39723
61680,39833
61644,39951
61632,40075
61644,40198
61680,40317
61738,40427
61817,40523
61913,40601
62022,40660
62082,40678
62141,40696
62172,40699
62234,40705
62295,40705
62357,40699
62388,40696
62447,40678
62507,40660
62616,40601
62712,40523
62791,40427
62849,40317
62885,40198
62897,40075
62885,39951
62849,39833
62791,39723
62712,39627
62616,39549
62507,39490
62447,39472
62388,39454
62357,39451
62295,39445
62234,39445
62172,39451
" /> 
<polyline style="fill-rule:evenodd;"
points="54172,39451
54141,39454
54082,39472
54022,39490
53913,39549
53817,39627
53738,39723
53680,39833
53644,39951
53632,40075
53644,40198
53680,40317
53738,40427
53817,40523
53913,40601
54022,40660
54082,40678
54141,40696
54172,40699
54234,40705
54295,40705
54357,40699
54388,40696
54447,40678
54507,40660
54616,40601
54712,40523
54791,40427
54849,40317
54885,40198
54897,40075
54885,39951
54849,39833
54791,39723
54712,39627
54616,39549
54507,39490
54447,39472
54388,39454
54357,39451
54295,39445
54234,39445
54172,39451
" /> 
<polyline style="fill-rule:evenodd;"
points="56172,39451
56141,39454
56082,39472
56022,39490
55913,39549
55817,39627
55738,39723
55680,39833
55644,39951
55632,40075
55644,40198
55680,40317
55738,40427
55817,40523
55913,40601
56022,40660
56082,40678
56141,40696
56172,40699
56234,40705
56295,40705
56357,40699
56388,40696
56447,40678
56507,40660
56616,40601
56712,40523
56791,40427
56849,40317
56885,40198
56897,40075
56885,39951
56849,39833
56791,39723
56712,39627
56616,39549
56507,39490
56447,39472
56388,39454
56357,39451
56295,39445
56234,39445
56172,39451
" /> 
<polyline style="fill-rule:evenodd;"
points="58172,39451
58141,39454
58082,39472
58022,39490
57913,39549
57817,39627
57738,39723
57680,39833
57644,39951
57632,40075
57644,40198
57680,40317
57738,40427
57817,40523
57913,40601
58022,40660
58082,40678
58141,40696
58172,40699
58234,40705
58295,40705
58357,40699
58388,40696
58447,40678
58507,40660
58616,40601
58712,40523
58791,40427
58849,40317
58885,40198
58897,40075
58885,39951
58849,39833
58791,39723
58712,39627
58616,39549
58507,39490
58447,39472
58388,39454
58357,39451
58295,39445
58234,39445
58172,39451
" /> 
<polyline style="fill-rule:evenodd;"
points="60172,39451
60141,39454
60082,39472
60022,39490
59913,39549
59817,39627
59738,39723
59680,39833
59644,39951
59632,40075
59644,40198
59680,40317
59738,40427
59817,40523
59913,40601
60022,40660
60082,40678
60141,40696
60172,40699
60234,40705
60295,40705
60357,40699
60388,40696
60447,40678
60507,40660
60616,40601
60712,40523
60791,40427
60849,40317
60885,40198
60897,40075
60885,39951
60849,39833
60791,39723
60712,39627
60616,39549
60507,39490
60447,39472
60388,39454
60357,39451
60295,39445
60234,39445
60172,39451
" /> 
<polyline style="fill-rule:evenodd;"
points="66172,39451
66141,39454
66082,39472
66022,39490
65913,39549
65817,39627
65738,39723
65680,39833
65644,39951
65632,40075
65644,40198
65680,40317
65738,40427
65817,40523
65913,40601
66022,40660
66082,40678
66141,40696
66172,40699
66234,40705
66295,40705
66357,40699
66388,40696
66447,40678
66507,40660
66616,40601
66712,40523
66791,40427
66849,40317
66885,40198
66897,40075
66885,39951
66849,39833
66791,39723
66712,39627
66616,39549
66507,39490
66447,39472
66388,39454
66357,39451
66295,39445
66234,39445
66172,39451
" /> 
<polyline style="fill-rule:evenodd;"
points="71635,40705
72894,40705
72894,39445
71635,39445
71635,40705
" /> 
<polyline style="fill-rule:evenodd;"
points="39440,38129
39313,38167
39197,38229
39095,38313
39012,38415
38949,38531
38911,38657
38898,38788
38911,38920
38949,39046
39012,39162
39095,39264
39197,39348
39313,39410
39440,39448
39538,39458
39801,39458
39899,39448
40025,39410
40141,39348
40243,39264
40327,39162
40389,39046
40427,38920
40440,38788
40427,38657
40389,38531
40327,38415
40243,38313
40141,38229
40025,38167
39899,38129
39801,38119
39538,38119
39440,38129
" /> 
<polyline style="fill-rule:evenodd;"
points="82450,37296
82378,37326
82332,37357
82314,37369
82259,37424
82259,37424
82217,37486
82216,37488
82186,37560
82171,37636
82171,37714
82186,37790
82216,37861
82259,37926
82314,37981
82314,37981
82378,38024
82450,38054
82526,38069
82603,38069
82679,38054
82751,38024
82815,37981
82815,37981
82870,37926
82913,37861
82943,37790
82958,37714
82958,37636
82943,37560
82913,37488
82912,37486
82870,37424
82870,37424
82815,37369
82797,37357
82751,37326
82679,37296
82603,37281
82526,37281
82450,37296
" /> 
<polyline style="fill-rule:evenodd;"
points="39004,36153
38980,36161
38958,36172
38939,36188
38923,36207
38912,36229
38904,36253
38902,36283
38902,37357
38904,37386
38912,37410
38923,37432
38939,37451
38958,37467
38980,37479
39004,37486
39034,37489
40305,37489
40334,37486
40358,37479
40380,37467
40399,37451
40415,37432
40427,37410
40434,37386
40437,37357
40437,36283
40434,36253
40427,36229
40415,36207
40399,36188
40380,36172
40358,36161
40334,36153
40305,36151
39034,36151
39004,36153
" /> 
<polyline style="fill-rule:evenodd;"
points="82450,35800
82378,35830
82314,35872
82314,35873
82259,35928
82216,35992
82186,36064
82171,36140
82171,36218
82186,36294
82216,36365
82259,36430
82314,36485
82314,36485
82378,36528
82450,36557
82526,36573
82603,36573
82679,36557
82751,36528
82815,36485
82815,36485
82870,36430
82913,36365
82943,36294
82958,36218
82958,36140
82943,36064
82913,35992
82870,35928
82815,35873
82815,35872
82751,35830
82679,35800
82603,35785
82526,35785
82450,35800
" /> 
<polyline style="fill-rule:evenodd;"
points="52172,33451
52141,33454
52082,33472
52022,33490
51913,33549
51817,33627
51738,33723
51680,33833
51644,33951
51632,34075
51644,34198
51680,34317
51738,34427
51817,34523
51913,34601
52022,34660
52082,34678
52141,34696
52172,34699
52234,34705
52295,34705
52357,34699
52388,34696
52447,34678
52507,34660
52616,34601
52712,34523
52791,34427
52849,34317
52885,34198
52897,34075
52885,33951
52849,33833
52791,33723
52712,33627
52616,33549
52507,33490
52447,33472
52388,33454
52357,33451
52295,33445
52234,33445
52172,33451
" /> 
<polyline style="fill-rule:evenodd;"
points="60172,33451
60141,33454
60082,33472
60022,33490
59913,33549
59817,33627
59738,33723
59680,33833
59644,33951
59632,34075
59644,34198
59680,34317
59738,34427
59817,34523
59913,34601
60022,34660
60082,34678
60141,34696
60172,34699
60234,34705
60295,34705
60357,34699
60388,34696
60447,34678
60507,34660
60616,34601
60712,34523
60791,34427
60849,34317
60885,34198
60897,34075
60885,33951
60849,33833
60791,33723
60712,33627
60616,33549
60507,33490
60447,33472
60388,33454
60357,33451
60295,33445
60234,33445
60172,33451
" /> 
<polyline style="fill-rule:evenodd;"
points="62172,33451
62141,33454
62082,33472
62022,33490
61913,33549
61817,33627
61738,33723
61680,33833
61644,33951
61632,34075
61644,34198
61680,34317
61738,34427
61817,34523
61913,34601
62022,34660
62082,34678
62141,34696
62172,34699
62234,34705
62295,34705
62357,34699
62388,34696
62447,34678
62507,34660
62616,34601
62712,34523
62791,34427
62849,34317
62885,34198
62897,34075
62885,33951
62849,33833
62791,33723
62712,33627
62616,33549
62507,33490
62447,33472
62388,33454
62357,33451
62295,33445
62234,33445
62172,33451
" /> 
<polyline style="fill-rule:evenodd;"
points="64172,33451
64141,33454
64082,33472
64022,33490
63913,33549
63817,33627
63738,33723
63680,33833
63644,33951
63632,34075
63644,34198
63680,34317
63738,34427
63817,34523
63913,34601
64022,34660
64082,34678
64141,34696
64172,34699
64234,34705
64295,34705
64357,34699
64388,34696
64447,34678
64507,34660
64616,34601
64712,34523
64791,34427
64849,34317
64885,34198
64897,34075
64885,33951
64849,33833
64791,33723
64712,33627
64616,33549
64507,33490
64447,33472
64388,33454
64357,33451
64295,33445
64234,33445
64172,33451
" /> 
<polyline style="fill-rule:evenodd;"
points="72172,33451
72141,33454
72082,33472
72022,33490
71913,33549
71817,33627
71738,33723
71680,33833
71644,33951
71632,34075
71644,34198
71680,34317
71738,34427
71817,34523
71913,34601
72022,34660
72082,34678
72141,34696
72172,34699
72234,34705
72295,34705
72357,34699
72388,34696
72447,34678
72507,34660
72616,34601
72712,34523
72791,34427
72849,34317
72885,34198
72897,34075
72885,33951
72849,33833
72791,33723
72712,33627
72616,33549
72507,33490
72447,33472
72388,33454
72357,33451
72295,33445
72234,33445
72172,33451
" /> 
<polyline style="fill-rule:evenodd;"
points="58172,33451
58141,33454
58082,33472
58022,33490
57913,33549
57817,33627
57738,33723
57680,33833
57644,33951
57632,34075
57644,34198
57680,34317
57738,34427
57817,34523
57913,34601
58022,34660
58082,34678
58141,34696
58172,34699
58234,34705
58295,34705
58357,34699
58388,34696
58447,34678
58507,34660
58616,34601
58712,34523
58791,34427
58849,34317
58885,34198
58897,34075
58885,33951
58849,33833
58791,33723
58712,33627
58616,33549
58507,33490
58447,33472
58388,33454
58357,33451
58295,33445
58234,33445
58172,33451
" /> 
<polyline style="fill-rule:evenodd;"
points="70172,33451
70141,33454
70082,33472
70022,33490
69913,33549
69817,33627
69738,33723
69680,33833
69644,33951
69632,34075
69644,34198
69680,34317
69738,34427
69817,34523
69913,34601
70022,34660
70082,34678
70141,34696
70172,34699
70234,34705
70295,34705
70357,34699
70388,34696
70447,34678
70507,34660
70616,34601
70712,34523
70791,34427
70849,34317
70885,34198
70897,34075
70885,33951
70849,33833
70791,33723
70712,33627
70616,33549
70507,33490
70447,33472
70388,33454
70357,33451
70295,33445
70234,33445
70172,33451
" /> 
<polyline style="fill-rule:evenodd;"
points="56172,33451
56141,33454
56082,33472
56022,33490
55913,33549
55817,33627
55738,33723
55680,33833
55644,33951
55632,34075
55644,34198
55680,34317
55738,34427
55817,34523
55913,34601
56022,34660
56082,34678
56141,34696
56172,34699
56234,34705
56295,34705
56357,34699
56388,34696
56447,34678
56507,34660
56616,34601
56712,34523
56791,34427
56849,34317
56885,34198
56897,34075
56885,33951
56849,33833
56791,33723
56712,33627
56616,33549
56507,33490
56447,33472
56388,33454
56357,33451
56295,33445
56234,33445
56172,33451
" /> 
<polyline style="fill-rule:evenodd;"
points="68172,33451
68141,33454
68082,33472
68022,33490
67913,33549
67817,33627
67738,33723
67680,33833
67644,33951
67632,34075
67644,34198
67680,34317
67738,34427
67817,34523
67913,34601
68022,34660
68082,34678
68141,34696
68172,34699
68234,34705
68295,34705
68357,34699
68388,34696
68447,34678
68507,34660
68616,34601
68712,34523
68791,34427
68849,34317
68885,34198
68897,34075
68885,33951
68849,33833
68791,33723
68712,33627
68616,33549
68507,33490
68447,33472
68388,33454
68357,33451
68295,33445
68234,33445
68172,33451
" /> 
<polyline style="fill-rule:evenodd;"
points="54172,33451
54141,33454
54082,33472
54022,33490
53913,33549
53817,33627
53738,33723
53680,33833
53644,33951
53632,34075
53644,34198
53680,34317
53738,34427
53817,34523
53913,34601
54022,34660
54082,34678
54141,34696
54172,34699
54234,34705
54295,34705
54357,34699
54388,34696
54447,34678
54507,34660
54616,34601
54712,34523
54791,34427
54849,34317
54885,34198
54897,34075
54885,33951
54849,33833
54791,33723
54712,33627
54616,33549
54507,33490
54447,33472
54388,33454
54357,33451
54295,33445
54234,33445
54172,33451
" /> 
<polyline style="fill-rule:evenodd;"
points="66172,33451
66141,33454
66082,33472
66022,33490
65913,33549
65817,33627
65738,33723
65680,33833
65644,33951
65632,34075
65644,34198
65680,34317
65738,34427
65817,34523
65913,34601
66022,34660
66082,34678
66141,34696
66172,34699
66234,34705
66295,34705
66357,34699
66388,34696
66447,34678
66507,34660
66616,34601
66712,34523
66791,34427
66849,34317
66885,34198
66897,34075
66885,33951
66849,33833
66791,33723
66712,33627
66616,33549
66507,33490
66447,33472
66388,33454
66357,33451
66295,33445
66234,33445
66172,33451
" /> 
<polyline style="fill-rule:evenodd;"
points="46172,33451
46141,33454
46082,33472
46022,33490
45913,33549
45817,33627
45738,33723
45680,33833
45644,33951
45632,34075
45644,34198
45680,34317
45738,34427
45817,34523
45913,34601
46022,34660
46082,34678
46141,34696
46172,34699
46234,34705
46295,34705
46357,34699
46388,34696
46447,34678
46507,34660
46616,34601
46712,34523
46791,34427
46849,34317
46885,34198
46897,34075
46885,33951
46849,33833
46791,33723
46712,33627
46616,33549
46507,33490
46447,33472
46388,33454
46357,33451
46295,33445
46234,33445
46172,33451
" /> 
<polyline style="fill-rule:evenodd;"
points="48172,33451
48141,33454
48082,33472
48022,33490
47913,33549
47817,33627
47738,33723
47680,33833
47644,33951
47632,34075
47644,34198
47680,34317
47738,34427
47817,34523
47913,34601
48022,34660
48082,34678
48141,34696
48172,34699
48234,34705
48295,34705
48357,34699
48388,34696
48447,34678
48507,34660
48616,34601
48712,34523
48791,34427
48849,34317
48885,34198
48897,34075
48885,33951
48849,33833
48791,33723
48712,33627
48616,33549
48507,33490
48447,33472
48388,33454
48357,33451
48295,33445
48234,33445
48172,33451
" /> 
<polyline style="fill-rule:evenodd;"
points="50172,33451
50141,33454
50082,33472
50022,33490
49913,33549
49817,33627
49738,33723
49680,33833
49644,33951
49632,34075
49644,34198
49680,34317
49738,34427
49817,34523
49913,34601
50022,34660
50082,34678
50141,34696
50172,34699
50234,34705
50295,34705
50357,34699
50388,34696
50447,34678
50507,34660
50616,34601
50712,34523
50791,34427
50849,34317
50885,34198
50897,34075
50885,33951
50849,33833
50791,33723
50712,33627
50616,33549
50507,33490
50447,33472
50388,33454
50357,33451
50295,33445
50234,33445
50172,33451
" /> 
<polyline style="fill-rule:evenodd;"
points="61644,30700
61553,30718
61410,30777
61281,30863
61171,30973
61085,31102
61025,31245
60995,31397
60995,31552
61025,31705
61085,31848
61171,31977
61281,32087
61410,32173
61553,32232
61644,32250
61705,32262
61860,32262
61921,32250
62012,32232
62156,32173
62285,32087
62394,31977
62480,31848
62540,31705
62570,31552
62570,31397
62540,31245
62480,31102
62394,30973
62285,30863
62156,30777
62012,30718
61921,30700
61860,30688
61705,30688
61644,30700
" /> 
<polyline style="fill-rule:evenodd;"
points="56526,30700
56435,30718
56292,30777
56163,30863
56053,30973
55967,31102
55907,31245
55877,31397
55877,31552
55907,31705
55967,31848
56053,31977
56163,32087
56292,32173
56435,32232
56526,32250
56587,32262
56742,32262
56803,32250
56894,32232
57037,32173
57166,32087
57276,31977
57362,31848
57422,31705
57452,31552
57452,31397
57422,31245
57362,31102
57276,30973
57166,30863
57037,30777
56894,30718
56803,30700
56742,30688
56587,30688
56526,30700
" /> 
<polyline style="fill-rule:evenodd;"
points="64895,30221
64731,30271
64731,30271
64581,30351
64449,30460
64341,30591
64273,30718
64260,30742
64211,30905
64194,31075
64211,31245
64257,31397
64260,31408
64341,31558
64449,31690
64581,31799
64731,31879
64731,31879
64895,31929
65022,31941
65107,31941
65234,31929
65398,31879
65398,31879
65548,31799
65680,31690
65788,31558
65869,31408
65872,31397
65918,31245
65935,31075
65918,30905
65869,30742
65856,30718
65788,30591
65680,30460
65548,30351
65398,30271
65398,30271
65234,30221
65107,30209
65022,30209
64895,30221
" /> 
<polyline style="fill-rule:evenodd;"
points="72198,31941
73931,31941
73931,30209
72198,30209
72198,31941
" /> 
<polyline style="fill-rule:evenodd;"
points="61644,27156
61553,27174
61410,27234
61281,27320
61171,27430
61085,27559
61025,27702
60995,27854
60995,28009
61025,28161
61085,28305
61171,28434
61281,28543
61410,28629
61553,28689
61644,28707
61705,28719
61860,28719
61921,28707
62012,28689
62156,28629
62285,28543
62394,28434
62480,28305
62540,28161
62570,28009
62570,27854
62540,27702
62480,27559
62394,27430
62285,27320
62156,27234
62012,27174
61921,27156
61860,27144
61705,27144
61644,27156
" /> 
<polyline style="fill-rule:evenodd;"
points="56526,27156
56435,27174
56292,27234
56163,27320
56053,27430
55967,27559
55907,27702
55877,27854
55877,28009
55907,28161
55967,28305
56053,28434
56163,28543
56292,28629
56435,28689
56526,28707
56587,28719
56742,28719
56803,28707
56894,28689
57037,28629
57166,28543
57276,28434
57362,28305
57422,28161
57452,28009
57452,27854
57422,27702
57362,27559
57276,27430
57166,27320
57037,27234
56894,27174
56803,27156
56742,27144
56587,27144
56526,27156
" /> 
<polyline style="fill-rule:evenodd;"
points="27425,28277
28764,28277
28764,26938
27425,26938
27425,28277
" /> 
<polyline style="fill-rule:evenodd;"
points="29963,26948
29837,26986
29721,27048
29619,27132
29535,27234
29473,27350
29435,27476
29422,27607
29435,27738
29473,27865
29535,27981
29619,28083
29721,28166
29837,28229
29963,28267
30062,28277
30127,28277
30226,28267
30352,28229
30468,28166
30570,28083
30654,27981
30716,27865
30754,27738
30767,27607
30754,27476
30716,27350
30654,27234
30570,27132
30468,27048
30352,26986
30226,26948
30127,26938
30062,26938
29963,26948
" /> 
<polyline style="fill-rule:evenodd;"
points="89595,26061
89469,26099
89352,26161
89251,26245
89167,26347
89105,26463
89066,26589
89054,26720
89066,26852
89105,26978
89167,27094
89251,27196
89352,27280
89469,27342
89595,27380
89693,27390
89956,27390
90054,27380
90180,27342
90297,27280
90398,27196
90482,27094
90544,26978
90583,26852
90595,26720
90583,26589
90544,26463
90482,26347
90398,26245
90297,26161
90180,26099
90054,26061
89956,26051
89693,26051
89595,26061
" /> 
<polyline style="fill-rule:evenodd;"
points="29963,24948
29837,24986
29721,25048
29619,25132
29535,25234
29473,25350
29435,25476
29422,25607
29435,25738
29473,25865
29535,25981
29619,26083
29721,26166
29837,26229
29963,26267
30062,26277
30127,26277
30226,26267
30352,26229
30468,26166
30570,26083
30654,25981
30716,25865
30754,25738
30767,25607
30754,25476
30716,25350
30654,25234
30570,25132
30468,25048
30352,24986
30226,24948
30127,24938
30062,24938
29963,24948
" /> 
<polyline style="fill-rule:evenodd;"
points="27963,24948
27837,24986
27721,25048
27619,25132
27535,25234
27473,25350
27435,25476
27422,25607
27435,25738
27473,25865
27535,25981
27619,26083
27721,26166
27837,26229
27963,26267
28062,26277
28127,26277
28226,26267
28352,26229
28468,26166
28570,26083
28654,25981
28716,25865
28754,25738
28767,25607
28754,25476
28716,25350
28654,25234
28570,25132
28468,25048
28352,24986
28226,24948
28127,24938
28062,24938
27963,24948
" /> 
<polyline style="fill-rule:evenodd;"
points="89595,24092
89469,24131
89352,24193
89251,24276
89167,24378
89105,24495
89066,24621
89054,24752
89066,24883
89105,25009
89167,25126
89251,25227
89352,25311
89469,25373
89595,25412
89693,25421
89956,25421
90054,25412
90180,25373
90297,25311
90398,25227
90482,25126
90544,25009
90583,24883
90595,24752
90583,24621
90544,24495
90482,24378
90398,24276
90297,24193
90180,24131
90054,24092
89956,24083
89693,24083
89595,24092
" /> 
<polyline style="fill-rule:evenodd;"
points="66087,25177
68842,25177
68842,22421
66087,22421
66087,25177
" /> 
<polyline style="fill-rule:evenodd;"
points="75015,23715
74889,23754
74773,23816
74671,23899
74587,24001
74525,24118
74487,24244
74474,24375
74487,24506
74525,24632
74587,24749
74671,24850
74773,24934
74889,24996
75015,25035
75114,25044
75415,25044
75514,25035
75640,24996
75756,24934
75858,24850
75942,24749
76004,24632
76042,24506
76055,24375
76042,24244
76004,24118
75942,24001
75858,23899
75756,23816
75640,23754
75514,23715
75415,23706
75114,23706
75015,23715
" /> 
<polyline style="fill-rule:evenodd;"
points="82377,24925
83952,24925
83952,23425
82377,23425
82377,24925
" /> 
<polyline style="fill-rule:evenodd;"
points="27963,22948
27837,22986
27721,23048
27619,23132
27535,23234
27473,23350
27435,23476
27422,23607
27435,23738
27473,23865
27535,23981
27619,24083
27721,24166
27837,24229
27963,24267
28062,24277
28127,24277
28226,24267
28352,24229
28468,24166
28570,24083
28654,23981
28716,23865
28754,23738
28767,23607
28754,23476
28716,23350
28654,23234
28570,23132
28468,23048
28352,22986
28226,22948
28127,22938
28062,22938
27963,22948
" /> 
<polyline style="fill-rule:evenodd;"
points="29963,22948
29837,22986
29721,23048
29619,23132
29535,23234
29473,23350
29435,23476
29422,23607
29435,23738
29473,23865
29535,23981
29619,24083
29721,24166
29837,24229
29963,24267
30062,24277
30127,24277
30226,24267
30352,24229
30468,24166
30570,24083
30654,23981
30716,23865
30754,23738
30767,23607
30754,23476
30716,23350
30654,23234
30570,23132
30468,23048
30352,22986
30226,22948
30127,22938
30062,22938
29963,22948
" /> 
<polyline style="fill-rule:evenodd;"
points="89595,22124
89469,22162
89352,22224
89251,22308
89167,22410
89105,22526
89066,22652
89054,22783
89066,22915
89105,23041
89167,23157
89251,23259
89352,23343
89469,23405
89595,23443
89693,23453
89956,23453
90054,23443
90180,23405
90297,23343
90398,23259
90482,23157
90544,23041
90583,22915
90595,22783
90583,22652
90544,22526
90482,22410
90398,22308
90297,22224
90180,22162
90054,22124
89956,22114
89693,22114
89595,22124
" /> 
<polyline style="fill-rule:evenodd;"
points="74580,21740
74556,21747
74534,21759
74515,21775
74499,21794
74487,21816
74480,21840
74477,21869
74477,22944
74480,22973
74487,22997
74499,23019
74515,23038
74534,23054
74556,23066
74580,23073
74609,23076
75920,23076
75949,23073
75973,23066
75995,23054
76014,23038
76030,23019
76042,22997
76049,22973
76052,22944
76052,21869
76049,21840
76042,21816
76030,21794
76014,21775
75995,21759
75973,21747
75949,21740
75920,21737
74609,21737
74580,21740
" /> 
<polyline style="fill-rule:evenodd;"
points="82980,21436
82839,21479
82708,21548
82594,21642
82500,21756
82431,21887
82388,22028
82373,22175
82388,22322
82431,22463
82500,22594
82594,22708
82708,22802
82839,22871
82980,22914
83090,22925
83239,22925
83349,22914
83490,22871
83621,22802
83735,22708
83829,22594
83898,22463
83941,22322
83956,22175
83941,22028
83898,21887
83829,21756
83735,21642
83621,21548
83490,21479
83349,21436
83239,21425
83090,21425
82980,21436
" /> 
<polyline style="fill-rule:evenodd;"
points="70302,20072
70182,20108
70072,20167
69975,20247
69896,20344
69836,20454
69800,20574
69787,20704
69787,22170
69800,22300
69836,22420
69896,22530
69975,22627
70072,22707
70182,22766
70302,22802
70432,22815
71899,22815
72028,22802
72148,22766
72259,22707
72356,22627
72435,22530
72494,22420
72530,22300
72543,22170
72543,20704
72530,20574
72494,20454
72435,20344
72356,20247
72259,20167
72148,20108
72028,20072
71899,20059
70432,20059
70302,20072
" /> 
<polyline style="fill-rule:evenodd;"
points="89159,20149
89136,20156
89114,20168
89094,20183
89079,20203
89067,20224
89060,20248
89057,20278
89057,21352
89060,21382
89067,21405
89079,21427
89094,21447
89114,21462
89136,21474
89159,21481
89189,21484
90460,21484
90490,21481
90513,21474
90535,21462
90555,21447
90570,21427
90582,21405
90589,21382
90592,21352
90592,20278
90589,20248
90582,20224
90570,20203
90555,20183
90535,20168
90513,20156
90490,20149
90460,20146
89189,20146
89159,20149
" /> 
<polyline style="fill-rule:evenodd;"
points="82980,19436
82839,19479
82708,19548
82594,19642
82500,19756
82431,19887
82388,20028
82373,20175
82388,20322
82431,20463
82500,20594
82594,20708
82708,20802
82839,20871
82980,20914
83090,20925
83239,20925
83349,20914
83490,20871
83621,20802
83735,20708
83829,20594
83898,20463
83941,20322
83956,20175
83941,20028
83898,19887
83829,19756
83735,19642
83621,19548
83490,19479
83349,19436
83239,19425
83090,19425
82980,19436
" /> 
<polyline style="fill-rule:evenodd;"
points="66522,17905
66421,17935
66327,17985
66245,18053
66178,18135
66128,18228
66097,18330
66087,18440
66087,19710
66097,19820
66128,19922
66178,20015
66245,20097
66327,20164
66421,20214
66522,20245
66633,20256
68296,20256
68407,20245
68508,20214
68602,20164
68684,20097
68751,20015
68801,19922
68832,19820
68842,19710
68842,18440
68832,18330
68801,18228
68751,18135
68684,18053
68602,17985
68508,17935
68407,17905
68296,17894
66633,17894
66522,17905
" /> 
<polyline style="fill-rule:evenodd;"
points="42908,17543
42817,17561
42673,17620
42544,17707
42435,17816
42349,17945
42289,18089
42280,18135
42259,18241
42259,18396
42271,18457
42289,18548
42349,18691
42435,18820
42544,18930
42673,19016
42817,19075
42908,19094
42969,19106
43124,19106
43185,19094
43276,19075
43419,19016
43548,18930
43658,18820
43744,18691
43804,18548
43822,18457
43834,18396
43834,18241
43813,18135
43804,18089
43744,17945
43658,17816
43548,17707
43419,17620
43276,17561
43185,17543
43124,17531
42969,17531
42908,17543
" /> 
<polyline style="fill-rule:evenodd;"
points="48026,17543
47935,17561
47792,17620
47663,17707
47553,17816
47467,17945
47407,18089
47398,18135
47377,18241
47377,18396
47389,18457
47407,18548
47467,18691
47553,18820
47663,18930
47792,19016
47935,19075
48026,19094
48087,19106
48242,19106
48303,19094
48394,19075
48537,19016
48666,18930
48776,18820
48862,18691
48922,18548
48940,18457
48952,18396
48952,18241
48931,18135
48922,18089
48862,17945
48776,17816
48666,17707
48537,17620
48394,17561
48303,17543
48242,17531
48087,17531
48026,17543
" /> 
<polyline style="fill-rule:evenodd;"
points="48026,14000
47935,14018
47792,14077
47663,14163
47553,14273
47467,14402
47407,14545
47377,14697
47377,14852
47407,15005
47467,15148
47553,15277
47663,15387
47792,15473
47935,15532
48026,15550
48087,15562
48242,15562
48303,15550
48394,15532
48537,15473
48666,15387
48776,15277
48862,15148
48922,15005
48952,14852
48952,14697
48922,14545
48862,14402
48776,14273
48666,14163
48537,14077
48394,14018
48303,14000
48242,13988
48087,13988
48026,14000
" /> 
<polyline style="fill-rule:evenodd;"
points="42908,14000
42817,14018
42673,14077
42544,14163
42435,14273
42349,14402
42289,14545
42259,14697
42259,14852
42289,15005
42349,15148
42435,15277
42544,15387
42673,15473
42817,15532
42908,15550
42969,15562
43124,15562
43185,15550
43276,15532
43419,15473
43548,15387
43658,15277
43744,15148
43804,15005
43834,14852
43834,14697
43804,14545
43744,14402
43658,14273
43548,14163
43419,14077
43276,14018
43185,14000
43124,13988
42969,13988
42908,14000
" /> 
</g> 
</svg>
