<?xml version="1.0" standalone="no"?>
 <!DOCTYPE svg PUBLIC "-//W3C//DTD SVG 1.1//EN" 
 "http://www.w3.org/Graphics/SVG/1.1/DTD/svg11.dtd"> 
<svg xmlns="http://www.w3.org/2000/svg" version="1.1" 
    width="29.7002cm" height="21.0007cm" viewBox="0 0 116930 82680 ">
<title>SVG Picture created as ThermocoupleLogger-F_Paste.svg date 2019/03/27 21:39:41 </title>
  <desc>Picture generated by PCBNEW </desc>
<g style="fill:#000000; fill-opacity:1;stroke:#000000; stroke-opacity:1;
stroke-linecap:round; stroke-linejoin:round; "
 transform="translate(0 0) scale(1 1)">
</g>
<g style="fill:#000000; fill-opacity:0.0; 
stroke:#000000; stroke-width:-0.000787402; stroke-opacity:1; 
stroke-linecap:round; stroke-linejoin:round;">
</g>
<g style="fill:#000000; fill-opacity:0.0; 
stroke:#000000; stroke-width:78.7402; stroke-opacity:1; 
stroke-linecap:round; stroke-linejoin:round;">
<path d="M93734 12646
L93734 73146
" />
<path d="M23734 68764
L23734 68764
" />
<path d="M23734 12646
L93734 12646
" />
<path d="M23734 73146
L93734 73146
" />
<path d="M23734 12646
L23734 73146
" />
<path d="M23734 13646
L23734 13646
" />
<g >
</g>
<g style="fill:#000000; fill-opacity:0.0; 
stroke:#000000; stroke-width:0; stroke-opacity:1; 
stroke-linecap:round; stroke-linejoin:round;">
</g>
<g style="fill:#000000; fill-opacity:1.0; 
stroke:#000000; stroke-width:0; stroke-opacity:1; 
stroke-linecap:round; stroke-linejoin:round;">
<path style="fill:#000000; fill-opacity:1.0; 
stroke:#000000; stroke-width:0; stroke-opacity:1; 
stroke-linecap:round; stroke-linejoin:round;fill-rule:evenodd;"
d="M 55070,15827
55070,17559
54125,17559
54125,15827
55070,15827
Z" /> 
<path style="fill:#000000; fill-opacity:1.0; 
stroke:#000000; stroke-width:0; stroke-opacity:1; 
stroke-linecap:round; stroke-linejoin:round;fill-rule:evenodd;"
d="M 67275,15827
67275,17559
66330,17559
66330,15827
67275,15827
Z" /> 
<path style="fill:#000000; fill-opacity:1.0; 
stroke:#000000; stroke-width:0; stroke-opacity:1; 
stroke-linecap:round; stroke-linejoin:round;fill-rule:evenodd;"
d="M 55936,23701
55936,24803
54677,24803
54677,23701
55936,23701
Z" /> 
<path style="fill:#000000; fill-opacity:1.0; 
stroke:#000000; stroke-width:0; stroke-opacity:1; 
stroke-linecap:round; stroke-linejoin:round;fill-rule:evenodd;"
d="M 67275,23701
67275,24803
66330,24803
66330,23701
67275,23701
Z" /> 
<path style="fill:#000000; fill-opacity:1.0; 
stroke:#000000; stroke-width:0; stroke-opacity:1; 
stroke-linecap:round; stroke-linejoin:round;fill-rule:evenodd;"
d="M 66173,24016
66173,25276
65621,25276
65621,24016
66173,24016
Z" /> 
<path style="fill:#000000; fill-opacity:1.0; 
stroke:#000000; stroke-width:0; stroke-opacity:1; 
stroke-linecap:round; stroke-linejoin:round;fill-rule:evenodd;"
d="M 64440,24016
64440,25276
63889,25276
63889,24016
64440,24016
Z" /> 
<path style="fill:#000000; fill-opacity:1.0; 
stroke:#000000; stroke-width:0; stroke-opacity:1; 
stroke-linecap:round; stroke-linejoin:round;fill-rule:evenodd;"
d="M 65307,24016
65307,25276
64755,25276
64755,24016
65307,24016
Z" /> 
<path style="fill:#000000; fill-opacity:1.0; 
stroke:#000000; stroke-width:0; stroke-opacity:1; 
stroke-linecap:round; stroke-linejoin:round;fill-rule:evenodd;"
d="M 63574,24016
63574,25276
63023,25276
63023,24016
63574,24016
Z" /> 
<path style="fill:#000000; fill-opacity:1.0; 
stroke:#000000; stroke-width:0; stroke-opacity:1; 
stroke-linecap:round; stroke-linejoin:round;fill-rule:evenodd;"
d="M 62708,24016
62708,25276
62157,25276
62157,24016
62708,24016
Z" /> 
<path style="fill:#000000; fill-opacity:1.0; 
stroke:#000000; stroke-width:0; stroke-opacity:1; 
stroke-linecap:round; stroke-linejoin:round;fill-rule:evenodd;"
d="M 61842,24016
61842,25276
61291,25276
61291,24016
61842,24016
Z" /> 
<path style="fill:#000000; fill-opacity:1.0; 
stroke:#000000; stroke-width:0; stroke-opacity:1; 
stroke-linecap:round; stroke-linejoin:round;fill-rule:evenodd;"
d="M 59244,24016
59244,25276
58692,25276
58692,24016
59244,24016
Z" /> 
<path style="fill:#000000; fill-opacity:1.0; 
stroke:#000000; stroke-width:0; stroke-opacity:1; 
stroke-linecap:round; stroke-linejoin:round;fill-rule:evenodd;"
d="M 60110,24016
60110,25276
59558,25276
59558,24016
60110,24016
Z" /> 
<path style="fill:#000000; fill-opacity:1.0; 
stroke:#000000; stroke-width:0; stroke-opacity:1; 
stroke-linecap:round; stroke-linejoin:round;fill-rule:evenodd;"
d="M 60976,24016
60976,25276
60425,25276
60425,24016
60976,24016
Z" /> 
</g>
<g >
</g>
<g >
<path style="fill:#000000; fill-opacity:1.0; 
stroke:#000000; stroke-width:0; stroke-opacity:1; 
stroke-linecap:round; stroke-linejoin:round;fill-rule:evenodd;"
d="M 40750,36482
40750,36009
41970,36009
41970,36482
40750,36482
Z" /> 
<path style="fill:#000000; fill-opacity:1.0; 
stroke:#000000; stroke-width:0; stroke-opacity:1; 
stroke-linecap:round; stroke-linejoin:round;fill-rule:evenodd;"
d="M 40750,37482
40750,37009
41970,37009
41970,37482
40750,37482
Z" /> 
<path style="fill:#000000; fill-opacity:1.0; 
stroke:#000000; stroke-width:0; stroke-opacity:1; 
stroke-linecap:round; stroke-linejoin:round;fill-rule:evenodd;"
d="M 40750,38482
40750,38009
41970,38009
41970,38482
40750,38482
Z" /> 
<path style="fill:#000000; fill-opacity:1.0; 
stroke:#000000; stroke-width:0; stroke-opacity:1; 
stroke-linecap:round; stroke-linejoin:round;fill-rule:evenodd;"
d="M 40750,39482
40750,39009
41970,39009
41970,39482
40750,39482
Z" /> 
<path style="fill:#000000; fill-opacity:1.0; 
stroke:#000000; stroke-width:0; stroke-opacity:1; 
stroke-linecap:round; stroke-linejoin:round;fill-rule:evenodd;"
d="M 36498,39482
36498,39009
37718,39009
37718,39482
36498,39482
Z" /> 
<path style="fill:#000000; fill-opacity:1.0; 
stroke:#000000; stroke-width:0; stroke-opacity:1; 
stroke-linecap:round; stroke-linejoin:round;fill-rule:evenodd;"
d="M 36498,38482
36498,38009
37718,38009
37718,38482
36498,38482
Z" /> 
<path style="fill:#000000; fill-opacity:1.0; 
stroke:#000000; stroke-width:0; stroke-opacity:1; 
stroke-linecap:round; stroke-linejoin:round;fill-rule:evenodd;"
d="M 36498,37482
36498,37009
37718,37009
37718,37482
36498,37482
Z" /> 
<path style="fill:#000000; fill-opacity:1.0; 
stroke:#000000; stroke-width:0; stroke-opacity:1; 
stroke-linecap:round; stroke-linejoin:round;fill-rule:evenodd;"
d="M 36498,36482
36498,36009
37718,36009
37718,36482
36498,36482
Z" /> 
</g>
<g >
</g>
<g >
</g>
<g >
</g>
<g >
</g>
<g >
</g>
<g >
</g>
<g >
</g>
<g >
</g>
<g >
<path style="fill:#000000; fill-opacity:1.0; 
stroke:#000000; stroke-width:0; stroke-opacity:1; 
stroke-linecap:round; stroke-linejoin:round;fill-rule:evenodd;"
d="M 32614,33113
31432,33113
31432,31539
32614,31539
32614,33113
Z" /> 
<path style="fill:#000000; fill-opacity:1.0; 
stroke:#000000; stroke-width:0; stroke-opacity:1; 
stroke-linecap:round; stroke-linejoin:round;fill-rule:evenodd;"
d="M 36236,33113
35055,33113
35055,31539
36236,31539
36236,33113
Z" /> 
<path style="fill:#000000; fill-opacity:1.0; 
stroke:#000000; stroke-width:0; stroke-opacity:1; 
stroke-linecap:round; stroke-linejoin:round;fill-rule:evenodd;"
d="M 34425,33113
33244,33113
33244,31539
34425,31539
34425,33113
Z" /> 
<path style="fill:#000000; fill-opacity:1.0; 
stroke:#000000; stroke-width:0; stroke-opacity:1; 
stroke-linecap:round; stroke-linejoin:round;fill-rule:evenodd;"
d="M 35330,28153
32338,28153
32338,26578
35330,26578
35330,28153
Z" /> 
</g>
<g >
<path style="fill:#000000; fill-opacity:1.0; 
stroke:#000000; stroke-width:0; stroke-opacity:1; 
stroke-linecap:round; stroke-linejoin:round;fill-rule:evenodd;"
d="M 40086,30598
40106,30601
40124,30605
40142,30612
40160,30620
40177,30630
40192,30641
40206,30654
40219,30669
40231,30684
40241,30701
40249,30718
40256,30736
40260,30755
40263,30774
40264,30794
40264,32762
40263,32781
40260,32801
40256,32819
40249,32837
40241,32855
40231,32872
40219,32887
40206,32901
40192,32914
40177,32926
40160,32936
40142,32944
40124,32951
40106,32955
40086,32958
40067,32959
39201,32959
39182,32958
39163,32955
39144,32951
39126,32944
39108,32936
39092,32926
39076,32914
39062,32901
39049,32887
39037,32872
39027,32855
39019,32837
39013,32819
39008,32801
39005,32781
39004,32762
39004,30794
39005,30774
39008,30755
39013,30736
39019,30718
39027,30701
39037,30684
39049,30669
39062,30654
39076,30641
39092,30630
39108,30620
39126,30612
39144,30605
39163,30601
39182,30598
39201,30597
40067,30597
40086,30598
Z" /> 
<path style="fill:#000000; fill-opacity:1.0; 
stroke:#000000; stroke-width:0; stroke-opacity:1; 
stroke-linecap:round; stroke-linejoin:round;fill-rule:evenodd;"
d="M 40086,27133
40106,27136
40124,27141
40142,27147
40160,27155
40177,27165
40192,27177
40206,27190
40219,27204
40231,27220
40241,27236
40249,27254
40256,27272
40260,27291
40263,27310
40264,27329
40264,29298
40263,29317
40260,29336
40256,29355
40249,29373
40241,29390
40231,29407
40219,29422
40206,29437
40192,29450
40177,29461
40160,29471
40142,29479
40124,29486
40106,29491
40086,29493
40067,29494
39201,29494
39182,29493
39163,29491
39144,29486
39126,29479
39108,29471
39092,29461
39076,29450
39062,29437
39049,29422
39037,29407
39027,29390
39019,29373
39013,29355
39008,29336
39005,29317
39004,29298
39004,27329
39005,27310
39008,27291
39013,27272
39019,27254
39027,27236
39037,27220
39049,27204
39062,27190
39076,27177
39092,27165
39108,27155
39126,27147
39144,27141
39163,27136
39182,27133
39201,27132
40067,27132
40086,27133
Z" /> 
</g>
<g >
</g>
<g >
<path style="fill:#000000; fill-opacity:1.0; 
stroke:#000000; stroke-width:0; stroke-opacity:1; 
stroke-linecap:round; stroke-linejoin:round;fill-rule:evenodd;"
d="M 40983,17790
40983,18302
40022,18302
40022,17790
40983,17790
Z" /> 
<path style="fill:#000000; fill-opacity:1.0; 
stroke:#000000; stroke-width:0; stroke-opacity:1; 
stroke-linecap:round; stroke-linejoin:round;fill-rule:evenodd;"
d="M 43046,17042
43046,17553
42085,17553
42085,17042
43046,17042
Z" /> 
<path style="fill:#000000; fill-opacity:1.0; 
stroke:#000000; stroke-width:0; stroke-opacity:1; 
stroke-linecap:round; stroke-linejoin:round;fill-rule:evenodd;"
d="M 43046,18538
43046,19050
42085,19050
42085,18538
43046,18538
Z" /> 
</g>
<g >
</g>
<g >
</g>
<g >
</g>
<g >
</g>
<g >
</g>
<g >
</g>
<g >
</g>
<g >
</g>
<g >
</g>
<g >
</g>
<g >
</g>
<g >
</g>
<g >
</g>
<g >
<path style="fill:#000000; fill-opacity:1.0; 
stroke:#000000; stroke-width:0; stroke-opacity:1; 
stroke-linecap:round; stroke-linejoin:round;fill-rule:evenodd;"
d="M 37511,21592
37157,21592
37157,21120
37511,21120
37511,21592
Z" /> 
<path style="fill:#000000; fill-opacity:1.0; 
stroke:#000000; stroke-width:0; stroke-opacity:1; 
stroke-linecap:round; stroke-linejoin:round;fill-rule:evenodd;"
d="M 37511,23246
37157,23246
37157,22773
37511,22773
37511,23246
Z" /> 
</g>
<g >
<path style="fill:#000000; fill-opacity:1.0; 
stroke:#000000; stroke-width:0; stroke-opacity:1; 
stroke-linecap:round; stroke-linejoin:round;fill-rule:evenodd;"
d="M 74707,25901
73762,25901
73762,25192
74707,25192
74707,25901
Z" /> 
<path style="fill:#000000; fill-opacity:1.0; 
stroke:#000000; stroke-width:0; stroke-opacity:1; 
stroke-linecap:round; stroke-linejoin:round;fill-rule:evenodd;"
d="M 74707,28499
73762,28499
73762,27790
74707,27790
74707,28499
Z" /> 
</g>
<g >
<path style="fill:#000000; fill-opacity:1.0; 
stroke:#000000; stroke-width:0; stroke-opacity:1; 
stroke-linecap:round; stroke-linejoin:round;fill-rule:evenodd;"
d="M 71807,25901
70862,25901
70862,25192
71807,25192
71807,25901
Z" /> 
<path style="fill:#000000; fill-opacity:1.0; 
stroke:#000000; stroke-width:0; stroke-opacity:1; 
stroke-linecap:round; stroke-linejoin:round;fill-rule:evenodd;"
d="M 71807,28499
70862,28499
70862,27790
71807,27790
71807,28499
Z" /> 
</g>
<g >
<path style="fill:#000000; fill-opacity:1.0; 
stroke:#000000; stroke-width:0; stroke-opacity:1; 
stroke-linecap:round; stroke-linejoin:round;fill-rule:evenodd;"
d="M 69087,25901
68142,25901
68142,25192
69087,25192
69087,25901
Z" /> 
<path style="fill:#000000; fill-opacity:1.0; 
stroke:#000000; stroke-width:0; stroke-opacity:1; 
stroke-linecap:round; stroke-linejoin:round;fill-rule:evenodd;"
d="M 69087,28499
68142,28499
68142,27790
69087,27790
69087,28499
Z" /> 
</g>
<g >
<path style="fill:#000000; fill-opacity:1.0; 
stroke:#000000; stroke-width:0; stroke-opacity:1; 
stroke-linecap:round; stroke-linejoin:round;fill-rule:evenodd;"
d="M 35783,42795
35802,42798
35820,42803
35838,42809
35855,42817
35871,42827
35886,42838
35900,42851
35913,42865
35924,42880
35933,42896
35942,42913
35948,42931
35952,42949
35955,42968
35956,42986
35956,43705
35955,43724
35952,43742
35948,43761
35942,43778
35933,43795
35924,43811
35913,43827
35900,43841
35886,43853
35871,43864
35855,43874
35838,43882
35820,43889
35802,43893
35783,43896
35764,43897
35380,43897
35362,43896
35343,43893
35325,43889
35307,43882
35290,43874
35274,43864
35259,43853
35245,43841
35232,43827
35221,43811
35211,43795
35203,43778
35197,43761
35192,43742
35189,43724
35188,43705
35188,42986
35189,42968
35192,42949
35197,42931
35203,42913
35211,42896
35221,42880
35232,42865
35245,42851
35259,42838
35274,42827
35290,42817
35307,42809
35325,42803
35343,42798
35362,42795
35380,42794
35764,42794
35783,42795
Z" /> 
<path style="fill:#000000; fill-opacity:1.0; 
stroke:#000000; stroke-width:0; stroke-opacity:1; 
stroke-linecap:round; stroke-linejoin:round;fill-rule:evenodd;"
d="M 34307,42795
34325,42798
34344,42803
34361,42809
34378,42817
34394,42827
34410,42838
34424,42851
34436,42865
34447,42880
34457,42896
34465,42913
34471,42931
34476,42949
34479,42968
34480,42986
34480,43705
34479,43724
34476,43742
34471,43761
34465,43778
34457,43795
34447,43811
34436,43827
34424,43841
34410,43853
34394,43864
34378,43874
34361,43882
34344,43889
34325,43893
34307,43896
34288,43897
33904,43897
33885,43896
33867,43893
33848,43889
33831,43882
33813,43874
33797,43864
33782,43853
33768,43841
33756,43827
33744,43811
33735,43795
33727,43778
33720,43761
33716,43742
33713,43724
33712,43705
33712,42986
33713,42968
33716,42949
33720,42931
33727,42913
33735,42896
33744,42880
33756,42865
33768,42851
33782,42838
33797,42827
33813,42817
33831,42809
33848,42803
33867,42798
33885,42795
33904,42794
34288,42794
34307,42795
Z" /> 
</g>
<g >
<path style="fill:#000000; fill-opacity:1.0; 
stroke:#000000; stroke-width:0; stroke-opacity:1; 
stroke-linecap:round; stroke-linejoin:round;fill-rule:evenodd;"
d="M 35783,41045
35802,41048
35820,41053
35838,41059
35855,41067
35871,41077
35886,41088
35900,41101
35913,41115
35924,41130
35933,41146
35942,41163
35948,41181
35952,41199
35955,41218
35956,41236
35956,41955
35955,41974
35952,41992
35948,42011
35942,42028
35933,42045
35924,42061
35913,42077
35900,42091
35886,42103
35871,42114
35855,42124
35838,42132
35820,42139
35802,42143
35783,42146
35764,42147
35380,42147
35362,42146
35343,42143
35325,42139
35307,42132
35290,42124
35274,42114
35259,42103
35245,42091
35232,42077
35221,42061
35211,42045
35203,42028
35197,42011
35192,41992
35189,41974
35188,41955
35188,41236
35189,41218
35192,41199
35197,41181
35203,41163
35211,41146
35221,41130
35232,41115
35245,41101
35259,41088
35274,41077
35290,41067
35307,41059
35325,41053
35343,41048
35362,41045
35380,41044
35764,41044
35783,41045
Z" /> 
<path style="fill:#000000; fill-opacity:1.0; 
stroke:#000000; stroke-width:0; stroke-opacity:1; 
stroke-linecap:round; stroke-linejoin:round;fill-rule:evenodd;"
d="M 34307,41045
34325,41048
34344,41053
34361,41059
34378,41067
34394,41077
34410,41088
34424,41101
34436,41115
34447,41130
34457,41146
34465,41163
34471,41181
34476,41199
34479,41218
34480,41236
34480,41955
34479,41974
34476,41992
34471,42011
34465,42028
34457,42045
34447,42061
34436,42077
34424,42091
34410,42103
34394,42114
34378,42124
34361,42132
34344,42139
34325,42143
34307,42146
34288,42147
33904,42147
33885,42146
33867,42143
33848,42139
33831,42132
33813,42124
33797,42114
33782,42103
33768,42091
33756,42077
33744,42061
33735,42045
33727,42028
33720,42011
33716,41992
33713,41974
33712,41955
33712,41236
33713,41218
33716,41199
33720,41181
33727,41163
33735,41146
33744,41130
33756,41115
33768,41101
33782,41088
33797,41077
33813,41067
33831,41059
33848,41053
33867,41048
33885,41045
33904,41044
34288,41044
34307,41045
Z" /> 
</g>
<g >
<path style="fill:#000000; fill-opacity:1.0; 
stroke:#000000; stroke-width:0; stroke-opacity:1; 
stroke-linecap:round; stroke-linejoin:round;fill-rule:evenodd;"
d="M 51812,42324
51831,42327
51849,42332
51867,42338
51884,42346
51900,42356
51915,42367
51929,42380
51942,42394
51953,42409
51963,42425
51971,42442
51977,42460
51982,42478
51984,42497
51985,42515
51985,42899
51984,42918
51982,42937
51977,42955
51971,42973
51963,42990
51953,43006
51942,43021
51929,43035
51915,43048
51900,43059
51884,43069
51867,43077
51849,43083
51831,43088
51812,43090
51793,43091
51075,43091
51056,43090
51037,43088
51019,43083
51001,43077
50984,43069
50968,43059
50953,43048
50939,43035
50926,43021
50915,43006
50906,42990
50897,42973
50891,42955
50887,42937
50884,42918
50883,42899
50883,42515
50884,42497
50887,42478
50891,42460
50897,42442
50906,42425
50915,42409
50926,42394
50939,42380
50953,42367
50968,42356
50984,42346
51001,42338
51019,42332
51037,42327
51056,42324
51075,42324
51793,42324
51812,42324
Z" /> 
<path style="fill:#000000; fill-opacity:1.0; 
stroke:#000000; stroke-width:0; stroke-opacity:1; 
stroke-linecap:round; stroke-linejoin:round;fill-rule:evenodd;"
d="M 51812,43801
51831,43804
51849,43808
51867,43815
51884,43823
51900,43832
51915,43844
51929,43856
51942,43870
51953,43885
51963,43901
51971,43918
51977,43936
51982,43954
51984,43973
51985,43992
51985,44376
51984,44395
51982,44413
51977,44431
51971,44449
51963,44466
51953,44482
51942,44497
51929,44511
51915,44524
51900,44535
51884,44545
51867,44553
51849,44559
51831,44564
51812,44567
51793,44568
51075,44568
51056,44567
51037,44564
51019,44559
51001,44553
50984,44545
50968,44535
50953,44524
50939,44511
50926,44497
50915,44482
50906,44466
50897,44449
50891,44431
50887,44413
50884,44395
50883,44376
50883,43992
50884,43973
50887,43954
50891,43936
50897,43918
50906,43901
50915,43885
50926,43870
50939,43856
50953,43844
50968,43832
50984,43823
51001,43815
51019,43808
51037,43804
51056,43801
51075,43800
51793,43800
51812,43801
Z" /> 
</g>
<g >
<path style="fill:#000000; fill-opacity:1.0; 
stroke:#000000; stroke-width:0; stroke-opacity:1; 
stroke-linecap:round; stroke-linejoin:round;fill-rule:evenodd;"
d="M 38912,16924
38931,16927
38949,16932
38967,16938
38984,16946
39000,16956
39015,16967
39029,16980
39042,16994
39053,17009
39063,17025
39071,17042
39077,17060
39082,17078
39084,17097
39085,17115
39085,17499
39084,17518
39082,17537
39077,17555
39071,17573
39063,17590
39053,17606
39042,17621
39029,17635
39015,17648
39000,17659
38984,17669
38967,17677
38949,17683
38931,17688
38912,17690
38893,17691
38175,17691
38156,17690
38137,17688
38119,17683
38101,17677
38084,17669
38068,17659
38053,17648
38039,17635
38026,17621
38015,17606
38006,17590
37997,17573
37991,17555
37987,17537
37984,17518
37983,17499
37983,17115
37984,17097
37987,17078
37991,17060
37997,17042
38006,17025
38015,17009
38026,16994
38039,16980
38053,16967
38068,16956
38084,16946
38101,16938
38119,16932
38137,16927
38156,16924
38175,16924
38893,16924
38912,16924
Z" /> 
<path style="fill:#000000; fill-opacity:1.0; 
stroke:#000000; stroke-width:0; stroke-opacity:1; 
stroke-linecap:round; stroke-linejoin:round;fill-rule:evenodd;"
d="M 38912,18401
38931,18404
38949,18408
38967,18415
38984,18423
39000,18432
39015,18444
39029,18456
39042,18470
39053,18485
39063,18501
39071,18518
39077,18536
39082,18554
39084,18573
39085,18592
39085,18976
39084,18995
39082,19013
39077,19031
39071,19049
39063,19066
39053,19082
39042,19097
39029,19111
39015,19124
39000,19135
38984,19145
38967,19153
38949,19159
38931,19164
38912,19167
38893,19168
38175,19168
38156,19167
38137,19164
38119,19159
38101,19153
38084,19145
38068,19135
38053,19124
38039,19111
38026,19097
38015,19082
38006,19066
37997,19049
37991,19031
37987,19013
37984,18995
37983,18976
37983,18592
37984,18573
37987,18554
37991,18536
37997,18518
38006,18501
38015,18485
38026,18470
38039,18456
38053,18444
38068,18432
38084,18423
38101,18415
38119,18408
38137,18404
38156,18401
38175,18400
38893,18400
38912,18401
Z" /> 
</g>
<g >
<path style="fill:#000000; fill-opacity:1.0; 
stroke:#000000; stroke-width:0; stroke-opacity:1; 
stroke-linecap:round; stroke-linejoin:round;fill-rule:evenodd;"
d="M 67212,30024
67231,30027
67249,30032
67267,30038
67284,30046
67300,30056
67315,30067
67329,30080
67342,30094
67353,30109
67363,30125
67371,30142
67377,30160
67382,30178
67384,30197
67385,30215
67385,30599
67384,30618
67382,30637
67377,30655
67371,30673
67363,30690
67353,30706
67342,30721
67329,30735
67315,30748
67300,30759
67284,30769
67267,30777
67249,30783
67231,30788
67212,30790
67193,30791
66475,30791
66456,30790
66437,30788
66419,30783
66401,30777
66384,30769
66368,30759
66353,30748
66339,30735
66326,30721
66315,30706
66306,30690
66297,30673
66291,30655
66287,30637
66284,30618
66283,30599
66283,30215
66284,30197
66287,30178
66291,30160
66297,30142
66306,30125
66315,30109
66326,30094
66339,30080
66353,30067
66368,30056
66384,30046
66401,30038
66419,30032
66437,30027
66456,30024
66475,30024
67193,30024
67212,30024
Z" /> 
<path style="fill:#000000; fill-opacity:1.0; 
stroke:#000000; stroke-width:0; stroke-opacity:1; 
stroke-linecap:round; stroke-linejoin:round;fill-rule:evenodd;"
d="M 67212,31501
67231,31504
67249,31508
67267,31515
67284,31523
67300,31532
67315,31544
67329,31556
67342,31570
67353,31585
67363,31601
67371,31618
67377,31636
67382,31654
67384,31673
67385,31692
67385,32076
67384,32095
67382,32113
67377,32131
67371,32149
67363,32166
67353,32182
67342,32197
67329,32211
67315,32224
67300,32235
67284,32245
67267,32253
67249,32259
67231,32264
67212,32267
67193,32268
66475,32268
66456,32267
66437,32264
66419,32259
66401,32253
66384,32245
66368,32235
66353,32224
66339,32211
66326,32197
66315,32182
66306,32166
66297,32149
66291,32131
66287,32113
66284,32095
66283,32076
66283,31692
66284,31673
66287,31654
66291,31636
66297,31618
66306,31601
66315,31585
66326,31570
66339,31556
66353,31544
66368,31532
66384,31523
66401,31515
66419,31508
66437,31504
66456,31501
66475,31500
67193,31500
67212,31501
Z" /> 
</g>
<g >
<path style="fill:#000000; fill-opacity:1.0; 
stroke:#000000; stroke-width:0; stroke-opacity:1; 
stroke-linecap:round; stroke-linejoin:round;fill-rule:evenodd;"
d="M 63512,26024
63531,26027
63549,26032
63567,26038
63584,26046
63600,26056
63615,26067
63629,26080
63642,26094
63653,26109
63663,26125
63671,26142
63677,26160
63682,26178
63684,26197
63685,26215
63685,26599
63684,26618
63682,26637
63677,26655
63671,26673
63663,26690
63653,26706
63642,26721
63629,26735
63615,26748
63600,26759
63584,26769
63567,26777
63549,26783
63531,26788
63512,26790
63493,26791
62775,26791
62756,26790
62737,26788
62719,26783
62701,26777
62684,26769
62668,26759
62653,26748
62639,26735
62626,26721
62615,26706
62606,26690
62597,26673
62591,26655
62587,26637
62584,26618
62583,26599
62583,26215
62584,26197
62587,26178
62591,26160
62597,26142
62606,26125
62615,26109
62626,26094
62639,26080
62653,26067
62668,26056
62684,26046
62701,26038
62719,26032
62737,26027
62756,26024
62775,26024
63493,26024
63512,26024
Z" /> 
<path style="fill:#000000; fill-opacity:1.0; 
stroke:#000000; stroke-width:0; stroke-opacity:1; 
stroke-linecap:round; stroke-linejoin:round;fill-rule:evenodd;"
d="M 63512,27501
63531,27504
63549,27508
63567,27515
63584,27523
63600,27532
63615,27544
63629,27556
63642,27570
63653,27585
63663,27601
63671,27618
63677,27636
63682,27654
63684,27673
63685,27692
63685,28076
63684,28095
63682,28113
63677,28131
63671,28149
63663,28166
63653,28182
63642,28197
63629,28211
63615,28224
63600,28235
63584,28245
63567,28253
63549,28259
63531,28264
63512,28267
63493,28268
62775,28268
62756,28267
62737,28264
62719,28259
62701,28253
62684,28245
62668,28235
62653,28224
62639,28211
62626,28197
62615,28182
62606,28166
62597,28149
62591,28131
62587,28113
62584,28095
62583,28076
62583,27692
62584,27673
62587,27654
62591,27636
62597,27618
62606,27601
62615,27585
62626,27570
62639,27556
62653,27544
62668,27532
62684,27523
62701,27515
62719,27508
62737,27504
62756,27501
62775,27500
63493,27500
63512,27501
Z" /> 
</g>
<g >
<path style="fill:#000000; fill-opacity:1.0; 
stroke:#000000; stroke-width:0; stroke-opacity:1; 
stroke-linecap:round; stroke-linejoin:round;fill-rule:evenodd;"
d="M 69612,30024
69631,30027
69649,30032
69667,30038
69684,30046
69700,30056
69715,30067
69729,30080
69742,30094
69753,30109
69763,30125
69771,30142
69777,30160
69782,30178
69784,30197
69785,30215
69785,30599
69784,30618
69782,30637
69777,30655
69771,30673
69763,30690
69753,30706
69742,30721
69729,30735
69715,30748
69700,30759
69684,30769
69667,30777
69649,30783
69631,30788
69612,30790
69593,30791
68875,30791
68856,30790
68837,30788
68819,30783
68801,30777
68784,30769
68768,30759
68753,30748
68739,30735
68726,30721
68715,30706
68706,30690
68697,30673
68691,30655
68687,30637
68684,30618
68683,30599
68683,30215
68684,30197
68687,30178
68691,30160
68697,30142
68706,30125
68715,30109
68726,30094
68739,30080
68753,30067
68768,30056
68784,30046
68801,30038
68819,30032
68837,30027
68856,30024
68875,30024
69593,30024
69612,30024
Z" /> 
<path style="fill:#000000; fill-opacity:1.0; 
stroke:#000000; stroke-width:0; stroke-opacity:1; 
stroke-linecap:round; stroke-linejoin:round;fill-rule:evenodd;"
d="M 69612,31501
69631,31504
69649,31508
69667,31515
69684,31523
69700,31532
69715,31544
69729,31556
69742,31570
69753,31585
69763,31601
69771,31618
69777,31636
69782,31654
69784,31673
69785,31692
69785,32076
69784,32095
69782,32113
69777,32131
69771,32149
69763,32166
69753,32182
69742,32197
69729,32211
69715,32224
69700,32235
69684,32245
69667,32253
69649,32259
69631,32264
69612,32267
69593,32268
68875,32268
68856,32267
68837,32264
68819,32259
68801,32253
68784,32245
68768,32235
68753,32224
68739,32211
68726,32197
68715,32182
68706,32166
68697,32149
68691,32131
68687,32113
68684,32095
68683,32076
68683,31692
68684,31673
68687,31654
68691,31636
68697,31618
68706,31601
68715,31585
68726,31570
68739,31556
68753,31544
68768,31532
68784,31523
68801,31515
68819,31508
68837,31504
68856,31501
68875,31500
69593,31500
69612,31501
Z" /> 
</g>
<g >
<path style="fill:#000000; fill-opacity:1.0; 
stroke:#000000; stroke-width:0; stroke-opacity:1; 
stroke-linecap:round; stroke-linejoin:round;fill-rule:evenodd;"
d="M 29707,36095
29725,36098
29744,36103
29761,36109
29778,36117
29794,36127
29810,36138
29824,36151
29836,36165
29847,36180
29857,36196
29865,36213
29871,36231
29876,36249
29879,36268
29880,36286
29880,37005
29879,37024
29876,37042
29871,37061
29865,37078
29857,37095
29847,37111
29836,37127
29824,37141
29810,37153
29794,37164
29778,37174
29761,37182
29744,37189
29725,37193
29707,37196
29688,37197
29304,37197
29285,37196
29267,37193
29248,37189
29231,37182
29213,37174
29197,37164
29182,37153
29168,37141
29156,37127
29144,37111
29135,37095
29127,37078
29120,37061
29116,37042
29113,37024
29112,37005
29112,36286
29113,36268
29116,36249
29120,36231
29127,36213
29135,36196
29144,36180
29156,36165
29168,36151
29182,36138
29197,36127
29213,36117
29231,36109
29248,36103
29267,36098
29285,36095
29304,36094
29688,36094
29707,36095
Z" /> 
<path style="fill:#000000; fill-opacity:1.0; 
stroke:#000000; stroke-width:0; stroke-opacity:1; 
stroke-linecap:round; stroke-linejoin:round;fill-rule:evenodd;"
d="M 31183,36095
31202,36098
31220,36103
31238,36109
31255,36117
31271,36127
31286,36138
31300,36151
31313,36165
31324,36180
31333,36196
31342,36213
31348,36231
31352,36249
31355,36268
31356,36286
31356,37005
31355,37024
31352,37042
31348,37061
31342,37078
31333,37095
31324,37111
31313,37127
31300,37141
31286,37153
31271,37164
31255,37174
31238,37182
31220,37189
31202,37193
31183,37196
31164,37197
30780,37197
30762,37196
30743,37193
30725,37189
30707,37182
30690,37174
30674,37164
30659,37153
30645,37141
30632,37127
30621,37111
30611,37095
30603,37078
30597,37061
30592,37042
30589,37024
30588,37005
30588,36286
30589,36268
30592,36249
30597,36231
30603,36213
30611,36196
30621,36180
30632,36165
30645,36151
30659,36138
30674,36127
30690,36117
30707,36109
30725,36103
30743,36098
30762,36095
30780,36094
31164,36094
31183,36095
Z" /> 
</g>
<g >
<path style="fill:#000000; fill-opacity:1.0; 
stroke:#000000; stroke-width:0; stroke-opacity:1; 
stroke-linecap:round; stroke-linejoin:round;fill-rule:evenodd;"
d="M 62312,64024
62331,64027
62349,64032
62367,64038
62384,64046
62400,64056
62415,64067
62429,64080
62442,64094
62453,64109
62463,64125
62471,64142
62477,64160
62482,64178
62484,64197
62485,64215
62485,64599
62484,64618
62482,64637
62477,64655
62471,64673
62463,64690
62453,64706
62442,64721
62429,64735
62415,64748
62400,64759
62384,64769
62367,64777
62349,64783
62331,64788
62312,64790
62293,64791
61575,64791
61556,64790
61537,64788
61519,64783
61501,64777
61484,64769
61468,64759
61453,64748
61439,64735
61426,64721
61415,64706
61406,64690
61397,64673
61391,64655
61387,64637
61384,64618
61383,64599
61383,64215
61384,64197
61387,64178
61391,64160
61397,64142
61406,64125
61415,64109
61426,64094
61439,64080
61453,64067
61468,64056
61484,64046
61501,64038
61519,64032
61537,64027
61556,64024
61575,64024
62293,64024
62312,64024
Z" /> 
<path style="fill:#000000; fill-opacity:1.0; 
stroke:#000000; stroke-width:0; stroke-opacity:1; 
stroke-linecap:round; stroke-linejoin:round;fill-rule:evenodd;"
d="M 62312,65501
62331,65504
62349,65508
62367,65515
62384,65523
62400,65532
62415,65544
62429,65556
62442,65570
62453,65585
62463,65601
62471,65618
62477,65636
62482,65654
62484,65673
62485,65692
62485,66076
62484,66095
62482,66113
62477,66131
62471,66149
62463,66166
62453,66182
62442,66197
62429,66211
62415,66224
62400,66235
62384,66245
62367,66253
62349,66259
62331,66264
62312,66267
62293,66268
61575,66268
61556,66267
61537,66264
61519,66259
61501,66253
61484,66245
61468,66235
61453,66224
61439,66211
61426,66197
61415,66182
61406,66166
61397,66149
61391,66131
61387,66113
61384,66095
61383,66076
61383,65692
61384,65673
61387,65654
61391,65636
61397,65618
61406,65601
61415,65585
61426,65570
61439,65556
61453,65544
61468,65532
61484,65523
61501,65515
61519,65508
61537,65504
61556,65501
61575,65500
62293,65500
62312,65501
Z" /> 
</g>
<g >
<path style="fill:#000000; fill-opacity:1.0; 
stroke:#000000; stroke-width:0; stroke-opacity:1; 
stroke-linecap:round; stroke-linejoin:round;fill-rule:evenodd;"
d="M 74312,65501
74331,65504
74349,65508
74367,65515
74384,65523
74400,65532
74415,65544
74429,65556
74442,65570
74453,65585
74463,65601
74471,65618
74477,65636
74482,65654
74484,65673
74485,65692
74485,66076
74484,66095
74482,66113
74477,66131
74471,66149
74463,66166
74453,66182
74442,66197
74429,66211
74415,66224
74400,66235
74384,66245
74367,66253
74349,66259
74331,66264
74312,66267
74293,66268
73575,66268
73556,66267
73537,66264
73519,66259
73501,66253
73484,66245
73468,66235
73453,66224
73439,66211
73426,66197
73415,66182
73406,66166
73397,66149
73391,66131
73387,66113
73384,66095
73383,66076
73383,65692
73384,65673
73387,65654
73391,65636
73397,65618
73406,65601
73415,65585
73426,65570
73439,65556
73453,65544
73468,65532
73484,65523
73501,65515
73519,65508
73537,65504
73556,65501
73575,65500
74293,65500
74312,65501
Z" /> 
<path style="fill:#000000; fill-opacity:1.0; 
stroke:#000000; stroke-width:0; stroke-opacity:1; 
stroke-linecap:round; stroke-linejoin:round;fill-rule:evenodd;"
d="M 74312,64024
74331,64027
74349,64032
74367,64038
74384,64046
74400,64056
74415,64067
74429,64080
74442,64094
74453,64109
74463,64125
74471,64142
74477,64160
74482,64178
74484,64197
74485,64215
74485,64599
74484,64618
74482,64637
74477,64655
74471,64673
74463,64690
74453,64706
74442,64721
74429,64735
74415,64748
74400,64759
74384,64769
74367,64777
74349,64783
74331,64788
74312,64790
74293,64791
73575,64791
73556,64790
73537,64788
73519,64783
73501,64777
73484,64769
73468,64759
73453,64748
73439,64735
73426,64721
73415,64706
73406,64690
73397,64673
73391,64655
73387,64637
73384,64618
73383,64599
73383,64215
73384,64197
73387,64178
73391,64160
73397,64142
73406,64125
73415,64109
73426,64094
73439,64080
73453,64067
73468,64056
73484,64046
73501,64038
73519,64032
73537,64027
73556,64024
73575,64024
74293,64024
74312,64024
Z" /> 
</g>
<g >
<path style="fill:#000000; fill-opacity:1.0; 
stroke:#000000; stroke-width:0; stroke-opacity:1; 
stroke-linecap:round; stroke-linejoin:round;fill-rule:evenodd;"
d="M 34312,63984
34331,63987
34349,63992
34367,63998
34384,64006
34400,64016
34415,64027
34429,64040
34442,64054
34453,64069
34463,64085
34471,64102
34477,64120
34482,64138
34484,64157
34485,64175
34485,64559
34484,64578
34482,64597
34477,64615
34471,64633
34463,64650
34453,64666
34442,64681
34429,64695
34415,64708
34400,64719
34384,64729
34367,64737
34349,64743
34331,64748
34312,64750
34293,64751
33575,64751
33556,64750
33537,64748
33519,64743
33501,64737
33484,64729
33468,64719
33453,64708
33439,64695
33426,64681
33415,64666
33406,64650
33397,64633
33391,64615
33387,64597
33384,64578
33383,64559
33383,64175
33384,64157
33387,64138
33391,64120
33397,64102
33406,64085
33415,64069
33426,64054
33439,64040
33453,64027
33468,64016
33484,64006
33501,63998
33519,63992
33537,63987
33556,63984
33575,63984
34293,63984
34312,63984
Z" /> 
<path style="fill:#000000; fill-opacity:1.0; 
stroke:#000000; stroke-width:0; stroke-opacity:1; 
stroke-linecap:round; stroke-linejoin:round;fill-rule:evenodd;"
d="M 34312,65461
34331,65464
34349,65468
34367,65475
34384,65483
34400,65492
34415,65504
34429,65516
34442,65530
34453,65545
34463,65561
34471,65578
34477,65596
34482,65614
34484,65633
34485,65652
34485,66036
34484,66055
34482,66073
34477,66091
34471,66109
34463,66126
34453,66142
34442,66157
34429,66171
34415,66184
34400,66195
34384,66205
34367,66213
34349,66219
34331,66224
34312,66227
34293,66228
33575,66228
33556,66227
33537,66224
33519,66219
33501,66213
33484,66205
33468,66195
33453,66184
33439,66171
33426,66157
33415,66142
33406,66126
33397,66109
33391,66091
33387,66073
33384,66055
33383,66036
33383,65652
33384,65633
33387,65614
33391,65596
33397,65578
33406,65561
33415,65545
33426,65530
33439,65516
33453,65504
33468,65492
33484,65483
33501,65475
33519,65468
33537,65464
33556,65461
33575,65460
34293,65460
34312,65461
Z" /> 
</g>
<g >
<path style="fill:#000000; fill-opacity:1.0; 
stroke:#000000; stroke-width:0; stroke-opacity:1; 
stroke-linecap:round; stroke-linejoin:round;fill-rule:evenodd;"
d="M 32352,65461
32371,65464
32389,65468
32407,65475
32424,65483
32440,65492
32455,65504
32469,65516
32482,65530
32493,65545
32503,65561
32511,65578
32517,65596
32522,65614
32524,65633
32525,65652
32525,66036
32524,66055
32522,66073
32517,66091
32511,66109
32503,66126
32493,66142
32482,66157
32469,66171
32455,66184
32440,66195
32424,66205
32407,66213
32389,66219
32371,66224
32352,66227
32333,66228
31615,66228
31596,66227
31577,66224
31559,66219
31541,66213
31524,66205
31508,66195
31493,66184
31479,66171
31466,66157
31455,66142
31446,66126
31437,66109
31431,66091
31427,66073
31424,66055
31423,66036
31423,65652
31424,65633
31427,65614
31431,65596
31437,65578
31446,65561
31455,65545
31466,65530
31479,65516
31493,65504
31508,65492
31524,65483
31541,65475
31559,65468
31577,65464
31596,65461
31615,65460
32333,65460
32352,65461
Z" /> 
<path style="fill:#000000; fill-opacity:1.0; 
stroke:#000000; stroke-width:0; stroke-opacity:1; 
stroke-linecap:round; stroke-linejoin:round;fill-rule:evenodd;"
d="M 32352,63984
32371,63987
32389,63992
32407,63998
32424,64006
32440,64016
32455,64027
32469,64040
32482,64054
32493,64069
32503,64085
32511,64102
32517,64120
32522,64138
32524,64157
32525,64175
32525,64559
32524,64578
32522,64597
32517,64615
32511,64633
32503,64650
32493,64666
32482,64681
32469,64695
32455,64708
32440,64719
32424,64729
32407,64737
32389,64743
32371,64748
32352,64750
32333,64751
31615,64751
31596,64750
31577,64748
31559,64743
31541,64737
31524,64729
31508,64719
31493,64708
31479,64695
31466,64681
31455,64666
31446,64650
31437,64633
31431,64615
31427,64597
31424,64578
31423,64559
31423,64175
31424,64157
31427,64138
31431,64120
31437,64102
31446,64085
31455,64069
31466,64054
31479,64040
31493,64027
31508,64016
31524,64006
31541,63998
31559,63992
31577,63987
31596,63984
31615,63984
32333,63984
32352,63984
Z" /> 
</g>
<g >
<path style="fill:#000000; fill-opacity:1.0; 
stroke:#000000; stroke-width:0; stroke-opacity:1; 
stroke-linecap:round; stroke-linejoin:round;fill-rule:evenodd;"
d="M 39312,65501
39331,65504
39349,65508
39367,65515
39384,65523
39400,65532
39415,65544
39429,65556
39442,65570
39453,65585
39463,65601
39471,65618
39477,65636
39482,65654
39484,65673
39485,65692
39485,66076
39484,66095
39482,66113
39477,66131
39471,66149
39463,66166
39453,66182
39442,66197
39429,66211
39415,66224
39400,66235
39384,66245
39367,66253
39349,66259
39331,66264
39312,66267
39293,66268
38575,66268
38556,66267
38537,66264
38519,66259
38501,66253
38484,66245
38468,66235
38453,66224
38439,66211
38426,66197
38415,66182
38406,66166
38397,66149
38391,66131
38387,66113
38384,66095
38383,66076
38383,65692
38384,65673
38387,65654
38391,65636
38397,65618
38406,65601
38415,65585
38426,65570
38439,65556
38453,65544
38468,65532
38484,65523
38501,65515
38519,65508
38537,65504
38556,65501
38575,65500
39293,65500
39312,65501
Z" /> 
<path style="fill:#000000; fill-opacity:1.0; 
stroke:#000000; stroke-width:0; stroke-opacity:1; 
stroke-linecap:round; stroke-linejoin:round;fill-rule:evenodd;"
d="M 39312,64024
39331,64027
39349,64032
39367,64038
39384,64046
39400,64056
39415,64067
39429,64080
39442,64094
39453,64109
39463,64125
39471,64142
39477,64160
39482,64178
39484,64197
39485,64215
39485,64599
39484,64618
39482,64637
39477,64655
39471,64673
39463,64690
39453,64706
39442,64721
39429,64735
39415,64748
39400,64759
39384,64769
39367,64777
39349,64783
39331,64788
39312,64790
39293,64791
38575,64791
38556,64790
38537,64788
38519,64783
38501,64777
38484,64769
38468,64759
38453,64748
38439,64735
38426,64721
38415,64706
38406,64690
38397,64673
38391,64655
38387,64637
38384,64618
38383,64599
38383,64215
38384,64197
38387,64178
38391,64160
38397,64142
38406,64125
38415,64109
38426,64094
38439,64080
38453,64067
38468,64056
38484,64046
38501,64038
38519,64032
38537,64027
38556,64024
38575,64024
39293,64024
39312,64024
Z" /> 
</g>
<g >
<path style="fill:#000000; fill-opacity:1.0; 
stroke:#000000; stroke-width:0; stroke-opacity:1; 
stroke-linecap:round; stroke-linejoin:round;fill-rule:evenodd;"
d="M 46312,65501
46331,65504
46349,65508
46367,65515
46384,65523
46400,65532
46415,65544
46429,65556
46442,65570
46453,65585
46463,65601
46471,65618
46477,65636
46482,65654
46484,65673
46485,65692
46485,66076
46484,66095
46482,66113
46477,66131
46471,66149
46463,66166
46453,66182
46442,66197
46429,66211
46415,66224
46400,66235
46384,66245
46367,66253
46349,66259
46331,66264
46312,66267
46293,66268
45575,66268
45556,66267
45537,66264
45519,66259
45501,66253
45484,66245
45468,66235
45453,66224
45439,66211
45426,66197
45415,66182
45406,66166
45397,66149
45391,66131
45387,66113
45384,66095
45383,66076
45383,65692
45384,65673
45387,65654
45391,65636
45397,65618
45406,65601
45415,65585
45426,65570
45439,65556
45453,65544
45468,65532
45484,65523
45501,65515
45519,65508
45537,65504
45556,65501
45575,65500
46293,65500
46312,65501
Z" /> 
<path style="fill:#000000; fill-opacity:1.0; 
stroke:#000000; stroke-width:0; stroke-opacity:1; 
stroke-linecap:round; stroke-linejoin:round;fill-rule:evenodd;"
d="M 46312,64024
46331,64027
46349,64032
46367,64038
46384,64046
46400,64056
46415,64067
46429,64080
46442,64094
46453,64109
46463,64125
46471,64142
46477,64160
46482,64178
46484,64197
46485,64215
46485,64599
46484,64618
46482,64637
46477,64655
46471,64673
46463,64690
46453,64706
46442,64721
46429,64735
46415,64748
46400,64759
46384,64769
46367,64777
46349,64783
46331,64788
46312,64790
46293,64791
45575,64791
45556,64790
45537,64788
45519,64783
45501,64777
45484,64769
45468,64759
45453,64748
45439,64735
45426,64721
45415,64706
45406,64690
45397,64673
45391,64655
45387,64637
45384,64618
45383,64599
45383,64215
45384,64197
45387,64178
45391,64160
45397,64142
45406,64125
45415,64109
45426,64094
45439,64080
45453,64067
45468,64056
45484,64046
45501,64038
45519,64032
45537,64027
45556,64024
45575,64024
46293,64024
46312,64024
Z" /> 
</g>
<g >
<path style="fill:#000000; fill-opacity:1.0; 
stroke:#000000; stroke-width:0; stroke-opacity:1; 
stroke-linecap:round; stroke-linejoin:round;fill-rule:evenodd;"
d="M 53312,65501
53331,65504
53349,65508
53367,65515
53384,65523
53400,65532
53415,65544
53429,65556
53442,65570
53453,65585
53463,65601
53471,65618
53477,65636
53482,65654
53484,65673
53485,65692
53485,66076
53484,66095
53482,66113
53477,66131
53471,66149
53463,66166
53453,66182
53442,66197
53429,66211
53415,66224
53400,66235
53384,66245
53367,66253
53349,66259
53331,66264
53312,66267
53293,66268
52575,66268
52556,66267
52537,66264
52519,66259
52501,66253
52484,66245
52468,66235
52453,66224
52439,66211
52426,66197
52415,66182
52406,66166
52397,66149
52391,66131
52387,66113
52384,66095
52383,66076
52383,65692
52384,65673
52387,65654
52391,65636
52397,65618
52406,65601
52415,65585
52426,65570
52439,65556
52453,65544
52468,65532
52484,65523
52501,65515
52519,65508
52537,65504
52556,65501
52575,65500
53293,65500
53312,65501
Z" /> 
<path style="fill:#000000; fill-opacity:1.0; 
stroke:#000000; stroke-width:0; stroke-opacity:1; 
stroke-linecap:round; stroke-linejoin:round;fill-rule:evenodd;"
d="M 53312,64024
53331,64027
53349,64032
53367,64038
53384,64046
53400,64056
53415,64067
53429,64080
53442,64094
53453,64109
53463,64125
53471,64142
53477,64160
53482,64178
53484,64197
53485,64215
53485,64599
53484,64618
53482,64637
53477,64655
53471,64673
53463,64690
53453,64706
53442,64721
53429,64735
53415,64748
53400,64759
53384,64769
53367,64777
53349,64783
53331,64788
53312,64790
53293,64791
52575,64791
52556,64790
52537,64788
52519,64783
52501,64777
52484,64769
52468,64759
52453,64748
52439,64735
52426,64721
52415,64706
52406,64690
52397,64673
52391,64655
52387,64637
52384,64618
52383,64599
52383,64215
52384,64197
52387,64178
52391,64160
52397,64142
52406,64125
52415,64109
52426,64094
52439,64080
52453,64067
52468,64056
52484,64046
52501,64038
52519,64032
52537,64027
52556,64024
52575,64024
53293,64024
53312,64024
Z" /> 
</g>
<g >
<path style="fill:#000000; fill-opacity:1.0; 
stroke:#000000; stroke-width:0; stroke-opacity:1; 
stroke-linecap:round; stroke-linejoin:round;fill-rule:evenodd;"
d="M 60312,65501
60331,65504
60349,65508
60367,65515
60384,65523
60400,65532
60415,65544
60429,65556
60442,65570
60453,65585
60463,65601
60471,65618
60477,65636
60482,65654
60484,65673
60485,65692
60485,66076
60484,66095
60482,66113
60477,66131
60471,66149
60463,66166
60453,66182
60442,66197
60429,66211
60415,66224
60400,66235
60384,66245
60367,66253
60349,66259
60331,66264
60312,66267
60293,66268
59575,66268
59556,66267
59537,66264
59519,66259
59501,66253
59484,66245
59468,66235
59453,66224
59439,66211
59426,66197
59415,66182
59406,66166
59397,66149
59391,66131
59387,66113
59384,66095
59383,66076
59383,65692
59384,65673
59387,65654
59391,65636
59397,65618
59406,65601
59415,65585
59426,65570
59439,65556
59453,65544
59468,65532
59484,65523
59501,65515
59519,65508
59537,65504
59556,65501
59575,65500
60293,65500
60312,65501
Z" /> 
<path style="fill:#000000; fill-opacity:1.0; 
stroke:#000000; stroke-width:0; stroke-opacity:1; 
stroke-linecap:round; stroke-linejoin:round;fill-rule:evenodd;"
d="M 60312,64024
60331,64027
60349,64032
60367,64038
60384,64046
60400,64056
60415,64067
60429,64080
60442,64094
60453,64109
60463,64125
60471,64142
60477,64160
60482,64178
60484,64197
60485,64215
60485,64599
60484,64618
60482,64637
60477,64655
60471,64673
60463,64690
60453,64706
60442,64721
60429,64735
60415,64748
60400,64759
60384,64769
60367,64777
60349,64783
60331,64788
60312,64790
60293,64791
59575,64791
59556,64790
59537,64788
59519,64783
59501,64777
59484,64769
59468,64759
59453,64748
59439,64735
59426,64721
59415,64706
59406,64690
59397,64673
59391,64655
59387,64637
59384,64618
59383,64599
59383,64215
59384,64197
59387,64178
59391,64160
59397,64142
59406,64125
59415,64109
59426,64094
59439,64080
59453,64067
59468,64056
59484,64046
59501,64038
59519,64032
59537,64027
59556,64024
59575,64024
60293,64024
60312,64024
Z" /> 
</g>
<g >
<path style="fill:#000000; fill-opacity:1.0; 
stroke:#000000; stroke-width:0; stroke-opacity:1; 
stroke-linecap:round; stroke-linejoin:round;fill-rule:evenodd;"
d="M 67312,65501
67331,65504
67349,65508
67367,65515
67384,65523
67400,65532
67415,65544
67429,65556
67442,65570
67453,65585
67463,65601
67471,65618
67477,65636
67482,65654
67484,65673
67485,65692
67485,66076
67484,66095
67482,66113
67477,66131
67471,66149
67463,66166
67453,66182
67442,66197
67429,66211
67415,66224
67400,66235
67384,66245
67367,66253
67349,66259
67331,66264
67312,66267
67293,66268
66575,66268
66556,66267
66537,66264
66519,66259
66501,66253
66484,66245
66468,66235
66453,66224
66439,66211
66426,66197
66415,66182
66406,66166
66397,66149
66391,66131
66387,66113
66384,66095
66383,66076
66383,65692
66384,65673
66387,65654
66391,65636
66397,65618
66406,65601
66415,65585
66426,65570
66439,65556
66453,65544
66468,65532
66484,65523
66501,65515
66519,65508
66537,65504
66556,65501
66575,65500
67293,65500
67312,65501
Z" /> 
<path style="fill:#000000; fill-opacity:1.0; 
stroke:#000000; stroke-width:0; stroke-opacity:1; 
stroke-linecap:round; stroke-linejoin:round;fill-rule:evenodd;"
d="M 67312,64024
67331,64027
67349,64032
67367,64038
67384,64046
67400,64056
67415,64067
67429,64080
67442,64094
67453,64109
67463,64125
67471,64142
67477,64160
67482,64178
67484,64197
67485,64215
67485,64599
67484,64618
67482,64637
67477,64655
67471,64673
67463,64690
67453,64706
67442,64721
67429,64735
67415,64748
67400,64759
67384,64769
67367,64777
67349,64783
67331,64788
67312,64790
67293,64791
66575,64791
66556,64790
66537,64788
66519,64783
66501,64777
66484,64769
66468,64759
66453,64748
66439,64735
66426,64721
66415,64706
66406,64690
66397,64673
66391,64655
66387,64637
66384,64618
66383,64599
66383,64215
66384,64197
66387,64178
66391,64160
66397,64142
66406,64125
66415,64109
66426,64094
66439,64080
66453,64067
66468,64056
66484,64046
66501,64038
66519,64032
66537,64027
66556,64024
66575,64024
67293,64024
67312,64024
Z" /> 
</g>
<g >
<path style="fill:#000000; fill-opacity:1.0; 
stroke:#000000; stroke-width:0; stroke-opacity:1; 
stroke-linecap:round; stroke-linejoin:round;fill-rule:evenodd;"
d="M 81312,65501
81331,65504
81349,65508
81367,65515
81384,65523
81400,65532
81415,65544
81429,65556
81442,65570
81453,65585
81463,65601
81471,65618
81477,65636
81482,65654
81484,65673
81485,65692
81485,66076
81484,66095
81482,66113
81477,66131
81471,66149
81463,66166
81453,66182
81442,66197
81429,66211
81415,66224
81400,66235
81384,66245
81367,66253
81349,66259
81331,66264
81312,66267
81293,66268
80575,66268
80556,66267
80537,66264
80519,66259
80501,66253
80484,66245
80468,66235
80453,66224
80439,66211
80426,66197
80415,66182
80406,66166
80397,66149
80391,66131
80387,66113
80384,66095
80383,66076
80383,65692
80384,65673
80387,65654
80391,65636
80397,65618
80406,65601
80415,65585
80426,65570
80439,65556
80453,65544
80468,65532
80484,65523
80501,65515
80519,65508
80537,65504
80556,65501
80575,65500
81293,65500
81312,65501
Z" /> 
<path style="fill:#000000; fill-opacity:1.0; 
stroke:#000000; stroke-width:0; stroke-opacity:1; 
stroke-linecap:round; stroke-linejoin:round;fill-rule:evenodd;"
d="M 81312,64024
81331,64027
81349,64032
81367,64038
81384,64046
81400,64056
81415,64067
81429,64080
81442,64094
81453,64109
81463,64125
81471,64142
81477,64160
81482,64178
81484,64197
81485,64215
81485,64599
81484,64618
81482,64637
81477,64655
81471,64673
81463,64690
81453,64706
81442,64721
81429,64735
81415,64748
81400,64759
81384,64769
81367,64777
81349,64783
81331,64788
81312,64790
81293,64791
80575,64791
80556,64790
80537,64788
80519,64783
80501,64777
80484,64769
80468,64759
80453,64748
80439,64735
80426,64721
80415,64706
80406,64690
80397,64673
80391,64655
80387,64637
80384,64618
80383,64599
80383,64215
80384,64197
80387,64178
80391,64160
80397,64142
80406,64125
80415,64109
80426,64094
80439,64080
80453,64067
80468,64056
80484,64046
80501,64038
80519,64032
80537,64027
80556,64024
80575,64024
81293,64024
81312,64024
Z" /> 
</g>
<g >
<path style="fill:#000000; fill-opacity:1.0; 
stroke:#000000; stroke-width:0; stroke-opacity:1; 
stroke-linecap:round; stroke-linejoin:round;fill-rule:evenodd;"
d="M 41312,64024
41331,64027
41349,64032
41367,64038
41384,64046
41400,64056
41415,64067
41429,64080
41442,64094
41453,64109
41463,64125
41471,64142
41477,64160
41482,64178
41484,64197
41485,64215
41485,64599
41484,64618
41482,64637
41477,64655
41471,64673
41463,64690
41453,64706
41442,64721
41429,64735
41415,64748
41400,64759
41384,64769
41367,64777
41349,64783
41331,64788
41312,64790
41293,64791
40575,64791
40556,64790
40537,64788
40519,64783
40501,64777
40484,64769
40468,64759
40453,64748
40439,64735
40426,64721
40415,64706
40406,64690
40397,64673
40391,64655
40387,64637
40384,64618
40383,64599
40383,64215
40384,64197
40387,64178
40391,64160
40397,64142
40406,64125
40415,64109
40426,64094
40439,64080
40453,64067
40468,64056
40484,64046
40501,64038
40519,64032
40537,64027
40556,64024
40575,64024
41293,64024
41312,64024
Z" /> 
<path style="fill:#000000; fill-opacity:1.0; 
stroke:#000000; stroke-width:0; stroke-opacity:1; 
stroke-linecap:round; stroke-linejoin:round;fill-rule:evenodd;"
d="M 41312,65501
41331,65504
41349,65508
41367,65515
41384,65523
41400,65532
41415,65544
41429,65556
41442,65570
41453,65585
41463,65601
41471,65618
41477,65636
41482,65654
41484,65673
41485,65692
41485,66076
41484,66095
41482,66113
41477,66131
41471,66149
41463,66166
41453,66182
41442,66197
41429,66211
41415,66224
41400,66235
41384,66245
41367,66253
41349,66259
41331,66264
41312,66267
41293,66268
40575,66268
40556,66267
40537,66264
40519,66259
40501,66253
40484,66245
40468,66235
40453,66224
40439,66211
40426,66197
40415,66182
40406,66166
40397,66149
40391,66131
40387,66113
40384,66095
40383,66076
40383,65692
40384,65673
40387,65654
40391,65636
40397,65618
40406,65601
40415,65585
40426,65570
40439,65556
40453,65544
40468,65532
40484,65523
40501,65515
40519,65508
40537,65504
40556,65501
40575,65500
41293,65500
41312,65501
Z" /> 
</g>
<g >
<path style="fill:#000000; fill-opacity:1.0; 
stroke:#000000; stroke-width:0; stroke-opacity:1; 
stroke-linecap:round; stroke-linejoin:round;fill-rule:evenodd;"
d="M 48312,64024
48331,64027
48349,64032
48367,64038
48384,64046
48400,64056
48415,64067
48429,64080
48442,64094
48453,64109
48463,64125
48471,64142
48477,64160
48482,64178
48484,64197
48485,64215
48485,64599
48484,64618
48482,64637
48477,64655
48471,64673
48463,64690
48453,64706
48442,64721
48429,64735
48415,64748
48400,64759
48384,64769
48367,64777
48349,64783
48331,64788
48312,64790
48293,64791
47575,64791
47556,64790
47537,64788
47519,64783
47501,64777
47484,64769
47468,64759
47453,64748
47439,64735
47426,64721
47415,64706
47406,64690
47397,64673
47391,64655
47387,64637
47384,64618
47383,64599
47383,64215
47384,64197
47387,64178
47391,64160
47397,64142
47406,64125
47415,64109
47426,64094
47439,64080
47453,64067
47468,64056
47484,64046
47501,64038
47519,64032
47537,64027
47556,64024
47575,64024
48293,64024
48312,64024
Z" /> 
<path style="fill:#000000; fill-opacity:1.0; 
stroke:#000000; stroke-width:0; stroke-opacity:1; 
stroke-linecap:round; stroke-linejoin:round;fill-rule:evenodd;"
d="M 48312,65501
48331,65504
48349,65508
48367,65515
48384,65523
48400,65532
48415,65544
48429,65556
48442,65570
48453,65585
48463,65601
48471,65618
48477,65636
48482,65654
48484,65673
48485,65692
48485,66076
48484,66095
48482,66113
48477,66131
48471,66149
48463,66166
48453,66182
48442,66197
48429,66211
48415,66224
48400,66235
48384,66245
48367,66253
48349,66259
48331,66264
48312,66267
48293,66268
47575,66268
47556,66267
47537,66264
47519,66259
47501,66253
47484,66245
47468,66235
47453,66224
47439,66211
47426,66197
47415,66182
47406,66166
47397,66149
47391,66131
47387,66113
47384,66095
47383,66076
47383,65692
47384,65673
47387,65654
47391,65636
47397,65618
47406,65601
47415,65585
47426,65570
47439,65556
47453,65544
47468,65532
47484,65523
47501,65515
47519,65508
47537,65504
47556,65501
47575,65500
48293,65500
48312,65501
Z" /> 
</g>
<g >
<path style="fill:#000000; fill-opacity:1.0; 
stroke:#000000; stroke-width:0; stroke-opacity:1; 
stroke-linecap:round; stroke-linejoin:round;fill-rule:evenodd;"
d="M 55312,64024
55331,64027
55349,64032
55367,64038
55384,64046
55400,64056
55415,64067
55429,64080
55442,64094
55453,64109
55463,64125
55471,64142
55477,64160
55482,64178
55484,64197
55485,64215
55485,64599
55484,64618
55482,64637
55477,64655
55471,64673
55463,64690
55453,64706
55442,64721
55429,64735
55415,64748
55400,64759
55384,64769
55367,64777
55349,64783
55331,64788
55312,64790
55293,64791
54575,64791
54556,64790
54537,64788
54519,64783
54501,64777
54484,64769
54468,64759
54453,64748
54439,64735
54426,64721
54415,64706
54406,64690
54397,64673
54391,64655
54387,64637
54384,64618
54383,64599
54383,64215
54384,64197
54387,64178
54391,64160
54397,64142
54406,64125
54415,64109
54426,64094
54439,64080
54453,64067
54468,64056
54484,64046
54501,64038
54519,64032
54537,64027
54556,64024
54575,64024
55293,64024
55312,64024
Z" /> 
<path style="fill:#000000; fill-opacity:1.0; 
stroke:#000000; stroke-width:0; stroke-opacity:1; 
stroke-linecap:round; stroke-linejoin:round;fill-rule:evenodd;"
d="M 55312,65501
55331,65504
55349,65508
55367,65515
55384,65523
55400,65532
55415,65544
55429,65556
55442,65570
55453,65585
55463,65601
55471,65618
55477,65636
55482,65654
55484,65673
55485,65692
55485,66076
55484,66095
55482,66113
55477,66131
55471,66149
55463,66166
55453,66182
55442,66197
55429,66211
55415,66224
55400,66235
55384,66245
55367,66253
55349,66259
55331,66264
55312,66267
55293,66268
54575,66268
54556,66267
54537,66264
54519,66259
54501,66253
54484,66245
54468,66235
54453,66224
54439,66211
54426,66197
54415,66182
54406,66166
54397,66149
54391,66131
54387,66113
54384,66095
54383,66076
54383,65692
54384,65673
54387,65654
54391,65636
54397,65618
54406,65601
54415,65585
54426,65570
54439,65556
54453,65544
54468,65532
54484,65523
54501,65515
54519,65508
54537,65504
54556,65501
54575,65500
55293,65500
55312,65501
Z" /> 
</g>
<g >
<path style="fill:#000000; fill-opacity:1.0; 
stroke:#000000; stroke-width:0; stroke-opacity:1; 
stroke-linecap:round; stroke-linejoin:round;fill-rule:evenodd;"
d="M 69312,64024
69331,64027
69349,64032
69367,64038
69384,64046
69400,64056
69415,64067
69429,64080
69442,64094
69453,64109
69463,64125
69471,64142
69477,64160
69482,64178
69484,64197
69485,64215
69485,64599
69484,64618
69482,64637
69477,64655
69471,64673
69463,64690
69453,64706
69442,64721
69429,64735
69415,64748
69400,64759
69384,64769
69367,64777
69349,64783
69331,64788
69312,64790
69293,64791
68575,64791
68556,64790
68537,64788
68519,64783
68501,64777
68484,64769
68468,64759
68453,64748
68439,64735
68426,64721
68415,64706
68406,64690
68397,64673
68391,64655
68387,64637
68384,64618
68383,64599
68383,64215
68384,64197
68387,64178
68391,64160
68397,64142
68406,64125
68415,64109
68426,64094
68439,64080
68453,64067
68468,64056
68484,64046
68501,64038
68519,64032
68537,64027
68556,64024
68575,64024
69293,64024
69312,64024
Z" /> 
<path style="fill:#000000; fill-opacity:1.0; 
stroke:#000000; stroke-width:0; stroke-opacity:1; 
stroke-linecap:round; stroke-linejoin:round;fill-rule:evenodd;"
d="M 69312,65501
69331,65504
69349,65508
69367,65515
69384,65523
69400,65532
69415,65544
69429,65556
69442,65570
69453,65585
69463,65601
69471,65618
69477,65636
69482,65654
69484,65673
69485,65692
69485,66076
69484,66095
69482,66113
69477,66131
69471,66149
69463,66166
69453,66182
69442,66197
69429,66211
69415,66224
69400,66235
69384,66245
69367,66253
69349,66259
69331,66264
69312,66267
69293,66268
68575,66268
68556,66267
68537,66264
68519,66259
68501,66253
68484,66245
68468,66235
68453,66224
68439,66211
68426,66197
68415,66182
68406,66166
68397,66149
68391,66131
68387,66113
68384,66095
68383,66076
68383,65692
68384,65673
68387,65654
68391,65636
68397,65618
68406,65601
68415,65585
68426,65570
68439,65556
68453,65544
68468,65532
68484,65523
68501,65515
68519,65508
68537,65504
68556,65501
68575,65500
69293,65500
69312,65501
Z" /> 
</g>
<g >
<path style="fill:#000000; fill-opacity:1.0; 
stroke:#000000; stroke-width:0; stroke-opacity:1; 
stroke-linecap:round; stroke-linejoin:round;fill-rule:evenodd;"
d="M 76312,64024
76331,64027
76349,64032
76367,64038
76384,64046
76400,64056
76415,64067
76429,64080
76442,64094
76453,64109
76463,64125
76471,64142
76477,64160
76482,64178
76484,64197
76485,64215
76485,64599
76484,64618
76482,64637
76477,64655
76471,64673
76463,64690
76453,64706
76442,64721
76429,64735
76415,64748
76400,64759
76384,64769
76367,64777
76349,64783
76331,64788
76312,64790
76293,64791
75575,64791
75556,64790
75537,64788
75519,64783
75501,64777
75484,64769
75468,64759
75453,64748
75439,64735
75426,64721
75415,64706
75406,64690
75397,64673
75391,64655
75387,64637
75384,64618
75383,64599
75383,64215
75384,64197
75387,64178
75391,64160
75397,64142
75406,64125
75415,64109
75426,64094
75439,64080
75453,64067
75468,64056
75484,64046
75501,64038
75519,64032
75537,64027
75556,64024
75575,64024
76293,64024
76312,64024
Z" /> 
<path style="fill:#000000; fill-opacity:1.0; 
stroke:#000000; stroke-width:0; stroke-opacity:1; 
stroke-linecap:round; stroke-linejoin:round;fill-rule:evenodd;"
d="M 76312,65501
76331,65504
76349,65508
76367,65515
76384,65523
76400,65532
76415,65544
76429,65556
76442,65570
76453,65585
76463,65601
76471,65618
76477,65636
76482,65654
76484,65673
76485,65692
76485,66076
76484,66095
76482,66113
76477,66131
76471,66149
76463,66166
76453,66182
76442,66197
76429,66211
76415,66224
76400,66235
76384,66245
76367,66253
76349,66259
76331,66264
76312,66267
76293,66268
75575,66268
75556,66267
75537,66264
75519,66259
75501,66253
75484,66245
75468,66235
75453,66224
75439,66211
75426,66197
75415,66182
75406,66166
75397,66149
75391,66131
75387,66113
75384,66095
75383,66076
75383,65692
75384,65673
75387,65654
75391,65636
75397,65618
75406,65601
75415,65585
75426,65570
75439,65556
75453,65544
75468,65532
75484,65523
75501,65515
75519,65508
75537,65504
75556,65501
75575,65500
76293,65500
76312,65501
Z" /> 
</g>
<g >
<path style="fill:#000000; fill-opacity:1.0; 
stroke:#000000; stroke-width:0; stroke-opacity:1; 
stroke-linecap:round; stroke-linejoin:round;fill-rule:evenodd;"
d="M 83312,64024
83331,64027
83349,64032
83367,64038
83384,64046
83400,64056
83415,64067
83429,64080
83442,64094
83453,64109
83463,64125
83471,64142
83477,64160
83482,64178
83484,64197
83485,64215
83485,64599
83484,64618
83482,64637
83477,64655
83471,64673
83463,64690
83453,64706
83442,64721
83429,64735
83415,64748
83400,64759
83384,64769
83367,64777
83349,64783
83331,64788
83312,64790
83293,64791
82575,64791
82556,64790
82537,64788
82519,64783
82501,64777
82484,64769
82468,64759
82453,64748
82439,64735
82426,64721
82415,64706
82406,64690
82397,64673
82391,64655
82387,64637
82384,64618
82383,64599
82383,64215
82384,64197
82387,64178
82391,64160
82397,64142
82406,64125
82415,64109
82426,64094
82439,64080
82453,64067
82468,64056
82484,64046
82501,64038
82519,64032
82537,64027
82556,64024
82575,64024
83293,64024
83312,64024
Z" /> 
<path style="fill:#000000; fill-opacity:1.0; 
stroke:#000000; stroke-width:0; stroke-opacity:1; 
stroke-linecap:round; stroke-linejoin:round;fill-rule:evenodd;"
d="M 83312,65501
83331,65504
83349,65508
83367,65515
83384,65523
83400,65532
83415,65544
83429,65556
83442,65570
83453,65585
83463,65601
83471,65618
83477,65636
83482,65654
83484,65673
83485,65692
83485,66076
83484,66095
83482,66113
83477,66131
83471,66149
83463,66166
83453,66182
83442,66197
83429,66211
83415,66224
83400,66235
83384,66245
83367,66253
83349,66259
83331,66264
83312,66267
83293,66268
82575,66268
82556,66267
82537,66264
82519,66259
82501,66253
82484,66245
82468,66235
82453,66224
82439,66211
82426,66197
82415,66182
82406,66166
82397,66149
82391,66131
82387,66113
82384,66095
82383,66076
82383,65692
82384,65673
82387,65654
82391,65636
82397,65618
82406,65601
82415,65585
82426,65570
82439,65556
82453,65544
82468,65532
82484,65523
82501,65515
82519,65508
82537,65504
82556,65501
82575,65500
83293,65500
83312,65501
Z" /> 
</g>
<g >
<path style="fill:#000000; fill-opacity:1.0; 
stroke:#000000; stroke-width:0; stroke-opacity:1; 
stroke-linecap:round; stroke-linejoin:round;fill-rule:evenodd;"
d="M 33883,62195
33902,62198
33920,62203
33938,62209
33955,62217
33971,62227
33986,62238
34000,62251
34013,62265
34024,62280
34033,62296
34042,62313
34048,62331
34052,62349
34055,62368
34056,62386
34056,63105
34055,63124
34052,63142
34048,63161
34042,63178
34033,63195
34024,63211
34013,63227
34000,63241
33986,63253
33971,63264
33955,63274
33938,63282
33920,63289
33902,63293
33883,63296
33864,63297
33480,63297
33462,63296
33443,63293
33425,63289
33407,63282
33390,63274
33374,63264
33359,63253
33345,63241
33332,63227
33321,63211
33311,63195
33303,63178
33297,63161
33292,63142
33289,63124
33288,63105
33288,62386
33289,62368
33292,62349
33297,62331
33303,62313
33311,62296
33321,62280
33332,62265
33345,62251
33359,62238
33374,62227
33390,62217
33407,62209
33425,62203
33443,62198
33462,62195
33480,62194
33864,62194
33883,62195
Z" /> 
<path style="fill:#000000; fill-opacity:1.0; 
stroke:#000000; stroke-width:0; stroke-opacity:1; 
stroke-linecap:round; stroke-linejoin:round;fill-rule:evenodd;"
d="M 32407,62195
32425,62198
32444,62203
32461,62209
32478,62217
32494,62227
32510,62238
32524,62251
32536,62265
32547,62280
32557,62296
32565,62313
32571,62331
32576,62349
32579,62368
32580,62386
32580,63105
32579,63124
32576,63142
32571,63161
32565,63178
32557,63195
32547,63211
32536,63227
32524,63241
32510,63253
32494,63264
32478,63274
32461,63282
32444,63289
32425,63293
32407,63296
32388,63297
32004,63297
31985,63296
31967,63293
31948,63289
31931,63282
31913,63274
31897,63264
31882,63253
31868,63241
31856,63227
31844,63211
31835,63195
31827,63178
31820,63161
31816,63142
31813,63124
31812,63105
31812,62386
31813,62368
31816,62349
31820,62331
31827,62313
31835,62296
31844,62280
31856,62265
31868,62251
31882,62238
31897,62227
31913,62217
31931,62209
31948,62203
31967,62198
31985,62195
32004,62194
32388,62194
32407,62195
Z" /> 
</g>
<g >
<path style="fill:#000000; fill-opacity:1.0; 
stroke:#000000; stroke-width:0; stroke-opacity:1; 
stroke-linecap:round; stroke-linejoin:round;fill-rule:evenodd;"
d="M 68883,62195
68902,62198
68920,62203
68938,62209
68955,62217
68971,62227
68986,62238
69000,62251
69013,62265
69024,62280
69033,62296
69042,62313
69048,62331
69052,62349
69055,62368
69056,62386
69056,63105
69055,63124
69052,63142
69048,63161
69042,63178
69033,63195
69024,63211
69013,63227
69000,63241
68986,63253
68971,63264
68955,63274
68938,63282
68920,63289
68902,63293
68883,63296
68864,63297
68480,63297
68462,63296
68443,63293
68425,63289
68407,63282
68390,63274
68374,63264
68359,63253
68345,63241
68332,63227
68321,63211
68311,63195
68303,63178
68297,63161
68292,63142
68289,63124
68288,63105
68288,62386
68289,62368
68292,62349
68297,62331
68303,62313
68311,62296
68321,62280
68332,62265
68345,62251
68359,62238
68374,62227
68390,62217
68407,62209
68425,62203
68443,62198
68462,62195
68480,62194
68864,62194
68883,62195
Z" /> 
<path style="fill:#000000; fill-opacity:1.0; 
stroke:#000000; stroke-width:0; stroke-opacity:1; 
stroke-linecap:round; stroke-linejoin:round;fill-rule:evenodd;"
d="M 67407,62195
67425,62198
67444,62203
67461,62209
67478,62217
67494,62227
67510,62238
67524,62251
67536,62265
67547,62280
67557,62296
67565,62313
67571,62331
67576,62349
67579,62368
67580,62386
67580,63105
67579,63124
67576,63142
67571,63161
67565,63178
67557,63195
67547,63211
67536,63227
67524,63241
67510,63253
67494,63264
67478,63274
67461,63282
67444,63289
67425,63293
67407,63296
67388,63297
67004,63297
66985,63296
66967,63293
66948,63289
66931,63282
66913,63274
66897,63264
66882,63253
66868,63241
66856,63227
66844,63211
66835,63195
66827,63178
66820,63161
66816,63142
66813,63124
66812,63105
66812,62386
66813,62368
66816,62349
66820,62331
66827,62313
66835,62296
66844,62280
66856,62265
66868,62251
66882,62238
66897,62227
66913,62217
66931,62209
66948,62203
66967,62198
66985,62195
67004,62194
67388,62194
67407,62195
Z" /> 
</g>
<g >
<path style="fill:#000000; fill-opacity:1.0; 
stroke:#000000; stroke-width:0; stroke-opacity:1; 
stroke-linecap:round; stroke-linejoin:round;fill-rule:evenodd;"
d="M 61883,62195
61902,62198
61920,62203
61938,62209
61955,62217
61971,62227
61986,62238
62000,62251
62013,62265
62024,62280
62033,62296
62042,62313
62048,62331
62052,62349
62055,62368
62056,62386
62056,63105
62055,63124
62052,63142
62048,63161
62042,63178
62033,63195
62024,63211
62013,63227
62000,63241
61986,63253
61971,63264
61955,63274
61938,63282
61920,63289
61902,63293
61883,63296
61864,63297
61480,63297
61462,63296
61443,63293
61425,63289
61407,63282
61390,63274
61374,63264
61359,63253
61345,63241
61332,63227
61321,63211
61311,63195
61303,63178
61297,63161
61292,63142
61289,63124
61288,63105
61288,62386
61289,62368
61292,62349
61297,62331
61303,62313
61311,62296
61321,62280
61332,62265
61345,62251
61359,62238
61374,62227
61390,62217
61407,62209
61425,62203
61443,62198
61462,62195
61480,62194
61864,62194
61883,62195
Z" /> 
<path style="fill:#000000; fill-opacity:1.0; 
stroke:#000000; stroke-width:0; stroke-opacity:1; 
stroke-linecap:round; stroke-linejoin:round;fill-rule:evenodd;"
d="M 60407,62195
60425,62198
60444,62203
60461,62209
60478,62217
60494,62227
60510,62238
60524,62251
60536,62265
60547,62280
60557,62296
60565,62313
60571,62331
60576,62349
60579,62368
60580,62386
60580,63105
60579,63124
60576,63142
60571,63161
60565,63178
60557,63195
60547,63211
60536,63227
60524,63241
60510,63253
60494,63264
60478,63274
60461,63282
60444,63289
60425,63293
60407,63296
60388,63297
60004,63297
59985,63296
59967,63293
59948,63289
59931,63282
59913,63274
59897,63264
59882,63253
59868,63241
59856,63227
59844,63211
59835,63195
59827,63178
59820,63161
59816,63142
59813,63124
59812,63105
59812,62386
59813,62368
59816,62349
59820,62331
59827,62313
59835,62296
59844,62280
59856,62265
59868,62251
59882,62238
59897,62227
59913,62217
59931,62209
59948,62203
59967,62198
59985,62195
60004,62194
60388,62194
60407,62195
Z" /> 
</g>
<g >
<path style="fill:#000000; fill-opacity:1.0; 
stroke:#000000; stroke-width:0; stroke-opacity:1; 
stroke-linecap:round; stroke-linejoin:round;fill-rule:evenodd;"
d="M 40883,62195
40902,62198
40920,62203
40938,62209
40955,62217
40971,62227
40986,62238
41000,62251
41013,62265
41024,62280
41033,62296
41042,62313
41048,62331
41052,62349
41055,62368
41056,62386
41056,63105
41055,63124
41052,63142
41048,63161
41042,63178
41033,63195
41024,63211
41013,63227
41000,63241
40986,63253
40971,63264
40955,63274
40938,63282
40920,63289
40902,63293
40883,63296
40864,63297
40480,63297
40462,63296
40443,63293
40425,63289
40407,63282
40390,63274
40374,63264
40359,63253
40345,63241
40332,63227
40321,63211
40311,63195
40303,63178
40297,63161
40292,63142
40289,63124
40288,63105
40288,62386
40289,62368
40292,62349
40297,62331
40303,62313
40311,62296
40321,62280
40332,62265
40345,62251
40359,62238
40374,62227
40390,62217
40407,62209
40425,62203
40443,62198
40462,62195
40480,62194
40864,62194
40883,62195
Z" /> 
<path style="fill:#000000; fill-opacity:1.0; 
stroke:#000000; stroke-width:0; stroke-opacity:1; 
stroke-linecap:round; stroke-linejoin:round;fill-rule:evenodd;"
d="M 39407,62195
39425,62198
39444,62203
39461,62209
39478,62217
39494,62227
39510,62238
39524,62251
39536,62265
39547,62280
39557,62296
39565,62313
39571,62331
39576,62349
39579,62368
39580,62386
39580,63105
39579,63124
39576,63142
39571,63161
39565,63178
39557,63195
39547,63211
39536,63227
39524,63241
39510,63253
39494,63264
39478,63274
39461,63282
39444,63289
39425,63293
39407,63296
39388,63297
39004,63297
38985,63296
38967,63293
38948,63289
38931,63282
38913,63274
38897,63264
38882,63253
38868,63241
38856,63227
38844,63211
38835,63195
38827,63178
38820,63161
38816,63142
38813,63124
38812,63105
38812,62386
38813,62368
38816,62349
38820,62331
38827,62313
38835,62296
38844,62280
38856,62265
38868,62251
38882,62238
38897,62227
38913,62217
38931,62209
38948,62203
38967,62198
38985,62195
39004,62194
39388,62194
39407,62195
Z" /> 
</g>
<g >
<path style="fill:#000000; fill-opacity:1.0; 
stroke:#000000; stroke-width:0; stroke-opacity:1; 
stroke-linecap:round; stroke-linejoin:round;fill-rule:evenodd;"
d="M 47883,62195
47902,62198
47920,62203
47938,62209
47955,62217
47971,62227
47986,62238
48000,62251
48013,62265
48024,62280
48033,62296
48042,62313
48048,62331
48052,62349
48055,62368
48056,62386
48056,63105
48055,63124
48052,63142
48048,63161
48042,63178
48033,63195
48024,63211
48013,63227
48000,63241
47986,63253
47971,63264
47955,63274
47938,63282
47920,63289
47902,63293
47883,63296
47864,63297
47480,63297
47462,63296
47443,63293
47425,63289
47407,63282
47390,63274
47374,63264
47359,63253
47345,63241
47332,63227
47321,63211
47311,63195
47303,63178
47297,63161
47292,63142
47289,63124
47288,63105
47288,62386
47289,62368
47292,62349
47297,62331
47303,62313
47311,62296
47321,62280
47332,62265
47345,62251
47359,62238
47374,62227
47390,62217
47407,62209
47425,62203
47443,62198
47462,62195
47480,62194
47864,62194
47883,62195
Z" /> 
<path style="fill:#000000; fill-opacity:1.0; 
stroke:#000000; stroke-width:0; stroke-opacity:1; 
stroke-linecap:round; stroke-linejoin:round;fill-rule:evenodd;"
d="M 46407,62195
46425,62198
46444,62203
46461,62209
46478,62217
46494,62227
46510,62238
46524,62251
46536,62265
46547,62280
46557,62296
46565,62313
46571,62331
46576,62349
46579,62368
46580,62386
46580,63105
46579,63124
46576,63142
46571,63161
46565,63178
46557,63195
46547,63211
46536,63227
46524,63241
46510,63253
46494,63264
46478,63274
46461,63282
46444,63289
46425,63293
46407,63296
46388,63297
46004,63297
45985,63296
45967,63293
45948,63289
45931,63282
45913,63274
45897,63264
45882,63253
45868,63241
45856,63227
45844,63211
45835,63195
45827,63178
45820,63161
45816,63142
45813,63124
45812,63105
45812,62386
45813,62368
45816,62349
45820,62331
45827,62313
45835,62296
45844,62280
45856,62265
45868,62251
45882,62238
45897,62227
45913,62217
45931,62209
45948,62203
45967,62198
45985,62195
46004,62194
46388,62194
46407,62195
Z" /> 
</g>
<g >
<path style="fill:#000000; fill-opacity:1.0; 
stroke:#000000; stroke-width:0; stroke-opacity:1; 
stroke-linecap:round; stroke-linejoin:round;fill-rule:evenodd;"
d="M 54883,62195
54902,62198
54920,62203
54938,62209
54955,62217
54971,62227
54986,62238
55000,62251
55013,62265
55024,62280
55033,62296
55042,62313
55048,62331
55052,62349
55055,62368
55056,62386
55056,63105
55055,63124
55052,63142
55048,63161
55042,63178
55033,63195
55024,63211
55013,63227
55000,63241
54986,63253
54971,63264
54955,63274
54938,63282
54920,63289
54902,63293
54883,63296
54864,63297
54480,63297
54462,63296
54443,63293
54425,63289
54407,63282
54390,63274
54374,63264
54359,63253
54345,63241
54332,63227
54321,63211
54311,63195
54303,63178
54297,63161
54292,63142
54289,63124
54288,63105
54288,62386
54289,62368
54292,62349
54297,62331
54303,62313
54311,62296
54321,62280
54332,62265
54345,62251
54359,62238
54374,62227
54390,62217
54407,62209
54425,62203
54443,62198
54462,62195
54480,62194
54864,62194
54883,62195
Z" /> 
<path style="fill:#000000; fill-opacity:1.0; 
stroke:#000000; stroke-width:0; stroke-opacity:1; 
stroke-linecap:round; stroke-linejoin:round;fill-rule:evenodd;"
d="M 53407,62195
53425,62198
53444,62203
53461,62209
53478,62217
53494,62227
53510,62238
53524,62251
53536,62265
53547,62280
53557,62296
53565,62313
53571,62331
53576,62349
53579,62368
53580,62386
53580,63105
53579,63124
53576,63142
53571,63161
53565,63178
53557,63195
53547,63211
53536,63227
53524,63241
53510,63253
53494,63264
53478,63274
53461,63282
53444,63289
53425,63293
53407,63296
53388,63297
53004,63297
52985,63296
52967,63293
52948,63289
52931,63282
52913,63274
52897,63264
52882,63253
52868,63241
52856,63227
52844,63211
52835,63195
52827,63178
52820,63161
52816,63142
52813,63124
52812,63105
52812,62386
52813,62368
52816,62349
52820,62331
52827,62313
52835,62296
52844,62280
52856,62265
52868,62251
52882,62238
52897,62227
52913,62217
52931,62209
52948,62203
52967,62198
52985,62195
53004,62194
53388,62194
53407,62195
Z" /> 
</g>
<g >
<path style="fill:#000000; fill-opacity:1.0; 
stroke:#000000; stroke-width:0; stroke-opacity:1; 
stroke-linecap:round; stroke-linejoin:round;fill-rule:evenodd;"
d="M 75883,62195
75902,62198
75920,62203
75938,62209
75955,62217
75971,62227
75986,62238
76000,62251
76013,62265
76024,62280
76033,62296
76042,62313
76048,62331
76052,62349
76055,62368
76056,62386
76056,63105
76055,63124
76052,63142
76048,63161
76042,63178
76033,63195
76024,63211
76013,63227
76000,63241
75986,63253
75971,63264
75955,63274
75938,63282
75920,63289
75902,63293
75883,63296
75864,63297
75480,63297
75462,63296
75443,63293
75425,63289
75407,63282
75390,63274
75374,63264
75359,63253
75345,63241
75332,63227
75321,63211
75311,63195
75303,63178
75297,63161
75292,63142
75289,63124
75288,63105
75288,62386
75289,62368
75292,62349
75297,62331
75303,62313
75311,62296
75321,62280
75332,62265
75345,62251
75359,62238
75374,62227
75390,62217
75407,62209
75425,62203
75443,62198
75462,62195
75480,62194
75864,62194
75883,62195
Z" /> 
<path style="fill:#000000; fill-opacity:1.0; 
stroke:#000000; stroke-width:0; stroke-opacity:1; 
stroke-linecap:round; stroke-linejoin:round;fill-rule:evenodd;"
d="M 74407,62195
74425,62198
74444,62203
74461,62209
74478,62217
74494,62227
74510,62238
74524,62251
74536,62265
74547,62280
74557,62296
74565,62313
74571,62331
74576,62349
74579,62368
74580,62386
74580,63105
74579,63124
74576,63142
74571,63161
74565,63178
74557,63195
74547,63211
74536,63227
74524,63241
74510,63253
74494,63264
74478,63274
74461,63282
74444,63289
74425,63293
74407,63296
74388,63297
74004,63297
73985,63296
73967,63293
73948,63289
73931,63282
73913,63274
73897,63264
73882,63253
73868,63241
73856,63227
73844,63211
73835,63195
73827,63178
73820,63161
73816,63142
73813,63124
73812,63105
73812,62386
73813,62368
73816,62349
73820,62331
73827,62313
73835,62296
73844,62280
73856,62265
73868,62251
73882,62238
73897,62227
73913,62217
73931,62209
73948,62203
73967,62198
73985,62195
74004,62194
74388,62194
74407,62195
Z" /> 
</g>
<g >
<path style="fill:#000000; fill-opacity:1.0; 
stroke:#000000; stroke-width:0; stroke-opacity:1; 
stroke-linecap:round; stroke-linejoin:round;fill-rule:evenodd;"
d="M 82883,62195
82902,62198
82920,62203
82938,62209
82955,62217
82971,62227
82986,62238
83000,62251
83013,62265
83024,62280
83033,62296
83042,62313
83048,62331
83052,62349
83055,62368
83056,62386
83056,63105
83055,63124
83052,63142
83048,63161
83042,63178
83033,63195
83024,63211
83013,63227
83000,63241
82986,63253
82971,63264
82955,63274
82938,63282
82920,63289
82902,63293
82883,63296
82864,63297
82480,63297
82462,63296
82443,63293
82425,63289
82407,63282
82390,63274
82374,63264
82359,63253
82345,63241
82332,63227
82321,63211
82311,63195
82303,63178
82297,63161
82292,63142
82289,63124
82288,63105
82288,62386
82289,62368
82292,62349
82297,62331
82303,62313
82311,62296
82321,62280
82332,62265
82345,62251
82359,62238
82374,62227
82390,62217
82407,62209
82425,62203
82443,62198
82462,62195
82480,62194
82864,62194
82883,62195
Z" /> 
<path style="fill:#000000; fill-opacity:1.0; 
stroke:#000000; stroke-width:0; stroke-opacity:1; 
stroke-linecap:round; stroke-linejoin:round;fill-rule:evenodd;"
d="M 81407,62195
81425,62198
81444,62203
81461,62209
81478,62217
81494,62227
81510,62238
81524,62251
81536,62265
81547,62280
81557,62296
81565,62313
81571,62331
81576,62349
81579,62368
81580,62386
81580,63105
81579,63124
81576,63142
81571,63161
81565,63178
81557,63195
81547,63211
81536,63227
81524,63241
81510,63253
81494,63264
81478,63274
81461,63282
81444,63289
81425,63293
81407,63296
81388,63297
81004,63297
80985,63296
80967,63293
80948,63289
80931,63282
80913,63274
80897,63264
80882,63253
80868,63241
80856,63227
80844,63211
80835,63195
80827,63178
80820,63161
80816,63142
80813,63124
80812,63105
80812,62386
80813,62368
80816,62349
80820,62331
80827,62313
80835,62296
80844,62280
80856,62265
80868,62251
80882,62238
80897,62227
80913,62217
80931,62209
80948,62203
80967,62198
80985,62195
81004,62194
81388,62194
81407,62195
Z" /> 
</g>
<g >
<path style="fill:#000000; fill-opacity:1.0; 
stroke:#000000; stroke-width:0; stroke-opacity:1; 
stroke-linecap:round; stroke-linejoin:round;fill-rule:evenodd;"
d="M 38607,14695
38625,14698
38644,14703
38661,14709
38678,14717
38694,14727
38710,14738
38724,14751
38736,14765
38747,14780
38757,14796
38765,14813
38771,14831
38776,14849
38779,14868
38780,14886
38780,15605
38779,15624
38776,15642
38771,15661
38765,15678
38757,15695
38747,15711
38736,15727
38724,15741
38710,15753
38694,15764
38678,15774
38661,15782
38644,15789
38625,15793
38607,15796
38588,15797
38204,15797
38185,15796
38167,15793
38148,15789
38131,15782
38113,15774
38097,15764
38082,15753
38068,15741
38056,15727
38044,15711
38035,15695
38027,15678
38020,15661
38016,15642
38013,15624
38012,15605
38012,14886
38013,14868
38016,14849
38020,14831
38027,14813
38035,14796
38044,14780
38056,14765
38068,14751
38082,14738
38097,14727
38113,14717
38131,14709
38148,14703
38167,14698
38185,14695
38204,14694
38588,14694
38607,14695
Z" /> 
<path style="fill:#000000; fill-opacity:1.0; 
stroke:#000000; stroke-width:0; stroke-opacity:1; 
stroke-linecap:round; stroke-linejoin:round;fill-rule:evenodd;"
d="M 40083,14695
40102,14698
40120,14703
40138,14709
40155,14717
40171,14727
40186,14738
40200,14751
40213,14765
40224,14780
40233,14796
40242,14813
40248,14831
40252,14849
40255,14868
40256,14886
40256,15605
40255,15624
40252,15642
40248,15661
40242,15678
40233,15695
40224,15711
40213,15727
40200,15741
40186,15753
40171,15764
40155,15774
40138,15782
40120,15789
40102,15793
40083,15796
40064,15797
39680,15797
39662,15796
39643,15793
39625,15789
39607,15782
39590,15774
39574,15764
39559,15753
39545,15741
39532,15727
39521,15711
39511,15695
39503,15678
39497,15661
39492,15642
39489,15624
39488,15605
39488,14886
39489,14868
39492,14849
39497,14831
39503,14813
39511,14796
39521,14780
39532,14765
39545,14751
39559,14738
39574,14727
39590,14717
39607,14709
39625,14703
39643,14698
39662,14695
39680,14694
40064,14694
40083,14695
Z" /> 
</g>
<g >
<path style="fill:#000000; fill-opacity:1.0; 
stroke:#000000; stroke-width:0; stroke-opacity:1; 
stroke-linecap:round; stroke-linejoin:round;fill-rule:evenodd;"
d="M 67412,43301
67431,43304
67449,43308
67467,43315
67484,43323
67500,43332
67515,43344
67529,43356
67542,43370
67553,43385
67563,43401
67571,43418
67577,43436
67582,43454
67584,43473
67585,43492
67585,43876
67584,43895
67582,43913
67577,43931
67571,43949
67563,43966
67553,43982
67542,43997
67529,44011
67515,44024
67500,44035
67484,44045
67467,44053
67449,44059
67431,44064
67412,44067
67393,44068
66675,44068
66656,44067
66637,44064
66619,44059
66601,44053
66584,44045
66568,44035
66553,44024
66539,44011
66526,43997
66515,43982
66506,43966
66497,43949
66491,43931
66487,43913
66484,43895
66483,43876
66483,43492
66484,43473
66487,43454
66491,43436
66497,43418
66506,43401
66515,43385
66526,43370
66539,43356
66553,43344
66568,43332
66584,43323
66601,43315
66619,43308
66637,43304
66656,43301
66675,43300
67393,43300
67412,43301
Z" /> 
<path style="fill:#000000; fill-opacity:1.0; 
stroke:#000000; stroke-width:0; stroke-opacity:1; 
stroke-linecap:round; stroke-linejoin:round;fill-rule:evenodd;"
d="M 67412,41824
67431,41827
67449,41832
67467,41838
67484,41846
67500,41856
67515,41867
67529,41880
67542,41894
67553,41909
67563,41925
67571,41942
67577,41960
67582,41978
67584,41997
67585,42015
67585,42399
67584,42418
67582,42437
67577,42455
67571,42473
67563,42490
67553,42506
67542,42521
67529,42535
67515,42548
67500,42559
67484,42569
67467,42577
67449,42583
67431,42588
67412,42590
67393,42591
66675,42591
66656,42590
66637,42588
66619,42583
66601,42577
66584,42569
66568,42559
66553,42548
66539,42535
66526,42521
66515,42506
66506,42490
66497,42473
66491,42455
66487,42437
66484,42418
66483,42399
66483,42015
66484,41997
66487,41978
66491,41960
66497,41942
66506,41925
66515,41909
66526,41894
66539,41880
66553,41867
66568,41856
66584,41846
66601,41838
66619,41832
66637,41827
66656,41824
66675,41824
67393,41824
67412,41824
Z" /> 
</g>
<g >
<path style="fill:#000000; fill-opacity:1.0; 
stroke:#000000; stroke-width:0; stroke-opacity:1; 
stroke-linecap:round; stroke-linejoin:round;fill-rule:evenodd;"
d="M 74612,53301
74631,53304
74649,53308
74667,53315
74684,53323
74700,53332
74715,53344
74729,53356
74742,53370
74753,53385
74763,53401
74771,53418
74777,53436
74782,53454
74784,53473
74785,53492
74785,53876
74784,53895
74782,53913
74777,53931
74771,53949
74763,53966
74753,53982
74742,53997
74729,54011
74715,54024
74700,54035
74684,54045
74667,54053
74649,54059
74631,54064
74612,54067
74593,54068
73875,54068
73856,54067
73837,54064
73819,54059
73801,54053
73784,54045
73768,54035
73753,54024
73739,54011
73726,53997
73715,53982
73706,53966
73697,53949
73691,53931
73687,53913
73684,53895
73683,53876
73683,53492
73684,53473
73687,53454
73691,53436
73697,53418
73706,53401
73715,53385
73726,53370
73739,53356
73753,53344
73768,53332
73784,53323
73801,53315
73819,53308
73837,53304
73856,53301
73875,53300
74593,53300
74612,53301
Z" /> 
<path style="fill:#000000; fill-opacity:1.0; 
stroke:#000000; stroke-width:0; stroke-opacity:1; 
stroke-linecap:round; stroke-linejoin:round;fill-rule:evenodd;"
d="M 74612,51824
74631,51827
74649,51832
74667,51838
74684,51846
74700,51856
74715,51867
74729,51880
74742,51894
74753,51909
74763,51925
74771,51942
74777,51960
74782,51978
74784,51997
74785,52015
74785,52399
74784,52418
74782,52437
74777,52455
74771,52473
74763,52490
74753,52506
74742,52521
74729,52535
74715,52548
74700,52559
74684,52569
74667,52577
74649,52583
74631,52588
74612,52590
74593,52591
73875,52591
73856,52590
73837,52588
73819,52583
73801,52577
73784,52569
73768,52559
73753,52548
73739,52535
73726,52521
73715,52506
73706,52490
73697,52473
73691,52455
73687,52437
73684,52418
73683,52399
73683,52015
73684,51997
73687,51978
73691,51960
73697,51942
73706,51925
73715,51909
73726,51894
73739,51880
73753,51867
73768,51856
73784,51846
73801,51838
73819,51832
73837,51827
73856,51824
73875,51824
74593,51824
74612,51824
Z" /> 
</g>
<g >
<path style="fill:#000000; fill-opacity:1.0; 
stroke:#000000; stroke-width:0; stroke-opacity:1; 
stroke-linecap:round; stroke-linejoin:round;fill-rule:evenodd;"
d="M 31183,34095
31202,34098
31220,34103
31238,34109
31255,34117
31271,34127
31286,34138
31300,34151
31313,34165
31324,34180
31333,34196
31342,34213
31348,34231
31352,34249
31355,34268
31356,34286
31356,35005
31355,35024
31352,35042
31348,35061
31342,35078
31333,35095
31324,35111
31313,35127
31300,35141
31286,35153
31271,35164
31255,35174
31238,35182
31220,35189
31202,35193
31183,35196
31164,35197
30780,35197
30762,35196
30743,35193
30725,35189
30707,35182
30690,35174
30674,35164
30659,35153
30645,35141
30632,35127
30621,35111
30611,35095
30603,35078
30597,35061
30592,35042
30589,35024
30588,35005
30588,34286
30589,34268
30592,34249
30597,34231
30603,34213
30611,34196
30621,34180
30632,34165
30645,34151
30659,34138
30674,34127
30690,34117
30707,34109
30725,34103
30743,34098
30762,34095
30780,34094
31164,34094
31183,34095
Z" /> 
<path style="fill:#000000; fill-opacity:1.0; 
stroke:#000000; stroke-width:0; stroke-opacity:1; 
stroke-linecap:round; stroke-linejoin:round;fill-rule:evenodd;"
d="M 29707,34095
29725,34098
29744,34103
29761,34109
29778,34117
29794,34127
29810,34138
29824,34151
29836,34165
29847,34180
29857,34196
29865,34213
29871,34231
29876,34249
29879,34268
29880,34286
29880,35005
29879,35024
29876,35042
29871,35061
29865,35078
29857,35095
29847,35111
29836,35127
29824,35141
29810,35153
29794,35164
29778,35174
29761,35182
29744,35189
29725,35193
29707,35196
29688,35197
29304,35197
29285,35196
29267,35193
29248,35189
29231,35182
29213,35174
29197,35164
29182,35153
29168,35141
29156,35127
29144,35111
29135,35095
29127,35078
29120,35061
29116,35042
29113,35024
29112,35005
29112,34286
29113,34268
29116,34249
29120,34231
29127,34213
29135,34196
29144,34180
29156,34165
29168,34151
29182,34138
29197,34127
29213,34117
29231,34109
29248,34103
29267,34098
29285,34095
29304,34094
29688,34094
29707,34095
Z" /> 
</g>
<g >
<path style="fill:#000000; fill-opacity:1.0; 
stroke:#000000; stroke-width:0; stroke-opacity:1; 
stroke-linecap:round; stroke-linejoin:round;fill-rule:evenodd;"
d="M 55312,43701
55331,43704
55349,43708
55367,43715
55384,43723
55400,43732
55415,43744
55429,43756
55442,43770
55453,43785
55463,43801
55471,43818
55477,43836
55482,43854
55484,43873
55485,43892
55485,44276
55484,44295
55482,44313
55477,44331
55471,44349
55463,44366
55453,44382
55442,44397
55429,44411
55415,44424
55400,44435
55384,44445
55367,44453
55349,44459
55331,44464
55312,44467
55293,44468
54575,44468
54556,44467
54537,44464
54519,44459
54501,44453
54484,44445
54468,44435
54453,44424
54439,44411
54426,44397
54415,44382
54406,44366
54397,44349
54391,44331
54387,44313
54384,44295
54383,44276
54383,43892
54384,43873
54387,43854
54391,43836
54397,43818
54406,43801
54415,43785
54426,43770
54439,43756
54453,43744
54468,43732
54484,43723
54501,43715
54519,43708
54537,43704
54556,43701
54575,43700
55293,43700
55312,43701
Z" /> 
<path style="fill:#000000; fill-opacity:1.0; 
stroke:#000000; stroke-width:0; stroke-opacity:1; 
stroke-linecap:round; stroke-linejoin:round;fill-rule:evenodd;"
d="M 55312,42224
55331,42227
55349,42232
55367,42238
55384,42246
55400,42256
55415,42267
55429,42280
55442,42294
55453,42309
55463,42325
55471,42342
55477,42360
55482,42378
55484,42397
55485,42415
55485,42799
55484,42818
55482,42837
55477,42855
55471,42873
55463,42890
55453,42906
55442,42921
55429,42935
55415,42948
55400,42959
55384,42969
55367,42977
55349,42983
55331,42988
55312,42990
55293,42991
54575,42991
54556,42990
54537,42988
54519,42983
54501,42977
54484,42969
54468,42959
54453,42948
54439,42935
54426,42921
54415,42906
54406,42890
54397,42873
54391,42855
54387,42837
54384,42818
54383,42799
54383,42415
54384,42397
54387,42378
54391,42360
54397,42342
54406,42325
54415,42309
54426,42294
54439,42280
54453,42267
54468,42256
54484,42246
54501,42238
54519,42232
54537,42227
54556,42224
54575,42224
55293,42224
55312,42224
Z" /> 
</g>
<g >
</g>
<g >
<path style="fill:#000000; fill-opacity:1.0; 
stroke:#000000; stroke-width:0; stroke-opacity:1; 
stroke-linecap:round; stroke-linejoin:round;fill-rule:evenodd;"
d="M 36597,15017
36617,15019
36635,15024
36653,15031
36671,15039
36688,15049
36703,15060
36717,15073
36730,15088
36742,15103
36752,15120
36760,15137
36767,15155
36771,15174
36774,15193
36775,15213
36775,16079
36774,16098
36771,16117
36767,16136
36760,16154
36752,16171
36742,16188
36730,16204
36717,16218
36703,16231
36688,16242
36671,16252
36653,16261
36635,16267
36617,16272
36597,16275
36578,16276
34925,16276
34905,16275
34886,16272
34867,16267
34849,16261
34832,16252
34815,16242
34800,16231
34785,16218
34772,16204
34761,16188
34751,16171
34743,16154
34736,16136
34732,16117
34729,16098
34728,16079
34728,15213
34729,15193
34732,15174
34736,15155
34743,15137
34751,15120
34761,15103
34772,15088
34785,15073
34800,15060
34815,15049
34832,15039
34849,15031
34867,15024
34886,15019
34905,15017
34925,15016
36578,15016
36597,15017
Z" /> 
<path style="fill:#000000; fill-opacity:1.0; 
stroke:#000000; stroke-width:0; stroke-opacity:1; 
stroke-linecap:round; stroke-linejoin:round;fill-rule:evenodd;"
d="M 33763,15017
33782,15019
33801,15024
33819,15031
33836,15039
33853,15049
33868,15060
33883,15073
33896,15088
33907,15103
33917,15120
33925,15137
33932,15155
33937,15174
33939,15193
33940,15213
33940,16079
33939,16098
33937,16117
33932,16136
33925,16154
33917,16171
33907,16188
33896,16204
33883,16218
33868,16231
33853,16242
33836,16252
33819,16261
33801,16267
33782,16272
33763,16275
33744,16276
32090,16276
32071,16275
32052,16272
32033,16267
32015,16261
31997,16252
31981,16242
31965,16231
31951,16218
31938,16204
31926,16188
31916,16171
31908,16154
31902,16136
31897,16117
31894,16098
31893,16079
31893,15213
31894,15193
31897,15174
31902,15155
31908,15137
31916,15120
31926,15103
31938,15088
31951,15073
31965,15060
31981,15049
31997,15039
32015,15031
32033,15024
32052,15019
32071,15017
32090,15016
33744,15016
33763,15017
Z" /> 
</g>
<g >
<path style="fill:#000000; fill-opacity:1.0; 
stroke:#000000; stroke-width:0; stroke-opacity:1; 
stroke-linecap:round; stroke-linejoin:round;fill-rule:evenodd;"
d="M 80912,36724
80931,36727
80949,36732
80967,36738
80984,36746
81000,36756
81015,36767
81029,36780
81042,36794
81053,36809
81063,36825
81071,36842
81077,36860
81082,36878
81084,36897
81085,36915
81085,37299
81084,37318
81082,37337
81077,37355
81071,37373
81063,37390
81053,37406
81042,37421
81029,37435
81015,37448
81000,37459
80984,37469
80967,37477
80949,37483
80931,37488
80912,37490
80893,37491
80175,37491
80156,37490
80137,37488
80119,37483
80101,37477
80084,37469
80068,37459
80053,37448
80039,37435
80026,37421
80015,37406
80006,37390
79997,37373
79991,37355
79987,37337
79984,37318
79983,37299
79983,36915
79984,36897
79987,36878
79991,36860
79997,36842
80006,36825
80015,36809
80026,36794
80039,36780
80053,36767
80068,36756
80084,36746
80101,36738
80119,36732
80137,36727
80156,36724
80175,36724
80893,36724
80912,36724
Z" /> 
<path style="fill:#000000; fill-opacity:1.0; 
stroke:#000000; stroke-width:0; stroke-opacity:1; 
stroke-linecap:round; stroke-linejoin:round;fill-rule:evenodd;"
d="M 80912,38201
80931,38204
80949,38208
80967,38215
80984,38223
81000,38232
81015,38244
81029,38256
81042,38270
81053,38285
81063,38301
81071,38318
81077,38336
81082,38354
81084,38373
81085,38392
81085,38776
81084,38795
81082,38813
81077,38831
81071,38849
81063,38866
81053,38882
81042,38897
81029,38911
81015,38924
81000,38935
80984,38945
80967,38953
80949,38959
80931,38964
80912,38967
80893,38968
80175,38968
80156,38967
80137,38964
80119,38959
80101,38953
80084,38945
80068,38935
80053,38924
80039,38911
80026,38897
80015,38882
80006,38866
79997,38849
79991,38831
79987,38813
79984,38795
79983,38776
79983,38392
79984,38373
79987,38354
79991,38336
79997,38318
80006,38301
80015,38285
80026,38270
80039,38256
80053,38244
80068,38232
80084,38223
80101,38215
80119,38208
80137,38204
80156,38201
80175,38200
80893,38200
80912,38201
Z" /> 
</g>
<g >
</g>
<g >
</g>
<g >
</g>
</g> 
</svg>
