<?xml version="1.0" standalone="no"?>
 <!DOCTYPE svg PUBLIC "-//W3C//DTD SVG 1.1//EN" 
 "http://www.w3.org/Graphics/SVG/1.1/DTD/svg11.dtd"> 
<svg xmlns="http://www.w3.org/2000/svg" version="1.1" 
    width="29.7002cm" height="21.0007cm" viewBox="0 0 116930 82680 ">
<title>SVG Picture created as ThermocoupleLogger-B_Mask.svg date 2019/03/15 17:22:21 </title>
  <desc>Picture generated by PCBNEW </desc>
<g style="fill:#000000; fill-opacity:1;stroke:#000000; stroke-opacity:1;
stroke-linecap:round; stroke-linejoin:round; "
 transform="translate(0 0) scale(1 1)">
</g>
<g style="fill:#000000; fill-opacity:0.0; 
stroke:#000000; stroke-width:-0.000787402; stroke-opacity:1; 
stroke-linecap:round; stroke-linejoin:round;">
</g>
<g style="fill:#000000; fill-opacity:0.0; 
stroke:#000000; stroke-width:78.7402; stroke-opacity:1; 
stroke-linecap:round; stroke-linejoin:round;">
<path d="M23465 12875
L23465 73375
" />
<path d="M93465 68993
L93465 68993
" />
<path d="M93465 12875
L23465 12875
" />
<path d="M93465 73375
L23465 73375
" />
<path d="M93465 12875
L93465 73375
" />
<path d="M93465 13875
L93465 13875
" />
</g>
<g style="fill:#000000; fill-opacity:1.0; 
stroke:#000000; stroke-width:0; stroke-opacity:1; 
stroke-linecap:round; stroke-linejoin:round;">
<polyline style="fill-rule:evenodd;"
points="85102,69597
84976,69635
84859,69698
84757,69781
84674,69883
84634,69958
84612,69999
84573,70126
84573,70126
84564,70224
84564,70526
84573,70624
84612,70750
84674,70867
84757,70969
84859,71052
84902,71075
84976,71114
85010,71125
85102,71153
85233,71166
85364,71153
85490,71114
85607,71052
85709,70969
85792,70867
85818,70818
85854,70750
85865,70715
85893,70624
85902,70526
85902,70224
85893,70126
85854,69999
85792,69883
85709,69781
85607,69698
85490,69635
85364,69597
85233,69584
85102,69597
" /> 
<polyline style="fill-rule:evenodd;"
points="78102,69597
77976,69635
77859,69698
77757,69781
77674,69883
77634,69958
77612,69999
77573,70126
77573,70126
77564,70224
77564,70526
77573,70624
77612,70750
77674,70867
77757,70969
77859,71052
77902,71075
77976,71114
78010,71125
78102,71153
78233,71166
78364,71153
78490,71114
78607,71052
78709,70969
78792,70867
78818,70818
78854,70750
78865,70715
78893,70624
78902,70526
78902,70224
78893,70126
78854,69999
78792,69883
78709,69781
78607,69698
78490,69635
78364,69597
78233,69584
78102,69597
" /> 
<polyline style="fill-rule:evenodd;"
points="71102,69597
70976,69635
70859,69698
70757,69781
70674,69883
70634,69958
70612,69999
70573,70126
70573,70126
70564,70224
70564,70526
70573,70624
70612,70750
70674,70867
70757,70969
70859,71052
70902,71075
70976,71114
71010,71125
71102,71153
71233,71166
71364,71153
71490,71114
71607,71052
71709,70969
71792,70867
71818,70818
71854,70750
71865,70715
71893,70624
71902,70526
71902,70224
71893,70126
71854,69999
71792,69883
71709,69781
71607,69698
71490,69635
71364,69597
71233,69584
71102,69597
" /> 
<polyline style="fill-rule:evenodd;"
points="64102,69597
63976,69635
63859,69698
63757,69781
63674,69883
63634,69958
63612,69999
63573,70126
63573,70126
63564,70224
63564,70526
63573,70624
63612,70750
63674,70867
63757,70969
63859,71052
63902,71075
63976,71114
64010,71125
64102,71153
64233,71166
64364,71153
64490,71114
64607,71052
64709,70969
64792,70867
64818,70818
64854,70750
64865,70715
64893,70624
64902,70526
64902,70224
64893,70126
64854,69999
64792,69883
64709,69781
64607,69698
64490,69635
64364,69597
64233,69584
64102,69597
" /> 
<polyline style="fill-rule:evenodd;"
points="57102,69597
56976,69635
56859,69698
56757,69781
56674,69883
56634,69958
56612,69999
56573,70126
56573,70126
56564,70224
56564,70526
56573,70624
56612,70750
56674,70867
56757,70969
56859,71052
56902,71075
56976,71114
57010,71125
57102,71153
57233,71166
57364,71153
57490,71114
57607,71052
57709,70969
57792,70867
57818,70818
57854,70750
57865,70715
57893,70624
57902,70526
57902,70224
57893,70126
57854,69999
57792,69883
57709,69781
57607,69698
57490,69635
57364,69597
57233,69584
57102,69597
" /> 
<polyline style="fill-rule:evenodd;"
points="50133,69597
50007,69635
49891,69698
49789,69781
49705,69883
49666,69958
49643,69999
49605,70126
49605,70126
49595,70224
49595,70526
49605,70624
49643,70750
49705,70867
49789,70969
49891,71052
49933,71075
50007,71114
50041,71125
50133,71153
50265,71166
50396,71153
50522,71114
50638,71052
50740,70969
50824,70867
50850,70818
50886,70750
50897,70715
50924,70624
50934,70526
50934,70224
50924,70126
50886,69999
50824,69883
50740,69781
50638,69698
50522,69635
50396,69597
50265,69584
50133,69597
" /> 
<polyline style="fill-rule:evenodd;"
points="43133,69597
43007,69635
42891,69698
42789,69781
42705,69883
42666,69958
42643,69999
42605,70126
42605,70126
42595,70224
42595,70526
42605,70624
42643,70750
42705,70867
42789,70969
42891,71052
42933,71075
43007,71114
43041,71125
43133,71153
43265,71166
43396,71153
43522,71114
43638,71052
43740,70969
43824,70867
43850,70818
43886,70750
43897,70715
43924,70624
43934,70526
43934,70224
43924,70126
43886,69999
43824,69883
43740,69781
43638,69698
43522,69635
43396,69597
43265,69584
43133,69597
" /> 
<polyline style="fill-rule:evenodd;"
points="36133,69597
36007,69635
35891,69698
35789,69781
35705,69883
35666,69958
35643,69999
35605,70126
35605,70126
35595,70224
35595,70526
35605,70624
35643,70750
35705,70867
35789,70969
35891,71052
35933,71075
36007,71114
36041,71125
36133,71153
36265,71166
36396,71153
36522,71114
36638,71052
36740,70969
36824,70867
36850,70818
36886,70750
36897,70715
36924,70624
36934,70526
36934,70224
36924,70126
36886,69999
36824,69883
36740,69781
36638,69698
36522,69635
36396,69597
36265,69584
36133,69597
" /> 
<polyline style="fill-rule:evenodd;"
points="33729,69590
33706,69598
33684,69609
33664,69625
33649,69644
33637,69666
33630,69690
33627,69720
33627,71030
33630,71060
33637,71084
33649,71105
33664,71125
33684,71140
33706,71152
33729,71159
33759,71162
34833,71162
34863,71159
34886,71152
34908,71140
34928,71125
34943,71105
34955,71084
34962,71060
34965,71030
34965,69720
34962,69690
34955,69666
34943,69644
34928,69625
34908,69609
34886,69598
34863,69590
34833,69588
33759,69588
33729,69590
" /> 
<polyline style="fill-rule:evenodd;"
points="40729,69590
40706,69598
40684,69609
40664,69625
40649,69644
40637,69666
40630,69690
40627,69720
40627,71030
40630,71060
40637,71084
40649,71105
40664,71125
40684,71140
40706,71152
40729,71159
40759,71162
41833,71162
41863,71159
41886,71152
41908,71140
41928,71125
41943,71105
41955,71084
41962,71060
41965,71030
41965,69720
41962,69690
41955,69666
41943,69644
41928,69625
41908,69609
41886,69598
41863,69590
41833,69588
40759,69588
40729,69590
" /> 
<polyline style="fill-rule:evenodd;"
points="47729,69590
47706,69598
47684,69609
47664,69625
47649,69644
47637,69666
47630,69690
47627,69720
47627,71030
47630,71060
47637,71084
47649,71105
47664,71125
47684,71140
47706,71152
47729,71159
47759,71162
48833,71162
48863,71159
48886,71152
48908,71140
48928,71125
48943,71105
48955,71084
48962,71060
48965,71030
48965,69720
48962,69690
48955,69666
48943,69644
48928,69625
48908,69609
48886,69598
48863,69590
48833,69588
47759,69588
47729,69590
" /> 
<polyline style="fill-rule:evenodd;"
points="54698,69590
54674,69598
54652,69609
54633,69625
54617,69644
54605,69666
54598,69690
54595,69720
54595,71030
54598,71060
54605,71084
54617,71105
54633,71125
54652,71140
54674,71152
54698,71159
54727,71162
55802,71162
55831,71159
55855,71152
55877,71140
55896,71125
55912,71105
55924,71084
55931,71060
55934,71030
55934,69720
55931,69690
55924,69666
55912,69644
55896,69625
55877,69609
55855,69598
55831,69590
55802,69588
54727,69588
54698,69590
" /> 
<polyline style="fill-rule:evenodd;"
points="61698,69590
61674,69598
61652,69609
61633,69625
61617,69644
61605,69666
61598,69690
61595,69720
61595,71030
61598,71060
61605,71084
61617,71105
61633,71125
61652,71140
61674,71152
61698,71159
61727,71162
62802,71162
62831,71159
62855,71152
62877,71140
62896,71125
62912,71105
62924,71084
62931,71060
62934,71030
62934,69720
62931,69690
62924,69666
62912,69644
62896,69625
62877,69609
62855,69598
62831,69590
62802,69588
61727,69588
61698,69590
" /> 
<polyline style="fill-rule:evenodd;"
points="68698,69590
68674,69598
68652,69609
68633,69625
68617,69644
68605,69666
68598,69690
68595,69720
68595,71030
68598,71060
68605,71084
68617,71105
68633,71125
68652,71140
68674,71152
68698,71159
68727,71162
69802,71162
69831,71159
69855,71152
69877,71140
69896,71125
69912,71105
69924,71084
69931,71060
69934,71030
69934,69720
69931,69690
69924,69666
69912,69644
69896,69625
69877,69609
69855,69598
69831,69590
69802,69588
68727,69588
68698,69590
" /> 
<polyline style="fill-rule:evenodd;"
points="75698,69590
75674,69598
75652,69609
75633,69625
75617,69644
75605,69666
75598,69690
75595,69720
75595,71030
75598,71060
75605,71084
75617,71105
75633,71125
75652,71140
75674,71152
75698,71159
75727,71162
76802,71162
76831,71159
76855,71152
76877,71140
76896,71125
76912,71105
76924,71084
76931,71060
76934,71030
76934,69720
76931,69690
76924,69666
76912,69644
76896,69625
76877,69609
76855,69598
76831,69590
76802,69588
75727,69588
75698,69590
" /> 
<polyline style="fill-rule:evenodd;"
points="82698,69590
82674,69598
82652,69609
82633,69625
82617,69644
82605,69666
82598,69690
82595,69720
82595,71030
82598,71060
82605,71084
82617,71105
82633,71125
82652,71140
82674,71152
82698,71159
82727,71162
83802,71162
83831,71159
83855,71152
83877,71140
83896,71125
83912,71105
83924,71084
83931,71060
83934,71030
83934,69720
83931,69690
83924,69666
83912,69644
83896,69625
83877,69609
83855,69598
83831,69590
83802,69588
82727,69588
82698,69590
" /> 
<polyline style="fill-rule:evenodd;"
points="74867,68346
74781,68381
74703,68433
74638,68499
74586,68576
74550,68662
74532,68754
74532,68847
74550,68938
74586,69024
74638,69101
74703,69167
74781,69219
74867,69254
74958,69273
75051,69273
75142,69254
75228,69219
75306,69167
75372,69101
75423,69024
75459,68938
75477,68847
75477,68754
75459,68662
75423,68576
75372,68499
75306,68433
75228,68381
75142,68346
75051,68328
74958,68328
74867,68346
" /> 
<polyline style="fill-rule:evenodd;"
points="81867,68346
81781,68381
81703,68433
81638,68499
81586,68576
81550,68662
81532,68754
81532,68847
81550,68938
81586,69024
81638,69101
81703,69167
81781,69219
81867,69254
81958,69273
82051,69273
82142,69254
82228,69219
82306,69167
82372,69101
82423,69024
82459,68938
82477,68847
82477,68754
82459,68662
82423,68576
82372,68499
82306,68433
82228,68381
82142,68346
82051,68328
81958,68328
81867,68346
" /> 
<polyline style="fill-rule:evenodd;"
points="67867,68346
67781,68381
67703,68433
67638,68499
67586,68576
67550,68662
67532,68754
67532,68847
67550,68938
67586,69024
67638,69101
67703,69167
67781,69219
67867,69254
67958,69273
68051,69273
68142,69254
68228,69219
68306,69167
68372,69101
68423,69024
68459,68938
68477,68847
68477,68754
68459,68662
68423,68576
68372,68499
68306,68433
68228,68381
68142,68346
68051,68328
67958,68328
67867,68346
" /> 
<polyline style="fill-rule:evenodd;"
points="32898,68346
32812,68381
32735,68433
32669,68499
32617,68576
32582,68662
32564,68754
32564,68847
32582,68938
32617,69024
32669,69101
32735,69167
32812,69219
32898,69254
32990,69273
33083,69273
33174,69254
33260,69219
33337,69167
33403,69101
33455,69024
33490,68938
33509,68847
33509,68754
33490,68662
33455,68576
33403,68499
33337,68433
33260,68381
33174,68346
33083,68328
32990,68328
32898,68346
" /> 
<polyline style="fill-rule:evenodd;"
points="60867,68346
60781,68381
60703,68433
60638,68499
60586,68576
60550,68662
60532,68754
60532,68847
60550,68938
60586,69024
60638,69101
60703,69167
60781,69219
60867,69254
60958,69273
61051,69273
61142,69254
61228,69219
61306,69167
61372,69101
61423,69024
61459,68938
61477,68847
61477,68754
61459,68662
61423,68576
61372,68499
61306,68433
61228,68381
61142,68346
61051,68328
60958,68328
60867,68346
" /> 
<polyline style="fill-rule:evenodd;"
points="53867,68346
53781,68381
53703,68433
53638,68499
53586,68576
53550,68662
53532,68754
53532,68847
53550,68938
53586,69024
53638,69101
53703,69167
53781,69219
53867,69254
53958,69273
54051,69273
54142,69254
54228,69219
54306,69167
54372,69101
54423,69024
54459,68938
54477,68847
54477,68754
54459,68662
54423,68576
54372,68499
54306,68433
54228,68381
54142,68346
54051,68328
53958,68328
53867,68346
" /> 
<polyline style="fill-rule:evenodd;"
points="46898,68346
46812,68381
46735,68433
46669,68499
46617,68576
46582,68662
46564,68754
46564,68847
46582,68938
46617,69024
46669,69101
46735,69167
46812,69219
46898,69254
46990,69273
47083,69273
47174,69254
47260,69219
47337,69167
47403,69101
47455,69024
47490,68938
47509,68847
47509,68754
47490,68662
47455,68576
47403,68499
47337,68433
47260,68381
47174,68346
47083,68328
46990,68328
46898,68346
" /> 
<polyline style="fill-rule:evenodd;"
points="39898,68346
39812,68381
39735,68433
39669,68499
39617,68576
39582,68662
39564,68754
39564,68847
39582,68938
39617,69024
39669,69101
39735,69167
39812,69219
39898,69254
39990,69273
40083,69273
40174,69254
40260,69219
40337,69167
40403,69101
40455,69024
40490,68938
40509,68847
40509,68754
40490,68662
40455,68576
40403,68499
40337,68433
40260,68381
40174,68346
40083,68328
39990,68328
39898,68346
" /> 
<polyline style="fill-rule:evenodd;"
points="74896,57524
74820,57539
74605,57628
74414,57756
74412,57758
74247,57922
74247,57922
74118,58115
74029,58330
74024,58354
73983,58559
73983,58791
74029,59019
74118,59234
74247,59428
74412,59592
74412,59592
74605,59722
74820,59811
74896,59826
75048,59856
75281,59856
75433,59826
75509,59811
75724,59722
75917,59592
75917,59592
76082,59428
76211,59234
76300,59019
76346,58791
76346,58559
76305,58354
76300,58330
76211,58115
76082,57922
76082,57922
75917,57758
75915,57756
75724,57628
75509,57539
75433,57524
75281,57494
75048,57494
74896,57524
" /> 
<polyline style="fill-rule:evenodd;"
points="90117,59856
92479,59856
92479,57494
90117,57494
90117,59856
" /> 
<polyline style="fill-rule:evenodd;"
points="60372,58351
60341,58354
60282,58372
60222,58390
60113,58449
60017,58527
59938,58623
59880,58733
59844,58851
59832,58975
59844,59098
59880,59217
59938,59327
60017,59423
60113,59501
60222,59560
60282,59578
60341,59596
60372,59599
60434,59605
60495,59605
60557,59599
60588,59596
60647,59578
60707,59560
60816,59501
60912,59423
60991,59327
61049,59217
61085,59098
61097,58975
61085,58851
61049,58733
60991,58623
60912,58527
60816,58449
60707,58390
60647,58372
60588,58354
60557,58351
60495,58345
60434,58345
60372,58351
" /> 
<polyline style="fill-rule:evenodd;"
points="62372,58351
62341,58354
62282,58372
62222,58390
62113,58449
62017,58527
61938,58623
61880,58733
61844,58851
61832,58975
61844,59098
61880,59217
61938,59327
62017,59423
62113,59501
62222,59560
62282,59578
62341,59596
62372,59599
62434,59605
62495,59605
62557,59599
62588,59596
62647,59578
62707,59560
62816,59501
62912,59423
62991,59327
63049,59217
63085,59098
63097,58975
63085,58851
63049,58733
62991,58623
62912,58527
62816,58449
62707,58390
62647,58372
62588,58354
62557,58351
62495,58345
62434,58345
62372,58351
" /> 
<polyline style="fill-rule:evenodd;"
points="70372,58351
70341,58354
70282,58372
70222,58390
70113,58449
70017,58527
69938,58623
69880,58733
69844,58851
69832,58975
69844,59098
69880,59217
69938,59327
70017,59423
70113,59501
70222,59560
70282,59578
70341,59596
70372,59599
70434,59605
70495,59605
70557,59599
70588,59596
70647,59578
70707,59560
70816,59501
70912,59423
70991,59327
71049,59217
71085,59098
71097,58975
71085,58851
71049,58733
70991,58623
70912,58527
70816,58449
70707,58390
70647,58372
70588,58354
70557,58351
70495,58345
70434,58345
70372,58351
" /> 
<polyline style="fill-rule:evenodd;"
points="58372,58351
58341,58354
58282,58372
58222,58390
58113,58449
58017,58527
57938,58623
57880,58733
57844,58851
57832,58975
57844,59098
57880,59217
57938,59327
58017,59423
58113,59501
58222,59560
58282,59578
58341,59596
58372,59599
58434,59605
58495,59605
58557,59599
58588,59596
58647,59578
58707,59560
58816,59501
58912,59423
58991,59327
59049,59217
59085,59098
59097,58975
59085,58851
59049,58733
58991,58623
58912,58527
58816,58449
58707,58390
58647,58372
58588,58354
58557,58351
58495,58345
58434,58345
58372,58351
" /> 
<polyline style="fill-rule:evenodd;"
points="56372,58351
56341,58354
56282,58372
56222,58390
56113,58449
56017,58527
55938,58623
55880,58733
55844,58851
55832,58975
55844,59098
55880,59217
55938,59327
56017,59423
56113,59501
56222,59560
56282,59578
56341,59596
56372,59599
56434,59605
56495,59605
56557,59599
56588,59596
56647,59578
56707,59560
56816,59501
56912,59423
56991,59327
57049,59217
57085,59098
57097,58975
57085,58851
57049,58733
56991,58623
56912,58527
56816,58449
56707,58390
56647,58372
56588,58354
56557,58351
56495,58345
56434,58345
56372,58351
" /> 
<polyline style="fill-rule:evenodd;"
points="54372,58351
54341,58354
54282,58372
54222,58390
54113,58449
54017,58527
53938,58623
53880,58733
53844,58851
53832,58975
53844,59098
53880,59217
53938,59327
54017,59423
54113,59501
54222,59560
54282,59578
54341,59596
54372,59599
54434,59605
54495,59605
54557,59599
54588,59596
54647,59578
54707,59560
54816,59501
54912,59423
54991,59327
55049,59217
55085,59098
55097,58975
55085,58851
55049,58733
54991,58623
54912,58527
54816,58449
54707,58390
54647,58372
54588,58354
54557,58351
54495,58345
54434,58345
54372,58351
" /> 
<polyline style="fill-rule:evenodd;"
points="52372,58351
52341,58354
52282,58372
52222,58390
52113,58449
52017,58527
51938,58623
51880,58733
51844,58851
51832,58975
51844,59098
51880,59217
51938,59327
52017,59423
52113,59501
52222,59560
52282,59578
52341,59596
52372,59599
52434,59605
52495,59605
52557,59599
52588,59596
52647,59578
52707,59560
52816,59501
52912,59423
52991,59327
53049,59217
53085,59098
53097,58975
53085,58851
53049,58733
52991,58623
52912,58527
52816,58449
52707,58390
52647,58372
52588,58354
52557,58351
52495,58345
52434,58345
52372,58351
" /> 
<polyline style="fill-rule:evenodd;"
points="50372,58351
50341,58354
50282,58372
50222,58390
50113,58449
50017,58527
49938,58623
49880,58733
49844,58851
49832,58975
49844,59098
49880,59217
49938,59327
50017,59423
50113,59501
50222,59560
50282,59578
50341,59596
50372,59599
50434,59605
50495,59605
50557,59599
50588,59596
50647,59578
50707,59560
50816,59501
50912,59423
50991,59327
51049,59217
51085,59098
51097,58975
51085,58851
51049,58733
50991,58623
50912,58527
50816,58449
50707,58390
50647,58372
50588,58354
50557,58351
50495,58345
50434,58345
50372,58351
" /> 
<polyline style="fill-rule:evenodd;"
points="48372,58351
48341,58354
48282,58372
48222,58390
48113,58449
48017,58527
47938,58623
47880,58733
47844,58851
47832,58975
47844,59098
47880,59217
47938,59327
48017,59423
48113,59501
48222,59560
48282,59578
48341,59596
48372,59599
48434,59605
48495,59605
48557,59599
48588,59596
48647,59578
48707,59560
48816,59501
48912,59423
48991,59327
49049,59217
49085,59098
49097,58975
49085,58851
49049,58733
48991,58623
48912,58527
48816,58449
48707,58390
48647,58372
48588,58354
48557,58351
48495,58345
48434,58345
48372,58351
" /> 
<polyline style="fill-rule:evenodd;"
points="46372,58351
46341,58354
46282,58372
46222,58390
46113,58449
46017,58527
45938,58623
45880,58733
45844,58851
45832,58975
45844,59098
45880,59217
45938,59327
46017,59423
46113,59501
46222,59560
46282,59578
46341,59596
46372,59599
46434,59605
46495,59605
46557,59599
46588,59596
46647,59578
46707,59560
46816,59501
46912,59423
46991,59327
47049,59217
47085,59098
47097,58975
47085,58851
47049,58733
46991,58623
46912,58527
46816,58449
46707,58390
46647,58372
46588,58354
46557,58351
46495,58345
46434,58345
46372,58351
" /> 
<polyline style="fill-rule:evenodd;"
points="68372,58351
68341,58354
68282,58372
68222,58390
68113,58449
68017,58527
67938,58623
67880,58733
67844,58851
67832,58975
67844,59098
67880,59217
67938,59327
68017,59423
68113,59501
68222,59560
68282,59578
68341,59596
68372,59599
68434,59605
68495,59605
68557,59599
68588,59596
68647,59578
68707,59560
68816,59501
68912,59423
68991,59327
69049,59217
69085,59098
69097,58975
69085,58851
69049,58733
68991,58623
68912,58527
68816,58449
68707,58390
68647,58372
68588,58354
68557,58351
68495,58345
68434,58345
68372,58351
" /> 
<polyline style="fill-rule:evenodd;"
points="66372,58351
66341,58354
66282,58372
66222,58390
66113,58449
66017,58527
65938,58623
65880,58733
65844,58851
65832,58975
65844,59098
65880,59217
65938,59327
66017,59423
66113,59501
66222,59560
66282,59578
66341,59596
66372,59599
66434,59605
66495,59605
66557,59599
66588,59596
66647,59578
66707,59560
66816,59501
66912,59423
66991,59327
67049,59217
67085,59098
67097,58975
67085,58851
67049,58733
66991,58623
66912,58527
66816,58449
66707,58390
66647,58372
66588,58354
66557,58351
66495,58345
66434,58345
66372,58351
" /> 
<polyline style="fill-rule:evenodd;"
points="64372,58351
64341,58354
64282,58372
64222,58390
64113,58449
64017,58527
63938,58623
63880,58733
63844,58851
63832,58975
63844,59098
63880,59217
63938,59327
64017,59423
64113,59501
64222,59560
64282,59578
64341,59596
64372,59599
64434,59605
64495,59605
64557,59599
64588,59596
64647,59578
64707,59560
64816,59501
64912,59423
64991,59327
65049,59217
65085,59098
65097,58975
65085,58851
65049,58733
64991,58623
64912,58527
64816,58449
64707,58390
64647,58372
64588,58354
64557,58351
64495,58345
64434,58345
64372,58351
" /> 
<polyline style="fill-rule:evenodd;"
points="72372,58351
72341,58354
72282,58372
72222,58390
72113,58449
72017,58527
71938,58623
71880,58733
71844,58851
71832,58975
71844,59098
71880,59217
71938,59327
72017,59423
72113,59501
72222,59560
72282,59578
72341,59596
72372,59599
72434,59605
72495,59605
72557,59599
72588,59596
72647,59578
72707,59560
72816,59501
72912,59423
72991,59327
73049,59217
73085,59098
73097,58975
73085,58851
73049,58733
72991,58623
72912,58527
72816,58449
72707,58390
72647,58372
72588,58354
72557,58351
72495,58345
72434,58345
72372,58351
" /> 
<polyline style="fill-rule:evenodd;"
points="34335,54805
35594,54805
35594,53545
34335,53545
34335,54805
" /> 
<polyline style="fill-rule:evenodd;"
points="40872,53551
40841,53554
40782,53572
40722,53590
40613,53649
40517,53727
40438,53823
40380,53933
40344,54051
40332,54175
40344,54298
40380,54417
40438,54527
40517,54623
40613,54701
40722,54760
40782,54778
40841,54796
40872,54799
40934,54805
40995,54805
41057,54799
41088,54796
41147,54778
41207,54760
41316,54701
41412,54623
41491,54527
41549,54417
41585,54298
41597,54175
41585,54051
41549,53933
41491,53823
41412,53727
41316,53649
41207,53590
41147,53572
41088,53554
41057,53551
40995,53545
40934,53545
40872,53551
" /> 
<polyline style="fill-rule:evenodd;"
points="34872,51551
34841,51554
34782,51572
34722,51590
34613,51649
34517,51727
34438,51823
34380,51933
34344,52051
34332,52175
34344,52298
34380,52417
34438,52527
34517,52623
34613,52701
34722,52760
34782,52778
34841,52796
34872,52799
34934,52805
34995,52805
35057,52799
35088,52796
35147,52778
35207,52760
35316,52701
35412,52623
35491,52527
35549,52417
35585,52298
35597,52175
35585,52051
35549,51933
35491,51823
35412,51727
35316,51649
35207,51590
35147,51572
35088,51554
35057,51551
34995,51545
34934,51545
34872,51551
" /> 
<polyline style="fill-rule:evenodd;"
points="40872,51551
40841,51554
40782,51572
40722,51590
40613,51649
40517,51727
40438,51823
40380,51933
40344,52051
40332,52175
40344,52298
40380,52417
40438,52527
40517,52623
40613,52701
40722,52760
40782,52778
40841,52796
40872,52799
40934,52805
40995,52805
41057,52799
41088,52796
41147,52778
41207,52760
41316,52701
41412,52623
41491,52527
41549,52417
41585,52298
41597,52175
41585,52051
41549,51933
41491,51823
41412,51727
41316,51649
41207,51590
41147,51572
41088,51554
41057,51551
40995,51545
40934,51545
40872,51551
" /> 
<polyline style="fill-rule:evenodd;"
points="34872,49551
34841,49554
34782,49572
34722,49590
34613,49649
34517,49727
34438,49823
34380,49933
34344,50051
34332,50175
34344,50298
34380,50417
34438,50527
34517,50623
34613,50701
34722,50760
34782,50778
34841,50796
34872,50799
34934,50805
34995,50805
35057,50799
35088,50796
35147,50778
35207,50760
35316,50701
35412,50623
35491,50527
35549,50417
35585,50298
35597,50175
35585,50051
35549,49933
35491,49823
35412,49727
35316,49649
35207,49590
35147,49572
35088,49554
35057,49551
34995,49545
34934,49545
34872,49551
" /> 
<polyline style="fill-rule:evenodd;"
points="40872,49551
40841,49554
40782,49572
40722,49590
40613,49649
40517,49727
40438,49823
40380,49933
40344,50051
40332,50175
40344,50298
40380,50417
40438,50527
40517,50623
40613,50701
40722,50760
40782,50778
40841,50796
40872,50799
40934,50805
40995,50805
41057,50799
41088,50796
41147,50778
41207,50760
41316,50701
41412,50623
41491,50527
41549,50417
41585,50298
41597,50175
41585,50051
41549,49933
41491,49823
41412,49727
41316,49649
41207,49590
41147,49572
41088,49554
41057,49551
40995,49545
40934,49545
40872,49551
" /> 
<polyline style="fill-rule:evenodd;"
points="34872,47551
34841,47554
34823,47560
34722,47590
34613,47649
34517,47727
34438,47823
34380,47933
34362,47992
34344,48051
34332,48175
34335,48209
34344,48298
34380,48417
34438,48527
34517,48623
34613,48701
34722,48760
34782,48778
34841,48796
34872,48799
34934,48805
34995,48805
35057,48799
35088,48796
35147,48778
35207,48760
35316,48701
35412,48623
35491,48527
35549,48417
35585,48298
35594,48209
35597,48175
35585,48051
35567,47992
35549,47933
35491,47823
35412,47727
35316,47649
35207,47590
35106,47560
35088,47554
35057,47551
34995,47545
34934,47545
34872,47551
" /> 
<polyline style="fill-rule:evenodd;"
points="40872,47551
40841,47554
40823,47560
40722,47590
40613,47649
40517,47727
40438,47823
40380,47933
40362,47992
40344,48051
40332,48175
40335,48209
40344,48298
40380,48417
40438,48527
40517,48623
40613,48701
40722,48760
40782,48778
40841,48796
40872,48799
40934,48805
40995,48805
41057,48799
41088,48796
41147,48778
41207,48760
41316,48701
41412,48623
41491,48527
41549,48417
41585,48298
41594,48209
41597,48175
41585,48051
41567,47992
41549,47933
41491,47823
41412,47727
41316,47649
41207,47590
41106,47560
41088,47554
41057,47551
40995,47545
40934,47545
40872,47551
" /> 
<polyline style="fill-rule:evenodd;"
points="80402,46717
80276,46755
80159,46817
80057,46901
79974,47003
79934,47077
79912,47119
79873,47245
79873,47245
79864,47344
79864,47606
79873,47705
79912,47831
79974,47947
80057,48049
80159,48133
80202,48155
80276,48195
80310,48205
80402,48233
80533,48246
80664,48233
80790,48195
80907,48133
81009,48049
81092,47947
81118,47898
81154,47831
81165,47795
81193,47705
81202,47606
81202,47344
81193,47245
81154,47119
81092,47003
81009,46901
80907,46817
80790,46755
80664,46717
80533,46704
80402,46717
" /> 
<polyline style="fill-rule:evenodd;"
points="82370,46717
82244,46755
82128,46817
82026,46901
81942,47003
81903,47077
81880,47119
81842,47245
81842,47245
81832,47344
81832,47606
81842,47705
81880,47831
81942,47947
82026,48049
82128,48133
82170,48155
82244,48195
82278,48205
82370,48233
82502,48246
82633,48233
82759,48195
82875,48133
82977,48049
83061,47947
83087,47898
83123,47831
83134,47795
83161,47705
83171,47606
83171,47344
83161,47245
83123,47119
83061,47003
82977,46901
82875,46817
82759,46755
82633,46717
82502,46704
82370,46717
" /> 
<polyline style="fill-rule:evenodd;"
points="84339,46717
84213,46755
84096,46817
83994,46901
83911,47003
83871,47077
83849,47119
83810,47245
83810,47245
83801,47344
83801,47606
83810,47705
83849,47831
83911,47947
83994,48049
84096,48133
84139,48155
84213,48195
84247,48205
84339,48233
84470,48246
84601,48233
84727,48195
84844,48133
84946,48049
85029,47947
85055,47898
85091,47831
85102,47795
85130,47705
85139,47606
85139,47344
85130,47245
85091,47119
85029,47003
84946,46901
84844,46817
84727,46755
84601,46717
84470,46704
84339,46717
" /> 
<polyline style="fill-rule:evenodd;"
points="86307,46717
86181,46755
86065,46817
85963,46901
85879,47003
85840,47077
85817,47119
85779,47245
85779,47245
85769,47344
85769,47606
85779,47705
85817,47831
85879,47947
85963,48049
86065,48133
86107,48155
86181,48195
86215,48205
86307,48233
86439,48246
86570,48233
86696,48195
86812,48133
86914,48049
86998,47947
87024,47898
87060,47831
87071,47795
87098,47705
87108,47606
87108,47344
87098,47245
87060,47119
86998,47003
86914,46901
86812,46817
86696,46755
86570,46717
86439,46704
86307,46717
" /> 
<polyline style="fill-rule:evenodd;"
points="88276,46717
88150,46755
88033,46817
87931,46901
87848,47003
87808,47077
87786,47119
87747,47245
87747,47245
87738,47344
87738,47606
87747,47705
87786,47831
87848,47947
87931,48049
88033,48133
88076,48155
88150,48195
88184,48205
88276,48233
88407,48246
88538,48233
88664,48195
88781,48133
88883,48049
88966,47947
88992,47898
89028,47831
89039,47795
89067,47705
89076,47606
89076,47344
89067,47245
89028,47119
88966,47003
88883,46901
88781,46817
88664,46755
88538,46717
88407,46704
88276,46717
" /> 
<polyline style="fill-rule:evenodd;"
points="77998,46710
77974,46717
77952,46729
77933,46745
77917,46764
77905,46786
77898,46810
77895,46839
77895,48110
77898,48140
77905,48164
77917,48186
77933,48205
77952,48221
77974,48233
77998,48240
78027,48243
79102,48243
79131,48240
79155,48233
79177,48221
79196,48205
79212,48186
79224,48164
79231,48140
79234,48110
79234,46839
79231,46810
79224,46786
79212,46764
79196,46745
79177,46729
79155,46717
79131,46710
79102,46707
78027,46707
77998,46710
" /> 
<polyline style="fill-rule:evenodd;"
points="58372,46351
58341,46354
58282,46372
58222,46390
58113,46449
58017,46527
57938,46623
57880,46733
57873,46755
57844,46851
57832,46975
57844,47098
57862,47158
57880,47217
57938,47327
58017,47423
58113,47501
58222,47560
58282,47578
58341,47596
58372,47599
58434,47605
58495,47605
58557,47599
58588,47596
58647,47578
58707,47560
58816,47501
58912,47423
58991,47327
59049,47217
59067,47158
59085,47098
59097,46975
59085,46851
59056,46755
59049,46733
58991,46623
58912,46527
58816,46449
58707,46390
58647,46372
58588,46354
58557,46351
58495,46345
58434,46345
58372,46351
" /> 
<polyline style="fill-rule:evenodd;"
points="64372,46351
64341,46354
64282,46372
64222,46390
64113,46449
64017,46527
63938,46623
63880,46733
63873,46755
63844,46851
63832,46975
63844,47098
63862,47158
63880,47217
63938,47327
64017,47423
64113,47501
64222,47560
64282,47578
64341,47596
64372,47599
64434,47605
64495,47605
64557,47599
64588,47596
64647,47578
64707,47560
64816,47501
64912,47423
64991,47327
65049,47217
65067,47158
65085,47098
65097,46975
65085,46851
65056,46755
65049,46733
64991,46623
64912,46527
64816,46449
64707,46390
64647,46372
64588,46354
64557,46351
64495,46345
64434,46345
64372,46351
" /> 
<polyline style="fill-rule:evenodd;"
points="52372,46351
52341,46354
52282,46372
52222,46390
52113,46449
52017,46527
51938,46623
51880,46733
51873,46755
51844,46851
51832,46975
51844,47098
51862,47158
51880,47217
51938,47327
52017,47423
52113,47501
52222,47560
52282,47578
52341,47596
52372,47599
52434,47605
52495,47605
52557,47599
52588,47596
52647,47578
52707,47560
52816,47501
52912,47423
52991,47327
53049,47217
53067,47158
53085,47098
53097,46975
53085,46851
53056,46755
53049,46733
52991,46623
52912,46527
52816,46449
52707,46390
52647,46372
52588,46354
52557,46351
52495,46345
52434,46345
52372,46351
" /> 
<polyline style="fill-rule:evenodd;"
points="66372,46351
66341,46354
66282,46372
66222,46390
66113,46449
66017,46527
65938,46623
65880,46733
65873,46755
65844,46851
65832,46975
65844,47098
65862,47158
65880,47217
65938,47327
66017,47423
66113,47501
66222,47560
66282,47578
66341,47596
66372,47599
66434,47605
66495,47605
66557,47599
66588,47596
66647,47578
66707,47560
66816,47501
66912,47423
66991,47327
67049,47217
67067,47158
67085,47098
67097,46975
67085,46851
67056,46755
67049,46733
66991,46623
66912,46527
66816,46449
66707,46390
66647,46372
66588,46354
66557,46351
66495,46345
66434,46345
66372,46351
" /> 
<polyline style="fill-rule:evenodd;"
points="54372,46351
54341,46354
54282,46372
54222,46390
54113,46449
54017,46527
53938,46623
53880,46733
53873,46755
53844,46851
53832,46975
53844,47098
53862,47158
53880,47217
53938,47327
54017,47423
54113,47501
54222,47560
54282,47578
54341,47596
54372,47599
54434,47605
54495,47605
54557,47599
54588,47596
54647,47578
54707,47560
54816,47501
54912,47423
54991,47327
55049,47217
55067,47158
55085,47098
55097,46975
55085,46851
55056,46755
55049,46733
54991,46623
54912,46527
54816,46449
54707,46390
54647,46372
54588,46354
54557,46351
54495,46345
54434,46345
54372,46351
" /> 
<polyline style="fill-rule:evenodd;"
points="68372,46351
68341,46354
68282,46372
68222,46390
68113,46449
68017,46527
67938,46623
67880,46733
67873,46755
67844,46851
67832,46975
67844,47098
67862,47158
67880,47217
67938,47327
68017,47423
68113,47501
68222,47560
68282,47578
68341,47596
68372,47599
68434,47605
68495,47605
68557,47599
68588,47596
68647,47578
68707,47560
68816,47501
68912,47423
68991,47327
69049,47217
69067,47158
69085,47098
69097,46975
69085,46851
69056,46755
69049,46733
68991,46623
68912,46527
68816,46449
68707,46390
68647,46372
68588,46354
68557,46351
68495,46345
68434,46345
68372,46351
" /> 
<polyline style="fill-rule:evenodd;"
points="56372,46351
56341,46354
56282,46372
56222,46390
56113,46449
56017,46527
55938,46623
55880,46733
55873,46755
55844,46851
55832,46975
55844,47098
55862,47158
55880,47217
55938,47327
56017,47423
56113,47501
56222,47560
56282,47578
56341,47596
56372,47599
56434,47605
56495,47605
56557,47599
56588,47596
56647,47578
56707,47560
56816,47501
56912,47423
56991,47327
57049,47217
57067,47158
57085,47098
57097,46975
57085,46851
57056,46755
57049,46733
56991,46623
56912,46527
56816,46449
56707,46390
56647,46372
56588,46354
56557,46351
56495,46345
56434,46345
56372,46351
" /> 
<polyline style="fill-rule:evenodd;"
points="70372,46351
70341,46354
70282,46372
70222,46390
70113,46449
70017,46527
69938,46623
69880,46733
69873,46755
69844,46851
69832,46975
69844,47098
69862,47158
69880,47217
69938,47327
70017,47423
70113,47501
70222,47560
70282,47578
70341,47596
70372,47599
70434,47605
70495,47605
70557,47599
70588,47596
70647,47578
70707,47560
70816,47501
70912,47423
70991,47327
71049,47217
71067,47158
71085,47098
71097,46975
71085,46851
71056,46755
71049,46733
70991,46623
70912,46527
70816,46449
70707,46390
70647,46372
70588,46354
70557,46351
70495,46345
70434,46345
70372,46351
" /> 
<polyline style="fill-rule:evenodd;"
points="72372,46351
72341,46354
72282,46372
72222,46390
72113,46449
72017,46527
71938,46623
71880,46733
71873,46755
71844,46851
71832,46975
71844,47098
71862,47158
71880,47217
71938,47327
72017,47423
72113,47501
72222,47560
72282,47578
72341,47596
72372,47599
72434,47605
72495,47605
72557,47599
72588,47596
72647,47578
72707,47560
72816,47501
72912,47423
72991,47327
73049,47217
73067,47158
73085,47098
73097,46975
73085,46851
73056,46755
73049,46733
72991,46623
72912,46527
72816,46449
72707,46390
72647,46372
72588,46354
72557,46351
72495,46345
72434,46345
72372,46351
" /> 
<polyline style="fill-rule:evenodd;"
points="60372,46351
60341,46354
60282,46372
60222,46390
60113,46449
60017,46527
59938,46623
59880,46733
59873,46755
59844,46851
59832,46975
59844,47098
59862,47158
59880,47217
59938,47327
60017,47423
60113,47501
60222,47560
60282,47578
60341,47596
60372,47599
60434,47605
60495,47605
60557,47599
60588,47596
60647,47578
60707,47560
60816,47501
60912,47423
60991,47327
61049,47217
61067,47158
61085,47098
61097,46975
61085,46851
61056,46755
61049,46733
60991,46623
60912,46527
60816,46449
60707,46390
60647,46372
60588,46354
60557,46351
60495,46345
60434,46345
60372,46351
" /> 
<polyline style="fill-rule:evenodd;"
points="50372,46351
50341,46354
50282,46372
50222,46390
50113,46449
50017,46527
49938,46623
49880,46733
49873,46755
49844,46851
49832,46975
49844,47098
49862,47158
49880,47217
49938,47327
50017,47423
50113,47501
50222,47560
50282,47578
50341,47596
50372,47599
50434,47605
50495,47605
50557,47599
50588,47596
50647,47578
50707,47560
50816,47501
50912,47423
50991,47327
51049,47217
51067,47158
51085,47098
51097,46975
51085,46851
51056,46755
51049,46733
50991,46623
50912,46527
50816,46449
50707,46390
50647,46372
50588,46354
50557,46351
50495,46345
50434,46345
50372,46351
" /> 
<polyline style="fill-rule:evenodd;"
points="62372,46351
62341,46354
62282,46372
62222,46390
62113,46449
62017,46527
61938,46623
61880,46733
61873,46755
61844,46851
61832,46975
61844,47098
61862,47158
61880,47217
61938,47327
62017,47423
62113,47501
62222,47560
62282,47578
62341,47596
62372,47599
62434,47605
62495,47605
62557,47599
62588,47596
62647,47578
62707,47560
62816,47501
62912,47423
62991,47327
63049,47217
63067,47158
63085,47098
63097,46975
63085,46851
63056,46755
63049,46733
62991,46623
62912,46527
62816,46449
62707,46390
62647,46372
62588,46354
62557,46351
62495,46345
62434,46345
62372,46351
" /> 
<polyline style="fill-rule:evenodd;"
points="45835,47605
47094,47605
47094,46345
45835,46345
45835,47605
" /> 
<polyline style="fill-rule:evenodd;"
points="48372,46351
48341,46354
48282,46372
48222,46390
48113,46449
48017,46527
47938,46623
47880,46733
47873,46755
47844,46851
47832,46975
47844,47098
47862,47158
47880,47217
47938,47327
48017,47423
48113,47501
48222,47560
48282,47578
48341,47596
48372,47599
48434,47605
48495,47605
48557,47599
48588,47596
48647,47578
48707,47560
48816,47501
48912,47423
48991,47327
49049,47217
49067,47158
49085,47098
49097,46975
49085,46851
49056,46755
49049,46733
48991,46623
48912,46527
48816,46449
48707,46390
48647,46372
48588,46354
48557,46351
48495,46345
48434,46345
48372,46351
" /> 
<polyline style="fill-rule:evenodd;"
points="40872,45551
40841,45554
40782,45572
40722,45590
40613,45649
40517,45727
40438,45823
40380,45933
40380,45933
40344,46051
40332,46175
40344,46298
40362,46358
40380,46417
40438,46527
40517,46623
40613,46701
40722,46760
40782,46778
40841,46796
40872,46799
40934,46805
40995,46805
41057,46799
41088,46796
41147,46778
41207,46760
41316,46701
41412,46623
41491,46527
41549,46417
41567,46358
41585,46298
41597,46175
41585,46051
41549,45933
41549,45933
41491,45823
41412,45727
41316,45649
41207,45590
41147,45572
41088,45554
41057,45551
40995,45545
40934,45545
40872,45551
" /> 
<polyline style="fill-rule:evenodd;"
points="34872,45551
34841,45554
34782,45572
34722,45590
34613,45649
34517,45727
34438,45823
34380,45933
34380,45933
34344,46051
34332,46175
34344,46298
34362,46358
34380,46417
34438,46527
34517,46623
34613,46701
34722,46760
34782,46778
34841,46796
34872,46799
34934,46805
34995,46805
35057,46799
35088,46796
35147,46778
35207,46760
35316,46701
35412,46623
35491,46527
35549,46417
35567,46358
35585,46298
35597,46175
35585,46051
35549,45933
35549,45933
35491,45823
35412,45727
35316,45649
35207,45590
35147,45572
35088,45554
35057,45551
34995,45545
34934,45545
34872,45551
" /> 
<polyline style="fill-rule:evenodd;"
points="40872,43551
40841,43554
40782,43572
40722,43590
40613,43649
40517,43727
40438,43823
40380,43933
40344,44051
40332,44175
40344,44298
40380,44417
40438,44527
40517,44623
40613,44701
40722,44760
40782,44778
40841,44796
40872,44799
40934,44805
40995,44805
41057,44799
41088,44796
41147,44778
41207,44760
41316,44701
41412,44623
41491,44527
41549,44417
41585,44298
41597,44175
41585,44051
41549,43933
41491,43823
41412,43727
41316,43649
41207,43590
41147,43572
41088,43554
41057,43551
40995,43545
40934,43545
40872,43551
" /> 
<polyline style="fill-rule:evenodd;"
points="34872,43551
34841,43554
34782,43572
34722,43590
34613,43649
34517,43727
34438,43823
34380,43933
34344,44051
34332,44175
34344,44298
34380,44417
34438,44527
34517,44623
34613,44701
34722,44760
34782,44778
34841,44796
34872,44799
34934,44805
34995,44805
35057,44799
35088,44796
35147,44778
35207,44760
35316,44701
35412,44623
35491,44527
35549,44417
35585,44298
35597,44175
35585,44051
35549,43933
35491,43823
35412,43727
35316,43649
35207,43590
35147,43572
35088,43554
35057,43551
34995,43545
34934,43545
34872,43551
" /> 
<polyline style="fill-rule:evenodd;"
points="57849,42796
57792,42807
57748,42826
57685,42852
57588,42916
57506,42998
57441,43095
57397,43203
57374,43317
57374,43433
57397,43547
57441,43655
57506,43751
57588,43834
57685,43898
57748,43924
57792,43943
57849,43954
57906,43965
58023,43965
58080,43954
58137,43943
58181,43924
58244,43898
58341,43834
58423,43751
58488,43655
58532,43547
58555,43433
58555,43317
58532,43203
58488,43095
58423,42998
58341,42916
58244,42852
58181,42826
58137,42807
58080,42796
58023,42784
57906,42784
57849,42796
" /> 
<polyline style="fill-rule:evenodd;"
points="54007,42796
53950,42807
53905,42826
53842,42852
53746,42916
53663,42998
53599,43095
53554,43203
53531,43317
53531,43433
53554,43547
53599,43655
53663,43751
53746,43834
53842,43898
53905,43924
53950,43943
54007,43954
54064,43965
54180,43965
54237,43954
54294,43943
54339,43924
54402,43898
54498,43834
54581,43751
54645,43655
54690,43547
54713,43433
54713,43317
54690,43203
54645,43095
54581,42998
54498,42916
54402,42852
54339,42826
54294,42807
54237,42796
54180,42784
54064,42784
54007,42796
" /> 
<polyline style="fill-rule:evenodd;"
points="34872,41551
34841,41554
34782,41572
34722,41590
34613,41649
34517,41727
34438,41823
34380,41933
34344,42051
34332,42175
34344,42298
34380,42417
34438,42527
34517,42623
34613,42701
34722,42760
34782,42778
34841,42796
34872,42799
34934,42805
34995,42805
35057,42799
35088,42796
35147,42778
35207,42760
35316,42701
35412,42623
35491,42527
35549,42417
35585,42298
35597,42175
35585,42051
35549,41933
35491,41823
35412,41727
35316,41649
35207,41590
35147,41572
35088,41554
35057,41551
34995,41545
34934,41545
34872,41551
" /> 
<polyline style="fill-rule:evenodd;"
points="40872,41551
40841,41554
40782,41572
40722,41590
40613,41649
40517,41727
40438,41823
40380,41933
40344,42051
40332,42175
40344,42298
40380,42417
40438,42527
40517,42623
40613,42701
40722,42760
40782,42778
40841,42796
40872,42799
40934,42805
40995,42805
41057,42799
41088,42796
41147,42778
41207,42760
41316,42701
41412,42623
41491,42527
41549,42417
41585,42298
41597,42175
41585,42051
41549,41933
41491,41823
41412,41727
41316,41649
41207,41590
41147,41572
41088,41554
41057,41551
40995,41545
40934,41545
40872,41551
" /> 
<polyline style="fill-rule:evenodd;"
points="84656,42284
86073,42284
86073,40866
84656,40866
84656,42284
" /> 
<polyline style="fill-rule:evenodd;"
points="87226,40877
87092,40917
86969,40983
86861,41071
86772,41179
86707,41302
86666,41436
86652,41575
86666,41714
86707,41847
86772,41971
86861,42078
86969,42167
87092,42233
87226,42273
87330,42284
87399,42284
87503,42273
87637,42233
87760,42167
87868,42078
87957,41971
88022,41847
88063,41714
88077,41575
88063,41436
88022,41302
87957,41179
87868,41071
87760,40983
87637,40917
87503,40877
87399,40866
87330,40866
87226,40877
" /> 
<polyline style="fill-rule:evenodd;"
points="89226,40877
89092,40917
88969,40983
88861,41071
88772,41179
88707,41302
88666,41436
88652,41575
88666,41714
88707,41847
88772,41971
88861,42078
88969,42167
89092,42233
89226,42273
89330,42284
89399,42284
89503,42273
89637,42233
89760,42167
89868,42078
89957,41971
90022,41847
90063,41714
90077,41575
90063,41436
90022,41302
89957,41179
89868,41071
89760,40983
89637,40917
89503,40877
89399,40866
89330,40866
89226,40877
" /> 
<polyline style="fill-rule:evenodd;"
points="64172,39451
64141,39454
64082,39472
64022,39490
63913,39549
63817,39627
63738,39723
63680,39833
63644,39951
63632,40075
63644,40198
63680,40317
63738,40427
63817,40523
63913,40601
64022,40660
64082,40678
64141,40696
64172,40699
64234,40705
64295,40705
64357,40699
64388,40696
64447,40678
64507,40660
64616,40601
64712,40523
64791,40427
64849,40317
64885,40198
64897,40075
64885,39951
64849,39833
64791,39723
64712,39627
64616,39549
64507,39490
64447,39472
64388,39454
64357,39451
64295,39445
64234,39445
64172,39451
" /> 
<polyline style="fill-rule:evenodd;"
points="46172,39451
46141,39454
46082,39472
46022,39490
45913,39549
45817,39627
45738,39723
45680,39833
45644,39951
45632,40075
45644,40198
45680,40317
45738,40427
45817,40523
45913,40601
46022,40660
46082,40678
46141,40696
46172,40699
46234,40705
46295,40705
46357,40699
46388,40696
46447,40678
46507,40660
46616,40601
46712,40523
46791,40427
46849,40317
46885,40198
46897,40075
46885,39951
46849,39833
46791,39723
46712,39627
46616,39549
46507,39490
46447,39472
46388,39454
46357,39451
46295,39445
46234,39445
46172,39451
" /> 
<polyline style="fill-rule:evenodd;"
points="71635,40705
72894,40705
72894,39445
71635,39445
71635,40705
" /> 
<polyline style="fill-rule:evenodd;"
points="70172,39451
70141,39454
70082,39472
70022,39490
69913,39549
69817,39627
69738,39723
69680,39833
69644,39951
69632,40075
69644,40198
69680,40317
69738,40427
69817,40523
69913,40601
70022,40660
70082,40678
70141,40696
70172,40699
70234,40705
70295,40705
70357,40699
70388,40696
70447,40678
70507,40660
70616,40601
70712,40523
70791,40427
70849,40317
70885,40198
70897,40075
70885,39951
70849,39833
70791,39723
70712,39627
70616,39549
70507,39490
70447,39472
70388,39454
70357,39451
70295,39445
70234,39445
70172,39451
" /> 
<polyline style="fill-rule:evenodd;"
points="68172,39451
68141,39454
68082,39472
68022,39490
67913,39549
67817,39627
67738,39723
67680,39833
67644,39951
67632,40075
67644,40198
67680,40317
67738,40427
67817,40523
67913,40601
68022,40660
68082,40678
68141,40696
68172,40699
68234,40705
68295,40705
68357,40699
68388,40696
68447,40678
68507,40660
68616,40601
68712,40523
68791,40427
68849,40317
68885,40198
68897,40075
68885,39951
68849,39833
68791,39723
68712,39627
68616,39549
68507,39490
68447,39472
68388,39454
68357,39451
68295,39445
68234,39445
68172,39451
" /> 
<polyline style="fill-rule:evenodd;"
points="66172,39451
66141,39454
66082,39472
66022,39490
65913,39549
65817,39627
65738,39723
65680,39833
65644,39951
65632,40075
65644,40198
65680,40317
65738,40427
65817,40523
65913,40601
66022,40660
66082,40678
66141,40696
66172,40699
66234,40705
66295,40705
66357,40699
66388,40696
66447,40678
66507,40660
66616,40601
66712,40523
66791,40427
66849,40317
66885,40198
66897,40075
66885,39951
66849,39833
66791,39723
66712,39627
66616,39549
66507,39490
66447,39472
66388,39454
66357,39451
66295,39445
66234,39445
66172,39451
" /> 
<polyline style="fill-rule:evenodd;"
points="62172,39451
62141,39454
62082,39472
62022,39490
61913,39549
61817,39627
61738,39723
61680,39833
61644,39951
61632,40075
61644,40198
61680,40317
61738,40427
61817,40523
61913,40601
62022,40660
62082,40678
62141,40696
62172,40699
62234,40705
62295,40705
62357,40699
62388,40696
62447,40678
62507,40660
62616,40601
62712,40523
62791,40427
62849,40317
62885,40198
62897,40075
62885,39951
62849,39833
62791,39723
62712,39627
62616,39549
62507,39490
62447,39472
62388,39454
62357,39451
62295,39445
62234,39445
62172,39451
" /> 
<polyline style="fill-rule:evenodd;"
points="48172,39451
48141,39454
48082,39472
48022,39490
47913,39549
47817,39627
47738,39723
47680,39833
47644,39951
47632,40075
47644,40198
47680,40317
47738,40427
47817,40523
47913,40601
48022,40660
48082,40678
48141,40696
48172,40699
48234,40705
48295,40705
48357,40699
48388,40696
48447,40678
48507,40660
48616,40601
48712,40523
48791,40427
48849,40317
48885,40198
48897,40075
48885,39951
48849,39833
48791,39723
48712,39627
48616,39549
48507,39490
48447,39472
48388,39454
48357,39451
48295,39445
48234,39445
48172,39451
" /> 
<polyline style="fill-rule:evenodd;"
points="54172,39451
54141,39454
54082,39472
54022,39490
53913,39549
53817,39627
53738,39723
53680,39833
53644,39951
53632,40075
53644,40198
53680,40317
53738,40427
53817,40523
53913,40601
54022,40660
54082,40678
54141,40696
54172,40699
54234,40705
54295,40705
54357,40699
54388,40696
54447,40678
54507,40660
54616,40601
54712,40523
54791,40427
54849,40317
54885,40198
54897,40075
54885,39951
54849,39833
54791,39723
54712,39627
54616,39549
54507,39490
54447,39472
54388,39454
54357,39451
54295,39445
54234,39445
54172,39451
" /> 
<polyline style="fill-rule:evenodd;"
points="50172,39451
50141,39454
50082,39472
50022,39490
49913,39549
49817,39627
49738,39723
49680,39833
49644,39951
49632,40075
49644,40198
49680,40317
49738,40427
49817,40523
49913,40601
50022,40660
50082,40678
50141,40696
50172,40699
50234,40705
50295,40705
50357,40699
50388,40696
50447,40678
50507,40660
50616,40601
50712,40523
50791,40427
50849,40317
50885,40198
50897,40075
50885,39951
50849,39833
50791,39723
50712,39627
50616,39549
50507,39490
50447,39472
50388,39454
50357,39451
50295,39445
50234,39445
50172,39451
" /> 
<polyline style="fill-rule:evenodd;"
points="56172,39451
56141,39454
56082,39472
56022,39490
55913,39549
55817,39627
55738,39723
55680,39833
55644,39951
55632,40075
55644,40198
55680,40317
55738,40427
55817,40523
55913,40601
56022,40660
56082,40678
56141,40696
56172,40699
56234,40705
56295,40705
56357,40699
56388,40696
56447,40678
56507,40660
56616,40601
56712,40523
56791,40427
56849,40317
56885,40198
56897,40075
56885,39951
56849,39833
56791,39723
56712,39627
56616,39549
56507,39490
56447,39472
56388,39454
56357,39451
56295,39445
56234,39445
56172,39451
" /> 
<polyline style="fill-rule:evenodd;"
points="52172,39451
52141,39454
52082,39472
52022,39490
51913,39549
51817,39627
51738,39723
51680,39833
51644,39951
51632,40075
51644,40198
51680,40317
51738,40427
51817,40523
51913,40601
52022,40660
52082,40678
52141,40696
52172,40699
52234,40705
52295,40705
52357,40699
52388,40696
52447,40678
52507,40660
52616,40601
52712,40523
52791,40427
52849,40317
52885,40198
52897,40075
52885,39951
52849,39833
52791,39723
52712,39627
52616,39549
52507,39490
52447,39472
52388,39454
52357,39451
52295,39445
52234,39445
52172,39451
" /> 
<polyline style="fill-rule:evenodd;"
points="58172,39451
58141,39454
58082,39472
58022,39490
57913,39549
57817,39627
57738,39723
57680,39833
57644,39951
57632,40075
57644,40198
57680,40317
57738,40427
57817,40523
57913,40601
58022,40660
58082,40678
58141,40696
58172,40699
58234,40705
58295,40705
58357,40699
58388,40696
58447,40678
58507,40660
58616,40601
58712,40523
58791,40427
58849,40317
58885,40198
58897,40075
58885,39951
58849,39833
58791,39723
58712,39627
58616,39549
58507,39490
58447,39472
58388,39454
58357,39451
58295,39445
58234,39445
58172,39451
" /> 
<polyline style="fill-rule:evenodd;"
points="60172,39451
60141,39454
60082,39472
60022,39490
59913,39549
59817,39627
59738,39723
59680,39833
59644,39951
59632,40075
59644,40198
59680,40317
59738,40427
59817,40523
59913,40601
60022,40660
60082,40678
60141,40696
60172,40699
60234,40705
60295,40705
60357,40699
60388,40696
60447,40678
60507,40660
60616,40601
60712,40523
60791,40427
60849,40317
60885,40198
60897,40075
60885,39951
60849,39833
60791,39723
60712,39627
60616,39549
60507,39490
60447,39472
60388,39454
60357,39451
60295,39445
60234,39445
60172,39451
" /> 
<polyline style="fill-rule:evenodd;"
points="39295,38944
40634,38944
40634,37606
39295,37606
39295,38944
" /> 
<polyline style="fill-rule:evenodd;"
points="41833,37615
41707,37654
41591,37716
41489,37799
41405,37901
41343,38018
41305,38144
41292,38275
41305,38406
41343,38532
41405,38649
41489,38750
41591,38834
41707,38896
41833,38935
41932,38944
41997,38944
42096,38935
42222,38896
42338,38834
42440,38750
42524,38649
42586,38532
42624,38406
42637,38275
42624,38144
42586,38018
42524,37901
42440,37799
42338,37716
42222,37654
42096,37615
41997,37606
41932,37606
41833,37615
" /> 
<polyline style="fill-rule:evenodd;"
points="82450,37296
82378,37326
82314,37369
82314,37369
82259,37424
82259,37424
82216,37488
82186,37560
82171,37636
82171,37714
82186,37790
82216,37861
82259,37926
82314,37981
82314,37981
82378,38024
82450,38054
82526,38069
82603,38069
82679,38054
82751,38024
82815,37981
82815,37981
82870,37926
82913,37861
82943,37790
82958,37714
82958,37636
82943,37560
82913,37488
82870,37424
82870,37424
82815,37369
82815,37369
82751,37326
82679,37296
82603,37281
82526,37281
82450,37296
" /> 
<polyline style="fill-rule:evenodd;"
points="39833,35615
39707,35654
39591,35716
39489,35799
39405,35901
39343,36018
39305,36144
39292,36275
39305,36406
39343,36532
39405,36649
39489,36750
39591,36834
39707,36896
39833,36935
39932,36944
39997,36944
40096,36935
40222,36896
40338,36834
40440,36750
40524,36649
40586,36532
40624,36406
40637,36275
40624,36144
40586,36018
40524,35901
40440,35799
40338,35716
40222,35654
40096,35615
39997,35606
39932,35606
39833,35615
" /> 
<polyline style="fill-rule:evenodd;"
points="41833,35615
41707,35654
41591,35716
41489,35799
41405,35901
41343,36018
41305,36144
41292,36275
41305,36406
41343,36532
41405,36649
41489,36750
41591,36834
41707,36896
41833,36935
41932,36944
41997,36944
42096,36935
42222,36896
42338,36834
42440,36750
42524,36649
42586,36532
42624,36406
42637,36275
42624,36144
42586,36018
42524,35901
42440,35799
42338,35716
42222,35654
42096,35615
41997,35606
41932,35606
41833,35615
" /> 
<polyline style="fill-rule:evenodd;"
points="82450,35800
82378,35830
82314,35872
82314,35873
82259,35928
82216,35992
82186,36064
82171,36140
82171,36218
82186,36294
82216,36365
82259,36430
82314,36485
82314,36485
82378,36528
82450,36557
82526,36573
82603,36573
82679,36557
82751,36528
82815,36485
82815,36485
82870,36430
82913,36365
82943,36294
82958,36218
82958,36140
82943,36064
82913,35992
82870,35928
82815,35873
82815,35872
82751,35830
82679,35800
82603,35785
82526,35785
82450,35800
" /> 
<polyline style="fill-rule:evenodd;"
points="39833,33615
39707,33654
39591,33716
39489,33799
39405,33901
39343,34018
39305,34144
39292,34275
39305,34406
39343,34532
39405,34649
39489,34750
39591,34834
39707,34896
39833,34935
39932,34944
39997,34944
40096,34935
40222,34896
40338,34834
40440,34750
40524,34649
40586,34532
40624,34406
40637,34275
40624,34144
40586,34018
40524,33901
40440,33799
40338,33716
40222,33654
40096,33615
39997,33606
39932,33606
39833,33615
" /> 
<polyline style="fill-rule:evenodd;"
points="41833,33615
41707,33654
41591,33716
41489,33799
41405,33901
41343,34018
41305,34144
41292,34275
41305,34406
41343,34532
41405,34649
41489,34750
41591,34834
41707,34896
41833,34935
41932,34944
41997,34944
42096,34935
42222,34896
42338,34834
42440,34750
42524,34649
42586,34532
42624,34406
42637,34275
42624,34144
42586,34018
42524,33901
42440,33799
42338,33716
42222,33654
42096,33615
41997,33606
41932,33606
41833,33615
" /> 
<polyline style="fill-rule:evenodd;"
points="62172,33451
62141,33454
62082,33472
62022,33490
61913,33549
61817,33627
61738,33723
61680,33833
61644,33951
61632,34075
61644,34198
61680,34317
61738,34427
61817,34523
61913,34601
62022,34660
62082,34678
62141,34696
62172,34699
62234,34705
62295,34705
62357,34699
62388,34696
62447,34678
62507,34660
62616,34601
62712,34523
62791,34427
62849,34317
62885,34198
62897,34075
62885,33951
62849,33833
62791,33723
62712,33627
62616,33549
62507,33490
62447,33472
62388,33454
62357,33451
62295,33445
62234,33445
62172,33451
" /> 
<polyline style="fill-rule:evenodd;"
points="60172,33451
60141,33454
60082,33472
60022,33490
59913,33549
59817,33627
59738,33723
59680,33833
59644,33951
59632,34075
59644,34198
59680,34317
59738,34427
59817,34523
59913,34601
60022,34660
60082,34678
60141,34696
60172,34699
60234,34705
60295,34705
60357,34699
60388,34696
60447,34678
60507,34660
60616,34601
60712,34523
60791,34427
60849,34317
60885,34198
60897,34075
60885,33951
60849,33833
60791,33723
60712,33627
60616,33549
60507,33490
60447,33472
60388,33454
60357,33451
60295,33445
60234,33445
60172,33451
" /> 
<polyline style="fill-rule:evenodd;"
points="64172,33451
64141,33454
64082,33472
64022,33490
63913,33549
63817,33627
63738,33723
63680,33833
63644,33951
63632,34075
63644,34198
63680,34317
63738,34427
63817,34523
63913,34601
64022,34660
64082,34678
64141,34696
64172,34699
64234,34705
64295,34705
64357,34699
64388,34696
64447,34678
64507,34660
64616,34601
64712,34523
64791,34427
64849,34317
64885,34198
64897,34075
64885,33951
64849,33833
64791,33723
64712,33627
64616,33549
64507,33490
64447,33472
64388,33454
64357,33451
64295,33445
64234,33445
64172,33451
" /> 
<polyline style="fill-rule:evenodd;"
points="66172,33451
66141,33454
66082,33472
66022,33490
65913,33549
65817,33627
65738,33723
65680,33833
65644,33951
65632,34075
65644,34198
65680,34317
65738,34427
65817,34523
65913,34601
66022,34660
66082,34678
66141,34696
66172,34699
66234,34705
66295,34705
66357,34699
66388,34696
66447,34678
66507,34660
66616,34601
66712,34523
66791,34427
66849,34317
66885,34198
66897,34075
66885,33951
66849,33833
66791,33723
66712,33627
66616,33549
66507,33490
66447,33472
66388,33454
66357,33451
66295,33445
66234,33445
66172,33451
" /> 
<polyline style="fill-rule:evenodd;"
points="68172,33451
68141,33454
68082,33472
68022,33490
67913,33549
67817,33627
67738,33723
67680,33833
67644,33951
67632,34075
67644,34198
67680,34317
67738,34427
67817,34523
67913,34601
68022,34660
68082,34678
68141,34696
68172,34699
68234,34705
68295,34705
68357,34699
68388,34696
68447,34678
68507,34660
68616,34601
68712,34523
68791,34427
68849,34317
68885,34198
68897,34075
68885,33951
68849,33833
68791,33723
68712,33627
68616,33549
68507,33490
68447,33472
68388,33454
68357,33451
68295,33445
68234,33445
68172,33451
" /> 
<polyline style="fill-rule:evenodd;"
points="70172,33451
70141,33454
70082,33472
70022,33490
69913,33549
69817,33627
69738,33723
69680,33833
69644,33951
69632,34075
69644,34198
69680,34317
69738,34427
69817,34523
69913,34601
70022,34660
70082,34678
70141,34696
70172,34699
70234,34705
70295,34705
70357,34699
70388,34696
70447,34678
70507,34660
70616,34601
70712,34523
70791,34427
70849,34317
70885,34198
70897,34075
70885,33951
70849,33833
70791,33723
70712,33627
70616,33549
70507,33490
70447,33472
70388,33454
70357,33451
70295,33445
70234,33445
70172,33451
" /> 
<polyline style="fill-rule:evenodd;"
points="72172,33451
72141,33454
72082,33472
72022,33490
71913,33549
71817,33627
71738,33723
71680,33833
71644,33951
71632,34075
71644,34198
71680,34317
71738,34427
71817,34523
71913,34601
72022,34660
72082,34678
72141,34696
72172,34699
72234,34705
72295,34705
72357,34699
72388,34696
72447,34678
72507,34660
72616,34601
72712,34523
72791,34427
72849,34317
72885,34198
72897,34075
72885,33951
72849,33833
72791,33723
72712,33627
72616,33549
72507,33490
72447,33472
72388,33454
72357,33451
72295,33445
72234,33445
72172,33451
" /> 
<polyline style="fill-rule:evenodd;"
points="46172,33451
46141,33454
46082,33472
46022,33490
45913,33549
45817,33627
45738,33723
45680,33833
45644,33951
45632,34075
45644,34198
45680,34317
45738,34427
45817,34523
45913,34601
46022,34660
46082,34678
46141,34696
46172,34699
46234,34705
46295,34705
46357,34699
46388,34696
46447,34678
46507,34660
46616,34601
46712,34523
46791,34427
46849,34317
46885,34198
46897,34075
46885,33951
46849,33833
46791,33723
46712,33627
46616,33549
46507,33490
46447,33472
46388,33454
46357,33451
46295,33445
46234,33445
46172,33451
" /> 
<polyline style="fill-rule:evenodd;"
points="48172,33451
48141,33454
48082,33472
48022,33490
47913,33549
47817,33627
47738,33723
47680,33833
47644,33951
47632,34075
47644,34198
47680,34317
47738,34427
47817,34523
47913,34601
48022,34660
48082,34678
48141,34696
48172,34699
48234,34705
48295,34705
48357,34699
48388,34696
48447,34678
48507,34660
48616,34601
48712,34523
48791,34427
48849,34317
48885,34198
48897,34075
48885,33951
48849,33833
48791,33723
48712,33627
48616,33549
48507,33490
48447,33472
48388,33454
48357,33451
48295,33445
48234,33445
48172,33451
" /> 
<polyline style="fill-rule:evenodd;"
points="50172,33451
50141,33454
50082,33472
50022,33490
49913,33549
49817,33627
49738,33723
49680,33833
49644,33951
49632,34075
49644,34198
49680,34317
49738,34427
49817,34523
49913,34601
50022,34660
50082,34678
50141,34696
50172,34699
50234,34705
50295,34705
50357,34699
50388,34696
50447,34678
50507,34660
50616,34601
50712,34523
50791,34427
50849,34317
50885,34198
50897,34075
50885,33951
50849,33833
50791,33723
50712,33627
50616,33549
50507,33490
50447,33472
50388,33454
50357,33451
50295,33445
50234,33445
50172,33451
" /> 
<polyline style="fill-rule:evenodd;"
points="52172,33451
52141,33454
52082,33472
52022,33490
51913,33549
51817,33627
51738,33723
51680,33833
51644,33951
51632,34075
51644,34198
51680,34317
51738,34427
51817,34523
51913,34601
52022,34660
52082,34678
52141,34696
52172,34699
52234,34705
52295,34705
52357,34699
52388,34696
52447,34678
52507,34660
52616,34601
52712,34523
52791,34427
52849,34317
52885,34198
52897,34075
52885,33951
52849,33833
52791,33723
52712,33627
52616,33549
52507,33490
52447,33472
52388,33454
52357,33451
52295,33445
52234,33445
52172,33451
" /> 
<polyline style="fill-rule:evenodd;"
points="58172,33451
58141,33454
58082,33472
58022,33490
57913,33549
57817,33627
57738,33723
57680,33833
57644,33951
57632,34075
57644,34198
57680,34317
57738,34427
57817,34523
57913,34601
58022,34660
58082,34678
58141,34696
58172,34699
58234,34705
58295,34705
58357,34699
58388,34696
58447,34678
58507,34660
58616,34601
58712,34523
58791,34427
58849,34317
58885,34198
58897,34075
58885,33951
58849,33833
58791,33723
58712,33627
58616,33549
58507,33490
58447,33472
58388,33454
58357,33451
58295,33445
58234,33445
58172,33451
" /> 
<polyline style="fill-rule:evenodd;"
points="56172,33451
56141,33454
56082,33472
56022,33490
55913,33549
55817,33627
55738,33723
55680,33833
55644,33951
55632,34075
55644,34198
55680,34317
55738,34427
55817,34523
55913,34601
56022,34660
56082,34678
56141,34696
56172,34699
56234,34705
56295,34705
56357,34699
56388,34696
56447,34678
56507,34660
56616,34601
56712,34523
56791,34427
56849,34317
56885,34198
56897,34075
56885,33951
56849,33833
56791,33723
56712,33627
56616,33549
56507,33490
56447,33472
56388,33454
56357,33451
56295,33445
56234,33445
56172,33451
" /> 
<polyline style="fill-rule:evenodd;"
points="54172,33451
54141,33454
54082,33472
54022,33490
53913,33549
53817,33627
53738,33723
53680,33833
53644,33951
53632,34075
53644,34198
53680,34317
53738,34427
53817,34523
53913,34601
54022,34660
54082,34678
54141,34696
54172,34699
54234,34705
54295,34705
54357,34699
54388,34696
54447,34678
54507,34660
54616,34601
54712,34523
54791,34427
54849,34317
54885,34198
54897,34075
54885,33951
54849,33833
54791,33723
54712,33627
54616,33549
54507,33490
54447,33472
54388,33454
54357,33451
54295,33445
54234,33445
54172,33451
" /> 
<polyline style="fill-rule:evenodd;"
points="56526,30700
56435,30718
56292,30777
56163,30863
56053,30973
55967,31102
55907,31245
55877,31397
55877,31552
55907,31705
55967,31848
56053,31977
56163,32087
56292,32173
56435,32232
56526,32250
56587,32262
56742,32262
56803,32250
56894,32232
57037,32173
57166,32087
57276,31977
57362,31848
57422,31705
57452,31552
57452,31397
57422,31245
57362,31102
57276,30973
57166,30863
57037,30777
56894,30718
56803,30700
56742,30688
56587,30688
56526,30700
" /> 
<polyline style="fill-rule:evenodd;"
points="61644,30700
61553,30718
61410,30777
61281,30863
61171,30973
61085,31102
61025,31245
60995,31397
60995,31552
61025,31705
61085,31848
61171,31977
61281,32087
61410,32173
61553,32232
61644,32250
61705,32262
61860,32262
61921,32250
62012,32232
62156,32173
62285,32087
62394,31977
62480,31848
62540,31705
62570,31552
62570,31397
62540,31245
62480,31102
62394,30973
62285,30863
62156,30777
62012,30718
61921,30700
61860,30688
61705,30688
61644,30700
" /> 
<polyline style="fill-rule:evenodd;"
points="72198,31941
73931,31941
73931,30209
72198,30209
72198,31941
" /> 
<polyline style="fill-rule:evenodd;"
points="64895,30221
64731,30271
64731,30271
64581,30351
64449,30460
64341,30591
64273,30718
64260,30742
64211,30905
64194,31075
64211,31245
64257,31397
64260,31408
64341,31558
64449,31690
64581,31799
64731,31879
64731,31879
64895,31929
65022,31941
65107,31941
65234,31929
65398,31879
65398,31879
65548,31799
65680,31690
65788,31558
65869,31408
65872,31397
65918,31245
65935,31075
65918,30905
65869,30742
65856,30718
65788,30591
65680,30460
65548,30351
65398,30271
65398,30271
65234,30221
65107,30209
65022,30209
64895,30221
" /> 
<polyline style="fill-rule:evenodd;"
points="56526,27156
56435,27174
56292,27234
56163,27320
56053,27430
55967,27559
55907,27702
55877,27854
55877,28009
55907,28161
55967,28305
56053,28434
56163,28543
56292,28629
56435,28689
56526,28707
56587,28719
56742,28719
56803,28707
56894,28689
57037,28629
57166,28543
57276,28434
57362,28305
57422,28161
57452,28009
57452,27854
57422,27702
57362,27559
57276,27430
57166,27320
57037,27234
56894,27174
56803,27156
56742,27144
56587,27144
56526,27156
" /> 
<polyline style="fill-rule:evenodd;"
points="61644,27156
61553,27174
61410,27234
61281,27320
61171,27430
61085,27559
61025,27702
60995,27854
60995,28009
61025,28161
61085,28305
61171,28434
61281,28543
61410,28629
61553,28689
61644,28707
61705,28719
61860,28719
61921,28707
62012,28689
62156,28629
62285,28543
62394,28434
62480,28305
62540,28161
62570,28009
62570,27854
62540,27702
62480,27559
62394,27430
62285,27320
62156,27234
62012,27174
61921,27156
61860,27144
61705,27144
61644,27156
" /> 
<polyline style="fill-rule:evenodd;"
points="89595,26061
89469,26099
89352,26161
89251,26245
89167,26347
89105,26463
89066,26589
89054,26720
89066,26852
89105,26978
89167,27094
89251,27196
89352,27280
89469,27342
89595,27380
89693,27390
89956,27390
90054,27380
90180,27342
90297,27280
90398,27196
90482,27094
90544,26978
90583,26852
90595,26720
90583,26589
90544,26463
90482,26347
90398,26245
90297,26161
90180,26099
90054,26061
89956,26051
89693,26051
89595,26061
" /> 
<polyline style="fill-rule:evenodd;"
points="89595,24092
89469,24131
89352,24193
89251,24276
89167,24378
89105,24495
89066,24621
89054,24752
89066,24883
89105,25009
89167,25126
89251,25227
89352,25311
89469,25373
89595,25412
89693,25421
89956,25421
90054,25412
90180,25373
90297,25311
90398,25227
90482,25126
90544,25009
90583,24883
90595,24752
90583,24621
90544,24495
90482,24378
90398,24276
90297,24193
90180,24131
90054,24092
89956,24083
89693,24083
89595,24092
" /> 
<polyline style="fill-rule:evenodd;"
points="66087,25177
68842,25177
68842,22421
66087,22421
66087,25177
" /> 
<polyline style="fill-rule:evenodd;"
points="75015,23715
74889,23754
74773,23816
74671,23899
74587,24001
74525,24118
74487,24244
74474,24375
74487,24506
74525,24632
74587,24749
74671,24850
74773,24934
74889,24996
75015,25035
75114,25044
75415,25044
75514,25035
75640,24996
75756,24934
75858,24850
75942,24749
76004,24632
76042,24506
76055,24375
76042,24244
76004,24118
75942,24001
75858,23899
75756,23816
75640,23754
75514,23715
75415,23706
75114,23706
75015,23715
" /> 
<polyline style="fill-rule:evenodd;"
points="82377,24925
83952,24925
83952,23425
82377,23425
82377,24925
" /> 
<polyline style="fill-rule:evenodd;"
points="89595,22124
89469,22162
89352,22224
89251,22308
89167,22410
89105,22526
89066,22652
89054,22783
89066,22915
89105,23041
89167,23157
89251,23259
89352,23343
89469,23405
89595,23443
89693,23453
89956,23453
90054,23443
90180,23405
90297,23343
90398,23259
90482,23157
90544,23041
90583,22915
90595,22783
90583,22652
90544,22526
90482,22410
90398,22308
90297,22224
90180,22162
90054,22124
89956,22114
89693,22114
89595,22124
" /> 
<polyline style="fill-rule:evenodd;"
points="74580,21740
74556,21747
74534,21759
74515,21775
74499,21794
74487,21816
74480,21840
74477,21869
74477,22944
74480,22973
74487,22997
74499,23019
74515,23038
74534,23054
74556,23066
74580,23073
74609,23076
75920,23076
75949,23073
75973,23066
75995,23054
76014,23038
76030,23019
76042,22997
76049,22973
76052,22944
76052,21869
76049,21840
76042,21816
76030,21794
76014,21775
75995,21759
75973,21747
75949,21740
75920,21737
74609,21737
74580,21740
" /> 
<polyline style="fill-rule:evenodd;"
points="82980,21436
82839,21479
82708,21548
82594,21642
82500,21756
82431,21887
82388,22028
82373,22175
82388,22322
82431,22463
82500,22594
82594,22708
82708,22802
82839,22871
82980,22914
83090,22925
83239,22925
83349,22914
83490,22871
83621,22802
83735,22708
83829,22594
83898,22463
83941,22322
83956,22175
83941,22028
83898,21887
83829,21756
83735,21642
83621,21548
83490,21479
83349,21436
83239,21425
83090,21425
82980,21436
" /> 
<polyline style="fill-rule:evenodd;"
points="70302,20072
70182,20108
70072,20167
69975,20247
69896,20344
69836,20454
69800,20574
69787,20704
69787,22170
69800,22300
69836,22420
69896,22530
69975,22627
70072,22707
70182,22766
70302,22802
70432,22815
71899,22815
72028,22802
72148,22766
72259,22707
72356,22627
72435,22530
72494,22420
72530,22300
72543,22170
72543,20704
72530,20574
72494,20454
72435,20344
72356,20247
72259,20167
72148,20108
72028,20072
71899,20059
70432,20059
70302,20072
" /> 
<polyline style="fill-rule:evenodd;"
points="76701,20692
76616,20728
76538,20780
76472,20845
76421,20923
76385,21009
76367,21100
76367,21193
76385,21284
76421,21370
76472,21448
76538,21514
76616,21565
76701,21601
76793,21619
76886,21619
76977,21601
77063,21565
77140,21514
77206,21448
77258,21370
77294,21284
77312,21193
77312,21100
77294,21009
77258,20923
77206,20845
77140,20780
77063,20728
76977,20692
76886,20674
76793,20674
76701,20692
" /> 
<polyline style="fill-rule:evenodd;"
points="89159,20149
89136,20156
89114,20168
89094,20183
89079,20203
89067,20224
89060,20248
89057,20278
89057,21352
89060,21382
89067,21405
89079,21427
89094,21447
89114,21462
89136,21474
89159,21481
89189,21484
90460,21484
90490,21481
90513,21474
90535,21462
90555,21447
90570,21427
90582,21405
90589,21382
90592,21352
90592,20278
90589,20248
90582,20224
90570,20203
90555,20183
90535,20168
90513,20156
90490,20149
90460,20146
89189,20146
89159,20149
" /> 
<polyline style="fill-rule:evenodd;"
points="82980,19436
82839,19479
82708,19548
82594,19642
82500,19756
82431,19887
82388,20028
82373,20175
82388,20322
82431,20463
82500,20594
82594,20708
82708,20802
82839,20871
82980,20914
83090,20925
83239,20925
83349,20914
83490,20871
83621,20802
83735,20708
83829,20594
83898,20463
83941,20322
83956,20175
83941,20028
83898,19887
83829,19756
83735,19642
83621,19548
83490,19479
83349,19436
83239,19425
83090,19425
82980,19436
" /> 
<polyline style="fill-rule:evenodd;"
points="66522,17905
66421,17935
66327,17985
66245,18053
66178,18135
66128,18228
66097,18330
66087,18440
66087,19710
66097,19820
66128,19922
66178,20015
66245,20097
66327,20164
66421,20214
66522,20245
66633,20256
68296,20256
68407,20245
68508,20214
68602,20164
68684,20097
68751,20015
68801,19922
68832,19820
68842,19710
68842,18440
68832,18330
68801,18228
68751,18135
68684,18053
68602,17985
68508,17935
68407,17905
68296,17894
66633,17894
66522,17905
" /> 
<polyline style="fill-rule:evenodd;"
points="42908,17543
42817,17561
42673,17620
42544,17707
42435,17816
42349,17945
42289,18089
42280,18135
42259,18241
42259,18396
42271,18457
42289,18548
42349,18691
42435,18820
42544,18930
42673,19016
42817,19075
42908,19094
42969,19106
43124,19106
43185,19094
43276,19075
43419,19016
43548,18930
43658,18820
43744,18691
43804,18548
43822,18457
43834,18396
43834,18241
43813,18135
43804,18089
43744,17945
43658,17816
43548,17707
43419,17620
43276,17561
43185,17543
43124,17531
42969,17531
42908,17543
" /> 
<polyline style="fill-rule:evenodd;"
points="48026,17543
47935,17561
47792,17620
47663,17707
47553,17816
47467,17945
47407,18089
47398,18135
47377,18241
47377,18396
47389,18457
47407,18548
47467,18691
47553,18820
47663,18930
47792,19016
47935,19075
48026,19094
48087,19106
48242,19106
48303,19094
48394,19075
48537,19016
48666,18930
48776,18820
48862,18691
48922,18548
48940,18457
48952,18396
48952,18241
48931,18135
48922,18089
48862,17945
48776,17816
48666,17707
48537,17620
48394,17561
48303,17543
48242,17531
48087,17531
48026,17543
" /> 
<polyline style="fill-rule:evenodd;"
points="42908,14000
42817,14018
42673,14077
42544,14163
42435,14273
42349,14402
42289,14545
42259,14697
42259,14852
42289,15005
42349,15148
42435,15277
42544,15387
42673,15473
42817,15532
42908,15550
42969,15562
43124,15562
43185,15550
43276,15532
43419,15473
43548,15387
43658,15277
43744,15148
43804,15005
43834,14852
43834,14697
43804,14545
43744,14402
43658,14273
43548,14163
43419,14077
43276,14018
43185,14000
43124,13988
42969,13988
42908,14000
" /> 
<polyline style="fill-rule:evenodd;"
points="48026,14000
47935,14018
47792,14077
47663,14163
47553,14273
47467,14402
47407,14545
47377,14697
47377,14852
47407,15005
47467,15148
47553,15277
47663,15387
47792,15473
47935,15532
48026,15550
48087,15562
48242,15562
48303,15550
48394,15532
48537,15473
48666,15387
48776,15277
48862,15148
48922,15005
48952,14852
48952,14697
48922,14545
48862,14402
48776,14273
48666,14163
48537,14077
48394,14018
48303,14000
48242,13988
48087,13988
48026,14000
" /> 
</g> 
</svg>
