<?xml version="1.0" standalone="no"?>
 <!DOCTYPE svg PUBLIC "-//W3C//DTD SVG 1.1//EN" 
 "http://www.w3.org/Graphics/SVG/1.1/DTD/svg11.dtd"> 
<svg xmlns="http://www.w3.org/2000/svg" version="1.1" 
    width="29.7002cm" height="21.0007cm" viewBox="0 0 116930 82680 ">
<title>SVG Picture created as ThermocoupleLogger-F_Paste.svg date 2019/03/15 17:22:21 </title>
  <desc>Picture generated by PCBNEW </desc>
<g style="fill:#000000; fill-opacity:1;stroke:#000000; stroke-opacity:1;
stroke-linecap:round; stroke-linejoin:round; "
 transform="translate(0 0) scale(1 1)">
</g>
<g style="fill:#000000; fill-opacity:0.0; 
stroke:#000000; stroke-width:-0.000787402; stroke-opacity:1; 
stroke-linecap:round; stroke-linejoin:round;">
</g>
<g style="fill:#000000; fill-opacity:0.0; 
stroke:#000000; stroke-width:78.7402; stroke-opacity:1; 
stroke-linecap:round; stroke-linejoin:round;">
<path d="M93465 12875
L93465 73375
" />
<path d="M23465 68993
L23465 68993
" />
<path d="M23465 12875
L93465 12875
" />
<path d="M23465 73375
L93465 73375
" />
<path d="M23465 12875
L23465 73375
" />
<path d="M23465 13875
L23465 13875
" />
</g>
<g style="fill:#000000; fill-opacity:0.0; 
stroke:#000000; stroke-width:0; stroke-opacity:1; 
stroke-linecap:round; stroke-linejoin:round;">
</g>
<g style="fill:#000000; fill-opacity:1.0; 
stroke:#000000; stroke-width:0; stroke-opacity:1; 
stroke-linecap:round; stroke-linejoin:round;">
<polyline style="fill-rule:evenodd;"
points="54801,16056
54801,17788
53856,17788
53856,16056
54801,16056
" /> 
<polyline style="fill-rule:evenodd;"
points="67005,16056
67005,17788
66061,17788
66061,16056
67005,16056
" /> 
<polyline style="fill-rule:evenodd;"
points="55667,23930
55667,25032
54407,25032
54407,23930
55667,23930
" /> 
<polyline style="fill-rule:evenodd;"
points="67005,23930
67005,25032
66061,25032
66061,23930
67005,23930
" /> 
<polyline style="fill-rule:evenodd;"
points="65903,24245
65903,25505
65352,25505
65352,24245
65903,24245
" /> 
<polyline style="fill-rule:evenodd;"
points="64171,24245
64171,25505
63620,25505
63620,24245
64171,24245
" /> 
<polyline style="fill-rule:evenodd;"
points="65037,24245
65037,25505
64486,25505
64486,24245
65037,24245
" /> 
<polyline style="fill-rule:evenodd;"
points="63305,24245
63305,25505
62753,25505
62753,24245
63305,24245
" /> 
<polyline style="fill-rule:evenodd;"
points="62439,24245
62439,25505
61887,25505
61887,24245
62439,24245
" /> 
<polyline style="fill-rule:evenodd;"
points="61572,24245
61572,25505
61021,25505
61021,24245
61572,24245
" /> 
<polyline style="fill-rule:evenodd;"
points="58974,24245
58974,25505
58423,25505
58423,24245
58974,24245
" /> 
<polyline style="fill-rule:evenodd;"
points="59840,24245
59840,25505
59289,25505
59289,24245
59840,24245
" /> 
<polyline style="fill-rule:evenodd;"
points="60706,24245
60706,25505
60155,25505
60155,24245
60706,24245
" /> 
<polyline style="fill-rule:evenodd;"
points="40480,36711
40480,36239
41701,36239
41701,36711
40480,36711
" /> 
<polyline style="fill-rule:evenodd;"
points="40480,37711
40480,37239
41701,37239
41701,37711
40480,37711
" /> 
<polyline style="fill-rule:evenodd;"
points="40480,38711
40480,38239
41701,38239
41701,38711
40480,38711
" /> 
<polyline style="fill-rule:evenodd;"
points="40480,39711
40480,39239
41701,39239
41701,39711
40480,39711
" /> 
<polyline style="fill-rule:evenodd;"
points="36228,39711
36228,39239
37449,39239
37449,39711
36228,39711
" /> 
<polyline style="fill-rule:evenodd;"
points="36228,38711
36228,38239
37449,38239
37449,38711
36228,38711
" /> 
<polyline style="fill-rule:evenodd;"
points="36228,37711
36228,37239
37449,37239
37449,37711
36228,37711
" /> 
<polyline style="fill-rule:evenodd;"
points="36228,36711
36228,36239
37449,36239
37449,36711
36228,36711
" /> 
<polyline style="fill-rule:evenodd;"
points="32344,33343
31163,33343
31163,31768
32344,31768
32344,33343
" /> 
<polyline style="fill-rule:evenodd;"
points="35966,33343
34785,33343
34785,31768
35966,31768
35966,33343
" /> 
<polyline style="fill-rule:evenodd;"
points="34155,33343
32974,33343
32974,31768
34155,31768
34155,33343
" /> 
<polyline style="fill-rule:evenodd;"
points="35061,28382
32068,28382
32068,26807
35061,26807
35061,28382
" /> 
<polyline style="fill-rule:evenodd;"
points="39817,30827
39836,30830
39855,30835
39873,30841
39890,30849
39907,30859
39922,30871
39937,30884
39950,30898
39961,30914
39971,30930
39979,30948
39986,30966
39991,30985
39993,31004
39994,31023
39994,32991
39993,33011
39991,33030
39986,33049
39979,33067
39971,33084
39961,33101
39950,33116
39937,33131
39922,33144
39907,33155
39890,33165
39873,33173
39855,33180
39836,33185
39817,33187
39798,33188
38931,33188
38912,33187
38893,33185
38874,33180
38856,33173
38839,33165
38822,33155
38807,33144
38792,33131
38779,33116
38768,33101
38758,33084
38750,33067
38743,33049
38738,33030
38736,33011
38735,32991
38735,31023
38736,31004
38738,30985
38743,30966
38750,30948
38758,30930
38768,30914
38779,30898
38792,30884
38807,30871
38822,30859
38839,30849
38856,30841
38874,30835
38893,30830
38912,30827
38931,30826
39798,30826
39817,30827
" /> 
<polyline style="fill-rule:evenodd;"
points="39817,27362
39836,27365
39855,27370
39873,27377
39890,27385
39907,27395
39922,27406
39937,27419
39950,27434
39961,27449
39971,27466
39979,27483
39986,27501
39991,27520
39993,27539
39994,27558
39994,29527
39993,29546
39991,29565
39986,29584
39979,29602
39971,29620
39961,29636
39950,29652
39937,29666
39922,29679
39907,29691
39890,29701
39873,29709
39855,29715
39836,29720
39817,29723
39798,29724
38931,29724
38912,29723
38893,29720
38874,29715
38856,29709
38839,29701
38822,29691
38807,29679
38792,29666
38779,29652
38768,29636
38758,29620
38750,29602
38743,29584
38738,29565
38736,29546
38735,29527
38735,27558
38736,27539
38738,27520
38743,27501
38750,27483
38758,27466
38768,27449
38779,27434
38792,27419
38807,27406
38822,27395
38839,27385
38856,27377
38874,27370
38893,27365
38912,27362
38931,27362
39798,27362
39817,27362
" /> 
<polyline style="fill-rule:evenodd;"
points="40713,18019
40713,18531
39753,18531
39753,18019
40713,18019
" /> 
<polyline style="fill-rule:evenodd;"
points="42776,17271
42776,17783
41816,17783
41816,17271
42776,17271
" /> 
<polyline style="fill-rule:evenodd;"
points="42776,18767
42776,19279
41816,19279
41816,18767
42776,18767
" /> 
<polyline style="fill-rule:evenodd;"
points="37242,21821
36887,21821
36887,21349
37242,21349
37242,21821
" /> 
<polyline style="fill-rule:evenodd;"
points="37242,23475
36887,23475
36887,23002
37242,23002
37242,23475
" /> 
<polyline style="fill-rule:evenodd;"
points="74437,26130
73492,26130
73492,25421
74437,25421
74437,26130
" /> 
<polyline style="fill-rule:evenodd;"
points="74437,28728
73492,28728
73492,28020
74437,28020
74437,28728
" /> 
<polyline style="fill-rule:evenodd;"
points="71537,26130
70592,26130
70592,25421
71537,25421
71537,26130
" /> 
<polyline style="fill-rule:evenodd;"
points="71537,28728
70592,28728
70592,28020
71537,28020
71537,28728
" /> 
<polyline style="fill-rule:evenodd;"
points="68817,26130
67872,26130
67872,25421
68817,25421
68817,26130
" /> 
<polyline style="fill-rule:evenodd;"
points="68817,28728
67872,28728
67872,28020
68817,28020
68817,28728
" /> 
<polyline style="fill-rule:evenodd;"
points="35513,43025
35532,43027
35550,43032
35568,43038
35585,43046
35601,43056
35616,43067
35630,43080
35643,43094
35654,43109
35664,43125
35672,43142
35678,43160
35683,43178
35686,43197
35687,43216
35687,43934
35686,43953
35683,43972
35678,43990
35672,44008
35664,44025
35654,44041
35643,44056
35630,44070
35616,44083
35601,44094
35585,44103
35568,44112
35550,44118
35532,44122
35513,44125
35495,44126
35111,44126
35092,44125
35073,44122
35055,44118
35037,44112
35020,44103
35004,44094
34989,44083
34975,44070
34962,44056
34951,44041
34941,44025
34933,44008
34927,43990
34923,43972
34920,43953
34919,43934
34919,43216
34920,43197
34923,43178
34927,43160
34933,43142
34941,43125
34951,43109
34962,43094
34975,43080
34989,43067
35004,43056
35020,43046
35037,43038
35055,43032
35073,43027
35092,43025
35111,43024
35495,43024
35513,43025
" /> 
<polyline style="fill-rule:evenodd;"
points="34037,43025
34056,43027
34074,43032
34092,43038
34109,43046
34125,43056
34140,43067
34154,43080
34167,43094
34178,43109
34188,43125
34196,43142
34202,43160
34206,43178
34209,43197
34210,43216
34210,43934
34209,43953
34206,43972
34202,43990
34196,44008
34188,44025
34178,44041
34167,44056
34154,44070
34140,44083
34125,44094
34109,44103
34092,44112
34074,44118
34056,44122
34037,44125
34018,44126
33634,44126
33616,44125
33597,44122
33579,44118
33561,44112
33544,44103
33528,44094
33513,44083
33499,44070
33486,44056
33475,44041
33465,44025
33457,44008
33451,43990
33446,43972
33443,43953
33442,43934
33442,43216
33443,43197
33446,43178
33451,43160
33457,43142
33465,43125
33475,43109
33486,43094
33499,43080
33513,43067
33528,43056
33544,43046
33561,43038
33579,43032
33597,43027
33616,43025
33634,43024
34018,43024
34037,43025
" /> 
<polyline style="fill-rule:evenodd;"
points="35513,41275
35532,41277
35550,41282
35568,41288
35585,41296
35601,41306
35616,41317
35630,41330
35643,41344
35654,41359
35664,41375
35672,41392
35678,41410
35683,41428
35686,41447
35687,41466
35687,42184
35686,42203
35683,42222
35678,42240
35672,42258
35664,42275
35654,42291
35643,42306
35630,42320
35616,42333
35601,42344
35585,42353
35568,42362
35550,42368
35532,42372
35513,42375
35495,42376
35111,42376
35092,42375
35073,42372
35055,42368
35037,42362
35020,42353
35004,42344
34989,42333
34975,42320
34962,42306
34951,42291
34941,42275
34933,42258
34927,42240
34923,42222
34920,42203
34919,42184
34919,41466
34920,41447
34923,41428
34927,41410
34933,41392
34941,41375
34951,41359
34962,41344
34975,41330
34989,41317
35004,41306
35020,41296
35037,41288
35055,41282
35073,41277
35092,41275
35111,41274
35495,41274
35513,41275
" /> 
<polyline style="fill-rule:evenodd;"
points="34037,41275
34056,41277
34074,41282
34092,41288
34109,41296
34125,41306
34140,41317
34154,41330
34167,41344
34178,41359
34188,41375
34196,41392
34202,41410
34206,41428
34209,41447
34210,41466
34210,42184
34209,42203
34206,42222
34202,42240
34196,42258
34188,42275
34178,42291
34167,42306
34154,42320
34140,42333
34125,42344
34109,42353
34092,42362
34074,42368
34056,42372
34037,42375
34018,42376
33634,42376
33616,42375
33597,42372
33579,42368
33561,42362
33544,42353
33528,42344
33513,42333
33499,42320
33486,42306
33475,42291
33465,42275
33457,42258
33451,42240
33446,42222
33443,42203
33442,42184
33442,41466
33443,41447
33446,41428
33451,41410
33457,41392
33465,41375
33475,41359
33486,41344
33499,41330
33513,41317
33528,41306
33544,41296
33561,41288
33579,41282
33597,41277
33616,41275
33634,41274
34018,41274
34037,41275
" /> 
<polyline style="fill-rule:evenodd;"
points="51543,42554
51561,42557
51579,42561
51597,42567
51614,42576
51630,42585
51646,42596
51659,42609
51672,42623
51683,42638
51693,42654
51701,42671
51707,42689
51712,42707
51715,42726
51716,42745
51716,43129
51715,43147
51712,43166
51707,43184
51701,43202
51693,43219
51683,43235
51672,43250
51659,43264
51646,43277
51630,43288
51614,43298
51597,43306
51579,43312
51561,43317
51543,43320
51524,43321
50805,43321
50786,43320
50768,43317
50750,43312
50732,43306
50715,43298
50699,43288
50683,43277
50670,43264
50657,43250
50646,43235
50636,43219
50628,43202
50622,43184
50617,43166
50614,43147
50613,43129
50613,42745
50614,42726
50617,42707
50622,42689
50628,42671
50636,42654
50646,42638
50657,42623
50670,42609
50683,42596
50699,42585
50715,42576
50732,42567
50750,42561
50768,42557
50786,42554
50805,42553
51524,42553
51543,42554
" /> 
<polyline style="fill-rule:evenodd;"
points="51543,44030
51561,44033
51579,44038
51597,44044
51614,44052
51630,44062
51646,44073
51659,44085
51672,44099
51683,44115
51693,44131
51701,44148
51707,44165
51712,44184
51715,44202
51716,44221
51716,44605
51715,44624
51712,44642
51707,44661
51701,44678
51693,44696
51683,44712
51672,44727
51659,44741
51646,44753
51630,44765
51614,44774
51597,44782
51579,44789
51561,44793
51543,44796
51524,44797
50805,44797
50786,44796
50768,44793
50750,44789
50732,44782
50715,44774
50699,44765
50683,44753
50670,44741
50657,44727
50646,44712
50636,44696
50628,44678
50622,44661
50617,44642
50614,44624
50613,44605
50613,44221
50614,44202
50617,44184
50622,44165
50628,44148
50636,44131
50646,44115
50657,44099
50670,44085
50683,44073
50699,44062
50715,44052
50732,44044
50750,44038
50768,44033
50786,44030
50805,44029
51524,44029
51543,44030
" /> 
<polyline style="fill-rule:evenodd;"
points="38643,17154
38661,17157
38679,17161
38697,17167
38714,17176
38730,17185
38746,17196
38759,17209
38772,17223
38783,17238
38793,17254
38801,17271
38807,17289
38812,17307
38815,17326
38816,17345
38816,17729
38815,17747
38812,17766
38807,17784
38801,17802
38793,17819
38783,17835
38772,17850
38759,17864
38746,17877
38730,17888
38714,17898
38697,17906
38679,17912
38661,17917
38643,17920
38624,17921
37905,17921
37886,17920
37868,17917
37850,17912
37832,17906
37815,17898
37799,17888
37783,17877
37770,17864
37757,17850
37746,17835
37736,17819
37728,17802
37722,17784
37717,17766
37714,17747
37713,17729
37713,17345
37714,17326
37717,17307
37722,17289
37728,17271
37736,17254
37746,17238
37757,17223
37770,17209
37783,17196
37799,17185
37815,17176
37832,17167
37850,17161
37868,17157
37886,17154
37905,17153
38624,17153
38643,17154
" /> 
<polyline style="fill-rule:evenodd;"
points="38643,18630
38661,18633
38679,18638
38697,18644
38714,18652
38730,18662
38746,18673
38759,18685
38772,18699
38783,18715
38793,18731
38801,18748
38807,18765
38812,18784
38815,18802
38816,18821
38816,19205
38815,19224
38812,19242
38807,19261
38801,19278
38793,19296
38783,19312
38772,19327
38759,19341
38746,19353
38730,19365
38714,19374
38697,19382
38679,19389
38661,19393
38643,19396
38624,19397
37905,19397
37886,19396
37868,19393
37850,19389
37832,19382
37815,19374
37799,19365
37783,19353
37770,19341
37757,19327
37746,19312
37736,19296
37728,19278
37722,19261
37717,19242
37714,19224
37713,19205
37713,18821
37714,18802
37717,18784
37722,18765
37728,18748
37736,18731
37746,18715
37757,18699
37770,18685
37783,18673
37799,18662
37815,18652
37832,18644
37850,18638
37868,18633
37886,18630
37905,18629
38624,18629
38643,18630
" /> 
<polyline style="fill-rule:evenodd;"
points="66943,30254
66961,30257
66979,30261
66997,30267
67014,30276
67030,30285
67046,30296
67059,30309
67072,30323
67083,30338
67093,30354
67101,30371
67107,30389
67112,30407
67115,30426
67116,30445
67116,30829
67115,30847
67112,30866
67107,30884
67101,30902
67093,30919
67083,30935
67072,30950
67059,30964
67046,30977
67030,30988
67014,30998
66997,31006
66979,31012
66961,31017
66943,31020
66924,31021
66205,31021
66186,31020
66168,31017
66150,31012
66132,31006
66115,30998
66099,30988
66083,30977
66070,30964
66057,30950
66046,30935
66036,30919
66028,30902
66022,30884
66017,30866
66014,30847
66013,30829
66013,30445
66014,30426
66017,30407
66022,30389
66028,30371
66036,30354
66046,30338
66057,30323
66070,30309
66083,30296
66099,30285
66115,30276
66132,30267
66150,30261
66168,30257
66186,30254
66205,30253
66924,30253
66943,30254
" /> 
<polyline style="fill-rule:evenodd;"
points="66943,31730
66961,31733
66979,31738
66997,31744
67014,31752
67030,31762
67046,31773
67059,31785
67072,31799
67083,31815
67093,31831
67101,31848
67107,31865
67112,31884
67115,31902
67116,31921
67116,32305
67115,32324
67112,32342
67107,32361
67101,32378
67093,32396
67083,32412
67072,32427
67059,32441
67046,32453
67030,32465
67014,32474
66997,32482
66979,32489
66961,32493
66943,32496
66924,32497
66205,32497
66186,32496
66168,32493
66150,32489
66132,32482
66115,32474
66099,32465
66083,32453
66070,32441
66057,32427
66046,32412
66036,32396
66028,32378
66022,32361
66017,32342
66014,32324
66013,32305
66013,31921
66014,31902
66017,31884
66022,31865
66028,31848
66036,31831
66046,31815
66057,31799
66070,31785
66083,31773
66099,31762
66115,31752
66132,31744
66150,31738
66168,31733
66186,31730
66205,31729
66924,31729
66943,31730
" /> 
<polyline style="fill-rule:evenodd;"
points="63243,26254
63261,26257
63279,26261
63297,26267
63314,26276
63330,26285
63346,26296
63359,26309
63372,26323
63383,26338
63393,26354
63401,26371
63407,26389
63412,26407
63415,26426
63416,26445
63416,26829
63415,26847
63412,26866
63407,26884
63401,26902
63393,26919
63383,26935
63372,26950
63359,26964
63346,26977
63330,26988
63314,26998
63297,27006
63279,27012
63261,27017
63243,27020
63224,27021
62505,27021
62486,27020
62468,27017
62450,27012
62432,27006
62415,26998
62399,26988
62383,26977
62370,26964
62357,26950
62346,26935
62336,26919
62328,26902
62322,26884
62317,26866
62314,26847
62313,26829
62313,26445
62314,26426
62317,26407
62322,26389
62328,26371
62336,26354
62346,26338
62357,26323
62370,26309
62383,26296
62399,26285
62415,26276
62432,26267
62450,26261
62468,26257
62486,26254
62505,26253
63224,26253
63243,26254
" /> 
<polyline style="fill-rule:evenodd;"
points="63243,27730
63261,27733
63279,27738
63297,27744
63314,27752
63330,27762
63346,27773
63359,27785
63372,27799
63383,27815
63393,27831
63401,27848
63407,27865
63412,27884
63415,27902
63416,27921
63416,28305
63415,28324
63412,28342
63407,28361
63401,28378
63393,28396
63383,28412
63372,28427
63359,28441
63346,28453
63330,28465
63314,28474
63297,28482
63279,28489
63261,28493
63243,28496
63224,28497
62505,28497
62486,28496
62468,28493
62450,28489
62432,28482
62415,28474
62399,28465
62383,28453
62370,28441
62357,28427
62346,28412
62336,28396
62328,28378
62322,28361
62317,28342
62314,28324
62313,28305
62313,27921
62314,27902
62317,27884
62322,27865
62328,27848
62336,27831
62346,27815
62357,27799
62370,27785
62383,27773
62399,27762
62415,27752
62432,27744
62450,27738
62468,27733
62486,27730
62505,27729
63224,27729
63243,27730
" /> 
<polyline style="fill-rule:evenodd;"
points="69343,30254
69361,30257
69379,30261
69397,30267
69414,30276
69430,30285
69446,30296
69459,30309
69472,30323
69483,30338
69493,30354
69501,30371
69507,30389
69512,30407
69515,30426
69516,30445
69516,30829
69515,30847
69512,30866
69507,30884
69501,30902
69493,30919
69483,30935
69472,30950
69459,30964
69446,30977
69430,30988
69414,30998
69397,31006
69379,31012
69361,31017
69343,31020
69324,31021
68605,31021
68586,31020
68568,31017
68550,31012
68532,31006
68515,30998
68499,30988
68483,30977
68470,30964
68457,30950
68446,30935
68436,30919
68428,30902
68422,30884
68417,30866
68414,30847
68413,30829
68413,30445
68414,30426
68417,30407
68422,30389
68428,30371
68436,30354
68446,30338
68457,30323
68470,30309
68483,30296
68499,30285
68515,30276
68532,30267
68550,30261
68568,30257
68586,30254
68605,30253
69324,30253
69343,30254
" /> 
<polyline style="fill-rule:evenodd;"
points="69343,31730
69361,31733
69379,31738
69397,31744
69414,31752
69430,31762
69446,31773
69459,31785
69472,31799
69483,31815
69493,31831
69501,31848
69507,31865
69512,31884
69515,31902
69516,31921
69516,32305
69515,32324
69512,32342
69507,32361
69501,32378
69493,32396
69483,32412
69472,32427
69459,32441
69446,32453
69430,32465
69414,32474
69397,32482
69379,32489
69361,32493
69343,32496
69324,32497
68605,32497
68586,32496
68568,32493
68550,32489
68532,32482
68515,32474
68499,32465
68483,32453
68470,32441
68457,32427
68446,32412
68436,32396
68428,32378
68422,32361
68417,32342
68414,32324
68413,32305
68413,31921
68414,31902
68417,31884
68422,31865
68428,31848
68436,31831
68446,31815
68457,31799
68470,31785
68483,31773
68499,31762
68515,31752
68532,31744
68550,31738
68568,31733
68586,31730
68605,31729
69324,31729
69343,31730
" /> 
<polyline style="fill-rule:evenodd;"
points="29437,36325
29456,36327
29474,36332
29492,36338
29509,36346
29525,36356
29540,36367
29554,36380
29567,36394
29578,36409
29588,36425
29596,36442
29602,36460
29606,36478
29609,36497
29610,36516
29610,37234
29609,37253
29606,37272
29602,37290
29596,37308
29588,37325
29578,37341
29567,37356
29554,37370
29540,37383
29525,37394
29509,37403
29492,37412
29474,37418
29456,37422
29437,37425
29418,37426
29034,37426
29016,37425
28997,37422
28979,37418
28961,37412
28944,37403
28928,37394
28913,37383
28899,37370
28886,37356
28875,37341
28865,37325
28857,37308
28851,37290
28846,37272
28843,37253
28842,37234
28842,36516
28843,36497
28846,36478
28851,36460
28857,36442
28865,36425
28875,36409
28886,36394
28899,36380
28913,36367
28928,36356
28944,36346
28961,36338
28979,36332
28997,36327
29016,36325
29034,36324
29418,36324
29437,36325
" /> 
<polyline style="fill-rule:evenodd;"
points="30913,36325
30932,36327
30950,36332
30968,36338
30985,36346
31001,36356
31016,36367
31030,36380
31043,36394
31054,36409
31064,36425
31072,36442
31078,36460
31083,36478
31086,36497
31087,36516
31087,37234
31086,37253
31083,37272
31078,37290
31072,37308
31064,37325
31054,37341
31043,37356
31030,37370
31016,37383
31001,37394
30985,37403
30968,37412
30950,37418
30932,37422
30913,37425
30895,37426
30511,37426
30492,37425
30473,37422
30455,37418
30437,37412
30420,37403
30404,37394
30389,37383
30375,37370
30362,37356
30351,37341
30341,37325
30333,37308
30327,37290
30323,37272
30320,37253
30319,37234
30319,36516
30320,36497
30323,36478
30327,36460
30333,36442
30341,36425
30351,36409
30362,36394
30375,36380
30389,36367
30404,36356
30420,36346
30437,36338
30455,36332
30473,36327
30492,36325
30511,36324
30895,36324
30913,36325
" /> 
<polyline style="fill-rule:evenodd;"
points="62043,64254
62061,64257
62079,64261
62097,64267
62114,64276
62130,64285
62146,64296
62159,64309
62172,64323
62183,64338
62193,64354
62201,64371
62207,64389
62212,64407
62215,64426
62216,64445
62216,64829
62215,64847
62212,64866
62207,64884
62201,64902
62193,64919
62183,64935
62172,64950
62159,64964
62146,64977
62130,64988
62114,64998
62097,65006
62079,65012
62061,65017
62043,65020
62024,65021
61305,65021
61286,65020
61268,65017
61250,65012
61232,65006
61215,64998
61199,64988
61183,64977
61170,64964
61157,64950
61146,64935
61136,64919
61128,64902
61122,64884
61117,64866
61114,64847
61113,64829
61113,64445
61114,64426
61117,64407
61122,64389
61128,64371
61136,64354
61146,64338
61157,64323
61170,64309
61183,64296
61199,64285
61215,64276
61232,64267
61250,64261
61268,64257
61286,64254
61305,64253
62024,64253
62043,64254
" /> 
<polyline style="fill-rule:evenodd;"
points="62043,65730
62061,65733
62079,65738
62097,65744
62114,65752
62130,65762
62146,65773
62159,65785
62172,65799
62183,65815
62193,65831
62201,65848
62207,65865
62212,65884
62215,65902
62216,65921
62216,66305
62215,66324
62212,66342
62207,66361
62201,66378
62193,66396
62183,66412
62172,66427
62159,66441
62146,66453
62130,66465
62114,66474
62097,66482
62079,66489
62061,66493
62043,66496
62024,66497
61305,66497
61286,66496
61268,66493
61250,66489
61232,66482
61215,66474
61199,66465
61183,66453
61170,66441
61157,66427
61146,66412
61136,66396
61128,66378
61122,66361
61117,66342
61114,66324
61113,66305
61113,65921
61114,65902
61117,65884
61122,65865
61128,65848
61136,65831
61146,65815
61157,65799
61170,65785
61183,65773
61199,65762
61215,65752
61232,65744
61250,65738
61268,65733
61286,65730
61305,65729
62024,65729
62043,65730
" /> 
<polyline style="fill-rule:evenodd;"
points="74043,65730
74061,65733
74079,65738
74097,65744
74114,65752
74130,65762
74146,65773
74159,65785
74172,65799
74183,65815
74193,65831
74201,65848
74207,65865
74212,65884
74215,65902
74216,65921
74216,66305
74215,66324
74212,66342
74207,66361
74201,66378
74193,66396
74183,66412
74172,66427
74159,66441
74146,66453
74130,66465
74114,66474
74097,66482
74079,66489
74061,66493
74043,66496
74024,66497
73305,66497
73286,66496
73268,66493
73250,66489
73232,66482
73215,66474
73199,66465
73183,66453
73170,66441
73157,66427
73146,66412
73136,66396
73128,66378
73122,66361
73117,66342
73114,66324
73113,66305
73113,65921
73114,65902
73117,65884
73122,65865
73128,65848
73136,65831
73146,65815
73157,65799
73170,65785
73183,65773
73199,65762
73215,65752
73232,65744
73250,65738
73268,65733
73286,65730
73305,65729
74024,65729
74043,65730
" /> 
<polyline style="fill-rule:evenodd;"
points="74043,64254
74061,64257
74079,64261
74097,64267
74114,64276
74130,64285
74146,64296
74159,64309
74172,64323
74183,64338
74193,64354
74201,64371
74207,64389
74212,64407
74215,64426
74216,64445
74216,64829
74215,64847
74212,64866
74207,64884
74201,64902
74193,64919
74183,64935
74172,64950
74159,64964
74146,64977
74130,64988
74114,64998
74097,65006
74079,65012
74061,65017
74043,65020
74024,65021
73305,65021
73286,65020
73268,65017
73250,65012
73232,65006
73215,64998
73199,64988
73183,64977
73170,64964
73157,64950
73146,64935
73136,64919
73128,64902
73122,64884
73117,64866
73114,64847
73113,64829
73113,64445
73114,64426
73117,64407
73122,64389
73128,64371
73136,64354
73146,64338
73157,64323
73170,64309
73183,64296
73199,64285
73215,64276
73232,64267
73250,64261
73268,64257
73286,64254
73305,64253
74024,64253
74043,64254
" /> 
<polyline style="fill-rule:evenodd;"
points="34043,64214
34061,64217
34079,64221
34097,64227
34114,64236
34130,64245
34146,64256
34159,64269
34172,64283
34183,64298
34193,64314
34201,64331
34207,64349
34212,64367
34215,64386
34216,64405
34216,64789
34215,64807
34212,64826
34207,64844
34201,64862
34193,64879
34183,64895
34172,64910
34159,64924
34146,64937
34130,64948
34114,64958
34097,64966
34079,64972
34061,64977
34043,64980
34024,64981
33305,64981
33286,64980
33268,64977
33250,64972
33232,64966
33215,64958
33199,64948
33183,64937
33170,64924
33157,64910
33146,64895
33136,64879
33128,64862
33122,64844
33117,64826
33114,64807
33113,64789
33113,64405
33114,64386
33117,64367
33122,64349
33128,64331
33136,64314
33146,64298
33157,64283
33170,64269
33183,64256
33199,64245
33215,64236
33232,64227
33250,64221
33268,64217
33286,64214
33305,64213
34024,64213
34043,64214
" /> 
<polyline style="fill-rule:evenodd;"
points="34043,65690
34061,65693
34079,65698
34097,65704
34114,65712
34130,65722
34146,65733
34159,65745
34172,65759
34183,65775
34193,65791
34201,65808
34207,65825
34212,65844
34215,65862
34216,65881
34216,66265
34215,66284
34212,66302
34207,66321
34201,66338
34193,66356
34183,66372
34172,66387
34159,66401
34146,66413
34130,66425
34114,66434
34097,66442
34079,66449
34061,66453
34043,66456
34024,66457
33305,66457
33286,66456
33268,66453
33250,66449
33232,66442
33215,66434
33199,66425
33183,66413
33170,66401
33157,66387
33146,66372
33136,66356
33128,66338
33122,66321
33117,66302
33114,66284
33113,66265
33113,65881
33114,65862
33117,65844
33122,65825
33128,65808
33136,65791
33146,65775
33157,65759
33170,65745
33183,65733
33199,65722
33215,65712
33232,65704
33250,65698
33268,65693
33286,65690
33305,65689
34024,65689
34043,65690
" /> 
<polyline style="fill-rule:evenodd;"
points="32083,65690
32101,65693
32119,65698
32137,65704
32154,65712
32170,65722
32186,65733
32199,65745
32212,65759
32223,65775
32233,65791
32241,65808
32247,65825
32252,65844
32255,65862
32256,65881
32256,66265
32255,66284
32252,66302
32247,66321
32241,66338
32233,66356
32223,66372
32212,66387
32199,66401
32186,66413
32170,66425
32154,66434
32137,66442
32119,66449
32101,66453
32083,66456
32064,66457
31345,66457
31326,66456
31308,66453
31290,66449
31272,66442
31255,66434
31239,66425
31223,66413
31210,66401
31197,66387
31186,66372
31176,66356
31168,66338
31162,66321
31157,66302
31154,66284
31153,66265
31153,65881
31154,65862
31157,65844
31162,65825
31168,65808
31176,65791
31186,65775
31197,65759
31210,65745
31223,65733
31239,65722
31255,65712
31272,65704
31290,65698
31308,65693
31326,65690
31345,65689
32064,65689
32083,65690
" /> 
<polyline style="fill-rule:evenodd;"
points="32083,64214
32101,64217
32119,64221
32137,64227
32154,64236
32170,64245
32186,64256
32199,64269
32212,64283
32223,64298
32233,64314
32241,64331
32247,64349
32252,64367
32255,64386
32256,64405
32256,64789
32255,64807
32252,64826
32247,64844
32241,64862
32233,64879
32223,64895
32212,64910
32199,64924
32186,64937
32170,64948
32154,64958
32137,64966
32119,64972
32101,64977
32083,64980
32064,64981
31345,64981
31326,64980
31308,64977
31290,64972
31272,64966
31255,64958
31239,64948
31223,64937
31210,64924
31197,64910
31186,64895
31176,64879
31168,64862
31162,64844
31157,64826
31154,64807
31153,64789
31153,64405
31154,64386
31157,64367
31162,64349
31168,64331
31176,64314
31186,64298
31197,64283
31210,64269
31223,64256
31239,64245
31255,64236
31272,64227
31290,64221
31308,64217
31326,64214
31345,64213
32064,64213
32083,64214
" /> 
<polyline style="fill-rule:evenodd;"
points="39043,65730
39061,65733
39079,65738
39097,65744
39114,65752
39130,65762
39146,65773
39159,65785
39172,65799
39183,65815
39193,65831
39201,65848
39207,65865
39212,65884
39215,65902
39216,65921
39216,66305
39215,66324
39212,66342
39207,66361
39201,66378
39193,66396
39183,66412
39172,66427
39159,66441
39146,66453
39130,66465
39114,66474
39097,66482
39079,66489
39061,66493
39043,66496
39024,66497
38305,66497
38286,66496
38268,66493
38250,66489
38232,66482
38215,66474
38199,66465
38183,66453
38170,66441
38157,66427
38146,66412
38136,66396
38128,66378
38122,66361
38117,66342
38114,66324
38113,66305
38113,65921
38114,65902
38117,65884
38122,65865
38128,65848
38136,65831
38146,65815
38157,65799
38170,65785
38183,65773
38199,65762
38215,65752
38232,65744
38250,65738
38268,65733
38286,65730
38305,65729
39024,65729
39043,65730
" /> 
<polyline style="fill-rule:evenodd;"
points="39043,64254
39061,64257
39079,64261
39097,64267
39114,64276
39130,64285
39146,64296
39159,64309
39172,64323
39183,64338
39193,64354
39201,64371
39207,64389
39212,64407
39215,64426
39216,64445
39216,64829
39215,64847
39212,64866
39207,64884
39201,64902
39193,64919
39183,64935
39172,64950
39159,64964
39146,64977
39130,64988
39114,64998
39097,65006
39079,65012
39061,65017
39043,65020
39024,65021
38305,65021
38286,65020
38268,65017
38250,65012
38232,65006
38215,64998
38199,64988
38183,64977
38170,64964
38157,64950
38146,64935
38136,64919
38128,64902
38122,64884
38117,64866
38114,64847
38113,64829
38113,64445
38114,64426
38117,64407
38122,64389
38128,64371
38136,64354
38146,64338
38157,64323
38170,64309
38183,64296
38199,64285
38215,64276
38232,64267
38250,64261
38268,64257
38286,64254
38305,64253
39024,64253
39043,64254
" /> 
<polyline style="fill-rule:evenodd;"
points="46043,65730
46061,65733
46079,65738
46097,65744
46114,65752
46130,65762
46146,65773
46159,65785
46172,65799
46183,65815
46193,65831
46201,65848
46207,65865
46212,65884
46215,65902
46216,65921
46216,66305
46215,66324
46212,66342
46207,66361
46201,66378
46193,66396
46183,66412
46172,66427
46159,66441
46146,66453
46130,66465
46114,66474
46097,66482
46079,66489
46061,66493
46043,66496
46024,66497
45305,66497
45286,66496
45268,66493
45250,66489
45232,66482
45215,66474
45199,66465
45183,66453
45170,66441
45157,66427
45146,66412
45136,66396
45128,66378
45122,66361
45117,66342
45114,66324
45113,66305
45113,65921
45114,65902
45117,65884
45122,65865
45128,65848
45136,65831
45146,65815
45157,65799
45170,65785
45183,65773
45199,65762
45215,65752
45232,65744
45250,65738
45268,65733
45286,65730
45305,65729
46024,65729
46043,65730
" /> 
<polyline style="fill-rule:evenodd;"
points="46043,64254
46061,64257
46079,64261
46097,64267
46114,64276
46130,64285
46146,64296
46159,64309
46172,64323
46183,64338
46193,64354
46201,64371
46207,64389
46212,64407
46215,64426
46216,64445
46216,64829
46215,64847
46212,64866
46207,64884
46201,64902
46193,64919
46183,64935
46172,64950
46159,64964
46146,64977
46130,64988
46114,64998
46097,65006
46079,65012
46061,65017
46043,65020
46024,65021
45305,65021
45286,65020
45268,65017
45250,65012
45232,65006
45215,64998
45199,64988
45183,64977
45170,64964
45157,64950
45146,64935
45136,64919
45128,64902
45122,64884
45117,64866
45114,64847
45113,64829
45113,64445
45114,64426
45117,64407
45122,64389
45128,64371
45136,64354
45146,64338
45157,64323
45170,64309
45183,64296
45199,64285
45215,64276
45232,64267
45250,64261
45268,64257
45286,64254
45305,64253
46024,64253
46043,64254
" /> 
<polyline style="fill-rule:evenodd;"
points="53043,65730
53061,65733
53079,65738
53097,65744
53114,65752
53130,65762
53146,65773
53159,65785
53172,65799
53183,65815
53193,65831
53201,65848
53207,65865
53212,65884
53215,65902
53216,65921
53216,66305
53215,66324
53212,66342
53207,66361
53201,66378
53193,66396
53183,66412
53172,66427
53159,66441
53146,66453
53130,66465
53114,66474
53097,66482
53079,66489
53061,66493
53043,66496
53024,66497
52305,66497
52286,66496
52268,66493
52250,66489
52232,66482
52215,66474
52199,66465
52183,66453
52170,66441
52157,66427
52146,66412
52136,66396
52128,66378
52122,66361
52117,66342
52114,66324
52113,66305
52113,65921
52114,65902
52117,65884
52122,65865
52128,65848
52136,65831
52146,65815
52157,65799
52170,65785
52183,65773
52199,65762
52215,65752
52232,65744
52250,65738
52268,65733
52286,65730
52305,65729
53024,65729
53043,65730
" /> 
<polyline style="fill-rule:evenodd;"
points="53043,64254
53061,64257
53079,64261
53097,64267
53114,64276
53130,64285
53146,64296
53159,64309
53172,64323
53183,64338
53193,64354
53201,64371
53207,64389
53212,64407
53215,64426
53216,64445
53216,64829
53215,64847
53212,64866
53207,64884
53201,64902
53193,64919
53183,64935
53172,64950
53159,64964
53146,64977
53130,64988
53114,64998
53097,65006
53079,65012
53061,65017
53043,65020
53024,65021
52305,65021
52286,65020
52268,65017
52250,65012
52232,65006
52215,64998
52199,64988
52183,64977
52170,64964
52157,64950
52146,64935
52136,64919
52128,64902
52122,64884
52117,64866
52114,64847
52113,64829
52113,64445
52114,64426
52117,64407
52122,64389
52128,64371
52136,64354
52146,64338
52157,64323
52170,64309
52183,64296
52199,64285
52215,64276
52232,64267
52250,64261
52268,64257
52286,64254
52305,64253
53024,64253
53043,64254
" /> 
<polyline style="fill-rule:evenodd;"
points="60043,65730
60061,65733
60079,65738
60097,65744
60114,65752
60130,65762
60146,65773
60159,65785
60172,65799
60183,65815
60193,65831
60201,65848
60207,65865
60212,65884
60215,65902
60216,65921
60216,66305
60215,66324
60212,66342
60207,66361
60201,66378
60193,66396
60183,66412
60172,66427
60159,66441
60146,66453
60130,66465
60114,66474
60097,66482
60079,66489
60061,66493
60043,66496
60024,66497
59305,66497
59286,66496
59268,66493
59250,66489
59232,66482
59215,66474
59199,66465
59183,66453
59170,66441
59157,66427
59146,66412
59136,66396
59128,66378
59122,66361
59117,66342
59114,66324
59113,66305
59113,65921
59114,65902
59117,65884
59122,65865
59128,65848
59136,65831
59146,65815
59157,65799
59170,65785
59183,65773
59199,65762
59215,65752
59232,65744
59250,65738
59268,65733
59286,65730
59305,65729
60024,65729
60043,65730
" /> 
<polyline style="fill-rule:evenodd;"
points="60043,64254
60061,64257
60079,64261
60097,64267
60114,64276
60130,64285
60146,64296
60159,64309
60172,64323
60183,64338
60193,64354
60201,64371
60207,64389
60212,64407
60215,64426
60216,64445
60216,64829
60215,64847
60212,64866
60207,64884
60201,64902
60193,64919
60183,64935
60172,64950
60159,64964
60146,64977
60130,64988
60114,64998
60097,65006
60079,65012
60061,65017
60043,65020
60024,65021
59305,65021
59286,65020
59268,65017
59250,65012
59232,65006
59215,64998
59199,64988
59183,64977
59170,64964
59157,64950
59146,64935
59136,64919
59128,64902
59122,64884
59117,64866
59114,64847
59113,64829
59113,64445
59114,64426
59117,64407
59122,64389
59128,64371
59136,64354
59146,64338
59157,64323
59170,64309
59183,64296
59199,64285
59215,64276
59232,64267
59250,64261
59268,64257
59286,64254
59305,64253
60024,64253
60043,64254
" /> 
<polyline style="fill-rule:evenodd;"
points="67043,65730
67061,65733
67079,65738
67097,65744
67114,65752
67130,65762
67146,65773
67159,65785
67172,65799
67183,65815
67193,65831
67201,65848
67207,65865
67212,65884
67215,65902
67216,65921
67216,66305
67215,66324
67212,66342
67207,66361
67201,66378
67193,66396
67183,66412
67172,66427
67159,66441
67146,66453
67130,66465
67114,66474
67097,66482
67079,66489
67061,66493
67043,66496
67024,66497
66305,66497
66286,66496
66268,66493
66250,66489
66232,66482
66215,66474
66199,66465
66183,66453
66170,66441
66157,66427
66146,66412
66136,66396
66128,66378
66122,66361
66117,66342
66114,66324
66113,66305
66113,65921
66114,65902
66117,65884
66122,65865
66128,65848
66136,65831
66146,65815
66157,65799
66170,65785
66183,65773
66199,65762
66215,65752
66232,65744
66250,65738
66268,65733
66286,65730
66305,65729
67024,65729
67043,65730
" /> 
<polyline style="fill-rule:evenodd;"
points="67043,64254
67061,64257
67079,64261
67097,64267
67114,64276
67130,64285
67146,64296
67159,64309
67172,64323
67183,64338
67193,64354
67201,64371
67207,64389
67212,64407
67215,64426
67216,64445
67216,64829
67215,64847
67212,64866
67207,64884
67201,64902
67193,64919
67183,64935
67172,64950
67159,64964
67146,64977
67130,64988
67114,64998
67097,65006
67079,65012
67061,65017
67043,65020
67024,65021
66305,65021
66286,65020
66268,65017
66250,65012
66232,65006
66215,64998
66199,64988
66183,64977
66170,64964
66157,64950
66146,64935
66136,64919
66128,64902
66122,64884
66117,64866
66114,64847
66113,64829
66113,64445
66114,64426
66117,64407
66122,64389
66128,64371
66136,64354
66146,64338
66157,64323
66170,64309
66183,64296
66199,64285
66215,64276
66232,64267
66250,64261
66268,64257
66286,64254
66305,64253
67024,64253
67043,64254
" /> 
<polyline style="fill-rule:evenodd;"
points="81043,65730
81061,65733
81079,65738
81097,65744
81114,65752
81130,65762
81146,65773
81159,65785
81172,65799
81183,65815
81193,65831
81201,65848
81207,65865
81212,65884
81215,65902
81216,65921
81216,66305
81215,66324
81212,66342
81207,66361
81201,66378
81193,66396
81183,66412
81172,66427
81159,66441
81146,66453
81130,66465
81114,66474
81097,66482
81079,66489
81061,66493
81043,66496
81024,66497
80305,66497
80286,66496
80268,66493
80250,66489
80232,66482
80215,66474
80199,66465
80183,66453
80170,66441
80157,66427
80146,66412
80136,66396
80128,66378
80122,66361
80117,66342
80114,66324
80113,66305
80113,65921
80114,65902
80117,65884
80122,65865
80128,65848
80136,65831
80146,65815
80157,65799
80170,65785
80183,65773
80199,65762
80215,65752
80232,65744
80250,65738
80268,65733
80286,65730
80305,65729
81024,65729
81043,65730
" /> 
<polyline style="fill-rule:evenodd;"
points="81043,64254
81061,64257
81079,64261
81097,64267
81114,64276
81130,64285
81146,64296
81159,64309
81172,64323
81183,64338
81193,64354
81201,64371
81207,64389
81212,64407
81215,64426
81216,64445
81216,64829
81215,64847
81212,64866
81207,64884
81201,64902
81193,64919
81183,64935
81172,64950
81159,64964
81146,64977
81130,64988
81114,64998
81097,65006
81079,65012
81061,65017
81043,65020
81024,65021
80305,65021
80286,65020
80268,65017
80250,65012
80232,65006
80215,64998
80199,64988
80183,64977
80170,64964
80157,64950
80146,64935
80136,64919
80128,64902
80122,64884
80117,64866
80114,64847
80113,64829
80113,64445
80114,64426
80117,64407
80122,64389
80128,64371
80136,64354
80146,64338
80157,64323
80170,64309
80183,64296
80199,64285
80215,64276
80232,64267
80250,64261
80268,64257
80286,64254
80305,64253
81024,64253
81043,64254
" /> 
<polyline style="fill-rule:evenodd;"
points="41043,64254
41061,64257
41079,64261
41097,64267
41114,64276
41130,64285
41146,64296
41159,64309
41172,64323
41183,64338
41193,64354
41201,64371
41207,64389
41212,64407
41215,64426
41216,64445
41216,64829
41215,64847
41212,64866
41207,64884
41201,64902
41193,64919
41183,64935
41172,64950
41159,64964
41146,64977
41130,64988
41114,64998
41097,65006
41079,65012
41061,65017
41043,65020
41024,65021
40305,65021
40286,65020
40268,65017
40250,65012
40232,65006
40215,64998
40199,64988
40183,64977
40170,64964
40157,64950
40146,64935
40136,64919
40128,64902
40122,64884
40117,64866
40114,64847
40113,64829
40113,64445
40114,64426
40117,64407
40122,64389
40128,64371
40136,64354
40146,64338
40157,64323
40170,64309
40183,64296
40199,64285
40215,64276
40232,64267
40250,64261
40268,64257
40286,64254
40305,64253
41024,64253
41043,64254
" /> 
<polyline style="fill-rule:evenodd;"
points="41043,65730
41061,65733
41079,65738
41097,65744
41114,65752
41130,65762
41146,65773
41159,65785
41172,65799
41183,65815
41193,65831
41201,65848
41207,65865
41212,65884
41215,65902
41216,65921
41216,66305
41215,66324
41212,66342
41207,66361
41201,66378
41193,66396
41183,66412
41172,66427
41159,66441
41146,66453
41130,66465
41114,66474
41097,66482
41079,66489
41061,66493
41043,66496
41024,66497
40305,66497
40286,66496
40268,66493
40250,66489
40232,66482
40215,66474
40199,66465
40183,66453
40170,66441
40157,66427
40146,66412
40136,66396
40128,66378
40122,66361
40117,66342
40114,66324
40113,66305
40113,65921
40114,65902
40117,65884
40122,65865
40128,65848
40136,65831
40146,65815
40157,65799
40170,65785
40183,65773
40199,65762
40215,65752
40232,65744
40250,65738
40268,65733
40286,65730
40305,65729
41024,65729
41043,65730
" /> 
<polyline style="fill-rule:evenodd;"
points="48043,64254
48061,64257
48079,64261
48097,64267
48114,64276
48130,64285
48146,64296
48159,64309
48172,64323
48183,64338
48193,64354
48201,64371
48207,64389
48212,64407
48215,64426
48216,64445
48216,64829
48215,64847
48212,64866
48207,64884
48201,64902
48193,64919
48183,64935
48172,64950
48159,64964
48146,64977
48130,64988
48114,64998
48097,65006
48079,65012
48061,65017
48043,65020
48024,65021
47305,65021
47286,65020
47268,65017
47250,65012
47232,65006
47215,64998
47199,64988
47183,64977
47170,64964
47157,64950
47146,64935
47136,64919
47128,64902
47122,64884
47117,64866
47114,64847
47113,64829
47113,64445
47114,64426
47117,64407
47122,64389
47128,64371
47136,64354
47146,64338
47157,64323
47170,64309
47183,64296
47199,64285
47215,64276
47232,64267
47250,64261
47268,64257
47286,64254
47305,64253
48024,64253
48043,64254
" /> 
<polyline style="fill-rule:evenodd;"
points="48043,65730
48061,65733
48079,65738
48097,65744
48114,65752
48130,65762
48146,65773
48159,65785
48172,65799
48183,65815
48193,65831
48201,65848
48207,65865
48212,65884
48215,65902
48216,65921
48216,66305
48215,66324
48212,66342
48207,66361
48201,66378
48193,66396
48183,66412
48172,66427
48159,66441
48146,66453
48130,66465
48114,66474
48097,66482
48079,66489
48061,66493
48043,66496
48024,66497
47305,66497
47286,66496
47268,66493
47250,66489
47232,66482
47215,66474
47199,66465
47183,66453
47170,66441
47157,66427
47146,66412
47136,66396
47128,66378
47122,66361
47117,66342
47114,66324
47113,66305
47113,65921
47114,65902
47117,65884
47122,65865
47128,65848
47136,65831
47146,65815
47157,65799
47170,65785
47183,65773
47199,65762
47215,65752
47232,65744
47250,65738
47268,65733
47286,65730
47305,65729
48024,65729
48043,65730
" /> 
<polyline style="fill-rule:evenodd;"
points="55043,64254
55061,64257
55079,64261
55097,64267
55114,64276
55130,64285
55146,64296
55159,64309
55172,64323
55183,64338
55193,64354
55201,64371
55207,64389
55212,64407
55215,64426
55216,64445
55216,64829
55215,64847
55212,64866
55207,64884
55201,64902
55193,64919
55183,64935
55172,64950
55159,64964
55146,64977
55130,64988
55114,64998
55097,65006
55079,65012
55061,65017
55043,65020
55024,65021
54305,65021
54286,65020
54268,65017
54250,65012
54232,65006
54215,64998
54199,64988
54183,64977
54170,64964
54157,64950
54146,64935
54136,64919
54128,64902
54122,64884
54117,64866
54114,64847
54113,64829
54113,64445
54114,64426
54117,64407
54122,64389
54128,64371
54136,64354
54146,64338
54157,64323
54170,64309
54183,64296
54199,64285
54215,64276
54232,64267
54250,64261
54268,64257
54286,64254
54305,64253
55024,64253
55043,64254
" /> 
<polyline style="fill-rule:evenodd;"
points="55043,65730
55061,65733
55079,65738
55097,65744
55114,65752
55130,65762
55146,65773
55159,65785
55172,65799
55183,65815
55193,65831
55201,65848
55207,65865
55212,65884
55215,65902
55216,65921
55216,66305
55215,66324
55212,66342
55207,66361
55201,66378
55193,66396
55183,66412
55172,66427
55159,66441
55146,66453
55130,66465
55114,66474
55097,66482
55079,66489
55061,66493
55043,66496
55024,66497
54305,66497
54286,66496
54268,66493
54250,66489
54232,66482
54215,66474
54199,66465
54183,66453
54170,66441
54157,66427
54146,66412
54136,66396
54128,66378
54122,66361
54117,66342
54114,66324
54113,66305
54113,65921
54114,65902
54117,65884
54122,65865
54128,65848
54136,65831
54146,65815
54157,65799
54170,65785
54183,65773
54199,65762
54215,65752
54232,65744
54250,65738
54268,65733
54286,65730
54305,65729
55024,65729
55043,65730
" /> 
<polyline style="fill-rule:evenodd;"
points="69043,64254
69061,64257
69079,64261
69097,64267
69114,64276
69130,64285
69146,64296
69159,64309
69172,64323
69183,64338
69193,64354
69201,64371
69207,64389
69212,64407
69215,64426
69216,64445
69216,64829
69215,64847
69212,64866
69207,64884
69201,64902
69193,64919
69183,64935
69172,64950
69159,64964
69146,64977
69130,64988
69114,64998
69097,65006
69079,65012
69061,65017
69043,65020
69024,65021
68305,65021
68286,65020
68268,65017
68250,65012
68232,65006
68215,64998
68199,64988
68183,64977
68170,64964
68157,64950
68146,64935
68136,64919
68128,64902
68122,64884
68117,64866
68114,64847
68113,64829
68113,64445
68114,64426
68117,64407
68122,64389
68128,64371
68136,64354
68146,64338
68157,64323
68170,64309
68183,64296
68199,64285
68215,64276
68232,64267
68250,64261
68268,64257
68286,64254
68305,64253
69024,64253
69043,64254
" /> 
<polyline style="fill-rule:evenodd;"
points="69043,65730
69061,65733
69079,65738
69097,65744
69114,65752
69130,65762
69146,65773
69159,65785
69172,65799
69183,65815
69193,65831
69201,65848
69207,65865
69212,65884
69215,65902
69216,65921
69216,66305
69215,66324
69212,66342
69207,66361
69201,66378
69193,66396
69183,66412
69172,66427
69159,66441
69146,66453
69130,66465
69114,66474
69097,66482
69079,66489
69061,66493
69043,66496
69024,66497
68305,66497
68286,66496
68268,66493
68250,66489
68232,66482
68215,66474
68199,66465
68183,66453
68170,66441
68157,66427
68146,66412
68136,66396
68128,66378
68122,66361
68117,66342
68114,66324
68113,66305
68113,65921
68114,65902
68117,65884
68122,65865
68128,65848
68136,65831
68146,65815
68157,65799
68170,65785
68183,65773
68199,65762
68215,65752
68232,65744
68250,65738
68268,65733
68286,65730
68305,65729
69024,65729
69043,65730
" /> 
<polyline style="fill-rule:evenodd;"
points="76043,64254
76061,64257
76079,64261
76097,64267
76114,64276
76130,64285
76146,64296
76159,64309
76172,64323
76183,64338
76193,64354
76201,64371
76207,64389
76212,64407
76215,64426
76216,64445
76216,64829
76215,64847
76212,64866
76207,64884
76201,64902
76193,64919
76183,64935
76172,64950
76159,64964
76146,64977
76130,64988
76114,64998
76097,65006
76079,65012
76061,65017
76043,65020
76024,65021
75305,65021
75286,65020
75268,65017
75250,65012
75232,65006
75215,64998
75199,64988
75183,64977
75170,64964
75157,64950
75146,64935
75136,64919
75128,64902
75122,64884
75117,64866
75114,64847
75113,64829
75113,64445
75114,64426
75117,64407
75122,64389
75128,64371
75136,64354
75146,64338
75157,64323
75170,64309
75183,64296
75199,64285
75215,64276
75232,64267
75250,64261
75268,64257
75286,64254
75305,64253
76024,64253
76043,64254
" /> 
<polyline style="fill-rule:evenodd;"
points="76043,65730
76061,65733
76079,65738
76097,65744
76114,65752
76130,65762
76146,65773
76159,65785
76172,65799
76183,65815
76193,65831
76201,65848
76207,65865
76212,65884
76215,65902
76216,65921
76216,66305
76215,66324
76212,66342
76207,66361
76201,66378
76193,66396
76183,66412
76172,66427
76159,66441
76146,66453
76130,66465
76114,66474
76097,66482
76079,66489
76061,66493
76043,66496
76024,66497
75305,66497
75286,66496
75268,66493
75250,66489
75232,66482
75215,66474
75199,66465
75183,66453
75170,66441
75157,66427
75146,66412
75136,66396
75128,66378
75122,66361
75117,66342
75114,66324
75113,66305
75113,65921
75114,65902
75117,65884
75122,65865
75128,65848
75136,65831
75146,65815
75157,65799
75170,65785
75183,65773
75199,65762
75215,65752
75232,65744
75250,65738
75268,65733
75286,65730
75305,65729
76024,65729
76043,65730
" /> 
<polyline style="fill-rule:evenodd;"
points="83043,64254
83061,64257
83079,64261
83097,64267
83114,64276
83130,64285
83146,64296
83159,64309
83172,64323
83183,64338
83193,64354
83201,64371
83207,64389
83212,64407
83215,64426
83216,64445
83216,64829
83215,64847
83212,64866
83207,64884
83201,64902
83193,64919
83183,64935
83172,64950
83159,64964
83146,64977
83130,64988
83114,64998
83097,65006
83079,65012
83061,65017
83043,65020
83024,65021
82305,65021
82286,65020
82268,65017
82250,65012
82232,65006
82215,64998
82199,64988
82183,64977
82170,64964
82157,64950
82146,64935
82136,64919
82128,64902
82122,64884
82117,64866
82114,64847
82113,64829
82113,64445
82114,64426
82117,64407
82122,64389
82128,64371
82136,64354
82146,64338
82157,64323
82170,64309
82183,64296
82199,64285
82215,64276
82232,64267
82250,64261
82268,64257
82286,64254
82305,64253
83024,64253
83043,64254
" /> 
<polyline style="fill-rule:evenodd;"
points="83043,65730
83061,65733
83079,65738
83097,65744
83114,65752
83130,65762
83146,65773
83159,65785
83172,65799
83183,65815
83193,65831
83201,65848
83207,65865
83212,65884
83215,65902
83216,65921
83216,66305
83215,66324
83212,66342
83207,66361
83201,66378
83193,66396
83183,66412
83172,66427
83159,66441
83146,66453
83130,66465
83114,66474
83097,66482
83079,66489
83061,66493
83043,66496
83024,66497
82305,66497
82286,66496
82268,66493
82250,66489
82232,66482
82215,66474
82199,66465
82183,66453
82170,66441
82157,66427
82146,66412
82136,66396
82128,66378
82122,66361
82117,66342
82114,66324
82113,66305
82113,65921
82114,65902
82117,65884
82122,65865
82128,65848
82136,65831
82146,65815
82157,65799
82170,65785
82183,65773
82199,65762
82215,65752
82232,65744
82250,65738
82268,65733
82286,65730
82305,65729
83024,65729
83043,65730
" /> 
<polyline style="fill-rule:evenodd;"
points="33613,62425
33632,62427
33650,62432
33668,62438
33685,62446
33701,62456
33716,62467
33730,62480
33743,62494
33754,62509
33764,62525
33772,62542
33778,62560
33783,62578
33786,62597
33787,62616
33787,63334
33786,63353
33783,63372
33778,63390
33772,63408
33764,63425
33754,63441
33743,63456
33730,63470
33716,63483
33701,63494
33685,63503
33668,63512
33650,63518
33632,63522
33613,63525
33595,63526
33211,63526
33192,63525
33173,63522
33155,63518
33137,63512
33120,63503
33104,63494
33089,63483
33075,63470
33062,63456
33051,63441
33041,63425
33033,63408
33027,63390
33023,63372
33020,63353
33019,63334
33019,62616
33020,62597
33023,62578
33027,62560
33033,62542
33041,62525
33051,62509
33062,62494
33075,62480
33089,62467
33104,62456
33120,62446
33137,62438
33155,62432
33173,62427
33192,62425
33211,62424
33595,62424
33613,62425
" /> 
<polyline style="fill-rule:evenodd;"
points="32137,62425
32156,62427
32174,62432
32192,62438
32209,62446
32225,62456
32240,62467
32254,62480
32267,62494
32278,62509
32288,62525
32296,62542
32302,62560
32306,62578
32309,62597
32310,62616
32310,63334
32309,63353
32306,63372
32302,63390
32296,63408
32288,63425
32278,63441
32267,63456
32254,63470
32240,63483
32225,63494
32209,63503
32192,63512
32174,63518
32156,63522
32137,63525
32118,63526
31734,63526
31716,63525
31697,63522
31679,63518
31661,63512
31644,63503
31628,63494
31613,63483
31599,63470
31586,63456
31575,63441
31565,63425
31557,63408
31551,63390
31546,63372
31543,63353
31542,63334
31542,62616
31543,62597
31546,62578
31551,62560
31557,62542
31565,62525
31575,62509
31586,62494
31599,62480
31613,62467
31628,62456
31644,62446
31661,62438
31679,62432
31697,62427
31716,62425
31734,62424
32118,62424
32137,62425
" /> 
<polyline style="fill-rule:evenodd;"
points="68613,62425
68632,62427
68650,62432
68668,62438
68685,62446
68701,62456
68716,62467
68730,62480
68743,62494
68754,62509
68764,62525
68772,62542
68778,62560
68783,62578
68786,62597
68787,62616
68787,63334
68786,63353
68783,63372
68778,63390
68772,63408
68764,63425
68754,63441
68743,63456
68730,63470
68716,63483
68701,63494
68685,63503
68668,63512
68650,63518
68632,63522
68613,63525
68595,63526
68211,63526
68192,63525
68173,63522
68155,63518
68137,63512
68120,63503
68104,63494
68089,63483
68075,63470
68062,63456
68051,63441
68041,63425
68033,63408
68027,63390
68023,63372
68020,63353
68019,63334
68019,62616
68020,62597
68023,62578
68027,62560
68033,62542
68041,62525
68051,62509
68062,62494
68075,62480
68089,62467
68104,62456
68120,62446
68137,62438
68155,62432
68173,62427
68192,62425
68211,62424
68595,62424
68613,62425
" /> 
<polyline style="fill-rule:evenodd;"
points="67137,62425
67156,62427
67174,62432
67192,62438
67209,62446
67225,62456
67240,62467
67254,62480
67267,62494
67278,62509
67288,62525
67296,62542
67302,62560
67306,62578
67309,62597
67310,62616
67310,63334
67309,63353
67306,63372
67302,63390
67296,63408
67288,63425
67278,63441
67267,63456
67254,63470
67240,63483
67225,63494
67209,63503
67192,63512
67174,63518
67156,63522
67137,63525
67118,63526
66734,63526
66716,63525
66697,63522
66679,63518
66661,63512
66644,63503
66628,63494
66613,63483
66599,63470
66586,63456
66575,63441
66565,63425
66557,63408
66551,63390
66546,63372
66543,63353
66542,63334
66542,62616
66543,62597
66546,62578
66551,62560
66557,62542
66565,62525
66575,62509
66586,62494
66599,62480
66613,62467
66628,62456
66644,62446
66661,62438
66679,62432
66697,62427
66716,62425
66734,62424
67118,62424
67137,62425
" /> 
<polyline style="fill-rule:evenodd;"
points="61613,62425
61632,62427
61650,62432
61668,62438
61685,62446
61701,62456
61716,62467
61730,62480
61743,62494
61754,62509
61764,62525
61772,62542
61778,62560
61783,62578
61786,62597
61787,62616
61787,63334
61786,63353
61783,63372
61778,63390
61772,63408
61764,63425
61754,63441
61743,63456
61730,63470
61716,63483
61701,63494
61685,63503
61668,63512
61650,63518
61632,63522
61613,63525
61595,63526
61211,63526
61192,63525
61173,63522
61155,63518
61137,63512
61120,63503
61104,63494
61089,63483
61075,63470
61062,63456
61051,63441
61041,63425
61033,63408
61027,63390
61023,63372
61020,63353
61019,63334
61019,62616
61020,62597
61023,62578
61027,62560
61033,62542
61041,62525
61051,62509
61062,62494
61075,62480
61089,62467
61104,62456
61120,62446
61137,62438
61155,62432
61173,62427
61192,62425
61211,62424
61595,62424
61613,62425
" /> 
<polyline style="fill-rule:evenodd;"
points="60137,62425
60156,62427
60174,62432
60192,62438
60209,62446
60225,62456
60240,62467
60254,62480
60267,62494
60278,62509
60288,62525
60296,62542
60302,62560
60306,62578
60309,62597
60310,62616
60310,63334
60309,63353
60306,63372
60302,63390
60296,63408
60288,63425
60278,63441
60267,63456
60254,63470
60240,63483
60225,63494
60209,63503
60192,63512
60174,63518
60156,63522
60137,63525
60118,63526
59734,63526
59716,63525
59697,63522
59679,63518
59661,63512
59644,63503
59628,63494
59613,63483
59599,63470
59586,63456
59575,63441
59565,63425
59557,63408
59551,63390
59546,63372
59543,63353
59542,63334
59542,62616
59543,62597
59546,62578
59551,62560
59557,62542
59565,62525
59575,62509
59586,62494
59599,62480
59613,62467
59628,62456
59644,62446
59661,62438
59679,62432
59697,62427
59716,62425
59734,62424
60118,62424
60137,62425
" /> 
<polyline style="fill-rule:evenodd;"
points="40613,62425
40632,62427
40650,62432
40668,62438
40685,62446
40701,62456
40716,62467
40730,62480
40743,62494
40754,62509
40764,62525
40772,62542
40778,62560
40783,62578
40786,62597
40787,62616
40787,63334
40786,63353
40783,63372
40778,63390
40772,63408
40764,63425
40754,63441
40743,63456
40730,63470
40716,63483
40701,63494
40685,63503
40668,63512
40650,63518
40632,63522
40613,63525
40595,63526
40211,63526
40192,63525
40173,63522
40155,63518
40137,63512
40120,63503
40104,63494
40089,63483
40075,63470
40062,63456
40051,63441
40041,63425
40033,63408
40027,63390
40023,63372
40020,63353
40019,63334
40019,62616
40020,62597
40023,62578
40027,62560
40033,62542
40041,62525
40051,62509
40062,62494
40075,62480
40089,62467
40104,62456
40120,62446
40137,62438
40155,62432
40173,62427
40192,62425
40211,62424
40595,62424
40613,62425
" /> 
<polyline style="fill-rule:evenodd;"
points="39137,62425
39156,62427
39174,62432
39192,62438
39209,62446
39225,62456
39240,62467
39254,62480
39267,62494
39278,62509
39288,62525
39296,62542
39302,62560
39306,62578
39309,62597
39310,62616
39310,63334
39309,63353
39306,63372
39302,63390
39296,63408
39288,63425
39278,63441
39267,63456
39254,63470
39240,63483
39225,63494
39209,63503
39192,63512
39174,63518
39156,63522
39137,63525
39118,63526
38734,63526
38716,63525
38697,63522
38679,63518
38661,63512
38644,63503
38628,63494
38613,63483
38599,63470
38586,63456
38575,63441
38565,63425
38557,63408
38551,63390
38546,63372
38543,63353
38542,63334
38542,62616
38543,62597
38546,62578
38551,62560
38557,62542
38565,62525
38575,62509
38586,62494
38599,62480
38613,62467
38628,62456
38644,62446
38661,62438
38679,62432
38697,62427
38716,62425
38734,62424
39118,62424
39137,62425
" /> 
<polyline style="fill-rule:evenodd;"
points="47613,62425
47632,62427
47650,62432
47668,62438
47685,62446
47701,62456
47716,62467
47730,62480
47743,62494
47754,62509
47764,62525
47772,62542
47778,62560
47783,62578
47786,62597
47787,62616
47787,63334
47786,63353
47783,63372
47778,63390
47772,63408
47764,63425
47754,63441
47743,63456
47730,63470
47716,63483
47701,63494
47685,63503
47668,63512
47650,63518
47632,63522
47613,63525
47595,63526
47211,63526
47192,63525
47173,63522
47155,63518
47137,63512
47120,63503
47104,63494
47089,63483
47075,63470
47062,63456
47051,63441
47041,63425
47033,63408
47027,63390
47023,63372
47020,63353
47019,63334
47019,62616
47020,62597
47023,62578
47027,62560
47033,62542
47041,62525
47051,62509
47062,62494
47075,62480
47089,62467
47104,62456
47120,62446
47137,62438
47155,62432
47173,62427
47192,62425
47211,62424
47595,62424
47613,62425
" /> 
<polyline style="fill-rule:evenodd;"
points="46137,62425
46156,62427
46174,62432
46192,62438
46209,62446
46225,62456
46240,62467
46254,62480
46267,62494
46278,62509
46288,62525
46296,62542
46302,62560
46306,62578
46309,62597
46310,62616
46310,63334
46309,63353
46306,63372
46302,63390
46296,63408
46288,63425
46278,63441
46267,63456
46254,63470
46240,63483
46225,63494
46209,63503
46192,63512
46174,63518
46156,63522
46137,63525
46118,63526
45734,63526
45716,63525
45697,63522
45679,63518
45661,63512
45644,63503
45628,63494
45613,63483
45599,63470
45586,63456
45575,63441
45565,63425
45557,63408
45551,63390
45546,63372
45543,63353
45542,63334
45542,62616
45543,62597
45546,62578
45551,62560
45557,62542
45565,62525
45575,62509
45586,62494
45599,62480
45613,62467
45628,62456
45644,62446
45661,62438
45679,62432
45697,62427
45716,62425
45734,62424
46118,62424
46137,62425
" /> 
<polyline style="fill-rule:evenodd;"
points="54613,62425
54632,62427
54650,62432
54668,62438
54685,62446
54701,62456
54716,62467
54730,62480
54743,62494
54754,62509
54764,62525
54772,62542
54778,62560
54783,62578
54786,62597
54787,62616
54787,63334
54786,63353
54783,63372
54778,63390
54772,63408
54764,63425
54754,63441
54743,63456
54730,63470
54716,63483
54701,63494
54685,63503
54668,63512
54650,63518
54632,63522
54613,63525
54595,63526
54211,63526
54192,63525
54173,63522
54155,63518
54137,63512
54120,63503
54104,63494
54089,63483
54075,63470
54062,63456
54051,63441
54041,63425
54033,63408
54027,63390
54023,63372
54020,63353
54019,63334
54019,62616
54020,62597
54023,62578
54027,62560
54033,62542
54041,62525
54051,62509
54062,62494
54075,62480
54089,62467
54104,62456
54120,62446
54137,62438
54155,62432
54173,62427
54192,62425
54211,62424
54595,62424
54613,62425
" /> 
<polyline style="fill-rule:evenodd;"
points="53137,62425
53156,62427
53174,62432
53192,62438
53209,62446
53225,62456
53240,62467
53254,62480
53267,62494
53278,62509
53288,62525
53296,62542
53302,62560
53306,62578
53309,62597
53310,62616
53310,63334
53309,63353
53306,63372
53302,63390
53296,63408
53288,63425
53278,63441
53267,63456
53254,63470
53240,63483
53225,63494
53209,63503
53192,63512
53174,63518
53156,63522
53137,63525
53118,63526
52734,63526
52716,63525
52697,63522
52679,63518
52661,63512
52644,63503
52628,63494
52613,63483
52599,63470
52586,63456
52575,63441
52565,63425
52557,63408
52551,63390
52546,63372
52543,63353
52542,63334
52542,62616
52543,62597
52546,62578
52551,62560
52557,62542
52565,62525
52575,62509
52586,62494
52599,62480
52613,62467
52628,62456
52644,62446
52661,62438
52679,62432
52697,62427
52716,62425
52734,62424
53118,62424
53137,62425
" /> 
<polyline style="fill-rule:evenodd;"
points="75613,62425
75632,62427
75650,62432
75668,62438
75685,62446
75701,62456
75716,62467
75730,62480
75743,62494
75754,62509
75764,62525
75772,62542
75778,62560
75783,62578
75786,62597
75787,62616
75787,63334
75786,63353
75783,63372
75778,63390
75772,63408
75764,63425
75754,63441
75743,63456
75730,63470
75716,63483
75701,63494
75685,63503
75668,63512
75650,63518
75632,63522
75613,63525
75595,63526
75211,63526
75192,63525
75173,63522
75155,63518
75137,63512
75120,63503
75104,63494
75089,63483
75075,63470
75062,63456
75051,63441
75041,63425
75033,63408
75027,63390
75023,63372
75020,63353
75019,63334
75019,62616
75020,62597
75023,62578
75027,62560
75033,62542
75041,62525
75051,62509
75062,62494
75075,62480
75089,62467
75104,62456
75120,62446
75137,62438
75155,62432
75173,62427
75192,62425
75211,62424
75595,62424
75613,62425
" /> 
<polyline style="fill-rule:evenodd;"
points="74137,62425
74156,62427
74174,62432
74192,62438
74209,62446
74225,62456
74240,62467
74254,62480
74267,62494
74278,62509
74288,62525
74296,62542
74302,62560
74306,62578
74309,62597
74310,62616
74310,63334
74309,63353
74306,63372
74302,63390
74296,63408
74288,63425
74278,63441
74267,63456
74254,63470
74240,63483
74225,63494
74209,63503
74192,63512
74174,63518
74156,63522
74137,63525
74118,63526
73734,63526
73716,63525
73697,63522
73679,63518
73661,63512
73644,63503
73628,63494
73613,63483
73599,63470
73586,63456
73575,63441
73565,63425
73557,63408
73551,63390
73546,63372
73543,63353
73542,63334
73542,62616
73543,62597
73546,62578
73551,62560
73557,62542
73565,62525
73575,62509
73586,62494
73599,62480
73613,62467
73628,62456
73644,62446
73661,62438
73679,62432
73697,62427
73716,62425
73734,62424
74118,62424
74137,62425
" /> 
<polyline style="fill-rule:evenodd;"
points="82613,62425
82632,62427
82650,62432
82668,62438
82685,62446
82701,62456
82716,62467
82730,62480
82743,62494
82754,62509
82764,62525
82772,62542
82778,62560
82783,62578
82786,62597
82787,62616
82787,63334
82786,63353
82783,63372
82778,63390
82772,63408
82764,63425
82754,63441
82743,63456
82730,63470
82716,63483
82701,63494
82685,63503
82668,63512
82650,63518
82632,63522
82613,63525
82595,63526
82211,63526
82192,63525
82173,63522
82155,63518
82137,63512
82120,63503
82104,63494
82089,63483
82075,63470
82062,63456
82051,63441
82041,63425
82033,63408
82027,63390
82023,63372
82020,63353
82019,63334
82019,62616
82020,62597
82023,62578
82027,62560
82033,62542
82041,62525
82051,62509
82062,62494
82075,62480
82089,62467
82104,62456
82120,62446
82137,62438
82155,62432
82173,62427
82192,62425
82211,62424
82595,62424
82613,62425
" /> 
<polyline style="fill-rule:evenodd;"
points="81137,62425
81156,62427
81174,62432
81192,62438
81209,62446
81225,62456
81240,62467
81254,62480
81267,62494
81278,62509
81288,62525
81296,62542
81302,62560
81306,62578
81309,62597
81310,62616
81310,63334
81309,63353
81306,63372
81302,63390
81296,63408
81288,63425
81278,63441
81267,63456
81254,63470
81240,63483
81225,63494
81209,63503
81192,63512
81174,63518
81156,63522
81137,63525
81118,63526
80734,63526
80716,63525
80697,63522
80679,63518
80661,63512
80644,63503
80628,63494
80613,63483
80599,63470
80586,63456
80575,63441
80565,63425
80557,63408
80551,63390
80546,63372
80543,63353
80542,63334
80542,62616
80543,62597
80546,62578
80551,62560
80557,62542
80565,62525
80575,62509
80586,62494
80599,62480
80613,62467
80628,62456
80644,62446
80661,62438
80679,62432
80697,62427
80716,62425
80734,62424
81118,62424
81137,62425
" /> 
<polyline style="fill-rule:evenodd;"
points="38337,14925
38356,14927
38374,14932
38392,14938
38409,14946
38425,14956
38440,14967
38454,14980
38467,14994
38478,15009
38488,15025
38496,15042
38502,15060
38506,15078
38509,15097
38510,15116
38510,15834
38509,15853
38506,15872
38502,15890
38496,15908
38488,15925
38478,15941
38467,15956
38454,15970
38440,15983
38425,15994
38409,16003
38392,16012
38374,16018
38356,16022
38337,16025
38318,16026
37934,16026
37916,16025
37897,16022
37879,16018
37861,16012
37844,16003
37828,15994
37813,15983
37799,15970
37786,15956
37775,15941
37765,15925
37757,15908
37751,15890
37746,15872
37743,15853
37742,15834
37742,15116
37743,15097
37746,15078
37751,15060
37757,15042
37765,15025
37775,15009
37786,14994
37799,14980
37813,14967
37828,14956
37844,14946
37861,14938
37879,14932
37897,14927
37916,14925
37934,14924
38318,14924
38337,14925
" /> 
<polyline style="fill-rule:evenodd;"
points="39813,14925
39832,14927
39850,14932
39868,14938
39885,14946
39901,14956
39916,14967
39930,14980
39943,14994
39954,15009
39964,15025
39972,15042
39978,15060
39983,15078
39986,15097
39987,15116
39987,15834
39986,15853
39983,15872
39978,15890
39972,15908
39964,15925
39954,15941
39943,15956
39930,15970
39916,15983
39901,15994
39885,16003
39868,16012
39850,16018
39832,16022
39813,16025
39795,16026
39411,16026
39392,16025
39373,16022
39355,16018
39337,16012
39320,16003
39304,15994
39289,15983
39275,15970
39262,15956
39251,15941
39241,15925
39233,15908
39227,15890
39223,15872
39220,15853
39219,15834
39219,15116
39220,15097
39223,15078
39227,15060
39233,15042
39241,15025
39251,15009
39262,14994
39275,14980
39289,14967
39304,14956
39320,14946
39337,14938
39355,14932
39373,14927
39392,14925
39411,14924
39795,14924
39813,14925
" /> 
<polyline style="fill-rule:evenodd;"
points="67143,43530
67161,43533
67179,43538
67197,43544
67214,43552
67230,43562
67246,43573
67259,43585
67272,43599
67283,43615
67293,43631
67301,43648
67307,43665
67312,43684
67315,43702
67316,43721
67316,44105
67315,44124
67312,44142
67307,44161
67301,44178
67293,44196
67283,44212
67272,44227
67259,44241
67246,44253
67230,44265
67214,44274
67197,44282
67179,44289
67161,44293
67143,44296
67124,44297
66405,44297
66386,44296
66368,44293
66350,44289
66332,44282
66315,44274
66299,44265
66283,44253
66270,44241
66257,44227
66246,44212
66236,44196
66228,44178
66222,44161
66217,44142
66214,44124
66213,44105
66213,43721
66214,43702
66217,43684
66222,43665
66228,43648
66236,43631
66246,43615
66257,43599
66270,43585
66283,43573
66299,43562
66315,43552
66332,43544
66350,43538
66368,43533
66386,43530
66405,43529
67124,43529
67143,43530
" /> 
<polyline style="fill-rule:evenodd;"
points="67143,42054
67161,42057
67179,42061
67197,42067
67214,42076
67230,42085
67246,42096
67259,42109
67272,42123
67283,42138
67293,42154
67301,42171
67307,42189
67312,42207
67315,42226
67316,42245
67316,42629
67315,42647
67312,42666
67307,42684
67301,42702
67293,42719
67283,42735
67272,42750
67259,42764
67246,42777
67230,42788
67214,42798
67197,42806
67179,42812
67161,42817
67143,42820
67124,42821
66405,42821
66386,42820
66368,42817
66350,42812
66332,42806
66315,42798
66299,42788
66283,42777
66270,42764
66257,42750
66246,42735
66236,42719
66228,42702
66222,42684
66217,42666
66214,42647
66213,42629
66213,42245
66214,42226
66217,42207
66222,42189
66228,42171
66236,42154
66246,42138
66257,42123
66270,42109
66283,42096
66299,42085
66315,42076
66332,42067
66350,42061
66368,42057
66386,42054
66405,42053
67124,42053
67143,42054
" /> 
<polyline style="fill-rule:evenodd;"
points="74343,53530
74361,53533
74379,53538
74397,53544
74414,53552
74430,53562
74446,53573
74459,53585
74472,53599
74483,53615
74493,53631
74501,53648
74507,53665
74512,53684
74515,53702
74516,53721
74516,54105
74515,54124
74512,54142
74507,54161
74501,54178
74493,54196
74483,54212
74472,54227
74459,54241
74446,54253
74430,54265
74414,54274
74397,54282
74379,54289
74361,54293
74343,54296
74324,54297
73605,54297
73586,54296
73568,54293
73550,54289
73532,54282
73515,54274
73499,54265
73483,54253
73470,54241
73457,54227
73446,54212
73436,54196
73428,54178
73422,54161
73417,54142
73414,54124
73413,54105
73413,53721
73414,53702
73417,53684
73422,53665
73428,53648
73436,53631
73446,53615
73457,53599
73470,53585
73483,53573
73499,53562
73515,53552
73532,53544
73550,53538
73568,53533
73586,53530
73605,53529
74324,53529
74343,53530
" /> 
<polyline style="fill-rule:evenodd;"
points="74343,52054
74361,52057
74379,52061
74397,52067
74414,52076
74430,52085
74446,52096
74459,52109
74472,52123
74483,52138
74493,52154
74501,52171
74507,52189
74512,52207
74515,52226
74516,52245
74516,52629
74515,52647
74512,52666
74507,52684
74501,52702
74493,52719
74483,52735
74472,52750
74459,52764
74446,52777
74430,52788
74414,52798
74397,52806
74379,52812
74361,52817
74343,52820
74324,52821
73605,52821
73586,52820
73568,52817
73550,52812
73532,52806
73515,52798
73499,52788
73483,52777
73470,52764
73457,52750
73446,52735
73436,52719
73428,52702
73422,52684
73417,52666
73414,52647
73413,52629
73413,52245
73414,52226
73417,52207
73422,52189
73428,52171
73436,52154
73446,52138
73457,52123
73470,52109
73483,52096
73499,52085
73515,52076
73532,52067
73550,52061
73568,52057
73586,52054
73605,52053
74324,52053
74343,52054
" /> 
<polyline style="fill-rule:evenodd;"
points="30913,34325
30932,34327
30950,34332
30968,34338
30985,34346
31001,34356
31016,34367
31030,34380
31043,34394
31054,34409
31064,34425
31072,34442
31078,34460
31083,34478
31086,34497
31087,34516
31087,35234
31086,35253
31083,35272
31078,35290
31072,35308
31064,35325
31054,35341
31043,35356
31030,35370
31016,35383
31001,35394
30985,35403
30968,35412
30950,35418
30932,35422
30913,35425
30895,35426
30511,35426
30492,35425
30473,35422
30455,35418
30437,35412
30420,35403
30404,35394
30389,35383
30375,35370
30362,35356
30351,35341
30341,35325
30333,35308
30327,35290
30323,35272
30320,35253
30319,35234
30319,34516
30320,34497
30323,34478
30327,34460
30333,34442
30341,34425
30351,34409
30362,34394
30375,34380
30389,34367
30404,34356
30420,34346
30437,34338
30455,34332
30473,34327
30492,34325
30511,34324
30895,34324
30913,34325
" /> 
<polyline style="fill-rule:evenodd;"
points="29437,34325
29456,34327
29474,34332
29492,34338
29509,34346
29525,34356
29540,34367
29554,34380
29567,34394
29578,34409
29588,34425
29596,34442
29602,34460
29606,34478
29609,34497
29610,34516
29610,35234
29609,35253
29606,35272
29602,35290
29596,35308
29588,35325
29578,35341
29567,35356
29554,35370
29540,35383
29525,35394
29509,35403
29492,35412
29474,35418
29456,35422
29437,35425
29418,35426
29034,35426
29016,35425
28997,35422
28979,35418
28961,35412
28944,35403
28928,35394
28913,35383
28899,35370
28886,35356
28875,35341
28865,35325
28857,35308
28851,35290
28846,35272
28843,35253
28842,35234
28842,34516
28843,34497
28846,34478
28851,34460
28857,34442
28865,34425
28875,34409
28886,34394
28899,34380
28913,34367
28928,34356
28944,34346
28961,34338
28979,34332
28997,34327
29016,34325
29034,34324
29418,34324
29437,34325
" /> 
<polyline style="fill-rule:evenodd;"
points="55043,43930
55061,43933
55079,43938
55097,43944
55114,43952
55130,43962
55146,43973
55159,43985
55172,43999
55183,44015
55193,44031
55201,44048
55207,44065
55212,44084
55215,44102
55216,44121
55216,44505
55215,44524
55212,44542
55207,44561
55201,44578
55193,44596
55183,44612
55172,44627
55159,44641
55146,44653
55130,44665
55114,44674
55097,44682
55079,44689
55061,44693
55043,44696
55024,44697
54305,44697
54286,44696
54268,44693
54250,44689
54232,44682
54215,44674
54199,44665
54183,44653
54170,44641
54157,44627
54146,44612
54136,44596
54128,44578
54122,44561
54117,44542
54114,44524
54113,44505
54113,44121
54114,44102
54117,44084
54122,44065
54128,44048
54136,44031
54146,44015
54157,43999
54170,43985
54183,43973
54199,43962
54215,43952
54232,43944
54250,43938
54268,43933
54286,43930
54305,43929
55024,43929
55043,43930
" /> 
<polyline style="fill-rule:evenodd;"
points="55043,42454
55061,42457
55079,42461
55097,42467
55114,42476
55130,42485
55146,42496
55159,42509
55172,42523
55183,42538
55193,42554
55201,42571
55207,42589
55212,42607
55215,42626
55216,42645
55216,43029
55215,43047
55212,43066
55207,43084
55201,43102
55193,43119
55183,43135
55172,43150
55159,43164
55146,43177
55130,43188
55114,43198
55097,43206
55079,43212
55061,43217
55043,43220
55024,43221
54305,43221
54286,43220
54268,43217
54250,43212
54232,43206
54215,43198
54199,43188
54183,43177
54170,43164
54157,43150
54146,43135
54136,43119
54128,43102
54122,43084
54117,43066
54114,43047
54113,43029
54113,42645
54114,42626
54117,42607
54122,42589
54128,42571
54136,42554
54146,42538
54157,42523
54170,42509
54183,42496
54199,42485
54215,42476
54232,42467
54250,42461
54268,42457
54286,42454
54305,42453
55024,42453
55043,42454
" /> 
<polyline style="fill-rule:evenodd;"
points="36328,15246
36347,15249
36366,15253
36384,15260
36401,15268
36418,15278
36433,15290
36448,15303
36461,15317
36472,15332
36482,15349
36490,15367
36497,15385
36502,15403
36504,15423
36505,15442
36505,16308
36504,16327
36502,16346
36497,16365
36490,16383
36482,16401
36472,16417
36461,16433
36448,16447
36433,16460
36418,16472
36401,16482
36384,16490
36366,16496
36347,16501
36328,16504
36309,16505
34655,16505
34636,16504
34617,16501
34598,16496
34580,16490
34562,16482
34546,16472
34530,16460
34516,16447
34503,16433
34491,16417
34481,16401
34473,16383
34467,16365
34462,16346
34459,16327
34458,16308
34458,15442
34459,15423
34462,15403
34467,15385
34473,15367
34481,15349
34491,15332
34503,15317
34516,15303
34530,15290
34546,15278
34562,15268
34580,15260
34598,15253
34617,15249
34636,15246
34655,15245
36309,15245
36328,15246
" /> 
<polyline style="fill-rule:evenodd;"
points="33493,15246
33512,15249
33531,15253
33549,15260
33567,15268
33583,15278
33599,15290
33613,15303
33626,15317
33638,15332
33648,15349
33656,15367
33662,15385
33667,15403
33670,15423
33671,15442
33671,16308
33670,16327
33667,16346
33662,16365
33656,16383
33648,16401
33638,16417
33626,16433
33613,16447
33599,16460
33583,16472
33567,16482
33549,16490
33531,16496
33512,16501
33493,16504
33474,16505
31820,16505
31801,16504
31782,16501
31763,16496
31745,16490
31728,16482
31711,16472
31696,16460
31681,16447
31668,16433
31657,16417
31647,16401
31639,16383
31632,16365
31627,16346
31625,16327
31624,16308
31624,15442
31625,15423
31627,15403
31632,15385
31639,15367
31647,15349
31657,15332
31668,15317
31681,15303
31696,15290
31711,15278
31728,15268
31745,15260
31763,15253
31782,15249
31801,15246
31820,15245
33474,15245
33493,15246
" /> 
<polyline style="fill-rule:evenodd;"
points="80643,36954
80661,36957
80679,36961
80697,36967
80714,36976
80730,36985
80746,36996
80759,37009
80772,37023
80783,37038
80793,37054
80801,37071
80807,37089
80812,37107
80815,37126
80816,37145
80816,37529
80815,37547
80812,37566
80807,37584
80801,37602
80793,37619
80783,37635
80772,37650
80759,37664
80746,37677
80730,37688
80714,37698
80697,37706
80679,37712
80661,37717
80643,37720
80624,37721
79905,37721
79886,37720
79868,37717
79850,37712
79832,37706
79815,37698
79799,37688
79783,37677
79770,37664
79757,37650
79746,37635
79736,37619
79728,37602
79722,37584
79717,37566
79714,37547
79713,37529
79713,37145
79714,37126
79717,37107
79722,37089
79728,37071
79736,37054
79746,37038
79757,37023
79770,37009
79783,36996
79799,36985
79815,36976
79832,36967
79850,36961
79868,36957
79886,36954
79905,36953
80624,36953
80643,36954
" /> 
<polyline style="fill-rule:evenodd;"
points="80643,38430
80661,38433
80679,38438
80697,38444
80714,38452
80730,38462
80746,38473
80759,38485
80772,38499
80783,38515
80793,38531
80801,38548
80807,38565
80812,38584
80815,38602
80816,38621
80816,39005
80815,39024
80812,39042
80807,39061
80801,39078
80793,39096
80783,39112
80772,39127
80759,39141
80746,39153
80730,39165
80714,39174
80697,39182
80679,39189
80661,39193
80643,39196
80624,39197
79905,39197
79886,39196
79868,39193
79850,39189
79832,39182
79815,39174
79799,39165
79783,39153
79770,39141
79757,39127
79746,39112
79736,39096
79728,39078
79722,39061
79717,39042
79714,39024
79713,39005
79713,38621
79714,38602
79717,38584
79722,38565
79728,38548
79736,38531
79746,38515
79757,38499
79770,38485
79783,38473
79799,38462
79815,38452
79832,38444
79850,38438
79868,38433
79886,38430
79905,38429
80624,38429
80643,38430
" /> 
</g> 
</svg>
