<?xml version="1.0" standalone="no"?>
 <!DOCTYPE svg PUBLIC "-//W3C//DTD SVG 1.1//EN" 
 "http://www.w3.org/Graphics/SVG/1.1/DTD/svg11.dtd"> 
<svg xmlns="http://www.w3.org/2000/svg" version="1.1" 
    width="29.7002cm" height="21.0007cm" viewBox="0 0 116930 82680 ">
<title>SVG Picture created as ThermocoupleLogger-B_SilkS.svg date 2019/04/07 21:39:20 </title>
  <desc>Picture generated by PCBNEW </desc>
<g style="fill:#000000; fill-opacity:1;stroke:#000000; stroke-opacity:1;
stroke-linecap:round; stroke-linejoin:round; "
 transform="translate(0 0) scale(1 1)">
</g>
<g style="fill:#000000; fill-opacity:0.0; 
stroke:#000000; stroke-width:-0.000393701; stroke-opacity:1; 
stroke-linecap:round; stroke-linejoin:round;">
</g>
<g style="fill:#000000; fill-opacity:0.0; 
stroke:#000000; stroke-width:39.3701; stroke-opacity:1; 
stroke-linecap:round; stroke-linejoin:round;">
<path d="M7.87402 28901.6 A1338.58 1338.58 0.0 0 0 1346.46 30240.2 " />
<path d="M35000 0
L35000 30250
" />
<path d="M0 28059
L0 28059
" />
<path d="M0 0
L35000 0
" />
<path d="M1346 30240
L35000 30250
" />
<path d="M0 0
L7 28901
" />
<path d="M0 500
L0 500
" />
</g>
<g style="fill:#000000; fill-opacity:0.0; 
stroke:#000000; stroke-width:47.2441; stroke-opacity:1; 
stroke-linecap:round; stroke-linejoin:round;">
<path d="M11593.2 22917.8 A4525.89 4525.89 0.0 0 0 2756.3 21522 " />
<path d="M2461.02 21718.9 A314.961 314.961 0.0 0 0 2756.99 21511.7 " />
<path d="M2756.3 24278 A4525.89 4525.89 0.0 0 0 11593.2 22882.2 " />
<path d="M2756.99 24288.3 A314.961 314.961 0.0 0 0 2461.02 24081.1 " />
<path d="M216 24081
L2461 24081
" />
<path d="M216 21718
L216 24081
" />
<path d="M216 21718
L2461 21718
" />
<g >
</g>
<g >
</g>
<g >
</g>
<g >
</g>
<g >
</g>
<g >
</g>
<g >
</g>
<g >
</g>
<g >
</g>
<g >
</g>
<g >
</g>
<g >
</g>
<g >
</g>
<g >
</g>
<g >
</g>
<g >
</g>
<g >
</g>
<g >
</g>
<g >
</g>
<g >
</g>
<g >
</g>
<g >
</g>
<g >
</g>
<g >
</g>
<g >
</g>
<g >
</g>
<g >
</g>
<g >
</g>
<g >
</g>
<g >
</g>
<g >
</g>
<g >
</g>
<g >
</g>
<g >
</g>
<g >
</g>
<g >
</g>
<g >
</g>
<g >
</g>
<g >
</g>
<g >
</g>
<g >
</g>
<g >
</g>
<g >
</g>
<g >
</g>
<g >
</g>
<g >
</g>
<g >
</g>
<g >
</g>
<g >
</g>
<g >
</g>
<g >
</g>
<g >
</g>
<g >
</g>
<g >
</g>
<g >
</g>
<g >
</g>
<g >
</g>
<g >
</g>
<g >
</g>
<g >
</g>
<g >
</g>
<g >
</g>
<g >
</g>
<g >
</g>
<g >
</g>
<g >
</g>
<g >
</g>
<g >
</g>
<g >
</g>
<g >
</g>
<g >
</g>
<g >
</g>
<g >
</g>
<g >
</g>
<g >
</g>
</g>
<g style="fill:#000000; fill-opacity:0.0; 
stroke:#000000; stroke-width:59.0551; stroke-opacity:1; 
stroke-linecap:round; stroke-linejoin:round;">
<path d="M1392 24564
L1336 24583
L1317 24602
L1298 24639
L1298 24696
L1317 24733
L1336 24752
L1373 24771
L1523 24771
L1523 24377
L1392 24377
L1354 24396
L1336 24414
L1317 24452
L1317 24489
L1336 24527
L1354 24546
L1392 24564
L1523 24564
" />
<path d="M1186 24377
L961 24377
" />
<path d="M1073 24771
L1073 24377
" />
<path d="M848 24414
L829 24396
L792 24377
L698 24377
L661 24396
L642 24414
L623 24452
L623 24489
L642 24546
L867 24771
L623 24771
" />
<path d="M2390 22942
L1940 22942
" />
<path d="M2165 23167
L2165 22717
" />
<g >
</g>
</g> 
</svg>
