<?xml version="1.0" standalone="no"?>
 <!DOCTYPE svg PUBLIC "-//W3C//DTD SVG 1.1//EN" 
 "http://www.w3.org/Graphics/SVG/1.1/DTD/svg11.dtd"> 
<svg xmlns="http://www.w3.org/2000/svg" version="1.1" 
    width="29.7002cm" height="21.0007cm" viewBox="0 0 116930 82680 ">
<title>SVG Picture created as ThermocoupleLogger-F_Paste.svg date 2019/04/07 21:39:20 </title>
  <desc>Picture generated by PCBNEW </desc>
<g style="fill:#000000; fill-opacity:1;stroke:#000000; stroke-opacity:1;
stroke-linecap:round; stroke-linejoin:round; "
 transform="translate(0 0) scale(1 1)">
</g>
<g style="fill:#000000; fill-opacity:0.0; 
stroke:#000000; stroke-width:-0.000393701; stroke-opacity:1; 
stroke-linecap:round; stroke-linejoin:round;">
</g>
<g style="fill:#000000; fill-opacity:0.0; 
stroke:#000000; stroke-width:39.3701; stroke-opacity:1; 
stroke-linecap:round; stroke-linejoin:round;">
<path d="M7.87402 28901.6 A1338.58 1338.58 0.0 0 0 1346.46 30240.2 " />
<path d="M35000 0
L35000 30250
" />
<path d="M0 28059
L0 28059
" />
<path d="M0 0
L35000 0
" />
<path d="M1346 30240
L35000 30250
" />
<path d="M0 0
L7 28901
" />
<path d="M0 500
L0 500
" />
<g >
</g>
<g >
</g>
<g >
</g>
<g >
</g>
<g >
</g>
<g >
</g>
<g >
</g>
<g >
</g>
<g >
</g>
<g >
</g>
<g >
</g>
<g >
</g>
<g >
</g>
<g >
</g>
<g style="fill:#000000; fill-opacity:0.0; 
stroke:#000000; stroke-width:0; stroke-opacity:1; 
stroke-linecap:round; stroke-linejoin:round;">
</g>
<g style="fill:#000000; fill-opacity:1.0; 
stroke:#000000; stroke-width:0; stroke-opacity:1; 
stroke-linecap:round; stroke-linejoin:round;">
<path style="fill:#000000; fill-opacity:1.0; 
stroke:#000000; stroke-width:0; stroke-opacity:1; 
stroke-linecap:round; stroke-linejoin:round;fill-rule:evenodd;"
d="M 6293,13181
7159,13181
7159,13418
6293,13418
6293,13181
Z" /> 
<path style="fill:#000000; fill-opacity:1.0; 
stroke:#000000; stroke-width:0; stroke-opacity:1; 
stroke-linecap:round; stroke-linejoin:round;fill-rule:evenodd;"
d="M 8340,13181
9206,13181
9206,13418
8340,13418
8340,13181
Z" /> 
<path style="fill:#000000; fill-opacity:1.0; 
stroke:#000000; stroke-width:0; stroke-opacity:1; 
stroke-linecap:round; stroke-linejoin:round;fill-rule:evenodd;"
d="M 6293,12681
7159,12681
7159,12918
6293,12918
6293,12681
Z" /> 
<path style="fill:#000000; fill-opacity:1.0; 
stroke:#000000; stroke-width:0; stroke-opacity:1; 
stroke-linecap:round; stroke-linejoin:round;fill-rule:evenodd;"
d="M 8340,12681
9206,12681
9206,12918
8340,12918
8340,12681
Z" /> 
<path style="fill:#000000; fill-opacity:1.0; 
stroke:#000000; stroke-width:0; stroke-opacity:1; 
stroke-linecap:round; stroke-linejoin:round;fill-rule:evenodd;"
d="M 6293,12181
7159,12181
7159,12418
6293,12418
6293,12181
Z" /> 
<path style="fill:#000000; fill-opacity:1.0; 
stroke:#000000; stroke-width:0; stroke-opacity:1; 
stroke-linecap:round; stroke-linejoin:round;fill-rule:evenodd;"
d="M 8340,12181
9206,12181
9206,12418
8340,12418
8340,12181
Z" /> 
<path style="fill:#000000; fill-opacity:1.0; 
stroke:#000000; stroke-width:0; stroke-opacity:1; 
stroke-linecap:round; stroke-linejoin:round;fill-rule:evenodd;"
d="M 6293,11681
7159,11681
7159,11918
6293,11918
6293,11681
Z" /> 
<path style="fill:#000000; fill-opacity:1.0; 
stroke:#000000; stroke-width:0; stroke-opacity:1; 
stroke-linecap:round; stroke-linejoin:round;fill-rule:evenodd;"
d="M 8340,11681
9206,11681
9206,11918
8340,11918
8340,11681
Z" /> 
</g>
<g >
<path style="fill:#000000; fill-opacity:1.0; 
stroke:#000000; stroke-width:0; stroke-opacity:1; 
stroke-linecap:round; stroke-linejoin:round;fill-rule:evenodd;"
d="M 8176,7342
8185,7343
8195,7345
8204,7349
8212,7353
8221,7358
8228,7364
8236,7370
8242,7377
8248,7385
8253,7393
8257,7402
8260,7411
8263,7420
8264,7430
8264,7440
8264,8335
8264,8345
8263,8355
8260,8364
8257,8373
8253,8382
8248,8390
8242,8398
8236,8405
8228,8411
8221,8417
8212,8422
8204,8426
8195,8430
8185,8432
8176,8433
8166,8434
7733,8434
7723,8433
7714,8432
7704,8430
7695,8426
7687,8422
7678,8417
7671,8411
7663,8405
7657,8398
7651,8390
7646,8382
7642,8373
7639,8364
7636,8355
7635,8345
7635,8335
7635,7440
7635,7430
7636,7420
7639,7411
7642,7402
7646,7393
7651,7385
7657,7377
7663,7370
7671,7364
7678,7358
7687,7353
7695,7349
7704,7345
7714,7343
7723,7342
7733,7341
8166,7341
8176,7342
Z" /> 
<path style="fill:#000000; fill-opacity:1.0; 
stroke:#000000; stroke-width:0; stroke-opacity:1; 
stroke-linecap:round; stroke-linejoin:round;fill-rule:evenodd;"
d="M 8176,8966
8185,8967
8195,8969
8204,8973
8212,8977
8221,8982
8228,8988
8236,8994
8242,9001
8248,9009
8253,9017
8257,9026
8260,9035
8263,9044
8264,9054
8264,9064
8264,9959
8264,9969
8263,9979
8260,9988
8257,9997
8253,10006
8248,10014
8242,10022
8236,10029
8228,10035
8221,10041
8212,10046
8204,10050
8195,10054
8185,10056
8176,10057
8166,10058
7733,10058
7723,10057
7714,10056
7704,10054
7695,10050
7687,10046
7678,10041
7671,10035
7663,10029
7657,10022
7651,10014
7646,10006
7642,9997
7639,9988
7636,9979
7635,9969
7635,9959
7635,9064
7635,9054
7636,9044
7639,9035
7642,9026
7646,9017
7651,9009
7657,9001
7663,8994
7671,8988
7678,8982
7687,8977
7695,8973
7704,8969
7714,8967
7723,8966
7733,8965
8166,8965
8176,8966
Z" /> 
</g>
<g >
</g>
<g >
<path style="fill:#000000; fill-opacity:1.0; 
stroke:#000000; stroke-width:0; stroke-opacity:1; 
stroke-linecap:round; stroke-linejoin:round;fill-rule:evenodd;"
d="M 18620,5685
18620,6314
18345,6314
18345,5685
18620,5685
Z" /> 
<path style="fill:#000000; fill-opacity:1.0; 
stroke:#000000; stroke-width:0; stroke-opacity:1; 
stroke-linecap:round; stroke-linejoin:round;fill-rule:evenodd;"
d="M 18187,5685
18187,6314
17912,6314
17912,5685
18187,5685
Z" /> 
<path style="fill:#000000; fill-opacity:1.0; 
stroke:#000000; stroke-width:0; stroke-opacity:1; 
stroke-linecap:round; stroke-linejoin:round;fill-rule:evenodd;"
d="M 17754,5685
17754,6314
17479,6314
17479,5685
17754,5685
Z" /> 
<path style="fill:#000000; fill-opacity:1.0; 
stroke:#000000; stroke-width:0; stroke-opacity:1; 
stroke-linecap:round; stroke-linejoin:round;fill-rule:evenodd;"
d="M 19053,5685
19053,6314
18778,6314
18778,5685
19053,5685
Z" /> 
<path style="fill:#000000; fill-opacity:1.0; 
stroke:#000000; stroke-width:0; stroke-opacity:1; 
stroke-linecap:round; stroke-linejoin:round;fill-rule:evenodd;"
d="M 19487,5685
19487,6314
19211,6314
19211,5685
19487,5685
Z" /> 
<path style="fill:#000000; fill-opacity:1.0; 
stroke:#000000; stroke-width:0; stroke-opacity:1; 
stroke-linecap:round; stroke-linejoin:round;fill-rule:evenodd;"
d="M 19920,5685
19920,6314
19644,6314
19644,5685
19920,5685
Z" /> 
<path style="fill:#000000; fill-opacity:1.0; 
stroke:#000000; stroke-width:0; stroke-opacity:1; 
stroke-linecap:round; stroke-linejoin:round;fill-rule:evenodd;"
d="M 20786,5685
20786,6314
20510,6314
20510,5685
20786,5685
Z" /> 
<path style="fill:#000000; fill-opacity:1.0; 
stroke:#000000; stroke-width:0; stroke-opacity:1; 
stroke-linecap:round; stroke-linejoin:round;fill-rule:evenodd;"
d="M 20353,5685
20353,6314
20077,6314
20077,5685
20353,5685
Z" /> 
<path style="fill:#000000; fill-opacity:1.0; 
stroke:#000000; stroke-width:0; stroke-opacity:1; 
stroke-linecap:round; stroke-linejoin:round;fill-rule:evenodd;"
d="M 21219,5685
21219,6314
20943,6314
20943,5685
21219,5685
Z" /> 
<path style="fill:#000000; fill-opacity:1.0; 
stroke:#000000; stroke-width:0; stroke-opacity:1; 
stroke-linecap:round; stroke-linejoin:round;fill-rule:evenodd;"
d="M 21770,5527
21770,6078
21298,6078
21298,5527
21770,5527
Z" /> 
<path style="fill:#000000; fill-opacity:1.0; 
stroke:#000000; stroke-width:0; stroke-opacity:1; 
stroke-linecap:round; stroke-linejoin:round;fill-rule:evenodd;"
d="M 16101,5527
16101,6078
15471,6078
15471,5527
16101,5527
Z" /> 
<path style="fill:#000000; fill-opacity:1.0; 
stroke:#000000; stroke-width:0; stroke-opacity:1; 
stroke-linecap:round; stroke-linejoin:round;fill-rule:evenodd;"
d="M 21770,1590
21770,2456
21298,2456
21298,1590
21770,1590
Z" /> 
<path style="fill:#000000; fill-opacity:1.0; 
stroke:#000000; stroke-width:0; stroke-opacity:1; 
stroke-linecap:round; stroke-linejoin:round;fill-rule:evenodd;"
d="M 15668,1590
15668,2456
15195,2456
15195,1590
15668,1590
Z" /> 
</g>
<g >
</g>
<g >
</g>
<g >
</g>
<g >
</g>
<g >
</g>
<g >
</g>
<g >
<path style="fill:#000000; fill-opacity:1.0; 
stroke:#000000; stroke-width:0; stroke-opacity:1; 
stroke-linecap:round; stroke-linejoin:round;fill-rule:evenodd;"
d="M 5798,7753
4301,7753
4301,6966
5798,6966
5798,7753
Z" /> 
<path style="fill:#000000; fill-opacity:1.0; 
stroke:#000000; stroke-width:0; stroke-opacity:1; 
stroke-linecap:round; stroke-linejoin:round;fill-rule:evenodd;"
d="M 5345,10233
4754,10233
4754,9446
5345,9446
5345,10233
Z" /> 
<path style="fill:#000000; fill-opacity:1.0; 
stroke:#000000; stroke-width:0; stroke-opacity:1; 
stroke-linecap:round; stroke-linejoin:round;fill-rule:evenodd;"
d="M 6250,10233
5660,10233
5660,9446
6250,9446
6250,10233
Z" /> 
<path style="fill:#000000; fill-opacity:1.0; 
stroke:#000000; stroke-width:0; stroke-opacity:1; 
stroke-linecap:round; stroke-linejoin:round;fill-rule:evenodd;"
d="M 4439,10233
3849,10233
3849,9446
4439,9446
4439,10233
Z" /> 
</g>
<g >
</g>
<g >
<path style="fill:#000000; fill-opacity:1.0; 
stroke:#000000; stroke-width:0; stroke-opacity:1; 
stroke-linecap:round; stroke-linejoin:round;fill-rule:evenodd;"
d="M 8624,2572
8624,2827
8144,2827
8144,2572
8624,2572
Z" /> 
<path style="fill:#000000; fill-opacity:1.0; 
stroke:#000000; stroke-width:0; stroke-opacity:1; 
stroke-linecap:round; stroke-linejoin:round;fill-rule:evenodd;"
d="M 9655,2198
9655,2453
9175,2453
9175,2198
9655,2198
Z" /> 
<path style="fill:#000000; fill-opacity:1.0; 
stroke:#000000; stroke-width:0; stroke-opacity:1; 
stroke-linecap:round; stroke-linejoin:round;fill-rule:evenodd;"
d="M 9655,2946
9655,3201
9175,3201
9175,2946
9655,2946
Z" /> 
</g>
<g >
</g>
<g >
</g>
<g >
</g>
<g >
<path style="fill:#000000; fill-opacity:1.0; 
stroke:#000000; stroke-width:0; stroke-opacity:1; 
stroke-linecap:round; stroke-linejoin:round;fill-rule:evenodd;"
d="M 6888,4473
6711,4473
6711,4237
6888,4237
6888,4473
Z" /> 
<path style="fill:#000000; fill-opacity:1.0; 
stroke:#000000; stroke-width:0; stroke-opacity:1; 
stroke-linecap:round; stroke-linejoin:round;fill-rule:evenodd;"
d="M 6888,5300
6711,5300
6711,5063
6888,5063
6888,5300
Z" /> 
</g>
<g >
<path style="fill:#000000; fill-opacity:1.0; 
stroke:#000000; stroke-width:0; stroke-opacity:1; 
stroke-linecap:round; stroke-linejoin:round;fill-rule:evenodd;"
d="M 25486,6627
25013,6627
25013,6273
25486,6273
25486,6627
Z" /> 
<path style="fill:#000000; fill-opacity:1.0; 
stroke:#000000; stroke-width:0; stroke-opacity:1; 
stroke-linecap:round; stroke-linejoin:round;fill-rule:evenodd;"
d="M 25486,7926
25013,7926
25013,7572
25486,7572
25486,7926
Z" /> 
</g>
<g >
<path style="fill:#000000; fill-opacity:1.0; 
stroke:#000000; stroke-width:0; stroke-opacity:1; 
stroke-linecap:round; stroke-linejoin:round;fill-rule:evenodd;"
d="M 24036,6627
23563,6627
23563,6273
24036,6273
24036,6627
Z" /> 
<path style="fill:#000000; fill-opacity:1.0; 
stroke:#000000; stroke-width:0; stroke-opacity:1; 
stroke-linecap:round; stroke-linejoin:round;fill-rule:evenodd;"
d="M 24036,7926
23563,7926
23563,7572
24036,7572
24036,7926
Z" /> 
</g>
<g >
<path style="fill:#000000; fill-opacity:1.0; 
stroke:#000000; stroke-width:0; stroke-opacity:1; 
stroke-linecap:round; stroke-linejoin:round;fill-rule:evenodd;"
d="M 22676,6627
22203,6627
22203,6273
22676,6273
22676,6627
Z" /> 
<path style="fill:#000000; fill-opacity:1.0; 
stroke:#000000; stroke-width:0; stroke-opacity:1; 
stroke-linecap:round; stroke-linejoin:round;fill-rule:evenodd;"
d="M 22676,7926
22203,7926
22203,7572
22676,7572
22676,7926
Z" /> 
</g>
<g >
<path style="fill:#000000; fill-opacity:1.0; 
stroke:#000000; stroke-width:0; stroke-opacity:1; 
stroke-linecap:round; stroke-linejoin:round;fill-rule:evenodd;"
d="M 6024,15074
6033,15076
6042,15078
6051,15081
6060,15085
6068,15090
6075,15096
6082,15102
6089,15109
6094,15117
6099,15125
6103,15133
6106,15142
6109,15151
6110,15160
6111,15170
6111,15529
6110,15539
6109,15548
6106,15557
6103,15566
6099,15574
6094,15582
6089,15590
6082,15597
6075,15603
6068,15609
6060,15614
6051,15618
6042,15621
6033,15623
6024,15625
6015,15625
5823,15625
5813,15625
5804,15623
5795,15621
5786,15618
5777,15614
5769,15609
5762,15603
5755,15597
5748,15590
5743,15582
5738,15574
5734,15566
5731,15557
5729,15548
5727,15539
5727,15529
5727,15170
5727,15160
5729,15151
5731,15142
5734,15133
5738,15125
5743,15117
5748,15109
5755,15102
5762,15096
5769,15090
5777,15085
5786,15081
5795,15078
5804,15076
5813,15074
5823,15074
6015,15074
6024,15074
Z" /> 
<path style="fill:#000000; fill-opacity:1.0; 
stroke:#000000; stroke-width:0; stroke-opacity:1; 
stroke-linecap:round; stroke-linejoin:round;fill-rule:evenodd;"
d="M 5286,15074
5295,15076
5304,15078
5313,15081
5322,15085
5330,15090
5337,15096
5344,15102
5351,15109
5356,15117
5361,15125
5365,15133
5368,15142
5370,15151
5372,15160
5372,15170
5372,15529
5372,15539
5370,15548
5368,15557
5365,15566
5361,15574
5356,15582
5351,15590
5344,15597
5337,15603
5330,15609
5322,15614
5313,15618
5304,15621
5295,15623
5286,15625
5276,15625
5084,15625
5075,15625
5066,15623
5057,15621
5048,15618
5039,15614
5031,15609
5024,15603
5017,15597
5010,15590
5005,15582
5000,15574
4996,15566
4993,15557
4990,15548
4989,15539
4988,15529
4988,15170
4989,15160
4990,15151
4993,15142
4996,15133
5000,15125
5005,15117
5010,15109
5017,15102
5024,15096
5031,15090
5039,15085
5048,15081
5057,15078
5066,15076
5075,15074
5084,15074
5276,15074
5286,15074
Z" /> 
</g>
<g >
<path style="fill:#000000; fill-opacity:1.0; 
stroke:#000000; stroke-width:0; stroke-opacity:1; 
stroke-linecap:round; stroke-linejoin:round;fill-rule:evenodd;"
d="M 6024,14199
6033,14201
6042,14203
6051,14206
6060,14210
6068,14215
6075,14221
6082,14227
6089,14234
6094,14242
6099,14250
6103,14258
6106,14267
6109,14276
6110,14285
6111,14295
6111,14654
6110,14664
6109,14673
6106,14682
6103,14691
6099,14699
6094,14707
6089,14715
6082,14722
6075,14728
6068,14734
6060,14739
6051,14743
6042,14746
6033,14748
6024,14750
6015,14750
5823,14750
5813,14750
5804,14748
5795,14746
5786,14743
5777,14739
5769,14734
5762,14728
5755,14722
5748,14715
5743,14707
5738,14699
5734,14691
5731,14682
5729,14673
5727,14664
5727,14654
5727,14295
5727,14285
5729,14276
5731,14267
5734,14258
5738,14250
5743,14242
5748,14234
5755,14227
5762,14221
5769,14215
5777,14210
5786,14206
5795,14203
5804,14201
5813,14199
5823,14199
6015,14199
6024,14199
Z" /> 
<path style="fill:#000000; fill-opacity:1.0; 
stroke:#000000; stroke-width:0; stroke-opacity:1; 
stroke-linecap:round; stroke-linejoin:round;fill-rule:evenodd;"
d="M 5286,14199
5295,14201
5304,14203
5313,14206
5322,14210
5330,14215
5337,14221
5344,14227
5351,14234
5356,14242
5361,14250
5365,14258
5368,14267
5370,14276
5372,14285
5372,14295
5372,14654
5372,14664
5370,14673
5368,14682
5365,14691
5361,14699
5356,14707
5351,14715
5344,14722
5337,14728
5330,14734
5322,14739
5313,14743
5304,14746
5295,14748
5286,14750
5276,14750
5084,14750
5075,14750
5066,14748
5057,14746
5048,14743
5039,14739
5031,14734
5024,14728
5017,14722
5010,14715
5005,14707
5000,14699
4996,14691
4993,14682
4990,14673
4989,14664
4988,14654
4988,14295
4989,14285
4990,14276
4993,14267
4996,14258
5000,14250
5005,14242
5010,14234
5017,14227
5024,14221
5031,14215
5039,14210
5048,14206
5057,14203
5066,14201
5075,14199
5084,14199
5276,14199
5286,14199
Z" /> 
</g>
<g >
<path style="fill:#000000; fill-opacity:1.0; 
stroke:#000000; stroke-width:0; stroke-opacity:1; 
stroke-linecap:round; stroke-linejoin:round;fill-rule:evenodd;"
d="M 14039,15577
14048,15579
14057,15581
14066,15584
14074,15588
14082,15593
14090,15598
14097,15605
14103,15612
14109,15619
14114,15627
14118,15636
14121,15645
14123,15654
14125,15663
14125,15673
14125,15865
14125,15874
14123,15883
14121,15892
14118,15901
14114,15910
14109,15918
14103,15925
14097,15932
14090,15939
14082,15944
14074,15949
14066,15953
14057,15956
14048,15959
14039,15960
14029,15961
13670,15961
13660,15960
13651,15959
13642,15956
13633,15953
13625,15949
13617,15944
13609,15939
13602,15932
13596,15925
13590,15918
13585,15910
13581,15901
13578,15892
13576,15883
13574,15874
13574,15865
13574,15673
13574,15663
13576,15654
13578,15645
13581,15636
13585,15627
13590,15619
13596,15612
13602,15605
13609,15598
13617,15593
13625,15588
13633,15584
13642,15581
13651,15579
13660,15577
13670,15577
14029,15577
14039,15577
Z" /> 
<path style="fill:#000000; fill-opacity:1.0; 
stroke:#000000; stroke-width:0; stroke-opacity:1; 
stroke-linecap:round; stroke-linejoin:round;fill-rule:evenodd;"
d="M 14039,14839
14048,14840
14057,14843
14066,14846
14074,14850
14082,14855
14090,14860
14097,14867
14103,14874
14109,14881
14114,14889
14118,14898
14121,14907
14123,14916
14125,14925
14125,14934
14125,15126
14125,15136
14123,15145
14121,15154
14118,15163
14114,15172
14109,15180
14103,15187
14097,15194
14090,15201
14082,15206
14074,15211
14066,15215
14057,15218
14048,15220
14039,15222
14029,15222
13670,15222
13660,15222
13651,15220
13642,15218
13633,15215
13625,15211
13617,15206
13609,15201
13602,15194
13596,15187
13590,15180
13585,15172
13581,15163
13578,15154
13576,15145
13574,15136
13574,15126
13574,14934
13574,14925
13576,14916
13578,14907
13581,14898
13585,14889
13590,14881
13596,14874
13602,14867
13609,14860
13617,14855
13625,14850
13633,14846
13642,14843
13651,14840
13660,14839
13670,14838
14029,14838
14039,14839
Z" /> 
</g>
<g >
<path style="fill:#000000; fill-opacity:1.0; 
stroke:#000000; stroke-width:0; stroke-opacity:1; 
stroke-linecap:round; stroke-linejoin:round;fill-rule:evenodd;"
d="M 7589,2139
7598,2140
7607,2143
7616,2146
7624,2150
7632,2155
7640,2160
7647,2167
7653,2174
7659,2181
7664,2189
7668,2198
7671,2207
7673,2216
7675,2225
7675,2234
7675,2426
7675,2436
7673,2445
7671,2454
7668,2463
7664,2472
7659,2480
7653,2487
7647,2494
7640,2501
7632,2506
7624,2511
7616,2515
7607,2518
7598,2520
7589,2522
7579,2522
7220,2522
7210,2522
7201,2520
7192,2518
7183,2515
7175,2511
7167,2506
7159,2501
7152,2494
7146,2487
7140,2480
7135,2472
7131,2463
7128,2454
7126,2445
7124,2436
7124,2426
7124,2234
7124,2225
7126,2216
7128,2207
7131,2198
7135,2189
7140,2181
7146,2174
7152,2167
7159,2160
7167,2155
7175,2150
7183,2146
7192,2143
7201,2140
7210,2139
7220,2138
7579,2138
7589,2139
Z" /> 
<path style="fill:#000000; fill-opacity:1.0; 
stroke:#000000; stroke-width:0; stroke-opacity:1; 
stroke-linecap:round; stroke-linejoin:round;fill-rule:evenodd;"
d="M 7589,2877
7598,2879
7607,2881
7616,2884
7624,2888
7632,2893
7640,2898
7647,2905
7653,2912
7659,2919
7664,2927
7668,2936
7671,2945
7673,2954
7675,2963
7675,2973
7675,3165
7675,3174
7673,3183
7671,3192
7668,3201
7664,3210
7659,3218
7653,3225
7647,3232
7640,3239
7632,3244
7624,3249
7616,3253
7607,3256
7598,3259
7589,3260
7579,3261
7220,3261
7210,3260
7201,3259
7192,3256
7183,3253
7175,3249
7167,3244
7159,3239
7152,3232
7146,3225
7140,3218
7135,3210
7131,3201
7128,3192
7126,3183
7124,3174
7124,3165
7124,2973
7124,2963
7126,2954
7128,2945
7131,2936
7135,2927
7140,2919
7146,2912
7152,2905
7159,2898
7167,2893
7175,2888
7183,2884
7192,2881
7201,2879
7210,2877
7220,2877
7579,2877
7589,2877
Z" /> 
</g>
<g >
<path style="fill:#000000; fill-opacity:1.0; 
stroke:#000000; stroke-width:0; stroke-opacity:1; 
stroke-linecap:round; stroke-linejoin:round;fill-rule:evenodd;"
d="M 21739,8689
21748,8690
21757,8693
21766,8696
21774,8700
21782,8705
21790,8710
21797,8717
21803,8724
21809,8731
21814,8739
21818,8748
21821,8757
21823,8766
21825,8775
21825,8784
21825,8976
21825,8986
21823,8995
21821,9004
21818,9013
21814,9022
21809,9030
21803,9037
21797,9044
21790,9051
21782,9056
21774,9061
21766,9065
21757,9068
21748,9070
21739,9072
21729,9072
21370,9072
21360,9072
21351,9070
21342,9068
21333,9065
21325,9061
21317,9056
21309,9051
21302,9044
21296,9037
21290,9030
21285,9022
21281,9013
21278,9004
21276,8995
21274,8986
21274,8976
21274,8784
21274,8775
21276,8766
21278,8757
21281,8748
21285,8739
21290,8731
21296,8724
21302,8717
21309,8710
21317,8705
21325,8700
21333,8696
21342,8693
21351,8690
21360,8689
21370,8688
21729,8688
21739,8689
Z" /> 
<path style="fill:#000000; fill-opacity:1.0; 
stroke:#000000; stroke-width:0; stroke-opacity:1; 
stroke-linecap:round; stroke-linejoin:round;fill-rule:evenodd;"
d="M 21739,9427
21748,9429
21757,9431
21766,9434
21774,9438
21782,9443
21790,9448
21797,9455
21803,9462
21809,9469
21814,9477
21818,9486
21821,9495
21823,9504
21825,9513
21825,9523
21825,9715
21825,9724
21823,9733
21821,9742
21818,9751
21814,9760
21809,9768
21803,9775
21797,9782
21790,9789
21782,9794
21774,9799
21766,9803
21757,9806
21748,9809
21739,9810
21729,9811
21370,9811
21360,9810
21351,9809
21342,9806
21333,9803
21325,9799
21317,9794
21309,9789
21302,9782
21296,9775
21290,9768
21285,9760
21281,9751
21278,9742
21276,9733
21274,9724
21274,9715
21274,9523
21274,9513
21276,9504
21278,9495
21281,9486
21285,9477
21290,9469
21296,9462
21302,9455
21309,9448
21317,9443
21325,9438
21333,9434
21342,9431
21351,9429
21360,9427
21370,9427
21729,9427
21739,9427
Z" /> 
</g>
<g >
<path style="fill:#000000; fill-opacity:1.0; 
stroke:#000000; stroke-width:0; stroke-opacity:1; 
stroke-linecap:round; stroke-linejoin:round;fill-rule:evenodd;"
d="M 19889,6689
19898,6690
19907,6693
19916,6696
19924,6700
19932,6705
19940,6710
19947,6717
19953,6724
19959,6731
19964,6739
19968,6748
19971,6757
19973,6766
19975,6775
19975,6784
19975,6976
19975,6986
19973,6995
19971,7004
19968,7013
19964,7022
19959,7030
19953,7037
19947,7044
19940,7051
19932,7056
19924,7061
19916,7065
19907,7068
19898,7070
19889,7072
19879,7072
19520,7072
19510,7072
19501,7070
19492,7068
19483,7065
19475,7061
19467,7056
19459,7051
19452,7044
19446,7037
19440,7030
19435,7022
19431,7013
19428,7004
19426,6995
19424,6986
19424,6976
19424,6784
19424,6775
19426,6766
19428,6757
19431,6748
19435,6739
19440,6731
19446,6724
19452,6717
19459,6710
19467,6705
19475,6700
19483,6696
19492,6693
19501,6690
19510,6689
19520,6688
19879,6688
19889,6689
Z" /> 
<path style="fill:#000000; fill-opacity:1.0; 
stroke:#000000; stroke-width:0; stroke-opacity:1; 
stroke-linecap:round; stroke-linejoin:round;fill-rule:evenodd;"
d="M 19889,7427
19898,7429
19907,7431
19916,7434
19924,7438
19932,7443
19940,7448
19947,7455
19953,7462
19959,7469
19964,7477
19968,7486
19971,7495
19973,7504
19975,7513
19975,7523
19975,7715
19975,7724
19973,7733
19971,7742
19968,7751
19964,7760
19959,7768
19953,7775
19947,7782
19940,7789
19932,7794
19924,7799
19916,7803
19907,7806
19898,7809
19889,7810
19879,7811
19520,7811
19510,7810
19501,7809
19492,7806
19483,7803
19475,7799
19467,7794
19459,7789
19452,7782
19446,7775
19440,7768
19435,7760
19431,7751
19428,7742
19426,7733
19424,7724
19424,7715
19424,7523
19424,7513
19426,7504
19428,7495
19431,7486
19435,7477
19440,7469
19446,7462
19452,7455
19459,7448
19467,7443
19475,7438
19483,7434
19492,7431
19501,7429
19510,7427
19520,7427
19879,7427
19889,7427
Z" /> 
</g>
<g >
<path style="fill:#000000; fill-opacity:1.0; 
stroke:#000000; stroke-width:0; stroke-opacity:1; 
stroke-linecap:round; stroke-linejoin:round;fill-rule:evenodd;"
d="M 22939,8689
22948,8690
22957,8693
22966,8696
22974,8700
22982,8705
22990,8710
22997,8717
23003,8724
23009,8731
23014,8739
23018,8748
23021,8757
23023,8766
23025,8775
23025,8784
23025,8976
23025,8986
23023,8995
23021,9004
23018,9013
23014,9022
23009,9030
23003,9037
22997,9044
22990,9051
22982,9056
22974,9061
22966,9065
22957,9068
22948,9070
22939,9072
22929,9072
22570,9072
22560,9072
22551,9070
22542,9068
22533,9065
22525,9061
22517,9056
22509,9051
22502,9044
22496,9037
22490,9030
22485,9022
22481,9013
22478,9004
22476,8995
22474,8986
22474,8976
22474,8784
22474,8775
22476,8766
22478,8757
22481,8748
22485,8739
22490,8731
22496,8724
22502,8717
22509,8710
22517,8705
22525,8700
22533,8696
22542,8693
22551,8690
22560,8689
22570,8688
22929,8688
22939,8689
Z" /> 
<path style="fill:#000000; fill-opacity:1.0; 
stroke:#000000; stroke-width:0; stroke-opacity:1; 
stroke-linecap:round; stroke-linejoin:round;fill-rule:evenodd;"
d="M 22939,9427
22948,9429
22957,9431
22966,9434
22974,9438
22982,9443
22990,9448
22997,9455
23003,9462
23009,9469
23014,9477
23018,9486
23021,9495
23023,9504
23025,9513
23025,9523
23025,9715
23025,9724
23023,9733
23021,9742
23018,9751
23014,9760
23009,9768
23003,9775
22997,9782
22990,9789
22982,9794
22974,9799
22966,9803
22957,9806
22948,9809
22939,9810
22929,9811
22570,9811
22560,9810
22551,9809
22542,9806
22533,9803
22525,9799
22517,9794
22509,9789
22502,9782
22496,9775
22490,9768
22485,9760
22481,9751
22478,9742
22476,9733
22474,9724
22474,9715
22474,9523
22474,9513
22476,9504
22478,9495
22481,9486
22485,9477
22490,9469
22496,9462
22502,9455
22509,9448
22517,9443
22525,9438
22533,9434
22542,9431
22551,9429
22560,9427
22570,9427
22929,9427
22939,9427
Z" /> 
</g>
<g >
<path style="fill:#000000; fill-opacity:1.0; 
stroke:#000000; stroke-width:0; stroke-opacity:1; 
stroke-linecap:round; stroke-linejoin:round;fill-rule:evenodd;"
d="M 3724,11724
3733,11726
3742,11728
3751,11731
3760,11735
3768,11740
3775,11746
3782,11752
3789,11759
3794,11767
3799,11775
3803,11783
3806,11792
3809,11801
3810,11810
3811,11820
3811,12179
3810,12189
3809,12198
3806,12207
3803,12216
3799,12224
3794,12232
3789,12240
3782,12247
3775,12253
3768,12259
3760,12264
3751,12268
3742,12271
3733,12273
3724,12275
3715,12275
3523,12275
3513,12275
3504,12273
3495,12271
3486,12268
3477,12264
3469,12259
3462,12253
3455,12247
3448,12240
3443,12232
3438,12224
3434,12216
3431,12207
3429,12198
3427,12189
3427,12179
3427,11820
3427,11810
3429,11801
3431,11792
3434,11783
3438,11775
3443,11767
3448,11759
3455,11752
3462,11746
3469,11740
3477,11735
3486,11731
3495,11728
3504,11726
3513,11724
3523,11724
3715,11724
3724,11724
Z" /> 
<path style="fill:#000000; fill-opacity:1.0; 
stroke:#000000; stroke-width:0; stroke-opacity:1; 
stroke-linecap:round; stroke-linejoin:round;fill-rule:evenodd;"
d="M 2986,11724
2995,11726
3004,11728
3013,11731
3022,11735
3030,11740
3037,11746
3044,11752
3051,11759
3056,11767
3061,11775
3065,11783
3068,11792
3070,11801
3072,11810
3072,11820
3072,12179
3072,12189
3070,12198
3068,12207
3065,12216
3061,12224
3056,12232
3051,12240
3044,12247
3037,12253
3030,12259
3022,12264
3013,12268
3004,12271
2995,12273
2986,12275
2976,12275
2784,12275
2775,12275
2766,12273
2757,12271
2748,12268
2739,12264
2731,12259
2724,12253
2717,12247
2710,12240
2705,12232
2700,12224
2696,12216
2693,12207
2690,12198
2689,12189
2688,12179
2688,11820
2689,11810
2690,11801
2693,11792
2696,11783
2700,11775
2705,11767
2710,11759
2717,11752
2724,11746
2731,11740
2739,11735
2748,11731
2757,11728
2766,11726
2775,11724
2784,11724
2976,11724
2986,11724
Z" /> 
</g>
<g >
<path style="fill:#000000; fill-opacity:1.0; 
stroke:#000000; stroke-width:0; stroke-opacity:1; 
stroke-linecap:round; stroke-linejoin:round;fill-rule:evenodd;"
d="M 19289,25689
19298,25690
19307,25693
19316,25696
19324,25700
19332,25705
19340,25710
19347,25717
19353,25724
19359,25731
19364,25739
19368,25748
19371,25757
19373,25766
19375,25775
19375,25784
19375,25976
19375,25986
19373,25995
19371,26004
19368,26013
19364,26022
19359,26030
19353,26037
19347,26044
19340,26051
19332,26056
19324,26061
19316,26065
19307,26068
19298,26070
19289,26072
19279,26072
18920,26072
18910,26072
18901,26070
18892,26068
18883,26065
18875,26061
18867,26056
18859,26051
18852,26044
18846,26037
18840,26030
18835,26022
18831,26013
18828,26004
18826,25995
18824,25986
18824,25976
18824,25784
18824,25775
18826,25766
18828,25757
18831,25748
18835,25739
18840,25731
18846,25724
18852,25717
18859,25710
18867,25705
18875,25700
18883,25696
18892,25693
18901,25690
18910,25689
18920,25688
19279,25688
19289,25689
Z" /> 
<path style="fill:#000000; fill-opacity:1.0; 
stroke:#000000; stroke-width:0; stroke-opacity:1; 
stroke-linecap:round; stroke-linejoin:round;fill-rule:evenodd;"
d="M 19289,26427
19298,26429
19307,26431
19316,26434
19324,26438
19332,26443
19340,26448
19347,26455
19353,26462
19359,26469
19364,26477
19368,26486
19371,26495
19373,26504
19375,26513
19375,26523
19375,26715
19375,26724
19373,26733
19371,26742
19368,26751
19364,26760
19359,26768
19353,26775
19347,26782
19340,26789
19332,26794
19324,26799
19316,26803
19307,26806
19298,26809
19289,26810
19279,26811
18920,26811
18910,26810
18901,26809
18892,26806
18883,26803
18875,26799
18867,26794
18859,26789
18852,26782
18846,26775
18840,26768
18835,26760
18831,26751
18828,26742
18826,26733
18824,26724
18824,26715
18824,26523
18824,26513
18826,26504
18828,26495
18831,26486
18835,26477
18840,26469
18846,26462
18852,26455
18859,26448
18867,26443
18875,26438
18883,26434
18892,26431
18901,26429
18910,26427
18920,26427
19279,26427
19289,26427
Z" /> 
</g>
<g >
<path style="fill:#000000; fill-opacity:1.0; 
stroke:#000000; stroke-width:0; stroke-opacity:1; 
stroke-linecap:round; stroke-linejoin:round;fill-rule:evenodd;"
d="M 25289,26427
25298,26429
25307,26431
25316,26434
25324,26438
25332,26443
25340,26448
25347,26455
25353,26462
25359,26469
25364,26477
25368,26486
25371,26495
25373,26504
25375,26513
25375,26523
25375,26715
25375,26724
25373,26733
25371,26742
25368,26751
25364,26760
25359,26768
25353,26775
25347,26782
25340,26789
25332,26794
25324,26799
25316,26803
25307,26806
25298,26809
25289,26810
25279,26811
24920,26811
24910,26810
24901,26809
24892,26806
24883,26803
24875,26799
24867,26794
24859,26789
24852,26782
24846,26775
24840,26768
24835,26760
24831,26751
24828,26742
24826,26733
24824,26724
24824,26715
24824,26523
24824,26513
24826,26504
24828,26495
24831,26486
24835,26477
24840,26469
24846,26462
24852,26455
24859,26448
24867,26443
24875,26438
24883,26434
24892,26431
24901,26429
24910,26427
24920,26427
25279,26427
25289,26427
Z" /> 
<path style="fill:#000000; fill-opacity:1.0; 
stroke:#000000; stroke-width:0; stroke-opacity:1; 
stroke-linecap:round; stroke-linejoin:round;fill-rule:evenodd;"
d="M 25289,25689
25298,25690
25307,25693
25316,25696
25324,25700
25332,25705
25340,25710
25347,25717
25353,25724
25359,25731
25364,25739
25368,25748
25371,25757
25373,25766
25375,25775
25375,25784
25375,25976
25375,25986
25373,25995
25371,26004
25368,26013
25364,26022
25359,26030
25353,26037
25347,26044
25340,26051
25332,26056
25324,26061
25316,26065
25307,26068
25298,26070
25289,26072
25279,26072
24920,26072
24910,26072
24901,26070
24892,26068
24883,26065
24875,26061
24867,26056
24859,26051
24852,26044
24846,26037
24840,26030
24835,26022
24831,26013
24828,26004
24826,25995
24824,25986
24824,25976
24824,25784
24824,25775
24826,25766
24828,25757
24831,25748
24835,25739
24840,25731
24846,25724
24852,25717
24859,25710
24867,25705
24875,25700
24883,25696
24892,25693
24901,25690
24910,25689
24920,25688
25279,25688
25289,25689
Z" /> 
</g>
<g >
<path style="fill:#000000; fill-opacity:1.0; 
stroke:#000000; stroke-width:0; stroke-opacity:1; 
stroke-linecap:round; stroke-linejoin:round;fill-rule:evenodd;"
d="M 5289,25669
5298,25670
5307,25673
5316,25676
5324,25680
5332,25685
5340,25690
5347,25697
5353,25704
5359,25711
5364,25719
5368,25728
5371,25737
5373,25746
5375,25755
5375,25764
5375,25956
5375,25966
5373,25975
5371,25984
5368,25993
5364,26002
5359,26010
5353,26017
5347,26024
5340,26031
5332,26036
5324,26041
5316,26045
5307,26048
5298,26050
5289,26052
5279,26052
4920,26052
4910,26052
4901,26050
4892,26048
4883,26045
4875,26041
4867,26036
4859,26031
4852,26024
4846,26017
4840,26010
4835,26002
4831,25993
4828,25984
4826,25975
4824,25966
4824,25956
4824,25764
4824,25755
4826,25746
4828,25737
4831,25728
4835,25719
4840,25711
4846,25704
4852,25697
4859,25690
4867,25685
4875,25680
4883,25676
4892,25673
4901,25670
4910,25669
4920,25668
5279,25668
5289,25669
Z" /> 
<path style="fill:#000000; fill-opacity:1.0; 
stroke:#000000; stroke-width:0; stroke-opacity:1; 
stroke-linecap:round; stroke-linejoin:round;fill-rule:evenodd;"
d="M 5289,26407
5298,26409
5307,26411
5316,26414
5324,26418
5332,26423
5340,26428
5347,26435
5353,26442
5359,26449
5364,26457
5368,26466
5371,26475
5373,26484
5375,26493
5375,26503
5375,26695
5375,26704
5373,26713
5371,26722
5368,26731
5364,26740
5359,26748
5353,26755
5347,26762
5340,26769
5332,26774
5324,26779
5316,26783
5307,26786
5298,26789
5289,26790
5279,26791
4920,26791
4910,26790
4901,26789
4892,26786
4883,26783
4875,26779
4867,26774
4859,26769
4852,26762
4846,26755
4840,26748
4835,26740
4831,26731
4828,26722
4826,26713
4824,26704
4824,26695
4824,26503
4824,26493
4826,26484
4828,26475
4831,26466
4835,26457
4840,26449
4846,26442
4852,26435
4859,26428
4867,26423
4875,26418
4883,26414
4892,26411
4901,26409
4910,26407
4920,26407
5279,26407
5289,26407
Z" /> 
</g>
<g >
<path style="fill:#000000; fill-opacity:1.0; 
stroke:#000000; stroke-width:0; stroke-opacity:1; 
stroke-linecap:round; stroke-linejoin:round;fill-rule:evenodd;"
d="M 4309,26407
4318,26409
4327,26411
4336,26414
4344,26418
4352,26423
4360,26428
4367,26435
4373,26442
4379,26449
4384,26457
4388,26466
4391,26475
4393,26484
4395,26493
4395,26503
4395,26695
4395,26704
4393,26713
4391,26722
4388,26731
4384,26740
4379,26748
4373,26755
4367,26762
4360,26769
4352,26774
4344,26779
4336,26783
4327,26786
4318,26789
4309,26790
4299,26791
3940,26791
3930,26790
3921,26789
3912,26786
3903,26783
3895,26779
3887,26774
3879,26769
3872,26762
3866,26755
3860,26748
3855,26740
3851,26731
3848,26722
3846,26713
3844,26704
3844,26695
3844,26503
3844,26493
3846,26484
3848,26475
3851,26466
3855,26457
3860,26449
3866,26442
3872,26435
3879,26428
3887,26423
3895,26418
3903,26414
3912,26411
3921,26409
3930,26407
3940,26407
4299,26407
4309,26407
Z" /> 
<path style="fill:#000000; fill-opacity:1.0; 
stroke:#000000; stroke-width:0; stroke-opacity:1; 
stroke-linecap:round; stroke-linejoin:round;fill-rule:evenodd;"
d="M 4309,25669
4318,25670
4327,25673
4336,25676
4344,25680
4352,25685
4360,25690
4367,25697
4373,25704
4379,25711
4384,25719
4388,25728
4391,25737
4393,25746
4395,25755
4395,25764
4395,25956
4395,25966
4393,25975
4391,25984
4388,25993
4384,26002
4379,26010
4373,26017
4367,26024
4360,26031
4352,26036
4344,26041
4336,26045
4327,26048
4318,26050
4309,26052
4299,26052
3940,26052
3930,26052
3921,26050
3912,26048
3903,26045
3895,26041
3887,26036
3879,26031
3872,26024
3866,26017
3860,26010
3855,26002
3851,25993
3848,25984
3846,25975
3844,25966
3844,25956
3844,25764
3844,25755
3846,25746
3848,25737
3851,25728
3855,25719
3860,25711
3866,25704
3872,25697
3879,25690
3887,25685
3895,25680
3903,25676
3912,25673
3921,25670
3930,25669
3940,25668
4299,25668
4309,25669
Z" /> 
</g>
<g >
<path style="fill:#000000; fill-opacity:1.0; 
stroke:#000000; stroke-width:0; stroke-opacity:1; 
stroke-linecap:round; stroke-linejoin:round;fill-rule:evenodd;"
d="M 7789,26427
7798,26429
7807,26431
7816,26434
7824,26438
7832,26443
7840,26448
7847,26455
7853,26462
7859,26469
7864,26477
7868,26486
7871,26495
7873,26504
7875,26513
7875,26523
7875,26715
7875,26724
7873,26733
7871,26742
7868,26751
7864,26760
7859,26768
7853,26775
7847,26782
7840,26789
7832,26794
7824,26799
7816,26803
7807,26806
7798,26809
7789,26810
7779,26811
7420,26811
7410,26810
7401,26809
7392,26806
7383,26803
7375,26799
7367,26794
7359,26789
7352,26782
7346,26775
7340,26768
7335,26760
7331,26751
7328,26742
7326,26733
7324,26724
7324,26715
7324,26523
7324,26513
7326,26504
7328,26495
7331,26486
7335,26477
7340,26469
7346,26462
7352,26455
7359,26448
7367,26443
7375,26438
7383,26434
7392,26431
7401,26429
7410,26427
7420,26427
7779,26427
7789,26427
Z" /> 
<path style="fill:#000000; fill-opacity:1.0; 
stroke:#000000; stroke-width:0; stroke-opacity:1; 
stroke-linecap:round; stroke-linejoin:round;fill-rule:evenodd;"
d="M 7789,25689
7798,25690
7807,25693
7816,25696
7824,25700
7832,25705
7840,25710
7847,25717
7853,25724
7859,25731
7864,25739
7868,25748
7871,25757
7873,25766
7875,25775
7875,25784
7875,25976
7875,25986
7873,25995
7871,26004
7868,26013
7864,26022
7859,26030
7853,26037
7847,26044
7840,26051
7832,26056
7824,26061
7816,26065
7807,26068
7798,26070
7789,26072
7779,26072
7420,26072
7410,26072
7401,26070
7392,26068
7383,26065
7375,26061
7367,26056
7359,26051
7352,26044
7346,26037
7340,26030
7335,26022
7331,26013
7328,26004
7326,25995
7324,25986
7324,25976
7324,25784
7324,25775
7326,25766
7328,25757
7331,25748
7335,25739
7340,25731
7346,25724
7352,25717
7359,25710
7367,25705
7375,25700
7383,25696
7392,25693
7401,25690
7410,25689
7420,25688
7779,25688
7789,25689
Z" /> 
</g>
<g >
<path style="fill:#000000; fill-opacity:1.0; 
stroke:#000000; stroke-width:0; stroke-opacity:1; 
stroke-linecap:round; stroke-linejoin:round;fill-rule:evenodd;"
d="M 11289,26427
11298,26429
11307,26431
11316,26434
11324,26438
11332,26443
11340,26448
11347,26455
11353,26462
11359,26469
11364,26477
11368,26486
11371,26495
11373,26504
11375,26513
11375,26523
11375,26715
11375,26724
11373,26733
11371,26742
11368,26751
11364,26760
11359,26768
11353,26775
11347,26782
11340,26789
11332,26794
11324,26799
11316,26803
11307,26806
11298,26809
11289,26810
11279,26811
10920,26811
10910,26810
10901,26809
10892,26806
10883,26803
10875,26799
10867,26794
10859,26789
10852,26782
10846,26775
10840,26768
10835,26760
10831,26751
10828,26742
10826,26733
10824,26724
10824,26715
10824,26523
10824,26513
10826,26504
10828,26495
10831,26486
10835,26477
10840,26469
10846,26462
10852,26455
10859,26448
10867,26443
10875,26438
10883,26434
10892,26431
10901,26429
10910,26427
10920,26427
11279,26427
11289,26427
Z" /> 
<path style="fill:#000000; fill-opacity:1.0; 
stroke:#000000; stroke-width:0; stroke-opacity:1; 
stroke-linecap:round; stroke-linejoin:round;fill-rule:evenodd;"
d="M 11289,25689
11298,25690
11307,25693
11316,25696
11324,25700
11332,25705
11340,25710
11347,25717
11353,25724
11359,25731
11364,25739
11368,25748
11371,25757
11373,25766
11375,25775
11375,25784
11375,25976
11375,25986
11373,25995
11371,26004
11368,26013
11364,26022
11359,26030
11353,26037
11347,26044
11340,26051
11332,26056
11324,26061
11316,26065
11307,26068
11298,26070
11289,26072
11279,26072
10920,26072
10910,26072
10901,26070
10892,26068
10883,26065
10875,26061
10867,26056
10859,26051
10852,26044
10846,26037
10840,26030
10835,26022
10831,26013
10828,26004
10826,25995
10824,25986
10824,25976
10824,25784
10824,25775
10826,25766
10828,25757
10831,25748
10835,25739
10840,25731
10846,25724
10852,25717
10859,25710
10867,25705
10875,25700
10883,25696
10892,25693
10901,25690
10910,25689
10920,25688
11279,25688
11289,25689
Z" /> 
</g>
<g >
<path style="fill:#000000; fill-opacity:1.0; 
stroke:#000000; stroke-width:0; stroke-opacity:1; 
stroke-linecap:round; stroke-linejoin:round;fill-rule:evenodd;"
d="M 14789,26427
14798,26429
14807,26431
14816,26434
14824,26438
14832,26443
14840,26448
14847,26455
14853,26462
14859,26469
14864,26477
14868,26486
14871,26495
14873,26504
14875,26513
14875,26523
14875,26715
14875,26724
14873,26733
14871,26742
14868,26751
14864,26760
14859,26768
14853,26775
14847,26782
14840,26789
14832,26794
14824,26799
14816,26803
14807,26806
14798,26809
14789,26810
14779,26811
14420,26811
14410,26810
14401,26809
14392,26806
14383,26803
14375,26799
14367,26794
14359,26789
14352,26782
14346,26775
14340,26768
14335,26760
14331,26751
14328,26742
14326,26733
14324,26724
14324,26715
14324,26523
14324,26513
14326,26504
14328,26495
14331,26486
14335,26477
14340,26469
14346,26462
14352,26455
14359,26448
14367,26443
14375,26438
14383,26434
14392,26431
14401,26429
14410,26427
14420,26427
14779,26427
14789,26427
Z" /> 
<path style="fill:#000000; fill-opacity:1.0; 
stroke:#000000; stroke-width:0; stroke-opacity:1; 
stroke-linecap:round; stroke-linejoin:round;fill-rule:evenodd;"
d="M 14789,25689
14798,25690
14807,25693
14816,25696
14824,25700
14832,25705
14840,25710
14847,25717
14853,25724
14859,25731
14864,25739
14868,25748
14871,25757
14873,25766
14875,25775
14875,25784
14875,25976
14875,25986
14873,25995
14871,26004
14868,26013
14864,26022
14859,26030
14853,26037
14847,26044
14840,26051
14832,26056
14824,26061
14816,26065
14807,26068
14798,26070
14789,26072
14779,26072
14420,26072
14410,26072
14401,26070
14392,26068
14383,26065
14375,26061
14367,26056
14359,26051
14352,26044
14346,26037
14340,26030
14335,26022
14331,26013
14328,26004
14326,25995
14324,25986
14324,25976
14324,25784
14324,25775
14326,25766
14328,25757
14331,25748
14335,25739
14340,25731
14346,25724
14352,25717
14359,25710
14367,25705
14375,25700
14383,25696
14392,25693
14401,25690
14410,25689
14420,25688
14779,25688
14789,25689
Z" /> 
</g>
<g >
<path style="fill:#000000; fill-opacity:1.0; 
stroke:#000000; stroke-width:0; stroke-opacity:1; 
stroke-linecap:round; stroke-linejoin:round;fill-rule:evenodd;"
d="M 18289,26427
18298,26429
18307,26431
18316,26434
18324,26438
18332,26443
18340,26448
18347,26455
18353,26462
18359,26469
18364,26477
18368,26486
18371,26495
18373,26504
18375,26513
18375,26523
18375,26715
18375,26724
18373,26733
18371,26742
18368,26751
18364,26760
18359,26768
18353,26775
18347,26782
18340,26789
18332,26794
18324,26799
18316,26803
18307,26806
18298,26809
18289,26810
18279,26811
17920,26811
17910,26810
17901,26809
17892,26806
17883,26803
17875,26799
17867,26794
17859,26789
17852,26782
17846,26775
17840,26768
17835,26760
17831,26751
17828,26742
17826,26733
17824,26724
17824,26715
17824,26523
17824,26513
17826,26504
17828,26495
17831,26486
17835,26477
17840,26469
17846,26462
17852,26455
17859,26448
17867,26443
17875,26438
17883,26434
17892,26431
17901,26429
17910,26427
17920,26427
18279,26427
18289,26427
Z" /> 
<path style="fill:#000000; fill-opacity:1.0; 
stroke:#000000; stroke-width:0; stroke-opacity:1; 
stroke-linecap:round; stroke-linejoin:round;fill-rule:evenodd;"
d="M 18289,25689
18298,25690
18307,25693
18316,25696
18324,25700
18332,25705
18340,25710
18347,25717
18353,25724
18359,25731
18364,25739
18368,25748
18371,25757
18373,25766
18375,25775
18375,25784
18375,25976
18375,25986
18373,25995
18371,26004
18368,26013
18364,26022
18359,26030
18353,26037
18347,26044
18340,26051
18332,26056
18324,26061
18316,26065
18307,26068
18298,26070
18289,26072
18279,26072
17920,26072
17910,26072
17901,26070
17892,26068
17883,26065
17875,26061
17867,26056
17859,26051
17852,26044
17846,26037
17840,26030
17835,26022
17831,26013
17828,26004
17826,25995
17824,25986
17824,25976
17824,25784
17824,25775
17826,25766
17828,25757
17831,25748
17835,25739
17840,25731
17846,25724
17852,25717
17859,25710
17867,25705
17875,25700
17883,25696
17892,25693
17901,25690
17910,25689
17920,25688
18279,25688
18289,25689
Z" /> 
</g>
<g >
<path style="fill:#000000; fill-opacity:1.0; 
stroke:#000000; stroke-width:0; stroke-opacity:1; 
stroke-linecap:round; stroke-linejoin:round;fill-rule:evenodd;"
d="M 21789,26427
21798,26429
21807,26431
21816,26434
21824,26438
21832,26443
21840,26448
21847,26455
21853,26462
21859,26469
21864,26477
21868,26486
21871,26495
21873,26504
21875,26513
21875,26523
21875,26715
21875,26724
21873,26733
21871,26742
21868,26751
21864,26760
21859,26768
21853,26775
21847,26782
21840,26789
21832,26794
21824,26799
21816,26803
21807,26806
21798,26809
21789,26810
21779,26811
21420,26811
21410,26810
21401,26809
21392,26806
21383,26803
21375,26799
21367,26794
21359,26789
21352,26782
21346,26775
21340,26768
21335,26760
21331,26751
21328,26742
21326,26733
21324,26724
21324,26715
21324,26523
21324,26513
21326,26504
21328,26495
21331,26486
21335,26477
21340,26469
21346,26462
21352,26455
21359,26448
21367,26443
21375,26438
21383,26434
21392,26431
21401,26429
21410,26427
21420,26427
21779,26427
21789,26427
Z" /> 
<path style="fill:#000000; fill-opacity:1.0; 
stroke:#000000; stroke-width:0; stroke-opacity:1; 
stroke-linecap:round; stroke-linejoin:round;fill-rule:evenodd;"
d="M 21789,25689
21798,25690
21807,25693
21816,25696
21824,25700
21832,25705
21840,25710
21847,25717
21853,25724
21859,25731
21864,25739
21868,25748
21871,25757
21873,25766
21875,25775
21875,25784
21875,25976
21875,25986
21873,25995
21871,26004
21868,26013
21864,26022
21859,26030
21853,26037
21847,26044
21840,26051
21832,26056
21824,26061
21816,26065
21807,26068
21798,26070
21789,26072
21779,26072
21420,26072
21410,26072
21401,26070
21392,26068
21383,26065
21375,26061
21367,26056
21359,26051
21352,26044
21346,26037
21340,26030
21335,26022
21331,26013
21328,26004
21326,25995
21324,25986
21324,25976
21324,25784
21324,25775
21326,25766
21328,25757
21331,25748
21335,25739
21340,25731
21346,25724
21352,25717
21359,25710
21367,25705
21375,25700
21383,25696
21392,25693
21401,25690
21410,25689
21420,25688
21779,25688
21789,25689
Z" /> 
</g>
<g >
<path style="fill:#000000; fill-opacity:1.0; 
stroke:#000000; stroke-width:0; stroke-opacity:1; 
stroke-linecap:round; stroke-linejoin:round;fill-rule:evenodd;"
d="M 28789,26427
28798,26429
28807,26431
28816,26434
28824,26438
28832,26443
28840,26448
28847,26455
28853,26462
28859,26469
28864,26477
28868,26486
28871,26495
28873,26504
28875,26513
28875,26523
28875,26715
28875,26724
28873,26733
28871,26742
28868,26751
28864,26760
28859,26768
28853,26775
28847,26782
28840,26789
28832,26794
28824,26799
28816,26803
28807,26806
28798,26809
28789,26810
28779,26811
28420,26811
28410,26810
28401,26809
28392,26806
28383,26803
28375,26799
28367,26794
28359,26789
28352,26782
28346,26775
28340,26768
28335,26760
28331,26751
28328,26742
28326,26733
28324,26724
28324,26715
28324,26523
28324,26513
28326,26504
28328,26495
28331,26486
28335,26477
28340,26469
28346,26462
28352,26455
28359,26448
28367,26443
28375,26438
28383,26434
28392,26431
28401,26429
28410,26427
28420,26427
28779,26427
28789,26427
Z" /> 
<path style="fill:#000000; fill-opacity:1.0; 
stroke:#000000; stroke-width:0; stroke-opacity:1; 
stroke-linecap:round; stroke-linejoin:round;fill-rule:evenodd;"
d="M 28789,25689
28798,25690
28807,25693
28816,25696
28824,25700
28832,25705
28840,25710
28847,25717
28853,25724
28859,25731
28864,25739
28868,25748
28871,25757
28873,25766
28875,25775
28875,25784
28875,25976
28875,25986
28873,25995
28871,26004
28868,26013
28864,26022
28859,26030
28853,26037
28847,26044
28840,26051
28832,26056
28824,26061
28816,26065
28807,26068
28798,26070
28789,26072
28779,26072
28420,26072
28410,26072
28401,26070
28392,26068
28383,26065
28375,26061
28367,26056
28359,26051
28352,26044
28346,26037
28340,26030
28335,26022
28331,26013
28328,26004
28326,25995
28324,25986
28324,25976
28324,25784
28324,25775
28326,25766
28328,25757
28331,25748
28335,25739
28340,25731
28346,25724
28352,25717
28359,25710
28367,25705
28375,25700
28383,25696
28392,25693
28401,25690
28410,25689
28420,25688
28779,25688
28789,25689
Z" /> 
</g>
<g >
<path style="fill:#000000; fill-opacity:1.0; 
stroke:#000000; stroke-width:0; stroke-opacity:1; 
stroke-linecap:round; stroke-linejoin:round;fill-rule:evenodd;"
d="M 8789,25689
8798,25690
8807,25693
8816,25696
8824,25700
8832,25705
8840,25710
8847,25717
8853,25724
8859,25731
8864,25739
8868,25748
8871,25757
8873,25766
8875,25775
8875,25784
8875,25976
8875,25986
8873,25995
8871,26004
8868,26013
8864,26022
8859,26030
8853,26037
8847,26044
8840,26051
8832,26056
8824,26061
8816,26065
8807,26068
8798,26070
8789,26072
8779,26072
8420,26072
8410,26072
8401,26070
8392,26068
8383,26065
8375,26061
8367,26056
8359,26051
8352,26044
8346,26037
8340,26030
8335,26022
8331,26013
8328,26004
8326,25995
8324,25986
8324,25976
8324,25784
8324,25775
8326,25766
8328,25757
8331,25748
8335,25739
8340,25731
8346,25724
8352,25717
8359,25710
8367,25705
8375,25700
8383,25696
8392,25693
8401,25690
8410,25689
8420,25688
8779,25688
8789,25689
Z" /> 
<path style="fill:#000000; fill-opacity:1.0; 
stroke:#000000; stroke-width:0; stroke-opacity:1; 
stroke-linecap:round; stroke-linejoin:round;fill-rule:evenodd;"
d="M 8789,26427
8798,26429
8807,26431
8816,26434
8824,26438
8832,26443
8840,26448
8847,26455
8853,26462
8859,26469
8864,26477
8868,26486
8871,26495
8873,26504
8875,26513
8875,26523
8875,26715
8875,26724
8873,26733
8871,26742
8868,26751
8864,26760
8859,26768
8853,26775
8847,26782
8840,26789
8832,26794
8824,26799
8816,26803
8807,26806
8798,26809
8789,26810
8779,26811
8420,26811
8410,26810
8401,26809
8392,26806
8383,26803
8375,26799
8367,26794
8359,26789
8352,26782
8346,26775
8340,26768
8335,26760
8331,26751
8328,26742
8326,26733
8324,26724
8324,26715
8324,26523
8324,26513
8326,26504
8328,26495
8331,26486
8335,26477
8340,26469
8346,26462
8352,26455
8359,26448
8367,26443
8375,26438
8383,26434
8392,26431
8401,26429
8410,26427
8420,26427
8779,26427
8789,26427
Z" /> 
</g>
<g >
<path style="fill:#000000; fill-opacity:1.0; 
stroke:#000000; stroke-width:0; stroke-opacity:1; 
stroke-linecap:round; stroke-linejoin:round;fill-rule:evenodd;"
d="M 12289,25689
12298,25690
12307,25693
12316,25696
12324,25700
12332,25705
12340,25710
12347,25717
12353,25724
12359,25731
12364,25739
12368,25748
12371,25757
12373,25766
12375,25775
12375,25784
12375,25976
12375,25986
12373,25995
12371,26004
12368,26013
12364,26022
12359,26030
12353,26037
12347,26044
12340,26051
12332,26056
12324,26061
12316,26065
12307,26068
12298,26070
12289,26072
12279,26072
11920,26072
11910,26072
11901,26070
11892,26068
11883,26065
11875,26061
11867,26056
11859,26051
11852,26044
11846,26037
11840,26030
11835,26022
11831,26013
11828,26004
11826,25995
11824,25986
11824,25976
11824,25784
11824,25775
11826,25766
11828,25757
11831,25748
11835,25739
11840,25731
11846,25724
11852,25717
11859,25710
11867,25705
11875,25700
11883,25696
11892,25693
11901,25690
11910,25689
11920,25688
12279,25688
12289,25689
Z" /> 
<path style="fill:#000000; fill-opacity:1.0; 
stroke:#000000; stroke-width:0; stroke-opacity:1; 
stroke-linecap:round; stroke-linejoin:round;fill-rule:evenodd;"
d="M 12289,26427
12298,26429
12307,26431
12316,26434
12324,26438
12332,26443
12340,26448
12347,26455
12353,26462
12359,26469
12364,26477
12368,26486
12371,26495
12373,26504
12375,26513
12375,26523
12375,26715
12375,26724
12373,26733
12371,26742
12368,26751
12364,26760
12359,26768
12353,26775
12347,26782
12340,26789
12332,26794
12324,26799
12316,26803
12307,26806
12298,26809
12289,26810
12279,26811
11920,26811
11910,26810
11901,26809
11892,26806
11883,26803
11875,26799
11867,26794
11859,26789
11852,26782
11846,26775
11840,26768
11835,26760
11831,26751
11828,26742
11826,26733
11824,26724
11824,26715
11824,26523
11824,26513
11826,26504
11828,26495
11831,26486
11835,26477
11840,26469
11846,26462
11852,26455
11859,26448
11867,26443
11875,26438
11883,26434
11892,26431
11901,26429
11910,26427
11920,26427
12279,26427
12289,26427
Z" /> 
</g>
<g >
<path style="fill:#000000; fill-opacity:1.0; 
stroke:#000000; stroke-width:0; stroke-opacity:1; 
stroke-linecap:round; stroke-linejoin:round;fill-rule:evenodd;"
d="M 15789,25689
15798,25690
15807,25693
15816,25696
15824,25700
15832,25705
15840,25710
15847,25717
15853,25724
15859,25731
15864,25739
15868,25748
15871,25757
15873,25766
15875,25775
15875,25784
15875,25976
15875,25986
15873,25995
15871,26004
15868,26013
15864,26022
15859,26030
15853,26037
15847,26044
15840,26051
15832,26056
15824,26061
15816,26065
15807,26068
15798,26070
15789,26072
15779,26072
15420,26072
15410,26072
15401,26070
15392,26068
15383,26065
15375,26061
15367,26056
15359,26051
15352,26044
15346,26037
15340,26030
15335,26022
15331,26013
15328,26004
15326,25995
15324,25986
15324,25976
15324,25784
15324,25775
15326,25766
15328,25757
15331,25748
15335,25739
15340,25731
15346,25724
15352,25717
15359,25710
15367,25705
15375,25700
15383,25696
15392,25693
15401,25690
15410,25689
15420,25688
15779,25688
15789,25689
Z" /> 
<path style="fill:#000000; fill-opacity:1.0; 
stroke:#000000; stroke-width:0; stroke-opacity:1; 
stroke-linecap:round; stroke-linejoin:round;fill-rule:evenodd;"
d="M 15789,26427
15798,26429
15807,26431
15816,26434
15824,26438
15832,26443
15840,26448
15847,26455
15853,26462
15859,26469
15864,26477
15868,26486
15871,26495
15873,26504
15875,26513
15875,26523
15875,26715
15875,26724
15873,26733
15871,26742
15868,26751
15864,26760
15859,26768
15853,26775
15847,26782
15840,26789
15832,26794
15824,26799
15816,26803
15807,26806
15798,26809
15789,26810
15779,26811
15420,26811
15410,26810
15401,26809
15392,26806
15383,26803
15375,26799
15367,26794
15359,26789
15352,26782
15346,26775
15340,26768
15335,26760
15331,26751
15328,26742
15326,26733
15324,26724
15324,26715
15324,26523
15324,26513
15326,26504
15328,26495
15331,26486
15335,26477
15340,26469
15346,26462
15352,26455
15359,26448
15367,26443
15375,26438
15383,26434
15392,26431
15401,26429
15410,26427
15420,26427
15779,26427
15789,26427
Z" /> 
</g>
<g >
<path style="fill:#000000; fill-opacity:1.0; 
stroke:#000000; stroke-width:0; stroke-opacity:1; 
stroke-linecap:round; stroke-linejoin:round;fill-rule:evenodd;"
d="M 22789,25689
22798,25690
22807,25693
22816,25696
22824,25700
22832,25705
22840,25710
22847,25717
22853,25724
22859,25731
22864,25739
22868,25748
22871,25757
22873,25766
22875,25775
22875,25784
22875,25976
22875,25986
22873,25995
22871,26004
22868,26013
22864,26022
22859,26030
22853,26037
22847,26044
22840,26051
22832,26056
22824,26061
22816,26065
22807,26068
22798,26070
22789,26072
22779,26072
22420,26072
22410,26072
22401,26070
22392,26068
22383,26065
22375,26061
22367,26056
22359,26051
22352,26044
22346,26037
22340,26030
22335,26022
22331,26013
22328,26004
22326,25995
22324,25986
22324,25976
22324,25784
22324,25775
22326,25766
22328,25757
22331,25748
22335,25739
22340,25731
22346,25724
22352,25717
22359,25710
22367,25705
22375,25700
22383,25696
22392,25693
22401,25690
22410,25689
22420,25688
22779,25688
22789,25689
Z" /> 
<path style="fill:#000000; fill-opacity:1.0; 
stroke:#000000; stroke-width:0; stroke-opacity:1; 
stroke-linecap:round; stroke-linejoin:round;fill-rule:evenodd;"
d="M 22789,26427
22798,26429
22807,26431
22816,26434
22824,26438
22832,26443
22840,26448
22847,26455
22853,26462
22859,26469
22864,26477
22868,26486
22871,26495
22873,26504
22875,26513
22875,26523
22875,26715
22875,26724
22873,26733
22871,26742
22868,26751
22864,26760
22859,26768
22853,26775
22847,26782
22840,26789
22832,26794
22824,26799
22816,26803
22807,26806
22798,26809
22789,26810
22779,26811
22420,26811
22410,26810
22401,26809
22392,26806
22383,26803
22375,26799
22367,26794
22359,26789
22352,26782
22346,26775
22340,26768
22335,26760
22331,26751
22328,26742
22326,26733
22324,26724
22324,26715
22324,26523
22324,26513
22326,26504
22328,26495
22331,26486
22335,26477
22340,26469
22346,26462
22352,26455
22359,26448
22367,26443
22375,26438
22383,26434
22392,26431
22401,26429
22410,26427
22420,26427
22779,26427
22789,26427
Z" /> 
</g>
<g >
<path style="fill:#000000; fill-opacity:1.0; 
stroke:#000000; stroke-width:0; stroke-opacity:1; 
stroke-linecap:round; stroke-linejoin:round;fill-rule:evenodd;"
d="M 26289,25689
26298,25690
26307,25693
26316,25696
26324,25700
26332,25705
26340,25710
26347,25717
26353,25724
26359,25731
26364,25739
26368,25748
26371,25757
26373,25766
26375,25775
26375,25784
26375,25976
26375,25986
26373,25995
26371,26004
26368,26013
26364,26022
26359,26030
26353,26037
26347,26044
26340,26051
26332,26056
26324,26061
26316,26065
26307,26068
26298,26070
26289,26072
26279,26072
25920,26072
25910,26072
25901,26070
25892,26068
25883,26065
25875,26061
25867,26056
25859,26051
25852,26044
25846,26037
25840,26030
25835,26022
25831,26013
25828,26004
25826,25995
25824,25986
25824,25976
25824,25784
25824,25775
25826,25766
25828,25757
25831,25748
25835,25739
25840,25731
25846,25724
25852,25717
25859,25710
25867,25705
25875,25700
25883,25696
25892,25693
25901,25690
25910,25689
25920,25688
26279,25688
26289,25689
Z" /> 
<path style="fill:#000000; fill-opacity:1.0; 
stroke:#000000; stroke-width:0; stroke-opacity:1; 
stroke-linecap:round; stroke-linejoin:round;fill-rule:evenodd;"
d="M 26289,26427
26298,26429
26307,26431
26316,26434
26324,26438
26332,26443
26340,26448
26347,26455
26353,26462
26359,26469
26364,26477
26368,26486
26371,26495
26373,26504
26375,26513
26375,26523
26375,26715
26375,26724
26373,26733
26371,26742
26368,26751
26364,26760
26359,26768
26353,26775
26347,26782
26340,26789
26332,26794
26324,26799
26316,26803
26307,26806
26298,26809
26289,26810
26279,26811
25920,26811
25910,26810
25901,26809
25892,26806
25883,26803
25875,26799
25867,26794
25859,26789
25852,26782
25846,26775
25840,26768
25835,26760
25831,26751
25828,26742
25826,26733
25824,26724
25824,26715
25824,26523
25824,26513
25826,26504
25828,26495
25831,26486
25835,26477
25840,26469
25846,26462
25852,26455
25859,26448
25867,26443
25875,26438
25883,26434
25892,26431
25901,26429
25910,26427
25920,26427
26279,26427
26289,26427
Z" /> 
</g>
<g >
<path style="fill:#000000; fill-opacity:1.0; 
stroke:#000000; stroke-width:0; stroke-opacity:1; 
stroke-linecap:round; stroke-linejoin:round;fill-rule:evenodd;"
d="M 29789,25689
29798,25690
29807,25693
29816,25696
29824,25700
29832,25705
29840,25710
29847,25717
29853,25724
29859,25731
29864,25739
29868,25748
29871,25757
29873,25766
29875,25775
29875,25784
29875,25976
29875,25986
29873,25995
29871,26004
29868,26013
29864,26022
29859,26030
29853,26037
29847,26044
29840,26051
29832,26056
29824,26061
29816,26065
29807,26068
29798,26070
29789,26072
29779,26072
29420,26072
29410,26072
29401,26070
29392,26068
29383,26065
29375,26061
29367,26056
29359,26051
29352,26044
29346,26037
29340,26030
29335,26022
29331,26013
29328,26004
29326,25995
29324,25986
29324,25976
29324,25784
29324,25775
29326,25766
29328,25757
29331,25748
29335,25739
29340,25731
29346,25724
29352,25717
29359,25710
29367,25705
29375,25700
29383,25696
29392,25693
29401,25690
29410,25689
29420,25688
29779,25688
29789,25689
Z" /> 
<path style="fill:#000000; fill-opacity:1.0; 
stroke:#000000; stroke-width:0; stroke-opacity:1; 
stroke-linecap:round; stroke-linejoin:round;fill-rule:evenodd;"
d="M 29789,26427
29798,26429
29807,26431
29816,26434
29824,26438
29832,26443
29840,26448
29847,26455
29853,26462
29859,26469
29864,26477
29868,26486
29871,26495
29873,26504
29875,26513
29875,26523
29875,26715
29875,26724
29873,26733
29871,26742
29868,26751
29864,26760
29859,26768
29853,26775
29847,26782
29840,26789
29832,26794
29824,26799
29816,26803
29807,26806
29798,26809
29789,26810
29779,26811
29420,26811
29410,26810
29401,26809
29392,26806
29383,26803
29375,26799
29367,26794
29359,26789
29352,26782
29346,26775
29340,26768
29335,26760
29331,26751
29328,26742
29326,26733
29324,26724
29324,26715
29324,26523
29324,26513
29326,26504
29328,26495
29331,26486
29335,26477
29340,26469
29346,26462
29352,26455
29359,26448
29367,26443
29375,26438
29383,26434
29392,26431
29401,26429
29410,26427
29420,26427
29779,26427
29789,26427
Z" /> 
</g>
<g >
<path style="fill:#000000; fill-opacity:1.0; 
stroke:#000000; stroke-width:0; stroke-opacity:1; 
stroke-linecap:round; stroke-linejoin:round;fill-rule:evenodd;"
d="M 5074,24774
5083,24776
5092,24778
5101,24781
5110,24785
5118,24790
5125,24796
5132,24802
5139,24809
5144,24817
5149,24825
5153,24833
5156,24842
5159,24851
5160,24860
5161,24870
5161,25229
5160,25239
5159,25248
5156,25257
5153,25266
5149,25274
5144,25282
5139,25290
5132,25297
5125,25303
5118,25309
5110,25314
5101,25318
5092,25321
5083,25323
5074,25325
5065,25325
4873,25325
4863,25325
4854,25323
4845,25321
4836,25318
4827,25314
4819,25309
4812,25303
4805,25297
4798,25290
4793,25282
4788,25274
4784,25266
4781,25257
4779,25248
4777,25239
4777,25229
4777,24870
4777,24860
4779,24851
4781,24842
4784,24833
4788,24825
4793,24817
4798,24809
4805,24802
4812,24796
4819,24790
4827,24785
4836,24781
4845,24778
4854,24776
4863,24774
4873,24774
5065,24774
5074,24774
Z" /> 
<path style="fill:#000000; fill-opacity:1.0; 
stroke:#000000; stroke-width:0; stroke-opacity:1; 
stroke-linecap:round; stroke-linejoin:round;fill-rule:evenodd;"
d="M 4336,24774
4345,24776
4354,24778
4363,24781
4372,24785
4380,24790
4387,24796
4394,24802
4401,24809
4406,24817
4411,24825
4415,24833
4418,24842
4420,24851
4422,24860
4422,24870
4422,25229
4422,25239
4420,25248
4418,25257
4415,25266
4411,25274
4406,25282
4401,25290
4394,25297
4387,25303
4380,25309
4372,25314
4363,25318
4354,25321
4345,25323
4336,25325
4326,25325
4134,25325
4125,25325
4116,25323
4107,25321
4098,25318
4089,25314
4081,25309
4074,25303
4067,25297
4060,25290
4055,25282
4050,25274
4046,25266
4043,25257
4040,25248
4039,25239
4038,25229
4038,24870
4039,24860
4040,24851
4043,24842
4046,24833
4050,24825
4055,24817
4060,24809
4067,24802
4074,24796
4081,24790
4089,24785
4098,24781
4107,24778
4116,24776
4125,24774
4134,24774
4326,24774
4336,24774
Z" /> 
</g>
<g >
<path style="fill:#000000; fill-opacity:1.0; 
stroke:#000000; stroke-width:0; stroke-opacity:1; 
stroke-linecap:round; stroke-linejoin:round;fill-rule:evenodd;"
d="M 22574,24774
22583,24776
22592,24778
22601,24781
22610,24785
22618,24790
22625,24796
22632,24802
22639,24809
22644,24817
22649,24825
22653,24833
22656,24842
22659,24851
22660,24860
22661,24870
22661,25229
22660,25239
22659,25248
22656,25257
22653,25266
22649,25274
22644,25282
22639,25290
22632,25297
22625,25303
22618,25309
22610,25314
22601,25318
22592,25321
22583,25323
22574,25325
22565,25325
22373,25325
22363,25325
22354,25323
22345,25321
22336,25318
22327,25314
22319,25309
22312,25303
22305,25297
22298,25290
22293,25282
22288,25274
22284,25266
22281,25257
22279,25248
22277,25239
22277,25229
22277,24870
22277,24860
22279,24851
22281,24842
22284,24833
22288,24825
22293,24817
22298,24809
22305,24802
22312,24796
22319,24790
22327,24785
22336,24781
22345,24778
22354,24776
22363,24774
22373,24774
22565,24774
22574,24774
Z" /> 
<path style="fill:#000000; fill-opacity:1.0; 
stroke:#000000; stroke-width:0; stroke-opacity:1; 
stroke-linecap:round; stroke-linejoin:round;fill-rule:evenodd;"
d="M 21836,24774
21845,24776
21854,24778
21863,24781
21872,24785
21880,24790
21887,24796
21894,24802
21901,24809
21906,24817
21911,24825
21915,24833
21918,24842
21920,24851
21922,24860
21922,24870
21922,25229
21922,25239
21920,25248
21918,25257
21915,25266
21911,25274
21906,25282
21901,25290
21894,25297
21887,25303
21880,25309
21872,25314
21863,25318
21854,25321
21845,25323
21836,25325
21826,25325
21634,25325
21625,25325
21616,25323
21607,25321
21598,25318
21589,25314
21581,25309
21574,25303
21567,25297
21560,25290
21555,25282
21550,25274
21546,25266
21543,25257
21540,25248
21539,25239
21538,25229
21538,24870
21539,24860
21540,24851
21543,24842
21546,24833
21550,24825
21555,24817
21560,24809
21567,24802
21574,24796
21581,24790
21589,24785
21598,24781
21607,24778
21616,24776
21625,24774
21634,24774
21826,24774
21836,24774
Z" /> 
</g>
<g >
<path style="fill:#000000; fill-opacity:1.0; 
stroke:#000000; stroke-width:0; stroke-opacity:1; 
stroke-linecap:round; stroke-linejoin:round;fill-rule:evenodd;"
d="M 19074,24774
19083,24776
19092,24778
19101,24781
19110,24785
19118,24790
19125,24796
19132,24802
19139,24809
19144,24817
19149,24825
19153,24833
19156,24842
19159,24851
19160,24860
19161,24870
19161,25229
19160,25239
19159,25248
19156,25257
19153,25266
19149,25274
19144,25282
19139,25290
19132,25297
19125,25303
19118,25309
19110,25314
19101,25318
19092,25321
19083,25323
19074,25325
19065,25325
18873,25325
18863,25325
18854,25323
18845,25321
18836,25318
18827,25314
18819,25309
18812,25303
18805,25297
18798,25290
18793,25282
18788,25274
18784,25266
18781,25257
18779,25248
18777,25239
18777,25229
18777,24870
18777,24860
18779,24851
18781,24842
18784,24833
18788,24825
18793,24817
18798,24809
18805,24802
18812,24796
18819,24790
18827,24785
18836,24781
18845,24778
18854,24776
18863,24774
18873,24774
19065,24774
19074,24774
Z" /> 
<path style="fill:#000000; fill-opacity:1.0; 
stroke:#000000; stroke-width:0; stroke-opacity:1; 
stroke-linecap:round; stroke-linejoin:round;fill-rule:evenodd;"
d="M 18336,24774
18345,24776
18354,24778
18363,24781
18372,24785
18380,24790
18387,24796
18394,24802
18401,24809
18406,24817
18411,24825
18415,24833
18418,24842
18420,24851
18422,24860
18422,24870
18422,25229
18422,25239
18420,25248
18418,25257
18415,25266
18411,25274
18406,25282
18401,25290
18394,25297
18387,25303
18380,25309
18372,25314
18363,25318
18354,25321
18345,25323
18336,25325
18326,25325
18134,25325
18125,25325
18116,25323
18107,25321
18098,25318
18089,25314
18081,25309
18074,25303
18067,25297
18060,25290
18055,25282
18050,25274
18046,25266
18043,25257
18040,25248
18039,25239
18038,25229
18038,24870
18039,24860
18040,24851
18043,24842
18046,24833
18050,24825
18055,24817
18060,24809
18067,24802
18074,24796
18081,24790
18089,24785
18098,24781
18107,24778
18116,24776
18125,24774
18134,24774
18326,24774
18336,24774
Z" /> 
</g>
<g >
<path style="fill:#000000; fill-opacity:1.0; 
stroke:#000000; stroke-width:0; stroke-opacity:1; 
stroke-linecap:round; stroke-linejoin:round;fill-rule:evenodd;"
d="M 8574,24774
8583,24776
8592,24778
8601,24781
8610,24785
8618,24790
8625,24796
8632,24802
8639,24809
8644,24817
8649,24825
8653,24833
8656,24842
8659,24851
8660,24860
8661,24870
8661,25229
8660,25239
8659,25248
8656,25257
8653,25266
8649,25274
8644,25282
8639,25290
8632,25297
8625,25303
8618,25309
8610,25314
8601,25318
8592,25321
8583,25323
8574,25325
8565,25325
8373,25325
8363,25325
8354,25323
8345,25321
8336,25318
8327,25314
8319,25309
8312,25303
8305,25297
8298,25290
8293,25282
8288,25274
8284,25266
8281,25257
8279,25248
8277,25239
8277,25229
8277,24870
8277,24860
8279,24851
8281,24842
8284,24833
8288,24825
8293,24817
8298,24809
8305,24802
8312,24796
8319,24790
8327,24785
8336,24781
8345,24778
8354,24776
8363,24774
8373,24774
8565,24774
8574,24774
Z" /> 
<path style="fill:#000000; fill-opacity:1.0; 
stroke:#000000; stroke-width:0; stroke-opacity:1; 
stroke-linecap:round; stroke-linejoin:round;fill-rule:evenodd;"
d="M 7836,24774
7845,24776
7854,24778
7863,24781
7872,24785
7880,24790
7887,24796
7894,24802
7901,24809
7906,24817
7911,24825
7915,24833
7918,24842
7920,24851
7922,24860
7922,24870
7922,25229
7922,25239
7920,25248
7918,25257
7915,25266
7911,25274
7906,25282
7901,25290
7894,25297
7887,25303
7880,25309
7872,25314
7863,25318
7854,25321
7845,25323
7836,25325
7826,25325
7634,25325
7625,25325
7616,25323
7607,25321
7598,25318
7589,25314
7581,25309
7574,25303
7567,25297
7560,25290
7555,25282
7550,25274
7546,25266
7543,25257
7540,25248
7539,25239
7538,25229
7538,24870
7539,24860
7540,24851
7543,24842
7546,24833
7550,24825
7555,24817
7560,24809
7567,24802
7574,24796
7581,24790
7589,24785
7598,24781
7607,24778
7616,24776
7625,24774
7634,24774
7826,24774
7836,24774
Z" /> 
</g>
<g >
<path style="fill:#000000; fill-opacity:1.0; 
stroke:#000000; stroke-width:0; stroke-opacity:1; 
stroke-linecap:round; stroke-linejoin:round;fill-rule:evenodd;"
d="M 12074,24774
12083,24776
12092,24778
12101,24781
12110,24785
12118,24790
12125,24796
12132,24802
12139,24809
12144,24817
12149,24825
12153,24833
12156,24842
12159,24851
12160,24860
12161,24870
12161,25229
12160,25239
12159,25248
12156,25257
12153,25266
12149,25274
12144,25282
12139,25290
12132,25297
12125,25303
12118,25309
12110,25314
12101,25318
12092,25321
12083,25323
12074,25325
12065,25325
11873,25325
11863,25325
11854,25323
11845,25321
11836,25318
11827,25314
11819,25309
11812,25303
11805,25297
11798,25290
11793,25282
11788,25274
11784,25266
11781,25257
11779,25248
11777,25239
11777,25229
11777,24870
11777,24860
11779,24851
11781,24842
11784,24833
11788,24825
11793,24817
11798,24809
11805,24802
11812,24796
11819,24790
11827,24785
11836,24781
11845,24778
11854,24776
11863,24774
11873,24774
12065,24774
12074,24774
Z" /> 
<path style="fill:#000000; fill-opacity:1.0; 
stroke:#000000; stroke-width:0; stroke-opacity:1; 
stroke-linecap:round; stroke-linejoin:round;fill-rule:evenodd;"
d="M 11336,24774
11345,24776
11354,24778
11363,24781
11372,24785
11380,24790
11387,24796
11394,24802
11401,24809
11406,24817
11411,24825
11415,24833
11418,24842
11420,24851
11422,24860
11422,24870
11422,25229
11422,25239
11420,25248
11418,25257
11415,25266
11411,25274
11406,25282
11401,25290
11394,25297
11387,25303
11380,25309
11372,25314
11363,25318
11354,25321
11345,25323
11336,25325
11326,25325
11134,25325
11125,25325
11116,25323
11107,25321
11098,25318
11089,25314
11081,25309
11074,25303
11067,25297
11060,25290
11055,25282
11050,25274
11046,25266
11043,25257
11040,25248
11039,25239
11038,25229
11038,24870
11039,24860
11040,24851
11043,24842
11046,24833
11050,24825
11055,24817
11060,24809
11067,24802
11074,24796
11081,24790
11089,24785
11098,24781
11107,24778
11116,24776
11125,24774
11134,24774
11326,24774
11336,24774
Z" /> 
</g>
<g >
<path style="fill:#000000; fill-opacity:1.0; 
stroke:#000000; stroke-width:0; stroke-opacity:1; 
stroke-linecap:round; stroke-linejoin:round;fill-rule:evenodd;"
d="M 15574,24774
15583,24776
15592,24778
15601,24781
15610,24785
15618,24790
15625,24796
15632,24802
15639,24809
15644,24817
15649,24825
15653,24833
15656,24842
15659,24851
15660,24860
15661,24870
15661,25229
15660,25239
15659,25248
15656,25257
15653,25266
15649,25274
15644,25282
15639,25290
15632,25297
15625,25303
15618,25309
15610,25314
15601,25318
15592,25321
15583,25323
15574,25325
15565,25325
15373,25325
15363,25325
15354,25323
15345,25321
15336,25318
15327,25314
15319,25309
15312,25303
15305,25297
15298,25290
15293,25282
15288,25274
15284,25266
15281,25257
15279,25248
15277,25239
15277,25229
15277,24870
15277,24860
15279,24851
15281,24842
15284,24833
15288,24825
15293,24817
15298,24809
15305,24802
15312,24796
15319,24790
15327,24785
15336,24781
15345,24778
15354,24776
15363,24774
15373,24774
15565,24774
15574,24774
Z" /> 
<path style="fill:#000000; fill-opacity:1.0; 
stroke:#000000; stroke-width:0; stroke-opacity:1; 
stroke-linecap:round; stroke-linejoin:round;fill-rule:evenodd;"
d="M 14836,24774
14845,24776
14854,24778
14863,24781
14872,24785
14880,24790
14887,24796
14894,24802
14901,24809
14906,24817
14911,24825
14915,24833
14918,24842
14920,24851
14922,24860
14922,24870
14922,25229
14922,25239
14920,25248
14918,25257
14915,25266
14911,25274
14906,25282
14901,25290
14894,25297
14887,25303
14880,25309
14872,25314
14863,25318
14854,25321
14845,25323
14836,25325
14826,25325
14634,25325
14625,25325
14616,25323
14607,25321
14598,25318
14589,25314
14581,25309
14574,25303
14567,25297
14560,25290
14555,25282
14550,25274
14546,25266
14543,25257
14540,25248
14539,25239
14538,25229
14538,24870
14539,24860
14540,24851
14543,24842
14546,24833
14550,24825
14555,24817
14560,24809
14567,24802
14574,24796
14581,24790
14589,24785
14598,24781
14607,24778
14616,24776
14625,24774
14634,24774
14826,24774
14836,24774
Z" /> 
</g>
<g >
<path style="fill:#000000; fill-opacity:1.0; 
stroke:#000000; stroke-width:0; stroke-opacity:1; 
stroke-linecap:round; stroke-linejoin:round;fill-rule:evenodd;"
d="M 26074,24774
26083,24776
26092,24778
26101,24781
26110,24785
26118,24790
26125,24796
26132,24802
26139,24809
26144,24817
26149,24825
26153,24833
26156,24842
26159,24851
26160,24860
26161,24870
26161,25229
26160,25239
26159,25248
26156,25257
26153,25266
26149,25274
26144,25282
26139,25290
26132,25297
26125,25303
26118,25309
26110,25314
26101,25318
26092,25321
26083,25323
26074,25325
26065,25325
25873,25325
25863,25325
25854,25323
25845,25321
25836,25318
25827,25314
25819,25309
25812,25303
25805,25297
25798,25290
25793,25282
25788,25274
25784,25266
25781,25257
25779,25248
25777,25239
25777,25229
25777,24870
25777,24860
25779,24851
25781,24842
25784,24833
25788,24825
25793,24817
25798,24809
25805,24802
25812,24796
25819,24790
25827,24785
25836,24781
25845,24778
25854,24776
25863,24774
25873,24774
26065,24774
26074,24774
Z" /> 
<path style="fill:#000000; fill-opacity:1.0; 
stroke:#000000; stroke-width:0; stroke-opacity:1; 
stroke-linecap:round; stroke-linejoin:round;fill-rule:evenodd;"
d="M 25336,24774
25345,24776
25354,24778
25363,24781
25372,24785
25380,24790
25387,24796
25394,24802
25401,24809
25406,24817
25411,24825
25415,24833
25418,24842
25420,24851
25422,24860
25422,24870
25422,25229
25422,25239
25420,25248
25418,25257
25415,25266
25411,25274
25406,25282
25401,25290
25394,25297
25387,25303
25380,25309
25372,25314
25363,25318
25354,25321
25345,25323
25336,25325
25326,25325
25134,25325
25125,25325
25116,25323
25107,25321
25098,25318
25089,25314
25081,25309
25074,25303
25067,25297
25060,25290
25055,25282
25050,25274
25046,25266
25043,25257
25040,25248
25039,25239
25038,25229
25038,24870
25039,24860
25040,24851
25043,24842
25046,24833
25050,24825
25055,24817
25060,24809
25067,24802
25074,24796
25081,24790
25089,24785
25098,24781
25107,24778
25116,24776
25125,24774
25134,24774
25326,24774
25336,24774
Z" /> 
</g>
<g >
<path style="fill:#000000; fill-opacity:1.0; 
stroke:#000000; stroke-width:0; stroke-opacity:1; 
stroke-linecap:round; stroke-linejoin:round;fill-rule:evenodd;"
d="M 29574,24774
29583,24776
29592,24778
29601,24781
29610,24785
29618,24790
29625,24796
29632,24802
29639,24809
29644,24817
29649,24825
29653,24833
29656,24842
29659,24851
29660,24860
29661,24870
29661,25229
29660,25239
29659,25248
29656,25257
29653,25266
29649,25274
29644,25282
29639,25290
29632,25297
29625,25303
29618,25309
29610,25314
29601,25318
29592,25321
29583,25323
29574,25325
29565,25325
29373,25325
29363,25325
29354,25323
29345,25321
29336,25318
29327,25314
29319,25309
29312,25303
29305,25297
29298,25290
29293,25282
29288,25274
29284,25266
29281,25257
29279,25248
29277,25239
29277,25229
29277,24870
29277,24860
29279,24851
29281,24842
29284,24833
29288,24825
29293,24817
29298,24809
29305,24802
29312,24796
29319,24790
29327,24785
29336,24781
29345,24778
29354,24776
29363,24774
29373,24774
29565,24774
29574,24774
Z" /> 
<path style="fill:#000000; fill-opacity:1.0; 
stroke:#000000; stroke-width:0; stroke-opacity:1; 
stroke-linecap:round; stroke-linejoin:round;fill-rule:evenodd;"
d="M 28836,24774
28845,24776
28854,24778
28863,24781
28872,24785
28880,24790
28887,24796
28894,24802
28901,24809
28906,24817
28911,24825
28915,24833
28918,24842
28920,24851
28922,24860
28922,24870
28922,25229
28922,25239
28920,25248
28918,25257
28915,25266
28911,25274
28906,25282
28901,25290
28894,25297
28887,25303
28880,25309
28872,25314
28863,25318
28854,25321
28845,25323
28836,25325
28826,25325
28634,25325
28625,25325
28616,25323
28607,25321
28598,25318
28589,25314
28581,25309
28574,25303
28567,25297
28560,25290
28555,25282
28550,25274
28546,25266
28543,25257
28540,25248
28539,25239
28538,25229
28538,24870
28539,24860
28540,24851
28543,24842
28546,24833
28550,24825
28555,24817
28560,24809
28567,24802
28574,24796
28581,24790
28589,24785
28598,24781
28607,24778
28616,24776
28625,24774
28634,24774
28826,24774
28836,24774
Z" /> 
</g>
<g >
<path style="fill:#000000; fill-opacity:1.0; 
stroke:#000000; stroke-width:0; stroke-opacity:1; 
stroke-linecap:round; stroke-linejoin:round;fill-rule:evenodd;"
d="M 7436,1024
7445,1026
7454,1028
7463,1031
7472,1035
7480,1040
7487,1046
7494,1052
7501,1059
7506,1067
7511,1075
7515,1083
7518,1092
7520,1101
7522,1110
7522,1120
7522,1479
7522,1489
7520,1498
7518,1507
7515,1516
7511,1524
7506,1532
7501,1540
7494,1547
7487,1553
7480,1559
7472,1564
7463,1568
7454,1571
7445,1573
7436,1575
7426,1575
7234,1575
7225,1575
7216,1573
7207,1571
7198,1568
7189,1564
7181,1559
7174,1553
7167,1547
7160,1540
7155,1532
7150,1524
7146,1516
7143,1507
7140,1498
7139,1489
7138,1479
7138,1120
7139,1110
7140,1101
7143,1092
7146,1083
7150,1075
7155,1067
7160,1059
7167,1052
7174,1046
7181,1040
7189,1035
7198,1031
7207,1028
7216,1026
7225,1024
7234,1024
7426,1024
7436,1024
Z" /> 
<path style="fill:#000000; fill-opacity:1.0; 
stroke:#000000; stroke-width:0; stroke-opacity:1; 
stroke-linecap:round; stroke-linejoin:round;fill-rule:evenodd;"
d="M 8174,1024
8183,1026
8192,1028
8201,1031
8210,1035
8218,1040
8225,1046
8232,1052
8239,1059
8244,1067
8249,1075
8253,1083
8256,1092
8259,1101
8260,1110
8261,1120
8261,1479
8260,1489
8259,1498
8256,1507
8253,1516
8249,1524
8244,1532
8239,1540
8232,1547
8225,1553
8218,1559
8210,1564
8201,1568
8192,1571
8183,1573
8174,1575
8165,1575
7973,1575
7963,1575
7954,1573
7945,1571
7936,1568
7927,1564
7919,1559
7912,1553
7905,1547
7898,1540
7893,1532
7888,1524
7884,1516
7881,1507
7879,1498
7877,1489
7877,1479
7877,1120
7877,1110
7879,1101
7881,1092
7884,1083
7888,1075
7893,1067
7898,1059
7905,1052
7912,1046
7919,1040
7927,1035
7936,1031
7945,1028
7954,1026
7963,1024
7973,1024
8165,1024
8174,1024
Z" /> 
</g>
<g >
<path style="fill:#000000; fill-opacity:1.0; 
stroke:#000000; stroke-width:0; stroke-opacity:1; 
stroke-linecap:round; stroke-linejoin:round;fill-rule:evenodd;"
d="M 15789,15477
15798,15479
15807,15481
15816,15484
15824,15488
15832,15493
15840,15498
15847,15505
15853,15512
15859,15519
15864,15527
15868,15536
15871,15545
15873,15554
15875,15563
15875,15573
15875,15765
15875,15774
15873,15783
15871,15792
15868,15801
15864,15810
15859,15818
15853,15825
15847,15832
15840,15839
15832,15844
15824,15849
15816,15853
15807,15856
15798,15859
15789,15860
15779,15861
15420,15861
15410,15860
15401,15859
15392,15856
15383,15853
15375,15849
15367,15844
15359,15839
15352,15832
15346,15825
15340,15818
15335,15810
15331,15801
15328,15792
15326,15783
15324,15774
15324,15765
15324,15573
15324,15563
15326,15554
15328,15545
15331,15536
15335,15527
15340,15519
15346,15512
15352,15505
15359,15498
15367,15493
15375,15488
15383,15484
15392,15481
15401,15479
15410,15477
15420,15477
15779,15477
15789,15477
Z" /> 
<path style="fill:#000000; fill-opacity:1.0; 
stroke:#000000; stroke-width:0; stroke-opacity:1; 
stroke-linecap:round; stroke-linejoin:round;fill-rule:evenodd;"
d="M 15789,14739
15798,14740
15807,14743
15816,14746
15824,14750
15832,14755
15840,14760
15847,14767
15853,14774
15859,14781
15864,14789
15868,14798
15871,14807
15873,14816
15875,14825
15875,14834
15875,15026
15875,15036
15873,15045
15871,15054
15868,15063
15864,15072
15859,15080
15853,15087
15847,15094
15840,15101
15832,15106
15824,15111
15816,15115
15807,15118
15798,15120
15789,15122
15779,15122
15420,15122
15410,15122
15401,15120
15392,15118
15383,15115
15375,15111
15367,15106
15359,15101
15352,15094
15346,15087
15340,15080
15335,15072
15331,15063
15328,15054
15326,15045
15324,15036
15324,15026
15324,14834
15324,14825
15326,14816
15328,14807
15331,14798
15335,14789
15340,14781
15346,14774
15352,14767
15359,14760
15367,14755
15375,14750
15383,14746
15392,14743
15401,14740
15410,14739
15420,14738
15779,14738
15789,14739
Z" /> 
</g>
<g >
<path style="fill:#000000; fill-opacity:1.0; 
stroke:#000000; stroke-width:0; stroke-opacity:1; 
stroke-linecap:round; stroke-linejoin:round;fill-rule:evenodd;"
d="M 29616,22760
29625,22761
29634,22763
29643,22767
29652,22771
29660,22776
29667,22781
29674,22787
29680,22794
29686,22802
29691,22810
29695,22819
29698,22827
29700,22837
29702,22846
29702,22855
29702,23215
29702,23224
29700,23233
29698,23242
29695,23251
29691,23260
29686,23268
29680,23275
29674,23282
29667,23289
29660,23294
29652,23299
29643,23303
29634,23306
29625,23309
29616,23310
29606,23311
29414,23311
29405,23310
29396,23309
29387,23306
29378,23303
29369,23299
29361,23294
29353,23289
29347,23282
29340,23275
29335,23268
29330,23260
29326,23251
29323,23242
29320,23233
29319,23224
29318,23215
29318,22855
29319,22846
29320,22837
29323,22827
29326,22819
29330,22810
29335,22802
29340,22794
29347,22787
29353,22781
29361,22776
29369,22771
29378,22767
29387,22763
29396,22761
29405,22760
29414,22759
29606,22759
29616,22760
Z" /> 
<path style="fill:#000000; fill-opacity:1.0; 
stroke:#000000; stroke-width:0; stroke-opacity:1; 
stroke-linecap:round; stroke-linejoin:round;fill-rule:evenodd;"
d="M 28878,22760
28887,22761
28896,22763
28905,22767
28913,22771
28921,22776
28929,22781
28936,22787
28942,22794
28948,22802
28953,22810
28957,22819
28960,22827
28962,22837
28964,22846
28964,22855
28964,23215
28964,23224
28962,23233
28960,23242
28957,23251
28953,23260
28948,23268
28942,23275
28936,23282
28929,23289
28921,23294
28913,23299
28905,23303
28896,23306
28887,23309
28878,23310
28868,23311
28676,23311
28667,23310
28657,23309
28648,23306
28639,23303
28631,23299
28623,23294
28615,23289
28608,23282
28602,23275
28596,23268
28592,23260
28588,23251
28584,23242
28582,23233
28581,23224
28580,23215
28580,22855
28581,22846
28582,22837
28584,22827
28588,22819
28592,22810
28596,22802
28602,22794
28608,22787
28615,22781
28623,22776
28631,22771
28639,22767
28648,22763
28657,22761
28667,22760
28676,22759
28868,22759
28878,22760
Z" /> 
</g>
<g >
<path style="fill:#000000; fill-opacity:1.0; 
stroke:#000000; stroke-width:0; stroke-opacity:1; 
stroke-linecap:round; stroke-linejoin:round;fill-rule:evenodd;"
d="M 3724,10724
3733,10726
3742,10728
3751,10731
3760,10735
3768,10740
3775,10746
3782,10752
3789,10759
3794,10767
3799,10775
3803,10783
3806,10792
3809,10801
3810,10810
3811,10820
3811,11179
3810,11189
3809,11198
3806,11207
3803,11216
3799,11224
3794,11232
3789,11240
3782,11247
3775,11253
3768,11259
3760,11264
3751,11268
3742,11271
3733,11273
3724,11275
3715,11275
3523,11275
3513,11275
3504,11273
3495,11271
3486,11268
3477,11264
3469,11259
3462,11253
3455,11247
3448,11240
3443,11232
3438,11224
3434,11216
3431,11207
3429,11198
3427,11189
3427,11179
3427,10820
3427,10810
3429,10801
3431,10792
3434,10783
3438,10775
3443,10767
3448,10759
3455,10752
3462,10746
3469,10740
3477,10735
3486,10731
3495,10728
3504,10726
3513,10724
3523,10724
3715,10724
3724,10724
Z" /> 
<path style="fill:#000000; fill-opacity:1.0; 
stroke:#000000; stroke-width:0; stroke-opacity:1; 
stroke-linecap:round; stroke-linejoin:round;fill-rule:evenodd;"
d="M 2986,10724
2995,10726
3004,10728
3013,10731
3022,10735
3030,10740
3037,10746
3044,10752
3051,10759
3056,10767
3061,10775
3065,10783
3068,10792
3070,10801
3072,10810
3072,10820
3072,11179
3072,11189
3070,11198
3068,11207
3065,11216
3061,11224
3056,11232
3051,11240
3044,11247
3037,11253
3030,11259
3022,11264
3013,11268
3004,11271
2995,11273
2986,11275
2976,11275
2784,11275
2775,11275
2766,11273
2757,11271
2748,11268
2739,11264
2731,11259
2724,11253
2717,11247
2710,11240
2705,11232
2700,11224
2696,11216
2693,11207
2690,11198
2689,11189
2688,11179
2688,10820
2689,10810
2690,10801
2693,10792
2696,10783
2700,10775
2705,10767
2710,10759
2717,10752
2724,10746
2731,10740
2739,10735
2748,10731
2757,10728
2766,10726
2775,10724
2784,10724
2976,10724
2986,10724
Z" /> 
</g>
<g >
<path style="fill:#000000; fill-opacity:1.0; 
stroke:#000000; stroke-width:0; stroke-opacity:1; 
stroke-linecap:round; stroke-linejoin:round;fill-rule:evenodd;"
d="M 22689,15377
22698,15379
22707,15381
22716,15384
22724,15388
22732,15393
22740,15398
22747,15405
22753,15412
22759,15419
22764,15427
22768,15436
22771,15445
22773,15454
22775,15463
22775,15473
22775,15665
22775,15674
22773,15683
22771,15692
22768,15701
22764,15710
22759,15718
22753,15725
22747,15732
22740,15739
22732,15744
22724,15749
22716,15753
22707,15756
22698,15759
22689,15760
22679,15761
22320,15761
22310,15760
22301,15759
22292,15756
22283,15753
22275,15749
22267,15744
22259,15739
22252,15732
22246,15725
22240,15718
22235,15710
22231,15701
22228,15692
22226,15683
22224,15674
22224,15665
22224,15473
22224,15463
22226,15454
22228,15445
22231,15436
22235,15427
22240,15419
22246,15412
22252,15405
22259,15398
22267,15393
22275,15388
22283,15384
22292,15381
22301,15379
22310,15377
22320,15377
22679,15377
22689,15377
Z" /> 
<path style="fill:#000000; fill-opacity:1.0; 
stroke:#000000; stroke-width:0; stroke-opacity:1; 
stroke-linecap:round; stroke-linejoin:round;fill-rule:evenodd;"
d="M 22689,14639
22698,14640
22707,14643
22716,14646
22724,14650
22732,14655
22740,14660
22747,14667
22753,14674
22759,14681
22764,14689
22768,14698
22771,14707
22773,14716
22775,14725
22775,14734
22775,14926
22775,14936
22773,14945
22771,14954
22768,14963
22764,14972
22759,14980
22753,14987
22747,14994
22740,15001
22732,15006
22724,15011
22716,15015
22707,15018
22698,15020
22689,15022
22679,15022
22320,15022
22310,15022
22301,15020
22292,15018
22283,15015
22275,15011
22267,15006
22259,15001
22252,14994
22246,14987
22240,14980
22235,14972
22231,14963
22228,14954
22226,14945
22224,14936
22224,14926
22224,14734
22224,14725
22226,14716
22228,14707
22231,14698
22235,14689
22240,14681
22246,14674
22252,14667
22259,14660
22267,14655
22275,14650
22283,14646
22292,14643
22301,14640
22310,14639
22320,14638
22679,14638
22689,14639
Z" /> 
</g>
<g >
</g>
<g >
<path style="fill:#000000; fill-opacity:1.0; 
stroke:#000000; stroke-width:0; stroke-opacity:1; 
stroke-linecap:round; stroke-linejoin:round;fill-rule:evenodd;"
d="M 6431,1185
6441,1186
6450,1189
6459,1192
6468,1196
6476,1201
6484,1207
6491,1213
6498,1221
6503,1228
6508,1237
6512,1245
6516,1254
6518,1264
6519,1273
6520,1283
6520,1716
6519,1726
6518,1735
6516,1745
6512,1754
6508,1762
6503,1771
6498,1778
6491,1786
6484,1792
6476,1798
6468,1803
6459,1807
6450,1810
6441,1813
6431,1814
6422,1814
5595,1814
5585,1814
5576,1813
5566,1810
5557,1807
5548,1803
5540,1798
5532,1792
5525,1786
5519,1778
5513,1771
5508,1762
5504,1754
5501,1745
5498,1735
5497,1726
5496,1716
5496,1283
5497,1273
5498,1264
5501,1254
5504,1245
5508,1237
5513,1228
5519,1221
5525,1213
5532,1207
5540,1201
5548,1196
5557,1192
5566,1189
5576,1186
5585,1185
5595,1185
6422,1185
6431,1185
Z" /> 
<path style="fill:#000000; fill-opacity:1.0; 
stroke:#000000; stroke-width:0; stroke-opacity:1; 
stroke-linecap:round; stroke-linejoin:round;fill-rule:evenodd;"
d="M 5014,1185
5023,1186
5033,1189
5042,1192
5051,1196
5059,1201
5067,1207
5074,1213
5080,1221
5086,1228
5091,1237
5095,1245
5098,1254
5101,1264
5102,1273
5103,1283
5103,1716
5102,1726
5101,1735
5098,1745
5095,1754
5091,1762
5086,1771
5080,1778
5074,1786
5067,1792
5059,1798
5051,1803
5042,1807
5033,1810
5023,1813
5014,1814
5004,1814
4177,1814
4168,1814
4158,1813
4149,1810
4140,1807
4131,1803
4123,1798
4115,1792
4108,1786
4101,1778
4096,1771
4091,1762
4087,1754
4083,1745
4081,1735
4080,1726
4079,1716
4079,1283
4080,1273
4081,1264
4083,1254
4087,1245
4091,1237
4096,1228
4101,1221
4108,1213
4115,1207
4123,1201
4131,1196
4140,1192
4149,1189
4158,1186
4168,1185
4177,1185
5004,1185
5014,1185
Z" /> 
</g>
<g >
<path style="fill:#000000; fill-opacity:1.0; 
stroke:#000000; stroke-width:0; stroke-opacity:1; 
stroke-linecap:round; stroke-linejoin:round;fill-rule:evenodd;"
d="M 22755,3710
22765,3711
22774,3713
22783,3716
22791,3720
22799,3725
22807,3731
22814,3737
22820,3744
22826,3752
22831,3760
22835,3768
22838,3777
22840,3786
22842,3796
22842,3805
22842,3997
22842,4006
22840,4016
22838,4025
22835,4034
22831,4042
22826,4050
22820,4058
22814,4065
22807,4071
22799,4077
22791,4082
22783,4086
22774,4089
22765,4091
22755,4093
22746,4093
22387,4093
22377,4093
22368,4091
22359,4089
22350,4086
22342,4082
22333,4077
22326,4071
22319,4065
22313,4058
22307,4050
22302,4042
22298,4034
22295,4025
22293,4016
22291,4006
22291,3997
22291,3805
22291,3796
22293,3786
22295,3777
22298,3768
22302,3760
22307,3752
22313,3744
22319,3737
22326,3731
22333,3725
22342,3720
22350,3716
22359,3713
22368,3711
22377,3710
22387,3709
22746,3709
22755,3710
Z" /> 
<path style="fill:#000000; fill-opacity:1.0; 
stroke:#000000; stroke-width:0; stroke-opacity:1; 
stroke-linecap:round; stroke-linejoin:round;fill-rule:evenodd;"
d="M 22755,4448
22765,4449
22774,4451
22783,4455
22791,4459
22799,4464
22807,4469
22814,4475
22820,4482
22826,4490
22831,4498
22835,4507
22838,4515
22840,4525
22842,4534
22842,4543
22842,4735
22842,4745
22840,4754
22838,4763
22835,4772
22831,4780
22826,4789
22820,4796
22814,4803
22807,4809
22799,4815
22791,4820
22783,4824
22774,4827
22765,4829
22755,4831
22746,4831
22387,4831
22377,4831
22368,4829
22359,4827
22350,4824
22342,4820
22333,4815
22326,4809
22319,4803
22313,4796
22307,4789
22302,4780
22298,4772
22295,4763
22293,4754
22291,4745
22291,4735
22291,4543
22291,4534
22293,4525
22295,4515
22298,4507
22302,4498
22307,4490
22313,4482
22319,4475
22326,4469
22333,4464
22342,4459
22350,4455
22359,4451
22368,4449
22377,4448
22387,4447
22746,4447
22755,4448
Z" /> 
</g>
<g >
</g>
<g >
</g>
<g >
</g>
<g >
</g>
<g >
</g>
</g> 
</svg>
