<?xml version="1.0" standalone="no"?>
 <!DOCTYPE svg PUBLIC "-//W3C//DTD SVG 1.1//EN" 
 "http://www.w3.org/Graphics/SVG/1.1/DTD/svg11.dtd"> 
<svg xmlns="http://www.w3.org/2000/svg" version="1.1" 
    width="29.7002cm" height="21.0007cm" viewBox="0 0 116930 82680 ">
<title>SVG Picture created as ThermocoupleLogger-B_Mask.svg date 2019/04/07 21:39:20 </title>
  <desc>Picture generated by PCBNEW </desc>
<g style="fill:#000000; fill-opacity:1;stroke:#000000; stroke-opacity:1;
stroke-linecap:round; stroke-linejoin:round; "
 transform="translate(0 0) scale(1 1)">
</g>
<g style="fill:#000000; fill-opacity:0.0; 
stroke:#000000; stroke-width:-0.000393701; stroke-opacity:1; 
stroke-linecap:round; stroke-linejoin:round;">
</g>
<g style="fill:#000000; fill-opacity:0.0; 
stroke:#000000; stroke-width:39.3701; stroke-opacity:1; 
stroke-linecap:round; stroke-linejoin:round;">
<path d="M7.87402 28901.6 A1338.58 1338.58 0.0 0 0 1346.46 30240.2 " />
<path d="M35000 0
L35000 30250
" />
<path d="M0 28059
L0 28059
" />
<path d="M0 0
L35000 0
" />
<path d="M1346 30240
L35000 30250
" />
<path d="M0 0
L7 28901
" />
<path d="M0 500
L0 500
" />
</g>
<g style="fill:#000000; fill-opacity:1.0; 
stroke:#000000; stroke-width:0; stroke-opacity:1; 
stroke-linecap:round; stroke-linejoin:round;">
<path style="fill:#000000; fill-opacity:1.0; 
stroke:#000000; stroke-width:0; stroke-opacity:1; 
stroke-linecap:round; stroke-linejoin:round;fill-rule:evenodd;"
d="M 1656,27879
1833,27952
1849,27959
2024,28075
2172,28223
2273,28375
2288,28398
2368,28591
2409,28796
2409,29006
2368,29211
2305,29364
2288,29405
2172,29579
2024,29727
1849,29843
1849,29843
1849,29843
1656,29923
1451,29964
1241,29964
1036,29923
842,29843
842,29843
842,29843
668,29727
520,29579
404,29405
387,29364
324,29211
283,29006
283,28796
324,28591
404,28398
419,28375
520,28223
668,28075
842,27959
859,27952
1036,27879
1241,27838
1451,27838
1656,27879
Z" /> 
<path style="fill:#000000; fill-opacity:1.0; 
stroke:#000000; stroke-width:0; stroke-opacity:1; 
stroke-linecap:round; stroke-linejoin:round;fill-rule:evenodd;"
d="M 33191,27564
33369,27637
33385,27644
33559,27760
33707,27908
33771,28003
33823,28083
33904,28276
33944,28481
33944,28691
33904,28896
33826,29082
33823,29090
33707,29264
33559,29412
33385,29528
33385,29528
33385,29528
33191,29608
32986,29649
32777,29649
32571,29608
32378,29528
32378,29528
32378,29528
32204,29412
32056,29264
31939,29090
31936,29082
31859,28896
31818,28691
31818,28481
31859,28276
31939,28083
31992,28003
32056,27908
32204,27760
32378,27644
32394,27637
32571,27564
32777,27523
32986,27523
33191,27564
Z" /> 
<path style="fill:#000000; fill-opacity:1.0; 
stroke:#000000; stroke-width:0; stroke-opacity:1; 
stroke-linecap:round; stroke-linejoin:round;fill-rule:evenodd;"
d="M 11181,28361
11212,28370
11244,28380
11244,28380
11302,28411
11353,28453
11388,28495
11395,28504
11426,28562
11435,28593
11445,28625
11450,28674
11450,28825
11445,28874
11445,28874
11432,28917
11426,28937
11395,28995
11353,29046
11302,29088
11244,29119
11181,29138
11115,29145
11050,29138
11004,29124
10987,29119
10977,29114
10928,29088
10877,29046
10836,28995
10805,28937
10785,28874
10781,28825
10781,28674
10785,28625
10805,28562
10836,28504
10877,28453
10928,28411
10987,28380
10987,28380
11018,28370
11050,28361
11115,28354
11181,28361
Z" /> 
<path style="fill:#000000; fill-opacity:1.0; 
stroke:#000000; stroke-width:0; stroke-opacity:1; 
stroke-linecap:round; stroke-linejoin:round;fill-rule:evenodd;"
d="M 7681,28361
7712,28370
7744,28380
7744,28380
7802,28411
7853,28453
7888,28495
7895,28504
7926,28562
7935,28593
7945,28625
7950,28674
7950,28825
7945,28874
7945,28874
7932,28917
7926,28937
7895,28995
7853,29046
7802,29088
7744,29119
7681,29138
7615,29145
7550,29138
7504,29124
7487,29119
7477,29114
7428,29088
7377,29046
7336,28995
7305,28937
7285,28874
7281,28825
7281,28674
7285,28625
7305,28562
7336,28504
7377,28453
7428,28411
7487,28380
7487,28380
7518,28370
7550,28361
7615,28354
7681,28361
Z" /> 
<path style="fill:#000000; fill-opacity:1.0; 
stroke:#000000; stroke-width:0; stroke-opacity:1; 
stroke-linecap:round; stroke-linejoin:round;fill-rule:evenodd;"
d="M 14681,28361
14712,28370
14744,28380
14744,28380
14802,28411
14853,28453
14888,28495
14895,28504
14926,28562
14935,28593
14945,28625
14950,28674
14950,28825
14945,28874
14945,28874
14932,28917
14926,28937
14895,28995
14853,29046
14802,29088
14744,29119
14681,29138
14615,29145
14550,29138
14504,29124
14487,29119
14477,29114
14428,29088
14377,29046
14336,28995
14305,28937
14285,28874
14281,28825
14281,28674
14285,28625
14305,28562
14336,28504
14377,28453
14428,28411
14487,28380
14487,28380
14518,28370
14550,28361
14615,28354
14681,28361
Z" /> 
<path style="fill:#000000; fill-opacity:1.0; 
stroke:#000000; stroke-width:0; stroke-opacity:1; 
stroke-linecap:round; stroke-linejoin:round;fill-rule:evenodd;"
d="M 18181,28361
18212,28370
18244,28380
18244,28380
18302,28411
18353,28453
18388,28495
18395,28504
18426,28562
18435,28593
18445,28625
18450,28674
18450,28825
18445,28874
18445,28874
18432,28917
18426,28937
18395,28995
18353,29046
18302,29088
18244,29119
18181,29138
18115,29145
18050,29138
18004,29124
17987,29119
17977,29114
17928,29088
17877,29046
17836,28995
17805,28937
17785,28874
17781,28825
17781,28674
17785,28625
17805,28562
17836,28504
17877,28453
17928,28411
17987,28380
17987,28380
18018,28370
18050,28361
18115,28354
18181,28361
Z" /> 
<path style="fill:#000000; fill-opacity:1.0; 
stroke:#000000; stroke-width:0; stroke-opacity:1; 
stroke-linecap:round; stroke-linejoin:round;fill-rule:evenodd;"
d="M 21665,28361
21697,28370
21728,28380
21728,28380
21786,28411
21837,28453
21872,28495
21879,28504
21910,28562
21920,28593
21929,28625
21934,28674
21934,28825
21929,28874
21929,28874
21916,28917
21910,28937
21879,28995
21837,29046
21786,29088
21728,29119
21665,29138
21600,29145
21534,29138
21488,29124
21471,29119
21462,29114
21413,29088
21362,29046
21320,28995
21289,28937
21270,28874
21265,28825
21265,28674
21270,28625
21289,28562
21320,28504
21362,28453
21413,28411
21471,28380
21471,28380
21502,28370
21534,28361
21600,28354
21665,28361
Z" /> 
<path style="fill:#000000; fill-opacity:1.0; 
stroke:#000000; stroke-width:0; stroke-opacity:1; 
stroke-linecap:round; stroke-linejoin:round;fill-rule:evenodd;"
d="M 25165,28361
25197,28370
25228,28380
25228,28380
25286,28411
25337,28453
25372,28495
25379,28504
25410,28562
25420,28593
25429,28625
25434,28674
25434,28825
25429,28874
25429,28874
25416,28917
25410,28937
25379,28995
25337,29046
25286,29088
25228,29119
25165,29138
25100,29145
25034,29138
24988,29124
24971,29119
24962,29114
24913,29088
24862,29046
24820,28995
24789,28937
24770,28874
24765,28825
24765,28674
24770,28625
24789,28562
24820,28504
24862,28453
24913,28411
24971,28380
24971,28380
25002,28370
25034,28361
25100,28354
25165,28361
Z" /> 
<path style="fill:#000000; fill-opacity:1.0; 
stroke:#000000; stroke-width:0; stroke-opacity:1; 
stroke-linecap:round; stroke-linejoin:round;fill-rule:evenodd;"
d="M 28665,28361
28697,28370
28728,28380
28728,28380
28786,28411
28837,28453
28872,28495
28879,28504
28910,28562
28920,28593
28929,28625
28934,28674
28934,28825
28929,28874
28929,28874
28916,28917
28910,28937
28879,28995
28837,29046
28786,29088
28728,29119
28665,29138
28600,29145
28534,29138
28488,29124
28471,29119
28462,29114
28413,29088
28362,29046
28320,28995
28289,28937
28270,28874
28265,28825
28265,28674
28270,28625
28289,28562
28320,28504
28362,28453
28413,28411
28471,28380
28471,28380
28502,28370
28534,28361
28600,28354
28665,28361
Z" /> 
<path style="fill:#000000; fill-opacity:1.0; 
stroke:#000000; stroke-width:0; stroke-opacity:1; 
stroke-linecap:round; stroke-linejoin:round;fill-rule:evenodd;"
d="M 4181,28361
4212,28370
4244,28380
4244,28380
4302,28411
4353,28453
4388,28495
4395,28504
4426,28562
4435,28593
4445,28625
4450,28674
4450,28825
4445,28874
4445,28874
4432,28917
4426,28937
4395,28995
4353,29046
4302,29088
4244,29119
4181,29138
4115,29145
4050,29138
4004,29124
3987,29119
3977,29114
3928,29088
3877,29046
3836,28995
3805,28937
3785,28874
3781,28825
3781,28674
3785,28625
3805,28562
3836,28504
3877,28453
3928,28411
3987,28380
3987,28380
4018,28370
4050,28361
4115,28354
4181,28361
Z" /> 
<path style="fill:#000000; fill-opacity:1.0; 
stroke:#000000; stroke-width:0; stroke-opacity:1; 
stroke-linecap:round; stroke-linejoin:round;fill-rule:evenodd;"
d="M 26367,28357
26379,28361
26390,28367
26400,28375
26407,28384
26413,28395
26417,28407
26418,28422
26418,29077
26417,29092
26413,29104
26407,29115
26400,29124
26390,29132
26379,29138
26367,29142
26352,29143
25815,29143
25800,29142
25789,29138
25778,29132
25768,29124
25760,29115
25754,29104
25751,29092
25749,29077
25749,28422
25751,28407
25754,28395
25760,28384
25768,28375
25778,28367
25789,28361
25800,28357
25815,28356
26352,28356
26367,28357
Z" /> 
<path style="fill:#000000; fill-opacity:1.0; 
stroke:#000000; stroke-width:0; stroke-opacity:1; 
stroke-linecap:round; stroke-linejoin:round;fill-rule:evenodd;"
d="M 29867,28357
29879,28361
29890,28367
29900,28375
29907,28384
29913,28395
29917,28407
29918,28422
29918,29077
29917,29092
29913,29104
29907,29115
29900,29124
29890,29132
29879,29138
29867,29142
29852,29143
29315,29143
29300,29142
29289,29138
29278,29132
29268,29124
29260,29115
29254,29104
29251,29092
29249,29077
29249,28422
29251,28407
29254,28395
29260,28384
29268,28375
29278,28367
29289,28361
29300,28357
29315,28356
29852,28356
29867,28357
Z" /> 
<path style="fill:#000000; fill-opacity:1.0; 
stroke:#000000; stroke-width:0; stroke-opacity:1; 
stroke-linecap:round; stroke-linejoin:round;fill-rule:evenodd;"
d="M 5383,28357
5395,28361
5406,28367
5415,28375
5423,28384
5429,28395
5433,28407
5434,28422
5434,29077
5433,29092
5429,29104
5423,29115
5415,29124
5406,29132
5395,29138
5383,29142
5368,29143
4831,29143
4816,29142
4804,29138
4793,29132
4784,29124
4776,29115
4770,29104
4766,29092
4765,29077
4765,28422
4766,28407
4770,28395
4776,28384
4784,28375
4793,28367
4804,28361
4816,28357
4831,28356
5368,28356
5383,28357
Z" /> 
<path style="fill:#000000; fill-opacity:1.0; 
stroke:#000000; stroke-width:0; stroke-opacity:1; 
stroke-linecap:round; stroke-linejoin:round;fill-rule:evenodd;"
d="M 22867,28357
22879,28361
22890,28367
22900,28375
22907,28384
22913,28395
22917,28407
22918,28422
22918,29077
22917,29092
22913,29104
22907,29115
22900,29124
22890,29132
22879,29138
22867,29142
22852,29143
22315,29143
22300,29142
22289,29138
22278,29132
22268,29124
22260,29115
22254,29104
22251,29092
22249,29077
22249,28422
22251,28407
22254,28395
22260,28384
22268,28375
22278,28367
22289,28361
22300,28357
22315,28356
22852,28356
22867,28357
Z" /> 
<path style="fill:#000000; fill-opacity:1.0; 
stroke:#000000; stroke-width:0; stroke-opacity:1; 
stroke-linecap:round; stroke-linejoin:round;fill-rule:evenodd;"
d="M 8883,28357
8895,28361
8906,28367
8915,28375
8923,28384
8929,28395
8933,28407
8934,28422
8934,29077
8933,29092
8929,29104
8923,29115
8915,29124
8906,29132
8895,29138
8883,29142
8868,29143
8331,29143
8316,29142
8304,29138
8293,29132
8284,29124
8276,29115
8270,29104
8266,29092
8265,29077
8265,28422
8266,28407
8270,28395
8276,28384
8284,28375
8293,28367
8304,28361
8316,28357
8331,28356
8868,28356
8883,28357
Z" /> 
<path style="fill:#000000; fill-opacity:1.0; 
stroke:#000000; stroke-width:0; stroke-opacity:1; 
stroke-linecap:round; stroke-linejoin:round;fill-rule:evenodd;"
d="M 19383,28357
19395,28361
19406,28367
19415,28375
19423,28384
19429,28395
19433,28407
19434,28422
19434,29077
19433,29092
19429,29104
19423,29115
19415,29124
19406,29132
19395,29138
19383,29142
19368,29143
18831,29143
18816,29142
18804,29138
18793,29132
18784,29124
18776,29115
18770,29104
18766,29092
18765,29077
18765,28422
18766,28407
18770,28395
18776,28384
18784,28375
18793,28367
18804,28361
18816,28357
18831,28356
19368,28356
19383,28357
Z" /> 
<path style="fill:#000000; fill-opacity:1.0; 
stroke:#000000; stroke-width:0; stroke-opacity:1; 
stroke-linecap:round; stroke-linejoin:round;fill-rule:evenodd;"
d="M 12383,28357
12395,28361
12406,28367
12415,28375
12423,28384
12429,28395
12433,28407
12434,28422
12434,29077
12433,29092
12429,29104
12423,29115
12415,29124
12406,29132
12395,29138
12383,29142
12368,29143
11831,29143
11816,29142
11804,29138
11793,29132
11784,29124
11776,29115
11770,29104
11766,29092
11765,29077
11765,28422
11766,28407
11770,28395
11776,28384
11784,28375
11793,28367
11804,28361
11816,28357
11831,28356
12368,28356
12383,28357
Z" /> 
<path style="fill:#000000; fill-opacity:1.0; 
stroke:#000000; stroke-width:0; stroke-opacity:1; 
stroke-linecap:round; stroke-linejoin:round;fill-rule:evenodd;"
d="M 15883,28357
15895,28361
15906,28367
15915,28375
15923,28384
15929,28395
15933,28407
15934,28422
15934,29077
15933,29092
15929,29104
15923,29115
15915,29124
15906,29132
15895,29138
15883,29142
15868,29143
15331,29143
15316,29142
15304,29138
15293,29132
15284,29124
15276,29115
15270,29104
15266,29092
15265,29077
15265,28422
15266,28407
15270,28395
15276,28384
15284,28375
15293,28367
15304,28361
15316,28357
15331,28356
15868,28356
15883,28357
Z" /> 
<path style="fill:#000000; fill-opacity:1.0; 
stroke:#000000; stroke-width:0; stroke-opacity:1; 
stroke-linecap:round; stroke-linejoin:round;fill-rule:evenodd;"
d="M 9322,22332
9429,22376
9429,22376
9478,22409
9526,22441
9608,22523
9673,22620
9717,22727
9740,22841
9740,22958
9717,23072
9676,23171
9673,23179
9608,23276
9526,23358
9429,23423
9429,23423
9429,23423
9322,23467
9208,23490
9091,23490
8977,23467
8870,23423
8870,23423
8870,23423
8773,23358
8691,23276
8626,23179
8623,23171
8582,23072
8559,22958
8559,22841
8582,22727
8626,22620
8691,22523
8773,22441
8821,22409
8870,22376
8870,22376
8977,22332
9091,22309
9208,22309
9322,22332
Z" /> 
<path style="fill:#000000; fill-opacity:1.0; 
stroke:#000000; stroke-width:0; stroke-opacity:1; 
stroke-linecap:round; stroke-linejoin:round;fill-rule:evenodd;"
d="M 1673,23490
492,23490
492,22309
1673,22309
1673,23490
Z" /> 
<path style="fill:#000000; fill-opacity:1.0; 
stroke:#000000; stroke-width:0; stroke-opacity:1; 
stroke-linecap:round; stroke-linejoin:round;fill-rule:evenodd;"
d="M 23530,22736
23561,22739
23621,22757
23621,22757
23675,22786
23675,22786
23675,22786
23723,22826
23763,22874
23792,22928
23810,22988
23816,23050
23810,23111
23792,23171
23792,23171
23763,23225
23723,23273
23675,23313
23621,23342
23621,23342
23561,23360
23530,23363
23515,23364
23484,23364
23469,23363
23438,23360
23378,23342
23378,23342
23324,23313
23276,23273
23236,23225
23207,23171
23207,23171
23189,23111
23183,23050
23189,22988
23207,22928
23236,22874
23276,22826
23324,22786
23324,22786
23324,22786
23378,22757
23378,22757
23438,22739
23469,22736
23484,22735
23515,22735
23530,22736
Z" /> 
<path style="fill:#000000; fill-opacity:1.0; 
stroke:#000000; stroke-width:0; stroke-opacity:1; 
stroke-linecap:round; stroke-linejoin:round;fill-rule:evenodd;"
d="M 22530,22736
22561,22739
22621,22757
22621,22757
22675,22786
22675,22786
22675,22786
22723,22826
22763,22874
22792,22928
22810,22988
22816,23050
22810,23111
22792,23171
22792,23171
22763,23225
22723,23273
22675,23313
22621,23342
22621,23342
22561,23360
22530,23363
22515,23364
22484,23364
22469,23363
22438,23360
22378,23342
22378,23342
22324,23313
22276,23273
22236,23225
22207,23171
22207,23171
22189,23111
22183,23050
22189,22988
22207,22928
22236,22874
22276,22826
22324,22786
22324,22786
22324,22786
22378,22757
22378,22757
22438,22739
22469,22736
22484,22735
22515,22735
22530,22736
Z" /> 
<path style="fill:#000000; fill-opacity:1.0; 
stroke:#000000; stroke-width:0; stroke-opacity:1; 
stroke-linecap:round; stroke-linejoin:round;fill-rule:evenodd;"
d="M 21530,22736
21561,22739
21621,22757
21621,22757
21675,22786
21675,22786
21675,22786
21723,22826
21763,22874
21792,22928
21810,22988
21816,23050
21810,23111
21792,23171
21792,23171
21763,23225
21723,23273
21675,23313
21621,23342
21621,23342
21561,23360
21530,23363
21515,23364
21484,23364
21469,23363
21438,23360
21378,23342
21378,23342
21324,23313
21276,23273
21236,23225
21207,23171
21207,23171
21189,23111
21183,23050
21189,22988
21207,22928
21236,22874
21276,22826
21324,22786
21324,22786
21324,22786
21378,22757
21378,22757
21438,22739
21469,22736
21484,22735
21515,22735
21530,22736
Z" /> 
<path style="fill:#000000; fill-opacity:1.0; 
stroke:#000000; stroke-width:0; stroke-opacity:1; 
stroke-linecap:round; stroke-linejoin:round;fill-rule:evenodd;"
d="M 20530,22736
20561,22739
20621,22757
20621,22757
20675,22786
20675,22786
20675,22786
20723,22826
20763,22874
20792,22928
20810,22988
20816,23050
20810,23111
20792,23171
20792,23171
20763,23225
20723,23273
20675,23313
20621,23342
20621,23342
20561,23360
20530,23363
20515,23364
20484,23364
20469,23363
20438,23360
20378,23342
20378,23342
20324,23313
20276,23273
20236,23225
20207,23171
20207,23171
20189,23111
20183,23050
20189,22988
20207,22928
20236,22874
20276,22826
20324,22786
20324,22786
20324,22786
20378,22757
20378,22757
20438,22739
20469,22736
20484,22735
20515,22735
20530,22736
Z" /> 
<path style="fill:#000000; fill-opacity:1.0; 
stroke:#000000; stroke-width:0; stroke-opacity:1; 
stroke-linecap:round; stroke-linejoin:round;fill-rule:evenodd;"
d="M 19530,22736
19561,22739
19621,22757
19621,22757
19675,22786
19675,22786
19675,22786
19723,22826
19763,22874
19792,22928
19810,22988
19816,23050
19810,23111
19792,23171
19792,23171
19763,23225
19723,23273
19675,23313
19621,23342
19621,23342
19561,23360
19530,23363
19515,23364
19484,23364
19469,23363
19438,23360
19378,23342
19378,23342
19324,23313
19276,23273
19236,23225
19207,23171
19207,23171
19189,23111
19183,23050
19189,22988
19207,22928
19236,22874
19276,22826
19324,22786
19324,22786
19324,22786
19378,22757
19378,22757
19438,22739
19469,22736
19484,22735
19515,22735
19530,22736
Z" /> 
<path style="fill:#000000; fill-opacity:1.0; 
stroke:#000000; stroke-width:0; stroke-opacity:1; 
stroke-linecap:round; stroke-linejoin:round;fill-rule:evenodd;"
d="M 18530,22736
18561,22739
18621,22757
18621,22757
18675,22786
18675,22786
18675,22786
18723,22826
18763,22874
18792,22928
18810,22988
18816,23050
18810,23111
18792,23171
18792,23171
18763,23225
18723,23273
18675,23313
18621,23342
18621,23342
18561,23360
18530,23363
18515,23364
18484,23364
18469,23363
18438,23360
18378,23342
18378,23342
18324,23313
18276,23273
18236,23225
18207,23171
18207,23171
18189,23111
18183,23050
18189,22988
18207,22928
18236,22874
18276,22826
18324,22786
18324,22786
18324,22786
18378,22757
18378,22757
18438,22739
18469,22736
18484,22735
18515,22735
18530,22736
Z" /> 
<path style="fill:#000000; fill-opacity:1.0; 
stroke:#000000; stroke-width:0; stroke-opacity:1; 
stroke-linecap:round; stroke-linejoin:round;fill-rule:evenodd;"
d="M 17530,22736
17561,22739
17621,22757
17621,22757
17675,22786
17675,22786
17675,22786
17723,22826
17763,22874
17792,22928
17810,22988
17816,23050
17810,23111
17792,23171
17792,23171
17763,23225
17723,23273
17675,23313
17621,23342
17621,23342
17561,23360
17530,23363
17515,23364
17484,23364
17469,23363
17438,23360
17378,23342
17378,23342
17324,23313
17276,23273
17236,23225
17207,23171
17207,23171
17189,23111
17183,23050
17189,22988
17207,22928
17236,22874
17276,22826
17324,22786
17324,22786
17324,22786
17378,22757
17378,22757
17438,22739
17469,22736
17484,22735
17515,22735
17530,22736
Z" /> 
<path style="fill:#000000; fill-opacity:1.0; 
stroke:#000000; stroke-width:0; stroke-opacity:1; 
stroke-linecap:round; stroke-linejoin:round;fill-rule:evenodd;"
d="M 16530,22736
16561,22739
16621,22757
16621,22757
16675,22786
16675,22786
16675,22786
16723,22826
16763,22874
16792,22928
16810,22988
16816,23050
16810,23111
16792,23171
16792,23171
16763,23225
16723,23273
16675,23313
16621,23342
16621,23342
16561,23360
16530,23363
16515,23364
16484,23364
16469,23363
16438,23360
16378,23342
16378,23342
16324,23313
16276,23273
16236,23225
16207,23171
16207,23171
16189,23111
16183,23050
16189,22988
16207,22928
16236,22874
16276,22826
16324,22786
16324,22786
16324,22786
16378,22757
16378,22757
16438,22739
16469,22736
16484,22735
16515,22735
16530,22736
Z" /> 
<path style="fill:#000000; fill-opacity:1.0; 
stroke:#000000; stroke-width:0; stroke-opacity:1; 
stroke-linecap:round; stroke-linejoin:round;fill-rule:evenodd;"
d="M 15530,22736
15561,22739
15621,22757
15621,22757
15675,22786
15675,22786
15675,22786
15723,22826
15763,22874
15792,22928
15810,22988
15816,23050
15810,23111
15792,23171
15792,23171
15763,23225
15723,23273
15675,23313
15621,23342
15621,23342
15561,23360
15530,23363
15515,23364
15484,23364
15469,23363
15438,23360
15378,23342
15378,23342
15324,23313
15276,23273
15236,23225
15207,23171
15207,23171
15189,23111
15183,23050
15189,22988
15207,22928
15236,22874
15276,22826
15324,22786
15324,22786
15324,22786
15378,22757
15378,22757
15438,22739
15469,22736
15484,22735
15515,22735
15530,22736
Z" /> 
<path style="fill:#000000; fill-opacity:1.0; 
stroke:#000000; stroke-width:0; stroke-opacity:1; 
stroke-linecap:round; stroke-linejoin:round;fill-rule:evenodd;"
d="M 14530,22736
14561,22739
14621,22757
14621,22757
14675,22786
14675,22786
14675,22786
14723,22826
14763,22874
14792,22928
14810,22988
14816,23050
14810,23111
14792,23171
14792,23171
14763,23225
14723,23273
14675,23313
14621,23342
14621,23342
14561,23360
14530,23363
14515,23364
14484,23364
14469,23363
14438,23360
14378,23342
14378,23342
14324,23313
14276,23273
14236,23225
14207,23171
14207,23171
14189,23111
14183,23050
14189,22988
14207,22928
14236,22874
14276,22826
14324,22786
14324,22786
14324,22786
14378,22757
14378,22757
14438,22739
14469,22736
14484,22735
14515,22735
14530,22736
Z" /> 
<path style="fill:#000000; fill-opacity:1.0; 
stroke:#000000; stroke-width:0; stroke-opacity:1; 
stroke-linecap:round; stroke-linejoin:round;fill-rule:evenodd;"
d="M 13530,22736
13561,22739
13621,22757
13621,22757
13675,22786
13675,22786
13675,22786
13723,22826
13763,22874
13792,22928
13810,22988
13816,23050
13810,23111
13792,23171
13792,23171
13763,23225
13723,23273
13675,23313
13621,23342
13621,23342
13561,23360
13530,23363
13515,23364
13484,23364
13469,23363
13438,23360
13378,23342
13378,23342
13324,23313
13276,23273
13236,23225
13207,23171
13207,23171
13189,23111
13183,23050
13189,22988
13207,22928
13236,22874
13276,22826
13324,22786
13324,22786
13324,22786
13378,22757
13378,22757
13438,22739
13469,22736
13484,22735
13515,22735
13530,22736
Z" /> 
<path style="fill:#000000; fill-opacity:1.0; 
stroke:#000000; stroke-width:0; stroke-opacity:1; 
stroke-linecap:round; stroke-linejoin:round;fill-rule:evenodd;"
d="M 12530,22736
12561,22739
12621,22757
12621,22757
12675,22786
12675,22786
12675,22786
12723,22826
12763,22874
12792,22928
12810,22988
12816,23050
12810,23111
12792,23171
12792,23171
12763,23225
12723,23273
12675,23313
12621,23342
12621,23342
12561,23360
12530,23363
12515,23364
12484,23364
12469,23363
12438,23360
12378,23342
12378,23342
12324,23313
12276,23273
12236,23225
12207,23171
12207,23171
12189,23111
12183,23050
12189,22988
12207,22928
12236,22874
12276,22826
12324,22786
12324,22786
12324,22786
12378,22757
12378,22757
12438,22739
12469,22736
12484,22735
12515,22735
12530,22736
Z" /> 
<path style="fill:#000000; fill-opacity:1.0; 
stroke:#000000; stroke-width:0; stroke-opacity:1; 
stroke-linecap:round; stroke-linejoin:round;fill-rule:evenodd;"
d="M 11530,22736
11561,22739
11621,22757
11621,22757
11675,22786
11675,22786
11675,22786
11723,22826
11763,22874
11792,22928
11810,22988
11816,23050
11810,23111
11792,23171
11792,23171
11763,23225
11723,23273
11675,23313
11621,23342
11621,23342
11561,23360
11530,23363
11515,23364
11484,23364
11469,23363
11438,23360
11378,23342
11378,23342
11324,23313
11276,23273
11236,23225
11207,23171
11207,23171
11189,23111
11183,23050
11189,22988
11207,22928
11236,22874
11276,22826
11324,22786
11324,22786
11324,22786
11378,22757
11378,22757
11438,22739
11469,22736
11484,22735
11515,22735
11530,22736
Z" /> 
<path style="fill:#000000; fill-opacity:1.0; 
stroke:#000000; stroke-width:0; stroke-opacity:1; 
stroke-linecap:round; stroke-linejoin:round;fill-rule:evenodd;"
d="M 10530,22736
10561,22739
10621,22757
10621,22757
10675,22786
10675,22786
10675,22786
10723,22826
10763,22874
10792,22928
10810,22988
10816,23050
10810,23111
10792,23171
10792,23171
10763,23225
10723,23273
10675,23313
10621,23342
10621,23342
10561,23360
10530,23363
10515,23364
10484,23364
10469,23363
10438,23360
10378,23342
10378,23342
10324,23313
10276,23273
10236,23225
10207,23171
10207,23171
10189,23111
10183,23050
10189,22988
10207,22928
10236,22874
10276,22826
10324,22786
10324,22786
10324,22786
10378,22757
10378,22757
10438,22739
10469,22736
10484,22735
10515,22735
10530,22736
Z" /> 
<path style="fill:#000000; fill-opacity:1.0; 
stroke:#000000; stroke-width:0; stroke-opacity:1; 
stroke-linecap:round; stroke-linejoin:round;fill-rule:evenodd;"
d="M 27012,20500
27043,20510
27075,20520
27075,20520
27133,20551
27184,20592
27226,20643
27257,20702
27276,20765
27283,20830
27276,20896
27257,20959
27226,21017
27184,21068
27133,21110
27075,21141
27075,21141
27043,21150
27012,21160
26963,21165
26831,21165
26782,21160
26751,21150
26719,21141
26719,21141
26661,21110
26610,21068
26568,21017
26537,20959
26518,20896
26512,20830
26518,20765
26537,20702
26568,20643
26610,20592
26661,20551
26719,20520
26719,20520
26751,20510
26782,20500
26831,20496
26963,20496
27012,20500
Z" /> 
<path style="fill:#000000; fill-opacity:1.0; 
stroke:#000000; stroke-width:0; stroke-opacity:1; 
stroke-linecap:round; stroke-linejoin:round;fill-rule:evenodd;"
d="M 33157,20555
32527,20555
32527,19925
33157,19925
33157,20555
Z" /> 
<path style="fill:#000000; fill-opacity:1.0; 
stroke:#000000; stroke-width:0; stroke-opacity:1; 
stroke-linecap:round; stroke-linejoin:round;fill-rule:evenodd;"
d="M 29873,19926
29904,19929
29963,19947
29963,19947
30018,19977
30066,20016
30105,20064
30134,20119
30134,20119
30152,20178
30159,20240
30152,20301
30134,20361
30134,20361
30105,20415
30066,20463
30018,20503
29963,20532
29963,20532
29904,20550
29873,20553
29857,20555
29827,20555
29811,20553
29780,20550
29721,20532
29721,20532
29666,20503
29618,20463
29579,20415
29550,20361
29550,20361
29532,20301
29526,20240
29532,20178
29550,20119
29550,20119
29579,20064
29618,20016
29666,19977
29721,19947
29721,19947
29780,19929
29811,19926
29827,19925
29857,19925
29873,19926
Z" /> 
<path style="fill:#000000; fill-opacity:1.0; 
stroke:#000000; stroke-width:0; stroke-opacity:1; 
stroke-linecap:round; stroke-linejoin:round;fill-rule:evenodd;"
d="M 27012,19516
27043,19526
27075,19535
27075,19535
27133,19566
27184,19608
27226,19659
27257,19717
27276,19780
27283,19846
27276,19912
27257,19975
27226,20033
27184,20084
27133,20126
27075,20157
27075,20157
27043,20166
27012,20176
26963,20181
26831,20181
26782,20176
26751,20166
26719,20157
26719,20157
26661,20126
26610,20084
26568,20033
26537,19975
26518,19912
26512,19846
26518,19780
26537,19717
26568,19659
26610,19608
26661,19566
26719,19535
26719,19535
26751,19526
26782,19516
26831,19511
26963,19511
27012,19516
Z" /> 
<path style="fill:#000000; fill-opacity:1.0; 
stroke:#000000; stroke-width:0; stroke-opacity:1; 
stroke-linecap:round; stroke-linejoin:round;fill-rule:evenodd;"
d="M 29873,18926
29904,18929
29963,18947
29963,18947
30018,18977
30018,18977
30018,18977
30066,19016
30105,19064
30134,19119
30152,19178
30159,19240
30152,19301
30151,19305
30134,19361
30105,19415
30066,19463
30018,19503
29963,19532
29963,19532
29904,19550
29873,19553
29857,19555
29827,19555
29811,19553
29780,19550
29721,19532
29721,19532
29666,19503
29618,19463
29579,19415
29550,19361
29533,19305
29532,19301
29526,19240
29532,19178
29550,19119
29579,19064
29618,19016
29666,18977
29666,18977
29666,18977
29721,18947
29721,18947
29780,18929
29811,18926
29827,18925
29857,18925
29873,18926
Z" /> 
<path style="fill:#000000; fill-opacity:1.0; 
stroke:#000000; stroke-width:0; stroke-opacity:1; 
stroke-linecap:round; stroke-linejoin:round;fill-rule:evenodd;"
d="M 32873,18926
32904,18929
32963,18947
32963,18947
33018,18977
33018,18977
33018,18977
33066,19016
33105,19064
33134,19119
33152,19178
33159,19240
33152,19301
33151,19305
33134,19361
33105,19415
33066,19463
33018,19503
32963,19532
32963,19532
32904,19550
32873,19553
32857,19555
32827,19555
32811,19553
32780,19550
32721,19532
32721,19532
32666,19503
32618,19463
32579,19415
32550,19361
32533,19305
32532,19301
32526,19240
32532,19178
32550,19119
32579,19064
32618,19016
32666,18977
32666,18977
32666,18977
32721,18947
32721,18947
32780,18929
32811,18926
32827,18925
32857,18925
32873,18926
Z" /> 
<path style="fill:#000000; fill-opacity:1.0; 
stroke:#000000; stroke-width:0; stroke-opacity:1; 
stroke-linecap:round; stroke-linejoin:round;fill-rule:evenodd;"
d="M 2425,18419
2509,18453
2509,18454
2584,18504
2649,18568
2686,18624
2699,18644
2734,18727
2751,18816
2751,18907
2734,18996
2712,19049
2699,19080
2649,19155
2584,19219
2509,19270
2509,19270
2509,19270
2425,19305
2336,19322
2245,19322
2156,19305
2073,19270
2073,19270
2073,19270
1997,19219
1933,19155
1883,19080
1870,19049
1848,18996
1830,18907
1830,18816
1848,18727
1883,18644
1896,18624
1933,18568
1997,18504
2073,18454
2073,18453
2156,18419
2245,18401
2336,18401
2425,18419
Z" /> 
<path style="fill:#000000; fill-opacity:1.0; 
stroke:#000000; stroke-width:0; stroke-opacity:1; 
stroke-linecap:round; stroke-linejoin:round;fill-rule:evenodd;"
d="M 27012,18532
27043,18541
27075,18551
27075,18551
27133,18582
27184,18624
27226,18675
27257,18733
27276,18796
27283,18862
27276,18927
27257,18990
27226,19049
27184,19099
27133,19141
27075,19172
27075,19172
27057,19178
27012,19192
26963,19196
26831,19196
26782,19192
26738,19178
26719,19172
26719,19172
26661,19141
26610,19099
26568,19049
26537,18990
26518,18927
26512,18862
26518,18796
26537,18733
26568,18675
26610,18624
26661,18582
26719,18551
26719,18551
26751,18541
26782,18532
26831,18527
26963,18527
27012,18532
Z" /> 
<path style="fill:#000000; fill-opacity:1.0; 
stroke:#000000; stroke-width:0; stroke-opacity:1; 
stroke-linecap:round; stroke-linejoin:round;fill-rule:evenodd;"
d="M 32873,17926
32904,17929
32963,17947
32963,17947
33018,17977
33066,18016
33105,18064
33133,18115
33134,18119
33152,18178
33159,18240
33152,18301
33134,18361
33134,18361
33105,18415
33066,18463
33018,18503
32972,18527
32963,18532
32904,18550
32873,18553
32857,18555
32827,18555
32811,18553
32780,18550
32721,18532
32712,18527
32666,18503
32618,18463
32579,18415
32550,18361
32550,18361
32532,18301
32526,18240
32532,18178
32550,18119
32551,18115
32579,18064
32618,18016
32666,17977
32721,17947
32721,17947
32780,17929
32811,17926
32827,17925
32857,17925
32873,17926
Z" /> 
<path style="fill:#000000; fill-opacity:1.0; 
stroke:#000000; stroke-width:0; stroke-opacity:1; 
stroke-linecap:round; stroke-linejoin:round;fill-rule:evenodd;"
d="M 29873,17926
29904,17929
29963,17947
29963,17947
30018,17977
30066,18016
30105,18064
30133,18115
30134,18119
30152,18178
30159,18240
30152,18301
30134,18361
30134,18361
30105,18415
30066,18463
30018,18503
29972,18527
29963,18532
29904,18550
29873,18553
29857,18555
29827,18555
29811,18553
29780,18550
29721,18532
29712,18527
29666,18503
29618,18463
29579,18415
29550,18361
29550,18361
29532,18301
29526,18240
29532,18178
29550,18119
29551,18115
29579,18064
29618,18016
29666,17977
29721,17947
29721,17947
29780,17929
29811,17926
29827,17925
29857,17925
29873,17926
Z" /> 
<path style="fill:#000000; fill-opacity:1.0; 
stroke:#000000; stroke-width:0; stroke-opacity:1; 
stroke-linecap:round; stroke-linejoin:round;fill-rule:evenodd;"
d="M 27012,17548
27043,17557
27075,17567
27075,17567
27133,17598
27184,17640
27226,17691
27257,17749
27276,17812
27283,17877
27276,17943
27257,18006
27226,18064
27184,18115
27133,18157
27094,18178
27075,18188
27043,18198
27012,18207
26963,18212
26831,18212
26782,18207
26751,18198
26719,18188
26700,18178
26661,18157
26610,18115
26568,18064
26537,18006
26518,17943
26512,17877
26518,17812
26537,17749
26568,17691
26610,17640
26661,17598
26719,17567
26719,17567
26751,17557
26782,17548
26831,17543
26963,17543
27012,17548
Z" /> 
<path style="fill:#000000; fill-opacity:1.0; 
stroke:#000000; stroke-width:0; stroke-opacity:1; 
stroke-linecap:round; stroke-linejoin:round;fill-rule:evenodd;"
d="M 32873,16926
32904,16929
32963,16947
32963,16947
33018,16977
33066,17016
33105,17064
33131,17111
33134,17119
33152,17178
33159,17240
33152,17301
33134,17361
33134,17361
33105,17415
33066,17463
33018,17503
32963,17532
32963,17532
32904,17550
32873,17553
32857,17555
32827,17555
32811,17553
32780,17550
32721,17532
32721,17532
32666,17503
32618,17463
32579,17415
32550,17361
32550,17361
32532,17301
32526,17240
32532,17178
32550,17119
32553,17111
32579,17064
32618,17016
32666,16977
32721,16947
32721,16947
32780,16929
32811,16926
32827,16925
32857,16925
32873,16926
Z" /> 
<path style="fill:#000000; fill-opacity:1.0; 
stroke:#000000; stroke-width:0; stroke-opacity:1; 
stroke-linecap:round; stroke-linejoin:round;fill-rule:evenodd;"
d="M 29873,16926
29904,16929
29963,16947
29963,16947
30018,16977
30066,17016
30105,17064
30131,17111
30134,17119
30152,17178
30159,17240
30152,17301
30134,17361
30134,17361
30105,17415
30066,17463
30018,17503
29963,17532
29963,17532
29904,17550
29873,17553
29857,17555
29827,17555
29811,17553
29780,17550
29721,17532
29721,17532
29666,17503
29618,17463
29579,17415
29550,17361
29550,17361
29532,17301
29526,17240
29532,17178
29550,17119
29553,17111
29579,17064
29618,17016
29666,16977
29721,16947
29721,16947
29780,16929
29811,16926
29827,16925
29857,16925
29873,16926
Z" /> 
<path style="fill:#000000; fill-opacity:1.0; 
stroke:#000000; stroke-width:0; stroke-opacity:1; 
stroke-linecap:round; stroke-linejoin:round;fill-rule:evenodd;"
d="M 17530,16736
17561,16739
17621,16757
17621,16757
17675,16786
17723,16826
17763,16874
17790,16925
17792,16928
17810,16988
17816,17050
17810,17111
17792,17171
17792,17171
17763,17225
17723,17273
17675,17313
17631,17336
17621,17342
17561,17360
17530,17363
17515,17364
17484,17364
17469,17363
17438,17360
17378,17342
17368,17336
17324,17313
17276,17273
17236,17225
17207,17171
17207,17171
17189,17111
17183,17050
17189,16988
17207,16928
17209,16925
17236,16874
17276,16826
17324,16786
17378,16757
17378,16757
17438,16739
17469,16736
17484,16735
17515,16735
17530,16736
Z" /> 
<path style="fill:#000000; fill-opacity:1.0; 
stroke:#000000; stroke-width:0; stroke-opacity:1; 
stroke-linecap:round; stroke-linejoin:round;fill-rule:evenodd;"
d="M 23814,17364
23185,17364
23185,16735
23814,16735
23814,17364
Z" /> 
<path style="fill:#000000; fill-opacity:1.0; 
stroke:#000000; stroke-width:0; stroke-opacity:1; 
stroke-linecap:round; stroke-linejoin:round;fill-rule:evenodd;"
d="M 10530,16736
10561,16739
10621,16757
10621,16757
10675,16786
10723,16826
10763,16874
10790,16925
10792,16928
10810,16988
10816,17050
10810,17111
10792,17171
10792,17171
10763,17225
10723,17273
10675,17313
10631,17336
10621,17342
10561,17360
10530,17363
10515,17364
10484,17364
10469,17363
10438,17360
10378,17342
10368,17336
10324,17313
10276,17273
10236,17225
10207,17171
10207,17171
10189,17111
10183,17050
10189,16988
10207,16928
10209,16925
10236,16874
10276,16826
10324,16786
10378,16757
10378,16757
10438,16739
10469,16736
10484,16735
10515,16735
10530,16736
Z" /> 
<path style="fill:#000000; fill-opacity:1.0; 
stroke:#000000; stroke-width:0; stroke-opacity:1; 
stroke-linecap:round; stroke-linejoin:round;fill-rule:evenodd;"
d="M 16530,16736
16561,16739
16621,16757
16621,16757
16675,16786
16723,16826
16763,16874
16790,16925
16792,16928
16810,16988
16816,17050
16810,17111
16792,17171
16792,17171
16763,17225
16723,17273
16675,17313
16631,17336
16621,17342
16561,17360
16530,17363
16515,17364
16484,17364
16469,17363
16438,17360
16378,17342
16368,17336
16324,17313
16276,17273
16236,17225
16207,17171
16207,17171
16189,17111
16183,17050
16189,16988
16207,16928
16209,16925
16236,16874
16276,16826
16324,16786
16378,16757
16378,16757
16438,16739
16469,16736
16484,16735
16515,16735
16530,16736
Z" /> 
<path style="fill:#000000; fill-opacity:1.0; 
stroke:#000000; stroke-width:0; stroke-opacity:1; 
stroke-linecap:round; stroke-linejoin:round;fill-rule:evenodd;"
d="M 11530,16736
11561,16739
11621,16757
11621,16757
11675,16786
11723,16826
11763,16874
11790,16925
11792,16928
11810,16988
11816,17050
11810,17111
11792,17171
11792,17171
11763,17225
11723,17273
11675,17313
11631,17336
11621,17342
11561,17360
11530,17363
11515,17364
11484,17364
11469,17363
11438,17360
11378,17342
11368,17336
11324,17313
11276,17273
11236,17225
11207,17171
11207,17171
11189,17111
11183,17050
11189,16988
11207,16928
11209,16925
11236,16874
11276,16826
11324,16786
11378,16757
11378,16757
11438,16739
11469,16736
11484,16735
11515,16735
11530,16736
Z" /> 
<path style="fill:#000000; fill-opacity:1.0; 
stroke:#000000; stroke-width:0; stroke-opacity:1; 
stroke-linecap:round; stroke-linejoin:round;fill-rule:evenodd;"
d="M 15530,16736
15561,16739
15621,16757
15621,16757
15675,16786
15723,16826
15763,16874
15790,16925
15792,16928
15810,16988
15816,17050
15810,17111
15792,17171
15792,17171
15763,17225
15723,17273
15675,17313
15631,17336
15621,17342
15561,17360
15530,17363
15515,17364
15484,17364
15469,17363
15438,17360
15378,17342
15368,17336
15324,17313
15276,17273
15236,17225
15207,17171
15207,17171
15189,17111
15183,17050
15189,16988
15207,16928
15209,16925
15236,16874
15276,16826
15324,16786
15378,16757
15378,16757
15438,16739
15469,16736
15484,16735
15515,16735
15530,16736
Z" /> 
<path style="fill:#000000; fill-opacity:1.0; 
stroke:#000000; stroke-width:0; stroke-opacity:1; 
stroke-linecap:round; stroke-linejoin:round;fill-rule:evenodd;"
d="M 12530,16736
12561,16739
12621,16757
12621,16757
12675,16786
12723,16826
12763,16874
12790,16925
12792,16928
12810,16988
12816,17050
12810,17111
12792,17171
12792,17171
12763,17225
12723,17273
12675,17313
12631,17336
12621,17342
12561,17360
12530,17363
12515,17364
12484,17364
12469,17363
12438,17360
12378,17342
12368,17336
12324,17313
12276,17273
12236,17225
12207,17171
12207,17171
12189,17111
12183,17050
12189,16988
12207,16928
12209,16925
12236,16874
12276,16826
12324,16786
12378,16757
12378,16757
12438,16739
12469,16736
12484,16735
12515,16735
12530,16736
Z" /> 
<path style="fill:#000000; fill-opacity:1.0; 
stroke:#000000; stroke-width:0; stroke-opacity:1; 
stroke-linecap:round; stroke-linejoin:round;fill-rule:evenodd;"
d="M 14530,16736
14561,16739
14621,16757
14621,16757
14675,16786
14723,16826
14763,16874
14790,16925
14792,16928
14810,16988
14816,17050
14810,17111
14792,17171
14792,17171
14763,17225
14723,17273
14675,17313
14631,17336
14621,17342
14561,17360
14530,17363
14515,17364
14484,17364
14469,17363
14438,17360
14378,17342
14368,17336
14324,17313
14276,17273
14236,17225
14207,17171
14207,17171
14189,17111
14183,17050
14189,16988
14207,16928
14209,16925
14236,16874
14276,16826
14324,16786
14378,16757
14378,16757
14438,16739
14469,16736
14484,16735
14515,16735
14530,16736
Z" /> 
<path style="fill:#000000; fill-opacity:1.0; 
stroke:#000000; stroke-width:0; stroke-opacity:1; 
stroke-linecap:round; stroke-linejoin:round;fill-rule:evenodd;"
d="M 13530,16736
13561,16739
13621,16757
13621,16757
13675,16786
13723,16826
13763,16874
13790,16925
13792,16928
13810,16988
13816,17050
13810,17111
13792,17171
13792,17171
13763,17225
13723,17273
13675,17313
13631,17336
13621,17342
13561,17360
13530,17363
13515,17364
13484,17364
13469,17363
13438,17360
13378,17342
13368,17336
13324,17313
13276,17273
13236,17225
13207,17171
13207,17171
13189,17111
13183,17050
13189,16988
13207,16928
13209,16925
13236,16874
13276,16826
13324,16786
13378,16757
13378,16757
13438,16739
13469,16736
13484,16735
13515,16735
13530,16736
Z" /> 
<path style="fill:#000000; fill-opacity:1.0; 
stroke:#000000; stroke-width:0; stroke-opacity:1; 
stroke-linecap:round; stroke-linejoin:round;fill-rule:evenodd;"
d="M 18530,16736
18561,16739
18621,16757
18621,16757
18675,16786
18723,16826
18763,16874
18790,16925
18792,16928
18810,16988
18816,17050
18810,17111
18792,17171
18792,17171
18763,17225
18723,17273
18675,17313
18631,17336
18621,17342
18561,17360
18530,17363
18515,17364
18484,17364
18469,17363
18438,17360
18378,17342
18368,17336
18324,17313
18276,17273
18236,17225
18207,17171
18207,17171
18189,17111
18183,17050
18189,16988
18207,16928
18209,16925
18236,16874
18276,16826
18324,16786
18378,16757
18378,16757
18438,16739
18469,16736
18484,16735
18515,16735
18530,16736
Z" /> 
<path style="fill:#000000; fill-opacity:1.0; 
stroke:#000000; stroke-width:0; stroke-opacity:1; 
stroke-linecap:round; stroke-linejoin:round;fill-rule:evenodd;"
d="M 19530,16736
19561,16739
19621,16757
19621,16757
19675,16786
19723,16826
19763,16874
19790,16925
19792,16928
19810,16988
19816,17050
19810,17111
19792,17171
19792,17171
19763,17225
19723,17273
19675,17313
19631,17336
19621,17342
19561,17360
19530,17363
19515,17364
19484,17364
19469,17363
19438,17360
19378,17342
19368,17336
19324,17313
19276,17273
19236,17225
19207,17171
19207,17171
19189,17111
19183,17050
19189,16988
19207,16928
19209,16925
19236,16874
19276,16826
19324,16786
19378,16757
19378,16757
19438,16739
19469,16736
19484,16735
19515,16735
19530,16736
Z" /> 
<path style="fill:#000000; fill-opacity:1.0; 
stroke:#000000; stroke-width:0; stroke-opacity:1; 
stroke-linecap:round; stroke-linejoin:round;fill-rule:evenodd;"
d="M 20530,16736
20561,16739
20621,16757
20621,16757
20675,16786
20723,16826
20763,16874
20790,16925
20792,16928
20810,16988
20816,17050
20810,17111
20792,17171
20792,17171
20763,17225
20723,17273
20675,17313
20631,17336
20621,17342
20561,17360
20530,17363
20515,17364
20484,17364
20469,17363
20438,17360
20378,17342
20368,17336
20324,17313
20276,17273
20236,17225
20207,17171
20207,17171
20189,17111
20183,17050
20189,16988
20207,16928
20209,16925
20236,16874
20276,16826
20324,16786
20378,16757
20378,16757
20438,16739
20469,16736
20484,16735
20515,16735
20530,16736
Z" /> 
<path style="fill:#000000; fill-opacity:1.0; 
stroke:#000000; stroke-width:0; stroke-opacity:1; 
stroke-linecap:round; stroke-linejoin:round;fill-rule:evenodd;"
d="M 21530,16736
21561,16739
21621,16757
21621,16757
21675,16786
21723,16826
21763,16874
21790,16925
21792,16928
21810,16988
21816,17050
21810,17111
21792,17171
21792,17171
21763,17225
21723,17273
21675,17313
21631,17336
21621,17342
21561,17360
21530,17363
21515,17364
21484,17364
21469,17363
21438,17360
21378,17342
21368,17336
21324,17313
21276,17273
21236,17225
21207,17171
21207,17171
21189,17111
21183,17050
21189,16988
21207,16928
21209,16925
21236,16874
21276,16826
21324,16786
21378,16757
21378,16757
21438,16739
21469,16736
21484,16735
21515,16735
21530,16736
Z" /> 
<path style="fill:#000000; fill-opacity:1.0; 
stroke:#000000; stroke-width:0; stroke-opacity:1; 
stroke-linecap:round; stroke-linejoin:round;fill-rule:evenodd;"
d="M 22530,16736
22561,16739
22621,16757
22621,16757
22675,16786
22723,16826
22763,16874
22790,16925
22792,16928
22810,16988
22816,17050
22810,17111
22792,17171
22792,17171
22763,17225
22723,17273
22675,17313
22631,17336
22621,17342
22561,17360
22530,17363
22515,17364
22484,17364
22469,17363
22438,17360
22378,17342
22368,17336
22324,17313
22276,17273
22236,17225
22207,17171
22207,17171
22189,17111
22183,17050
22189,16988
22207,16928
22209,16925
22236,16874
22276,16826
22324,16786
22378,16757
22378,16757
22438,16739
22469,16736
22484,16735
22515,16735
22530,16736
Z" /> 
<path style="fill:#000000; fill-opacity:1.0; 
stroke:#000000; stroke-width:0; stroke-opacity:1; 
stroke-linecap:round; stroke-linejoin:round;fill-rule:evenodd;"
d="M 3409,16450
3493,16485
3493,16485
3569,16535
3633,16600
3670,16655
3683,16675
3718,16759
3736,16848
3736,16939
3718,17028
3696,17080
3683,17111
3633,17187
3569,17251
3493,17301
3493,17301
3493,17301
3409,17336
3320,17354
3230,17354
3141,17336
3057,17301
3057,17301
3057,17301
2981,17251
2917,17187
2867,17111
2854,17080
2832,17028
2814,16939
2814,16848
2832,16759
2867,16675
2880,16655
2917,16600
2981,16535
3057,16485
3057,16485
3141,16450
3230,16433
3320,16433
3409,16450
Z" /> 
<path style="fill:#000000; fill-opacity:1.0; 
stroke:#000000; stroke-width:0; stroke-opacity:1; 
stroke-linecap:round; stroke-linejoin:round;fill-rule:evenodd;"
d="M 1441,16450
1525,16485
1525,16485
1600,16535
1664,16600
1702,16655
1715,16675
1750,16759
1767,16848
1767,16939
1750,17028
1728,17080
1715,17111
1664,17187
1600,17251
1525,17301
1525,17301
1525,17301
1441,17336
1352,17354
1261,17354
1172,17336
1088,17301
1088,17301
1088,17301
1013,17251
949,17187
898,17111
885,17080
864,17028
846,16939
846,16848
864,16759
898,16675
911,16655
949,16600
1013,16535
1088,16485
1088,16485
1172,16450
1261,16433
1352,16433
1441,16450
Z" /> 
<path style="fill:#000000; fill-opacity:1.0; 
stroke:#000000; stroke-width:0; stroke-opacity:1; 
stroke-linecap:round; stroke-linejoin:round;fill-rule:evenodd;"
d="M 27012,16563
27043,16573
27075,16583
27075,16583
27133,16614
27184,16655
27226,16706
27257,16765
27264,16786
27276,16828
27283,16893
27276,16959
27257,17022
27226,17080
27184,17131
27133,17173
27075,17204
27075,17204
27043,17213
27012,17223
26963,17228
26831,17228
26782,17223
26751,17213
26719,17204
26719,17204
26661,17173
26610,17131
26568,17080
26537,17022
26518,16959
26512,16893
26518,16828
26531,16786
26537,16765
26568,16706
26610,16655
26661,16614
26719,16583
26719,16583
26751,16573
26782,16563
26831,16559
26963,16559
27012,16563
Z" /> 
<path style="fill:#000000; fill-opacity:1.0; 
stroke:#000000; stroke-width:0; stroke-opacity:1; 
stroke-linecap:round; stroke-linejoin:round;fill-rule:evenodd;"
d="M 29873,15926
29904,15929
29963,15947
29963,15947
30018,15977
30018,15977
30018,15977
30066,16016
30105,16064
30134,16119
30152,16178
30159,16240
30152,16301
30134,16361
30134,16361
30105,16415
30066,16463
30018,16503
29963,16532
29963,16532
29904,16550
29873,16553
29857,16555
29827,16555
29811,16553
29780,16550
29721,16532
29721,16532
29666,16503
29618,16463
29579,16415
29550,16361
29550,16361
29532,16301
29526,16240
29532,16178
29550,16119
29579,16064
29618,16016
29666,15977
29666,15977
29666,15977
29721,15947
29721,15947
29780,15929
29811,15926
29827,15925
29857,15925
29873,15926
Z" /> 
<path style="fill:#000000; fill-opacity:1.0; 
stroke:#000000; stroke-width:0; stroke-opacity:1; 
stroke-linecap:round; stroke-linejoin:round;fill-rule:evenodd;"
d="M 32873,15926
32904,15929
32963,15947
32963,15947
33018,15977
33018,15977
33018,15977
33066,16016
33105,16064
33134,16119
33152,16178
33159,16240
33152,16301
33134,16361
33134,16361
33105,16415
33066,16463
33018,16503
32963,16532
32963,16532
32904,16550
32873,16553
32857,16555
32827,16555
32811,16553
32780,16550
32721,16532
32721,16532
32666,16503
32618,16463
32579,16415
32550,16361
32550,16361
32532,16301
32526,16240
32532,16178
32550,16119
32579,16064
32618,16016
32666,15977
32666,15977
32666,15977
32721,15947
32721,15947
32780,15929
32811,15926
32827,15925
32857,15925
32873,15926
Z" /> 
<path style="fill:#000000; fill-opacity:1.0; 
stroke:#000000; stroke-width:0; stroke-opacity:1; 
stroke-linecap:round; stroke-linejoin:round;fill-rule:evenodd;"
d="M 27012,15579
27043,15589
27075,15598
27075,15598
27133,15629
27184,15671
27226,15722
27257,15780
27276,15843
27283,15909
27276,15975
27257,16038
27226,16096
27184,16147
27133,16189
27075,16220
27075,16220
27043,16229
27012,16239
26963,16244
26831,16244
26782,16239
26751,16229
26719,16220
26719,16220
26661,16189
26610,16147
26568,16096
26537,16038
26518,15975
26512,15909
26518,15843
26537,15780
26568,15722
26610,15671
26661,15629
26719,15598
26719,15598
26751,15589
26782,15579
26831,15574
26963,15574
27012,15579
Z" /> 
<path style="fill:#000000; fill-opacity:1.0; 
stroke:#000000; stroke-width:0; stroke-opacity:1; 
stroke-linecap:round; stroke-linejoin:round;fill-rule:evenodd;"
d="M 20086,15016
20139,15038
20188,15070
20229,15111
20261,15160
20283,15213
20295,15270
20295,15329
20283,15386
20261,15439
20229,15488
20188,15529
20139,15561
20086,15583
20029,15595
19970,15595
19913,15583
19860,15561
19811,15529
19770,15488
19738,15439
19716,15386
19704,15329
19704,15270
19716,15213
19738,15160
19770,15111
19811,15070
19860,15038
19913,15016
19970,15004
20029,15004
20086,15016
Z" /> 
<path style="fill:#000000; fill-opacity:1.0; 
stroke:#000000; stroke-width:0; stroke-opacity:1; 
stroke-linecap:round; stroke-linejoin:round;fill-rule:evenodd;"
d="M 18164,15016
18218,15038
18266,15070
18308,15111
18340,15160
18362,15213
18374,15270
18374,15329
18362,15386
18340,15439
18308,15488
18266,15529
18218,15561
18164,15583
18107,15595
18049,15595
17992,15583
17938,15561
17890,15529
17849,15488
17817,15439
17794,15386
17783,15329
17783,15270
17794,15213
17817,15160
17849,15111
17890,15070
17938,15038
17992,15016
18049,15004
18107,15004
18164,15016
Z" /> 
<path style="fill:#000000; fill-opacity:1.0; 
stroke:#000000; stroke-width:0; stroke-opacity:1; 
stroke-linecap:round; stroke-linejoin:round;fill-rule:evenodd;"
d="M 32873,14926
32904,14929
32963,14947
32963,14947
33018,14977
33066,15016
33105,15064
33131,15111
33134,15119
33152,15178
33159,15240
33152,15301
33144,15329
33134,15361
33105,15415
33066,15463
33018,15503
32969,15529
32963,15532
32904,15550
32873,15553
32857,15555
32827,15555
32811,15553
32780,15550
32721,15532
32715,15529
32666,15503
32618,15463
32579,15415
32550,15361
32540,15329
32532,15301
32526,15240
32532,15178
32550,15119
32554,15111
32579,15064
32618,15016
32666,14977
32721,14947
32721,14947
32780,14929
32811,14926
32827,14925
32857,14925
32873,14926
Z" /> 
<path style="fill:#000000; fill-opacity:1.0; 
stroke:#000000; stroke-width:0; stroke-opacity:1; 
stroke-linecap:round; stroke-linejoin:round;fill-rule:evenodd;"
d="M 29873,14926
29904,14929
29963,14947
29963,14947
30018,14977
30066,15016
30105,15064
30131,15111
30134,15119
30152,15178
30159,15240
30152,15301
30144,15329
30134,15361
30105,15415
30066,15463
30018,15503
29969,15529
29963,15532
29904,15550
29873,15553
29857,15555
29827,15555
29811,15553
29780,15550
29721,15532
29715,15529
29666,15503
29618,15463
29579,15415
29550,15361
29540,15329
29532,15301
29526,15240
29532,15178
29550,15119
29554,15111
29579,15064
29618,15016
29666,14977
29721,14947
29721,14947
29780,14929
29811,14926
29827,14925
29857,14925
29873,14926
Z" /> 
<path style="fill:#000000; fill-opacity:1.0; 
stroke:#000000; stroke-width:0; stroke-opacity:1; 
stroke-linecap:round; stroke-linejoin:round;fill-rule:evenodd;"
d="M 27012,14595
27033,14601
27075,14614
27075,14614
27133,14645
27184,14687
27226,14738
27257,14796
27276,14859
27283,14925
27276,14990
27257,15053
27226,15112
27184,15162
27133,15204
27075,15235
27075,15235
27043,15245
27012,15255
26963,15259
26831,15259
26782,15255
26751,15245
26719,15235
26719,15235
26661,15204
26610,15162
26568,15112
26537,15053
26518,14990
26512,14925
26518,14859
26537,14796
26568,14738
26610,14687
26661,14645
26719,14614
26719,14614
26761,14601
26782,14595
26831,14590
26963,14590
27012,14595
Z" /> 
<path style="fill:#000000; fill-opacity:1.0; 
stroke:#000000; stroke-width:0; stroke-opacity:1; 
stroke-linecap:round; stroke-linejoin:round;fill-rule:evenodd;"
d="M 3119,14000
3119,14000
3119,14000
3186,14021
3186,14021
3186,14021
3247,14053
3301,14098
3346,14152
3378,14213
3378,14213
3378,14213
3386,14240
3399,14280
3406,14350
3399,14419
3378,14486
3346,14547
3301,14601
3247,14646
3186,14678
3186,14678
3186,14678
3119,14699
3119,14699
3119,14699
3067,14704
3032,14704
2980,14699
2980,14699
2980,14699
2913,14678
2913,14678
2913,14678
2852,14646
2798,14601
2753,14547
2721,14486
2700,14419
2693,14350
2700,14280
2713,14240
2721,14213
2721,14213
2721,14213
2753,14152
2798,14098
2852,14053
2913,14021
2913,14021
2913,14021
2980,14000
2980,14000
2980,14000
3032,13995
3067,13995
3119,14000
Z" /> 
<path style="fill:#000000; fill-opacity:1.0; 
stroke:#000000; stroke-width:0; stroke-opacity:1; 
stroke-linecap:round; stroke-linejoin:round;fill-rule:evenodd;"
d="M 4404,14704
3695,14704
3695,13995
4404,13995
4404,14704
Z" /> 
<path style="fill:#000000; fill-opacity:1.0; 
stroke:#000000; stroke-width:0; stroke-opacity:1; 
stroke-linecap:round; stroke-linejoin:round;fill-rule:evenodd;"
d="M 2119,14000
2119,14000
2119,14000
2186,14021
2186,14021
2186,14021
2247,14053
2301,14098
2346,14152
2378,14213
2378,14213
2378,14213
2386,14240
2399,14280
2406,14350
2399,14419
2378,14486
2346,14547
2301,14601
2247,14646
2186,14678
2186,14678
2186,14678
2119,14699
2119,14699
2119,14699
2067,14704
2032,14704
1980,14699
1980,14699
1980,14699
1913,14678
1913,14678
1913,14678
1852,14646
1798,14601
1753,14547
1721,14486
1700,14419
1693,14350
1700,14280
1713,14240
1721,14213
1721,14213
1721,14213
1753,14152
1798,14098
1852,14053
1913,14021
1913,14021
1913,14021
1980,14000
1980,14000
1980,14000
2032,13995
2067,13995
2119,14000
Z" /> 
<path style="fill:#000000; fill-opacity:1.0; 
stroke:#000000; stroke-width:0; stroke-opacity:1; 
stroke-linecap:round; stroke-linejoin:round;fill-rule:evenodd;"
d="M 29873,13926
29904,13929
29963,13947
29963,13947
30018,13977
30066,14016
30105,14064
30134,14119
30134,14119
30152,14178
30159,14240
30152,14301
30138,14350
30134,14361
30105,14415
30066,14463
30018,14503
29963,14532
29963,14532
29904,14550
29873,14553
29857,14555
29827,14555
29811,14553
29780,14550
29721,14532
29721,14532
29666,14503
29618,14463
29579,14415
29550,14361
29546,14350
29532,14301
29526,14240
29532,14178
29550,14119
29550,14119
29579,14064
29618,14016
29666,13977
29721,13947
29721,13947
29780,13929
29811,13926
29827,13925
29857,13925
29873,13926
Z" /> 
<path style="fill:#000000; fill-opacity:1.0; 
stroke:#000000; stroke-width:0; stroke-opacity:1; 
stroke-linecap:round; stroke-linejoin:round;fill-rule:evenodd;"
d="M 32873,13926
32904,13929
32963,13947
32963,13947
33018,13977
33066,14016
33105,14064
33134,14119
33134,14119
33152,14178
33159,14240
33152,14301
33138,14350
33134,14361
33105,14415
33066,14463
33018,14503
32963,14532
32963,14532
32904,14550
32873,14553
32857,14555
32827,14555
32811,14553
32780,14550
32721,14532
32721,14532
32666,14503
32618,14463
32579,14415
32550,14361
32546,14350
32532,14301
32526,14240
32532,14178
32550,14119
32550,14119
32579,14064
32618,14016
32666,13977
32721,13947
32721,13947
32780,13929
32811,13926
32827,13925
32857,13925
32873,13926
Z" /> 
<path style="fill:#000000; fill-opacity:1.0; 
stroke:#000000; stroke-width:0; stroke-opacity:1; 
stroke-linecap:round; stroke-linejoin:round;fill-rule:evenodd;"
d="M 27012,13611
27043,13620
27075,13630
27075,13630
27133,13661
27184,13703
27226,13754
27257,13812
27276,13875
27283,13940
27276,14006
27276,14006
27262,14053
27257,14069
27226,14127
27184,14178
27133,14220
27096,14240
27075,14251
27043,14261
27012,14270
26963,14275
26831,14275
26782,14270
26751,14261
26719,14251
26698,14240
26661,14220
26610,14178
26568,14127
26537,14069
26533,14053
26518,14006
26518,14006
26512,13940
26518,13875
26537,13812
26568,13754
26610,13703
26661,13661
26719,13630
26719,13630
26751,13620
26782,13611
26831,13606
26963,13606
27012,13611
Z" /> 
<path style="fill:#000000; fill-opacity:1.0; 
stroke:#000000; stroke-width:0; stroke-opacity:1; 
stroke-linecap:round; stroke-linejoin:round;fill-rule:evenodd;"
d="M 11630,13286
11661,13289
11721,13307
11721,13307
11775,13336
11775,13336
11775,13336
11823,13376
11863,13424
11892,13478
11910,13538
11916,13600
11910,13661
11897,13703
11892,13721
11863,13775
11823,13823
11775,13863
11721,13892
11721,13892
11661,13910
11630,13913
11615,13914
11584,13914
11569,13913
11538,13910
11478,13892
11478,13892
11424,13863
11376,13823
11336,13775
11307,13721
11302,13703
11289,13661
11283,13600
11289,13538
11307,13478
11336,13424
11376,13376
11424,13336
11424,13336
11424,13336
11478,13307
11478,13307
11538,13289
11569,13286
11584,13285
11615,13285
11630,13286
Z" /> 
<path style="fill:#000000; fill-opacity:1.0; 
stroke:#000000; stroke-width:0; stroke-opacity:1; 
stroke-linecap:round; stroke-linejoin:round;fill-rule:evenodd;"
d="M 14630,13286
14661,13289
14721,13307
14721,13307
14775,13336
14775,13336
14775,13336
14823,13376
14863,13424
14892,13478
14910,13538
14916,13600
14910,13661
14897,13703
14892,13721
14863,13775
14823,13823
14775,13863
14721,13892
14721,13892
14661,13910
14630,13913
14615,13914
14584,13914
14569,13913
14538,13910
14478,13892
14478,13892
14424,13863
14376,13823
14336,13775
14307,13721
14302,13703
14289,13661
14283,13600
14289,13538
14307,13478
14336,13424
14376,13376
14424,13336
14424,13336
14424,13336
14478,13307
14478,13307
14538,13289
14569,13286
14584,13285
14615,13285
14630,13286
Z" /> 
<path style="fill:#000000; fill-opacity:1.0; 
stroke:#000000; stroke-width:0; stroke-opacity:1; 
stroke-linecap:round; stroke-linejoin:round;fill-rule:evenodd;"
d="M 23630,13286
23661,13289
23721,13307
23721,13307
23775,13336
23775,13336
23775,13336
23823,13376
23863,13424
23892,13478
23910,13538
23916,13600
23910,13661
23897,13703
23892,13721
23863,13775
23823,13823
23775,13863
23721,13892
23721,13892
23661,13910
23630,13913
23615,13914
23584,13914
23569,13913
23538,13910
23478,13892
23478,13892
23424,13863
23376,13823
23336,13775
23307,13721
23302,13703
23289,13661
23283,13600
23289,13538
23307,13478
23336,13424
23376,13376
23424,13336
23424,13336
23424,13336
23478,13307
23478,13307
23538,13289
23569,13286
23584,13285
23615,13285
23630,13286
Z" /> 
<path style="fill:#000000; fill-opacity:1.0; 
stroke:#000000; stroke-width:0; stroke-opacity:1; 
stroke-linecap:round; stroke-linejoin:round;fill-rule:evenodd;"
d="M 22630,13286
22661,13289
22721,13307
22721,13307
22775,13336
22775,13336
22775,13336
22823,13376
22863,13424
22892,13478
22910,13538
22916,13600
22910,13661
22897,13703
22892,13721
22863,13775
22823,13823
22775,13863
22721,13892
22721,13892
22661,13910
22630,13913
22615,13914
22584,13914
22569,13913
22538,13910
22478,13892
22478,13892
22424,13863
22376,13823
22336,13775
22307,13721
22302,13703
22289,13661
22283,13600
22289,13538
22307,13478
22336,13424
22376,13376
22424,13336
22424,13336
22424,13336
22478,13307
22478,13307
22538,13289
22569,13286
22584,13285
22615,13285
22630,13286
Z" /> 
<path style="fill:#000000; fill-opacity:1.0; 
stroke:#000000; stroke-width:0; stroke-opacity:1; 
stroke-linecap:round; stroke-linejoin:round;fill-rule:evenodd;"
d="M 12630,13286
12661,13289
12721,13307
12721,13307
12775,13336
12775,13336
12775,13336
12823,13376
12863,13424
12892,13478
12910,13538
12916,13600
12910,13661
12897,13703
12892,13721
12863,13775
12823,13823
12775,13863
12721,13892
12721,13892
12661,13910
12630,13913
12615,13914
12584,13914
12569,13913
12538,13910
12478,13892
12478,13892
12424,13863
12376,13823
12336,13775
12307,13721
12302,13703
12289,13661
12283,13600
12289,13538
12307,13478
12336,13424
12376,13376
12424,13336
12424,13336
12424,13336
12478,13307
12478,13307
12538,13289
12569,13286
12584,13285
12615,13285
12630,13286
Z" /> 
<path style="fill:#000000; fill-opacity:1.0; 
stroke:#000000; stroke-width:0; stroke-opacity:1; 
stroke-linecap:round; stroke-linejoin:round;fill-rule:evenodd;"
d="M 21630,13286
21661,13289
21721,13307
21721,13307
21775,13336
21775,13336
21775,13336
21823,13376
21863,13424
21892,13478
21910,13538
21916,13600
21910,13661
21897,13703
21892,13721
21863,13775
21823,13823
21775,13863
21721,13892
21721,13892
21661,13910
21630,13913
21615,13914
21584,13914
21569,13913
21538,13910
21478,13892
21478,13892
21424,13863
21376,13823
21336,13775
21307,13721
21302,13703
21289,13661
21283,13600
21289,13538
21307,13478
21336,13424
21376,13376
21424,13336
21424,13336
21424,13336
21478,13307
21478,13307
21538,13289
21569,13286
21584,13285
21615,13285
21630,13286
Z" /> 
<path style="fill:#000000; fill-opacity:1.0; 
stroke:#000000; stroke-width:0; stroke-opacity:1; 
stroke-linecap:round; stroke-linejoin:round;fill-rule:evenodd;"
d="M 20630,13286
20661,13289
20721,13307
20721,13307
20775,13336
20775,13336
20775,13336
20823,13376
20863,13424
20892,13478
20910,13538
20916,13600
20910,13661
20897,13703
20892,13721
20863,13775
20823,13823
20775,13863
20721,13892
20721,13892
20661,13910
20630,13913
20615,13914
20584,13914
20569,13913
20538,13910
20478,13892
20478,13892
20424,13863
20376,13823
20336,13775
20307,13721
20302,13703
20289,13661
20283,13600
20289,13538
20307,13478
20336,13424
20376,13376
20424,13336
20424,13336
20424,13336
20478,13307
20478,13307
20538,13289
20569,13286
20584,13285
20615,13285
20630,13286
Z" /> 
<path style="fill:#000000; fill-opacity:1.0; 
stroke:#000000; stroke-width:0; stroke-opacity:1; 
stroke-linecap:round; stroke-linejoin:round;fill-rule:evenodd;"
d="M 15630,13286
15661,13289
15721,13307
15721,13307
15775,13336
15775,13336
15775,13336
15823,13376
15863,13424
15892,13478
15910,13538
15916,13600
15910,13661
15897,13703
15892,13721
15863,13775
15823,13823
15775,13863
15721,13892
15721,13892
15661,13910
15630,13913
15615,13914
15584,13914
15569,13913
15538,13910
15478,13892
15478,13892
15424,13863
15376,13823
15336,13775
15307,13721
15302,13703
15289,13661
15283,13600
15289,13538
15307,13478
15336,13424
15376,13376
15424,13336
15424,13336
15424,13336
15478,13307
15478,13307
15538,13289
15569,13286
15584,13285
15615,13285
15630,13286
Z" /> 
<path style="fill:#000000; fill-opacity:1.0; 
stroke:#000000; stroke-width:0; stroke-opacity:1; 
stroke-linecap:round; stroke-linejoin:round;fill-rule:evenodd;"
d="M 19630,13286
19661,13289
19721,13307
19721,13307
19775,13336
19775,13336
19775,13336
19823,13376
19863,13424
19892,13478
19910,13538
19916,13600
19910,13661
19897,13703
19892,13721
19863,13775
19823,13823
19775,13863
19721,13892
19721,13892
19661,13910
19630,13913
19615,13914
19584,13914
19569,13913
19538,13910
19478,13892
19478,13892
19424,13863
19376,13823
19336,13775
19307,13721
19302,13703
19289,13661
19283,13600
19289,13538
19307,13478
19336,13424
19376,13376
19424,13336
19424,13336
19424,13336
19478,13307
19478,13307
19538,13289
19569,13286
19584,13285
19615,13285
19630,13286
Z" /> 
<path style="fill:#000000; fill-opacity:1.0; 
stroke:#000000; stroke-width:0; stroke-opacity:1; 
stroke-linecap:round; stroke-linejoin:round;fill-rule:evenodd;"
d="M 18630,13286
18661,13289
18721,13307
18721,13307
18775,13336
18775,13336
18775,13336
18823,13376
18863,13424
18892,13478
18910,13538
18916,13600
18910,13661
18897,13703
18892,13721
18863,13775
18823,13823
18775,13863
18721,13892
18721,13892
18661,13910
18630,13913
18615,13914
18584,13914
18569,13913
18538,13910
18478,13892
18478,13892
18424,13863
18376,13823
18336,13775
18307,13721
18302,13703
18289,13661
18283,13600
18289,13538
18307,13478
18336,13424
18376,13376
18424,13336
18424,13336
18424,13336
18478,13307
18478,13307
18538,13289
18569,13286
18584,13285
18615,13285
18630,13286
Z" /> 
<path style="fill:#000000; fill-opacity:1.0; 
stroke:#000000; stroke-width:0; stroke-opacity:1; 
stroke-linecap:round; stroke-linejoin:round;fill-rule:evenodd;"
d="M 17630,13286
17661,13289
17721,13307
17721,13307
17775,13336
17775,13336
17775,13336
17823,13376
17863,13424
17892,13478
17910,13538
17916,13600
17910,13661
17897,13703
17892,13721
17863,13775
17823,13823
17775,13863
17721,13892
17721,13892
17661,13910
17630,13913
17615,13914
17584,13914
17569,13913
17538,13910
17478,13892
17478,13892
17424,13863
17376,13823
17336,13775
17307,13721
17302,13703
17289,13661
17283,13600
17289,13538
17307,13478
17336,13424
17376,13376
17424,13336
17424,13336
17424,13336
17478,13307
17478,13307
17538,13289
17569,13286
17584,13285
17615,13285
17630,13286
Z" /> 
<path style="fill:#000000; fill-opacity:1.0; 
stroke:#000000; stroke-width:0; stroke-opacity:1; 
stroke-linecap:round; stroke-linejoin:round;fill-rule:evenodd;"
d="M 16630,13286
16661,13289
16721,13307
16721,13307
16775,13336
16775,13336
16775,13336
16823,13376
16863,13424
16892,13478
16910,13538
16916,13600
16910,13661
16897,13703
16892,13721
16863,13775
16823,13823
16775,13863
16721,13892
16721,13892
16661,13910
16630,13913
16615,13914
16584,13914
16569,13913
16538,13910
16478,13892
16478,13892
16424,13863
16376,13823
16336,13775
16307,13721
16302,13703
16289,13661
16283,13600
16289,13538
16307,13478
16336,13424
16376,13376
16424,13336
16424,13336
16424,13336
16478,13307
16478,13307
16538,13289
16569,13286
16584,13285
16615,13285
16630,13286
Z" /> 
<path style="fill:#000000; fill-opacity:1.0; 
stroke:#000000; stroke-width:0; stroke-opacity:1; 
stroke-linecap:round; stroke-linejoin:round;fill-rule:evenodd;"
d="M 13630,13286
13661,13289
13721,13307
13721,13307
13775,13336
13775,13336
13775,13336
13823,13376
13863,13424
13892,13478
13910,13538
13916,13600
13910,13661
13897,13703
13892,13721
13863,13775
13823,13823
13775,13863
13721,13892
13721,13892
13661,13910
13630,13913
13615,13914
13584,13914
13569,13913
13538,13910
13478,13892
13478,13892
13424,13863
13376,13823
13336,13775
13307,13721
13302,13703
13289,13661
13283,13600
13289,13538
13307,13478
13336,13424
13376,13376
13424,13336
13424,13336
13424,13336
13478,13307
13478,13307
13538,13289
13569,13286
13584,13285
13615,13285
13630,13286
Z" /> 
<path style="fill:#000000; fill-opacity:1.0; 
stroke:#000000; stroke-width:0; stroke-opacity:1; 
stroke-linecap:round; stroke-linejoin:round;fill-rule:evenodd;"
d="M 10914,13914
10285,13914
10285,13285
10914,13285
10914,13914
Z" /> 
<path style="fill:#000000; fill-opacity:1.0; 
stroke:#000000; stroke-width:0; stroke-opacity:1; 
stroke-linecap:round; stroke-linejoin:round;fill-rule:evenodd;"
d="M 27012,12626
27043,12636
27075,12646
27075,12646
27133,12677
27184,12718
27226,12769
27257,12828
27276,12891
27283,12956
27276,13022
27257,13085
27226,13143
27184,13194
27133,13236
27075,13267
27075,13267
27043,13276
27012,13286
26963,13291
26831,13291
26782,13286
26751,13276
26719,13267
26719,13267
26661,13236
26610,13194
26568,13143
26537,13085
26518,13022
26512,12956
26518,12891
26537,12828
26568,12769
26610,12718
26661,12677
26719,12646
26719,12646
26751,12636
26782,12626
26831,12622
26963,12622
27012,12626
Z" /> 
<path style="fill:#000000; fill-opacity:1.0; 
stroke:#000000; stroke-width:0; stroke-opacity:1; 
stroke-linecap:round; stroke-linejoin:round;fill-rule:evenodd;"
d="M 5507,12210
5507,12210
5507,12210
5543,12225
5559,12236
5575,12247
5602,12274
5612,12288
5623,12305
5624,12306
5639,12342
5646,12380
5646,12419
5639,12457
5639,12457
5624,12493
5602,12525
5575,12552
5543,12574
5543,12574
5543,12574
5507,12589
5469,12596
5430,12596
5392,12589
5356,12574
5356,12574
5356,12574
5324,12552
5297,12525
5275,12493
5260,12457
5260,12457
5253,12419
5253,12380
5260,12342
5275,12306
5276,12305
5287,12288
5297,12274
5324,12247
5340,12236
5356,12225
5392,12210
5392,12210
5392,12210
5430,12203
5469,12203
5507,12210
Z" /> 
<path style="fill:#000000; fill-opacity:1.0; 
stroke:#000000; stroke-width:0; stroke-opacity:1; 
stroke-linecap:round; stroke-linejoin:round;fill-rule:evenodd;"
d="M 27230,11639
27242,11642
27253,11648
27262,11656
27270,11666
27276,11677
27280,11689
27281,11703
27281,12240
27280,12255
27276,12267
27270,12278
27262,12288
27253,12296
27242,12302
27230,12305
27215,12307
26579,12307
26565,12305
26553,12302
26542,12296
26532,12288
26524,12278
26518,12267
26515,12255
26513,12240
26513,11703
26515,11689
26518,11677
26524,11666
26532,11656
26542,11648
26553,11642
26565,11639
26579,11637
27215,11637
27230,11639
Z" /> 
<path style="fill:#000000; fill-opacity:1.0; 
stroke:#000000; stroke-width:0; stroke-opacity:1; 
stroke-linecap:round; stroke-linejoin:round;fill-rule:evenodd;"
d="M 5507,11462
5507,11462
5507,11462
5543,11477
5559,11488
5575,11499
5602,11526
5624,11558
5639,11594
5646,11632
5646,11671
5639,11709
5639,11709
5624,11745
5602,11777
5575,11804
5543,11826
5543,11826
5543,11826
5507,11841
5469,11848
5430,11848
5392,11841
5356,11826
5356,11826
5356,11826
5324,11804
5297,11777
5275,11745
5260,11709
5260,11709
5253,11671
5253,11632
5260,11594
5275,11558
5297,11526
5324,11499
5340,11488
5356,11477
5392,11462
5392,11462
5392,11462
5430,11455
5469,11455
5507,11462
Z" /> 
<path style="fill:#000000; fill-opacity:1.0; 
stroke:#000000; stroke-width:0; stroke-opacity:1; 
stroke-linecap:round; stroke-linejoin:round;fill-rule:evenodd;"
d="M 20630,10286
20661,10289
20721,10307
20721,10307
20775,10336
20775,10336
20775,10336
20823,10376
20863,10424
20892,10478
20910,10538
20916,10600
20910,10661
20892,10721
20892,10721
20863,10775
20823,10823
20775,10863
20721,10892
20721,10892
20661,10910
20630,10913
20615,10914
20584,10914
20569,10913
20538,10910
20478,10892
20478,10892
20424,10863
20376,10823
20336,10775
20307,10721
20307,10721
20289,10661
20283,10600
20289,10538
20307,10478
20336,10424
20376,10376
20424,10336
20424,10336
20424,10336
20478,10307
20478,10307
20538,10289
20569,10286
20584,10285
20615,10285
20630,10286
Z" /> 
<path style="fill:#000000; fill-opacity:1.0; 
stroke:#000000; stroke-width:0; stroke-opacity:1; 
stroke-linecap:round; stroke-linejoin:round;fill-rule:evenodd;"
d="M 16630,10286
16661,10289
16721,10307
16721,10307
16775,10336
16775,10336
16775,10336
16823,10376
16863,10424
16892,10478
16910,10538
16916,10600
16910,10661
16892,10721
16892,10721
16863,10775
16823,10823
16775,10863
16721,10892
16721,10892
16661,10910
16630,10913
16615,10914
16584,10914
16569,10913
16538,10910
16478,10892
16478,10892
16424,10863
16376,10823
16336,10775
16307,10721
16307,10721
16289,10661
16283,10600
16289,10538
16307,10478
16336,10424
16376,10376
16424,10336
16424,10336
16424,10336
16478,10307
16478,10307
16538,10289
16569,10286
16584,10285
16615,10285
16630,10286
Z" /> 
<path style="fill:#000000; fill-opacity:1.0; 
stroke:#000000; stroke-width:0; stroke-opacity:1; 
stroke-linecap:round; stroke-linejoin:round;fill-rule:evenodd;"
d="M 15630,10286
15661,10289
15721,10307
15721,10307
15775,10336
15775,10336
15775,10336
15823,10376
15863,10424
15892,10478
15910,10538
15916,10600
15910,10661
15892,10721
15892,10721
15863,10775
15823,10823
15775,10863
15721,10892
15721,10892
15661,10910
15630,10913
15615,10914
15584,10914
15569,10913
15538,10910
15478,10892
15478,10892
15424,10863
15376,10823
15336,10775
15307,10721
15307,10721
15289,10661
15283,10600
15289,10538
15307,10478
15336,10424
15376,10376
15424,10336
15424,10336
15424,10336
15478,10307
15478,10307
15538,10289
15569,10286
15584,10285
15615,10285
15630,10286
Z" /> 
<path style="fill:#000000; fill-opacity:1.0; 
stroke:#000000; stroke-width:0; stroke-opacity:1; 
stroke-linecap:round; stroke-linejoin:round;fill-rule:evenodd;"
d="M 14630,10286
14661,10289
14721,10307
14721,10307
14775,10336
14775,10336
14775,10336
14823,10376
14863,10424
14892,10478
14910,10538
14916,10600
14910,10661
14892,10721
14892,10721
14863,10775
14823,10823
14775,10863
14721,10892
14721,10892
14661,10910
14630,10913
14615,10914
14584,10914
14569,10913
14538,10910
14478,10892
14478,10892
14424,10863
14376,10823
14336,10775
14307,10721
14307,10721
14289,10661
14283,10600
14289,10538
14307,10478
14336,10424
14376,10376
14424,10336
14424,10336
14424,10336
14478,10307
14478,10307
14538,10289
14569,10286
14584,10285
14615,10285
14630,10286
Z" /> 
<path style="fill:#000000; fill-opacity:1.0; 
stroke:#000000; stroke-width:0; stroke-opacity:1; 
stroke-linecap:round; stroke-linejoin:round;fill-rule:evenodd;"
d="M 10630,10286
10661,10289
10721,10307
10721,10307
10775,10336
10775,10336
10775,10336
10823,10376
10863,10424
10892,10478
10910,10538
10916,10600
10910,10661
10892,10721
10892,10721
10863,10775
10823,10823
10775,10863
10721,10892
10721,10892
10661,10910
10630,10913
10615,10914
10584,10914
10569,10913
10538,10910
10478,10892
10478,10892
10424,10863
10376,10823
10336,10775
10307,10721
10307,10721
10289,10661
10283,10600
10289,10538
10307,10478
10336,10424
10376,10376
10424,10336
10424,10336
10424,10336
10478,10307
10478,10307
10538,10289
10569,10286
10584,10285
10615,10285
10630,10286
Z" /> 
<path style="fill:#000000; fill-opacity:1.0; 
stroke:#000000; stroke-width:0; stroke-opacity:1; 
stroke-linecap:round; stroke-linejoin:round;fill-rule:evenodd;"
d="M 17630,10286
17661,10289
17721,10307
17721,10307
17775,10336
17775,10336
17775,10336
17823,10376
17863,10424
17892,10478
17910,10538
17916,10600
17910,10661
17892,10721
17892,10721
17863,10775
17823,10823
17775,10863
17721,10892
17721,10892
17661,10910
17630,10913
17615,10914
17584,10914
17569,10913
17538,10910
17478,10892
17478,10892
17424,10863
17376,10823
17336,10775
17307,10721
17307,10721
17289,10661
17283,10600
17289,10538
17307,10478
17336,10424
17376,10376
17424,10336
17424,10336
17424,10336
17478,10307
17478,10307
17538,10289
17569,10286
17584,10285
17615,10285
17630,10286
Z" /> 
<path style="fill:#000000; fill-opacity:1.0; 
stroke:#000000; stroke-width:0; stroke-opacity:1; 
stroke-linecap:round; stroke-linejoin:round;fill-rule:evenodd;"
d="M 11630,10286
11661,10289
11721,10307
11721,10307
11775,10336
11775,10336
11775,10336
11823,10376
11863,10424
11892,10478
11910,10538
11916,10600
11910,10661
11892,10721
11892,10721
11863,10775
11823,10823
11775,10863
11721,10892
11721,10892
11661,10910
11630,10913
11615,10914
11584,10914
11569,10913
11538,10910
11478,10892
11478,10892
11424,10863
11376,10823
11336,10775
11307,10721
11307,10721
11289,10661
11283,10600
11289,10538
11307,10478
11336,10424
11376,10376
11424,10336
11424,10336
11424,10336
11478,10307
11478,10307
11538,10289
11569,10286
11584,10285
11615,10285
11630,10286
Z" /> 
<path style="fill:#000000; fill-opacity:1.0; 
stroke:#000000; stroke-width:0; stroke-opacity:1; 
stroke-linecap:round; stroke-linejoin:round;fill-rule:evenodd;"
d="M 18630,10286
18661,10289
18721,10307
18721,10307
18775,10336
18775,10336
18775,10336
18823,10376
18863,10424
18892,10478
18910,10538
18916,10600
18910,10661
18892,10721
18892,10721
18863,10775
18823,10823
18775,10863
18721,10892
18721,10892
18661,10910
18630,10913
18615,10914
18584,10914
18569,10913
18538,10910
18478,10892
18478,10892
18424,10863
18376,10823
18336,10775
18307,10721
18307,10721
18289,10661
18283,10600
18289,10538
18307,10478
18336,10424
18376,10376
18424,10336
18424,10336
18424,10336
18478,10307
18478,10307
18538,10289
18569,10286
18584,10285
18615,10285
18630,10286
Z" /> 
<path style="fill:#000000; fill-opacity:1.0; 
stroke:#000000; stroke-width:0; stroke-opacity:1; 
stroke-linecap:round; stroke-linejoin:round;fill-rule:evenodd;"
d="M 12630,10286
12661,10289
12721,10307
12721,10307
12775,10336
12775,10336
12775,10336
12823,10376
12863,10424
12892,10478
12910,10538
12916,10600
12910,10661
12892,10721
12892,10721
12863,10775
12823,10823
12775,10863
12721,10892
12721,10892
12661,10910
12630,10913
12615,10914
12584,10914
12569,10913
12538,10910
12478,10892
12478,10892
12424,10863
12376,10823
12336,10775
12307,10721
12307,10721
12289,10661
12283,10600
12289,10538
12307,10478
12336,10424
12376,10376
12424,10336
12424,10336
12424,10336
12478,10307
12478,10307
12538,10289
12569,10286
12584,10285
12615,10285
12630,10286
Z" /> 
<path style="fill:#000000; fill-opacity:1.0; 
stroke:#000000; stroke-width:0; stroke-opacity:1; 
stroke-linecap:round; stroke-linejoin:round;fill-rule:evenodd;"
d="M 19630,10286
19661,10289
19721,10307
19721,10307
19775,10336
19775,10336
19775,10336
19823,10376
19863,10424
19892,10478
19910,10538
19916,10600
19910,10661
19892,10721
19892,10721
19863,10775
19823,10823
19775,10863
19721,10892
19721,10892
19661,10910
19630,10913
19615,10914
19584,10914
19569,10913
19538,10910
19478,10892
19478,10892
19424,10863
19376,10823
19336,10775
19307,10721
19307,10721
19289,10661
19283,10600
19289,10538
19307,10478
19336,10424
19376,10376
19424,10336
19424,10336
19424,10336
19478,10307
19478,10307
19538,10289
19569,10286
19584,10285
19615,10285
19630,10286
Z" /> 
<path style="fill:#000000; fill-opacity:1.0; 
stroke:#000000; stroke-width:0; stroke-opacity:1; 
stroke-linecap:round; stroke-linejoin:round;fill-rule:evenodd;"
d="M 13630,10286
13661,10289
13721,10307
13721,10307
13775,10336
13775,10336
13775,10336
13823,10376
13863,10424
13892,10478
13910,10538
13916,10600
13910,10661
13892,10721
13892,10721
13863,10775
13823,10823
13775,10863
13721,10892
13721,10892
13661,10910
13630,10913
13615,10914
13584,10914
13569,10913
13538,10910
13478,10892
13478,10892
13424,10863
13376,10823
13336,10775
13307,10721
13307,10721
13289,10661
13283,10600
13289,10538
13307,10478
13336,10424
13376,10376
13424,10336
13424,10336
13424,10336
13478,10307
13478,10307
13538,10289
13569,10286
13584,10285
13615,10285
13630,10286
Z" /> 
<path style="fill:#000000; fill-opacity:1.0; 
stroke:#000000; stroke-width:0; stroke-opacity:1; 
stroke-linecap:round; stroke-linejoin:round;fill-rule:evenodd;"
d="M 23630,10286
23661,10289
23721,10307
23721,10307
23775,10336
23775,10336
23775,10336
23823,10376
23863,10424
23892,10478
23910,10538
23916,10600
23910,10661
23892,10721
23892,10721
23863,10775
23823,10823
23775,10863
23721,10892
23721,10892
23661,10910
23630,10913
23615,10914
23584,10914
23569,10913
23538,10910
23478,10892
23478,10892
23424,10863
23376,10823
23336,10775
23307,10721
23307,10721
23289,10661
23283,10600
23289,10538
23307,10478
23336,10424
23376,10376
23424,10336
23424,10336
23424,10336
23478,10307
23478,10307
23538,10289
23569,10286
23584,10285
23615,10285
23630,10286
Z" /> 
<path style="fill:#000000; fill-opacity:1.0; 
stroke:#000000; stroke-width:0; stroke-opacity:1; 
stroke-linecap:round; stroke-linejoin:round;fill-rule:evenodd;"
d="M 22630,10286
22661,10289
22721,10307
22721,10307
22775,10336
22775,10336
22775,10336
22823,10376
22863,10424
22892,10478
22910,10538
22916,10600
22910,10661
22892,10721
22892,10721
22863,10775
22823,10823
22775,10863
22721,10892
22721,10892
22661,10910
22630,10913
22615,10914
22584,10914
22569,10913
22538,10910
22478,10892
22478,10892
22424,10863
22376,10823
22336,10775
22307,10721
22307,10721
22289,10661
22283,10600
22289,10538
22307,10478
22336,10424
22376,10376
22424,10336
22424,10336
22424,10336
22478,10307
22478,10307
22538,10289
22569,10286
22584,10285
22615,10285
22630,10286
Z" /> 
<path style="fill:#000000; fill-opacity:1.0; 
stroke:#000000; stroke-width:0; stroke-opacity:1; 
stroke-linecap:round; stroke-linejoin:round;fill-rule:evenodd;"
d="M 21630,10286
21661,10289
21721,10307
21721,10307
21775,10336
21775,10336
21775,10336
21823,10376
21863,10424
21892,10478
21910,10538
21916,10600
21910,10661
21892,10721
21892,10721
21863,10775
21823,10823
21775,10863
21721,10892
21721,10892
21661,10910
21630,10913
21615,10914
21584,10914
21569,10913
21538,10910
21478,10892
21478,10892
21424,10863
21376,10823
21336,10775
21307,10721
21307,10721
21289,10661
21283,10600
21289,10538
21307,10478
21336,10424
21376,10376
21424,10336
21424,10336
21424,10336
21478,10307
21478,10307
21538,10289
21569,10286
21584,10285
21615,10285
21630,10286
Z" /> 
<path style="fill:#000000; fill-opacity:1.0; 
stroke:#000000; stroke-width:0; stroke-opacity:1; 
stroke-linecap:round; stroke-linejoin:round;fill-rule:evenodd;"
d="M 15930,8916
15955,8921
16027,8951
16091,8994
16146,9049
16189,9113
16219,9185
16234,9261
16234,9338
16219,9414
16189,9486
16146,9550
16091,9605
16027,9648
15955,9678
15930,9683
15879,9693
15802,9693
15751,9683
15726,9678
15654,9648
15589,9605
15535,9550
15492,9486
15462,9414
15447,9338
15447,9261
15462,9185
15492,9113
15535,9049
15589,8994
15654,8951
15726,8921
15751,8916
15802,8906
15879,8906
15930,8916
Z" /> 
<path style="fill:#000000; fill-opacity:1.0; 
stroke:#000000; stroke-width:0; stroke-opacity:1; 
stroke-linecap:round; stroke-linejoin:round;fill-rule:evenodd;"
d="M 18489,8916
18514,8921
18586,8951
18650,8994
18705,9049
18748,9113
18778,9185
18793,9261
18793,9338
18778,9414
18748,9486
18705,9550
18650,9605
18586,9648
18514,9678
18489,9683
18438,9693
18361,9693
18310,9683
18285,9678
18213,9648
18149,9605
18094,9550
18051,9486
18021,9414
18006,9338
18006,9261
18021,9185
18051,9113
18094,9049
18149,8994
18213,8951
18285,8921
18310,8916
18361,8906
18438,8906
18489,8916
Z" /> 
<path style="fill:#000000; fill-opacity:1.0; 
stroke:#000000; stroke-width:0; stroke-opacity:1; 
stroke-linecap:round; stroke-linejoin:round;fill-rule:evenodd;"
d="M 14253,8670
14284,8673
14345,8691
14366,8697
14441,8738
14507,8792
14561,8858
14602,8933
14602,8933
14626,9015
14635,9100
14626,9184
14608,9245
14602,9266
14561,9341
14507,9407
14441,9461
14366,9502
14345,9508
14284,9526
14253,9529
14221,9533
14178,9533
14146,9529
14115,9526
14054,9508
14033,9502
13958,9461
13892,9407
13838,9341
13797,9266
13791,9245
13773,9184
13764,9100
13773,9015
13797,8933
13797,8933
13838,8858
13892,8792
13958,8738
14033,8697
14054,8691
14115,8673
14146,8670
14178,8666
14221,8666
14253,8670
Z" /> 
<path style="fill:#000000; fill-opacity:1.0; 
stroke:#000000; stroke-width:0; stroke-opacity:1; 
stroke-linecap:round; stroke-linejoin:round;fill-rule:evenodd;"
d="M 10633,9533
9766,9533
9766,8666
10633,8666
10633,9533
Z" /> 
<path style="fill:#000000; fill-opacity:1.0; 
stroke:#000000; stroke-width:0; stroke-opacity:1; 
stroke-linecap:round; stroke-linejoin:round;fill-rule:evenodd;"
d="M 15930,7144
15955,7149
16027,7179
16091,7222
16146,7277
16189,7341
16219,7413
16219,7413
16234,7489
16234,7567
16227,7603
16219,7643
16189,7714
16146,7779
16091,7834
16027,7877
15955,7906
15930,7911
15879,7922
15802,7922
15751,7911
15726,7906
15654,7877
15589,7834
15535,7779
15492,7714
15462,7643
15454,7603
15447,7567
15447,7489
15462,7413
15462,7413
15492,7341
15535,7277
15589,7222
15654,7179
15726,7149
15751,7144
15802,7134
15879,7134
15930,7144
Z" /> 
<path style="fill:#000000; fill-opacity:1.0; 
stroke:#000000; stroke-width:0; stroke-opacity:1; 
stroke-linecap:round; stroke-linejoin:round;fill-rule:evenodd;"
d="M 18489,7144
18514,7149
18586,7179
18650,7222
18705,7277
18748,7341
18778,7413
18778,7413
18793,7489
18793,7567
18786,7603
18778,7643
18748,7714
18705,7779
18650,7834
18586,7877
18514,7906
18489,7911
18438,7922
18361,7922
18310,7911
18285,7906
18213,7877
18149,7834
18094,7779
18051,7714
18021,7643
18013,7603
18006,7567
18006,7489
18021,7413
18021,7413
18051,7341
18094,7277
18149,7222
18213,7179
18285,7149
18310,7144
18361,7134
18438,7134
18489,7144
Z" /> 
<path style="fill:#000000; fill-opacity:1.0; 
stroke:#000000; stroke-width:0; stroke-opacity:1; 
stroke-linecap:round; stroke-linejoin:round;fill-rule:evenodd;"
d="M 33019,7700
32350,7700
32350,7031
33019,7031
33019,7700
Z" /> 
<path style="fill:#000000; fill-opacity:1.0; 
stroke:#000000; stroke-width:0; stroke-opacity:1; 
stroke-linecap:round; stroke-linejoin:round;fill-rule:evenodd;"
d="M 31750,7036
31782,7045
31813,7055
31813,7055
31871,7086
31922,7128
31964,7179
31976,7202
31995,7237
32000,7252
32014,7300
32021,7366
32014,7431
31995,7494
31964,7552
31922,7603
31871,7645
31813,7676
31813,7676
31782,7686
31750,7695
31701,7700
31668,7700
31619,7695
31587,7686
31556,7676
31556,7676
31498,7645
31447,7603
31405,7552
31374,7494
31355,7431
31348,7366
31355,7300
31369,7252
31374,7237
31393,7202
31405,7179
31447,7128
31498,7086
31556,7055
31556,7055
31587,7045
31619,7036
31668,7031
31701,7031
31750,7036
Z" /> 
<path style="fill:#000000; fill-opacity:1.0; 
stroke:#000000; stroke-width:0; stroke-opacity:1; 
stroke-linecap:round; stroke-linejoin:round;fill-rule:evenodd;"
d="M 1934,6592
1966,6602
1997,6612
1997,6612
2056,6643
2106,6684
2148,6735
2179,6794
2199,6857
2205,6922
2199,6988
2199,6988
2184,7036
2179,7051
2148,7109
2106,7160
2056,7202
1997,7233
1997,7233
1966,7242
1934,7252
1885,7257
1754,7257
1705,7252
1673,7242
1642,7233
1642,7233
1583,7202
1533,7160
1491,7109
1460,7051
1455,7036
1440,6988
1440,6988
1434,6922
1440,6857
1460,6794
1491,6735
1533,6684
1583,6643
1642,6612
1642,6612
1673,6602
1705,6592
1754,6588
1885,6588
1934,6592
Z" /> 
<path style="fill:#000000; fill-opacity:1.0; 
stroke:#000000; stroke-width:0; stroke-opacity:1; 
stroke-linecap:round; stroke-linejoin:round;fill-rule:evenodd;"
d="M 31750,6036
31782,6045
31813,6055
31813,6055
31871,6086
31922,6128
31964,6179
31995,6237
31999,6249
32014,6300
32021,6366
32014,6431
31995,6494
31964,6552
31922,6603
31871,6645
31813,6676
31813,6676
31786,6684
31750,6695
31701,6700
31668,6700
31619,6695
31583,6684
31556,6676
31556,6676
31498,6645
31447,6603
31405,6552
31374,6494
31355,6431
31348,6366
31355,6300
31370,6249
31374,6237
31405,6179
31447,6128
31498,6086
31556,6055
31556,6055
31587,6045
31619,6036
31668,6031
31701,6031
31750,6036
Z" /> 
<path style="fill:#000000; fill-opacity:1.0; 
stroke:#000000; stroke-width:0; stroke-opacity:1; 
stroke-linecap:round; stroke-linejoin:round;fill-rule:evenodd;"
d="M 32750,6036
32782,6045
32813,6055
32813,6055
32871,6086
32922,6128
32964,6179
32995,6237
32999,6249
33014,6300
33021,6366
33014,6431
32995,6494
32964,6552
32922,6603
32871,6645
32813,6676
32813,6676
32786,6684
32750,6695
32701,6700
32668,6700
32619,6695
32583,6684
32556,6676
32556,6676
32498,6645
32447,6603
32405,6552
32374,6494
32355,6431
32348,6366
32355,6300
32370,6249
32374,6237
32405,6179
32447,6128
32498,6086
32556,6055
32556,6055
32587,6045
32619,6036
32668,6031
32701,6031
32750,6036
Z" /> 
<path style="fill:#000000; fill-opacity:1.0; 
stroke:#000000; stroke-width:0; stroke-opacity:1; 
stroke-linecap:round; stroke-linejoin:round;fill-rule:evenodd;"
d="M 1934,5608
1966,5618
1997,5627
1997,5627
2056,5658
2106,5700
2147,5749
2148,5751
2179,5809
2181,5815
2199,5872
2205,5938
2199,6004
2191,6029
2181,6060
2179,6067
2148,6125
2106,6176
2056,6218
1997,6249
1997,6249
1966,6258
1934,6268
1885,6273
1754,6273
1705,6268
1673,6258
1642,6249
1642,6249
1583,6218
1533,6176
1491,6125
1460,6067
1458,6060
1448,6029
1440,6004
1434,5938
1440,5872
1458,5815
1460,5809
1491,5751
1492,5749
1533,5700
1583,5658
1642,5627
1642,5627
1673,5618
1705,5608
1754,5603
1885,5603
1934,5608
Z" /> 
<path style="fill:#000000; fill-opacity:1.0; 
stroke:#000000; stroke-width:0; stroke-opacity:1; 
stroke-linecap:round; stroke-linejoin:round;fill-rule:evenodd;"
d="M 13688,6151
12311,6151
12311,4773
13688,4773
13688,6151
Z" /> 
<path style="fill:#000000; fill-opacity:1.0; 
stroke:#000000; stroke-width:0; stroke-opacity:1; 
stroke-linecap:round; stroke-linejoin:round;fill-rule:evenodd;"
d="M 9224,5420
9256,5429
9287,5439
9287,5439
9345,5470
9396,5512
9438,5563
9469,5621
9469,5621
9471,5627
9488,5684
9495,5749
9488,5815
9488,5815
9471,5872
9469,5878
9438,5936
9396,5987
9345,6029
9333,6036
9287,6060
9256,6070
9224,6079
9175,6084
9024,6084
8975,6079
8943,6070
8912,6060
8866,6036
8854,6029
8803,5987
8761,5936
8730,5878
8728,5872
8711,5815
8711,5815
8704,5749
8711,5684
8728,5627
8730,5621
8730,5621
8761,5563
8803,5512
8854,5470
8912,5439
8912,5439
8943,5429
8975,5420
9024,5415
9175,5415
9224,5420
Z" /> 
<path style="fill:#000000; fill-opacity:1.0; 
stroke:#000000; stroke-width:0; stroke-opacity:1; 
stroke-linecap:round; stroke-linejoin:round;fill-rule:evenodd;"
d="M 5543,6025
4756,6025
4756,5275
5543,5275
5543,6025
Z" /> 
<path style="fill:#000000; fill-opacity:1.0; 
stroke:#000000; stroke-width:0; stroke-opacity:1; 
stroke-linecap:round; stroke-linejoin:round;fill-rule:evenodd;"
d="M 32750,5036
32782,5045
32813,5055
32813,5055
32871,5086
32922,5128
32964,5179
32995,5237
33014,5300
33021,5366
33014,5431
32995,5494
32964,5552
32922,5603
32871,5645
32813,5676
32813,5676
32788,5684
32750,5695
32701,5700
32668,5700
32619,5695
32581,5684
32556,5676
32556,5676
32498,5645
32447,5603
32405,5552
32374,5494
32355,5431
32348,5366
32355,5300
32374,5237
32405,5179
32447,5128
32498,5086
32556,5055
32556,5055
32587,5045
32619,5036
32668,5031
32701,5031
32750,5036
Z" /> 
<path style="fill:#000000; fill-opacity:1.0; 
stroke:#000000; stroke-width:0; stroke-opacity:1; 
stroke-linecap:round; stroke-linejoin:round;fill-rule:evenodd;"
d="M 31750,5036
31782,5045
31813,5055
31813,5055
31871,5086
31922,5128
31964,5179
31995,5237
32014,5300
32021,5366
32014,5431
31995,5494
31964,5552
31922,5603
31871,5645
31813,5676
31813,5676
31788,5684
31750,5695
31701,5700
31668,5700
31619,5695
31581,5684
31556,5676
31556,5676
31498,5645
31447,5603
31405,5552
31374,5494
31355,5431
31348,5366
31355,5300
31374,5237
31405,5179
31447,5128
31498,5086
31556,5055
31556,5055
31587,5045
31619,5036
31668,5031
31701,5031
31750,5036
Z" /> 
<path style="fill:#000000; fill-opacity:1.0; 
stroke:#000000; stroke-width:0; stroke-opacity:1; 
stroke-linecap:round; stroke-linejoin:round;fill-rule:evenodd;"
d="M 1934,4624
1966,4634
1997,4643
1997,4643
2056,4674
2106,4716
2140,4757
2148,4767
2179,4825
2189,4857
2199,4888
2205,4954
2199,5019
2179,5082
2148,5141
2106,5192
2056,5233
1997,5264
1997,5264
1966,5274
1934,5284
1885,5288
1754,5288
1705,5284
1673,5274
1642,5264
1642,5264
1583,5233
1533,5192
1491,5141
1460,5082
1440,5019
1434,4954
1440,4888
1450,4857
1460,4825
1491,4767
1499,4757
1533,4716
1583,4674
1642,4643
1642,4643
1673,4634
1705,4624
1754,4619
1885,4619
1934,4624
Z" /> 
<path style="fill:#000000; fill-opacity:1.0; 
stroke:#000000; stroke-width:0; stroke-opacity:1; 
stroke-linecap:round; stroke-linejoin:round;fill-rule:evenodd;"
d="M 9442,4432
9454,4436
9465,4442
9474,4449
9482,4459
9488,4470
9492,4482
9493,4497
9493,5034
9492,5049
9488,5060
9482,5071
9474,5081
9465,5089
9454,5095
9442,5098
9427,5100
8772,5100
8757,5098
8745,5095
8734,5089
8725,5081
8717,5071
8711,5060
8707,5049
8706,5034
8706,4497
8707,4482
8711,4470
8717,4459
8725,4449
8734,4442
8745,4436
8757,4432
8772,4431
9427,4431
9442,4432
Z" /> 
<path style="fill:#000000; fill-opacity:1.0; 
stroke:#000000; stroke-width:0; stroke-opacity:1; 
stroke-linecap:round; stroke-linejoin:round;fill-rule:evenodd;"
d="M 5242,4280
5312,4301
5378,4336
5435,4383
5482,4440
5516,4505
5538,4576
5545,4650
5538,4723
5516,4794
5482,4859
5435,4916
5378,4963
5312,4998
5242,5019
5187,5025
5112,5025
5057,5019
4987,4998
4921,4963
4864,4916
4817,4859
4783,4794
4761,4723
4754,4650
4761,4576
4783,4505
4817,4440
4864,4383
4921,4336
4987,4301
5057,4280
5112,4275
5187,4275
5242,4280
Z" /> 
<path style="fill:#000000; fill-opacity:1.0; 
stroke:#000000; stroke-width:0; stroke-opacity:1; 
stroke-linecap:round; stroke-linejoin:round;fill-rule:evenodd;"
d="M 11581,3598
11641,3616
11696,3646
11744,3685
11784,3734
11814,3789
11832,3849
11838,3914
11838,4647
11832,4712
11814,4772
11784,4827
11744,4876
11696,4915
11641,4945
11581,4963
11516,4970
10782,4970
10718,4963
10658,4945
10602,4915
10554,4876
10514,4827
10485,4772
10467,4712
10460,4647
10460,3914
10467,3849
10485,3789
10514,3734
10554,3685
10602,3646
10658,3616
10718,3598
10782,3592
11516,3592
11581,3598
Z" /> 
<path style="fill:#000000; fill-opacity:1.0; 
stroke:#000000; stroke-width:0; stroke-opacity:1; 
stroke-linecap:round; stroke-linejoin:round;fill-rule:evenodd;"
d="M 2152,3636
2164,3640
2175,3646
2185,3654
2192,3663
2198,3674
2202,3686
2203,3701
2203,4238
2202,4253
2198,4265
2192,4276
2185,4285
2175,4293
2164,4299
2152,4303
2137,4304
1502,4304
1487,4303
1475,4299
1464,4293
1454,4285
1447,4276
1441,4265
1437,4253
1436,4238
1436,3701
1437,3686
1441,3674
1447,3663
1454,3654
1464,3646
1475,3640
1487,3636
1502,3635
2137,3635
2152,3636
Z" /> 
<path style="fill:#000000; fill-opacity:1.0; 
stroke:#000000; stroke-width:0; stroke-opacity:1; 
stroke-linecap:round; stroke-linejoin:round;fill-rule:evenodd;"
d="M 5242,3280
5312,3301
5378,3336
5435,3383
5482,3440
5516,3505
5538,3576
5545,3650
5538,3723
5516,3794
5482,3859
5435,3916
5378,3963
5312,3998
5242,4019
5187,4025
5112,4025
5057,4019
4987,3998
4921,3963
4864,3916
4817,3859
4783,3794
4761,3723
4754,3650
4761,3576
4783,3505
4817,3440
4864,3383
4921,3336
4987,3301
5057,3280
5112,3275
5187,3275
5242,3280
Z" /> 
<path style="fill:#000000; fill-opacity:1.0; 
stroke:#000000; stroke-width:0; stroke-opacity:1; 
stroke-linecap:round; stroke-linejoin:round;fill-rule:evenodd;"
d="M 13471,2514
13521,2530
13568,2555
13609,2588
13643,2629
13668,2676
13683,2727
13688,2782
13688,3417
13683,3472
13668,3523
13643,3570
13609,3611
13568,3644
13521,3669
13471,3685
13415,3690
12584,3690
12528,3685
12478,3669
12431,3644
12390,3611
12356,3570
12331,3523
12316,3472
12311,3417
12311,2782
12316,2727
12331,2676
12356,2629
12390,2588
12431,2555
12478,2530
12528,2514
12584,2509
13415,2509
13471,2514
Z" /> 
<path style="fill:#000000; fill-opacity:1.0; 
stroke:#000000; stroke-width:0; stroke-opacity:1; 
stroke-linecap:round; stroke-linejoin:round;fill-rule:evenodd;"
d="M 25298,2338
25323,2343
25395,2372
25460,2415
25514,2470
25557,2535
25587,2606
25587,2606
25602,2682
25602,2760
25593,2804
25587,2836
25557,2908
25514,2972
25460,3027
25395,3070
25323,3100
25298,3105
25247,3115
25170,3115
25119,3105
25094,3100
25022,3070
24958,3027
24903,2972
24860,2908
24830,2836
24824,2804
24815,2760
24815,2682
24830,2606
24830,2606
24860,2535
24903,2470
24958,2415
25022,2372
25094,2343
25119,2338
25170,2327
25247,2327
25298,2338
Z" /> 
<path style="fill:#000000; fill-opacity:1.0; 
stroke:#000000; stroke-width:0; stroke-opacity:1; 
stroke-linecap:round; stroke-linejoin:round;fill-rule:evenodd;"
d="M 22739,2338
22764,2343
22836,2372
22900,2415
22955,2470
22998,2535
23028,2606
23028,2606
23043,2682
23043,2760
23034,2804
23028,2836
22998,2908
22955,2972
22900,3027
22836,3070
22764,3100
22739,3105
22688,3115
22611,3115
22560,3105
22535,3100
22463,3070
22399,3027
22344,2972
22301,2908
22271,2836
22265,2804
22256,2760
22256,2682
22271,2606
22271,2606
22301,2535
22344,2470
22399,2415
22463,2372
22535,2343
22560,2338
22611,2327
22688,2327
22739,2338
Z" /> 
<path style="fill:#000000; fill-opacity:1.0; 
stroke:#000000; stroke-width:0; stroke-opacity:1; 
stroke-linecap:round; stroke-linejoin:round;fill-rule:evenodd;"
d="M 22739,566
22764,571
22836,601
22900,644
22955,699
22998,763
23028,835
23043,911
23043,988
23028,1064
22998,1136
22955,1200
22900,1255
22836,1298
22764,1328
22739,1333
22688,1343
22611,1343
22560,1333
22535,1328
22463,1298
22399,1255
22344,1200
22301,1136
22271,1064
22256,988
22256,911
22271,835
22301,763
22344,699
22399,644
22463,601
22535,571
22560,566
22611,556
22688,556
22739,566
Z" /> 
<path style="fill:#000000; fill-opacity:1.0; 
stroke:#000000; stroke-width:0; stroke-opacity:1; 
stroke-linecap:round; stroke-linejoin:round;fill-rule:evenodd;"
d="M 25298,566
25323,571
25395,601
25460,644
25514,699
25557,763
25587,835
25602,911
25602,988
25587,1064
25557,1136
25514,1200
25460,1255
25395,1298
25323,1328
25298,1333
25247,1343
25170,1343
25119,1333
25094,1328
25022,1298
24958,1255
24903,1200
24860,1136
24830,1064
24815,988
24815,911
24830,835
24860,763
24903,699
24958,644
25022,601
25094,571
25119,566
25170,556
25247,556
25298,566
Z" /> 
</g> 
</svg>
