<?xml version="1.0" standalone="no"?>
 <!DOCTYPE svg PUBLIC "-//W3C//DTD SVG 1.1//EN" 
 "http://www.w3.org/Graphics/SVG/1.1/DTD/svg11.dtd"> 
<svg xmlns="http://www.w3.org/2000/svg" version="1.1" 
    width="29.7002cm" height="21.0007cm" viewBox="0 0 116930 82680 ">
<title>SVG Picture created as ThermocoupleLogger-F_CrtYd.svg date 2019/04/07 21:39:20 </title>
  <desc>Picture generated by PCBNEW </desc>
<g style="fill:#000000; fill-opacity:1;stroke:#000000; stroke-opacity:1;
stroke-linecap:round; stroke-linejoin:round; "
 transform="translate(0 0) scale(1 1)">
</g>
<g style="fill:#000000; fill-opacity:0.0; 
stroke:#000000; stroke-width:-0.000393701; stroke-opacity:1; 
stroke-linecap:round; stroke-linejoin:round;">
</g>
<g style="fill:#000000; fill-opacity:0.0; 
stroke:#000000; stroke-width:39.3701; stroke-opacity:1; 
stroke-linecap:round; stroke-linejoin:round;">
<path d="M7.87402 28901.6 A1338.58 1338.58 0.0 0 0 1346.46 30240.2 " />
<path d="M35000 0
L35000 30250
" />
<path d="M0 28059
L0 28059
" />
<path d="M0 0
L35000 0
" />
<path d="M1346 30240
L35000 30250
" />
<path d="M0 0
L7 28901
" />
<path d="M0 500
L0 500
" />
</g>
<g style="fill:#000000; fill-opacity:0.0; 
stroke:#000000; stroke-width:19.685; stroke-opacity:1; 
stroke-linecap:round; stroke-linejoin:round;">
<path d="M28019 10811
L25362 10811
" />
<path d="M25362 10811
L25362 21992
" />
<path d="M25362 21992
L28019 21992
" />
<path d="M28019 21992
L28019 10811
" />
<path d="M14771 5855
L14870 5855
" />
<path d="M14870 5855
L14870 -49
" />
<path d="M14771 5855
L13787 5855
" />
<path d="M13787 5855
L13787 6249
" />
<path d="M13787 6249
L12212 6249
" />
<path d="M12212 6249
L12212 5855
" />
<path d="M12212 5855
L11129 5855
" />
<path d="M11129 5855
L11129 5068
" />
<path d="M11129 5068
L10342 5068
" />
<path d="M10342 5068
L10342 3493
" />
<path d="M10342 3493
L11129 3493
" />
<path d="M11129 3493
L11129 -49
" />
<path d="M11129 -49
L14870 -49
" />
<path d="M4417 15751
L145 15751
" />
<path d="M145 15751
L145 20003
" />
<path d="M145 20003
L4417 20003
" />
<path d="M4417 20003
L4417 15751
" />
<path d="M6454 29872
L9761 29872
" />
<path d="M6454 27214
L6454 29872
" />
<path d="M9761 27214
L6454 27214
" />
<path d="M9761 29872
L9761 27214
" />
<path d="M9954 29872
L13261 29872
" />
<path d="M9954 27214
L9954 29872
" />
<path d="M13261 27214
L9954 27214
" />
<path d="M13261 29872
L13261 27214
" />
<path d="M13454 29872
L16761 29872
" />
<path d="M13454 27214
L13454 29872
" />
<path d="M16761 27214
L13454 27214
" />
<path d="M16761 29872
L16761 27214
" />
<path d="M16954 29872
L20261 29872
" />
<path d="M16954 27214
L16954 29872
" />
<path d="M20261 27214
L16954 27214
" />
<path d="M20261 29872
L20261 27214
" />
<path d="M20438 29872
L23745 29872
" />
<path d="M20438 27214
L20438 29872
" />
<path d="M23745 27214
L20438 27214
" />
<path d="M23745 29872
L23745 27214
" />
<path d="M23938 29872
L27245 29872
" />
<path d="M23938 27214
L23938 29872
" />
<path d="M27245 27214
L23938 27214
" />
<path d="M27245 29872
L27245 27214
" />
<path d="M27438 29872
L30745 29872
" />
<path d="M27438 27214
L27438 29872
" />
<path d="M30745 27214
L27438 27214
" />
<path d="M30745 29872
L30745 27214
" />
<circle cx="5450" cy="12026" r="669.291" /> 
<path d="M2954 29872
L6261 29872
" />
<path d="M2954 27214
L2954 29872
" />
<path d="M6261 27214
L2954 27214
" />
<path d="M6261 29872
L6261 27214
" />
<path d="M6037 11427
L9462 11427
" />
<path d="M6037 13672
L6037 11427
" />
<path d="M9462 13672
L6037 13672
" />
<path d="M9462 11427
L9462 13672
" />
<path d="M9091 9841
L8363 9841
" />
<path d="M8363 9841
L8363 10156
" />
<path d="M8363 10156
L7536 10156
" />
<path d="M7536 10156
L7536 9841
" />
<path d="M7536 9841
L6808 9841
" />
<path d="M6808 8011
L6808 9841
" />
<path d="M9091 8011
L9091 9841
" />
<path d="M7261 7558
L6808 8011
" />
<path d="M8638 7558
L9091 8011
" />
<path d="M8638 7558
L8363 7558
" />
<path d="M7536 7558
L7261 7558
" />
<path d="M8363 7558
L8363 7243
" />
<path d="M8363 7243
L7536 7243
" />
<path d="M7536 7243
L7536 7558
" />
<path d="M10222 3604
L7564 3604
" />
<path d="M7564 3604
L7564 6911
" />
<path d="M7564 6911
L10222 6911
" />
<path d="M10222 6911
L10222 3604
" />
<path d="M15431 1472
L15431 94
" />
<path d="M15038 1472
L15431 1472
" />
<path d="M15038 2555
L15038 1472
" />
<path d="M15431 2555
L15038 2555
" />
<path d="M15431 5409
L15431 2555
" />
<path d="M15333 5409
L15431 5409
" />
<path d="M15333 6196
L15333 5409
" />
<path d="M16219 6196
L15333 6196
" />
<path d="M16219 5901
L16219 6196
" />
<path d="M17400 5901
L16219 5901
" />
<path d="M17400 6393
L17400 5901
" />
<path d="M21337 6393
L17400 6393
" />
<path d="M21337 6196
L21337 6393
" />
<path d="M21927 6196
L21337 6196
" />
<path d="M21927 5409
L21927 6196
" />
<path d="M21534 5409
L21927 5409
" />
<path d="M21534 2555
L21534 5409
" />
<path d="M21927 2555
L21534 2555
" />
<path d="M21927 1472
L21927 2555
" />
<path d="M21534 1472
L21927 1472
" />
<path d="M21534 94
L21534 1472
" />
<path d="M1376 15235
L4723 15235
" />
<path d="M1376 13759
L1376 15235
" />
<path d="M4723 13759
L1376 13759
" />
<path d="M4723 15235
L4723 13759
" />
<path d="M29417 20850
L33275 20850
" />
<path d="M29417 13625
L29417 20850
" />
<path d="M33275 13625
L29417 13625
" />
<path d="M33275 20850
L33275 13625
" />
<path d="M14731 8470
L9668 8470
" />
<path d="M14731 9729
L14731 8470
" />
<path d="M9668 9729
L14731 9729
" />
<path d="M9668 8470
L9668 9729
" />
<path d="M15250 9792
L15250 7036
" />
<path d="M15348 6937
L18892 6937
" />
<path d="M18990 7036
L18990 9792
" />
<path d="M18892 9890
L15348 9890
" />
<path d="M18990 6937
L18892 6937
" />
<path d="M18990 7036
L18990 6937
" />
<path d="M18990 9890
L18892 9890
" />
<path d="M18990 9792
L18990 9890
" />
<path d="M15250 9890
L15250 9792
" />
<path d="M15348 9890
L15250 9890
" />
<path d="M15250 6937
L15250 7036
" />
<path d="M15348 6937
L15250 6937
" />
<path d="M22059 3213
L22059 457
" />
<path d="M22157 359
L25701 359
" />
<path d="M25799 457
L25799 3213
" />
<path d="M25701 3312
L22157 3312
" />
<path d="M25799 359
L25701 359
" />
<path d="M25799 457
L25799 359
" />
<path d="M25799 3312
L25701 3312
" />
<path d="M25799 3213
L25799 3312
" />
<path d="M22059 3312
L22059 3213
" />
<path d="M22157 3312
L22059 3312
" />
<path d="M22059 359
L22059 457
" />
<path d="M22157 359
L22059 359
" />
<path d="M30972 8074
L33393 8074
" />
<path d="M30972 4669
L30972 8074
" />
<path d="M33393 4669
L30972 4669
" />
<path d="M33393 8074
L33393 4669
" />
<path d="M3632 6867
L3632 10332
" />
<path d="M6467 6867
L3632 6867
" />
<path d="M6467 10332
L6467 6867
" />
<path d="M3632 10332
L6467 10332
" />
<path d="M3811 2583
L3811 6716
" />
<path d="M5744 2583
L3811 2583
" />
<path d="M5744 6716
L5744 2583
" />
<path d="M3811 6716
L5744 6716
" />
<path d="M8045 2030
L9754 2030
" />
<path d="M8045 2030
L8045 3369
" />
<path d="M9754 3369
L9754 2030
" />
<path d="M9754 3369
L8045 3369
" />
<path d="M9989 10174
L9989 14033
" />
<path d="M24202 10174
L9989 10174
" />
<path d="M24202 14033
L24202 10174
" />
<path d="M9989 14033
L24202 14033
" />
<path d="M24110 16636
L9897 16636
" />
<path d="M9897 16636
L9897 23467
" />
<path d="M9897 23467
L24110 23467
" />
<path d="M24110 23467
L24110 16636
" />
<path d="M16692 16402
L21377 16402
" />
<path d="M16692 14197
L16692 16402
" />
<path d="M21377 14197
L16692 14197
" />
<path d="M21377 16402
L21377 14197
" />
<path d="M6425 5398
L7174 5398
" />
<path d="M7174 5398
L7174 4138
" />
<path d="M6425 4138
L7174 4138
" />
<path d="M6425 5398
L6425 4138
" />
<path d="M24797 8025
L25702 8025
" />
<path d="M25702 6174
L25702 8025
" />
<path d="M24797 6174
L25702 6174
" />
<path d="M24797 8025
L24797 6174
" />
<path d="M23347 8025
L24252 8025
" />
<path d="M24252 6174
L24252 8025
" />
<path d="M23347 6174
L24252 6174
" />
<path d="M23347 8025
L23347 6174
" />
<path d="M21987 8025
L22892 8025
" />
<path d="M22892 6174
L22892 8025
" />
<path d="M21987 6174
L22892 6174
" />
<path d="M21987 8025
L21987 6174
" />
<path d="M6211 15724
L4888 15724
" />
<path d="M6211 14975
L6211 15724
" />
<path d="M4888 14975
L6211 14975
" />
<path d="M4888 15724
L4888 14975
" />
<path d="M6211 14849
L4888 14849
" />
<path d="M6211 14100
L6211 14849
" />
<path d="M4888 14100
L6211 14100
" />
<path d="M4888 14849
L4888 14100
" />
<path d="M13475 16061
L13475 14738
" />
<path d="M14224 16061
L13475 16061
" />
<path d="M14224 14738
L14224 16061
" />
<path d="M13475 14738
L14224 14738
" />
<path d="M7774 2038
L7774 3361
" />
<path d="M7025 2038
L7774 2038
" />
<path d="M7025 3361
L7025 2038
" />
<path d="M7774 3361
L7025 3361
" />
<path d="M21924 8588
L21924 9911
" />
<path d="M21175 8588
L21924 8588
" />
<path d="M21175 9911
L21175 8588
" />
<path d="M21924 9911
L21175 9911
" />
<path d="M20074 6588
L20074 7911
" />
<path d="M19325 6588
L20074 6588
" />
<path d="M19325 7911
L19325 6588
" />
<path d="M20074 7911
L19325 7911
" />
<path d="M23124 8588
L23124 9911
" />
<path d="M22375 8588
L23124 8588
" />
<path d="M22375 9911
L22375 8588
" />
<path d="M23124 9911
L22375 9911
" />
<path d="M3911 11625
L3911 12374
" />
<path d="M3911 12374
L2588 12374
" />
<path d="M2588 12374
L2588 11625
" />
<path d="M2588 11625
L3911 11625
" />
<path d="M19474 25588
L19474 26911
" />
<path d="M18725 25588
L19474 25588
" />
<path d="M18725 26911
L18725 25588
" />
<path d="M19474 26911
L18725 26911
" />
<path d="M24725 26911
L24725 25588
" />
<path d="M25474 26911
L24725 26911
" />
<path d="M25474 25588
L25474 26911
" />
<path d="M24725 25588
L25474 25588
" />
<path d="M5474 25568
L5474 26891
" />
<path d="M4725 25568
L5474 25568
" />
<path d="M4725 26891
L4725 25568
" />
<path d="M5474 26891
L4725 26891
" />
<path d="M3745 26891
L3745 25568
" />
<path d="M4494 26891
L3745 26891
" />
<path d="M4494 25568
L4494 26891
" />
<path d="M3745 25568
L4494 25568
" />
<path d="M7225 26911
L7225 25588
" />
<path d="M7974 26911
L7225 26911
" />
<path d="M7974 25588
L7974 26911
" />
<path d="M7225 25588
L7974 25588
" />
<path d="M10725 26911
L10725 25588
" />
<path d="M11474 26911
L10725 26911
" />
<path d="M11474 25588
L11474 26911
" />
<path d="M10725 25588
L11474 25588
" />
<path d="M14225 26911
L14225 25588
" />
<path d="M14974 26911
L14225 26911
" />
<path d="M14974 25588
L14974 26911
" />
<path d="M14225 25588
L14974 25588
" />
<path d="M17725 26911
L17725 25588
" />
<path d="M18474 26911
L17725 26911
" />
<path d="M18474 25588
L18474 26911
" />
<path d="M17725 25588
L18474 25588
" />
<path d="M21225 26911
L21225 25588
" />
<path d="M21974 26911
L21225 26911
" />
<path d="M21974 25588
L21974 26911
" />
<path d="M21225 25588
L21974 25588
" />
<path d="M28225 26911
L28225 25588
" />
<path d="M28974 26911
L28225 26911
" />
<path d="M28974 25588
L28974 26911
" />
<path d="M28225 25588
L28974 25588
" />
<path d="M8974 25588
L8974 26911
" />
<path d="M8225 25588
L8974 25588
" />
<path d="M8225 26911
L8225 25588
" />
<path d="M8974 26911
L8225 26911
" />
<path d="M12474 25588
L12474 26911
" />
<path d="M11725 25588
L12474 25588
" />
<path d="M11725 26911
L11725 25588
" />
<path d="M12474 26911
L11725 26911
" />
<path d="M15974 25588
L15974 26911
" />
<path d="M15225 25588
L15974 25588
" />
<path d="M15225 26911
L15225 25588
" />
<path d="M15974 26911
L15225 26911
" />
<path d="M22974 25588
L22974 26911
" />
<path d="M22225 25588
L22974 25588
" />
<path d="M22225 26911
L22225 25588
" />
<path d="M22974 26911
L22225 26911
" />
<path d="M26474 25588
L26474 26911
" />
<path d="M25725 25588
L26474 25588
" />
<path d="M25725 26911
L25725 25588
" />
<path d="M26474 26911
L25725 26911
" />
<path d="M29974 25588
L29974 26911
" />
<path d="M29225 25588
L29974 25588
" />
<path d="M29225 26911
L29225 25588
" />
<path d="M29974 26911
L29225 26911
" />
<path d="M5261 25424
L3938 25424
" />
<path d="M5261 24675
L5261 25424
" />
<path d="M3938 24675
L5261 24675
" />
<path d="M3938 25424
L3938 24675
" />
<path d="M22761 25424
L21438 25424
" />
<path d="M22761 24675
L22761 25424
" />
<path d="M21438 24675
L22761 24675
" />
<path d="M21438 25424
L21438 24675
" />
<path d="M19261 25424
L17938 25424
" />
<path d="M19261 24675
L19261 25424
" />
<path d="M17938 24675
L19261 24675
" />
<path d="M17938 25424
L17938 24675
" />
<path d="M8761 25424
L7438 25424
" />
<path d="M8761 24675
L8761 25424
" />
<path d="M7438 24675
L8761 24675
" />
<path d="M7438 25424
L7438 24675
" />
<path d="M12261 25424
L10938 25424
" />
<path d="M12261 24675
L12261 25424
" />
<path d="M10938 24675
L12261 24675
" />
<path d="M10938 25424
L10938 24675
" />
<path d="M15761 25424
L14438 25424
" />
<path d="M15761 24675
L15761 25424
" />
<path d="M14438 24675
L15761 24675
" />
<path d="M14438 25424
L14438 24675
" />
<path d="M26261 25424
L24938 25424
" />
<path d="M26261 24675
L26261 25424
" />
<path d="M24938 24675
L26261 24675
" />
<path d="M24938 25424
L24938 24675
" />
<path d="M29761 25424
L28438 25424
" />
<path d="M29761 24675
L29761 25424
" />
<path d="M28438 24675
L29761 24675
" />
<path d="M28438 25424
L28438 24675
" />
<path d="M7038 925
L8361 925
" />
<path d="M7038 1674
L7038 925
" />
<path d="M8361 1674
L7038 1674
" />
<path d="M8361 925
L8361 1674
" />
<path d="M15225 15961
L15225 14638
" />
<path d="M15974 15961
L15225 15961
" />
<path d="M15974 14638
L15974 15961
" />
<path d="M15225 14638
L15974 14638
" />
<path d="M29803 23409
L28480 23409
" />
<path d="M29803 22661
L29803 23409
" />
<path d="M28480 22661
L29803 22661
" />
<path d="M28480 23409
L28480 22661
" />
<path d="M3911 11374
L2588 11374
" />
<path d="M3911 10625
L3911 11374
" />
<path d="M2588 10625
L3911 10625
" />
<path d="M2588 11374
L2588 10625
" />
<path d="M22125 15861
L22125 14538
" />
<path d="M22874 15861
L22125 15861
" />
<path d="M22874 14538
L22874 15861
" />
<path d="M22125 14538
L22874 14538
" />
<path d="M2942 8084
L2942 2808
" />
<path d="M284 8084
L2942 8084
" />
<path d="M284 2808
L284 8084
" />
<path d="M2942 2808
L284 2808
" />
<path d="M3981 1913
L4355 1913
" />
<path d="M3981 1086
L3981 1913
" />
<path d="M4355 1086
L3981 1086
" />
<path d="M4355 1913
L4355 1992
" />
<path d="M4355 1007
L4355 1086
" />
<path d="M4355 1007
L4807 555
" />
<path d="M4355 1992
L4807 2444
" />
<path d="M4807 555
L6244 555
" />
<path d="M4807 2444
L6244 2444
" />
<path d="M6244 1913
L6244 2444
" />
<path d="M6618 1913
L6244 1913
" />
<path d="M6618 1086
L6618 1913
" />
<path d="M6244 1086
L6618 1086
" />
<path d="M6244 555
L6244 1086
" />
<path d="M22940 3609
L22940 4932
" />
<path d="M22192 3609
L22940 3609
" />
<path d="M22192 4932
L22192 3609
" />
<path d="M22940 4932
L22192 4932
" />
<circle cx="1346.46" cy="28901.6" r="1161.42" /> 
<circle cx="32881.9" cy="28586.6" r="1161.42" /> 
<g >
</g>
<g >
</g>
<g >
</g>
<g >
</g>
<g >
</g>
<g >
</g>
<g >
</g>
<g >
</g>
<g >
</g>
<g >
</g>
<g >
</g>
<g >
</g>
<g >
</g>
<g >
</g>
<g >
</g>
<g >
</g>
<g >
</g>
<g >
</g>
<g >
</g>
<g >
</g>
<g >
</g>
<g >
</g>
<g >
</g>
<g >
</g>
<g >
</g>
<g >
</g>
<g >
</g>
<g >
</g>
<g >
</g>
<g >
</g>
<g >
</g>
<g >
</g>
<g >
</g>
<g >
</g>
<g >
</g>
<g >
</g>
<g >
</g>
<g >
</g>
<g >
</g>
<g >
</g>
<g >
</g>
<g >
</g>
<g >
</g>
<g >
</g>
<g >
</g>
<g >
</g>
<g >
</g>
<g >
</g>
<g >
</g>
<g >
</g>
<g >
</g>
<g >
</g>
<g >
</g>
<g >
</g>
<g >
</g>
<g >
</g>
<g >
</g>
<g >
</g>
<g >
</g>
<g >
</g>
<g >
</g>
<g >
</g>
<g >
</g>
<g >
</g>
<g >
</g>
<g >
</g>
<g >
</g>
<g >
</g>
<g >
</g>
<g >
</g>
<g >
</g>
<g >
</g>
<g >
</g>
<g >
</g>
<g >
</g>
<g >
</g>
</g> 
</svg>
