<?xml version="1.0" standalone="no"?>
 <!DOCTYPE svg PUBLIC "-//W3C//DTD SVG 1.1//EN" 
 "http://www.w3.org/Graphics/SVG/1.1/DTD/svg11.dtd"> 
<svg xmlns="http://www.w3.org/2000/svg" version="1.1" 
    width="29.7002cm" height="21.0007cm" viewBox="0 0 116930 82680 ">
<title>SVG Picture created as ThermocoupleLogger-F_SilkS.svg date 2019/04/07 21:39:20 </title>
  <desc>Picture generated by PCBNEW </desc>
<g style="fill:#000000; fill-opacity:1;stroke:#000000; stroke-opacity:1;
stroke-linecap:round; stroke-linejoin:round; "
 transform="translate(0 0) scale(1 1)">
</g>
<g style="fill:#000000; fill-opacity:0.0; 
stroke:#000000; stroke-width:-0.000393701; stroke-opacity:1; 
stroke-linecap:round; stroke-linejoin:round;">
</g>
<g style="fill:#000000; fill-opacity:0.0; 
stroke:#000000; stroke-width:39.3701; stroke-opacity:1; 
stroke-linecap:round; stroke-linejoin:round;">
<path d="M7.87402 28901.6 A1338.58 1338.58 0.0 0 0 1346.46 30240.2 " />
<path d="M35000 0
L35000 30250
" />
<path d="M0 28059
L0 28059
" />
<path d="M0 0
L35000 0
" />
</g>
<g style="fill:#000000; fill-opacity:0.0; 
stroke:#000000; stroke-width:98.4252; stroke-opacity:1; 
stroke-linecap:round; stroke-linejoin:round;">
<path d="M821 8839
L840 8803
L840 8728
L821 8689
L784 8646
L746 8623
L671 8614
L634 8628
L596 8660
L578 8696
L578 8771
L596 8810
" />
<path d="M971 8782
L953 8686
L896 8585
L803 8518
L709 8487
L615 8494
L521 8539
L465 8625
L446 8717
L465 8813
L521 8914
L615 8982
L709 9012
L803 9005
L896 8960
L953 8874
L971 8782
" />
<path d="M878 9183
L896 9204
L915 9244
L915 9338
L896 9373
L878 9389
L840 9403
L803 9399
L746 9373
L521 9120
L521 9363
" />
<path d="M915 9656
L915 9694
L896 9729
L878 9745
L840 9760
L765 9769
L671 9757
L596 9729
L559 9706
L540 9685
L521 9645
L521 9607
L540 9572
L559 9556
L596 9542
L671 9532
L765 9544
L840 9572
L878 9596
L896 9617
L915 9656
" />
<path d="M521 10113
L521 9888
" />
<path d="M521 10001
L915 10050
L859 10006
L821 9963
L803 9924
" />
<path d="M521 10301
L521 10376
L540 10416
L559 10437
L615 10481
L690 10509
L840 10528
L878 10514
L896 10498
L915 10463
L915 10388
L896 10348
L878 10327
L840 10303
L746 10292
L709 10306
L690 10322
L671 10357
L671 10432
L690 10472
L709 10493
L746 10516
" />
<path d="M540 10678
L521 10676
L484 10652
L465 10631
" />
<path d="M915 11306
L634 11271
L578 11245
L540 11203
L521 11145
L521 11107
" />
<path d="M521 11444
L915 11494
L915 11644
L896 11679
L878 11695
L840 11709
L784 11702
L746 11679
L728 11658
L709 11618
L709 11468
" />
<path d="M728 12164
L728 12295
" />
<path d="M521 12326
L521 12138
L915 12187
L915 12375
" />
<path d="M784 12527
L521 12494
" />
<path d="M746 12522
L765 12544
L784 12583
L784 12640
L765 12675
L728 12689
L521 12663
" />
<path d="M784 12827
L784 12977
" />
<path d="M915 12900
L578 12858
L540 12872
L521 12907
L521 12944
" />
<path d="M540 13228
L521 13188
L521 13113
L540 13078
L578 13064
L728 13083
L765 13106
L784 13146
L784 13221
L765 13256
L728 13270
L690 13265
L653 13073
" />
<path d="M521 13413
L784 13446
" />
<path d="M709 13436
L746 13460
L765 13481
L784 13521
L784 13558
" />
<path d="M784 13690
L390 13640
" />
<path d="M765 13687
L784 13727
L784 13802
L765 13837
L746 13854
L709 13868
L596 13854
L559 13830
L540 13809
L521 13769
L521 13694
L540 13659
" />
<path d="M521 14013
L784 14046
" />
<path d="M709 14036
L746 14060
L765 14081
L784 14121
L784 14158
" />
<path d="M521 14257
L784 14289
" />
<path d="M915 14306
L896 14285
L878 14301
L896 14322
L915 14306
L878 14301
" />
<path d="M540 14428
L521 14463
L521 14538
L540 14578
L578 14601
L596 14603
L634 14589
L653 14554
L653 14498
L671 14463
L709 14449
L728 14451
L765 14475
L784 14514
L784 14571
L765 14606
" />
<path d="M540 14915
L521 14875
L521 14800
L540 14765
L578 14751
L728 14770
L765 14793
L784 14833
L784 14908
L765 14943
L728 14957
L690 14953
L653 14760
" />
<path d="M540 15084
L521 15119
L521 15194
L540 15234
L578 15257
L596 15260
L634 15246
L653 15210
L653 15154
L671 15119
L709 15105
L728 15107
L765 15131
L784 15171
L784 15227
L765 15262
" />
</g>
<g style="fill:#000000; fill-opacity:0.0; 
stroke:#000000; stroke-width:118.11; stroke-opacity:1; 
stroke-linecap:round; stroke-linejoin:round;">
<path d="M22825 792
L23274 792
" />
<path d="M25225 792
L25674 792
" />
<path d="M25450 1017
L25450 567
" />
</g>
<g style="fill:#000000; fill-opacity:0.0; 
stroke:#000000; stroke-width:59.0551; stroke-opacity:1; 
stroke-linecap:round; stroke-linejoin:round;">
<path d="M23412 3978
L23281 3790
" />
<path d="M23187 3978
L23187 3584
L23337 3584
L23375 3603
L23393 3621
L23412 3659
L23412 3715
L23393 3753
L23375 3771
L23337 3790
L23187 3790
" />
<path d="M23731 3959
L23693 3978
L23618 3978
L23581 3959
L23562 3921
L23562 3771
L23581 3734
L23618 3715
L23693 3715
L23731 3734
L23750 3771
L23750 3809
L23562 3846
" />
<path d="M23900 3959
L23937 3978
L24012 3978
L24049 3959
L24068 3921
L24068 3903
L24049 3865
L24012 3846
L23956 3846
L23918 3828
L23900 3790
L23900 3771
L23918 3734
L23956 3715
L24012 3715
L24049 3734
" />
<path d="M24387 3959
L24349 3978
L24274 3978
L24237 3959
L24218 3921
L24218 3771
L24237 3734
L24274 3715
L24349 3715
L24387 3734
L24406 3771
L24406 3809
L24218 3846
" />
<path d="M24518 3715
L24668 3715
" />
<path d="M24574 3584
L24574 3921
L24593 3959
L24631 3978
L24668 3978
" />
</g>
<g style="fill:#000000; fill-opacity:0.0; 
stroke:#000000; stroke-width:118.11; stroke-opacity:1; 
stroke-linecap:round; stroke-linejoin:round;">
<path d="M33829 27586
L33801 27642
L33773 27670
L33717 27699
L33689 27699
L33632 27670
L33604 27642
L33576 27586
L33576 27474
L33604 27417
L33632 27389
L33689 27361
L33717 27361
L33773 27389
L33801 27417
L33829 27474
L33829 27586
L33857 27642
L33885 27670
L33942 27699
L34054 27699
L34110 27670
L34139 27642
L34167 27586
L34167 27474
L34139 27417
L34110 27389
L34054 27361
L33942 27361
L33885 27389
L33857 27417
L33829 27474
" />
<path d="M33942 27108
L33942 26658
" />
<path d="M34110 26039
L34139 26068
L34167 26152
L34167 26208
L34139 26293
L34082 26349
L34026 26377
L33914 26405
L33829 26405
L33717 26377
L33660 26349
L33604 26293
L33576 26208
L33576 26152
L33604 26068
L33632 26039
" />
<path d="M34167 25786
L33576 25786
" />
<path d="M34167 25533
L33857 25533
L33801 25561
L33773 25618
L33773 25702
L33801 25758
L33829 25786
" />
<path d="M34167 24999
L33857 24999
L33801 25027
L33773 25083
L33773 25196
L33801 25252
" />
<path d="M34139 24999
L34167 25055
L34167 25196
L34139 25252
L34082 25280
L34026 25280
L33970 25252
L33942 25196
L33942 25055
L33914 24999
" />
<path d="M33773 24718
L34167 24718
" />
<path d="M33829 24718
L33801 24690
L33773 24633
L33773 24549
L33801 24493
L33857 24465
L34167 24465
" />
<path d="M33773 24183
L34167 24183
" />
<path d="M33829 24183
L33801 24155
L33773 24099
L33773 24015
L33801 23958
L33857 23930
L34167 23930
" />
<path d="M34139 23424
L34167 23480
L34167 23593
L34139 23649
L34082 23677
L33857 23677
L33801 23649
L33773 23593
L33773 23480
L33801 23424
L33857 23396
L33914 23396
L33970 23677
" />
<path d="M34167 23059
L34139 23115
L34082 23143
L33576 23143
" />
<path d="M33576 22468
L33576 22131
" />
<path d="M34167 22299
L33576 22299
" />
<path d="M34167 21934
L33576 21934
" />
<path d="M34167 21681
L33857 21681
L33801 21709
L33773 21765
L33773 21849
L33801 21906
L33829 21934
" />
<path d="M34139 21174
L34167 21231
L34167 21343
L34139 21399
L34082 21428
L33857 21428
L33801 21399
L33773 21343
L33773 21231
L33801 21174
L33857 21146
L33914 21146
L33970 21428
" />
<path d="M34167 20893
L33773 20893
" />
<path d="M33885 20893
L33829 20865
L33801 20837
L33773 20781
L33773 20724
" />
<path d="M34167 20528
L33773 20528
" />
<path d="M33829 20528
L33801 20500
L33773 20443
L33773 20359
L33801 20303
L33857 20275
L34167 20275
" />
<path d="M33857 20275
L33801 20246
L33773 20190
L33773 20106
L33801 20050
L33857 20021
L34167 20021
" />
<path d="M34167 19656
L34139 19712
L34110 19740
L34054 19768
L33885 19768
L33829 19740
L33801 19712
L33773 19656
L33773 19571
L33801 19515
L33829 19487
L33885 19459
L34054 19459
L34110 19487
L34139 19515
L34167 19571
L34167 19656
" />
<path d="M34139 18953
L34167 19009
L34167 19122
L34139 19178
L34110 19206
L34054 19234
L33885 19234
L33829 19206
L33801 19178
L33773 19122
L33773 19009
L33801 18953
" />
<path d="M34167 18615
L34139 18672
L34110 18700
L34054 18728
L33885 18728
L33829 18700
L33801 18672
L33773 18615
L33773 18531
L33801 18475
L33829 18447
L33885 18419
L34054 18419
L34110 18447
L34139 18475
L34167 18531
L34167 18615
" />
<path d="M33773 17912
L34167 17912
" />
<path d="M33773 18165
L34082 18165
L34139 18137
L34167 18081
L34167 17997
L34139 17940
L34110 17912
" />
<path d="M33773 17631
L34364 17631
" />
<path d="M33801 17631
L33773 17575
L33773 17462
L33801 17406
L33829 17378
L33885 17350
L34054 17350
L34110 17378
L34139 17406
L34167 17462
L34167 17575
L34139 17631
" />
<path d="M34167 17012
L34139 17069
L34082 17097
L33576 17097
" />
<path d="M34139 16562
L34167 16619
L34167 16731
L34139 16787
L34082 16816
L33857 16816
L33801 16787
L33773 16731
L33773 16619
L33801 16562
L33857 16534
L33914 16534
L33970 16816
" />
<path d="M34167 15747
L34139 15803
L34082 15831
L33576 15831
" />
<path d="M34167 15438
L34139 15494
L34110 15522
L34054 15550
L33885 15550
L33829 15522
L33801 15494
L33773 15438
L33773 15353
L33801 15297
L33829 15269
L33885 15241
L34054 15241
L34110 15269
L34139 15297
L34167 15353
L34167 15438
" />
<path d="M33773 14735
L34251 14735
L34307 14763
L34335 14791
L34364 14847
L34364 14931
L34335 14988
" />
<path d="M34139 14735
L34167 14791
L34167 14903
L34139 14960
L34110 14988
L34054 15016
L33885 15016
L33829 14988
L33801 14960
L33773 14903
L33773 14791
L33801 14735
" />
<path d="M33773 14200
L34251 14200
L34307 14228
L34335 14257
L34364 14313
L34364 14397
L34335 14453
" />
<path d="M34139 14200
L34167 14257
L34167 14369
L34139 14425
L34110 14453
L34054 14482
L33885 14482
L33829 14453
L33801 14425
L33773 14369
L33773 14257
L33801 14200
" />
<path d="M34139 13694
L34167 13750
L34167 13863
L34139 13919
L34082 13947
L33857 13947
L33801 13919
L33773 13863
L33773 13750
L33801 13694
L33857 13666
L33914 13666
L33970 13947
" />
<path d="M34167 13413
L33773 13413
" />
<path d="M33885 13413
L33829 13385
L33801 13357
L33773 13300
L33773 13244
" />
</g>
<g style="fill:#000000; fill-opacity:0.0; 
stroke:#000000; stroke-width:39.3701; stroke-opacity:1; 
stroke-linecap:round; stroke-linejoin:round;">
<path d="M1346 30240
L35000 30250
" />
<path d="M0 0
L7 28901
" />
<path d="M0 500
L0 500
" />
</g>
<g style="fill:#000000; fill-opacity:0.0; 
stroke:#000000; stroke-width:59.0551; stroke-opacity:1; 
stroke-linecap:round; stroke-linejoin:round;">
<path d="M3234 19678
L3234 19284
L3328 19284
L3384 19303
L3421 19340
L3440 19378
L3459 19453
L3459 19509
L3440 19584
L3421 19621
L3384 19659
L3328 19678
L3234 19678
" />
<path d="M3628 19678
L3628 19415
" />
<path d="M3628 19284
L3609 19303
L3628 19321
L3646 19303
L3628 19284
L3628 19321
" />
<path d="M3796 19659
L3834 19678
L3909 19678
L3946 19659
L3965 19621
L3965 19603
L3946 19565
L3909 19546
L3853 19546
L3815 19528
L3796 19490
L3796 19471
L3815 19434
L3853 19415
L3909 19415
L3946 19434
" />
<path d="M4134 19415
L4134 19809
" />
<path d="M4134 19434
L4171 19415
L4246 19415
L4284 19434
L4303 19453
L4321 19490
L4321 19603
L4303 19640
L4284 19659
L4246 19678
L4171 19678
L4134 19659
" />
<path d="M4546 19678
L4509 19659
L4490 19621
L4490 19284
" />
<path d="M4865 19678
L4865 19471
L4846 19434
L4809 19415
L4734 19415
L4696 19434
" />
<path d="M4865 19659
L4828 19678
L4734 19678
L4696 19659
L4678 19621
L4678 19584
L4696 19546
L4734 19528
L4828 19528
L4865 19509
" />
<path d="M5015 19415
L5109 19678
" />
<path d="M5202 19415
L5109 19678
L5071 19771
L5053 19790
L5015 19809
" />
</g>
<g style="fill:#000000; fill-opacity:0.0; 
stroke:#000000; stroke-width:47.2441; stroke-opacity:1; 
stroke-linecap:round; stroke-linejoin:round;">
<path d="M27866 10964
L25515 10964
" />
<path d="M25515 10964
L25515 21838
" />
<path d="M25515 21838
L27866 21838
" />
<path d="M27866 21838
L27866 10964
" />
<path d="M27862 12267
L27566 12267
" />
<path d="M27566 12267
L27566 20535
" />
<path d="M27566 20535
L27862 20535
" />
<path d="M27862 20535
L27862 12267
" />
<path d="M27862 10968
L27566 10968
" />
<path d="M27566 10968
L27566 11677
" />
<path d="M27566 11677
L27862 11677
" />
<path d="M27862 11677
L27862 10968
" />
<path d="M27862 21125
L27566 21125
" />
<path d="M27566 21125
L27566 21834
" />
<path d="M27566 21834
L27862 21834
" />
<path d="M27862 21834
L27862 21125
" />
<path d="M26976 10968
L26976 11263
" />
<path d="M26976 11263
L25814 11263
" />
<path d="M25814 11263
L25814 16401
" />
<path d="M26976 21834
L26976 21539
" />
<path d="M26976 21539
L25814 21539
" />
<path d="M25814 21539
L25814 16401
" />
<path d="M27980 11342
L27980 10850
" />
<path d="M27980 10850
L27488 10850
" />
<path d="M14476 5895
L14889 5895
" />
<path d="M14889 5481
L14889 5895
" />
<path d="M11188 3493
L11188 29
" />
<path d="M11188 29
L14811 29
" />
<path d="M12251 5816
L11188 5816
" />
<path d="M11188 5816
L11188 5068
" />
<path d="M14811 29
L14811 5816
" />
<path d="M14811 5816
L13787 5816
" />
<circle cx="2291.34" cy="17878.3" r="2074.8" /> 
<path d="M9722 29832
L9722 29340
" />
<path d="M9229 29832
L9722 29832
" />
<path d="M6907 27667
L8107 27667
" />
<path d="M6907 28828
L6907 27667
" />
<path d="M6611 28828
L6907 28828
" />
<path d="M9308 27667
L8107 27667
" />
<path d="M9308 28828
L9308 27667
" />
<path d="M9603 28828
L9308 28828
" />
<path d="M6611 29714
L7320 29714
" />
<path d="M6611 29419
L6611 29714
" />
<path d="M7320 29419
L6611 29419
" />
<path d="M7320 29714
L7320 29419
" />
<path d="M8895 29714
L9603 29714
" />
<path d="M8895 29419
L8895 29714
" />
<path d="M9603 29419
L8895 29419
" />
<path d="M9603 29714
L9603 29419
" />
<path d="M7911 29714
L8304 29714
" />
<path d="M7911 29419
L7911 29714
" />
<path d="M8304 29419
L7911 29419
" />
<path d="M8304 29714
L8304 29419
" />
<path d="M6607 29718
L9607 29718
" />
<path d="M6607 27368
L6607 29718
" />
<path d="M9607 27368
L6607 27368
" />
<path d="M9607 29718
L9607 27368
" />
<path d="M13222 29832
L13222 29340
" />
<path d="M12729 29832
L13222 29832
" />
<path d="M10407 27667
L11607 27667
" />
<path d="M10407 28828
L10407 27667
" />
<path d="M10111 28828
L10407 28828
" />
<path d="M12808 27667
L11607 27667
" />
<path d="M12808 28828
L12808 27667
" />
<path d="M13103 28828
L12808 28828
" />
<path d="M10111 29714
L10820 29714
" />
<path d="M10111 29419
L10111 29714
" />
<path d="M10820 29419
L10111 29419
" />
<path d="M10820 29714
L10820 29419
" />
<path d="M12395 29714
L13103 29714
" />
<path d="M12395 29419
L12395 29714
" />
<path d="M13103 29419
L12395 29419
" />
<path d="M13103 29714
L13103 29419
" />
<path d="M11411 29714
L11804 29714
" />
<path d="M11411 29419
L11411 29714
" />
<path d="M11804 29419
L11411 29419
" />
<path d="M11804 29714
L11804 29419
" />
<path d="M10107 29718
L13107 29718
" />
<path d="M10107 27368
L10107 29718
" />
<path d="M13107 27368
L10107 27368
" />
<path d="M13107 29718
L13107 27368
" />
<path d="M16722 29832
L16722 29340
" />
<path d="M16229 29832
L16722 29832
" />
<path d="M13907 27667
L15107 27667
" />
<path d="M13907 28828
L13907 27667
" />
<path d="M13611 28828
L13907 28828
" />
<path d="M16308 27667
L15107 27667
" />
<path d="M16308 28828
L16308 27667
" />
<path d="M16603 28828
L16308 28828
" />
<path d="M13611 29714
L14320 29714
" />
<path d="M13611 29419
L13611 29714
" />
<path d="M14320 29419
L13611 29419
" />
<path d="M14320 29714
L14320 29419
" />
<path d="M15895 29714
L16603 29714
" />
<path d="M15895 29419
L15895 29714
" />
<path d="M16603 29419
L15895 29419
" />
<path d="M16603 29714
L16603 29419
" />
<path d="M14911 29714
L15304 29714
" />
<path d="M14911 29419
L14911 29714
" />
<path d="M15304 29419
L14911 29419
" />
<path d="M15304 29714
L15304 29419
" />
<path d="M13607 29718
L16607 29718
" />
<path d="M13607 27368
L13607 29718
" />
<path d="M16607 27368
L13607 27368
" />
<path d="M16607 29718
L16607 27368
" />
<path d="M20222 29832
L20222 29340
" />
<path d="M19729 29832
L20222 29832
" />
<path d="M17407 27667
L18607 27667
" />
<path d="M17407 28828
L17407 27667
" />
<path d="M17111 28828
L17407 28828
" />
<path d="M19808 27667
L18607 27667
" />
<path d="M19808 28828
L19808 27667
" />
<path d="M20103 28828
L19808 28828
" />
<path d="M17111 29714
L17820 29714
" />
<path d="M17111 29419
L17111 29714
" />
<path d="M17820 29419
L17111 29419
" />
<path d="M17820 29714
L17820 29419
" />
<path d="M19395 29714
L20103 29714
" />
<path d="M19395 29419
L19395 29714
" />
<path d="M20103 29419
L19395 29419
" />
<path d="M20103 29714
L20103 29419
" />
<path d="M18411 29714
L18804 29714
" />
<path d="M18411 29419
L18411 29714
" />
<path d="M18804 29419
L18411 29419
" />
<path d="M18804 29714
L18804 29419
" />
<path d="M17107 29718
L20107 29718
" />
<path d="M17107 27368
L17107 29718
" />
<path d="M20107 27368
L17107 27368
" />
<path d="M20107 29718
L20107 27368
" />
<path d="M23706 29832
L23706 29340
" />
<path d="M23214 29832
L23706 29832
" />
<path d="M20891 27667
L22092 27667
" />
<path d="M20891 28828
L20891 27667
" />
<path d="M20596 28828
L20891 28828
" />
<path d="M23292 27667
L22092 27667
" />
<path d="M23292 28828
L23292 27667
" />
<path d="M23588 28828
L23292 28828
" />
<path d="M20596 29714
L21304 29714
" />
<path d="M20596 29419
L20596 29714
" />
<path d="M21304 29419
L20596 29419
" />
<path d="M21304 29714
L21304 29419
" />
<path d="M22879 29714
L23588 29714
" />
<path d="M22879 29419
L22879 29714
" />
<path d="M23588 29419
L22879 29419
" />
<path d="M23588 29714
L23588 29419
" />
<path d="M21895 29714
L22288 29714
" />
<path d="M21895 29419
L21895 29714
" />
<path d="M22288 29419
L21895 29419
" />
<path d="M22288 29714
L22288 29419
" />
<path d="M20592 29718
L23592 29718
" />
<path d="M20592 27368
L20592 29718
" />
<path d="M23592 27368
L20592 27368
" />
<path d="M23592 29718
L23592 27368
" />
<path d="M27206 29832
L27206 29340
" />
<path d="M26714 29832
L27206 29832
" />
<path d="M24391 27667
L25592 27667
" />
<path d="M24391 28828
L24391 27667
" />
<path d="M24096 28828
L24391 28828
" />
<path d="M26792 27667
L25592 27667
" />
<path d="M26792 28828
L26792 27667
" />
<path d="M27088 28828
L26792 28828
" />
<path d="M24096 29714
L24804 29714
" />
<path d="M24096 29419
L24096 29714
" />
<path d="M24804 29419
L24096 29419
" />
<path d="M24804 29714
L24804 29419
" />
<path d="M26379 29714
L27088 29714
" />
<path d="M26379 29419
L26379 29714
" />
<path d="M27088 29419
L26379 29419
" />
<path d="M27088 29714
L27088 29419
" />
<path d="M25395 29714
L25788 29714
" />
<path d="M25395 29419
L25395 29714
" />
<path d="M25788 29419
L25395 29419
" />
<path d="M25788 29714
L25788 29419
" />
<path d="M24092 29718
L27092 29718
" />
<path d="M24092 27368
L24092 29718
" />
<path d="M27092 27368
L24092 27368
" />
<path d="M27092 29718
L27092 27368
" />
<path d="M30706 29832
L30706 29340
" />
<path d="M30214 29832
L30706 29832
" />
<path d="M27891 27667
L29092 27667
" />
<path d="M27891 28828
L27891 27667
" />
<path d="M27596 28828
L27891 28828
" />
<path d="M30292 27667
L29092 27667
" />
<path d="M30292 28828
L30292 27667
" />
<path d="M30588 28828
L30292 28828
" />
<path d="M27596 29714
L28304 29714
" />
<path d="M27596 29419
L27596 29714
" />
<path d="M28304 29419
L27596 29419
" />
<path d="M28304 29714
L28304 29419
" />
<path d="M29879 29714
L30588 29714
" />
<path d="M29879 29419
L29879 29714
" />
<path d="M30588 29419
L29879 29419
" />
<path d="M30588 29714
L30588 29419
" />
<path d="M28895 29714
L29288 29714
" />
<path d="M28895 29419
L28895 29714
" />
<path d="M29288 29419
L28895 29419
" />
<path d="M29288 29714
L29288 29419
" />
<path d="M27592 29718
L30592 29718
" />
<path d="M27592 27368
L27592 29718
" />
<path d="M30592 27368
L27592 27368
" />
<path d="M30592 29718
L30592 27368
" />
<path d="M5161.47 11651.9 A472.441 472.441 0.0 0 0 5161.36 12400 " />
<path d="M5738.64 12400 A472.441 472.441 0.0 0 0 5738.53 11651.9 " />
<path d="M6222 29832
L6222 29340
" />
<path d="M5729 29832
L6222 29832
" />
<path d="M3407 27667
L4607 27667
" />
<path d="M3407 28828
L3407 27667
" />
<path d="M3111 28828
L3407 28828
" />
<path d="M5808 27667
L4607 27667
" />
<path d="M5808 28828
L5808 27667
" />
<path d="M6103 28828
L5808 28828
" />
<path d="M3111 29714
L3820 29714
" />
<path d="M3111 29419
L3111 29714
" />
<path d="M3820 29419
L3111 29419
" />
<path d="M3820 29714
L3820 29419
" />
<path d="M5395 29714
L6103 29714
" />
<path d="M5395 29419
L5395 29714
" />
<path d="M6103 29419
L5395 29419
" />
<path d="M6103 29714
L6103 29419
" />
<path d="M4411 29714
L4804 29714
" />
<path d="M4411 29419
L4411 29714
" />
<path d="M4804 29419
L4411 29419
" />
<path d="M4804 29714
L4804 29419
" />
<path d="M3107 29718
L6107 29718
" />
<path d="M3107 27368
L3107 29718
" />
<path d="M6107 27368
L3107 27368
" />
<path d="M6107 29718
L6107 27368
" />
</g>
<g style="fill:#000000; fill-opacity:0.0; 
stroke:#000000; stroke-width:59.0551; stroke-opacity:1; 
stroke-linecap:round; stroke-linejoin:round;">
<path d="M6096 13614
L6096 11800
" />
<path d="M9403 13614
L6096 13614
" />
<path d="M9403 11485
L9403 13614
" />
<path d="M6411 11485
L9403 11485
" />
<path d="M6096 11800
L6411 11485
" />
</g>
<g style="fill:#000000; fill-opacity:0.0; 
stroke:#000000; stroke-width:47.2441; stroke-opacity:1; 
stroke-linecap:round; stroke-linejoin:round;">
<path d="M6863 9786
L7532 9786
" />
<path d="M9036 9786
L8367 9786
" />
<path d="M9036 8032
L9036 9786
" />
<path d="M6863 8032
L6863 9786
" />
<path d="M7282 7613
L7532 7613
" />
<path d="M8617 7613
L8367 7613
" />
<path d="M8617 7613
L9036 8032
" />
<path d="M7282 7613
L6863 8032
" />
<path d="M10068 3757
L7718 3757
" />
<path d="M7718 3757
L7718 6757
" />
<path d="M7718 6757
L10068 6757
" />
<path d="M10068 6757
L10068 3757
" />
<path d="M10064 5061
L9769 5061
" />
<path d="M9769 5061
L9769 5454
" />
<path d="M9769 5454
L10064 5454
" />
<path d="M10064 5454
L10064 5061
" />
<path d="M10064 3761
L9769 3761
" />
<path d="M9769 3761
L9769 4470
" />
<path d="M9769 4470
L10064 4470
" />
<path d="M10064 4470
L10064 3761
" />
<path d="M10064 6045
L9769 6045
" />
<path d="M9769 6045
L9769 6753
" />
<path d="M9769 6753
L10064 6753
" />
<path d="M10064 6753
L10064 6045
" />
<path d="M9178 3761
L9178 4057
" />
<path d="M9178 4057
L8017 4057
" />
<path d="M8017 4057
L8017 5257
" />
<path d="M9178 6753
L9178 6458
" />
<path d="M9178 6458
L8017 6458
" />
<path d="M8017 6458
L8017 5257
" />
<path d="M10182 4135
L10182 3643
" />
<path d="M10182 3643
L9690 3643
" />
</g>
<g style="fill:#000000; fill-opacity:0.0; 
stroke:#000000; stroke-width:59.0551; stroke-opacity:1; 
stroke-linecap:round; stroke-linejoin:round;">
<path d="M17380 5803
L16199 5803
" />
<path d="M17557 5448
L17557 5566
" />
<path d="M17675 5448
L17557 5448
" />
<path d="M17675 5566
L17675 5448
" />
<path d="M17557 5566
L17675 5566
" />
<path d="M15589 5409
L15589 2574
" />
<path d="M15589 291
L15589 1472
" />
<path d="M16652 291
L15589 291
" />
<path d="M21376 1472
L21376 566
" />
<path d="M21376 2574
L21376 5409
" />
<path d="M17380 5803
L17380 6314
" />
<path d="M17065 409
L16652 291
" />
<path d="M17498 488
L17065 409
" />
<path d="M17951 547
L17498 488
" />
<path d="M18483 566
L17951 547
" />
<path d="M21376 566
L18483 566
" />
</g>
<g style="fill:#000000; fill-opacity:0.0; 
stroke:#000000; stroke-width:47.2441; stroke-opacity:1; 
stroke-linecap:round; stroke-linejoin:round;">
<path d="M2419 14137
L2419 13810
" />
<path d="M2419 15184
L2419 14562
" />
<path d="M3679 13936
L3679 13810
" />
<path d="M3679 15184
L3679 14763
" />
<path d="M1427 15184
L1427 13810
" />
<path d="M4672 15184
L4672 13810
" />
<path d="M4672 13810
L1427 13810
" />
<path d="M4672 15184
L1427 15184
" />
<path d="M30299 20763
L30948 20763
" />
<path d="M30299 13716
L30299 20763
" />
<path d="M32385 13716
L30299 13716
" />
<path d="M32385 20763
L32385 13716
" />
<path d="M31736 20763
L32385 20763
" />
<path d="M31736.2 20763.8 A393.701 393.701 0.0 0 0 30948.8 20763.8 " />
<path d="M11436 8521
L11436 9678
" />
<path d="M11530 8521
L11530 9678
" />
<path d="M11483 8521
L11483 9678
" />
<path d="M13672 9100
L13270 9100
" />
<path d="M10727 9100
L11129 9100
" />
<path d="M13270 8521
L11129 8521
" />
<path d="M13270 9678
L13270 8521
" />
<path d="M11129 9678
L13270 9678
" />
<path d="M11129 8521
L11129 9678
" />
<path d="M15742 8118
L15742 8709
" />
<path d="M16234 9693
L18006 9693
" />
<path d="M18498 8709
L18498 8118
" />
<path d="M18006 7134
L16234 7134
" />
<path d="M22551 1540
L22551 2131
" />
<path d="M23043 3115
L24815 3115
" />
<path d="M25307 2131
L25307 1540
" />
<path d="M24815 556
L23043 556
" />
<path d="M33208 7889
L32685 7889
" />
<path d="M33208 7366
L33208 7889
" />
<path d="M32185 7889
L31161 7889
" />
<path d="M32185 6866
L32185 7889
" />
<path d="M33208 6866
L32185 6866
" />
<path d="M31161 7889
L31161 4842
" />
<path d="M33208 6866
L33208 4842
" />
<path d="M33208 4842
L31161 4842
" />
<path d="M6392 7848
L5896 7848
" />
<path d="M3707 7848
L4203 7848
" />
<path d="M6392 9328
L6392 7848
" />
<path d="M3707 10214
L3707 7848
" />
<path d="M3862 3921
L4457 3921
" />
<path d="M3862 5378
L4457 5378
" />
<path d="M4457 6665
L4457 2634
" />
<path d="M3862 2634
L5689 2634
" />
<path d="M3862 6665
L5689 6665
" />
<path d="M5689 6665
L5689 2634
" />
<path d="M3862 6665
L3862 2634
" />
<path d="M8533 3294
L9490 3294
" />
<path d="M8525 3290
L8525 2896
" />
<path d="M8525 2089
L9254 2089
" />
<path d="M8525 2503
L8525 2089
" />
<path d="M10076 11056
L10076 11706
" />
<path d="M24123 11056
L10076 11056
" />
<path d="M24123 13143
L24123 11056
" />
<path d="M10076 13143
L24123 13143
" />
<path d="M10076 12493
L10076 13143
" />
<path d="M10076.4 12493.7 A393.701 393.701 0.0 0 0 10076.4 11706.3 " />
<path d="M24023.6 19656.3 A393.701 393.701 0.0 0 0 24023.6 20443.7 " />
<path d="M24023 19656
L24023 17506
" />
<path d="M24023 17506
L9976 17506
" />
<path d="M9976 17506
L9976 22593
" />
<path d="M9976 22593
L24023 22593
" />
<path d="M24023 22593
L24023 20443
" />
<path d="M17809.1 14305.9 A994.094 994.094 0.0 0 0 17809.1 16294.1 " />
<path d="M20269.7 16294.1 A994.094 994.094 0.0 0 0 20269.7 14305.9 " />
<path d="M20269 14305
L17809 14305
" />
<path d="M20269 16294
L17809 16294
" />
<path d="M6465 5359
L6465 4355
" />
<path d="M7134 5359
L7134 4355
" />
<path d="M6465 5359
L7134 5359
" />
<path d="M24856 7985
L24856 6450
" />
<path d="M25643 7985
L25643 6450
" />
<path d="M24856 7985
L25643 7985
" />
<path d="M23406 7985
L23406 6450
" />
<path d="M24193 7985
L24193 6450
" />
<path d="M23406 7985
L24193 7985
" />
<path d="M22046 7985
L22046 6450
" />
<path d="M22833 7985
L22833 6450
" />
<path d="M22046 7985
L22833 7985
" />
<path d="M5448 15629
L5651 15629
" />
<path d="M5448 15070
L5651 15070
" />
<path d="M5448 14754
L5651 14754
" />
<path d="M5448 14195
L5651 14195
" />
<path d="M13570 15298
L13570 15501
" />
<path d="M14129 15298
L14129 15501
" />
<path d="M7679 2801
L7679 2598
" />
<path d="M7120 2801
L7120 2598
" />
<path d="M21829 9351
L21829 9148
" />
<path d="M21270 9351
L21270 9148
" />
<path d="M19979 7351
L19979 7148
" />
<path d="M19420 7351
L19420 7148
" />
<path d="M23029 9351
L23029 9148
" />
<path d="M22470 9351
L22470 9148
" />
<path d="M3351 12279
L3148 12279
" />
<path d="M3351 11720
L3148 11720
" />
<path d="M19379 26351
L19379 26148
" />
<path d="M18820 26351
L18820 26148
" />
<path d="M24820 26148
L24820 26351
" />
<path d="M25379 26148
L25379 26351
" />
<path d="M5379 26331
L5379 26128
" />
<path d="M4820 26331
L4820 26128
" />
<path d="M3840 26128
L3840 26331
" />
<path d="M4399 26128
L4399 26331
" />
<path d="M7320 26148
L7320 26351
" />
<path d="M7879 26148
L7879 26351
" />
<path d="M10820 26148
L10820 26351
" />
<path d="M11379 26148
L11379 26351
" />
<path d="M14320 26148
L14320 26351
" />
<path d="M14879 26148
L14879 26351
" />
<path d="M17820 26148
L17820 26351
" />
<path d="M18379 26148
L18379 26351
" />
<path d="M21320 26148
L21320 26351
" />
<path d="M21879 26148
L21879 26351
" />
<path d="M28320 26148
L28320 26351
" />
<path d="M28879 26148
L28879 26351
" />
<path d="M8879 26351
L8879 26148
" />
<path d="M8320 26351
L8320 26148
" />
<path d="M12379 26351
L12379 26148
" />
<path d="M11820 26351
L11820 26148
" />
<path d="M15879 26351
L15879 26148
" />
<path d="M15320 26351
L15320 26148
" />
<path d="M22879 26351
L22879 26148
" />
<path d="M22320 26351
L22320 26148
" />
<path d="M26379 26351
L26379 26148
" />
<path d="M25820 26351
L25820 26148
" />
<path d="M29879 26351
L29879 26148
" />
<path d="M29320 26351
L29320 26148
" />
<path d="M4498 25329
L4701 25329
" />
<path d="M4498 24770
L4701 24770
" />
<path d="M21998 25329
L22201 25329
" />
<path d="M21998 24770
L22201 24770
" />
<path d="M18498 25329
L18701 25329
" />
<path d="M18498 24770
L18701 24770
" />
<path d="M7998 25329
L8201 25329
" />
<path d="M7998 24770
L8201 24770
" />
<path d="M11498 25329
L11701 25329
" />
<path d="M11498 24770
L11701 24770
" />
<path d="M14998 25329
L15201 25329
" />
<path d="M14998 24770
L15201 24770
" />
<path d="M25498 25329
L25701 25329
" />
<path d="M25498 24770
L25701 24770
" />
<path d="M28998 25329
L29201 25329
" />
<path d="M28998 24770
L29201 24770
" />
<path d="M7801 1020
L7598 1020
" />
<path d="M7801 1579
L7598 1579
" />
<path d="M15320 15198
L15320 15401
" />
<path d="M15879 15198
L15879 15401
" />
<path d="M29039 23314
L29243 23314
" />
<path d="M29039 22755
L29243 22755
" />
<path d="M3148 11279
L3351 11279
" />
<path d="M3148 10720
L3351 10720
" />
<path d="M22220 15098
L22220 15301
" />
<path d="M22779 15098
L22779 15301
" />
<path d="M2902 2847
L2410 2847
" />
<path d="M2902 3340
L2902 2847
" />
<path d="M737 7631
L737 5446
" />
<path d="M1898 7631
L737 7631
" />
<path d="M1898 7926
L1898 7631
" />
<path d="M737 3261
L737 5446
" />
<path d="M1898 3261
L737 3261
" />
<path d="M1898 2966
L1898 3261
" />
<path d="M2784 7926
L2784 7218
" />
<path d="M2489 7926
L2784 7926
" />
<path d="M2489 7218
L2489 7926
" />
<path d="M2784 7218
L2489 7218
" />
<path d="M2784 3674
L2784 2966
" />
<path d="M2489 3674
L2784 3674
" />
<path d="M2489 2966
L2489 3674
" />
<path d="M2784 2966
L2489 2966
" />
<path d="M2784 6627
L2784 4265
" />
<path d="M2489 6627
L2784 6627
" />
<path d="M2489 4265
L2489 6627
" />
<path d="M2784 4265
L2489 4265
" />
<path d="M2788 7930
L2788 2962
" />
<path d="M438 7930
L2788 7930
" />
<path d="M438 2962
L438 7930
" />
<path d="M2788 2962
L438 2962
" />
<path d="M4217 787
L4217 984
" />
<path d="M4118 885
L4315 885
" />
<path d="M4410 1970
L4829 2389
" />
<path d="M4410 1029
L4829 610
" />
<path d="M4410 1029
L4410 1082
" />
<path d="M4410 1970
L4410 1917
" />
<path d="M4829 2389
L6189 2389
" />
<path d="M4829 610
L6189 610
" />
<path d="M6189 610
L6189 1082
" />
<path d="M6189 2389
L6189 1917
" />
<path d="M22846 4372
L22846 4168
" />
<path d="M22287 4372
L22287 4168
" />
<g >
</g>
<g >
</g>
<g >
</g>
<g >
</g>
<g >
</g>
<g >
</g>
<g >
</g>
<g >
</g>
<g >
</g>
<g >
</g>
<g >
</g>
<g >
</g>
<g >
</g>
<g >
</g>
<g >
</g>
<g >
</g>
<g >
</g>
<g >
</g>
<g >
</g>
<g >
</g>
<g >
</g>
<g >
</g>
<g >
</g>
<g >
</g>
<g >
</g>
<g >
</g>
<g >
</g>
<g >
</g>
<g >
</g>
<g >
</g>
<g >
</g>
<g >
</g>
<g >
</g>
<g >
</g>
<g >
</g>
<g >
</g>
<g >
</g>
<g >
</g>
<g >
</g>
<g >
</g>
<g >
</g>
<g >
</g>
<g >
</g>
<g >
</g>
<g >
</g>
<g >
</g>
<g >
</g>
<g >
</g>
<g >
</g>
<g >
</g>
<g >
</g>
<g >
</g>
<g >
</g>
<g >
</g>
<g >
</g>
<g >
</g>
<g >
</g>
<g >
</g>
<g >
</g>
<g >
</g>
<g >
</g>
<g >
</g>
<g >
</g>
<g >
</g>
<g >
</g>
<g >
</g>
<g >
</g>
<g >
</g>
<g >
</g>
<g >
</g>
<g >
</g>
<g >
</g>
<g >
</g>
<g >
</g>
<g >
</g>
</g>
<g style="fill:#000000; fill-opacity:0.0; 
stroke:#000000; stroke-width:59.0551; stroke-opacity:1; 
stroke-linecap:round; stroke-linejoin:round;">
<path d="M28079 16532
L28360 16532
L28417 16551
L28454 16589
L28473 16645
L28473 16682
" />
<path d="M28117 16364
L28098 16345
L28079 16307
L28079 16214
L28098 16176
L28117 16157
L28154 16139
L28192 16139
L28248 16157
L28473 16382
L28473 16139
" />
<path d="M10520 2266
L10801 2266
L10858 2285
L10895 2322
L10914 2379
L10914 2416
" />
<path d="M10914 1872
L10914 2097
" />
<path d="M10914 1985
L10520 1985
L10576 2022
L10614 2060
L10633 2097
" />
<path d="M4989 18112
L4801 18243
" />
<path d="M4989 18337
L4595 18337
L4595 18187
L4614 18149
L4632 18131
L4670 18112
L4726 18112
L4764 18131
L4782 18149
L4801 18187
L4801 18337
" />
<path d="M4595 17999
L4989 17868
L4595 17737
" />
<path d="M4989 17399
L4989 17624
" />
<path d="M4989 17512
L4595 17512
L4651 17549
L4689 17587
L4707 17624
" />
<path d="M6500 26684
L6500 27003
L6518 27040
L6537 27059
L6575 27078
L6650 27078
L6687 27059
L6706 27040
L6725 27003
L6725 26684
" />
<path d="M7081 26815
L7081 27078
" />
<path d="M6987 26665
L6893 26946
L7137 26946
" />
<path d="M10000 26684
L10000 27003
L10018 27040
L10037 27059
L10075 27078
L10150 27078
L10187 27059
L10206 27040
L10225 27003
L10225 26684
" />
<path d="M10599 26684
L10412 26684
L10393 26871
L10412 26853
L10449 26834
L10543 26834
L10581 26853
L10599 26871
L10618 26909
L10618 27003
L10599 27040
L10581 27059
L10543 27078
L10449 27078
L10412 27059
L10393 27040
" />
<path d="M13500 26684
L13500 27003
L13518 27040
L13537 27059
L13575 27078
L13650 27078
L13687 27059
L13706 27040
L13725 27003
L13725 26684
" />
<path d="M14081 26684
L14006 26684
L13968 26703
L13949 26721
L13912 26778
L13893 26853
L13893 27003
L13912 27040
L13931 27059
L13968 27078
L14043 27078
L14081 27059
L14099 27040
L14118 27003
L14118 26909
L14099 26871
L14081 26853
L14043 26834
L13968 26834
L13931 26853
L13912 26871
L13893 26909
" />
<path d="M17000 26684
L17000 27003
L17018 27040
L17037 27059
L17075 27078
L17150 27078
L17187 27059
L17206 27040
L17225 27003
L17225 26684
" />
<path d="M17374 26684
L17637 26684
L17468 27078
" />
<path d="M20500 26684
L20500 27003
L20518 27040
L20537 27059
L20575 27078
L20650 27078
L20687 27059
L20706 27040
L20725 27003
L20725 26684
" />
<path d="M20968 26853
L20931 26834
L20912 26815
L20893 26778
L20893 26759
L20912 26721
L20931 26703
L20968 26684
L21043 26684
L21081 26703
L21099 26721
L21118 26759
L21118 26778
L21099 26815
L21081 26834
L21043 26853
L20968 26853
L20931 26871
L20912 26890
L20893 26928
L20893 27003
L20912 27040
L20931 27059
L20968 27078
L21043 27078
L21081 27059
L21099 27040
L21118 27003
L21118 26928
L21099 26890
L21081 26871
L21043 26853
" />
<path d="M24000 26684
L24000 27003
L24018 27040
L24037 27059
L24075 27078
L24150 27078
L24187 27059
L24206 27040
L24225 27003
L24225 26684
" />
<path d="M24431 27078
L24506 27078
L24543 27059
L24562 27040
L24599 26984
L24618 26909
L24618 26759
L24599 26721
L24581 26703
L24543 26684
L24468 26684
L24431 26703
L24412 26721
L24393 26759
L24393 26853
L24412 26890
L24431 26909
L24468 26928
L24543 26928
L24581 26909
L24599 26890
L24618 26853
" />
<path d="M27212 26684
L27212 27003
L27231 27040
L27250 27059
L27287 27078
L27362 27078
L27400 27059
L27418 27040
L27437 27003
L27437 26684
" />
<path d="M27831 27078
L27606 27078
" />
<path d="M27718 27078
L27718 26684
L27681 26740
L27643 26778
L27606 26796
" />
<path d="M28074 26684
L28112 26684
L28149 26703
L28168 26721
L28187 26759
L28206 26834
L28206 26928
L28187 27003
L28168 27040
L28149 27059
L28112 27078
L28074 27078
L28037 27059
L28018 27040
L27999 27003
L27981 26928
L27981 26834
L27999 26759
L28018 26721
L28037 26703
L28074 26684
" />
<path d="M4574 12213
L4761 12213
" />
<path d="M4368 12344
L4574 12213
L4368 12082
" />
<path d="M4405 11969
L4387 11950
L4368 11913
L4368 11819
L4387 11782
L4405 11763
L4443 11744
L4480 11744
L4536 11763
L4761 11988
L4761 11744
" />
<path d="M3000 26684
L3000 27003
L3018 27040
L3037 27059
L3075 27078
L3150 27078
L3187 27059
L3206 27040
L3225 27003
L3225 26684
" />
<path d="M3374 26684
L3618 26684
L3487 26834
L3543 26834
L3581 26853
L3599 26871
L3618 26909
L3618 27003
L3599 27040
L3581 27059
L3543 27078
L3431 27078
L3393 27059
L3374 27040
" />
<path d="M7262 10875
L7262 11194
L7281 11231
L7300 11250
L7337 11269
L7412 11269
L7450 11250
L7468 11231
L7487 11194
L7487 10875
" />
<path d="M7881 11269
L7656 11269
" />
<path d="M7768 11269
L7768 10875
L7731 10931
L7693 10969
L7656 10988
" />
<path d="M8237 10875
L8049 10875
L8031 11063
L8049 11044
L8087 11025
L8181 11025
L8218 11044
L8237 11063
L8256 11100
L8256 11194
L8237 11231
L8218 11250
L8181 11269
L8087 11269
L8049 11250
L8031 11231
" />
<path d="M9547 8765
L9566 8784
L9584 8840
L9584 8878
L9566 8934
L9528 8971
L9491 8990
L9416 9009
L9359 9009
L9284 8990
L9247 8971
L9209 8934
L9191 8878
L9191 8840
L9209 8784
L9228 8765
" />
<path d="M9228 8615
L9209 8596
L9191 8559
L9191 8465
L9209 8428
L9228 8409
L9266 8390
L9303 8390
L9359 8409
L9584 8634
L9584 8390
" />
<path d="M10469 5567
L10488 5510
L10507 5492
L10544 5473
L10600 5473
L10638 5492
L10656 5510
L10675 5548
L10675 5698
L10282 5698
L10282 5567
L10300 5529
L10319 5510
L10357 5492
L10394 5492
L10432 5510
L10450 5529
L10469 5567
L10469 5698
" />
<path d="M10282 5360
L10282 5136
" />
<path d="M10675 5248
L10282 5248
" />
<path d="M10675 4798
L10675 5023
" />
<path d="M10675 4911
L10282 4911
L10338 4948
L10375 4986
L10394 5023
" />
<path d="M3012 15793
L2975 15775
L2937 15737
L2881 15681
L2843 15662
L2806 15662
" />
<path d="M2825 15756
L2787 15737
L2750 15700
L2731 15625
L2731 15493
L2750 15418
L2787 15381
L2825 15362
L2900 15362
L2937 15381
L2975 15418
L2993 15493
L2993 15625
L2975 15700
L2937 15737
L2900 15756
L2825 15756
" />
<path d="M3143 15400
L3162 15381
L3199 15362
L3293 15362
L3331 15381
L3349 15400
L3368 15437
L3368 15475
L3349 15531
L3124 15756
L3368 15756
" />
<path d="M33376 20327
L33695 20327
L33733 20308
L33751 20290
L33770 20252
L33770 20177
L33751 20140
L33733 20121
L33695 20102
L33376 20102
" />
<path d="M33770 19708
L33770 19933
" />
<path d="M33770 19821
L33376 19821
L33433 19858
L33470 19896
L33489 19933
" />
<path d="M33376 19577
L33376 19333
L33526 19465
L33526 19408
L33545 19371
L33564 19352
L33601 19333
L33695 19333
L33733 19352
L33751 19371
L33770 19408
L33770 19521
L33751 19558
L33733 19577
" />
<path d="M11909 8329
L11909 7935
L12003 7935
L12059 7954
L12096 7991
L12115 8029
L12134 8104
L12134 8160
L12115 8235
L12096 8273
L12059 8310
L12003 8329
L11909 8329
" />
<path d="M12509 8329
L12284 8329
" />
<path d="M12396 8329
L12396 7935
L12359 7991
L12321 8029
L12284 8048
" />
<path d="M10096 8451
L10096 8057
" />
<path d="M10321 8451
L10153 8226
" />
<path d="M10321 8057
L10096 8282
" />
<path d="M16595 10246
L16651 10265
L16745 10265
L16783 10246
L16801 10228
L16820 10190
L16820 10153
L16801 10115
L16783 10096
L16745 10078
L16670 10059
L16633 10040
L16614 10021
L16595 9984
L16595 9946
L16614 9909
L16633 9890
L16670 9871
L16764 9871
L16820 9890
" />
<path d="M16951 9871
L17045 10265
L17120 9984
L17195 10265
L17289 9871
" />
<path d="M17420 9909
L17439 9890
L17476 9871
L17570 9871
L17607 9890
L17626 9909
L17645 9946
L17645 9984
L17626 10040
L17401 10265
L17645 10265
" />
<path d="M23404 3668
L23460 3687
L23554 3687
L23592 3668
L23610 3649
L23629 3612
L23629 3574
L23610 3537
L23592 3518
L23554 3499
L23479 3480
L23442 3462
L23423 3443
L23404 3405
L23404 3368
L23423 3330
L23442 3312
L23479 3293
L23573 3293
L23629 3312
" />
<path d="M23760 3293
L23854 3687
L23929 3405
L24004 3687
L24098 3293
" />
<path d="M24454 3687
L24229 3687
" />
<path d="M24341 3687
L24341 3293
L24304 3349
L24266 3387
L24229 3405
" />
<path d="M31894 8461
L31894 8067
L32044 8067
L32081 8086
L32100 8105
L32119 8142
L32119 8199
L32100 8236
L32081 8255
L32044 8274
L31894 8274
" />
<path d="M32494 8461
L32269 8461
" />
<path d="M32381 8461
L32381 8067
L32344 8124
L32306 8161
L32269 8180
" />
<path d="M3062 8899
L3381 8899
L3418 8881
L3437 8862
L3456 8824
L3456 8749
L3437 8712
L3418 8693
L3381 8674
L3062 8674
" />
<path d="M3456 8281
L3456 8506
" />
<path d="M3456 8393
L3062 8393
L3118 8431
L3156 8468
L3175 8506
" />
<path d="M3253 4949
L3572 4949
L3609 4931
L3628 4912
L3647 4874
L3647 4799
L3628 4762
L3609 4743
L3572 4724
L3253 4724
" />
<path d="M3290 4556
L3272 4537
L3253 4500
L3253 4406
L3272 4368
L3290 4350
L3328 4331
L3365 4331
L3422 4350
L3647 4575
L3647 4331
" />
<path d="M8962 1965
L8925 1946
L8887 1909
L8831 1853
L8793 1834
L8756 1834
" />
<path d="M8775 1928
L8737 1909
L8700 1871
L8681 1796
L8681 1665
L8700 1590
L8737 1553
L8775 1534
L8850 1534
L8887 1553
L8925 1590
L8943 1665
L8943 1796
L8925 1871
L8887 1909
L8850 1928
L8775 1928
" />
<path d="M9318 1928
L9093 1928
" />
<path d="M9206 1928
L9206 1534
L9168 1590
L9131 1628
L9093 1646
" />
<path d="M9443 12587
L9762 12587
L9799 12568
L9818 12549
L9837 12512
L9837 12437
L9818 12399
L9799 12381
L9762 12362
L9443 12362
" />
<path d="M9837 11968
L9837 12193
" />
<path d="M9837 12081
L9443 12081
L9499 12118
L9537 12156
L9555 12193
" />
<path d="M9574 11631
L9837 11631
" />
<path d="M9424 11725
L9705 11818
L9705 11575
" />
<path d="M24201 20537
L24520 20537
L24557 20518
L24576 20499
L24595 20462
L24595 20387
L24576 20349
L24557 20331
L24520 20312
L24201 20312
" />
<path d="M24595 19918
L24595 20143
" />
<path d="M24595 20031
L24201 20031
L24257 20068
L24295 20106
L24314 20143
" />
<path d="M24595 19543
L24595 19768
" />
<path d="M24595 19656
L24201 19656
L24257 19693
L24295 19731
L24314 19768
" />
<path d="M18851 16678
L18851 16865
" />
<path d="M18720 16472
L18851 16678
L18983 16472
" />
<path d="M19320 16865
L19095 16865
" />
<path d="M19208 16865
L19208 16472
L19170 16528
L19133 16565
L19095 16584
" />
<path d="M6249 5059
L5856 5059
L5856 4965
L5874 4909
L5912 4871
L5949 4852
L6024 4834
L6081 4834
L6156 4852
L6193 4871
L6231 4909
L6249 4965
L6249 5059
" />
<path d="M5893 4684
L5874 4665
L5856 4627
L5856 4534
L5874 4496
L5893 4477
L5931 4459
L5968 4459
L6024 4477
L6249 4702
L6249 4459
" />
<path d="M24640 7390
L24247 7390
L24247 7296
L24265 7240
L24303 7203
L24340 7184
L24415 7165
L24471 7165
L24546 7184
L24584 7203
L24621 7240
L24640 7296
L24640 7390
" />
<path d="M24378 6828
L24640 6828
" />
<path d="M24228 6921
L24509 7015
L24509 6771
" />
<path d="M23190 7390
L22797 7390
L22797 7296
L22815 7240
L22853 7203
L22890 7184
L22965 7165
L23021 7165
L23096 7184
L23134 7203
L23171 7240
L23190 7296
L23190 7390
" />
<path d="M22797 7034
L22797 6790
L22946 6921
L22946 6865
L22965 6828
L22984 6809
L23021 6790
L23115 6790
L23153 6809
L23171 6828
L23190 6865
L23190 6978
L23171 7015
L23153 7034
" />
<path d="M21830 7390
L21437 7390
L21437 7296
L21455 7240
L21493 7203
L21530 7184
L21605 7165
L21661 7165
L21736 7184
L21774 7203
L21811 7240
L21830 7296
L21830 7390
" />
<path d="M21437 6809
L21437 6996
L21624 7015
L21605 6996
L21586 6959
L21586 6865
L21605 6828
L21624 6809
L21661 6790
L21755 6790
L21793 6809
L21811 6828
L21830 6865
L21830 6959
L21811 6996
L21793 7015
" />
<path d="M5484 14878
L5353 14691
" />
<path d="M5259 14878
L5259 14484
L5409 14484
L5446 14503
L5465 14522
L5484 14559
L5484 14616
L5465 14653
L5446 14672
L5409 14691
L5259 14691
" />
<path d="M5615 14484
L5878 14484
L5709 14878
" />
<path d="M5484 14003
L5353 13816
" />
<path d="M5259 14003
L5259 13609
L5409 13609
L5446 13628
L5465 13647
L5484 13684
L5484 13741
L5465 13778
L5446 13797
L5409 13816
L5259 13816
" />
<path d="M5821 13609
L5746 13609
L5709 13628
L5690 13647
L5653 13703
L5634 13778
L5634 13928
L5653 13966
L5671 13984
L5709 14003
L5784 14003
L5821 13984
L5840 13966
L5859 13928
L5859 13834
L5840 13797
L5821 13778
L5784 13759
L5709 13759
L5671 13778
L5653 13797
L5634 13834
" />
<path d="M14677 15465
L14490 15596
" />
<path d="M14677 15690
L14284 15690
L14284 15540
L14302 15503
L14321 15484
L14358 15465
L14415 15465
L14452 15484
L14471 15503
L14490 15540
L14490 15690
" />
<path d="M14452 15240
L14433 15278
L14415 15296
L14377 15315
L14358 15315
L14321 15296
L14302 15278
L14284 15240
L14284 15165
L14302 15128
L14321 15109
L14358 15090
L14377 15090
L14415 15109
L14433 15128
L14452 15165
L14452 15240
L14471 15278
L14490 15296
L14527 15315
L14602 15315
L14640 15296
L14658 15278
L14677 15240
L14677 15165
L14658 15128
L14640 15109
L14602 15090
L14527 15090
L14490 15109
L14471 15128
L14452 15165
" />
<path d="M6928 2765
L6741 2896
" />
<path d="M6928 2990
L6534 2990
L6534 2840
L6553 2803
L6572 2784
L6609 2765
L6666 2765
L6703 2784
L6722 2803
L6741 2840
L6741 2990
" />
<path d="M6928 2390
L6928 2615
" />
<path d="M6928 2503
L6534 2503
L6591 2540
L6628 2578
L6647 2615
" />
<path d="M21078 9315
L20891 9446
" />
<path d="M21078 9540
L20684 9540
L20684 9390
L20703 9353
L20722 9334
L20759 9315
L20816 9315
L20853 9334
L20872 9353
L20891 9390
L20891 9540
" />
<path d="M20816 8978
L21078 8978
" />
<path d="M20666 9071
L20947 9165
L20947 8921
" />
<path d="M19228 7315
L19041 7446
" />
<path d="M19228 7540
L18834 7540
L18834 7390
L18853 7353
L18872 7334
L18909 7315
L18966 7315
L19003 7334
L19022 7353
L19041 7390
L19041 7540
" />
<path d="M18834 6959
L18834 7146
L19022 7165
L19003 7146
L18984 7109
L18984 7015
L19003 6978
L19022 6959
L19059 6940
L19153 6940
L19191 6959
L19209 6978
L19228 7015
L19228 7109
L19209 7146
L19191 7165
" />
<path d="M22278 9315
L22091 9446
" />
<path d="M22278 9540
L21884 9540
L21884 9390
L21903 9353
L21922 9334
L21959 9315
L22016 9315
L22053 9334
L22072 9353
L22091 9390
L22091 9540
" />
<path d="M21884 9184
L21884 8940
L22034 9071
L22034 9015
L22053 8978
L22072 8959
L22109 8940
L22203 8940
L22241 8959
L22259 8978
L22278 9015
L22278 9128
L22259 9165
L22241 9184
" />
<path d="M3184 12827
L3053 12640
" />
<path d="M2959 12827
L2959 12434
L3109 12434
L3146 12452
L3165 12471
L3184 12508
L3184 12565
L3165 12602
L3146 12621
L3109 12640
L2959 12640
" />
<path d="M3334 12471
L3353 12452
L3390 12434
L3484 12434
L3521 12452
L3540 12471
L3559 12508
L3559 12546
L3540 12602
L3315 12827
L3559 12827
" />
<path d="M20078 26503
L20078 26690
L19684 26690
" />
<path d="M20078 26165
L20078 26390
" />
<path d="M20078 26278
L19684 26278
L19740 26315
L19778 26353
L19796 26390
" />
<path d="M19684 26034
L19684 25790
L19834 25921
L19834 25865
L19853 25828
L19871 25809
L19909 25790
L20003 25790
L20040 25809
L20059 25828
L20078 25865
L20078 25978
L20059 26015
L20040 26034
" />
<path d="M24578 26315
L24578 26503
L24184 26503
" />
<path d="M24184 26221
L24184 25959
L24578 26128
" />
<path d="M6078 26265
L6078 26453
L5684 26453
" />
<path d="M6078 26115
L6078 26040
L6059 26003
L6040 25984
L5984 25946
L5909 25928
L5759 25928
L5721 25946
L5703 25965
L5684 26003
L5684 26078
L5703 26115
L5721 26134
L5759 26153
L5853 26153
L5890 26134
L5909 26115
L5928 26078
L5928 26003
L5909 25965
L5890 25946
L5853 25928
" />
<path d="M3478 26295
L3478 26483
L3084 26483
" />
<path d="M3478 25958
L3478 26183
" />
<path d="M3478 26070
L3084 26070
L3140 26108
L3178 26145
L3196 26183
" />
<path d="M7028 26315
L7028 26503
L6634 26503
" />
<path d="M6671 26203
L6653 26184
L6634 26146
L6634 26053
L6653 26015
L6671 25996
L6709 25978
L6746 25978
L6803 25996
L7028 26221
L7028 25978
" />
<path d="M10528 26315
L10528 26503
L10134 26503
" />
<path d="M10134 26221
L10134 25978
L10284 26109
L10284 26053
L10303 26015
L10321 25996
L10359 25978
L10453 25978
L10490 25996
L10509 26015
L10528 26053
L10528 26165
L10509 26203
L10490 26221
" />
<path d="M14078 26315
L14078 26503
L13684 26503
" />
<path d="M13815 26015
L14078 26015
" />
<path d="M13665 26109
L13946 26203
L13946 25959
" />
<path d="M17578 26315
L17578 26503
L17184 26503
" />
<path d="M17184 25996
L17184 26184
L17371 26203
L17353 26184
L17334 26146
L17334 26053
L17353 26015
L17371 25996
L17409 25978
L17503 25978
L17540 25996
L17559 26015
L17578 26053
L17578 26146
L17559 26184
L17540 26203
" />
<path d="M21078 26315
L21078 26503
L20684 26503
" />
<path d="M20684 26015
L20684 26090
L20703 26128
L20721 26146
L20778 26184
L20853 26203
L21003 26203
L21040 26184
L21059 26165
L21078 26128
L21078 26053
L21059 26015
L21040 25996
L21003 25978
L20909 25978
L20871 25996
L20853 26015
L20834 26053
L20834 26128
L20853 26165
L20871 26184
L20909 26203
" />
<path d="M28078 26315
L28078 26503
L27684 26503
" />
<path d="M27853 26128
L27834 26165
L27815 26184
L27778 26203
L27759 26203
L27721 26184
L27703 26165
L27684 26128
L27684 26053
L27703 26015
L27721 25996
L27759 25978
L27778 25978
L27815 25996
L27834 26015
L27853 26053
L27853 26128
L27871 26165
L27890 26184
L27928 26203
L28003 26203
L28040 26184
L28059 26165
L28078 26128
L28078 26053
L28059 26015
L28040 25996
L28003 25978
L27928 25978
L27890 25996
L27871 26015
L27853 26053
" />
<path d="M9578 26503
L9578 26690
L9184 26690
" />
<path d="M9578 26165
L9578 26390
" />
<path d="M9578 26278
L9184 26278
L9240 26315
L9278 26353
L9296 26390
" />
<path d="M9184 25921
L9184 25884
L9203 25846
L9221 25828
L9259 25809
L9334 25790
L9428 25790
L9503 25809
L9540 25828
L9559 25846
L9578 25884
L9578 25921
L9559 25959
L9540 25978
L9503 25996
L9428 26015
L9334 26015
L9259 25996
L9221 25978
L9203 25959
L9184 25921
" />
<path d="M13028 26503
L13028 26690
L12634 26690
" />
<path d="M13028 26165
L13028 26390
" />
<path d="M13028 26278
L12634 26278
L12690 26315
L12728 26353
L12746 26390
" />
<path d="M13028 25790
L13028 26015
" />
<path d="M13028 25903
L12634 25903
L12690 25940
L12728 25978
L12746 26015
" />
<path d="M16578 26503
L16578 26690
L16184 26690
" />
<path d="M16578 26165
L16578 26390
" />
<path d="M16578 26278
L16184 26278
L16240 26315
L16278 26353
L16296 26390
" />
<path d="M16221 26015
L16203 25996
L16184 25959
L16184 25865
L16203 25828
L16221 25809
L16259 25790
L16296 25790
L16353 25809
L16578 26034
L16578 25790
" />
<path d="M23528 26503
L23528 26690
L23134 26690
" />
<path d="M23528 26165
L23528 26390
" />
<path d="M23528 26278
L23134 26278
L23190 26315
L23228 26353
L23246 26390
" />
<path d="M23265 25828
L23528 25828
" />
<path d="M23115 25921
L23396 26015
L23396 25771
" />
<path d="M27028 26503
L27028 26690
L26634 26690
" />
<path d="M27028 26165
L27028 26390
" />
<path d="M27028 26278
L26634 26278
L26690 26315
L26728 26353
L26746 26390
" />
<path d="M26634 25809
L26634 25996
L26821 26015
L26803 25996
L26784 25959
L26784 25865
L26803 25828
L26821 25809
L26859 25790
L26953 25790
L26990 25809
L27009 25828
L27028 25865
L27028 25959
L27009 25996
L26990 26015
" />
<path d="M30578 26503
L30578 26690
L30184 26690
" />
<path d="M30578 26165
L30578 26390
" />
<path d="M30578 26278
L30184 26278
L30240 26315
L30278 26353
L30296 26390
" />
<path d="M30184 25828
L30184 25903
L30203 25940
L30221 25959
L30278 25996
L30353 26015
L30503 26015
L30540 25996
L30559 25978
L30578 25940
L30578 25865
L30559 25828
L30540 25809
L30503 25790
L30409 25790
L30371 25809
L30353 25828
L30334 25865
L30334 25940
L30353 25978
L30371 25996
L30409 26015
" />
<path d="M4534 24541
L4515 24559
L4459 24578
L4421 24578
L4365 24559
L4328 24522
L4309 24484
L4290 24409
L4290 24353
L4309 24278
L4328 24241
L4365 24203
L4421 24184
L4459 24184
L4515 24203
L4534 24222
" />
<path d="M4890 24184
L4703 24184
L4684 24372
L4703 24353
L4740 24334
L4834 24334
L4871 24353
L4890 24372
L4909 24409
L4909 24503
L4890 24541
L4871 24559
L4834 24578
L4740 24578
L4703 24559
L4684 24541
" />
<path d="M21846 24541
L21828 24559
L21771 24578
L21734 24578
L21678 24559
L21640 24522
L21621 24484
L21603 24409
L21603 24353
L21621 24278
L21640 24241
L21678 24203
L21734 24184
L21771 24184
L21828 24203
L21846 24222
" />
<path d="M22221 24578
L21996 24578
" />
<path d="M22109 24578
L22109 24184
L22071 24241
L22034 24278
L21996 24297
" />
<path d="M22465 24184
L22503 24184
L22540 24203
L22559 24222
L22578 24259
L22596 24334
L22596 24428
L22578 24503
L22559 24541
L22540 24559
L22503 24578
L22465 24578
L22428 24559
L22409 24541
L22390 24503
L22371 24428
L22371 24334
L22390 24259
L22409 24222
L22428 24203
L22465 24184
" />
<path d="M18534 24541
L18515 24559
L18459 24578
L18421 24578
L18365 24559
L18328 24522
L18309 24484
L18290 24409
L18290 24353
L18309 24278
L18328 24241
L18365 24203
L18421 24184
L18459 24184
L18515 24203
L18534 24222
" />
<path d="M18721 24578
L18796 24578
L18834 24559
L18853 24541
L18890 24484
L18909 24409
L18909 24259
L18890 24222
L18871 24203
L18834 24184
L18759 24184
L18721 24203
L18703 24222
L18684 24259
L18684 24353
L18703 24391
L18721 24409
L18759 24428
L18834 24428
L18871 24409
L18890 24391
L18909 24353
" />
<path d="M8034 24541
L8015 24559
L7959 24578
L7921 24578
L7865 24559
L7828 24522
L7809 24484
L7790 24409
L7790 24353
L7809 24278
L7828 24241
L7865 24203
L7921 24184
L7959 24184
L8015 24203
L8034 24222
" />
<path d="M8371 24184
L8296 24184
L8259 24203
L8240 24222
L8203 24278
L8184 24353
L8184 24503
L8203 24541
L8221 24559
L8259 24578
L8334 24578
L8371 24559
L8390 24541
L8409 24503
L8409 24409
L8390 24372
L8371 24353
L8334 24334
L8259 24334
L8221 24353
L8203 24372
L8184 24409
" />
<path d="M11534 24541
L11515 24559
L11459 24578
L11421 24578
L11365 24559
L11328 24522
L11309 24484
L11290 24409
L11290 24353
L11309 24278
L11328 24241
L11365 24203
L11421 24184
L11459 24184
L11515 24203
L11534 24222
" />
<path d="M11665 24184
L11928 24184
L11759 24578
" />
<path d="M15034 24541
L15015 24559
L14959 24578
L14921 24578
L14865 24559
L14828 24522
L14809 24484
L14790 24409
L14790 24353
L14809 24278
L14828 24241
L14865 24203
L14921 24184
L14959 24184
L15015 24203
L15034 24222
" />
<path d="M15259 24353
L15221 24334
L15203 24316
L15184 24278
L15184 24259
L15203 24222
L15221 24203
L15259 24184
L15334 24184
L15371 24203
L15390 24222
L15409 24259
L15409 24278
L15390 24316
L15371 24334
L15334 24353
L15259 24353
L15221 24372
L15203 24391
L15184 24428
L15184 24503
L15203 24541
L15221 24559
L15259 24578
L15334 24578
L15371 24559
L15390 24541
L15409 24503
L15409 24428
L15390 24391
L15371 24372
L15334 24353
" />
<path d="M25346 24541
L25328 24559
L25271 24578
L25234 24578
L25178 24559
L25140 24522
L25121 24484
L25103 24409
L25103 24353
L25121 24278
L25140 24241
L25178 24203
L25234 24184
L25271 24184
L25328 24203
L25346 24222
" />
<path d="M25721 24578
L25496 24578
" />
<path d="M25609 24578
L25609 24184
L25571 24241
L25534 24278
L25496 24297
" />
<path d="M26096 24578
L25871 24578
" />
<path d="M25984 24578
L25984 24184
L25946 24241
L25909 24278
L25871 24297
" />
<path d="M28846 24541
L28828 24559
L28771 24578
L28734 24578
L28678 24559
L28640 24522
L28621 24484
L28603 24409
L28603 24353
L28621 24278
L28640 24241
L28678 24203
L28734 24184
L28771 24184
L28828 24203
L28846 24222
" />
<path d="M29221 24578
L28996 24578
" />
<path d="M29109 24578
L29109 24184
L29071 24241
L29034 24278
L28996 24297
" />
<path d="M29371 24222
L29390 24203
L29428 24184
L29521 24184
L29559 24203
L29578 24222
L29596 24259
L29596 24297
L29578 24353
L29353 24578
L29596 24578
" />
<path d="M7634 2090
L7615 2108
L7559 2127
L7521 2127
L7465 2108
L7428 2071
L7409 2033
L7390 1958
L7390 1902
L7409 1827
L7428 1790
L7465 1752
L7521 1734
L7559 1734
L7615 1752
L7634 1771
" />
<path d="M7765 1734
L8009 1734
L7878 1883
L7934 1883
L7971 1902
L7990 1921
L8009 1958
L8009 2052
L7990 2090
L7971 2108
L7934 2127
L7821 2127
L7784 2108
L7765 2090
" />
<path d="M16390 15553
L16408 15571
L16427 15628
L16427 15665
L16408 15721
L16371 15759
L16333 15778
L16258 15796
L16202 15796
L16127 15778
L16090 15759
L16052 15721
L16034 15665
L16034 15628
L16052 15571
L16071 15553
" />
<path d="M16427 15178
L16427 15403
" />
<path d="M16427 15290
L16034 15290
L16090 15328
L16127 15365
L16146 15403
" />
<path d="M16034 14821
L16034 15009
L16221 15028
L16202 15009
L16183 14971
L16183 14878
L16202 14840
L16221 14821
L16258 14803
L16352 14803
L16390 14821
L16408 14840
L16427 14878
L16427 14971
L16408 15009
L16390 15028
" />
<path d="M28888 22526
L28869 22545
L28813 22563
L28776 22563
L28719 22545
L28682 22507
L28663 22470
L28644 22395
L28644 22338
L28663 22263
L28682 22226
L28719 22188
L28776 22170
L28813 22170
L28869 22188
L28888 22207
" />
<path d="M29263 22563
L29038 22563
" />
<path d="M29151 22563
L29151 22170
L29113 22226
L29076 22263
L29038 22282
" />
<path d="M29394 22170
L29638 22170
L29507 22320
L29563 22320
L29601 22338
L29619 22357
L29638 22395
L29638 22488
L29619 22526
L29601 22545
L29563 22563
L29451 22563
L29413 22545
L29394 22526
" />
<path d="M3184 10491
L3165 10509
L3109 10528
L3071 10528
L3015 10509
L2978 10472
L2959 10434
L2940 10359
L2940 10303
L2959 10228
L2978 10191
L3015 10153
L3071 10134
L3109 10134
L3165 10153
L3184 10172
" />
<path d="M3559 10528
L3334 10528
" />
<path d="M3446 10528
L3446 10134
L3409 10191
L3371 10228
L3334 10247
" />
<path d="M23290 15453
L23308 15471
L23327 15528
L23327 15565
L23308 15621
L23271 15659
L23233 15678
L23158 15696
L23102 15696
L23027 15678
L22990 15659
L22952 15621
L22934 15565
L22934 15528
L22952 15471
L22971 15453
" />
<path d="M23327 15078
L23327 15303
" />
<path d="M23327 15190
L22934 15190
L22990 15228
L23027 15265
L23046 15303
" />
<path d="M23065 14740
L23327 14740
" />
<path d="M22915 14834
L23196 14928
L23196 14684
" />
<path d="M3395 5736
L3002 5736
L3002 5586
L3020 5549
L3039 5530
L3077 5511
L3133 5511
L3170 5530
L3189 5549
L3208 5586
L3208 5736
" />
<path d="M3039 5362
L3020 5343
L3002 5305
L3002 5212
L3020 5174
L3039 5155
L3077 5137
L3114 5137
L3170 5155
L3395 5380
L3395 5137
" />
<path d="M3634 2440
L3615 2459
L3559 2478
L3521 2478
L3465 2459
L3428 2421
L3409 2384
L3390 2309
L3390 2253
L3409 2178
L3428 2140
L3465 2103
L3521 2084
L3559 2084
L3615 2103
L3634 2121
" />
<path d="M3971 2215
L3971 2478
" />
<path d="M3878 2065
L3784 2346
L4028 2346
" />
<path d="M22095 4336
L21907 4467
" />
<path d="M22095 4561
L21701 4561
L21701 4411
L21720 4373
L21739 4355
L21776 4336
L21832 4336
L21870 4355
L21889 4373
L21907 4411
L21907 4561
" />
<path d="M22095 4148
L22095 4073
L22076 4036
L22057 4017
L22001 3980
L21926 3961
L21776 3961
L21739 3980
L21720 3998
L21701 4036
L21701 4111
L21720 4148
L21739 4167
L21776 4186
L21870 4186
L21907 4167
L21926 4148
L21945 4111
L21945 4036
L21926 3998
L21907 3980
L21870 3961
" />
<path d="M821 27622
L690 27435
" />
<path d="M596 27622
L596 27229
L746 27229
L784 27248
L802 27266
L821 27304
L821 27360
L802 27398
L784 27416
L746 27435
L596 27435
" />
<path d="M990 27416
L1121 27416
" />
<path d="M1177 27622
L990 27622
L990 27229
L1177 27229
" />
<path d="M1477 27416
L1346 27416
" />
<path d="M1346 27622
L1346 27229
L1533 27229
" />
<path d="M1740 27229
L1740 27323
" />
<path d="M1646 27285
L1740 27323
L1833 27285
" />
<path d="M1683 27398
L1740 27323
L1796 27398
" />
<path d="M2040 27229
L2040 27323
" />
<path d="M1946 27285
L2040 27323
L2133 27285
" />
<path d="M1983 27398
L2040 27323
L2096 27398
" />
<path d="M32356 27308
L32225 27120
" />
<path d="M32131 27308
L32131 26914
L32281 26914
L32319 26933
L32338 26951
L32356 26989
L32356 27045
L32338 27083
L32319 27101
L32281 27120
L32131 27120
" />
<path d="M32525 27101
L32656 27101
" />
<path d="M32713 27308
L32525 27308
L32525 26914
L32713 26914
" />
<path d="M33013 27101
L32881 27101
" />
<path d="M32881 27308
L32881 26914
L33069 26914
" />
<path d="M33275 26914
L33275 27008
" />
<path d="M33181 26970
L33275 27008
L33369 26970
" />
<path d="M33219 27083
L33275 27008
L33331 27083
" />
<path d="M33575 26914
L33575 27008
" />
<path d="M33481 26970
L33575 27008
L33669 26970
" />
<path d="M33519 27083
L33575 27008
L33631 27083
" />
<g >
</g>
</g> 
</svg>
