<?xml version="1.0" standalone="no"?>
 <!DOCTYPE svg PUBLIC "-//W3C//DTD SVG 1.1//EN" 
 "http://www.w3.org/Graphics/SVG/1.1/DTD/svg11.dtd"> 
<svg xmlns="http://www.w3.org/2000/svg" version="1.1" 
    width="29.7002cm" height="21.0007cm" viewBox="0 0 116930 82680 ">
<title>SVG Picture created as ThermocoupleLogger-Cmts_User.svg date 2019/04/07 21:39:20 </title>
  <desc>Picture generated by PCBNEW </desc>
<g style="fill:#000000; fill-opacity:1;stroke:#000000; stroke-opacity:1;
stroke-linecap:round; stroke-linejoin:round; "
 transform="translate(0 0) scale(1 1)">
</g>
<g style="fill:#000000; fill-opacity:0.0; 
stroke:#000000; stroke-width:-0.000393701; stroke-opacity:1; 
stroke-linecap:round; stroke-linejoin:round;">
</g>
<g style="fill:#000000; fill-opacity:0.0; 
stroke:#000000; stroke-width:39.3701; stroke-opacity:1; 
stroke-linecap:round; stroke-linejoin:round;">
<path d="M7.87402 28901.6 A1338.58 1338.58 0.0 0 0 1346.46 30240.2 " />
<path d="M35000 0
L35000 30250
" />
<path d="M0 28059
L0 28059
" />
<path d="M0 0
L35000 0
" />
<path d="M1346 30240
L35000 30250
" />
<path d="M0 0
L7 28901
" />
<path d="M0 500
L0 500
" />
</g>
<g style="fill:#000000; fill-opacity:0.0; 
stroke:#000000; stroke-width:19.685; stroke-opacity:1; 
stroke-linecap:round; stroke-linejoin:round;">
<path d="M16514 94
L14939 94
" />
<path d="M16908 488
L16514 94
" />
<path d="M20845 488
L16908 488
" />
<path d="M21238 94
L20845 488
" />
<path d="M22026 94
L21238 94
" />
</g>
<g style="fill:#000000; fill-opacity:0.0; 
stroke:#000000; stroke-width:59.0551; stroke-opacity:1; 
stroke-linecap:round; stroke-linejoin:round;">
<circle cx="1346.46" cy="28901.6" r="1062.99" /> 
<circle cx="32881.9" cy="28586.6" r="1062.99" /> 
<g >
</g>
<g >
</g>
<g >
</g>
<g >
</g>
<g >
</g>
<g >
</g>
<g >
</g>
<g >
</g>
<g >
</g>
<g >
</g>
<g >
</g>
<g >
</g>
<g >
</g>
<g >
</g>
<g >
</g>
<g >
</g>
<g >
</g>
<g >
</g>
<g >
</g>
<g >
</g>
<g >
</g>
<g >
</g>
<g >
</g>
<g >
</g>
<g >
</g>
<g >
</g>
<g >
</g>
<g >
</g>
<g >
</g>
<g >
</g>
<g >
</g>
<g >
</g>
<g >
</g>
<g >
</g>
<g >
</g>
<g >
</g>
<g >
</g>
<g >
</g>
<g >
</g>
<g >
</g>
<g >
</g>
<g >
</g>
<g >
</g>
<g >
</g>
<g >
</g>
<g >
</g>
<g >
</g>
<g >
</g>
<g >
</g>
<g >
</g>
<g >
</g>
<g >
</g>
<g >
</g>
<g >
</g>
<g >
</g>
<g >
</g>
<g >
</g>
<g >
</g>
<g >
</g>
<g >
</g>
<g >
</g>
<g >
</g>
<g >
</g>
<g >
</g>
<g >
</g>
<g >
</g>
<g >
</g>
<g >
</g>
<g >
</g>
<g >
</g>
<g >
</g>
<g >
</g>
<g >
</g>
<g >
</g>
<g >
</g>
</g>
<g style="fill:#000000; fill-opacity:0.0; 
stroke:#000000; stroke-width:19.685; stroke-opacity:1; 
stroke-linecap:round; stroke-linejoin:round;">
<path d="M5050 12287
L5050 12149
L5103 12149
L5116 12156
L5122 12162
L5129 12175
L5129 12195
L5122 12208
L5116 12215
L5103 12221
L5050 12221
" />
<path d="M5253 12287
L5188 12287
L5188 12149
" />
<path d="M5293 12247
L5358 12247
" />
<path d="M5280 12287
L5326 12149
L5372 12287
" />
<path d="M5418 12287
L5418 12149
L5496 12287
L5496 12149
" />
<path d="M5562 12215
L5608 12215
" />
<path d="M5627 12287
L5562 12287
L5562 12149
L5627 12149
" />
<path d="M5039 11894
L5026 11887
L5006 11887
L4987 11894
L4974 11907
L4967 11920
L4961 11946
L4961 11966
L4967 11992
L4974 12005
L4987 12018
L5006 12025
L5020 12025
L5039 12018
L5046 12012
L5046 11966
L5020 11966
" />
<path d="M5184 12025
L5138 11959
" />
<path d="M5105 12025
L5105 11887
L5157 11887
L5170 11894
L5177 11900
L5184 11913
L5184 11933
L5177 11946
L5170 11953
L5157 11959
L5105 11959
" />
<path d="M5269 11887
L5295 11887
L5308 11894
L5321 11907
L5328 11933
L5328 11979
L5321 12005
L5308 12018
L5295 12025
L5269 12025
L5256 12018
L5243 12005
L5236 11979
L5236 11933
L5243 11907
L5256 11894
L5269 11887
" />
<path d="M5387 11887
L5387 11999
L5394 12012
L5400 12018
L5413 12025
L5440 12025
L5453 12018
L5459 12012
L5466 11999
L5466 11887
" />
<path d="M5531 12025
L5531 11887
L5610 12025
L5610 11887
" />
<path d="M5676 12025
L5676 11887
L5709 11887
L5728 11894
L5741 11907
L5748 11920
L5754 11946
L5754 11966
L5748 11992
L5741 12005
L5728 12018
L5709 12025
L5676 12025
" />
<path d="M5144 11756
L5079 11756
L5079 11618
" />
<path d="M5216 11618
L5243 11618
L5256 11625
L5269 11638
L5275 11664
L5275 11710
L5269 11736
L5256 11749
L5243 11756
L5216 11756
L5203 11749
L5190 11736
L5184 11710
L5184 11664
L5190 11638
L5203 11625
L5216 11618
" />
<path d="M5413 11743
L5407 11749
L5387 11756
L5374 11756
L5354 11749
L5341 11736
L5335 11723
L5328 11697
L5328 11677
L5335 11651
L5341 11638
L5354 11625
L5374 11618
L5387 11618
L5407 11625
L5413 11631
" />
<path d="M5466 11716
L5531 11716
" />
<path d="M5453 11756
L5499 11618
L5545 11756
" />
<path d="M5656 11756
L5590 11756
L5590 11618
" />
<path d="M7494 12581
L7396 12581
L7494 12524
L7396 12524
" />
<path d="M7396 12459
L7396 12440
L7400 12431
L7410 12421
L7428 12417
L7461 12417
L7480 12421
L7489 12431
L7494 12440
L7494 12459
L7489 12468
L7480 12478
L7461 12482
L7428 12482
L7410 12478
L7400 12468
L7396 12459
" />
<path d="M7494 12243
L7447 12276
" />
<path d="M7494 12299
L7396 12299
L7396 12262
L7400 12253
L7405 12248
L7414 12243
L7428 12243
L7438 12248
L7442 12253
L7447 12262
L7447 12299
" />
<path d="M7396 12182
L7396 12164
L7400 12154
L7410 12145
L7428 12140
L7461 12140
L7480 12145
L7489 12154
L7494 12164
L7494 12182
L7489 12192
L7480 12201
L7461 12206
L7428 12206
L7410 12201
L7400 12192
L7396 12182
" />
<path d="M7396 12098
L7475 12098
L7485 12093
L7489 12089
L7494 12079
L7494 12060
L7489 12051
L7485 12046
L7475 12042
L7396 12042
" />
<path d="M7396 12009
L7396 11953
" />
<path d="M7494 11981
L7396 11981
" />
<path d="M7494 11920
L7396 11920
" />
<path d="M7494 11873
L7396 11873
L7494 11817
L7396 11817
" />
<path d="M7400 11718
L7396 11728
L7396 11742
L7400 11756
L7410 11765
L7419 11770
L7438 11775
L7452 11775
L7471 11770
L7480 11765
L7489 11756
L7494 11742
L7494 11732
L7489 11718
L7485 11714
L7452 11714
L7452 11732
" />
<g >
</g>
</g> 
</svg>
