<?xml version="1.0" standalone="no"?>
 <!DOCTYPE svg PUBLIC "-//W3C//DTD SVG 1.1//EN" 
 "http://www.w3.org/Graphics/SVG/1.1/DTD/svg11.dtd"> 
<svg xmlns="http://www.w3.org/2000/svg" version="1.1" 
    width="29.7002cm" height="21.0007cm" viewBox="0 0 116930 82680 ">
<title>SVG Picture created as ThermocoupleLogger-B_Fab.svg date 2019/03/14 17:00:52 </title>
  <desc>Picture generated by PCBNEW </desc>
<g style="fill:#000000; fill-opacity:1;stroke:#000000; stroke-opacity:1;
stroke-linecap:round; stroke-linejoin:round; "
 transform="translate(0 0) scale(1 1)">
</g>
<g style="fill:#000000; fill-opacity:0.0; 
stroke:#000000; stroke-width:-0.000787402; stroke-opacity:1; 
stroke-linecap:round; stroke-linejoin:round;">
</g>
<g style="fill:#000000; fill-opacity:0.0; 
stroke:#000000; stroke-width:157.48; stroke-opacity:1; 
stroke-linecap:round; stroke-linejoin:round;">
<path d="M96106 63369
L96106 58969
" />
<path d="M96106 63769
L96106 63369
" />
<path d="M17706 63369
L96106 63769
" />
<path d="M17306 58969
L17706 58969
" />
<path d="M17306 63369
L17706 63369
" />
<path d="M17306 58969
L17306 63369
" />
<path d="M83266 58929
L65026 58929
" />
<path d="M86996 58929
L96106 58945
" />
<path d="M86956 56929
L96046 56929
" />
<path d="M65026 56929
L83266 56929
" />
<path d="M61390 58939
L24030 58939
" />
<path d="M24036 56939
L61396 56939
" />
<path d="M20406 56949
L17306 56949
" />
<path d="M20376 58949
L17666 58949
" />
<path d="M20376.7 58949.9 A1000.2 1000.2 0.0 0 0 20399.3 56950.6 " />
<path d="M24046.7 56939.9 A1000 1000 0.0 0 0 24030.1 58939.8 " />
<path d="M61376.7 58939.9 A1000 1000 0.0 0 0 61398 56940.1 " />
<path d="M65026.7 56929.9 A1000.2 1000.2 0.0 1 0 65028.5 58929.9 " />
<path d="M83256.7 58929.9 A1000.2 1000.2 0.0 1 0 83276.7 56929.7 " />
<path d="M86947.5 56929.9 A1000.2 1000.2 0.0 0 0 86986.7 58929.9 " />
<path d="M90906.7 15569.9 A1000.8 1000.8 0.0 0 0 90946.7 17570.7 " />
<path d="M54686.7 17609.9 A1000.8 1000.8 0.0 1 0 54686.7 15609.9 " />
<path d="M17266 15589
L17266 15589
" />
<path d="M30026 15589
L17266 15589
" />
<path d="M17306 17639
L30036 17629
" />
<path d="M33686 17609
L54686 17609
" />
<path d="M54666 15609
L33706 15609
" />
<path d="M30026.7 17629.9 A1020 1020 0.0 0 0 30026.7 15589.9 " />
<path d="M33706.7 15609.9 A1000.2 1000.2 0.0 1 0 33686.7 17610.1 " />
<path d="M87286 17599
L58456 17599
" />
<path d="M58306 15619
L87316 15619
" />
<path d="M58386.7 15609.9 A990.202 990.202 0.0 0 0 58426.7 17589.9 " />
<path d="M90951 17582
L96051 17582
" />
<path d="M96006 15569
L96006 10369
" />
<path d="M96006 10369
L96006 15569
" />
<path d="M96006 15569
L96006 10369
" />
<path d="M90906 15569
L96006 15569
" />
<path d="M96006 15569
L90906 15569
" />
<path d="M96006 10369
L96006 15569
" />
<path d="M87286.7 17609.9 A996 996 0.0 0 0 87294.8 15618 " />
<path d="M17266 10349
L96046 10349
" />
<path d="M17266 15589
L17266 10349
" />
<path d="M17306 56949
L17306 17639
" />
<path d="M96046 56929
L96046 17599
" />
</g>
<g style="fill:#000000; fill-opacity:0.0; 
stroke:#000000; stroke-width:78.7402; stroke-opacity:1; 
stroke-linecap:round; stroke-linejoin:round;">
<path d="M50106 39809
L48082 41924
" />
<path d="M60906 39799
L62887 41930
" />
<path d="M53538.2 20473.9 A314.961 314.961 0.0 0 0 53223.3 20788.8 " />
<path d="M54483 21969
L56530 21969
" />
<path d="M54483.1 34725.8 A1023.62 1023.62 0.0 0 0 56530.4 34725.8 " />
<path d="M54483 34725
L54483 21969
" />
<path d="M56530 21969
L56530 34725
" />
<path d="M53538 20473
L57475 20473
" />
<path d="M54483.1 26048.7 A7955.89 7955.89 0.0 0 0 56530.4 41828.2 " />
<path d="M54483.1 29056.5 A4988.05 4988.05 0.0 0 0 55667.1 38923.9 " />
<path d="M54483.1 32442.4 A1812.73 1812.73 0.0 0 0 55645.2 35745.9 " />
<path d="M55368.3 35745.9 A1812.73 1812.73 0.0 0 0 56530.4 32442.4 " />
<path d="M55346.4 38923.9 A4988.05 4988.05 0.0 0 0 56530.4 29056.5 " />
<path d="M54483.1 41828.2 A7955.89 7955.89 0.0 0 0 56530.4 26048.7 " />
<path d="M57790.2 20788.8 A314.961 314.961 0.0 0 0 57475.2 20473.9 " />
<path d="M57790 20788
L57790 22717
" />
<path d="M53223 22717
L53223 20788
" />
<path d="M52757 23383.9 A708.661 708.661 0.0 0 0 53223.3 22718 " />
<path d="M57790.2 22718 A708.661 708.661 0.0 0 0 58256.5 23383.9 " />
<path d="M52750.8 23387.2 A10905.2 10905.2 0.0 0 0 55533.1 44843.6 " />
<path d="M55480.4 44843.6 A10905.2 10905.2 0.0 0 0 58262.6 23387.2 " />
<path d="M69035 27467
L68344 28158
" />
<path d="M70148 28581
L69035 27467
" />
<path d="M69458 29271
L70148 28581
" />
<path d="M68344 28158
L69458 29271
" />
<path d="M70284 30118
L71398 31231
" />
<path d="M71398 31231
L72088 30541
" />
<path d="M72088 30541
L70975 29427
" />
<path d="M70975 29427
L70284 30118
" />
</g>
<g style="fill:#000000; fill-opacity:0.0; 
stroke:#000000; stroke-width:118.11; stroke-opacity:1; 
stroke-linecap:round; stroke-linejoin:round;">
<path d="M24174 50812
L24174 50025
L23912 50587
L23650 50025
L23650 50812
" />
<path d="M23162 50812
L23237 50775
L23275 50737
L23312 50662
L23312 50437
L23275 50362
L23237 50325
L23162 50287
L23050 50287
L22975 50325
L22937 50362
L22900 50437
L22900 50662
L22937 50737
L22975 50775
L23050 50812
L23162 50812
" />
<path d="M22225 50287
L22225 50812
" />
<path d="M22562 50287
L22562 50700
L22525 50775
L22450 50812
L22337 50812
L22262 50775
L22225 50737
" />
<path d="M21850 50287
L21850 50812
" />
<path d="M21850 50362
L21812 50325
L21737 50287
L21625 50287
L21550 50325
L21512 50400
L21512 50812
" />
<path d="M21250 50287
L20950 50287
" />
<path d="M21137 50025
L21137 50700
L21100 50775
L21025 50812
L20950 50812
" />
<path d="M20687 50812
L20687 50287
" />
<path d="M20687 50025
L20725 50062
L20687 50100
L20650 50062
L20687 50025
L20687 50100
" />
<path d="M20312 50287
L20312 50812
" />
<path d="M20312 50362
L20275 50325
L20200 50287
L20087 50287
L20012 50325
L19975 50400
L19975 50812
" />
<path d="M19263 50287
L19263 50925
L19300 51000
L19338 51037
L19413 51075
L19525 51075
L19600 51037
" />
<path d="M19263 50775
L19338 50812
L19488 50812
L19563 50775
L19600 50737
L19638 50662
L19638 50437
L19600 50362
L19563 50325
L19488 50287
L19338 50287
L19263 50325
" />
<path d="M19075 50887
L18475 50887
" />
<path d="M18288 50812
L18288 50025
" />
<path d="M18288 50400
L17838 50400
" />
<path d="M17838 50812
L17838 50025
" />
<path d="M17350 50812
L17425 50775
L17463 50737
L17500 50662
L17500 50437
L17463 50362
L17425 50325
L17350 50287
L17238 50287
L17163 50325
L17125 50362
L17088 50437
L17088 50662
L17125 50737
L17163 50775
L17238 50812
L17350 50812
" />
<path d="M16638 50812
L16713 50775
L16750 50700
L16750 50025
" />
<path d="M16038 50775
L16113 50812
L16263 50812
L16338 50775
L16375 50700
L16375 50400
L16338 50325
L16263 50287
L16113 50287
L16038 50325
L16000 50400
L16000 50475
L16375 50550
" />
<path d="M21374 53726
L21374 52938
L21111 53501
L20849 52938
L20849 53726
" />
<path d="M20474 53726
L20474 52938
" />
<path d="M20024 53726
L20361 53276
" />
<path d="M20024 52938
L20474 53388
" />
<path d="M19761 52938
L19274 52938
L19536 53238
L19424 53238
L19349 53276
L19311 53313
L19274 53388
L19274 53576
L19311 53651
L19349 53688
L19424 53726
L19649 53726
L19724 53688
L19761 53651
" />
<path d="M97174 50812
L97174 50025
L96912 50587
L96650 50025
L96650 50812
" />
<path d="M96162 50812
L96237 50775
L96275 50737
L96312 50662
L96312 50437
L96275 50362
L96237 50325
L96162 50287
L96050 50287
L95975 50325
L95937 50362
L95900 50437
L95900 50662
L95937 50737
L95975 50775
L96050 50812
L96162 50812
" />
<path d="M95225 50287
L95225 50812
" />
<path d="M95562 50287
L95562 50700
L95525 50775
L95450 50812
L95337 50812
L95262 50775
L95225 50737
" />
<path d="M94850 50287
L94850 50812
" />
<path d="M94850 50362
L94812 50325
L94737 50287
L94625 50287
L94550 50325
L94512 50400
L94512 50812
" />
<path d="M94250 50287
L93950 50287
" />
<path d="M94137 50025
L94137 50700
L94100 50775
L94025 50812
L93950 50812
" />
<path d="M93687 50812
L93687 50287
" />
<path d="M93687 50025
L93725 50062
L93687 50100
L93650 50062
L93687 50025
L93687 50100
" />
<path d="M93312 50287
L93312 50812
" />
<path d="M93312 50362
L93275 50325
L93200 50287
L93087 50287
L93012 50325
L92975 50400
L92975 50812
" />
<path d="M92263 50287
L92263 50925
L92300 51000
L92338 51037
L92413 51075
L92525 51075
L92600 51037
" />
<path d="M92263 50775
L92338 50812
L92488 50812
L92563 50775
L92600 50737
L92638 50662
L92638 50437
L92600 50362
L92563 50325
L92488 50287
L92338 50287
L92263 50325
" />
<path d="M92075 50887
L91475 50887
" />
<path d="M91288 50812
L91288 50025
" />
<path d="M91288 50400
L90838 50400
" />
<path d="M90838 50812
L90838 50025
" />
<path d="M90350 50812
L90425 50775
L90463 50737
L90500 50662
L90500 50437
L90463 50362
L90425 50325
L90350 50287
L90238 50287
L90163 50325
L90125 50362
L90088 50437
L90088 50662
L90125 50737
L90163 50775
L90238 50812
L90350 50812
" />
<path d="M89638 50812
L89713 50775
L89750 50700
L89750 50025
" />
<path d="M89038 50775
L89113 50812
L89263 50812
L89338 50775
L89375 50700
L89375 50400
L89338 50325
L89263 50287
L89113 50287
L89038 50325
L89000 50400
L89000 50475
L89375 50550
" />
<path d="M94374 53726
L94374 52938
L94111 53501
L93849 52938
L93849 53726
" />
<path d="M93474 53726
L93474 52938
" />
<path d="M93024 53726
L93361 53276
" />
<path d="M93024 52938
L93474 53388
" />
<path d="M92349 53201
L92349 53726
" />
<path d="M92536 52901
L92724 53463
L92236 53463
" />
<path d="M66886 30068
L66886 30556
L67186 30293
L67186 30406
L67224 30481
L67261 30518
L67336 30556
L67523 30556
L67598 30518
L67636 30481
L67673 30406
L67673 30181
L67636 30106
L67598 30068
" />
<path d="M66886 30781
L67673 31043
L66886 31306
" />
<path d="M67936 32393
L67936 32206
L66811 32206
L66811 32393
" />
<path d="M67598 33143
L67636 33106
L67673 32993
L67673 32918
L67636 32806
L67561 32731
L67486 32693
L67336 32656
L67224 32656
L67074 32693
L66999 32731
L66924 32806
L66886 32918
L66886 32993
L66924 33106
L66961 33143
" />
<path d="M67673 33930
L67299 33668
" />
<path d="M67673 33480
L66886 33480
L66886 33780
L66924 33855
L66961 33893
L67036 33930
L67149 33930
L67224 33893
L67261 33855
L67299 33780
L67299 33480
" />
<path d="M66961 34230
L66924 34268
L66886 34343
L66886 34530
L66924 34605
L66961 34643
L67036 34680
L67111 34680
L67224 34643
L67673 34193
L67673 34680
" />
<path d="M66886 35168
L66886 35243
L66924 35318
L66961 35355
L67036 35393
L67186 35430
L67373 35430
L67523 35393
L67598 35355
L67636 35318
L67673 35243
L67673 35168
L67636 35093
L67598 35055
L67523 35018
L67373 34980
L67186 34980
L67036 35018
L66961 35055
L66924 35093
L66886 35168
" />
<path d="M66886 35693
L66886 36180
L67186 35918
L67186 36030
L67224 36105
L67261 36143
L67336 36180
L67523 36180
L67598 36143
L67636 36105
L67673 36030
L67673 35805
L67636 35730
L67598 35693
" />
<path d="M66961 36480
L66924 36518
L66886 36593
L66886 36780
L66924 36855
L66961 36893
L67036 36930
L67111 36930
L67224 36893
L67673 36443
L67673 36930
" />
<path d="M67936 37193
L67936 37380
L66811 37380
L66811 37193
" />
<path d="M70830 28509
L71149 28827
" />
<path d="M70989 28668
L71546 28111
L71520 28243
L71520 28350
L71546 28429
" />
<path d="M71043 27607
L70989 27554
L70910 27528
L70857 27528
L70777 27554
L70645 27634
L70512 27766
L70433 27899
L70406 27978
L70406 28031
L70433 28111
L70486 28164
L70565 28190
L70618 28190
L70698 28164
L70830 28084
L70963 27952
L71043 27819
L71069 27740
L71069 27687
L71043 27607
" />
<path d="M70512 27077
L70459 27024
L70380 26997
L70327 26997
L70247 27024
L70115 27103
L69982 27236
L69902 27369
L69876 27448
L69876 27501
L69902 27581
L69955 27634
L70035 27660
L70088 27660
L70168 27634
L70300 27554
L70433 27422
L70512 27289
L70539 27209
L70539 27156
L70512 27077
" />
<path d="M69902 26838
L69531 27209
" />
<path d="M69849 26891
L69849 26838
L69823 26759
L69743 26679
L69664 26653
L69584 26679
L69293 26971
" />
<path d="M69134 26228
L69319 26414
" />
<path d="M69027 26706
L69584 26149
L69319 25884
" />
<path d="M68570 29761
L68570 29814
L68623 29920
L68676 29973
L68782 30026
L68888 30026
L68968 30000
L69100 29920
L69180 29841
L69259 29708
L69286 29629
L69286 29523
L69233 29417
L69180 29364
L69074 29311
L69021 29311
" />
<path d="M68809 29099
L68809 29046
L68782 28966
L68650 28833
L68570 28807
L68517 28807
L68438 28833
L68385 28886
L68332 28992
L68332 29629
L67987 29284
" />
<path d="M67457 28754
L67775 29072
" />
<path d="M67616 28913
L68172 28356
L68146 28489
L68146 28595
L68172 28674
" />
<path d="M72770 30469
L73089 30787
" />
<path d="M72929 30628
L73486 30071
L73460 30203
L73460 30310
L73486 30389
" />
<path d="M72983 29567
L72929 29514
L72850 29488
L72797 29488
L72717 29514
L72585 29594
L72452 29726
L72373 29859
L72346 29938
L72346 29991
L72373 30071
L72426 30124
L72505 30150
L72558 30150
L72638 30124
L72770 30044
L72903 29912
L72983 29779
L73009 29700
L73009 29647
L72983 29567
" />
<path d="M72452 29037
L72399 28984
L72320 28957
L72267 28957
L72187 28984
L72055 29063
L71922 29196
L71842 29329
L71816 29408
L71816 29461
L71842 29541
L71895 29594
L71975 29620
L72028 29620
L72108 29594
L72240 29514
L72373 29382
L72452 29249
L72479 29169
L72479 29116
L72452 29037
" />
<path d="M71842 28798
L71471 29169
" />
<path d="M71789 28851
L71789 28798
L71763 28719
L71683 28639
L71604 28613
L71524 28639
L71233 28931
" />
<path d="M71074 28188
L71259 28374
" />
<path d="M70967 28666
L71524 28109
L71259 27844
" />
<path d="M70510 31721
L70510 31774
L70563 31880
L70616 31933
L70722 31986
L70828 31986
L70908 31960
L71040 31880
L71120 31801
L71199 31668
L71226 31589
L71226 31483
L71173 31377
L71120 31324
L71014 31271
L70961 31271
" />
<path d="M70749 31059
L70749 31006
L70722 30926
L70590 30793
L70510 30767
L70457 30767
L70378 30793
L70325 30846
L70272 30952
L70272 31589
L69927 31244
" />
<path d="M70219 30528
L70219 30475
L70192 30396
L70059 30263
L69980 30237
L69927 30237
L69847 30263
L69794 30316
L69741 30422
L69741 31059
L69397 30714
" />
</g> 
</svg>
