<?xml version="1.0" standalone="no"?>
 <!DOCTYPE svg PUBLIC "-//W3C//DTD SVG 1.1//EN" 
 "http://www.w3.org/Graphics/SVG/1.1/DTD/svg11.dtd"> 
<svg xmlns="http://www.w3.org/2000/svg" version="1.1" 
    width="29.7002cm" height="21.0007cm" viewBox="0 0 116930 82680 ">
<title>SVG Picture created as ThermocoupleLogger-B_Mask.svg date 2019/03/14 17:00:52 </title>
  <desc>Picture generated by PCBNEW </desc>
<g style="fill:#000000; fill-opacity:1;stroke:#000000; stroke-opacity:1;
stroke-linecap:round; stroke-linejoin:round; "
 transform="translate(0 0) scale(1 1)">
</g>
<g style="fill:#000000; fill-opacity:0.0; 
stroke:#000000; stroke-width:-0.000787402; stroke-opacity:1; 
stroke-linecap:round; stroke-linejoin:round;">
</g>
<g style="fill:#000000; fill-opacity:0.0; 
stroke:#000000; stroke-width:157.48; stroke-opacity:1; 
stroke-linecap:round; stroke-linejoin:round;">
<path d="M96106 63369
L96106 58969
" />
<path d="M96106 63769
L96106 63369
" />
<path d="M17706 63369
L96106 63769
" />
<path d="M17306 58969
L17706 58969
" />
<path d="M17306 63369
L17706 63369
" />
<path d="M17306 58969
L17306 63369
" />
<path d="M83266 58929
L65026 58929
" />
<path d="M86996 58929
L96106 58945
" />
<path d="M86956 56929
L96046 56929
" />
<path d="M65026 56929
L83266 56929
" />
<path d="M61390 58939
L24030 58939
" />
<path d="M24036 56939
L61396 56939
" />
<path d="M20406 56949
L17306 56949
" />
<path d="M20376 58949
L17666 58949
" />
<path d="M20376.7 58949.9 A1000.2 1000.2 0.0 0 0 20399.3 56950.6 " />
<path d="M24046.7 56939.9 A1000 1000 0.0 0 0 24030.1 58939.8 " />
<path d="M61376.7 58939.9 A1000 1000 0.0 0 0 61398 56940.1 " />
<path d="M65026.7 56929.9 A1000.2 1000.2 0.0 1 0 65028.5 58929.9 " />
<path d="M83256.7 58929.9 A1000.2 1000.2 0.0 1 0 83276.7 56929.7 " />
<path d="M86947.5 56929.9 A1000.2 1000.2 0.0 0 0 86986.7 58929.9 " />
<path d="M90906.7 15569.9 A1000.8 1000.8 0.0 0 0 90946.7 17570.7 " />
<path d="M54686.7 17609.9 A1000.8 1000.8 0.0 1 0 54686.7 15609.9 " />
<path d="M17266 15589
L17266 15589
" />
<path d="M30026 15589
L17266 15589
" />
<path d="M17306 17639
L30036 17629
" />
<path d="M33686 17609
L54686 17609
" />
<path d="M54666 15609
L33706 15609
" />
<path d="M30026.7 17629.9 A1020 1020 0.0 0 0 30026.7 15589.9 " />
<path d="M33706.7 15609.9 A1000.2 1000.2 0.0 1 0 33686.7 17610.1 " />
<path d="M87286 17599
L58456 17599
" />
<path d="M58306 15619
L87316 15619
" />
<path d="M58386.7 15609.9 A990.202 990.202 0.0 0 0 58426.7 17589.9 " />
<path d="M90951 17582
L96051 17582
" />
<path d="M96006 15569
L96006 10369
" />
<path d="M96006 10369
L96006 15569
" />
<path d="M96006 15569
L96006 10369
" />
<path d="M90906 15569
L96006 15569
" />
<path d="M96006 15569
L90906 15569
" />
<path d="M96006 10369
L96006 15569
" />
<path d="M87286.7 17609.9 A996 996 0.0 0 0 87294.8 15618 " />
<path d="M17266 10349
L96046 10349
" />
<path d="M17266 15589
L17266 10349
" />
<path d="M17306 56949
L17306 17639
" />
<path d="M96046 56929
L96046 17599
" />
</g>
<g style="fill:#000000; fill-opacity:1.0; 
stroke:#000000; stroke-width:0; stroke-opacity:1; 
stroke-linecap:round; stroke-linejoin:round;">
<polyline style="fill-rule:evenodd;"
points="90378,58911
90557,58985
90718,59093
90855,59230
90963,59391
91037,59571
91075,59761
91075,59955
91037,60145
90963,60324
90855,60485
90718,60622
90557,60730
90378,60804
90187,60842
89994,60842
89803,60804
89624,60730
89463,60622
89326,60485
89218,60324
89144,60145
89106,59955
89106,59761
89144,59571
89218,59391
89326,59230
89463,59093
89624,58985
89803,58911
89994,58873
90187,58873
90378,58911
" /> 
<polyline style="fill-rule:evenodd;"
points="27385,58911
27565,58985
27726,59093
27863,59230
27971,59391
28045,59571
28083,59761
28083,59955
28045,60145
27971,60324
27863,60485
27726,60622
27565,60730
27385,60804
27195,60842
27001,60842
26811,60804
26632,60730
26471,60622
26334,60485
26226,60324
26152,60145
26114,59955
26114,59761
26152,59571
26226,59391
26334,59230
26471,59093
26632,58985
26811,58911
27001,58873
27195,58873
27385,58911
" /> 
<polyline style="fill-rule:evenodd;"
points="62615,58611
62644,58616
62680,58631
62712,58653
62739,58680
62761,58712
62776,58748
62783,58786
62783,58825
62776,58863
62761,58899
62739,58931
62712,58958
62680,58980
62644,58995
62615,59001
62606,59002
62567,59002
62557,59001
62529,58995
62493,58980
62461,58958
62433,58931
62412,58899
62397,58863
62389,58825
62389,58786
62397,58748
62412,58712
62433,58680
62461,58653
62493,58631
62529,58616
62557,58611
62567,58609
62606,58609
62615,58611
" /> 
<polyline style="fill-rule:evenodd;"
points="22865,58611
22894,58616
22929,58631
22962,58653
22989,58680
23011,58712
23025,58748
23033,58786
23033,58825
23025,58863
23011,58899
22989,58931
22962,58958
22929,58980
22894,58995
22865,59001
22856,59002
22817,59002
22807,59001
22779,58995
22743,58980
22711,58958
22683,58931
22662,58899
22647,58863
22639,58825
22639,58786
22647,58748
22662,58712
22683,58680
22711,58653
22743,58631
22779,58616
22807,58611
22817,58609
22856,58609
22865,58611
" /> 
<polyline style="fill-rule:evenodd;"
points="22235,58611
22264,58616
22299,58631
22332,58653
22359,58680
22381,58712
22396,58748
22403,58786
22403,58825
22396,58863
22381,58899
22359,58931
22332,58958
22299,58980
22264,58995
22235,59001
22226,59002
22187,59002
22177,59001
22149,58995
22113,58980
22081,58958
22053,58931
22032,58899
22017,58863
22009,58825
22009,58786
22017,58748
22032,58712
22053,58680
22081,58653
22113,58631
22149,58616
22177,58611
22187,58609
22226,58609
22235,58611
" /> 
<polyline style="fill-rule:evenodd;"
points="21605,58611
21634,58616
21670,58631
21702,58653
21729,58680
21751,58712
21766,58748
21773,58786
21773,58825
21766,58863
21751,58899
21729,58931
21702,58958
21670,58980
21634,58995
21605,59001
21596,59002
21557,59002
21547,59001
21519,58995
21483,58980
21451,58958
21423,58931
21402,58899
21387,58863
21379,58825
21379,58786
21387,58748
21402,58712
21423,58680
21451,58653
21483,58631
21519,58616
21547,58611
21557,58609
21596,58609
21605,58611
" /> 
<polyline style="fill-rule:evenodd;"
points="63875,58611
63904,58616
63939,58631
63972,58653
63999,58680
64021,58712
64035,58748
64043,58786
64043,58825
64035,58863
64021,58899
63999,58931
63972,58958
63939,58980
63904,58995
63875,59001
63866,59002
63827,59002
63817,59001
63789,58995
63753,58980
63721,58958
63693,58931
63672,58899
63657,58863
63649,58825
63649,58786
63657,58748
63672,58712
63693,58680
63721,58653
63753,58631
63789,58616
63817,58611
63827,58609
63866,58609
63875,58611
" /> 
<polyline style="fill-rule:evenodd;"
points="63245,58611
63274,58616
63309,58631
63342,58653
63369,58680
63391,58712
63406,58748
63413,58786
63413,58825
63406,58863
63391,58899
63369,58931
63342,58958
63309,58980
63274,58995
63245,59001
63236,59002
63197,59002
63187,59001
63159,58995
63123,58980
63091,58958
63063,58931
63042,58899
63027,58863
63019,58825
63019,58786
63027,58748
63042,58712
63063,58680
63091,58653
63123,58631
63159,58616
63187,58611
63197,58609
63236,58609
63245,58611
" /> 
<polyline style="fill-rule:evenodd;"
points="85785,58594
85814,58600
85849,58615
85882,58637
85909,58664
85931,58696
85946,58732
85953,58770
85953,58809
85946,58847
85931,58883
85909,58915
85882,58942
85849,58964
85814,58979
85785,58984
85776,58986
85737,58986
85727,58984
85699,58979
85663,58964
85631,58942
85603,58915
85582,58883
85567,58847
85559,58809
85559,58770
85567,58732
85582,58696
85603,58664
85631,58637
85663,58615
85699,58600
85727,58594
85737,58593
85776,58593
85785,58594
" /> 
<polyline style="fill-rule:evenodd;"
points="84525,58594
84554,58600
84590,58615
84622,58637
84649,58664
84671,58696
84686,58732
84693,58770
84693,58809
84686,58847
84671,58883
84649,58915
84622,58942
84590,58964
84554,58979
84525,58984
84516,58986
84477,58986
84467,58984
84439,58979
84403,58964
84371,58942
84343,58915
84322,58883
84307,58847
84300,58809
84300,58770
84307,58732
84322,58696
84343,58664
84371,58637
84403,58615
84439,58600
84467,58594
84477,58593
84516,58593
84525,58594
" /> 
<polyline style="fill-rule:evenodd;"
points="85155,58594
85184,58600
85220,58615
85252,58637
85279,58664
85301,58696
85316,58732
85323,58770
85323,58809
85316,58847
85301,58883
85279,58915
85252,58942
85220,58964
85184,58979
85155,58984
85146,58986
85107,58986
85097,58984
85069,58979
85033,58964
85001,58942
84973,58915
84952,58883
84937,58847
84929,58809
84929,58770
84937,58732
84952,58696
84973,58664
85001,58637
85033,58615
85069,58600
85097,58594
85107,58593
85146,58593
85155,58594
" /> 
<polyline style="fill-rule:evenodd;"
points="21605,56878
21634,56884
21670,56899
21702,56920
21729,56948
21751,56980
21766,57016
21773,57054
21773,57093
21766,57131
21751,57167
21729,57199
21702,57226
21670,57248
21634,57263
21605,57268
21596,57270
21557,57270
21547,57268
21519,57263
21483,57248
21451,57226
21423,57199
21402,57167
21387,57131
21379,57093
21379,57054
21387,57016
21402,56980
21423,56948
21451,56920
21483,56899
21519,56884
21547,56878
21557,56876
21596,56876
21605,56878
" /> 
<polyline style="fill-rule:evenodd;"
points="63245,56878
63274,56884
63309,56899
63342,56920
63369,56948
63391,56980
63406,57016
63413,57054
63413,57093
63406,57131
63391,57167
63369,57199
63342,57226
63309,57248
63274,57263
63245,57268
63236,57270
63197,57270
63187,57268
63159,57263
63123,57248
63091,57226
63063,57199
63042,57167
63027,57131
63019,57093
63019,57054
63027,57016
63042,56980
63063,56948
63091,56920
63123,56899
63159,56884
63187,56878
63197,56876
63236,56876
63245,56878
" /> 
<polyline style="fill-rule:evenodd;"
points="22235,56878
22264,56884
22299,56899
22332,56920
22359,56948
22381,56980
22396,57016
22403,57054
22403,57093
22396,57131
22381,57167
22359,57199
22332,57226
22299,57248
22264,57263
22235,57268
22226,57270
22187,57270
22177,57268
22149,57263
22113,57248
22081,57226
22053,57199
22032,57167
22017,57131
22009,57093
22009,57054
22017,57016
22032,56980
22053,56948
22081,56920
22113,56899
22149,56884
22177,56878
22187,56876
22226,56876
22235,56878
" /> 
<polyline style="fill-rule:evenodd;"
points="22865,56878
22894,56884
22929,56899
22962,56920
22989,56948
23011,56980
23025,57016
23033,57054
23033,57093
23025,57131
23011,57167
22989,57199
22962,57226
22929,57248
22894,57263
22865,57268
22856,57270
22817,57270
22807,57268
22779,57263
22743,57248
22711,57226
22683,57199
22662,57167
22647,57131
22639,57093
22639,57054
22647,57016
22662,56980
22683,56948
22711,56920
22743,56899
22779,56884
22807,56878
22817,56876
22856,56876
22865,56878
" /> 
<polyline style="fill-rule:evenodd;"
points="62615,56878
62644,56884
62680,56899
62712,56920
62739,56948
62761,56980
62776,57016
62783,57054
62783,57093
62776,57131
62761,57167
62739,57199
62712,57226
62680,57248
62644,57263
62615,57268
62606,57270
62567,57270
62557,57268
62529,57263
62493,57248
62461,57226
62433,57199
62412,57167
62397,57131
62389,57093
62389,57054
62397,57016
62412,56980
62433,56948
62461,56920
62493,56899
62529,56884
62557,56878
62567,56876
62606,56876
62615,56878
" /> 
<polyline style="fill-rule:evenodd;"
points="63875,56878
63904,56884
63939,56899
63972,56920
63999,56948
64021,56980
64035,57016
64043,57054
64043,57093
64035,57131
64021,57167
63999,57199
63972,57226
63939,57248
63904,57263
63875,57268
63866,57270
63827,57270
63817,57268
63789,57263
63753,57248
63721,57226
63693,57199
63672,57167
63657,57131
63649,57093
63649,57054
63657,57016
63672,56980
63693,56948
63721,56920
63753,56899
63789,56884
63817,56878
63827,56876
63866,56876
63875,56878
" /> 
<polyline style="fill-rule:evenodd;"
points="85785,56862
85814,56868
85849,56883
85882,56904
85909,56932
85931,56964
85946,57000
85953,57038
85953,57077
85946,57115
85931,57150
85909,57183
85882,57210
85849,57232
85814,57246
85785,57252
85776,57254
85737,57254
85727,57252
85699,57246
85663,57232
85631,57210
85603,57183
85582,57150
85567,57115
85559,57077
85559,57038
85567,57000
85582,56964
85603,56932
85631,56904
85663,56883
85699,56868
85727,56862
85737,56860
85776,56860
85785,56862
" /> 
<polyline style="fill-rule:evenodd;"
points="85155,56862
85184,56868
85220,56883
85252,56904
85279,56932
85301,56964
85316,57000
85323,57038
85323,57077
85316,57115
85301,57150
85279,57183
85252,57210
85220,57232
85184,57246
85155,57252
85146,57254
85107,57254
85097,57252
85069,57246
85033,57232
85001,57210
84973,57183
84952,57150
84937,57115
84929,57077
84929,57038
84937,57000
84952,56964
84973,56932
85001,56904
85033,56883
85069,56868
85097,56862
85107,56860
85146,56860
85155,56862
" /> 
<polyline style="fill-rule:evenodd;"
points="84525,56862
84554,56868
84590,56883
84622,56904
84649,56932
84671,56964
84686,57000
84693,57038
84693,57077
84686,57115
84671,57150
84649,57183
84622,57210
84590,57232
84554,57246
84525,57252
84516,57254
84477,57254
84467,57252
84439,57246
84403,57232
84371,57210
84343,57183
84322,57150
84307,57115
84300,57077
84300,57038
84307,57000
84322,56964
84343,56932
84371,56904
84403,56883
84439,56868
84467,56862
84477,56860
84516,56860
84525,56862
" /> 
<polyline style="fill-rule:evenodd;"
points="93726,51325
94081,51472
94113,51485
94129,51496
94461,51718
94758,52014
94990,52362
95151,52749
95232,53160
95232,53579
95151,53990
94990,54376
94758,54725
94461,55021
94461,55021
94113,55253
94113,55253
94113,55253
93726,55414
93316,55495
92897,55495
92486,55414
92099,55253
92099,55253
92099,55253
91751,55021
91751,55021
91455,54725
91222,54376
91062,53990
90980,53579
90980,53160
91062,52749
91222,52362
91455,52014
91751,51718
92084,51496
92099,51485
92131,51472
92486,51325
92897,51243
93316,51243
93726,51325
" /> 
<polyline style="fill-rule:evenodd;"
points="20726,51325
21081,51472
21113,51485
21129,51496
21461,51718
21758,52014
21990,52362
22151,52749
22232,53160
22232,53579
22151,53990
21990,54376
21758,54725
21461,55021
21461,55021
21113,55253
21113,55253
21113,55253
20726,55414
20316,55495
19897,55495
19486,55414
19099,55253
19099,55253
19099,55253
18751,55021
18751,55021
18455,54725
18222,54376
18062,53990
17980,53579
17980,53160
18062,52749
18222,52362
18455,52014
18751,51718
19084,51496
19099,51485
19131,51472
19486,51325
19897,51243
20316,51243
20726,51325
" /> 
<polyline style="fill-rule:evenodd;"
points="38555,48858
37177,48858
37177,47480
38555,47480
38555,48858
" /> 
<polyline style="fill-rule:evenodd;"
points="31355,48858
29977,48858
29977,47480
31355,47480
31355,48858
" /> 
<polyline style="fill-rule:evenodd;"
points="24155,48827
22777,48827
22777,47449
24155,47449
24155,48827
" /> 
<polyline style="fill-rule:evenodd;"
points="45695,48807
44317,48807
44317,47429
45695,47429
45695,48807
" /> 
<polyline style="fill-rule:evenodd;"
points="75215,48718
73837,48718
73837,47340
75215,47340
75215,48718
" /> 
<polyline style="fill-rule:evenodd;"
points="67995,48458
66617,48458
66617,47080
67995,47080
67995,48458
" /> 
<polyline style="fill-rule:evenodd;"
points="82395,48458
81017,48458
81017,47080
82395,47080
82395,48458
" /> 
<polyline style="fill-rule:evenodd;"
points="89595,48458
88217,48458
88217,47080
89595,47080
89595,48458
" /> 
<polyline style="fill-rule:evenodd;"
points="30867,45538
30993,45590
31105,45666
31201,45762
31277,45875
31329,46000
31355,46133
31355,46269
31329,46402
31277,46527
31201,46640
31105,46736
30993,46811
30867,46863
30734,46890
30598,46890
30465,46863
30340,46811
30227,46736
30131,46640
30056,46527
30004,46402
29977,46269
29977,46133
30004,46000
30056,45875
30131,45762
30227,45666
30340,45590
30465,45538
30598,45512
30734,45512
30867,45538
" /> 
<polyline style="fill-rule:evenodd;"
points="38067,45538
38193,45590
38305,45666
38401,45762
38477,45875
38529,46000
38555,46133
38555,46269
38529,46402
38477,46527
38401,46640
38305,46736
38193,46811
38067,46863
37934,46890
37798,46890
37665,46863
37540,46811
37427,46736
37331,46640
37256,46527
37204,46402
37177,46269
37177,46133
37204,46000
37256,45875
37331,45762
37427,45666
37540,45590
37665,45538
37798,45512
37934,45512
38067,45538
" /> 
<polyline style="fill-rule:evenodd;"
points="23667,45507
23793,45559
23905,45634
24001,45730
24077,45843
24129,45968
24155,46102
24155,46237
24129,46370
24077,46496
24001,46609
23905,46705
23793,46780
23667,46832
23534,46858
23398,46858
23265,46832
23140,46780
23027,46705
22931,46609
22856,46496
22804,46370
22777,46237
22777,46102
22804,45968
22856,45843
22931,45730
23027,45634
23140,45559
23265,45507
23398,45480
23534,45480
23667,45507
" /> 
<polyline style="fill-rule:evenodd;"
points="45207,45487
45333,45539
45445,45614
45541,45710
45617,45823
45669,45948
45695,46082
45695,46217
45669,46350
45617,46476
45541,46589
45445,46685
45333,46760
45207,46812
45074,46838
44938,46838
44805,46812
44680,46760
44567,46685
44471,46589
44396,46476
44344,46350
44317,46217
44317,46082
44344,45948
44396,45823
44471,45710
44567,45614
44680,45539
44805,45487
44938,45460
45074,45460
45207,45487
" /> 
<polyline style="fill-rule:evenodd;"
points="74727,45398
74853,45450
74965,45526
75061,45622
75137,45735
75189,45860
75215,45993
75215,46129
75189,46262
75137,46387
75061,46500
74965,46596
74853,46671
74727,46723
74594,46750
74458,46750
74325,46723
74200,46671
74087,46596
73991,46500
73916,46387
73864,46262
73837,46129
73837,45993
73864,45860
73916,45735
73991,45622
74087,45526
74200,45450
74325,45398
74458,45372
74594,45372
74727,45398
" /> 
<polyline style="fill-rule:evenodd;"
points="89107,45138
89233,45190
89345,45266
89441,45362
89517,45475
89569,45600
89595,45733
89595,45869
89569,46002
89517,46127
89441,46240
89345,46336
89233,46411
89107,46463
88974,46490
88838,46490
88705,46463
88580,46411
88467,46336
88371,46240
88296,46127
88244,46002
88217,45869
88217,45733
88244,45600
88296,45475
88371,45362
88467,45266
88580,45190
88705,45138
88838,45112
88974,45112
89107,45138
" /> 
<polyline style="fill-rule:evenodd;"
points="67507,45138
67633,45190
67745,45266
67841,45362
67917,45475
67969,45600
67995,45733
67995,45869
67969,46002
67917,46127
67841,46240
67745,46336
67633,46411
67507,46463
67374,46490
67238,46490
67105,46463
66980,46411
66867,46336
66771,46240
66696,46127
66644,46002
66617,45869
66617,45733
66644,45600
66696,45475
66771,45362
66867,45266
66980,45190
67105,45138
67238,45112
67374,45112
67507,45138
" /> 
<polyline style="fill-rule:evenodd;"
points="81907,45138
82033,45190
82145,45266
82241,45362
82317,45475
82369,45600
82395,45733
82395,45869
82369,46002
82317,46127
82241,46240
82145,46336
82033,46411
81907,46463
81774,46490
81638,46490
81505,46463
81380,46411
81267,46336
81171,46240
81096,46127
81044,46002
81017,45869
81017,45733
81044,45600
81096,45475
81171,45362
81267,45266
81380,45190
81505,45138
81638,45112
81774,45112
81907,45138
" /> 
<polyline style="fill-rule:evenodd;"
points="86097,38630
86224,38668
86340,38730
86442,38814
86525,38916
86588,39032
86626,39158
86639,39289
86626,39421
86588,39547
86525,39663
86442,39765
86340,39849
86224,39911
86097,39949
85999,39959
85933,39959
85835,39949
85709,39911
85593,39849
85491,39765
85407,39663
85345,39547
85307,39421
85294,39289
85307,39158
85345,39032
85407,38916
85491,38814
85593,38730
85709,38668
85835,38630
85933,38620
85999,38620
86097,38630
" /> 
<polyline style="fill-rule:evenodd;"
points="84097,38630
84224,38668
84340,38730
84442,38814
84525,38916
84588,39032
84626,39158
84639,39289
84626,39421
84588,39547
84525,39663
84442,39765
84340,39849
84224,39911
84097,39949
83999,39959
83933,39959
83835,39949
83709,39911
83593,39849
83491,39765
83407,39663
83345,39547
83307,39421
83294,39289
83307,39158
83345,39032
83407,38916
83491,38814
83593,38730
83709,38668
83835,38630
83933,38620
83999,38620
84097,38630
" /> 
<polyline style="fill-rule:evenodd;"
points="82097,38630
82224,38668
82340,38730
82442,38814
82525,38916
82588,39032
82626,39158
82639,39289
82626,39421
82588,39547
82525,39663
82442,39765
82340,39849
82224,39911
82097,39949
81999,39959
81933,39959
81835,39949
81709,39911
81593,39849
81491,39765
81407,39663
81345,39547
81307,39421
81294,39289
81307,39158
81345,39032
81407,38916
81491,38814
81593,38730
81709,38668
81835,38630
81933,38620
81999,38620
82097,38630
" /> 
<polyline style="fill-rule:evenodd;"
points="80097,38630
80224,38668
80340,38730
80442,38814
80525,38916
80588,39032
80626,39158
80639,39289
80626,39421
80588,39547
80525,39663
80442,39765
80340,39849
80224,39911
80097,39949
79999,39959
79933,39959
79835,39949
79709,39911
79593,39849
79491,39765
79407,39663
79345,39547
79307,39421
79294,39289
79307,39158
79345,39032
79407,38916
79491,38814
79593,38730
79709,38668
79835,38630
79933,38620
79999,38620
80097,38630
" /> 
<polyline style="fill-rule:evenodd;"
points="78636,39959
77297,39959
77297,38620
78636,38620
78636,39959
" /> 
<polyline style="fill-rule:evenodd;"
points="74337,38610
74464,38648
74580,38710
74682,38794
74765,38896
74828,39012
74866,39138
74879,39269
74866,39401
74828,39527
74765,39643
74682,39745
74580,39829
74464,39891
74337,39929
74239,39939
74173,39939
74075,39929
73949,39891
73833,39829
73731,39745
73647,39643
73585,39527
73547,39401
73534,39269
73547,39138
73585,39012
73647,38896
73731,38794
73833,38710
73949,38648
74075,38610
74173,38600
74239,38600
74337,38610
" /> 
<polyline style="fill-rule:evenodd;"
points="72337,38610
72464,38648
72580,38710
72682,38794
72765,38896
72828,39012
72866,39138
72879,39269
72866,39401
72828,39527
72765,39643
72682,39745
72580,39829
72464,39891
72337,39929
72239,39939
72173,39939
72075,39929
71949,39891
71833,39829
71731,39745
71647,39643
71585,39527
71547,39401
71534,39269
71547,39138
71585,39012
71647,38896
71731,38794
71833,38710
71949,38648
72075,38610
72173,38600
72239,38600
72337,38610
" /> 
<polyline style="fill-rule:evenodd;"
points="70876,39939
69537,39939
69537,38600
70876,38600
70876,39939
" /> 
<polyline style="fill-rule:evenodd;"
points="55775,36952
55851,36968
56066,37057
56257,37184
56259,37186
56424,37350
56424,37350
56553,37544
56642,37759
56687,37987
56687,38220
56642,38448
56553,38663
56508,38730
56424,38856
56259,39021
56259,39021
56066,39150
55851,39239
55775,39254
55623,39284
55390,39284
55238,39254
55162,39239
54947,39150
54753,39021
54753,39021
54589,38856
54505,38730
54460,38663
54371,38448
54325,38220
54325,37987
54371,37759
54460,37544
54589,37350
54589,37350
54753,37186
54756,37184
54947,37057
55162,36968
55238,36952
55390,36922
55623,36922
55775,36952
" /> 
<polyline style="fill-rule:evenodd;"
points="36435,34787
35057,34787
35057,33409
36435,33409
36435,34787
" /> 
<polyline style="fill-rule:evenodd;"
points="35947,31467
36073,31519
36185,31594
36281,31690
36357,31803
36409,31928
36435,32062
36435,32197
36409,32330
36357,32456
36281,32569
36185,32665
36073,32740
35947,32792
35814,32818
35678,32818
35545,32792
35420,32740
35307,32665
35211,32569
35136,32456
35084,32330
35057,32197
35057,32062
35084,31928
35136,31803
35211,31690
35307,31594
35420,31519
35545,31467
35678,31440
35814,31440
35947,31467
" /> 
<polyline style="fill-rule:evenodd;"
points="72369,30817
71673,31513
71117,30956
71813,30260
72369,30817
" /> 
<polyline style="fill-rule:evenodd;"
points="28317,30283
28421,30314
28516,30366
28600,30434
28669,30518
28720,30614
28752,30718
28762,30826
28752,30934
28720,31038
28669,31134
28600,31218
28516,31287
28421,31338
28317,31369
28236,31377
27079,31377
26998,31369
26894,31338
26799,31287
26715,31218
26646,31134
26595,31038
26563,30934
26552,30826
26563,30718
26595,30614
26646,30518
26715,30434
26799,30366
26894,30314
26998,30283
27079,30275
28236,30275
28317,30283
" /> 
<polyline style="fill-rule:evenodd;"
points="71256,29703
70560,30399
70003,29842
70699,29146
71256,29703
" /> 
<polyline style="fill-rule:evenodd;"
points="22813,28688
22942,28741
23058,28819
23157,28918
23234,29034
23288,29163
23315,29300
23315,29439
23288,29576
23234,29705
23157,29821
23058,29920
22942,29997
22813,30051
22676,30078
22536,30078
22400,30051
22271,29997
22154,29920
22056,29821
21978,29705
21925,29576
21898,29439
21898,29300
21925,29163
21978,29034
22056,28918
22154,28819
22271,28741
22400,28688
22536,28661
22676,28661
22813,28688
" /> 
<polyline style="fill-rule:evenodd;"
points="20813,28688
20942,28741
21058,28819
21157,28918
21234,29034
21288,29163
21315,29300
21315,29439
21288,29576
21234,29705
21157,29821
21058,29920
20942,29997
20813,30051
20676,30078
20536,30078
20400,30051
20271,29997
20154,29920
20056,29821
19978,29705
19925,29576
19898,29439
19898,29300
19925,29163
19978,29034
20056,28918
20154,28819
20271,28741
20400,28688
20536,28661
20676,28661
20813,28688
" /> 
<polyline style="fill-rule:evenodd;"
points="19315,30078
17898,30078
17898,28661
19315,28661
19315,30078
" /> 
<polyline style="fill-rule:evenodd;"
points="25325,27448
25428,27480
25524,27531
25608,27600
25677,27684
25728,27780
25760,27883
25768,27964
25768,29121
25760,29202
25728,29306
25677,29402
25608,29485
25524,29554
25428,29606
25325,29637
25216,29648
25108,29637
25005,29606
24909,29554
24825,29485
24756,29402
24705,29306
24673,29202
24665,29121
24665,27964
24673,27883
24705,27780
24756,27684
24825,27600
24909,27531
25005,27480
25108,27448
25216,27438
25325,27448
" /> 
<polyline style="fill-rule:evenodd;"
points="70429,28857
69733,29553
69177,28996
69873,28300
70429,28857
" /> 
<polyline style="fill-rule:evenodd;"
points="69316,27743
68620,28439
68063,27882
68759,27186
69316,27743
" /> 
<polyline style="fill-rule:evenodd;"
points="27301,26875
27423,26926
27533,26999
27626,27092
27699,27202
27750,27324
27776,27453
27776,27585
27750,27714
27699,27836
27626,27946
27533,28039
27423,28112
27301,28163
27172,28188
27040,28188
26911,28163
26789,28112
26680,28039
26586,27946
26513,27836
26463,27714
26437,27585
26437,27453
26463,27324
26513,27202
26586,27092
26680,26999
26789,26926
26911,26875
27040,26850
27172,26850
27301,26875
" /> 
<polyline style="fill-rule:evenodd;"
points="29089,21693
29089,21693
29089,21693
29179,21720
29261,21764
29334,21824
29363,21859
29393,21896
29430,21965
29438,21979
29456,22038
29465,22068
29472,22138
29472,23136
29465,23206
29465,23206
29465,23206
29438,23296
29393,23378
29334,23451
29261,23510
29179,23554
29089,23581
29089,23581
29089,23581
28996,23591
28903,23581
28903,23581
28903,23581
28813,23554
28730,23510
28658,23451
28599,23378
28554,23296
28527,23206
28527,23206
28527,23206
28520,23136
28520,22138
28527,22068
28527,22068
28554,21979
28599,21896
28658,21824
28698,21791
28730,21764
28813,21720
28813,21720
28903,21693
28903,21693
28903,21693
28996,21684
29089,21693
" /> 
<polyline style="fill-rule:evenodd;"
points="33008,22187
33133,22239
33246,22315
33342,22411
33418,22523
33470,22649
33496,22782
33496,22918
33470,23051
33418,23176
33342,23289
33246,23385
33133,23460
33008,23512
32875,23539
32739,23539
32606,23512
32481,23460
32368,23385
32272,23289
32196,23176
32145,23051
32118,22918
32118,22782
32145,22649
32196,22523
32272,22411
32368,22315
32481,22239
32606,22187
32739,22161
32875,22161
33008,22187
" /> 
<polyline style="fill-rule:evenodd;"
points="56687,23151
54325,23151
54325,20788
56687,20788
56687,23151
" /> 
<polyline style="fill-rule:evenodd;"
points="64196,22839
62857,22839
62857,21500
64196,21500
64196,22839
" /> 
<polyline style="fill-rule:evenodd;"
points="65657,21510
65784,21548
65900,21610
66002,21694
66085,21796
66148,21912
66186,22038
66199,22169
66186,22301
66148,22427
66085,22543
66002,22645
65900,22729
65784,22791
65657,22829
65559,22839
65493,22839
65395,22829
65269,22791
65153,22729
65051,22645
64967,22543
64905,22427
64867,22301
64854,22169
64867,22038
64905,21912
64967,21796
65051,21694
65153,21610
65269,21548
65395,21510
65493,21500
65559,21500
65657,21510
" /> 
<polyline style="fill-rule:evenodd;"
points="67657,21510
67784,21548
67900,21610
68002,21694
68085,21796
68148,21912
68186,22038
68199,22169
68186,22301
68148,22427
68085,22543
68002,22645
67900,22729
67784,22791
67657,22829
67559,22839
67493,22839
67395,22829
67269,22791
67153,22729
67051,22645
66967,22543
66905,22427
66867,22301
66854,22169
66867,22038
66905,21912
66967,21796
67051,21694
67153,21610
67269,21548
67395,21510
67493,21500
67559,21500
67657,21510
" /> 
<polyline style="fill-rule:evenodd;"
points="93486,18565
93841,18712
93873,18725
94125,18894
94221,18958
94518,19254
94518,19254
94737,19583
94750,19602
94911,19989
94992,20400
94992,20819
94911,21230
94750,21616
94750,21616
94620,21812
94518,21965
94221,22261
94221,22261
93873,22493
93873,22493
93873,22493
93486,22654
93076,22735
92657,22735
92246,22654
91859,22493
91859,22493
91859,22493
91511,22261
91511,22261
91215,21965
91113,21812
90982,21616
90982,21616
90822,21230
90740,20819
90740,20400
90822,19989
90982,19602
90995,19583
91215,19254
91215,19254
91511,18958
91607,18894
91859,18725
91891,18712
92246,18565
92657,18483
93076,18483
93486,18565
" /> 
<polyline style="fill-rule:evenodd;"
points="27301,21364
27423,21414
27533,21487
27626,21581
27699,21690
27750,21812
27776,21941
27776,22073
27750,22202
27699,22324
27626,22434
27533,22527
27423,22600
27301,22651
27172,22677
27040,22677
26911,22651
26789,22600
26680,22527
26586,22434
26513,22324
26463,22202
26437,22073
26437,21941
26463,21812
26513,21690
26586,21581
26680,21487
26789,21414
26911,21364
27040,21338
27172,21338
27301,21364
" /> 
<polyline style="fill-rule:evenodd;"
points="20766,18465
21121,18612
21153,18625
21283,18712
21501,18858
21798,19154
21798,19154
22029,19501
22030,19502
22191,19889
22272,20300
22272,20719
22191,21130
22037,21500
22030,21516
21904,21706
21798,21865
21501,22161
21501,22161
21153,22393
21153,22393
21153,22393
20766,22554
20356,22635
19937,22635
19526,22554
19139,22393
19139,22393
19139,22393
18791,22161
18791,22161
18495,21865
18389,21706
18262,21516
18255,21500
18102,21130
18020,20719
18020,20300
18102,19889
18262,19502
18263,19501
18495,19154
18495,19154
18791,18858
19009,18712
19139,18625
19171,18612
19526,18465
19937,18383
20356,18383
20766,18465
" /> 
<polyline style="fill-rule:evenodd;"
points="25310,20197
25310,20197
25310,20197
25399,20224
25482,20268
25554,20328
25581,20360
25614,20400
25658,20483
25685,20572
25692,20642
25692,21640
25685,21710
25685,21710
25685,21710
25659,21796
25658,21800
25652,21810
25614,21882
25554,21955
25482,22014
25399,22058
25310,22085
25310,22085
25310,22085
25216,22095
25123,22085
25123,22085
25123,22085
25034,22058
24951,22014
24879,21955
24819,21882
24781,21810
24775,21800
24774,21796
24748,21710
24748,21710
24748,21710
24741,21640
24741,20642
24748,20572
24748,20572
24775,20483
24819,20400
24879,20328
24919,20294
24951,20268
25034,20224
25034,20224
25123,20197
25123,20197
25123,20197
25216,20188
25310,20197
" /> 
<polyline style="fill-rule:evenodd;"
points="33496,21570
32118,21570
32118,20192
33496,20192
33496,21570
" /> 
<polyline style="fill-rule:evenodd;"
points="29089,19488
29089,19488
29089,19488
29179,19515
29261,19559
29334,19619
29344,19631
29393,19691
29431,19761
29438,19774
29448,19809
29465,19864
29472,19933
29472,20931
29465,21001
29465,21001
29465,21001
29438,21091
29393,21174
29334,21246
29261,21305
29179,21350
29089,21377
29089,21377
29089,21377
28996,21386
28903,21377
28903,21377
28903,21377
28813,21350
28730,21305
28658,21246
28599,21174
28554,21091
28527,21001
28527,21001
28527,21001
28520,20931
28520,19933
28527,19864
28527,19864
28554,19774
28599,19691
28658,19619
28713,19574
28730,19559
28813,19515
28813,19515
28903,19488
28903,19488
28903,19488
28996,19479
29089,19488
" /> 
<polyline style="fill-rule:evenodd;"
points="65657,19510
65784,19548
65900,19610
66002,19694
66085,19796
66148,19912
66186,20038
66199,20169
66186,20301
66148,20427
66085,20543
66002,20645
65900,20729
65784,20791
65657,20829
65559,20839
65493,20839
65395,20829
65269,20791
65153,20729
65051,20645
64967,20543
64905,20427
64867,20301
64854,20169
64867,20038
64905,19912
64967,19796
65051,19694
65153,19610
65269,19548
65395,19510
65493,19500
65559,19500
65657,19510
" /> 
<polyline style="fill-rule:evenodd;"
points="63657,19510
63784,19548
63900,19610
64002,19694
64085,19796
64148,19912
64186,20038
64199,20169
64186,20301
64148,20427
64085,20543
64002,20645
63900,20729
63784,20791
63657,20829
63559,20839
63493,20839
63395,20829
63269,20791
63153,20729
63051,20645
62967,20543
62905,20427
62867,20301
62854,20169
62867,20038
62905,19912
62967,19796
63051,19694
63153,19610
63269,19548
63395,19510
63493,19500
63559,19500
63657,19510
" /> 
<polyline style="fill-rule:evenodd;"
points="67657,19510
67784,19548
67900,19610
68002,19694
68085,19796
68148,19912
68186,20038
68199,20169
68186,20301
68148,20427
68085,20543
68002,20645
67900,20729
67784,20791
67657,20829
67559,20839
67493,20839
67395,20829
67269,20791
67153,20729
67051,20645
66967,20543
66905,20427
66867,20301
66854,20169
66867,20038
66905,19912
66967,19796
67051,19694
67153,19610
67269,19548
67395,19510
67493,19500
67559,19500
67657,19510
" /> 
<polyline style="fill-rule:evenodd;"
points="86576,20039
85237,20039
85237,18700
86576,18700
86576,20039
" /> 
<polyline style="fill-rule:evenodd;"
points="84037,18710
84164,18748
84280,18810
84382,18894
84465,18996
84528,19112
84566,19238
84579,19369
84566,19501
84528,19627
84465,19743
84382,19845
84280,19929
84164,19991
84037,20029
83939,20039
83873,20039
83775,20029
83649,19991
83533,19929
83431,19845
83347,19743
83285,19627
83247,19501
83234,19369
83247,19238
83285,19112
83347,18996
83431,18894
83533,18810
83649,18748
83775,18710
83873,18700
83939,18700
84037,18710
" /> 
<polyline style="fill-rule:evenodd;"
points="82037,18710
82164,18748
82280,18810
82382,18894
82465,18996
82528,19112
82566,19238
82579,19369
82566,19501
82528,19627
82465,19743
82382,19845
82280,19929
82164,19991
82037,20029
81939,20039
81873,20039
81775,20029
81649,19991
81533,19929
81431,19845
81347,19743
81285,19627
81247,19501
81234,19369
81247,19238
81285,19112
81347,18996
81431,18894
81533,18810
81649,18748
81775,18710
81873,18700
81939,18700
82037,18710
" /> 
<polyline style="fill-rule:evenodd;"
points="80037,18710
80164,18748
80280,18810
80382,18894
80465,18996
80528,19112
80566,19238
80579,19369
80566,19501
80528,19627
80465,19743
80382,19845
80280,19929
80164,19991
80037,20029
79939,20039
79873,20039
79775,20029
79649,19991
79533,19929
79431,19845
79347,19743
79285,19627
79247,19501
79234,19369
79247,19238
79285,19112
79347,18996
79431,18894
79533,18810
79649,18748
79775,18710
79873,18700
79939,18700
80037,18710
" /> 
<polyline style="fill-rule:evenodd;"
points="76037,18710
76164,18748
76280,18810
76382,18894
76465,18996
76528,19112
76566,19238
76579,19369
76566,19501
76528,19627
76465,19743
76382,19845
76280,19929
76164,19991
76037,20029
75939,20039
75873,20039
75775,20029
75649,19991
75533,19929
75431,19845
75347,19743
75285,19627
75247,19501
75234,19369
75247,19238
75285,19112
75347,18996
75431,18894
75533,18810
75649,18748
75775,18710
75873,18700
75939,18700
76037,18710
" /> 
<polyline style="fill-rule:evenodd;"
points="78037,18710
78164,18748
78280,18810
78382,18894
78465,18996
78528,19112
78566,19238
78579,19369
78566,19501
78528,19627
78465,19743
78382,19845
78280,19929
78164,19991
78037,20029
77939,20039
77873,20039
77775,20029
77649,19991
77533,19929
77431,19845
77347,19743
77285,19627
77247,19501
77234,19369
77247,19238
77285,19112
77347,18996
77431,18894
77533,18810
77649,18748
77775,18710
77873,18700
77939,18700
78037,18710
" /> 
<polyline style="fill-rule:evenodd;"
points="24680,17992
24680,17992
24680,17992
24769,18019
24852,18063
24924,18123
24957,18163
24984,18195
25028,18278
25055,18368
25062,18437
25062,19435
25055,19505
25055,19505
25055,19505
25028,19595
24984,19677
24924,19750
24852,19809
24769,19853
24680,19881
24680,19881
24680,19881
24587,19890
24493,19881
24493,19881
24493,19881
24404,19853
24321,19809
24249,19750
24189,19677
24145,19595
24118,19505
24118,19505
24118,19505
24111,19435
24111,18437
24118,18368
24118,18368
24145,18278
24189,18195
24249,18123
24288,18090
24321,18063
24404,18019
24404,18019
24493,17992
24493,17992
24493,17992
24587,17983
24680,17992
" /> 
<polyline style="fill-rule:evenodd;"
points="32505,17281
32534,17286
32569,17301
32602,17323
32629,17350
32651,17382
32665,17418
32673,17456
32673,17495
32665,17533
32651,17569
32629,17601
32602,17628
32569,17650
32534,17665
32505,17671
32496,17672
32457,17672
32447,17671
32419,17665
32383,17650
32351,17628
32323,17601
32302,17569
32287,17533
32279,17495
32279,17456
32287,17418
32302,17382
32323,17350
32351,17323
32383,17301
32419,17286
32447,17281
32457,17279
32496,17279
32505,17281
" /> 
<polyline style="fill-rule:evenodd;"
points="31875,17281
31904,17286
31939,17301
31972,17323
31999,17350
32021,17382
32036,17418
32043,17456
32043,17495
32036,17533
32021,17569
31999,17601
31972,17628
31939,17650
31904,17665
31875,17671
31866,17672
31827,17672
31817,17671
31789,17665
31753,17650
31721,17628
31693,17601
31672,17569
31657,17533
31649,17495
31649,17456
31657,17418
31672,17382
31693,17350
31721,17323
31753,17301
31789,17286
31817,17281
31827,17279
31866,17279
31875,17281
" /> 
<polyline style="fill-rule:evenodd;"
points="56595,17281
56624,17286
56659,17301
56692,17323
56719,17350
56741,17382
56756,17418
56763,17456
56763,17495
56756,17533
56741,17569
56719,17601
56692,17628
56659,17650
56624,17665
56595,17671
56586,17672
56547,17672
56537,17671
56509,17665
56473,17650
56441,17628
56413,17601
56392,17569
56377,17533
56369,17495
56369,17456
56377,17418
56392,17382
56413,17350
56441,17323
56473,17301
56509,17286
56537,17281
56547,17279
56586,17279
56595,17281
" /> 
<polyline style="fill-rule:evenodd;"
points="55965,17281
55994,17286
56030,17301
56062,17323
56089,17350
56111,17382
56126,17418
56133,17456
56133,17495
56126,17533
56111,17569
56089,17601
56062,17628
56030,17650
55994,17665
55965,17671
55956,17672
55917,17672
55907,17671
55879,17665
55843,17650
55811,17628
55783,17601
55762,17569
55747,17533
55739,17495
55739,17456
55747,17418
55762,17382
55783,17350
55811,17323
55843,17301
55879,17286
55907,17281
55917,17279
55956,17279
55965,17281
" /> 
<polyline style="fill-rule:evenodd;"
points="31245,17281
31274,17286
31310,17301
31342,17323
31369,17350
31391,17382
31406,17418
31413,17456
31413,17495
31406,17533
31391,17569
31369,17601
31342,17628
31310,17650
31274,17665
31245,17671
31236,17672
31197,17672
31187,17671
31159,17665
31123,17650
31091,17628
31063,17601
31042,17569
31027,17533
31019,17495
31019,17456
31027,17418
31042,17382
31063,17350
31091,17323
31123,17301
31159,17286
31187,17281
31197,17279
31236,17279
31245,17281
" /> 
<polyline style="fill-rule:evenodd;"
points="57225,17281
57254,17286
57289,17301
57322,17323
57349,17350
57371,17382
57385,17418
57393,17456
57393,17495
57385,17533
57371,17569
57349,17601
57322,17628
57289,17650
57254,17665
57225,17671
57216,17672
57177,17672
57167,17671
57139,17665
57103,17650
57071,17628
57043,17601
57022,17569
57007,17533
56999,17495
56999,17456
57007,17418
57022,17382
57043,17350
57071,17323
57103,17301
57139,17286
57167,17281
57177,17279
57216,17279
57225,17281
" /> 
<polyline style="fill-rule:evenodd;"
points="89765,17241
89794,17246
89829,17261
89862,17283
89889,17310
89911,17342
89925,17378
89933,17416
89933,17455
89925,17493
89911,17529
89889,17561
89862,17588
89829,17610
89794,17625
89765,17631
89756,17632
89717,17632
89707,17631
89679,17625
89643,17610
89611,17588
89583,17561
89562,17529
89547,17493
89539,17455
89539,17416
89547,17378
89562,17342
89583,17310
89611,17283
89643,17261
89679,17246
89707,17241
89717,17239
89756,17239
89765,17241
" /> 
<polyline style="fill-rule:evenodd;"
points="89135,17241
89164,17246
89199,17261
89232,17283
89259,17310
89281,17342
89296,17378
89303,17416
89303,17455
89296,17493
89281,17529
89259,17561
89232,17588
89199,17610
89164,17625
89135,17631
89126,17632
89087,17632
89077,17631
89049,17625
89013,17610
88981,17588
88953,17561
88932,17529
88917,17493
88909,17455
88909,17416
88917,17378
88932,17342
88953,17310
88981,17283
89013,17261
89049,17246
89077,17241
89087,17239
89126,17239
89135,17241
" /> 
<polyline style="fill-rule:evenodd;"
points="88505,17241
88534,17246
88570,17261
88602,17283
88629,17310
88651,17342
88666,17378
88673,17416
88673,17455
88666,17493
88651,17529
88629,17561
88602,17588
88570,17610
88534,17625
88505,17631
88496,17632
88457,17632
88447,17631
88419,17625
88383,17610
88351,17588
88323,17561
88302,17529
88287,17493
88279,17455
88279,17416
88287,17378
88302,17342
88323,17310
88351,17283
88383,17261
88419,17246
88447,17241
88457,17239
88496,17239
88505,17241
" /> 
<polyline style="fill-rule:evenodd;"
points="32505,15548
32534,15554
32569,15569
32602,15590
32629,15618
32651,15650
32665,15686
32673,15724
32673,15763
32665,15801
32651,15837
32629,15869
32602,15896
32569,15918
32534,15933
32505,15938
32496,15940
32457,15940
32447,15938
32419,15933
32383,15918
32351,15896
32323,15869
32302,15837
32287,15801
32279,15763
32279,15724
32287,15686
32302,15650
32323,15618
32351,15590
32383,15569
32419,15554
32447,15548
32457,15546
32496,15546
32505,15548
" /> 
<polyline style="fill-rule:evenodd;"
points="31875,15548
31904,15554
31939,15569
31972,15590
31999,15618
32021,15650
32036,15686
32043,15724
32043,15763
32036,15801
32021,15837
31999,15869
31972,15896
31939,15918
31904,15933
31875,15938
31866,15940
31827,15940
31817,15938
31789,15933
31753,15918
31721,15896
31693,15869
31672,15837
31657,15801
31649,15763
31649,15724
31657,15686
31672,15650
31693,15618
31721,15590
31753,15569
31789,15554
31817,15548
31827,15546
31866,15546
31875,15548
" /> 
<polyline style="fill-rule:evenodd;"
points="31245,15548
31274,15554
31310,15569
31342,15590
31369,15618
31391,15650
31406,15686
31413,15724
31413,15763
31406,15801
31391,15837
31369,15869
31342,15896
31310,15918
31274,15933
31245,15938
31236,15940
31197,15940
31187,15938
31159,15933
31123,15918
31091,15896
31063,15869
31042,15837
31027,15801
31019,15763
31019,15724
31027,15686
31042,15650
31063,15618
31091,15590
31123,15569
31159,15554
31187,15548
31197,15546
31236,15546
31245,15548
" /> 
<polyline style="fill-rule:evenodd;"
points="56595,15548
56624,15554
56659,15569
56692,15590
56719,15618
56741,15650
56756,15686
56763,15724
56763,15763
56756,15801
56741,15837
56719,15869
56692,15896
56659,15918
56624,15933
56595,15938
56586,15940
56547,15940
56537,15938
56509,15933
56473,15918
56441,15896
56413,15869
56392,15837
56377,15801
56369,15763
56369,15724
56377,15686
56392,15650
56413,15618
56441,15590
56473,15569
56509,15554
56537,15548
56547,15546
56586,15546
56595,15548
" /> 
<polyline style="fill-rule:evenodd;"
points="57225,15548
57254,15554
57289,15569
57322,15590
57349,15618
57371,15650
57385,15686
57393,15724
57393,15763
57385,15801
57371,15837
57349,15869
57322,15896
57289,15918
57254,15933
57225,15938
57216,15940
57177,15940
57167,15938
57139,15933
57103,15918
57071,15896
57043,15869
57022,15837
57007,15801
56999,15763
56999,15724
57007,15686
57022,15650
57043,15618
57071,15590
57103,15569
57139,15554
57167,15548
57177,15546
57216,15546
57225,15548
" /> 
<polyline style="fill-rule:evenodd;"
points="55965,15548
55994,15554
56030,15569
56062,15590
56089,15618
56111,15650
56126,15686
56133,15724
56133,15763
56126,15801
56111,15837
56089,15869
56062,15896
56030,15918
55994,15933
55965,15938
55956,15940
55917,15940
55907,15938
55879,15933
55843,15918
55811,15896
55783,15869
55762,15837
55747,15801
55739,15763
55739,15724
55747,15686
55762,15650
55783,15618
55811,15590
55843,15569
55879,15554
55907,15548
55917,15546
55956,15546
55965,15548
" /> 
<polyline style="fill-rule:evenodd;"
points="89765,15508
89794,15514
89829,15529
89862,15550
89889,15578
89911,15610
89925,15646
89933,15684
89933,15723
89925,15761
89911,15797
89889,15829
89862,15856
89829,15878
89794,15893
89765,15898
89756,15900
89717,15900
89707,15898
89679,15893
89643,15878
89611,15856
89583,15829
89562,15797
89547,15761
89539,15723
89539,15684
89547,15646
89562,15610
89583,15578
89611,15550
89643,15529
89679,15514
89707,15508
89717,15506
89756,15506
89765,15508
" /> 
<polyline style="fill-rule:evenodd;"
points="89135,15508
89164,15514
89199,15529
89232,15550
89259,15578
89281,15610
89296,15646
89303,15684
89303,15723
89296,15761
89281,15797
89259,15829
89232,15856
89199,15878
89164,15893
89135,15898
89126,15900
89087,15900
89077,15898
89049,15893
89013,15878
88981,15856
88953,15829
88932,15797
88917,15761
88909,15723
88909,15684
88917,15646
88932,15610
88953,15578
88981,15550
89013,15529
89049,15514
89077,15508
89087,15506
89126,15506
89135,15508
" /> 
<polyline style="fill-rule:evenodd;"
points="88505,15508
88534,15514
88570,15529
88602,15550
88629,15578
88651,15610
88666,15646
88673,15684
88673,15723
88666,15761
88651,15797
88629,15829
88602,15856
88570,15878
88534,15893
88505,15898
88496,15900
88457,15900
88447,15898
88419,15893
88383,15878
88351,15856
88323,15829
88302,15797
88287,15761
88279,15723
88279,15684
88287,15646
88302,15610
88323,15578
88351,15550
88383,15529
88419,15514
88447,15508
88457,15506
88496,15506
88505,15508
" /> 
<polyline style="fill-rule:evenodd;"
points="82504,11667
82683,11741
82844,11849
82981,11986
83089,12147
83163,12326
83201,12517
83201,12710
83163,12901
83089,13080
82981,13241
82844,13378
82683,13486
82504,13560
82313,13598
82120,13598
81929,13560
81750,13486
81589,13378
81452,13241
81344,13080
81270,12901
81232,12710
81232,12517
81270,12326
81344,12147
81452,11986
81589,11849
81750,11741
81929,11667
82120,11629
82313,11629
82504,11667
" /> 
<polyline style="fill-rule:evenodd;"
points="27385,11667
27565,11741
27726,11849
27863,11986
27971,12147
28045,12326
28083,12517
28083,12710
28045,12901
27971,13080
27863,13241
27726,13378
27565,13486
27385,13560
27195,13598
27001,13598
26811,13560
26632,13486
26471,13378
26334,13241
26226,13080
26152,12901
26114,12710
26114,12517
26152,12326
26226,12147
26334,11986
26471,11849
26632,11741
26811,11667
27001,11629
27195,11629
27385,11667
" /> 
</g> 
</svg>
