<?xml version="1.0" standalone="no"?>
 <!DOCTYPE svg PUBLIC "-//W3C//DTD SVG 1.1//EN" 
 "http://www.w3.org/Graphics/SVG/1.1/DTD/svg11.dtd"> 
<svg xmlns="http://www.w3.org/2000/svg" version="1.1" 
    width="29.7002cm" height="21.0007cm" viewBox="0 0 116930 82680 ">
<title>SVG Picture created as ThermocoupleLogger-Eco1_User.svg date 2019/03/14 17:00:52 </title>
  <desc>Picture generated by PCBNEW </desc>
<g style="fill:#000000; fill-opacity:1;stroke:#000000; stroke-opacity:1;
stroke-linecap:round; stroke-linejoin:round; "
 transform="translate(0 0) scale(1 1)">
</g>
<g style="fill:#000000; fill-opacity:0.0; 
stroke:#000000; stroke-width:-0.000787402; stroke-opacity:1; 
stroke-linecap:round; stroke-linejoin:round;">
</g>
<g style="fill:#000000; fill-opacity:0.0; 
stroke:#000000; stroke-width:157.48; stroke-opacity:1; 
stroke-linecap:round; stroke-linejoin:round;">
<path d="M96106 63369
L96106 58969
" />
<path d="M96106 63769
L96106 63369
" />
<path d="M17706 63369
L96106 63769
" />
<path d="M17306 58969
L17706 58969
" />
<path d="M17306 63369
L17706 63369
" />
<path d="M17306 58969
L17306 63369
" />
<path d="M83266 58929
L65026 58929
" />
<path d="M86996 58929
L96106 58945
" />
<path d="M86956 56929
L96046 56929
" />
<path d="M65026 56929
L83266 56929
" />
<path d="M61390 58939
L24030 58939
" />
<path d="M24036 56939
L61396 56939
" />
<path d="M20406 56949
L17306 56949
" />
<path d="M20376 58949
L17666 58949
" />
<path d="M20376.7 58949.9 A1000.2 1000.2 0.0 0 0 20399.3 56950.6 " />
<path d="M24046.7 56939.9 A1000 1000 0.0 0 0 24030.1 58939.8 " />
<path d="M61376.7 58939.9 A1000 1000 0.0 0 0 61398 56940.1 " />
<path d="M65026.7 56929.9 A1000.2 1000.2 0.0 1 0 65028.5 58929.9 " />
<path d="M83256.7 58929.9 A1000.2 1000.2 0.0 1 0 83276.7 56929.7 " />
<path d="M86947.5 56929.9 A1000.2 1000.2 0.0 0 0 86986.7 58929.9 " />
<path d="M90906.7 15569.9 A1000.8 1000.8 0.0 0 0 90946.7 17570.7 " />
<path d="M54686.7 17609.9 A1000.8 1000.8 0.0 1 0 54686.7 15609.9 " />
<path d="M17266 15589
L17266 15589
" />
<path d="M30026 15589
L17266 15589
" />
<path d="M17306 17639
L30036 17629
" />
<path d="M33686 17609
L54686 17609
" />
<path d="M54666 15609
L33706 15609
" />
<path d="M30026.7 17629.9 A1020 1020 0.0 0 0 30026.7 15589.9 " />
<path d="M33706.7 15609.9 A1000.2 1000.2 0.0 1 0 33686.7 17610.1 " />
<path d="M87286 17599
L58456 17599
" />
<path d="M58306 15619
L87316 15619
" />
<path d="M58386.7 15609.9 A990.202 990.202 0.0 0 0 58426.7 17589.9 " />
<path d="M90951 17582
L96051 17582
" />
<path d="M96006 15569
L96006 10369
" />
<path d="M96006 10369
L96006 15569
" />
<path d="M96006 15569
L96006 10369
" />
<path d="M90906 15569
L96006 15569
" />
<path d="M96006 15569
L90906 15569
" />
<path d="M96006 10369
L96006 15569
" />
<path d="M87286.7 17609.9 A996 996 0.0 0 0 87294.8 15618 " />
<path d="M17266 10349
L96046 10349
" />
<path d="M17266 15589
L17266 10349
" />
<path d="M17306 56949
L17306 17639
" />
</g>
<g style="fill:#000000; fill-opacity:0.0; 
stroke:#000000; stroke-width:236.22; stroke-opacity:1; 
stroke-linecap:round; stroke-linejoin:round;">
<path d="M41172 68919
L41847 68919
" />
<path d="M41510 70100
L41510 68919
" />
<path d="M42466 68919
L42691 68919
L42803 68975
L42916 69087
L42972 69312
L42972 69706
L42916 69931
L42803 70044
L42691 70100
L42466 70100
L42353 70044
L42241 69931
L42185 69706
L42185 69312
L42241 69087
L42353 68975
L42466 68919
" />
<path d="M43478 70100
L43478 68919
L43759 68919
L43928 68975
L44041 69087
L44097 69200
L44153 69425
L44153 69594
L44097 69819
L44041 69931
L43928 70044
L43759 70100
L43478 70100
" />
<path d="M44884 68919
L45109 68919
L45222 68975
L45334 69087
L45390 69312
L45390 69706
L45334 69931
L45222 70044
L45109 70100
L44884 70100
L44772 70044
L44659 69931
L44603 69706
L44603 69312
L44659 69087
L44772 68975
L44884 68919
" />
<path d="M47415 70100
L46740 70100
" />
<path d="M47078 70100
L47078 68919
L46965 69087
L46853 69200
L46740 69256
" />
<path d="M48146 68919
L48259 68919
L48371 68975
L48428 69031
L48484 69144
L48540 69369
L48540 69650
L48484 69875
L48428 69987
L48371 70044
L48259 70100
L48146 70100
L48034 70044
L47978 69987
L47921 69875
L47865 69650
L47865 69369
L47921 69144
L47978 69031
L48034 68975
L48146 68919
" />
<path d="M49046 70100
L49046 69312
" />
<path d="M49046 69425
L49103 69369
L49215 69312
L49384 69312
L49496 69369
L49552 69481
L49552 70100
" />
<path d="M49552 69481
L49609 69369
L49721 69312
L49890 69312
L50002 69369
L50059 69481
L50059 70100
" />
<path d="M50621 70100
L50621 69312
" />
<path d="M50621 69425
L50677 69369
L50790 69312
L50959 69312
L51071 69369
L51127 69481
L51127 70100
" />
<path d="M51127 69481
L51184 69369
L51296 69312
L51465 69312
L51577 69369
L51633 69481
L51633 70100
" />
<path d="M53096 69312
L53096 70493
" />
<path d="M53096 69369
L53208 69312
L53433 69312
L53546 69369
L53602 69425
L53658 69537
L53658 69875
L53602 69987
L53546 70044
L53433 70100
L53208 70100
L53096 70044
" />
<path d="M54164 70100
L54164 69312
" />
<path d="M54164 68919
L54108 68975
L54164 69031
L54221 68975
L54164 68919
L54164 69031
" />
<path d="M54558 69312
L55008 69312
" />
<path d="M54727 68919
L54727 69931
L54783 70044
L54896 70100
L55008 70100
" />
<path d="M55908 70044
L55795 70100
L55570 70100
L55458 70044
L55402 69987
L55345 69875
L55345 69537
L55402 69425
L55458 69369
L55570 69312
L55795 69312
L55908 69369
" />
<path d="M56414 70100
L56414 68919
" />
<path d="M56920 70100
L56920 69481
L56864 69369
L56752 69312
L56583 69312
L56470 69369
L56414 69425
" />
<path d="M58383 70100
L58383 68919
" />
<path d="M58889 70100
L58889 69481
L58833 69369
L58720 69312
L58551 69312
L58439 69369
L58383 69425
" />
<path d="M59620 70100
L59507 70044
L59451 69987
L59395 69875
L59395 69537
L59451 69425
L59507 69369
L59620 69312
L59789 69312
L59901 69369
L59957 69425
L60014 69537
L60014 69875
L59957 69987
L59901 70044
L59789 70100
L59620 70100
" />
<path d="M60689 70100
L60576 70044
L60520 69931
L60520 68919
" />
<path d="M61588 70044
L61476 70100
L61251 70100
L61139 70044
L61082 69931
L61082 69481
L61139 69369
L61251 69312
L61476 69312
L61588 69369
L61645 69481
L61645 69594
L61082 69706
" />
<path d="M62095 70044
L62207 70100
L62432 70100
L62545 70044
L62601 69931
L62601 69875
L62545 69762
L62432 69706
L62263 69706
L62151 69650
L62095 69537
L62095 69481
L62151 69369
L62263 69312
L62432 69312
L62545 69369
" />
<path d="M64176 70100
L64063 70044
L64007 69987
L63951 69875
L63951 69537
L64007 69425
L64063 69369
L64176 69312
L64344 69312
L64457 69369
L64513 69425
L64569 69537
L64569 69875
L64513 69987
L64457 70044
L64344 70100
L64176 70100
" />
<path d="M65076 69312
L65076 70100
" />
<path d="M65076 69425
L65132 69369
L65244 69312
L65413 69312
L65525 69369
L65582 69481
L65582 70100
" />
<path d="M66988 70044
L67100 70100
L67325 70100
L67438 70044
L67494 69931
L67494 69875
L67438 69762
L67325 69706
L67157 69706
L67044 69650
L66988 69537
L66988 69481
L67044 69369
L67157 69312
L67325 69312
L67438 69369
" />
<path d="M68506 69312
L68506 70100
" />
<path d="M68000 69312
L68000 69931
L68056 70044
L68169 70100
L68338 70100
L68450 70044
L68506 69987
" />
<path d="M69069 70100
L69069 69312
" />
<path d="M69069 69537
L69125 69425
L69181 69369
L69294 69312
L69406 69312
" />
<path d="M69800 70100
L69800 69312
" />
<path d="M69800 69537
L69856 69425
L69912 69369
L70025 69312
L70137 69312
" />
<path d="M70700 70100
L70587 70044
L70531 69987
L70475 69875
L70475 69537
L70531 69425
L70587 69369
L70700 69312
L70869 69312
L70981 69369
L71037 69425
L71094 69537
L71094 69875
L71037 69987
L70981 70044
L70869 70100
L70700 70100
" />
<path d="M72106 69312
L72106 70100
" />
<path d="M71600 69312
L71600 69931
L71656 70044
L71768 70100
L71937 70100
L72050 70044
L72106 69987
" />
<path d="M72668 69312
L72668 70100
" />
<path d="M72668 69425
L72725 69369
L72837 69312
L73006 69312
L73118 69369
L73175 69481
L73175 70100
" />
<path d="M74243 70100
L74243 68919
" />
<path d="M74243 70044
L74131 70100
L73906 70100
L73793 70044
L73737 69987
L73681 69875
L73681 69537
L73737 69425
L73793 69369
L73906 69312
L74131 69312
L74243 69369
" />
<path d="M76662 70100
L76605 70100
L76493 70044
L76324 69875
L76043 69537
L75930 69369
L75874 69200
L75874 69087
L75930 68975
L76043 68919
L76099 68919
L76212 68975
L76268 69087
L76268 69144
L76212 69256
L76155 69312
L75818 69537
L75762 69594
L75705 69706
L75705 69875
L75762 69987
L75818 70044
L75930 70100
L76099 70100
L76212 70044
L76268 69987
L76437 69762
L76493 69594
L76493 69481
" />
<path d="M77955 69312
L78236 70100
L78518 69312
" />
<path d="M78968 69650
L79867 69650
" />
<path d="M80374 70044
L80486 70100
L80711 70100
L80824 70044
L80880 69931
L80880 69875
L80824 69762
L80711 69706
L80542 69706
L80430 69650
L80374 69537
L80374 69481
L80430 69369
L80542 69312
L80711 69312
L80824 69369
" />
<path d="M81892 70044
L81780 70100
L81555 70100
L81442 70044
L81386 69987
L81330 69875
L81330 69537
L81386 69425
L81442 69369
L81555 69312
L81780 69312
L81892 69369
" />
<path d="M82567 70100
L82455 70044
L82398 69987
L82342 69875
L82342 69537
L82398 69425
L82455 69369
L82567 69312
L82736 69312
L82848 69369
L82905 69425
L82961 69537
L82961 69875
L82905 69987
L82848 70044
L82736 70100
L82567 70100
" />
<path d="M83467 70100
L83467 69312
" />
<path d="M83467 69537
L83523 69425
L83579 69369
L83692 69312
L83804 69312
" />
<path d="M84648 70044
L84536 70100
L84311 70100
L84198 70044
L84142 69931
L84142 69481
L84198 69369
L84311 69312
L84536 69312
L84648 69369
L84704 69481
L84704 69594
L84142 69706
" />
</g>
<g style="fill:#000000; fill-opacity:0.0; 
stroke:#000000; stroke-width:157.48; stroke-opacity:1; 
stroke-linecap:round; stroke-linejoin:round;">
<path d="M96046 56929
L96046 17599
" />
</g>
<g style="fill:#000000; fill-opacity:0.0; 
stroke:#000000; stroke-width:2000; stroke-opacity:1; 
stroke-linecap:round; stroke-linejoin:round;">
<path d="M90941 16569
L90941 16569
" />
<path d="M87272 16569
L87272 16569
" />
<path d="M86961 57923
L86961 57923
" />
<path d="M83292 57923
L83292 57923
" />
<path d="M24041 57939
L24041 57939
" />
<path d="M20372 57939
L20372 57939
" />
<path d="M65051 57939
L65051 57939
" />
<path d="M61382 57939
L61382 57939
" />
<path d="M33681 16609
L33681 16609
" />
<path d="M30012 16609
L30012 16609
" />
<path d="M58401 16609
L58401 16609
" />
<path d="M54732 16609
L54732 16609
" />
</g>
<g style="fill:#000000; fill-opacity:0.0; 
stroke:#000000; stroke-width:23.622; stroke-opacity:1; 
stroke-linecap:round; stroke-linejoin:round;">
<path d="M85328 29121
L85340 29132
L85351 29166
L85351 29188
L85340 29222
L85317 29245
L85295 29256
L85250 29267
L85216 29267
L85171 29256
L85148 29245
L85126 29222
L85115 29188
L85115 29166
L85126 29132
L85137 29121
" />
<path d="M85115 28975
L85115 28930
L85126 28907
L85148 28885
L85193 28873
L85272 28873
L85317 28885
L85340 28907
L85351 28930
L85351 28975
L85340 28997
L85317 29020
L85272 29031
L85193 29031
L85148 29020
L85126 28997
L85115 28975
" />
<path d="M85351 28772
L85115 28772
L85351 28637
L85115 28637
" />
<path d="M85351 28401
L85351 28536
" />
<path d="M85351 28468
L85115 28468
L85148 28491
L85171 28513
L85182 28536
" />
</g> 
</svg>
