<?xml version="1.0" standalone="no"?>
 <!DOCTYPE svg PUBLIC "-//W3C//DTD SVG 1.1//EN" 
 "http://www.w3.org/Graphics/SVG/1.1/DTD/svg11.dtd"> 
<svg xmlns="http://www.w3.org/2000/svg" version="1.1" 
    width="29.7002cm" height="21.0007cm" viewBox="0 0 116930 82680 ">
<title>SVG Picture created as ThermocoupleLogger-B_SilkS.svg date 2019/03/14 17:00:52 </title>
  <desc>Picture generated by PCBNEW </desc>
<g style="fill:#000000; fill-opacity:1;stroke:#000000; stroke-opacity:1;
stroke-linecap:round; stroke-linejoin:round; "
 transform="translate(0 0) scale(1 1)">
</g>
<g style="fill:#000000; fill-opacity:0.0; 
stroke:#000000; stroke-width:-0.000787402; stroke-opacity:1; 
stroke-linecap:round; stroke-linejoin:round;">
</g>
<g style="fill:#000000; fill-opacity:0.0; 
stroke:#000000; stroke-width:157.48; stroke-opacity:1; 
stroke-linecap:round; stroke-linejoin:round;">
<path d="M96106 63369
L96106 58969
" />
<path d="M96106 63769
L96106 63369
" />
<path d="M17706 63369
L96106 63769
" />
<path d="M17306 58969
L17706 58969
" />
<path d="M17306 63369
L17706 63369
" />
<path d="M17306 58969
L17306 63369
" />
<path d="M83266 58929
L65026 58929
" />
<path d="M86996 58929
L96106 58945
" />
<path d="M86956 56929
L96046 56929
" />
<path d="M65026 56929
L83266 56929
" />
<path d="M61390 58939
L24030 58939
" />
<path d="M24036 56939
L61396 56939
" />
<path d="M20406 56949
L17306 56949
" />
<path d="M20376 58949
L17666 58949
" />
<path d="M20376.7 58949.9 A1000.2 1000.2 0.0 0 0 20399.3 56950.6 " />
<path d="M24046.7 56939.9 A1000 1000 0.0 0 0 24030.1 58939.8 " />
<path d="M61376.7 58939.9 A1000 1000 0.0 0 0 61398 56940.1 " />
<path d="M65026.7 56929.9 A1000.2 1000.2 0.0 1 0 65028.5 58929.9 " />
<path d="M83256.7 58929.9 A1000.2 1000.2 0.0 1 0 83276.7 56929.7 " />
<path d="M86947.5 56929.9 A1000.2 1000.2 0.0 0 0 86986.7 58929.9 " />
<path d="M90906.7 15569.9 A1000.8 1000.8 0.0 0 0 90946.7 17570.7 " />
<path d="M54686.7 17609.9 A1000.8 1000.8 0.0 1 0 54686.7 15609.9 " />
<path d="M17266 15589
L17266 15589
" />
<path d="M30026 15589
L17266 15589
" />
<path d="M17306 17639
L30036 17629
" />
<path d="M33686 17609
L54686 17609
" />
<path d="M54666 15609
L33706 15609
" />
<path d="M30026.7 17629.9 A1020 1020 0.0 0 0 30026.7 15589.9 " />
<path d="M33706.7 15609.9 A1000.2 1000.2 0.0 1 0 33686.7 17610.1 " />
<path d="M87286 17599
L58456 17599
" />
<path d="M58306 15619
L87316 15619
" />
<path d="M58386.7 15609.9 A990.202 990.202 0.0 0 0 58426.7 17589.9 " />
<path d="M90951 17582
L96051 17582
" />
<path d="M96006 15569
L96006 10369
" />
<path d="M96006 10369
L96006 15569
" />
<path d="M96006 15569
L96006 10369
" />
<path d="M90906 15569
L96006 15569
" />
<path d="M96006 15569
L90906 15569
" />
<path d="M96006 10369
L96006 15569
" />
<path d="M87286.7 17609.9 A996 996 0.0 0 0 87294.8 15618 " />
<path d="M17266 10349
L96046 10349
" />
<path d="M17266 15589
L17266 10349
" />
<path d="M17306 56949
L17306 17639
" />
<path d="M96046 56929
L96046 17599
" />
</g>
<g style="fill:#000000; fill-opacity:1.0; 
stroke:#000000; stroke-width:0; stroke-opacity:1; 
stroke-linecap:round; stroke-linejoin:round;">
<polyline style="fill-rule:evenodd;"
points="18164,32348
18164,32033
17849,32033
17849,32348
18164,32348
" /> 
<polyline style="fill-rule:evenodd;"
points="18479,32348
18479,32033
18164,32033
18164,32348
18479,32348
" /> 
<polyline style="fill-rule:evenodd;"
points="18794,32348
18794,32033
18479,32033
18479,32348
18794,32348
" /> 
<polyline style="fill-rule:evenodd;"
points="19109,32348
19109,32033
18794,32033
18794,32348
19109,32348
" /> 
<polyline style="fill-rule:evenodd;"
points="19424,32348
19424,32033
19109,32033
19109,32348
19424,32348
" /> 
<polyline style="fill-rule:evenodd;"
points="19739,32348
19739,32033
19424,32033
19424,32348
19739,32348
" /> 
<polyline style="fill-rule:evenodd;"
points="20054,32348
20054,32033
19739,32033
19739,32348
20054,32348
" /> 
<polyline style="fill-rule:evenodd;"
points="20999,32348
20999,32033
20684,32033
20684,32348
20999,32348
" /> 
<polyline style="fill-rule:evenodd;"
points="21629,32348
21629,32033
21314,32033
21314,32348
21629,32348
" /> 
<polyline style="fill-rule:evenodd;"
points="22574,32348
22574,32033
22259,32033
22259,32348
22574,32348
" /> 
<polyline style="fill-rule:evenodd;"
points="22889,32348
22889,32033
22574,32033
22574,32348
22889,32348
" /> 
<polyline style="fill-rule:evenodd;"
points="24779,32348
24779,32033
24464,32033
24464,32348
24779,32348
" /> 
<polyline style="fill-rule:evenodd;"
points="25093,32348
25093,32033
24779,32033
24779,32348
25093,32348
" /> 
<polyline style="fill-rule:evenodd;"
points="25723,32348
25723,32033
25408,32033
25408,32348
25723,32348
" /> 
<polyline style="fill-rule:evenodd;"
points="26353,32348
26353,32033
26038,32033
26038,32348
26353,32348
" /> 
<polyline style="fill-rule:evenodd;"
points="26668,32348
26668,32033
26353,32033
26353,32348
26668,32348
" /> 
<polyline style="fill-rule:evenodd;"
points="26983,32348
26983,32033
26668,32033
26668,32348
26983,32348
" /> 
<polyline style="fill-rule:evenodd;"
points="27298,32348
27298,32033
26983,32033
26983,32348
27298,32348
" /> 
<polyline style="fill-rule:evenodd;"
points="27613,32348
27613,32033
27298,32033
27298,32348
27613,32348
" /> 
<polyline style="fill-rule:evenodd;"
points="27928,32348
27928,32033
27613,32033
27613,32348
27928,32348
" /> 
<polyline style="fill-rule:evenodd;"
points="28243,32348
28243,32033
27928,32033
27928,32348
28243,32348
" /> 
<polyline style="fill-rule:evenodd;"
points="18164,32662
18164,32348
17849,32348
17849,32662
18164,32662
" /> 
<polyline style="fill-rule:evenodd;"
points="20054,32662
20054,32348
19739,32348
19739,32662
20054,32662
" /> 
<polyline style="fill-rule:evenodd;"
points="20999,32662
20999,32348
20684,32348
20684,32662
20999,32662
" /> 
<polyline style="fill-rule:evenodd;"
points="21314,32662
21314,32348
20999,32348
20999,32662
21314,32662
" /> 
<polyline style="fill-rule:evenodd;"
points="21944,32662
21944,32348
21629,32348
21629,32662
21944,32662
" /> 
<polyline style="fill-rule:evenodd;"
points="22889,32662
22889,32348
22574,32348
22574,32662
22889,32662
" /> 
<polyline style="fill-rule:evenodd;"
points="23204,32662
23204,32348
22889,32348
22889,32662
23204,32662
" /> 
<polyline style="fill-rule:evenodd;"
points="23834,32662
23834,32348
23519,32348
23519,32662
23834,32662
" /> 
<polyline style="fill-rule:evenodd;"
points="24464,32662
24464,32348
24149,32348
24149,32662
24464,32662
" /> 
<polyline style="fill-rule:evenodd;"
points="24779,32662
24779,32348
24464,32348
24464,32662
24779,32662
" /> 
<polyline style="fill-rule:evenodd;"
points="26353,32662
26353,32348
26038,32348
26038,32662
26353,32662
" /> 
<polyline style="fill-rule:evenodd;"
points="28243,32662
28243,32348
27928,32348
27928,32662
28243,32662
" /> 
<polyline style="fill-rule:evenodd;"
points="18164,32977
18164,32662
17849,32662
17849,32977
18164,32977
" /> 
<polyline style="fill-rule:evenodd;"
points="18794,32977
18794,32662
18479,32662
18479,32977
18794,32977
" /> 
<polyline style="fill-rule:evenodd;"
points="19109,32977
19109,32662
18794,32662
18794,32977
19109,32977
" /> 
<polyline style="fill-rule:evenodd;"
points="19424,32977
19424,32662
19109,32662
19109,32977
19424,32977
" /> 
<polyline style="fill-rule:evenodd;"
points="20054,32977
20054,32662
19739,32662
19739,32977
20054,32977
" /> 
<polyline style="fill-rule:evenodd;"
points="20684,32977
20684,32662
20369,32662
20369,32977
20684,32977
" /> 
<polyline style="fill-rule:evenodd;"
points="21629,32977
21629,32662
21314,32662
21314,32977
21629,32977
" /> 
<polyline style="fill-rule:evenodd;"
points="21944,32977
21944,32662
21629,32662
21629,32977
21944,32977
" /> 
<polyline style="fill-rule:evenodd;"
points="22574,32977
22574,32662
22259,32662
22259,32977
22574,32977
" /> 
<polyline style="fill-rule:evenodd;"
points="22889,32977
22889,32662
22574,32662
22574,32977
22889,32977
" /> 
<polyline style="fill-rule:evenodd;"
points="24779,32977
24779,32662
24464,32662
24464,32977
24779,32977
" /> 
<polyline style="fill-rule:evenodd;"
points="25093,32977
25093,32662
24779,32662
24779,32977
25093,32977
" /> 
<polyline style="fill-rule:evenodd;"
points="25723,32977
25723,32662
25408,32662
25408,32977
25723,32977
" /> 
<polyline style="fill-rule:evenodd;"
points="26353,32977
26353,32662
26038,32662
26038,32977
26353,32977
" /> 
<polyline style="fill-rule:evenodd;"
points="26983,32977
26983,32662
26668,32662
26668,32977
26983,32977
" /> 
<polyline style="fill-rule:evenodd;"
points="27298,32977
27298,32662
26983,32662
26983,32977
27298,32977
" /> 
<polyline style="fill-rule:evenodd;"
points="27613,32977
27613,32662
27298,32662
27298,32977
27613,32977
" /> 
<polyline style="fill-rule:evenodd;"
points="28243,32977
28243,32662
27928,32662
27928,32977
28243,32977
" /> 
<polyline style="fill-rule:evenodd;"
points="18164,33292
18164,32977
17849,32977
17849,33292
18164,33292
" /> 
<polyline style="fill-rule:evenodd;"
points="18794,33292
18794,32977
18479,32977
18479,33292
18794,33292
" /> 
<polyline style="fill-rule:evenodd;"
points="19109,33292
19109,32977
18794,32977
18794,33292
19109,33292
" /> 
<polyline style="fill-rule:evenodd;"
points="19424,33292
19424,32977
19109,32977
19109,33292
19424,33292
" /> 
<polyline style="fill-rule:evenodd;"
points="20054,33292
20054,32977
19739,32977
19739,33292
20054,33292
" /> 
<polyline style="fill-rule:evenodd;"
points="20684,33292
20684,32977
20369,32977
20369,33292
20684,33292
" /> 
<polyline style="fill-rule:evenodd;"
points="20999,33292
20999,32977
20684,32977
20684,33292
20999,33292
" /> 
<polyline style="fill-rule:evenodd;"
points="21629,33292
21629,32977
21314,32977
21314,33292
21629,33292
" /> 
<polyline style="fill-rule:evenodd;"
points="22889,33292
22889,32977
22574,32977
22574,33292
22889,33292
" /> 
<polyline style="fill-rule:evenodd;"
points="23834,33292
23834,32977
23519,32977
23519,33292
23834,33292
" /> 
<polyline style="fill-rule:evenodd;"
points="24779,33292
24779,32977
24464,32977
24464,33292
24779,33292
" /> 
<polyline style="fill-rule:evenodd;"
points="25723,33292
25723,32977
25408,32977
25408,33292
25723,33292
" /> 
<polyline style="fill-rule:evenodd;"
points="26353,33292
26353,32977
26038,32977
26038,33292
26353,33292
" /> 
<polyline style="fill-rule:evenodd;"
points="26983,33292
26983,32977
26668,32977
26668,33292
26983,33292
" /> 
<polyline style="fill-rule:evenodd;"
points="27298,33292
27298,32977
26983,32977
26983,33292
27298,33292
" /> 
<polyline style="fill-rule:evenodd;"
points="27613,33292
27613,32977
27298,32977
27298,33292
27613,33292
" /> 
<polyline style="fill-rule:evenodd;"
points="28243,33292
28243,32977
27928,32977
27928,33292
28243,33292
" /> 
<polyline style="fill-rule:evenodd;"
points="18164,33607
18164,33292
17849,33292
17849,33607
18164,33607
" /> 
<polyline style="fill-rule:evenodd;"
points="18794,33607
18794,33292
18479,33292
18479,33607
18794,33607
" /> 
<polyline style="fill-rule:evenodd;"
points="19109,33607
19109,33292
18794,33292
18794,33607
19109,33607
" /> 
<polyline style="fill-rule:evenodd;"
points="19424,33607
19424,33292
19109,33292
19109,33607
19424,33607
" /> 
<polyline style="fill-rule:evenodd;"
points="20054,33607
20054,33292
19739,33292
19739,33607
20054,33607
" /> 
<polyline style="fill-rule:evenodd;"
points="20684,33607
20684,33292
20369,33292
20369,33607
20684,33607
" /> 
<polyline style="fill-rule:evenodd;"
points="21629,33607
21629,33292
21314,33292
21314,33607
21629,33607
" /> 
<polyline style="fill-rule:evenodd;"
points="21944,33607
21944,33292
21629,33292
21629,33607
21944,33607
" /> 
<polyline style="fill-rule:evenodd;"
points="22259,33607
22259,33292
21944,33292
21944,33607
22259,33607
" /> 
<polyline style="fill-rule:evenodd;"
points="22574,33607
22574,33292
22259,33292
22259,33607
22574,33607
" /> 
<polyline style="fill-rule:evenodd;"
points="22889,33607
22889,33292
22574,33292
22574,33607
22889,33607
" /> 
<polyline style="fill-rule:evenodd;"
points="23204,33607
23204,33292
22889,33292
22889,33607
23204,33607
" /> 
<polyline style="fill-rule:evenodd;"
points="23519,33607
23519,33292
23204,33292
23204,33607
23519,33607
" /> 
<polyline style="fill-rule:evenodd;"
points="24464,33607
24464,33292
24149,33292
24149,33607
24464,33607
" /> 
<polyline style="fill-rule:evenodd;"
points="25093,33607
25093,33292
24779,33292
24779,33607
25093,33607
" /> 
<polyline style="fill-rule:evenodd;"
points="26353,33607
26353,33292
26038,33292
26038,33607
26353,33607
" /> 
<polyline style="fill-rule:evenodd;"
points="26983,33607
26983,33292
26668,33292
26668,33607
26983,33607
" /> 
<polyline style="fill-rule:evenodd;"
points="27298,33607
27298,33292
26983,33292
26983,33607
27298,33607
" /> 
<polyline style="fill-rule:evenodd;"
points="27613,33607
27613,33292
27298,33292
27298,33607
27613,33607
" /> 
<polyline style="fill-rule:evenodd;"
points="28243,33607
28243,33292
27928,33292
27928,33607
28243,33607
" /> 
<polyline style="fill-rule:evenodd;"
points="18164,33922
18164,33607
17849,33607
17849,33922
18164,33922
" /> 
<polyline style="fill-rule:evenodd;"
points="20054,33922
20054,33607
19739,33607
19739,33922
20054,33922
" /> 
<polyline style="fill-rule:evenodd;"
points="20684,33922
20684,33607
20369,33607
20369,33922
20684,33922
" /> 
<polyline style="fill-rule:evenodd;"
points="20999,33922
20999,33607
20684,33607
20684,33922
20999,33922
" /> 
<polyline style="fill-rule:evenodd;"
points="21314,33922
21314,33607
20999,33607
20999,33922
21314,33922
" /> 
<polyline style="fill-rule:evenodd;"
points="22259,33922
22259,33607
21944,33607
21944,33922
22259,33922
" /> 
<polyline style="fill-rule:evenodd;"
points="22574,33922
22574,33607
22259,33607
22259,33922
22574,33922
" /> 
<polyline style="fill-rule:evenodd;"
points="23519,33922
23519,33607
23204,33607
23204,33922
23519,33922
" /> 
<polyline style="fill-rule:evenodd;"
points="24149,33922
24149,33607
23834,33607
23834,33922
24149,33922
" /> 
<polyline style="fill-rule:evenodd;"
points="25093,33922
25093,33607
24779,33607
24779,33922
25093,33922
" /> 
<polyline style="fill-rule:evenodd;"
points="25408,33922
25408,33607
25093,33607
25093,33922
25408,33922
" /> 
<polyline style="fill-rule:evenodd;"
points="25723,33922
25723,33607
25408,33607
25408,33922
25723,33922
" /> 
<polyline style="fill-rule:evenodd;"
points="26353,33922
26353,33607
26038,33607
26038,33922
26353,33922
" /> 
<polyline style="fill-rule:evenodd;"
points="28243,33922
28243,33607
27928,33607
27928,33922
28243,33922
" /> 
<polyline style="fill-rule:evenodd;"
points="18164,34237
18164,33922
17849,33922
17849,34237
18164,34237
" /> 
<polyline style="fill-rule:evenodd;"
points="18479,34237
18479,33922
18164,33922
18164,34237
18479,34237
" /> 
<polyline style="fill-rule:evenodd;"
points="18794,34237
18794,33922
18479,33922
18479,34237
18794,34237
" /> 
<polyline style="fill-rule:evenodd;"
points="19109,34237
19109,33922
18794,33922
18794,34237
19109,34237
" /> 
<polyline style="fill-rule:evenodd;"
points="19424,34237
19424,33922
19109,33922
19109,34237
19424,34237
" /> 
<polyline style="fill-rule:evenodd;"
points="19739,34237
19739,33922
19424,33922
19424,34237
19739,34237
" /> 
<polyline style="fill-rule:evenodd;"
points="20054,34237
20054,33922
19739,33922
19739,34237
20054,34237
" /> 
<polyline style="fill-rule:evenodd;"
points="20684,34237
20684,33922
20369,33922
20369,34237
20684,34237
" /> 
<polyline style="fill-rule:evenodd;"
points="21314,34237
21314,33922
20999,33922
20999,34237
21314,34237
" /> 
<polyline style="fill-rule:evenodd;"
points="21944,34237
21944,33922
21629,33922
21629,34237
21944,34237
" /> 
<polyline style="fill-rule:evenodd;"
points="22574,34237
22574,33922
22259,33922
22259,34237
22574,34237
" /> 
<polyline style="fill-rule:evenodd;"
points="23204,34237
23204,33922
22889,33922
22889,34237
23204,34237
" /> 
<polyline style="fill-rule:evenodd;"
points="23834,34237
23834,33922
23519,33922
23519,34237
23834,34237
" /> 
<polyline style="fill-rule:evenodd;"
points="24464,34237
24464,33922
24149,33922
24149,34237
24464,34237
" /> 
<polyline style="fill-rule:evenodd;"
points="25093,34237
25093,33922
24779,33922
24779,34237
25093,34237
" /> 
<polyline style="fill-rule:evenodd;"
points="25723,34237
25723,33922
25408,33922
25408,34237
25723,34237
" /> 
<polyline style="fill-rule:evenodd;"
points="26353,34237
26353,33922
26038,33922
26038,34237
26353,34237
" /> 
<polyline style="fill-rule:evenodd;"
points="26668,34237
26668,33922
26353,33922
26353,34237
26668,34237
" /> 
<polyline style="fill-rule:evenodd;"
points="26983,34237
26983,33922
26668,33922
26668,34237
26983,34237
" /> 
<polyline style="fill-rule:evenodd;"
points="27298,34237
27298,33922
26983,33922
26983,34237
27298,34237
" /> 
<polyline style="fill-rule:evenodd;"
points="27613,34237
27613,33922
27298,33922
27298,34237
27613,34237
" /> 
<polyline style="fill-rule:evenodd;"
points="27928,34237
27928,33922
27613,33922
27613,34237
27928,34237
" /> 
<polyline style="fill-rule:evenodd;"
points="28243,34237
28243,33922
27928,33922
27928,34237
28243,34237
" /> 
<polyline style="fill-rule:evenodd;"
points="20684,34552
20684,34237
20369,34237
20369,34552
20684,34552
" /> 
<polyline style="fill-rule:evenodd;"
points="20999,34552
20999,34237
20684,34237
20684,34552
20999,34552
" /> 
<polyline style="fill-rule:evenodd;"
points="21314,34552
21314,34237
20999,34237
20999,34552
21314,34552
" /> 
<polyline style="fill-rule:evenodd;"
points="21629,34552
21629,34237
21314,34237
21314,34552
21629,34552
" /> 
<polyline style="fill-rule:evenodd;"
points="21944,34552
21944,34237
21629,34237
21629,34552
21944,34552
" /> 
<polyline style="fill-rule:evenodd;"
points="22259,34552
22259,34237
21944,34237
21944,34552
22259,34552
" /> 
<polyline style="fill-rule:evenodd;"
points="23204,34552
23204,34237
22889,34237
22889,34552
23204,34552
" /> 
<polyline style="fill-rule:evenodd;"
points="23519,34552
23519,34237
23204,34237
23204,34552
23519,34552
" /> 
<polyline style="fill-rule:evenodd;"
points="23834,34552
23834,34237
23519,34237
23519,34552
23834,34552
" /> 
<polyline style="fill-rule:evenodd;"
points="24149,34552
24149,34237
23834,34237
23834,34552
24149,34552
" /> 
<polyline style="fill-rule:evenodd;"
points="24464,34552
24464,34237
24149,34237
24149,34552
24464,34552
" /> 
<polyline style="fill-rule:evenodd;"
points="25408,34552
25408,34237
25093,34237
25093,34552
25408,34552
" /> 
<polyline style="fill-rule:evenodd;"
points="18164,34867
18164,34552
17849,34552
17849,34867
18164,34867
" /> 
<polyline style="fill-rule:evenodd;"
points="18794,34867
18794,34552
18479,34552
18479,34867
18794,34867
" /> 
<polyline style="fill-rule:evenodd;"
points="19109,34867
19109,34552
18794,34552
18794,34867
19109,34867
" /> 
<polyline style="fill-rule:evenodd;"
points="19424,34867
19424,34552
19109,34552
19109,34867
19424,34867
" /> 
<polyline style="fill-rule:evenodd;"
points="19739,34867
19739,34552
19424,34552
19424,34867
19739,34867
" /> 
<polyline style="fill-rule:evenodd;"
points="20054,34867
20054,34552
19739,34552
19739,34867
20054,34867
" /> 
<polyline style="fill-rule:evenodd;"
points="22574,34867
22574,34552
22259,34552
22259,34867
22574,34867
" /> 
<polyline style="fill-rule:evenodd;"
points="24149,34867
24149,34552
23834,34552
23834,34867
24149,34867
" /> 
<polyline style="fill-rule:evenodd;"
points="24779,34867
24779,34552
24464,34552
24464,34867
24779,34867
" /> 
<polyline style="fill-rule:evenodd;"
points="25093,34867
25093,34552
24779,34552
24779,34867
25093,34867
" /> 
<polyline style="fill-rule:evenodd;"
points="25408,34867
25408,34552
25093,34552
25093,34867
25408,34867
" /> 
<polyline style="fill-rule:evenodd;"
points="25723,34867
25723,34552
25408,34552
25408,34867
25723,34867
" /> 
<polyline style="fill-rule:evenodd;"
points="26353,34867
26353,34552
26038,34552
26038,34867
26353,34867
" /> 
<polyline style="fill-rule:evenodd;"
points="26668,34867
26668,34552
26353,34552
26353,34867
26668,34867
" /> 
<polyline style="fill-rule:evenodd;"
points="26983,34867
26983,34552
26668,34552
26668,34867
26983,34867
" /> 
<polyline style="fill-rule:evenodd;"
points="27298,34867
27298,34552
26983,34552
26983,34867
27298,34867
" /> 
<polyline style="fill-rule:evenodd;"
points="27613,34867
27613,34552
27298,34552
27298,34867
27613,34867
" /> 
<polyline style="fill-rule:evenodd;"
points="18479,35182
18479,34867
18164,34867
18164,35182
18479,35182
" /> 
<polyline style="fill-rule:evenodd;"
points="18794,35182
18794,34867
18479,34867
18479,35182
18794,35182
" /> 
<polyline style="fill-rule:evenodd;"
points="20369,35182
20369,34867
20054,34867
20054,35182
20369,35182
" /> 
<polyline style="fill-rule:evenodd;"
points="20684,35182
20684,34867
20369,34867
20369,35182
20684,35182
" /> 
<polyline style="fill-rule:evenodd;"
points="20999,35182
20999,34867
20684,34867
20684,35182
20999,35182
" /> 
<polyline style="fill-rule:evenodd;"
points="21944,35182
21944,34867
21629,34867
21629,35182
21944,35182
" /> 
<polyline style="fill-rule:evenodd;"
points="22259,35182
22259,34867
21944,34867
21944,35182
22259,35182
" /> 
<polyline style="fill-rule:evenodd;"
points="22889,35182
22889,34867
22574,34867
22574,35182
22889,35182
" /> 
<polyline style="fill-rule:evenodd;"
points="23204,35182
23204,34867
22889,34867
22889,35182
23204,35182
" /> 
<polyline style="fill-rule:evenodd;"
points="23519,35182
23519,34867
23204,34867
23204,35182
23519,35182
" /> 
<polyline style="fill-rule:evenodd;"
points="23834,35182
23834,34867
23519,34867
23519,35182
23834,35182
" /> 
<polyline style="fill-rule:evenodd;"
points="24464,35182
24464,34867
24149,34867
24149,35182
24464,35182
" /> 
<polyline style="fill-rule:evenodd;"
points="26038,35182
26038,34867
25723,34867
25723,35182
26038,35182
" /> 
<polyline style="fill-rule:evenodd;"
points="26668,35182
26668,34867
26353,34867
26353,35182
26668,35182
" /> 
<polyline style="fill-rule:evenodd;"
points="27298,35182
27298,34867
26983,34867
26983,35182
27298,35182
" /> 
<polyline style="fill-rule:evenodd;"
points="27613,35182
27613,34867
27298,34867
27298,35182
27613,35182
" /> 
<polyline style="fill-rule:evenodd;"
points="27928,35182
27928,34867
27613,34867
27613,35182
27928,35182
" /> 
<polyline style="fill-rule:evenodd;"
points="20054,35497
20054,35182
19739,35182
19739,35497
20054,35497
" /> 
<polyline style="fill-rule:evenodd;"
points="20684,35497
20684,35182
20369,35182
20369,35497
20684,35497
" /> 
<polyline style="fill-rule:evenodd;"
points="21314,35497
21314,35182
20999,35182
20999,35497
21314,35497
" /> 
<polyline style="fill-rule:evenodd;"
points="21944,35497
21944,35182
21629,35182
21629,35497
21944,35497
" /> 
<polyline style="fill-rule:evenodd;"
points="22259,35497
22259,35182
21944,35182
21944,35497
22259,35497
" /> 
<polyline style="fill-rule:evenodd;"
points="22574,35497
22574,35182
22259,35182
22259,35497
22574,35497
" /> 
<polyline style="fill-rule:evenodd;"
points="23519,35497
23519,35182
23204,35182
23204,35497
23519,35497
" /> 
<polyline style="fill-rule:evenodd;"
points="24149,35497
24149,35182
23834,35182
23834,35497
24149,35497
" /> 
<polyline style="fill-rule:evenodd;"
points="25093,35497
25093,35182
24779,35182
24779,35497
25093,35497
" /> 
<polyline style="fill-rule:evenodd;"
points="25408,35497
25408,35182
25093,35182
25093,35497
25408,35497
" /> 
<polyline style="fill-rule:evenodd;"
points="25723,35497
25723,35182
25408,35182
25408,35497
25723,35497
" /> 
<polyline style="fill-rule:evenodd;"
points="27613,35497
27613,35182
27298,35182
27298,35497
27613,35497
" /> 
<polyline style="fill-rule:evenodd;"
points="18164,35812
18164,35497
17849,35497
17849,35812
18164,35812
" /> 
<polyline style="fill-rule:evenodd;"
points="18794,35812
18794,35497
18479,35497
18479,35812
18794,35812
" /> 
<polyline style="fill-rule:evenodd;"
points="19109,35812
19109,35497
18794,35497
18794,35812
19109,35812
" /> 
<polyline style="fill-rule:evenodd;"
points="19739,35812
19739,35497
19424,35497
19424,35812
19739,35812
" /> 
<polyline style="fill-rule:evenodd;"
points="20684,35812
20684,35497
20369,35497
20369,35812
20684,35812
" /> 
<polyline style="fill-rule:evenodd;"
points="21314,35812
21314,35497
20999,35497
20999,35812
21314,35812
" /> 
<polyline style="fill-rule:evenodd;"
points="21944,35812
21944,35497
21629,35497
21629,35812
21944,35812
" /> 
<polyline style="fill-rule:evenodd;"
points="22259,35812
22259,35497
21944,35497
21944,35812
22259,35812
" /> 
<polyline style="fill-rule:evenodd;"
points="23204,35812
23204,35497
22889,35497
22889,35812
23204,35812
" /> 
<polyline style="fill-rule:evenodd;"
points="23519,35812
23519,35497
23204,35497
23204,35812
23519,35812
" /> 
<polyline style="fill-rule:evenodd;"
points="23834,35812
23834,35497
23519,35497
23519,35812
23834,35812
" /> 
<polyline style="fill-rule:evenodd;"
points="24149,35812
24149,35497
23834,35497
23834,35812
24149,35812
" /> 
<polyline style="fill-rule:evenodd;"
points="24464,35812
24464,35497
24149,35497
24149,35812
24464,35812
" /> 
<polyline style="fill-rule:evenodd;"
points="25408,35812
25408,35497
25093,35497
25093,35812
25408,35812
" /> 
<polyline style="fill-rule:evenodd;"
points="26038,35812
26038,35497
25723,35497
25723,35812
26038,35812
" /> 
<polyline style="fill-rule:evenodd;"
points="26668,35812
26668,35497
26353,35497
26353,35812
26668,35812
" /> 
<polyline style="fill-rule:evenodd;"
points="27298,35812
27298,35497
26983,35497
26983,35812
27298,35812
" /> 
<polyline style="fill-rule:evenodd;"
points="27613,35812
27613,35497
27298,35497
27298,35812
27613,35812
" /> 
<polyline style="fill-rule:evenodd;"
points="27928,35812
27928,35497
27613,35497
27613,35812
27928,35812
" /> 
<polyline style="fill-rule:evenodd;"
points="18164,36127
18164,35812
17849,35812
17849,36127
18164,36127
" /> 
<polyline style="fill-rule:evenodd;"
points="18479,36127
18479,35812
18164,35812
18164,36127
18479,36127
" /> 
<polyline style="fill-rule:evenodd;"
points="19739,36127
19739,35812
19424,35812
19424,36127
19739,36127
" /> 
<polyline style="fill-rule:evenodd;"
points="20054,36127
20054,35812
19739,35812
19739,36127
20054,36127
" /> 
<polyline style="fill-rule:evenodd;"
points="20999,36127
20999,35812
20684,35812
20684,36127
20999,36127
" /> 
<polyline style="fill-rule:evenodd;"
points="22574,36127
22574,35812
22259,35812
22259,36127
22574,36127
" /> 
<polyline style="fill-rule:evenodd;"
points="23204,36127
23204,35812
22889,35812
22889,36127
23204,36127
" /> 
<polyline style="fill-rule:evenodd;"
points="24149,36127
24149,35812
23834,35812
23834,36127
24149,36127
" /> 
<polyline style="fill-rule:evenodd;"
points="24464,36127
24464,35812
24149,35812
24149,36127
24464,36127
" /> 
<polyline style="fill-rule:evenodd;"
points="24779,36127
24779,35812
24464,35812
24464,36127
24779,36127
" /> 
<polyline style="fill-rule:evenodd;"
points="25093,36127
25093,35812
24779,35812
24779,36127
25093,36127
" /> 
<polyline style="fill-rule:evenodd;"
points="25408,36127
25408,35812
25093,35812
25093,36127
25408,36127
" /> 
<polyline style="fill-rule:evenodd;"
points="26668,36127
26668,35812
26353,35812
26353,36127
26668,36127
" /> 
<polyline style="fill-rule:evenodd;"
points="19424,36442
19424,36127
19109,36127
19109,36442
19424,36442
" /> 
<polyline style="fill-rule:evenodd;"
points="19739,36442
19739,36127
19424,36127
19424,36442
19739,36442
" /> 
<polyline style="fill-rule:evenodd;"
points="20684,36442
20684,36127
20369,36127
20369,36442
20684,36442
" /> 
<polyline style="fill-rule:evenodd;"
points="21944,36442
21944,36127
21629,36127
21629,36442
21944,36442
" /> 
<polyline style="fill-rule:evenodd;"
points="22259,36442
22259,36127
21944,36127
21944,36442
22259,36442
" /> 
<polyline style="fill-rule:evenodd;"
points="22889,36442
22889,36127
22574,36127
22574,36442
22889,36442
" /> 
<polyline style="fill-rule:evenodd;"
points="23834,36442
23834,36127
23519,36127
23519,36442
23834,36442
" /> 
<polyline style="fill-rule:evenodd;"
points="24779,36442
24779,36127
24464,36127
24464,36442
24779,36442
" /> 
<polyline style="fill-rule:evenodd;"
points="25723,36442
25723,36127
25408,36127
25408,36442
25723,36442
" /> 
<polyline style="fill-rule:evenodd;"
points="26038,36442
26038,36127
25723,36127
25723,36442
26038,36442
" /> 
<polyline style="fill-rule:evenodd;"
points="26983,36442
26983,36127
26668,36127
26668,36442
26983,36442
" /> 
<polyline style="fill-rule:evenodd;"
points="27298,36442
27298,36127
26983,36127
26983,36442
27298,36442
" /> 
<polyline style="fill-rule:evenodd;"
points="28243,36442
28243,36127
27928,36127
27928,36442
28243,36442
" /> 
<polyline style="fill-rule:evenodd;"
points="18479,36757
18479,36442
18164,36442
18164,36757
18479,36757
" /> 
<polyline style="fill-rule:evenodd;"
points="19109,36757
19109,36442
18794,36442
18794,36757
19109,36757
" /> 
<polyline style="fill-rule:evenodd;"
points="19424,36757
19424,36442
19109,36442
19109,36757
19424,36757
" /> 
<polyline style="fill-rule:evenodd;"
points="20054,36757
20054,36442
19739,36442
19739,36757
20054,36757
" /> 
<polyline style="fill-rule:evenodd;"
points="20369,36757
20369,36442
20054,36442
20054,36757
20369,36757
" /> 
<polyline style="fill-rule:evenodd;"
points="20684,36757
20684,36442
20369,36442
20369,36757
20684,36757
" /> 
<polyline style="fill-rule:evenodd;"
points="20999,36757
20999,36442
20684,36442
20684,36757
20999,36757
" /> 
<polyline style="fill-rule:evenodd;"
points="21314,36757
21314,36442
20999,36442
20999,36757
21314,36757
" /> 
<polyline style="fill-rule:evenodd;"
points="21629,36757
21629,36442
21314,36442
21314,36757
21629,36757
" /> 
<polyline style="fill-rule:evenodd;"
points="22259,36757
22259,36442
21944,36442
21944,36757
22259,36757
" /> 
<polyline style="fill-rule:evenodd;"
points="22574,36757
22574,36442
22259,36442
22259,36757
22574,36757
" /> 
<polyline style="fill-rule:evenodd;"
points="22889,36757
22889,36442
22574,36442
22574,36757
22889,36757
" /> 
<polyline style="fill-rule:evenodd;"
points="23204,36757
23204,36442
22889,36442
22889,36757
23204,36757
" /> 
<polyline style="fill-rule:evenodd;"
points="23834,36757
23834,36442
23519,36442
23519,36757
23834,36757
" /> 
<polyline style="fill-rule:evenodd;"
points="24464,36757
24464,36442
24149,36442
24149,36757
24464,36757
" /> 
<polyline style="fill-rule:evenodd;"
points="24779,36757
24779,36442
24464,36442
24464,36757
24779,36757
" /> 
<polyline style="fill-rule:evenodd;"
points="26038,36757
26038,36442
25723,36442
25723,36757
26038,36757
" /> 
<polyline style="fill-rule:evenodd;"
points="26353,36757
26353,36442
26038,36442
26038,36757
26353,36757
" /> 
<polyline style="fill-rule:evenodd;"
points="26668,36757
26668,36442
26353,36442
26353,36757
26668,36757
" /> 
<polyline style="fill-rule:evenodd;"
points="26983,36757
26983,36442
26668,36442
26668,36757
26983,36757
" /> 
<polyline style="fill-rule:evenodd;"
points="27928,36757
27928,36442
27613,36442
27613,36757
27928,36757
" /> 
<polyline style="fill-rule:evenodd;"
points="18164,37072
18164,36757
17849,36757
17849,37072
18164,37072
" /> 
<polyline style="fill-rule:evenodd;"
points="18794,37072
18794,36757
18479,36757
18479,37072
18794,37072
" /> 
<polyline style="fill-rule:evenodd;"
points="19109,37072
19109,36757
18794,36757
18794,37072
19109,37072
" /> 
<polyline style="fill-rule:evenodd;"
points="19739,37072
19739,36757
19424,36757
19424,37072
19739,37072
" /> 
<polyline style="fill-rule:evenodd;"
points="20369,37072
20369,36757
20054,36757
20054,37072
20369,37072
" /> 
<polyline style="fill-rule:evenodd;"
points="20684,37072
20684,36757
20369,36757
20369,37072
20684,37072
" /> 
<polyline style="fill-rule:evenodd;"
points="21314,37072
21314,36757
20999,36757
20999,37072
21314,37072
" /> 
<polyline style="fill-rule:evenodd;"
points="21629,37072
21629,36757
21314,36757
21314,37072
21629,37072
" /> 
<polyline style="fill-rule:evenodd;"
points="22259,37072
22259,36757
21944,36757
21944,37072
22259,37072
" /> 
<polyline style="fill-rule:evenodd;"
points="22574,37072
22574,36757
22259,36757
22259,37072
22574,37072
" /> 
<polyline style="fill-rule:evenodd;"
points="22889,37072
22889,36757
22574,36757
22574,37072
22889,37072
" /> 
<polyline style="fill-rule:evenodd;"
points="24779,37072
24779,36757
24464,36757
24464,37072
24779,37072
" /> 
<polyline style="fill-rule:evenodd;"
points="25093,37072
25093,36757
24779,36757
24779,37072
25093,37072
" /> 
<polyline style="fill-rule:evenodd;"
points="25723,37072
25723,36757
25408,36757
25408,37072
25723,37072
" /> 
<polyline style="fill-rule:evenodd;"
points="26353,37072
26353,36757
26038,36757
26038,37072
26353,37072
" /> 
<polyline style="fill-rule:evenodd;"
points="26983,37072
26983,36757
26668,36757
26668,37072
26983,37072
" /> 
<polyline style="fill-rule:evenodd;"
points="27298,37072
27298,36757
26983,36757
26983,37072
27298,37072
" /> 
<polyline style="fill-rule:evenodd;"
points="28243,37072
28243,36757
27928,36757
27928,37072
28243,37072
" /> 
<polyline style="fill-rule:evenodd;"
points="19109,37387
19109,37072
18794,37072
18794,37387
19109,37387
" /> 
<polyline style="fill-rule:evenodd;"
points="19424,37387
19424,37072
19109,37072
19109,37387
19424,37387
" /> 
<polyline style="fill-rule:evenodd;"
points="19739,37387
19739,37072
19424,37072
19424,37387
19739,37387
" /> 
<polyline style="fill-rule:evenodd;"
points="20054,37387
20054,37072
19739,37072
19739,37387
20054,37387
" /> 
<polyline style="fill-rule:evenodd;"
points="20684,37387
20684,37072
20369,37072
20369,37387
20684,37387
" /> 
<polyline style="fill-rule:evenodd;"
points="20999,37387
20999,37072
20684,37072
20684,37387
20999,37387
" /> 
<polyline style="fill-rule:evenodd;"
points="21629,37387
21629,37072
21314,37072
21314,37387
21629,37387
" /> 
<polyline style="fill-rule:evenodd;"
points="22574,37387
22574,37072
22259,37072
22259,37387
22574,37387
" /> 
<polyline style="fill-rule:evenodd;"
points="22889,37387
22889,37072
22574,37072
22574,37387
22889,37387
" /> 
<polyline style="fill-rule:evenodd;"
points="23204,37387
23204,37072
22889,37072
22889,37387
23204,37387
" /> 
<polyline style="fill-rule:evenodd;"
points="23834,37387
23834,37072
23519,37072
23519,37387
23834,37387
" /> 
<polyline style="fill-rule:evenodd;"
points="24464,37387
24464,37072
24149,37072
24149,37387
24464,37387
" /> 
<polyline style="fill-rule:evenodd;"
points="24779,37387
24779,37072
24464,37072
24464,37387
24779,37387
" /> 
<polyline style="fill-rule:evenodd;"
points="26038,37387
26038,37072
25723,37072
25723,37387
26038,37387
" /> 
<polyline style="fill-rule:evenodd;"
points="26353,37387
26353,37072
26038,37072
26038,37387
26353,37387
" /> 
<polyline style="fill-rule:evenodd;"
points="26668,37387
26668,37072
26353,37072
26353,37387
26668,37387
" /> 
<polyline style="fill-rule:evenodd;"
points="27613,37387
27613,37072
27298,37072
27298,37387
27613,37387
" /> 
<polyline style="fill-rule:evenodd;"
points="27928,37387
27928,37072
27613,37072
27613,37387
27928,37387
" /> 
<polyline style="fill-rule:evenodd;"
points="18164,37702
18164,37387
17849,37387
17849,37702
18164,37702
" /> 
<polyline style="fill-rule:evenodd;"
points="18794,37702
18794,37387
18479,37387
18479,37702
18794,37702
" /> 
<polyline style="fill-rule:evenodd;"
points="19109,37702
19109,37387
18794,37387
18794,37702
19109,37702
" /> 
<polyline style="fill-rule:evenodd;"
points="20684,37702
20684,37387
20369,37387
20369,37702
20684,37702
" /> 
<polyline style="fill-rule:evenodd;"
points="20999,37702
20999,37387
20684,37387
20684,37702
20999,37702
" /> 
<polyline style="fill-rule:evenodd;"
points="21314,37702
21314,37387
20999,37387
20999,37702
21314,37702
" /> 
<polyline style="fill-rule:evenodd;"
points="22889,37702
22889,37387
22574,37387
22574,37702
22889,37702
" /> 
<polyline style="fill-rule:evenodd;"
points="24779,37702
24779,37387
24464,37387
24464,37702
24779,37702
" /> 
<polyline style="fill-rule:evenodd;"
points="25093,37702
25093,37387
24779,37387
24779,37702
25093,37702
" /> 
<polyline style="fill-rule:evenodd;"
points="25723,37702
25723,37387
25408,37387
25408,37702
25723,37702
" /> 
<polyline style="fill-rule:evenodd;"
points="26983,37702
26983,37387
26668,37387
26668,37702
26983,37702
" /> 
<polyline style="fill-rule:evenodd;"
points="27298,37702
27298,37387
26983,37387
26983,37702
27298,37702
" /> 
<polyline style="fill-rule:evenodd;"
points="27613,37702
27613,37387
27298,37387
27298,37702
27613,37702
" /> 
<polyline style="fill-rule:evenodd;"
points="18164,38017
18164,37702
17849,37702
17849,38017
18164,38017
" /> 
<polyline style="fill-rule:evenodd;"
points="18479,38017
18479,37702
18164,37702
18164,38017
18479,38017
" /> 
<polyline style="fill-rule:evenodd;"
points="18794,38017
18794,37702
18479,37702
18479,38017
18794,38017
" /> 
<polyline style="fill-rule:evenodd;"
points="19424,38017
19424,37702
19109,37702
19109,38017
19424,38017
" /> 
<polyline style="fill-rule:evenodd;"
points="19739,38017
19739,37702
19424,37702
19424,38017
19739,38017
" /> 
<polyline style="fill-rule:evenodd;"
points="20054,38017
20054,37702
19739,37702
19739,38017
20054,38017
" /> 
<polyline style="fill-rule:evenodd;"
points="20369,38017
20369,37702
20054,37702
20054,38017
20369,38017
" /> 
<polyline style="fill-rule:evenodd;"
points="21314,38017
21314,37702
20999,37702
20999,38017
21314,38017
" /> 
<polyline style="fill-rule:evenodd;"
points="21944,38017
21944,37702
21629,37702
21629,38017
21944,38017
" /> 
<polyline style="fill-rule:evenodd;"
points="22259,38017
22259,37702
21944,37702
21944,38017
22259,38017
" /> 
<polyline style="fill-rule:evenodd;"
points="22574,38017
22574,37702
22259,37702
22259,38017
22574,38017
" /> 
<polyline style="fill-rule:evenodd;"
points="22889,38017
22889,37702
22574,37702
22574,38017
22889,38017
" /> 
<polyline style="fill-rule:evenodd;"
points="23204,38017
23204,37702
22889,37702
22889,38017
23204,38017
" /> 
<polyline style="fill-rule:evenodd;"
points="23834,38017
23834,37702
23519,37702
23519,38017
23834,38017
" /> 
<polyline style="fill-rule:evenodd;"
points="24464,38017
24464,37702
24149,37702
24149,38017
24464,38017
" /> 
<polyline style="fill-rule:evenodd;"
points="24779,38017
24779,37702
24464,37702
24464,38017
24779,38017
" /> 
<polyline style="fill-rule:evenodd;"
points="26038,38017
26038,37702
25723,37702
25723,38017
26038,38017
" /> 
<polyline style="fill-rule:evenodd;"
points="26353,38017
26353,37702
26038,37702
26038,38017
26353,38017
" /> 
<polyline style="fill-rule:evenodd;"
points="26668,38017
26668,37702
26353,37702
26353,38017
26668,38017
" /> 
<polyline style="fill-rule:evenodd;"
points="26983,38017
26983,37702
26668,37702
26668,38017
26983,38017
" /> 
<polyline style="fill-rule:evenodd;"
points="27298,38017
27298,37702
26983,37702
26983,38017
27298,38017
" /> 
<polyline style="fill-rule:evenodd;"
points="27613,38017
27613,37702
27298,37702
27298,38017
27613,38017
" /> 
<polyline style="fill-rule:evenodd;"
points="27928,38017
27928,37702
27613,37702
27613,38017
27928,38017
" /> 
<polyline style="fill-rule:evenodd;"
points="28243,38017
28243,37702
27928,37702
27928,38017
28243,38017
" /> 
<polyline style="fill-rule:evenodd;"
points="18479,38332
18479,38017
18164,38017
18164,38332
18479,38332
" /> 
<polyline style="fill-rule:evenodd;"
points="19109,38332
19109,38017
18794,38017
18794,38332
19109,38332
" /> 
<polyline style="fill-rule:evenodd;"
points="19739,38332
19739,38017
19424,38017
19424,38332
19739,38332
" /> 
<polyline style="fill-rule:evenodd;"
points="20684,38332
20684,38017
20369,38017
20369,38332
20684,38332
" /> 
<polyline style="fill-rule:evenodd;"
points="21314,38332
21314,38017
20999,38017
20999,38332
21314,38332
" /> 
<polyline style="fill-rule:evenodd;"
points="21629,38332
21629,38017
21314,38017
21314,38332
21629,38332
" /> 
<polyline style="fill-rule:evenodd;"
points="21944,38332
21944,38017
21629,38017
21629,38332
21944,38332
" /> 
<polyline style="fill-rule:evenodd;"
points="22574,38332
22574,38017
22259,38017
22259,38332
22574,38332
" /> 
<polyline style="fill-rule:evenodd;"
points="22889,38332
22889,38017
22574,38017
22574,38332
22889,38332
" /> 
<polyline style="fill-rule:evenodd;"
points="24779,38332
24779,38017
24464,38017
24464,38332
24779,38332
" /> 
<polyline style="fill-rule:evenodd;"
points="25093,38332
25093,38017
24779,38017
24779,38332
25093,38332
" /> 
<polyline style="fill-rule:evenodd;"
points="25723,38332
25723,38017
25408,38017
25408,38332
25723,38332
" /> 
<polyline style="fill-rule:evenodd;"
points="26353,38332
26353,38017
26038,38017
26038,38332
26353,38332
" /> 
<polyline style="fill-rule:evenodd;"
points="26983,38332
26983,38017
26668,38017
26668,38332
26983,38332
" /> 
<polyline style="fill-rule:evenodd;"
points="27613,38332
27613,38017
27298,38017
27298,38332
27613,38332
" /> 
<polyline style="fill-rule:evenodd;"
points="28243,38332
28243,38017
27928,38017
27928,38332
28243,38332
" /> 
<polyline style="fill-rule:evenodd;"
points="19424,38647
19424,38332
19109,38332
19109,38647
19424,38647
" /> 
<polyline style="fill-rule:evenodd;"
points="20054,38647
20054,38332
19739,38332
19739,38647
20054,38647
" /> 
<polyline style="fill-rule:evenodd;"
points="20684,38647
20684,38332
20369,38332
20369,38647
20684,38647
" /> 
<polyline style="fill-rule:evenodd;"
points="21314,38647
21314,38332
20999,38332
20999,38647
21314,38647
" /> 
<polyline style="fill-rule:evenodd;"
points="22889,38647
22889,38332
22574,38332
22574,38647
22889,38647
" /> 
<polyline style="fill-rule:evenodd;"
points="23834,38647
23834,38332
23519,38332
23519,38647
23834,38647
" /> 
<polyline style="fill-rule:evenodd;"
points="24779,38647
24779,38332
24464,38332
24464,38647
24779,38647
" /> 
<polyline style="fill-rule:evenodd;"
points="25723,38647
25723,38332
25408,38332
25408,38647
25723,38647
" /> 
<polyline style="fill-rule:evenodd;"
points="26038,38647
26038,38332
25723,38332
25723,38647
26038,38647
" /> 
<polyline style="fill-rule:evenodd;"
points="26353,38647
26353,38332
26038,38332
26038,38647
26353,38647
" /> 
<polyline style="fill-rule:evenodd;"
points="27298,38647
27298,38332
26983,38332
26983,38647
27298,38647
" /> 
<polyline style="fill-rule:evenodd;"
points="27928,38647
27928,38332
27613,38332
27613,38647
27928,38647
" /> 
<polyline style="fill-rule:evenodd;"
points="28243,38647
28243,38332
27928,38332
27928,38647
28243,38647
" /> 
<polyline style="fill-rule:evenodd;"
points="18164,38962
18164,38647
17849,38647
17849,38962
18164,38962
" /> 
<polyline style="fill-rule:evenodd;"
points="18794,38962
18794,38647
18479,38647
18479,38962
18794,38962
" /> 
<polyline style="fill-rule:evenodd;"
points="19109,38962
19109,38647
18794,38647
18794,38962
19109,38962
" /> 
<polyline style="fill-rule:evenodd;"
points="19739,38962
19739,38647
19424,38647
19424,38962
19739,38962
" /> 
<polyline style="fill-rule:evenodd;"
points="20369,38962
20369,38647
20054,38647
20054,38962
20369,38962
" /> 
<polyline style="fill-rule:evenodd;"
points="20999,38962
20999,38647
20684,38647
20684,38962
20999,38962
" /> 
<polyline style="fill-rule:evenodd;"
points="22889,38962
22889,38647
22574,38647
22574,38962
22889,38962
" /> 
<polyline style="fill-rule:evenodd;"
points="23204,38962
23204,38647
22889,38647
22889,38962
23204,38962
" /> 
<polyline style="fill-rule:evenodd;"
points="23519,38962
23519,38647
23204,38647
23204,38962
23519,38962
" /> 
<polyline style="fill-rule:evenodd;"
points="24464,38962
24464,38647
24149,38647
24149,38962
24464,38962
" /> 
<polyline style="fill-rule:evenodd;"
points="25093,38962
25093,38647
24779,38647
24779,38962
25093,38962
" /> 
<polyline style="fill-rule:evenodd;"
points="26668,38962
26668,38647
26353,38647
26353,38962
26668,38962
" /> 
<polyline style="fill-rule:evenodd;"
points="27613,38962
27613,38647
27298,38647
27298,38962
27613,38962
" /> 
<polyline style="fill-rule:evenodd;"
points="27928,38962
27928,38647
27613,38647
27613,38962
27928,38962
" /> 
<polyline style="fill-rule:evenodd;"
points="28243,38962
28243,38647
27928,38647
27928,38962
28243,38962
" /> 
<polyline style="fill-rule:evenodd;"
points="18164,39277
18164,38962
17849,38962
17849,39277
18164,39277
" /> 
<polyline style="fill-rule:evenodd;"
points="19424,39277
19424,38962
19109,38962
19109,39277
19424,39277
" /> 
<polyline style="fill-rule:evenodd;"
points="20054,39277
20054,38962
19739,38962
19739,39277
20054,39277
" /> 
<polyline style="fill-rule:evenodd;"
points="21314,39277
21314,38962
20999,38962
20999,39277
21314,39277
" /> 
<polyline style="fill-rule:evenodd;"
points="21629,39277
21629,38962
21314,38962
21314,39277
21629,39277
" /> 
<polyline style="fill-rule:evenodd;"
points="22259,39277
22259,38962
21944,38962
21944,39277
22259,39277
" /> 
<polyline style="fill-rule:evenodd;"
points="23519,39277
23519,38962
23204,38962
23204,39277
23519,39277
" /> 
<polyline style="fill-rule:evenodd;"
points="24149,39277
24149,38962
23834,38962
23834,39277
24149,39277
" /> 
<polyline style="fill-rule:evenodd;"
points="25093,39277
25093,38962
24779,38962
24779,39277
25093,39277
" /> 
<polyline style="fill-rule:evenodd;"
points="25408,39277
25408,38962
25093,38962
25093,39277
25408,39277
" /> 
<polyline style="fill-rule:evenodd;"
points="25723,39277
25723,38962
25408,38962
25408,39277
25723,39277
" /> 
<polyline style="fill-rule:evenodd;"
points="27298,39277
27298,38962
26983,38962
26983,39277
27298,39277
" /> 
<polyline style="fill-rule:evenodd;"
points="27613,39277
27613,38962
27298,38962
27298,39277
27613,39277
" /> 
<polyline style="fill-rule:evenodd;"
points="18164,39592
18164,39277
17849,39277
17849,39592
18164,39592
" /> 
<polyline style="fill-rule:evenodd;"
points="19109,39592
19109,39277
18794,39277
18794,39592
19109,39592
" /> 
<polyline style="fill-rule:evenodd;"
points="19424,39592
19424,39277
19109,39277
19109,39592
19424,39592
" /> 
<polyline style="fill-rule:evenodd;"
points="20369,39592
20369,39277
20054,39277
20054,39592
20369,39592
" /> 
<polyline style="fill-rule:evenodd;"
points="20999,39592
20999,39277
20684,39277
20684,39592
20999,39592
" /> 
<polyline style="fill-rule:evenodd;"
points="21629,39592
21629,39277
21314,39277
21314,39592
21629,39592
" /> 
<polyline style="fill-rule:evenodd;"
points="21944,39592
21944,39277
21629,39277
21629,39592
21944,39592
" /> 
<polyline style="fill-rule:evenodd;"
points="22259,39592
22259,39277
21944,39277
21944,39592
22259,39592
" /> 
<polyline style="fill-rule:evenodd;"
points="22574,39592
22574,39277
22259,39277
22259,39592
22574,39592
" /> 
<polyline style="fill-rule:evenodd;"
points="23204,39592
23204,39277
22889,39277
22889,39592
23204,39592
" /> 
<polyline style="fill-rule:evenodd;"
points="23519,39592
23519,39277
23204,39277
23204,39592
23519,39592
" /> 
<polyline style="fill-rule:evenodd;"
points="23834,39592
23834,39277
23519,39277
23519,39592
23834,39592
" /> 
<polyline style="fill-rule:evenodd;"
points="24149,39592
24149,39277
23834,39277
23834,39592
24149,39592
" /> 
<polyline style="fill-rule:evenodd;"
points="24464,39592
24464,39277
24149,39277
24149,39592
24464,39592
" /> 
<polyline style="fill-rule:evenodd;"
points="25408,39592
25408,39277
25093,39277
25093,39592
25408,39592
" /> 
<polyline style="fill-rule:evenodd;"
points="26038,39592
26038,39277
25723,39277
25723,39592
26038,39592
" /> 
<polyline style="fill-rule:evenodd;"
points="26668,39592
26668,39277
26353,39277
26353,39592
26668,39592
" /> 
<polyline style="fill-rule:evenodd;"
points="27613,39592
27613,39277
27298,39277
27298,39592
27613,39592
" /> 
<polyline style="fill-rule:evenodd;"
points="27928,39592
27928,39277
27613,39277
27613,39592
27928,39592
" /> 
<polyline style="fill-rule:evenodd;"
points="18164,39907
18164,39592
17849,39592
17849,39907
18164,39907
" /> 
<polyline style="fill-rule:evenodd;"
points="19109,39907
19109,39592
18794,39592
18794,39907
19109,39907
" /> 
<polyline style="fill-rule:evenodd;"
points="19739,39907
19739,39592
19424,39592
19424,39907
19739,39907
" /> 
<polyline style="fill-rule:evenodd;"
points="20054,39907
20054,39592
19739,39592
19739,39907
20054,39907
" /> 
<polyline style="fill-rule:evenodd;"
points="20369,39907
20369,39592
20054,39592
20054,39907
20369,39907
" /> 
<polyline style="fill-rule:evenodd;"
points="20684,39907
20684,39592
20369,39592
20369,39907
20684,39907
" /> 
<polyline style="fill-rule:evenodd;"
points="21944,39907
21944,39592
21629,39592
21629,39907
21944,39907
" /> 
<polyline style="fill-rule:evenodd;"
points="22259,39907
22259,39592
21944,39592
21944,39907
22259,39907
" /> 
<polyline style="fill-rule:evenodd;"
points="22574,39907
22574,39592
22259,39592
22259,39907
22574,39907
" /> 
<polyline style="fill-rule:evenodd;"
points="24149,39907
24149,39592
23834,39592
23834,39907
24149,39907
" /> 
<polyline style="fill-rule:evenodd;"
points="24779,39907
24779,39592
24464,39592
24464,39907
24779,39907
" /> 
<polyline style="fill-rule:evenodd;"
points="25093,39907
25093,39592
24779,39592
24779,39907
25093,39907
" /> 
<polyline style="fill-rule:evenodd;"
points="25408,39907
25408,39592
25093,39592
25093,39907
25408,39907
" /> 
<polyline style="fill-rule:evenodd;"
points="25723,39907
25723,39592
25408,39592
25408,39907
25723,39907
" /> 
<polyline style="fill-rule:evenodd;"
points="26038,39907
26038,39592
25723,39592
25723,39907
26038,39907
" /> 
<polyline style="fill-rule:evenodd;"
points="26353,39907
26353,39592
26038,39592
26038,39907
26353,39907
" /> 
<polyline style="fill-rule:evenodd;"
points="26668,39907
26668,39592
26353,39592
26353,39907
26668,39907
" /> 
<polyline style="fill-rule:evenodd;"
points="26983,39907
26983,39592
26668,39592
26668,39907
26983,39907
" /> 
<polyline style="fill-rule:evenodd;"
points="27298,39907
27298,39592
26983,39592
26983,39907
27298,39907
" /> 
<polyline style="fill-rule:evenodd;"
points="27613,39907
27613,39592
27298,39592
27298,39907
27613,39907
" /> 
<polyline style="fill-rule:evenodd;"
points="27928,39907
27928,39592
27613,39592
27613,39907
27928,39907
" /> 
<polyline style="fill-rule:evenodd;"
points="20684,40222
20684,39907
20369,39907
20369,40222
20684,40222
" /> 
<polyline style="fill-rule:evenodd;"
points="21314,40222
21314,39907
20999,39907
20999,40222
21314,40222
" /> 
<polyline style="fill-rule:evenodd;"
points="21629,40222
21629,39907
21314,39907
21314,40222
21629,40222
" /> 
<polyline style="fill-rule:evenodd;"
points="22259,40222
22259,39907
21944,39907
21944,40222
22259,40222
" /> 
<polyline style="fill-rule:evenodd;"
points="22889,40222
22889,39907
22574,39907
22574,40222
22889,40222
" /> 
<polyline style="fill-rule:evenodd;"
points="23204,40222
23204,39907
22889,39907
22889,40222
23204,40222
" /> 
<polyline style="fill-rule:evenodd;"
points="23519,40222
23519,39907
23204,39907
23204,40222
23519,40222
" /> 
<polyline style="fill-rule:evenodd;"
points="23834,40222
23834,39907
23519,39907
23519,40222
23834,40222
" /> 
<polyline style="fill-rule:evenodd;"
points="24464,40222
24464,39907
24149,39907
24149,40222
24464,40222
" /> 
<polyline style="fill-rule:evenodd;"
points="25723,40222
25723,39907
25408,39907
25408,40222
25723,40222
" /> 
<polyline style="fill-rule:evenodd;"
points="26983,40222
26983,39907
26668,39907
26668,40222
26983,40222
" /> 
<polyline style="fill-rule:evenodd;"
points="27298,40222
27298,39907
26983,39907
26983,40222
27298,40222
" /> 
<polyline style="fill-rule:evenodd;"
points="27613,40222
27613,39907
27298,39907
27298,40222
27613,40222
" /> 
<polyline style="fill-rule:evenodd;"
points="27928,40222
27928,39907
27613,39907
27613,40222
27928,40222
" /> 
<polyline style="fill-rule:evenodd;"
points="18164,40537
18164,40222
17849,40222
17849,40537
18164,40537
" /> 
<polyline style="fill-rule:evenodd;"
points="18479,40537
18479,40222
18164,40222
18164,40537
18479,40537
" /> 
<polyline style="fill-rule:evenodd;"
points="18794,40537
18794,40222
18479,40222
18479,40537
18794,40537
" /> 
<polyline style="fill-rule:evenodd;"
points="19109,40537
19109,40222
18794,40222
18794,40537
19109,40537
" /> 
<polyline style="fill-rule:evenodd;"
points="19424,40537
19424,40222
19109,40222
19109,40537
19424,40537
" /> 
<polyline style="fill-rule:evenodd;"
points="19739,40537
19739,40222
19424,40222
19424,40537
19739,40537
" /> 
<polyline style="fill-rule:evenodd;"
points="20054,40537
20054,40222
19739,40222
19739,40537
20054,40537
" /> 
<polyline style="fill-rule:evenodd;"
points="21314,40537
21314,40222
20999,40222
20999,40537
21314,40537
" /> 
<polyline style="fill-rule:evenodd;"
points="21944,40537
21944,40222
21629,40222
21629,40537
21944,40537
" /> 
<polyline style="fill-rule:evenodd;"
points="22574,40537
22574,40222
22259,40222
22259,40537
22574,40537
" /> 
<polyline style="fill-rule:evenodd;"
points="23519,40537
23519,40222
23204,40222
23204,40537
23519,40537
" /> 
<polyline style="fill-rule:evenodd;"
points="24149,40537
24149,40222
23834,40222
23834,40537
24149,40537
" /> 
<polyline style="fill-rule:evenodd;"
points="25093,40537
25093,40222
24779,40222
24779,40537
25093,40537
" /> 
<polyline style="fill-rule:evenodd;"
points="25723,40537
25723,40222
25408,40222
25408,40537
25723,40537
" /> 
<polyline style="fill-rule:evenodd;"
points="26353,40537
26353,40222
26038,40222
26038,40537
26353,40537
" /> 
<polyline style="fill-rule:evenodd;"
points="26983,40537
26983,40222
26668,40222
26668,40537
26983,40537
" /> 
<polyline style="fill-rule:evenodd;"
points="18164,40851
18164,40537
17849,40537
17849,40851
18164,40851
" /> 
<polyline style="fill-rule:evenodd;"
points="20054,40851
20054,40537
19739,40537
19739,40851
20054,40851
" /> 
<polyline style="fill-rule:evenodd;"
points="20684,40851
20684,40537
20369,40537
20369,40851
20684,40851
" /> 
<polyline style="fill-rule:evenodd;"
points="21629,40851
21629,40537
21314,40537
21314,40851
21629,40851
" /> 
<polyline style="fill-rule:evenodd;"
points="21944,40851
21944,40537
21629,40537
21629,40851
21944,40851
" /> 
<polyline style="fill-rule:evenodd;"
points="22259,40851
22259,40537
21944,40537
21944,40851
22259,40851
" /> 
<polyline style="fill-rule:evenodd;"
points="22574,40851
22574,40537
22259,40537
22259,40851
22574,40851
" /> 
<polyline style="fill-rule:evenodd;"
points="23204,40851
23204,40537
22889,40537
22889,40851
23204,40851
" /> 
<polyline style="fill-rule:evenodd;"
points="23519,40851
23519,40537
23204,40537
23204,40851
23519,40851
" /> 
<polyline style="fill-rule:evenodd;"
points="23834,40851
23834,40537
23519,40537
23519,40851
23834,40851
" /> 
<polyline style="fill-rule:evenodd;"
points="24149,40851
24149,40537
23834,40537
23834,40851
24149,40851
" /> 
<polyline style="fill-rule:evenodd;"
points="24464,40851
24464,40537
24149,40537
24149,40851
24464,40851
" /> 
<polyline style="fill-rule:evenodd;"
points="25408,40851
25408,40537
25093,40537
25093,40851
25408,40851
" /> 
<polyline style="fill-rule:evenodd;"
points="25723,40851
25723,40537
25408,40537
25408,40851
25723,40851
" /> 
<polyline style="fill-rule:evenodd;"
points="26983,40851
26983,40537
26668,40537
26668,40851
26983,40851
" /> 
<polyline style="fill-rule:evenodd;"
points="27613,40851
27613,40537
27298,40537
27298,40851
27613,40851
" /> 
<polyline style="fill-rule:evenodd;"
points="27928,40851
27928,40537
27613,40537
27613,40851
27928,40851
" /> 
<polyline style="fill-rule:evenodd;"
points="18164,41166
18164,40851
17849,40851
17849,41166
18164,41166
" /> 
<polyline style="fill-rule:evenodd;"
points="18794,41166
18794,40851
18479,40851
18479,41166
18794,41166
" /> 
<polyline style="fill-rule:evenodd;"
points="19109,41166
19109,40851
18794,40851
18794,41166
19109,41166
" /> 
<polyline style="fill-rule:evenodd;"
points="19424,41166
19424,40851
19109,40851
19109,41166
19424,41166
" /> 
<polyline style="fill-rule:evenodd;"
points="20054,41166
20054,40851
19739,40851
19739,41166
20054,41166
" /> 
<polyline style="fill-rule:evenodd;"
points="20684,41166
20684,40851
20369,40851
20369,41166
20684,41166
" /> 
<polyline style="fill-rule:evenodd;"
points="20999,41166
20999,40851
20684,40851
20684,41166
20999,41166
" /> 
<polyline style="fill-rule:evenodd;"
points="21629,41166
21629,40851
21314,40851
21314,41166
21629,41166
" /> 
<polyline style="fill-rule:evenodd;"
points="22574,41166
22574,40851
22259,40851
22259,41166
22574,41166
" /> 
<polyline style="fill-rule:evenodd;"
points="23204,41166
23204,40851
22889,40851
22889,41166
23204,41166
" /> 
<polyline style="fill-rule:evenodd;"
points="24149,41166
24149,40851
23834,40851
23834,41166
24149,41166
" /> 
<polyline style="fill-rule:evenodd;"
points="24464,41166
24464,40851
24149,40851
24149,41166
24464,41166
" /> 
<polyline style="fill-rule:evenodd;"
points="24779,41166
24779,40851
24464,40851
24464,41166
24779,41166
" /> 
<polyline style="fill-rule:evenodd;"
points="25093,41166
25093,40851
24779,40851
24779,41166
25093,41166
" /> 
<polyline style="fill-rule:evenodd;"
points="25408,41166
25408,40851
25093,40851
25093,41166
25408,41166
" /> 
<polyline style="fill-rule:evenodd;"
points="25723,41166
25723,40851
25408,40851
25408,41166
25723,41166
" /> 
<polyline style="fill-rule:evenodd;"
points="26038,41166
26038,40851
25723,40851
25723,41166
26038,41166
" /> 
<polyline style="fill-rule:evenodd;"
points="26353,41166
26353,40851
26038,40851
26038,41166
26353,41166
" /> 
<polyline style="fill-rule:evenodd;"
points="26668,41166
26668,40851
26353,40851
26353,41166
26668,41166
" /> 
<polyline style="fill-rule:evenodd;"
points="26983,41166
26983,40851
26668,40851
26668,41166
26983,41166
" /> 
<polyline style="fill-rule:evenodd;"
points="27298,41166
27298,40851
26983,40851
26983,41166
27298,41166
" /> 
<polyline style="fill-rule:evenodd;"
points="18164,41481
18164,41166
17849,41166
17849,41481
18164,41481
" /> 
<polyline style="fill-rule:evenodd;"
points="18794,41481
18794,41166
18479,41166
18479,41481
18794,41481
" /> 
<polyline style="fill-rule:evenodd;"
points="19109,41481
19109,41166
18794,41166
18794,41481
19109,41481
" /> 
<polyline style="fill-rule:evenodd;"
points="19424,41481
19424,41166
19109,41166
19109,41481
19424,41481
" /> 
<polyline style="fill-rule:evenodd;"
points="20054,41481
20054,41166
19739,41166
19739,41481
20054,41481
" /> 
<polyline style="fill-rule:evenodd;"
points="20684,41481
20684,41166
20369,41166
20369,41481
20684,41481
" /> 
<polyline style="fill-rule:evenodd;"
points="20999,41481
20999,41166
20684,41166
20684,41481
20999,41481
" /> 
<polyline style="fill-rule:evenodd;"
points="22574,41481
22574,41166
22259,41166
22259,41481
22574,41481
" /> 
<polyline style="fill-rule:evenodd;"
points="22889,41481
22889,41166
22574,41166
22574,41481
22889,41481
" /> 
<polyline style="fill-rule:evenodd;"
points="23834,41481
23834,41166
23519,41166
23519,41481
23834,41481
" /> 
<polyline style="fill-rule:evenodd;"
points="24779,41481
24779,41166
24464,41166
24464,41481
24779,41481
" /> 
<polyline style="fill-rule:evenodd;"
points="26668,41481
26668,41166
26353,41166
26353,41481
26668,41481
" /> 
<polyline style="fill-rule:evenodd;"
points="27298,41481
27298,41166
26983,41166
26983,41481
27298,41481
" /> 
<polyline style="fill-rule:evenodd;"
points="18164,41796
18164,41481
17849,41481
17849,41796
18164,41796
" /> 
<polyline style="fill-rule:evenodd;"
points="18794,41796
18794,41481
18479,41481
18479,41796
18794,41796
" /> 
<polyline style="fill-rule:evenodd;"
points="19109,41796
19109,41481
18794,41481
18794,41796
19109,41796
" /> 
<polyline style="fill-rule:evenodd;"
points="19424,41796
19424,41481
19109,41481
19109,41796
19424,41796
" /> 
<polyline style="fill-rule:evenodd;"
points="20054,41796
20054,41481
19739,41481
19739,41796
20054,41796
" /> 
<polyline style="fill-rule:evenodd;"
points="20684,41796
20684,41481
20369,41481
20369,41796
20684,41796
" /> 
<polyline style="fill-rule:evenodd;"
points="20999,41796
20999,41481
20684,41481
20684,41796
20999,41796
" /> 
<polyline style="fill-rule:evenodd;"
points="21314,41796
21314,41481
20999,41481
20999,41796
21314,41796
" /> 
<polyline style="fill-rule:evenodd;"
points="21629,41796
21629,41481
21314,41481
21314,41796
21629,41796
" /> 
<polyline style="fill-rule:evenodd;"
points="21944,41796
21944,41481
21629,41481
21629,41796
21944,41796
" /> 
<polyline style="fill-rule:evenodd;"
points="22574,41796
22574,41481
22259,41481
22259,41796
22574,41796
" /> 
<polyline style="fill-rule:evenodd;"
points="22889,41796
22889,41481
22574,41481
22574,41796
22889,41796
" /> 
<polyline style="fill-rule:evenodd;"
points="23204,41796
23204,41481
22889,41481
22889,41796
23204,41796
" /> 
<polyline style="fill-rule:evenodd;"
points="23834,41796
23834,41481
23519,41481
23519,41796
23834,41796
" /> 
<polyline style="fill-rule:evenodd;"
points="24464,41796
24464,41481
24149,41481
24149,41796
24464,41796
" /> 
<polyline style="fill-rule:evenodd;"
points="24779,41796
24779,41481
24464,41481
24464,41796
24779,41796
" /> 
<polyline style="fill-rule:evenodd;"
points="25408,41796
25408,41481
25093,41481
25093,41796
25408,41796
" /> 
<polyline style="fill-rule:evenodd;"
points="26038,41796
26038,41481
25723,41481
25723,41796
26038,41796
" /> 
<polyline style="fill-rule:evenodd;"
points="26668,41796
26668,41481
26353,41481
26353,41796
26668,41796
" /> 
<polyline style="fill-rule:evenodd;"
points="18164,42111
18164,41796
17849,41796
17849,42111
18164,42111
" /> 
<polyline style="fill-rule:evenodd;"
points="20054,42111
20054,41796
19739,41796
19739,42111
20054,42111
" /> 
<polyline style="fill-rule:evenodd;"
points="20999,42111
20999,41796
20684,41796
20684,42111
20999,42111
" /> 
<polyline style="fill-rule:evenodd;"
points="21314,42111
21314,41796
20999,41796
20999,42111
21314,42111
" /> 
<polyline style="fill-rule:evenodd;"
points="21944,42111
21944,41796
21629,41796
21629,42111
21944,42111
" /> 
<polyline style="fill-rule:evenodd;"
points="22259,42111
22259,41796
21944,41796
21944,42111
22259,42111
" /> 
<polyline style="fill-rule:evenodd;"
points="22889,42111
22889,41796
22574,41796
22574,42111
22889,42111
" /> 
<polyline style="fill-rule:evenodd;"
points="24779,42111
24779,41796
24464,41796
24464,42111
24779,42111
" /> 
<polyline style="fill-rule:evenodd;"
points="25093,42111
25093,41796
24779,41796
24779,42111
25093,42111
" /> 
<polyline style="fill-rule:evenodd;"
points="25408,42111
25408,41796
25093,41796
25093,42111
25408,42111
" /> 
<polyline style="fill-rule:evenodd;"
points="25723,42111
25723,41796
25408,41796
25408,42111
25723,42111
" /> 
<polyline style="fill-rule:evenodd;"
points="26983,42111
26983,41796
26668,41796
26668,42111
26983,42111
" /> 
<polyline style="fill-rule:evenodd;"
points="27298,42111
27298,41796
26983,41796
26983,42111
27298,42111
" /> 
<polyline style="fill-rule:evenodd;"
points="18164,42426
18164,42111
17849,42111
17849,42426
18164,42426
" /> 
<polyline style="fill-rule:evenodd;"
points="18479,42426
18479,42111
18164,42111
18164,42426
18479,42426
" /> 
<polyline style="fill-rule:evenodd;"
points="18794,42426
18794,42111
18479,42111
18479,42426
18794,42426
" /> 
<polyline style="fill-rule:evenodd;"
points="19109,42426
19109,42111
18794,42111
18794,42426
19109,42426
" /> 
<polyline style="fill-rule:evenodd;"
points="19424,42426
19424,42111
19109,42111
19109,42426
19424,42426
" /> 
<polyline style="fill-rule:evenodd;"
points="19739,42426
19739,42111
19424,42111
19424,42426
19739,42426
" /> 
<polyline style="fill-rule:evenodd;"
points="20054,42426
20054,42111
19739,42111
19739,42426
20054,42426
" /> 
<polyline style="fill-rule:evenodd;"
points="20684,42426
20684,42111
20369,42111
20369,42426
20684,42426
" /> 
<polyline style="fill-rule:evenodd;"
points="21629,42426
21629,42111
21314,42111
21314,42426
21629,42426
" /> 
<polyline style="fill-rule:evenodd;"
points="21944,42426
21944,42111
21629,42111
21629,42426
21944,42426
" /> 
<polyline style="fill-rule:evenodd;"
points="22574,42426
22574,42111
22259,42111
22259,42426
22574,42426
" /> 
<polyline style="fill-rule:evenodd;"
points="22889,42426
22889,42111
22574,42111
22574,42426
22889,42426
" /> 
<polyline style="fill-rule:evenodd;"
points="23204,42426
23204,42111
22889,42111
22889,42426
23204,42426
" /> 
<polyline style="fill-rule:evenodd;"
points="23834,42426
23834,42111
23519,42111
23519,42426
23834,42426
" /> 
<polyline style="fill-rule:evenodd;"
points="24464,42426
24464,42111
24149,42111
24149,42426
24464,42426
" /> 
<polyline style="fill-rule:evenodd;"
points="24779,42426
24779,42111
24464,42111
24464,42426
24779,42426
" /> 
<polyline style="fill-rule:evenodd;"
points="25723,42426
25723,42111
25408,42111
25408,42426
25723,42426
" /> 
<polyline style="fill-rule:evenodd;"
points="26038,42426
26038,42111
25723,42111
25723,42426
26038,42426
" /> 
<polyline style="fill-rule:evenodd;"
points="26668,42426
26668,42111
26353,42111
26353,42426
26668,42426
" /> 
<polyline style="fill-rule:evenodd;"
points="27613,42426
27613,42111
27298,42111
27298,42426
27613,42426
" /> 
<polyline style="fill-rule:evenodd;"
points="27928,42426
27928,42111
27613,42111
27613,42426
27928,42426
" /> 
</g>
<g style="fill:#000000; fill-opacity:1.0; 
stroke:#000000; stroke-width:94.4882; stroke-opacity:1; 
stroke-linecap:round; stroke-linejoin:round;">
</g>
<g style="fill:#000000; fill-opacity:0.0; 
stroke:#000000; stroke-width:94.4882; stroke-opacity:1; 
stroke-linecap:round; stroke-linejoin:round;">
<path d="M53538 20355
L57475 20355
" />
<path d="M57908.3 20788.8 A433.071 433.071 0.0 0 0 57475.2 20355.7 " />
<path d="M53538.2 20355.7 A433.071 433.071 0.0 0 0 53105.2 20788.8 " />
<path d="M57908 20788
L57908 22717
" />
<path d="M53105 22717
L53105 20788
" />
<path d="M52716.6 23272.9 A590.551 590.551 0.0 0 0 53105.2 22718 " />
<path d="M57908.3 22718 A590.551 590.551 0.0 0 0 58296.9 23272.9 " />
<path d="M52735.1 23269.1 A11023.4 11023.4 0.0 0 0 55518.7 44961.8 " />
<path d="M55494.7 44961.8 A11023.4 11023.4 0.0 0 0 58278.4 23269.1 " />
<path d="M69051 29121
L68495 28564
" />
<path d="M69441 27618
L69998 28175
" />
<path d="M71381 29578
L71938 30135
" />
<path d="M70991 31081
L70435 30524
" />
</g>
<g style="fill:#000000; fill-opacity:0.0; 
stroke:#000000; stroke-width:118.11; stroke-opacity:1; 
stroke-linecap:round; stroke-linejoin:round;">
<path d="M25018 30273
L25246 30273
L25361 30330
L25418 30387
L25532 30559
L25589 30787
L25589 31244
L25532 31359
L25475 31416
L25361 31473
L25132 31473
L25018 31416
L24961 31359
L24903 31244
L24903 30959
L24961 30844
L25018 30787
L25132 30730
L25361 30730
L25475 30787
L25532 30844
L25589 30959
" />
<path d="M23875 31473
L23875 30273
" />
<path d="M23875 31416
L23989 31473
L24218 31473
L24332 31416
L24389 31359
L24446 31244
L24446 30902
L24389 30787
L24332 30730
L24218 30673
L23989 30673
L23875 30730
" />
<path d="M22846 31416
L22961 31473
L23189 31473
L23303 31416
L23361 31302
L23361 30844
L23303 30730
L23189 30673
L22961 30673
L22846 30730
L22789 30844
L22789 30959
L23361 31073
" />
<path d="M21761 30273
L21989 30273
L22103 30330
L22161 30387
L22275 30559
L22332 30787
L22332 31244
L22275 31359
L22218 31416
L22103 31473
L21875 31473
L21761 31416
L21703 31359
L21646 31244
L21646 30959
L21703 30844
L21761 30787
L21875 30730
L22103 30730
L22218 30787
L22275 30844
L22332 30959
" />
<path d="M21246 30273
L20503 30273
L20903 30730
L20732 30730
L20618 30787
L20561 30844
L20503 30959
L20503 31244
L20561 31359
L20618 31416
L20732 31473
L21075 31473
L21189 31416
L21246 31359
" />
<path d="M51907 20366
L51944 20479
L51982 20516
L52057 20554
L52169 20554
L52244 20516
L52282 20479
L52319 20404
L52319 20104
L51532 20104
L51532 20366
L51569 20441
L51607 20479
L51682 20516
L51757 20516
L51832 20479
L51869 20441
L51907 20366
L51907 20104
" />
<path d="M51532 20779
L51532 21229
" />
<path d="M52319 21004
L51532 21004
" />
<path d="M51607 21454
L51569 21491
L51532 21566
L51532 21754
L51569 21829
L51607 21866
L51682 21904
L51757 21904
L51869 21866
L52319 21416
L52319 21904
" />
<path d="M55591 23685
L55591 24585
" />
<path d="M56041 24135
L55141 24135
" />
<path d="M68570 29761
L68570 29814
L68623 29920
L68676 29973
L68782 30026
L68888 30026
L68968 30000
L69100 29920
L69180 29841
L69259 29708
L69286 29629
L69286 29523
L69233 29417
L69180 29364
L69074 29311
L69021 29311
" />
<path d="M68809 29099
L68809 29046
L68782 28966
L68650 28833
L68570 28807
L68517 28807
L68438 28833
L68385 28886
L68332 28992
L68332 29629
L67987 29284
" />
<path d="M67457 28754
L67775 29072
" />
<path d="M67616 28913
L68172 28356
L68146 28489
L68146 28595
L68172 28674
" />
<path d="M70510 31721
L70510 31774
L70563 31880
L70616 31933
L70722 31986
L70828 31986
L70908 31960
L71040 31880
L71120 31801
L71199 31668
L71226 31589
L71226 31483
L71173 31377
L71120 31324
L71014 31271
L70961 31271
" />
<path d="M70749 31059
L70749 31006
L70722 30926
L70590 30793
L70510 30767
L70457 30767
L70378 30793
L70325 30846
L70272 30952
L70272 31589
L69927 31244
" />
<path d="M70219 30528
L70219 30475
L70192 30396
L70059 30263
L69980 30237
L69927 30237
L69847 30263
L69794 30316
L69741 30422
L69741 31059
L69397 30714
" />
</g> 
</svg>
