<?xml version="1.0" standalone="no"?>
 <!DOCTYPE svg PUBLIC "-//W3C//DTD SVG 1.1//EN" 
 "http://www.w3.org/Graphics/SVG/1.1/DTD/svg11.dtd"> 
<svg xmlns="http://www.w3.org/2000/svg" version="1.1" 
    width="29.7002cm" height="21.0007cm" viewBox="0 0 116930 82680 ">
<title>SVG Picture created as ThermocoupleLogger-Dwgs_User.svg date 2019/03/14 17:00:52 </title>
  <desc>Picture generated by PCBNEW </desc>
<g style="fill:#000000; fill-opacity:1;stroke:#000000; stroke-opacity:1;
stroke-linecap:round; stroke-linejoin:round; "
 transform="translate(0 0) scale(1 1)">
</g>
<g style="fill:#000000; fill-opacity:0.0; 
stroke:#000000; stroke-width:-0.000787402; stroke-opacity:1; 
stroke-linecap:round; stroke-linejoin:round;">
</g>
<g style="fill:#000000; fill-opacity:0.0; 
stroke:#000000; stroke-width:157.48; stroke-opacity:1; 
stroke-linecap:round; stroke-linejoin:round;">
<path d="M96106 63369
L96106 58969
" />
<path d="M96106 63769
L96106 63369
" />
<path d="M17706 63369
L96106 63769
" />
<path d="M17306 58969
L17706 58969
" />
<path d="M17306 63369
L17706 63369
" />
<path d="M17306 58969
L17306 63369
" />
<path d="M83266 58929
L65026 58929
" />
<path d="M86996 58929
L96106 58945
" />
<path d="M86956 56929
L96046 56929
" />
<path d="M65026 56929
L83266 56929
" />
<path d="M61390 58939
L24030 58939
" />
<path d="M24036 56939
L61396 56939
" />
<path d="M20406 56949
L17306 56949
" />
<path d="M20376 58949
L17666 58949
" />
<path d="M20376.7 58949.9 A1000.2 1000.2 0.0 0 0 20399.3 56950.6 " />
<path d="M24046.7 56939.9 A1000 1000 0.0 0 0 24030.1 58939.8 " />
<path d="M61376.7 58939.9 A1000 1000 0.0 0 0 61398 56940.1 " />
<path d="M65026.7 56929.9 A1000.2 1000.2 0.0 1 0 65028.5 58929.9 " />
<path d="M83256.7 58929.9 A1000.2 1000.2 0.0 1 0 83276.7 56929.7 " />
<path d="M86947.5 56929.9 A1000.2 1000.2 0.0 0 0 86986.7 58929.9 " />
<path d="M90906.7 15569.9 A1000.8 1000.8 0.0 0 0 90946.7 17570.7 " />
<path d="M54686.7 17609.9 A1000.8 1000.8 0.0 1 0 54686.7 15609.9 " />
<path d="M17266 15589
L17266 15589
" />
<path d="M30026 15589
L17266 15589
" />
<path d="M17306 17639
L30036 17629
" />
<path d="M33686 17609
L54686 17609
" />
<path d="M54666 15609
L33706 15609
" />
<path d="M30026.7 17629.9 A1020 1020 0.0 0 0 30026.7 15589.9 " />
<path d="M33706.7 15609.9 A1000.2 1000.2 0.0 1 0 33686.7 17610.1 " />
<path d="M87286 17599
L58456 17599
" />
<path d="M58306 15619
L87316 15619
" />
<path d="M58386.7 15609.9 A990.202 990.202 0.0 0 0 58426.7 17589.9 " />
<path d="M90951 17582
L96051 17582
" />
<path d="M96006 15569
L96006 10369
" />
<path d="M96006 10369
L96006 15569
" />
<path d="M96006 15569
L96006 10369
" />
<path d="M90906 15569
L96006 15569
" />
<path d="M96006 15569
L90906 15569
" />
<path d="M96006 10369
L96006 15569
" />
<path d="M87286.7 17609.9 A996 996 0.0 0 0 87294.8 15618 " />
<path d="M17266 10349
L96046 10349
" />
<path d="M17266 15589
L17266 10349
" />
<path d="M17306 56949
L17306 17639
" />
<path d="M96046 56929
L96046 17599
" />
</g>
<g style="fill:#000000; fill-opacity:0.0; 
stroke:#000000; stroke-width:39.3701; stroke-opacity:1; 
stroke-linecap:round; stroke-linejoin:round;">
<path d="M28878 30865
L29665 30865
" />
<path d="M28878 31456
L28878 30865
" />
<path d="M26319 30865
L26319 31456
" />
<path d="M24547 30865
L26319 30865
" />
<path d="M29272 16692
L24941 16692
" />
<path d="M29272 18267
L29272 16692
" />
<path d="M29665 18267
L29272 18267
" />
<path d="M29665 30865
L29665 18267
" />
<path d="M26319 31456
L28878 31456
" />
<path d="M24547 23582
L24547 30865
" />
<path d="M23957 23582
L24547 23582
" />
<path d="M23957 21810
L23957 23582
" />
<path d="M24547 21810
L23957 21810
" />
<path d="M24547 20039
L24547 21810
" />
<path d="M23957 20039
L24547 20039
" />
<path d="M23957 17873
L23957 20039
" />
<path d="M24941 17873
L23957 17873
" />
<path d="M24941 16692
L24941 17873
" />
</g>
<g style="fill:#000000; fill-opacity:0.0; 
stroke:#000000; stroke-width:157.48; stroke-opacity:1; 
stroke-linecap:round; stroke-linejoin:round;">
<path d="M29075 16889
L29075 18464
" />
<path d="M25138 16889
L29075 16889
" />
<path d="M29075 18464
L29468 18464
" />
</g>
<g style="fill:#000000; fill-opacity:0.0; 
stroke:#000000; stroke-width:78.7402; stroke-opacity:1; 
stroke-linecap:round; stroke-linejoin:round;">
<path d="M28445 31141
L26870 31141
" />
<path d="M28445 30511
L28445 31141
" />
<path d="M26870 30511
L28445 30511
" />
<path d="M26870 31141
L26870 30511
" />
<path d="M24902 29330
L24902 27755
" />
<path d="M25531 29330
L24902 29330
" />
<path d="M25531 27755
L25531 29330
" />
<path d="M24902 27755
L25531 27755
" />
<path d="M28720 23228
L28720 22047
" />
<path d="M29272 23228
L28720 23228
" />
<path d="M29272 22047
L29272 23228
" />
<path d="M28720 22047
L29272 22047
" />
<path d="M24941 21732
L24941 20551
" />
<path d="M25492 21732
L24941 21732
" />
<path d="M25492 20551
L25492 21732
" />
<path d="M24941 20551
L25492 20551
" />
<path d="M28720 20905
L28720 19960
" />
<path d="M29272 20905
L28720 20905
" />
<path d="M29272 19960
L29272 20905
" />
<path d="M28720 19960
L29272 19960
" />
<path d="M24311 19409
L24311 18464
" />
<path d="M24862 19409
L24311 19409
" />
<path d="M24862 18464
L24862 19409
" />
<path d="M24311 18464
L24862 18464
" />
</g>
<g style="fill:#000000; fill-opacity:0.0; 
stroke:#000000; stroke-width:39.3701; stroke-opacity:1; 
stroke-linecap:round; stroke-linejoin:round;">
<circle cx="87272.1" cy="16569.9" r="47.2441" /> 
<circle cx="90941.4" cy="16569.9" r="47.2441" /> 
<circle cx="83292.2" cy="57923.8" r="47.2441" /> 
<circle cx="86961.5" cy="57923.8" r="47.2441" /> 
<circle cx="20372.1" cy="57939.9" r="47.2441" /> 
<circle cx="24041.4" cy="57939.9" r="47.2441" /> 
<circle cx="61382.1" cy="57939.9" r="47.2441" /> 
<circle cx="65051.4" cy="57939.9" r="47.2441" /> 
<circle cx="30012.1" cy="16609.9" r="47.2441" /> 
<circle cx="33681.4" cy="16609.9" r="47.2441" /> 
<circle cx="54732.1" cy="16609.9" r="47.2441" /> 
<circle cx="58401.4" cy="16609.9" r="47.2441" /> 
</g> 
</svg>
