<?xml version="1.0" standalone="no"?>
 <!DOCTYPE svg PUBLIC "-//W3C//DTD SVG 1.1//EN" 
 "http://www.w3.org/Graphics/SVG/1.1/DTD/svg11.dtd"> 
<svg xmlns="http://www.w3.org/2000/svg" version="1.1" 
    width="29.7002cm" height="21.0007cm" viewBox="0 0 116930 82680 ">
<title>SVG Picture created as ThermocoupleLogger-F_CrtYd.svg date 2019/03/14 17:00:52 </title>
  <desc>Picture generated by PCBNEW </desc>
<g style="fill:#000000; fill-opacity:1;stroke:#000000; stroke-opacity:1;
stroke-linecap:round; stroke-linejoin:round; "
 transform="translate(0 0) scale(1 1)">
</g>
<g style="fill:#000000; fill-opacity:0.0; 
stroke:#000000; stroke-width:-0.000787402; stroke-opacity:1; 
stroke-linecap:round; stroke-linejoin:round;">
</g>
<g style="fill:#000000; fill-opacity:0.0; 
stroke:#000000; stroke-width:157.48; stroke-opacity:1; 
stroke-linecap:round; stroke-linejoin:round;">
<path d="M96106 63369
L96106 58969
" />
<path d="M96106 63769
L96106 63369
" />
<path d="M17706 63369
L96106 63769
" />
<path d="M17306 58969
L17706 58969
" />
<path d="M17306 63369
L17706 63369
" />
<path d="M17306 58969
L17306 63369
" />
<path d="M83266 58929
L65026 58929
" />
<path d="M86996 58929
L96106 58945
" />
<path d="M86956 56929
L96046 56929
" />
<path d="M65026 56929
L83266 56929
" />
<path d="M61390 58939
L24030 58939
" />
<path d="M24036 56939
L61396 56939
" />
<path d="M20406 56949
L17306 56949
" />
<path d="M20376 58949
L17666 58949
" />
<path d="M20376.7 58949.9 A1000.2 1000.2 0.0 0 0 20399.3 56950.6 " />
<path d="M24046.7 56939.9 A1000 1000 0.0 0 0 24030.1 58939.8 " />
<path d="M61376.7 58939.9 A1000 1000 0.0 0 0 61398 56940.1 " />
<path d="M65026.7 56929.9 A1000.2 1000.2 0.0 1 0 65028.5 58929.9 " />
<path d="M83256.7 58929.9 A1000.2 1000.2 0.0 1 0 83276.7 56929.7 " />
<path d="M86947.5 56929.9 A1000.2 1000.2 0.0 0 0 86986.7 58929.9 " />
<path d="M90906.7 15569.9 A1000.8 1000.8 0.0 0 0 90946.7 17570.7 " />
<path d="M54686.7 17609.9 A1000.8 1000.8 0.0 1 0 54686.7 15609.9 " />
<path d="M17266 15589
L17266 15589
" />
<path d="M30026 15589
L17266 15589
" />
<path d="M17306 17639
L30036 17629
" />
<path d="M33686 17609
L54686 17609
" />
<path d="M54666 15609
L33706 15609
" />
<path d="M30026.7 17629.9 A1020 1020 0.0 0 0 30026.7 15589.9 " />
<path d="M33706.7 15609.9 A1000.2 1000.2 0.0 1 0 33686.7 17610.1 " />
<path d="M87286 17599
L58456 17599
" />
<path d="M58306 15619
L87316 15619
" />
<path d="M58386.7 15609.9 A990.202 990.202 0.0 0 0 58426.7 17589.9 " />
<path d="M90951 17582
L96051 17582
" />
<path d="M96006 15569
L96006 10369
" />
<path d="M96006 10369
L96006 15569
" />
<path d="M96006 15569
L96006 10369
" />
<path d="M90906 15569
L96006 15569
" />
<path d="M96006 15569
L90906 15569
" />
<path d="M96006 10369
L96006 15569
" />
<path d="M87286.7 17609.9 A996 996 0.0 0 0 87294.8 15618 " />
<path d="M17266 10349
L96046 10349
" />
<path d="M17266 15589
L17266 10349
" />
<path d="M17306 56949
L17306 17639
" />
<path d="M96046 56929
L96046 17599
" />
</g>
<g style="fill:#000000; fill-opacity:0.0; 
stroke:#000000; stroke-width:39.3701; stroke-opacity:1; 
stroke-linecap:round; stroke-linejoin:round;">
<circle cx="20146.7" cy="20509.9" r="2322.83" /> 
<circle cx="92866.7" cy="20609.9" r="2322.83" /> 
<path d="M71155 21757
L74719 25320
" />
<path d="M73494 19419
L71155 21757
" />
<path d="M77057 22982
L73494 19419
" />
<path d="M74719 25320
L77057 22982
" />
<path d="M41390 27166
L35169 27166
" />
<path d="M41390 27166
L41390 22812
" />
<path d="M35169 22812
L35169 27166
" />
<path d="M35169 22812
L41390 22812
" />
<path d="M35051 18558
L29736 18558
" />
<path d="M29736 18558
L29736 25173
" />
<path d="M29736 25173
L35051 25173
" />
<path d="M35051 25173
L35051 18558
" />
<path d="M21332 23479
L19521 23479
" />
<path d="M19521 27180
L19521 23479
" />
<path d="M21332 27180
L19521 27180
" />
<path d="M21332 23479
L21332 27180
" />
<path d="M23527 27598
L17701 27598
" />
<path d="M23527 31141
L23527 27598
" />
<path d="M17701 31141
L23527 31141
" />
<path d="M17701 27598
L17701 31141
" />
<circle cx="27098.9" cy="12614" r="2165.35" /> 
<circle cx="82217" cy="12614" r="2165.35" /> 
<circle cx="27098.9" cy="59858.1" r="2165.35" /> 
<circle cx="90091" cy="59858.1" r="2165.35" /> 
<path d="M77193 28906
L83020 28906
" />
<path d="M77193 21032
L77193 28906
" />
<path d="M83020 21032
L77193 21032
" />
<path d="M83020 28906
L83020 21032
" />
<path d="M69080 24882
L63178 30784
" />
<path d="M74982 30784
L69080 36686
" />
<path d="M69080 36686
L63178 30784
" />
<path d="M74982 30784
L69080 24882
" />
<path d="M93394 24385
L96150 24385
" />
<path d="M93394 23598
L93394 24385
" />
<path d="M91228 23598
L93394 23598
" />
<path d="M91228 24385
L91228 23598
" />
<path d="M85520 24385
L91228 24385
" />
<path d="M85520 24188
L85520 24385
" />
<path d="M83945 24188
L85520 24188
" />
<path d="M83945 25960
L83945 24188
" />
<path d="M84535 25960
L83945 25960
" />
<path d="M84535 28322
L84535 25960
" />
<path d="M83551 28322
L84535 28322
" />
<path d="M83551 36196
L83551 28322
" />
<path d="M83945 36196
L83551 36196
" />
<path d="M83945 37377
L83945 36196
" />
<path d="M85520 37377
L83945 37377
" />
<path d="M85520 36590
L85520 37377
" />
<path d="M91228 36590
L85520 36590
" />
<path d="M91228 37377
L91228 36590
" />
<path d="M93394 37377
L91228 37377
" />
<path d="M93394 36590
L93394 37377
" />
<path d="M96150 36590
L93394 36590
" />
<path d="M33502 29807
L33502 36421
" />
<path d="M38817 29807
L33502 29807
" />
<path d="M38817 36421
L38817 29807
" />
<path d="M33502 36421
L38817 36421
" />
<path d="M62109 18744
L62109 23587
" />
<path d="M68920 18744
L62109 18744
" />
<path d="M68920 23587
L68920 18744
" />
<path d="M62109 23587
L68920 23587
" />
<path d="M73585 25159
L71636 27108
" />
<path d="M73585 25159
L72610 24185
" />
<path d="M70661 26134
L71636 27108
" />
<path d="M70661 26134
L72610 24185
" />
<path d="M69521 24914
L71470 22965
" />
<path d="M69521 24914
L70496 25888
" />
<path d="M72445 23939
L71470 22965
" />
<path d="M72445 23939
L70496 25888
" />
<path d="M51276 25659
L51276 34557
" />
<path d="M59937 25659
L59937 34557
" />
<path d="M59937 34557
L51276 34557
" />
<path d="M59937 25659
L51276 25659
" />
<path d="M82691 31431
L82691 34187
" />
<path d="M82691 31431
L81313 31431
" />
<path d="M81313 34187
L82691 34187
" />
<path d="M81313 34187
L81313 31431
" />
<path d="M77313 34200
L77313 31444
" />
<path d="M77313 34200
L78691 34200
" />
<path d="M78691 31444
L77313 31444
" />
<path d="M78691 31444
L78691 34200
" />
<path d="M82715 34389
L82715 36830
" />
<path d="M82715 34389
L81298 34389
" />
<path d="M81298 36830
L82715 36830
" />
<path d="M81298 36830
L81298 34389
" />
<path d="M77298 36830
L77298 34389
" />
<path d="M77298 36830
L78715 36830
" />
<path d="M78715 34389
L77298 34389
" />
<path d="M78715 34389
L78715 36830
" />
<path d="M79298 36830
L79298 34389
" />
<path d="M79298 36830
L80715 36830
" />
<path d="M80715 34389
L79298 34389
" />
<path d="M80715 34389
L80715 36830
" />
<path d="M80691 31431
L80691 34187
" />
<path d="M80691 31431
L79313 31431
" />
<path d="M79313 34187
L80691 34187
" />
<path d="M79313 34187
L79313 31431
" />
<path d="M76549 37872
L76549 40707
" />
<path d="M87376 37872
L76549 37872
" />
<path d="M87376 40707
L87376 37872
" />
<path d="M76549 40707
L87376 40707
" />
<path d="M63319 49070
L64894 49070
" />
<path d="M63319 51589
L64894 51589
" />
<path d="M64894 51589
L64894 49070
" />
<path d="M63319 51589
L63319 49070
" />
<path d="M41079 51829
L41079 49310
" />
<path d="M42654 51829
L42654 49310
" />
<path d="M41079 51829
L42654 51829
" />
<path d="M41079 49310
L42654 49310
" />
<path d="M72282 50352
L77597 50352
" />
<path d="M77597 50352
L77597 43738
" />
<path d="M77597 43738
L72282 43738
" />
<path d="M72282 43738
L72282 50352
" />
<path d="M51991 42054
L51991 52684
" />
<path d="M62621 42054
L51991 42054
" />
<path d="M62621 52684
L62621 42054
" />
<path d="M51991 52684
L62621 52684
" />
<path d="M70519 45017
L70519 42497
" />
<path d="M72094 45017
L72094 42497
" />
<path d="M70519 45017
L72094 45017
" />
<path d="M70519 42497
L72094 42497
" />
<path d="M47528 20684
L50284 20684
" />
<path d="M47528 20684
L47528 22062
" />
<path d="M50284 22062
L50284 20684
" />
<path d="M50284 22062
L47528 22062
" />
<path d="M50284 20462
L47528 20462
" />
<path d="M50284 20462
L50284 19084
" />
<path d="M47528 19084
L47528 20462
" />
<path d="M47528 19084
L50284 19084
" />
<path d="M50284 23654
L47528 23654
" />
<path d="M50284 23654
L50284 22277
" />
<path d="M47528 22277
L47528 23654
" />
<path d="M47528 22277
L50284 22277
" />
<path d="M63421 48147
L63421 45391
" />
<path d="M63421 48147
L64799 48147
" />
<path d="M64799 45391
L63421 45391
" />
<path d="M64799 45391
L64799 48147
" />
<path d="M70621 48360
L70621 45604
" />
<path d="M70621 48360
L71999 48360
" />
<path d="M71999 45604
L70621 45604
" />
<path d="M71999 45604
L71999 48360
" />
<path d="M77821 48047
L77821 45291
" />
<path d="M77821 48047
L79199 48047
" />
<path d="M79199 45291
L77821 45291
" />
<path d="M79199 45291
L79199 48047
" />
<path d="M86399 45271
L86399 48027
" />
<path d="M86399 45271
L85021 45271
" />
<path d="M85021 48027
L86399 48027
" />
<path d="M85021 48027
L85021 45271
" />
<path d="M28209 45591
L28209 48347
" />
<path d="M28209 45591
L26831 45591
" />
<path d="M26831 48347
L28209 48347
" />
<path d="M26831 48347
L26831 45591
" />
<path d="M35359 45591
L35359 48347
" />
<path d="M35359 45591
L33981 45591
" />
<path d="M33981 48347
L35359 48347
" />
<path d="M33981 48347
L33981 45591
" />
<path d="M41231 48369
L41231 45613
" />
<path d="M41231 48369
L42609 48369
" />
<path d="M42609 45613
L41231 45613
" />
<path d="M42609 45613
L42609 48369
" />
<path d="M49499 45891
L49499 48647
" />
<path d="M49499 45891
L48121 45891
" />
<path d="M48121 48647
L49499 48647
" />
<path d="M48121 48647
L48121 45891
" />
<path d="M63319 45029
L63319 42510
" />
<path d="M64894 45029
L64894 42510
" />
<path d="M63319 45029
L64894 45029
" />
<path d="M63319 42510
L64894 42510
" />
<path d="M70519 49258
L72094 49258
" />
<path d="M70519 51777
L72094 51777
" />
<path d="M72094 51777
L72094 49258
" />
<path d="M70519 51777
L70519 49258
" />
<path d="M77719 42110
L79294 42110
" />
<path d="M77719 44629
L79294 44629
" />
<path d="M79294 44629
L79294 42110
" />
<path d="M77719 44629
L77719 42110
" />
<path d="M77719 51429
L77719 48910
" />
<path d="M79294 51429
L79294 48910
" />
<path d="M77719 51429
L79294 51429
" />
<path d="M77719 48910
L79294 48910
" />
<path d="M84919 42162
L86494 42162
" />
<path d="M84919 44681
L86494 44681
" />
<path d="M86494 44681
L86494 42162
" />
<path d="M84919 44681
L84919 42162
" />
<path d="M84919 51429
L84919 48910
" />
<path d="M86494 51429
L86494 48910
" />
<path d="M84919 51429
L86494 51429
" />
<path d="M84919 48910
L86494 48910
" />
<path d="M26729 42510
L28303 42510
" />
<path d="M26729 45029
L28303 45029
" />
<path d="M28303 45029
L28303 42510
" />
<path d="M26729 45029
L26729 42510
" />
<path d="M26679 51829
L26679 49310
" />
<path d="M28254 51829
L28254 49310
" />
<path d="M26679 51829
L28254 51829
" />
<path d="M26679 49310
L28254 49310
" />
<path d="M33879 45029
L33879 42510
" />
<path d="M35454 45029
L35454 42510
" />
<path d="M33879 45029
L35454 45029
" />
<path d="M33879 42510
L35454 42510
" />
<path d="M33879 49310
L35454 49310
" />
<path d="M33879 51829
L35454 51829
" />
<path d="M35454 51829
L35454 49310
" />
<path d="M33879 51829
L33879 49310
" />
<path d="M41079 42510
L42654 42510
" />
<path d="M41079 45029
L42654 45029
" />
<path d="M42654 45029
L42654 42510
" />
<path d="M41079 45029
L41079 42510
" />
<path d="M48679 45029
L48679 42510
" />
<path d="M50254 45029
L50254 42510
" />
<path d="M48679 45029
L50254 45029
" />
<path d="M48679 42510
L50254 42510
" />
<path d="M48679 49310
L50254 49310
" />
<path d="M48679 51829
L50254 51829
" />
<path d="M50254 51829
L50254 49310
" />
<path d="M48679 51829
L48679 49310
" />
<path d="M17938 26498
L17938 24057
" />
<path d="M17938 26498
L19355 26498
" />
<path d="M19355 24057
L17938 24057
" />
<path d="M19355 24057
L19355 26498
" />
<path d="M30926 26521
L33367 26521
" />
<path d="M30926 26521
L30926 27938
" />
<path d="M33367 27938
L33367 26521
" />
<path d="M33367 27938
L30926 27938
" />
<path d="M62927 36078
L60486 36078
" />
<path d="M62927 36078
L62927 34661
" />
<path d="M60486 34661
L60486 36078
" />
<path d="M60486 34661
L62927 34661
" />
<path d="M74868 29134
L73142 27408
" />
<path d="M74868 29134
L75870 28131
" />
<path d="M74144 26405
L73142 27408
" />
<path d="M74144 26405
L75870 28131
" />
<path d="M60486 33061
L62927 33061
" />
<path d="M60486 33061
L60486 34478
" />
<path d="M62927 34478
L62927 33061
" />
<path d="M62927 34478
L60486 34478
" />
<path d="M79462 43478
L79462 50092
" />
<path d="M84777 43478
L79462 43478
" />
<path d="M84777 50092
L84777 43478
" />
<path d="M79462 50092
L84777 50092
" />
<path d="M86662 50092
L91977 50092
" />
<path d="M91977 50092
L91977 43478
" />
<path d="M91977 43478
L86662 43478
" />
<path d="M86662 43478
L86662 50092
" />
<path d="M21222 43847
L21222 50461
" />
<path d="M26537 43847
L21222 43847
" />
<path d="M26537 50461
L26537 43847
" />
<path d="M21222 50461
L26537 50461
" />
<path d="M28422 50492
L33737 50492
" />
<path d="M33737 50492
L33737 43878
" />
<path d="M33737 43878
L28422 43878
" />
<path d="M28422 43878
L28422 50492
" />
<path d="M35622 43878
L35622 50492
" />
<path d="M40937 43878
L35622 43878
" />
<path d="M40937 50492
L40937 43878
" />
<path d="M35622 50492
L40937 50492
" />
<path d="M42762 50441
L48077 50441
" />
<path d="M48077 50441
L48077 43827
" />
<path d="M48077 43827
L42762 43827
" />
<path d="M42762 43827
L42762 50441
" />
<path d="M60328 29831
L63084 29831
" />
<path d="M60328 32508
L60328 29831
" />
<path d="M63084 32508
L60328 32508
" />
<path d="M63084 29831
L63084 32508
" />
<path d="M39314 37670
L45140 37670
" />
<path d="M39314 29796
L39314 37670
" />
<path d="M45140 29796
L39314 29796
" />
<path d="M45140 37670
L45140 29796
" />
<path d="M65062 50092
L70377 50092
" />
<path d="M70377 50092
L70377 43478
" />
<path d="M70377 43478
L65062 43478
" />
<path d="M65062 43478
L65062 50092
" />
<path d="M59069 40655
L64943 40655
" />
<path d="M59069 36403
L64943 36403
" />
<path d="M64943 36403
L64943 40655
" />
<path d="M59069 36403
L59069 40655
" />
<path d="M35169 18133
L41390 18133
" />
<path d="M35169 18133
L35169 22488
" />
<path d="M41390 22488
L41390 18133
" />
<path d="M41390 22488
L35169 22488
" />
<path d="M51551 45891
L51551 48647
" />
<path d="M51551 45891
L50173 45891
" />
<path d="M50173 48647
L51551 48647
" />
<path d="M50173 48647
L50173 45891
" />
<path d="M41550 18033
L41550 26773
" />
<path d="M47062 18033
L41550 18033
" />
<path d="M47062 26773
L47062 18033
" />
<path d="M41550 26773
L47062 26773
" />
<path d="M47528 24231
L50284 24231
" />
<path d="M47528 26908
L47528 24231
" />
<path d="M50284 26908
L47528 26908
" />
<path d="M50284 24231
L50284 26908
" />
<path d="M87324 20787
L87324 17952
" />
<path d="M74489 20787
L87324 20787
" />
<path d="M74489 17952
L74489 20787
" />
<path d="M87324 17952
L74489 17952
" />
<path d="M60486 25661
L62927 25661
" />
<path d="M60486 25661
L60486 27078
" />
<path d="M62927 27078
L62927 25661
" />
<path d="M62927 27078
L60486 27078
" />
<path d="M68789 37852
L68789 40687
" />
<path d="M75600 37852
L68789 37852
" />
<path d="M75600 40687
L75600 37852
" />
<path d="M68789 40687
L75600 40687
" />
<path d="M23192 23479
L23192 27180
" />
<path d="M23192 27180
L21381 27180
" />
<path d="M21381 27180
L21381 23479
" />
<path d="M23192 23479
L21381 23479
" />
<path d="M66596 36328
L64647 34379
" />
<path d="M66596 36328
L67571 35354
" />
<path d="M65622 33405
L64647 34379
" />
<path d="M65622 33405
L67571 35354
" />
<path d="M81667 30398
L79226 30398
" />
<path d="M81667 30398
L81667 28981
" />
<path d="M79226 28981
L79226 30398
" />
<path d="M79226 28981
L81667 28981
" />
<path d="M85398 23590
L85398 21149
" />
<path d="M85398 23590
L86815 23590
" />
<path d="M86815 21149
L85398 21149
" />
<path d="M86815 21149
L86815 23590
" />
</g> 
</svg>
