<?xml version="1.0" standalone="no"?>
 <!DOCTYPE svg PUBLIC "-//W3C//DTD SVG 1.1//EN" 
 "http://www.w3.org/Graphics/SVG/1.1/DTD/svg11.dtd"> 
<svg xmlns="http://www.w3.org/2000/svg" version="1.1" 
    width="29.7002cm" height="21.0007cm" viewBox="0 0 116930 82680 ">
<title>SVG Picture created as ThermocoupleLogger-F_SilkS.svg date 2019/03/14 17:00:52 </title>
  <desc>Picture generated by PCBNEW </desc>
<g style="fill:#000000; fill-opacity:1;stroke:#000000; stroke-opacity:1;
stroke-linecap:round; stroke-linejoin:round; "
 transform="translate(0 0) scale(1 1)">
</g>
<g style="fill:#000000; fill-opacity:0.0; 
stroke:#000000; stroke-width:-0.000787402; stroke-opacity:1; 
stroke-linecap:round; stroke-linejoin:round;">
</g>
<g style="fill:#000000; fill-opacity:0.0; 
stroke:#000000; stroke-width:157.48; stroke-opacity:1; 
stroke-linecap:round; stroke-linejoin:round;">
<path d="M96106 63369
L96106 58969
" />
<path d="M96106 63769
L96106 63369
" />
<path d="M17706 63369
L96106 63769
" />
<path d="M17306 58969
L17706 58969
" />
<path d="M17306 63369
L17706 63369
" />
<path d="M17306 58969
L17306 63369
" />
<path d="M83266 58929
L65026 58929
" />
<path d="M86996 58929
L96106 58945
" />
<path d="M86956 56929
L96046 56929
" />
<path d="M65026 56929
L83266 56929
" />
<path d="M61390 58939
L24030 58939
" />
<path d="M24036 56939
L61396 56939
" />
<path d="M20406 56949
L17306 56949
" />
<path d="M20376 58949
L17666 58949
" />
<path d="M20376.7 58949.9 A1000.2 1000.2 0.0 0 0 20399.3 56950.6 " />
<path d="M24046.7 56939.9 A1000 1000 0.0 0 0 24030.1 58939.8 " />
<path d="M61376.7 58939.9 A1000 1000 0.0 0 0 61398 56940.1 " />
<path d="M65026.7 56929.9 A1000.2 1000.2 0.0 1 0 65028.5 58929.9 " />
<path d="M83256.7 58929.9 A1000.2 1000.2 0.0 1 0 83276.7 56929.7 " />
<path d="M86947.5 56929.9 A1000.2 1000.2 0.0 0 0 86986.7 58929.9 " />
<path d="M90906.7 15569.9 A1000.8 1000.8 0.0 0 0 90946.7 17570.7 " />
<path d="M54686.7 17609.9 A1000.8 1000.8 0.0 1 0 54686.7 15609.9 " />
<path d="M17266 15589
L17266 15589
" />
<path d="M30026 15589
L17266 15589
" />
<path d="M17306 17639
L30036 17629
" />
<path d="M33686 17609
L54686 17609
" />
<path d="M54666 15609
L33706 15609
" />
<path d="M30026.7 17629.9 A1020 1020 0.0 0 0 30026.7 15589.9 " />
<path d="M33706.7 15609.9 A1000.2 1000.2 0.0 1 0 33686.7 17610.1 " />
<path d="M87286 17599
L58456 17599
" />
<path d="M58306 15619
L87316 15619
" />
<path d="M58386.7 15609.9 A990.202 990.202 0.0 0 0 58426.7 17589.9 " />
<path d="M90951 17582
L96051 17582
" />
<path d="M96006 15569
L96006 10369
" />
<path d="M96006 10369
L96006 15569
" />
<path d="M96006 15569
L96006 10369
" />
<path d="M90906 15569
L96006 15569
" />
<path d="M96006 15569
L90906 15569
" />
<path d="M96006 10369
L96006 15569
" />
<path d="M87286.7 17609.9 A996 996 0.0 0 0 87294.8 15618 " />
<path d="M17266 10349
L96046 10349
" />
<path d="M17266 15589
L17266 10349
" />
</g>
<g style="fill:#000000; fill-opacity:0.0; 
stroke:#000000; stroke-width:236.22; stroke-opacity:1; 
stroke-linecap:round; stroke-linejoin:round;">
<path d="M20201 34904
L20201 33723
L20482 33723
L20651 33779
L20763 33891
L20819 34004
L20876 34229
L20876 34398
L20819 34623
L20763 34735
L20651 34847
L20482 34904
L20201 34904
" />
<path d="M21832 34847
L21719 34904
L21494 34904
L21382 34847
L21326 34735
L21326 34285
L21382 34173
L21494 34116
L21719 34116
L21832 34173
L21888 34285
L21888 34398
L21326 34510
" />
<path d="M22338 34847
L22450 34904
L22675 34904
L22788 34847
L22844 34735
L22844 34679
L22788 34566
L22675 34510
L22507 34510
L22394 34454
L22338 34341
L22338 34285
L22394 34173
L22507 34116
L22675 34116
L22788 34173
" />
<path d="M23350 34904
L23350 34116
" />
<path d="M23350 33723
L23294 33779
L23350 33835
L23407 33779
L23350 33723
L23350 33835
" />
<path d="M24419 34116
L24419 35072
L24363 35185
L24306 35241
L24194 35297
L24025 35297
L23913 35241
" />
<path d="M24419 34847
L24306 34904
L24081 34904
L23969 34847
L23913 34791
L23857 34679
L23857 34341
L23913 34229
L23969 34173
L24081 34116
L24306 34116
L24419 34173
" />
<path d="M24981 34116
L24981 34904
" />
<path d="M24981 34229
L25038 34173
L25150 34116
L25319 34116
L25431 34173
L25488 34285
L25488 34904
" />
<path d="M26500 34847
L26387 34904
L26162 34904
L26050 34847
L25994 34735
L25994 34285
L26050 34173
L26162 34116
L26387 34116
L26500 34173
L26556 34285
L26556 34398
L25994 34510
" />
<path d="M27569 34904
L27569 33723
" />
<path d="M27569 34847
L27456 34904
L27231 34904
L27119 34847
L27062 34791
L27006 34679
L27006 34341
L27062 34229
L27119 34173
L27231 34116
L27456 34116
L27569 34173
" />
<path d="M28918 34116
L29143 34904
L29368 34341
L29593 34904
L29818 34116
" />
<path d="M30268 34904
L30268 34116
" />
<path d="M30268 33723
L30212 33779
L30268 33835
L30324 33779
L30268 33723
L30268 33835
" />
<path d="M30662 34116
L31112 34116
" />
<path d="M30831 33723
L30831 34735
L30887 34847
L30999 34904
L31112 34904
" />
<path d="M31506 34904
L31506 33723
" />
<path d="M32012 34904
L32012 34285
L31956 34173
L31843 34116
L31674 34116
L31562 34173
L31506 34229
" />
</g>
<g style="fill:#000000; fill-opacity:0.0; 
stroke:#000000; stroke-width:157.48; stroke-opacity:1; 
stroke-linecap:round; stroke-linejoin:round;">
<path d="M64869 54426
L64799 54388
L64649 54388
L64569 54426
L64485 54501
L64438 54576
L64419 54726
L64447 54801
L64513 54876
L64583 54913
L64733 54913
L64813 54876
" />
<path d="M64757 54126
L64565 54163
L64363 54276
L64227 54463
L64166 54651
L64180 54838
L64269 55026
L64443 55138
L64625 55176
L64818 55138
L65019 55026
L65155 54838
L65216 54651
L65202 54463
L65113 54276
L64939 54163
L64757 54126
" />
<path d="M65830 54238
L65760 54801
L65708 54913
L65624 54988
L65507 55026
L65432 55026
" />
<path d="M66219 55026
L66149 54988
L66116 54951
L66088 54876
L66116 54651
L66163 54576
L66205 54538
L66285 54501
L66397 54501
L66467 54538
L66500 54576
L66528 54651
L66500 54876
L66453 54951
L66411 54988
L66331 55026
L66219 55026
" />
<path d="M66819 55026
L66917 54238
" />
<path d="M67156 55026
L67208 54613
L67180 54538
L67109 54501
L66997 54501
L66917 54538
L66875 54576
" />
<path d="M67597 54501
L67531 55026
" />
<path d="M67588 54576
L67630 54538
L67709 54501
L67822 54501
L67892 54538
L67920 54613
L67869 55026
" />
<path d="M68844 55026
L68942 54238
L69242 54238
L69312 54276
L69345 54313
L69373 54388
L69359 54501
L69312 54576
L69270 54613
L69190 54651
L68891 54651
" />
<path d="M69969 55026
L70020 54613
L69992 54538
L69922 54501
L69772 54501
L69692 54538
" />
<path d="M69973 54988
L69894 55026
L69706 55026
L69636 54988
L69608 54913
L69617 54838
L69664 54763
L69744 54726
L69931 54726
L70011 54688
" />
<path d="M70297 54501
L70597 54501
" />
<path d="M70442 54238
L70358 54913
L70386 54988
L70456 55026
L70531 55026
" />
<path d="M71098 54988
L71018 55026
L70868 55026
L70798 54988
L70770 54913
L70807 54613
L70854 54538
L70934 54501
L71084 54501
L71154 54538
L71182 54613
L71173 54688
L70789 54763
" />
<path d="M71468 55026
L71534 54501
" />
<path d="M71525 54576
L71567 54538
L71646 54501
L71759 54501
L71829 54538
L71857 54613
L71806 55026
" />
<path d="M71857 54613
L71904 54538
L71984 54501
L72096 54501
L72167 54538
L72195 54613
L72143 55026
" />
<path d="M72856 55026
L72907 54613
L72879 54538
L72809 54501
L72659 54501
L72579 54538
" />
<path d="M72860 54988
L72781 55026
L72593 55026
L72523 54988
L72495 54913
L72504 54838
L72551 54763
L72631 54726
L72818 54726
L72898 54688
" />
<path d="M73296 54501
L73231 55026
" />
<path d="M73287 54576
L73329 54538
L73409 54501
L73521 54501
L73591 54538
L73620 54613
L73568 55026
" />
<path d="M73985 54988
L73981 55026
L73934 55101
L73891 55138
" />
<path d="M75241 54238
L75171 54801
L75119 54913
L75035 54988
L74918 55026
L74843 55026
" />
<path d="M75518 55026
L75616 54238
L75916 54238
L75987 54276
L76019 54313
L76047 54388
L76033 54501
L75987 54576
L75944 54613
L75865 54651
L75565 54651
" />
<path d="M76957 54613
L77219 54613
" />
<path d="M77280 55026
L76905 55026
L77004 54238
L77379 54238
" />
<path d="M77683 54501
L77618 55026
" />
<path d="M77674 54576
L77716 54538
L77796 54501
L77908 54501
L77978 54538
L78007 54613
L77955 55026
" />
<path d="M78283 54501
L78583 54501
" />
<path d="M78428 54238
L78344 54913
L78372 54988
L78442 55026
L78517 55026
" />
<path d="M79085 54988
L79005 55026
L78855 55026
L78785 54988
L78756 54913
L78794 54613
L78841 54538
L78921 54501
L79070 54501
L79141 54538
L79169 54613
L79160 54688
L78775 54763
" />
<path d="M79455 55026
L79520 54501
" />
<path d="M79502 54651
L79549 54576
L79591 54538
L79670 54501
L79745 54501
" />
<path d="M80008 54501
L79909 55288
" />
<path d="M80003 54538
L80083 54501
L80233 54501
L80303 54538
L80336 54576
L80364 54651
L80336 54876
L80289 54951
L80247 54988
L80167 55026
L80017 55026
L79947 54988
" />
<path d="M80655 55026
L80720 54501
" />
<path d="M80702 54651
L80748 54576
L80791 54538
L80870 54501
L80945 54501
" />
<path d="M81142 55026
L81208 54501
" />
<path d="M81241 54238
L81198 54276
L81231 54313
L81273 54276
L81241 54238
L81231 54313
" />
<path d="M81484 54988
L81555 55026
L81705 55026
L81784 54988
L81831 54913
L81836 54876
L81808 54801
L81737 54763
L81625 54763
L81555 54726
L81526 54651
L81531 54613
L81578 54538
L81658 54501
L81770 54501
L81840 54538
" />
<path d="M82459 54988
L82379 55026
L82229 55026
L82159 54988
L82131 54913
L82169 54613
L82215 54538
L82295 54501
L82445 54501
L82515 54538
L82544 54613
L82534 54688
L82150 54763
" />
<path d="M82797 54988
L82867 55026
L83017 55026
L83097 54988
L83143 54913
L83148 54876
L83120 54801
L83050 54763
L82937 54763
L82867 54726
L82839 54651
L82843 54613
L82890 54538
L82970 54501
L83082 54501
L83153 54538
" />
</g>
<g style="fill:#000000; fill-opacity:0.0; 
stroke:#000000; stroke-width:236.22; stroke-opacity:1; 
stroke-linecap:round; stroke-linejoin:round;">
<path d="M44116 51223
L44791 51223
" />
<path d="M44453 52404
L44453 51223
" />
<path d="M45859 52291
L45803 52347
L45634 52404
L45522 52404
L45353 52347
L45241 52235
L45184 52123
L45128 51898
L45128 51729
L45184 51504
L45241 51391
L45353 51279
L45522 51223
L45634 51223
L45803 51279
L45859 51335
" />
<path d="M46534 51729
L46422 51673
L46366 51616
L46309 51504
L46309 51448
L46366 51335
L46422 51279
L46534 51223
L46759 51223
L46872 51279
L46928 51335
L46984 51448
L46984 51504
L46928 51616
L46872 51673
L46759 51729
L46534 51729
L46422 51785
L46366 51841
L46309 51954
L46309 52179
L46366 52291
L46422 52347
L46534 52404
L46759 52404
L46872 52347
L46928 52291
L46984 52179
L46984 51954
L46928 51841
L46872 51785
L46759 51729
" />
<path d="M36616 51223
L37291 51223
" />
<path d="M36953 52404
L36953 51223
" />
<path d="M38359 52291
L38303 52347
L38134 52404
L38022 52404
L37853 52347
L37741 52235
L37684 52123
L37628 51898
L37628 51729
L37684 51504
L37741 51391
L37853 51279
L38022 51223
L38134 51223
L38303 51279
L38359 51335
" />
<path d="M38753 51223
L39540 51223
L39034 52404
" />
<path d="M29116 51223
L29791 51223
" />
<path d="M29453 52404
L29453 51223
" />
<path d="M30859 52291
L30803 52347
L30634 52404
L30522 52404
L30353 52347
L30241 52235
L30184 52123
L30128 51898
L30128 51729
L30184 51504
L30241 51391
L30353 51279
L30522 51223
L30634 51223
L30803 51279
L30859 51335
" />
<path d="M31872 51223
L31647 51223
L31534 51279
L31478 51335
L31366 51504
L31309 51729
L31309 52179
L31366 52291
L31422 52347
L31534 52404
L31759 52404
L31872 52347
L31928 52291
L31984 52179
L31984 51898
L31928 51785
L31872 51729
L31759 51673
L31534 51673
L31422 51729
L31366 51785
L31309 51898
" />
<path d="M22616 51223
L23291 51223
" />
<path d="M22953 52404
L22953 51223
" />
<path d="M24359 52291
L24303 52347
L24134 52404
L24022 52404
L23853 52347
L23741 52235
L23684 52123
L23628 51898
L23628 51729
L23684 51504
L23741 51391
L23853 51279
L24022 51223
L24134 51223
L24303 51279
L24359 51335
" />
<path d="M25428 51223
L24866 51223
L24809 51785
L24866 51729
L24978 51673
L25259 51673
L25372 51729
L25428 51785
L25484 51898
L25484 52179
L25428 52291
L25372 52347
L25259 52404
L24978 52404
L24866 52347
L24809 52291
" />
<path d="M87616 50723
L88291 50723
" />
<path d="M87953 51904
L87953 50723
" />
<path d="M89359 51791
L89303 51847
L89134 51904
L89022 51904
L88853 51847
L88741 51735
L88684 51623
L88628 51398
L88628 51229
L88684 51004
L88741 50891
L88853 50779
L89022 50723
L89134 50723
L89303 50779
L89359 50835
" />
<path d="M90372 51116
L90372 51904
" />
<path d="M90090 50666
L89809 51510
L90540 51510
" />
<path d="M80616 50723
L81291 50723
" />
<path d="M80953 51904
L80953 50723
" />
<path d="M82359 51791
L82303 51847
L82134 51904
L82022 51904
L81853 51847
L81741 51735
L81684 51623
L81628 51398
L81628 51229
L81684 51004
L81741 50891
L81853 50779
L82022 50723
L82134 50723
L82303 50779
L82359 50835
" />
<path d="M82753 50723
L83484 50723
L83090 51173
L83259 51173
L83372 51229
L83428 51285
L83484 51398
L83484 51679
L83428 51791
L83372 51847
L83259 51904
L82922 51904
L82809 51847
L82753 51791
" />
<path d="M73616 50723
L74291 50723
" />
<path d="M73953 51904
L73953 50723
" />
<path d="M75359 51791
L75303 51847
L75134 51904
L75022 51904
L74853 51847
L74741 51735
L74684 51623
L74628 51398
L74628 51229
L74684 51004
L74741 50891
L74853 50779
L75022 50723
L75134 50723
L75303 50779
L75359 50835
" />
<path d="M75809 50835
L75866 50779
L75978 50723
L76259 50723
L76372 50779
L76428 50835
L76484 50948
L76484 51060
L76428 51229
L75753 51904
L76484 51904
" />
<path d="M66016 50563
L66691 50563
" />
<path d="M66353 51744
L66353 50563
" />
<path d="M67759 51631
L67703 51687
L67534 51744
L67422 51744
L67253 51687
L67141 51575
L67084 51463
L67028 51238
L67028 51069
L67084 50844
L67141 50731
L67253 50619
L67422 50563
L67534 50563
L67703 50619
L67759 50675
" />
<path d="M68884 51744
L68209 51744
" />
<path d="M68547 51744
L68547 50563
L68434 50731
L68322 50844
L68209 50900
" />
<path d="M25636 54389
L25524 54333
L25468 54276
L25411 54164
L25411 54108
L25468 53995
L25524 53939
L25636 53883
L25861 53883
L25974 53939
L26030 53995
L26086 54108
L26086 54164
L26030 54276
L25974 54333
L25861 54389
L25636 54389
L25524 54445
L25468 54501
L25411 54614
L25411 54839
L25468 54951
L25524 55007
L25636 55064
L25861 55064
L25974 55007
L26030 54951
L26086 54839
L26086 54614
L26030 54501
L25974 54445
L25861 54389
" />
<path d="M26593 54614
L27492 54614
" />
<path d="M28730 54951
L28673 55007
L28505 55064
L28392 55064
L28224 55007
L28111 54895
L28055 54783
L27999 54558
L27999 54389
L28055 54164
L28111 54051
L28224 53939
L28392 53883
L28505 53883
L28673 53939
L28730 53995
" />
<path d="M29236 55064
L29236 53883
" />
<path d="M29742 55064
L29742 54445
L29686 54333
L29573 54276
L29405 54276
L29292 54333
L29236 54389
" />
<path d="M30811 55064
L30811 54445
L30754 54333
L30642 54276
L30417 54276
L30305 54333
" />
<path d="M30811 55007
L30698 55064
L30417 55064
L30305 55007
L30248 54895
L30248 54783
L30305 54670
L30417 54614
L30698 54614
L30811 54558
" />
<path d="M31373 54276
L31373 55064
" />
<path d="M31373 54389
L31429 54333
L31542 54276
L31711 54276
L31823 54333
L31879 54445
L31879 55064
" />
<path d="M32442 54276
L32442 55064
" />
<path d="M32442 54389
L32498 54333
L32611 54276
L32779 54276
L32892 54333
L32948 54445
L32948 55064
" />
<path d="M33960 55007
L33848 55064
L33623 55064
L33510 55007
L33454 54895
L33454 54445
L33510 54333
L33623 54276
L33848 54276
L33960 54333
L34017 54445
L34017 54558
L33454 54670
" />
<path d="M34691 55064
L34579 55007
L34523 54895
L34523 53883
" />
<path d="M35873 53883
L36548 53883
" />
<path d="M36210 55064
L36210 53883
" />
<path d="M36941 55064
L36941 53883
" />
<path d="M37447 55064
L37447 54445
L37391 54333
L37279 54276
L37110 54276
L36997 54333
L36941 54389
" />
<path d="M38460 55007
L38347 55064
L38122 55064
L38010 55007
L37954 54895
L37954 54445
L38010 54333
L38122 54276
L38347 54276
L38460 54333
L38516 54445
L38516 54558
L37954 54670
" />
<path d="M39022 55064
L39022 54276
" />
<path d="M39022 54501
L39078 54389
L39135 54333
L39247 54276
L39360 54276
" />
<path d="M39753 55064
L39753 54276
" />
<path d="M39753 54389
L39810 54333
L39922 54276
L40091 54276
L40203 54333
L40260 54445
L40260 55064
" />
<path d="M40260 54445
L40316 54333
L40428 54276
L40597 54276
L40709 54333
L40766 54445
L40766 55064
" />
<path d="M41497 55064
L41384 55007
L41328 54951
L41272 54839
L41272 54501
L41328 54389
L41384 54333
L41497 54276
L41666 54276
L41778 54333
L41834 54389
L41891 54501
L41891 54839
L41834 54951
L41778 55007
L41666 55064
L41497 55064
" />
<path d="M42903 55007
L42790 55064
L42566 55064
L42453 55007
L42397 54951
L42341 54839
L42341 54501
L42397 54389
L42453 54333
L42566 54276
L42790 54276
L42903 54333
" />
<path d="M43578 55064
L43465 55007
L43409 54951
L43353 54839
L43353 54501
L43409 54389
L43465 54333
L43578 54276
L43747 54276
L43859 54333
L43915 54389
L43972 54501
L43972 54839
L43915 54951
L43859 55007
L43747 55064
L43578 55064
" />
<path d="M44984 54276
L44984 55064
" />
<path d="M44478 54276
L44478 54895
L44534 55007
L44647 55064
L44815 55064
L44928 55007
L44984 54951
" />
<path d="M45546 54276
L45546 55457
" />
<path d="M45546 54333
L45659 54276
L45884 54276
L45996 54333
L46053 54389
L46109 54501
L46109 54839
L46053 54951
L45996 55007
L45884 55064
L45659 55064
L45546 55007
" />
<path d="M46784 55064
L46671 55007
L46615 54895
L46615 53883
" />
<path d="M47684 55007
L47571 55064
L47346 55064
L47234 55007
L47177 54895
L47177 54445
L47234 54333
L47346 54276
L47571 54276
L47684 54333
L47740 54445
L47740 54558
L47177 54670
" />
<path d="M49146 55064
L49146 53883
L49427 53883
L49596 53939
L49708 54051
L49765 54164
L49821 54389
L49821 54558
L49765 54783
L49708 54895
L49596 55007
L49427 55064
L49146 55064
" />
<path d="M50833 55064
L50833 54445
L50777 54333
L50665 54276
L50440 54276
L50327 54333
" />
<path d="M50833 55007
L50721 55064
L50440 55064
L50327 55007
L50271 54895
L50271 54783
L50327 54670
L50440 54614
L50721 54614
L50833 54558
" />
<path d="M51227 54276
L51677 54276
" />
<path d="M51396 53883
L51396 54895
L51452 55007
L51564 55064
L51677 55064
" />
<path d="M52577 55064
L52577 54445
L52521 54333
L52408 54276
L52183 54276
L52071 54333
" />
<path d="M52577 55007
L52464 55064
L52183 55064
L52071 55007
L52014 54895
L52014 54783
L52071 54670
L52183 54614
L52464 54614
L52577 54558
" />
<path d="M53308 55064
L53195 55007
L53139 54895
L53139 53883
" />
<path d="M53927 55064
L53814 55007
L53758 54951
L53702 54839
L53702 54501
L53758 54389
L53814 54333
L53927 54276
L54095 54276
L54208 54333
L54264 54389
L54320 54501
L54320 54839
L54264 54951
L54208 55007
L54095 55064
L53927 55064
" />
<path d="M55333 54276
L55333 55232
L55276 55345
L55220 55401
L55108 55457
L54939 55457
L54826 55401
" />
<path d="M55333 55007
L55220 55064
L54995 55064
L54883 55007
L54826 54951
L54770 54839
L54770 54501
L54826 54389
L54883 54333
L54995 54276
L55220 54276
L55333 54333
" />
<path d="M56401 54276
L56401 55232
L56345 55345
L56289 55401
L56176 55457
L56008 55457
L55895 55401
" />
<path d="M56401 55007
L56289 55064
L56064 55064
L55951 55007
L55895 54951
L55839 54839
L55839 54501
L55895 54389
L55951 54333
L56064 54276
L56289 54276
L56401 54333
" />
<path d="M57414 55007
L57301 55064
L57076 55064
L56964 55007
L56907 54895
L56907 54445
L56964 54333
L57076 54276
L57301 54276
L57414 54333
L57470 54445
L57470 54558
L56907 54670
" />
<path d="M57976 55064
L57976 54276
" />
<path d="M57976 54501
L58032 54389
L58089 54333
L58201 54276
L58314 54276
" />
</g>
<g style="fill:#000000; fill-opacity:0.0; 
stroke:#000000; stroke-width:118.11; stroke-opacity:1; 
stroke-linecap:round; stroke-linejoin:round;">
<path d="M39458 38628
L39570 38666
L39758 38666
L39833 38628
L39870 38591
L39908 38516
L39908 38441
L39870 38366
L39833 38328
L39758 38291
L39608 38253
L39533 38216
L39495 38178
L39458 38103
L39458 38028
L39495 37953
L39533 37916
L39608 37878
L39795 37878
L39908 37916
" />
<path d="M40545 38628
L40470 38666
L40320 38666
L40245 38628
L40208 38553
L40208 38253
L40245 38178
L40320 38141
L40470 38141
L40545 38178
L40583 38253
L40583 38328
L40208 38403
" />
<path d="M41032 38666
L40958 38628
L40920 38553
L40920 37878
" />
<path d="M41632 38628
L41557 38666
L41407 38666
L41332 38628
L41295 38553
L41295 38253
L41332 38178
L41407 38141
L41557 38141
L41632 38178
L41670 38253
L41670 38328
L41295 38403
" />
<path d="M42345 38628
L42270 38666
L42120 38666
L42045 38628
L42007 38591
L41970 38516
L41970 38291
L42007 38216
L42045 38178
L42120 38141
L42270 38141
L42345 38178
" />
<path d="M42570 38141
L42870 38141
" />
<path d="M42682 37878
L42682 38553
L42720 38628
L42795 38666
L42870 38666
" />
<path d="M33683 37568
L33795 37606
L33983 37606
L34058 37568
L34095 37531
L34133 37456
L34133 37381
L34095 37306
L34058 37268
L33983 37231
L33833 37193
L33758 37156
L33720 37118
L33683 37043
L33683 36968
L33720 36893
L33758 36856
L33833 36818
L34020 36818
L34133 36856
" />
<path d="M34395 37081
L34545 37606
L34695 37231
L34845 37606
L34995 37081
" />
<path d="M35295 37606
L35295 37081
" />
<path d="M35295 36818
L35258 36856
L35295 36893
L35332 36856
L35295 36818
L35295 36893
" />
<path d="M35557 37081
L35857 37081
" />
<path d="M35670 36818
L35670 37493
L35707 37568
L35782 37606
L35857 37606
" />
<path d="M36457 37568
L36382 37606
L36232 37606
L36157 37568
L36120 37531
L36082 37456
L36082 37231
L36120 37156
L36157 37118
L36232 37081
L36382 37081
L36457 37118
" />
<path d="M36795 37606
L36795 36818
" />
<path d="M37132 37606
L37132 37193
L37095 37118
L37020 37081
L36907 37081
L36832 37118
L36795 37156
" />
</g>
<g style="fill:#000000; fill-opacity:0.0; 
stroke:#000000; stroke-width:157.48; stroke-opacity:1; 
stroke-linecap:round; stroke-linejoin:round;">
<path d="M70275 19626
L70275 18838
L70463 18838
L70575 18876
L70650 18951
L70688 19026
L70725 19176
L70725 19288
L70688 19438
L70650 19513
L70575 19588
L70463 19626
L70275 19626
" />
<path d="M71063 19626
L71063 19101
" />
<path d="M71063 18838
L71025 18876
L71063 18913
L71100 18876
L71063 18838
L71063 18913
" />
<path d="M71400 19588
L71475 19626
L71625 19626
L71700 19588
L71738 19513
L71738 19476
L71700 19401
L71625 19363
L71513 19363
L71438 19326
L71400 19251
L71400 19213
L71438 19138
L71513 19101
L71625 19101
L71700 19138
" />
<path d="M72075 19101
L72075 19888
" />
<path d="M72075 19138
L72150 19101
L72300 19101
L72375 19138
L72412 19176
L72450 19251
L72450 19476
L72412 19551
L72375 19588
L72300 19626
L72150 19626
L72075 19588
" />
<path d="M72900 19626
L72825 19588
L72787 19513
L72787 18838
" />
<path d="M73537 19626
L73537 19213
L73500 19138
L73425 19101
L73275 19101
L73200 19138
" />
<path d="M73537 19588
L73462 19626
L73275 19626
L73200 19588
L73162 19513
L73162 19438
L73200 19363
L73275 19326
L73462 19326
L73537 19288
" />
<path d="M73837 19101
L74025 19626
" />
<path d="M74212 19101
L74025 19626
L73950 19813
L73912 19851
L73837 19888
" />
<path d="M69150 41288
L69263 41326
L69450 41326
L69525 41288
L69563 41251
L69600 41176
L69600 41101
L69563 41026
L69525 40988
L69450 40951
L69300 40913
L69225 40876
L69188 40838
L69150 40763
L69150 40688
L69188 40613
L69225 40576
L69300 40538
L69488 40538
L69600 40576
" />
<path d="M70238 41288
L70163 41326
L70013 41326
L69938 41288
L69900 41213
L69900 40913
L69938 40838
L70013 40801
L70163 40801
L70238 40838
L70275 40913
L70275 40988
L69900 41063
" />
<path d="M70612 41326
L70612 40801
" />
<path d="M70612 40951
L70650 40876
L70687 40838
L70762 40801
L70837 40801
" />
<path d="M71100 41326
L71100 40801
" />
<path d="M71100 40538
L71062 40576
L71100 40613
L71137 40576
L71100 40538
L71100 40613
" />
<path d="M71812 41326
L71812 40913
L71775 40838
L71700 40801
L71550 40801
L71475 40838
" />
<path d="M71812 41288
L71737 41326
L71550 41326
L71475 41288
L71437 41213
L71437 41138
L71475 41063
L71550 41026
L71737 41026
L71812 40988
" />
<path d="M72300 41326
L72225 41288
L72187 41213
L72187 40538
" />
<path d="M76950 40913
L77213 40913
" />
<path d="M77325 41326
L76950 41326
L76950 40538
L77325 40538
" />
<path d="M77663 40801
L77663 41326
" />
<path d="M77663 40876
L77700 40838
L77775 40801
L77888 40801
L77963 40838
L78000 40913
L78000 41326
" />
<path d="M78713 41288
L78638 41326
L78488 41326
L78413 41288
L78375 41251
L78338 41176
L78338 40951
L78375 40876
L78413 40838
L78488 40801
L78638 40801
L78713 40838
" />
<path d="M79162 41326
L79087 41288
L79050 41251
L79012 41176
L79012 40951
L79050 40876
L79087 40838
L79162 40801
L79275 40801
L79350 40838
L79387 40876
L79425 40951
L79425 41176
L79387 41251
L79350 41288
L79275 41326
L79162 41326
" />
<path d="M80100 41326
L80100 40538
" />
<path d="M80100 41288
L80025 41326
L79875 41326
L79800 41288
L79762 41251
L79725 41176
L79725 40951
L79762 40876
L79800 40838
L79875 40801
L80025 40801
L80100 40838
" />
<path d="M80775 41288
L80700 41326
L80550 41326
L80475 41288
L80437 41213
L80437 40913
L80475 40838
L80550 40801
L80700 40801
L80775 40838
L80812 40913
L80812 40988
L80437 41063
" />
<path d="M81150 41326
L81150 40801
" />
<path d="M81150 40951
L81187 40876
L81225 40838
L81300 40801
L81375 40801
" />
<path d="M17306 56949
L17306 17639
" />
<path d="M96046 56929
L96046 17599
" />
</g>
<g style="fill:#000000; fill-opacity:0.0; 
stroke:#000000; stroke-width:78.7402; stroke-opacity:1; 
stroke-linecap:round; stroke-linejoin:round;">
<circle cx="23563.4" cy="18858.1" r="196.85" /> 
</g>
<g style="fill:#000000; fill-opacity:0.0; 
stroke:#000000; stroke-width:157.48; stroke-opacity:1; 
stroke-linecap:round; stroke-linejoin:round;">
<path d="M29468 18464
L29468 19448
" />
<path d="M29075 18464
L29468 18464
" />
<path d="M29075 16889
L29075 18464
" />
<path d="M25138 16889
L29075 16889
" />
<path d="M25138 17873
L25138 16889
" />
<path d="M24153 22204
L24744 22204
" />
<path d="M24153 23188
L24153 22204
" />
<path d="M24744 23188
L24153 23188
" />
<path d="M24744 27322
L24744 23188
" />
<path d="M24744 30669
L24744 29684
" />
<path d="M26319 30669
L24744 30669
" />
<path d="M29468 30669
L28878 30669
" />
<path d="M29468 23779
L29468 30669
" />
</g>
<g style="fill:#000000; fill-opacity:0.0; 
stroke:#000000; stroke-width:94.4882; stroke-opacity:1; 
stroke-linecap:round; stroke-linejoin:round;">
<path d="M75610 21868
L75743 21735
" />
<path d="M74607 20866
L75610 21868
" />
<path d="M73605 23873
L72603 22871
" />
<path d="M72380 21089
L72826 20643
" />
<path d="M75832 23650
L75387 24095
" />
<path d="M76055 23873
L75832 23650
" />
<path d="M36177 27088
L36177 25867
" />
<path d="M36177 22891
L36177 24111
" />
<path d="M40382 23489
L40382 24111
" />
<path d="M40382 26489
L40382 25867
" />
<path d="M36177 27088
L39783 27088
" />
<path d="M39783 27088
L40382 26489
" />
<path d="M40382 23489
L39783 22891
" />
<path d="M39783 22891
L36177 22891
" />
<path d="M34736 18873
L30051 18873
" />
<path d="M30051 18873
L30051 24858
" />
<path d="M30051 24858
L34736 24858
" />
<path d="M34736 24858
L34736 18873
" />
<path d="M34736 21472
L34146 21472
" />
<path d="M34146 21472
L34146 22259
" />
<path d="M34146 22259
L34736 22259
" />
<path d="M34736 22259
L34736 21472
" />
<path d="M34736 18873
L34146 18873
" />
<path d="M34146 18873
L34146 20291
" />
<path d="M34146 20291
L34736 20291
" />
<path d="M34736 20291
L34736 18873
" />
<path d="M34736 23440
L34146 23440
" />
<path d="M34146 23440
L34146 24858
" />
<path d="M34146 24858
L34736 24858
" />
<path d="M34736 24858
L34736 23440
" />
<path d="M32965 18873
L32965 19464
" />
<path d="M32965 19464
L30642 19464
" />
<path d="M30642 19464
L30642 21865
" />
<path d="M32965 24858
L32965 24267
" />
<path d="M32965 24267
L30642 24267
" />
<path d="M30642 24267
L30642 21865
" />
<path d="M34972 20606
L34972 18637
" />
<path d="M34972 18637
L33004 18637
" />
<path d="M21214 23558
L21214 26629
" />
<path d="M19639 23558
L19639 26629
" />
<path d="M21214 23558
L19639 23558
" />
<path d="M19378 30220
L19378 30343
" />
<path d="M19378 28396
L19378 28519
" />
<path d="M19787.1 30220.3 A1181.1 1181.1 0.0 0 0 21426.5 30220.2 " />
<path d="M21426.5 28519.7 A1181.1 1181.1 0.0 0 0 19787.1 28519.5 " />
<path d="M19378.4 30342.8 A1566.93 1566.93 0.0 0 0 21923.5 30219.2 " />
<path d="M21923.5 28520.6 A1566.93 1566.93 0.0 0 0 19378.4 28397.1 " />
</g>
<g style="fill:#000000; fill-opacity:0.0; 
stroke:#000000; stroke-width:78.7402; stroke-opacity:1; 
stroke-linecap:round; stroke-linejoin:round;">
<path d="M87272.1 17569.9 A1000 1000 0.0 0 0 87272.1 15569.9 " />
<path d="M90941.4 15569.9 A1000 1000 0.0 0 0 90941.4 17569.9 " />
<path d="M83292.2 58923.8 A1000 1000 0.0 0 0 83292.2 56923.8 " />
<path d="M86961.5 56923.8 A1000 1000 0.0 0 0 86961.5 58923.8 " />
<path d="M20372.1 58939.9 A1000 1000 0.0 0 0 20372.1 56939.9 " />
<path d="M24041.4 56939.9 A1000 1000 0.0 0 0 24041.4 58939.9 " />
<path d="M61382.1 58939.9 A1000 1000 0.0 0 0 61382.1 56939.9 " />
<path d="M65051.4 56939.9 A1000 1000 0.0 0 0 65051.4 58939.9 " />
<path d="M30012.1 17609.9 A1000 1000 0.0 0 0 30012.1 15609.9 " />
<path d="M33681.4 15609.9 A1000 1000 0.0 0 0 33681.4 17609.9 " />
<path d="M54732.1 17609.9 A1000 1000 0.0 0 0 54732.1 15609.9 " />
<path d="M58401.4 15609.9 A1000 1000 0.0 0 0 58401.4 17609.9 " />
</g>
<g style="fill:#000000; fill-opacity:1.0; 
stroke:#000000; stroke-width:7.87402; stroke-opacity:1; 
stroke-linecap:round; stroke-linejoin:round;">
<polyline style="fill-rule:evenodd;"
points="23347,36088
23364,36094
23379,36107
23391,36130
23400,36164
23408,36214
23414,36281
23419,36367
23422,36476
23424,36609
23426,36770
23426,36960
23426,37182
23426,37439
23426,37733
23426,37779
23426,38075
23426,38333
23426,38556
23425,38747
23424,38908
23423,39042
23421,39151
23419,39238
23416,39306
23413,39356
23409,39392
23405,39416
23400,39431
23395,39438
23386,39444
23370,39448
23345,39453
23307,39456
23254,39459
23185,39462
23095,39464
22984,39466
22848,39467
22684,39468
22491,39469
22266,39469
22006,39469
21709,39469
21666,39469
21364,39469
21099,39469
20870,39469
20672,39468
20505,39467
20365,39466
20251,39464
20159,39462
20086,39460
20032,39457
19992,39453
19965,39449
19948,39444
19939,39439
19938,39438
19932,39429
19927,39413
19923,39387
19919,39349
19916,39296
19913,39225
19911,39134
19910,39021
19908,38883
19907,38716
19907,38520
19906,38291
19906,38027
19906,37779
19906,37484
19907,37226
19907,37002
19908,36812
19909,36650
19909,36555
20126,36555
20134,36575
20155,36617
20166,36639
20175,36658
20182,36678
20188,36703
20193,36738
20197,36784
20200,36845
20202,36925
20204,37028
20205,37155
20206,37311
20206,37499
20206,37722
20206,37830
20206,38037
20205,38233
20204,38413
20202,38573
20200,38711
20198,38822
20195,38903
20192,38950
20190,38960
20171,38992
20150,39034
20127,39089
20542,39089
20664,39088
20770,39086
20854,39083
20910,39080
20934,39076
20934,39074
20910,39047
20882,39002
20879,38995
20867,38966
20859,38926
20853,38871
20849,38793
20847,38688
20846,38548
20846,38540
20847,38401
20850,38288
20854,38207
20860,38160
20866,38149
20889,38165
20919,38202
20920,38204
20952,38249
20979,38279
21003,38309
21035,38358
21046,38377
21079,38429
21128,38499
21184,38573
21195,38587
21280,38699
21351,38807
21405,38903
21438,38982
21446,39028
21446,39089
22333,39089
22324,39079
22446,39079
22465,39082
22518,39085
22599,39087
22701,39089
22818,39089
22826,39089
22965,39089
23069,39087
23140,39083
23184,39077
23203,39069
23206,39064
23194,39030
23176,39001
23168,38986
23162,38960
23158,38920
23154,38863
23151,38784
23149,38680
23147,38548
23147,38384
23146,38186
23146,38096
23146,37229
22465,37229
22496,37288
22504,37309
22510,37339
22515,37383
22519,37444
22522,37526
22524,37633
22525,37769
22526,37938
22526,38129
22526,38327
22526,38490
22525,38620
22523,38723
22521,38802
22517,38861
22513,38905
22506,38937
22498,38962
22489,38984
22486,38989
22462,39039
22448,39073
22446,39079
22324,39079
22285,39035
22250,38996
22228,38971
22226,38970
22181,38920
22124,38854
22065,38781
22011,38711
21971,38655
21955,38630
21923,38579
21873,38508
21812,38424
21746,38337
21683,38257
21634,38198
21587,38138
21542,38072
21539,38066
21438,37910
21363,37808
21308,37736
21372,37667
21427,37605
21498,37521
21577,37425
21654,37328
21722,37240
21744,37210
21984,36910
22173,36708
22329,36549
21900,36549
21754,36550
21643,36551
21563,36554
21508,36560
21474,36571
21455,36587
21448,36610
21446,36641
21446,36657
21434,36699
21403,36752
21389,36770
21343,36831
21294,36902
21276,36929
21242,36982
21216,37019
21207,37029
21183,37053
21144,37096
21097,37152
21049,37212
21006,37266
20977,37307
20966,37325
20953,37348
20920,37386
20906,37399
20846,37457
20846,37126
20847,36982
20852,36870
20861,36780
20875,36706
20896,36637
20916,36584
20919,36573
20912,36564
20890,36557
20850,36553
20785,36551
20692,36550
20564,36549
20528,36549
20406,36550
20299,36550
20213,36552
20154,36553
20127,36555
20126,36555
19909,36555
19910,36517
19912,36407
19914,36320
19916,36253
19920,36202
19923,36166
19928,36142
19933,36128
19938,36121
19947,36114
19965,36109
19993,36104
20035,36100
20093,36097
20171,36095
20270,36093
20395,36091
20548,36090
20733,36090
20951,36090
21206,36089
22486,36089
22486,36165
22502,36256
22544,36350
22603,36429
22644,36464
22734,36501
22837,36509
22942,36491
23039,36448
23116,36382
23128,36367
23165,36287
23182,36196
23191,36089
23277,36089
23304,36088
23327,36087
23347,36088
" /> 
<polyline style="fill-rule:evenodd;"
points="24995,36532
25028,36540
25083,36558
25158,36586
25243,36621
25327,36658
25402,36693
25457,36721
25481,36738
25474,36756
25448,36799
25410,36860
25364,36930
25315,37003
25269,37070
25230,37125
25205,37157
25182,37155
25141,37131
25107,37104
24992,37032
24863,36996
24738,36995
24604,37027
24490,37093
24398,37191
24328,37321
24279,37482
24254,37674
24252,37889
24268,38084
24304,38247
24360,38379
24437,38485
24537,38569
24560,38583
24621,38615
24677,38632
24747,38638
24796,38638
24922,38626
25031,38588
25137,38520
25176,38487
25219,38452
25248,38433
25254,38432
25271,38458
25302,38508
25342,38575
25387,38651
25431,38728
25471,38798
25503,38855
25521,38889
25523,38896
25503,38906
25458,38930
25396,38963
25393,38965
25265,39028
25152,39072
25040,39099
24915,39115
24796,39121
24644,39122
24525,39115
24453,39102
24270,39035
24103,38934
23953,38801
23825,38640
23722,38455
23647,38248
23643,38235
23614,38088
23600,37920
23598,37744
23611,37574
23637,37426
23644,37400
23724,37185
23836,36991
23979,36822
24150,36680
24166,36669
24306,36596
24470,36544
24647,36515
24825,36511
24995,36532
" /> 
<polyline style="fill-rule:evenodd;"
points="26635,37198
26774,37230
26867,37265
26940,37309
27005,37367
27047,37410
27082,37451
27109,37493
27131,37542
27147,37602
27159,37678
27168,37774
27175,37894
27179,38043
27183,38225
27185,38320
27188,38503
27191,38650
27195,38765
27199,38854
27203,38920
27209,38967
27216,39000
27224,39023
27232,39035
27267,39089
26629,39089
26616,38969
26538,39022
26415,39084
26273,39120
26123,39129
25979,39108
25953,39101
25806,39036
25687,38943
25598,38826
25541,38686
25518,38527
25518,38509
25519,38487
26092,38487
26095,38557
26103,38581
26153,38644
26227,38687
26317,38706
26410,38697
26440,38688
26509,38655
26552,38614
26576,38555
26586,38469
26586,38426
26586,38269
26456,38269
26327,38281
26218,38315
26142,38363
26109,38415
26092,38487
25519,38487
25520,38419
25531,38351
25554,38285
25572,38245
25655,38122
25768,38023
25913,37948
26088,37898
26293,37873
26404,37870
26591,37869
26581,37788
26552,37699
26496,37637
26412,37603
26301,37597
26166,37618
26026,37661
25960,37683
25909,37694
25884,37694
25883,37694
25870,37669
25846,37617
25817,37548
25786,37473
25758,37402
25737,37345
25727,37312
25726,37309
25743,37294
25778,37289
25818,37285
25887,37271
25972,37252
26033,37237
26242,37197
26446,37184
26635,37198
" /> 
<polyline style="fill-rule:evenodd;"
points="29171,37674
29172,37934
29173,38157
29174,38346
29176,38504
29178,38634
29180,38738
29183,38821
29186,38886
29190,38934
29194,38969
29200,38995
29206,39013
29212,39024
29247,39089
28606,39089
28606,39029
28604,38987
28597,38969
28597,38969
28577,38980
28535,39005
28514,39020
28410,39072
28284,39109
28151,39128
28025,39126
27946,39111
27801,39047
27671,38951
27565,38831
27517,38750
27464,38626
27429,38496
27411,38347
27407,38200
27407,38189
28037,38189
28041,38328
28051,38433
28071,38511
28102,38569
28146,38614
28172,38631
28256,38661
28355,38659
28461,38624
28480,38615
28556,38576
28562,38143
28567,37711
28514,37676
28464,37655
28394,37639
28348,37633
28278,37631
28232,37639
28192,37661
28172,37678
28119,37736
28080,37811
28055,37909
28041,38035
28037,38189
27407,38189
27420,37967
27457,37763
27519,37587
27605,37442
27713,37328
27845,37246
27998,37196
28029,37191
28120,37184
28221,37190
28320,37205
28409,37228
28478,37257
28516,37289
28532,37308
28545,37304
28554,37274
28561,37214
28564,37122
28566,36994
28566,36924
28566,36787
28564,36683
28561,36607
28555,36552
28547,36511
28536,36479
28528,36464
28491,36389
29165,36389
29171,37674
" /> 
</g>
<g style="fill:#000000; fill-opacity:1.0; 
stroke:#000000; stroke-width:94.4882; stroke-opacity:1; 
stroke-linecap:round; stroke-linejoin:round;">
</g>
<g style="fill:#000000; fill-opacity:0.0; 
stroke:#000000; stroke-width:94.4882; stroke-opacity:1; 
stroke-linecap:round; stroke-linejoin:round;">
<path d="M79083 22489
L81130 22489
" />
<path d="M82823 27450
L82626 27450
" />
<path d="M82823 22489
L82823 27450
" />
<path d="M82626 22489
L82823 22489
" />
<path d="M81130 27450
L79083 27450
" />
<path d="M77390 22489
L77587 22489
" />
<path d="M77390 27450
L77390 22489
" />
<path d="M77587 27450
L77390 27450
" />
</g>
<g style="fill:#000000; fill-opacity:0.0; 
stroke:#000000; stroke-width:118.11; stroke-opacity:1; 
stroke-linecap:round; stroke-linejoin:round;">
<path d="M72992 30659
L73785 29865
" />
<path d="M69080 34821
L69261 34640
" />
<path d="M65044 30784
L65225 30603
" />
<path d="M69080 26747
L68899 26928
" />
<path d="M73117 30784
L72936 30965
" />
<path d="M69080 26747
L69261 26928
" />
<path d="M65044 30784
L65225 30965
" />
<path d="M69080 34821
L68899 34640
" />
<path d="M73117 30784
L72992 30659
" />
<path d="M84732 28283
L84732 25921
" />
<path d="M85441 28637
L85205 28637
" />
<path d="M85441 28873
L85441 28637
" />
<path d="M85205 28873
L85441 28873
" />
<path d="M85205 28637
L85205 28873
" />
<path d="M85520 24700
L91189 24700
" />
<path d="M95756 24700
L93394 24700
" />
<path d="M95756 26826
L95756 24700
" />
<path d="M93394 36275
L95205 36275
" />
<path d="M91189 36275
L85520 36275
" />
<path d="M84732 28283
L83709 28283
" />
<path d="M95520 27653
L95756 26826
" />
<path d="M95362 28519
L95520 27653
" />
<path d="M95244 29425
L95362 28519
" />
<path d="M95205 30488
L95244 29425
" />
<path d="M95205 36275
L95205 30488
" />
</g>
<g style="fill:#000000; fill-opacity:0.0; 
stroke:#000000; stroke-width:94.4882; stroke-opacity:1; 
stroke-linecap:round; stroke-linejoin:round;">
<path d="M33581 36342
L35549 36342
" />
<path d="M33581 34374
L33581 36342
" />
<path d="M37912 30712
L37912 33114
" />
<path d="M35589 30712
L37912 30712
" />
<path d="M35589 30122
L35589 30712
" />
<path d="M37912 35515
L37912 33114
" />
<path d="M35589 35515
L37912 35515
" />
<path d="M35589 36106
L35589 35515
" />
<path d="M33817 30122
L33817 31539
" />
<path d="M34408 30122
L33817 30122
" />
<path d="M34408 31539
L34408 30122
" />
<path d="M33817 31539
L34408 31539
" />
<path d="M33817 34688
L33817 36106
" />
<path d="M34408 34688
L33817 34688
" />
<path d="M34408 36106
L34408 34688
" />
<path d="M33817 36106
L34408 36106
" />
<path d="M33817 32720
L33817 33507
" />
<path d="M34408 32720
L33817 32720
" />
<path d="M34408 33507
L34408 32720
" />
<path d="M33817 33507
L34408 33507
" />
<path d="M33817 30122
L33817 36106
" />
<path d="M38502 30122
L33817 30122
" />
<path d="M38502 36106
L38502 30122
" />
<path d="M33817 36106
L38502 36106
" />
<path d="M62479 23217
L62479 22169
" />
<path d="M63526 23217
L62479 23217
" />
<path d="M64526 21169
L64526 23217
" />
<path d="M62479 21169
L64526 21169
" />
<path d="M62479 19122
L62479 21169
" />
<path d="M68573 19122
L62479 19122
" />
<path d="M68573 23217
L68573 19122
" />
<path d="M64526 23217
L68573 23217
" />
<path d="M72315 26396
L72872 25839
" />
<path d="M71925 24892
L71369 25449
" />
<path d="M70785 23672
L70229 24229
" />
<path d="M71175 25176
L71732 24619
" />
</g>
<g style="fill:#000000; fill-opacity:0.0; 
stroke:#000000; stroke-width:118.11; stroke-opacity:1; 
stroke-linecap:round; stroke-linejoin:round;">
<path d="M59583 27057
L59583 25856
" />
<path d="M51413 27057
L51413 33159
" />
<path d="M59799 27057
L59799 33159
" />
<path d="M51413 27057
L51693 27057
" />
<path d="M51413 33159
L51693 33159
" />
<path d="M59799 33159
L59520 33159
" />
<path d="M59799 27057
L59583 27057
" />
</g>
<g style="fill:#000000; fill-opacity:0.0; 
stroke:#000000; stroke-width:94.4882; stroke-opacity:1; 
stroke-linecap:round; stroke-linejoin:round;">
<path d="M82676 33203
L82676 32416
" />
<path d="M81337 32416
L81337 33203
" />
<path d="M77337 32428
L77337 33216
" />
<path d="M78676 33216
L78676 32428
" />
<path d="M81313 36082
L81313 35137
" />
<path d="M82699 35137
L82699 36082
" />
<path d="M78699 35137
L78699 36082
" />
<path d="M77313 36082
L77313 35137
" />
<path d="M80699 35137
L80699 36082
" />
<path d="M79313 36082
L79313 35137
" />
<path d="M80676 33203
L80676 32416
" />
<path d="M79337 32416
L79337 33203
" />
<path d="M76919 40337
L76919 39289
" />
<path d="M77966 40337
L76919 40337
" />
<path d="M78966 38242
L78966 40337
" />
<path d="M87013 38242
L78966 38242
" />
<path d="M87013 40337
L87013 38242
" />
<path d="M78966 40337
L87013 40337
" />
<path d="M63413 50802
L63413 49857
" />
<path d="M64799 49857
L64799 50802
" />
<path d="M42559 50097
L42559 51042
" />
<path d="M41173 51042
L41173 50097
" />
<path d="M72597 50037
L77282 50037
" />
<path d="M77282 50037
L77282 44053
" />
<path d="M77282 44053
L72597 44053
" />
<path d="M72597 44053
L72597 50037
" />
<path d="M72597 47439
L73188 47439
" />
<path d="M73188 47439
L73188 46651
" />
<path d="M73188 46651
L72597 46651
" />
<path d="M72597 46651
L72597 47439
" />
<path d="M72597 50037
L73188 50037
" />
<path d="M73188 50037
L73188 48620
" />
<path d="M73188 48620
L72597 48620
" />
<path d="M72597 48620
L72597 50037
" />
<path d="M72597 45470
L73188 45470
" />
<path d="M73188 45470
L73188 44053
" />
<path d="M73188 44053
L72597 44053
" />
<path d="M72597 44053
L72597 45470
" />
<path d="M74369 50037
L74369 49447
" />
<path d="M74369 49447
L76692 49447
" />
<path d="M76692 49447
L76692 47045
" />
<path d="M74369 44053
L74369 44644
" />
<path d="M74369 44644
L76692 44644
" />
<path d="M76692 44644
L76692 47045
" />
<path d="M72361 48305
L72361 50274
" />
<path d="M72361 50274
L74329 50274
" />
</g>
<g style="fill:#000000; fill-opacity:0.0; 
stroke:#000000; stroke-width:78.7402; stroke-opacity:1; 
stroke-linecap:round; stroke-linejoin:round;">
<path d="M62373 42302
L61074 42302
" />
<path d="M62373 43602
L62373 42302
" />
<path d="M62373 52436
L61074 52436
" />
<path d="M62373 51137
L62373 52436
" />
<path d="M52239 42302
L53539 42302
" />
<path d="M52239 43602
L52239 42302
" />
<path d="M53145 52436
L53539 52436
" />
<path d="M52239 51531
L53145 52436
" />
<path d="M52239 51137
L52239 51531
" />
</g>
<g style="fill:#000000; fill-opacity:0.0; 
stroke:#000000; stroke-width:94.4882; stroke-opacity:1; 
stroke-linecap:round; stroke-linejoin:round;">
<path d="M71999 43284
L71999 44229
" />
<path d="M70613 44229
L70613 43284
" />
<path d="M49300 20700
L48513 20700
" />
<path d="M48513 22039
L49300 22039
" />
<path d="M48513 20439
L49300 20439
" />
<path d="M49300 19100
L48513 19100
" />
<path d="M48513 23639
L49300 23639
" />
<path d="M49300 22300
L48513 22300
" />
<path d="M63437 46376
L63437 47163
" />
<path d="M64776 47163
L64776 46376
" />
<path d="M70637 46588
L70637 47376
" />
<path d="M71976 47376
L71976 46588
" />
<path d="M77837 46276
L77837 47063
" />
<path d="M79176 47063
L79176 46276
" />
<path d="M86376 47043
L86376 46256
" />
<path d="M85037 46256
L85037 47043
" />
<path d="M28185 47363
L28185 46576
" />
<path d="M26847 46576
L26847 47363
" />
<path d="M35336 47363
L35336 46576
" />
<path d="M33997 46576
L33997 47363
" />
<path d="M41247 46597
L41247 47385
" />
<path d="M42585 47385
L42585 46597
" />
<path d="M49476 47663
L49476 46876
" />
<path d="M48137 46876
L48137 47663
" />
<path d="M64799 43297
L64799 44242
" />
<path d="M63413 44242
L63413 43297
" />
<path d="M70613 50990
L70613 50045
" />
<path d="M71999 50045
L71999 50990
" />
<path d="M77813 43842
L77813 42897
" />
<path d="M79199 42897
L79199 43842
" />
<path d="M79199 49697
L79199 50642
" />
<path d="M77813 50642
L77813 49697
" />
<path d="M85013 43894
L85013 42949
" />
<path d="M86399 42949
L86399 43894
" />
<path d="M86399 49697
L86399 50642
" />
<path d="M85013 50642
L85013 49697
" />
<path d="M26823 44242
L26823 43297
" />
<path d="M28209 43297
L28209 44242
" />
<path d="M28159 50097
L28159 51042
" />
<path d="M26773 51042
L26773 50097
" />
<path d="M35359 43297
L35359 44242
" />
<path d="M33973 44242
L33973 43297
" />
<path d="M33973 51042
L33973 50097
" />
<path d="M35359 50097
L35359 51042
" />
<path d="M41173 44242
L41173 43297
" />
<path d="M42559 43297
L42559 44242
" />
<path d="M50159 43297
L50159 44242
" />
<path d="M48773 44242
L48773 43297
" />
<path d="M48773 51042
L48773 50097
" />
<path d="M50159 50097
L50159 51042
" />
<path d="M19339 24805
L19339 25750
" />
<path d="M17953 25750
L17953 24805
" />
<path d="M32619 27922
L31674 27922
" />
<path d="M31674 26537
L32619 26537
" />
<path d="M61234 34677
L62179 34677
" />
<path d="M62179 36062
L61234 36062
" />
<path d="M74662 26945
L75330 27614
" />
<path d="M74350 28593
L73682 27925
" />
<path d="M62179 34462
L61234 34462
" />
<path d="M61234 33077
L62179 33077
" />
<path d="M79541 50014
L81509 50014
" />
<path d="M79541 48045
L79541 50014
" />
<path d="M83872 44384
L83872 46785
" />
<path d="M81549 44384
L83872 44384
" />
<path d="M81549 43793
L81549 44384
" />
<path d="M83872 49187
L83872 46785
" />
<path d="M81549 49187
L83872 49187
" />
<path d="M81549 49777
L81549 49187
" />
<path d="M79777 43793
L79777 45210
" />
<path d="M80368 43793
L79777 43793
" />
<path d="M80368 45210
L80368 43793
" />
<path d="M79777 45210
L80368 45210
" />
<path d="M79777 48360
L79777 49777
" />
<path d="M80368 48360
L79777 48360
" />
<path d="M80368 49777
L80368 48360
" />
<path d="M79777 49777
L80368 49777
" />
<path d="M79777 46391
L79777 47179
" />
<path d="M80368 46391
L79777 46391
" />
<path d="M80368 47179
L80368 46391
" />
<path d="M79777 47179
L80368 47179
" />
<path d="M79777 43793
L79777 49777
" />
<path d="M84462 43793
L79777 43793
" />
<path d="M84462 49777
L84462 43793
" />
<path d="M79777 49777
L84462 49777
" />
<path d="M86977 49777
L91662 49777
" />
<path d="M91662 49777
L91662 43793
" />
<path d="M91662 43793
L86977 43793
" />
<path d="M86977 43793
L86977 49777
" />
<path d="M86977 47179
L87568 47179
" />
<path d="M87568 47179
L87568 46391
" />
<path d="M87568 46391
L86977 46391
" />
<path d="M86977 46391
L86977 47179
" />
<path d="M86977 49777
L87568 49777
" />
<path d="M87568 49777
L87568 48360
" />
<path d="M87568 48360
L86977 48360
" />
<path d="M86977 48360
L86977 49777
" />
<path d="M86977 45210
L87568 45210
" />
<path d="M87568 45210
L87568 43793
" />
<path d="M87568 43793
L86977 43793
" />
<path d="M86977 43793
L86977 45210
" />
<path d="M88749 49777
L88749 49187
" />
<path d="M88749 49187
L91072 49187
" />
<path d="M91072 49187
L91072 46785
" />
<path d="M88749 43793
L88749 44384
" />
<path d="M88749 44384
L91072 44384
" />
<path d="M91072 44384
L91072 46785
" />
<path d="M86741 48045
L86741 50014
" />
<path d="M86741 50014
L88709 50014
" />
<path d="M21301 50382
L23269 50382
" />
<path d="M21301 48414
L21301 50382
" />
<path d="M25632 44752
L25632 47154
" />
<path d="M23309 44752
L25632 44752
" />
<path d="M23309 44162
L23309 44752
" />
<path d="M25632 49555
L25632 47154
" />
<path d="M23309 49555
L25632 49555
" />
<path d="M23309 50146
L23309 49555
" />
<path d="M21537 44162
L21537 45579
" />
<path d="M22128 44162
L21537 44162
" />
<path d="M22128 45579
L22128 44162
" />
<path d="M21537 45579
L22128 45579
" />
<path d="M21537 48728
L21537 50146
" />
<path d="M22128 48728
L21537 48728
" />
<path d="M22128 50146
L22128 48728
" />
<path d="M21537 50146
L22128 50146
" />
<path d="M21537 46760
L21537 47547
" />
<path d="M22128 46760
L21537 46760
" />
<path d="M22128 47547
L22128 46760
" />
<path d="M21537 47547
L22128 47547
" />
<path d="M21537 44162
L21537 50146
" />
<path d="M26222 44162
L21537 44162
" />
<path d="M26222 50146
L26222 44162
" />
<path d="M21537 50146
L26222 50146
" />
<path d="M28737 50177
L33422 50177
" />
<path d="M33422 50177
L33422 44193
" />
<path d="M33422 44193
L28737 44193
" />
<path d="M28737 44193
L28737 50177
" />
<path d="M28737 47579
L29328 47579
" />
<path d="M29328 47579
L29328 46791
" />
<path d="M29328 46791
L28737 46791
" />
<path d="M28737 46791
L28737 47579
" />
<path d="M28737 50177
L29328 50177
" />
<path d="M29328 50177
L29328 48760
" />
<path d="M29328 48760
L28737 48760
" />
<path d="M28737 48760
L28737 50177
" />
<path d="M28737 45610
L29328 45610
" />
<path d="M29328 45610
L29328 44193
" />
<path d="M29328 44193
L28737 44193
" />
<path d="M28737 44193
L28737 45610
" />
<path d="M30509 50177
L30509 49587
" />
<path d="M30509 49587
L32832 49587
" />
<path d="M32832 49587
L32832 47185
" />
<path d="M30509 44193
L30509 44784
" />
<path d="M30509 44784
L32832 44784
" />
<path d="M32832 44784
L32832 47185
" />
<path d="M28501 48445
L28501 50414
" />
<path d="M28501 50414
L30469 50414
" />
<path d="M35701 50414
L37669 50414
" />
<path d="M35701 48445
L35701 50414
" />
<path d="M40032 44784
L40032 47185
" />
<path d="M37709 44784
L40032 44784
" />
<path d="M37709 44193
L37709 44784
" />
<path d="M40032 49587
L40032 47185
" />
<path d="M37709 49587
L40032 49587
" />
<path d="M37709 50177
L37709 49587
" />
<path d="M35937 44193
L35937 45610
" />
<path d="M36528 44193
L35937 44193
" />
<path d="M36528 45610
L36528 44193
" />
<path d="M35937 45610
L36528 45610
" />
<path d="M35937 48760
L35937 50177
" />
<path d="M36528 48760
L35937 48760
" />
<path d="M36528 50177
L36528 48760
" />
<path d="M35937 50177
L36528 50177
" />
<path d="M35937 46791
L35937 47579
" />
<path d="M36528 46791
L35937 46791
" />
<path d="M36528 47579
L36528 46791
" />
<path d="M35937 47579
L36528 47579
" />
<path d="M35937 44193
L35937 50177
" />
<path d="M40622 44193
L35937 44193
" />
<path d="M40622 50177
L40622 44193
" />
<path d="M35937 50177
L40622 50177
" />
<path d="M43077 50126
L47762 50126
" />
<path d="M47762 50126
L47762 44142
" />
<path d="M47762 44142
L43077 44142
" />
<path d="M43077 44142
L43077 50126
" />
<path d="M43077 47527
L43668 47527
" />
<path d="M43668 47527
L43668 46740
" />
<path d="M43668 46740
L43077 46740
" />
<path d="M43077 46740
L43077 47527
" />
<path d="M43077 50126
L43668 50126
" />
<path d="M43668 50126
L43668 48708
" />
<path d="M43668 48708
L43077 48708
" />
<path d="M43077 48708
L43077 50126
" />
<path d="M43077 45559
L43668 45559
" />
<path d="M43668 45559
L43668 44142
" />
<path d="M43668 44142
L43077 44142
" />
<path d="M43077 44142
L43077 45559
" />
<path d="M44849 50126
L44849 49535
" />
<path d="M44849 49535
L47172 49535
" />
<path d="M47172 49535
L47172 47134
" />
<path d="M44849 44142
L44849 44732
" />
<path d="M44849 44732
L47172 44732
" />
<path d="M47172 44732
L47172 47134
" />
<path d="M42841 48394
L42841 50362
" />
<path d="M42841 50362
L44809 50362
" />
<path d="M60462 31768
L60462 30618
" />
<path d="M62950 31768
L62950 30067
" />
<path d="M62950 31768
L62218 31768
" />
<path d="M60462 31768
L61194 31768
" />
<path d="M41203 31253
L43251 31253
" />
<path d="M44944 36213
L44747 36213
" />
<path d="M44944 31253
L44944 36213
" />
<path d="M44747 31253
L44944 31253
" />
<path d="M43251 36213
L41203 36213
" />
<path d="M39510 31253
L39707 31253
" />
<path d="M39510 36213
L39510 31253
" />
<path d="M39707 36213
L39510 36213
" />
<path d="M65377 49777
L70062 49777
" />
<path d="M70062 49777
L70062 43793
" />
<path d="M70062 43793
L65377 43793
" />
<path d="M65377 43793
L65377 49777
" />
<path d="M65377 47179
L65968 47179
" />
<path d="M65968 47179
L65968 46391
" />
<path d="M65968 46391
L65377 46391
" />
<path d="M65377 46391
L65377 47179
" />
<path d="M65377 49777
L65968 49777
" />
<path d="M65968 49777
L65968 48360
" />
<path d="M65968 48360
L65377 48360
" />
<path d="M65377 48360
L65377 49777
" />
<path d="M65377 45210
L65968 45210
" />
<path d="M65968 45210
L65968 43793
" />
<path d="M65968 43793
L65377 43793
" />
<path d="M65377 43793
L65377 45210
" />
<path d="M67149 49777
L67149 49187
" />
<path d="M67149 49187
L69472 49187
" />
<path d="M69472 49187
L69472 46785
" />
<path d="M67149 43793
L67149 44384
" />
<path d="M67149 44384
L69472 44384
" />
<path d="M69472 44384
L69472 46785
" />
<path d="M65141 48045
L65141 50014
" />
<path d="M65141 50014
L67109 50014
" />
</g>
<g style="fill:#000000; fill-opacity:0.0; 
stroke:#000000; stroke-width:118.11; stroke-opacity:1; 
stroke-linecap:round; stroke-linejoin:round;">
<path d="M60372 36541
L59270 36541
" />
<path d="M60372 40557
L63640 40557
" />
<path d="M60372 36502
L63640 36502
" />
<path d="M60372 40557
L60372 40443
" />
<path d="M63640 40557
L63640 40443
" />
<path d="M63640 36502
L63640 36616
" />
<path d="M60372 36502
L60372 36541
" />
</g>
<g style="fill:#000000; fill-opacity:0.0; 
stroke:#000000; stroke-width:94.4882; stroke-opacity:1; 
stroke-linecap:round; stroke-linejoin:round;">
<path d="M39783 18212
L36177 18212
" />
<path d="M40382 18810
L39783 18212
" />
<path d="M39783 22409
L40382 21810
" />
<path d="M36177 22409
L39783 22409
" />
<path d="M40382 21810
L40382 21188
" />
<path d="M40382 18810
L40382 19432
" />
<path d="M36177 18212
L36177 19432
" />
<path d="M36177 22409
L36177 21188
" />
<path d="M51536 47663
L51536 46876
" />
<path d="M50197 46876
L50197 47663
" />
<path d="M46810 24348
L46810 25214
" />
<path d="M47023 24348
L46810 24348
" />
<path d="M47023 23167
L47023 24348
" />
<path d="M41802 24348
L41802 26576
" />
<path d="M41590 24348
L41802 24348
" />
<path d="M41590 23167
L41590 24348
" />
<path d="M47662 26168
L47662 25018
" />
<path d="M50150 26168
L50150 24467
" />
<path d="M50150 26168
L49418 26168
" />
<path d="M47662 26168
L48394 26168
" />
<path d="M86953 18322
L86953 19369
" />
<path d="M85906 18322
L86953 18322
" />
<path d="M84906 20417
L84906 18322
" />
<path d="M74859 20417
L84906 20417
" />
<path d="M74859 18322
L74859 20417
" />
<path d="M84906 18322
L74859 18322
" />
<path d="M62179 27062
L61234 27062
" />
<path d="M61234 25677
L62179 25677
" />
<path d="M69159 40317
L69159 39269
" />
<path d="M70206 40317
L69159 40317
" />
<path d="M71206 40317
L71206 38222
" />
<path d="M71206 38222
L75253 38222
" />
<path d="M71206 40317
L75253 40317
" />
<path d="M75253 40317
L75253 38222
" />
<path d="M23074 23558
L21499 23558
" />
<path d="M21499 23558
L21499 26629
" />
<path d="M23074 23558
L23074 26629
" />
<path d="M65355 35064
L65911 35621
" />
<path d="M66858 34675
L66301 34118
" />
<path d="M79974 28997
L80919 28997
" />
<path d="M80919 30382
L79974 30382
" />
<path d="M86799 21897
L86799 22842
" />
<path d="M85413 22842
L85413 21897
" />
</g>
<g style="fill:#000000; fill-opacity:0.0; 
stroke:#000000; stroke-width:39.3701; stroke-opacity:1; 
stroke-linecap:round; stroke-linejoin:round;">
<path d="M23218 27556
L23781 27556
L23894 27594
L23969 27669
L24007 27782
L24007 27857
" />
<path d="M24007 26768
L24007 27219
" />
<path d="M24007 26993
L23218 26993
L23331 27068
L23406 27143
L23444 27219
" />
<path d="M30293 28951
L30293 29214
" />
<path d="M30706 29214
L29918 29214
L29918 28839
" />
<path d="M30631 28088
L30669 28126
L30706 28238
L30706 28313
L30669 28426
L30594 28501
L30519 28539
L30369 28576
L30256 28576
L30106 28539
L30031 28501
L29956 28426
L29918 28313
L29918 28238
L29956 28126
L29993 28088
" />
<path d="M29918 27413
L29918 27563
L29956 27638
L29993 27675
L30106 27750
L30256 27788
L30556 27788
L30631 27750
L30669 27713
L30706 27638
L30706 27488
L30669 27413
L30631 27375
L30556 27337
L30369 27337
L30293 27375
L30256 27413
L30218 27488
L30218 27638
L30256 27713
L30293 27750
L30369 27788
" />
<path d="M30256 26887
L30218 26962
L30181 27000
L30106 27037
L30068 27037
L29993 27000
L29956 26962
L29918 26887
L29918 26737
L29956 26662
L29993 26624
L30068 26587
L30106 26587
L30181 26624
L30218 26662
L30256 26737
L30256 26887
L30293 26962
L30331 27000
L30406 27037
L30556 27037
L30631 27000
L30669 26962
L30706 26887
L30706 26737
L30669 26662
L30631 26624
L30556 26587
L30406 26587
L30331 26624
L30293 26662
L30256 26737
" />
<path d="M30706 25836
L30706 26286
" />
<path d="M30706 26061
L29918 26061
L30031 26136
L30106 26211
L30143 26286
" />
<path d="M29993 25536
L29956 25498
L29918 25423
L29918 25236
L29956 25160
L29993 25123
L30068 25085
L30143 25085
L30256 25123
L30706 25573
L30706 25085
" />
<path d="M29918 24823
L29918 24297
L30706 24635
" />
</g>
<g style="fill:#000000; fill-opacity:0.0; 
stroke:#000000; stroke-width:118.11; stroke-opacity:1; 
stroke-linecap:round; stroke-linejoin:round;">
<path d="M72295 23650
L72030 23915
" />
<path d="M72401 23173
L72295 23650
L72773 23544
" />
<path d="M72693 24578
L72375 24260
" />
<path d="M72534 24419
L73091 23862
L72958 23889
L72852 23889
L72773 23862
" />
<path d="M42261 26301
L42298 26338
L42336 26451
L42336 26526
L42298 26638
L42223 26713
L42148 26751
L41998 26788
L41886 26788
L41736 26751
L41661 26713
L41586 26638
L41548 26526
L41548 26451
L41586 26338
L41623 26301
" />
<path d="M42336 25551
L42336 26001
" />
<path d="M42336 25776
L41548 25776
L41661 25851
L41736 25926
L41773 26001
" />
<path d="M40641 23183
L41241 23183
" />
<path d="M40941 23483
L40941 22883
" />
<path d="M35507 22484
L35544 22372
L35582 22334
L35657 22297
L35769 22297
L35844 22334
L35882 22372
L35919 22447
L35919 22747
L35132 22747
L35132 22484
L35169 22409
L35207 22372
L35282 22334
L35357 22334
L35432 22372
L35469 22409
L35507 22484
L35507 22747
" />
<path d="M35132 22072
L35132 21622
" />
<path d="M35919 21847
L35132 21847
" />
<path d="M35919 20947
L35919 21397
" />
<path d="M35919 21172
L35132 21172
L35244 21247
L35319 21322
L35357 21397
" />
</g>
<g style="fill:#000000; fill-opacity:0.0; 
stroke:#000000; stroke-width:98.4252; stroke-opacity:1; 
stroke-linecap:round; stroke-linejoin:round;">
<path d="M20116 23248
L20116 22854
L20209 22854
L20266 22873
L20303 22910
L20322 22948
L20341 23023
L20341 23079
L20322 23154
L20303 23191
L20266 23229
L20209 23248
L20116 23248
" />
<path d="M20491 22891
L20509 22873
L20547 22854
L20641 22854
L20678 22873
L20697 22891
L20716 22929
L20716 22966
L20697 23023
L20472 23248
L20716 23248
" />
</g>
<g style="fill:#000000; fill-opacity:0.0; 
stroke:#000000; stroke-width:118.11; stroke-opacity:1; 
stroke-linecap:round; stroke-linejoin:round;">
<path d="M22525 31626
L22525 30838
L22713 30838
L22825 30876
L22900 30951
L22938 31026
L22975 31176
L22975 31288
L22938 31438
L22900 31513
L22825 31588
L22713 31626
L22525 31626
" />
<path d="M23725 31626
L23275 31626
" />
<path d="M23500 31626
L23500 30838
L23425 30951
L23350 31026
L23275 31063
" />
<path d="M29905 13046
L29643 12671
" />
<path d="M29455 13046
L29455 12258
L29755 12258
L29830 12296
L29868 12333
L29905 12408
L29905 12521
L29868 12596
L29830 12633
L29755 12671
L29455 12671
" />
<path d="M30543 13008
L30468 13046
L30318 13046
L30243 13008
L30205 12933
L30205 12633
L30243 12558
L30318 12521
L30468 12521
L30543 12558
L30580 12633
L30580 12708
L30205 12783
" />
<path d="M31255 12521
L31255 13158
L31218 13233
L31180 13271
L31105 13308
L30993 13308
L30918 13271
" />
<path d="M31255 13008
L31180 13046
L31030 13046
L30955 13008
L30918 12971
L30880 12896
L30880 12671
L30918 12596
L30955 12558
L31030 12521
L31180 12521
L31255 12558
" />
<path d="M31630 13046
L31630 12521
" />
<path d="M31630 12258
L31593 12296
L31630 12333
L31668 12296
L31630 12258
L31630 12333
" />
<path d="M31968 13008
L32043 13046
L32193 13046
L32268 13008
L32305 12933
L32305 12896
L32268 12821
L32193 12783
L32080 12783
L32005 12746
L31968 12671
L31968 12633
L32005 12558
L32080 12521
L32193 12521
L32268 12558
" />
<path d="M32530 12521
L32830 12521
" />
<path d="M32643 12258
L32643 12933
L32680 13008
L32755 13046
L32830 13046
" />
<path d="M33093 13046
L33093 12521
" />
<path d="M33093 12671
L33130 12596
L33168 12558
L33243 12521
L33318 12521
" />
<path d="M33917 13046
L33917 12633
L33880 12558
L33805 12521
L33655 12521
L33580 12558
" />
<path d="M33917 13008
L33842 13046
L33655 13046
L33580 13008
L33542 12933
L33542 12858
L33580 12783
L33655 12746
L33842 12746
L33917 12708
" />
<path d="M34180 12521
L34480 12521
" />
<path d="M34292 12258
L34292 12933
L34330 13008
L34405 13046
L34480 13046
" />
<path d="M34742 13046
L34742 12521
" />
<path d="M34742 12258
L34705 12296
L34742 12333
L34780 12296
L34742 12258
L34742 12333
" />
<path d="M35230 13046
L35155 13008
L35117 12971
L35080 12896
L35080 12671
L35117 12596
L35155 12558
L35230 12521
L35342 12521
L35417 12558
L35455 12596
L35492 12671
L35492 12896
L35455 12971
L35417 13008
L35342 13046
L35230 13046
" />
<path d="M35830 12521
L35830 13046
" />
<path d="M35830 12596
L35867 12558
L35942 12521
L36055 12521
L36130 12558
L36167 12633
L36167 13046
" />
<path d="M36355 13121
L36955 13121
" />
<path d="M37105 12333
L37142 12296
L37217 12258
L37404 12258
L37479 12296
L37517 12333
L37554 12408
L37554 12483
L37517 12596
L37067 13046
L37554 13046
" />
<path d="M72125 13226
L71863 12851
" />
<path d="M71675 13226
L71675 12438
L71975 12438
L72050 12476
L72088 12513
L72125 12588
L72125 12701
L72088 12776
L72050 12813
L71975 12851
L71675 12851
" />
<path d="M72763 13188
L72688 13226
L72538 13226
L72463 13188
L72425 13113
L72425 12813
L72463 12738
L72538 12701
L72688 12701
L72763 12738
L72800 12813
L72800 12888
L72425 12963
" />
<path d="M73475 12701
L73475 13338
L73438 13413
L73400 13451
L73325 13488
L73213 13488
L73138 13451
" />
<path d="M73475 13188
L73400 13226
L73250 13226
L73175 13188
L73138 13151
L73100 13076
L73100 12851
L73138 12776
L73175 12738
L73250 12701
L73400 12701
L73475 12738
" />
<path d="M73850 13226
L73850 12701
" />
<path d="M73850 12438
L73813 12476
L73850 12513
L73888 12476
L73850 12438
L73850 12513
" />
<path d="M74188 13188
L74263 13226
L74413 13226
L74488 13188
L74525 13113
L74525 13076
L74488 13001
L74413 12963
L74300 12963
L74225 12926
L74188 12851
L74188 12813
L74225 12738
L74300 12701
L74413 12701
L74488 12738
" />
<path d="M74750 12701
L75050 12701
" />
<path d="M74863 12438
L74863 13113
L74900 13188
L74975 13226
L75050 13226
" />
<path d="M75313 13226
L75313 12701
" />
<path d="M75313 12851
L75350 12776
L75388 12738
L75463 12701
L75538 12701
" />
<path d="M76137 13226
L76137 12813
L76100 12738
L76025 12701
L75875 12701
L75800 12738
" />
<path d="M76137 13188
L76062 13226
L75875 13226
L75800 13188
L75762 13113
L75762 13038
L75800 12963
L75875 12926
L76062 12926
L76137 12888
" />
<path d="M76400 12701
L76700 12701
" />
<path d="M76512 12438
L76512 13113
L76550 13188
L76625 13226
L76700 13226
" />
<path d="M76962 13226
L76962 12701
" />
<path d="M76962 12438
L76925 12476
L76962 12513
L77000 12476
L76962 12438
L76962 12513
" />
<path d="M77450 13226
L77375 13188
L77337 13151
L77300 13076
L77300 12851
L77337 12776
L77375 12738
L77450 12701
L77562 12701
L77637 12738
L77675 12776
L77712 12851
L77712 13076
L77675 13151
L77637 13188
L77562 13226
L77450 13226
" />
<path d="M78050 12701
L78050 13226
" />
<path d="M78050 12776
L78087 12738
L78162 12701
L78275 12701
L78350 12738
L78387 12813
L78387 13226
" />
<path d="M78575 13301
L79175 13301
" />
<path d="M79774 13226
L79325 13226
" />
<path d="M79550 13226
L79550 12438
L79475 12551
L79400 12626
L79325 12663
" />
<path d="M31392 60214
L31129 59839
" />
<path d="M30942 60214
L30942 59426
L31242 59426
L31317 59464
L31354 59501
L31392 59576
L31392 59689
L31354 59764
L31317 59801
L31242 59839
L30942 59839
" />
<path d="M32029 60176
L31954 60214
L31804 60214
L31729 60176
L31692 60101
L31692 59801
L31729 59726
L31804 59689
L31954 59689
L32029 59726
L32066 59801
L32066 59876
L31692 59951
" />
<path d="M32741 59689
L32741 60326
L32704 60401
L32666 60439
L32591 60476
L32479 60476
L32404 60439
" />
<path d="M32741 60176
L32666 60214
L32516 60214
L32441 60176
L32404 60139
L32366 60064
L32366 59839
L32404 59764
L32441 59726
L32516 59689
L32666 59689
L32741 59726
" />
<path d="M33116 60214
L33116 59689
" />
<path d="M33116 59426
L33079 59464
L33116 59501
L33154 59464
L33116 59426
L33116 59501
" />
<path d="M33454 60176
L33529 60214
L33679 60214
L33754 60176
L33791 60101
L33791 60064
L33754 59989
L33679 59951
L33566 59951
L33491 59914
L33454 59839
L33454 59801
L33491 59726
L33566 59689
L33679 59689
L33754 59726
" />
<path d="M34016 59689
L34316 59689
" />
<path d="M34129 59426
L34129 60101
L34166 60176
L34241 60214
L34316 60214
" />
<path d="M34579 60214
L34579 59689
" />
<path d="M34579 59839
L34616 59764
L34654 59726
L34729 59689
L34804 59689
" />
<path d="M35404 60214
L35404 59801
L35366 59726
L35291 59689
L35141 59689
L35066 59726
" />
<path d="M35404 60176
L35329 60214
L35141 60214
L35066 60176
L35029 60101
L35029 60026
L35066 59951
L35141 59914
L35329 59914
L35404 59876
" />
<path d="M35666 59689
L35966 59689
" />
<path d="M35779 59426
L35779 60101
L35816 60176
L35891 60214
L35966 60214
" />
<path d="M36228 60214
L36228 59689
" />
<path d="M36228 59426
L36191 59464
L36228 59501
L36266 59464
L36228 59426
L36228 59501
" />
<path d="M36716 60214
L36641 60176
L36603 60139
L36566 60064
L36566 59839
L36603 59764
L36641 59726
L36716 59689
L36828 59689
L36903 59726
L36941 59764
L36978 59839
L36978 60064
L36941 60139
L36903 60176
L36828 60214
L36716 60214
" />
<path d="M37316 59689
L37316 60214
" />
<path d="M37316 59764
L37353 59726
L37428 59689
L37541 59689
L37616 59726
L37653 59801
L37653 60214
" />
<path d="M37841 60289
L38441 60289
" />
<path d="M38553 59426
L39041 59426
L38778 59726
L38891 59726
L38966 59764
L39003 59801
L39041 59876
L39041 60064
L39003 60139
L38966 60176
L38891 60214
L38666 60214
L38591 60176
L38553 60139
" />
<path d="M79699 60844
L79436 60469
" />
<path d="M79249 60844
L79249 60056
L79549 60056
L79624 60094
L79661 60131
L79699 60206
L79699 60319
L79661 60394
L79624 60431
L79549 60469
L79249 60469
" />
<path d="M80336 60806
L80261 60844
L80111 60844
L80036 60806
L79999 60731
L79999 60431
L80036 60356
L80111 60319
L80261 60319
L80336 60356
L80374 60431
L80374 60506
L79999 60581
" />
<path d="M81048 60319
L81048 60956
L81011 61031
L80973 61069
L80899 61106
L80786 61106
L80711 61069
" />
<path d="M81048 60806
L80973 60844
L80824 60844
L80749 60806
L80711 60769
L80674 60694
L80674 60469
L80711 60394
L80749 60356
L80824 60319
L80973 60319
L81048 60356
" />
<path d="M81423 60844
L81423 60319
" />
<path d="M81423 60056
L81386 60094
L81423 60131
L81461 60094
L81423 60056
L81423 60131
" />
<path d="M81761 60806
L81836 60844
L81986 60844
L82061 60806
L82098 60731
L82098 60694
L82061 60619
L81986 60581
L81873 60581
L81798 60544
L81761 60469
L81761 60431
L81798 60356
L81873 60319
L81986 60319
L82061 60356
" />
<path d="M82323 60319
L82623 60319
" />
<path d="M82436 60056
L82436 60731
L82473 60806
L82548 60844
L82623 60844
" />
<path d="M82886 60844
L82886 60319
" />
<path d="M82886 60469
L82923 60394
L82961 60356
L83036 60319
L83111 60319
" />
<path d="M83711 60844
L83711 60431
L83673 60356
L83598 60319
L83448 60319
L83373 60356
" />
<path d="M83711 60806
L83636 60844
L83448 60844
L83373 60806
L83336 60731
L83336 60656
L83373 60581
L83448 60544
L83636 60544
L83711 60506
" />
<path d="M83973 60319
L84273 60319
" />
<path d="M84086 60056
L84086 60731
L84123 60806
L84198 60844
L84273 60844
" />
<path d="M84536 60844
L84536 60319
" />
<path d="M84536 60056
L84498 60094
L84536 60131
L84573 60094
L84536 60056
L84536 60131
" />
<path d="M85023 60844
L84948 60806
L84911 60769
L84873 60694
L84873 60469
L84911 60394
L84948 60356
L85023 60319
L85135 60319
L85210 60356
L85248 60394
L85285 60469
L85285 60694
L85248 60769
L85210 60806
L85135 60844
L85023 60844
" />
<path d="M85623 60319
L85623 60844
" />
<path d="M85623 60394
L85660 60356
L85735 60319
L85848 60319
L85923 60356
L85960 60431
L85960 60844
" />
<path d="M86148 60919
L86748 60919
" />
<path d="M87273 60319
L87273 60844
" />
<path d="M87085 60019
L86898 60581
L87385 60581
" />
<path d="M76925 25919
L76962 25807
L76962 25619
L76925 25544
L76887 25507
L76812 25469
L76737 25469
L76662 25507
L76625 25544
L76587 25619
L76550 25769
L76512 25844
L76475 25882
L76400 25919
L76325 25919
L76250 25882
L76213 25844
L76175 25769
L76175 25582
L76213 25469
" />
<path d="M76175 25207
L76962 25019
L76400 24869
L76962 24719
L76175 24532
" />
<path d="M76250 24269
L76213 24232
L76175 24157
L76175 23970
L76213 23895
L76250 23857
L76325 23820
L76400 23820
L76512 23857
L76962 24307
L76962 23820
" />
<path d="M75115 30465
L74558 29908
" />
<path d="M75645 29829
L75645 29882
L75592 29988
L75539 30041
L75433 30094
L75327 30094
L75247 30067
L75115 29988
L75035 29908
L74956 29775
L74929 29696
L74929 29590
L74982 29484
L75035 29431
L75141 29378
L75194 29378
" />
<path d="M76228 29351
L75910 29669
" />
<path d="M76069 29510
L75512 28954
L75539 29086
L75539 29192
L75512 29272
" />
<path d="M33876 29517
L33989 29554
L34176 29554
L34251 29517
L34289 29479
L34326 29404
L34326 29329
L34289 29254
L34251 29217
L34176 29179
L34026 29142
L33951 29104
L33914 29067
L33876 28992
L33876 28917
L33914 28842
L33951 28804
L34026 28767
L34214 28767
L34326 28804
" />
<path d="M34589 28767
L34776 29554
L34926 28992
L35076 29554
L35264 28767
" />
<path d="M35976 29554
L35526 29554
" />
<path d="M35751 29554
L35751 28767
L35676 28879
L35601 28954
L35526 28992
" />
<path d="M62048 21751
L61260 21751
L61260 21451
L61298 21376
L61335 21338
L61410 21301
L61523 21301
L61598 21338
L61635 21376
L61673 21451
L61673 21751
" />
<path d="M62048 20551
L62048 21001
" />
<path d="M62048 20776
L61260 20776
L61373 20851
L61448 20926
L61485 21001
" />
<path d="M72796 27036
L72796 27089
L72743 27195
L72690 27248
L72584 27301
L72478 27301
L72399 27274
L72266 27195
L72187 27115
L72107 26983
L72080 26903
L72080 26797
L72133 26691
L72187 26638
L72293 26585
L72346 26585
" />
<path d="M73380 26559
L73061 26877
" />
<path d="M73221 26718
L72664 26161
L72690 26293
L72690 26400
L72664 26479
" />
<path d="M73486 25710
L73857 26081
" />
<path d="M73141 25631
L73406 26161
L73751 25816
" />
<path d="M69847 24226
L69847 24279
L69794 24385
L69741 24438
L69635 24491
L69529 24491
L69449 24465
L69317 24385
L69237 24306
L69158 24173
L69131 24094
L69131 23988
L69184 23882
L69237 23828
L69343 23775
L69396 23775
" />
<path d="M70430 23749
L70112 24067
" />
<path d="M70271 23908
L69715 23351
L69741 23484
L69741 23590
L69715 23669
" />
<path d="M70377 22688
L70112 22954
L70351 23245
L70351 23192
L70377 23113
L70510 22980
L70590 22954
L70643 22954
L70722 22980
L70855 23113
L70881 23192
L70881 23245
L70855 23325
L70722 23457
L70643 23484
L70590 23484
" />
<path d="M50275 32844
L50912 32844
L50987 32807
L51025 32769
L51062 32694
L51062 32544
L51025 32469
L50987 32432
L50912 32394
L50275 32394
" />
<path d="M51062 31607
L51062 32057
" />
<path d="M51062 31832
L50275 31832
L50388 31907
L50463 31982
L50500 32057
" />
<path d="M50275 31344
L50275 30857
L50575 31120
L50575 31007
L50612 30932
L50650 30895
L50725 30857
L50912 30857
L50987 30895
L51025 30932
L51062 31007
L51062 31232
L51025 31307
L50987 31344
" />
<path d="M81861 31134
L81831 31164
L81741 31194
L81681 31194
L81591 31164
L81531 31104
L81501 31044
L81471 30924
L81471 30834
L81501 30714
L81531 30654
L81591 30594
L81681 30564
L81741 30564
L81831 30594
L81861 30624
" />
<path d="M82461 31194
L82101 31194
" />
<path d="M82281 31194
L82281 30564
L82221 30654
L82161 30714
L82101 30744
" />
<path d="M83001 30564
L82881 30564
L82821 30594
L82791 30624
L82731 30714
L82701 30834
L82701 31074
L82731 31134
L82761 31164
L82821 31194
L82941 31194
L83001 31164
L83031 31134
L83061 31074
L83061 30924
L83031 30864
L83001 30834
L82941 30804
L82821 30804
L82761 30834
L82731 30864
L82701 30924
" />
<path d="M77501 31134
L77471 31164
L77381 31194
L77321 31194
L77231 31164
L77171 31104
L77141 31044
L77111 30924
L77111 30834
L77141 30714
L77171 30654
L77231 30594
L77321 30564
L77381 30564
L77471 30594
L77501 30624
" />
<path d="M78101 31194
L77741 31194
" />
<path d="M77921 31194
L77921 30564
L77861 30654
L77801 30714
L77741 30744
" />
<path d="M78311 30564
L78731 30564
L78461 31194
" />
<path d="M81975 37926
L81713 37551
" />
<path d="M81525 37926
L81525 37138
L81825 37138
L81900 37176
L81938 37213
L81975 37288
L81975 37401
L81938 37476
L81900 37513
L81825 37551
L81525 37551
" />
<path d="M82687 37138
L82312 37138
L82275 37513
L82312 37476
L82387 37438
L82575 37438
L82650 37476
L82687 37513
L82725 37588
L82725 37776
L82687 37851
L82650 37888
L82575 37926
L82387 37926
L82312 37888
L82275 37851
" />
<path d="M77875 37926
L77613 37551
" />
<path d="M77425 37926
L77425 37138
L77725 37138
L77800 37176
L77838 37213
L77875 37288
L77875 37401
L77838 37476
L77800 37513
L77725 37551
L77425 37551
" />
<path d="M78550 37138
L78400 37138
L78325 37176
L78287 37213
L78212 37326
L78175 37476
L78175 37776
L78212 37851
L78250 37888
L78325 37926
L78475 37926
L78550 37888
L78587 37851
L78625 37776
L78625 37588
L78587 37513
L78550 37476
L78475 37438
L78325 37438
L78250 37476
L78212 37513
L78175 37588
" />
<path d="M80075 37926
L79813 37551
" />
<path d="M79625 37926
L79625 37138
L79925 37138
L80000 37176
L80038 37213
L80075 37288
L80075 37401
L80038 37476
L80000 37513
L79925 37551
L79625 37551
" />
<path d="M80337 37138
L80862 37138
L80525 37926
" />
<path d="M79681 31134
L79651 31164
L79561 31194
L79501 31194
L79411 31164
L79351 31104
L79321 31044
L79291 30924
L79291 30834
L79321 30714
L79351 30654
L79411 30594
L79501 30564
L79561 30564
L79651 30594
L79681 30624
" />
<path d="M80281 31194
L79921 31194
" />
<path d="M80101 31194
L80101 30564
L80041 30654
L79981 30714
L79921 30744
" />
<path d="M80641 30834
L80581 30804
L80551 30774
L80521 30714
L80521 30684
L80551 30624
L80581 30594
L80641 30564
L80761 30564
L80821 30594
L80851 30624
L80881 30684
L80881 30714
L80851 30774
L80821 30804
L80761 30834
L80641 30834
L80581 30864
L80551 30894
L80521 30954
L80521 31074
L80551 31134
L80581 31164
L80641 31194
L80761 31194
L80821 31164
L80851 31134
L80881 31074
L80881 30954
L80851 30894
L80821 30864
L80761 30834
" />
<path d="M75700 39552
L76263 39552
L76375 39589
L76450 39664
L76488 39777
L76488 39852
" />
<path d="M75700 39252
L75700 38764
L76000 39027
L76000 38914
L76038 38839
L76075 38802
L76150 38764
L76338 38764
L76413 38802
L76450 38839
L76488 38914
L76488 39139
L76450 39214
L76413 39252
" />
<path d="M64075 52686
L63700 52686
L63700 51898
" />
<path d="M64300 51973
L64337 51936
L64412 51898
L64600 51898
L64675 51936
L64712 51973
L64750 52048
L64750 52123
L64712 52236
L64262 52686
L64750 52686
" />
<path d="M41460 53126
L41085 53126
L41085 52338
" />
<path d="M42135 53126
L41685 53126
" />
<path d="M41910 53126
L41910 52338
L41835 52451
L41760 52526
L41685 52563
" />
<path d="M42810 52601
L42810 53126
" />
<path d="M42622 52301
L42435 52863
L42922 52863
" />
<path d="M52406 40838
L52406 41476
L52444 41551
L52481 41588
L52556 41626
L52706 41626
L52781 41588
L52819 41551
L52856 41476
L52856 40838
" />
<path d="M53569 41101
L53569 41626
" />
<path d="M53381 40801
L53194 41363
L53681 41363
" />
<path d="M69575 43226
L69200 43226
L69200 42438
" />
<path d="M69762 42438
L70250 42438
L69987 42738
L70100 42738
L70175 42776
L70212 42813
L70250 42888
L70250 43076
L70212 43151
L70175 43188
L70100 43226
L69875 43226
L69800 43188
L69762 43151
" />
<path d="M51075 21751
L51038 21788
L50925 21826
L50850 21826
L50738 21788
L50663 21713
L50625 21638
L50588 21488
L50588 21376
L50625 21226
L50663 21151
L50738 21076
L50850 21038
L50925 21038
L51038 21076
L51075 21113
" />
<path d="M51337 21038
L51825 21038
L51562 21338
L51675 21338
L51750 21376
L51787 21413
L51825 21488
L51825 21676
L51787 21751
L51750 21788
L51675 21826
L51450 21826
L51375 21788
L51337 21751
" />
<path d="M51175 20151
L51138 20188
L51025 20226
L50950 20226
L50838 20188
L50763 20113
L50725 20038
L50688 19888
L50688 19776
L50725 19626
L50763 19551
L50838 19476
L50950 19438
L51025 19438
L51138 19476
L51175 19513
" />
<path d="M51850 19701
L51850 20226
" />
<path d="M51662 19401
L51475 19963
L51962 19963
" />
<path d="M51175 23351
L51138 23388
L51025 23426
L50950 23426
L50838 23388
L50763 23313
L50725 23238
L50688 23088
L50688 22976
L50725 22826
L50763 22751
L50838 22676
L50950 22638
L51025 22638
L51138 22676
L51175 22713
" />
<path d="M51887 22638
L51512 22638
L51475 23013
L51512 22976
L51587 22938
L51775 22938
L51850 22976
L51887 23013
L51925 23088
L51925 23276
L51887 23351
L51850 23388
L51775 23426
L51587 23426
L51512 23388
L51475 23351
" />
<path d="M64034 48846
L64008 48873
L63929 48899
L63877 48899
L63798 48873
L63746 48820
L63719 48768
L63693 48663
L63693 48584
L63719 48479
L63746 48426
L63798 48374
L63877 48348
L63929 48348
L64008 48374
L64034 48400
" />
<path d="M64507 48348
L64402 48348
L64349 48374
L64323 48400
L64271 48479
L64244 48584
L64244 48794
L64271 48846
L64297 48873
L64349 48899
L64454 48899
L64507 48873
L64533 48846
L64559 48794
L64559 48663
L64533 48610
L64507 48584
L64454 48558
L64349 48558
L64297 48584
L64271 48610
L64244 48663
" />
<path d="M71214 49066
L71188 49093
L71109 49119
L71057 49119
L70978 49093
L70926 49040
L70899 48988
L70873 48883
L70873 48804
L70899 48699
L70926 48646
L70978 48594
L71057 48568
L71109 48568
L71188 48594
L71214 48620
" />
<path d="M71398 48568
L71766 48568
L71529 49119
" />
<path d="M78414 48726
L78388 48753
L78309 48779
L78257 48779
L78178 48753
L78126 48700
L78099 48648
L78073 48543
L78073 48464
L78099 48359
L78126 48306
L78178 48254
L78257 48228
L78309 48228
L78388 48254
L78414 48280
" />
<path d="M78729 48464
L78677 48438
L78651 48411
L78624 48359
L78624 48333
L78651 48280
L78677 48254
L78729 48228
L78834 48228
L78887 48254
L78913 48280
L78939 48333
L78939 48359
L78913 48411
L78887 48438
L78834 48464
L78729 48464
L78677 48490
L78651 48516
L78624 48569
L78624 48674
L78651 48726
L78677 48753
L78729 48779
L78834 48779
L78887 48753
L78913 48726
L78939 48674
L78939 48569
L78913 48516
L78887 48490
L78834 48464
" />
<path d="M85614 48686
L85588 48713
L85509 48739
L85457 48739
L85378 48713
L85326 48660
L85299 48608
L85273 48503
L85273 48424
L85299 48319
L85326 48266
L85378 48214
L85457 48188
L85509 48188
L85588 48214
L85614 48240
" />
<path d="M85877 48739
L85982 48739
L86034 48713
L86061 48686
L86113 48608
L86139 48503
L86139 48293
L86113 48240
L86087 48214
L86034 48188
L85929 48188
L85877 48214
L85851 48240
L85824 48293
L85824 48424
L85851 48476
L85877 48503
L85929 48529
L86034 48529
L86087 48503
L86113 48476
L86139 48424
" />
</g>
<g style="fill:#000000; fill-opacity:0.0; 
stroke:#000000; stroke-width:98.4252; stroke-opacity:1; 
stroke-linecap:round; stroke-linejoin:round;">
<path d="M27233 49010
L27214 49029
L27158 49048
L27121 49048
L27064 49029
L27027 48991
L27008 48954
L26989 48879
L26989 48823
L27008 48748
L27027 48710
L27064 48673
L27121 48654
L27158 48654
L27214 48673
L27233 48691
" />
<path d="M27608 49048
L27383 49048
" />
<path d="M27496 49048
L27496 48654
L27458 48710
L27421 48748
L27383 48766
" />
<path d="M27852 48654
L27889 48654
L27927 48673
L27946 48691
L27964 48729
L27983 48804
L27983 48898
L27964 48973
L27946 49010
L27927 49029
L27889 49048
L27852 49048
L27814 49029
L27796 49010
L27777 48973
L27758 48898
L27758 48804
L27777 48729
L27796 48691
L27814 48673
L27852 48654
" />
<path d="M34393 49010
L34374 49029
L34318 49048
L34281 49048
L34224 49029
L34187 48991
L34168 48954
L34149 48879
L34149 48823
L34168 48748
L34187 48710
L34224 48673
L34281 48654
L34318 48654
L34374 48673
L34393 48691
" />
<path d="M34768 49048
L34543 49048
" />
<path d="M34656 49048
L34656 48654
L34618 48710
L34581 48748
L34543 48766
" />
<path d="M35143 49048
L34918 49048
" />
<path d="M35031 49048
L35031 48654
L34993 48710
L34956 48748
L34918 48766
" />
<path d="M41713 49010
L41694 49029
L41638 49048
L41601 49048
L41544 49029
L41507 48991
L41488 48954
L41469 48879
L41469 48823
L41488 48748
L41507 48710
L41544 48673
L41601 48654
L41638 48654
L41694 48673
L41713 48691
" />
<path d="M42088 49048
L41863 49048
" />
<path d="M41976 49048
L41976 48654
L41938 48710
L41901 48748
L41863 48766
" />
<path d="M42238 48691
L42257 48673
L42294 48654
L42388 48654
L42426 48673
L42444 48691
L42463 48729
L42463 48766
L42444 48823
L42219 49048
L42463 49048
" />
<path d="M48513 49170
L48494 49189
L48438 49208
L48401 49208
L48344 49189
L48307 49151
L48288 49114
L48269 49039
L48269 48983
L48288 48908
L48307 48870
L48344 48833
L48401 48814
L48438 48814
L48494 48833
L48513 48851
" />
<path d="M48888 49208
L48663 49208
" />
<path d="M48776 49208
L48776 48814
L48738 48870
L48701 48908
L48663 48926
" />
<path d="M49019 48814
L49263 48814
L49132 48964
L49188 48964
L49226 48983
L49244 49001
L49263 49039
L49263 49133
L49244 49170
L49226 49189
L49188 49208
L49076 49208
L49038 49189
L49019 49170
" />
</g>
<g style="fill:#000000; fill-opacity:0.0; 
stroke:#000000; stroke-width:118.11; stroke-opacity:1; 
stroke-linecap:round; stroke-linejoin:round;">
<path d="M63975 42126
L63600 42126
L63600 41338
" />
<path d="M64650 42126
L64200 42126
" />
<path d="M64425 42126
L64425 41338
L64350 41451
L64275 41526
L64200 41563
" />
<path d="M71175 52726
L70800 52726
L70800 51938
" />
<path d="M71775 52201
L71775 52726
" />
<path d="M71587 51901
L71400 52463
L71887 52463
" />
<path d="M76695 43246
L76320 43246
L76320 42458
" />
<path d="M77332 42458
L76957 42458
L76920 42833
L76957 42796
L77032 42758
L77220 42758
L77295 42796
L77332 42833
L77370 42908
L77370 43096
L77332 43171
L77295 43208
L77220 43246
L77032 43246
L76957 43208
L76920 43171
" />
<path d="M78375 52626
L78000 52626
L78000 51838
" />
<path d="M78975 51838
L78825 51838
L78750 51876
L78712 51913
L78637 52026
L78600 52176
L78600 52476
L78637 52551
L78675 52588
L78750 52626
L78900 52626
L78975 52588
L79012 52551
L79050 52476
L79050 52288
L79012 52213
L78975 52176
L78900 52138
L78750 52138
L78675 52176
L78637 52213
L78600 52288
" />
<path d="M83715 43166
L83340 43166
L83340 42378
" />
<path d="M83902 42378
L84427 42378
L84090 43166
" />
<path d="M85675 52726
L85300 52726
L85300 51938
" />
<path d="M86050 52276
L85975 52238
L85937 52201
L85900 52126
L85900 52088
L85937 52013
L85975 51976
L86050 51938
L86200 51938
L86275 51976
L86312 52013
L86350 52088
L86350 52126
L86312 52201
L86275 52238
L86200 52276
L86050 52276
L85975 52313
L85937 52351
L85900 52426
L85900 52576
L85937 52651
L85975 52688
L86050 52726
L86200 52726
L86275 52688
L86312 52651
L86350 52576
L86350 52426
L86312 52351
L86275 52313
L86200 52276
" />
<path d="M27235 42026
L26860 42026
L26860 41238
" />
<path d="M27535 42026
L27685 42026
L27760 41988
L27797 41951
L27872 41838
L27910 41688
L27910 41388
L27872 41313
L27835 41276
L27760 41238
L27610 41238
L27535 41276
L27497 41313
L27460 41388
L27460 41576
L27497 41651
L27535 41688
L27610 41726
L27760 41726
L27835 41688
L27872 41651
L27910 41576
" />
<path d="M27060 53026
L26685 53026
L26685 52238
" />
<path d="M27735 53026
L27285 53026
" />
<path d="M27510 53026
L27510 52238
L27435 52351
L27360 52426
L27285 52463
" />
<path d="M28222 52238
L28297 52238
L28372 52276
L28410 52313
L28447 52388
L28485 52538
L28485 52726
L28447 52876
L28410 52951
L28372 52988
L28297 53026
L28222 53026
L28147 52988
L28110 52951
L28072 52876
L28035 52726
L28035 52538
L28072 52388
L28110 52313
L28147 52276
L28222 52238
" />
<path d="M34160 42126
L33785 42126
L33785 41338
" />
<path d="M34835 42126
L34385 42126
" />
<path d="M34610 42126
L34610 41338
L34535 41451
L34460 41526
L34385 41563
" />
<path d="M35585 42126
L35135 42126
" />
<path d="M35360 42126
L35360 41338
L35285 41451
L35210 41526
L35135 41563
" />
<path d="M34160 53126
L33785 53126
L33785 52338
" />
<path d="M34835 53126
L34385 53126
" />
<path d="M34610 53126
L34610 52338
L34535 52451
L34460 52526
L34385 52563
" />
<path d="M35135 52413
L35172 52376
L35247 52338
L35435 52338
L35510 52376
L35547 52413
L35585 52488
L35585 52563
L35547 52676
L35097 53126
L35585 53126
" />
<path d="M41360 42226
L40985 42226
L40985 41438
" />
<path d="M42035 42226
L41585 42226
" />
<path d="M41810 42226
L41810 41438
L41735 41551
L41660 41626
L41585 41663
" />
<path d="M42297 41438
L42785 41438
L42522 41738
L42635 41738
L42710 41776
L42747 41813
L42785 41888
L42785 42076
L42747 42151
L42710 42188
L42635 42226
L42410 42226
L42335 42188
L42297 42151
" />
<path d="M48960 42026
L48585 42026
L48585 41238
" />
<path d="M49635 42026
L49185 42026
" />
<path d="M49410 42026
L49410 41238
L49335 41351
L49260 41426
L49185 41463
" />
<path d="M50347 41238
L49972 41238
L49935 41613
L49972 41576
L50047 41538
L50235 41538
L50310 41576
L50347 41613
L50385 41688
L50385 41876
L50347 41951
L50310 41988
L50235 42026
L50047 42026
L49972 41988
L49935 41951
" />
<path d="M48960 53126
L48585 53126
L48585 52338
" />
<path d="M49635 53126
L49185 53126
" />
<path d="M49410 53126
L49410 52338
L49335 52451
L49260 52526
L49185 52563
" />
<path d="M50310 52338
L50160 52338
L50085 52376
L50047 52413
L49972 52526
L49935 52676
L49935 52976
L49972 53051
L50010 53088
L50085 53126
L50235 53126
L50310 53088
L50347 53051
L50385 52976
L50385 52788
L50347 52713
L50310 52676
L50235 52638
L50085 52638
L50010 52676
L49972 52713
L49935 52788
" />
</g>
<g style="fill:#000000; fill-opacity:0.0; 
stroke:#000000; stroke-width:98.4252; stroke-opacity:1; 
stroke-linecap:round; stroke-linejoin:round;">
<path d="M18641 23848
L18509 23660
" />
<path d="M18416 23848
L18416 23454
L18566 23454
L18603 23473
L18622 23491
L18641 23529
L18641 23585
L18622 23623
L18603 23641
L18566 23660
L18416 23660
" />
<path d="M19016 23848
L18791 23848
" />
<path d="M18903 23848
L18903 23454
L18866 23510
L18828 23548
L18791 23566
" />
</g>
<g style="fill:#000000; fill-opacity:0.0; 
stroke:#000000; stroke-width:118.11; stroke-opacity:1; 
stroke-linecap:round; stroke-linejoin:round;">
<path d="M32015 28885
L31753 28510
" />
<path d="M31565 28885
L31565 28097
L31865 28097
L31940 28135
L31978 28172
L32015 28247
L32015 28360
L31978 28435
L31940 28472
L31865 28510
L31565 28510
" />
<path d="M32315 28172
L32352 28135
L32427 28097
L32615 28097
L32690 28135
L32727 28172
L32765 28247
L32765 28322
L32727 28435
L32277 28885
L32765 28885
" />
<path d="M63675 35726
L63413 35351
" />
<path d="M63225 35726
L63225 34938
L63525 34938
L63600 34976
L63638 35013
L63675 35088
L63675 35201
L63638 35276
L63600 35313
L63525 35351
L63225 35351
" />
<path d="M63937 34938
L64425 34938
L64162 35238
L64275 35238
L64350 35276
L64387 35313
L64425 35388
L64425 35576
L64387 35651
L64350 35688
L64275 35726
L64050 35726
L63975 35688
L63937 35651
" />
<path d="M75115 27185
L75194 26734
" />
<path d="M74797 26866
L75353 26310
L75565 26522
L75592 26601
L75592 26654
L75565 26734
L75486 26813
L75406 26840
L75353 26840
L75274 26813
L75062 26601
" />
<path d="M75963 27291
L75592 27662
" />
<path d="M76043 26946
L75512 27211
L75857 27556
" />
<path d="M63575 34226
L63313 33851
" />
<path d="M63125 34226
L63125 33438
L63425 33438
L63500 33476
L63538 33513
L63575 33588
L63575 33701
L63538 33776
L63500 33813
L63425 33851
L63125 33851
" />
<path d="M64025 33776
L63950 33738
L63912 33701
L63875 33626
L63875 33588
L63912 33513
L63950 33476
L64025 33438
L64175 33438
L64250 33476
L64287 33513
L64325 33588
L64325 33626
L64287 33701
L64250 33738
L64175 33776
L64025 33776
L63950 33813
L63912 33851
L63875 33926
L63875 34076
L63912 34151
L63950 34188
L64025 34226
L64175 34226
L64250 34188
L64287 34151
L64325 34076
L64325 33926
L64287 33851
L64250 33813
L64175 33776
" />
<path d="M61631 29601
L61556 29563
L61481 29488
L61369 29376
L61294 29338
L61219 29338
" />
<path d="M61256 29526
L61181 29488
L61106 29413
L61069 29263
L61069 29001
L61106 28851
L61181 28776
L61256 28738
L61406 28738
L61481 28776
L61556 28851
L61594 29001
L61594 29263
L61556 29413
L61481 29488
L61406 29526
L61256 29526
" />
<path d="M62344 29526
L61894 29526
" />
<path d="M62119 29526
L62119 28738
L62044 28851
L61969 28926
L61894 28963
" />
<path d="M39256 29488
L39369 29526
L39556 29526
L39631 29488
L39669 29451
L39706 29376
L39706 29301
L39669 29226
L39631 29188
L39556 29151
L39406 29113
L39331 29076
L39294 29038
L39256 28963
L39256 28888
L39294 28813
L39331 28776
L39406 28738
L39594 28738
L39706 28776
" />
<path d="M39969 28738
L40156 29526
L40306 28963
L40456 29526
L40644 28738
" />
<path d="M40869 28738
L41356 28738
L41094 29038
L41206 29038
L41281 29076
L41319 29113
L41356 29188
L41356 29376
L41319 29451
L41281 29488
L41206 29526
L40981 29526
L40906 29488
L40869 29451
" />
<path d="M57975 39444
L58612 39444
L58687 39407
L58725 39369
L58762 39294
L58762 39144
L58725 39069
L58687 39032
L58612 38994
L57975 38994
" />
<path d="M58762 38207
L58762 38657
" />
<path d="M58762 38432
L57975 38432
L58088 38507
L58163 38582
L58200 38657
" />
<path d="M58238 37532
L58762 37532
" />
<path d="M57938 37720
L58500 37907
L58500 37420
" />
<path d="M42228 21722
L42266 21759
L42303 21872
L42303 21947
L42266 22059
L42191 22134
L42116 22172
L41966 22209
L41853 22209
L41703 22172
L41628 22134
L41553 22059
L41516 21947
L41516 21872
L41553 21759
L41591 21722
" />
<path d="M41591 21422
L41553 21384
L41516 21309
L41516 21122
L41553 21047
L41591 21010
L41666 20972
L41741 20972
L41853 21010
L42303 21459
L42303 20972
" />
<path d="M40641 18504
L41241 18504
" />
<path d="M40941 18804
L40941 18204
" />
</g>
<g style="fill:#000000; fill-opacity:0.0; 
stroke:#000000; stroke-width:98.4252; stroke-opacity:1; 
stroke-linecap:round; stroke-linejoin:round;">
<path d="M50773 49170
L50754 49189
L50698 49208
L50661 49208
L50604 49189
L50567 49151
L50548 49114
L50529 49039
L50529 48983
L50548 48908
L50567 48870
L50604 48833
L50661 48814
L50698 48814
L50754 48833
L50773 48851
" />
<path d="M51148 49208
L50923 49208
" />
<path d="M51036 49208
L51036 48814
L50998 48870
L50961 48908
L50923 48926
" />
<path d="M51336 49208
L51411 49208
L51448 49189
L51467 49170
L51504 49114
L51523 49039
L51523 48889
L51504 48851
L51486 48833
L51448 48814
L51373 48814
L51336 48833
L51317 48851
L51298 48889
L51298 48983
L51317 49020
L51336 49039
L51373 49058
L51448 49058
L51486 49039
L51504 49020
L51523 48983
" />
</g>
<g style="fill:#000000; fill-opacity:0.0; 
stroke:#000000; stroke-width:118.11; stroke-opacity:1; 
stroke-linecap:round; stroke-linejoin:round;">
<path d="M41806 27138
L41806 27776
L41844 27851
L41881 27888
L41956 27926
L42106 27926
L42181 27888
L42219 27851
L42256 27776
L42256 27138
" />
<path d="M43044 27926
L42594 27926
" />
<path d="M42819 27926
L42819 27138
L42744 27251
L42669 27326
L42594 27363
" />
<path d="M50444 26169
L51081 26169
L51156 26132
L51193 26094
L51231 26019
L51231 25869
L51193 25794
L51156 25757
L51081 25719
L50444 25719
" />
<path d="M50519 25382
L50481 25344
L50444 25269
L50444 25082
L50481 25007
L50519 24969
L50594 24932
L50669 24932
L50781 24969
L51231 25419
L51231 24932
" />
<path d="M87310 20344
L87947 20344
L88022 20307
L88060 20269
L88097 20194
L88097 20044
L88060 19969
L88022 19932
L87947 19894
L87310 19894
" />
<path d="M88097 19107
L88097 19557
" />
<path d="M88097 19332
L87310 19332
L87422 19407
L87497 19482
L87535 19557
" />
<path d="M87385 18807
L87347 18769
L87310 18695
L87310 18507
L87347 18432
L87385 18395
L87460 18357
L87535 18357
L87647 18395
L88097 18844
L88097 18357
" />
<path d="M63575 26926
L63313 26551
" />
<path d="M63125 26926
L63125 26138
L63425 26138
L63500 26176
L63538 26213
L63575 26288
L63575 26401
L63538 26476
L63500 26513
L63425 26551
L63125 26551
" />
<path d="M63950 26926
L64100 26926
L64175 26888
L64212 26851
L64287 26738
L64325 26588
L64325 26288
L64287 26213
L64250 26176
L64175 26138
L64025 26138
L63950 26176
L63912 26213
L63875 26288
L63875 26476
L63912 26551
L63950 26588
L64025 26626
L64175 26626
L64250 26588
L64287 26551
L64325 26476
" />
<path d="M67940 39532
L68503 39532
L68615 39569
L68690 39644
L68728 39757
L68728 39832
" />
<path d="M68015 39194
L67978 39157
L67940 39082
L67940 38894
L67978 38819
L68015 38782
L68090 38744
L68165 38744
L68278 38782
L68728 39232
L68728 38744
" />
</g>
<g style="fill:#000000; fill-opacity:0.0; 
stroke:#000000; stroke-width:98.4252; stroke-opacity:1; 
stroke-linecap:round; stroke-linejoin:round;">
<path d="M22076 22928
L22076 22534
L22169 22534
L22226 22553
L22263 22590
L22282 22628
L22301 22703
L22301 22759
L22282 22834
L22263 22871
L22226 22909
L22169 22928
L22076 22928
" />
<path d="M22432 22534
L22676 22534
L22544 22684
L22601 22684
L22638 22703
L22657 22721
L22676 22759
L22676 22853
L22657 22890
L22638 22909
L22601 22928
L22488 22928
L22451 22909
L22432 22890
" />
</g>
<g style="fill:#000000; fill-opacity:0.0; 
stroke:#000000; stroke-width:118.11; stroke-opacity:1; 
stroke-linecap:round; stroke-linejoin:round;">
<path d="M64909 35810
L64856 35810
L64750 35757
L64697 35704
L64644 35598
L64644 35492
L64671 35413
L64750 35280
L64830 35201
L64962 35121
L65042 35094
L65148 35094
L65254 35148
L65307 35201
L65360 35307
L65360 35360
" />
<path d="M65572 35572
L65625 35572
L65705 35598
L65837 35731
L65864 35810
L65864 35863
L65837 35943
L65784 35996
L65678 36049
L65042 36049
L65387 36394
" />
<path d="M66288 36182
L66341 36235
L66368 36314
L66368 36367
L66341 36447
L66262 36579
L66129 36712
L65996 36791
L65917 36818
L65864 36818
L65784 36791
L65731 36738
L65705 36659
L65705 36606
L65731 36526
L65811 36394
L65943 36261
L66076 36182
L66156 36155
L66209 36155
L66288 36182
" />
<path d="M82161 30014
L81951 29714
" />
<path d="M81801 30014
L81801 29384
L82041 29384
L82101 29414
L82131 29444
L82161 29504
L82161 29594
L82131 29654
L82101 29684
L82041 29714
L81801 29714
" />
<path d="M82761 30014
L82401 30014
" />
<path d="M82581 30014
L82581 29384
L82521 29474
L82461 29534
L82401 29564
" />
<path d="M83151 29384
L83211 29384
L83271 29414
L83301 29444
L83331 29504
L83361 29624
L83361 29774
L83331 29894
L83301 29954
L83271 29984
L83211 30014
L83151 30014
L83091 29984
L83061 29954
L83031 29894
L83001 29774
L83001 29624
L83031 29504
L83061 29444
L83091 29414
L83151 29384
" />
<path d="M87762 22876
L87387 23138
" />
<path d="M87762 23326
L86974 23326
L86974 23026
L87012 22951
L87049 22913
L87124 22876
L87237 22876
L87312 22913
L87349 22951
L87387 23026
L87387 23326
" />
<path d="M87762 22126
L87762 22576
" />
<path d="M87762 22351
L86974 22351
L87087 22426
L87162 22501
L87199 22576
" />
<path d="M87762 21376
L87762 21826
" />
<path d="M87762 21601
L86974 21601
L87087 21676
L87162 21751
L87199 21826
" />
</g> 
</svg>
