<?xml version="1.0" standalone="no"?>
 <!DOCTYPE svg PUBLIC "-//W3C//DTD SVG 1.1//EN" 
 "http://www.w3.org/Graphics/SVG/1.1/DTD/svg11.dtd"> 
<svg xmlns="http://www.w3.org/2000/svg" version="1.1" 
    width="29.7002cm" height="21.0007cm" viewBox="0 0 116930 82680 ">
<title>SVG Picture created as ThermocoupleLogger-F_Paste.svg date 2019/03/14 17:00:52 </title>
  <desc>Picture generated by PCBNEW </desc>
<g style="fill:#000000; fill-opacity:1;stroke:#000000; stroke-opacity:1;
stroke-linecap:round; stroke-linejoin:round; "
 transform="translate(0 0) scale(1 1)">
</g>
<g style="fill:#000000; fill-opacity:0.0; 
stroke:#000000; stroke-width:-0.000787402; stroke-opacity:1; 
stroke-linecap:round; stroke-linejoin:round;">
</g>
<g style="fill:#000000; fill-opacity:0.0; 
stroke:#000000; stroke-width:157.48; stroke-opacity:1; 
stroke-linecap:round; stroke-linejoin:round;">
<path d="M96106 63369
L96106 58969
" />
<path d="M96106 63769
L96106 63369
" />
<path d="M17706 63369
L96106 63769
" />
<path d="M17306 58969
L17706 58969
" />
<path d="M17306 63369
L17706 63369
" />
<path d="M17306 58969
L17306 63369
" />
<path d="M83266 58929
L65026 58929
" />
<path d="M86996 58929
L96106 58945
" />
<path d="M86956 56929
L96046 56929
" />
<path d="M65026 56929
L83266 56929
" />
<path d="M61390 58939
L24030 58939
" />
<path d="M24036 56939
L61396 56939
" />
<path d="M20406 56949
L17306 56949
" />
<path d="M20376 58949
L17666 58949
" />
<path d="M20376.7 58949.9 A1000.2 1000.2 0.0 0 0 20399.3 56950.6 " />
<path d="M24046.7 56939.9 A1000 1000 0.0 0 0 24030.1 58939.8 " />
<path d="M61376.7 58939.9 A1000 1000 0.0 0 0 61398 56940.1 " />
<path d="M65026.7 56929.9 A1000.2 1000.2 0.0 1 0 65028.5 58929.9 " />
<path d="M83256.7 58929.9 A1000.2 1000.2 0.0 1 0 83276.7 56929.7 " />
<path d="M86947.5 56929.9 A1000.2 1000.2 0.0 0 0 86986.7 58929.9 " />
<path d="M90906.7 15569.9 A1000.8 1000.8 0.0 0 0 90946.7 17570.7 " />
<path d="M54686.7 17609.9 A1000.8 1000.8 0.0 1 0 54686.7 15609.9 " />
<path d="M17266 15589
L17266 15589
" />
<path d="M30026 15589
L17266 15589
" />
<path d="M17306 17639
L30036 17629
" />
<path d="M33686 17609
L54686 17609
" />
<path d="M54666 15609
L33706 15609
" />
<path d="M30026.7 17629.9 A1020 1020 0.0 0 0 30026.7 15589.9 " />
<path d="M33706.7 15609.9 A1000.2 1000.2 0.0 1 0 33686.7 17610.1 " />
<path d="M87286 17599
L58456 17599
" />
<path d="M58306 15619
L87316 15619
" />
<path d="M58386.7 15609.9 A990.202 990.202 0.0 0 0 58426.7 17589.9 " />
<path d="M90951 17582
L96051 17582
" />
<path d="M96006 15569
L96006 10369
" />
<path d="M96006 10369
L96006 15569
" />
<path d="M96006 15569
L96006 10369
" />
<path d="M90906 15569
L96006 15569
" />
<path d="M96006 15569
L90906 15569
" />
<path d="M96006 10369
L96006 15569
" />
<path d="M87286.7 17609.9 A996 996 0.0 0 0 87294.8 15618 " />
<path d="M17266 10349
L96046 10349
" />
<path d="M17266 15589
L17266 10349
" />
<path d="M17306 56949
L17306 17639
" />
<path d="M96046 56929
L96046 17599
" />
</g>
<g style="fill:#000000; fill-opacity:0.0; 
stroke:#000000; stroke-width:0; stroke-opacity:1; 
stroke-linecap:round; stroke-linejoin:round;">
</g>
<g style="fill:#000000; fill-opacity:1.0; 
stroke:#000000; stroke-width:0; stroke-opacity:1; 
stroke-linecap:round; stroke-linejoin:round;">
<polyline style="fill-rule:evenodd;"
points="75387,24318
74719,24986
73716,23984
74385,23316
75387,24318
" /> 
<polyline style="fill-rule:evenodd;"
points="73160,22091
72492,22759
71489,21757
72158,21089
73160,22091
" /> 
<polyline style="fill-rule:evenodd;"
points="74496,20755
73828,21423
72826,20421
73494,19753
74496,20755
" /> 
<polyline style="fill-rule:evenodd;"
points="76723,22982
76055,23650
75053,22648
75721,21980
76723,22982
" /> 
<polyline style="fill-rule:evenodd;"
points="38831,25599
38831,24340
41193,24340
41193,25599
38831,25599
" /> 
<polyline style="fill-rule:evenodd;"
points="35366,25599
35366,24340
37728,24340
37728,25599
35366,25599
" /> 
<polyline style="fill-rule:evenodd;"
points="19954,26274
20899,26274
20899,26983
19954,26983
19954,26274
" /> 
<polyline style="fill-rule:evenodd;"
points="19954,23676
20899,23676
20899,24385
19954,24385
19954,23676
" /> 
<circle cx="27098.9" cy="12614" r="984.252" /> 
</g>
<g style="fill:#000000; fill-opacity:1.0; 
stroke:#000000; stroke-width:118.11; stroke-opacity:1; 
stroke-linecap:round; stroke-linejoin:round;">
</g>
<g style="fill:#000000; fill-opacity:1.0; 
stroke:#000000; stroke-width:0; stroke-opacity:1; 
stroke-linecap:round; stroke-linejoin:round;">
<circle cx="82217" cy="12614" r="984.252" /> 
</g>
<g style="fill:#000000; fill-opacity:1.0; 
stroke:#000000; stroke-width:118.11; stroke-opacity:1; 
stroke-linecap:round; stroke-linejoin:round;">
</g>
<g style="fill:#000000; fill-opacity:1.0; 
stroke:#000000; stroke-width:0; stroke-opacity:1; 
stroke-linecap:round; stroke-linejoin:round;">
<circle cx="27098.9" cy="59858.1" r="984.252" /> 
</g>
<g style="fill:#000000; fill-opacity:1.0; 
stroke:#000000; stroke-width:118.11; stroke-opacity:1; 
stroke-linecap:round; stroke-linejoin:round;">
</g>
<g style="fill:#000000; fill-opacity:1.0; 
stroke:#000000; stroke-width:0; stroke-opacity:1; 
stroke-linecap:round; stroke-linejoin:round;">
<circle cx="90091" cy="59858.1" r="984.252" /> 
</g>
<g style="fill:#000000; fill-opacity:1.0; 
stroke:#000000; stroke-width:118.11; stroke-opacity:1; 
stroke-linecap:round; stroke-linejoin:round;">
</g>
<g style="fill:#000000; fill-opacity:1.0; 
stroke:#000000; stroke-width:0; stroke-opacity:1; 
stroke-linecap:round; stroke-linejoin:round;">
<polyline style="fill-rule:evenodd;"
points="82390,22450
81366,22450
81366,21229
82390,21229
82390,22450
" /> 
<polyline style="fill-rule:evenodd;"
points="82390,28710
81366,28710
81366,27489
82390,27489
82390,28710
" /> 
<polyline style="fill-rule:evenodd;"
points="78846,22450
77823,22450
77823,21229
78846,21229
78846,22450
" /> 
<polyline style="fill-rule:evenodd;"
points="78846,28710
77823,28710
77823,27489
78846,27489
78846,28710
" /> 
<polyline style="fill-rule:evenodd;"
points="72407,31299
72713,30993
73604,31884
73298,32190
72407,31299
" /> 
<polyline style="fill-rule:evenodd;"
points="71962,31744
72268,31438
73159,32329
72852,32635
71962,31744
" /> 
<polyline style="fill-rule:evenodd;"
points="71516,32190
71822,31884
72713,32774
72407,33081
71516,32190
" /> 
<polyline style="fill-rule:evenodd;"
points="71071,32635
71377,32329
72268,33220
71962,33526
71071,32635
" /> 
<polyline style="fill-rule:evenodd;"
points="70625,33081
70932,32774
71822,33665
71516,33971
70625,33081
" /> 
<polyline style="fill-rule:evenodd;"
points="70180,33526
70486,33220
71377,34111
71071,34417
70180,33526
" /> 
<polyline style="fill-rule:evenodd;"
points="69734,33971
70041,33665
70932,34556
70625,34862
69734,33971
" /> 
<polyline style="fill-rule:evenodd;"
points="69289,34417
69595,34111
70486,35001
70180,35308
69289,34417
" /> 
<polyline style="fill-rule:evenodd;"
points="68565,34111
68871,34417
67981,35308
67674,35001
68565,34111
" /> 
<polyline style="fill-rule:evenodd;"
points="68120,33665
68426,33971
67535,34862
67229,34556
68120,33665
" /> 
<polyline style="fill-rule:evenodd;"
points="67674,33220
67981,33526
67090,34417
66784,34111
67674,33220
" /> 
<polyline style="fill-rule:evenodd;"
points="67229,32774
67535,33081
66644,33971
66338,33665
67229,32774
" /> 
<polyline style="fill-rule:evenodd;"
points="66784,32329
67090,32635
66199,33526
65893,33220
66784,32329
" /> 
<polyline style="fill-rule:evenodd;"
points="66338,31884
66644,32190
65753,33081
65447,32774
66338,31884
" /> 
<polyline style="fill-rule:evenodd;"
points="65893,31438
66199,31744
65308,32635
65002,32329
65893,31438
" /> 
<polyline style="fill-rule:evenodd;"
points="65447,30993
65753,31299
64863,32190
64556,31884
65447,30993
" /> 
<polyline style="fill-rule:evenodd;"
points="64556,29684
64863,29378
65753,30269
65447,30575
64556,29684
" /> 
<polyline style="fill-rule:evenodd;"
points="65002,29239
65308,28933
66199,29823
65893,30130
65002,29239
" /> 
<polyline style="fill-rule:evenodd;"
points="65447,28793
65753,28487
66644,29378
66338,29684
65447,28793
" /> 
<polyline style="fill-rule:evenodd;"
points="65893,28348
66199,28042
67090,28933
66784,29239
65893,28348
" /> 
<polyline style="fill-rule:evenodd;"
points="66338,27903
66644,27596
67535,28487
67229,28793
66338,27903
" /> 
<polyline style="fill-rule:evenodd;"
points="66784,27457
67090,27151
67981,28042
67674,28348
66784,27457
" /> 
<polyline style="fill-rule:evenodd;"
points="67229,27012
67535,26705
68426,27596
68120,27903
67229,27012
" /> 
<polyline style="fill-rule:evenodd;"
points="67674,26566
67981,26260
68871,27151
68565,27457
67674,26566
" /> 
<polyline style="fill-rule:evenodd;"
points="70180,26260
70486,26566
69595,27457
69289,27151
70180,26260
" /> 
<polyline style="fill-rule:evenodd;"
points="70625,26705
70932,27012
70041,27903
69734,27596
70625,26705
" /> 
<polyline style="fill-rule:evenodd;"
points="71071,27151
71377,27457
70486,28348
70180,28042
71071,27151
" /> 
<polyline style="fill-rule:evenodd;"
points="71516,27596
71822,27903
70932,28793
70625,28487
71516,27596
" /> 
<polyline style="fill-rule:evenodd;"
points="71962,28042
72268,28348
71377,29239
71071,28933
71962,28042
" /> 
<polyline style="fill-rule:evenodd;"
points="72407,28487
72713,28793
71822,29684
71516,29378
72407,28487
" /> 
<polyline style="fill-rule:evenodd;"
points="72852,28933
73159,29239
72268,30130
71962,29823
72852,28933
" /> 
<polyline style="fill-rule:evenodd;"
points="73298,29378
73604,29684
72713,30575
72407,30269
73298,29378
" /> 
<polyline style="fill-rule:evenodd;"
points="84968,30763
83709,30763
83709,30212
84968,30212
84968,30763
" /> 
<polyline style="fill-rule:evenodd;"
points="84968,29897
83709,29897
83709,29346
84968,29346
84968,29897
" /> 
<polyline style="fill-rule:evenodd;"
points="84968,29031
83709,29031
83709,28480
84968,28480
84968,29031
" /> 
<polyline style="fill-rule:evenodd;"
points="84968,31629
83709,31629
83709,31078
84968,31078
84968,31629
" /> 
<polyline style="fill-rule:evenodd;"
points="84968,32495
83709,32495
83709,31944
84968,31944
84968,32495
" /> 
<polyline style="fill-rule:evenodd;"
points="84968,33362
83709,33362
83709,32810
84968,32810
84968,33362
" /> 
<polyline style="fill-rule:evenodd;"
points="84968,35094
83709,35094
83709,34543
84968,34543
84968,35094
" /> 
<polyline style="fill-rule:evenodd;"
points="84968,34228
83709,34228
83709,33677
84968,33677
84968,34228
" /> 
<polyline style="fill-rule:evenodd;"
points="84968,35960
83709,35960
83709,35409
84968,35409
84968,35960
" /> 
<polyline style="fill-rule:evenodd;"
points="85283,37062
84181,37062
84181,36117
85283,36117
85283,37062
" /> 
<polyline style="fill-rule:evenodd;"
points="85283,25724
84181,25724
84181,24464
85283,24464
85283,25724
" /> 
<polyline style="fill-rule:evenodd;"
points="93157,37062
91425,37062
91425,36117
93157,36117
93157,37062
" /> 
<polyline style="fill-rule:evenodd;"
points="93157,24858
91425,24858
91425,23913
93157,23913
93157,24858
" /> 
<polyline style="fill-rule:evenodd;"
points="72607,24461
73303,25157
72747,25713
72051,25018
72607,24461
" /> 
<polyline style="fill-rule:evenodd;"
points="71494,25574
72190,26270
71633,26827
70937,26131
71494,25574
" /> 
<polyline style="fill-rule:evenodd;"
points="70354,24354
71050,25050
70493,25607
69797,24911
70354,24354
" /> 
<polyline style="fill-rule:evenodd;"
points="71467,23241
72163,23937
71607,24493
70911,23798
71467,23241
" /> 
<polyline style="fill-rule:evenodd;"
points="58870,33179
59342,33179
59342,34360
58870,34360
58870,33179
" /> 
<polyline style="fill-rule:evenodd;"
points="57870,33179
58342,33179
58342,34360
57870,34360
57870,33179
" /> 
<polyline style="fill-rule:evenodd;"
points="56870,33179
57342,33179
57342,34360
56870,34360
56870,33179
" /> 
<polyline style="fill-rule:evenodd;"
points="55870,33179
56342,33179
56342,34360
55870,34360
55870,33179
" /> 
<polyline style="fill-rule:evenodd;"
points="54870,33179
55342,33179
55342,34360
54870,34360
54870,33179
" /> 
<polyline style="fill-rule:evenodd;"
points="53870,33179
54342,33179
54342,34360
53870,34360
53870,33179
" /> 
<polyline style="fill-rule:evenodd;"
points="52870,33179
53342,33179
53342,34360
52870,34360
52870,33179
" /> 
<polyline style="fill-rule:evenodd;"
points="51870,33179
52342,33179
52342,34360
51870,34360
51870,33179
" /> 
<polyline style="fill-rule:evenodd;"
points="51870,25856
52342,25856
52342,27037
51870,27037
51870,25856
" /> 
<polyline style="fill-rule:evenodd;"
points="52870,25856
53342,25856
53342,27037
52870,27037
52870,25856
" /> 
<polyline style="fill-rule:evenodd;"
points="53870,25856
54342,25856
54342,27037
53870,27037
53870,25856
" /> 
<polyline style="fill-rule:evenodd;"
points="54870,25856
55342,25856
55342,27037
54870,27037
54870,25856
" /> 
<polyline style="fill-rule:evenodd;"
points="55870,25856
56342,25856
56342,27037
55870,27037
55870,25856
" /> 
<polyline style="fill-rule:evenodd;"
points="56870,25856
57342,25856
57342,27037
56870,27037
56870,25856
" /> 
<polyline style="fill-rule:evenodd;"
points="57870,25856
58342,25856
58342,27037
57870,27037
57870,25856
" /> 
<polyline style="fill-rule:evenodd;"
points="58870,25856
59342,25856
59342,27037
58870,27037
58870,25856
" /> 
<polyline style="fill-rule:evenodd;"
points="82498,32416
81514,32416
81514,31628
82498,31628
82498,32416
" /> 
<polyline style="fill-rule:evenodd;"
points="82498,33991
81514,33991
81514,33203
82498,33203
82498,33991
" /> 
<polyline style="fill-rule:evenodd;"
points="78498,34003
77514,34003
77514,33216
78498,33216
78498,34003
" /> 
<polyline style="fill-rule:evenodd;"
points="78498,32428
77514,32428
77514,31641
78498,31641
78498,32428
" /> 
<polyline style="fill-rule:evenodd;"
points="82518,35137
81494,35137
81494,34586
82518,34586
82518,35137
" /> 
<polyline style="fill-rule:evenodd;"
points="82518,36633
81494,36633
81494,36082
82518,36082
82518,36633
" /> 
<polyline style="fill-rule:evenodd;"
points="78518,36633
77494,36633
77494,36082
78518,36082
78518,36633
" /> 
<polyline style="fill-rule:evenodd;"
points="78518,35137
77494,35137
77494,34586
78518,34586
78518,35137
" /> 
<polyline style="fill-rule:evenodd;"
points="80518,36633
79494,36633
79494,36082
80518,36082
80518,36633
" /> 
<polyline style="fill-rule:evenodd;"
points="80518,35137
79494,35137
79494,34586
80518,34586
80518,35137
" /> 
<polyline style="fill-rule:evenodd;"
points="80498,32416
79514,32416
79514,31628
80498,31628
80498,32416
" /> 
<polyline style="fill-rule:evenodd;"
points="80498,33991
79514,33991
79514,33203
80498,33203
80498,33991
" /> 
<polyline style="fill-rule:evenodd;"
points="64618,49857
63594,49857
63594,49306
64618,49306
64618,49857
" /> 
<polyline style="fill-rule:evenodd;"
points="64618,51353
63594,51353
63594,50802
64618,50802
64618,51353
" /> 
<polyline style="fill-rule:evenodd;"
points="42378,51593
41354,51593
41354,51042
42378,51042
42378,51593
" /> 
<polyline style="fill-rule:evenodd;"
points="42378,50097
41354,50097
41354,49546
42378,49546
42378,50097
" /> 
<polyline style="fill-rule:evenodd;"
points="54582,43936
54031,43936
54031,42421
54582,42421
54582,43936
" /> 
<polyline style="fill-rule:evenodd;"
points="55582,43936
55031,43936
55031,42421
55582,42421
55582,43936
" /> 
<polyline style="fill-rule:evenodd;"
points="56582,43936
56031,43936
56031,42421
56582,42421
56582,43936
" /> 
<polyline style="fill-rule:evenodd;"
points="57582,43936
57031,43936
57031,42421
57582,42421
57582,43936
" /> 
<polyline style="fill-rule:evenodd;"
points="58582,43936
58031,43936
58031,42421
58582,42421
58582,43936
" /> 
<polyline style="fill-rule:evenodd;"
points="59582,43936
59031,43936
59031,42421
59582,42421
59582,43936
" /> 
<polyline style="fill-rule:evenodd;"
points="60582,43936
60031,43936
60031,42421
60582,42421
60582,43936
" /> 
<polyline style="fill-rule:evenodd;"
points="62255,44645
60739,44645
60739,44094
62255,44094
62255,44645
" /> 
<polyline style="fill-rule:evenodd;"
points="62255,45645
60739,45645
60739,45094
62255,45094
62255,45645
" /> 
<polyline style="fill-rule:evenodd;"
points="62255,46645
60739,46645
60739,46094
62255,46094
62255,46645
" /> 
<polyline style="fill-rule:evenodd;"
points="62255,47645
60739,47645
60739,47094
62255,47094
62255,47645
" /> 
<polyline style="fill-rule:evenodd;"
points="62255,48645
60739,48645
60739,48094
62255,48094
62255,48645
" /> 
<polyline style="fill-rule:evenodd;"
points="62255,49645
60739,49645
60739,49094
62255,49094
62255,49645
" /> 
<polyline style="fill-rule:evenodd;"
points="62255,50645
60739,50645
60739,50094
62255,50094
62255,50645
" /> 
<polyline style="fill-rule:evenodd;"
points="60582,52318
60031,52318
60031,50802
60582,50802
60582,52318
" /> 
<polyline style="fill-rule:evenodd;"
points="59582,52318
59031,52318
59031,50802
59582,50802
59582,52318
" /> 
<polyline style="fill-rule:evenodd;"
points="58582,52318
58031,52318
58031,50802
58582,50802
58582,52318
" /> 
<polyline style="fill-rule:evenodd;"
points="57582,52318
57031,52318
57031,50802
57582,50802
57582,52318
" /> 
<polyline style="fill-rule:evenodd;"
points="56582,52318
56031,52318
56031,50802
56582,50802
56582,52318
" /> 
<polyline style="fill-rule:evenodd;"
points="55582,52318
55031,52318
55031,50802
55582,50802
55582,52318
" /> 
<polyline style="fill-rule:evenodd;"
points="54582,52318
54031,52318
54031,50802
54582,50802
54582,52318
" /> 
<polyline style="fill-rule:evenodd;"
points="53873,44645
52357,44645
52357,44094
53873,44094
53873,44645
" /> 
<polyline style="fill-rule:evenodd;"
points="53873,45645
52357,45645
52357,45094
53873,45094
53873,45645
" /> 
<polyline style="fill-rule:evenodd;"
points="53873,46645
52357,46645
52357,46094
53873,46094
53873,46645
" /> 
<polyline style="fill-rule:evenodd;"
points="53873,50645
52357,50645
52357,50094
53873,50094
53873,50645
" /> 
<polyline style="fill-rule:evenodd;"
points="53873,49645
52357,49645
52357,49094
53873,49094
53873,49645
" /> 
<polyline style="fill-rule:evenodd;"
points="53873,48645
52357,48645
52357,48094
53873,48094
53873,48645
" /> 
<polyline style="fill-rule:evenodd;"
points="53873,47645
52357,47645
52357,47094
53873,47094
53873,47645
" /> 
<polyline style="fill-rule:evenodd;"
points="71818,44780
70794,44780
70794,44229
71818,44229
71818,44780
" /> 
<polyline style="fill-rule:evenodd;"
points="71818,43284
70794,43284
70794,42733
71818,42733
71818,43284
" /> 
<polyline style="fill-rule:evenodd;"
points="48513,20877
48513,21862
47725,21862
47725,20877
48513,20877
" /> 
<polyline style="fill-rule:evenodd;"
points="50087,20877
50087,21862
49300,21862
49300,20877
50087,20877
" /> 
<polyline style="fill-rule:evenodd;"
points="50087,19277
50087,20262
49300,20262
49300,19277
50087,19277
" /> 
<polyline style="fill-rule:evenodd;"
points="48513,19277
48513,20262
47725,20262
47725,19277
48513,19277
" /> 
<polyline style="fill-rule:evenodd;"
points="49300,23462
49300,22477
50087,22477
50087,23462
49300,23462
" /> 
<polyline style="fill-rule:evenodd;"
points="47725,23462
47725,22477
48513,22477
48513,23462
47725,23462
" /> 
<polyline style="fill-rule:evenodd;"
points="63614,47163
64598,47163
64598,47951
63614,47951
63614,47163
" /> 
<polyline style="fill-rule:evenodd;"
points="63614,45588
64598,45588
64598,46376
63614,46376
63614,45588
" /> 
<polyline style="fill-rule:evenodd;"
points="70814,47376
71798,47376
71798,48163
70814,48163
70814,47376
" /> 
<polyline style="fill-rule:evenodd;"
points="70814,45801
71798,45801
71798,46588
70814,46588
70814,45801
" /> 
<polyline style="fill-rule:evenodd;"
points="78014,47063
78998,47063
78998,47851
78014,47851
78014,47063
" /> 
<polyline style="fill-rule:evenodd;"
points="78014,45488
78998,45488
78998,46276
78014,46276
78014,45488
" /> 
<polyline style="fill-rule:evenodd;"
points="85214,45468
86198,45468
86198,46256
85214,46256
85214,45468
" /> 
<polyline style="fill-rule:evenodd;"
points="85214,47043
86198,47043
86198,47831
85214,47831
85214,47043
" /> 
<polyline style="fill-rule:evenodd;"
points="27024,45788
28008,45788
28008,46576
27024,46576
27024,45788
" /> 
<polyline style="fill-rule:evenodd;"
points="27024,47363
28008,47363
28008,48151
27024,48151
27024,47363
" /> 
<polyline style="fill-rule:evenodd;"
points="34174,45788
35158,45788
35158,46576
34174,46576
34174,45788
" /> 
<polyline style="fill-rule:evenodd;"
points="34174,47363
35158,47363
35158,48151
34174,48151
34174,47363
" /> 
<polyline style="fill-rule:evenodd;"
points="41424,47385
42408,47385
42408,48172
41424,48172
41424,47385
" /> 
<polyline style="fill-rule:evenodd;"
points="41424,45810
42408,45810
42408,46597
41424,46597
41424,45810
" /> 
<polyline style="fill-rule:evenodd;"
points="48314,46088
49298,46088
49298,46876
48314,46876
48314,46088
" /> 
<polyline style="fill-rule:evenodd;"
points="48314,47663
49298,47663
49298,48451
48314,48451
48314,47663
" /> 
<polyline style="fill-rule:evenodd;"
points="64618,44793
63594,44793
63594,44242
64618,44242
64618,44793
" /> 
<polyline style="fill-rule:evenodd;"
points="64618,43297
63594,43297
63594,42746
64618,42746
64618,43297
" /> 
<polyline style="fill-rule:evenodd;"
points="71818,50045
70794,50045
70794,49494
71818,49494
71818,50045
" /> 
<polyline style="fill-rule:evenodd;"
points="71818,51541
70794,51541
70794,50990
71818,50990
71818,51541
" /> 
<polyline style="fill-rule:evenodd;"
points="79018,42897
77994,42897
77994,42346
79018,42346
79018,42897
" /> 
<polyline style="fill-rule:evenodd;"
points="79018,44393
77994,44393
77994,43842
79018,43842
79018,44393
" /> 
<polyline style="fill-rule:evenodd;"
points="79018,51193
77994,51193
77994,50642
79018,50642
79018,51193
" /> 
<polyline style="fill-rule:evenodd;"
points="79018,49697
77994,49697
77994,49146
79018,49146
79018,49697
" /> 
<polyline style="fill-rule:evenodd;"
points="86218,42949
85194,42949
85194,42398
86218,42398
86218,42949
" /> 
<polyline style="fill-rule:evenodd;"
points="86218,44445
85194,44445
85194,43894
86218,43894
86218,44445
" /> 
<polyline style="fill-rule:evenodd;"
points="86218,51193
85194,51193
85194,50642
86218,50642
86218,51193
" /> 
<polyline style="fill-rule:evenodd;"
points="86218,49697
85194,49697
85194,49146
86218,49146
86218,49697
" /> 
<polyline style="fill-rule:evenodd;"
points="28028,43297
27004,43297
27004,42746
28028,42746
28028,43297
" /> 
<polyline style="fill-rule:evenodd;"
points="28028,44793
27004,44793
27004,44242
28028,44242
28028,44793
" /> 
<polyline style="fill-rule:evenodd;"
points="27978,51593
26954,51593
26954,51042
27978,51042
27978,51593
" /> 
<polyline style="fill-rule:evenodd;"
points="27978,50097
26954,50097
26954,49546
27978,49546
27978,50097
" /> 
<polyline style="fill-rule:evenodd;"
points="35178,44793
34154,44793
34154,44242
35178,44242
35178,44793
" /> 
<polyline style="fill-rule:evenodd;"
points="35178,43297
34154,43297
34154,42746
35178,42746
35178,43297
" /> 
<polyline style="fill-rule:evenodd;"
points="35178,50097
34154,50097
34154,49546
35178,49546
35178,50097
" /> 
<polyline style="fill-rule:evenodd;"
points="35178,51593
34154,51593
34154,51042
35178,51042
35178,51593
" /> 
<polyline style="fill-rule:evenodd;"
points="42378,43297
41354,43297
41354,42746
42378,42746
42378,43297
" /> 
<polyline style="fill-rule:evenodd;"
points="42378,44793
41354,44793
41354,44242
42378,44242
42378,44793
" /> 
<polyline style="fill-rule:evenodd;"
points="49978,44793
48954,44793
48954,44242
49978,44242
49978,44793
" /> 
<polyline style="fill-rule:evenodd;"
points="49978,43297
48954,43297
48954,42746
49978,42746
49978,43297
" /> 
<polyline style="fill-rule:evenodd;"
points="49978,50097
48954,50097
48954,49546
49978,49546
49978,50097
" /> 
<polyline style="fill-rule:evenodd;"
points="49978,51593
48954,51593
48954,51042
49978,51042
49978,51593
" /> 
<polyline style="fill-rule:evenodd;"
points="18134,25750
19158,25750
19158,26301
18134,26301
18134,25750
" /> 
<polyline style="fill-rule:evenodd;"
points="18134,24254
19158,24254
19158,24805
18134,24805
18134,24254
" /> 
<polyline style="fill-rule:evenodd;"
points="31674,26718
31674,27741
31123,27741
31123,26718
31674,26718
" /> 
<polyline style="fill-rule:evenodd;"
points="33170,26718
33170,27741
32619,27741
32619,26718
33170,26718
" /> 
<polyline style="fill-rule:evenodd;"
points="62730,34858
62730,35881
62179,35881
62179,34858
62730,34858
" /> 
<polyline style="fill-rule:evenodd;"
points="61234,34858
61234,35881
60683,35881
60683,34858
61234,34858
" /> 
<polyline style="fill-rule:evenodd;"
points="74478,28465
75202,27742
75592,28131
74868,28855
74478,28465
" /> 
<polyline style="fill-rule:evenodd;"
points="73421,27408
74144,26684
74534,27073
73810,27797
73421,27408
" /> 
<polyline style="fill-rule:evenodd;"
points="61234,33258
61234,34281
60683,34281
60683,33258
61234,33258
" /> 
<polyline style="fill-rule:evenodd;"
points="62730,33258
62730,34281
62179,34281
62179,33258
62730,33258
" /> 
<polyline style="fill-rule:evenodd;"
points="61391,31602
62021,31602
62021,32311
61391,32311
61391,31602
" /> 
<polyline style="fill-rule:evenodd;"
points="60643,30028
61273,30028
61273,30736
60643,30736
60643,30028
" /> 
<polyline style="fill-rule:evenodd;"
points="62139,30028
62769,30028
62769,30736
62139,30736
62139,30028
" /> 
<polyline style="fill-rule:evenodd;"
points="44510,31213
43487,31213
43487,29993
44510,29993
44510,31213
" /> 
<polyline style="fill-rule:evenodd;"
points="44510,37473
43487,37473
43487,36253
44510,36253
44510,37473
" /> 
<polyline style="fill-rule:evenodd;"
points="40967,31213
39944,31213
39944,29993
40967,29993
40967,31213
" /> 
<polyline style="fill-rule:evenodd;"
points="40967,37473
39944,37473
39944,36253
40967,36253
40967,37473
" /> 
<polyline style="fill-rule:evenodd;"
points="63522,37266
63522,36793
64742,36793
64742,37266
63522,37266
" /> 
<polyline style="fill-rule:evenodd;"
points="63522,38266
63522,37793
64742,37793
64742,38266
63522,38266
" /> 
<polyline style="fill-rule:evenodd;"
points="63522,39266
63522,38793
64742,38793
64742,39266
63522,39266
" /> 
<polyline style="fill-rule:evenodd;"
points="63522,40266
63522,39793
64742,39793
64742,40266
63522,40266
" /> 
<polyline style="fill-rule:evenodd;"
points="59270,40266
59270,39793
60490,39793
60490,40266
59270,40266
" /> 
<polyline style="fill-rule:evenodd;"
points="59270,39266
59270,38793
60490,38793
60490,39266
59270,39266
" /> 
<polyline style="fill-rule:evenodd;"
points="59270,38266
59270,37793
60490,37793
60490,38266
59270,38266
" /> 
<polyline style="fill-rule:evenodd;"
points="59270,37266
59270,36793
60490,36793
60490,37266
59270,37266
" /> 
<polyline style="fill-rule:evenodd;"
points="35366,20921
35366,19661
37728,19661
37728,20921
35366,20921
" /> 
<polyline style="fill-rule:evenodd;"
points="38831,20921
38831,19661
41193,19661
41193,20921
38831,20921
" /> 
<polyline style="fill-rule:evenodd;"
points="51358,46876
50374,46876
50374,46088
51358,46088
51358,46876
" /> 
<polyline style="fill-rule:evenodd;"
points="51358,48451
50374,48451
50374,47663
51358,47663
51358,48451
" /> 
<polyline style="fill-rule:evenodd;"
points="46590,23269
44424,23269
44424,20868
46590,20868
46590,23269
" /> 
<polyline style="fill-rule:evenodd;"
points="44188,20631
42023,20631
42023,18230
44188,18230
44188,20631
" /> 
<polyline style="fill-rule:evenodd;"
points="44188,23269
42023,23269
42023,20868
44188,20868
44188,23269
" /> 
<polyline style="fill-rule:evenodd;"
points="46590,20631
44424,20631
44424,18230
46590,18230
46590,20631
" /> 
<polyline style="fill-rule:evenodd;"
points="46574,26576
45629,26576
45629,24844
46574,24844
46574,26576
" /> 
<polyline style="fill-rule:evenodd;"
points="42983,26576
42039,26576
42039,24844
42983,24844
42983,26576
" /> 
<polyline style="fill-rule:evenodd;"
points="48591,26002
49221,26002
49221,26711
48591,26711
48591,26002
" /> 
<polyline style="fill-rule:evenodd;"
points="47843,24428
48473,24428
48473,25136
47843,25136
47843,24428
" /> 
<polyline style="fill-rule:evenodd;"
points="49339,24428
49969,24428
49969,25136
49339,25136
49339,24428
" /> 
<polyline style="fill-rule:evenodd;"
points="61234,25858
61234,26881
60683,26881
60683,25858
61234,25858
" /> 
<polyline style="fill-rule:evenodd;"
points="62730,25858
62730,26881
62179,26881
62179,25858
62730,25858
" /> 
<polyline style="fill-rule:evenodd;"
points="21814,23676
22759,23676
22759,24385
21814,24385
21814,23676
" /> 
<polyline style="fill-rule:evenodd;"
points="21814,26274
22759,26274
22759,26983
21814,26983
21814,26274
" /> 
<polyline style="fill-rule:evenodd;"
points="66037,35496
66733,34800
67289,35357
66593,36053
66037,35496
" /> 
<polyline style="fill-rule:evenodd;"
points="64923,34382
65619,33686
66176,34243
65480,34939
64923,34382
" /> 
<polyline style="fill-rule:evenodd;"
points="81470,29178
81470,30201
80919,30201
80919,29178
81470,29178
" /> 
<polyline style="fill-rule:evenodd;"
points="79974,29178
79974,30201
79423,30201
79423,29178
79974,29178
" /> 
<polyline style="fill-rule:evenodd;"
points="85594,22842
86618,22842
86618,23393
85594,23393
85594,22842
" /> 
<polyline style="fill-rule:evenodd;"
points="85594,21346
86618,21346
86618,21897
85594,21897
85594,21346
" /> 
</g> 
</svg>
