<?xml version="1.0" standalone="no"?>
 <!DOCTYPE svg PUBLIC "-//W3C//DTD SVG 1.1//EN" 
 "http://www.w3.org/Graphics/SVG/1.1/DTD/svg11.dtd"> 
<svg xmlns="http://www.w3.org/2000/svg" version="1.1" 
    width="29.7002cm" height="21.0007cm" viewBox="0 0 116930 82680 ">
<title>SVG Picture created as ThermocoupleLogger-Eco1_User.svg date 2019/03/14 17:05:17 </title>
  <desc>Picture generated by PCBNEW </desc>
<g style="fill:#000000; fill-opacity:1;stroke:#000000; stroke-opacity:1;
stroke-linecap:round; stroke-linejoin:round; "
 transform="translate(0 0) scale(1 1)">
</g>
<g style="fill:#000000; fill-opacity:0.0; 
stroke:#000000; stroke-width:-0.000787402; stroke-opacity:1; 
stroke-linecap:round; stroke-linejoin:round;">
</g>
<g style="fill:#000000; fill-opacity:0.0; 
stroke:#000000; stroke-width:157.48; stroke-opacity:1; 
stroke-linecap:round; stroke-linejoin:round;">
<path d="M30465 17956
L17748 17956
" />
<path d="M17748 63696
L96543 64088
" />
<path d="M96543 64090
L96543 59288
" />
<path d="M17743 59288
L17743 63688
" />
<path d="M83703 59248
L65463 59248
" />
<path d="M87433 59248
L96543 59264
" />
<path d="M87393 57248
L96483 57248
" />
<path d="M65463 57248
L83703 57248
" />
<path d="M61827 59258
L24467 59258
" />
<path d="M24473 57258
L61833 57258
" />
<path d="M20843 57268
L17743 57268
" />
<path d="M20813 59268
L17740 59287
" />
<path d="M20813.7 59268.8 A1000.2 1000.2 0.0 0 0 20836.3 57269.5 " />
<path d="M24483.7 57258.8 A1000 1000 0.0 0 0 24467.1 59258.7 " />
<path d="M61813.7 59258.8 A1000 1000 0.0 0 0 61835 57259 " />
<path d="M65463.7 57248.8 A1000.2 1000.2 0.0 1 0 65465.5 59248.8 " />
<path d="M83693.7 59248.8 A1000.2 1000.2 0.0 1 0 83713.7 57248.6 " />
<path d="M87384.5 57248.8 A1000.2 1000.2 0.0 0 0 87423.7 59248.8 " />
<path d="M91343.7 15888.8 A1000.8 1000.8 0.0 0 0 91383.7 17889.6 " />
<path d="M55123.7 17928.8 A1000.8 1000.8 0.0 1 0 55123.7 15928.8 " />
<path d="M17703 15908
L17703 15908
" />
<path d="M30463 15908
L17703 15908
" />
<path d="M34123 17928
L55123 17928
" />
<path d="M55103 15928
L34143 15928
" />
<path d="M30463.7 17948.8 A1020 1020 0.0 0 0 30463.7 15908.8 " />
<path d="M34143.7 15928.8 A1000.2 1000.2 0.0 1 0 34123.7 17929 " />
<path d="M87723 17918
L58893 17918
" />
<path d="M58743 15938
L87753 15938
" />
<path d="M58823.7 15928.8 A990.202 990.202 0.0 0 0 58863.7 17908.8 " />
<path d="M91394 17893
L96480 17901
" />
<path d="M96443 15888
L91343 15888
" />
<path d="M96443 10688
L96443 15888
" />
<path d="M87723.7 17928.8 A996 996 0.0 0 0 87731.8 15936.9 " />
<path d="M17703 10668
L96433 10673
" />
<path d="M17703 15908
L17703 10668
" />
<path d="M17743 57268
L17743 17958
" />
</g>
<g style="fill:#000000; fill-opacity:0.0; 
stroke:#000000; stroke-width:236.22; stroke-opacity:1; 
stroke-linecap:round; stroke-linejoin:round;">
<path d="M41609 69238
L42284 69238
" />
<path d="M41947 70419
L41947 69238
" />
<path d="M42903 69238
L43128 69238
L43240 69294
L43353 69406
L43409 69631
L43409 70025
L43353 70250
L43240 70362
L43128 70419
L42903 70419
L42790 70362
L42678 70250
L42622 70025
L42622 69631
L42678 69406
L42790 69294
L42903 69238
" />
<path d="M43915 70419
L43915 69238
L44196 69238
L44365 69294
L44478 69406
L44534 69519
L44590 69744
L44590 69913
L44534 70137
L44478 70250
L44365 70362
L44196 70419
L43915 70419
" />
<path d="M45321 69238
L45546 69238
L45659 69294
L45771 69406
L45827 69631
L45827 70025
L45771 70250
L45659 70362
L45546 70419
L45321 70419
L45209 70362
L45096 70250
L45040 70025
L45040 69631
L45096 69406
L45209 69294
L45321 69238
" />
<path d="M47852 70419
L47177 70419
" />
<path d="M47515 70419
L47515 69238
L47402 69406
L47290 69519
L47177 69575
" />
<path d="M48583 69238
L48696 69238
L48808 69294
L48865 69350
L48921 69463
L48977 69688
L48977 69969
L48921 70194
L48865 70306
L48808 70362
L48696 70419
L48583 70419
L48471 70362
L48415 70306
L48358 70194
L48302 69969
L48302 69688
L48358 69463
L48415 69350
L48471 69294
L48583 69238
" />
<path d="M49483 70419
L49483 69631
" />
<path d="M49483 69744
L49540 69688
L49652 69631
L49821 69631
L49933 69688
L49989 69800
L49989 70419
" />
<path d="M49989 69800
L50046 69688
L50158 69631
L50327 69631
L50439 69688
L50496 69800
L50496 70419
" />
<path d="M51058 70419
L51058 69631
" />
<path d="M51058 69744
L51114 69688
L51227 69631
L51396 69631
L51508 69688
L51564 69800
L51564 70419
" />
<path d="M51564 69800
L51621 69688
L51733 69631
L51902 69631
L52014 69688
L52070 69800
L52070 70419
" />
<path d="M53533 69631
L53533 70812
" />
<path d="M53533 69688
L53645 69631
L53870 69631
L53983 69688
L54039 69744
L54095 69856
L54095 70194
L54039 70306
L53983 70362
L53870 70419
L53645 70419
L53533 70362
" />
<path d="M54601 70419
L54601 69631
" />
<path d="M54601 69238
L54545 69294
L54601 69350
L54658 69294
L54601 69238
L54601 69350
" />
<path d="M54995 69631
L55445 69631
" />
<path d="M55164 69238
L55164 70250
L55220 70362
L55333 70419
L55445 70419
" />
<path d="M56345 70362
L56232 70419
L56007 70419
L55895 70362
L55839 70306
L55782 70194
L55782 69856
L55839 69744
L55895 69688
L56007 69631
L56232 69631
L56345 69688
" />
<path d="M56851 70419
L56851 69238
" />
<path d="M57357 70419
L57357 69800
L57301 69688
L57189 69631
L57020 69631
L56907 69688
L56851 69744
" />
<path d="M58820 70419
L58820 69238
" />
<path d="M59326 70419
L59326 69800
L59270 69688
L59157 69631
L58988 69631
L58876 69688
L58820 69744
" />
<path d="M60057 70419
L59944 70362
L59888 70306
L59832 70194
L59832 69856
L59888 69744
L59944 69688
L60057 69631
L60226 69631
L60338 69688
L60394 69744
L60451 69856
L60451 70194
L60394 70306
L60338 70362
L60226 70419
L60057 70419
" />
<path d="M61126 70419
L61013 70362
L60957 70250
L60957 69238
" />
<path d="M62025 70362
L61913 70419
L61688 70419
L61576 70362
L61519 70250
L61519 69800
L61576 69688
L61688 69631
L61913 69631
L62025 69688
L62082 69800
L62082 69913
L61519 70025
" />
<path d="M62532 70362
L62644 70419
L62869 70419
L62982 70362
L63038 70250
L63038 70194
L62982 70081
L62869 70025
L62700 70025
L62588 69969
L62532 69856
L62532 69800
L62588 69688
L62700 69631
L62869 69631
L62982 69688
" />
<path d="M64613 70419
L64500 70362
L64444 70306
L64388 70194
L64388 69856
L64444 69744
L64500 69688
L64613 69631
L64781 69631
L64894 69688
L64950 69744
L65006 69856
L65006 70194
L64950 70306
L64894 70362
L64781 70419
L64613 70419
" />
<path d="M65513 69631
L65513 70419
" />
<path d="M65513 69744
L65569 69688
L65681 69631
L65850 69631
L65962 69688
L66019 69800
L66019 70419
" />
<path d="M67425 70362
L67537 70419
L67762 70419
L67875 70362
L67931 70250
L67931 70194
L67875 70081
L67762 70025
L67594 70025
L67481 69969
L67425 69856
L67425 69800
L67481 69688
L67594 69631
L67762 69631
L67875 69688
" />
<path d="M68943 69631
L68943 70419
" />
<path d="M68437 69631
L68437 70250
L68493 70362
L68606 70419
L68775 70419
L68887 70362
L68943 70306
" />
<path d="M69506 70419
L69506 69631
" />
<path d="M69506 69856
L69562 69744
L69618 69688
L69731 69631
L69843 69631
" />
<path d="M70237 70419
L70237 69631
" />
<path d="M70237 69856
L70293 69744
L70349 69688
L70462 69631
L70574 69631
" />
<path d="M71137 70419
L71024 70362
L70968 70306
L70912 70194
L70912 69856
L70968 69744
L71024 69688
L71137 69631
L71306 69631
L71418 69688
L71474 69744
L71531 69856
L71531 70194
L71474 70306
L71418 70362
L71306 70419
L71137 70419
" />
<path d="M72543 69631
L72543 70419
" />
<path d="M72037 69631
L72037 70250
L72093 70362
L72205 70419
L72374 70419
L72487 70362
L72543 70306
" />
<path d="M73105 69631
L73105 70419
" />
<path d="M73105 69744
L73162 69688
L73274 69631
L73443 69631
L73555 69688
L73612 69800
L73612 70419
" />
<path d="M74680 70419
L74680 69238
" />
<path d="M74680 70362
L74568 70419
L74343 70419
L74230 70362
L74174 70306
L74118 70194
L74118 69856
L74174 69744
L74230 69688
L74343 69631
L74568 69631
L74680 69688
" />
<path d="M77099 70419
L77042 70419
L76930 70362
L76761 70194
L76480 69856
L76367 69688
L76311 69519
L76311 69406
L76367 69294
L76480 69238
L76536 69238
L76649 69294
L76705 69406
L76705 69463
L76649 69575
L76592 69631
L76255 69856
L76199 69913
L76142 70025
L76142 70194
L76199 70306
L76255 70362
L76367 70419
L76536 70419
L76649 70362
L76705 70306
L76874 70081
L76930 69913
L76930 69800
" />
<path d="M78392 69631
L78673 70419
L78955 69631
" />
<path d="M79405 69969
L80304 69969
" />
<path d="M80811 70362
L80923 70419
L81148 70419
L81261 70362
L81317 70250
L81317 70194
L81261 70081
L81148 70025
L80979 70025
L80867 69969
L80811 69856
L80811 69800
L80867 69688
L80979 69631
L81148 69631
L81261 69688
" />
<path d="M82329 70362
L82217 70419
L81992 70419
L81879 70362
L81823 70306
L81767 70194
L81767 69856
L81823 69744
L81879 69688
L81992 69631
L82217 69631
L82329 69688
" />
<path d="M83004 70419
L82892 70362
L82835 70306
L82779 70194
L82779 69856
L82835 69744
L82892 69688
L83004 69631
L83173 69631
L83285 69688
L83342 69744
L83398 69856
L83398 70194
L83342 70306
L83285 70362
L83173 70419
L83004 70419
" />
<path d="M83904 70419
L83904 69631
" />
<path d="M83904 69856
L83960 69744
L84016 69688
L84129 69631
L84241 69631
" />
<path d="M85085 70362
L84973 70419
L84748 70419
L84635 70362
L84579 70250
L84579 69800
L84635 69688
L84748 69631
L84973 69631
L85085 69688
L85141 69800
L85141 69913
L84579 70025
" />
</g>
<g style="fill:#000000; fill-opacity:0.0; 
stroke:#000000; stroke-width:157.48; stroke-opacity:1; 
stroke-linecap:round; stroke-linejoin:round;">
<path d="M96483 57248
L96483 17918
" />
</g>
<g style="fill:#000000; fill-opacity:0.0; 
stroke:#000000; stroke-width:2000; stroke-opacity:1; 
stroke-linecap:round; stroke-linejoin:round;">
<path d="M91378 16888
L91378 16888
" />
<path d="M87709 16888
L87709 16888
" />
<path d="M87398 58242
L87398 58242
" />
<path d="M83729 58242
L83729 58242
" />
<path d="M24478 58258
L24478 58258
" />
<path d="M20809 58258
L20809 58258
" />
<path d="M65488 58258
L65488 58258
" />
<path d="M61819 58258
L61819 58258
" />
<path d="M34118 16928
L34118 16928
" />
<path d="M30449 16928
L30449 16928
" />
<path d="M58838 16928
L58838 16928
" />
<path d="M55169 16928
L55169 16928
" />
</g>
<g style="fill:#000000; fill-opacity:0.0; 
stroke:#000000; stroke-width:23.622; stroke-opacity:1; 
stroke-linecap:round; stroke-linejoin:round;">
<path d="M85765 29440
L85777 29451
L85788 29485
L85788 29507
L85777 29541
L85754 29563
L85732 29575
L85687 29586
L85653 29586
L85608 29575
L85585 29563
L85563 29541
L85552 29507
L85552 29485
L85563 29451
L85574 29440
" />
<path d="M85552 29293
L85552 29248
L85563 29226
L85585 29204
L85630 29192
L85709 29192
L85754 29204
L85777 29226
L85788 29248
L85788 29293
L85777 29316
L85754 29338
L85709 29350
L85630 29350
L85585 29338
L85563 29316
L85552 29293
" />
<path d="M85788 29091
L85552 29091
L85788 28956
L85552 28956
" />
<path d="M85788 28720
L85788 28855
" />
<path d="M85788 28787
L85552 28787
L85585 28810
L85608 28832
L85619 28855
" />
</g> 
</svg>
