<?xml version="1.0" standalone="no"?>
 <!DOCTYPE svg PUBLIC "-//W3C//DTD SVG 1.1//EN" 
 "http://www.w3.org/Graphics/SVG/1.1/DTD/svg11.dtd"> 
<svg xmlns="http://www.w3.org/2000/svg" version="1.1" 
    width="29.7002cm" height="21.0007cm" viewBox="0 0 116930 82680 ">
<title>SVG Picture created as ThermocoupleLogger-F_SilkS.svg date 2019/03/14 17:05:17 </title>
  <desc>Picture generated by PCBNEW </desc>
<g style="fill:#000000; fill-opacity:1;stroke:#000000; stroke-opacity:1;
stroke-linecap:round; stroke-linejoin:round; "
 transform="translate(0 0) scale(1 1)">
</g>
<g style="fill:#000000; fill-opacity:0.0; 
stroke:#000000; stroke-width:-0.000787402; stroke-opacity:1; 
stroke-linecap:round; stroke-linejoin:round;">
</g>
<g style="fill:#000000; fill-opacity:0.0; 
stroke:#000000; stroke-width:118.11; stroke-opacity:1; 
stroke-linecap:round; stroke-linejoin:round;">
<path d="M34367 38273
L34517 38273
L34592 38311
L34667 38386
L34705 38536
L34705 38798
L34667 38948
L34592 39023
L34517 39061
L34367 39061
L34292 39023
L34217 38948
L34180 38798
L34180 38536
L34217 38386
L34292 38311
L34367 38273
" />
<path d="M35042 38536
L35042 39061
" />
<path d="M35042 38611
L35080 38573
L35155 38536
L35267 38536
L35342 38573
L35380 38648
L35380 39061
" />
<path d="M36317 38236
L35642 39248
" />
<path d="M36729 38273
L36879 38273
L36954 38311
L37029 38386
L37067 38536
L37067 38798
L37029 38948
L36954 39023
L36879 39061
L36729 39061
L36654 39023
L36579 38948
L36542 38798
L36542 38536
L36579 38386
L36654 38311
L36729 38273
" />
<path d="M37292 38536
L37592 38536
" />
<path d="M37404 39061
L37404 38386
L37442 38311
L37517 38273
L37592 38273
" />
<path d="M37742 38536
L38042 38536
" />
<path d="M37854 39061
L37854 38386
L37892 38311
L37967 38273
L38042 38273
" />
</g>
<g style="fill:#000000; fill-opacity:0.0; 
stroke:#000000; stroke-width:157.48; stroke-opacity:1; 
stroke-linecap:round; stroke-linejoin:round;">
<path d="M30465 17956
L17748 17956
" />
<path d="M17748 63696
L96543 64088
" />
<path d="M96543 64090
L96543 59288
" />
<path d="M17743 59288
L17743 63688
" />
<path d="M83703 59248
L65463 59248
" />
<path d="M87433 59248
L96543 59264
" />
<path d="M87393 57248
L96483 57248
" />
<path d="M65463 57248
L83703 57248
" />
<path d="M61827 59258
L24467 59258
" />
<path d="M24473 57258
L61833 57258
" />
<path d="M20843 57268
L17743 57268
" />
<path d="M20813 59268
L17740 59287
" />
<path d="M20813.7 59268.8 A1000.2 1000.2 0.0 0 0 20836.3 57269.5 " />
<path d="M24483.7 57258.8 A1000 1000 0.0 0 0 24467.1 59258.7 " />
<path d="M61813.7 59258.8 A1000 1000 0.0 0 0 61835 57259 " />
<path d="M65463.7 57248.8 A1000.2 1000.2 0.0 1 0 65465.5 59248.8 " />
<path d="M83693.7 59248.8 A1000.2 1000.2 0.0 1 0 83713.7 57248.6 " />
<path d="M87384.5 57248.8 A1000.2 1000.2 0.0 0 0 87423.7 59248.8 " />
<path d="M91343.7 15888.8 A1000.8 1000.8 0.0 0 0 91383.7 17889.6 " />
<path d="M55123.7 17928.8 A1000.8 1000.8 0.0 1 0 55123.7 15928.8 " />
<path d="M17703 15908
L17703 15908
" />
<path d="M30463 15908
L17703 15908
" />
<path d="M34123 17928
L55123 17928
" />
<path d="M55103 15928
L34143 15928
" />
<path d="M30463.7 17948.8 A1020 1020 0.0 0 0 30463.7 15908.8 " />
<path d="M34143.7 15928.8 A1000.2 1000.2 0.0 1 0 34123.7 17929 " />
<path d="M87723 17918
L58893 17918
" />
<path d="M58743 15938
L87753 15938
" />
<path d="M58823.7 15928.8 A990.202 990.202 0.0 0 0 58863.7 17908.8 " />
<path d="M91394 17893
L96480 17901
" />
<path d="M96443 15888
L91343 15888
" />
<path d="M96443 10688
L96443 15888
" />
<path d="M87723.7 17928.8 A996 996 0.0 0 0 87731.8 15936.9 " />
<path d="M17703 10668
L96433 10673
" />
<path d="M17703 15908
L17703 10668
" />
</g>
<g style="fill:#000000; fill-opacity:0.0; 
stroke:#000000; stroke-width:236.22; stroke-opacity:1; 
stroke-linecap:round; stroke-linejoin:round;">
<path d="M20638 35223
L20638 34042
L20919 34042
L21088 34098
L21200 34210
L21256 34323
L21313 34548
L21313 34716
L21256 34941
L21200 35054
L21088 35166
L20919 35223
L20638 35223
" />
<path d="M22269 35166
L22156 35223
L21931 35223
L21819 35166
L21763 35054
L21763 34604
L21819 34491
L21931 34435
L22156 34435
L22269 34491
L22325 34604
L22325 34716
L21763 34829
" />
<path d="M22775 35166
L22887 35223
L23112 35223
L23225 35166
L23281 35054
L23281 34998
L23225 34885
L23112 34829
L22944 34829
L22831 34773
L22775 34660
L22775 34604
L22831 34491
L22944 34435
L23112 34435
L23225 34491
" />
<path d="M23787 35223
L23787 34435
" />
<path d="M23787 34042
L23731 34098
L23787 34154
L23844 34098
L23787 34042
L23787 34154
" />
<path d="M24856 34435
L24856 35391
L24800 35504
L24743 35560
L24631 35616
L24462 35616
L24350 35560
" />
<path d="M24856 35166
L24743 35223
L24518 35223
L24406 35166
L24350 35110
L24294 34998
L24294 34660
L24350 34548
L24406 34491
L24518 34435
L24743 34435
L24856 34491
" />
<path d="M25418 34435
L25418 35223
" />
<path d="M25418 34548
L25475 34491
L25587 34435
L25756 34435
L25868 34491
L25925 34604
L25925 35223
" />
<path d="M26937 35166
L26824 35223
L26599 35223
L26487 35166
L26431 35054
L26431 34604
L26487 34491
L26599 34435
L26824 34435
L26937 34491
L26993 34604
L26993 34716
L26431 34829
" />
<path d="M28006 35223
L28006 34042
" />
<path d="M28006 35166
L27893 35223
L27668 35223
L27556 35166
L27499 35110
L27443 34998
L27443 34660
L27499 34548
L27556 34491
L27668 34435
L27893 34435
L28006 34491
" />
<path d="M29355 34435
L29580 35223
L29805 34660
L30030 35223
L30255 34435
" />
<path d="M30705 35223
L30705 34435
" />
<path d="M30705 34042
L30649 34098
L30705 34154
L30761 34098
L30705 34042
L30705 34154
" />
<path d="M31099 34435
L31549 34435
" />
<path d="M31268 34042
L31268 35054
L31324 35166
L31436 35223
L31549 35223
" />
<path d="M31943 35223
L31943 34042
" />
<path d="M32449 35223
L32449 34604
L32393 34491
L32280 34435
L32111 34435
L31999 34491
L31943 34548
" />
</g>
<g style="fill:#000000; fill-opacity:0.0; 
stroke:#000000; stroke-width:157.48; stroke-opacity:1; 
stroke-linecap:round; stroke-linejoin:round;">
<path d="M65306 54745
L65236 54707
L65086 54707
L65006 54745
L64922 54820
L64875 54895
L64856 55045
L64884 55120
L64950 55195
L65020 55232
L65170 55232
L65250 55195
" />
<path d="M65194 54445
L65002 54482
L64800 54595
L64664 54782
L64603 54970
L64617 55157
L64706 55345
L64880 55457
L65062 55495
L65255 55457
L65456 55345
L65592 55157
L65653 54970
L65639 54782
L65550 54595
L65376 54482
L65194 54445
" />
<path d="M66267 54557
L66197 55120
L66145 55232
L66061 55307
L65944 55345
L65869 55345
" />
<path d="M66656 55345
L66586 55307
L66553 55270
L66525 55195
L66553 54970
L66600 54895
L66642 54857
L66722 54820
L66834 54820
L66904 54857
L66937 54895
L66965 54970
L66937 55195
L66890 55270
L66848 55307
L66768 55345
L66656 55345
" />
<path d="M67256 55345
L67354 54557
" />
<path d="M67593 55345
L67645 54932
L67617 54857
L67547 54820
L67434 54820
L67354 54857
L67312 54895
" />
<path d="M68034 54820
L67968 55345
" />
<path d="M68025 54895
L68067 54857
L68146 54820
L68259 54820
L68329 54857
L68357 54932
L68306 55345
" />
<path d="M69281 55345
L69379 54557
L69679 54557
L69749 54595
L69782 54632
L69810 54707
L69796 54820
L69749 54895
L69707 54932
L69627 54970
L69328 54970
" />
<path d="M70406 55345
L70457 54932
L70429 54857
L70359 54820
L70209 54820
L70129 54857
" />
<path d="M70410 55307
L70331 55345
L70143 55345
L70073 55307
L70045 55232
L70054 55157
L70101 55082
L70181 55045
L70368 55045
L70448 55007
" />
<path d="M70734 54820
L71034 54820
" />
<path d="M70879 54557
L70795 55232
L70823 55307
L70893 55345
L70968 55345
" />
<path d="M71535 55307
L71455 55345
L71305 55345
L71235 55307
L71207 55232
L71244 54932
L71291 54857
L71371 54820
L71521 54820
L71591 54857
L71619 54932
L71610 55007
L71226 55082
" />
<path d="M71905 55345
L71971 54820
" />
<path d="M71962 54895
L72004 54857
L72083 54820
L72196 54820
L72266 54857
L72294 54932
L72243 55345
" />
<path d="M72294 54932
L72341 54857
L72421 54820
L72533 54820
L72604 54857
L72632 54932
L72580 55345
" />
<path d="M73293 55345
L73344 54932
L73316 54857
L73246 54820
L73096 54820
L73016 54857
" />
<path d="M73297 55307
L73218 55345
L73030 55345
L72960 55307
L72932 55232
L72941 55157
L72988 55082
L73068 55045
L73255 55045
L73335 55007
" />
<path d="M73733 54820
L73668 55345
" />
<path d="M73724 54895
L73766 54857
L73846 54820
L73958 54820
L74029 54857
L74057 54932
L74005 55345
" />
<path d="M74422 55307
L74418 55345
L74371 55420
L74328 55457
" />
<path d="M75678 54557
L75608 55120
L75556 55232
L75472 55307
L75355 55345
L75280 55345
" />
<path d="M75955 55345
L76053 54557
L76353 54557
L76424 54595
L76456 54632
L76484 54707
L76470 54820
L76424 54895
L76381 54932
L76302 54970
L76002 54970
" />
<path d="M77394 54932
L77656 54932
" />
<path d="M77717 55345
L77342 55345
L77441 54557
L77816 54557
" />
<path d="M78120 54820
L78055 55345
" />
<path d="M78111 54895
L78153 54857
L78233 54820
L78345 54820
L78415 54857
L78444 54932
L78392 55345
" />
<path d="M78720 54820
L79020 54820
" />
<path d="M78865 54557
L78781 55232
L78809 55307
L78879 55345
L78954 55345
" />
<path d="M79522 55307
L79442 55345
L79292 55345
L79222 55307
L79193 55232
L79231 54932
L79278 54857
L79358 54820
L79508 54820
L79578 54857
L79606 54932
L79597 55007
L79212 55082
" />
<path d="M79892 55345
L79957 54820
" />
<path d="M79939 54970
L79986 54895
L80028 54857
L80107 54820
L80182 54820
" />
<path d="M80445 54820
L80346 55607
" />
<path d="M80440 54857
L80520 54820
L80670 54820
L80740 54857
L80773 54895
L80801 54970
L80773 55195
L80726 55270
L80684 55307
L80604 55345
L80454 55345
L80384 55307
" />
<path d="M81092 55345
L81157 54820
" />
<path d="M81139 54970
L81185 54895
L81228 54857
L81307 54820
L81382 54820
" />
<path d="M81579 55345
L81645 54820
" />
<path d="M81678 54557
L81635 54595
L81668 54632
L81710 54595
L81678 54557
L81668 54632
" />
<path d="M81921 55307
L81992 55345
L82142 55345
L82221 55307
L82268 55232
L82273 55195
L82245 55120
L82174 55082
L82062 55082
L81992 55045
L81963 54970
L81968 54932
L82015 54857
L82095 54820
L82207 54820
L82277 54857
" />
<path d="M82896 55307
L82816 55345
L82666 55345
L82596 55307
L82568 55232
L82606 54932
L82652 54857
L82732 54820
L82882 54820
L82952 54857
L82981 54932
L82971 55007
L82587 55082
" />
<path d="M83234 55307
L83304 55345
L83454 55345
L83534 55307
L83580 55232
L83585 55195
L83557 55120
L83487 55082
L83374 55082
L83304 55045
L83276 54970
L83280 54932
L83327 54857
L83407 54820
L83520 54820
L83590 54857
" />
</g>
<g style="fill:#000000; fill-opacity:0.0; 
stroke:#000000; stroke-width:236.22; stroke-opacity:1; 
stroke-linecap:round; stroke-linejoin:round;">
<path d="M44553 51542
L45228 51542
" />
<path d="M44890 52723
L44890 51542
" />
<path d="M46296 52610
L46240 52666
L46071 52723
L45959 52723
L45790 52666
L45678 52554
L45621 52441
L45565 52216
L45565 52048
L45621 51823
L45678 51710
L45790 51598
L45959 51542
L46071 51542
L46240 51598
L46296 51654
" />
<path d="M46971 52048
L46859 51991
L46803 51935
L46746 51823
L46746 51766
L46803 51654
L46859 51598
L46971 51542
L47196 51542
L47309 51598
L47365 51654
L47421 51766
L47421 51823
L47365 51935
L47309 51991
L47196 52048
L46971 52048
L46859 52104
L46803 52160
L46746 52273
L46746 52498
L46803 52610
L46859 52666
L46971 52723
L47196 52723
L47309 52666
L47365 52610
L47421 52498
L47421 52273
L47365 52160
L47309 52104
L47196 52048
" />
<path d="M37053 51542
L37728 51542
" />
<path d="M37390 52723
L37390 51542
" />
<path d="M38796 52610
L38740 52666
L38571 52723
L38459 52723
L38290 52666
L38178 52554
L38121 52441
L38065 52216
L38065 52048
L38121 51823
L38178 51710
L38290 51598
L38459 51542
L38571 51542
L38740 51598
L38796 51654
" />
<path d="M39190 51542
L39977 51542
L39471 52723
" />
<path d="M29553 51542
L30228 51542
" />
<path d="M29890 52723
L29890 51542
" />
<path d="M31296 52610
L31240 52666
L31071 52723
L30959 52723
L30790 52666
L30678 52554
L30621 52441
L30565 52216
L30565 52048
L30621 51823
L30678 51710
L30790 51598
L30959 51542
L31071 51542
L31240 51598
L31296 51654
" />
<path d="M32309 51542
L32084 51542
L31971 51598
L31915 51654
L31803 51823
L31746 52048
L31746 52498
L31803 52610
L31859 52666
L31971 52723
L32196 52723
L32309 52666
L32365 52610
L32421 52498
L32421 52216
L32365 52104
L32309 52048
L32196 51991
L31971 51991
L31859 52048
L31803 52104
L31746 52216
" />
<path d="M23053 51542
L23728 51542
" />
<path d="M23390 52723
L23390 51542
" />
<path d="M24796 52610
L24740 52666
L24571 52723
L24459 52723
L24290 52666
L24178 52554
L24121 52441
L24065 52216
L24065 52048
L24121 51823
L24178 51710
L24290 51598
L24459 51542
L24571 51542
L24740 51598
L24796 51654
" />
<path d="M25865 51542
L25303 51542
L25246 52104
L25303 52048
L25415 51991
L25696 51991
L25809 52048
L25865 52104
L25921 52216
L25921 52498
L25865 52610
L25809 52666
L25696 52723
L25415 52723
L25303 52666
L25246 52610
" />
<path d="M88053 51042
L88728 51042
" />
<path d="M88390 52223
L88390 51042
" />
<path d="M89796 52110
L89740 52166
L89571 52223
L89459 52223
L89290 52166
L89178 52054
L89121 51941
L89065 51716
L89065 51548
L89121 51323
L89178 51210
L89290 51098
L89459 51042
L89571 51042
L89740 51098
L89796 51154
" />
<path d="M90809 51435
L90809 52223
" />
<path d="M90527 50985
L90246 51829
L90977 51829
" />
<path d="M81053 51042
L81728 51042
" />
<path d="M81390 52223
L81390 51042
" />
<path d="M82796 52110
L82740 52166
L82571 52223
L82459 52223
L82290 52166
L82178 52054
L82121 51941
L82065 51716
L82065 51548
L82121 51323
L82178 51210
L82290 51098
L82459 51042
L82571 51042
L82740 51098
L82796 51154
" />
<path d="M83190 51042
L83921 51042
L83527 51491
L83696 51491
L83809 51548
L83865 51604
L83921 51716
L83921 51998
L83865 52110
L83809 52166
L83696 52223
L83359 52223
L83246 52166
L83190 52110
" />
<path d="M74053 51042
L74728 51042
" />
<path d="M74390 52223
L74390 51042
" />
<path d="M75796 52110
L75740 52166
L75571 52223
L75459 52223
L75290 52166
L75178 52054
L75121 51941
L75065 51716
L75065 51548
L75121 51323
L75178 51210
L75290 51098
L75459 51042
L75571 51042
L75740 51098
L75796 51154
" />
<path d="M76246 51154
L76303 51098
L76415 51042
L76696 51042
L76809 51098
L76865 51154
L76921 51266
L76921 51379
L76865 51548
L76190 52223
L76921 52223
" />
<path d="M66453 50882
L67128 50882
" />
<path d="M66790 52063
L66790 50882
" />
<path d="M68196 51950
L68140 52006
L67971 52063
L67859 52063
L67690 52006
L67578 51894
L67521 51781
L67465 51556
L67465 51388
L67521 51163
L67578 51050
L67690 50938
L67859 50882
L67971 50882
L68140 50938
L68196 50994
" />
<path d="M69321 52063
L68646 52063
" />
<path d="M68984 52063
L68984 50882
L68871 51050
L68759 51163
L68646 51219
" />
<path d="M26073 54708
L25961 54651
L25905 54595
L25848 54483
L25848 54426
L25905 54314
L25961 54258
L26073 54202
L26298 54202
L26411 54258
L26467 54314
L26523 54426
L26523 54483
L26467 54595
L26411 54651
L26298 54708
L26073 54708
L25961 54764
L25905 54820
L25848 54933
L25848 55158
L25905 55270
L25961 55326
L26073 55383
L26298 55383
L26411 55326
L26467 55270
L26523 55158
L26523 54933
L26467 54820
L26411 54764
L26298 54708
" />
<path d="M27030 54933
L27929 54933
" />
<path d="M29167 55270
L29111 55326
L28942 55383
L28829 55383
L28661 55326
L28548 55214
L28492 55101
L28436 54876
L28436 54708
L28492 54483
L28548 54370
L28661 54258
L28829 54202
L28942 54202
L29111 54258
L29167 54314
" />
<path d="M29673 55383
L29673 54202
" />
<path d="M30179 55383
L30179 54764
L30123 54651
L30010 54595
L29842 54595
L29729 54651
L29673 54708
" />
<path d="M31248 55383
L31248 54764
L31191 54651
L31079 54595
L30854 54595
L30742 54651
" />
<path d="M31248 55326
L31135 55383
L30854 55383
L30742 55326
L30685 55214
L30685 55101
L30742 54989
L30854 54933
L31135 54933
L31248 54876
" />
<path d="M31810 54595
L31810 55383
" />
<path d="M31810 54708
L31866 54651
L31979 54595
L32148 54595
L32260 54651
L32316 54764
L32316 55383
" />
<path d="M32879 54595
L32879 55383
" />
<path d="M32879 54708
L32935 54651
L33048 54595
L33216 54595
L33329 54651
L33385 54764
L33385 55383
" />
<path d="M34397 55326
L34285 55383
L34060 55383
L33947 55326
L33891 55214
L33891 54764
L33947 54651
L34060 54595
L34285 54595
L34397 54651
L34454 54764
L34454 54876
L33891 54989
" />
<path d="M35129 55383
L35016 55326
L34960 55214
L34960 54202
" />
<path d="M36310 54202
L36985 54202
" />
<path d="M36647 55383
L36647 54202
" />
<path d="M37378 55383
L37378 54202
" />
<path d="M37884 55383
L37884 54764
L37828 54651
L37716 54595
L37547 54595
L37434 54651
L37378 54708
" />
<path d="M38897 55326
L38784 55383
L38559 55383
L38447 55326
L38391 55214
L38391 54764
L38447 54651
L38559 54595
L38784 54595
L38897 54651
L38953 54764
L38953 54876
L38391 54989
" />
<path d="M39459 55383
L39459 54595
" />
<path d="M39459 54820
L39515 54708
L39572 54651
L39684 54595
L39797 54595
" />
<path d="M40190 55383
L40190 54595
" />
<path d="M40190 54708
L40247 54651
L40359 54595
L40528 54595
L40640 54651
L40697 54764
L40697 55383
" />
<path d="M40697 54764
L40753 54651
L40865 54595
L41034 54595
L41147 54651
L41203 54764
L41203 55383
" />
<path d="M41934 55383
L41821 55326
L41765 55270
L41709 55158
L41709 54820
L41765 54708
L41821 54651
L41934 54595
L42103 54595
L42215 54651
L42271 54708
L42328 54820
L42328 55158
L42271 55270
L42215 55326
L42103 55383
L41934 55383
" />
<path d="M43340 55326
L43227 55383
L43003 55383
L42890 55326
L42834 55270
L42778 55158
L42778 54820
L42834 54708
L42890 54651
L43003 54595
L43227 54595
L43340 54651
" />
<path d="M44015 55383
L43902 55326
L43846 55270
L43790 55158
L43790 54820
L43846 54708
L43902 54651
L44015 54595
L44184 54595
L44296 54651
L44352 54708
L44409 54820
L44409 55158
L44352 55270
L44296 55326
L44184 55383
L44015 55383
" />
<path d="M45421 54595
L45421 55383
" />
<path d="M44915 54595
L44915 55214
L44971 55326
L45084 55383
L45252 55383
L45365 55326
L45421 55270
" />
<path d="M45983 54595
L45983 55776
" />
<path d="M45983 54651
L46096 54595
L46321 54595
L46433 54651
L46490 54708
L46546 54820
L46546 55158
L46490 55270
L46433 55326
L46321 55383
L46096 55383
L45983 55326
" />
<path d="M47221 55383
L47108 55326
L47052 55214
L47052 54202
" />
<path d="M48121 55326
L48008 55383
L47783 55383
L47671 55326
L47614 55214
L47614 54764
L47671 54651
L47783 54595
L48008 54595
L48121 54651
L48177 54764
L48177 54876
L47614 54989
" />
<path d="M49583 55383
L49583 54202
L49864 54202
L50033 54258
L50145 54370
L50202 54483
L50258 54708
L50258 54876
L50202 55101
L50145 55214
L50033 55326
L49864 55383
L49583 55383
" />
<path d="M51270 55383
L51270 54764
L51214 54651
L51102 54595
L50877 54595
L50764 54651
" />
<path d="M51270 55326
L51158 55383
L50877 55383
L50764 55326
L50708 55214
L50708 55101
L50764 54989
L50877 54933
L51158 54933
L51270 54876
" />
<path d="M51664 54595
L52114 54595
" />
<path d="M51833 54202
L51833 55214
L51889 55326
L52001 55383
L52114 55383
" />
<path d="M53014 55383
L53014 54764
L52958 54651
L52845 54595
L52620 54595
L52508 54651
" />
<path d="M53014 55326
L52901 55383
L52620 55383
L52508 55326
L52451 55214
L52451 55101
L52508 54989
L52620 54933
L52901 54933
L53014 54876
" />
<path d="M53745 55383
L53632 55326
L53576 55214
L53576 54202
" />
<path d="M54364 55383
L54251 55326
L54195 55270
L54139 55158
L54139 54820
L54195 54708
L54251 54651
L54364 54595
L54532 54595
L54645 54651
L54701 54708
L54757 54820
L54757 55158
L54701 55270
L54645 55326
L54532 55383
L54364 55383
" />
<path d="M55770 54595
L55770 55551
L55713 55664
L55657 55720
L55545 55776
L55376 55776
L55263 55720
" />
<path d="M55770 55326
L55657 55383
L55432 55383
L55320 55326
L55263 55270
L55207 55158
L55207 54820
L55263 54708
L55320 54651
L55432 54595
L55657 54595
L55770 54651
" />
<path d="M56838 54595
L56838 55551
L56782 55664
L56726 55720
L56613 55776
L56445 55776
L56332 55720
" />
<path d="M56838 55326
L56726 55383
L56501 55383
L56388 55326
L56332 55270
L56276 55158
L56276 54820
L56332 54708
L56388 54651
L56501 54595
L56726 54595
L56838 54651
" />
<path d="M57851 55326
L57738 55383
L57513 55383
L57401 55326
L57344 55214
L57344 54764
L57401 54651
L57513 54595
L57738 54595
L57851 54651
L57907 54764
L57907 54876
L57344 54989
" />
<path d="M58413 55383
L58413 54595
" />
<path d="M58413 54820
L58469 54708
L58526 54651
L58638 54595
L58751 54595
" />
</g>
<g style="fill:#000000; fill-opacity:0.0; 
stroke:#000000; stroke-width:118.11; stroke-opacity:1; 
stroke-linecap:round; stroke-linejoin:round;">
<path d="M39895 38947
L40007 38985
L40195 38985
L40270 38947
L40307 38910
L40345 38835
L40345 38760
L40307 38685
L40270 38647
L40195 38610
L40045 38572
L39970 38535
L39932 38497
L39895 38422
L39895 38347
L39932 38272
L39970 38235
L40045 38197
L40232 38197
L40345 38235
" />
<path d="M40982 38947
L40907 38985
L40757 38985
L40682 38947
L40645 38872
L40645 38572
L40682 38497
L40757 38460
L40907 38460
L40982 38497
L41020 38572
L41020 38647
L40645 38722
" />
<path d="M41470 38985
L41395 38947
L41357 38872
L41357 38197
" />
<path d="M42069 38947
L41994 38985
L41844 38985
L41769 38947
L41732 38872
L41732 38572
L41769 38497
L41844 38460
L41994 38460
L42069 38497
L42107 38572
L42107 38647
L41732 38722
" />
<path d="M42782 38947
L42707 38985
L42557 38985
L42482 38947
L42444 38910
L42407 38835
L42407 38610
L42444 38535
L42482 38497
L42557 38460
L42707 38460
L42782 38497
" />
<path d="M43007 38460
L43307 38460
" />
<path d="M43119 38197
L43119 38872
L43157 38947
L43232 38985
L43307 38985
" />
<path d="M34120 37887
L34232 37925
L34420 37925
L34495 37887
L34532 37850
L34570 37775
L34570 37700
L34532 37625
L34495 37587
L34420 37550
L34270 37512
L34195 37475
L34157 37437
L34120 37362
L34120 37287
L34157 37212
L34195 37175
L34270 37137
L34457 37137
L34570 37175
" />
<path d="M34832 37400
L34982 37925
L35132 37550
L35282 37925
L35432 37400
" />
<path d="M35732 37925
L35732 37400
" />
<path d="M35732 37137
L35695 37175
L35732 37212
L35770 37175
L35732 37137
L35732 37212
" />
<path d="M35994 37400
L36294 37400
" />
<path d="M36107 37137
L36107 37812
L36144 37887
L36219 37925
L36294 37925
" />
<path d="M36894 37887
L36819 37925
L36669 37925
L36594 37887
L36557 37850
L36519 37775
L36519 37550
L36557 37475
L36594 37437
L36669 37400
L36819 37400
L36894 37437
" />
<path d="M37232 37925
L37232 37137
" />
<path d="M37569 37925
L37569 37512
L37532 37437
L37457 37400
L37344 37400
L37269 37437
L37232 37475
" />
<path d="M70712 19945
L70712 19157
L70900 19157
L71012 19195
L71087 19270
L71125 19345
L71162 19495
L71162 19607
L71125 19757
L71087 19832
L71012 19907
L70900 19945
L70712 19945
" />
<path d="M71500 19945
L71500 19420
" />
<path d="M71500 19157
L71462 19195
L71500 19232
L71537 19195
L71500 19157
L71500 19232
" />
<path d="M71837 19907
L71912 19945
L72062 19945
L72137 19907
L72175 19832
L72175 19795
L72137 19720
L72062 19682
L71950 19682
L71875 19645
L71837 19570
L71837 19532
L71875 19457
L71950 19420
L72062 19420
L72137 19457
" />
<path d="M72512 19420
L72512 20207
" />
<path d="M72512 19457
L72587 19420
L72737 19420
L72812 19457
L72849 19495
L72887 19570
L72887 19795
L72849 19870
L72812 19907
L72737 19945
L72587 19945
L72512 19907
" />
<path d="M73337 19945
L73262 19907
L73224 19832
L73224 19157
" />
<path d="M73974 19945
L73974 19532
L73937 19457
L73862 19420
L73712 19420
L73637 19457
" />
<path d="M73974 19907
L73899 19945
L73712 19945
L73637 19907
L73599 19832
L73599 19757
L73637 19682
L73712 19645
L73899 19645
L73974 19607
" />
<path d="M74274 19420
L74462 19945
" />
<path d="M74649 19420
L74462 19945
L74387 20132
L74349 20169
L74274 20207
" />
<path d="M69587 41607
L69700 41645
L69887 41645
L69962 41607
L70000 41570
L70037 41495
L70037 41420
L70000 41345
L69962 41307
L69887 41270
L69737 41232
L69662 41195
L69625 41157
L69587 41082
L69587 41007
L69625 40932
L69662 40895
L69737 40857
L69925 40857
L70037 40895
" />
<path d="M70675 41607
L70600 41645
L70450 41645
L70375 41607
L70337 41532
L70337 41232
L70375 41157
L70450 41120
L70600 41120
L70675 41157
L70712 41232
L70712 41307
L70337 41382
" />
<path d="M71050 41645
L71050 41120
" />
<path d="M71050 41270
L71087 41195
L71124 41157
L71199 41120
L71274 41120
" />
<path d="M71537 41645
L71537 41120
" />
<path d="M71537 40857
L71499 40895
L71537 40932
L71574 40895
L71537 40857
L71537 40932
" />
<path d="M72249 41645
L72249 41232
L72212 41157
L72137 41120
L71987 41120
L71912 41157
" />
<path d="M72249 41607
L72174 41645
L71987 41645
L71912 41607
L71874 41532
L71874 41457
L71912 41382
L71987 41345
L72174 41345
L72249 41307
" />
<path d="M72737 41645
L72662 41607
L72624 41532
L72624 40857
" />
<path d="M77387 41232
L77650 41232
" />
<path d="M77762 41645
L77387 41645
L77387 40857
L77762 40857
" />
<path d="M78100 41120
L78100 41645
" />
<path d="M78100 41195
L78137 41157
L78212 41120
L78325 41120
L78400 41157
L78437 41232
L78437 41645
" />
<path d="M79150 41607
L79075 41645
L78925 41645
L78850 41607
L78812 41570
L78775 41495
L78775 41270
L78812 41195
L78850 41157
L78925 41120
L79075 41120
L79150 41157
" />
<path d="M79599 41645
L79524 41607
L79487 41570
L79450 41495
L79450 41270
L79487 41195
L79524 41157
L79599 41120
L79712 41120
L79787 41157
L79824 41195
L79862 41270
L79862 41495
L79824 41570
L79787 41607
L79712 41645
L79599 41645
" />
<path d="M80537 41645
L80537 40857
" />
<path d="M80537 41607
L80462 41645
L80312 41645
L80237 41607
L80199 41570
L80162 41495
L80162 41270
L80199 41195
L80237 41157
L80312 41120
L80462 41120
L80537 41157
" />
<path d="M81212 41607
L81137 41645
L80987 41645
L80912 41607
L80874 41532
L80874 41232
L80912 41157
L80987 41120
L81137 41120
L81212 41157
L81249 41232
L81249 41307
L80874 41382
" />
<path d="M81587 41645
L81587 41120
" />
<path d="M81587 41270
L81624 41195
L81662 41157
L81737 41120
L81812 41120
" />
</g>
<g style="fill:#000000; fill-opacity:0.0; 
stroke:#000000; stroke-width:157.48; stroke-opacity:1; 
stroke-linecap:round; stroke-linejoin:round;">
<path d="M17743 57268
L17743 17958
" />
<path d="M96483 57248
L96483 17918
" />
</g>
<g style="fill:#000000; fill-opacity:0.0; 
stroke:#000000; stroke-width:94.4882; stroke-opacity:1; 
stroke-linecap:round; stroke-linejoin:round;">
<path d="M81269 22261
L80088 22261
" />
<path d="M78120 23246
L78120 26789
" />
<path d="M80088 27773
L81269 27773
" />
<path d="M83238 26789
L83238 23246
" />
<path d="M43141 30973
L41960 30973
" />
<path d="M39992 31958
L39992 35501
" />
<path d="M41960 36485
L43141 36485
" />
<path d="M45110 35501
L45110 31958
" />
<path d="M62632 29141
L61687 29141
" />
<path d="M61687 27755
L62632 27755
" />
<path d="M21651 23877
L21651 26948
" />
<path d="M20076 23877
L20076 26948
" />
<path d="M21651 23877
L20076 23877
" />
<path d="M40220 18531
L36614 18531
" />
<path d="M40819 19129
L40220 18531
" />
<path d="M40220 22728
L40819 22129
" />
<path d="M36614 22728
L40220 22728
" />
<path d="M40819 22129
L40819 21507
" />
<path d="M40819 19129
L40819 19751
" />
<path d="M36614 18531
L36614 19751
" />
<path d="M36614 22728
L36614 21507
" />
<path d="M63187 30958
L63187 32108
" />
<path d="M60699 30958
L60699 32659
" />
<path d="M60699 30958
L61431 30958
" />
<path d="M63187 30958
L62455 30958
" />
</g>
<g style="fill:#000000; fill-opacity:0.0; 
stroke:#000000; stroke-width:78.7402; stroke-opacity:1; 
stroke-linecap:round; stroke-linejoin:round;">
<circle cx="23558.4" cy="19197" r="196.85" /> 
</g>
<g style="fill:#000000; fill-opacity:0.0; 
stroke:#000000; stroke-width:157.48; stroke-opacity:1; 
stroke-linecap:round; stroke-linejoin:round;">
<path d="M29463 18803
L29463 19787
" />
<path d="M29070 18803
L29463 18803
" />
<path d="M29070 17228
L29070 18803
" />
<path d="M25133 17228
L29070 17228
" />
<path d="M25133 18212
L25133 17228
" />
<path d="M24148 22543
L24739 22543
" />
<path d="M24148 23527
L24148 22543
" />
<path d="M24739 23527
L24148 23527
" />
<path d="M24739 27661
L24739 23527
" />
<path d="M24739 31008
L24739 30023
" />
<path d="M26314 31008
L24739 31008
" />
<path d="M29463 31008
L28873 31008
" />
<path d="M29463 24118
L29463 31008
" />
</g>
<g style="fill:#000000; fill-opacity:0.0; 
stroke:#000000; stroke-width:94.4882; stroke-opacity:1; 
stroke-linecap:round; stroke-linejoin:round;">
<path d="M76047 22187
L76180 22054
" />
<path d="M75044 21185
L76047 22187
" />
<path d="M74042 24192
L73040 23189
" />
<path d="M72817 21408
L73263 20962
" />
<path d="M76269 23969
L75824 24414
" />
<path d="M76492 24192
L76269 23969
" />
<path d="M36614 27406
L36614 26186
" />
<path d="M36614 23210
L36614 24430
" />
<path d="M40819 23808
L40819 24430
" />
<path d="M40819 26808
L40819 26186
" />
<path d="M36614 27406
L40220 27406
" />
<path d="M40220 27406
L40819 26808
" />
<path d="M40819 23808
L40220 23210
" />
<path d="M40220 23210
L36614 23210
" />
<path d="M35173 19192
L30488 19192
" />
<path d="M30488 19192
L30488 25177
" />
<path d="M30488 25177
L35173 25177
" />
<path d="M35173 25177
L35173 19192
" />
<path d="M35173 21791
L34583 21791
" />
<path d="M34583 21791
L34583 22578
" />
<path d="M34583 22578
L35173 22578
" />
<path d="M35173 22578
L35173 21791
" />
<path d="M35173 19192
L34583 19192
" />
<path d="M34583 19192
L34583 20610
" />
<path d="M34583 20610
L35173 20610
" />
<path d="M35173 20610
L35173 19192
" />
<path d="M35173 23759
L34583 23759
" />
<path d="M34583 23759
L34583 25177
" />
<path d="M34583 25177
L35173 25177
" />
<path d="M35173 25177
L35173 23759
" />
<path d="M33402 19192
L33402 19783
" />
<path d="M33402 19783
L31079 19783
" />
<path d="M31079 19783
L31079 22184
" />
<path d="M33402 25177
L33402 24586
" />
<path d="M33402 24586
L31079 24586
" />
<path d="M31079 24586
L31079 22184
" />
<path d="M35409 20925
L35409 18956
" />
<path d="M35409 18956
L33441 18956
" />
<path d="M19815 30539
L19815 30662
" />
<path d="M19815 28715
L19815 28838
" />
<path d="M20224.1 30539.2 A1181.1 1181.1 0.0 0 0 21863.5 30539.1 " />
<path d="M21863.5 28838.6 A1181.1 1181.1 0.0 0 0 20224.1 28838.4 " />
<path d="M19815.4 30661.7 A1566.93 1566.93 0.0 0 0 22360.5 30538.1 " />
<path d="M22360.5 28839.5 A1566.93 1566.93 0.0 0 0 19815.4 28716 " />
</g>
<g style="fill:#000000; fill-opacity:0.0; 
stroke:#000000; stroke-width:78.7402; stroke-opacity:1; 
stroke-linecap:round; stroke-linejoin:round;">
<path d="M87709.1 17888.8 A1000 1000 0.0 0 0 87709.1 15888.8 " />
<path d="M91378.4 15888.8 A1000 1000 0.0 0 0 91378.4 17888.8 " />
<path d="M83729.2 59242.7 A1000 1000 0.0 0 0 83729.2 57242.7 " />
<path d="M87398.5 57242.7 A1000 1000 0.0 0 0 87398.5 59242.7 " />
<path d="M20809.1 59258.8 A1000 1000 0.0 0 0 20809.1 57258.8 " />
<path d="M24478.4 57258.8 A1000 1000 0.0 0 0 24478.4 59258.8 " />
<path d="M61819.1 59258.8 A1000 1000 0.0 0 0 61819.1 57258.8 " />
<path d="M65488.4 57258.8 A1000 1000 0.0 0 0 65488.4 59258.8 " />
<path d="M30449.1 17928.8 A1000 1000 0.0 0 0 30449.1 15928.8 " />
<path d="M34118.4 15928.8 A1000 1000 0.0 0 0 34118.4 17928.8 " />
<path d="M55169.1 17928.8 A1000 1000 0.0 0 0 55169.1 15928.8 " />
<path d="M58838.4 15928.8 A1000 1000 0.0 0 0 58838.4 17928.8 " />
</g>
<g style="fill:#000000; fill-opacity:1.0; 
stroke:#000000; stroke-width:7.87402; stroke-opacity:1; 
stroke-linecap:round; stroke-linejoin:round;">
<polyline style="fill-rule:evenodd;"
points="23784,36407
23801,36413
23816,36426
23828,36448
23837,36483
23845,36533
23851,36600
23856,36686
23859,36795
23861,36928
23863,37088
23863,37279
23863,37501
23863,37758
23863,38052
23863,38098
23863,38394
23863,38652
23863,38875
23862,39066
23861,39227
23860,39361
23858,39470
23856,39557
23853,39625
23850,39675
23846,39711
23842,39735
23837,39750
23832,39757
23823,39762
23807,39767
23782,39772
23744,39775
23691,39778
23622,39781
23532,39783
23421,39785
23285,39786
23121,39787
22928,39788
22703,39788
22443,39788
22146,39788
22103,39788
21801,39788
21536,39788
21307,39788
21109,39787
20942,39786
20802,39785
20688,39783
20596,39781
20523,39779
20469,39776
20429,39772
20402,39768
20385,39763
20376,39758
20375,39757
20369,39748
20364,39732
20360,39706
20356,39668
20353,39614
20350,39544
20348,39453
20347,39340
20345,39201
20344,39035
20344,38839
20343,38610
20343,38346
20343,38098
20343,37803
20344,37545
20344,37321
20345,37130
20346,36969
20347,36874
20563,36874
20571,36894
20592,36936
20603,36958
20612,36976
20619,36997
20625,37022
20630,37056
20634,37103
20637,37164
20639,37244
20641,37346
20642,37474
20643,37630
20643,37818
20643,38041
20643,38149
20643,38356
20642,38551
20641,38731
20639,38892
20637,39030
20635,39141
20632,39222
20629,39269
20627,39279
20608,39311
20587,39353
20564,39408
20979,39408
21101,39407
21207,39405
21291,39402
21347,39399
21371,39394
21371,39393
21347,39366
21319,39320
21316,39314
21304,39285
21296,39245
21290,39190
21286,39112
21284,39006
21283,38867
21283,38859
21284,38719
21287,38607
21291,38526
21297,38479
21303,38468
21326,38484
21356,38521
21358,38523
21389,38568
21416,38598
21440,38628
21472,38677
21483,38695
21516,38748
21565,38818
21621,38892
21632,38905
21717,39018
21788,39125
21842,39222
21875,39301
21883,39347
21883,39408
22770,39408
22761,39398
22883,39398
22902,39401
22955,39404
23036,39406
23138,39408
23255,39408
23263,39408
23402,39408
23506,39406
23577,39402
23621,39396
23640,39388
23643,39383
23631,39349
23613,39319
23605,39305
23599,39279
23595,39239
23591,39182
23588,39103
23586,38999
23584,38867
23584,38703
23583,38505
23583,38414
23583,37548
22902,37548
22933,37607
22941,37628
22947,37658
22952,37702
22956,37763
22959,37845
22961,37952
22962,38088
22963,38257
22963,38448
22963,38646
22963,38809
22962,38939
22960,39042
22958,39121
22954,39180
22950,39224
22943,39256
22936,39281
22926,39303
22923,39308
22899,39358
22885,39392
22883,39398
22761,39398
22722,39353
22687,39315
22665,39290
22663,39288
22618,39239
22561,39172
22502,39100
22448,39030
22408,38974
22392,38949
22360,38898
22310,38827
22249,38743
22183,38656
22120,38576
22071,38517
22024,38457
21979,38391
21976,38385
21875,38229
21800,38127
21745,38055
21809,37986
21864,37924
21935,37840
22014,37744
22091,37647
22159,37559
22181,37528
22421,37229
22610,37027
22766,36868
22337,36868
22191,36868
22080,36869
22000,36873
21945,36879
21911,36890
21892,36906
21885,36929
21883,36960
21883,36975
21871,37017
21840,37070
21826,37089
21780,37150
21731,37221
21713,37248
21679,37301
21653,37338
21644,37348
21620,37371
21581,37415
21534,37471
21486,37531
21443,37585
21414,37626
21403,37644
21390,37667
21357,37705
21343,37718
21283,37776
21283,37445
21284,37301
21289,37189
21298,37099
21312,37024
21333,36955
21353,36903
21356,36891
21349,36883
21327,36876
21287,36872
21222,36870
21129,36869
21001,36868
20965,36868
20843,36869
20736,36869
20650,36871
20591,36872
20564,36874
20563,36874
20347,36874
20347,36836
20349,36726
20351,36639
20353,36572
20357,36521
20360,36485
20365,36461
20370,36447
20375,36440
20384,36433
20402,36428
20430,36423
20472,36419
20530,36416
20608,36414
20707,36412
20832,36410
20985,36409
21170,36409
21388,36408
21643,36408
22923,36408
22923,36484
22939,36575
22981,36669
23040,36748
23081,36783
23171,36820
23274,36828
23379,36810
23476,36766
23553,36701
23565,36685
23602,36606
23619,36515
23628,36408
23714,36408
23741,36407
23764,36406
23784,36407
" /> 
<polyline style="fill-rule:evenodd;"
points="25432,36851
25465,36859
25520,36877
25596,36905
25680,36940
25764,36977
25839,37012
25894,37040
25918,37057
25911,37075
25885,37118
25847,37179
25801,37249
25752,37322
25706,37389
25667,37444
25642,37476
25619,37474
25578,37450
25544,37423
25429,37351
25300,37315
25175,37314
25041,37346
24927,37411
24835,37510
24765,37640
24717,37801
24691,37993
24689,38208
24705,38403
24741,38565
24797,38698
24874,38804
24974,38888
24997,38902
25058,38934
25114,38951
25184,38957
25233,38957
25359,38945
25468,38907
25574,38839
25613,38806
25656,38770
25685,38752
25691,38751
25708,38777
25739,38827
25779,38894
25824,38970
25868,39047
25908,39117
25940,39173
25958,39208
25960,39215
25940,39225
25895,39249
25833,39282
25830,39284
25702,39347
25589,39391
25477,39418
25352,39434
25233,39440
25081,39441
24962,39433
24890,39421
24707,39354
24540,39253
24390,39120
24262,38959
24159,38774
24084,38567
24080,38554
24051,38407
24037,38239
24035,38063
24048,37893
24074,37744
24081,37719
24161,37504
24273,37310
24416,37141
24587,36999
24603,36988
24743,36915
24907,36863
25084,36834
25262,36829
25432,36851
" /> 
<polyline style="fill-rule:evenodd;"
points="27072,37517
27211,37549
27304,37584
27377,37628
27442,37686
27484,37729
27519,37769
27546,37812
27568,37861
27584,37921
27596,37997
27605,38092
27612,38212
27616,38361
27620,38544
27622,38639
27625,38822
27628,38969
27632,39084
27636,39173
27640,39238
27646,39286
27653,39318
27661,39341
27669,39354
27704,39408
27066,39408
27053,39287
26975,39341
26852,39403
26710,39439
26560,39448
26416,39427
26390,39420
26243,39355
26124,39262
26035,39145
25978,39005
25955,38846
25955,38828
25956,38805
26529,38805
26532,38876
26540,38900
26590,38963
26664,39006
26754,39025
26847,39016
26877,39007
26946,38974
26989,38933
27013,38874
27023,38788
27023,38745
27023,38588
26893,38588
26764,38600
26655,38634
26579,38682
26546,38734
26529,38805
25956,38805
25957,38738
25968,38670
25991,38604
26009,38564
26092,38441
26205,38342
26350,38267
26525,38217
26730,38192
26841,38189
27029,38188
27018,38107
26989,38018
26933,37956
26849,37922
26738,37915
26603,37937
26463,37980
26397,38001
26346,38013
26321,38013
26320,38013
26307,37988
26283,37936
26254,37867
26223,37792
26195,37721
26174,37664
26164,37631
26163,37628
26180,37613
26215,37608
26255,37603
26324,37590
26409,37571
26470,37556
26679,37516
26883,37503
27072,37517
" /> 
<polyline style="fill-rule:evenodd;"
points="29608,37993
29609,38253
29610,38476
29611,38665
29613,38823
29615,38952
29617,39057
29620,39140
29623,39204
29627,39253
29631,39288
29637,39313
29643,39332
29649,39343
29684,39408
29043,39408
29043,39348
29041,39306
29034,39288
29034,39288
29014,39299
28972,39324
28951,39338
28847,39391
28721,39428
28588,39447
28462,39445
28383,39430
28238,39366
28108,39270
28002,39150
27954,39069
27901,38945
27866,38814
27848,38666
27844,38519
27844,38508
28474,38508
28478,38647
28488,38752
28508,38830
28539,38888
28583,38932
28609,38950
28693,38980
28792,38978
28898,38943
28917,38934
28993,38894
28999,38462
29004,38030
28951,37995
28901,37974
28831,37958
28785,37952
28715,37950
28669,37958
28629,37980
28609,37997
28556,38055
28517,38130
28492,38228
28478,38354
28474,38508
27844,38508
27857,38286
27894,38081
27956,37906
28042,37761
28151,37647
28282,37565
28435,37515
28466,37510
28557,37503
28658,37508
28757,37524
28846,37547
28915,37576
28953,37608
28969,37627
28982,37623
28991,37593
28998,37533
29001,37441
29003,37313
29003,37243
29003,37105
29001,37002
28998,36926
28992,36871
28984,36830
28973,36798
28965,36783
28928,36708
29602,36708
29608,37993
" /> 
</g>
<g style="fill:#000000; fill-opacity:1.0; 
stroke:#000000; stroke-width:118.11; stroke-opacity:1; 
stroke-linecap:round; stroke-linejoin:round;">
</g>
<g style="fill:#000000; fill-opacity:0.0; 
stroke:#000000; stroke-width:118.11; stroke-opacity:1; 
stroke-linecap:round; stroke-linejoin:round;">
<path d="M73429 30978
L74222 30184
" />
<path d="M69517 35139
L69698 34958
" />
<path d="M65481 31103
L65662 30922
" />
<path d="M69517 27066
L69336 27247
" />
<path d="M73554 31103
L73373 31284
" />
<path d="M69517 27066
L69698 27247
" />
<path d="M65481 31103
L65662 31284
" />
<path d="M69517 35139
L69336 34958
" />
<path d="M73554 31103
L73429 30978
" />
<path d="M85169 28602
L85169 26240
" />
<path d="M85878 28956
L85642 28956
" />
<path d="M85878 29192
L85878 28956
" />
<path d="M85642 29192
L85878 29192
" />
<path d="M85642 28956
L85642 29192
" />
<path d="M85957 25019
L91626 25019
" />
<path d="M96193 25019
L93831 25019
" />
<path d="M96193 27145
L96193 25019
" />
<path d="M93831 36594
L95642 36594
" />
<path d="M91626 36594
L85957 36594
" />
<path d="M85169 28602
L84146 28602
" />
<path d="M95957 27972
L96193 27145
" />
<path d="M95799 28838
L95957 27972
" />
<path d="M95681 29743
L95799 28838
" />
<path d="M95642 30806
L95681 29743
" />
<path d="M95642 36594
L95642 30806
" />
</g>
<g style="fill:#000000; fill-opacity:0.0; 
stroke:#000000; stroke-width:94.4882; stroke-opacity:1; 
stroke-linecap:round; stroke-linejoin:round;">
<path d="M34018 36661
L35986 36661
" />
<path d="M34018 34692
L34018 36661
" />
<path d="M38349 31031
L38349 33433
" />
<path d="M36026 31031
L38349 31031
" />
<path d="M36026 30440
L36026 31031
" />
<path d="M38349 35834
L38349 33433
" />
<path d="M36026 35834
L38349 35834
" />
<path d="M36026 36425
L36026 35834
" />
<path d="M34254 30440
L34254 31858
" />
<path d="M34845 30440
L34254 30440
" />
<path d="M34845 31858
L34845 30440
" />
<path d="M34254 31858
L34845 31858
" />
<path d="M34254 35007
L34254 36425
" />
<path d="M34845 35007
L34254 35007
" />
<path d="M34845 36425
L34845 35007
" />
<path d="M34254 36425
L34845 36425
" />
<path d="M34254 33039
L34254 33826
" />
<path d="M34845 33039
L34254 33039
" />
<path d="M34845 33826
L34845 33039
" />
<path d="M34254 33826
L34845 33826
" />
<path d="M34254 30440
L34254 36425
" />
<path d="M38939 30440
L34254 30440
" />
<path d="M38939 36425
L38939 30440
" />
<path d="M34254 36425
L38939 36425
" />
<path d="M62916 23536
L62916 22488
" />
<path d="M63963 23536
L62916 23536
" />
<path d="M64963 21488
L64963 23536
" />
<path d="M62916 21488
L64963 21488
" />
<path d="M62916 19441
L62916 21488
" />
<path d="M69010 19441
L62916 19441
" />
<path d="M69010 23536
L69010 19441
" />
<path d="M64963 23536
L69010 23536
" />
<path d="M72752 26714
L73309 26158
" />
<path d="M72362 25211
L71806 25768
" />
<path d="M71222 23991
L70666 24548
" />
<path d="M71612 25494
L72169 24938
" />
</g>
<g style="fill:#000000; fill-opacity:0.0; 
stroke:#000000; stroke-width:118.11; stroke-opacity:1; 
stroke-linecap:round; stroke-linejoin:round;">
<path d="M60020 27376
L60020 26175
" />
<path d="M51850 27376
L51850 33478
" />
<path d="M60236 27376
L60236 33478
" />
<path d="M51850 27376
L52130 27376
" />
<path d="M51850 33478
L52130 33478
" />
<path d="M60236 33478
L59957 33478
" />
<path d="M60236 27376
L60020 27376
" />
</g>
<g style="fill:#000000; fill-opacity:0.0; 
stroke:#000000; stroke-width:94.4882; stroke-opacity:1; 
stroke-linecap:round; stroke-linejoin:round;">
<path d="M83113 33522
L83113 32735
" />
<path d="M81774 32735
L81774 33522
" />
<path d="M77774 32747
L77774 33535
" />
<path d="M79113 33535
L79113 32747
" />
<path d="M81750 36401
L81750 35456
" />
<path d="M83136 35456
L83136 36401
" />
<path d="M79136 35456
L79136 36401
" />
<path d="M77750 36401
L77750 35456
" />
<path d="M81136 35456
L81136 36401
" />
<path d="M79750 36401
L79750 35456
" />
<path d="M81113 33522
L81113 32735
" />
<path d="M79774 32735
L79774 33522
" />
<path d="M77356 40656
L77356 39608
" />
<path d="M78403 40656
L77356 40656
" />
<path d="M79403 38561
L79403 40656
" />
<path d="M87450 38561
L79403 38561
" />
<path d="M87450 40656
L87450 38561
" />
<path d="M79403 40656
L87450 40656
" />
<path d="M63850 51121
L63850 50176
" />
<path d="M65236 50176
L65236 51121
" />
<path d="M42996 50416
L42996 51361
" />
<path d="M41610 51361
L41610 50416
" />
<path d="M73034 50356
L77719 50356
" />
<path d="M77719 50356
L77719 44372
" />
<path d="M77719 44372
L73034 44372
" />
<path d="M73034 44372
L73034 50356
" />
<path d="M73034 47758
L73625 47758
" />
<path d="M73625 47758
L73625 46970
" />
<path d="M73625 46970
L73034 46970
" />
<path d="M73034 46970
L73034 47758
" />
<path d="M73034 50356
L73625 50356
" />
<path d="M73625 50356
L73625 48939
" />
<path d="M73625 48939
L73034 48939
" />
<path d="M73034 48939
L73034 50356
" />
<path d="M73034 45789
L73625 45789
" />
<path d="M73625 45789
L73625 44372
" />
<path d="M73625 44372
L73034 44372
" />
<path d="M73034 44372
L73034 45789
" />
<path d="M74806 50356
L74806 49766
" />
<path d="M74806 49766
L77129 49766
" />
<path d="M77129 49766
L77129 47364
" />
<path d="M74806 44372
L74806 44962
" />
<path d="M74806 44962
L77129 44962
" />
<path d="M77129 44962
L77129 47364
" />
<path d="M72798 48624
L72798 50592
" />
<path d="M72798 50592
L74766 50592
" />
</g>
<g style="fill:#000000; fill-opacity:0.0; 
stroke:#000000; stroke-width:78.7402; stroke-opacity:1; 
stroke-linecap:round; stroke-linejoin:round;">
<path d="M62810 42621
L61511 42621
" />
<path d="M62810 43921
L62810 42621
" />
<path d="M62810 52755
L61511 52755
" />
<path d="M62810 51456
L62810 52755
" />
<path d="M52676 42621
L53976 42621
" />
<path d="M52676 43921
L52676 42621
" />
<path d="M53582 52755
L53976 52755
" />
<path d="M52676 51850
L53582 52755
" />
<path d="M52676 51456
L52676 51850
" />
</g>
<g style="fill:#000000; fill-opacity:0.0; 
stroke:#000000; stroke-width:94.4882; stroke-opacity:1; 
stroke-linecap:round; stroke-linejoin:round;">
<path d="M72436 43603
L72436 44548
" />
<path d="M71050 44548
L71050 43603
" />
<path d="M49737 21019
L48950 21019
" />
<path d="M48950 22358
L49737 22358
" />
<path d="M48950 20758
L49737 20758
" />
<path d="M49737 19419
L48950 19419
" />
<path d="M48950 23958
L49737 23958
" />
<path d="M49737 22619
L48950 22619
" />
<path d="M63874 46695
L63874 47482
" />
<path d="M65213 47482
L65213 46695
" />
<path d="M71074 46907
L71074 47695
" />
<path d="M72413 47695
L72413 46907
" />
<path d="M78274 46595
L78274 47382
" />
<path d="M79613 47382
L79613 46595
" />
<path d="M86813 47362
L86813 46575
" />
<path d="M85474 46575
L85474 47362
" />
<path d="M28622 47682
L28622 46895
" />
<path d="M27284 46895
L27284 47682
" />
<path d="M35773 47682
L35773 46895
" />
<path d="M34434 46895
L34434 47682
" />
<path d="M41684 46916
L41684 47704
" />
<path d="M43022 47704
L43022 46916
" />
<path d="M49913 47982
L49913 47195
" />
<path d="M48574 47195
L48574 47982
" />
<path d="M65236 43616
L65236 44561
" />
<path d="M63850 44561
L63850 43616
" />
<path d="M71050 51309
L71050 50364
" />
<path d="M72436 50364
L72436 51309
" />
<path d="M78250 44161
L78250 43216
" />
<path d="M79636 43216
L79636 44161
" />
<path d="M79636 50016
L79636 50961
" />
<path d="M78250 50961
L78250 50016
" />
<path d="M85450 44213
L85450 43268
" />
<path d="M86836 43268
L86836 44213
" />
<path d="M86836 50016
L86836 50961
" />
<path d="M85450 50961
L85450 50016
" />
<path d="M27260 44561
L27260 43616
" />
<path d="M28646 43616
L28646 44561
" />
<path d="M28596 50416
L28596 51361
" />
<path d="M27210 51361
L27210 50416
" />
<path d="M35796 43616
L35796 44561
" />
<path d="M34410 44561
L34410 43616
" />
<path d="M34410 51361
L34410 50416
" />
<path d="M35796 50416
L35796 51361
" />
<path d="M41610 44561
L41610 43616
" />
<path d="M42996 43616
L42996 44561
" />
<path d="M50596 43616
L50596 44561
" />
<path d="M49210 44561
L49210 43616
" />
<path d="M49210 51361
L49210 50416
" />
<path d="M50596 50416
L50596 51361
" />
<path d="M19776 25124
L19776 26069
" />
<path d="M18390 26069
L18390 25124
" />
<path d="M31694 28386
L31694 29331
" />
<path d="M30308 29331
L30308 28386
" />
<path d="M61671 34995
L62616 34995
" />
<path d="M62616 36381
L61671 36381
" />
<path d="M75099 27264
L75767 27932
" />
<path d="M74787 28912
L74119 28244
" />
<path d="M79978 50332
L81946 50332
" />
<path d="M79978 48364
L79978 50332
" />
<path d="M84309 44702
L84309 47104
" />
<path d="M81986 44702
L84309 44702
" />
<path d="M81986 44112
L81986 44702
" />
<path d="M84309 49506
L84309 47104
" />
<path d="M81986 49506
L84309 49506
" />
<path d="M81986 50096
L81986 49506
" />
<path d="M80214 44112
L80214 45529
" />
<path d="M80805 44112
L80214 44112
" />
<path d="M80805 45529
L80805 44112
" />
<path d="M80214 45529
L80805 45529
" />
<path d="M80214 48679
L80214 50096
" />
<path d="M80805 48679
L80214 48679
" />
<path d="M80805 50096
L80805 48679
" />
<path d="M80214 50096
L80805 50096
" />
<path d="M80214 46710
L80214 47498
" />
<path d="M80805 46710
L80214 46710
" />
<path d="M80805 47498
L80805 46710
" />
<path d="M80214 47498
L80805 47498
" />
<path d="M80214 44112
L80214 50096
" />
<path d="M84899 44112
L80214 44112
" />
<path d="M84899 50096
L84899 44112
" />
<path d="M80214 50096
L84899 50096
" />
<path d="M87414 50096
L92099 50096
" />
<path d="M92099 50096
L92099 44112
" />
<path d="M92099 44112
L87414 44112
" />
<path d="M87414 44112
L87414 50096
" />
<path d="M87414 47498
L88005 47498
" />
<path d="M88005 47498
L88005 46710
" />
<path d="M88005 46710
L87414 46710
" />
<path d="M87414 46710
L87414 47498
" />
<path d="M87414 50096
L88005 50096
" />
<path d="M88005 50096
L88005 48679
" />
<path d="M88005 48679
L87414 48679
" />
<path d="M87414 48679
L87414 50096
" />
<path d="M87414 45529
L88005 45529
" />
<path d="M88005 45529
L88005 44112
" />
<path d="M88005 44112
L87414 44112
" />
<path d="M87414 44112
L87414 45529
" />
<path d="M89186 50096
L89186 49506
" />
<path d="M89186 49506
L91509 49506
" />
<path d="M91509 49506
L91509 47104
" />
<path d="M89186 44112
L89186 44702
" />
<path d="M89186 44702
L91509 44702
" />
<path d="M91509 44702
L91509 47104
" />
<path d="M87178 48364
L87178 50332
" />
<path d="M87178 50332
L89146 50332
" />
<path d="M21738 50701
L23706 50701
" />
<path d="M21738 48732
L21738 50701
" />
<path d="M26069 45071
L26069 47473
" />
<path d="M23746 45071
L26069 45071
" />
<path d="M23746 44480
L23746 45071
" />
<path d="M26069 49874
L26069 47473
" />
<path d="M23746 49874
L26069 49874
" />
<path d="M23746 50465
L23746 49874
" />
<path d="M21974 44480
L21974 45898
" />
<path d="M22565 44480
L21974 44480
" />
<path d="M22565 45898
L22565 44480
" />
<path d="M21974 45898
L22565 45898
" />
<path d="M21974 49047
L21974 50465
" />
<path d="M22565 49047
L21974 49047
" />
<path d="M22565 50465
L22565 49047
" />
<path d="M21974 50465
L22565 50465
" />
<path d="M21974 47079
L21974 47866
" />
<path d="M22565 47079
L21974 47079
" />
<path d="M22565 47866
L22565 47079
" />
<path d="M21974 47866
L22565 47866
" />
<path d="M21974 44480
L21974 50465
" />
<path d="M26659 44480
L21974 44480
" />
<path d="M26659 50465
L26659 44480
" />
<path d="M21974 50465
L26659 50465
" />
<path d="M29174 50496
L33859 50496
" />
<path d="M33859 50496
L33859 44512
" />
<path d="M33859 44512
L29174 44512
" />
<path d="M29174 44512
L29174 50496
" />
<path d="M29174 47898
L29765 47898
" />
<path d="M29765 47898
L29765 47110
" />
<path d="M29765 47110
L29174 47110
" />
<path d="M29174 47110
L29174 47898
" />
<path d="M29174 50496
L29765 50496
" />
<path d="M29765 50496
L29765 49079
" />
<path d="M29765 49079
L29174 49079
" />
<path d="M29174 49079
L29174 50496
" />
<path d="M29174 45929
L29765 45929
" />
<path d="M29765 45929
L29765 44512
" />
<path d="M29765 44512
L29174 44512
" />
<path d="M29174 44512
L29174 45929
" />
<path d="M30946 50496
L30946 49906
" />
<path d="M30946 49906
L33269 49906
" />
<path d="M33269 49906
L33269 47504
" />
<path d="M30946 44512
L30946 45102
" />
<path d="M30946 45102
L33269 45102
" />
<path d="M33269 45102
L33269 47504
" />
<path d="M28938 48764
L28938 50732
" />
<path d="M28938 50732
L30906 50732
" />
<path d="M36138 50732
L38106 50732
" />
<path d="M36138 48764
L36138 50732
" />
<path d="M40469 45102
L40469 47504
" />
<path d="M38146 45102
L40469 45102
" />
<path d="M38146 44512
L38146 45102
" />
<path d="M40469 49906
L40469 47504
" />
<path d="M38146 49906
L40469 49906
" />
<path d="M38146 50496
L38146 49906
" />
<path d="M36374 44512
L36374 45929
" />
<path d="M36965 44512
L36374 44512
" />
<path d="M36965 45929
L36965 44512
" />
<path d="M36374 45929
L36965 45929
" />
<path d="M36374 49079
L36374 50496
" />
<path d="M36965 49079
L36374 49079
" />
<path d="M36965 50496
L36965 49079
" />
<path d="M36374 50496
L36965 50496
" />
<path d="M36374 47110
L36374 47898
" />
<path d="M36965 47110
L36374 47110
" />
<path d="M36965 47898
L36965 47110
" />
<path d="M36374 47898
L36965 47898
" />
<path d="M36374 44512
L36374 50496
" />
<path d="M41059 44512
L36374 44512
" />
<path d="M41059 50496
L41059 44512
" />
<path d="M36374 50496
L41059 50496
" />
<path d="M43514 50445
L48199 50445
" />
<path d="M48199 50445
L48199 44460
" />
<path d="M48199 44460
L43514 44460
" />
<path d="M43514 44460
L43514 50445
" />
<path d="M43514 47846
L44105 47846
" />
<path d="M44105 47846
L44105 47059
" />
<path d="M44105 47059
L43514 47059
" />
<path d="M43514 47059
L43514 47846
" />
<path d="M43514 50445
L44105 50445
" />
<path d="M44105 50445
L44105 49027
" />
<path d="M44105 49027
L43514 49027
" />
<path d="M43514 49027
L43514 50445
" />
<path d="M43514 45878
L44105 45878
" />
<path d="M44105 45878
L44105 44460
" />
<path d="M44105 44460
L43514 44460
" />
<path d="M43514 44460
L43514 45878
" />
<path d="M45286 50445
L45286 49854
" />
<path d="M45286 49854
L47609 49854
" />
<path d="M47609 49854
L47609 47453
" />
<path d="M45286 44460
L45286 45051
" />
<path d="M45286 45051
L47609 45051
" />
<path d="M47609 45051
L47609 47453
" />
<path d="M43278 48712
L43278 50681
" />
<path d="M43278 50681
L45246 50681
" />
<path d="M65814 50096
L70499 50096
" />
<path d="M70499 50096
L70499 44112
" />
<path d="M70499 44112
L65814 44112
" />
<path d="M65814 44112
L65814 50096
" />
<path d="M65814 47498
L66405 47498
" />
<path d="M66405 47498
L66405 46710
" />
<path d="M66405 46710
L65814 46710
" />
<path d="M65814 46710
L65814 47498
" />
<path d="M65814 50096
L66405 50096
" />
<path d="M66405 50096
L66405 48679
" />
<path d="M66405 48679
L65814 48679
" />
<path d="M65814 48679
L65814 50096
" />
<path d="M65814 45529
L66405 45529
" />
<path d="M66405 45529
L66405 44112
" />
<path d="M66405 44112
L65814 44112
" />
<path d="M65814 44112
L65814 45529
" />
<path d="M67586 50096
L67586 49506
" />
<path d="M67586 49506
L69909 49506
" />
<path d="M69909 49506
L69909 47104
" />
<path d="M67586 44112
L67586 44702
" />
<path d="M67586 44702
L69909 44702
" />
<path d="M69909 44702
L69909 47104
" />
<path d="M65578 48364
L65578 50332
" />
<path d="M65578 50332
L67546 50332
" />
</g>
<g style="fill:#000000; fill-opacity:0.0; 
stroke:#000000; stroke-width:118.11; stroke-opacity:1; 
stroke-linecap:round; stroke-linejoin:round;">
<path d="M60809 36860
L59707 36860
" />
<path d="M60809 40876
L64077 40876
" />
<path d="M60809 36821
L64077 36821
" />
<path d="M60809 40876
L60809 40762
" />
<path d="M64077 40876
L64077 40762
" />
<path d="M64077 36821
L64077 36935
" />
<path d="M60809 36821
L60809 36860
" />
</g>
<g style="fill:#000000; fill-opacity:0.0; 
stroke:#000000; stroke-width:94.4882; stroke-opacity:1; 
stroke-linecap:round; stroke-linejoin:round;">
<path d="M51973 47982
L51973 47195
" />
<path d="M50634 47195
L50634 47982
" />
<path d="M47247 24667
L47247 25533
" />
<path d="M47460 24667
L47247 24667
" />
<path d="M47460 23486
L47460 24667
" />
<path d="M42239 24667
L42239 26895
" />
<path d="M42027 24667
L42239 24667
" />
<path d="M42027 23486
L42027 24667
" />
<path d="M48099 26487
L48099 25337
" />
<path d="M50587 26487
L50587 24786
" />
<path d="M50587 26487
L49855 26487
" />
<path d="M48099 26487
L48831 26487
" />
<path d="M87390 18641
L87390 19688
" />
<path d="M86343 18641
L87390 18641
" />
<path d="M85343 20736
L85343 18641
" />
<path d="M75296 20736
L85343 20736
" />
<path d="M75296 18641
L75296 20736
" />
<path d="M85343 18641
L75296 18641
" />
<path d="M62616 27381
L61671 27381
" />
<path d="M61671 25995
L62616 25995
" />
<path d="M69596 40636
L69596 39588
" />
<path d="M70643 40636
L69596 40636
" />
<path d="M71643 40636
L71643 38541
" />
<path d="M71643 38541
L75690 38541
" />
<path d="M71643 40636
L75690 40636
" />
<path d="M75690 40636
L75690 38541
" />
<path d="M23511 23877
L21936 23877
" />
<path d="M21936 23877
L21936 26948
" />
<path d="M23511 23877
L23511 26948
" />
<path d="M65792 35383
L66348 35940
" />
<path d="M67295 34993
L66738 34437
" />
<path d="M80411 29315
L81356 29315
" />
<path d="M81356 30701
L80411 30701
" />
<path d="M87236 22216
L87236 23161
" />
<path d="M85850 23161
L85850 22216
" />
</g>
<g style="fill:#000000; fill-opacity:0.0; 
stroke:#000000; stroke-width:118.11; stroke-opacity:1; 
stroke-linecap:round; stroke-linejoin:round;">
<path d="M84476 24096
L84513 23984
L84513 23796
L84476 23721
L84438 23684
L84363 23646
L84288 23646
L84213 23684
L84176 23721
L84138 23796
L84101 23946
L84064 24021
L84026 24059
L83951 24096
L83876 24096
L83801 24059
L83764 24021
L83726 23946
L83726 23759
L83764 23646
" />
<path d="M83726 23384
L84513 23196
L83951 23046
L84513 22896
L83726 22709
" />
<path d="M83801 22446
L83764 22409
L83726 22334
L83726 22146
L83764 22071
L83801 22034
L83876 21996
L83951 21996
L84064 22034
L84513 22484
L84513 21996
" />
<path d="M39523 34779
L39561 34667
L39561 34479
L39523 34404
L39486 34367
L39411 34329
L39336 34329
L39261 34367
L39223 34404
L39186 34479
L39148 34629
L39111 34704
L39073 34742
L38998 34779
L38923 34779
L38848 34742
L38811 34704
L38773 34629
L38773 34442
L38811 34329
" />
<path d="M38773 34067
L39561 33879
L38998 33729
L39561 33579
L38773 33392
" />
<path d="M38773 33167
L38773 32679
L39073 32942
L39073 32829
L39111 32754
L39148 32717
L39223 32679
L39411 32679
L39486 32717
L39523 32754
L39561 32829
L39561 33054
L39523 33129
L39486 33167
" />
<path d="M64028 28905
L63766 28530
" />
<path d="M63578 28905
L63578 28117
L63878 28117
L63953 28155
L63991 28192
L64028 28267
L64028 28380
L63991 28455
L63953 28492
L63878 28530
L63578 28530
" />
<path d="M64478 28455
L64403 28417
L64365 28380
L64328 28305
L64328 28267
L64365 28192
L64403 28155
L64478 28117
L64628 28117
L64703 28155
L64740 28192
L64778 28267
L64778 28305
L64740 28380
L64703 28417
L64628 28455
L64478 28455
L64403 28492
L64365 28530
L64328 28605
L64328 28755
L64365 28830
L64403 28867
L64478 28905
L64628 28905
L64703 28867
L64740 28830
L64778 28755
L64778 28605
L64740 28530
L64703 28492
L64628 28455
" />
</g>
<g style="fill:#000000; fill-opacity:0.0; 
stroke:#000000; stroke-width:98.4252; stroke-opacity:1; 
stroke-linecap:round; stroke-linejoin:round;">
<path d="M20553 23566
L20553 23173
L20646 23173
L20703 23191
L20740 23229
L20759 23266
L20778 23341
L20778 23398
L20759 23473
L20740 23510
L20703 23548
L20646 23566
L20553 23566
" />
<path d="M20928 23210
L20946 23191
L20984 23173
L21078 23173
L21115 23191
L21134 23210
L21153 23248
L21153 23285
L21134 23341
L20909 23566
L21153 23566
" />
</g>
<g style="fill:#000000; fill-opacity:0.0; 
stroke:#000000; stroke-width:118.11; stroke-opacity:1; 
stroke-linecap:round; stroke-linejoin:round;">
<path d="M42665 22041
L42703 22078
L42740 22191
L42740 22266
L42703 22378
L42628 22453
L42553 22491
L42403 22528
L42290 22528
L42140 22491
L42065 22453
L41990 22378
L41953 22266
L41953 22191
L41990 22078
L42028 22041
" />
<path d="M42028 21741
L41990 21703
L41953 21628
L41953 21441
L41990 21366
L42028 21328
L42103 21291
L42178 21291
L42290 21328
L42740 21778
L42740 21291
" />
<path d="M41078 18823
L41678 18823
" />
<path d="M41378 19123
L41378 18523
" />
<path d="M61410 33950
L61335 33912
L61260 33837
L61148 33725
L61073 33687
L60998 33687
" />
<path d="M61035 33875
L60960 33837
L60885 33762
L60848 33612
L60848 33350
L60885 33200
L60960 33125
L61035 33087
L61185 33087
L61260 33125
L61335 33200
L61373 33350
L61373 33612
L61335 33762
L61260 33837
L61185 33875
L61035 33875
" />
<path d="M62123 33875
L61673 33875
" />
<path d="M61898 33875
L61898 33087
L61823 33200
L61748 33275
L61673 33312
" />
</g>
<g style="fill:#000000; fill-opacity:0.0; 
stroke:#000000; stroke-width:39.3701; stroke-opacity:1; 
stroke-linecap:round; stroke-linejoin:round;">
<path d="M23213 27895
L23776 27895
L23889 27933
L23964 28008
L24002 28120
L24002 28196
" />
<path d="M24002 27107
L24002 27557
" />
<path d="M24002 27332
L23213 27332
L23326 27407
L23401 27482
L23439 27557
" />
<path d="M28729 29603
L28729 29865
" />
<path d="M29142 29865
L28354 29865
L28354 29490
" />
<path d="M29067 28739
L29104 28777
L29142 28889
L29142 28964
L29104 29077
L29029 29152
L28954 29190
L28804 29227
L28691 29227
L28541 29190
L28466 29152
L28391 29077
L28354 28964
L28354 28889
L28391 28777
L28429 28739
" />
<path d="M28354 28064
L28354 28214
L28391 28289
L28429 28326
L28541 28401
L28691 28439
L28992 28439
L29067 28401
L29104 28364
L29142 28289
L29142 28139
L29104 28064
L29067 28026
L28992 27989
L28804 27989
L28729 28026
L28691 28064
L28654 28139
L28654 28289
L28691 28364
L28729 28401
L28804 28439
" />
<path d="M28691 27538
L28654 27613
L28616 27651
L28541 27688
L28504 27688
L28429 27651
L28391 27613
L28354 27538
L28354 27388
L28391 27313
L28429 27275
L28504 27238
L28541 27238
L28616 27275
L28654 27313
L28691 27388
L28691 27538
L28729 27613
L28766 27651
L28842 27688
L28992 27688
L29067 27651
L29104 27613
L29142 27538
L29142 27388
L29104 27313
L29067 27275
L28992 27238
L28842 27238
L28766 27275
L28729 27313
L28691 27388
" />
<path d="M29142 26487
L29142 26938
" />
<path d="M29142 26712
L28354 26712
L28466 26787
L28541 26863
L28579 26938
" />
<path d="M28429 26187
L28391 26149
L28354 26074
L28354 25887
L28391 25812
L28429 25774
L28504 25736
L28579 25736
L28691 25774
L29142 26224
L29142 25736
" />
<path d="M28354 25474
L28354 24948
L29142 25286
" />
</g>
<g style="fill:#000000; fill-opacity:0.0; 
stroke:#000000; stroke-width:118.11; stroke-opacity:1; 
stroke-linecap:round; stroke-linejoin:round;">
<path d="M75871 25484
L75606 25749
" />
<path d="M75977 25007
L75871 25484
L76349 25378
" />
<path d="M76269 26412
L75951 26094
" />
<path d="M76110 26253
L76667 25696
L76534 25723
L76428 25723
L76349 25696
" />
<path d="M42698 26620
L42735 26657
L42773 26770
L42773 26845
L42735 26957
L42660 27032
L42585 27069
L42435 27107
L42323 27107
L42173 27069
L42098 27032
L42023 26957
L41985 26845
L41985 26770
L42023 26657
L42060 26620
" />
<path d="M42773 25870
L42773 26320
" />
<path d="M42773 26095
L41985 26095
L42098 26170
L42173 26245
L42210 26320
" />
<path d="M41078 23502
L41678 23502
" />
<path d="M41378 23802
L41378 23202
" />
<path d="M32307 26022
L32419 26060
L32457 26097
L32494 26172
L32494 26285
L32457 26360
L32419 26397
L32344 26435
L32044 26435
L32044 25647
L32307 25647
L32382 25685
L32419 25722
L32457 25797
L32457 25872
L32419 25947
L32382 25985
L32307 26022
L32044 26022
" />
<path d="M32719 25647
L33169 25647
" />
<path d="M32944 26435
L32944 25647
" />
<path d="M33844 26435
L33394 26435
" />
<path d="M33619 26435
L33619 25647
L33544 25760
L33469 25835
L33394 25872
" />
<path d="M22962 31945
L22962 31157
L23150 31157
L23262 31195
L23337 31270
L23375 31345
L23412 31495
L23412 31607
L23375 31757
L23337 31832
L23262 31907
L23150 31945
L22962 31945
" />
<path d="M24162 31945
L23712 31945
" />
<path d="M23937 31945
L23937 31157
L23862 31270
L23787 31345
L23712 31382
" />
<path d="M71060 37166
L70503 36609
" />
<path d="M71590 36529
L71590 36582
L71537 36688
L71484 36742
L71378 36795
L71272 36795
L71192 36768
L71060 36688
L70980 36609
L70901 36476
L70874 36397
L70874 36291
L70927 36185
L70980 36132
L71086 36079
L71139 36079
" />
<path d="M72173 36052
L71855 36370
" />
<path d="M72014 36211
L71457 35654
L71484 35787
L71484 35893
L71457 35973
" />
<path d="M34313 29836
L34426 29873
L34613 29873
L34688 29836
L34726 29798
L34763 29723
L34763 29648
L34726 29573
L34688 29536
L34613 29498
L34463 29461
L34388 29423
L34351 29386
L34313 29311
L34313 29236
L34351 29161
L34388 29123
L34463 29086
L34651 29086
L34763 29123
" />
<path d="M35026 29086
L35213 29873
L35363 29311
L35513 29873
L35701 29086
" />
<path d="M36413 29873
L35963 29873
" />
<path d="M36188 29873
L36188 29086
L36113 29198
L36038 29273
L35963 29311
" />
<path d="M62485 22069
L61697 22069
L61697 21770
L61735 21695
L61772 21657
L61847 21620
L61960 21620
L62035 21657
L62072 21695
L62110 21770
L62110 22069
" />
<path d="M62485 20870
L62485 21320
" />
<path d="M62485 21095
L61697 21095
L61810 21170
L61885 21245
L61922 21320
" />
<path d="M73233 27355
L73233 27408
L73180 27514
L73127 27567
L73021 27620
L72915 27620
L72836 27593
L72703 27514
L72624 27434
L72544 27302
L72517 27222
L72517 27116
L72570 27010
L72624 26957
L72730 26904
L72783 26904
" />
<path d="M73817 26877
L73498 27196
" />
<path d="M73658 27037
L73101 26480
L73127 26612
L73127 26718
L73101 26798
" />
<path d="M73923 26029
L74294 26400
" />
<path d="M73578 25950
L73843 26480
L74188 26135
" />
<path d="M70284 24545
L70284 24598
L70231 24704
L70178 24757
L70072 24810
L69966 24810
L69886 24784
L69754 24704
L69674 24625
L69595 24492
L69568 24413
L69568 24306
L69621 24200
L69674 24147
L69780 24094
L69833 24094
" />
<path d="M70867 24068
L70549 24386
" />
<path d="M70708 24227
L70152 23670
L70178 23803
L70178 23909
L70152 23988
" />
<path d="M70814 23007
L70549 23272
L70788 23564
L70788 23511
L70814 23432
L70947 23299
L71027 23272
L71080 23272
L71159 23299
L71292 23432
L71318 23511
L71318 23564
L71292 23644
L71159 23776
L71080 23803
L71027 23803
" />
<path d="M50712 33163
L51349 33163
L51424 33126
L51462 33088
L51499 33013
L51499 32863
L51462 32788
L51424 32751
L51349 32713
L50712 32713
" />
<path d="M51499 31926
L51499 32376
" />
<path d="M51499 32151
L50712 32151
L50825 32226
L50900 32301
L50937 32376
" />
<path d="M50712 31663
L50712 31176
L51012 31438
L51012 31326
L51050 31251
L51087 31213
L51162 31176
L51349 31176
L51424 31213
L51462 31251
L51499 31326
L51499 31551
L51462 31626
L51424 31663
" />
<path d="M82298 31453
L82268 31483
L82178 31513
L82118 31513
L82028 31483
L81968 31423
L81938 31363
L81908 31243
L81908 31153
L81938 31033
L81968 30973
L82028 30913
L82118 30883
L82178 30883
L82268 30913
L82298 30943
" />
<path d="M82898 31513
L82538 31513
" />
<path d="M82718 31513
L82718 30883
L82658 30973
L82598 31033
L82538 31063
" />
<path d="M83438 30883
L83318 30883
L83258 30913
L83228 30943
L83168 31033
L83138 31153
L83138 31393
L83168 31453
L83198 31483
L83258 31513
L83378 31513
L83438 31483
L83468 31453
L83498 31393
L83498 31243
L83468 31183
L83438 31153
L83378 31123
L83258 31123
L83198 31153
L83168 31183
L83138 31243
" />
<path d="M77938 31453
L77908 31483
L77818 31513
L77758 31513
L77668 31483
L77608 31423
L77578 31363
L77548 31243
L77548 31153
L77578 31033
L77608 30973
L77668 30913
L77758 30883
L77818 30883
L77908 30913
L77938 30943
" />
<path d="M78538 31513
L78178 31513
" />
<path d="M78358 31513
L78358 30883
L78298 30973
L78238 31033
L78178 31063
" />
<path d="M78748 30883
L79168 30883
L78898 31513
" />
<path d="M82412 38245
L82150 37870
" />
<path d="M81962 38245
L81962 37457
L82262 37457
L82337 37495
L82375 37532
L82412 37607
L82412 37720
L82375 37795
L82337 37832
L82262 37870
L81962 37870
" />
<path d="M83124 37457
L82749 37457
L82712 37832
L82749 37795
L82824 37757
L83012 37757
L83087 37795
L83124 37832
L83162 37907
L83162 38095
L83124 38170
L83087 38207
L83012 38245
L82824 38245
L82749 38207
L82712 38170
" />
<path d="M78312 38245
L78050 37870
" />
<path d="M77862 38245
L77862 37457
L78162 37457
L78237 37495
L78275 37532
L78312 37607
L78312 37720
L78275 37795
L78237 37832
L78162 37870
L77862 37870
" />
<path d="M78987 37457
L78837 37457
L78762 37495
L78724 37532
L78649 37645
L78612 37795
L78612 38095
L78649 38170
L78687 38207
L78762 38245
L78912 38245
L78987 38207
L79024 38170
L79062 38095
L79062 37907
L79024 37832
L78987 37795
L78912 37757
L78762 37757
L78687 37795
L78649 37832
L78612 37907
" />
<path d="M80512 38245
L80250 37870
" />
<path d="M80062 38245
L80062 37457
L80362 37457
L80437 37495
L80475 37532
L80512 37607
L80512 37720
L80475 37795
L80437 37832
L80362 37870
L80062 37870
" />
<path d="M80774 37457
L81299 37457
L80962 38245
" />
<path d="M80118 31453
L80088 31483
L79998 31513
L79938 31513
L79848 31483
L79788 31423
L79758 31363
L79728 31243
L79728 31153
L79758 31033
L79788 30973
L79848 30913
L79938 30883
L79998 30883
L80088 30913
L80118 30943
" />
<path d="M80718 31513
L80358 31513
" />
<path d="M80538 31513
L80538 30883
L80478 30973
L80418 31033
L80358 31063
" />
<path d="M81078 31153
L81018 31123
L80988 31093
L80958 31033
L80958 31003
L80988 30943
L81018 30913
L81078 30883
L81198 30883
L81258 30913
L81288 30943
L81318 31003
L81318 31033
L81288 31093
L81258 31123
L81198 31153
L81078 31153
L81018 31183
L80988 31213
L80958 31273
L80958 31393
L80988 31453
L81018 31483
L81078 31513
L81198 31513
L81258 31483
L81288 31453
L81318 31393
L81318 31273
L81288 31213
L81258 31183
L81198 31153
" />
<path d="M76137 39871
L76700 39871
L76812 39908
L76887 39983
L76925 40096
L76925 40171
" />
<path d="M76137 39571
L76137 39083
L76437 39346
L76437 39233
L76475 39158
L76512 39121
L76587 39083
L76775 39083
L76850 39121
L76887 39158
L76925 39233
L76925 39458
L76887 39533
L76850 39571
" />
<path d="M64512 53005
L64137 53005
L64137 52217
" />
<path d="M64737 52292
L64774 52255
L64849 52217
L65037 52217
L65112 52255
L65149 52292
L65187 52367
L65187 52442
L65149 52555
L64699 53005
L65187 53005
" />
<path d="M41897 53445
L41522 53445
L41522 52657
" />
<path d="M42572 53445
L42122 53445
" />
<path d="M42347 53445
L42347 52657
L42272 52770
L42197 52845
L42122 52882
" />
<path d="M43247 52920
L43247 53445
" />
<path d="M43059 52620
L42872 53182
L43359 53182
" />
<path d="M52843 41157
L52843 41795
L52881 41870
L52918 41907
L52993 41945
L53143 41945
L53218 41907
L53256 41870
L53293 41795
L53293 41157
" />
<path d="M54006 41420
L54006 41945
" />
<path d="M53818 41120
L53631 41682
L54118 41682
" />
<path d="M70012 43545
L69637 43545
L69637 42757
" />
<path d="M70199 42757
L70687 42757
L70424 43057
L70537 43057
L70612 43095
L70649 43132
L70687 43207
L70687 43395
L70649 43470
L70612 43507
L70537 43545
L70312 43545
L70237 43507
L70199 43470
" />
<path d="M51512 22070
L51475 22107
L51362 22145
L51287 22145
L51175 22107
L51100 22032
L51062 21957
L51025 21807
L51025 21695
L51062 21545
L51100 21470
L51175 21395
L51287 21357
L51362 21357
L51475 21395
L51512 21432
" />
<path d="M51774 21357
L52262 21357
L51999 21657
L52112 21657
L52187 21695
L52224 21732
L52262 21807
L52262 21995
L52224 22070
L52187 22107
L52112 22145
L51887 22145
L51812 22107
L51774 22070
" />
<path d="M51612 20470
L51575 20507
L51462 20545
L51387 20545
L51275 20507
L51200 20432
L51162 20357
L51125 20207
L51125 20095
L51162 19945
L51200 19870
L51275 19795
L51387 19757
L51462 19757
L51575 19795
L51612 19832
" />
<path d="M52287 20020
L52287 20545
" />
<path d="M52099 19720
L51912 20282
L52399 20282
" />
<path d="M51612 23670
L51575 23707
L51462 23745
L51387 23745
L51275 23707
L51200 23632
L51162 23557
L51125 23407
L51125 23295
L51162 23145
L51200 23070
L51275 22995
L51387 22957
L51462 22957
L51575 22995
L51612 23032
" />
<path d="M52324 22957
L51949 22957
L51912 23332
L51949 23295
L52024 23257
L52212 23257
L52287 23295
L52324 23332
L52362 23407
L52362 23595
L52324 23670
L52287 23707
L52212 23745
L52024 23745
L51949 23707
L51912 23670
" />
<path d="M64471 49165
L64445 49191
L64366 49218
L64314 49218
L64235 49191
L64183 49139
L64156 49086
L64130 48981
L64130 48903
L64156 48798
L64183 48745
L64235 48693
L64314 48666
L64366 48666
L64445 48693
L64471 48719
" />
<path d="M64944 48666
L64839 48666
L64786 48693
L64760 48719
L64708 48798
L64681 48903
L64681 49113
L64708 49165
L64734 49191
L64786 49218
L64891 49218
L64944 49191
L64970 49165
L64996 49113
L64996 48981
L64970 48929
L64944 48903
L64891 48876
L64786 48876
L64734 48903
L64708 48929
L64681 48981
" />
<path d="M71651 49385
L71625 49411
L71546 49438
L71494 49438
L71415 49411
L71363 49359
L71336 49306
L71310 49201
L71310 49123
L71336 49018
L71363 48965
L71415 48913
L71494 48886
L71546 48886
L71625 48913
L71651 48939
" />
<path d="M71835 48886
L72203 48886
L71966 49438
" />
<path d="M78851 49045
L78825 49071
L78746 49098
L78694 49098
L78615 49071
L78563 49019
L78536 48966
L78510 48861
L78510 48783
L78536 48678
L78563 48625
L78615 48573
L78694 48546
L78746 48546
L78825 48573
L78851 48599
" />
<path d="M79166 48783
L79114 48756
L79088 48730
L79061 48678
L79061 48651
L79088 48599
L79114 48573
L79166 48546
L79271 48546
L79324 48573
L79350 48599
L79376 48651
L79376 48678
L79350 48730
L79324 48756
L79271 48783
L79166 48783
L79114 48809
L79088 48835
L79061 48888
L79061 48993
L79088 49045
L79114 49071
L79166 49098
L79271 49098
L79324 49071
L79350 49045
L79376 48993
L79376 48888
L79350 48835
L79324 48809
L79271 48783
" />
<path d="M86051 49005
L86025 49031
L85946 49058
L85894 49058
L85815 49031
L85763 48979
L85736 48926
L85710 48821
L85710 48743
L85736 48638
L85763 48585
L85815 48533
L85894 48506
L85946 48506
L86025 48533
L86051 48559
" />
<path d="M86314 49058
L86419 49058
L86471 49031
L86498 49005
L86550 48926
L86576 48821
L86576 48611
L86550 48559
L86524 48533
L86471 48506
L86366 48506
L86314 48533
L86288 48559
L86261 48611
L86261 48743
L86288 48795
L86314 48821
L86366 48848
L86471 48848
L86524 48821
L86550 48795
L86576 48743
" />
</g>
<g style="fill:#000000; fill-opacity:0.0; 
stroke:#000000; stroke-width:98.4252; stroke-opacity:1; 
stroke-linecap:round; stroke-linejoin:round;">
<path d="M27670 49329
L27651 49348
L27595 49366
L27558 49366
L27501 49348
L27464 49310
L27445 49273
L27426 49198
L27426 49141
L27445 49066
L27464 49029
L27501 48991
L27558 48973
L27595 48973
L27651 48991
L27670 49010
" />
<path d="M28045 49366
L27820 49366
" />
<path d="M27933 49366
L27933 48973
L27895 49029
L27858 49066
L27820 49085
" />
<path d="M28289 48973
L28326 48973
L28364 48991
L28383 49010
L28401 49048
L28420 49123
L28420 49216
L28401 49291
L28383 49329
L28364 49348
L28326 49366
L28289 49366
L28251 49348
L28233 49329
L28214 49291
L28195 49216
L28195 49123
L28214 49048
L28233 49010
L28251 48991
L28289 48973
" />
<path d="M34830 49329
L34811 49348
L34755 49366
L34718 49366
L34661 49348
L34624 49310
L34605 49273
L34586 49198
L34586 49141
L34605 49066
L34624 49029
L34661 48991
L34718 48973
L34755 48973
L34811 48991
L34830 49010
" />
<path d="M35205 49366
L34980 49366
" />
<path d="M35093 49366
L35093 48973
L35055 49029
L35018 49066
L34980 49085
" />
<path d="M35580 49366
L35355 49366
" />
<path d="M35468 49366
L35468 48973
L35430 49029
L35393 49066
L35355 49085
" />
<path d="M42150 49329
L42131 49348
L42075 49366
L42038 49366
L41981 49348
L41944 49310
L41925 49273
L41906 49198
L41906 49141
L41925 49066
L41944 49029
L41981 48991
L42038 48973
L42075 48973
L42131 48991
L42150 49010
" />
<path d="M42525 49366
L42300 49366
" />
<path d="M42413 49366
L42413 48973
L42375 49029
L42338 49066
L42300 49085
" />
<path d="M42675 49010
L42694 48991
L42731 48973
L42825 48973
L42863 48991
L42881 49010
L42900 49048
L42900 49085
L42881 49141
L42656 49366
L42900 49366
" />
<path d="M48950 49489
L48931 49508
L48875 49526
L48838 49526
L48781 49508
L48744 49470
L48725 49433
L48706 49358
L48706 49301
L48725 49226
L48744 49189
L48781 49151
L48838 49133
L48875 49133
L48931 49151
L48950 49170
" />
<path d="M49325 49526
L49100 49526
" />
<path d="M49213 49526
L49213 49133
L49175 49189
L49138 49226
L49100 49245
" />
<path d="M49456 49133
L49700 49133
L49569 49283
L49625 49283
L49663 49301
L49681 49320
L49700 49358
L49700 49451
L49681 49489
L49663 49508
L49625 49526
L49513 49526
L49475 49508
L49456 49489
" />
</g>
<g style="fill:#000000; fill-opacity:0.0; 
stroke:#000000; stroke-width:118.11; stroke-opacity:1; 
stroke-linecap:round; stroke-linejoin:round;">
<path d="M64412 42445
L64037 42445
L64037 41657
" />
<path d="M65087 42445
L64637 42445
" />
<path d="M64862 42445
L64862 41657
L64787 41770
L64712 41845
L64637 41882
" />
<path d="M71612 53045
L71237 53045
L71237 52257
" />
<path d="M72212 52520
L72212 53045
" />
<path d="M72024 52220
L71837 52782
L72324 52782
" />
<path d="M77132 43565
L76757 43565
L76757 42777
" />
<path d="M77769 42777
L77394 42777
L77357 43152
L77394 43115
L77469 43077
L77657 43077
L77732 43115
L77769 43152
L77807 43227
L77807 43415
L77769 43490
L77732 43527
L77657 43565
L77469 43565
L77394 43527
L77357 43490
" />
<path d="M78812 52945
L78437 52945
L78437 52157
" />
<path d="M79412 52157
L79262 52157
L79187 52195
L79149 52232
L79074 52345
L79037 52495
L79037 52795
L79074 52870
L79112 52907
L79187 52945
L79337 52945
L79412 52907
L79449 52870
L79487 52795
L79487 52607
L79449 52532
L79412 52495
L79337 52457
L79187 52457
L79112 52495
L79074 52532
L79037 52607
" />
<path d="M84152 43485
L83777 43485
L83777 42697
" />
<path d="M84339 42697
L84864 42697
L84527 43485
" />
<path d="M86112 53045
L85737 53045
L85737 52257
" />
<path d="M86487 52595
L86412 52557
L86374 52520
L86337 52445
L86337 52407
L86374 52332
L86412 52295
L86487 52257
L86637 52257
L86712 52295
L86749 52332
L86787 52407
L86787 52445
L86749 52520
L86712 52557
L86637 52595
L86487 52595
L86412 52632
L86374 52670
L86337 52745
L86337 52895
L86374 52970
L86412 53007
L86487 53045
L86637 53045
L86712 53007
L86749 52970
L86787 52895
L86787 52745
L86749 52670
L86712 52632
L86637 52595
" />
<path d="M27672 42345
L27297 42345
L27297 41557
" />
<path d="M27972 42345
L28122 42345
L28197 42307
L28234 42270
L28309 42157
L28347 42007
L28347 41707
L28309 41632
L28272 41595
L28197 41557
L28047 41557
L27972 41595
L27934 41632
L27897 41707
L27897 41895
L27934 41970
L27972 42007
L28047 42045
L28197 42045
L28272 42007
L28309 41970
L28347 41895
" />
<path d="M27497 53345
L27122 53345
L27122 52557
" />
<path d="M28172 53345
L27722 53345
" />
<path d="M27947 53345
L27947 52557
L27872 52670
L27797 52745
L27722 52782
" />
<path d="M28659 52557
L28734 52557
L28809 52595
L28847 52632
L28884 52707
L28922 52857
L28922 53045
L28884 53195
L28847 53270
L28809 53307
L28734 53345
L28659 53345
L28584 53307
L28547 53270
L28509 53195
L28472 53045
L28472 52857
L28509 52707
L28547 52632
L28584 52595
L28659 52557
" />
<path d="M34597 42445
L34222 42445
L34222 41657
" />
<path d="M35272 42445
L34822 42445
" />
<path d="M35047 42445
L35047 41657
L34972 41770
L34897 41845
L34822 41882
" />
<path d="M36022 42445
L35572 42445
" />
<path d="M35797 42445
L35797 41657
L35722 41770
L35647 41845
L35572 41882
" />
<path d="M34597 53445
L34222 53445
L34222 52657
" />
<path d="M35272 53445
L34822 53445
" />
<path d="M35047 53445
L35047 52657
L34972 52770
L34897 52845
L34822 52882
" />
<path d="M35572 52732
L35609 52695
L35684 52657
L35872 52657
L35947 52695
L35984 52732
L36022 52807
L36022 52882
L35984 52995
L35534 53445
L36022 53445
" />
<path d="M41797 42545
L41422 42545
L41422 41757
" />
<path d="M42472 42545
L42022 42545
" />
<path d="M42247 42545
L42247 41757
L42172 41870
L42097 41945
L42022 41982
" />
<path d="M42734 41757
L43222 41757
L42959 42057
L43072 42057
L43147 42095
L43184 42132
L43222 42207
L43222 42395
L43184 42470
L43147 42507
L43072 42545
L42847 42545
L42772 42507
L42734 42470
" />
<path d="M49397 42345
L49022 42345
L49022 41557
" />
<path d="M50072 42345
L49622 42345
" />
<path d="M49847 42345
L49847 41557
L49772 41670
L49697 41745
L49622 41782
" />
<path d="M50784 41557
L50409 41557
L50372 41932
L50409 41895
L50484 41857
L50672 41857
L50747 41895
L50784 41932
L50822 42007
L50822 42195
L50784 42270
L50747 42307
L50672 42345
L50484 42345
L50409 42307
L50372 42270
" />
<path d="M49397 53445
L49022 53445
L49022 52657
" />
<path d="M50072 53445
L49622 53445
" />
<path d="M49847 53445
L49847 52657
L49772 52770
L49697 52845
L49622 52882
" />
<path d="M50747 52657
L50597 52657
L50522 52695
L50484 52732
L50409 52845
L50372 52995
L50372 53295
L50409 53370
L50447 53407
L50522 53445
L50672 53445
L50747 53407
L50784 53370
L50822 53295
L50822 53107
L50784 53032
L50747 52995
L50672 52957
L50522 52957
L50447 52995
L50409 53032
L50372 53107
" />
</g>
<g style="fill:#000000; fill-opacity:0.0; 
stroke:#000000; stroke-width:98.4252; stroke-opacity:1; 
stroke-linecap:round; stroke-linejoin:round;">
<path d="M19078 24166
L18946 23979
" />
<path d="M18853 24166
L18853 23773
L19003 23773
L19040 23791
L19059 23810
L19078 23848
L19078 23904
L19059 23941
L19040 23960
L19003 23979
L18853 23979
" />
<path d="M19453 24166
L19228 24166
" />
<path d="M19340 24166
L19340 23773
L19303 23829
L19265 23866
L19228 23885
" />
</g>
<g style="fill:#000000; fill-opacity:0.0; 
stroke:#000000; stroke-width:118.11; stroke-opacity:1; 
stroke-linecap:round; stroke-linejoin:round;">
<path d="M32657 28990
L32282 29252
" />
<path d="M32657 29439
L31869 29439
L31869 29140
L31907 29065
L31944 29027
L32019 28990
L32132 28990
L32207 29027
L32244 29065
L32282 29140
L32282 29439
" />
<path d="M31944 28690
L31907 28652
L31869 28577
L31869 28390
L31907 28315
L31944 28277
L32019 28240
L32094 28240
L32207 28277
L32657 28727
L32657 28240
" />
<path d="M64042 36297
L63780 35922
" />
<path d="M63592 36297
L63592 35509
L63892 35509
L63967 35547
L64005 35584
L64042 35659
L64042 35772
L64005 35847
L63967 35884
L63892 35922
L63592 35922
" />
<path d="M64304 35509
L64792 35509
L64529 35809
L64642 35809
L64717 35847
L64754 35884
L64792 35959
L64792 36147
L64754 36222
L64717 36259
L64642 36297
L64417 36297
L64342 36259
L64304 36222
" />
<path d="M75552 27504
L75631 27053
" />
<path d="M75234 27185
L75790 26629
L76002 26841
L76029 26920
L76029 26973
L76002 27053
L75923 27132
L75843 27159
L75790 27159
L75711 27132
L75499 26920
" />
<path d="M76400 27610
L76029 27981
" />
<path d="M76480 27265
L75949 27530
L76294 27875
" />
<path d="M58412 39763
L59049 39763
L59124 39726
L59162 39688
L59199 39613
L59199 39463
L59162 39388
L59124 39351
L59049 39313
L58412 39313
" />
<path d="M59199 38526
L59199 38976
" />
<path d="M59199 38751
L58412 38751
L58525 38826
L58600 38901
L58637 38976
" />
<path d="M58675 37851
L59199 37851
" />
<path d="M58375 38038
L58937 38226
L58937 37738
" />
</g>
<g style="fill:#000000; fill-opacity:0.0; 
stroke:#000000; stroke-width:98.4252; stroke-opacity:1; 
stroke-linecap:round; stroke-linejoin:round;">
<path d="M51210 49489
L51191 49508
L51135 49526
L51098 49526
L51041 49508
L51004 49470
L50985 49433
L50966 49358
L50966 49301
L50985 49226
L51004 49189
L51041 49151
L51098 49133
L51135 49133
L51191 49151
L51210 49170
" />
<path d="M51585 49526
L51360 49526
" />
<path d="M51473 49526
L51473 49133
L51435 49189
L51398 49226
L51360 49245
" />
<path d="M51773 49526
L51848 49526
L51885 49508
L51904 49489
L51941 49433
L51960 49358
L51960 49208
L51941 49170
L51923 49151
L51885 49133
L51810 49133
L51773 49151
L51754 49170
L51735 49208
L51735 49301
L51754 49339
L51773 49358
L51810 49376
L51885 49376
L51923 49358
L51941 49339
L51960 49301
" />
</g>
<g style="fill:#000000; fill-opacity:0.0; 
stroke:#000000; stroke-width:118.11; stroke-opacity:1; 
stroke-linecap:round; stroke-linejoin:round;">
<path d="M42243 27457
L42243 28095
L42281 28170
L42318 28207
L42393 28245
L42543 28245
L42618 28207
L42656 28170
L42693 28095
L42693 27457
" />
<path d="M43481 28245
L43031 28245
" />
<path d="M43256 28245
L43256 27457
L43181 27570
L43106 27645
L43031 27682
" />
<path d="M50881 26488
L51518 26488
L51593 26451
L51630 26413
L51668 26338
L51668 26188
L51630 26113
L51593 26076
L51518 26038
L50881 26038
" />
<path d="M50956 25701
L50918 25663
L50881 25588
L50881 25401
L50918 25326
L50956 25288
L51031 25251
L51106 25251
L51218 25288
L51668 25738
L51668 25251
" />
<path d="M87747 20663
L88384 20663
L88459 20626
L88497 20588
L88534 20513
L88534 20363
L88497 20288
L88459 20251
L88384 20213
L87747 20213
" />
<path d="M88534 19426
L88534 19876
" />
<path d="M88534 19651
L87747 19651
L87859 19726
L87934 19801
L87972 19876
" />
<path d="M87822 19126
L87784 19088
L87747 19013
L87747 18826
L87784 18751
L87822 18713
L87897 18676
L87972 18676
L88084 18713
L88534 19163
L88534 18676
" />
<path d="M64012 27245
L63750 26870
" />
<path d="M63562 27245
L63562 26457
L63862 26457
L63937 26495
L63975 26532
L64012 26607
L64012 26720
L63975 26795
L63937 26832
L63862 26870
L63562 26870
" />
<path d="M64387 27245
L64537 27245
L64612 27207
L64649 27170
L64724 27057
L64762 26907
L64762 26607
L64724 26532
L64687 26495
L64612 26457
L64462 26457
L64387 26495
L64349 26532
L64312 26607
L64312 26795
L64349 26870
L64387 26907
L64462 26945
L64612 26945
L64687 26907
L64724 26870
L64762 26795
" />
<path d="M68377 39851
L68940 39851
L69052 39888
L69127 39963
L69165 40076
L69165 40151
" />
<path d="M68452 39513
L68415 39476
L68377 39401
L68377 39213
L68415 39138
L68452 39101
L68527 39063
L68602 39063
L68715 39101
L69165 39551
L69165 39063
" />
</g>
<g style="fill:#000000; fill-opacity:0.0; 
stroke:#000000; stroke-width:98.4252; stroke-opacity:1; 
stroke-linecap:round; stroke-linejoin:round;">
<path d="M22513 23246
L22513 22853
L22606 22853
L22663 22871
L22700 22909
L22719 22946
L22738 23021
L22738 23078
L22719 23153
L22700 23190
L22663 23228
L22606 23246
L22513 23246
" />
<path d="M22869 22853
L23113 22853
L22981 23003
L23038 23003
L23075 23021
L23094 23040
L23113 23078
L23113 23171
L23094 23209
L23075 23228
L23038 23246
L22925 23246
L22888 23228
L22869 23209
" />
</g>
<g style="fill:#000000; fill-opacity:0.0; 
stroke:#000000; stroke-width:118.11; stroke-opacity:1; 
stroke-linecap:round; stroke-linejoin:round;">
<path d="M67590 37155
L67537 37155
L67431 37102
L67378 37049
L67325 36943
L67325 36837
L67352 36758
L67431 36625
L67511 36545
L67643 36466
L67723 36439
L67829 36439
L67935 36492
L67988 36545
L68041 36651
L68041 36705
" />
<path d="M68253 36917
L68306 36917
L68386 36943
L68518 37076
L68545 37155
L68545 37208
L68518 37288
L68465 37341
L68359 37394
L67723 37394
L68068 37739
" />
<path d="M68969 37526
L69022 37579
L69049 37659
L69049 37712
L69022 37792
L68943 37924
L68810 38057
L68678 38136
L68598 38163
L68545 38163
L68465 38136
L68412 38083
L68386 38004
L68386 37951
L68412 37871
L68492 37739
L68624 37606
L68757 37526
L68837 37500
L68890 37500
L68969 37526
" />
<path d="M82598 30333
L82388 30033
" />
<path d="M82238 30333
L82238 29703
L82478 29703
L82538 29733
L82568 29763
L82598 29823
L82598 29913
L82568 29973
L82538 30003
L82478 30033
L82238 30033
" />
<path d="M83198 30333
L82838 30333
" />
<path d="M83018 30333
L83018 29703
L82958 29793
L82898 29853
L82838 29883
" />
<path d="M83588 29703
L83648 29703
L83708 29733
L83738 29763
L83768 29823
L83798 29943
L83798 30093
L83768 30213
L83738 30273
L83708 30303
L83648 30333
L83588 30333
L83528 30303
L83498 30273
L83468 30213
L83438 30093
L83438 29943
L83468 29823
L83498 29763
L83528 29733
L83588 29703
" />
<path d="M88199 23195
L87824 23457
" />
<path d="M88199 23644
L87411 23644
L87411 23344
L87449 23269
L87486 23232
L87561 23195
L87674 23195
L87749 23232
L87786 23269
L87824 23344
L87824 23644
" />
<path d="M88199 22445
L88199 22895
" />
<path d="M88199 22670
L87411 22670
L87524 22745
L87599 22820
L87636 22895
" />
<path d="M88199 21695
L88199 22145
" />
<path d="M88199 21920
L87411 21920
L87524 21995
L87599 22070
L87636 22145
" />
</g> 
</svg>
