<?xml version="1.0" standalone="no"?>
 <!DOCTYPE svg PUBLIC "-//W3C//DTD SVG 1.1//EN" 
 "http://www.w3.org/Graphics/SVG/1.1/DTD/svg11.dtd"> 
<svg xmlns="http://www.w3.org/2000/svg" version="1.1" 
    width="29.7002cm" height="21.0007cm" viewBox="0 0 116930 82680 ">
<title>SVG Picture created as ThermocoupleLogger-B_SilkS.svg date 2019/03/14 17:05:17 </title>
  <desc>Picture generated by PCBNEW </desc>
<g style="fill:#000000; fill-opacity:1;stroke:#000000; stroke-opacity:1;
stroke-linecap:round; stroke-linejoin:round; "
 transform="translate(0 0) scale(1 1)">
</g>
<g style="fill:#000000; fill-opacity:0.0; 
stroke:#000000; stroke-width:-0.000787402; stroke-opacity:1; 
stroke-linecap:round; stroke-linejoin:round;">
</g>
<g style="fill:#000000; fill-opacity:0.0; 
stroke:#000000; stroke-width:157.48; stroke-opacity:1; 
stroke-linecap:round; stroke-linejoin:round;">
<path d="M30465 17956
L17748 17956
" />
<path d="M17748 63696
L96543 64088
" />
<path d="M96543 64090
L96543 59288
" />
<path d="M17743 59288
L17743 63688
" />
<path d="M83703 59248
L65463 59248
" />
<path d="M87433 59248
L96543 59264
" />
<path d="M87393 57248
L96483 57248
" />
<path d="M65463 57248
L83703 57248
" />
<path d="M61827 59258
L24467 59258
" />
<path d="M24473 57258
L61833 57258
" />
<path d="M20843 57268
L17743 57268
" />
<path d="M20813 59268
L17740 59287
" />
<path d="M20813.7 59268.8 A1000.2 1000.2 0.0 0 0 20836.3 57269.5 " />
<path d="M24483.7 57258.8 A1000 1000 0.0 0 0 24467.1 59258.7 " />
<path d="M61813.7 59258.8 A1000 1000 0.0 0 0 61835 57259 " />
<path d="M65463.7 57248.8 A1000.2 1000.2 0.0 1 0 65465.5 59248.8 " />
<path d="M83693.7 59248.8 A1000.2 1000.2 0.0 1 0 83713.7 57248.6 " />
<path d="M87384.5 57248.8 A1000.2 1000.2 0.0 0 0 87423.7 59248.8 " />
<path d="M91343.7 15888.8 A1000.8 1000.8 0.0 0 0 91383.7 17889.6 " />
<path d="M55123.7 17928.8 A1000.8 1000.8 0.0 1 0 55123.7 15928.8 " />
<path d="M17703 15908
L17703 15908
" />
<path d="M30463 15908
L17703 15908
" />
<path d="M34123 17928
L55123 17928
" />
<path d="M55103 15928
L34143 15928
" />
<path d="M30463.7 17948.8 A1020 1020 0.0 0 0 30463.7 15908.8 " />
<path d="M34143.7 15928.8 A1000.2 1000.2 0.0 1 0 34123.7 17929 " />
<path d="M87723 17918
L58893 17918
" />
<path d="M58743 15938
L87753 15938
" />
<path d="M58823.7 15928.8 A990.202 990.202 0.0 0 0 58863.7 17908.8 " />
<path d="M91394 17893
L96480 17901
" />
<path d="M96443 15888
L91343 15888
" />
<path d="M96443 10688
L96443 15888
" />
<path d="M87723.7 17928.8 A996 996 0.0 0 0 87731.8 15936.9 " />
<path d="M17703 10668
L96433 10673
" />
<path d="M17703 15908
L17703 10668
" />
<path d="M17743 57268
L17743 17958
" />
<path d="M96483 57248
L96483 17918
" />
</g>
<g style="fill:#000000; fill-opacity:1.0; 
stroke:#000000; stroke-width:0; stroke-opacity:1; 
stroke-linecap:round; stroke-linejoin:round;">
<polyline style="fill-rule:evenodd;"
points="18903,42852
18903,43167
18588,43167
18588,42852
18903,42852
" /> 
<polyline style="fill-rule:evenodd;"
points="19218,42852
19218,43167
18903,43167
18903,42852
19218,42852
" /> 
<polyline style="fill-rule:evenodd;"
points="19533,42852
19533,43167
19218,43167
19218,42852
19533,42852
" /> 
<polyline style="fill-rule:evenodd;"
points="19848,42852
19848,43167
19533,43167
19533,42852
19848,42852
" /> 
<polyline style="fill-rule:evenodd;"
points="20163,42852
20163,43167
19848,43167
19848,42852
20163,42852
" /> 
<polyline style="fill-rule:evenodd;"
points="20478,42852
20478,43167
20163,43167
20163,42852
20478,42852
" /> 
<polyline style="fill-rule:evenodd;"
points="20793,42852
20793,43167
20478,43167
20478,42852
20793,42852
" /> 
<polyline style="fill-rule:evenodd;"
points="22683,42852
22683,43167
22368,43167
22368,42852
22683,42852
" /> 
<polyline style="fill-rule:evenodd;"
points="22998,42852
22998,43167
22683,43167
22683,42852
22998,42852
" /> 
<polyline style="fill-rule:evenodd;"
points="23628,42852
23628,43167
23313,43167
23313,42852
23628,42852
" /> 
<polyline style="fill-rule:evenodd;"
points="23943,42852
23943,43167
23628,43167
23628,42852
23943,42852
" /> 
<polyline style="fill-rule:evenodd;"
points="24258,42852
24258,43167
23943,43167
23943,42852
24258,42852
" /> 
<polyline style="fill-rule:evenodd;"
points="24573,42852
24573,43167
24258,43167
24258,42852
24573,42852
" /> 
<polyline style="fill-rule:evenodd;"
points="25203,42852
25203,43167
24888,43167
24888,42852
25203,42852
" /> 
<polyline style="fill-rule:evenodd;"
points="27092,42852
27092,43167
26777,43167
26777,42852
27092,42852
" /> 
<polyline style="fill-rule:evenodd;"
points="27407,42852
27407,43167
27092,43167
27092,42852
27407,42852
" /> 
<polyline style="fill-rule:evenodd;"
points="27722,42852
27722,43167
27407,43167
27407,42852
27722,42852
" /> 
<polyline style="fill-rule:evenodd;"
points="28037,42852
28037,43167
27722,43167
27722,42852
28037,42852
" /> 
<polyline style="fill-rule:evenodd;"
points="28352,42852
28352,43167
28037,43167
28037,42852
28352,42852
" /> 
<polyline style="fill-rule:evenodd;"
points="28667,42852
28667,43167
28352,43167
28352,42852
28667,42852
" /> 
<polyline style="fill-rule:evenodd;"
points="28982,42852
28982,43167
28667,43167
28667,42852
28982,42852
" /> 
<polyline style="fill-rule:evenodd;"
points="18903,42537
18903,42852
18588,42852
18588,42537
18903,42537
" /> 
<polyline style="fill-rule:evenodd;"
points="20793,42537
20793,42852
20478,42852
20478,42537
20793,42537
" /> 
<polyline style="fill-rule:evenodd;"
points="21738,42537
21738,42852
21423,42852
21423,42537
21738,42537
" /> 
<polyline style="fill-rule:evenodd;"
points="22368,42537
22368,42852
22053,42852
22053,42537
22368,42537
" /> 
<polyline style="fill-rule:evenodd;"
points="22998,42537
22998,42852
22683,42852
22683,42537
22998,42537
" /> 
<polyline style="fill-rule:evenodd;"
points="23313,42537
23313,42852
22998,42852
22998,42537
23313,42537
" /> 
<polyline style="fill-rule:evenodd;"
points="24258,42537
24258,42852
23943,42852
23943,42537
24258,42537
" /> 
<polyline style="fill-rule:evenodd;"
points="24888,42537
24888,42852
24573,42852
24573,42537
24888,42537
" /> 
<polyline style="fill-rule:evenodd;"
points="25832,42537
25832,42852
25518,42852
25518,42537
25832,42537
" /> 
<polyline style="fill-rule:evenodd;"
points="26147,42537
26147,42852
25832,42852
25832,42537
26147,42537
" /> 
<polyline style="fill-rule:evenodd;"
points="26462,42537
26462,42852
26147,42852
26147,42537
26462,42537
" /> 
<polyline style="fill-rule:evenodd;"
points="27092,42537
27092,42852
26777,42852
26777,42537
27092,42537
" /> 
<polyline style="fill-rule:evenodd;"
points="28982,42537
28982,42852
28667,42852
28667,42537
28982,42537
" /> 
<polyline style="fill-rule:evenodd;"
points="18903,42222
18903,42537
18588,42537
18588,42222
18903,42222
" /> 
<polyline style="fill-rule:evenodd;"
points="19533,42222
19533,42537
19218,42537
19218,42222
19533,42222
" /> 
<polyline style="fill-rule:evenodd;"
points="19848,42222
19848,42537
19533,42537
19533,42222
19848,42222
" /> 
<polyline style="fill-rule:evenodd;"
points="20163,42222
20163,42537
19848,42537
19848,42222
20163,42222
" /> 
<polyline style="fill-rule:evenodd;"
points="20793,42222
20793,42537
20478,42537
20478,42222
20793,42222
" /> 
<polyline style="fill-rule:evenodd;"
points="21423,42222
21423,42537
21108,42537
21108,42222
21423,42222
" /> 
<polyline style="fill-rule:evenodd;"
points="21738,42222
21738,42537
21423,42537
21423,42222
21738,42222
" /> 
<polyline style="fill-rule:evenodd;"
points="22998,42222
22998,42537
22683,42537
22683,42222
22998,42222
" /> 
<polyline style="fill-rule:evenodd;"
points="23943,42222
23943,42537
23628,42537
23628,42222
23943,42222
" /> 
<polyline style="fill-rule:evenodd;"
points="24258,42222
24258,42537
23943,42537
23943,42222
24258,42222
" /> 
<polyline style="fill-rule:evenodd;"
points="24573,42222
24573,42537
24258,42537
24258,42222
24573,42222
" /> 
<polyline style="fill-rule:evenodd;"
points="24888,42222
24888,42537
24573,42537
24573,42222
24888,42222
" /> 
<polyline style="fill-rule:evenodd;"
points="25203,42222
25203,42537
24888,42537
24888,42222
25203,42222
" /> 
<polyline style="fill-rule:evenodd;"
points="26147,42222
26147,42537
25832,42537
25832,42222
26147,42222
" /> 
<polyline style="fill-rule:evenodd;"
points="27092,42222
27092,42537
26777,42537
26777,42222
27092,42222
" /> 
<polyline style="fill-rule:evenodd;"
points="27722,42222
27722,42537
27407,42537
27407,42222
27722,42222
" /> 
<polyline style="fill-rule:evenodd;"
points="28037,42222
28037,42537
27722,42537
27722,42222
28037,42222
" /> 
<polyline style="fill-rule:evenodd;"
points="28352,42222
28352,42537
28037,42537
28037,42222
28352,42222
" /> 
<polyline style="fill-rule:evenodd;"
points="28982,42222
28982,42537
28667,42537
28667,42222
28982,42222
" /> 
<polyline style="fill-rule:evenodd;"
points="18903,41907
18903,42222
18588,42222
18588,41907
18903,41907
" /> 
<polyline style="fill-rule:evenodd;"
points="19533,41907
19533,42222
19218,42222
19218,41907
19533,41907
" /> 
<polyline style="fill-rule:evenodd;"
points="19848,41907
19848,42222
19533,42222
19533,41907
19848,41907
" /> 
<polyline style="fill-rule:evenodd;"
points="20163,41907
20163,42222
19848,42222
19848,41907
20163,41907
" /> 
<polyline style="fill-rule:evenodd;"
points="20793,41907
20793,42222
20478,42222
20478,41907
20793,41907
" /> 
<polyline style="fill-rule:evenodd;"
points="21423,41907
21423,42222
21108,42222
21108,41907
21423,41907
" /> 
<polyline style="fill-rule:evenodd;"
points="21738,41907
21738,42222
21423,42222
21423,41907
21738,41907
" /> 
<polyline style="fill-rule:evenodd;"
points="22053,41907
22053,42222
21738,42222
21738,41907
22053,41907
" /> 
<polyline style="fill-rule:evenodd;"
points="22368,41907
22368,42222
22053,42222
22053,41907
22368,41907
" /> 
<polyline style="fill-rule:evenodd;"
points="23313,41907
23313,42222
22998,42222
22998,41907
23313,41907
" /> 
<polyline style="fill-rule:evenodd;"
points="23943,41907
23943,42222
23628,42222
23628,41907
23943,41907
" /> 
<polyline style="fill-rule:evenodd;"
points="24888,41907
24888,42222
24573,42222
24573,41907
24888,41907
" /> 
<polyline style="fill-rule:evenodd;"
points="25203,41907
25203,42222
24888,42222
24888,41907
25203,41907
" /> 
<polyline style="fill-rule:evenodd;"
points="25518,41907
25518,42222
25203,42222
25203,41907
25518,41907
" /> 
<polyline style="fill-rule:evenodd;"
points="25832,41907
25832,42222
25518,42222
25518,41907
25832,41907
" /> 
<polyline style="fill-rule:evenodd;"
points="26147,41907
26147,42222
25832,42222
25832,41907
26147,41907
" /> 
<polyline style="fill-rule:evenodd;"
points="27092,41907
27092,42222
26777,42222
26777,41907
27092,41907
" /> 
<polyline style="fill-rule:evenodd;"
points="27722,41907
27722,42222
27407,42222
27407,41907
27722,41907
" /> 
<polyline style="fill-rule:evenodd;"
points="28037,41907
28037,42222
27722,42222
27722,41907
28037,41907
" /> 
<polyline style="fill-rule:evenodd;"
points="28352,41907
28352,42222
28037,42222
28037,41907
28352,41907
" /> 
<polyline style="fill-rule:evenodd;"
points="28982,41907
28982,42222
28667,42222
28667,41907
28982,41907
" /> 
<polyline style="fill-rule:evenodd;"
points="18903,41592
18903,41907
18588,41907
18588,41592
18903,41592
" /> 
<polyline style="fill-rule:evenodd;"
points="19533,41592
19533,41907
19218,41907
19218,41592
19533,41592
" /> 
<polyline style="fill-rule:evenodd;"
points="19848,41592
19848,41907
19533,41907
19533,41592
19848,41592
" /> 
<polyline style="fill-rule:evenodd;"
points="20163,41592
20163,41907
19848,41907
19848,41592
20163,41592
" /> 
<polyline style="fill-rule:evenodd;"
points="20793,41592
20793,41907
20478,41907
20478,41592
20793,41592
" /> 
<polyline style="fill-rule:evenodd;"
points="21423,41592
21423,41907
21108,41907
21108,41592
21423,41592
" /> 
<polyline style="fill-rule:evenodd;"
points="21738,41592
21738,41907
21423,41907
21423,41592
21738,41592
" /> 
<polyline style="fill-rule:evenodd;"
points="22368,41592
22368,41907
22053,41907
22053,41592
22368,41592
" /> 
<polyline style="fill-rule:evenodd;"
points="23628,41592
23628,41907
23313,41907
23313,41592
23628,41592
" /> 
<polyline style="fill-rule:evenodd;"
points="24573,41592
24573,41907
24258,41907
24258,41592
24573,41592
" /> 
<polyline style="fill-rule:evenodd;"
points="25518,41592
25518,41907
25203,41907
25203,41592
25518,41592
" /> 
<polyline style="fill-rule:evenodd;"
points="26462,41592
26462,41907
26147,41907
26147,41592
26462,41592
" /> 
<polyline style="fill-rule:evenodd;"
points="27092,41592
27092,41907
26777,41907
26777,41592
27092,41592
" /> 
<polyline style="fill-rule:evenodd;"
points="27722,41592
27722,41907
27407,41907
27407,41592
27722,41592
" /> 
<polyline style="fill-rule:evenodd;"
points="28037,41592
28037,41907
27722,41907
27722,41592
28037,41592
" /> 
<polyline style="fill-rule:evenodd;"
points="28352,41592
28352,41907
28037,41907
28037,41592
28352,41592
" /> 
<polyline style="fill-rule:evenodd;"
points="28982,41592
28982,41907
28667,41907
28667,41592
28982,41592
" /> 
<polyline style="fill-rule:evenodd;"
points="18903,41277
18903,41592
18588,41592
18588,41277
18903,41277
" /> 
<polyline style="fill-rule:evenodd;"
points="20793,41277
20793,41592
20478,41592
20478,41277
20793,41277
" /> 
<polyline style="fill-rule:evenodd;"
points="21423,41277
21423,41592
21108,41592
21108,41277
21423,41277
" /> 
<polyline style="fill-rule:evenodd;"
points="21738,41277
21738,41592
21423,41592
21423,41277
21738,41277
" /> 
<polyline style="fill-rule:evenodd;"
points="22053,41277
22053,41592
21738,41592
21738,41277
22053,41277
" /> 
<polyline style="fill-rule:evenodd;"
points="22368,41277
22368,41592
22053,41592
22053,41277
22368,41277
" /> 
<polyline style="fill-rule:evenodd;"
points="23628,41277
23628,41592
23313,41592
23313,41277
23628,41277
" /> 
<polyline style="fill-rule:evenodd;"
points="23943,41277
23943,41592
23628,41592
23628,41277
23943,41277
" /> 
<polyline style="fill-rule:evenodd;"
points="24573,41277
24573,41592
24258,41592
24258,41277
24573,41277
" /> 
<polyline style="fill-rule:evenodd;"
points="25203,41277
25203,41592
24888,41592
24888,41277
25203,41277
" /> 
<polyline style="fill-rule:evenodd;"
points="25518,41277
25518,41592
25203,41592
25203,41277
25518,41277
" /> 
<polyline style="fill-rule:evenodd;"
points="27092,41277
27092,41592
26777,41592
26777,41277
27092,41277
" /> 
<polyline style="fill-rule:evenodd;"
points="28982,41277
28982,41592
28667,41592
28667,41277
28982,41277
" /> 
<polyline style="fill-rule:evenodd;"
points="18903,40962
18903,41277
18588,41277
18588,40962
18903,40962
" /> 
<polyline style="fill-rule:evenodd;"
points="19218,40962
19218,41277
18903,41277
18903,40962
19218,40962
" /> 
<polyline style="fill-rule:evenodd;"
points="19533,40962
19533,41277
19218,41277
19218,40962
19533,40962
" /> 
<polyline style="fill-rule:evenodd;"
points="19848,40962
19848,41277
19533,41277
19533,40962
19848,40962
" /> 
<polyline style="fill-rule:evenodd;"
points="20163,40962
20163,41277
19848,41277
19848,40962
20163,40962
" /> 
<polyline style="fill-rule:evenodd;"
points="20478,40962
20478,41277
20163,41277
20163,40962
20478,40962
" /> 
<polyline style="fill-rule:evenodd;"
points="20793,40962
20793,41277
20478,41277
20478,40962
20793,40962
" /> 
<polyline style="fill-rule:evenodd;"
points="21423,40962
21423,41277
21108,41277
21108,40962
21423,40962
" /> 
<polyline style="fill-rule:evenodd;"
points="22053,40962
22053,41277
21738,41277
21738,40962
22053,40962
" /> 
<polyline style="fill-rule:evenodd;"
points="22683,40962
22683,41277
22368,41277
22368,40962
22683,40962
" /> 
<polyline style="fill-rule:evenodd;"
points="23313,40962
23313,41277
22998,41277
22998,40962
23313,40962
" /> 
<polyline style="fill-rule:evenodd;"
points="23943,40962
23943,41277
23628,41277
23628,40962
23943,40962
" /> 
<polyline style="fill-rule:evenodd;"
points="24573,40962
24573,41277
24258,41277
24258,40962
24573,40962
" /> 
<polyline style="fill-rule:evenodd;"
points="25203,40962
25203,41277
24888,41277
24888,40962
25203,40962
" /> 
<polyline style="fill-rule:evenodd;"
points="25832,40962
25832,41277
25518,41277
25518,40962
25832,40962
" /> 
<polyline style="fill-rule:evenodd;"
points="26462,40962
26462,41277
26147,41277
26147,40962
26462,40962
" /> 
<polyline style="fill-rule:evenodd;"
points="27092,40962
27092,41277
26777,41277
26777,40962
27092,40962
" /> 
<polyline style="fill-rule:evenodd;"
points="27407,40962
27407,41277
27092,41277
27092,40962
27407,40962
" /> 
<polyline style="fill-rule:evenodd;"
points="27722,40962
27722,41277
27407,41277
27407,40962
27722,40962
" /> 
<polyline style="fill-rule:evenodd;"
points="28037,40962
28037,41277
27722,41277
27722,40962
28037,40962
" /> 
<polyline style="fill-rule:evenodd;"
points="28352,40962
28352,41277
28037,41277
28037,40962
28352,40962
" /> 
<polyline style="fill-rule:evenodd;"
points="28667,40962
28667,41277
28352,41277
28352,40962
28667,40962
" /> 
<polyline style="fill-rule:evenodd;"
points="28982,40962
28982,41277
28667,41277
28667,40962
28982,40962
" /> 
<polyline style="fill-rule:evenodd;"
points="21423,40647
21423,40962
21108,40962
21108,40647
21423,40647
" /> 
<polyline style="fill-rule:evenodd;"
points="21738,40647
21738,40962
21423,40962
21423,40647
21738,40647
" /> 
<polyline style="fill-rule:evenodd;"
points="22053,40647
22053,40962
21738,40962
21738,40647
22053,40647
" /> 
<polyline style="fill-rule:evenodd;"
points="22368,40647
22368,40962
22053,40962
22053,40647
22368,40647
" /> 
<polyline style="fill-rule:evenodd;"
points="22683,40647
22683,40962
22368,40962
22368,40647
22683,40647
" /> 
<polyline style="fill-rule:evenodd;"
points="23313,40647
23313,40962
22998,40962
22998,40647
23313,40647
" /> 
<polyline style="fill-rule:evenodd;"
points="23628,40647
23628,40962
23313,40962
23313,40647
23628,40647
" /> 
<polyline style="fill-rule:evenodd;"
points="25518,40647
25518,40962
25203,40962
25203,40647
25518,40647
" /> 
<polyline style="fill-rule:evenodd;"
points="25832,40647
25832,40962
25518,40962
25518,40647
25832,40647
" /> 
<polyline style="fill-rule:evenodd;"
points="26462,40647
26462,40962
26147,40962
26147,40647
26462,40647
" /> 
<polyline style="fill-rule:evenodd;"
points="18903,40333
18903,40647
18588,40647
18588,40333
18903,40333
" /> 
<polyline style="fill-rule:evenodd;"
points="19533,40333
19533,40647
19218,40647
19218,40333
19533,40333
" /> 
<polyline style="fill-rule:evenodd;"
points="19848,40333
19848,40647
19533,40647
19533,40333
19848,40333
" /> 
<polyline style="fill-rule:evenodd;"
points="20163,40333
20163,40647
19848,40647
19848,40333
20163,40333
" /> 
<polyline style="fill-rule:evenodd;"
points="20478,40333
20478,40647
20163,40647
20163,40333
20478,40333
" /> 
<polyline style="fill-rule:evenodd;"
points="20793,40333
20793,40647
20478,40647
20478,40333
20793,40333
" /> 
<polyline style="fill-rule:evenodd;"
points="22053,40333
22053,40647
21738,40647
21738,40333
22053,40333
" /> 
<polyline style="fill-rule:evenodd;"
points="22368,40333
22368,40647
22053,40647
22053,40333
22368,40333
" /> 
<polyline style="fill-rule:evenodd;"
points="22683,40333
22683,40647
22368,40647
22368,40333
22683,40333
" /> 
<polyline style="fill-rule:evenodd;"
points="23628,40333
23628,40647
23313,40647
23313,40333
23628,40333
" /> 
<polyline style="fill-rule:evenodd;"
points="23943,40333
23943,40647
23628,40647
23628,40333
23943,40333
" /> 
<polyline style="fill-rule:evenodd;"
points="24573,40333
24573,40647
24258,40647
24258,40333
24573,40333
" /> 
<polyline style="fill-rule:evenodd;"
points="25203,40333
25203,40647
24888,40647
24888,40333
25203,40333
" /> 
<polyline style="fill-rule:evenodd;"
points="25518,40333
25518,40647
25203,40647
25203,40333
25518,40333
" /> 
<polyline style="fill-rule:evenodd;"
points="27092,40333
27092,40647
26777,40647
26777,40333
27092,40333
" /> 
<polyline style="fill-rule:evenodd;"
points="27407,40333
27407,40647
27092,40647
27092,40333
27407,40333
" /> 
<polyline style="fill-rule:evenodd;"
points="27722,40333
27722,40647
27407,40647
27407,40333
27722,40333
" /> 
<polyline style="fill-rule:evenodd;"
points="28037,40333
28037,40647
27722,40647
27722,40333
28037,40333
" /> 
<polyline style="fill-rule:evenodd;"
points="28352,40333
28352,40647
28037,40647
28037,40333
28352,40333
" /> 
<polyline style="fill-rule:evenodd;"
points="18903,40018
18903,40333
18588,40333
18588,40018
18903,40018
" /> 
<polyline style="fill-rule:evenodd;"
points="19533,40018
19533,40333
19218,40333
19218,40018
19533,40018
" /> 
<polyline style="fill-rule:evenodd;"
points="19848,40018
19848,40333
19533,40333
19533,40018
19848,40018
" /> 
<polyline style="fill-rule:evenodd;"
points="21423,40018
21423,40333
21108,40333
21108,40018
21423,40018
" /> 
<polyline style="fill-rule:evenodd;"
points="21738,40018
21738,40333
21423,40333
21423,40018
21738,40018
" /> 
<polyline style="fill-rule:evenodd;"
points="23313,40018
23313,40333
22998,40333
22998,40018
23313,40018
" /> 
<polyline style="fill-rule:evenodd;"
points="23628,40018
23628,40333
23313,40333
23313,40018
23628,40018
" /> 
<polyline style="fill-rule:evenodd;"
points="25518,40018
25518,40333
25203,40333
25203,40018
25518,40018
" /> 
<polyline style="fill-rule:evenodd;"
points="25832,40018
25832,40333
25518,40333
25518,40018
25832,40018
" /> 
<polyline style="fill-rule:evenodd;"
points="26462,40018
26462,40333
26147,40333
26147,40018
26462,40018
" /> 
<polyline style="fill-rule:evenodd;"
points="26777,40018
26777,40333
26462,40333
26462,40018
26777,40018
" /> 
<polyline style="fill-rule:evenodd;"
points="27092,40018
27092,40333
26777,40333
26777,40018
27092,40018
" /> 
<polyline style="fill-rule:evenodd;"
points="27407,40018
27407,40333
27092,40333
27092,40018
27407,40018
" /> 
<polyline style="fill-rule:evenodd;"
points="28037,40018
28037,40333
27722,40333
27722,40018
28037,40018
" /> 
<polyline style="fill-rule:evenodd;"
points="28352,40018
28352,40333
28037,40333
28037,40018
28352,40018
" /> 
<polyline style="fill-rule:evenodd;"
points="18903,39703
18903,40018
18588,40018
18588,39703
18903,39703
" /> 
<polyline style="fill-rule:evenodd;"
points="20478,39703
20478,40018
20163,40018
20163,39703
20478,39703
" /> 
<polyline style="fill-rule:evenodd;"
points="20793,39703
20793,40018
20478,40018
20478,39703
20793,39703
" /> 
<polyline style="fill-rule:evenodd;"
points="21738,39703
21738,40018
21423,40018
21423,39703
21738,39703
" /> 
<polyline style="fill-rule:evenodd;"
points="23628,39703
23628,40018
23313,40018
23313,39703
23628,39703
" /> 
<polyline style="fill-rule:evenodd;"
points="23943,39703
23943,40018
23628,40018
23628,39703
23943,39703
" /> 
<polyline style="fill-rule:evenodd;"
points="24573,39703
24573,40018
24258,40018
24258,39703
24573,39703
" /> 
<polyline style="fill-rule:evenodd;"
points="25203,39703
25203,40018
24888,40018
24888,39703
25203,39703
" /> 
<polyline style="fill-rule:evenodd;"
points="25518,39703
25518,40018
25203,40018
25203,39703
25518,39703
" /> 
<polyline style="fill-rule:evenodd;"
points="26777,39703
26777,40018
26462,40018
26462,39703
26777,39703
" /> 
<polyline style="fill-rule:evenodd;"
points="27092,39703
27092,40018
26777,40018
26777,39703
27092,39703
" /> 
<polyline style="fill-rule:evenodd;"
points="27407,39703
27407,40018
27092,40018
27092,39703
27407,39703
" /> 
<polyline style="fill-rule:evenodd;"
points="27722,39703
27722,40018
27407,40018
27407,39703
27722,39703
" /> 
<polyline style="fill-rule:evenodd;"
points="28352,39703
28352,40018
28037,40018
28037,39703
28352,39703
" /> 
<polyline style="fill-rule:evenodd;"
points="28667,39703
28667,40018
28352,40018
28352,39703
28667,39703
" /> 
<polyline style="fill-rule:evenodd;"
points="28982,39703
28982,40018
28667,40018
28667,39703
28982,39703
" /> 
<polyline style="fill-rule:evenodd;"
points="18903,39388
18903,39703
18588,39703
18588,39388
18903,39388
" /> 
<polyline style="fill-rule:evenodd;"
points="20163,39388
20163,39703
19848,39703
19848,39388
20163,39388
" /> 
<polyline style="fill-rule:evenodd;"
points="20478,39388
20478,39703
20163,39703
20163,39388
20478,39388
" /> 
<polyline style="fill-rule:evenodd;"
points="21108,39388
21108,39703
20793,39703
20793,39388
21108,39388
" /> 
<polyline style="fill-rule:evenodd;"
points="22053,39388
22053,39703
21738,39703
21738,39388
22053,39388
" /> 
<polyline style="fill-rule:evenodd;"
points="23313,39388
23313,39703
22998,39703
22998,39388
23313,39388
" /> 
<polyline style="fill-rule:evenodd;"
points="23628,39388
23628,39703
23313,39703
23313,39388
23628,39388
" /> 
<polyline style="fill-rule:evenodd;"
points="25518,39388
25518,39703
25203,39703
25203,39388
25518,39388
" /> 
<polyline style="fill-rule:evenodd;"
points="25832,39388
25832,39703
25518,39703
25518,39388
25832,39388
" /> 
<polyline style="fill-rule:evenodd;"
points="26462,39388
26462,39703
26147,39703
26147,39388
26462,39388
" /> 
<polyline style="fill-rule:evenodd;"
points="27092,39388
27092,39703
26777,39703
26777,39388
27092,39388
" /> 
<polyline style="fill-rule:evenodd;"
points="27407,39388
27407,39703
27092,39703
27092,39388
27407,39388
" /> 
<polyline style="fill-rule:evenodd;"
points="28352,39388
28352,39703
28037,39703
28037,39388
28352,39388
" /> 
<polyline style="fill-rule:evenodd;"
points="28982,39388
28982,39703
28667,39703
28667,39388
28982,39388
" /> 
<polyline style="fill-rule:evenodd;"
points="18903,39073
18903,39388
18588,39388
18588,39073
18903,39073
" /> 
<polyline style="fill-rule:evenodd;"
points="19533,39073
19533,39388
19218,39388
19218,39073
19533,39073
" /> 
<polyline style="fill-rule:evenodd;"
points="20478,39073
20478,39388
20163,39388
20163,39073
20478,39073
" /> 
<polyline style="fill-rule:evenodd;"
points="20793,39073
20793,39388
20478,39388
20478,39073
20793,39073
" /> 
<polyline style="fill-rule:evenodd;"
points="21738,39073
21738,39388
21423,39388
21423,39073
21738,39073
" /> 
<polyline style="fill-rule:evenodd;"
points="23628,39073
23628,39388
23313,39388
23313,39073
23628,39073
" /> 
<polyline style="fill-rule:evenodd;"
points="24573,39073
24573,39388
24258,39388
24258,39073
24573,39073
" /> 
<polyline style="fill-rule:evenodd;"
points="25518,39073
25518,39388
25203,39388
25203,39073
25518,39073
" /> 
<polyline style="fill-rule:evenodd;"
points="26462,39073
26462,39388
26147,39388
26147,39073
26462,39073
" /> 
<polyline style="fill-rule:evenodd;"
points="26777,39073
26777,39388
26462,39388
26462,39073
26777,39073
" /> 
<polyline style="fill-rule:evenodd;"
points="27092,39073
27092,39388
26777,39388
26777,39073
27092,39073
" /> 
<polyline style="fill-rule:evenodd;"
points="28037,39073
28037,39388
27722,39388
27722,39073
28037,39073
" /> 
<polyline style="fill-rule:evenodd;"
points="28667,39073
28667,39388
28352,39388
28352,39073
28667,39073
" /> 
<polyline style="fill-rule:evenodd;"
points="28982,39073
28982,39388
28667,39388
28667,39073
28982,39073
" /> 
<polyline style="fill-rule:evenodd;"
points="19218,38758
19218,39073
18903,39073
18903,38758
19218,38758
" /> 
<polyline style="fill-rule:evenodd;"
points="19848,38758
19848,39073
19533,39073
19533,38758
19848,38758
" /> 
<polyline style="fill-rule:evenodd;"
points="20163,38758
20163,39073
19848,39073
19848,38758
20163,38758
" /> 
<polyline style="fill-rule:evenodd;"
points="21108,38758
21108,39073
20793,39073
20793,38758
21108,38758
" /> 
<polyline style="fill-rule:evenodd;"
points="22053,38758
22053,39073
21738,39073
21738,38758
22053,38758
" /> 
<polyline style="fill-rule:evenodd;"
points="22368,38758
22368,39073
22053,39073
22053,38758
22368,38758
" /> 
<polyline style="fill-rule:evenodd;"
points="22683,38758
22683,39073
22368,39073
22368,38758
22683,38758
" /> 
<polyline style="fill-rule:evenodd;"
points="22998,38758
22998,39073
22683,39073
22683,38758
22998,38758
" /> 
<polyline style="fill-rule:evenodd;"
points="23313,38758
23313,39073
22998,39073
22998,38758
23313,38758
" /> 
<polyline style="fill-rule:evenodd;"
points="23628,38758
23628,39073
23313,39073
23313,38758
23628,38758
" /> 
<polyline style="fill-rule:evenodd;"
points="23943,38758
23943,39073
23628,39073
23628,38758
23943,38758
" /> 
<polyline style="fill-rule:evenodd;"
points="24258,38758
24258,39073
23943,39073
23943,38758
24258,38758
" /> 
<polyline style="fill-rule:evenodd;"
points="25203,38758
25203,39073
24888,39073
24888,38758
25203,38758
" /> 
<polyline style="fill-rule:evenodd;"
points="25832,38758
25832,39073
25518,39073
25518,38758
25832,38758
" /> 
<polyline style="fill-rule:evenodd;"
points="27407,38758
27407,39073
27092,39073
27092,38758
27407,38758
" /> 
<polyline style="fill-rule:evenodd;"
points="28352,38758
28352,39073
28037,39073
28037,38758
28352,38758
" /> 
<polyline style="fill-rule:evenodd;"
points="28667,38758
28667,39073
28352,39073
28352,38758
28667,38758
" /> 
<polyline style="fill-rule:evenodd;"
points="28982,38758
28982,39073
28667,39073
28667,38758
28982,38758
" /> 
<polyline style="fill-rule:evenodd;"
points="18903,38443
18903,38758
18588,38758
18588,38443
18903,38443
" /> 
<polyline style="fill-rule:evenodd;"
points="19533,38443
19533,38758
19218,38758
19218,38443
19533,38443
" /> 
<polyline style="fill-rule:evenodd;"
points="19848,38443
19848,38758
19533,38758
19533,38443
19848,38443
" /> 
<polyline style="fill-rule:evenodd;"
points="20163,38443
20163,38758
19848,38758
19848,38443
20163,38443
" /> 
<polyline style="fill-rule:evenodd;"
points="20478,38443
20478,38758
20163,38758
20163,38443
20478,38443
" /> 
<polyline style="fill-rule:evenodd;"
points="20793,38443
20793,38758
20478,38758
20478,38443
20793,38443
" /> 
<polyline style="fill-rule:evenodd;"
points="21108,38443
21108,38758
20793,38758
20793,38443
21108,38443
" /> 
<polyline style="fill-rule:evenodd;"
points="21423,38443
21423,38758
21108,38758
21108,38443
21423,38443
" /> 
<polyline style="fill-rule:evenodd;"
points="21738,38443
21738,38758
21423,38758
21423,38443
21738,38443
" /> 
<polyline style="fill-rule:evenodd;"
points="22683,38443
22683,38758
22368,38758
22368,38443
22683,38443
" /> 
<polyline style="fill-rule:evenodd;"
points="22998,38443
22998,38758
22683,38758
22683,38443
22998,38443
" /> 
<polyline style="fill-rule:evenodd;"
points="23313,38443
23313,38758
22998,38758
22998,38443
23313,38443
" /> 
<polyline style="fill-rule:evenodd;"
points="24258,38443
24258,38758
23943,38758
23943,38443
24258,38443
" /> 
<polyline style="fill-rule:evenodd;"
points="24888,38443
24888,38758
24573,38758
24573,38443
24888,38443
" /> 
<polyline style="fill-rule:evenodd;"
points="25832,38443
25832,38758
25518,38758
25518,38443
25832,38443
" /> 
<polyline style="fill-rule:evenodd;"
points="26147,38443
26147,38758
25832,38758
25832,38443
26147,38443
" /> 
<polyline style="fill-rule:evenodd;"
points="26462,38443
26462,38758
26147,38758
26147,38443
26462,38443
" /> 
<polyline style="fill-rule:evenodd;"
points="27092,38443
27092,38758
26777,38758
26777,38443
27092,38443
" /> 
<polyline style="fill-rule:evenodd;"
points="28037,38443
28037,38758
27722,38758
27722,38443
28037,38443
" /> 
<polyline style="fill-rule:evenodd;"
points="28352,38443
28352,38758
28037,38758
28037,38443
28352,38443
" /> 
<polyline style="fill-rule:evenodd;"
points="19218,38128
19218,38443
18903,38443
18903,38128
19218,38128
" /> 
<polyline style="fill-rule:evenodd;"
points="19533,38128
19533,38443
19218,38443
19218,38128
19533,38128
" /> 
<polyline style="fill-rule:evenodd;"
points="19848,38128
19848,38443
19533,38443
19533,38128
19848,38128
" /> 
<polyline style="fill-rule:evenodd;"
points="21423,38128
21423,38443
21108,38443
21108,38128
21423,38128
" /> 
<polyline style="fill-rule:evenodd;"
points="22368,38128
22368,38443
22053,38443
22053,38128
22368,38128
" /> 
<polyline style="fill-rule:evenodd;"
points="22998,38128
22998,38443
22683,38443
22683,38128
22998,38128
" /> 
<polyline style="fill-rule:evenodd;"
points="23943,38128
23943,38443
23628,38443
23628,38128
23943,38128
" /> 
<polyline style="fill-rule:evenodd;"
points="24258,38128
24258,38443
23943,38443
23943,38128
24258,38128
" /> 
<polyline style="fill-rule:evenodd;"
points="24573,38128
24573,38443
24258,38443
24258,38128
24573,38128
" /> 
<polyline style="fill-rule:evenodd;"
points="24888,38128
24888,38443
24573,38443
24573,38128
24888,38128
" /> 
<polyline style="fill-rule:evenodd;"
points="25203,38128
25203,38443
24888,38443
24888,38128
25203,38128
" /> 
<polyline style="fill-rule:evenodd;"
points="26147,38128
26147,38443
25832,38443
25832,38128
26147,38128
" /> 
<polyline style="fill-rule:evenodd;"
points="26777,38128
26777,38443
26462,38443
26462,38128
26777,38128
" /> 
<polyline style="fill-rule:evenodd;"
points="27407,38128
27407,38443
27092,38443
27092,38128
27407,38128
" /> 
<polyline style="fill-rule:evenodd;"
points="28352,38128
28352,38443
28037,38443
28037,38128
28352,38128
" /> 
<polyline style="fill-rule:evenodd;"
points="28667,38128
28667,38443
28352,38443
28352,38128
28667,38128
" /> 
<polyline style="fill-rule:evenodd;"
points="18903,37813
18903,38128
18588,38128
18588,37813
18903,37813
" /> 
<polyline style="fill-rule:evenodd;"
points="20163,37813
20163,38128
19848,38128
19848,37813
20163,37813
" /> 
<polyline style="fill-rule:evenodd;"
points="20478,37813
20478,38128
20163,38128
20163,37813
20478,37813
" /> 
<polyline style="fill-rule:evenodd;"
points="20793,37813
20793,38128
20478,38128
20478,37813
20793,37813
" /> 
<polyline style="fill-rule:evenodd;"
points="21108,37813
21108,38128
20793,38128
20793,37813
21108,37813
" /> 
<polyline style="fill-rule:evenodd;"
points="21738,37813
21738,38128
21423,38128
21423,37813
21738,37813
" /> 
<polyline style="fill-rule:evenodd;"
points="22683,37813
22683,38128
22368,38128
22368,37813
22683,37813
" /> 
<polyline style="fill-rule:evenodd;"
points="22998,37813
22998,38128
22683,38128
22683,37813
22998,37813
" /> 
<polyline style="fill-rule:evenodd;"
points="24888,37813
24888,38128
24573,38128
24573,37813
24888,37813
" /> 
<polyline style="fill-rule:evenodd;"
points="25518,37813
25518,38128
25203,38128
25203,37813
25518,37813
" /> 
<polyline style="fill-rule:evenodd;"
points="25832,37813
25832,38128
25518,38128
25518,37813
25832,37813
" /> 
<polyline style="fill-rule:evenodd;"
points="26147,37813
26147,38128
25832,38128
25832,37813
26147,37813
" /> 
<polyline style="fill-rule:evenodd;"
points="26462,37813
26462,38128
26147,38128
26147,37813
26462,37813
" /> 
<polyline style="fill-rule:evenodd;"
points="27407,37813
27407,38128
27092,38128
27092,37813
27407,37813
" /> 
<polyline style="fill-rule:evenodd;"
points="27722,37813
27722,38128
27407,38128
27407,37813
27722,37813
" /> 
<polyline style="fill-rule:evenodd;"
points="28037,37813
28037,38128
27722,38128
27722,37813
28037,37813
" /> 
<polyline style="fill-rule:evenodd;"
points="28352,37813
28352,38128
28037,38128
28037,37813
28352,37813
" /> 
<polyline style="fill-rule:evenodd;"
points="28667,37813
28667,38128
28352,38128
28352,37813
28667,37813
" /> 
<polyline style="fill-rule:evenodd;"
points="18903,37498
18903,37813
18588,37813
18588,37498
18903,37498
" /> 
<polyline style="fill-rule:evenodd;"
points="19533,37498
19533,37813
19218,37813
19218,37498
19533,37498
" /> 
<polyline style="fill-rule:evenodd;"
points="19848,37498
19848,37813
19533,37813
19533,37498
19848,37498
" /> 
<polyline style="fill-rule:evenodd;"
points="20163,37498
20163,37813
19848,37813
19848,37498
20163,37498
" /> 
<polyline style="fill-rule:evenodd;"
points="20478,37498
20478,37813
20163,37813
20163,37498
20478,37498
" /> 
<polyline style="fill-rule:evenodd;"
points="21108,37498
21108,37813
20793,37813
20793,37498
21108,37498
" /> 
<polyline style="fill-rule:evenodd;"
points="21738,37498
21738,37813
21423,37813
21423,37498
21738,37498
" /> 
<polyline style="fill-rule:evenodd;"
points="22053,37498
22053,37813
21738,37813
21738,37498
22053,37498
" /> 
<polyline style="fill-rule:evenodd;"
points="22998,37498
22998,37813
22683,37813
22683,37498
22998,37498
" /> 
<polyline style="fill-rule:evenodd;"
points="23313,37498
23313,37813
22998,37813
22998,37498
23313,37498
" /> 
<polyline style="fill-rule:evenodd;"
points="23628,37498
23628,37813
23313,37813
23313,37498
23628,37498
" /> 
<polyline style="fill-rule:evenodd;"
points="23943,37498
23943,37813
23628,37813
23628,37498
23943,37498
" /> 
<polyline style="fill-rule:evenodd;"
points="24258,37498
24258,37813
23943,37813
23943,37498
24258,37498
" /> 
<polyline style="fill-rule:evenodd;"
points="24573,37498
24573,37813
24258,37813
24258,37498
24573,37498
" /> 
<polyline style="fill-rule:evenodd;"
points="25203,37498
25203,37813
24888,37813
24888,37498
25203,37498
" /> 
<polyline style="fill-rule:evenodd;"
points="26777,37498
26777,37813
26462,37813
26462,37498
26777,37498
" /> 
<polyline style="fill-rule:evenodd;"
points="27092,37498
27092,37813
26777,37813
26777,37498
27092,37498
" /> 
<polyline style="fill-rule:evenodd;"
points="28667,37498
28667,37813
28352,37813
28352,37498
28667,37498
" /> 
<polyline style="fill-rule:evenodd;"
points="18903,37183
18903,37498
18588,37498
18588,37183
18903,37183
" /> 
<polyline style="fill-rule:evenodd;"
points="19533,37183
19533,37498
19218,37498
19218,37183
19533,37183
" /> 
<polyline style="fill-rule:evenodd;"
points="20163,37183
20163,37498
19848,37498
19848,37183
20163,37183
" /> 
<polyline style="fill-rule:evenodd;"
points="20478,37183
20478,37498
20163,37498
20163,37183
20478,37183
" /> 
<polyline style="fill-rule:evenodd;"
points="20793,37183
20793,37498
20478,37498
20478,37183
20793,37183
" /> 
<polyline style="fill-rule:evenodd;"
points="21423,37183
21423,37498
21108,37498
21108,37183
21423,37183
" /> 
<polyline style="fill-rule:evenodd;"
points="21738,37183
21738,37498
21423,37498
21423,37183
21738,37183
" /> 
<polyline style="fill-rule:evenodd;"
points="22053,37183
22053,37498
21738,37498
21738,37183
22053,37183
" /> 
<polyline style="fill-rule:evenodd;"
points="22998,37183
22998,37498
22683,37498
22683,37183
22998,37183
" /> 
<polyline style="fill-rule:evenodd;"
points="24258,37183
24258,37498
23943,37498
23943,37183
24258,37183
" /> 
<polyline style="fill-rule:evenodd;"
points="24888,37183
24888,37498
24573,37498
24573,37183
24888,37183
" /> 
<polyline style="fill-rule:evenodd;"
points="25832,37183
25832,37498
25518,37498
25518,37183
25832,37183
" /> 
<polyline style="fill-rule:evenodd;"
points="26147,37183
26147,37498
25832,37498
25832,37183
26147,37183
" /> 
<polyline style="fill-rule:evenodd;"
points="26462,37183
26462,37498
26147,37498
26147,37183
26462,37183
" /> 
<polyline style="fill-rule:evenodd;"
points="28037,37183
28037,37498
27722,37498
27722,37183
28037,37183
" /> 
<polyline style="fill-rule:evenodd;"
points="28352,37183
28352,37498
28037,37498
28037,37183
28352,37183
" /> 
<polyline style="fill-rule:evenodd;"
points="19533,36868
19533,37183
19218,37183
19218,36868
19533,36868
" /> 
<polyline style="fill-rule:evenodd;"
points="21108,36868
21108,37183
20793,37183
20793,36868
21108,36868
" /> 
<polyline style="fill-rule:evenodd;"
points="21738,36868
21738,37183
21423,37183
21423,36868
21738,36868
" /> 
<polyline style="fill-rule:evenodd;"
points="22053,36868
22053,37183
21738,37183
21738,36868
22053,36868
" /> 
<polyline style="fill-rule:evenodd;"
points="22368,36868
22368,37183
22053,37183
22053,36868
22368,36868
" /> 
<polyline style="fill-rule:evenodd;"
points="22683,36868
22683,37183
22368,37183
22368,36868
22683,36868
" /> 
<polyline style="fill-rule:evenodd;"
points="22998,36868
22998,37183
22683,37183
22683,36868
22998,36868
" /> 
<polyline style="fill-rule:evenodd;"
points="23943,36868
23943,37183
23628,37183
23628,36868
23943,36868
" /> 
<polyline style="fill-rule:evenodd;"
points="24258,36868
24258,37183
23943,37183
23943,36868
24258,36868
" /> 
<polyline style="fill-rule:evenodd;"
points="24573,36868
24573,37183
24258,37183
24258,36868
24573,36868
" /> 
<polyline style="fill-rule:evenodd;"
points="24888,36868
24888,37183
24573,37183
24573,36868
24888,36868
" /> 
<polyline style="fill-rule:evenodd;"
points="25203,36868
25203,37183
24888,37183
24888,36868
25203,36868
" /> 
<polyline style="fill-rule:evenodd;"
points="26147,36868
26147,37183
25832,37183
25832,36868
26147,36868
" /> 
<polyline style="fill-rule:evenodd;"
points="26777,36868
26777,37183
26462,37183
26462,36868
26777,36868
" /> 
<polyline style="fill-rule:evenodd;"
points="27407,36868
27407,37183
27092,37183
27092,36868
27407,36868
" /> 
<polyline style="fill-rule:evenodd;"
points="27722,36868
27722,37183
27407,37183
27407,36868
27722,36868
" /> 
<polyline style="fill-rule:evenodd;"
points="28352,36868
28352,37183
28037,37183
28037,36868
28352,36868
" /> 
<polyline style="fill-rule:evenodd;"
points="28667,36868
28667,37183
28352,37183
28352,36868
28667,36868
" /> 
<polyline style="fill-rule:evenodd;"
points="18903,36553
18903,36868
18588,36868
18588,36553
18903,36553
" /> 
<polyline style="fill-rule:evenodd;"
points="19533,36553
19533,36868
19218,36868
19218,36553
19533,36553
" /> 
<polyline style="fill-rule:evenodd;"
points="20163,36553
20163,36868
19848,36868
19848,36553
20163,36553
" /> 
<polyline style="fill-rule:evenodd;"
points="20478,36553
20478,36868
20163,36868
20163,36553
20478,36553
" /> 
<polyline style="fill-rule:evenodd;"
points="20793,36553
20793,36868
20478,36868
20478,36553
20793,36553
" /> 
<polyline style="fill-rule:evenodd;"
points="21738,36553
21738,36868
21423,36868
21423,36553
21738,36553
" /> 
<polyline style="fill-rule:evenodd;"
points="22368,36553
22368,36868
22053,36868
22053,36553
22368,36553
" /> 
<polyline style="fill-rule:evenodd;"
points="22683,36553
22683,36868
22368,36868
22368,36553
22683,36553
" /> 
<polyline style="fill-rule:evenodd;"
points="23943,36553
23943,36868
23628,36868
23628,36553
23943,36553
" /> 
<polyline style="fill-rule:evenodd;"
points="24888,36553
24888,36868
24573,36868
24573,36553
24888,36553
" /> 
<polyline style="fill-rule:evenodd;"
points="25203,36553
25203,36868
24888,36868
24888,36553
25203,36553
" /> 
<polyline style="fill-rule:evenodd;"
points="25518,36553
25518,36868
25203,36868
25203,36553
25518,36553
" /> 
<polyline style="fill-rule:evenodd;"
points="25832,36553
25832,36868
25518,36868
25518,36553
25832,36553
" /> 
<polyline style="fill-rule:evenodd;"
points="26147,36553
26147,36868
25832,36868
25832,36553
26147,36553
" /> 
<polyline style="fill-rule:evenodd;"
points="27407,36553
27407,36868
27092,36868
27092,36553
27407,36553
" /> 
<polyline style="fill-rule:evenodd;"
points="28037,36553
28037,36868
27722,36868
27722,36553
28037,36553
" /> 
<polyline style="fill-rule:evenodd;"
points="18903,36238
18903,36553
18588,36553
18588,36238
18903,36238
" /> 
<polyline style="fill-rule:evenodd;"
points="19533,36238
19533,36553
19218,36553
19218,36238
19533,36238
" /> 
<polyline style="fill-rule:evenodd;"
points="20163,36238
20163,36553
19848,36553
19848,36238
20163,36238
" /> 
<polyline style="fill-rule:evenodd;"
points="21108,36238
21108,36553
20793,36553
20793,36238
21108,36238
" /> 
<polyline style="fill-rule:evenodd;"
points="21423,36238
21423,36553
21108,36553
21108,36238
21423,36238
" /> 
<polyline style="fill-rule:evenodd;"
points="22683,36238
22683,36553
22368,36553
22368,36238
22683,36238
" /> 
<polyline style="fill-rule:evenodd;"
points="22998,36238
22998,36553
22683,36553
22683,36238
22998,36238
" /> 
<polyline style="fill-rule:evenodd;"
points="23628,36238
23628,36553
23313,36553
23313,36238
23628,36238
" /> 
<polyline style="fill-rule:evenodd;"
points="24573,36238
24573,36553
24258,36553
24258,36238
24573,36238
" /> 
<polyline style="fill-rule:evenodd;"
points="25518,36238
25518,36553
25203,36553
25203,36238
25518,36238
" /> 
<polyline style="fill-rule:evenodd;"
points="26462,36238
26462,36553
26147,36553
26147,36238
26462,36238
" /> 
<polyline style="fill-rule:evenodd;"
points="26777,36238
26777,36553
26462,36553
26462,36238
26777,36238
" /> 
<polyline style="fill-rule:evenodd;"
points="27722,36238
27722,36553
27407,36553
27407,36238
27722,36238
" /> 
<polyline style="fill-rule:evenodd;"
points="28037,36238
28037,36553
27722,36553
27722,36238
28037,36238
" /> 
<polyline style="fill-rule:evenodd;"
points="28982,36238
28982,36553
28667,36553
28667,36238
28982,36238
" /> 
<polyline style="fill-rule:evenodd;"
points="18903,35923
18903,36238
18588,36238
18588,35923
18903,35923
" /> 
<polyline style="fill-rule:evenodd;"
points="19533,35923
19533,36238
19218,36238
19218,35923
19533,35923
" /> 
<polyline style="fill-rule:evenodd;"
points="20163,35923
20163,36238
19848,36238
19848,35923
20163,35923
" /> 
<polyline style="fill-rule:evenodd;"
points="20478,35923
20478,36238
20163,36238
20163,35923
20478,35923
" /> 
<polyline style="fill-rule:evenodd;"
points="20793,35923
20793,36238
20478,36238
20478,35923
20793,35923
" /> 
<polyline style="fill-rule:evenodd;"
points="21108,35923
21108,36238
20793,36238
20793,35923
21108,35923
" /> 
<polyline style="fill-rule:evenodd;"
points="21738,35923
21738,36238
21423,36238
21423,35923
21738,35923
" /> 
<polyline style="fill-rule:evenodd;"
points="22368,35923
22368,36238
22053,36238
22053,35923
22368,35923
" /> 
<polyline style="fill-rule:evenodd;"
points="22683,35923
22683,36238
22368,36238
22368,35923
22683,35923
" /> 
<polyline style="fill-rule:evenodd;"
points="22998,35923
22998,36238
22683,36238
22683,35923
22998,35923
" /> 
<polyline style="fill-rule:evenodd;"
points="23313,35923
23313,36238
22998,36238
22998,35923
23313,35923
" /> 
<polyline style="fill-rule:evenodd;"
points="23628,35923
23628,36238
23313,36238
23313,35923
23628,35923
" /> 
<polyline style="fill-rule:evenodd;"
points="23943,35923
23943,36238
23628,36238
23628,35923
23943,35923
" /> 
<polyline style="fill-rule:evenodd;"
points="24573,35923
24573,36238
24258,36238
24258,35923
24573,35923
" /> 
<polyline style="fill-rule:evenodd;"
points="25203,35923
25203,36238
24888,36238
24888,35923
25203,35923
" /> 
<polyline style="fill-rule:evenodd;"
points="25518,35923
25518,36238
25203,36238
25203,35923
25518,35923
" /> 
<polyline style="fill-rule:evenodd;"
points="27407,35923
27407,36238
27092,36238
27092,35923
27407,35923
" /> 
<polyline style="fill-rule:evenodd;"
points="27722,35923
27722,36238
27407,36238
27407,35923
27722,35923
" /> 
<polyline style="fill-rule:evenodd;"
points="28667,35923
28667,36238
28352,36238
28352,35923
28667,35923
" /> 
<polyline style="fill-rule:evenodd;"
points="18903,35608
18903,35923
18588,35923
18588,35608
18903,35608
" /> 
<polyline style="fill-rule:evenodd;"
points="19533,35608
19533,35923
19218,35923
19218,35608
19533,35608
" /> 
<polyline style="fill-rule:evenodd;"
points="22368,35608
22368,35923
22053,35923
22053,35608
22368,35608
" /> 
<polyline style="fill-rule:evenodd;"
points="22683,35608
22683,35923
22368,35923
22368,35608
22683,35608
" /> 
<polyline style="fill-rule:evenodd;"
points="22998,35608
22998,35923
22683,35923
22683,35608
22998,35608
" /> 
<polyline style="fill-rule:evenodd;"
points="23628,35608
23628,35923
23313,35923
23313,35608
23628,35608
" /> 
<polyline style="fill-rule:evenodd;"
points="25518,35608
25518,35923
25203,35923
25203,35608
25518,35608
" /> 
<polyline style="fill-rule:evenodd;"
points="25832,35608
25832,35923
25518,35923
25518,35608
25832,35608
" /> 
<polyline style="fill-rule:evenodd;"
points="26462,35608
26462,35923
26147,35923
26147,35608
26462,35608
" /> 
<polyline style="fill-rule:evenodd;"
points="27722,35608
27722,35923
27407,35923
27407,35608
27722,35608
" /> 
<polyline style="fill-rule:evenodd;"
points="28037,35608
28037,35923
27722,35923
27722,35608
28037,35608
" /> 
<polyline style="fill-rule:evenodd;"
points="28982,35608
28982,35923
28667,35923
28667,35608
28982,35608
" /> 
<polyline style="fill-rule:evenodd;"
points="18903,35293
18903,35608
18588,35608
18588,35293
18903,35293
" /> 
<polyline style="fill-rule:evenodd;"
points="19533,35293
19533,35608
19218,35608
19218,35293
19533,35293
" /> 
<polyline style="fill-rule:evenodd;"
points="19848,35293
19848,35608
19533,35608
19533,35293
19848,35293
" /> 
<polyline style="fill-rule:evenodd;"
points="20163,35293
20163,35608
19848,35608
19848,35293
20163,35293
" /> 
<polyline style="fill-rule:evenodd;"
points="20478,35293
20478,35608
20163,35608
20163,35293
20478,35293
" /> 
<polyline style="fill-rule:evenodd;"
points="20793,35293
20793,35608
20478,35608
20478,35293
20793,35293
" /> 
<polyline style="fill-rule:evenodd;"
points="21423,35293
21423,35608
21108,35608
21108,35293
21423,35293
" /> 
<polyline style="fill-rule:evenodd;"
points="22368,35293
22368,35608
22053,35608
22053,35293
22368,35293
" /> 
<polyline style="fill-rule:evenodd;"
points="22683,35293
22683,35608
22368,35608
22368,35293
22683,35293
" /> 
<polyline style="fill-rule:evenodd;"
points="22998,35293
22998,35608
22683,35608
22683,35293
22998,35293
" /> 
<polyline style="fill-rule:evenodd;"
points="23313,35293
23313,35608
22998,35608
22998,35293
23313,35293
" /> 
<polyline style="fill-rule:evenodd;"
points="23628,35293
23628,35608
23313,35608
23313,35293
23628,35293
" /> 
<polyline style="fill-rule:evenodd;"
points="23943,35293
23943,35608
23628,35608
23628,35293
23943,35293
" /> 
<polyline style="fill-rule:evenodd;"
points="24573,35293
24573,35608
24258,35608
24258,35293
24573,35293
" /> 
<polyline style="fill-rule:evenodd;"
points="25203,35293
25203,35608
24888,35608
24888,35293
25203,35293
" /> 
<polyline style="fill-rule:evenodd;"
points="25518,35293
25518,35608
25203,35608
25203,35293
25518,35293
" /> 
<polyline style="fill-rule:evenodd;"
points="26462,35293
26462,35608
26147,35608
26147,35293
26462,35293
" /> 
<polyline style="fill-rule:evenodd;"
points="26777,35293
26777,35608
26462,35608
26462,35293
26777,35293
" /> 
<polyline style="fill-rule:evenodd;"
points="27092,35293
27092,35608
26777,35608
26777,35293
27092,35293
" /> 
<polyline style="fill-rule:evenodd;"
points="27407,35293
27407,35608
27092,35608
27092,35293
27407,35293
" /> 
<polyline style="fill-rule:evenodd;"
points="27722,35293
27722,35608
27407,35608
27407,35293
27722,35293
" /> 
<polyline style="fill-rule:evenodd;"
points="28352,35293
28352,35608
28037,35608
28037,35293
28352,35293
" /> 
<polyline style="fill-rule:evenodd;"
points="28982,35293
28982,35608
28667,35608
28667,35293
28982,35293
" /> 
<polyline style="fill-rule:evenodd;"
points="21423,34978
21423,35293
21108,35293
21108,34978
21423,34978
" /> 
<polyline style="fill-rule:evenodd;"
points="21738,34978
21738,35293
21423,35293
21423,34978
21738,34978
" /> 
<polyline style="fill-rule:evenodd;"
points="22368,34978
22368,35293
22053,35293
22053,34978
22368,34978
" /> 
<polyline style="fill-rule:evenodd;"
points="22683,34978
22683,35293
22368,35293
22368,34978
22683,34978
" /> 
<polyline style="fill-rule:evenodd;"
points="22998,34978
22998,35293
22683,35293
22683,34978
22998,34978
" /> 
<polyline style="fill-rule:evenodd;"
points="23313,34978
23313,35293
22998,35293
22998,34978
23313,34978
" /> 
<polyline style="fill-rule:evenodd;"
points="23628,34978
23628,35293
23313,35293
23313,34978
23628,34978
" /> 
<polyline style="fill-rule:evenodd;"
points="25518,34978
25518,35293
25203,35293
25203,34978
25518,34978
" /> 
<polyline style="fill-rule:evenodd;"
points="25832,34978
25832,35293
25518,35293
25518,34978
25832,34978
" /> 
<polyline style="fill-rule:evenodd;"
points="26462,34978
26462,35293
26147,35293
26147,34978
26462,34978
" /> 
<polyline style="fill-rule:evenodd;"
points="27722,34978
27722,35293
27407,35293
27407,34978
27722,34978
" /> 
<polyline style="fill-rule:evenodd;"
points="28037,34978
28037,35293
27722,35293
27722,34978
28037,34978
" /> 
<polyline style="fill-rule:evenodd;"
points="28352,34978
28352,35293
28037,35293
28037,34978
28352,34978
" /> 
<polyline style="fill-rule:evenodd;"
points="18903,34663
18903,34978
18588,34978
18588,34663
18903,34663
" /> 
<polyline style="fill-rule:evenodd;"
points="19218,34663
19218,34978
18903,34978
18903,34663
19218,34663
" /> 
<polyline style="fill-rule:evenodd;"
points="19533,34663
19533,34978
19218,34978
19218,34663
19533,34663
" /> 
<polyline style="fill-rule:evenodd;"
points="19848,34663
19848,34978
19533,34978
19533,34663
19848,34663
" /> 
<polyline style="fill-rule:evenodd;"
points="20163,34663
20163,34978
19848,34978
19848,34663
20163,34663
" /> 
<polyline style="fill-rule:evenodd;"
points="20478,34663
20478,34978
20163,34978
20163,34663
20478,34663
" /> 
<polyline style="fill-rule:evenodd;"
points="20793,34663
20793,34978
20478,34978
20478,34663
20793,34663
" /> 
<polyline style="fill-rule:evenodd;"
points="21738,34663
21738,34978
21423,34978
21423,34663
21738,34663
" /> 
<polyline style="fill-rule:evenodd;"
points="22368,34663
22368,34978
22053,34978
22053,34663
22368,34663
" /> 
<polyline style="fill-rule:evenodd;"
points="22683,34663
22683,34978
22368,34978
22368,34663
22683,34663
" /> 
<polyline style="fill-rule:evenodd;"
points="23628,34663
23628,34978
23313,34978
23313,34663
23628,34663
" /> 
<polyline style="fill-rule:evenodd;"
points="23943,34663
23943,34978
23628,34978
23628,34663
23943,34663
" /> 
<polyline style="fill-rule:evenodd;"
points="24573,34663
24573,34978
24258,34978
24258,34663
24573,34663
" /> 
<polyline style="fill-rule:evenodd;"
points="25203,34663
25203,34978
24888,34978
24888,34663
25203,34663
" /> 
<polyline style="fill-rule:evenodd;"
points="25518,34663
25518,34978
25203,34978
25203,34663
25518,34663
" /> 
<polyline style="fill-rule:evenodd;"
points="26462,34663
26462,34978
26147,34978
26147,34663
26462,34663
" /> 
<polyline style="fill-rule:evenodd;"
points="27092,34663
27092,34978
26777,34978
26777,34663
27092,34663
" /> 
<polyline style="fill-rule:evenodd;"
points="27722,34663
27722,34978
27407,34978
27407,34663
27722,34663
" /> 
<polyline style="fill-rule:evenodd;"
points="28667,34663
28667,34978
28352,34978
28352,34663
28667,34663
" /> 
<polyline style="fill-rule:evenodd;"
points="28982,34663
28982,34978
28667,34978
28667,34663
28982,34663
" /> 
<polyline style="fill-rule:evenodd;"
points="18903,34348
18903,34663
18588,34663
18588,34348
18903,34348
" /> 
<polyline style="fill-rule:evenodd;"
points="20793,34348
20793,34663
20478,34663
20478,34348
20793,34348
" /> 
<polyline style="fill-rule:evenodd;"
points="21423,34348
21423,34663
21108,34663
21108,34348
21423,34348
" /> 
<polyline style="fill-rule:evenodd;"
points="22368,34348
22368,34663
22053,34663
22053,34348
22368,34348
" /> 
<polyline style="fill-rule:evenodd;"
points="22683,34348
22683,34663
22368,34663
22368,34348
22683,34348
" /> 
<polyline style="fill-rule:evenodd;"
points="22998,34348
22998,34663
22683,34663
22683,34348
22998,34348
" /> 
<polyline style="fill-rule:evenodd;"
points="23313,34348
23313,34663
22998,34663
22998,34348
23313,34348
" /> 
<polyline style="fill-rule:evenodd;"
points="23628,34348
23628,34663
23313,34663
23313,34348
23628,34348
" /> 
<polyline style="fill-rule:evenodd;"
points="25518,34348
25518,34663
25203,34663
25203,34348
25518,34348
" /> 
<polyline style="fill-rule:evenodd;"
points="25832,34348
25832,34663
25518,34663
25518,34348
25832,34348
" /> 
<polyline style="fill-rule:evenodd;"
points="26462,34348
26462,34663
26147,34663
26147,34348
26462,34348
" /> 
<polyline style="fill-rule:evenodd;"
points="27722,34348
27722,34663
27407,34663
27407,34348
27722,34348
" /> 
<polyline style="fill-rule:evenodd;"
points="28352,34348
28352,34663
28037,34663
28037,34348
28352,34348
" /> 
<polyline style="fill-rule:evenodd;"
points="28982,34348
28982,34663
28667,34663
28667,34348
28982,34348
" /> 
<polyline style="fill-rule:evenodd;"
points="18903,34033
18903,34348
18588,34348
18588,34033
18903,34033
" /> 
<polyline style="fill-rule:evenodd;"
points="19533,34033
19533,34348
19218,34348
19218,34033
19533,34033
" /> 
<polyline style="fill-rule:evenodd;"
points="19848,34033
19848,34348
19533,34348
19533,34033
19848,34033
" /> 
<polyline style="fill-rule:evenodd;"
points="20163,34033
20163,34348
19848,34348
19848,34033
20163,34033
" /> 
<polyline style="fill-rule:evenodd;"
points="20793,34033
20793,34348
20478,34348
20478,34033
20793,34033
" /> 
<polyline style="fill-rule:evenodd;"
points="21423,34033
21423,34348
21108,34348
21108,34033
21423,34033
" /> 
<polyline style="fill-rule:evenodd;"
points="21738,34033
21738,34348
21423,34348
21423,34033
21738,34033
" /> 
<polyline style="fill-rule:evenodd;"
points="22368,34033
22368,34348
22053,34348
22053,34033
22368,34033
" /> 
<polyline style="fill-rule:evenodd;"
points="22998,34033
22998,34348
22683,34348
22683,34033
22998,34033
" /> 
<polyline style="fill-rule:evenodd;"
points="23313,34033
23313,34348
22998,34348
22998,34033
23313,34033
" /> 
<polyline style="fill-rule:evenodd;"
points="23628,34033
23628,34348
23313,34348
23313,34033
23628,34033
" /> 
<polyline style="fill-rule:evenodd;"
points="24573,34033
24573,34348
24258,34348
24258,34033
24573,34033
" /> 
<polyline style="fill-rule:evenodd;"
points="25518,34033
25518,34348
25203,34348
25203,34033
25518,34033
" /> 
<polyline style="fill-rule:evenodd;"
points="26462,34033
26462,34348
26147,34348
26147,34033
26462,34033
" /> 
<polyline style="fill-rule:evenodd;"
points="26777,34033
26777,34348
26462,34348
26462,34033
26777,34033
" /> 
<polyline style="fill-rule:evenodd;"
points="27092,34033
27092,34348
26777,34348
26777,34033
27092,34033
" /> 
<polyline style="fill-rule:evenodd;"
points="27407,34033
27407,34348
27092,34348
27092,34033
27407,34033
" /> 
<polyline style="fill-rule:evenodd;"
points="27722,34033
27722,34348
27407,34348
27407,34033
27722,34033
" /> 
<polyline style="fill-rule:evenodd;"
points="28037,34033
28037,34348
27722,34348
27722,34033
28037,34033
" /> 
<polyline style="fill-rule:evenodd;"
points="28667,34033
28667,34348
28352,34348
28352,34033
28667,34033
" /> 
<polyline style="fill-rule:evenodd;"
points="28982,34033
28982,34348
28667,34348
28667,34033
28982,34033
" /> 
<polyline style="fill-rule:evenodd;"
points="18903,33718
18903,34033
18588,34033
18588,33718
18903,33718
" /> 
<polyline style="fill-rule:evenodd;"
points="19533,33718
19533,34033
19218,34033
19218,33718
19533,33718
" /> 
<polyline style="fill-rule:evenodd;"
points="19848,33718
19848,34033
19533,34033
19533,33718
19848,33718
" /> 
<polyline style="fill-rule:evenodd;"
points="20163,33718
20163,34033
19848,34033
19848,33718
20163,33718
" /> 
<polyline style="fill-rule:evenodd;"
points="20793,33718
20793,34033
20478,34033
20478,33718
20793,33718
" /> 
<polyline style="fill-rule:evenodd;"
points="21423,33718
21423,34033
21108,34033
21108,33718
21423,33718
" /> 
<polyline style="fill-rule:evenodd;"
points="21738,33718
21738,34033
21423,34033
21423,33718
21738,33718
" /> 
<polyline style="fill-rule:evenodd;"
points="22368,33718
22368,34033
22053,34033
22053,33718
22368,33718
" /> 
<polyline style="fill-rule:evenodd;"
points="23313,33718
23313,34033
22998,34033
22998,33718
23313,33718
" /> 
<polyline style="fill-rule:evenodd;"
points="23628,33718
23628,34033
23313,34033
23313,33718
23628,33718
" /> 
<polyline style="fill-rule:evenodd;"
points="23943,33718
23943,34033
23628,34033
23628,33718
23943,33718
" /> 
<polyline style="fill-rule:evenodd;"
points="24258,33718
24258,34033
23943,34033
23943,33718
24258,33718
" /> 
<polyline style="fill-rule:evenodd;"
points="25203,33718
25203,34033
24888,34033
24888,33718
25203,33718
" /> 
<polyline style="fill-rule:evenodd;"
points="25832,33718
25832,34033
25518,34033
25518,33718
25832,33718
" /> 
<polyline style="fill-rule:evenodd;"
points="26462,33718
26462,34033
26147,34033
26147,33718
26462,33718
" /> 
<polyline style="fill-rule:evenodd;"
points="26777,33718
26777,34033
26462,34033
26462,33718
26777,33718
" /> 
<polyline style="fill-rule:evenodd;"
points="27722,33718
27722,34033
27407,34033
27407,33718
27722,33718
" /> 
<polyline style="fill-rule:evenodd;"
points="28352,33718
28352,34033
28037,34033
28037,33718
28352,33718
" /> 
<polyline style="fill-rule:evenodd;"
points="18903,33403
18903,33718
18588,33718
18588,33403
18903,33403
" /> 
<polyline style="fill-rule:evenodd;"
points="19533,33403
19533,33718
19218,33718
19218,33403
19533,33403
" /> 
<polyline style="fill-rule:evenodd;"
points="19848,33403
19848,33718
19533,33718
19533,33403
19848,33403
" /> 
<polyline style="fill-rule:evenodd;"
points="20163,33403
20163,33718
19848,33718
19848,33403
20163,33403
" /> 
<polyline style="fill-rule:evenodd;"
points="20793,33403
20793,33718
20478,33718
20478,33403
20793,33403
" /> 
<polyline style="fill-rule:evenodd;"
points="21423,33403
21423,33718
21108,33718
21108,33403
21423,33403
" /> 
<polyline style="fill-rule:evenodd;"
points="24258,33403
24258,33718
23943,33718
23943,33403
24258,33403
" /> 
<polyline style="fill-rule:evenodd;"
points="24888,33403
24888,33718
24573,33718
24573,33403
24888,33403
" /> 
<polyline style="fill-rule:evenodd;"
points="25832,33403
25832,33718
25518,33718
25518,33403
25832,33403
" /> 
<polyline style="fill-rule:evenodd;"
points="26147,33403
26147,33718
25832,33718
25832,33403
26147,33403
" /> 
<polyline style="fill-rule:evenodd;"
points="26462,33403
26462,33718
26147,33718
26147,33403
26462,33403
" /> 
<polyline style="fill-rule:evenodd;"
points="27092,33403
27092,33718
26777,33718
26777,33403
27092,33403
" /> 
<polyline style="fill-rule:evenodd;"
points="27407,33403
27407,33718
27092,33718
27092,33403
27407,33403
" /> 
<polyline style="fill-rule:evenodd;"
points="28037,33403
28037,33718
27722,33718
27722,33403
28037,33403
" /> 
<polyline style="fill-rule:evenodd;"
points="28352,33403
28352,33718
28037,33718
28037,33403
28352,33403
" /> 
<polyline style="fill-rule:evenodd;"
points="18903,33088
18903,33403
18588,33403
18588,33088
18903,33088
" /> 
<polyline style="fill-rule:evenodd;"
points="20793,33088
20793,33403
20478,33403
20478,33088
20793,33088
" /> 
<polyline style="fill-rule:evenodd;"
points="22368,33088
22368,33403
22053,33403
22053,33088
22368,33088
" /> 
<polyline style="fill-rule:evenodd;"
points="22683,33088
22683,33403
22368,33403
22368,33088
22683,33088
" /> 
<polyline style="fill-rule:evenodd;"
points="22998,33088
22998,33403
22683,33403
22683,33088
22998,33088
" /> 
<polyline style="fill-rule:evenodd;"
points="23943,33088
23943,33403
23628,33403
23628,33088
23943,33088
" /> 
<polyline style="fill-rule:evenodd;"
points="24258,33088
24258,33403
23943,33403
23943,33088
24258,33088
" /> 
<polyline style="fill-rule:evenodd;"
points="24573,33088
24573,33403
24258,33403
24258,33088
24573,33088
" /> 
<polyline style="fill-rule:evenodd;"
points="24888,33088
24888,33403
24573,33403
24573,33088
24888,33088
" /> 
<polyline style="fill-rule:evenodd;"
points="25203,33088
25203,33403
24888,33403
24888,33088
25203,33088
" /> 
<polyline style="fill-rule:evenodd;"
points="26462,33088
26462,33403
26147,33403
26147,33088
26462,33088
" /> 
<polyline style="fill-rule:evenodd;"
points="26777,33088
26777,33403
26462,33403
26462,33088
26777,33088
" /> 
<polyline style="fill-rule:evenodd;"
points="27092,33088
27092,33403
26777,33403
26777,33088
27092,33088
" /> 
<polyline style="fill-rule:evenodd;"
points="27407,33088
27407,33403
27092,33403
27092,33088
27407,33088
" /> 
<polyline style="fill-rule:evenodd;"
points="27722,33088
27722,33403
27407,33403
27407,33088
27722,33088
" /> 
<polyline style="fill-rule:evenodd;"
points="28352,33088
28352,33403
28037,33403
28037,33088
28352,33088
" /> 
<polyline style="fill-rule:evenodd;"
points="18903,32773
18903,33088
18588,33088
18588,32773
18903,32773
" /> 
<polyline style="fill-rule:evenodd;"
points="19218,32773
19218,33088
18903,33088
18903,32773
19218,32773
" /> 
<polyline style="fill-rule:evenodd;"
points="19533,32773
19533,33088
19218,33088
19218,32773
19533,32773
" /> 
<polyline style="fill-rule:evenodd;"
points="19848,32773
19848,33088
19533,33088
19533,32773
19848,32773
" /> 
<polyline style="fill-rule:evenodd;"
points="20163,32773
20163,33088
19848,33088
19848,32773
20163,32773
" /> 
<polyline style="fill-rule:evenodd;"
points="20478,32773
20478,33088
20163,33088
20163,32773
20478,32773
" /> 
<polyline style="fill-rule:evenodd;"
points="20793,32773
20793,33088
20478,33088
20478,32773
20793,32773
" /> 
<polyline style="fill-rule:evenodd;"
points="21423,32773
21423,33088
21108,33088
21108,32773
21423,32773
" /> 
<polyline style="fill-rule:evenodd;"
points="21738,32773
21738,33088
21423,33088
21423,32773
21738,32773
" /> 
<polyline style="fill-rule:evenodd;"
points="24888,32773
24888,33088
24573,33088
24573,32773
24888,32773
" /> 
<polyline style="fill-rule:evenodd;"
points="25518,32773
25518,33088
25203,33088
25203,32773
25518,32773
" /> 
<polyline style="fill-rule:evenodd;"
points="25832,32773
25832,33088
25518,33088
25518,32773
25832,32773
" /> 
<polyline style="fill-rule:evenodd;"
points="26147,32773
26147,33088
25832,33088
25832,32773
26147,32773
" /> 
<polyline style="fill-rule:evenodd;"
points="27092,32773
27092,33088
26777,33088
26777,32773
27092,32773
" /> 
<polyline style="fill-rule:evenodd;"
points="27407,32773
27407,33088
27092,33088
27092,32773
27407,32773
" /> 
<polyline style="fill-rule:evenodd;"
points="28037,32773
28037,33088
27722,33088
27722,32773
28037,32773
" /> 
<polyline style="fill-rule:evenodd;"
points="28352,32773
28352,33088
28037,33088
28037,32773
28352,32773
" /> 
<polyline style="fill-rule:evenodd;"
points="28667,32773
28667,33088
28352,33088
28352,32773
28667,32773
" /> 
</g>
<g style="fill:#000000; fill-opacity:1.0; 
stroke:#000000; stroke-width:94.4882; stroke-opacity:1; 
stroke-linecap:round; stroke-linejoin:round;">
</g>
<g style="fill:#000000; fill-opacity:0.0; 
stroke:#000000; stroke-width:94.4882; stroke-opacity:1; 
stroke-linecap:round; stroke-linejoin:round;">
<path d="M53975 20674
L57912 20674
" />
<path d="M58345.3 21107.7 A433.071 433.071 0.0 0 0 57912.2 20674.6 " />
<path d="M53975.2 20674.6 A433.071 433.071 0.0 0 0 53542.2 21107.7 " />
<path d="M58345 21107
L58345 23036
" />
<path d="M53542 23036
L53542 21107
" />
<path d="M53153.6 23591.8 A590.551 590.551 0.0 0 0 53542.2 23036.9 " />
<path d="M58345.3 23036.9 A590.551 590.551 0.0 0 0 58733.9 23591.8 " />
<path d="M53172.1 23588 A11023.4 11023.4 0.0 0 0 55955.7 45280.7 " />
<path d="M55931.7 45280.7 A11023.4 11023.4 0.0 0 0 58715.4 23588 " />
<path d="M69488 29440
L68932 28883
" />
<path d="M69878 27937
L70435 28493
" />
<path d="M71818 29897
L72375 30453
" />
<path d="M71428 31400
L70872 30843
" />
</g>
<g style="fill:#000000; fill-opacity:0.0; 
stroke:#000000; stroke-width:118.11; stroke-opacity:1; 
stroke-linecap:round; stroke-linejoin:round;">
<path d="M27533 44355
L27628 44403
L27819 44403
L27914 44355
L27961 44260
L27961 43879
L27914 43784
L27819 43736
L27628 43736
L27533 43784
L27485 43879
L27485 43974
L27961 44069
" />
<path d="M26628 43736
L26628 44403
" />
<path d="M26866 43355
L27104 44069
L26485 44069
" />
<path d="M26057 44403
L25866 44403
L25771 44355
L25723 44307
L25628 44165
L25580 43974
L25580 43593
L25628 43498
L25676 43450
L25771 43403
L25961 43403
L26057 43450
L26104 43498
L26152 43593
L26152 43831
L26104 43927
L26057 43974
L25961 44022
L25771 44022
L25676 43974
L25628 43927
L25580 43831
" />
<path d="M24723 43403
L24914 43403
L25009 43450
L25057 43498
L25152 43641
L25200 43831
L25200 44212
L25152 44307
L25104 44355
L25009 44403
L24819 44403
L24723 44355
L24676 44307
L24628 44212
L24628 43974
L24676 43879
L24723 43831
L24819 43784
L25009 43784
L25104 43831
L25152 43879
L25200 43974
" />
<path d="M24247 43498
L24200 43450
L24104 43403
L23866 43403
L23771 43450
L23723 43498
L23676 43593
L23676 43688
L23723 43831
L24295 44403
L23676 44403
" />
<path d="M23200 44403
L23009 44403
L22914 44355
L22866 44307
L22771 44165
L22723 43974
L22723 43593
L22771 43498
L22819 43450
L22914 43403
L23104 43403
L23200 43450
L23247 43498
L23295 43593
L23295 43831
L23247 43927
L23200 43974
L23104 44022
L22914 44022
L22819 43974
L22771 43927
L22723 43831
" />
<path d="M22295 44403
L22295 43403
" />
<path d="M22295 43784
L22200 43736
L22009 43736
L21914 43784
L21866 43831
L21819 43927
L21819 44212
L21866 44307
L21914 44355
L22009 44403
L22200 44403
L22295 44355
" />
<path d="M21342 44403
L21152 44403
L21057 44355
L21009 44307
L20914 44165
L20866 43974
L20866 43593
L20914 43498
L20961 43450
L21057 43403
L21247 43403
L21342 43450
L21390 43498
L21438 43593
L21438 43831
L21390 43927
L21342 43974
L21247 44022
L21057 44022
L20961 43974
L20914 43927
L20866 43831
" />
<path d="M20247 43403
L20152 43403
L20057 43450
L20009 43498
L19961 43593
L19914 43784
L19914 44022
L19961 44212
L20009 44307
L20057 44355
L20152 44403
L20247 44403
L20342 44355
L20390 44307
L20438 44212
L20485 44022
L20485 43784
L20438 43593
L20390 43498
L20342 43450
L20247 43403
" />
<path d="M19057 44403
L19057 43403
" />
<path d="M19057 44355
L19152 44403
L19342 44403
L19438 44355
L19485 44307
L19533 44212
L19533 43927
L19485 43831
L19438 43784
L19342 43736
L19152 43736
L19057 43784
" />
<path d="M52344 20685
L52381 20798
L52419 20835
L52494 20873
L52606 20873
L52681 20835
L52719 20798
L52756 20723
L52756 20423
L51969 20423
L51969 20685
L52006 20760
L52044 20798
L52119 20835
L52194 20835
L52269 20798
L52306 20760
L52344 20685
L52344 20423
" />
<path d="M51969 21098
L51969 21548
" />
<path d="M52756 21323
L51969 21323
" />
<path d="M52044 21773
L52006 21810
L51969 21885
L51969 22073
L52006 22148
L52044 22185
L52119 22223
L52194 22223
L52306 22185
L52756 21735
L52756 22223
" />
<path d="M56028 24004
L56028 24904
" />
<path d="M56478 24454
L55578 24454
" />
<path d="M69007 30080
L69007 30133
L69060 30239
L69113 30292
L69219 30345
L69325 30345
L69405 30319
L69537 30239
L69617 30160
L69696 30027
L69723 29948
L69723 29842
L69670 29736
L69617 29683
L69511 29630
L69458 29630
" />
<path d="M69246 29417
L69246 29364
L69219 29285
L69087 29152
L69007 29126
L68954 29126
L68875 29152
L68822 29205
L68769 29311
L68769 29948
L68424 29603
" />
<path d="M67894 29073
L68212 29391
" />
<path d="M68053 29232
L68609 28675
L68583 28808
L68583 28914
L68609 28993
" />
<path d="M70947 32040
L70947 32093
L71000 32199
L71053 32252
L71159 32305
L71265 32305
L71345 32279
L71477 32199
L71557 32120
L71636 31987
L71663 31908
L71663 31802
L71610 31696
L71557 31643
L71451 31590
L71398 31590
" />
<path d="M71186 31377
L71186 31324
L71159 31245
L71027 31112
L70947 31086
L70894 31086
L70815 31112
L70762 31165
L70709 31271
L70709 31908
L70364 31563
" />
<path d="M70656 30847
L70656 30794
L70629 30715
L70496 30582
L70417 30556
L70364 30556
L70284 30582
L70231 30635
L70178 30741
L70178 31377
L69834 31033
" />
</g> 
</svg>
