<?xml version="1.0" standalone="no"?>
 <!DOCTYPE svg PUBLIC "-//W3C//DTD SVG 1.1//EN" 
 "http://www.w3.org/Graphics/SVG/1.1/DTD/svg11.dtd"> 
<svg xmlns="http://www.w3.org/2000/svg" version="1.1" 
    width="29.7002cm" height="21.0007cm" viewBox="0 0 116930 82680 ">
<title>SVG Picture created as ThermocoupleLogger-F_Paste.svg date 2019/03/14 17:05:17 </title>
  <desc>Picture generated by PCBNEW </desc>
<g style="fill:#000000; fill-opacity:1;stroke:#000000; stroke-opacity:1;
stroke-linecap:round; stroke-linejoin:round; "
 transform="translate(0 0) scale(1 1)">
</g>
<g style="fill:#000000; fill-opacity:0.0; 
stroke:#000000; stroke-width:-0.000787402; stroke-opacity:1; 
stroke-linecap:round; stroke-linejoin:round;">
</g>
<g style="fill:#000000; fill-opacity:0.0; 
stroke:#000000; stroke-width:157.48; stroke-opacity:1; 
stroke-linecap:round; stroke-linejoin:round;">
<path d="M30465 17956
L17748 17956
" />
<path d="M17748 63696
L96543 64088
" />
<path d="M96543 64090
L96543 59288
" />
<path d="M17743 59288
L17743 63688
" />
<path d="M83703 59248
L65463 59248
" />
<path d="M87433 59248
L96543 59264
" />
<path d="M87393 57248
L96483 57248
" />
<path d="M65463 57248
L83703 57248
" />
<path d="M61827 59258
L24467 59258
" />
<path d="M24473 57258
L61833 57258
" />
<path d="M20843 57268
L17743 57268
" />
<path d="M20813 59268
L17740 59287
" />
<path d="M20813.7 59268.8 A1000.2 1000.2 0.0 0 0 20836.3 57269.5 " />
<path d="M24483.7 57258.8 A1000 1000 0.0 0 0 24467.1 59258.7 " />
<path d="M61813.7 59258.8 A1000 1000 0.0 0 0 61835 57259 " />
<path d="M65463.7 57248.8 A1000.2 1000.2 0.0 1 0 65465.5 59248.8 " />
<path d="M83693.7 59248.8 A1000.2 1000.2 0.0 1 0 83713.7 57248.6 " />
<path d="M87384.5 57248.8 A1000.2 1000.2 0.0 0 0 87423.7 59248.8 " />
<path d="M91343.7 15888.8 A1000.8 1000.8 0.0 0 0 91383.7 17889.6 " />
<path d="M55123.7 17928.8 A1000.8 1000.8 0.0 1 0 55123.7 15928.8 " />
<path d="M17703 15908
L17703 15908
" />
<path d="M30463 15908
L17703 15908
" />
<path d="M34123 17928
L55123 17928
" />
<path d="M55103 15928
L34143 15928
" />
<path d="M30463.7 17948.8 A1020 1020 0.0 0 0 30463.7 15908.8 " />
<path d="M34143.7 15928.8 A1000.2 1000.2 0.0 1 0 34123.7 17929 " />
<path d="M87723 17918
L58893 17918
" />
<path d="M58743 15938
L87753 15938
" />
<path d="M58823.7 15928.8 A990.202 990.202 0.0 0 0 58863.7 17908.8 " />
<path d="M91394 17893
L96480 17901
" />
<path d="M96443 15888
L91343 15888
" />
<path d="M96443 10688
L96443 15888
" />
<path d="M87723.7 17928.8 A996 996 0.0 0 0 87731.8 15936.9 " />
<path d="M17703 10668
L96433 10673
" />
<path d="M17703 15908
L17703 10668
" />
<path d="M17743 57268
L17743 17958
" />
<path d="M96483 57248
L96483 17918
" />
</g>
<g style="fill:#000000; fill-opacity:0.0; 
stroke:#000000; stroke-width:0; stroke-opacity:1; 
stroke-linecap:round; stroke-linejoin:round;">
</g>
<g style="fill:#000000; fill-opacity:1.0; 
stroke:#000000; stroke-width:0; stroke-opacity:1; 
stroke-linecap:round; stroke-linejoin:round;">
<polyline style="fill-rule:evenodd;"
points="61687,27937
61687,28960
61136,28960
61136,27937
61687,27937
" /> 
<polyline style="fill-rule:evenodd;"
points="63183,27937
63183,28960
62632,28960
62632,27937
63183,27937
" /> 
<polyline style="fill-rule:evenodd;"
points="20391,26593
21336,26593
21336,27302
20391,27302
20391,26593
" /> 
<polyline style="fill-rule:evenodd;"
points="20391,23995
21336,23995
21336,24703
20391,24703
20391,23995
" /> 
<polyline style="fill-rule:evenodd;"
points="35803,21240
35803,19980
38165,19980
38165,21240
35803,21240
" /> 
<polyline style="fill-rule:evenodd;"
points="39268,21240
39268,19980
41630,19980
41630,21240
39268,21240
" /> 
<polyline style="fill-rule:evenodd;"
points="62258,31123
61628,31123
61628,30415
62258,30415
62258,31123
" /> 
<polyline style="fill-rule:evenodd;"
points="63006,32698
62376,32698
62376,31989
63006,31989
63006,32698
" /> 
<polyline style="fill-rule:evenodd;"
points="61510,32698
60880,32698
60880,31989
61510,31989
61510,32698
" /> 
<polyline style="fill-rule:evenodd;"
points="75824,24637
75156,25305
74153,24303
74822,23635
75824,24637
" /> 
<polyline style="fill-rule:evenodd;"
points="73597,22410
72929,23078
71926,22076
72595,21408
73597,22410
" /> 
<polyline style="fill-rule:evenodd;"
points="74933,21074
74265,21742
73263,20740
73931,20071
74933,21074
" /> 
<polyline style="fill-rule:evenodd;"
points="77160,23301
76492,23969
75490,22967
76158,22299
77160,23301
" /> 
<polyline style="fill-rule:evenodd;"
points="39268,25918
39268,24658
41630,24658
41630,25918
39268,25918
" /> 
<polyline style="fill-rule:evenodd;"
points="35803,25918
35803,24658
38165,24658
38165,25918
35803,25918
" /> 
<circle cx="27535.9" cy="12932.9" r="984.252" /> 
</g>
<g style="fill:#000000; fill-opacity:1.0; 
stroke:#000000; stroke-width:118.11; stroke-opacity:1; 
stroke-linecap:round; stroke-linejoin:round;">
</g>
<g style="fill:#000000; fill-opacity:1.0; 
stroke:#000000; stroke-width:0; stroke-opacity:1; 
stroke-linecap:round; stroke-linejoin:round;">
<circle cx="82654" cy="12932.9" r="984.252" /> 
</g>
<g style="fill:#000000; fill-opacity:1.0; 
stroke:#000000; stroke-width:118.11; stroke-opacity:1; 
stroke-linecap:round; stroke-linejoin:round;">
</g>
<g style="fill:#000000; fill-opacity:1.0; 
stroke:#000000; stroke-width:0; stroke-opacity:1; 
stroke-linecap:round; stroke-linejoin:round;">
<circle cx="27535.9" cy="60177" r="984.252" /> 
</g>
<g style="fill:#000000; fill-opacity:1.0; 
stroke:#000000; stroke-width:118.11; stroke-opacity:1; 
stroke-linecap:round; stroke-linejoin:round;">
</g>
<g style="fill:#000000; fill-opacity:1.0; 
stroke:#000000; stroke-width:0; stroke-opacity:1; 
stroke-linecap:round; stroke-linejoin:round;">
<circle cx="90528" cy="60177" r="984.252" /> 
</g>
<g style="fill:#000000; fill-opacity:1.0; 
stroke:#000000; stroke-width:118.11; stroke-opacity:1; 
stroke-linecap:round; stroke-linejoin:round;">
</g>
<g style="fill:#000000; fill-opacity:1.0; 
stroke:#000000; stroke-width:0; stroke-opacity:1; 
stroke-linecap:round; stroke-linejoin:round;">
<polyline style="fill-rule:evenodd;"
points="72844,31618
73150,31312
74041,32202
73735,32509
72844,31618
" /> 
<polyline style="fill-rule:evenodd;"
points="72399,32063
72705,31757
73596,32648
73289,32954
72399,32063
" /> 
<polyline style="fill-rule:evenodd;"
points="71953,32509
72259,32202
73150,33093
72844,33399
71953,32509
" /> 
<polyline style="fill-rule:evenodd;"
points="71508,32954
71814,32648
72705,33539
72399,33845
71508,32954
" /> 
<polyline style="fill-rule:evenodd;"
points="71062,33399
71369,33093
72259,33984
71953,34290
71062,33399
" /> 
<polyline style="fill-rule:evenodd;"
points="70617,33845
70923,33539
71814,34430
71508,34736
70617,33845
" /> 
<polyline style="fill-rule:evenodd;"
points="70171,34290
70478,33984
71369,34875
71062,35181
70171,34290
" /> 
<polyline style="fill-rule:evenodd;"
points="69726,34736
70032,34430
70923,35320
70617,35627
69726,34736
" /> 
<polyline style="fill-rule:evenodd;"
points="69002,34430
69308,34736
68418,35627
68111,35320
69002,34430
" /> 
<polyline style="fill-rule:evenodd;"
points="68557,33984
68863,34290
67972,35181
67666,34875
68557,33984
" /> 
<polyline style="fill-rule:evenodd;"
points="68111,33539
68418,33845
67527,34736
67221,34430
68111,33539
" /> 
<polyline style="fill-rule:evenodd;"
points="67666,33093
67972,33399
67081,34290
66775,33984
67666,33093
" /> 
<polyline style="fill-rule:evenodd;"
points="67221,32648
67527,32954
66636,33845
66330,33539
67221,32648
" /> 
<polyline style="fill-rule:evenodd;"
points="66775,32202
67081,32509
66190,33399
65884,33093
66775,32202
" /> 
<polyline style="fill-rule:evenodd;"
points="66330,31757
66636,32063
65745,32954
65439,32648
66330,31757
" /> 
<polyline style="fill-rule:evenodd;"
points="65884,31312
66190,31618
65300,32509
64993,32202
65884,31312
" /> 
<polyline style="fill-rule:evenodd;"
points="64993,30003
65300,29697
66190,30588
65884,30894
64993,30003
" /> 
<polyline style="fill-rule:evenodd;"
points="65439,29558
65745,29251
66636,30142
66330,30449
65439,29558
" /> 
<polyline style="fill-rule:evenodd;"
points="65884,29112
66190,28806
67081,29697
66775,30003
65884,29112
" /> 
<polyline style="fill-rule:evenodd;"
points="66330,28667
66636,28361
67527,29251
67221,29558
66330,28667
" /> 
<polyline style="fill-rule:evenodd;"
points="66775,28221
67081,27915
67972,28806
67666,29112
66775,28221
" /> 
<polyline style="fill-rule:evenodd;"
points="67221,27776
67527,27470
68418,28361
68111,28667
67221,27776
" /> 
<polyline style="fill-rule:evenodd;"
points="67666,27331
67972,27024
68863,27915
68557,28221
67666,27331
" /> 
<polyline style="fill-rule:evenodd;"
points="68111,26885
68418,26579
69308,27470
69002,27776
68111,26885
" /> 
<polyline style="fill-rule:evenodd;"
points="70617,26579
70923,26885
70032,27776
69726,27470
70617,26579
" /> 
<polyline style="fill-rule:evenodd;"
points="71062,27024
71369,27331
70478,28221
70171,27915
71062,27024
" /> 
<polyline style="fill-rule:evenodd;"
points="71508,27470
71814,27776
70923,28667
70617,28361
71508,27470
" /> 
<polyline style="fill-rule:evenodd;"
points="71953,27915
72259,28221
71369,29112
71062,28806
71953,27915
" /> 
<polyline style="fill-rule:evenodd;"
points="72399,28361
72705,28667
71814,29558
71508,29251
72399,28361
" /> 
<polyline style="fill-rule:evenodd;"
points="72844,28806
73150,29112
72259,30003
71953,29697
72844,28806
" /> 
<polyline style="fill-rule:evenodd;"
points="73289,29251
73596,29558
72705,30449
72399,30142
73289,29251
" /> 
<polyline style="fill-rule:evenodd;"
points="73735,29697
74041,30003
73150,30894
72844,30588
73735,29697
" /> 
<polyline style="fill-rule:evenodd;"
points="85405,31082
84146,31082
84146,30531
85405,30531
85405,31082
" /> 
<polyline style="fill-rule:evenodd;"
points="85405,30216
84146,30216
84146,29665
85405,29665
85405,30216
" /> 
<polyline style="fill-rule:evenodd;"
points="85405,29350
84146,29350
84146,28799
85405,28799
85405,29350
" /> 
<polyline style="fill-rule:evenodd;"
points="85405,31948
84146,31948
84146,31397
85405,31397
85405,31948
" /> 
<polyline style="fill-rule:evenodd;"
points="85405,32814
84146,32814
84146,32263
85405,32263
85405,32814
" /> 
<polyline style="fill-rule:evenodd;"
points="85405,33680
84146,33680
84146,33129
85405,33129
85405,33680
" /> 
<polyline style="fill-rule:evenodd;"
points="85405,35413
84146,35413
84146,34862
85405,34862
85405,35413
" /> 
<polyline style="fill-rule:evenodd;"
points="85405,34547
84146,34547
84146,33995
85405,33995
85405,34547
" /> 
<polyline style="fill-rule:evenodd;"
points="85405,36279
84146,36279
84146,35728
85405,35728
85405,36279
" /> 
<polyline style="fill-rule:evenodd;"
points="85720,37381
84618,37381
84618,36436
85720,36436
85720,37381
" /> 
<polyline style="fill-rule:evenodd;"
points="85720,26043
84618,26043
84618,24783
85720,24783
85720,26043
" /> 
<polyline style="fill-rule:evenodd;"
points="93594,37381
91862,37381
91862,36436
93594,36436
93594,37381
" /> 
<polyline style="fill-rule:evenodd;"
points="93594,25177
91862,25177
91862,24232
93594,24232
93594,25177
" /> 
<polyline style="fill-rule:evenodd;"
points="73044,24780
73740,25476
73184,26032
72488,25336
73044,24780
" /> 
<polyline style="fill-rule:evenodd;"
points="71931,25893
72627,26589
72070,27146
71374,26450
71931,25893
" /> 
<polyline style="fill-rule:evenodd;"
points="70791,24673
71487,25369
70930,25926
70234,25230
70791,24673
" /> 
<polyline style="fill-rule:evenodd;"
points="71904,23560
72600,24256
72044,24812
71348,24116
71904,23560
" /> 
<polyline style="fill-rule:evenodd;"
points="59307,33498
59779,33498
59779,34679
59307,34679
59307,33498
" /> 
<polyline style="fill-rule:evenodd;"
points="58307,33498
58779,33498
58779,34679
58307,34679
58307,33498
" /> 
<polyline style="fill-rule:evenodd;"
points="57307,33498
57779,33498
57779,34679
57307,34679
57307,33498
" /> 
<polyline style="fill-rule:evenodd;"
points="56307,33498
56779,33498
56779,34679
56307,34679
56307,33498
" /> 
<polyline style="fill-rule:evenodd;"
points="55307,33498
55779,33498
55779,34679
55307,34679
55307,33498
" /> 
<polyline style="fill-rule:evenodd;"
points="54307,33498
54779,33498
54779,34679
54307,34679
54307,33498
" /> 
<polyline style="fill-rule:evenodd;"
points="53307,33498
53779,33498
53779,34679
53307,34679
53307,33498
" /> 
<polyline style="fill-rule:evenodd;"
points="52307,33498
52779,33498
52779,34679
52307,34679
52307,33498
" /> 
<polyline style="fill-rule:evenodd;"
points="52307,26175
52779,26175
52779,27356
52307,27356
52307,26175
" /> 
<polyline style="fill-rule:evenodd;"
points="53307,26175
53779,26175
53779,27356
53307,27356
53307,26175
" /> 
<polyline style="fill-rule:evenodd;"
points="54307,26175
54779,26175
54779,27356
54307,27356
54307,26175
" /> 
<polyline style="fill-rule:evenodd;"
points="55307,26175
55779,26175
55779,27356
55307,27356
55307,26175
" /> 
<polyline style="fill-rule:evenodd;"
points="56307,26175
56779,26175
56779,27356
56307,27356
56307,26175
" /> 
<polyline style="fill-rule:evenodd;"
points="57307,26175
57779,26175
57779,27356
57307,27356
57307,26175
" /> 
<polyline style="fill-rule:evenodd;"
points="58307,26175
58779,26175
58779,27356
58307,27356
58307,26175
" /> 
<polyline style="fill-rule:evenodd;"
points="59307,26175
59779,26175
59779,27356
59307,27356
59307,26175
" /> 
<polyline style="fill-rule:evenodd;"
points="82935,32735
81951,32735
81951,31947
82935,31947
82935,32735
" /> 
<polyline style="fill-rule:evenodd;"
points="82935,34309
81951,34309
81951,33522
82935,33522
82935,34309
" /> 
<polyline style="fill-rule:evenodd;"
points="78935,34322
77951,34322
77951,33535
78935,33535
78935,34322
" /> 
<polyline style="fill-rule:evenodd;"
points="78935,32747
77951,32747
77951,31960
78935,31960
78935,32747
" /> 
<polyline style="fill-rule:evenodd;"
points="82955,35456
81931,35456
81931,34905
82955,34905
82955,35456
" /> 
<polyline style="fill-rule:evenodd;"
points="82955,36952
81931,36952
81931,36401
82955,36401
82955,36952
" /> 
<polyline style="fill-rule:evenodd;"
points="78955,36952
77931,36952
77931,36401
78955,36401
78955,36952
" /> 
<polyline style="fill-rule:evenodd;"
points="78955,35456
77931,35456
77931,34905
78955,34905
78955,35456
" /> 
<polyline style="fill-rule:evenodd;"
points="80955,36952
79931,36952
79931,36401
80955,36401
80955,36952
" /> 
<polyline style="fill-rule:evenodd;"
points="80955,35456
79931,35456
79931,34905
80955,34905
80955,35456
" /> 
<polyline style="fill-rule:evenodd;"
points="80935,32735
79951,32735
79951,31947
80935,31947
80935,32735
" /> 
<polyline style="fill-rule:evenodd;"
points="80935,34309
79951,34309
79951,33522
80935,33522
80935,34309
" /> 
<polyline style="fill-rule:evenodd;"
points="65055,50176
64031,50176
64031,49625
65055,49625
65055,50176
" /> 
<polyline style="fill-rule:evenodd;"
points="65055,51672
64031,51672
64031,51121
65055,51121
65055,51672
" /> 
<polyline style="fill-rule:evenodd;"
points="42815,51912
41791,51912
41791,51361
42815,51361
42815,51912
" /> 
<polyline style="fill-rule:evenodd;"
points="42815,50416
41791,50416
41791,49865
42815,49865
42815,50416
" /> 
<polyline style="fill-rule:evenodd;"
points="55019,44255
54468,44255
54468,42740
55019,42740
55019,44255
" /> 
<polyline style="fill-rule:evenodd;"
points="56019,44255
55468,44255
55468,42740
56019,42740
56019,44255
" /> 
<polyline style="fill-rule:evenodd;"
points="57019,44255
56468,44255
56468,42740
57019,42740
57019,44255
" /> 
<polyline style="fill-rule:evenodd;"
points="58019,44255
57468,44255
57468,42740
58019,42740
58019,44255
" /> 
<polyline style="fill-rule:evenodd;"
points="59019,44255
58468,44255
58468,42740
59019,42740
59019,44255
" /> 
<polyline style="fill-rule:evenodd;"
points="60019,44255
59468,44255
59468,42740
60019,42740
60019,44255
" /> 
<polyline style="fill-rule:evenodd;"
points="61019,44255
60468,44255
60468,42740
61019,42740
61019,44255
" /> 
<polyline style="fill-rule:evenodd;"
points="62692,44964
61176,44964
61176,44413
62692,44413
62692,44964
" /> 
<polyline style="fill-rule:evenodd;"
points="62692,45964
61176,45964
61176,45413
62692,45413
62692,45964
" /> 
<polyline style="fill-rule:evenodd;"
points="62692,46964
61176,46964
61176,46413
62692,46413
62692,46964
" /> 
<polyline style="fill-rule:evenodd;"
points="62692,47964
61176,47964
61176,47413
62692,47413
62692,47964
" /> 
<polyline style="fill-rule:evenodd;"
points="62692,48964
61176,48964
61176,48413
62692,48413
62692,48964
" /> 
<polyline style="fill-rule:evenodd;"
points="62692,49964
61176,49964
61176,49413
62692,49413
62692,49964
" /> 
<polyline style="fill-rule:evenodd;"
points="62692,50964
61176,50964
61176,50413
62692,50413
62692,50964
" /> 
<polyline style="fill-rule:evenodd;"
points="61019,52637
60468,52637
60468,51121
61019,51121
61019,52637
" /> 
<polyline style="fill-rule:evenodd;"
points="60019,52637
59468,52637
59468,51121
60019,51121
60019,52637
" /> 
<polyline style="fill-rule:evenodd;"
points="59019,52637
58468,52637
58468,51121
59019,51121
59019,52637
" /> 
<polyline style="fill-rule:evenodd;"
points="58019,52637
57468,52637
57468,51121
58019,51121
58019,52637
" /> 
<polyline style="fill-rule:evenodd;"
points="57019,52637
56468,52637
56468,51121
57019,51121
57019,52637
" /> 
<polyline style="fill-rule:evenodd;"
points="56019,52637
55468,52637
55468,51121
56019,51121
56019,52637
" /> 
<polyline style="fill-rule:evenodd;"
points="55019,52637
54468,52637
54468,51121
55019,51121
55019,52637
" /> 
<polyline style="fill-rule:evenodd;"
points="54310,44964
52794,44964
52794,44413
54310,44413
54310,44964
" /> 
<polyline style="fill-rule:evenodd;"
points="54310,45964
52794,45964
52794,45413
54310,45413
54310,45964
" /> 
<polyline style="fill-rule:evenodd;"
points="54310,46964
52794,46964
52794,46413
54310,46413
54310,46964
" /> 
<polyline style="fill-rule:evenodd;"
points="54310,50964
52794,50964
52794,50413
54310,50413
54310,50964
" /> 
<polyline style="fill-rule:evenodd;"
points="54310,49964
52794,49964
52794,49413
54310,49413
54310,49964
" /> 
<polyline style="fill-rule:evenodd;"
points="54310,48964
52794,48964
52794,48413
54310,48413
54310,48964
" /> 
<polyline style="fill-rule:evenodd;"
points="54310,47964
52794,47964
52794,47413
54310,47413
54310,47964
" /> 
<polyline style="fill-rule:evenodd;"
points="72255,45099
71231,45099
71231,44548
72255,44548
72255,45099
" /> 
<polyline style="fill-rule:evenodd;"
points="72255,43603
71231,43603
71231,43052
72255,43052
72255,43603
" /> 
<polyline style="fill-rule:evenodd;"
points="48950,21196
48950,22180
48162,22180
48162,21196
48950,21196
" /> 
<polyline style="fill-rule:evenodd;"
points="50524,21196
50524,22180
49737,22180
49737,21196
50524,21196
" /> 
<polyline style="fill-rule:evenodd;"
points="50524,19596
50524,20580
49737,20580
49737,19596
50524,19596
" /> 
<polyline style="fill-rule:evenodd;"
points="48950,19596
48950,20580
48162,20580
48162,19596
48950,19596
" /> 
<polyline style="fill-rule:evenodd;"
points="49737,23780
49737,22796
50524,22796
50524,23780
49737,23780
" /> 
<polyline style="fill-rule:evenodd;"
points="48162,23780
48162,22796
48950,22796
48950,23780
48162,23780
" /> 
<polyline style="fill-rule:evenodd;"
points="64051,47482
65035,47482
65035,48269
64051,48269
64051,47482
" /> 
<polyline style="fill-rule:evenodd;"
points="64051,45907
65035,45907
65035,46695
64051,46695
64051,45907
" /> 
<polyline style="fill-rule:evenodd;"
points="71251,47695
72235,47695
72235,48482
71251,48482
71251,47695
" /> 
<polyline style="fill-rule:evenodd;"
points="71251,46120
72235,46120
72235,46907
71251,46907
71251,46120
" /> 
<polyline style="fill-rule:evenodd;"
points="78451,47382
79435,47382
79435,48169
78451,48169
78451,47382
" /> 
<polyline style="fill-rule:evenodd;"
points="78451,45807
79435,45807
79435,46595
78451,46595
78451,45807
" /> 
<polyline style="fill-rule:evenodd;"
points="85651,45787
86635,45787
86635,46575
85651,46575
85651,45787
" /> 
<polyline style="fill-rule:evenodd;"
points="85651,47362
86635,47362
86635,48149
85651,48149
85651,47362
" /> 
<polyline style="fill-rule:evenodd;"
points="27461,46107
28445,46107
28445,46895
27461,46895
27461,46107
" /> 
<polyline style="fill-rule:evenodd;"
points="27461,47682
28445,47682
28445,48469
27461,48469
27461,47682
" /> 
<polyline style="fill-rule:evenodd;"
points="34611,46107
35595,46107
35595,46895
34611,46895
34611,46107
" /> 
<polyline style="fill-rule:evenodd;"
points="34611,47682
35595,47682
35595,48469
34611,48469
34611,47682
" /> 
<polyline style="fill-rule:evenodd;"
points="41861,47704
42845,47704
42845,48491
41861,48491
41861,47704
" /> 
<polyline style="fill-rule:evenodd;"
points="41861,46129
42845,46129
42845,46916
41861,46916
41861,46129
" /> 
<polyline style="fill-rule:evenodd;"
points="48751,46407
49735,46407
49735,47195
48751,47195
48751,46407
" /> 
<polyline style="fill-rule:evenodd;"
points="48751,47982
49735,47982
49735,48769
48751,48769
48751,47982
" /> 
<polyline style="fill-rule:evenodd;"
points="65055,45112
64031,45112
64031,44561
65055,44561
65055,45112
" /> 
<polyline style="fill-rule:evenodd;"
points="65055,43616
64031,43616
64031,43065
65055,43065
65055,43616
" /> 
<polyline style="fill-rule:evenodd;"
points="72255,50364
71231,50364
71231,49813
72255,49813
72255,50364
" /> 
<polyline style="fill-rule:evenodd;"
points="72255,51860
71231,51860
71231,51309
72255,51309
72255,51860
" /> 
<polyline style="fill-rule:evenodd;"
points="79455,43216
78431,43216
78431,42665
79455,42665
79455,43216
" /> 
<polyline style="fill-rule:evenodd;"
points="79455,44712
78431,44712
78431,44161
79455,44161
79455,44712
" /> 
<polyline style="fill-rule:evenodd;"
points="79455,51512
78431,51512
78431,50961
79455,50961
79455,51512
" /> 
<polyline style="fill-rule:evenodd;"
points="79455,50016
78431,50016
78431,49465
79455,49465
79455,50016
" /> 
<polyline style="fill-rule:evenodd;"
points="86655,43268
85631,43268
85631,42717
86655,42717
86655,43268
" /> 
<polyline style="fill-rule:evenodd;"
points="86655,44764
85631,44764
85631,44213
86655,44213
86655,44764
" /> 
<polyline style="fill-rule:evenodd;"
points="86655,51512
85631,51512
85631,50961
86655,50961
86655,51512
" /> 
<polyline style="fill-rule:evenodd;"
points="86655,50016
85631,50016
85631,49465
86655,49465
86655,50016
" /> 
<polyline style="fill-rule:evenodd;"
points="28465,43616
27441,43616
27441,43065
28465,43065
28465,43616
" /> 
<polyline style="fill-rule:evenodd;"
points="28465,45112
27441,45112
27441,44561
28465,44561
28465,45112
" /> 
<polyline style="fill-rule:evenodd;"
points="28415,51912
27391,51912
27391,51361
28415,51361
28415,51912
" /> 
<polyline style="fill-rule:evenodd;"
points="28415,50416
27391,50416
27391,49865
28415,49865
28415,50416
" /> 
<polyline style="fill-rule:evenodd;"
points="35615,45112
34591,45112
34591,44561
35615,44561
35615,45112
" /> 
<polyline style="fill-rule:evenodd;"
points="35615,43616
34591,43616
34591,43065
35615,43065
35615,43616
" /> 
<polyline style="fill-rule:evenodd;"
points="35615,50416
34591,50416
34591,49865
35615,49865
35615,50416
" /> 
<polyline style="fill-rule:evenodd;"
points="35615,51912
34591,51912
34591,51361
35615,51361
35615,51912
" /> 
<polyline style="fill-rule:evenodd;"
points="42815,43616
41791,43616
41791,43065
42815,43065
42815,43616
" /> 
<polyline style="fill-rule:evenodd;"
points="42815,45112
41791,45112
41791,44561
42815,44561
42815,45112
" /> 
<polyline style="fill-rule:evenodd;"
points="50415,45112
49391,45112
49391,44561
50415,44561
50415,45112
" /> 
<polyline style="fill-rule:evenodd;"
points="50415,43616
49391,43616
49391,43065
50415,43065
50415,43616
" /> 
<polyline style="fill-rule:evenodd;"
points="50415,50416
49391,50416
49391,49865
50415,49865
50415,50416
" /> 
<polyline style="fill-rule:evenodd;"
points="50415,51912
49391,51912
49391,51361
50415,51361
50415,51912
" /> 
<polyline style="fill-rule:evenodd;"
points="18571,26069
19595,26069
19595,26620
18571,26620
18571,26069
" /> 
<polyline style="fill-rule:evenodd;"
points="18571,24573
19595,24573
19595,25124
18571,25124
18571,24573
" /> 
<polyline style="fill-rule:evenodd;"
points="30489,29331
31513,29331
31513,29882
30489,29882
30489,29331
" /> 
<polyline style="fill-rule:evenodd;"
points="30489,27835
31513,27835
31513,28386
30489,28386
30489,27835
" /> 
<polyline style="fill-rule:evenodd;"
points="63167,35177
63167,36200
62616,36200
62616,35177
63167,35177
" /> 
<polyline style="fill-rule:evenodd;"
points="61671,35177
61671,36200
61120,36200
61120,35177
61671,35177
" /> 
<polyline style="fill-rule:evenodd;"
points="74915,28784
75639,28060
76029,28450
75305,29174
74915,28784
" /> 
<polyline style="fill-rule:evenodd;"
points="73858,27726
74581,27003
74971,27392
74247,28116
73858,27726
" /> 
<polyline style="fill-rule:evenodd;"
points="63959,37585
63959,37112
65179,37112
65179,37585
63959,37585
" /> 
<polyline style="fill-rule:evenodd;"
points="63959,38585
63959,38112
65179,38112
65179,38585
63959,38585
" /> 
<polyline style="fill-rule:evenodd;"
points="63959,39585
63959,39112
65179,39112
65179,39585
63959,39585
" /> 
<polyline style="fill-rule:evenodd;"
points="63959,40585
63959,40112
65179,40112
65179,40585
63959,40585
" /> 
<polyline style="fill-rule:evenodd;"
points="59707,40585
59707,40112
60927,40112
60927,40585
59707,40585
" /> 
<polyline style="fill-rule:evenodd;"
points="59707,39585
59707,39112
60927,39112
60927,39585
59707,39585
" /> 
<polyline style="fill-rule:evenodd;"
points="59707,38585
59707,38112
60927,38112
60927,38585
59707,38585
" /> 
<polyline style="fill-rule:evenodd;"
points="59707,37585
59707,37112
60927,37112
60927,37585
59707,37585
" /> 
<polyline style="fill-rule:evenodd;"
points="51795,47195
50811,47195
50811,46407
51795,46407
51795,47195
" /> 
<polyline style="fill-rule:evenodd;"
points="51795,48769
50811,48769
50811,47982
51795,47982
51795,48769
" /> 
<polyline style="fill-rule:evenodd;"
points="47027,23588
44861,23588
44861,21186
47027,21186
47027,23588
" /> 
<polyline style="fill-rule:evenodd;"
points="44625,20950
42460,20950
42460,18549
44625,18549
44625,20950
" /> 
<polyline style="fill-rule:evenodd;"
points="44625,23588
42460,23588
42460,21186
44625,21186
44625,23588
" /> 
<polyline style="fill-rule:evenodd;"
points="47027,20950
44861,20950
44861,18549
47027,18549
47027,20950
" /> 
<polyline style="fill-rule:evenodd;"
points="47011,26895
46066,26895
46066,25163
47011,25163
47011,26895
" /> 
<polyline style="fill-rule:evenodd;"
points="43420,26895
42476,26895
42476,25163
43420,25163
43420,26895
" /> 
<polyline style="fill-rule:evenodd;"
points="49028,26321
49658,26321
49658,27030
49028,27030
49028,26321
" /> 
<polyline style="fill-rule:evenodd;"
points="48280,24747
48910,24747
48910,25455
48280,25455
48280,24747
" /> 
<polyline style="fill-rule:evenodd;"
points="49776,24747
50406,24747
50406,25455
49776,25455
49776,24747
" /> 
<polyline style="fill-rule:evenodd;"
points="61671,26177
61671,27200
61120,27200
61120,26177
61671,26177
" /> 
<polyline style="fill-rule:evenodd;"
points="63167,26177
63167,27200
62616,27200
62616,26177
63167,26177
" /> 
<polyline style="fill-rule:evenodd;"
points="22251,23995
23196,23995
23196,24703
22251,24703
22251,23995
" /> 
<polyline style="fill-rule:evenodd;"
points="22251,26593
23196,26593
23196,27302
22251,27302
22251,26593
" /> 
<polyline style="fill-rule:evenodd;"
points="66474,35815
67170,35119
67726,35675
67030,36371
66474,35815
" /> 
<polyline style="fill-rule:evenodd;"
points="65360,34701
66056,34005
66613,34562
65917,35258
65360,34701
" /> 
<polyline style="fill-rule:evenodd;"
points="81907,29497
81907,30520
81356,30520
81356,29497
81907,29497
" /> 
<polyline style="fill-rule:evenodd;"
points="80411,29497
80411,30520
79860,30520
79860,29497
80411,29497
" /> 
<polyline style="fill-rule:evenodd;"
points="86031,23161
87055,23161
87055,23712
86031,23712
86031,23161
" /> 
<polyline style="fill-rule:evenodd;"
points="86031,21665
87055,21665
87055,22216
86031,22216
86031,21665
" /> 
</g> 
</svg>
