<?xml version="1.0" standalone="no"?>
 <!DOCTYPE svg PUBLIC "-//W3C//DTD SVG 1.1//EN" 
 "http://www.w3.org/Graphics/SVG/1.1/DTD/svg11.dtd"> 
<svg xmlns="http://www.w3.org/2000/svg" version="1.1" 
    width="29.7002cm" height="21.0007cm" viewBox="0 0 116930 82680 ">
<title>SVG Picture created as ThermocoupleLogger-B_Fab.svg date 2019/04/07 21:39:21 </title>
  <desc>Picture generated by PCBNEW </desc>
<g style="fill:#000000; fill-opacity:1;stroke:#000000; stroke-opacity:1;
stroke-linecap:round; stroke-linejoin:round; "
 transform="translate(0 0) scale(1 1)">
</g>
<g style="fill:#000000; fill-opacity:0.0; 
stroke:#000000; stroke-width:-0.000393701; stroke-opacity:1; 
stroke-linecap:round; stroke-linejoin:round;">
</g>
<g style="fill:#000000; fill-opacity:0.0; 
stroke:#000000; stroke-width:39.3701; stroke-opacity:1; 
stroke-linecap:round; stroke-linejoin:round;">
<path d="M35000 0
L35000 30250
" />
<path d="M0 28059
L0 28059
" />
<path d="M0 0
L35000 0
" />
<path d="M0 30250
L35000 30250
" />
<path d="M0 0
L0 30250
" />
<path d="M0 500
L0 500
" />
<path d="M2461.02 21758.3 A354.331 354.331 0.0 0 0 2793.99 21525.1 " />
<path d="M11555.6 22929.7 A4488.4 4488.4 0.0 0 0 2795.67 21522 " />
<path d="M2795.67 24278 A4488.4 4488.4 0.0 0 0 11555.6 22870.3 " />
<path d="M11004.3 23411.8 A3970.14 3970.14 0.0 0 0 3130.31 22388.2 " />
<path d="M9560.06 22980.2 A2494.03 2494.03 0.0 0 0 4626.38 22388.2 " />
<path d="M7971.04 22969.2 A906.367 906.367 0.0 0 0 6319.29 22388.2 " />
<path d="M10363 19860
L10003 20190
" />
<path d="M10363 25940
L9993 25600
" />
<path d="M6319.29 23411.8 A906.367 906.367 0.0 0 0 7971.04 22830.8 " />
<path d="M4626.38 23411.8 A2494.03 2494.03 0.0 0 0 9560.06 22819.8 " />
<path d="M3130.31 23411.8 A3970.14 3970.14 0.0 0 0 11004.3 22388.2 " />
<path d="M2473 24041
L413 24041
" />
<path d="M413 21758
L2473 21758
" />
<path d="M256 23884
L256 21915
" />
<path d="M1083 22388
L7461 22388
" />
<path d="M7461 23411
L1083 23411
" />
<path d="M2793.99 24274.9 A354.331 354.331 0.0 0 0 2461.02 24041.7 " />
<path d="M7461.02 23411.8 A511.811 511.811 0.0 0 0 7461.02 22388.2 " />
<path d="M1083 23411
L1083 22388
" />
<path d="M413.78 21758.3 A157.48 157.48 0.0 0 0 256.299 21915.7 " />
<path d="M256.299 23884.3 A157.48 157.48 0.0 0 0 413.78 24041.7 " />
<g >
</g>
<g >
</g>
<g >
</g>
<g >
</g>
<g >
</g>
<g >
</g>
<g >
</g>
<g >
</g>
<g >
</g>
<g >
</g>
<g >
</g>
<g >
</g>
<g >
</g>
<g >
</g>
<g >
</g>
<g >
</g>
<g >
</g>
<g >
</g>
<g >
</g>
<g >
</g>
<g >
</g>
<g >
</g>
<g >
</g>
<g >
</g>
<g >
</g>
<g >
</g>
<g >
</g>
<g >
</g>
<g >
</g>
<g >
</g>
<g >
</g>
<g >
</g>
<g >
</g>
<g >
</g>
<g >
</g>
<g >
</g>
<g >
</g>
<g >
</g>
<g >
</g>
<g >
</g>
<g >
</g>
<g >
</g>
<g >
</g>
<g >
</g>
<g >
</g>
<g >
</g>
<g >
</g>
<g >
</g>
<g >
</g>
<g >
</g>
<g >
</g>
<g >
</g>
<g >
</g>
<g >
</g>
<g >
</g>
<g >
</g>
<g >
</g>
<g >
</g>
<g >
</g>
<g >
</g>
<g >
</g>
<g >
</g>
<g >
</g>
<g >
</g>
<g >
</g>
<g >
</g>
<g >
</g>
<g >
</g>
<g >
</g>
<g >
</g>
<g >
</g>
<g >
</g>
<g >
</g>
</g>
<g style="fill:#000000; fill-opacity:0.0; 
stroke:#000000; stroke-width:59.0551; stroke-opacity:1; 
stroke-linecap:round; stroke-linejoin:round;">
<path d="M7804 17753
L7747 17772
L7729 17791
L7710 17828
L7710 17885
L7729 17922
L7747 17941
L7785 17959
L7935 17959
L7935 17566
L7804 17566
L7766 17585
L7747 17603
L7729 17641
L7729 17678
L7747 17716
L7766 17735
L7804 17753
L7935 17753
" />
<path d="M7372 17959
L7372 17753
L7391 17716
L7429 17697
L7504 17697
L7541 17716
" />
<path d="M7372 17941
L7410 17959
L7504 17959
L7541 17941
L7560 17903
L7560 17866
L7541 17828
L7504 17810
L7410 17810
L7372 17791
" />
<path d="M7241 17697
L7091 17697
" />
<path d="M7185 17566
L7185 17903
L7166 17941
L7129 17959
L7091 17959
" />
<path d="M7016 17697
L6866 17697
" />
<path d="M6960 17566
L6960 17903
L6941 17941
L6904 17959
L6866 17959
" />
<path d="M6585 17941
L6623 17959
L6697 17959
L6735 17941
L6754 17903
L6754 17753
L6735 17716
L6697 17697
L6623 17697
L6585 17716
L6566 17753
L6566 17791
L6754 17828
" />
<path d="M6398 17959
L6398 17697
" />
<path d="M6398 17772
L6379 17735
L6360 17716
L6323 17697
L6285 17697
" />
<path d="M6191 17697
L6098 17959
" />
<path d="M6004 17697
L6098 17959
L6135 18053
L6154 18072
L6191 18091
" />
<path d="M1392 22871
L1336 22890
L1317 22909
L1298 22946
L1298 23003
L1317 23040
L1336 23059
L1373 23078
L1523 23078
L1523 22684
L1392 22684
L1354 22703
L1336 22721
L1317 22759
L1317 22796
L1336 22834
L1354 22853
L1392 22871
L1523 22871
" />
<path d="M1186 22684
L961 22684
" />
<path d="M1073 23078
L1073 22684
" />
<path d="M848 22721
L829 22703
L792 22684
L698 22684
L661 22703
L642 22721
L623 22759
L623 22796
L642 22853
L867 23078
L623 23078
" />
<g >
</g>
</g> 
</svg>
