<?xml version="1.0" standalone="no"?>
 <!DOCTYPE svg PUBLIC "-//W3C//DTD SVG 1.1//EN" 
 "http://www.w3.org/Graphics/SVG/1.1/DTD/svg11.dtd"> 
<svg xmlns="http://www.w3.org/2000/svg" version="1.1" 
    width="29.7002cm" height="21.0007cm" viewBox="0 0 116930 82680 ">
<title>SVG Picture created as ThermocoupleLogger-B_Mask.svg date 2019/04/07 21:39:21 </title>
  <desc>Picture generated by PCBNEW </desc>
<g style="fill:#000000; fill-opacity:1;stroke:#000000; stroke-opacity:1;
stroke-linecap:round; stroke-linejoin:round; "
 transform="translate(0 0) scale(1 1)">
</g>
<g style="fill:#000000; fill-opacity:0.0; 
stroke:#000000; stroke-width:-0.000393701; stroke-opacity:1; 
stroke-linecap:round; stroke-linejoin:round;">
</g>
<g style="fill:#000000; fill-opacity:0.0; 
stroke:#000000; stroke-width:39.3701; stroke-opacity:1; 
stroke-linecap:round; stroke-linejoin:round;">
<path d="M35000 0
L35000 30250
" />
<path d="M0 28059
L0 28059
" />
<path d="M0 0
L35000 0
" />
<path d="M0 30250
L35000 30250
" />
<path d="M0 0
L0 30250
" />
<path d="M0 500
L0 500
" />
</g>
<g style="fill:#000000; fill-opacity:1.0; 
stroke:#000000; stroke-width:0; stroke-opacity:1; 
stroke-linecap:round; stroke-linejoin:round;">
<path style="fill:#000000; fill-opacity:1.0; 
stroke:#000000; stroke-width:0; stroke-opacity:1; 
stroke-linecap:round; stroke-linejoin:round;fill-rule:evenodd;"
d="M 4181,28361
4212,28370
4244,28380
4244,28380
4302,28411
4353,28453
4395,28504
4426,28562
4445,28625
4450,28674
4450,28825
4445,28874
4426,28937
4395,28995
4353,29046
4302,29088
4244,29119
4181,29138
4115,29145
4050,29138
4004,29124
3987,29119
3958,29104
3928,29088
3877,29046
3836,28995
3805,28937
3785,28874
3781,28825
3781,28674
3785,28625
3805,28562
3836,28504
3877,28453
3928,28411
3987,28380
3987,28380
4018,28370
4050,28361
4115,28354
4181,28361
Z" /> 
<path style="fill:#000000; fill-opacity:1.0; 
stroke:#000000; stroke-width:0; stroke-opacity:1; 
stroke-linecap:round; stroke-linejoin:round;fill-rule:evenodd;"
d="M 7681,28361
7712,28370
7744,28380
7744,28380
7802,28411
7853,28453
7895,28504
7926,28562
7945,28625
7950,28674
7950,28825
7945,28874
7926,28937
7895,28995
7853,29046
7802,29088
7744,29119
7681,29138
7615,29145
7550,29138
7504,29124
7487,29119
7458,29104
7428,29088
7377,29046
7336,28995
7305,28937
7285,28874
7281,28825
7281,28674
7285,28625
7305,28562
7336,28504
7377,28453
7428,28411
7487,28380
7487,28380
7518,28370
7550,28361
7615,28354
7681,28361
Z" /> 
<path style="fill:#000000; fill-opacity:1.0; 
stroke:#000000; stroke-width:0; stroke-opacity:1; 
stroke-linecap:round; stroke-linejoin:round;fill-rule:evenodd;"
d="M 11181,28361
11212,28370
11244,28380
11244,28380
11302,28411
11353,28453
11395,28504
11426,28562
11445,28625
11450,28674
11450,28825
11445,28874
11426,28937
11395,28995
11353,29046
11302,29088
11244,29119
11181,29138
11115,29145
11050,29138
11004,29124
10987,29119
10958,29104
10928,29088
10877,29046
10836,28995
10805,28937
10785,28874
10781,28825
10781,28674
10785,28625
10805,28562
10836,28504
10877,28453
10928,28411
10987,28380
10987,28380
11018,28370
11050,28361
11115,28354
11181,28361
Z" /> 
<path style="fill:#000000; fill-opacity:1.0; 
stroke:#000000; stroke-width:0; stroke-opacity:1; 
stroke-linecap:round; stroke-linejoin:round;fill-rule:evenodd;"
d="M 14681,28361
14712,28370
14744,28380
14744,28380
14802,28411
14853,28453
14895,28504
14926,28562
14945,28625
14950,28674
14950,28825
14945,28874
14926,28937
14895,28995
14853,29046
14802,29088
14744,29119
14681,29138
14615,29145
14550,29138
14504,29124
14487,29119
14458,29104
14428,29088
14377,29046
14336,28995
14305,28937
14285,28874
14281,28825
14281,28674
14285,28625
14305,28562
14336,28504
14377,28453
14428,28411
14487,28380
14487,28380
14518,28370
14550,28361
14615,28354
14681,28361
Z" /> 
<path style="fill:#000000; fill-opacity:1.0; 
stroke:#000000; stroke-width:0; stroke-opacity:1; 
stroke-linecap:round; stroke-linejoin:round;fill-rule:evenodd;"
d="M 18181,28361
18212,28370
18244,28380
18244,28380
18302,28411
18353,28453
18395,28504
18426,28562
18445,28625
18450,28674
18450,28825
18445,28874
18426,28937
18395,28995
18353,29046
18302,29088
18244,29119
18181,29138
18115,29145
18050,29138
18004,29124
17987,29119
17958,29104
17928,29088
17877,29046
17836,28995
17805,28937
17785,28874
17781,28825
17781,28674
17785,28625
17805,28562
17836,28504
17877,28453
17928,28411
17987,28380
17987,28380
18018,28370
18050,28361
18115,28354
18181,28361
Z" /> 
<path style="fill:#000000; fill-opacity:1.0; 
stroke:#000000; stroke-width:0; stroke-opacity:1; 
stroke-linecap:round; stroke-linejoin:round;fill-rule:evenodd;"
d="M 21665,28361
21697,28370
21728,28380
21728,28380
21786,28411
21837,28453
21879,28504
21910,28562
21929,28625
21934,28674
21934,28825
21929,28874
21910,28937
21879,28995
21837,29046
21786,29088
21728,29119
21665,29138
21600,29145
21534,29138
21488,29124
21471,29119
21442,29104
21413,29088
21362,29046
21320,28995
21289,28937
21270,28874
21265,28825
21265,28674
21270,28625
21289,28562
21320,28504
21362,28453
21413,28411
21471,28380
21471,28380
21502,28370
21534,28361
21600,28354
21665,28361
Z" /> 
<path style="fill:#000000; fill-opacity:1.0; 
stroke:#000000; stroke-width:0; stroke-opacity:1; 
stroke-linecap:round; stroke-linejoin:round;fill-rule:evenodd;"
d="M 25165,28361
25197,28370
25228,28380
25228,28380
25286,28411
25337,28453
25379,28504
25410,28562
25429,28625
25434,28674
25434,28825
25429,28874
25410,28937
25379,28995
25337,29046
25286,29088
25228,29119
25165,29138
25100,29145
25034,29138
24988,29124
24971,29119
24942,29104
24913,29088
24862,29046
24820,28995
24789,28937
24770,28874
24765,28825
24765,28674
24770,28625
24789,28562
24820,28504
24862,28453
24913,28411
24971,28380
24971,28380
25002,28370
25034,28361
25100,28354
25165,28361
Z" /> 
<path style="fill:#000000; fill-opacity:1.0; 
stroke:#000000; stroke-width:0; stroke-opacity:1; 
stroke-linecap:round; stroke-linejoin:round;fill-rule:evenodd;"
d="M 28665,28361
28697,28370
28728,28380
28728,28380
28786,28411
28837,28453
28879,28504
28910,28562
28929,28625
28934,28674
28934,28825
28929,28874
28910,28937
28879,28995
28837,29046
28786,29088
28728,29119
28665,29138
28600,29145
28534,29138
28488,29124
28471,29119
28442,29104
28413,29088
28362,29046
28320,28995
28289,28937
28270,28874
28265,28825
28265,28674
28270,28625
28289,28562
28320,28504
28362,28453
28413,28411
28471,28380
28471,28380
28502,28370
28534,28361
28600,28354
28665,28361
Z" /> 
<path style="fill:#000000; fill-opacity:1.0; 
stroke:#000000; stroke-width:0; stroke-opacity:1; 
stroke-linecap:round; stroke-linejoin:round;fill-rule:evenodd;"
d="M 5383,28357
5395,28361
5406,28367
5415,28375
5423,28384
5429,28395
5433,28407
5434,28422
5434,29077
5433,29092
5429,29104
5423,29115
5415,29124
5406,29132
5395,29138
5383,29142
5368,29143
4831,29143
4816,29142
4804,29138
4793,29132
4784,29124
4776,29115
4770,29104
4766,29092
4765,29077
4765,28422
4766,28407
4770,28395
4776,28384
4784,28375
4793,28367
4804,28361
4816,28357
4831,28356
5368,28356
5383,28357
Z" /> 
<path style="fill:#000000; fill-opacity:1.0; 
stroke:#000000; stroke-width:0; stroke-opacity:1; 
stroke-linecap:round; stroke-linejoin:round;fill-rule:evenodd;"
d="M 8883,28357
8895,28361
8906,28367
8915,28375
8923,28384
8929,28395
8933,28407
8934,28422
8934,29077
8933,29092
8929,29104
8923,29115
8915,29124
8906,29132
8895,29138
8883,29142
8868,29143
8331,29143
8316,29142
8304,29138
8293,29132
8284,29124
8276,29115
8270,29104
8266,29092
8265,29077
8265,28422
8266,28407
8270,28395
8276,28384
8284,28375
8293,28367
8304,28361
8316,28357
8331,28356
8868,28356
8883,28357
Z" /> 
<path style="fill:#000000; fill-opacity:1.0; 
stroke:#000000; stroke-width:0; stroke-opacity:1; 
stroke-linecap:round; stroke-linejoin:round;fill-rule:evenodd;"
d="M 12383,28357
12395,28361
12406,28367
12415,28375
12423,28384
12429,28395
12433,28407
12434,28422
12434,29077
12433,29092
12429,29104
12423,29115
12415,29124
12406,29132
12395,29138
12383,29142
12368,29143
11831,29143
11816,29142
11804,29138
11793,29132
11784,29124
11776,29115
11770,29104
11766,29092
11765,29077
11765,28422
11766,28407
11770,28395
11776,28384
11784,28375
11793,28367
11804,28361
11816,28357
11831,28356
12368,28356
12383,28357
Z" /> 
<path style="fill:#000000; fill-opacity:1.0; 
stroke:#000000; stroke-width:0; stroke-opacity:1; 
stroke-linecap:round; stroke-linejoin:round;fill-rule:evenodd;"
d="M 15883,28357
15895,28361
15906,28367
15915,28375
15923,28384
15929,28395
15933,28407
15934,28422
15934,29077
15933,29092
15929,29104
15923,29115
15915,29124
15906,29132
15895,29138
15883,29142
15868,29143
15331,29143
15316,29142
15304,29138
15293,29132
15284,29124
15276,29115
15270,29104
15266,29092
15265,29077
15265,28422
15266,28407
15270,28395
15276,28384
15284,28375
15293,28367
15304,28361
15316,28357
15331,28356
15868,28356
15883,28357
Z" /> 
<path style="fill:#000000; fill-opacity:1.0; 
stroke:#000000; stroke-width:0; stroke-opacity:1; 
stroke-linecap:round; stroke-linejoin:round;fill-rule:evenodd;"
d="M 19383,28357
19395,28361
19406,28367
19415,28375
19423,28384
19429,28395
19433,28407
19434,28422
19434,29077
19433,29092
19429,29104
19423,29115
19415,29124
19406,29132
19395,29138
19383,29142
19368,29143
18831,29143
18816,29142
18804,29138
18793,29132
18784,29124
18776,29115
18770,29104
18766,29092
18765,29077
18765,28422
18766,28407
18770,28395
18776,28384
18784,28375
18793,28367
18804,28361
18816,28357
18831,28356
19368,28356
19383,28357
Z" /> 
<path style="fill:#000000; fill-opacity:1.0; 
stroke:#000000; stroke-width:0; stroke-opacity:1; 
stroke-linecap:round; stroke-linejoin:round;fill-rule:evenodd;"
d="M 22867,28357
22879,28361
22890,28367
22900,28375
22907,28384
22913,28395
22917,28407
22918,28422
22918,29077
22917,29092
22913,29104
22907,29115
22900,29124
22890,29132
22879,29138
22867,29142
22852,29143
22315,29143
22300,29142
22289,29138
22278,29132
22268,29124
22260,29115
22254,29104
22251,29092
22249,29077
22249,28422
22251,28407
22254,28395
22260,28384
22268,28375
22278,28367
22289,28361
22300,28357
22315,28356
22852,28356
22867,28357
Z" /> 
<path style="fill:#000000; fill-opacity:1.0; 
stroke:#000000; stroke-width:0; stroke-opacity:1; 
stroke-linecap:round; stroke-linejoin:round;fill-rule:evenodd;"
d="M 26367,28357
26379,28361
26390,28367
26400,28375
26407,28384
26413,28395
26417,28407
26418,28422
26418,29077
26417,29092
26413,29104
26407,29115
26400,29124
26390,29132
26379,29138
26367,29142
26352,29143
25815,29143
25800,29142
25789,29138
25778,29132
25768,29124
25760,29115
25754,29104
25751,29092
25749,29077
25749,28422
25751,28407
25754,28395
25760,28384
25768,28375
25778,28367
25789,28361
25800,28357
25815,28356
26352,28356
26367,28357
Z" /> 
<path style="fill:#000000; fill-opacity:1.0; 
stroke:#000000; stroke-width:0; stroke-opacity:1; 
stroke-linecap:round; stroke-linejoin:round;fill-rule:evenodd;"
d="M 29867,28357
29879,28361
29890,28367
29900,28375
29907,28384
29913,28395
29917,28407
29918,28422
29918,29077
29917,29092
29913,29104
29907,29115
29900,29124
29890,29132
29879,29138
29867,29142
29852,29143
29315,29143
29300,29142
29289,29138
29278,29132
29268,29124
29260,29115
29254,29104
29251,29092
29249,29077
29249,28422
29251,28407
29254,28395
29260,28384
29268,28375
29278,28367
29289,28361
29300,28357
29315,28356
29852,28356
29867,28357
Z" /> 
<path style="fill:#000000; fill-opacity:1.0; 
stroke:#000000; stroke-width:0; stroke-opacity:1; 
stroke-linecap:round; stroke-linejoin:round;fill-rule:evenodd;"
d="M 1673,23490
492,23490
492,22309
1673,22309
1673,23490
Z" /> 
<path style="fill:#000000; fill-opacity:1.0; 
stroke:#000000; stroke-width:0; stroke-opacity:1; 
stroke-linecap:round; stroke-linejoin:round;fill-rule:evenodd;"
d="M 9322,22332
9429,22376
9429,22376
9478,22409
9526,22441
9608,22523
9673,22620
9717,22727
9740,22841
9740,22958
9717,23072
9676,23171
9673,23179
9608,23276
9526,23358
9429,23423
9429,23423
9429,23423
9322,23467
9208,23490
9091,23490
8977,23467
8870,23423
8870,23423
8870,23423
8773,23358
8691,23276
8626,23179
8623,23171
8582,23072
8559,22958
8559,22841
8582,22727
8626,22620
8691,22523
8773,22441
8821,22409
8870,22376
8870,22376
8977,22332
9091,22309
9208,22309
9322,22332
Z" /> 
<path style="fill:#000000; fill-opacity:1.0; 
stroke:#000000; stroke-width:0; stroke-opacity:1; 
stroke-linecap:round; stroke-linejoin:round;fill-rule:evenodd;"
d="M 13530,22736
13561,22739
13621,22757
13621,22757
13675,22786
13675,22786
13675,22786
13723,22826
13763,22874
13792,22928
13810,22988
13816,23050
13810,23111
13792,23171
13792,23171
13763,23225
13723,23273
13675,23313
13621,23342
13621,23342
13561,23360
13530,23363
13515,23364
13484,23364
13469,23363
13438,23360
13378,23342
13378,23342
13324,23313
13276,23273
13236,23225
13207,23171
13207,23171
13189,23111
13183,23050
13189,22988
13207,22928
13236,22874
13276,22826
13324,22786
13324,22786
13324,22786
13378,22757
13378,22757
13438,22739
13469,22736
13484,22735
13515,22735
13530,22736
Z" /> 
<path style="fill:#000000; fill-opacity:1.0; 
stroke:#000000; stroke-width:0; stroke-opacity:1; 
stroke-linecap:round; stroke-linejoin:round;fill-rule:evenodd;"
d="M 12530,22736
12561,22739
12621,22757
12621,22757
12675,22786
12675,22786
12675,22786
12723,22826
12763,22874
12792,22928
12810,22988
12816,23050
12810,23111
12792,23171
12792,23171
12763,23225
12723,23273
12675,23313
12621,23342
12621,23342
12561,23360
12530,23363
12515,23364
12484,23364
12469,23363
12438,23360
12378,23342
12378,23342
12324,23313
12276,23273
12236,23225
12207,23171
12207,23171
12189,23111
12183,23050
12189,22988
12207,22928
12236,22874
12276,22826
12324,22786
12324,22786
12324,22786
12378,22757
12378,22757
12438,22739
12469,22736
12484,22735
12515,22735
12530,22736
Z" /> 
<path style="fill:#000000; fill-opacity:1.0; 
stroke:#000000; stroke-width:0; stroke-opacity:1; 
stroke-linecap:round; stroke-linejoin:round;fill-rule:evenodd;"
d="M 14530,22736
14561,22739
14621,22757
14621,22757
14675,22786
14675,22786
14675,22786
14723,22826
14763,22874
14792,22928
14810,22988
14816,23050
14810,23111
14792,23171
14792,23171
14763,23225
14723,23273
14675,23313
14621,23342
14621,23342
14561,23360
14530,23363
14515,23364
14484,23364
14469,23363
14438,23360
14378,23342
14378,23342
14324,23313
14276,23273
14236,23225
14207,23171
14207,23171
14189,23111
14183,23050
14189,22988
14207,22928
14236,22874
14276,22826
14324,22786
14324,22786
14324,22786
14378,22757
14378,22757
14438,22739
14469,22736
14484,22735
14515,22735
14530,22736
Z" /> 
<path style="fill:#000000; fill-opacity:1.0; 
stroke:#000000; stroke-width:0; stroke-opacity:1; 
stroke-linecap:round; stroke-linejoin:round;fill-rule:evenodd;"
d="M 15530,22736
15561,22739
15621,22757
15621,22757
15675,22786
15675,22786
15675,22786
15723,22826
15763,22874
15792,22928
15810,22988
15816,23050
15810,23111
15792,23171
15792,23171
15763,23225
15723,23273
15675,23313
15621,23342
15621,23342
15561,23360
15530,23363
15515,23364
15484,23364
15469,23363
15438,23360
15378,23342
15378,23342
15324,23313
15276,23273
15236,23225
15207,23171
15207,23171
15189,23111
15183,23050
15189,22988
15207,22928
15236,22874
15276,22826
15324,22786
15324,22786
15324,22786
15378,22757
15378,22757
15438,22739
15469,22736
15484,22735
15515,22735
15530,22736
Z" /> 
<path style="fill:#000000; fill-opacity:1.0; 
stroke:#000000; stroke-width:0; stroke-opacity:1; 
stroke-linecap:round; stroke-linejoin:round;fill-rule:evenodd;"
d="M 16530,22736
16561,22739
16621,22757
16621,22757
16675,22786
16675,22786
16675,22786
16723,22826
16763,22874
16792,22928
16810,22988
16816,23050
16810,23111
16792,23171
16792,23171
16763,23225
16723,23273
16675,23313
16621,23342
16621,23342
16561,23360
16530,23363
16515,23364
16484,23364
16469,23363
16438,23360
16378,23342
16378,23342
16324,23313
16276,23273
16236,23225
16207,23171
16207,23171
16189,23111
16183,23050
16189,22988
16207,22928
16236,22874
16276,22826
16324,22786
16324,22786
16324,22786
16378,22757
16378,22757
16438,22739
16469,22736
16484,22735
16515,22735
16530,22736
Z" /> 
<path style="fill:#000000; fill-opacity:1.0; 
stroke:#000000; stroke-width:0; stroke-opacity:1; 
stroke-linecap:round; stroke-linejoin:round;fill-rule:evenodd;"
d="M 17530,22736
17561,22739
17621,22757
17621,22757
17675,22786
17675,22786
17675,22786
17723,22826
17763,22874
17792,22928
17810,22988
17816,23050
17810,23111
17792,23171
17792,23171
17763,23225
17723,23273
17675,23313
17621,23342
17621,23342
17561,23360
17530,23363
17515,23364
17484,23364
17469,23363
17438,23360
17378,23342
17378,23342
17324,23313
17276,23273
17236,23225
17207,23171
17207,23171
17189,23111
17183,23050
17189,22988
17207,22928
17236,22874
17276,22826
17324,22786
17324,22786
17324,22786
17378,22757
17378,22757
17438,22739
17469,22736
17484,22735
17515,22735
17530,22736
Z" /> 
<path style="fill:#000000; fill-opacity:1.0; 
stroke:#000000; stroke-width:0; stroke-opacity:1; 
stroke-linecap:round; stroke-linejoin:round;fill-rule:evenodd;"
d="M 18530,22736
18561,22739
18621,22757
18621,22757
18675,22786
18675,22786
18675,22786
18723,22826
18763,22874
18792,22928
18810,22988
18816,23050
18810,23111
18792,23171
18792,23171
18763,23225
18723,23273
18675,23313
18621,23342
18621,23342
18561,23360
18530,23363
18515,23364
18484,23364
18469,23363
18438,23360
18378,23342
18378,23342
18324,23313
18276,23273
18236,23225
18207,23171
18207,23171
18189,23111
18183,23050
18189,22988
18207,22928
18236,22874
18276,22826
18324,22786
18324,22786
18324,22786
18378,22757
18378,22757
18438,22739
18469,22736
18484,22735
18515,22735
18530,22736
Z" /> 
<path style="fill:#000000; fill-opacity:1.0; 
stroke:#000000; stroke-width:0; stroke-opacity:1; 
stroke-linecap:round; stroke-linejoin:round;fill-rule:evenodd;"
d="M 19530,22736
19561,22739
19621,22757
19621,22757
19675,22786
19675,22786
19675,22786
19723,22826
19763,22874
19792,22928
19810,22988
19816,23050
19810,23111
19792,23171
19792,23171
19763,23225
19723,23273
19675,23313
19621,23342
19621,23342
19561,23360
19530,23363
19515,23364
19484,23364
19469,23363
19438,23360
19378,23342
19378,23342
19324,23313
19276,23273
19236,23225
19207,23171
19207,23171
19189,23111
19183,23050
19189,22988
19207,22928
19236,22874
19276,22826
19324,22786
19324,22786
19324,22786
19378,22757
19378,22757
19438,22739
19469,22736
19484,22735
19515,22735
19530,22736
Z" /> 
<path style="fill:#000000; fill-opacity:1.0; 
stroke:#000000; stroke-width:0; stroke-opacity:1; 
stroke-linecap:round; stroke-linejoin:round;fill-rule:evenodd;"
d="M 20530,22736
20561,22739
20621,22757
20621,22757
20675,22786
20675,22786
20675,22786
20723,22826
20763,22874
20792,22928
20810,22988
20816,23050
20810,23111
20792,23171
20792,23171
20763,23225
20723,23273
20675,23313
20621,23342
20621,23342
20561,23360
20530,23363
20515,23364
20484,23364
20469,23363
20438,23360
20378,23342
20378,23342
20324,23313
20276,23273
20236,23225
20207,23171
20207,23171
20189,23111
20183,23050
20189,22988
20207,22928
20236,22874
20276,22826
20324,22786
20324,22786
20324,22786
20378,22757
20378,22757
20438,22739
20469,22736
20484,22735
20515,22735
20530,22736
Z" /> 
<path style="fill:#000000; fill-opacity:1.0; 
stroke:#000000; stroke-width:0; stroke-opacity:1; 
stroke-linecap:round; stroke-linejoin:round;fill-rule:evenodd;"
d="M 21530,22736
21561,22739
21621,22757
21621,22757
21675,22786
21675,22786
21675,22786
21723,22826
21763,22874
21792,22928
21810,22988
21816,23050
21810,23111
21792,23171
21792,23171
21763,23225
21723,23273
21675,23313
21621,23342
21621,23342
21561,23360
21530,23363
21515,23364
21484,23364
21469,23363
21438,23360
21378,23342
21378,23342
21324,23313
21276,23273
21236,23225
21207,23171
21207,23171
21189,23111
21183,23050
21189,22988
21207,22928
21236,22874
21276,22826
21324,22786
21324,22786
21324,22786
21378,22757
21378,22757
21438,22739
21469,22736
21484,22735
21515,22735
21530,22736
Z" /> 
<path style="fill:#000000; fill-opacity:1.0; 
stroke:#000000; stroke-width:0; stroke-opacity:1; 
stroke-linecap:round; stroke-linejoin:round;fill-rule:evenodd;"
d="M 22530,22736
22561,22739
22621,22757
22621,22757
22675,22786
22675,22786
22675,22786
22723,22826
22763,22874
22792,22928
22810,22988
22816,23050
22810,23111
22792,23171
22792,23171
22763,23225
22723,23273
22675,23313
22621,23342
22621,23342
22561,23360
22530,23363
22515,23364
22484,23364
22469,23363
22438,23360
22378,23342
22378,23342
22324,23313
22276,23273
22236,23225
22207,23171
22207,23171
22189,23111
22183,23050
22189,22988
22207,22928
22236,22874
22276,22826
22324,22786
22324,22786
22324,22786
22378,22757
22378,22757
22438,22739
22469,22736
22484,22735
22515,22735
22530,22736
Z" /> 
<path style="fill:#000000; fill-opacity:1.0; 
stroke:#000000; stroke-width:0; stroke-opacity:1; 
stroke-linecap:round; stroke-linejoin:round;fill-rule:evenodd;"
d="M 23530,22736
23561,22739
23621,22757
23621,22757
23675,22786
23675,22786
23675,22786
23723,22826
23763,22874
23792,22928
23810,22988
23816,23050
23810,23111
23792,23171
23792,23171
23763,23225
23723,23273
23675,23313
23621,23342
23621,23342
23561,23360
23530,23363
23515,23364
23484,23364
23469,23363
23438,23360
23378,23342
23378,23342
23324,23313
23276,23273
23236,23225
23207,23171
23207,23171
23189,23111
23183,23050
23189,22988
23207,22928
23236,22874
23276,22826
23324,22786
23324,22786
23324,22786
23378,22757
23378,22757
23438,22739
23469,22736
23484,22735
23515,22735
23530,22736
Z" /> 
<path style="fill:#000000; fill-opacity:1.0; 
stroke:#000000; stroke-width:0; stroke-opacity:1; 
stroke-linecap:round; stroke-linejoin:round;fill-rule:evenodd;"
d="M 11530,22736
11561,22739
11621,22757
11621,22757
11675,22786
11675,22786
11675,22786
11723,22826
11763,22874
11792,22928
11810,22988
11816,23050
11810,23111
11792,23171
11792,23171
11763,23225
11723,23273
11675,23313
11621,23342
11621,23342
11561,23360
11530,23363
11515,23364
11484,23364
11469,23363
11438,23360
11378,23342
11378,23342
11324,23313
11276,23273
11236,23225
11207,23171
11207,23171
11189,23111
11183,23050
11189,22988
11207,22928
11236,22874
11276,22826
11324,22786
11324,22786
11324,22786
11378,22757
11378,22757
11438,22739
11469,22736
11484,22735
11515,22735
11530,22736
Z" /> 
<path style="fill:#000000; fill-opacity:1.0; 
stroke:#000000; stroke-width:0; stroke-opacity:1; 
stroke-linecap:round; stroke-linejoin:round;fill-rule:evenodd;"
d="M 10530,22736
10561,22739
10621,22757
10621,22757
10675,22786
10675,22786
10675,22786
10723,22826
10763,22874
10792,22928
10810,22988
10816,23050
10810,23111
10792,23171
10792,23171
10763,23225
10723,23273
10675,23313
10621,23342
10621,23342
10561,23360
10530,23363
10515,23364
10484,23364
10469,23363
10438,23360
10378,23342
10378,23342
10324,23313
10276,23273
10236,23225
10207,23171
10207,23171
10189,23111
10183,23050
10189,22988
10207,22928
10236,22874
10276,22826
10324,22786
10324,22786
10324,22786
10378,22757
10378,22757
10438,22739
10469,22736
10484,22735
10515,22735
10530,22736
Z" /> 
<path style="fill:#000000; fill-opacity:1.0; 
stroke:#000000; stroke-width:0; stroke-opacity:1; 
stroke-linecap:round; stroke-linejoin:round;fill-rule:evenodd;"
d="M 29564,20964
28935,20964
28935,20335
29564,20335
29564,20964
Z" /> 
<path style="fill:#000000; fill-opacity:1.0; 
stroke:#000000; stroke-width:0; stroke-opacity:1; 
stroke-linecap:round; stroke-linejoin:round;fill-rule:evenodd;"
d="M 26280,20336
26311,20339
26371,20357
26371,20357
26425,20386
26425,20386
26425,20386
26473,20426
26513,20474
26542,20528
26560,20588
26566,20650
26560,20711
26542,20771
26542,20771
26513,20825
26473,20873
26425,20913
26371,20942
26371,20942
26311,20960
26280,20963
26265,20964
26234,20964
26219,20963
26188,20960
26128,20942
26128,20942
26074,20913
26026,20873
25986,20825
25957,20771
25957,20771
25939,20711
25933,20650
25939,20588
25957,20528
25986,20474
26026,20426
26074,20386
26074,20386
26074,20386
26128,20357
26128,20357
26188,20339
26219,20336
26234,20335
26265,20335
26280,20336
Z" /> 
<path style="fill:#000000; fill-opacity:1.0; 
stroke:#000000; stroke-width:0; stroke-opacity:1; 
stroke-linecap:round; stroke-linejoin:round;fill-rule:evenodd;"
d="M 29280,19336
29311,19339
29371,19357
29371,19357
29425,19386
29425,19386
29425,19386
29473,19426
29513,19474
29542,19528
29560,19588
29566,19650
29560,19711
29542,19771
29542,19771
29513,19825
29473,19873
29425,19913
29371,19942
29371,19942
29311,19960
29280,19963
29265,19964
29234,19964
29219,19963
29188,19960
29128,19942
29128,19942
29074,19913
29026,19873
28986,19825
28957,19771
28957,19771
28939,19711
28933,19650
28939,19588
28957,19528
28986,19474
29026,19426
29074,19386
29074,19386
29074,19386
29128,19357
29128,19357
29188,19339
29219,19336
29234,19335
29265,19335
29280,19336
Z" /> 
<path style="fill:#000000; fill-opacity:1.0; 
stroke:#000000; stroke-width:0; stroke-opacity:1; 
stroke-linecap:round; stroke-linejoin:round;fill-rule:evenodd;"
d="M 26280,19336
26311,19339
26371,19357
26371,19357
26425,19386
26425,19386
26425,19386
26473,19426
26513,19474
26542,19528
26560,19588
26566,19650
26560,19711
26542,19771
26542,19771
26513,19825
26473,19873
26425,19913
26371,19942
26371,19942
26311,19960
26280,19963
26265,19964
26234,19964
26219,19963
26188,19960
26128,19942
26128,19942
26074,19913
26026,19873
25986,19825
25957,19771
25957,19771
25939,19711
25933,19650
25939,19588
25957,19528
25986,19474
26026,19426
26074,19386
26074,19386
26074,19386
26128,19357
26128,19357
26188,19339
26219,19336
26234,19335
26265,19335
26280,19336
Z" /> 
<path style="fill:#000000; fill-opacity:1.0; 
stroke:#000000; stroke-width:0; stroke-opacity:1; 
stroke-linecap:round; stroke-linejoin:round;fill-rule:evenodd;"
d="M 2425,18419
2509,18453
2509,18454
2539,18474
2584,18504
2649,18568
2699,18644
2734,18727
2751,18816
2751,18907
2734,18996
2699,19080
2699,19080
2649,19155
2584,19219
2509,19270
2509,19270
2509,19270
2425,19305
2336,19322
2245,19322
2156,19305
2073,19270
2073,19270
2073,19270
1997,19219
1933,19155
1883,19080
1883,19080
1848,18996
1830,18907
1830,18816
1848,18727
1883,18644
1933,18568
1997,18504
2042,18474
2073,18454
2073,18453
2156,18419
2245,18401
2336,18401
2425,18419
Z" /> 
<path style="fill:#000000; fill-opacity:1.0; 
stroke:#000000; stroke-width:0; stroke-opacity:1; 
stroke-linecap:round; stroke-linejoin:round;fill-rule:evenodd;"
d="M 29280,18336
29311,18339
29371,18357
29371,18357
29425,18386
29473,18426
29513,18474
29529,18504
29542,18528
29560,18588
29566,18650
29560,18711
29547,18754
29542,18771
29513,18825
29473,18873
29425,18913
29381,18936
29371,18942
29311,18960
29280,18963
29265,18964
29234,18964
29219,18963
29188,18960
29128,18942
29118,18936
29074,18913
29026,18873
28986,18825
28957,18771
28952,18754
28939,18711
28933,18650
28939,18588
28957,18528
28970,18504
28986,18474
29026,18426
29074,18386
29128,18357
29128,18357
29188,18339
29219,18336
29234,18335
29265,18335
29280,18336
Z" /> 
<path style="fill:#000000; fill-opacity:1.0; 
stroke:#000000; stroke-width:0; stroke-opacity:1; 
stroke-linecap:round; stroke-linejoin:round;fill-rule:evenodd;"
d="M 26280,18336
26311,18339
26371,18357
26371,18357
26425,18386
26473,18426
26513,18474
26529,18504
26542,18528
26560,18588
26566,18650
26560,18711
26547,18754
26542,18771
26513,18825
26473,18873
26425,18913
26381,18936
26371,18942
26311,18960
26280,18963
26265,18964
26234,18964
26219,18963
26188,18960
26128,18942
26118,18936
26074,18913
26026,18873
25986,18825
25957,18771
25952,18754
25939,18711
25933,18650
25939,18588
25957,18528
25970,18504
25986,18474
26026,18426
26074,18386
26128,18357
26128,18357
26188,18339
26219,18336
26234,18335
26265,18335
26280,18336
Z" /> 
<path style="fill:#000000; fill-opacity:1.0; 
stroke:#000000; stroke-width:0; stroke-opacity:1; 
stroke-linecap:round; stroke-linejoin:round;fill-rule:evenodd;"
d="M 32721,18296
32752,18305
32784,18315
32784,18315
32842,18346
32893,18388
32935,18439
32966,18497
32985,18560
32991,18625
32985,18691
32966,18754
32935,18812
32893,18863
32842,18905
32784,18936
32784,18936
32752,18946
32721,18955
32671,18960
32540,18960
32491,18955
32459,18946
32428,18936
32428,18936
32370,18905
32319,18863
32277,18812
32246,18754
32227,18691
32220,18625
32227,18560
32246,18497
32277,18439
32319,18388
32370,18346
32428,18315
32428,18315
32459,18305
32491,18296
32540,18291
32671,18291
32721,18296
Z" /> 
<path style="fill:#000000; fill-opacity:1.0; 
stroke:#000000; stroke-width:0; stroke-opacity:1; 
stroke-linecap:round; stroke-linejoin:round;fill-rule:evenodd;"
d="M 32721,17311
32752,17321
32784,17331
32784,17331
32842,17362
32893,17403
32935,17454
32966,17513
32985,17576
32991,17641
32985,17707
32966,17770
32935,17828
32893,17879
32842,17921
32784,17952
32784,17952
32757,17960
32721,17971
32671,17976
32540,17976
32491,17971
32454,17960
32428,17952
32428,17952
32370,17921
32319,17879
32277,17828
32246,17770
32227,17707
32220,17641
32227,17576
32246,17513
32277,17454
32319,17403
32370,17362
32428,17331
32428,17331
32459,17321
32491,17311
32540,17307
32671,17307
32721,17311
Z" /> 
<path style="fill:#000000; fill-opacity:1.0; 
stroke:#000000; stroke-width:0; stroke-opacity:1; 
stroke-linecap:round; stroke-linejoin:round;fill-rule:evenodd;"
d="M 26280,17336
26311,17339
26371,17357
26371,17357
26425,17386
26473,17426
26497,17454
26513,17474
26542,17528
26560,17588
26566,17650
26560,17711
26542,17770
26542,17771
26513,17825
26473,17873
26425,17913
26371,17942
26371,17942
26311,17960
26280,17963
26265,17964
26234,17964
26219,17963
26188,17960
26128,17942
26128,17942
26074,17913
26026,17873
25986,17825
25957,17771
25957,17770
25939,17711
25933,17650
25939,17588
25957,17528
25986,17474
26002,17454
26026,17426
26074,17386
26128,17357
26128,17357
26188,17339
26219,17336
26234,17335
26265,17335
26280,17336
Z" /> 
<path style="fill:#000000; fill-opacity:1.0; 
stroke:#000000; stroke-width:0; stroke-opacity:1; 
stroke-linecap:round; stroke-linejoin:round;fill-rule:evenodd;"
d="M 29280,17336
29311,17339
29371,17357
29371,17357
29425,17386
29473,17426
29497,17454
29513,17474
29542,17528
29560,17588
29566,17650
29560,17711
29542,17770
29542,17771
29513,17825
29473,17873
29425,17913
29371,17942
29371,17942
29311,17960
29280,17963
29265,17964
29234,17964
29219,17963
29188,17960
29128,17942
29128,17942
29074,17913
29026,17873
28986,17825
28957,17771
28957,17770
28939,17711
28933,17650
28939,17588
28957,17528
28986,17474
29002,17454
29026,17426
29074,17386
29128,17357
29128,17357
29188,17339
29219,17336
29234,17335
29265,17335
29280,17336
Z" /> 
<path style="fill:#000000; fill-opacity:1.0; 
stroke:#000000; stroke-width:0; stroke-opacity:1; 
stroke-linecap:round; stroke-linejoin:round;fill-rule:evenodd;"
d="M 23814,17364
23185,17364
23185,16735
23814,16735
23814,17364
Z" /> 
<path style="fill:#000000; fill-opacity:1.0; 
stroke:#000000; stroke-width:0; stroke-opacity:1; 
stroke-linecap:round; stroke-linejoin:round;fill-rule:evenodd;"
d="M 20530,16736
20561,16739
20621,16757
20621,16757
20675,16786
20723,16826
20763,16874
20774,16895
20792,16928
20810,16988
20816,17050
20810,17111
20792,17171
20792,17171
20763,17225
20723,17273
20675,17313
20642,17331
20621,17342
20561,17360
20544,17362
20515,17364
20484,17364
20455,17362
20438,17360
20378,17342
20357,17331
20324,17313
20276,17273
20236,17225
20207,17171
20207,17171
20189,17111
20183,17050
20189,16988
20207,16928
20225,16895
20236,16874
20276,16826
20324,16786
20378,16757
20378,16757
20438,16739
20469,16736
20484,16735
20515,16735
20530,16736
Z" /> 
<path style="fill:#000000; fill-opacity:1.0; 
stroke:#000000; stroke-width:0; stroke-opacity:1; 
stroke-linecap:round; stroke-linejoin:round;fill-rule:evenodd;"
d="M 19530,16736
19561,16739
19621,16757
19621,16757
19675,16786
19723,16826
19763,16874
19774,16895
19792,16928
19810,16988
19816,17050
19810,17111
19792,17171
19792,17171
19763,17225
19723,17273
19675,17313
19642,17331
19621,17342
19561,17360
19544,17362
19515,17364
19484,17364
19455,17362
19438,17360
19378,17342
19357,17331
19324,17313
19276,17273
19236,17225
19207,17171
19207,17171
19189,17111
19183,17050
19189,16988
19207,16928
19225,16895
19236,16874
19276,16826
19324,16786
19378,16757
19378,16757
19438,16739
19469,16736
19484,16735
19515,16735
19530,16736
Z" /> 
<path style="fill:#000000; fill-opacity:1.0; 
stroke:#000000; stroke-width:0; stroke-opacity:1; 
stroke-linecap:round; stroke-linejoin:round;fill-rule:evenodd;"
d="M 10530,16736
10561,16739
10621,16757
10621,16757
10675,16786
10723,16826
10763,16874
10774,16895
10792,16928
10810,16988
10816,17050
10810,17111
10792,17171
10792,17171
10763,17225
10723,17273
10675,17313
10642,17331
10621,17342
10561,17360
10544,17362
10515,17364
10484,17364
10455,17362
10438,17360
10378,17342
10357,17331
10324,17313
10276,17273
10236,17225
10207,17171
10207,17171
10189,17111
10183,17050
10189,16988
10207,16928
10225,16895
10236,16874
10276,16826
10324,16786
10378,16757
10378,16757
10438,16739
10469,16736
10484,16735
10515,16735
10530,16736
Z" /> 
<path style="fill:#000000; fill-opacity:1.0; 
stroke:#000000; stroke-width:0; stroke-opacity:1; 
stroke-linecap:round; stroke-linejoin:round;fill-rule:evenodd;"
d="M 11530,16736
11561,16739
11621,16757
11621,16757
11675,16786
11723,16826
11763,16874
11774,16895
11792,16928
11810,16988
11816,17050
11810,17111
11792,17171
11792,17171
11763,17225
11723,17273
11675,17313
11642,17331
11621,17342
11561,17360
11544,17362
11515,17364
11484,17364
11455,17362
11438,17360
11378,17342
11357,17331
11324,17313
11276,17273
11236,17225
11207,17171
11207,17171
11189,17111
11183,17050
11189,16988
11207,16928
11225,16895
11236,16874
11276,16826
11324,16786
11378,16757
11378,16757
11438,16739
11469,16736
11484,16735
11515,16735
11530,16736
Z" /> 
<path style="fill:#000000; fill-opacity:1.0; 
stroke:#000000; stroke-width:0; stroke-opacity:1; 
stroke-linecap:round; stroke-linejoin:round;fill-rule:evenodd;"
d="M 12530,16736
12561,16739
12621,16757
12621,16757
12675,16786
12723,16826
12763,16874
12774,16895
12792,16928
12810,16988
12816,17050
12810,17111
12792,17171
12792,17171
12763,17225
12723,17273
12675,17313
12642,17331
12621,17342
12561,17360
12544,17362
12515,17364
12484,17364
12455,17362
12438,17360
12378,17342
12357,17331
12324,17313
12276,17273
12236,17225
12207,17171
12207,17171
12189,17111
12183,17050
12189,16988
12207,16928
12225,16895
12236,16874
12276,16826
12324,16786
12378,16757
12378,16757
12438,16739
12469,16736
12484,16735
12515,16735
12530,16736
Z" /> 
<path style="fill:#000000; fill-opacity:1.0; 
stroke:#000000; stroke-width:0; stroke-opacity:1; 
stroke-linecap:round; stroke-linejoin:round;fill-rule:evenodd;"
d="M 13530,16736
13561,16739
13621,16757
13621,16757
13675,16786
13723,16826
13763,16874
13774,16895
13792,16928
13810,16988
13816,17050
13810,17111
13792,17171
13792,17171
13763,17225
13723,17273
13675,17313
13642,17331
13621,17342
13561,17360
13544,17362
13515,17364
13484,17364
13455,17362
13438,17360
13378,17342
13357,17331
13324,17313
13276,17273
13236,17225
13207,17171
13207,17171
13189,17111
13183,17050
13189,16988
13207,16928
13225,16895
13236,16874
13276,16826
13324,16786
13378,16757
13378,16757
13438,16739
13469,16736
13484,16735
13515,16735
13530,16736
Z" /> 
<path style="fill:#000000; fill-opacity:1.0; 
stroke:#000000; stroke-width:0; stroke-opacity:1; 
stroke-linecap:round; stroke-linejoin:round;fill-rule:evenodd;"
d="M 18530,16736
18561,16739
18621,16757
18621,16757
18675,16786
18723,16826
18763,16874
18774,16895
18792,16928
18810,16988
18816,17050
18810,17111
18792,17171
18792,17171
18763,17225
18723,17273
18675,17313
18642,17331
18621,17342
18561,17360
18544,17362
18515,17364
18484,17364
18455,17362
18438,17360
18378,17342
18357,17331
18324,17313
18276,17273
18236,17225
18207,17171
18207,17171
18189,17111
18183,17050
18189,16988
18207,16928
18225,16895
18236,16874
18276,16826
18324,16786
18378,16757
18378,16757
18438,16739
18469,16736
18484,16735
18515,16735
18530,16736
Z" /> 
<path style="fill:#000000; fill-opacity:1.0; 
stroke:#000000; stroke-width:0; stroke-opacity:1; 
stroke-linecap:round; stroke-linejoin:round;fill-rule:evenodd;"
d="M 17530,16736
17561,16739
17621,16757
17621,16757
17675,16786
17723,16826
17763,16874
17774,16895
17792,16928
17810,16988
17816,17050
17810,17111
17792,17171
17792,17171
17763,17225
17723,17273
17675,17313
17642,17331
17621,17342
17561,17360
17544,17362
17515,17364
17484,17364
17455,17362
17438,17360
17378,17342
17357,17331
17324,17313
17276,17273
17236,17225
17207,17171
17207,17171
17189,17111
17183,17050
17189,16988
17207,16928
17225,16895
17236,16874
17276,16826
17324,16786
17378,16757
17378,16757
17438,16739
17469,16736
17484,16735
17515,16735
17530,16736
Z" /> 
<path style="fill:#000000; fill-opacity:1.0; 
stroke:#000000; stroke-width:0; stroke-opacity:1; 
stroke-linecap:round; stroke-linejoin:round;fill-rule:evenodd;"
d="M 16530,16736
16561,16739
16621,16757
16621,16757
16675,16786
16723,16826
16763,16874
16774,16895
16792,16928
16810,16988
16816,17050
16810,17111
16792,17171
16792,17171
16763,17225
16723,17273
16675,17313
16642,17331
16621,17342
16561,17360
16544,17362
16515,17364
16484,17364
16455,17362
16438,17360
16378,17342
16357,17331
16324,17313
16276,17273
16236,17225
16207,17171
16207,17171
16189,17111
16183,17050
16189,16988
16207,16928
16225,16895
16236,16874
16276,16826
16324,16786
16378,16757
16378,16757
16438,16739
16469,16736
16484,16735
16515,16735
16530,16736
Z" /> 
<path style="fill:#000000; fill-opacity:1.0; 
stroke:#000000; stroke-width:0; stroke-opacity:1; 
stroke-linecap:round; stroke-linejoin:round;fill-rule:evenodd;"
d="M 14530,16736
14561,16739
14621,16757
14621,16757
14675,16786
14723,16826
14763,16874
14774,16895
14792,16928
14810,16988
14816,17050
14810,17111
14792,17171
14792,17171
14763,17225
14723,17273
14675,17313
14642,17331
14621,17342
14561,17360
14544,17362
14515,17364
14484,17364
14455,17362
14438,17360
14378,17342
14357,17331
14324,17313
14276,17273
14236,17225
14207,17171
14207,17171
14189,17111
14183,17050
14189,16988
14207,16928
14225,16895
14236,16874
14276,16826
14324,16786
14378,16757
14378,16757
14438,16739
14469,16736
14484,16735
14515,16735
14530,16736
Z" /> 
<path style="fill:#000000; fill-opacity:1.0; 
stroke:#000000; stroke-width:0; stroke-opacity:1; 
stroke-linecap:round; stroke-linejoin:round;fill-rule:evenodd;"
d="M 15530,16736
15561,16739
15621,16757
15621,16757
15675,16786
15723,16826
15763,16874
15774,16895
15792,16928
15810,16988
15816,17050
15810,17111
15792,17171
15792,17171
15763,17225
15723,17273
15675,17313
15642,17331
15621,17342
15561,17360
15544,17362
15515,17364
15484,17364
15455,17362
15438,17360
15378,17342
15357,17331
15324,17313
15276,17273
15236,17225
15207,17171
15207,17171
15189,17111
15183,17050
15189,16988
15207,16928
15225,16895
15236,16874
15276,16826
15324,16786
15378,16757
15378,16757
15438,16739
15469,16736
15484,16735
15515,16735
15530,16736
Z" /> 
<path style="fill:#000000; fill-opacity:1.0; 
stroke:#000000; stroke-width:0; stroke-opacity:1; 
stroke-linecap:round; stroke-linejoin:round;fill-rule:evenodd;"
d="M 22530,16736
22561,16739
22621,16757
22621,16757
22675,16786
22723,16826
22763,16874
22774,16895
22792,16928
22810,16988
22816,17050
22810,17111
22792,17171
22792,17171
22763,17225
22723,17273
22675,17313
22642,17331
22621,17342
22561,17360
22544,17362
22515,17364
22484,17364
22455,17362
22438,17360
22378,17342
22357,17331
22324,17313
22276,17273
22236,17225
22207,17171
22207,17171
22189,17111
22183,17050
22189,16988
22207,16928
22225,16895
22236,16874
22276,16826
22324,16786
22378,16757
22378,16757
22438,16739
22469,16736
22484,16735
22515,16735
22530,16736
Z" /> 
<path style="fill:#000000; fill-opacity:1.0; 
stroke:#000000; stroke-width:0; stroke-opacity:1; 
stroke-linecap:round; stroke-linejoin:round;fill-rule:evenodd;"
d="M 21530,16736
21561,16739
21621,16757
21621,16757
21675,16786
21723,16826
21763,16874
21774,16895
21792,16928
21810,16988
21816,17050
21810,17111
21792,17171
21792,17171
21763,17225
21723,17273
21675,17313
21642,17331
21621,17342
21561,17360
21544,17362
21515,17364
21484,17364
21455,17362
21438,17360
21378,17342
21357,17331
21324,17313
21276,17273
21236,17225
21207,17171
21207,17171
21189,17111
21183,17050
21189,16988
21207,16928
21225,16895
21236,16874
21276,16826
21324,16786
21378,16757
21378,16757
21438,16739
21469,16736
21484,16735
21515,16735
21530,16736
Z" /> 
<path style="fill:#000000; fill-opacity:1.0; 
stroke:#000000; stroke-width:0; stroke-opacity:1; 
stroke-linecap:round; stroke-linejoin:round;fill-rule:evenodd;"
d="M 3409,16450
3493,16485
3493,16485
3558,16528
3569,16535
3633,16600
3683,16675
3718,16759
3736,16848
3736,16939
3718,17028
3683,17111
3683,17111
3633,17187
3569,17251
3493,17301
3493,17301
3493,17301
3409,17336
3320,17354
3230,17354
3141,17336
3057,17301
3057,17301
3057,17301
2981,17251
2917,17187
2867,17111
2867,17111
2832,17028
2814,16939
2814,16848
2832,16759
2867,16675
2917,16600
2981,16535
2992,16528
3057,16485
3057,16485
3141,16450
3230,16433
3320,16433
3409,16450
Z" /> 
<path style="fill:#000000; fill-opacity:1.0; 
stroke:#000000; stroke-width:0; stroke-opacity:1; 
stroke-linecap:round; stroke-linejoin:round;fill-rule:evenodd;"
d="M 1441,16450
1525,16485
1525,16485
1590,16528
1600,16535
1664,16600
1715,16675
1750,16759
1767,16848
1767,16939
1750,17028
1715,17111
1715,17111
1664,17187
1600,17251
1525,17301
1525,17301
1525,17301
1441,17336
1352,17354
1261,17354
1172,17336
1088,17301
1088,17301
1088,17301
1013,17251
949,17187
898,17111
898,17111
864,17028
846,16939
846,16848
864,16759
898,16675
949,16600
1013,16535
1024,16528
1088,16485
1088,16485
1172,16450
1261,16433
1352,16433
1441,16450
Z" /> 
<path style="fill:#000000; fill-opacity:1.0; 
stroke:#000000; stroke-width:0; stroke-opacity:1; 
stroke-linecap:round; stroke-linejoin:round;fill-rule:evenodd;"
d="M 32721,16327
32745,16335
32784,16346
32784,16346
32842,16377
32893,16419
32935,16470
32936,16474
32966,16528
32968,16535
32985,16591
32991,16657
32985,16723
32966,16786
32935,16844
32893,16895
32842,16937
32798,16960
32784,16968
32752,16977
32721,16987
32671,16992
32540,16992
32491,16987
32459,16977
32428,16968
32413,16960
32370,16937
32319,16895
32277,16844
32246,16786
32227,16723
32220,16657
32227,16591
32244,16535
32246,16528
32275,16474
32277,16470
32319,16419
32370,16377
32428,16346
32428,16346
32467,16335
32491,16327
32540,16322
32671,16322
32721,16327
Z" /> 
<path style="fill:#000000; fill-opacity:1.0; 
stroke:#000000; stroke-width:0; stroke-opacity:1; 
stroke-linecap:round; stroke-linejoin:round;fill-rule:evenodd;"
d="M 26280,16336
26311,16339
26371,16357
26371,16357
26425,16386
26473,16426
26513,16474
26519,16485
26542,16528
26560,16588
26566,16650
26560,16711
26545,16759
26542,16771
26513,16825
26473,16873
26425,16913
26377,16939
26371,16942
26311,16960
26280,16963
26265,16964
26234,16964
26219,16963
26188,16960
26128,16942
26122,16939
26074,16913
26026,16873
25986,16825
25957,16771
25954,16759
25939,16711
25933,16650
25939,16588
25957,16528
25980,16485
25986,16474
26026,16426
26074,16386
26128,16357
26128,16357
26188,16339
26219,16336
26234,16335
26265,16335
26280,16336
Z" /> 
<path style="fill:#000000; fill-opacity:1.0; 
stroke:#000000; stroke-width:0; stroke-opacity:1; 
stroke-linecap:round; stroke-linejoin:round;fill-rule:evenodd;"
d="M 29280,16336
29311,16339
29371,16357
29371,16357
29425,16386
29473,16426
29513,16474
29519,16485
29542,16528
29560,16588
29566,16650
29560,16711
29545,16759
29542,16771
29513,16825
29473,16873
29425,16913
29377,16939
29371,16942
29311,16960
29280,16963
29265,16964
29234,16964
29219,16963
29188,16960
29128,16942
29122,16939
29074,16913
29026,16873
28986,16825
28957,16771
28954,16759
28939,16711
28933,16650
28939,16588
28957,16528
28980,16485
28986,16474
29026,16426
29074,16386
29128,16357
29128,16357
29188,16339
29219,16336
29234,16335
29265,16335
29280,16336
Z" /> 
<path style="fill:#000000; fill-opacity:1.0; 
stroke:#000000; stroke-width:0; stroke-opacity:1; 
stroke-linecap:round; stroke-linejoin:round;fill-rule:evenodd;"
d="M 32721,15343
32752,15352
32784,15362
32784,15362
32842,15393
32893,15435
32935,15486
32966,15544
32985,15607
32991,15673
32985,15738
32966,15801
32935,15860
32893,15911
32842,15952
32784,15983
32784,15983
32752,15993
32721,16003
32671,16007
32540,16007
32491,16003
32459,15993
32428,15983
32428,15983
32370,15952
32319,15911
32277,15860
32246,15801
32227,15738
32220,15673
32227,15607
32246,15544
32277,15486
32319,15435
32370,15393
32428,15362
32428,15362
32459,15352
32491,15343
32540,15338
32671,15338
32721,15343
Z" /> 
<path style="fill:#000000; fill-opacity:1.0; 
stroke:#000000; stroke-width:0; stroke-opacity:1; 
stroke-linecap:round; stroke-linejoin:round;fill-rule:evenodd;"
d="M 26280,15336
26311,15339
26371,15357
26371,15357
26425,15386
26425,15386
26425,15386
26473,15426
26513,15474
26542,15528
26560,15588
26566,15650
26560,15711
26552,15738
26542,15771
26513,15825
26473,15873
26425,15913
26371,15942
26371,15942
26311,15960
26280,15963
26265,15964
26234,15964
26219,15963
26188,15960
26128,15942
26128,15942
26074,15913
26026,15873
25986,15825
25957,15771
25947,15738
25939,15711
25933,15650
25939,15588
25957,15528
25986,15474
26026,15426
26074,15386
26074,15386
26074,15386
26128,15357
26128,15357
26188,15339
26219,15336
26234,15335
26265,15335
26280,15336
Z" /> 
<path style="fill:#000000; fill-opacity:1.0; 
stroke:#000000; stroke-width:0; stroke-opacity:1; 
stroke-linecap:round; stroke-linejoin:round;fill-rule:evenodd;"
d="M 29280,15336
29311,15339
29371,15357
29371,15357
29425,15386
29425,15386
29425,15386
29473,15426
29513,15474
29542,15528
29560,15588
29566,15650
29560,15711
29552,15738
29542,15771
29513,15825
29473,15873
29425,15913
29371,15942
29371,15942
29311,15960
29280,15963
29265,15964
29234,15964
29219,15963
29188,15960
29128,15942
29128,15942
29074,15913
29026,15873
28986,15825
28957,15771
28947,15738
28939,15711
28933,15650
28939,15588
28957,15528
28986,15474
29026,15426
29074,15386
29074,15386
29074,15386
29128,15357
29128,15357
29188,15339
29219,15336
29234,15335
29265,15335
29280,15336
Z" /> 
<path style="fill:#000000; fill-opacity:1.0; 
stroke:#000000; stroke-width:0; stroke-opacity:1; 
stroke-linecap:round; stroke-linejoin:round;fill-rule:evenodd;"
d="M 18164,15016
18218,15038
18266,15070
18308,15111
18340,15160
18362,15213
18374,15270
18374,15329
18362,15386
18340,15439
18308,15488
18266,15529
18218,15561
18164,15583
18107,15595
18049,15595
17992,15583
17938,15561
17890,15529
17849,15488
17817,15439
17794,15386
17783,15329
17783,15270
17794,15213
17817,15160
17849,15111
17890,15070
17938,15038
17992,15016
18049,15004
18107,15004
18164,15016
Z" /> 
<path style="fill:#000000; fill-opacity:1.0; 
stroke:#000000; stroke-width:0; stroke-opacity:1; 
stroke-linecap:round; stroke-linejoin:round;fill-rule:evenodd;"
d="M 20086,15016
20139,15038
20188,15070
20229,15111
20261,15160
20283,15213
20295,15270
20295,15329
20283,15386
20261,15439
20229,15488
20188,15529
20139,15561
20086,15583
20029,15595
19970,15595
19913,15583
19860,15561
19811,15529
19770,15488
19738,15439
19716,15386
19704,15329
19704,15270
19716,15213
19738,15160
19770,15111
19811,15070
19860,15038
19913,15016
19970,15004
20029,15004
20086,15016
Z" /> 
<path style="fill:#000000; fill-opacity:1.0; 
stroke:#000000; stroke-width:0; stroke-opacity:1; 
stroke-linecap:round; stroke-linejoin:round;fill-rule:evenodd;"
d="M 32721,14359
32752,14368
32784,14378
32784,14378
32842,14409
32893,14451
32935,14502
32966,14560
32985,14623
32991,14688
32985,14754
32966,14817
32935,14875
32893,14926
32842,14968
32784,14999
32784,14999
32752,15009
32721,15018
32671,15023
32540,15023
32491,15018
32459,15009
32428,14999
32428,14999
32370,14968
32319,14926
32277,14875
32246,14817
32227,14754
32220,14688
32227,14623
32246,14560
32277,14502
32319,14451
32370,14409
32428,14378
32428,14378
32459,14368
32491,14359
32540,14354
32671,14354
32721,14359
Z" /> 
<path style="fill:#000000; fill-opacity:1.0; 
stroke:#000000; stroke-width:0; stroke-opacity:1; 
stroke-linecap:round; stroke-linejoin:round;fill-rule:evenodd;"
d="M 26280,14336
26311,14339
26371,14357
26371,14357
26425,14386
26473,14426
26513,14474
26528,14502
26542,14528
26560,14588
26566,14650
26560,14711
26547,14754
26542,14771
26513,14825
26473,14873
26425,14913
26400,14926
26371,14942
26311,14960
26280,14963
26265,14964
26234,14964
26219,14963
26188,14960
26128,14942
26099,14926
26074,14913
26026,14873
25986,14825
25957,14771
25952,14754
25939,14711
25933,14650
25939,14588
25957,14528
25971,14502
25986,14474
26026,14426
26074,14386
26128,14357
26128,14357
26188,14339
26219,14336
26234,14335
26265,14335
26280,14336
Z" /> 
<path style="fill:#000000; fill-opacity:1.0; 
stroke:#000000; stroke-width:0; stroke-opacity:1; 
stroke-linecap:round; stroke-linejoin:round;fill-rule:evenodd;"
d="M 29280,14336
29311,14339
29371,14357
29371,14357
29425,14386
29473,14426
29513,14474
29528,14502
29542,14528
29560,14588
29566,14650
29560,14711
29547,14754
29542,14771
29513,14825
29473,14873
29425,14913
29400,14926
29371,14942
29311,14960
29280,14963
29265,14964
29234,14964
29219,14963
29188,14960
29128,14942
29099,14926
29074,14913
29026,14873
28986,14825
28957,14771
28952,14754
28939,14711
28933,14650
28939,14588
28957,14528
28971,14502
28986,14474
29026,14426
29074,14386
29128,14357
29128,14357
29188,14339
29219,14336
29234,14335
29265,14335
29280,14336
Z" /> 
<path style="fill:#000000; fill-opacity:1.0; 
stroke:#000000; stroke-width:0; stroke-opacity:1; 
stroke-linecap:round; stroke-linejoin:round;fill-rule:evenodd;"
d="M 4404,14704
3695,14704
3695,13995
4404,13995
4404,14704
Z" /> 
<path style="fill:#000000; fill-opacity:1.0; 
stroke:#000000; stroke-width:0; stroke-opacity:1; 
stroke-linecap:round; stroke-linejoin:round;fill-rule:evenodd;"
d="M 3119,14000
3119,14000
3119,14000
3186,14021
3186,14021
3186,14021
3247,14053
3301,14098
3346,14152
3378,14213
3399,14280
3406,14350
3399,14419
3399,14419
3399,14419
3382,14474
3378,14486
3346,14547
3301,14601
3247,14646
3186,14678
3186,14678
3186,14678
3119,14699
3119,14699
3119,14699
3067,14704
3032,14704
2980,14699
2980,14699
2980,14699
2913,14678
2913,14678
2913,14678
2852,14646
2798,14601
2753,14547
2721,14486
2717,14474
2700,14419
2700,14419
2700,14419
2693,14350
2700,14280
2721,14213
2753,14152
2798,14098
2852,14053
2913,14021
2913,14021
2913,14021
2980,14000
2980,14000
2980,14000
3032,13995
3067,13995
3119,14000
Z" /> 
<path style="fill:#000000; fill-opacity:1.0; 
stroke:#000000; stroke-width:0; stroke-opacity:1; 
stroke-linecap:round; stroke-linejoin:round;fill-rule:evenodd;"
d="M 2119,14000
2119,14000
2119,14000
2186,14021
2186,14021
2186,14021
2247,14053
2301,14098
2346,14152
2378,14213
2399,14280
2406,14350
2399,14419
2399,14419
2399,14419
2382,14474
2378,14486
2346,14547
2301,14601
2247,14646
2186,14678
2186,14678
2186,14678
2119,14699
2119,14699
2119,14699
2067,14704
2032,14704
1980,14699
1980,14699
1980,14699
1913,14678
1913,14678
1913,14678
1852,14646
1798,14601
1753,14547
1721,14486
1717,14474
1700,14419
1700,14419
1700,14419
1693,14350
1700,14280
1721,14213
1753,14152
1798,14098
1852,14053
1913,14021
1913,14021
1913,14021
1980,14000
1980,14000
1980,14000
2032,13995
2067,13995
2119,14000
Z" /> 
<path style="fill:#000000; fill-opacity:1.0; 
stroke:#000000; stroke-width:0; stroke-opacity:1; 
stroke-linecap:round; stroke-linejoin:round;fill-rule:evenodd;"
d="M 32721,13374
32752,13384
32784,13394
32784,13394
32842,13425
32893,13466
32935,13517
32966,13576
32985,13639
32991,13704
32985,13770
32975,13801
32969,13823
32966,13833
32935,13891
32893,13942
32842,13984
32821,13995
32784,14015
32765,14021
32721,14034
32671,14039
32540,14039
32491,14034
32447,14021
32428,14015
32391,13995
32370,13984
32319,13942
32277,13891
32246,13833
32243,13823
32236,13801
32227,13770
32220,13704
32227,13639
32246,13576
32277,13517
32319,13466
32370,13425
32428,13394
32428,13394
32459,13384
32491,13374
32540,13370
32671,13370
32721,13374
Z" /> 
<path style="fill:#000000; fill-opacity:1.0; 
stroke:#000000; stroke-width:0; stroke-opacity:1; 
stroke-linecap:round; stroke-linejoin:round;fill-rule:evenodd;"
d="M 10914,13914
10285,13914
10285,13285
10914,13285
10914,13914
Z" /> 
<path style="fill:#000000; fill-opacity:1.0; 
stroke:#000000; stroke-width:0; stroke-opacity:1; 
stroke-linecap:round; stroke-linejoin:round;fill-rule:evenodd;"
d="M 23630,13286
23661,13289
23721,13307
23721,13307
23775,13336
23823,13376
23863,13424
23892,13478
23892,13478
23910,13538
23916,13600
23910,13661
23892,13721
23892,13721
23863,13775
23823,13823
23775,13863
23722,13891
23721,13892
23661,13910
23630,13913
23615,13914
23584,13914
23569,13913
23538,13910
23478,13892
23477,13891
23424,13863
23376,13823
23336,13775
23307,13721
23307,13721
23289,13661
23283,13600
23289,13538
23307,13478
23307,13478
23336,13424
23376,13376
23424,13336
23478,13307
23478,13307
23538,13289
23569,13286
23584,13285
23615,13285
23630,13286
Z" /> 
<path style="fill:#000000; fill-opacity:1.0; 
stroke:#000000; stroke-width:0; stroke-opacity:1; 
stroke-linecap:round; stroke-linejoin:round;fill-rule:evenodd;"
d="M 11630,13286
11661,13289
11721,13307
11721,13307
11775,13336
11823,13376
11863,13424
11892,13478
11892,13478
11910,13538
11916,13600
11910,13661
11892,13721
11892,13721
11863,13775
11823,13823
11775,13863
11722,13891
11721,13892
11661,13910
11630,13913
11615,13914
11584,13914
11569,13913
11538,13910
11478,13892
11477,13891
11424,13863
11376,13823
11336,13775
11307,13721
11307,13721
11289,13661
11283,13600
11289,13538
11307,13478
11307,13478
11336,13424
11376,13376
11424,13336
11478,13307
11478,13307
11538,13289
11569,13286
11584,13285
11615,13285
11630,13286
Z" /> 
<path style="fill:#000000; fill-opacity:1.0; 
stroke:#000000; stroke-width:0; stroke-opacity:1; 
stroke-linecap:round; stroke-linejoin:round;fill-rule:evenodd;"
d="M 21630,13286
21661,13289
21721,13307
21721,13307
21775,13336
21823,13376
21863,13424
21892,13478
21892,13478
21910,13538
21916,13600
21910,13661
21892,13721
21892,13721
21863,13775
21823,13823
21775,13863
21722,13891
21721,13892
21661,13910
21630,13913
21615,13914
21584,13914
21569,13913
21538,13910
21478,13892
21477,13891
21424,13863
21376,13823
21336,13775
21307,13721
21307,13721
21289,13661
21283,13600
21289,13538
21307,13478
21307,13478
21336,13424
21376,13376
21424,13336
21478,13307
21478,13307
21538,13289
21569,13286
21584,13285
21615,13285
21630,13286
Z" /> 
<path style="fill:#000000; fill-opacity:1.0; 
stroke:#000000; stroke-width:0; stroke-opacity:1; 
stroke-linecap:round; stroke-linejoin:round;fill-rule:evenodd;"
d="M 20630,13286
20661,13289
20721,13307
20721,13307
20775,13336
20823,13376
20863,13424
20892,13478
20892,13478
20910,13538
20916,13600
20910,13661
20892,13721
20892,13721
20863,13775
20823,13823
20775,13863
20722,13891
20721,13892
20661,13910
20630,13913
20615,13914
20584,13914
20569,13913
20538,13910
20478,13892
20477,13891
20424,13863
20376,13823
20336,13775
20307,13721
20307,13721
20289,13661
20283,13600
20289,13538
20307,13478
20307,13478
20336,13424
20376,13376
20424,13336
20478,13307
20478,13307
20538,13289
20569,13286
20584,13285
20615,13285
20630,13286
Z" /> 
<path style="fill:#000000; fill-opacity:1.0; 
stroke:#000000; stroke-width:0; stroke-opacity:1; 
stroke-linecap:round; stroke-linejoin:round;fill-rule:evenodd;"
d="M 19630,13286
19661,13289
19721,13307
19721,13307
19775,13336
19823,13376
19863,13424
19892,13478
19892,13478
19910,13538
19916,13600
19910,13661
19892,13721
19892,13721
19863,13775
19823,13823
19775,13863
19722,13891
19721,13892
19661,13910
19630,13913
19615,13914
19584,13914
19569,13913
19538,13910
19478,13892
19477,13891
19424,13863
19376,13823
19336,13775
19307,13721
19307,13721
19289,13661
19283,13600
19289,13538
19307,13478
19307,13478
19336,13424
19376,13376
19424,13336
19478,13307
19478,13307
19538,13289
19569,13286
19584,13285
19615,13285
19630,13286
Z" /> 
<path style="fill:#000000; fill-opacity:1.0; 
stroke:#000000; stroke-width:0; stroke-opacity:1; 
stroke-linecap:round; stroke-linejoin:round;fill-rule:evenodd;"
d="M 13630,13286
13661,13289
13721,13307
13721,13307
13775,13336
13823,13376
13863,13424
13892,13478
13892,13478
13910,13538
13916,13600
13910,13661
13892,13721
13892,13721
13863,13775
13823,13823
13775,13863
13722,13891
13721,13892
13661,13910
13630,13913
13615,13914
13584,13914
13569,13913
13538,13910
13478,13892
13477,13891
13424,13863
13376,13823
13336,13775
13307,13721
13307,13721
13289,13661
13283,13600
13289,13538
13307,13478
13307,13478
13336,13424
13376,13376
13424,13336
13478,13307
13478,13307
13538,13289
13569,13286
13584,13285
13615,13285
13630,13286
Z" /> 
<path style="fill:#000000; fill-opacity:1.0; 
stroke:#000000; stroke-width:0; stroke-opacity:1; 
stroke-linecap:round; stroke-linejoin:round;fill-rule:evenodd;"
d="M 14630,13286
14661,13289
14721,13307
14721,13307
14775,13336
14823,13376
14863,13424
14892,13478
14892,13478
14910,13538
14916,13600
14910,13661
14892,13721
14892,13721
14863,13775
14823,13823
14775,13863
14722,13891
14721,13892
14661,13910
14630,13913
14615,13914
14584,13914
14569,13913
14538,13910
14478,13892
14477,13891
14424,13863
14376,13823
14336,13775
14307,13721
14307,13721
14289,13661
14283,13600
14289,13538
14307,13478
14307,13478
14336,13424
14376,13376
14424,13336
14478,13307
14478,13307
14538,13289
14569,13286
14584,13285
14615,13285
14630,13286
Z" /> 
<path style="fill:#000000; fill-opacity:1.0; 
stroke:#000000; stroke-width:0; stroke-opacity:1; 
stroke-linecap:round; stroke-linejoin:round;fill-rule:evenodd;"
d="M 22630,13286
22661,13289
22721,13307
22721,13307
22775,13336
22823,13376
22863,13424
22892,13478
22892,13478
22910,13538
22916,13600
22910,13661
22892,13721
22892,13721
22863,13775
22823,13823
22775,13863
22722,13891
22721,13892
22661,13910
22630,13913
22615,13914
22584,13914
22569,13913
22538,13910
22478,13892
22477,13891
22424,13863
22376,13823
22336,13775
22307,13721
22307,13721
22289,13661
22283,13600
22289,13538
22307,13478
22307,13478
22336,13424
22376,13376
22424,13336
22478,13307
22478,13307
22538,13289
22569,13286
22584,13285
22615,13285
22630,13286
Z" /> 
<path style="fill:#000000; fill-opacity:1.0; 
stroke:#000000; stroke-width:0; stroke-opacity:1; 
stroke-linecap:round; stroke-linejoin:round;fill-rule:evenodd;"
d="M 15630,13286
15661,13289
15721,13307
15721,13307
15775,13336
15823,13376
15863,13424
15892,13478
15892,13478
15910,13538
15916,13600
15910,13661
15892,13721
15892,13721
15863,13775
15823,13823
15775,13863
15722,13891
15721,13892
15661,13910
15630,13913
15615,13914
15584,13914
15569,13913
15538,13910
15478,13892
15477,13891
15424,13863
15376,13823
15336,13775
15307,13721
15307,13721
15289,13661
15283,13600
15289,13538
15307,13478
15307,13478
15336,13424
15376,13376
15424,13336
15478,13307
15478,13307
15538,13289
15569,13286
15584,13285
15615,13285
15630,13286
Z" /> 
<path style="fill:#000000; fill-opacity:1.0; 
stroke:#000000; stroke-width:0; stroke-opacity:1; 
stroke-linecap:round; stroke-linejoin:round;fill-rule:evenodd;"
d="M 12630,13286
12661,13289
12721,13307
12721,13307
12775,13336
12823,13376
12863,13424
12892,13478
12892,13478
12910,13538
12916,13600
12910,13661
12892,13721
12892,13721
12863,13775
12823,13823
12775,13863
12722,13891
12721,13892
12661,13910
12630,13913
12615,13914
12584,13914
12569,13913
12538,13910
12478,13892
12477,13891
12424,13863
12376,13823
12336,13775
12307,13721
12307,13721
12289,13661
12283,13600
12289,13538
12307,13478
12307,13478
12336,13424
12376,13376
12424,13336
12478,13307
12478,13307
12538,13289
12569,13286
12584,13285
12615,13285
12630,13286
Z" /> 
<path style="fill:#000000; fill-opacity:1.0; 
stroke:#000000; stroke-width:0; stroke-opacity:1; 
stroke-linecap:round; stroke-linejoin:round;fill-rule:evenodd;"
d="M 16630,13286
16661,13289
16721,13307
16721,13307
16775,13336
16823,13376
16863,13424
16892,13478
16892,13478
16910,13538
16916,13600
16910,13661
16892,13721
16892,13721
16863,13775
16823,13823
16775,13863
16722,13891
16721,13892
16661,13910
16630,13913
16615,13914
16584,13914
16569,13913
16538,13910
16478,13892
16477,13891
16424,13863
16376,13823
16336,13775
16307,13721
16307,13721
16289,13661
16283,13600
16289,13538
16307,13478
16307,13478
16336,13424
16376,13376
16424,13336
16478,13307
16478,13307
16538,13289
16569,13286
16584,13285
16615,13285
16630,13286
Z" /> 
<path style="fill:#000000; fill-opacity:1.0; 
stroke:#000000; stroke-width:0; stroke-opacity:1; 
stroke-linecap:round; stroke-linejoin:round;fill-rule:evenodd;"
d="M 17630,13286
17661,13289
17721,13307
17721,13307
17775,13336
17823,13376
17863,13424
17892,13478
17892,13478
17910,13538
17916,13600
17910,13661
17892,13721
17892,13721
17863,13775
17823,13823
17775,13863
17722,13891
17721,13892
17661,13910
17630,13913
17615,13914
17584,13914
17569,13913
17538,13910
17478,13892
17477,13891
17424,13863
17376,13823
17336,13775
17307,13721
17307,13721
17289,13661
17283,13600
17289,13538
17307,13478
17307,13478
17336,13424
17376,13376
17424,13336
17478,13307
17478,13307
17538,13289
17569,13286
17584,13285
17615,13285
17630,13286
Z" /> 
<path style="fill:#000000; fill-opacity:1.0; 
stroke:#000000; stroke-width:0; stroke-opacity:1; 
stroke-linecap:round; stroke-linejoin:round;fill-rule:evenodd;"
d="M 18630,13286
18661,13289
18721,13307
18721,13307
18775,13336
18823,13376
18863,13424
18892,13478
18892,13478
18910,13538
18916,13600
18910,13661
18892,13721
18892,13721
18863,13775
18823,13823
18775,13863
18722,13891
18721,13892
18661,13910
18630,13913
18615,13914
18584,13914
18569,13913
18538,13910
18478,13892
18477,13891
18424,13863
18376,13823
18336,13775
18307,13721
18307,13721
18289,13661
18283,13600
18289,13538
18307,13478
18307,13478
18336,13424
18376,13376
18424,13336
18478,13307
18478,13307
18538,13289
18569,13286
18584,13285
18615,13285
18630,13286
Z" /> 
<path style="fill:#000000; fill-opacity:1.0; 
stroke:#000000; stroke-width:0; stroke-opacity:1; 
stroke-linecap:round; stroke-linejoin:round;fill-rule:evenodd;"
d="M 32721,12390
32752,12400
32784,12409
32784,12409
32842,12440
32893,12482
32935,12533
32966,12591
32985,12654
32991,12720
32985,12786
32966,12849
32935,12907
32893,12958
32842,13000
32784,13031
32784,13031
32752,13040
32721,13050
32671,13055
32540,13055
32491,13050
32459,13040
32428,13031
32428,13031
32370,13000
32319,12958
32277,12907
32246,12849
32227,12786
32220,12720
32227,12654
32246,12591
32277,12533
32319,12482
32370,12440
32428,12409
32428,12409
32459,12400
32491,12390
32540,12385
32671,12385
32721,12390
Z" /> 
<path style="fill:#000000; fill-opacity:1.0; 
stroke:#000000; stroke-width:0; stroke-opacity:1; 
stroke-linecap:round; stroke-linejoin:round;fill-rule:evenodd;"
d="M 5507,12210
5507,12210
5507,12210
5543,12225
5559,12236
5575,12247
5602,12274
5624,12306
5639,12342
5646,12380
5646,12419
5639,12457
5639,12457
5624,12493
5602,12525
5575,12552
5543,12574
5543,12574
5543,12574
5507,12589
5469,12596
5430,12596
5392,12589
5356,12574
5356,12574
5356,12574
5324,12552
5297,12525
5275,12493
5260,12457
5260,12457
5253,12419
5253,12380
5260,12342
5275,12306
5297,12274
5324,12247
5340,12236
5356,12225
5392,12210
5392,12210
5392,12210
5430,12203
5469,12203
5507,12210
Z" /> 
<path style="fill:#000000; fill-opacity:1.0; 
stroke:#000000; stroke-width:0; stroke-opacity:1; 
stroke-linecap:round; stroke-linejoin:round;fill-rule:evenodd;"
d="M 32721,11406
32752,11415
32784,11425
32784,11425
32842,11456
32893,11498
32935,11549
32966,11607
32985,11670
32991,11736
32985,11801
32966,11864
32935,11923
32893,11973
32842,12015
32784,12046
32784,12046
32752,12056
32721,12066
32671,12070
32540,12070
32491,12066
32459,12056
32428,12046
32428,12046
32370,12015
32319,11973
32277,11923
32246,11864
32227,11801
32220,11736
32227,11670
32246,11607
32277,11549
32319,11498
32370,11456
32428,11425
32428,11425
32459,11415
32491,11406
32540,11401
32671,11401
32721,11406
Z" /> 
<path style="fill:#000000; fill-opacity:1.0; 
stroke:#000000; stroke-width:0; stroke-opacity:1; 
stroke-linecap:round; stroke-linejoin:round;fill-rule:evenodd;"
d="M 5507,11462
5507,11462
5507,11462
5543,11477
5559,11488
5575,11499
5602,11526
5624,11558
5639,11594
5646,11632
5646,11671
5639,11709
5639,11709
5624,11745
5602,11777
5575,11804
5543,11826
5543,11826
5543,11826
5507,11841
5469,11848
5430,11848
5392,11841
5356,11826
5356,11826
5356,11826
5324,11804
5297,11777
5275,11745
5260,11709
5260,11709
5253,11671
5253,11632
5260,11594
5275,11558
5297,11526
5324,11499
5340,11488
5356,11477
5392,11462
5392,11462
5392,11462
5430,11455
5469,11455
5507,11462
Z" /> 
<path style="fill:#000000; fill-opacity:1.0; 
stroke:#000000; stroke-width:0; stroke-opacity:1; 
stroke-linecap:round; stroke-linejoin:round;fill-rule:evenodd;"
d="M 32721,10422
32752,10431
32784,10441
32784,10441
32842,10472
32893,10514
32935,10565
32966,10623
32985,10686
32991,10751
32985,10817
32966,10880
32935,10938
32893,10989
32842,11031
32784,11062
32784,11062
32752,11072
32721,11081
32671,11086
32540,11086
32491,11081
32459,11072
32428,11062
32428,11062
32370,11031
32319,10989
32277,10938
32246,10880
32227,10817
32220,10751
32227,10686
32246,10623
32277,10565
32319,10514
32370,10472
32428,10441
32428,10441
32459,10431
32491,10422
32540,10417
32671,10417
32721,10422
Z" /> 
<path style="fill:#000000; fill-opacity:1.0; 
stroke:#000000; stroke-width:0; stroke-opacity:1; 
stroke-linecap:round; stroke-linejoin:round;fill-rule:evenodd;"
d="M 14630,10286
14661,10289
14721,10307
14721,10307
14775,10336
14823,10376
14863,10424
14872,10441
14892,10478
14910,10538
14916,10600
14910,10661
14892,10721
14892,10721
14863,10775
14823,10823
14775,10863
14743,10880
14721,10892
14661,10910
14630,10913
14615,10914
14584,10914
14569,10913
14538,10910
14478,10892
14456,10880
14424,10863
14376,10823
14336,10775
14307,10721
14307,10721
14289,10661
14283,10600
14289,10538
14307,10478
14327,10441
14336,10424
14376,10376
14424,10336
14478,10307
14478,10307
14538,10289
14569,10286
14584,10285
14615,10285
14630,10286
Z" /> 
<path style="fill:#000000; fill-opacity:1.0; 
stroke:#000000; stroke-width:0; stroke-opacity:1; 
stroke-linecap:round; stroke-linejoin:round;fill-rule:evenodd;"
d="M 13630,10286
13661,10289
13721,10307
13721,10307
13775,10336
13823,10376
13863,10424
13872,10441
13892,10478
13910,10538
13916,10600
13910,10661
13892,10721
13892,10721
13863,10775
13823,10823
13775,10863
13743,10880
13721,10892
13661,10910
13630,10913
13615,10914
13584,10914
13569,10913
13538,10910
13478,10892
13456,10880
13424,10863
13376,10823
13336,10775
13307,10721
13307,10721
13289,10661
13283,10600
13289,10538
13307,10478
13327,10441
13336,10424
13376,10376
13424,10336
13478,10307
13478,10307
13538,10289
13569,10286
13584,10285
13615,10285
13630,10286
Z" /> 
<path style="fill:#000000; fill-opacity:1.0; 
stroke:#000000; stroke-width:0; stroke-opacity:1; 
stroke-linecap:round; stroke-linejoin:round;fill-rule:evenodd;"
d="M 12630,10286
12661,10289
12721,10307
12721,10307
12775,10336
12823,10376
12863,10424
12872,10441
12892,10478
12910,10538
12916,10600
12910,10661
12892,10721
12892,10721
12863,10775
12823,10823
12775,10863
12743,10880
12721,10892
12661,10910
12630,10913
12615,10914
12584,10914
12569,10913
12538,10910
12478,10892
12456,10880
12424,10863
12376,10823
12336,10775
12307,10721
12307,10721
12289,10661
12283,10600
12289,10538
12307,10478
12327,10441
12336,10424
12376,10376
12424,10336
12478,10307
12478,10307
12538,10289
12569,10286
12584,10285
12615,10285
12630,10286
Z" /> 
<path style="fill:#000000; fill-opacity:1.0; 
stroke:#000000; stroke-width:0; stroke-opacity:1; 
stroke-linecap:round; stroke-linejoin:round;fill-rule:evenodd;"
d="M 11630,10286
11661,10289
11721,10307
11721,10307
11775,10336
11823,10376
11863,10424
11872,10441
11892,10478
11910,10538
11916,10600
11910,10661
11892,10721
11892,10721
11863,10775
11823,10823
11775,10863
11743,10880
11721,10892
11661,10910
11630,10913
11615,10914
11584,10914
11569,10913
11538,10910
11478,10892
11456,10880
11424,10863
11376,10823
11336,10775
11307,10721
11307,10721
11289,10661
11283,10600
11289,10538
11307,10478
11327,10441
11336,10424
11376,10376
11424,10336
11478,10307
11478,10307
11538,10289
11569,10286
11584,10285
11615,10285
11630,10286
Z" /> 
<path style="fill:#000000; fill-opacity:1.0; 
stroke:#000000; stroke-width:0; stroke-opacity:1; 
stroke-linecap:round; stroke-linejoin:round;fill-rule:evenodd;"
d="M 10630,10286
10661,10289
10721,10307
10721,10307
10775,10336
10823,10376
10863,10424
10872,10441
10892,10478
10910,10538
10916,10600
10910,10661
10892,10721
10892,10721
10863,10775
10823,10823
10775,10863
10743,10880
10721,10892
10661,10910
10630,10913
10615,10914
10584,10914
10569,10913
10538,10910
10478,10892
10456,10880
10424,10863
10376,10823
10336,10775
10307,10721
10307,10721
10289,10661
10283,10600
10289,10538
10307,10478
10327,10441
10336,10424
10376,10376
10424,10336
10478,10307
10478,10307
10538,10289
10569,10286
10584,10285
10615,10285
10630,10286
Z" /> 
<path style="fill:#000000; fill-opacity:1.0; 
stroke:#000000; stroke-width:0; stroke-opacity:1; 
stroke-linecap:round; stroke-linejoin:round;fill-rule:evenodd;"
d="M 21630,10286
21661,10289
21721,10307
21721,10307
21775,10336
21823,10376
21863,10424
21872,10441
21892,10478
21910,10538
21916,10600
21910,10661
21892,10721
21892,10721
21863,10775
21823,10823
21775,10863
21743,10880
21721,10892
21661,10910
21630,10913
21615,10914
21584,10914
21569,10913
21538,10910
21478,10892
21456,10880
21424,10863
21376,10823
21336,10775
21307,10721
21307,10721
21289,10661
21283,10600
21289,10538
21307,10478
21327,10441
21336,10424
21376,10376
21424,10336
21478,10307
21478,10307
21538,10289
21569,10286
21584,10285
21615,10285
21630,10286
Z" /> 
<path style="fill:#000000; fill-opacity:1.0; 
stroke:#000000; stroke-width:0; stroke-opacity:1; 
stroke-linecap:round; stroke-linejoin:round;fill-rule:evenodd;"
d="M 15630,10286
15661,10289
15721,10307
15721,10307
15775,10336
15823,10376
15863,10424
15872,10441
15892,10478
15910,10538
15916,10600
15910,10661
15892,10721
15892,10721
15863,10775
15823,10823
15775,10863
15743,10880
15721,10892
15661,10910
15630,10913
15615,10914
15584,10914
15569,10913
15538,10910
15478,10892
15456,10880
15424,10863
15376,10823
15336,10775
15307,10721
15307,10721
15289,10661
15283,10600
15289,10538
15307,10478
15327,10441
15336,10424
15376,10376
15424,10336
15478,10307
15478,10307
15538,10289
15569,10286
15584,10285
15615,10285
15630,10286
Z" /> 
<path style="fill:#000000; fill-opacity:1.0; 
stroke:#000000; stroke-width:0; stroke-opacity:1; 
stroke-linecap:round; stroke-linejoin:round;fill-rule:evenodd;"
d="M 20630,10286
20661,10289
20721,10307
20721,10307
20775,10336
20823,10376
20863,10424
20872,10441
20892,10478
20910,10538
20916,10600
20910,10661
20892,10721
20892,10721
20863,10775
20823,10823
20775,10863
20743,10880
20721,10892
20661,10910
20630,10913
20615,10914
20584,10914
20569,10913
20538,10910
20478,10892
20456,10880
20424,10863
20376,10823
20336,10775
20307,10721
20307,10721
20289,10661
20283,10600
20289,10538
20307,10478
20327,10441
20336,10424
20376,10376
20424,10336
20478,10307
20478,10307
20538,10289
20569,10286
20584,10285
20615,10285
20630,10286
Z" /> 
<path style="fill:#000000; fill-opacity:1.0; 
stroke:#000000; stroke-width:0; stroke-opacity:1; 
stroke-linecap:round; stroke-linejoin:round;fill-rule:evenodd;"
d="M 16630,10286
16661,10289
16721,10307
16721,10307
16775,10336
16823,10376
16863,10424
16872,10441
16892,10478
16910,10538
16916,10600
16910,10661
16892,10721
16892,10721
16863,10775
16823,10823
16775,10863
16743,10880
16721,10892
16661,10910
16630,10913
16615,10914
16584,10914
16569,10913
16538,10910
16478,10892
16456,10880
16424,10863
16376,10823
16336,10775
16307,10721
16307,10721
16289,10661
16283,10600
16289,10538
16307,10478
16327,10441
16336,10424
16376,10376
16424,10336
16478,10307
16478,10307
16538,10289
16569,10286
16584,10285
16615,10285
16630,10286
Z" /> 
<path style="fill:#000000; fill-opacity:1.0; 
stroke:#000000; stroke-width:0; stroke-opacity:1; 
stroke-linecap:round; stroke-linejoin:round;fill-rule:evenodd;"
d="M 19630,10286
19661,10289
19721,10307
19721,10307
19775,10336
19823,10376
19863,10424
19872,10441
19892,10478
19910,10538
19916,10600
19910,10661
19892,10721
19892,10721
19863,10775
19823,10823
19775,10863
19743,10880
19721,10892
19661,10910
19630,10913
19615,10914
19584,10914
19569,10913
19538,10910
19478,10892
19456,10880
19424,10863
19376,10823
19336,10775
19307,10721
19307,10721
19289,10661
19283,10600
19289,10538
19307,10478
19327,10441
19336,10424
19376,10376
19424,10336
19478,10307
19478,10307
19538,10289
19569,10286
19584,10285
19615,10285
19630,10286
Z" /> 
<path style="fill:#000000; fill-opacity:1.0; 
stroke:#000000; stroke-width:0; stroke-opacity:1; 
stroke-linecap:round; stroke-linejoin:round;fill-rule:evenodd;"
d="M 17630,10286
17661,10289
17721,10307
17721,10307
17775,10336
17823,10376
17863,10424
17872,10441
17892,10478
17910,10538
17916,10600
17910,10661
17892,10721
17892,10721
17863,10775
17823,10823
17775,10863
17743,10880
17721,10892
17661,10910
17630,10913
17615,10914
17584,10914
17569,10913
17538,10910
17478,10892
17456,10880
17424,10863
17376,10823
17336,10775
17307,10721
17307,10721
17289,10661
17283,10600
17289,10538
17307,10478
17327,10441
17336,10424
17376,10376
17424,10336
17478,10307
17478,10307
17538,10289
17569,10286
17584,10285
17615,10285
17630,10286
Z" /> 
<path style="fill:#000000; fill-opacity:1.0; 
stroke:#000000; stroke-width:0; stroke-opacity:1; 
stroke-linecap:round; stroke-linejoin:round;fill-rule:evenodd;"
d="M 18630,10286
18661,10289
18721,10307
18721,10307
18775,10336
18823,10376
18863,10424
18872,10441
18892,10478
18910,10538
18916,10600
18910,10661
18892,10721
18892,10721
18863,10775
18823,10823
18775,10863
18743,10880
18721,10892
18661,10910
18630,10913
18615,10914
18584,10914
18569,10913
18538,10910
18478,10892
18456,10880
18424,10863
18376,10823
18336,10775
18307,10721
18307,10721
18289,10661
18283,10600
18289,10538
18307,10478
18327,10441
18336,10424
18376,10376
18424,10336
18478,10307
18478,10307
18538,10289
18569,10286
18584,10285
18615,10285
18630,10286
Z" /> 
<path style="fill:#000000; fill-opacity:1.0; 
stroke:#000000; stroke-width:0; stroke-opacity:1; 
stroke-linecap:round; stroke-linejoin:round;fill-rule:evenodd;"
d="M 23630,10286
23661,10289
23721,10307
23721,10307
23775,10336
23823,10376
23863,10424
23872,10441
23892,10478
23910,10538
23916,10600
23910,10661
23892,10721
23892,10721
23863,10775
23823,10823
23775,10863
23743,10880
23721,10892
23661,10910
23630,10913
23615,10914
23584,10914
23569,10913
23538,10910
23478,10892
23456,10880
23424,10863
23376,10823
23336,10775
23307,10721
23307,10721
23289,10661
23283,10600
23289,10538
23307,10478
23327,10441
23336,10424
23376,10376
23424,10336
23478,10307
23478,10307
23538,10289
23569,10286
23584,10285
23615,10285
23630,10286
Z" /> 
<path style="fill:#000000; fill-opacity:1.0; 
stroke:#000000; stroke-width:0; stroke-opacity:1; 
stroke-linecap:round; stroke-linejoin:round;fill-rule:evenodd;"
d="M 22630,10286
22661,10289
22721,10307
22721,10307
22775,10336
22823,10376
22863,10424
22872,10441
22892,10478
22910,10538
22916,10600
22910,10661
22892,10721
22892,10721
22863,10775
22823,10823
22775,10863
22743,10880
22721,10892
22661,10910
22630,10913
22615,10914
22584,10914
22569,10913
22538,10910
22478,10892
22456,10880
22424,10863
22376,10823
22336,10775
22307,10721
22307,10721
22289,10661
22283,10600
22289,10538
22307,10478
22327,10441
22336,10424
22376,10376
22424,10336
22478,10307
22478,10307
22538,10289
22569,10286
22584,10285
22615,10285
22630,10286
Z" /> 
<path style="fill:#000000; fill-opacity:1.0; 
stroke:#000000; stroke-width:0; stroke-opacity:1; 
stroke-linecap:round; stroke-linejoin:round;fill-rule:evenodd;"
d="M 32938,9434
32950,9438
32961,9444
32971,9451
32979,9461
32985,9472
32988,9484
32990,9499
32990,10036
32988,10051
32985,10062
32979,10073
32971,10083
32961,10091
32950,10097
32938,10100
32924,10102
32288,10102
32273,10100
32261,10097
32250,10091
32241,10083
32233,10073
32227,10062
32223,10051
32222,10036
32222,9499
32223,9484
32227,9472
32233,9461
32241,9451
32250,9444
32261,9438
32273,9434
32288,9433
32924,9433
32938,9434
Z" /> 
<path style="fill:#000000; fill-opacity:1.0; 
stroke:#000000; stroke-width:0; stroke-opacity:1; 
stroke-linecap:round; stroke-linejoin:round;fill-rule:evenodd;"
d="M 15930,8916
15955,8921
16027,8951
16091,8994
16146,9049
16189,9113
16219,9185
16234,9261
16234,9338
16219,9414
16189,9486
16146,9550
16091,9605
16027,9648
15955,9678
15930,9683
15879,9693
15802,9693
15751,9683
15726,9678
15654,9648
15589,9605
15535,9550
15492,9486
15462,9414
15447,9338
15447,9261
15462,9185
15492,9113
15535,9049
15589,8994
15654,8951
15726,8921
15751,8916
15802,8906
15879,8906
15930,8916
Z" /> 
<path style="fill:#000000; fill-opacity:1.0; 
stroke:#000000; stroke-width:0; stroke-opacity:1; 
stroke-linecap:round; stroke-linejoin:round;fill-rule:evenodd;"
d="M 18489,8916
18514,8921
18586,8951
18650,8994
18705,9049
18748,9113
18778,9185
18793,9261
18793,9338
18778,9414
18748,9486
18705,9550
18650,9605
18586,9648
18514,9678
18489,9683
18438,9693
18361,9693
18310,9683
18285,9678
18213,9648
18149,9605
18094,9550
18051,9486
18021,9414
18006,9338
18006,9261
18021,9185
18051,9113
18094,9049
18149,8994
18213,8951
18285,8921
18310,8916
18361,8906
18438,8906
18489,8916
Z" /> 
<path style="fill:#000000; fill-opacity:1.0; 
stroke:#000000; stroke-width:0; stroke-opacity:1; 
stroke-linecap:round; stroke-linejoin:round;fill-rule:evenodd;"
d="M 10633,9533
9766,9533
9766,8666
10633,8666
10633,9533
Z" /> 
<path style="fill:#000000; fill-opacity:1.0; 
stroke:#000000; stroke-width:0; stroke-opacity:1; 
stroke-linecap:round; stroke-linejoin:round;fill-rule:evenodd;"
d="M 14253,8670
14284,8673
14345,8691
14366,8697
14441,8738
14507,8792
14561,8858
14602,8933
14602,8933
14626,9015
14635,9100
14626,9184
14608,9245
14602,9266
14561,9341
14507,9407
14441,9461
14366,9502
14345,9508
14284,9526
14253,9529
14221,9533
14178,9533
14146,9529
14115,9526
14054,9508
14033,9502
13958,9461
13892,9407
13838,9341
13797,9266
13791,9245
13773,9184
13764,9100
13773,9015
13797,8933
13797,8933
13838,8858
13892,8792
13958,8738
14033,8697
14054,8691
14115,8673
14146,8670
14178,8666
14221,8666
14253,8670
Z" /> 
<path style="fill:#000000; fill-opacity:1.0; 
stroke:#000000; stroke-width:0; stroke-opacity:1; 
stroke-linecap:round; stroke-linejoin:round;fill-rule:evenodd;"
d="M 15930,7144
15955,7149
16027,7179
16091,7222
16146,7277
16189,7341
16219,7413
16234,7489
16234,7567
16219,7643
16189,7714
16146,7779
16091,7834
16027,7877
15955,7906
15930,7911
15879,7922
15802,7922
15751,7911
15726,7906
15654,7877
15589,7834
15535,7779
15492,7714
15462,7643
15447,7567
15447,7489
15462,7413
15492,7341
15535,7277
15589,7222
15654,7179
15726,7149
15751,7144
15802,7134
15879,7134
15930,7144
Z" /> 
<path style="fill:#000000; fill-opacity:1.0; 
stroke:#000000; stroke-width:0; stroke-opacity:1; 
stroke-linecap:round; stroke-linejoin:round;fill-rule:evenodd;"
d="M 18489,7144
18514,7149
18586,7179
18650,7222
18705,7277
18748,7341
18778,7413
18793,7489
18793,7567
18778,7643
18748,7714
18705,7779
18650,7834
18586,7877
18514,7906
18489,7911
18438,7922
18361,7922
18310,7911
18285,7906
18213,7877
18149,7834
18094,7779
18051,7714
18021,7643
18006,7567
18006,7489
18021,7413
18051,7341
18094,7277
18149,7222
18213,7179
18285,7149
18310,7144
18361,7134
18438,7134
18489,7144
Z" /> 
<path style="fill:#000000; fill-opacity:1.0; 
stroke:#000000; stroke-width:0; stroke-opacity:1; 
stroke-linecap:round; stroke-linejoin:round;fill-rule:evenodd;"
d="M 1934,6592
1966,6602
1997,6612
1997,6612
2056,6643
2106,6684
2148,6735
2179,6794
2199,6857
2205,6922
2199,6988
2179,7051
2148,7109
2106,7160
2056,7202
1997,7233
1997,7233
1966,7242
1934,7252
1885,7257
1754,7257
1705,7252
1673,7242
1642,7233
1642,7233
1583,7202
1533,7160
1491,7109
1460,7051
1440,6988
1434,6922
1440,6857
1460,6794
1491,6735
1533,6684
1583,6643
1642,6612
1642,6612
1673,6602
1705,6592
1754,6588
1885,6588
1934,6592
Z" /> 
<path style="fill:#000000; fill-opacity:1.0; 
stroke:#000000; stroke-width:0; stroke-opacity:1; 
stroke-linecap:round; stroke-linejoin:round;fill-rule:evenodd;"
d="M 28128,5973
28160,5982
28191,5992
28191,5992
28249,6023
28300,6065
28342,6116
28361,6151
28373,6174
28383,6206
28392,6237
28399,6303
28392,6368
28373,6431
28342,6489
28300,6540
28249,6582
28194,6612
28191,6613
28160,6623
28128,6632
28079,6637
28046,6637
27997,6632
27965,6623
27934,6613
27931,6612
27876,6582
27825,6540
27783,6489
27752,6431
27733,6368
27726,6303
27733,6237
27742,6206
27752,6174
27764,6151
27783,6116
27825,6065
27876,6023
27934,5992
27934,5992
27965,5982
27997,5973
28046,5968
28079,5968
28128,5973
Z" /> 
<path style="fill:#000000; fill-opacity:1.0; 
stroke:#000000; stroke-width:0; stroke-opacity:1; 
stroke-linecap:round; stroke-linejoin:round;fill-rule:evenodd;"
d="M 29397,6637
28728,6637
28728,5968
29397,5968
29397,6637
Z" /> 
<path style="fill:#000000; fill-opacity:1.0; 
stroke:#000000; stroke-width:0; stroke-opacity:1; 
stroke-linecap:round; stroke-linejoin:round;fill-rule:evenodd;"
d="M 1934,5608
1966,5618
1997,5627
1997,5627
2056,5658
2106,5700
2147,5750
2148,5751
2179,5809
2181,5815
2199,5872
2205,5938
2199,6004
2191,6029
2180,6065
2179,6067
2148,6125
2106,6176
2056,6218
2019,6237
1997,6249
1966,6258
1934,6268
1885,6273
1754,6273
1705,6268
1673,6258
1642,6249
1620,6237
1583,6218
1533,6176
1491,6125
1460,6067
1459,6065
1448,6029
1440,6004
1434,5938
1440,5872
1458,5815
1460,5809
1491,5751
1492,5750
1533,5700
1583,5658
1642,5627
1642,5627
1673,5618
1705,5608
1754,5603
1885,5603
1934,5608
Z" /> 
<path style="fill:#000000; fill-opacity:1.0; 
stroke:#000000; stroke-width:0; stroke-opacity:1; 
stroke-linecap:round; stroke-linejoin:round;fill-rule:evenodd;"
d="M 13688,6151
12311,6151
12311,4773
13688,4773
13688,6151
Z" /> 
<path style="fill:#000000; fill-opacity:1.0; 
stroke:#000000; stroke-width:0; stroke-opacity:1; 
stroke-linecap:round; stroke-linejoin:round;fill-rule:evenodd;"
d="M 9224,5420
9256,5429
9287,5439
9287,5439
9345,5470
9396,5512
9438,5563
9465,5613
9469,5621
9474,5637
9488,5684
9495,5750
9488,5815
9488,5815
9471,5872
9469,5878
9438,5936
9396,5987
9345,6029
9287,6060
9287,6060
9256,6070
9224,6079
9175,6084
9024,6084
8975,6079
8943,6070
8912,6060
8912,6060
8854,6029
8803,5987
8761,5936
8730,5878
8728,5872
8711,5815
8711,5815
8704,5750
8711,5684
8725,5637
8730,5621
8734,5613
8761,5563
8803,5512
8854,5470
8912,5439
8912,5439
8943,5429
8975,5420
9024,5415
9175,5415
9224,5420
Z" /> 
<path style="fill:#000000; fill-opacity:1.0; 
stroke:#000000; stroke-width:0; stroke-opacity:1; 
stroke-linecap:round; stroke-linejoin:round;fill-rule:evenodd;"
d="M 5543,6025
4756,6025
4756,5275
5543,5275
5543,6025
Z" /> 
<path style="fill:#000000; fill-opacity:1.0; 
stroke:#000000; stroke-width:0; stroke-opacity:1; 
stroke-linecap:round; stroke-linejoin:round;fill-rule:evenodd;"
d="M 28128,4973
28160,4982
28191,4992
28191,4992
28249,5023
28300,5065
28342,5116
28373,5174
28392,5237
28399,5303
28392,5368
28392,5368
28377,5420
28373,5431
28342,5489
28300,5540
28249,5582
28191,5613
28191,5613
28166,5621
28128,5632
28079,5637
28046,5637
27997,5632
27959,5621
27934,5613
27934,5613
27876,5582
27825,5540
27783,5489
27752,5431
27748,5420
27733,5368
27733,5368
27726,5303
27733,5237
27752,5174
27783,5116
27825,5065
27876,5023
27934,4992
27934,4992
27965,4982
27997,4973
28046,4968
28079,4968
28128,4973
Z" /> 
<path style="fill:#000000; fill-opacity:1.0; 
stroke:#000000; stroke-width:0; stroke-opacity:1; 
stroke-linecap:round; stroke-linejoin:round;fill-rule:evenodd;"
d="M 29128,4973
29160,4982
29191,4992
29191,4992
29249,5023
29300,5065
29342,5116
29373,5174
29392,5237
29399,5303
29392,5368
29392,5368
29377,5420
29373,5431
29342,5489
29300,5540
29249,5582
29191,5613
29191,5613
29166,5621
29128,5632
29079,5637
29046,5637
28997,5632
28959,5621
28934,5613
28934,5613
28876,5582
28825,5540
28783,5489
28752,5431
28748,5420
28733,5368
28733,5368
28726,5303
28733,5237
28752,5174
28783,5116
28825,5065
28876,5023
28934,4992
28934,4992
28965,4982
28997,4973
29046,4968
29079,4968
29128,4973
Z" /> 
<path style="fill:#000000; fill-opacity:1.0; 
stroke:#000000; stroke-width:0; stroke-opacity:1; 
stroke-linecap:round; stroke-linejoin:round;fill-rule:evenodd;"
d="M 1934,4624
1966,4634
1997,4643
1997,4643
2056,4674
2106,4716
2140,4757
2148,4767
2179,4825
2189,4857
2199,4888
2205,4954
2199,5019
2179,5082
2148,5141
2106,5192
2056,5233
2049,5237
1997,5264
1966,5274
1934,5284
1885,5288
1754,5288
1705,5284
1673,5274
1642,5264
1590,5237
1583,5233
1533,5192
1491,5141
1460,5082
1440,5019
1434,4954
1440,4888
1450,4857
1460,4825
1491,4767
1499,4757
1533,4716
1583,4674
1642,4643
1642,4643
1673,4634
1705,4624
1754,4619
1885,4619
1934,4624
Z" /> 
<path style="fill:#000000; fill-opacity:1.0; 
stroke:#000000; stroke-width:0; stroke-opacity:1; 
stroke-linecap:round; stroke-linejoin:round;fill-rule:evenodd;"
d="M 9442,4432
9454,4436
9465,4442
9474,4449
9482,4459
9488,4470
9492,4482
9493,4497
9493,5034
9492,5049
9488,5060
9482,5071
9474,5081
9465,5089
9454,5095
9442,5098
9427,5100
8772,5100
8757,5098
8745,5095
8734,5089
8725,5081
8717,5071
8711,5060
8707,5049
8706,5034
8706,4497
8707,4482
8711,4470
8717,4459
8725,4449
8734,4442
8745,4436
8757,4432
8772,4431
9427,4431
9442,4432
Z" /> 
<path style="fill:#000000; fill-opacity:1.0; 
stroke:#000000; stroke-width:0; stroke-opacity:1; 
stroke-linecap:round; stroke-linejoin:round;fill-rule:evenodd;"
d="M 5242,4280
5312,4301
5378,4336
5435,4383
5482,4440
5516,4505
5538,4576
5545,4650
5538,4723
5516,4794
5482,4859
5435,4916
5378,4963
5312,4998
5242,5019
5187,5025
5112,5025
5057,5019
4987,4998
4921,4963
4864,4916
4817,4859
4783,4794
4761,4723
4754,4650
4761,4576
4783,4505
4817,4440
4864,4383
4921,4336
4987,4301
5057,4280
5112,4275
5187,4275
5242,4280
Z" /> 
<path style="fill:#000000; fill-opacity:1.0; 
stroke:#000000; stroke-width:0; stroke-opacity:1; 
stroke-linecap:round; stroke-linejoin:round;fill-rule:evenodd;"
d="M 11581,3598
11641,3616
11696,3646
11744,3685
11784,3734
11814,3789
11832,3849
11838,3914
11838,4647
11832,4712
11814,4772
11784,4827
11744,4876
11696,4915
11641,4945
11581,4963
11516,4970
10782,4970
10718,4963
10658,4945
10602,4915
10554,4876
10514,4827
10485,4772
10467,4712
10460,4647
10460,3914
10467,3849
10485,3789
10514,3734
10554,3685
10602,3646
10658,3616
10718,3598
10782,3592
11516,3592
11581,3598
Z" /> 
<path style="fill:#000000; fill-opacity:1.0; 
stroke:#000000; stroke-width:0; stroke-opacity:1; 
stroke-linecap:round; stroke-linejoin:round;fill-rule:evenodd;"
d="M 28128,3973
28160,3982
28191,3992
28191,3992
28249,4023
28300,4065
28342,4116
28373,4174
28392,4237
28399,4303
28392,4368
28392,4368
28373,4431
28373,4431
28342,4489
28300,4540
28249,4582
28191,4613
28191,4613
28160,4623
28128,4632
28079,4637
28046,4637
27997,4632
27965,4623
27934,4613
27934,4613
27876,4582
27825,4540
27783,4489
27752,4431
27752,4431
27733,4368
27733,4368
27726,4303
27733,4237
27752,4174
27783,4116
27825,4065
27876,4023
27934,3992
27934,3992
27965,3982
27997,3973
28046,3968
28079,3968
28128,3973
Z" /> 
<path style="fill:#000000; fill-opacity:1.0; 
stroke:#000000; stroke-width:0; stroke-opacity:1; 
stroke-linecap:round; stroke-linejoin:round;fill-rule:evenodd;"
d="M 29128,3973
29160,3982
29191,3992
29191,3992
29249,4023
29300,4065
29342,4116
29373,4174
29392,4237
29399,4303
29392,4368
29392,4368
29373,4431
29373,4431
29342,4489
29300,4540
29249,4582
29191,4613
29191,4613
29160,4623
29128,4632
29079,4637
29046,4637
28997,4632
28965,4623
28934,4613
28934,4613
28876,4582
28825,4540
28783,4489
28752,4431
28752,4431
28733,4368
28733,4368
28726,4303
28733,4237
28752,4174
28783,4116
28825,4065
28876,4023
28934,3992
28934,3992
28965,3982
28997,3973
29046,3968
29079,3968
29128,3973
Z" /> 
<path style="fill:#000000; fill-opacity:1.0; 
stroke:#000000; stroke-width:0; stroke-opacity:1; 
stroke-linecap:round; stroke-linejoin:round;fill-rule:evenodd;"
d="M 2152,3636
2164,3640
2175,3646
2185,3654
2192,3663
2198,3674
2202,3686
2203,3701
2203,4238
2202,4253
2198,4265
2192,4276
2185,4285
2175,4293
2164,4299
2152,4303
2137,4304
1502,4304
1487,4303
1475,4299
1464,4293
1454,4285
1447,4276
1441,4265
1437,4253
1436,4238
1436,3701
1437,3686
1441,3674
1447,3663
1454,3654
1464,3646
1475,3640
1487,3636
1502,3635
2137,3635
2152,3636
Z" /> 
<path style="fill:#000000; fill-opacity:1.0; 
stroke:#000000; stroke-width:0; stroke-opacity:1; 
stroke-linecap:round; stroke-linejoin:round;fill-rule:evenodd;"
d="M 5242,3280
5312,3301
5378,3336
5435,3383
5482,3440
5516,3505
5538,3576
5545,3650
5538,3723
5516,3794
5482,3859
5435,3916
5378,3963
5312,3998
5242,4019
5187,4025
5112,4025
5057,4019
4987,3998
4921,3963
4864,3916
4817,3859
4783,3794
4761,3723
4754,3650
4761,3576
4783,3505
4817,3440
4864,3383
4921,3336
4987,3301
5057,3280
5112,3275
5187,3275
5242,3280
Z" /> 
<path style="fill:#000000; fill-opacity:1.0; 
stroke:#000000; stroke-width:0; stroke-opacity:1; 
stroke-linecap:round; stroke-linejoin:round;fill-rule:evenodd;"
d="M 13471,2514
13521,2530
13568,2555
13609,2588
13643,2629
13668,2676
13683,2727
13688,2782
13688,3417
13683,3472
13668,3523
13643,3570
13609,3611
13568,3644
13521,3669
13471,3685
13415,3690
12584,3690
12528,3685
12478,3669
12431,3644
12390,3611
12356,3570
12331,3523
12316,3472
12311,3417
12311,2782
12316,2727
12331,2676
12356,2629
12390,2588
12431,2555
12478,2530
12528,2514
12584,2509
13415,2509
13471,2514
Z" /> 
<path style="fill:#000000; fill-opacity:1.0; 
stroke:#000000; stroke-width:0; stroke-opacity:1; 
stroke-linecap:round; stroke-linejoin:round;fill-rule:evenodd;"
d="M 25298,2338
25323,2343
25395,2372
25460,2415
25514,2470
25557,2535
25587,2606
25587,2606
25602,2682
25602,2760
25593,2804
25587,2836
25557,2908
25514,2972
25460,3027
25395,3070
25323,3100
25298,3105
25247,3115
25170,3115
25119,3105
25094,3100
25022,3070
24958,3027
24903,2972
24860,2908
24830,2836
24824,2804
24815,2760
24815,2682
24830,2606
24830,2606
24860,2535
24903,2470
24958,2415
25022,2372
25094,2343
25119,2338
25170,2327
25247,2327
25298,2338
Z" /> 
<path style="fill:#000000; fill-opacity:1.0; 
stroke:#000000; stroke-width:0; stroke-opacity:1; 
stroke-linecap:round; stroke-linejoin:round;fill-rule:evenodd;"
d="M 22739,2338
22764,2343
22836,2372
22900,2415
22955,2470
22998,2535
23028,2606
23028,2606
23043,2682
23043,2760
23034,2804
23028,2836
22998,2908
22955,2972
22900,3027
22836,3070
22764,3100
22739,3105
22688,3115
22611,3115
22560,3105
22535,3100
22463,3070
22399,3027
22344,2972
22301,2908
22271,2836
22265,2804
22256,2760
22256,2682
22271,2606
22271,2606
22301,2535
22344,2470
22399,2415
22463,2372
22535,2343
22560,2338
22611,2327
22688,2327
22739,2338
Z" /> 
<path style="fill:#000000; fill-opacity:1.0; 
stroke:#000000; stroke-width:0; stroke-opacity:1; 
stroke-linecap:round; stroke-linejoin:round;fill-rule:evenodd;"
d="M 25298,566
25323,571
25395,601
25460,644
25514,699
25557,763
25587,835
25602,911
25602,988
25587,1064
25557,1136
25514,1200
25460,1255
25395,1298
25323,1328
25298,1333
25247,1343
25170,1343
25119,1333
25094,1328
25022,1298
24958,1255
24903,1200
24860,1136
24830,1064
24815,988
24815,911
24830,835
24860,763
24903,699
24958,644
25022,601
25094,571
25119,566
25170,556
25247,556
25298,566
Z" /> 
<path style="fill:#000000; fill-opacity:1.0; 
stroke:#000000; stroke-width:0; stroke-opacity:1; 
stroke-linecap:round; stroke-linejoin:round;fill-rule:evenodd;"
d="M 22739,566
22764,571
22836,601
22900,644
22955,699
22998,763
23028,835
23043,911
23043,988
23028,1064
22998,1136
22955,1200
22900,1255
22836,1298
22764,1328
22739,1333
22688,1343
22611,1343
22560,1333
22535,1328
22463,1298
22399,1255
22344,1200
22301,1136
22271,1064
22256,988
22256,911
22271,835
22301,763
22344,699
22399,644
22463,601
22535,571
22560,566
22611,556
22688,556
22739,566
Z" /> 
</g> 
</svg>
