<?xml version="1.0" standalone="no"?>
 <!DOCTYPE svg PUBLIC "-//W3C//DTD SVG 1.1//EN" 
 "http://www.w3.org/Graphics/SVG/1.1/DTD/svg11.dtd"> 
<svg xmlns="http://www.w3.org/2000/svg" version="1.1" 
    width="29.7002cm" height="21.0007cm" viewBox="0 0 116930 82680 ">
<title>SVG Picture created as ThermocoupleLogger-B_SilkS.svg date 2019/03/27 20:46:31 </title>
  <desc>Picture generated by PCBNEW </desc>
<g style="fill:#000000; fill-opacity:1;stroke:#000000; stroke-opacity:1;
stroke-linecap:round; stroke-linejoin:round; "
 transform="translate(0 0) scale(1 1)">
</g>
<g style="fill:#000000; fill-opacity:0.0; 
stroke:#000000; stroke-width:-0.000787402; stroke-opacity:1; 
stroke-linecap:round; stroke-linejoin:round;">
</g>
<g style="fill:#000000; fill-opacity:0.0; 
stroke:#000000; stroke-width:78.7402; stroke-opacity:1; 
stroke-linecap:round; stroke-linejoin:round;">
<path d="M94012 12399
L94012 72899
" />
<path d="M24012 68518
L24012 68518
" />
<path d="M24012 12399
L94012 12399
" />
<path d="M24012 72899
L94012 72899
" />
<path d="M24012 12399
L24012 72899
" />
<path d="M24012 13399
L24012 13399
" />
</g>
<g style="fill:#000000; fill-opacity:0.0; 
stroke:#000000; stroke-width:94.4882; stroke-opacity:1; 
stroke-linecap:round; stroke-linejoin:round;">
<path d="M24446 55837
L28934 55837
" />
<path d="M24446 55837
L24446 60562
" />
<path d="M24446 60562
L28934 60562
" />
<path d="M29526.9 60976.7 A629.921 629.921 0.0 0 0 28934.9 60562.2 " />
<path d="M29525.5 60955.9 A9051.78 9051.78 0.0 0 0 47199.2 58164.3 " />
<path d="M28934.9 55837.8 A629.921 629.921 0.0 0 0 29526.9 55423.3 " />
<path d="M47199.2 58235.6 A9051.78 9051.78 0.0 0 0 29525.5 55444.1 " />
<g >
</g>
<g >
</g>
<g >
</g>
<g >
</g>
<g >
</g>
<g >
</g>
<g >
</g>
<g >
</g>
<g >
</g>
<g >
</g>
<g >
</g>
<g >
</g>
<g >
</g>
<g >
</g>
<g >
</g>
<g >
</g>
<g >
</g>
<g >
</g>
<g >
</g>
<g >
</g>
<g >
</g>
<g >
</g>
<g >
</g>
<g >
</g>
<g >
</g>
<g >
</g>
<g >
</g>
<g >
</g>
<g >
</g>
<g >
</g>
<g >
</g>
<g >
</g>
<g >
</g>
<g >
</g>
<g >
</g>
<g >
</g>
<g >
</g>
<g >
</g>
<g >
</g>
<g >
</g>
<g >
</g>
<g >
</g>
<g >
</g>
<g >
</g>
<g >
</g>
<g >
</g>
<g >
</g>
<g >
</g>
<g >
</g>
<g >
</g>
<g >
</g>
<g >
</g>
<g >
</g>
<g >
</g>
<g >
</g>
<g >
</g>
<g >
</g>
<g >
</g>
<g >
</g>
<g >
</g>
<g >
</g>
<g >
</g>
<g >
</g>
<g >
</g>
<g >
</g>
<g >
</g>
<g >
</g>
<g >
</g>
<g >
</g>
<g >
</g>
<g >
</g>
<g >
</g>
<g >
</g>
<g >
</g>
<g >
</g>
<g >
</g>
<g >
</g>
<g >
</g>
<g >
</g>
<g >
</g>
<g >
</g>
</g>
<g style="fill:#000000; fill-opacity:0.0; 
stroke:#000000; stroke-width:118.11; stroke-opacity:1; 
stroke-linecap:round; stroke-linejoin:round;">
<path d="M26797 61529
L26685 61567
L26647 61604
L26610 61679
L26610 61792
L26647 61867
L26685 61904
L26760 61942
L27060 61942
L27060 61154
L26797 61154
L26722 61192
L26685 61229
L26647 61304
L26647 61379
L26685 61454
L26722 61492
L26797 61529
L27060 61529
" />
<path d="M26385 61154
L25935 61154
" />
<path d="M26160 61942
L26160 61154
" />
<path d="M25710 61229
L25672 61192
L25597 61154
L25410 61154
L25335 61192
L25297 61229
L25260 61304
L25260 61379
L25297 61492
L25747 61942
L25260 61942
" />
<path d="M28794 58284
L27894 58284
" />
<path d="M28344 58734
L28344 57834
" />
<g >
</g>
</g> 
</svg>
