<?xml version="1.0" standalone="no"?>
 <!DOCTYPE svg PUBLIC "-//W3C//DTD SVG 1.1//EN" 
 "http://www.w3.org/Graphics/SVG/1.1/DTD/svg11.dtd"> 
<svg xmlns="http://www.w3.org/2000/svg" version="1.1" 
    width="29.7002cm" height="21.0007cm" viewBox="0 0 116930 82680 ">
<title>SVG Picture created as ThermocoupleLogger-B_SilkS.svg date 2019/03/14 18:04:39 </title>
  <desc>Picture generated by PCBNEW </desc>
<g style="fill:#000000; fill-opacity:1;stroke:#000000; stroke-opacity:1;
stroke-linecap:round; stroke-linejoin:round; "
 transform="translate(0 0) scale(1 1)">
</g>
<g style="fill:#000000; fill-opacity:0.0; 
stroke:#000000; stroke-width:-0.000787402; stroke-opacity:1; 
stroke-linecap:round; stroke-linejoin:round;">
</g>
<g style="fill:#000000; fill-opacity:0.0; 
stroke:#000000; stroke-width:157.48; stroke-opacity:1; 
stroke-linecap:round; stroke-linejoin:round;">
<path d="M20386 62899
L20386 67324
" />
<path d="M99186 67332
L20390 67332
" />
<path d="M86465 21607
L99181 21607
" />
<path d="M99186 62940
L99186 67340
" />
<path d="M33226 62900
L51466 62900
" />
<path d="M29496 62900
L20386 62900
" />
<path d="M29536 60900
L20446 60900
" />
<path d="M51466 60900
L33226 60900
" />
<path d="M55102 62909
L92462 62909
" />
<path d="M92456 60910
L55096 60910
" />
<path d="M96086 60920
L99186 60920
" />
<path d="M96116 62920
L99189 62938
" />
<path d="M96093.7 60920.7 A1000.2 1000.2 0.0 0 0 96116.3 62920 " />
<path d="M92462.9 62909.9 A1000 1000 0.0 0 0 92446.3 60910 " />
<path d="M55095 60910.2 A1000 1000 0.0 0 0 55116.3 62910 " />
<path d="M51464.5 62900 A1000.2 1000.2 0.0 1 0 51466.3 60900 " />
<path d="M33216.3 60899.8 A1000.2 1000.2 0.0 1 0 33236.3 62900 " />
<path d="M29506.3 62900 A1000.2 1000.2 0.0 0 0 29545.5 60900 " />
<path d="M25546.3 21540.8 A1000.8 1000.8 0.0 0 0 25586.3 19540 " />
<path d="M61806.3 19580 A1000.8 1000.8 0.0 1 0 61806.3 21580 " />
<path d="M99226 19560
L99226 19560
" />
<path d="M86466 19560
L99226 19560
" />
<path d="M82806 21580
L61806 21580
" />
<path d="M61826 19580
L82786 19580
" />
<path d="M86466.3 19560 A1020 1020 0.0 0 0 86466.3 21600 " />
<path d="M82806.3 21580.2 A1000.2 1000.2 0.0 1 0 82786.3 19580 " />
<path d="M29206 21570
L58036 21570
" />
<path d="M58186 19590
L29176 19590
" />
<path d="M58066.3 21560 A990.202 990.202 0.0 1 0 58106.3 19580 " />
<path d="M25535 21544
L20449 21552
" />
<path d="M20486 19540
L25586 19540
" />
<path d="M20486 14340
L20486 19540
" />
<path d="M29198.2 19588 A996 996 0.0 0 0 29206.3 21580 " />
<path d="M99226 14320
L20496 14324
" />
<path d="M99226 19560
L99226 14320
" />
<path d="M99186 60920
L99186 21610
" />
<path d="M20446 60900
L20446 21569
" />
</g>
<g style="fill:#000000; fill-opacity:1.0; 
stroke:#000000; stroke-width:0; stroke-opacity:1; 
stroke-linecap:round; stroke-linejoin:round;">
<polyline style="fill-rule:evenodd;"
points="98298,45909
98298,46224
98613,46224
98613,45909
98298,45909
" /> 
<polyline style="fill-rule:evenodd;"
points="97983,45909
97983,46224
98298,46224
98298,45909
97983,45909
" /> 
<polyline style="fill-rule:evenodd;"
points="97668,45909
97668,46224
97983,46224
97983,45909
97668,45909
" /> 
<polyline style="fill-rule:evenodd;"
points="97353,45909
97353,46224
97668,46224
97668,45909
97353,45909
" /> 
<polyline style="fill-rule:evenodd;"
points="97038,45909
97038,46224
97353,46224
97353,45909
97038,45909
" /> 
<polyline style="fill-rule:evenodd;"
points="96723,45909
96723,46224
97038,46224
97038,45909
96723,45909
" /> 
<polyline style="fill-rule:evenodd;"
points="96408,45909
96408,46224
96723,46224
96723,45909
96408,45909
" /> 
<polyline style="fill-rule:evenodd;"
points="95778,45909
95778,46224
96093,46224
96093,45909
95778,45909
" /> 
<polyline style="fill-rule:evenodd;"
points="95463,45909
95463,46224
95778,46224
95778,45909
95463,45909
" /> 
<polyline style="fill-rule:evenodd;"
points="94518,45909
94518,46224
94833,46224
94833,45909
94518,45909
" /> 
<polyline style="fill-rule:evenodd;"
points="93888,45909
93888,46224
94203,46224
94203,45909
93888,45909
" /> 
<polyline style="fill-rule:evenodd;"
points="93258,45909
93258,46224
93573,46224
93573,45909
93258,45909
" /> 
<polyline style="fill-rule:evenodd;"
points="92943,45909
92943,46224
93258,46224
93258,45909
92943,45909
" /> 
<polyline style="fill-rule:evenodd;"
points="92628,45909
92628,46224
92943,46224
92943,45909
92628,45909
" /> 
<polyline style="fill-rule:evenodd;"
points="92313,45909
92313,46224
92628,46224
92628,45909
92313,45909
" /> 
<polyline style="fill-rule:evenodd;"
points="91683,45909
91683,46224
91998,46224
91998,45909
91683,45909
" /> 
<polyline style="fill-rule:evenodd;"
points="90109,45909
90109,46224
90424,46224
90424,45909
90109,45909
" /> 
<polyline style="fill-rule:evenodd;"
points="89794,45909
89794,46224
90109,46224
90109,45909
89794,45909
" /> 
<polyline style="fill-rule:evenodd;"
points="89479,45909
89479,46224
89794,46224
89794,45909
89479,45909
" /> 
<polyline style="fill-rule:evenodd;"
points="89164,45909
89164,46224
89479,46224
89479,45909
89164,45909
" /> 
<polyline style="fill-rule:evenodd;"
points="88849,45909
88849,46224
89164,46224
89164,45909
88849,45909
" /> 
<polyline style="fill-rule:evenodd;"
points="88534,45909
88534,46224
88849,46224
88849,45909
88534,45909
" /> 
<polyline style="fill-rule:evenodd;"
points="88219,45909
88219,46224
88534,46224
88534,45909
88219,45909
" /> 
<polyline style="fill-rule:evenodd;"
points="98298,45594
98298,45909
98613,45909
98613,45594
98298,45594
" /> 
<polyline style="fill-rule:evenodd;"
points="96408,45594
96408,45909
96723,45909
96723,45594
96408,45594
" /> 
<polyline style="fill-rule:evenodd;"
points="94518,45594
94518,45909
94833,45909
94833,45594
94518,45594
" /> 
<polyline style="fill-rule:evenodd;"
points="93573,45594
93573,45909
93888,45909
93888,45594
93573,45594
" /> 
<polyline style="fill-rule:evenodd;"
points="92943,45594
92943,45909
93258,45909
93258,45594
92943,45594
" /> 
<polyline style="fill-rule:evenodd;"
points="91998,45594
91998,45909
92313,45909
92313,45594
91998,45594
" /> 
<polyline style="fill-rule:evenodd;"
points="91683,45594
91683,45909
91998,45909
91998,45594
91683,45594
" /> 
<polyline style="fill-rule:evenodd;"
points="91369,45594
91369,45909
91683,45909
91683,45594
91369,45594
" /> 
<polyline style="fill-rule:evenodd;"
points="91054,45594
91054,45909
91369,45909
91369,45594
91054,45594
" /> 
<polyline style="fill-rule:evenodd;"
points="90739,45594
90739,45909
91054,45909
91054,45594
90739,45594
" /> 
<polyline style="fill-rule:evenodd;"
points="90109,45594
90109,45909
90424,45909
90424,45594
90109,45594
" /> 
<polyline style="fill-rule:evenodd;"
points="88219,45594
88219,45909
88534,45909
88534,45594
88219,45594
" /> 
<polyline style="fill-rule:evenodd;"
points="98298,45279
98298,45594
98613,45594
98613,45279
98298,45279
" /> 
<polyline style="fill-rule:evenodd;"
points="97668,45279
97668,45594
97983,45594
97983,45279
97668,45279
" /> 
<polyline style="fill-rule:evenodd;"
points="97353,45279
97353,45594
97668,45594
97668,45279
97353,45279
" /> 
<polyline style="fill-rule:evenodd;"
points="97038,45279
97038,45594
97353,45594
97353,45279
97038,45279
" /> 
<polyline style="fill-rule:evenodd;"
points="96408,45279
96408,45594
96723,45594
96723,45279
96408,45279
" /> 
<polyline style="fill-rule:evenodd;"
points="95463,45279
95463,45594
95778,45594
95778,45279
95463,45279
" /> 
<polyline style="fill-rule:evenodd;"
points="95148,45279
95148,45594
95463,45594
95463,45279
95148,45279
" /> 
<polyline style="fill-rule:evenodd;"
points="94203,45279
94203,45594
94518,45594
94518,45279
94203,45279
" /> 
<polyline style="fill-rule:evenodd;"
points="92313,45279
92313,45594
92628,45594
92628,45279
92313,45279
" /> 
<polyline style="fill-rule:evenodd;"
points="91998,45279
91998,45594
92313,45594
92313,45279
91998,45279
" /> 
<polyline style="fill-rule:evenodd;"
points="91369,45279
91369,45594
91683,45594
91683,45279
91369,45279
" /> 
<polyline style="fill-rule:evenodd;"
points="90739,45279
90739,45594
91054,45594
91054,45279
90739,45279
" /> 
<polyline style="fill-rule:evenodd;"
points="90109,45279
90109,45594
90424,45594
90424,45279
90109,45279
" /> 
<polyline style="fill-rule:evenodd;"
points="89479,45279
89479,45594
89794,45594
89794,45279
89479,45279
" /> 
<polyline style="fill-rule:evenodd;"
points="89164,45279
89164,45594
89479,45594
89479,45279
89164,45279
" /> 
<polyline style="fill-rule:evenodd;"
points="88849,45279
88849,45594
89164,45594
89164,45279
88849,45279
" /> 
<polyline style="fill-rule:evenodd;"
points="88219,45279
88219,45594
88534,45594
88534,45279
88219,45279
" /> 
<polyline style="fill-rule:evenodd;"
points="98298,44965
98298,45279
98613,45279
98613,44965
98298,44965
" /> 
<polyline style="fill-rule:evenodd;"
points="97668,44965
97668,45279
97983,45279
97983,44965
97668,44965
" /> 
<polyline style="fill-rule:evenodd;"
points="97353,44965
97353,45279
97668,45279
97668,44965
97353,44965
" /> 
<polyline style="fill-rule:evenodd;"
points="97038,44965
97038,45279
97353,45279
97353,44965
97038,44965
" /> 
<polyline style="fill-rule:evenodd;"
points="96408,44965
96408,45279
96723,45279
96723,44965
96408,44965
" /> 
<polyline style="fill-rule:evenodd;"
points="95778,44965
95778,45279
96093,45279
96093,44965
95778,44965
" /> 
<polyline style="fill-rule:evenodd;"
points="95463,44965
95463,45279
95778,45279
95778,44965
95463,44965
" /> 
<polyline style="fill-rule:evenodd;"
points="94518,44965
94518,45279
94833,45279
94833,44965
94518,44965
" /> 
<polyline style="fill-rule:evenodd;"
points="93888,44965
93888,45279
94203,45279
94203,44965
93888,44965
" /> 
<polyline style="fill-rule:evenodd;"
points="92943,44965
92943,45279
93258,45279
93258,44965
92943,44965
" /> 
<polyline style="fill-rule:evenodd;"
points="92628,44965
92628,45279
92943,45279
92943,44965
92628,44965
" /> 
<polyline style="fill-rule:evenodd;"
points="92313,44965
92313,45279
92628,45279
92628,44965
92313,44965
" /> 
<polyline style="fill-rule:evenodd;"
points="91998,44965
91998,45279
92313,45279
92313,44965
91998,44965
" /> 
<polyline style="fill-rule:evenodd;"
points="91683,44965
91683,45279
91998,45279
91998,44965
91683,44965
" /> 
<polyline style="fill-rule:evenodd;"
points="90739,44965
90739,45279
91054,45279
91054,44965
90739,44965
" /> 
<polyline style="fill-rule:evenodd;"
points="90109,44965
90109,45279
90424,45279
90424,44965
90109,44965
" /> 
<polyline style="fill-rule:evenodd;"
points="89479,44965
89479,45279
89794,45279
89794,44965
89479,44965
" /> 
<polyline style="fill-rule:evenodd;"
points="89164,44965
89164,45279
89479,45279
89479,44965
89164,44965
" /> 
<polyline style="fill-rule:evenodd;"
points="88849,44965
88849,45279
89164,45279
89164,44965
88849,44965
" /> 
<polyline style="fill-rule:evenodd;"
points="88219,44965
88219,45279
88534,45279
88534,44965
88219,44965
" /> 
<polyline style="fill-rule:evenodd;"
points="98298,44650
98298,44965
98613,44965
98613,44650
98298,44650
" /> 
<polyline style="fill-rule:evenodd;"
points="97668,44650
97668,44965
97983,44965
97983,44650
97668,44650
" /> 
<polyline style="fill-rule:evenodd;"
points="97353,44650
97353,44965
97668,44965
97668,44650
97353,44650
" /> 
<polyline style="fill-rule:evenodd;"
points="97038,44650
97038,44965
97353,44965
97353,44650
97038,44650
" /> 
<polyline style="fill-rule:evenodd;"
points="96408,44650
96408,44965
96723,44965
96723,44650
96408,44650
" /> 
<polyline style="fill-rule:evenodd;"
points="95778,44650
95778,44965
96093,44965
96093,44650
95778,44650
" /> 
<polyline style="fill-rule:evenodd;"
points="95463,44650
95463,44965
95778,44965
95778,44650
95463,44650
" /> 
<polyline style="fill-rule:evenodd;"
points="94833,44650
94833,44965
95148,44965
95148,44650
94833,44650
" /> 
<polyline style="fill-rule:evenodd;"
points="94203,44650
94203,44965
94518,44965
94518,44650
94203,44650
" /> 
<polyline style="fill-rule:evenodd;"
points="93888,44650
93888,44965
94203,44965
94203,44650
93888,44650
" /> 
<polyline style="fill-rule:evenodd;"
points="92628,44650
92628,44965
92943,44965
92943,44650
92628,44650
" /> 
<polyline style="fill-rule:evenodd;"
points="92313,44650
92313,44965
92628,44965
92628,44650
92313,44650
" /> 
<polyline style="fill-rule:evenodd;"
points="91998,44650
91998,44965
92313,44965
92313,44650
91998,44650
" /> 
<polyline style="fill-rule:evenodd;"
points="90739,44650
90739,44965
91054,44965
91054,44650
90739,44650
" /> 
<polyline style="fill-rule:evenodd;"
points="90109,44650
90109,44965
90424,44965
90424,44650
90109,44650
" /> 
<polyline style="fill-rule:evenodd;"
points="89479,44650
89479,44965
89794,44965
89794,44650
89479,44650
" /> 
<polyline style="fill-rule:evenodd;"
points="89164,44650
89164,44965
89479,44965
89479,44650
89164,44650
" /> 
<polyline style="fill-rule:evenodd;"
points="88849,44650
88849,44965
89164,44965
89164,44650
88849,44650
" /> 
<polyline style="fill-rule:evenodd;"
points="88219,44650
88219,44965
88534,44965
88534,44650
88219,44650
" /> 
<polyline style="fill-rule:evenodd;"
points="98298,44335
98298,44650
98613,44650
98613,44335
98298,44335
" /> 
<polyline style="fill-rule:evenodd;"
points="96408,44335
96408,44650
96723,44650
96723,44335
96408,44335
" /> 
<polyline style="fill-rule:evenodd;"
points="95778,44335
95778,44650
96093,44650
96093,44335
95778,44335
" /> 
<polyline style="fill-rule:evenodd;"
points="95148,44335
95148,44650
95463,44650
95463,44335
95148,44335
" /> 
<polyline style="fill-rule:evenodd;"
points="94833,44335
94833,44650
95148,44650
95148,44335
94833,44335
" /> 
<polyline style="fill-rule:evenodd;"
points="94203,44335
94203,44650
94518,44650
94518,44335
94203,44335
" /> 
<polyline style="fill-rule:evenodd;"
points="93888,44335
93888,44650
94203,44650
94203,44335
93888,44335
" /> 
<polyline style="fill-rule:evenodd;"
points="93258,44335
93258,44650
93573,44650
93573,44335
93258,44335
" /> 
<polyline style="fill-rule:evenodd;"
points="92628,44335
92628,44650
92943,44650
92943,44335
92628,44335
" /> 
<polyline style="fill-rule:evenodd;"
points="92313,44335
92313,44650
92628,44650
92628,44335
92313,44335
" /> 
<polyline style="fill-rule:evenodd;"
points="90109,44335
90109,44650
90424,44650
90424,44335
90109,44335
" /> 
<polyline style="fill-rule:evenodd;"
points="88219,44335
88219,44650
88534,44650
88534,44335
88219,44335
" /> 
<polyline style="fill-rule:evenodd;"
points="98298,44020
98298,44335
98613,44335
98613,44020
98298,44020
" /> 
<polyline style="fill-rule:evenodd;"
points="97983,44020
97983,44335
98298,44335
98298,44020
97983,44020
" /> 
<polyline style="fill-rule:evenodd;"
points="97668,44020
97668,44335
97983,44335
97983,44020
97668,44020
" /> 
<polyline style="fill-rule:evenodd;"
points="97353,44020
97353,44335
97668,44335
97668,44020
97353,44020
" /> 
<polyline style="fill-rule:evenodd;"
points="97038,44020
97038,44335
97353,44335
97353,44020
97038,44020
" /> 
<polyline style="fill-rule:evenodd;"
points="96723,44020
96723,44335
97038,44335
97038,44020
96723,44020
" /> 
<polyline style="fill-rule:evenodd;"
points="96408,44020
96408,44335
96723,44335
96723,44020
96408,44020
" /> 
<polyline style="fill-rule:evenodd;"
points="95778,44020
95778,44335
96093,44335
96093,44020
95778,44020
" /> 
<polyline style="fill-rule:evenodd;"
points="95148,44020
95148,44335
95463,44335
95463,44020
95148,44020
" /> 
<polyline style="fill-rule:evenodd;"
points="94518,44020
94518,44335
94833,44335
94833,44020
94518,44020
" /> 
<polyline style="fill-rule:evenodd;"
points="93888,44020
93888,44335
94203,44335
94203,44020
93888,44020
" /> 
<polyline style="fill-rule:evenodd;"
points="93258,44020
93258,44335
93573,44335
93573,44020
93258,44020
" /> 
<polyline style="fill-rule:evenodd;"
points="92628,44020
92628,44335
92943,44335
92943,44020
92628,44020
" /> 
<polyline style="fill-rule:evenodd;"
points="91998,44020
91998,44335
92313,44335
92313,44020
91998,44020
" /> 
<polyline style="fill-rule:evenodd;"
points="91369,44020
91369,44335
91683,44335
91683,44020
91369,44020
" /> 
<polyline style="fill-rule:evenodd;"
points="90739,44020
90739,44335
91054,44335
91054,44020
90739,44020
" /> 
<polyline style="fill-rule:evenodd;"
points="90109,44020
90109,44335
90424,44335
90424,44020
90109,44020
" /> 
<polyline style="fill-rule:evenodd;"
points="89794,44020
89794,44335
90109,44335
90109,44020
89794,44020
" /> 
<polyline style="fill-rule:evenodd;"
points="89479,44020
89479,44335
89794,44335
89794,44020
89479,44020
" /> 
<polyline style="fill-rule:evenodd;"
points="89164,44020
89164,44335
89479,44335
89479,44020
89164,44020
" /> 
<polyline style="fill-rule:evenodd;"
points="88849,44020
88849,44335
89164,44335
89164,44020
88849,44020
" /> 
<polyline style="fill-rule:evenodd;"
points="88534,44020
88534,44335
88849,44335
88849,44020
88534,44020
" /> 
<polyline style="fill-rule:evenodd;"
points="88219,44020
88219,44335
88534,44335
88534,44020
88219,44020
" /> 
<polyline style="fill-rule:evenodd;"
points="95778,43705
95778,44020
96093,44020
96093,43705
95778,43705
" /> 
<polyline style="fill-rule:evenodd;"
points="95148,43705
95148,44020
95463,44020
95463,43705
95148,43705
" /> 
<polyline style="fill-rule:evenodd;"
points="93888,43705
93888,44020
94203,44020
94203,43705
93888,43705
" /> 
<polyline style="fill-rule:evenodd;"
points="93573,43705
93573,44020
93888,44020
93888,43705
93573,43705
" /> 
<polyline style="fill-rule:evenodd;"
points="93258,43705
93258,44020
93573,44020
93573,43705
93258,43705
" /> 
<polyline style="fill-rule:evenodd;"
points="92943,43705
92943,44020
93258,44020
93258,43705
92943,43705
" /> 
<polyline style="fill-rule:evenodd;"
points="92628,43705
92628,44020
92943,44020
92943,43705
92628,43705
" /> 
<polyline style="fill-rule:evenodd;"
points="91683,43705
91683,44020
91998,44020
91998,43705
91683,43705
" /> 
<polyline style="fill-rule:evenodd;"
points="91054,43705
91054,44020
91369,44020
91369,43705
91054,43705
" /> 
<polyline style="fill-rule:evenodd;"
points="98298,43390
98298,43705
98613,43705
98613,43390
98298,43390
" /> 
<polyline style="fill-rule:evenodd;"
points="97038,43390
97038,43705
97353,43705
97353,43390
97038,43390
" /> 
<polyline style="fill-rule:evenodd;"
points="96408,43390
96408,43705
96723,43705
96723,43390
96408,43390
" /> 
<polyline style="fill-rule:evenodd;"
points="96093,43390
96093,43705
96408,43705
96408,43390
96093,43390
" /> 
<polyline style="fill-rule:evenodd;"
points="95778,43390
95778,43705
96093,43705
96093,43390
95778,43390
" /> 
<polyline style="fill-rule:evenodd;"
points="95463,43390
95463,43705
95778,43705
95778,43390
95463,43390
" /> 
<polyline style="fill-rule:evenodd;"
points="94833,43390
94833,43705
95148,43705
95148,43390
94833,43390
" /> 
<polyline style="fill-rule:evenodd;"
points="94518,43390
94518,43705
94833,43705
94833,43390
94518,43390
" /> 
<polyline style="fill-rule:evenodd;"
points="94203,43390
94203,43705
94518,43705
94518,43390
94203,43390
" /> 
<polyline style="fill-rule:evenodd;"
points="93888,43390
93888,43705
94203,43705
94203,43390
93888,43390
" /> 
<polyline style="fill-rule:evenodd;"
points="93258,43390
93258,43705
93573,43705
93573,43390
93258,43390
" /> 
<polyline style="fill-rule:evenodd;"
points="92628,43390
92628,43705
92943,43705
92943,43390
92628,43390
" /> 
<polyline style="fill-rule:evenodd;"
points="92313,43390
92313,43705
92628,43705
92628,43390
92313,43390
" /> 
<polyline style="fill-rule:evenodd;"
points="90424,43390
90424,43705
90739,43705
90739,43390
90424,43390
" /> 
<polyline style="fill-rule:evenodd;"
points="90109,43390
90109,43705
90424,43705
90424,43390
90109,43390
" /> 
<polyline style="fill-rule:evenodd;"
points="89794,43390
89794,43705
90109,43705
90109,43390
89794,43390
" /> 
<polyline style="fill-rule:evenodd;"
points="89479,43390
89479,43705
89794,43705
89794,43390
89479,43390
" /> 
<polyline style="fill-rule:evenodd;"
points="89164,43390
89164,43705
89479,43705
89479,43390
89164,43390
" /> 
<polyline style="fill-rule:evenodd;"
points="88219,43390
88219,43705
88534,43705
88534,43390
88219,43390
" /> 
<polyline style="fill-rule:evenodd;"
points="98298,43075
98298,43390
98613,43390
98613,43075
98298,43075
" /> 
<polyline style="fill-rule:evenodd;"
points="97983,43075
97983,43390
98298,43390
98298,43075
97983,43075
" /> 
<polyline style="fill-rule:evenodd;"
points="97668,43075
97668,43390
97983,43390
97983,43075
97668,43075
" /> 
<polyline style="fill-rule:evenodd;"
points="95148,43075
95148,43390
95463,43390
95463,43075
95148,43075
" /> 
<polyline style="fill-rule:evenodd;"
points="94518,43075
94518,43390
94833,43390
94833,43075
94518,43075
" /> 
<polyline style="fill-rule:evenodd;"
points="94203,43075
94203,43390
94518,43390
94518,43075
94203,43075
" /> 
<polyline style="fill-rule:evenodd;"
points="92313,43075
92313,43390
92628,43390
92628,43075
92313,43075
" /> 
<polyline style="fill-rule:evenodd;"
points="91998,43075
91998,43390
92313,43390
92313,43075
91998,43075
" /> 
<polyline style="fill-rule:evenodd;"
points="91369,43075
91369,43390
91683,43390
91683,43075
91369,43075
" /> 
<polyline style="fill-rule:evenodd;"
points="90739,43075
90739,43390
91054,43390
91054,43075
90739,43075
" /> 
<polyline style="fill-rule:evenodd;"
points="88849,43075
88849,43390
89164,43390
89164,43075
88849,43075
" /> 
<polyline style="fill-rule:evenodd;"
points="88534,43075
88534,43390
88849,43390
88849,43075
88534,43075
" /> 
<polyline style="fill-rule:evenodd;"
points="88219,43075
88219,43390
88534,43390
88534,43075
88219,43075
" /> 
<polyline style="fill-rule:evenodd;"
points="97038,42760
97038,43075
97353,43075
97353,42760
97038,42760
" /> 
<polyline style="fill-rule:evenodd;"
points="96408,42760
96408,43075
96723,43075
96723,42760
96408,42760
" /> 
<polyline style="fill-rule:evenodd;"
points="95463,42760
95463,43075
95778,43075
95778,42760
95463,42760
" /> 
<polyline style="fill-rule:evenodd;"
points="95148,42760
95148,43075
95463,43075
95463,42760
95148,42760
" /> 
<polyline style="fill-rule:evenodd;"
points="93573,42760
93573,43075
93888,43075
93888,42760
93573,42760
" /> 
<polyline style="fill-rule:evenodd;"
points="92943,42760
92943,43075
93258,43075
93258,42760
92943,42760
" /> 
<polyline style="fill-rule:evenodd;"
points="91998,42760
91998,43075
92313,43075
92313,42760
91998,42760
" /> 
<polyline style="fill-rule:evenodd;"
points="91683,42760
91683,43075
91998,43075
91998,42760
91683,42760
" /> 
<polyline style="fill-rule:evenodd;"
points="91369,42760
91369,43075
91683,43075
91683,42760
91369,42760
" /> 
<polyline style="fill-rule:evenodd;"
points="91054,42760
91054,43075
91369,43075
91369,42760
91054,42760
" /> 
<polyline style="fill-rule:evenodd;"
points="90739,42760
90739,43075
91054,43075
91054,42760
90739,42760
" /> 
<polyline style="fill-rule:evenodd;"
points="90424,42760
90424,43075
90739,43075
90739,42760
90424,42760
" /> 
<polyline style="fill-rule:evenodd;"
points="90109,42760
90109,43075
90424,43075
90424,42760
90109,42760
" /> 
<polyline style="fill-rule:evenodd;"
points="88534,42760
88534,43075
88849,43075
88849,42760
88534,42760
" /> 
<polyline style="fill-rule:evenodd;"
points="88219,42760
88219,43075
88534,43075
88534,42760
88219,42760
" /> 
<polyline style="fill-rule:evenodd;"
points="97668,42445
97668,42760
97983,42760
97983,42445
97668,42445
" /> 
<polyline style="fill-rule:evenodd;"
points="94518,42445
94518,42760
94833,42760
94833,42445
94518,42445
" /> 
<polyline style="fill-rule:evenodd;"
points="93888,42445
93888,42760
94203,42760
94203,42445
93888,42445
" /> 
<polyline style="fill-rule:evenodd;"
points="93573,42445
93573,42760
93888,42760
93888,42445
93573,42445
" /> 
<polyline style="fill-rule:evenodd;"
points="93258,42445
93258,42760
93573,42760
93573,42445
93258,42445
" /> 
<polyline style="fill-rule:evenodd;"
points="92943,42445
92943,42760
93258,42760
93258,42445
92943,42445
" /> 
<polyline style="fill-rule:evenodd;"
points="92628,42445
92628,42760
92943,42760
92943,42445
92628,42445
" /> 
<polyline style="fill-rule:evenodd;"
points="91683,42445
91683,42760
91998,42760
91998,42445
91683,42445
" /> 
<polyline style="fill-rule:evenodd;"
points="91054,42445
91054,42760
91369,42760
91369,42445
91054,42445
" /> 
<polyline style="fill-rule:evenodd;"
points="90109,42445
90109,42760
90424,42760
90424,42445
90109,42445
" /> 
<polyline style="fill-rule:evenodd;"
points="89479,42445
89479,42760
89794,42760
89794,42445
89479,42445
" /> 
<polyline style="fill-rule:evenodd;"
points="89164,42445
89164,42760
89479,42760
89479,42445
89164,42445
" /> 
<polyline style="fill-rule:evenodd;"
points="88219,42445
88219,42760
88534,42760
88534,42445
88219,42445
" /> 
<polyline style="fill-rule:evenodd;"
points="98298,42130
98298,42445
98613,42445
98613,42130
98298,42130
" /> 
<polyline style="fill-rule:evenodd;"
points="97983,42130
97983,42445
98298,42445
98298,42130
97983,42130
" /> 
<polyline style="fill-rule:evenodd;"
points="97668,42130
97668,42445
97983,42445
97983,42130
97668,42130
" /> 
<polyline style="fill-rule:evenodd;"
points="97353,42130
97353,42445
97668,42445
97668,42130
97353,42130
" /> 
<polyline style="fill-rule:evenodd;"
points="96723,42130
96723,42445
97038,42445
97038,42130
96723,42130
" /> 
<polyline style="fill-rule:evenodd;"
points="96408,42130
96408,42445
96723,42445
96723,42130
96408,42130
" /> 
<polyline style="fill-rule:evenodd;"
points="95778,42130
95778,42445
96093,42445
96093,42130
95778,42130
" /> 
<polyline style="fill-rule:evenodd;"
points="94203,42130
94203,42445
94518,42445
94518,42130
94203,42130
" /> 
<polyline style="fill-rule:evenodd;"
points="93888,42130
93888,42445
94203,42445
94203,42130
93888,42130
" /> 
<polyline style="fill-rule:evenodd;"
points="92628,42130
92628,42445
92943,42445
92943,42130
92628,42130
" /> 
<polyline style="fill-rule:evenodd;"
points="92313,42130
92313,42445
92628,42445
92628,42130
92313,42130
" /> 
<polyline style="fill-rule:evenodd;"
points="91998,42130
91998,42445
92313,42445
92313,42130
91998,42130
" /> 
<polyline style="fill-rule:evenodd;"
points="90739,42130
90739,42445
91054,42445
91054,42130
90739,42130
" /> 
<polyline style="fill-rule:evenodd;"
points="89794,42130
89794,42445
90109,42445
90109,42130
89794,42130
" /> 
<polyline style="fill-rule:evenodd;"
points="89164,42130
89164,42445
89479,42445
89479,42130
89164,42130
" /> 
<polyline style="fill-rule:evenodd;"
points="97668,41815
97668,42130
97983,42130
97983,41815
97668,41815
" /> 
<polyline style="fill-rule:evenodd;"
points="97038,41815
97038,42130
97353,42130
97353,41815
97038,41815
" /> 
<polyline style="fill-rule:evenodd;"
points="95778,41815
95778,42130
96093,42130
96093,41815
95778,41815
" /> 
<polyline style="fill-rule:evenodd;"
points="95463,41815
95463,42130
95778,42130
95778,41815
95463,41815
" /> 
<polyline style="fill-rule:evenodd;"
points="95148,41815
95148,42130
95463,42130
95463,41815
95148,41815
" /> 
<polyline style="fill-rule:evenodd;"
points="94833,41815
94833,42130
95148,42130
95148,41815
94833,41815
" /> 
<polyline style="fill-rule:evenodd;"
points="94518,41815
94518,42130
94833,42130
94833,41815
94518,41815
" /> 
<polyline style="fill-rule:evenodd;"
points="93258,41815
93258,42130
93573,42130
93573,41815
93258,41815
" /> 
<polyline style="fill-rule:evenodd;"
points="92943,41815
92943,42130
93258,42130
93258,41815
92943,41815
" /> 
<polyline style="fill-rule:evenodd;"
points="92313,41815
92313,42130
92628,42130
92628,41815
92313,41815
" /> 
<polyline style="fill-rule:evenodd;"
points="91683,41815
91683,42130
91998,42130
91998,41815
91683,41815
" /> 
<polyline style="fill-rule:evenodd;"
points="91369,41815
91369,42130
91683,42130
91683,41815
91369,41815
" /> 
<polyline style="fill-rule:evenodd;"
points="90424,41815
90424,42130
90739,42130
90739,41815
90424,41815
" /> 
<polyline style="fill-rule:evenodd;"
points="90109,41815
90109,42130
90424,42130
90424,41815
90109,41815
" /> 
<polyline style="fill-rule:evenodd;"
points="88849,41815
88849,42130
89164,42130
89164,41815
88849,41815
" /> 
<polyline style="fill-rule:evenodd;"
points="97983,41500
97983,41815
98298,41815
98298,41500
97983,41500
" /> 
<polyline style="fill-rule:evenodd;"
points="97668,41500
97668,41815
97983,41815
97983,41500
97668,41500
" /> 
<polyline style="fill-rule:evenodd;"
points="97353,41500
97353,41815
97668,41815
97668,41500
97353,41500
" /> 
<polyline style="fill-rule:evenodd;"
points="97038,41500
97038,41815
97353,41815
97353,41500
97038,41500
" /> 
<polyline style="fill-rule:evenodd;"
points="96408,41500
96408,41815
96723,41815
96723,41500
96408,41500
" /> 
<polyline style="fill-rule:evenodd;"
points="96093,41500
96093,41815
96408,41815
96408,41500
96093,41500
" /> 
<polyline style="fill-rule:evenodd;"
points="95778,41500
95778,41815
96093,41815
96093,41500
95778,41500
" /> 
<polyline style="fill-rule:evenodd;"
points="94833,41500
94833,41815
95148,41815
95148,41500
94833,41500
" /> 
<polyline style="fill-rule:evenodd;"
points="93888,41500
93888,41815
94203,41815
94203,41500
93888,41500
" /> 
<polyline style="fill-rule:evenodd;"
points="93258,41500
93258,41815
93573,41815
93573,41500
93258,41500
" /> 
<polyline style="fill-rule:evenodd;"
points="92628,41500
92628,41815
92943,41815
92943,41500
92628,41500
" /> 
<polyline style="fill-rule:evenodd;"
points="92313,41500
92313,41815
92628,41815
92628,41500
92313,41500
" /> 
<polyline style="fill-rule:evenodd;"
points="89479,41500
89479,41815
89794,41815
89794,41500
89479,41500
" /> 
<polyline style="fill-rule:evenodd;"
points="98298,41185
98298,41500
98613,41500
98613,41185
98298,41185
" /> 
<polyline style="fill-rule:evenodd;"
points="97668,41185
97668,41500
97983,41500
97983,41185
97668,41185
" /> 
<polyline style="fill-rule:evenodd;"
points="97353,41185
97353,41500
97668,41500
97668,41185
97353,41185
" /> 
<polyline style="fill-rule:evenodd;"
points="95778,41185
95778,41500
96093,41500
96093,41185
95778,41185
" /> 
<polyline style="fill-rule:evenodd;"
points="95148,41185
95148,41500
95463,41500
95463,41185
95148,41185
" /> 
<polyline style="fill-rule:evenodd;"
points="94518,41185
94518,41500
94833,41500
94833,41185
94518,41185
" /> 
<polyline style="fill-rule:evenodd;"
points="92313,41185
92313,41500
92628,41500
92628,41185
92313,41185
" /> 
<polyline style="fill-rule:evenodd;"
points="91998,41185
91998,41500
92313,41500
92313,41185
91998,41185
" /> 
<polyline style="fill-rule:evenodd;"
points="91369,41185
91369,41500
91683,41500
91683,41185
91369,41185
" /> 
<polyline style="fill-rule:evenodd;"
points="90739,41185
90739,41500
91054,41500
91054,41185
90739,41185
" /> 
<polyline style="fill-rule:evenodd;"
points="90109,41185
90109,41500
90424,41500
90424,41185
90109,41185
" /> 
<polyline style="fill-rule:evenodd;"
points="89794,41185
89794,41500
90109,41500
90109,41185
89794,41185
" /> 
<polyline style="fill-rule:evenodd;"
points="89479,41185
89479,41500
89794,41500
89794,41185
89479,41185
" /> 
<polyline style="fill-rule:evenodd;"
points="89164,41185
89164,41500
89479,41500
89479,41185
89164,41185
" /> 
<polyline style="fill-rule:evenodd;"
points="88534,41185
88534,41500
88849,41500
88849,41185
88534,41185
" /> 
<polyline style="fill-rule:evenodd;"
points="98298,40870
98298,41185
98613,41185
98613,40870
98298,40870
" /> 
<polyline style="fill-rule:evenodd;"
points="97983,40870
97983,41185
98298,41185
98298,40870
97983,40870
" /> 
<polyline style="fill-rule:evenodd;"
points="97668,40870
97668,41185
97983,41185
97983,40870
97668,40870
" /> 
<polyline style="fill-rule:evenodd;"
points="97353,40870
97353,41185
97668,41185
97668,40870
97353,40870
" /> 
<polyline style="fill-rule:evenodd;"
points="96408,40870
96408,41185
96723,41185
96723,40870
96408,40870
" /> 
<polyline style="fill-rule:evenodd;"
points="95463,40870
95463,41185
95778,41185
95778,40870
95463,40870
" /> 
<polyline style="fill-rule:evenodd;"
points="94518,40870
94518,41185
94833,41185
94833,40870
94518,40870
" /> 
<polyline style="fill-rule:evenodd;"
points="94203,40870
94203,41185
94518,41185
94518,40870
94203,40870
" /> 
<polyline style="fill-rule:evenodd;"
points="93888,40870
93888,41185
94203,41185
94203,40870
93888,40870
" /> 
<polyline style="fill-rule:evenodd;"
points="93573,40870
93573,41185
93888,41185
93888,40870
93573,40870
" /> 
<polyline style="fill-rule:evenodd;"
points="91998,40870
91998,41185
92313,41185
92313,40870
91998,40870
" /> 
<polyline style="fill-rule:evenodd;"
points="91369,40870
91369,41185
91683,41185
91683,40870
91369,40870
" /> 
<polyline style="fill-rule:evenodd;"
points="91054,40870
91054,41185
91369,41185
91369,40870
91054,40870
" /> 
<polyline style="fill-rule:evenodd;"
points="90739,40870
90739,41185
91054,41185
91054,40870
90739,40870
" /> 
<polyline style="fill-rule:evenodd;"
points="90424,40870
90424,41185
90739,41185
90739,40870
90424,40870
" /> 
<polyline style="fill-rule:evenodd;"
points="90109,40870
90109,41185
90424,41185
90424,40870
90109,40870
" /> 
<polyline style="fill-rule:evenodd;"
points="89794,40870
89794,41185
90109,41185
90109,40870
89794,40870
" /> 
<polyline style="fill-rule:evenodd;"
points="89479,40870
89479,41185
89794,41185
89794,40870
89479,40870
" /> 
<polyline style="fill-rule:evenodd;"
points="89164,40870
89164,41185
89479,41185
89479,40870
89164,40870
" /> 
<polyline style="fill-rule:evenodd;"
points="88849,40870
88849,41185
89164,41185
89164,40870
88849,40870
" /> 
<polyline style="fill-rule:evenodd;"
points="88219,40870
88219,41185
88534,41185
88534,40870
88219,40870
" /> 
<polyline style="fill-rule:evenodd;"
points="98298,40555
98298,40870
98613,40870
98613,40555
98298,40555
" /> 
<polyline style="fill-rule:evenodd;"
points="97353,40555
97353,40870
97668,40870
97668,40555
97353,40555
" /> 
<polyline style="fill-rule:evenodd;"
points="97038,40555
97038,40870
97353,40870
97353,40555
97038,40555
" /> 
<polyline style="fill-rule:evenodd;"
points="96723,40555
96723,40870
97038,40870
97038,40555
96723,40555
" /> 
<polyline style="fill-rule:evenodd;"
points="96093,40555
96093,40870
96408,40870
96408,40555
96093,40555
" /> 
<polyline style="fill-rule:evenodd;"
points="95148,40555
95148,40870
95463,40870
95463,40555
95148,40555
" /> 
<polyline style="fill-rule:evenodd;"
points="94833,40555
94833,40870
95148,40870
95148,40555
94833,40555
" /> 
<polyline style="fill-rule:evenodd;"
points="94518,40555
94518,40870
94833,40870
94833,40555
94518,40555
" /> 
<polyline style="fill-rule:evenodd;"
points="93888,40555
93888,40870
94203,40870
94203,40555
93888,40555
" /> 
<polyline style="fill-rule:evenodd;"
points="93258,40555
93258,40870
93573,40870
93573,40555
93258,40555
" /> 
<polyline style="fill-rule:evenodd;"
points="92943,40555
92943,40870
93258,40870
93258,40555
92943,40555
" /> 
<polyline style="fill-rule:evenodd;"
points="92628,40555
92628,40870
92943,40870
92943,40555
92628,40555
" /> 
<polyline style="fill-rule:evenodd;"
points="92313,40555
92313,40870
92628,40870
92628,40555
92313,40555
" /> 
<polyline style="fill-rule:evenodd;"
points="91683,40555
91683,40870
91998,40870
91998,40555
91683,40555
" /> 
<polyline style="fill-rule:evenodd;"
points="90424,40555
90424,40870
90739,40870
90739,40555
90424,40555
" /> 
<polyline style="fill-rule:evenodd;"
points="90109,40555
90109,40870
90424,40870
90424,40555
90109,40555
" /> 
<polyline style="fill-rule:evenodd;"
points="89164,40555
89164,40870
89479,40870
89479,40555
89164,40555
" /> 
<polyline style="fill-rule:evenodd;"
points="88849,40555
88849,40870
89164,40870
89164,40555
88849,40555
" /> 
<polyline style="fill-rule:evenodd;"
points="88219,40555
88219,40870
88534,40870
88534,40555
88219,40555
" /> 
<polyline style="fill-rule:evenodd;"
points="97668,40240
97668,40555
97983,40555
97983,40240
97668,40240
" /> 
<polyline style="fill-rule:evenodd;"
points="96408,40240
96408,40555
96723,40555
96723,40240
96408,40240
" /> 
<polyline style="fill-rule:evenodd;"
points="95778,40240
95778,40555
96093,40555
96093,40240
95778,40240
" /> 
<polyline style="fill-rule:evenodd;"
points="95463,40240
95463,40555
95778,40555
95778,40240
95463,40240
" /> 
<polyline style="fill-rule:evenodd;"
points="94518,40240
94518,40555
94833,40555
94833,40240
94518,40240
" /> 
<polyline style="fill-rule:evenodd;"
points="94203,40240
94203,40555
94518,40555
94518,40240
94203,40240
" /> 
<polyline style="fill-rule:evenodd;"
points="93258,40240
93258,40555
93573,40555
93573,40240
93258,40240
" /> 
<polyline style="fill-rule:evenodd;"
points="92628,40240
92628,40555
92943,40555
92943,40240
92628,40240
" /> 
<polyline style="fill-rule:evenodd;"
points="92313,40240
92313,40555
92628,40555
92628,40240
92313,40240
" /> 
<polyline style="fill-rule:evenodd;"
points="89794,40240
89794,40555
90109,40555
90109,40240
89794,40240
" /> 
<polyline style="fill-rule:evenodd;"
points="89164,40240
89164,40555
89479,40555
89479,40240
89164,40240
" /> 
<polyline style="fill-rule:evenodd;"
points="98298,39925
98298,40240
98613,40240
98613,39925
98298,39925
" /> 
<polyline style="fill-rule:evenodd;"
points="97353,39925
97353,40240
97668,40240
97668,39925
97353,39925
" /> 
<polyline style="fill-rule:evenodd;"
points="97038,39925
97038,40240
97353,40240
97353,39925
97038,39925
" /> 
<polyline style="fill-rule:evenodd;"
points="96723,39925
96723,40240
97038,40240
97038,39925
96723,39925
" /> 
<polyline style="fill-rule:evenodd;"
points="96093,39925
96093,40240
96408,40240
96408,39925
96093,39925
" /> 
<polyline style="fill-rule:evenodd;"
points="95463,39925
95463,40240
95778,40240
95778,39925
95463,39925
" /> 
<polyline style="fill-rule:evenodd;"
points="94833,39925
94833,40240
95148,40240
95148,39925
94833,39925
" /> 
<polyline style="fill-rule:evenodd;"
points="94518,39925
94518,40240
94833,40240
94833,39925
94518,39925
" /> 
<polyline style="fill-rule:evenodd;"
points="94203,39925
94203,40240
94518,40240
94518,39925
94203,39925
" /> 
<polyline style="fill-rule:evenodd;"
points="92313,39925
92313,40240
92628,40240
92628,39925
92313,39925
" /> 
<polyline style="fill-rule:evenodd;"
points="91998,39925
91998,40240
92313,40240
92313,39925
91998,39925
" /> 
<polyline style="fill-rule:evenodd;"
points="91369,39925
91369,40240
91683,40240
91683,39925
91369,39925
" /> 
<polyline style="fill-rule:evenodd;"
points="90739,39925
90739,40240
91054,40240
91054,39925
90739,39925
" /> 
<polyline style="fill-rule:evenodd;"
points="90424,39925
90424,40240
90739,40240
90739,39925
90424,39925
" /> 
<polyline style="fill-rule:evenodd;"
points="89479,39925
89479,40240
89794,40240
89794,39925
89479,39925
" /> 
<polyline style="fill-rule:evenodd;"
points="88534,39925
88534,40240
88849,40240
88849,39925
88534,39925
" /> 
<polyline style="fill-rule:evenodd;"
points="98298,39610
98298,39925
98613,39925
98613,39610
98298,39610
" /> 
<polyline style="fill-rule:evenodd;"
points="97983,39610
97983,39925
98298,39925
98298,39610
97983,39610
" /> 
<polyline style="fill-rule:evenodd;"
points="97668,39610
97668,39925
97983,39925
97983,39610
97668,39610
" /> 
<polyline style="fill-rule:evenodd;"
points="97353,39610
97353,39925
97668,39925
97668,39610
97353,39610
" /> 
<polyline style="fill-rule:evenodd;"
points="97038,39610
97038,39925
97353,39925
97353,39610
97038,39610
" /> 
<polyline style="fill-rule:evenodd;"
points="96723,39610
96723,39925
97038,39925
97038,39610
96723,39610
" /> 
<polyline style="fill-rule:evenodd;"
points="96408,39610
96408,39925
96723,39925
96723,39610
96408,39610
" /> 
<polyline style="fill-rule:evenodd;"
points="95778,39610
95778,39925
96093,39925
96093,39610
95778,39610
" /> 
<polyline style="fill-rule:evenodd;"
points="94518,39610
94518,39925
94833,39925
94833,39610
94518,39610
" /> 
<polyline style="fill-rule:evenodd;"
points="94203,39610
94203,39925
94518,39925
94518,39610
94203,39610
" /> 
<polyline style="fill-rule:evenodd;"
points="93888,39610
93888,39925
94203,39925
94203,39610
93888,39610
" /> 
<polyline style="fill-rule:evenodd;"
points="93573,39610
93573,39925
93888,39925
93888,39610
93573,39610
" /> 
<polyline style="fill-rule:evenodd;"
points="93258,39610
93258,39925
93573,39925
93573,39610
93258,39610
" /> 
<polyline style="fill-rule:evenodd;"
points="91369,39610
91369,39925
91683,39925
91683,39610
91369,39610
" /> 
<polyline style="fill-rule:evenodd;"
points="91054,39610
91054,39925
91369,39925
91369,39610
91054,39610
" /> 
<polyline style="fill-rule:evenodd;"
points="90424,39610
90424,39925
90739,39925
90739,39610
90424,39610
" /> 
<polyline style="fill-rule:evenodd;"
points="90109,39610
90109,39925
90424,39925
90424,39610
90109,39610
" /> 
<polyline style="fill-rule:evenodd;"
points="88534,39610
88534,39925
88849,39925
88849,39610
88534,39610
" /> 
<polyline style="fill-rule:evenodd;"
points="88219,39610
88219,39925
88534,39925
88534,39610
88219,39610
" /> 
<polyline style="fill-rule:evenodd;"
points="98298,39295
98298,39610
98613,39610
98613,39295
98298,39295
" /> 
<polyline style="fill-rule:evenodd;"
points="97983,39295
97983,39610
98298,39610
98298,39295
97983,39295
" /> 
<polyline style="fill-rule:evenodd;"
points="97353,39295
97353,39610
97668,39610
97668,39295
97353,39295
" /> 
<polyline style="fill-rule:evenodd;"
points="97038,39295
97038,39610
97353,39610
97353,39295
97038,39295
" /> 
<polyline style="fill-rule:evenodd;"
points="95463,39295
95463,39610
95778,39610
95778,39295
95463,39295
" /> 
<polyline style="fill-rule:evenodd;"
points="94518,39295
94518,39610
94833,39610
94833,39295
94518,39295
" /> 
<polyline style="fill-rule:evenodd;"
points="93888,39295
93888,39610
94203,39610
94203,39295
93888,39295
" /> 
<polyline style="fill-rule:evenodd;"
points="92628,39295
92628,39610
92943,39610
92943,39295
92628,39295
" /> 
<polyline style="fill-rule:evenodd;"
points="92313,39295
92313,39610
92628,39610
92628,39295
92313,39295
" /> 
<polyline style="fill-rule:evenodd;"
points="91998,39295
91998,39610
92313,39610
92313,39295
91998,39295
" /> 
<polyline style="fill-rule:evenodd;"
points="90739,39295
90739,39610
91054,39610
91054,39295
90739,39295
" /> 
<polyline style="fill-rule:evenodd;"
points="90109,39295
90109,39610
90424,39610
90424,39295
90109,39295
" /> 
<polyline style="fill-rule:evenodd;"
points="89794,39295
89794,39610
90109,39610
90109,39295
89794,39295
" /> 
<polyline style="fill-rule:evenodd;"
points="89479,39295
89479,39610
89794,39610
89794,39295
89479,39295
" /> 
<polyline style="fill-rule:evenodd;"
points="89164,39295
89164,39610
89479,39610
89479,39295
89164,39295
" /> 
<polyline style="fill-rule:evenodd;"
points="88534,39295
88534,39610
88849,39610
88849,39295
88534,39295
" /> 
<polyline style="fill-rule:evenodd;"
points="97668,38980
97668,39295
97983,39295
97983,38980
97668,38980
" /> 
<polyline style="fill-rule:evenodd;"
points="96408,38980
96408,39295
96723,39295
96723,38980
96408,38980
" /> 
<polyline style="fill-rule:evenodd;"
points="96093,38980
96093,39295
96408,39295
96408,38980
96093,38980
" /> 
<polyline style="fill-rule:evenodd;"
points="95463,38980
95463,39295
95778,39295
95778,38980
95463,38980
" /> 
<polyline style="fill-rule:evenodd;"
points="95148,38980
95148,39295
95463,39295
95463,38980
95148,38980
" /> 
<polyline style="fill-rule:evenodd;"
points="93888,38980
93888,39295
94203,39295
94203,38980
93888,38980
" /> 
<polyline style="fill-rule:evenodd;"
points="93573,38980
93573,39295
93888,39295
93888,38980
93573,38980
" /> 
<polyline style="fill-rule:evenodd;"
points="92943,38980
92943,39295
93258,39295
93258,38980
92943,38980
" /> 
<polyline style="fill-rule:evenodd;"
points="91998,38980
91998,39295
92313,39295
92313,38980
91998,38980
" /> 
<polyline style="fill-rule:evenodd;"
points="91683,38980
91683,39295
91998,39295
91998,38980
91683,38980
" /> 
<polyline style="fill-rule:evenodd;"
points="91369,38980
91369,39295
91683,39295
91683,38980
91369,38980
" /> 
<polyline style="fill-rule:evenodd;"
points="91054,38980
91054,39295
91369,39295
91369,38980
91054,38980
" /> 
<polyline style="fill-rule:evenodd;"
points="90739,38980
90739,39295
91054,39295
91054,38980
90739,38980
" /> 
<polyline style="fill-rule:evenodd;"
points="90424,38980
90424,39295
90739,39295
90739,38980
90424,38980
" /> 
<polyline style="fill-rule:evenodd;"
points="90109,38980
90109,39295
90424,39295
90424,38980
90109,38980
" /> 
<polyline style="fill-rule:evenodd;"
points="89794,38980
89794,39295
90109,39295
90109,38980
89794,38980
" /> 
<polyline style="fill-rule:evenodd;"
points="89164,38980
89164,39295
89479,39295
89479,38980
89164,38980
" /> 
<polyline style="fill-rule:evenodd;"
points="88849,38980
88849,39295
89164,39295
89164,38980
88849,38980
" /> 
<polyline style="fill-rule:evenodd;"
points="88534,38980
88534,39295
88849,39295
88849,38980
88534,38980
" /> 
<polyline style="fill-rule:evenodd;"
points="97668,38665
97668,38980
97983,38980
97983,38665
97668,38665
" /> 
<polyline style="fill-rule:evenodd;"
points="95148,38665
95148,38980
95463,38980
95463,38665
95148,38665
" /> 
<polyline style="fill-rule:evenodd;"
points="93573,38665
93573,38980
93888,38980
93888,38665
93573,38665
" /> 
<polyline style="fill-rule:evenodd;"
points="93258,38665
93258,38980
93573,38980
93573,38665
93258,38665
" /> 
<polyline style="fill-rule:evenodd;"
points="92943,38665
92943,38980
93258,38980
93258,38665
92943,38665
" /> 
<polyline style="fill-rule:evenodd;"
points="92628,38665
92628,38980
92943,38980
92943,38665
92628,38665
" /> 
<polyline style="fill-rule:evenodd;"
points="91683,38665
91683,38980
91998,38980
91998,38665
91683,38665
" /> 
<polyline style="fill-rule:evenodd;"
points="91054,38665
91054,38980
91369,38980
91369,38665
91054,38665
" /> 
<polyline style="fill-rule:evenodd;"
points="90109,38665
90109,38980
90424,38980
90424,38665
90109,38665
" /> 
<polyline style="fill-rule:evenodd;"
points="88849,38665
88849,38980
89164,38980
89164,38665
88849,38665
" /> 
<polyline style="fill-rule:evenodd;"
points="98298,38350
98298,38665
98613,38665
98613,38350
98298,38350
" /> 
<polyline style="fill-rule:evenodd;"
points="97983,38350
97983,38665
98298,38665
98298,38350
97983,38350
" /> 
<polyline style="fill-rule:evenodd;"
points="97353,38350
97353,38665
97668,38665
97668,38350
97353,38350
" /> 
<polyline style="fill-rule:evenodd;"
points="97038,38350
97038,38665
97353,38665
97353,38350
97038,38350
" /> 
<polyline style="fill-rule:evenodd;"
points="96408,38350
96408,38665
96723,38665
96723,38350
96408,38350
" /> 
<polyline style="fill-rule:evenodd;"
points="96093,38350
96093,38665
96408,38665
96408,38350
96093,38350
" /> 
<polyline style="fill-rule:evenodd;"
points="95148,38350
95148,38665
95463,38665
95463,38350
95148,38350
" /> 
<polyline style="fill-rule:evenodd;"
points="94833,38350
94833,38665
95148,38665
95148,38350
94833,38350
" /> 
<polyline style="fill-rule:evenodd;"
points="94518,38350
94518,38665
94833,38665
94833,38350
94518,38350
" /> 
<polyline style="fill-rule:evenodd;"
points="94203,38350
94203,38665
94518,38665
94518,38350
94203,38350
" /> 
<polyline style="fill-rule:evenodd;"
points="93888,38350
93888,38665
94203,38665
94203,38350
93888,38350
" /> 
<polyline style="fill-rule:evenodd;"
points="93258,38350
93258,38665
93573,38665
93573,38350
93258,38350
" /> 
<polyline style="fill-rule:evenodd;"
points="92628,38350
92628,38665
92943,38665
92943,38350
92628,38350
" /> 
<polyline style="fill-rule:evenodd;"
points="92313,38350
92313,38665
92628,38665
92628,38350
92313,38350
" /> 
<polyline style="fill-rule:evenodd;"
points="90739,38350
90739,38665
91054,38665
91054,38350
90739,38350
" /> 
<polyline style="fill-rule:evenodd;"
points="90424,38350
90424,38665
90739,38665
90739,38350
90424,38350
" /> 
<polyline style="fill-rule:evenodd;"
points="90109,38350
90109,38665
90424,38665
90424,38350
90109,38350
" /> 
<polyline style="fill-rule:evenodd;"
points="89794,38350
89794,38665
90109,38665
90109,38350
89794,38350
" /> 
<polyline style="fill-rule:evenodd;"
points="89479,38350
89479,38665
89794,38665
89794,38350
89479,38350
" /> 
<polyline style="fill-rule:evenodd;"
points="88849,38350
88849,38665
89164,38665
89164,38350
88849,38350
" /> 
<polyline style="fill-rule:evenodd;"
points="88534,38350
88534,38665
88849,38665
88849,38350
88534,38350
" /> 
<polyline style="fill-rule:evenodd;"
points="95778,38035
95778,38350
96093,38350
96093,38035
95778,38035
" /> 
<polyline style="fill-rule:evenodd;"
points="94833,38035
94833,38350
95148,38350
95148,38035
94833,38035
" /> 
<polyline style="fill-rule:evenodd;"
points="94518,38035
94518,38350
94833,38350
94833,38035
94518,38035
" /> 
<polyline style="fill-rule:evenodd;"
points="93888,38035
93888,38350
94203,38350
94203,38035
93888,38035
" /> 
<polyline style="fill-rule:evenodd;"
points="92313,38035
92313,38350
92628,38350
92628,38035
92313,38035
" /> 
<polyline style="fill-rule:evenodd;"
points="91998,38035
91998,38350
92313,38350
92313,38035
91998,38035
" /> 
<polyline style="fill-rule:evenodd;"
points="91369,38035
91369,38350
91683,38350
91683,38035
91369,38035
" /> 
<polyline style="fill-rule:evenodd;"
points="91054,38035
91054,38350
91369,38350
91369,38035
91054,38035
" /> 
<polyline style="fill-rule:evenodd;"
points="90739,38035
90739,38350
91054,38350
91054,38035
90739,38035
" /> 
<polyline style="fill-rule:evenodd;"
points="89479,38035
89479,38350
89794,38350
89794,38035
89479,38035
" /> 
<polyline style="fill-rule:evenodd;"
points="89164,38035
89164,38350
89479,38350
89479,38035
89164,38035
" /> 
<polyline style="fill-rule:evenodd;"
points="88849,38035
88849,38350
89164,38350
89164,38035
88849,38035
" /> 
<polyline style="fill-rule:evenodd;"
points="88534,38035
88534,38350
88849,38350
88849,38035
88534,38035
" /> 
<polyline style="fill-rule:evenodd;"
points="88219,38035
88219,38350
88534,38350
88534,38035
88219,38035
" /> 
<polyline style="fill-rule:evenodd;"
points="98298,37720
98298,38035
98613,38035
98613,37720
98298,37720
" /> 
<polyline style="fill-rule:evenodd;"
points="97983,37720
97983,38035
98298,38035
98298,37720
97983,37720
" /> 
<polyline style="fill-rule:evenodd;"
points="97668,37720
97668,38035
97983,38035
97983,37720
97668,37720
" /> 
<polyline style="fill-rule:evenodd;"
points="97353,37720
97353,38035
97668,38035
97668,37720
97353,37720
" /> 
<polyline style="fill-rule:evenodd;"
points="97038,37720
97038,38035
97353,38035
97353,37720
97038,37720
" /> 
<polyline style="fill-rule:evenodd;"
points="96723,37720
96723,38035
97038,38035
97038,37720
96723,37720
" /> 
<polyline style="fill-rule:evenodd;"
points="96408,37720
96408,38035
96723,38035
96723,37720
96408,37720
" /> 
<polyline style="fill-rule:evenodd;"
points="95778,37720
95778,38035
96093,38035
96093,37720
95778,37720
" /> 
<polyline style="fill-rule:evenodd;"
points="95463,37720
95463,38035
95778,38035
95778,37720
95463,37720
" /> 
<polyline style="fill-rule:evenodd;"
points="95148,37720
95148,38035
95463,38035
95463,37720
95148,37720
" /> 
<polyline style="fill-rule:evenodd;"
points="93573,37720
93573,38035
93888,38035
93888,37720
93573,37720
" /> 
<polyline style="fill-rule:evenodd;"
points="92943,37720
92943,38035
93258,38035
93258,37720
92943,37720
" /> 
<polyline style="fill-rule:evenodd;"
points="91998,37720
91998,38035
92313,38035
92313,37720
91998,37720
" /> 
<polyline style="fill-rule:evenodd;"
points="91683,37720
91683,38035
91998,38035
91998,37720
91683,37720
" /> 
<polyline style="fill-rule:evenodd;"
points="91369,37720
91369,38035
91683,38035
91683,37720
91369,37720
" /> 
<polyline style="fill-rule:evenodd;"
points="91054,37720
91054,38035
91369,38035
91369,37720
91054,37720
" /> 
<polyline style="fill-rule:evenodd;"
points="90739,37720
90739,38035
91054,38035
91054,37720
90739,37720
" /> 
<polyline style="fill-rule:evenodd;"
points="90109,37720
90109,38035
90424,38035
90424,37720
90109,37720
" /> 
<polyline style="fill-rule:evenodd;"
points="89479,37720
89479,38035
89794,38035
89794,37720
89479,37720
" /> 
<polyline style="fill-rule:evenodd;"
points="89164,37720
89164,38035
89479,38035
89479,37720
89164,37720
" /> 
<polyline style="fill-rule:evenodd;"
points="88534,37720
88534,38035
88849,38035
88849,37720
88534,37720
" /> 
<polyline style="fill-rule:evenodd;"
points="88219,37720
88219,38035
88534,38035
88534,37720
88219,37720
" /> 
<polyline style="fill-rule:evenodd;"
points="98298,37405
98298,37720
98613,37720
98613,37405
98298,37405
" /> 
<polyline style="fill-rule:evenodd;"
points="96408,37405
96408,37720
96723,37720
96723,37405
96408,37405
" /> 
<polyline style="fill-rule:evenodd;"
points="95148,37405
95148,37720
95463,37720
95463,37405
95148,37405
" /> 
<polyline style="fill-rule:evenodd;"
points="94833,37405
94833,37720
95148,37720
95148,37405
94833,37405
" /> 
<polyline style="fill-rule:evenodd;"
points="94203,37405
94203,37720
94518,37720
94518,37405
94203,37405
" /> 
<polyline style="fill-rule:evenodd;"
points="93888,37405
93888,37720
94203,37720
94203,37405
93888,37405
" /> 
<polyline style="fill-rule:evenodd;"
points="93573,37405
93573,37720
93888,37720
93888,37405
93573,37405
" /> 
<polyline style="fill-rule:evenodd;"
points="93258,37405
93258,37720
93573,37720
93573,37405
93258,37405
" /> 
<polyline style="fill-rule:evenodd;"
points="92943,37405
92943,37720
93258,37720
93258,37405
92943,37405
" /> 
<polyline style="fill-rule:evenodd;"
points="92628,37405
92628,37720
92943,37720
92943,37405
92628,37405
" /> 
<polyline style="fill-rule:evenodd;"
points="91683,37405
91683,37720
91998,37720
91998,37405
91683,37405
" /> 
<polyline style="fill-rule:evenodd;"
points="91054,37405
91054,37720
91369,37720
91369,37405
91054,37405
" /> 
<polyline style="fill-rule:evenodd;"
points="90739,37405
90739,37720
91054,37720
91054,37405
90739,37405
" /> 
<polyline style="fill-rule:evenodd;"
points="89479,37405
89479,37720
89794,37720
89794,37405
89479,37405
" /> 
<polyline style="fill-rule:evenodd;"
points="89164,37405
89164,37720
89479,37720
89479,37405
89164,37405
" /> 
<polyline style="fill-rule:evenodd;"
points="88219,37405
88219,37720
88534,37720
88534,37405
88219,37405
" /> 
<polyline style="fill-rule:evenodd;"
points="98298,37090
98298,37405
98613,37405
98613,37090
98298,37090
" /> 
<polyline style="fill-rule:evenodd;"
points="97668,37090
97668,37405
97983,37405
97983,37090
97668,37090
" /> 
<polyline style="fill-rule:evenodd;"
points="97353,37090
97353,37405
97668,37405
97668,37090
97353,37090
" /> 
<polyline style="fill-rule:evenodd;"
points="97038,37090
97038,37405
97353,37405
97353,37090
97038,37090
" /> 
<polyline style="fill-rule:evenodd;"
points="96408,37090
96408,37405
96723,37405
96723,37090
96408,37090
" /> 
<polyline style="fill-rule:evenodd;"
points="95778,37090
95778,37405
96093,37405
96093,37090
95778,37090
" /> 
<polyline style="fill-rule:evenodd;"
points="92628,37090
92628,37405
92943,37405
92943,37090
92628,37090
" /> 
<polyline style="fill-rule:evenodd;"
points="92313,37090
92313,37405
92628,37405
92628,37090
92313,37090
" /> 
<polyline style="fill-rule:evenodd;"
points="91998,37090
91998,37405
92313,37405
92313,37090
91998,37090
" /> 
<polyline style="fill-rule:evenodd;"
points="90739,37090
90739,37405
91054,37405
91054,37090
90739,37090
" /> 
<polyline style="fill-rule:evenodd;"
points="90424,37090
90424,37405
90739,37405
90739,37090
90424,37090
" /> 
<polyline style="fill-rule:evenodd;"
points="90109,37090
90109,37405
90424,37405
90424,37090
90109,37090
" /> 
<polyline style="fill-rule:evenodd;"
points="89794,37090
89794,37405
90109,37405
90109,37090
89794,37090
" /> 
<polyline style="fill-rule:evenodd;"
points="89479,37090
89479,37405
89794,37405
89794,37090
89479,37090
" /> 
<polyline style="fill-rule:evenodd;"
points="89164,37090
89164,37405
89479,37405
89479,37090
89164,37090
" /> 
<polyline style="fill-rule:evenodd;"
points="98298,36776
98298,37090
98613,37090
98613,36776
98298,36776
" /> 
<polyline style="fill-rule:evenodd;"
points="97668,36776
97668,37090
97983,37090
97983,36776
97668,36776
" /> 
<polyline style="fill-rule:evenodd;"
points="97353,36776
97353,37090
97668,37090
97668,36776
97353,36776
" /> 
<polyline style="fill-rule:evenodd;"
points="97038,36776
97038,37090
97353,37090
97353,36776
97038,36776
" /> 
<polyline style="fill-rule:evenodd;"
points="96408,36776
96408,37090
96723,37090
96723,36776
96408,36776
" /> 
<polyline style="fill-rule:evenodd;"
points="95463,36776
95463,37090
95778,37090
95778,36776
95463,36776
" /> 
<polyline style="fill-rule:evenodd;"
points="94833,36776
94833,37090
95148,37090
95148,36776
94833,36776
" /> 
<polyline style="fill-rule:evenodd;"
points="93258,36776
93258,37090
93573,37090
93573,36776
93258,36776
" /> 
<polyline style="fill-rule:evenodd;"
points="92943,36776
92943,37090
93258,37090
93258,36776
92943,36776
" /> 
<polyline style="fill-rule:evenodd;"
points="92313,36776
92313,37090
92628,37090
92628,36776
92313,36776
" /> 
<polyline style="fill-rule:evenodd;"
points="91683,36776
91683,37090
91998,37090
91998,36776
91683,36776
" /> 
<polyline style="fill-rule:evenodd;"
points="91369,36776
91369,37090
91683,37090
91683,36776
91369,36776
" /> 
<polyline style="fill-rule:evenodd;"
points="91054,36776
91054,37090
91369,37090
91369,36776
91054,36776
" /> 
<polyline style="fill-rule:evenodd;"
points="90739,36776
90739,37090
91054,37090
91054,36776
90739,36776
" /> 
<polyline style="fill-rule:evenodd;"
points="89479,36776
89479,37090
89794,37090
89794,36776
89479,36776
" /> 
<polyline style="fill-rule:evenodd;"
points="88849,36776
88849,37090
89164,37090
89164,36776
88849,36776
" /> 
<polyline style="fill-rule:evenodd;"
points="88534,36776
88534,37090
88849,37090
88849,36776
88534,36776
" /> 
<polyline style="fill-rule:evenodd;"
points="88219,36776
88219,37090
88534,37090
88534,36776
88219,36776
" /> 
<polyline style="fill-rule:evenodd;"
points="98298,36461
98298,36776
98613,36776
98613,36461
98298,36461
" /> 
<polyline style="fill-rule:evenodd;"
points="97668,36461
97668,36776
97983,36776
97983,36461
97668,36461
" /> 
<polyline style="fill-rule:evenodd;"
points="97353,36461
97353,36776
97668,36776
97668,36461
97353,36461
" /> 
<polyline style="fill-rule:evenodd;"
points="97038,36461
97038,36776
97353,36776
97353,36461
97038,36461
" /> 
<polyline style="fill-rule:evenodd;"
points="96408,36461
96408,36776
96723,36776
96723,36461
96408,36461
" /> 
<polyline style="fill-rule:evenodd;"
points="95463,36461
95463,36776
95778,36776
95778,36461
95463,36461
" /> 
<polyline style="fill-rule:evenodd;"
points="94833,36461
94833,36776
95148,36776
95148,36461
94833,36461
" /> 
<polyline style="fill-rule:evenodd;"
points="94518,36461
94518,36776
94833,36776
94833,36461
94518,36461
" /> 
<polyline style="fill-rule:evenodd;"
points="93258,36461
93258,36776
93573,36776
93573,36461
93258,36461
" /> 
<polyline style="fill-rule:evenodd;"
points="92628,36461
92628,36776
92943,36776
92943,36461
92628,36461
" /> 
<polyline style="fill-rule:evenodd;"
points="92313,36461
92313,36776
92628,36776
92628,36461
92313,36461
" /> 
<polyline style="fill-rule:evenodd;"
points="91054,36461
91054,36776
91369,36776
91369,36461
91054,36461
" /> 
<polyline style="fill-rule:evenodd;"
points="89479,36461
89479,36776
89794,36776
89794,36461
89479,36461
" /> 
<polyline style="fill-rule:evenodd;"
points="98298,36146
98298,36461
98613,36461
98613,36146
98298,36146
" /> 
<polyline style="fill-rule:evenodd;"
points="96408,36146
96408,36461
96723,36461
96723,36146
96408,36146
" /> 
<polyline style="fill-rule:evenodd;"
points="92313,36146
92313,36461
92628,36461
92628,36146
92313,36146
" /> 
<polyline style="fill-rule:evenodd;"
points="91998,36146
91998,36461
92313,36461
92313,36146
91998,36146
" /> 
<polyline style="fill-rule:evenodd;"
points="91369,36146
91369,36461
91683,36461
91683,36146
91369,36146
" /> 
<polyline style="fill-rule:evenodd;"
points="91054,36146
91054,36461
91369,36461
91369,36146
91054,36146
" /> 
<polyline style="fill-rule:evenodd;"
points="90424,36146
90424,36461
90739,36461
90739,36146
90424,36146
" /> 
<polyline style="fill-rule:evenodd;"
points="90109,36146
90109,36461
90424,36461
90424,36146
90109,36146
" /> 
<polyline style="fill-rule:evenodd;"
points="89479,36146
89479,36461
89794,36461
89794,36146
89479,36146
" /> 
<polyline style="fill-rule:evenodd;"
points="89164,36146
89164,36461
89479,36461
89479,36146
89164,36146
" /> 
<polyline style="fill-rule:evenodd;"
points="98298,35831
98298,36146
98613,36146
98613,35831
98298,35831
" /> 
<polyline style="fill-rule:evenodd;"
points="97983,35831
97983,36146
98298,36146
98298,35831
97983,35831
" /> 
<polyline style="fill-rule:evenodd;"
points="97668,35831
97668,36146
97983,36146
97983,35831
97668,35831
" /> 
<polyline style="fill-rule:evenodd;"
points="97353,35831
97353,36146
97668,36146
97668,35831
97353,35831
" /> 
<polyline style="fill-rule:evenodd;"
points="97038,35831
97038,36146
97353,36146
97353,35831
97038,35831
" /> 
<polyline style="fill-rule:evenodd;"
points="96723,35831
96723,36146
97038,36146
97038,35831
96723,35831
" /> 
<polyline style="fill-rule:evenodd;"
points="96408,35831
96408,36146
96723,36146
96723,35831
96408,35831
" /> 
<polyline style="fill-rule:evenodd;"
points="95778,35831
95778,36146
96093,36146
96093,35831
95778,35831
" /> 
<polyline style="fill-rule:evenodd;"
points="95463,35831
95463,36146
95778,36146
95778,35831
95463,35831
" /> 
<polyline style="fill-rule:evenodd;"
points="95148,35831
95148,36146
95463,36146
95463,35831
95148,35831
" /> 
<polyline style="fill-rule:evenodd;"
points="94518,35831
94518,36146
94833,36146
94833,35831
94518,35831
" /> 
<polyline style="fill-rule:evenodd;"
points="94203,35831
94203,36146
94518,36146
94518,35831
94203,35831
" /> 
<polyline style="fill-rule:evenodd;"
points="93573,35831
93573,36146
93888,36146
93888,35831
93573,35831
" /> 
<polyline style="fill-rule:evenodd;"
points="91998,35831
91998,36146
92313,36146
92313,35831
91998,35831
" /> 
<polyline style="fill-rule:evenodd;"
points="91369,35831
91369,36146
91683,36146
91683,35831
91369,35831
" /> 
<polyline style="fill-rule:evenodd;"
points="91054,35831
91054,36146
91369,36146
91369,35831
91054,35831
" /> 
<polyline style="fill-rule:evenodd;"
points="90424,35831
90424,36146
90739,36146
90739,35831
90424,35831
" /> 
<polyline style="fill-rule:evenodd;"
points="89479,35831
89479,36146
89794,36146
89794,35831
89479,35831
" /> 
<polyline style="fill-rule:evenodd;"
points="89164,35831
89164,36146
89479,36146
89479,35831
89164,35831
" /> 
<polyline style="fill-rule:evenodd;"
points="88849,35831
88849,36146
89164,36146
89164,35831
88849,35831
" /> 
<polyline style="fill-rule:evenodd;"
points="88219,35831
88219,36146
88534,36146
88534,35831
88219,35831
" /> 
</g>
<g style="fill:#000000; fill-opacity:1.0; 
stroke:#000000; stroke-width:94.4882; stroke-opacity:1; 
stroke-linecap:round; stroke-linejoin:round;">
</g>
<g style="fill:#000000; fill-opacity:0.0; 
stroke:#000000; stroke-width:94.4882; stroke-opacity:1; 
stroke-linecap:round; stroke-linejoin:round;">
<path d="M62954 24325
L59017 24325
" />
<path d="M59017.8 24325.8 A433.071 433.071 0.0 0 0 58584.7 24758.9 " />
<path d="M63387.8 24758.9 A433.071 433.071 0.0 0 0 62954.8 24325.8 " />
<path d="M58584 24758
L58584 26688
" />
<path d="M63387 26688
L63387 24758
" />
<path d="M63387.8 26688 A590.551 590.551 0.0 0 0 63776.4 27243 " />
<path d="M58196.1 27243 A590.551 590.551 0.0 0 0 58584.7 26688 " />
<path d="M60974.3 48931.9 A11023.4 11023.4 0.0 0 0 63757.9 27239.2 " />
<path d="M58214.6 27239.2 A11023.4 11023.4 0.0 0 0 60998.3 48931.9 " />
<path d="M47441 33091
L47997 32534
" />
<path d="M47051 31588
L46494 32145
" />
<path d="M45111 33548
L44554 34105
" />
<path d="M45501 35051
L46057 34494
" />
</g>
<g style="fill:#000000; fill-opacity:0.0; 
stroke:#000000; stroke-width:118.11; stroke-opacity:1; 
stroke-linecap:round; stroke-linejoin:round;">
<path d="M87465 37695
L87418 37790
L87323 37885
L87180 38028
L87132 38123
L87132 38219
" />
<path d="M87370 38171
L87323 38266
L87227 38361
L87037 38409
L86703 38409
L86513 38361
L86418 38266
L86370 38171
L86370 37980
L86418 37885
L86513 37790
L86703 37742
L87037 37742
L87227 37790
L87323 37885
L87370 37980
L87370 38171
" />
<path d="M87370 36742
L86894 37076
" />
<path d="M87370 37314
L86370 37314
L86370 36933
L86418 36838
L86465 36790
L86561 36742
L86703 36742
L86799 36790
L86846 36838
L86894 36933
L86894 37314
" />
<path d="M87370 35790
L87370 36361
" />
<path d="M87370 36076
L86370 36076
L86513 36171
L86608 36266
L86656 36361
" />
<path d="M90687 47592
L90592 47640
L90401 47640
L90306 47592
L90259 47497
L90259 47116
L90306 47021
L90401 46973
L90592 46973
L90687 47021
L90735 47116
L90735 47211
L90259 47307
" />
<path d="M91687 47640
L91116 47640
" />
<path d="M91401 47640
L91401 46640
L91306 46783
L91211 46878
L91116 46926
" />
<path d="M92544 46973
L92544 47640
" />
<path d="M92306 46592
L92068 47307
L92687 47307
" />
<path d="M93497 47640
L93497 46640
" />
<path d="M93497 47592
L93401 47640
L93211 47640
L93116 47592
L93068 47545
L93021 47449
L93021 47164
L93068 47068
L93116 47021
L93211 46973
L93401 46973
L93497 47021
" />
<path d="M94021 47640
L94211 47640
L94306 47592
L94354 47545
L94449 47402
L94497 47211
L94497 46830
L94449 46735
L94401 46688
L94306 46640
L94116 46640
L94021 46688
L93973 46735
L93925 46830
L93925 47068
L93973 47164
L94021 47211
L94116 47259
L94306 47259
L94401 47211
L94449 47164
L94497 47068
" />
<path d="M94782 46973
L95163 46973
" />
<path d="M94925 47640
L94925 46783
L94973 46688
L95068 46640
L95163 46640
" />
<path d="M95401 46640
L96068 46640
L95640 47640
" />
<path d="M96401 46735
L96449 46688
L96544 46640
L96782 46640
L96878 46688
L96925 46735
L96973 46830
L96973 46926
L96925 47068
L96354 47640
L96973 47640
" />
<path d="M64585 24337
L64548 24449
L64510 24487
L64435 24524
L64323 24524
L64248 24487
L64210 24449
L64173 24374
L64173 24074
L64960 24074
L64960 24337
L64923 24412
L64885 24449
L64810 24487
L64735 24487
L64660 24449
L64623 24412
L64585 24337
L64585 24074
" />
<path d="M64960 24749
L64960 25199
" />
<path d="M64173 24974
L64960 24974
" />
<path d="M64885 25424
L64923 25461
L64960 25536
L64960 25724
L64923 25799
L64885 25836
L64810 25874
L64735 25874
L64623 25836
L64173 25386
L64173 25874
" />
<path d="M60901 27655
L60901 28555
" />
<path d="M60451 28105
L61351 28105
" />
<path d="M47922 33731
L47922 33784
L47869 33891
L47816 33944
L47710 33997
L47604 33997
L47524 33970
L47392 33891
L47312 33811
L47233 33678
L47206 33599
L47206 33493
L47259 33387
L47312 33334
L47418 33281
L47471 33281
" />
<path d="M47683 33069
L47683 33016
L47710 32936
L47842 32803
L47922 32777
L47975 32777
L48054 32803
L48107 32857
L48160 32963
L48160 33599
L48505 33254
" />
<path d="M49035 32724
L48717 33042
" />
<path d="M48876 32883
L48320 32326
L48346 32459
L48346 32565
L48320 32644
" />
<path d="M45982 35691
L45982 35744
L45929 35851
L45876 35904
L45770 35957
L45664 35957
L45584 35930
L45452 35851
L45372 35771
L45293 35638
L45266 35559
L45266 35453
L45319 35347
L45372 35294
L45478 35241
L45531 35241
" />
<path d="M45743 35029
L45743 34976
L45770 34896
L45902 34763
L45982 34737
L46035 34737
L46114 34763
L46167 34817
L46220 34923
L46220 35559
L46565 35214
" />
<path d="M46273 34498
L46273 34445
L46300 34366
L46433 34233
L46512 34207
L46565 34207
L46645 34233
L46698 34286
L46751 34392
L46751 35029
L47095 34684
" />
</g> 
</svg>
