<?xml version="1.0" standalone="no"?>
 <!DOCTYPE svg PUBLIC "-//W3C//DTD SVG 1.1//EN" 
 "http://www.w3.org/Graphics/SVG/1.1/DTD/svg11.dtd"> 
<svg xmlns="http://www.w3.org/2000/svg" version="1.1" 
    width="29.7002cm" height="21.0007cm" viewBox="0 0 116930 82680 ">
<title>SVG Picture created as ThermocoupleLogger-F_Paste.svg date 2019/03/14 18:04:39 </title>
  <desc>Picture generated by PCBNEW </desc>
<g style="fill:#000000; fill-opacity:1;stroke:#000000; stroke-opacity:1;
stroke-linecap:round; stroke-linejoin:round; "
 transform="translate(0 0) scale(1 1)">
</g>
<g style="fill:#000000; fill-opacity:0.0; 
stroke:#000000; stroke-width:-0.000787402; stroke-opacity:1; 
stroke-linecap:round; stroke-linejoin:round;">
</g>
<g style="fill:#000000; fill-opacity:0.0; 
stroke:#000000; stroke-width:157.48; stroke-opacity:1; 
stroke-linecap:round; stroke-linejoin:round;">
<path d="M96543 62899
L96543 67324
" />
<path d="M17743 67332
L96539 67332
" />
<path d="M30465 21607
L17748 21607
" />
<path d="M17743 62940
L17743 67340
" />
<path d="M83703 62900
L65463 62900
" />
<path d="M87433 62900
L96543 62900
" />
<path d="M87393 60900
L96483 60900
" />
<path d="M65463 60900
L83703 60900
" />
<path d="M61827 62909
L24467 62909
" />
<path d="M24473 60910
L61833 60910
" />
<path d="M20843 60920
L17743 60920
" />
<path d="M20813 62920
L17740 62938
" />
<path d="M20813.7 62920 A1000.2 1000.2 0.0 0 0 20836.3 60920.7 " />
<path d="M24483.7 60910 A1000 1000 0.0 0 0 24467.1 62909.9 " />
<path d="M61813.7 62910 A1000 1000 0.0 0 0 61835 60910.2 " />
<path d="M65463.7 60900 A1000.2 1000.2 0.0 1 0 65465.5 62900 " />
<path d="M83693.7 62900 A1000.2 1000.2 0.0 1 0 83713.7 60899.8 " />
<path d="M87384.5 60900 A1000.2 1000.2 0.0 0 0 87423.7 62900 " />
<path d="M91343.7 19540 A1000.8 1000.8 0.0 0 0 91383.7 21540.8 " />
<path d="M55123.7 21580 A1000.8 1000.8 0.0 1 0 55123.7 19580 " />
<path d="M17703 19560
L17703 19560
" />
<path d="M30463 19560
L17703 19560
" />
<path d="M34123 21580
L55123 21580
" />
<path d="M55103 19580
L34143 19580
" />
<path d="M30463.7 21600 A1020 1020 0.0 0 0 30463.7 19560 " />
<path d="M34143.7 19580 A1000.2 1000.2 0.0 1 0 34123.7 21580.2 " />
<path d="M87723 21570
L58893 21570
" />
<path d="M58743 19590
L87753 19590
" />
<path d="M58823.7 19580 A990.202 990.202 0.0 0 0 58863.7 21560 " />
<path d="M91394 21544
L96480 21552
" />
<path d="M96443 19540
L91343 19540
" />
<path d="M96443 14340
L96443 19540
" />
<path d="M87723.7 21580 A996 996 0.0 0 0 87731.8 19588 " />
<path d="M17703 14320
L96433 14324
" />
<path d="M17703 19560
L17703 14320
" />
<path d="M17743 60920
L17743 21610
" />
<path d="M96483 60900
L96483 21569
" />
</g>
<g style="fill:#000000; fill-opacity:0.0; 
stroke:#000000; stroke-width:0; stroke-opacity:1; 
stroke-linecap:round; stroke-linejoin:round;">
</g>
<g style="fill:#000000; fill-opacity:1.0; 
stroke:#000000; stroke-width:0; stroke-opacity:1; 
stroke-linecap:round; stroke-linejoin:round;">
<polyline style="fill-rule:evenodd;"
points="61687,31588
61687,32611
61136,32611
61136,31588
61687,31588
" /> 
<polyline style="fill-rule:evenodd;"
points="63183,31588
63183,32611
62632,32611
62632,31588
63183,31588
" /> 
<polyline style="fill-rule:evenodd;"
points="20391,30244
21336,30244
21336,30953
20391,30953
20391,30244
" /> 
<polyline style="fill-rule:evenodd;"
points="20391,27646
21336,27646
21336,28355
20391,28355
20391,27646
" /> 
<polyline style="fill-rule:evenodd;"
points="35803,24891
35803,23631
38165,23631
38165,24891
35803,24891
" /> 
<polyline style="fill-rule:evenodd;"
points="39268,24891
39268,23631
41630,23631
41630,24891
39268,24891
" /> 
<polyline style="fill-rule:evenodd;"
points="62258,34774
61628,34774
61628,34066
62258,34066
62258,34774
" /> 
<polyline style="fill-rule:evenodd;"
points="63006,36349
62376,36349
62376,35641
63006,35641
63006,36349
" /> 
<polyline style="fill-rule:evenodd;"
points="61510,36349
60880,36349
60880,35641
61510,35641
61510,36349
" /> 
<polyline style="fill-rule:evenodd;"
points="75824,28288
75156,28956
74153,27954
74822,27286
75824,28288
" /> 
<polyline style="fill-rule:evenodd;"
points="73597,26061
72929,26729
71926,25727
72595,25059
73597,26061
" /> 
<polyline style="fill-rule:evenodd;"
points="74933,24725
74265,25393
73263,24391
73931,23723
74933,24725
" /> 
<polyline style="fill-rule:evenodd;"
points="77160,26952
76492,27620
75490,26618
76158,25950
77160,26952
" /> 
<polyline style="fill-rule:evenodd;"
points="39268,29569
39268,28310
41630,28310
41630,29569
39268,29569
" /> 
<polyline style="fill-rule:evenodd;"
points="35803,29569
35803,28310
38165,28310
38165,29569
35803,29569
" /> 
<circle cx="27535.9" cy="16584.1" r="984.252" /> 
</g>
<g style="fill:#000000; fill-opacity:1.0; 
stroke:#000000; stroke-width:118.11; stroke-opacity:1; 
stroke-linecap:round; stroke-linejoin:round;">
</g>
<g style="fill:#000000; fill-opacity:1.0; 
stroke:#000000; stroke-width:0; stroke-opacity:1; 
stroke-linecap:round; stroke-linejoin:round;">
<circle cx="82654" cy="16584.1" r="984.252" /> 
</g>
<g style="fill:#000000; fill-opacity:1.0; 
stroke:#000000; stroke-width:118.11; stroke-opacity:1; 
stroke-linecap:round; stroke-linejoin:round;">
</g>
<g style="fill:#000000; fill-opacity:1.0; 
stroke:#000000; stroke-width:0; stroke-opacity:1; 
stroke-linecap:round; stroke-linejoin:round;">
<circle cx="27535.9" cy="63828.2" r="984.252" /> 
</g>
<g style="fill:#000000; fill-opacity:1.0; 
stroke:#000000; stroke-width:118.11; stroke-opacity:1; 
stroke-linecap:round; stroke-linejoin:round;">
</g>
<g style="fill:#000000; fill-opacity:1.0; 
stroke:#000000; stroke-width:0; stroke-opacity:1; 
stroke-linecap:round; stroke-linejoin:round;">
<circle cx="90528" cy="63828.2" r="984.252" /> 
</g>
<g style="fill:#000000; fill-opacity:1.0; 
stroke:#000000; stroke-width:118.11; stroke-opacity:1; 
stroke-linecap:round; stroke-linejoin:round;">
</g>
<g style="fill:#000000; fill-opacity:1.0; 
stroke:#000000; stroke-width:0; stroke-opacity:1; 
stroke-linecap:round; stroke-linejoin:round;">
<polyline style="fill-rule:evenodd;"
points="72844,35269
73150,34963
74041,35854
73735,36160
72844,35269
" /> 
<polyline style="fill-rule:evenodd;"
points="72399,35714
72705,35408
73596,36299
73289,36605
72399,35714
" /> 
<polyline style="fill-rule:evenodd;"
points="71953,36160
72259,35854
73150,36744
72844,37051
71953,36160
" /> 
<polyline style="fill-rule:evenodd;"
points="71508,36605
71814,36299
72705,37190
72399,37496
71508,36605
" /> 
<polyline style="fill-rule:evenodd;"
points="71062,37051
71369,36744
72259,37635
71953,37942
71062,37051
" /> 
<polyline style="fill-rule:evenodd;"
points="70617,37496
70923,37190
71814,38081
71508,38387
70617,37496
" /> 
<polyline style="fill-rule:evenodd;"
points="70171,37942
70478,37635
71369,38526
71062,38832
70171,37942
" /> 
<polyline style="fill-rule:evenodd;"
points="69726,38387
70032,38081
70923,38972
70617,39278
69726,38387
" /> 
<polyline style="fill-rule:evenodd;"
points="69002,38081
69308,38387
68418,39278
68111,38972
69002,38081
" /> 
<polyline style="fill-rule:evenodd;"
points="68557,37635
68863,37942
67972,38832
67666,38526
68557,37635
" /> 
<polyline style="fill-rule:evenodd;"
points="68111,37190
68418,37496
67527,38387
67221,38081
68111,37190
" /> 
<polyline style="fill-rule:evenodd;"
points="67666,36744
67972,37051
67081,37942
66775,37635
67666,36744
" /> 
<polyline style="fill-rule:evenodd;"
points="67221,36299
67527,36605
66636,37496
66330,37190
67221,36299
" /> 
<polyline style="fill-rule:evenodd;"
points="66775,35854
67081,36160
66190,37051
65884,36744
66775,35854
" /> 
<polyline style="fill-rule:evenodd;"
points="66330,35408
66636,35714
65745,36605
65439,36299
66330,35408
" /> 
<polyline style="fill-rule:evenodd;"
points="65884,34963
66190,35269
65300,36160
64993,35854
65884,34963
" /> 
<polyline style="fill-rule:evenodd;"
points="64993,33654
65300,33348
66190,34239
65884,34545
64993,33654
" /> 
<polyline style="fill-rule:evenodd;"
points="65439,33209
65745,32903
66636,33794
66330,34100
65439,33209
" /> 
<polyline style="fill-rule:evenodd;"
points="65884,32763
66190,32457
67081,33348
66775,33654
65884,32763
" /> 
<polyline style="fill-rule:evenodd;"
points="66330,32318
66636,32012
67527,32903
67221,33209
66330,32318
" /> 
<polyline style="fill-rule:evenodd;"
points="66775,31873
67081,31566
67972,32457
67666,32763
66775,31873
" /> 
<polyline style="fill-rule:evenodd;"
points="67221,31427
67527,31121
68418,32012
68111,32318
67221,31427
" /> 
<polyline style="fill-rule:evenodd;"
points="67666,30982
67972,30676
68863,31566
68557,31873
67666,30982
" /> 
<polyline style="fill-rule:evenodd;"
points="68111,30536
68418,30230
69308,31121
69002,31427
68111,30536
" /> 
<polyline style="fill-rule:evenodd;"
points="70617,30230
70923,30536
70032,31427
69726,31121
70617,30230
" /> 
<polyline style="fill-rule:evenodd;"
points="71062,30676
71369,30982
70478,31873
70171,31566
71062,30676
" /> 
<polyline style="fill-rule:evenodd;"
points="71508,31121
71814,31427
70923,32318
70617,32012
71508,31121
" /> 
<polyline style="fill-rule:evenodd;"
points="71953,31566
72259,31873
71369,32763
71062,32457
71953,31566
" /> 
<polyline style="fill-rule:evenodd;"
points="72399,32012
72705,32318
71814,33209
71508,32903
72399,32012
" /> 
<polyline style="fill-rule:evenodd;"
points="72844,32457
73150,32763
72259,33654
71953,33348
72844,32457
" /> 
<polyline style="fill-rule:evenodd;"
points="73289,32903
73596,33209
72705,34100
72399,33794
73289,32903
" /> 
<polyline style="fill-rule:evenodd;"
points="73735,33348
74041,33654
73150,34545
72844,34239
73735,33348
" /> 
<polyline style="fill-rule:evenodd;"
points="85405,34733
84146,34733
84146,34182
85405,34182
85405,34733
" /> 
<polyline style="fill-rule:evenodd;"
points="85405,33867
84146,33867
84146,33316
85405,33316
85405,33867
" /> 
<polyline style="fill-rule:evenodd;"
points="85405,33001
84146,33001
84146,32450
85405,32450
85405,33001
" /> 
<polyline style="fill-rule:evenodd;"
points="85405,35599
84146,35599
84146,35048
85405,35048
85405,35599
" /> 
<polyline style="fill-rule:evenodd;"
points="85405,36465
84146,36465
84146,35914
85405,35914
85405,36465
" /> 
<polyline style="fill-rule:evenodd;"
points="85405,37332
84146,37332
84146,36780
85405,36780
85405,37332
" /> 
<polyline style="fill-rule:evenodd;"
points="85405,39064
84146,39064
84146,38513
85405,38513
85405,39064
" /> 
<polyline style="fill-rule:evenodd;"
points="85405,38198
84146,38198
84146,37647
85405,37647
85405,38198
" /> 
<polyline style="fill-rule:evenodd;"
points="85405,39930
84146,39930
84146,39379
85405,39379
85405,39930
" /> 
<polyline style="fill-rule:evenodd;"
points="85720,41032
84618,41032
84618,40088
85720,40088
85720,41032
" /> 
<polyline style="fill-rule:evenodd;"
points="85720,29694
84618,29694
84618,28434
85720,28434
85720,29694
" /> 
<polyline style="fill-rule:evenodd;"
points="93594,41032
91862,41032
91862,40088
93594,40088
93594,41032
" /> 
<polyline style="fill-rule:evenodd;"
points="93594,28828
91862,28828
91862,27883
93594,27883
93594,28828
" /> 
<polyline style="fill-rule:evenodd;"
points="73044,28431
73740,29127
73184,29684
72488,28988
73044,28431
" /> 
<polyline style="fill-rule:evenodd;"
points="71931,29544
72627,30240
72070,30797
71374,30101
71931,29544
" /> 
<polyline style="fill-rule:evenodd;"
points="70791,28324
71487,29020
70930,29577
70234,28881
70791,28324
" /> 
<polyline style="fill-rule:evenodd;"
points="71904,27211
72600,27907
72044,28464
71348,27768
71904,27211
" /> 
<polyline style="fill-rule:evenodd;"
points="59307,37149
59779,37149
59779,38330
59307,38330
59307,37149
" /> 
<polyline style="fill-rule:evenodd;"
points="58307,37149
58779,37149
58779,38330
58307,38330
58307,37149
" /> 
<polyline style="fill-rule:evenodd;"
points="57307,37149
57779,37149
57779,38330
57307,38330
57307,37149
" /> 
<polyline style="fill-rule:evenodd;"
points="56307,37149
56779,37149
56779,38330
56307,38330
56307,37149
" /> 
<polyline style="fill-rule:evenodd;"
points="55307,37149
55779,37149
55779,38330
55307,38330
55307,37149
" /> 
<polyline style="fill-rule:evenodd;"
points="54307,37149
54779,37149
54779,38330
54307,38330
54307,37149
" /> 
<polyline style="fill-rule:evenodd;"
points="53307,37149
53779,37149
53779,38330
53307,38330
53307,37149
" /> 
<polyline style="fill-rule:evenodd;"
points="52307,37149
52779,37149
52779,38330
52307,38330
52307,37149
" /> 
<polyline style="fill-rule:evenodd;"
points="52307,29826
52779,29826
52779,31007
52307,31007
52307,29826
" /> 
<polyline style="fill-rule:evenodd;"
points="53307,29826
53779,29826
53779,31007
53307,31007
53307,29826
" /> 
<polyline style="fill-rule:evenodd;"
points="54307,29826
54779,29826
54779,31007
54307,31007
54307,29826
" /> 
<polyline style="fill-rule:evenodd;"
points="55307,29826
55779,29826
55779,31007
55307,31007
55307,29826
" /> 
<polyline style="fill-rule:evenodd;"
points="56307,29826
56779,29826
56779,31007
56307,31007
56307,29826
" /> 
<polyline style="fill-rule:evenodd;"
points="57307,29826
57779,29826
57779,31007
57307,31007
57307,29826
" /> 
<polyline style="fill-rule:evenodd;"
points="58307,29826
58779,29826
58779,31007
58307,31007
58307,29826
" /> 
<polyline style="fill-rule:evenodd;"
points="59307,29826
59779,29826
59779,31007
59307,31007
59307,29826
" /> 
<polyline style="fill-rule:evenodd;"
points="82935,36386
81951,36386
81951,35598
82935,35598
82935,36386
" /> 
<polyline style="fill-rule:evenodd;"
points="82935,37961
81951,37961
81951,37173
82935,37173
82935,37961
" /> 
<polyline style="fill-rule:evenodd;"
points="78935,37973
77951,37973
77951,37186
78935,37186
78935,37973
" /> 
<polyline style="fill-rule:evenodd;"
points="78935,36398
77951,36398
77951,35611
78935,35611
78935,36398
" /> 
<polyline style="fill-rule:evenodd;"
points="82955,39107
81931,39107
81931,38556
82955,38556
82955,39107
" /> 
<polyline style="fill-rule:evenodd;"
points="82955,40603
81931,40603
81931,40052
82955,40052
82955,40603
" /> 
<polyline style="fill-rule:evenodd;"
points="78955,40603
77931,40603
77931,40052
78955,40052
78955,40603
" /> 
<polyline style="fill-rule:evenodd;"
points="78955,39107
77931,39107
77931,38556
78955,38556
78955,39107
" /> 
<polyline style="fill-rule:evenodd;"
points="80955,40603
79931,40603
79931,40052
80955,40052
80955,40603
" /> 
<polyline style="fill-rule:evenodd;"
points="80955,39107
79931,39107
79931,38556
80955,38556
80955,39107
" /> 
<polyline style="fill-rule:evenodd;"
points="80935,36386
79951,36386
79951,35598
80935,35598
80935,36386
" /> 
<polyline style="fill-rule:evenodd;"
points="80935,37961
79951,37961
79951,37173
80935,37173
80935,37961
" /> 
<polyline style="fill-rule:evenodd;"
points="65055,53827
64031,53827
64031,53276
65055,53276
65055,53827
" /> 
<polyline style="fill-rule:evenodd;"
points="65055,55323
64031,55323
64031,54772
65055,54772
65055,55323
" /> 
<polyline style="fill-rule:evenodd;"
points="42815,55563
41791,55563
41791,55012
42815,55012
42815,55563
" /> 
<polyline style="fill-rule:evenodd;"
points="42815,54067
41791,54067
41791,53516
42815,53516
42815,54067
" /> 
<polyline style="fill-rule:evenodd;"
points="55019,47906
54468,47906
54468,46391
55019,46391
55019,47906
" /> 
<polyline style="fill-rule:evenodd;"
points="56019,47906
55468,47906
55468,46391
56019,46391
56019,47906
" /> 
<polyline style="fill-rule:evenodd;"
points="57019,47906
56468,47906
56468,46391
57019,46391
57019,47906
" /> 
<polyline style="fill-rule:evenodd;"
points="58019,47906
57468,47906
57468,46391
58019,46391
58019,47906
" /> 
<polyline style="fill-rule:evenodd;"
points="59019,47906
58468,47906
58468,46391
59019,46391
59019,47906
" /> 
<polyline style="fill-rule:evenodd;"
points="60019,47906
59468,47906
59468,46391
60019,46391
60019,47906
" /> 
<polyline style="fill-rule:evenodd;"
points="61019,47906
60468,47906
60468,46391
61019,46391
61019,47906
" /> 
<polyline style="fill-rule:evenodd;"
points="62692,48615
61176,48615
61176,48064
62692,48064
62692,48615
" /> 
<polyline style="fill-rule:evenodd;"
points="62692,49615
61176,49615
61176,49064
62692,49064
62692,49615
" /> 
<polyline style="fill-rule:evenodd;"
points="62692,50615
61176,50615
61176,50064
62692,50064
62692,50615
" /> 
<polyline style="fill-rule:evenodd;"
points="62692,51615
61176,51615
61176,51064
62692,51064
62692,51615
" /> 
<polyline style="fill-rule:evenodd;"
points="62692,52615
61176,52615
61176,52064
62692,52064
62692,52615
" /> 
<polyline style="fill-rule:evenodd;"
points="62692,53615
61176,53615
61176,53064
62692,53064
62692,53615
" /> 
<polyline style="fill-rule:evenodd;"
points="62692,54615
61176,54615
61176,54064
62692,54064
62692,54615
" /> 
<polyline style="fill-rule:evenodd;"
points="61019,56288
60468,56288
60468,54773
61019,54773
61019,56288
" /> 
<polyline style="fill-rule:evenodd;"
points="60019,56288
59468,56288
59468,54773
60019,54773
60019,56288
" /> 
<polyline style="fill-rule:evenodd;"
points="59019,56288
58468,56288
58468,54773
59019,54773
59019,56288
" /> 
<polyline style="fill-rule:evenodd;"
points="58019,56288
57468,56288
57468,54773
58019,54773
58019,56288
" /> 
<polyline style="fill-rule:evenodd;"
points="57019,56288
56468,56288
56468,54773
57019,54773
57019,56288
" /> 
<polyline style="fill-rule:evenodd;"
points="56019,56288
55468,56288
55468,54773
56019,54773
56019,56288
" /> 
<polyline style="fill-rule:evenodd;"
points="55019,56288
54468,56288
54468,54773
55019,54773
55019,56288
" /> 
<polyline style="fill-rule:evenodd;"
points="54310,48615
52794,48615
52794,48064
54310,48064
54310,48615
" /> 
<polyline style="fill-rule:evenodd;"
points="54310,49615
52794,49615
52794,49064
54310,49064
54310,49615
" /> 
<polyline style="fill-rule:evenodd;"
points="54310,50615
52794,50615
52794,50064
54310,50064
54310,50615
" /> 
<polyline style="fill-rule:evenodd;"
points="54310,54615
52794,54615
52794,54064
54310,54064
54310,54615
" /> 
<polyline style="fill-rule:evenodd;"
points="54310,53615
52794,53615
52794,53064
54310,53064
54310,53615
" /> 
<polyline style="fill-rule:evenodd;"
points="54310,52615
52794,52615
52794,52064
54310,52064
54310,52615
" /> 
<polyline style="fill-rule:evenodd;"
points="54310,51615
52794,51615
52794,51064
54310,51064
54310,51615
" /> 
<polyline style="fill-rule:evenodd;"
points="72255,48751
71231,48751
71231,48199
72255,48199
72255,48751
" /> 
<polyline style="fill-rule:evenodd;"
points="72255,47254
71231,47254
71231,46703
72255,46703
72255,47254
" /> 
<polyline style="fill-rule:evenodd;"
points="48950,24847
48950,25832
48162,25832
48162,24847
48950,24847
" /> 
<polyline style="fill-rule:evenodd;"
points="50524,24847
50524,25832
49737,25832
49737,24847
50524,24847
" /> 
<polyline style="fill-rule:evenodd;"
points="50524,23247
50524,24232
49737,24232
49737,23247
50524,23247
" /> 
<polyline style="fill-rule:evenodd;"
points="48950,23247
48950,24232
48162,24232
48162,23247
48950,23247
" /> 
<polyline style="fill-rule:evenodd;"
points="49737,27432
49737,26447
50524,26447
50524,27432
49737,27432
" /> 
<polyline style="fill-rule:evenodd;"
points="48162,27432
48162,26447
48950,26447
48950,27432
48162,27432
" /> 
<polyline style="fill-rule:evenodd;"
points="64051,51133
65035,51133
65035,51921
64051,51921
64051,51133
" /> 
<polyline style="fill-rule:evenodd;"
points="64051,49558
65035,49558
65035,50346
64051,50346
64051,49558
" /> 
<polyline style="fill-rule:evenodd;"
points="71251,51346
72235,51346
72235,52133
71251,52133
71251,51346
" /> 
<polyline style="fill-rule:evenodd;"
points="71251,49771
72235,49771
72235,50558
71251,50558
71251,49771
" /> 
<polyline style="fill-rule:evenodd;"
points="78451,51033
79435,51033
79435,51821
78451,51821
78451,51033
" /> 
<polyline style="fill-rule:evenodd;"
points="78451,49458
79435,49458
79435,50246
78451,50246
78451,49458
" /> 
<polyline style="fill-rule:evenodd;"
points="85651,49438
86635,49438
86635,50226
85651,50226
85651,49438
" /> 
<polyline style="fill-rule:evenodd;"
points="85651,51013
86635,51013
86635,51801
85651,51801
85651,51013
" /> 
<polyline style="fill-rule:evenodd;"
points="27461,49758
28445,49758
28445,50546
27461,50546
27461,49758
" /> 
<polyline style="fill-rule:evenodd;"
points="27461,51333
28445,51333
28445,52121
27461,52121
27461,51333
" /> 
<polyline style="fill-rule:evenodd;"
points="34611,49758
35595,49758
35595,50546
34611,50546
34611,49758
" /> 
<polyline style="fill-rule:evenodd;"
points="34611,51333
35595,51333
35595,52121
34611,52121
34611,51333
" /> 
<polyline style="fill-rule:evenodd;"
points="41861,51355
42845,51355
42845,52142
41861,52142
41861,51355
" /> 
<polyline style="fill-rule:evenodd;"
points="41861,49780
42845,49780
42845,50567
41861,50567
41861,49780
" /> 
<polyline style="fill-rule:evenodd;"
points="48751,50058
49735,50058
49735,50846
48751,50846
48751,50058
" /> 
<polyline style="fill-rule:evenodd;"
points="48751,51633
49735,51633
49735,52421
48751,52421
48751,51633
" /> 
<polyline style="fill-rule:evenodd;"
points="65055,48763
64031,48763
64031,48212
65055,48212
65055,48763
" /> 
<polyline style="fill-rule:evenodd;"
points="65055,47267
64031,47267
64031,46716
65055,46716
65055,47267
" /> 
<polyline style="fill-rule:evenodd;"
points="72255,54015
71231,54015
71231,53464
72255,53464
72255,54015
" /> 
<polyline style="fill-rule:evenodd;"
points="72255,55511
71231,55511
71231,54960
72255,54960
72255,55511
" /> 
<polyline style="fill-rule:evenodd;"
points="79455,46867
78431,46867
78431,46316
79455,46316
79455,46867
" /> 
<polyline style="fill-rule:evenodd;"
points="79455,48363
78431,48363
78431,47812
79455,47812
79455,48363
" /> 
<polyline style="fill-rule:evenodd;"
points="79455,55163
78431,55163
78431,54612
79455,54612
79455,55163
" /> 
<polyline style="fill-rule:evenodd;"
points="79455,53667
78431,53667
78431,53116
79455,53116
79455,53667
" /> 
<polyline style="fill-rule:evenodd;"
points="86655,46919
85631,46919
85631,46368
86655,46368
86655,46919
" /> 
<polyline style="fill-rule:evenodd;"
points="86655,48415
85631,48415
85631,47864
86655,47864
86655,48415
" /> 
<polyline style="fill-rule:evenodd;"
points="86655,55163
85631,55163
85631,54612
86655,54612
86655,55163
" /> 
<polyline style="fill-rule:evenodd;"
points="86655,53667
85631,53667
85631,53116
86655,53116
86655,53667
" /> 
<polyline style="fill-rule:evenodd;"
points="28465,47267
27441,47267
27441,46716
28465,46716
28465,47267
" /> 
<polyline style="fill-rule:evenodd;"
points="28465,48763
27441,48763
27441,48212
28465,48212
28465,48763
" /> 
<polyline style="fill-rule:evenodd;"
points="28415,55563
27391,55563
27391,55012
28415,55012
28415,55563
" /> 
<polyline style="fill-rule:evenodd;"
points="28415,54067
27391,54067
27391,53516
28415,53516
28415,54067
" /> 
<polyline style="fill-rule:evenodd;"
points="35615,48763
34591,48763
34591,48212
35615,48212
35615,48763
" /> 
<polyline style="fill-rule:evenodd;"
points="35615,47267
34591,47267
34591,46716
35615,46716
35615,47267
" /> 
<polyline style="fill-rule:evenodd;"
points="35615,54067
34591,54067
34591,53516
35615,53516
35615,54067
" /> 
<polyline style="fill-rule:evenodd;"
points="35615,55563
34591,55563
34591,55012
35615,55012
35615,55563
" /> 
<polyline style="fill-rule:evenodd;"
points="42815,47267
41791,47267
41791,46716
42815,46716
42815,47267
" /> 
<polyline style="fill-rule:evenodd;"
points="42815,48763
41791,48763
41791,48212
42815,48212
42815,48763
" /> 
<polyline style="fill-rule:evenodd;"
points="50415,48763
49391,48763
49391,48212
50415,48212
50415,48763
" /> 
<polyline style="fill-rule:evenodd;"
points="50415,47267
49391,47267
49391,46716
50415,46716
50415,47267
" /> 
<polyline style="fill-rule:evenodd;"
points="50415,54067
49391,54067
49391,53516
50415,53516
50415,54067
" /> 
<polyline style="fill-rule:evenodd;"
points="50415,55563
49391,55563
49391,55012
50415,55012
50415,55563
" /> 
<polyline style="fill-rule:evenodd;"
points="18571,29720
19595,29720
19595,30271
18571,30271
18571,29720
" /> 
<polyline style="fill-rule:evenodd;"
points="18571,28224
19595,28224
19595,28775
18571,28775
18571,28224
" /> 
<polyline style="fill-rule:evenodd;"
points="30489,32982
31513,32982
31513,33533
30489,33533
30489,32982
" /> 
<polyline style="fill-rule:evenodd;"
points="30489,31486
31513,31486
31513,32037
30489,32037
30489,31486
" /> 
<polyline style="fill-rule:evenodd;"
points="63167,38828
63167,39851
62616,39851
62616,38828
63167,38828
" /> 
<polyline style="fill-rule:evenodd;"
points="61671,38828
61671,39851
61120,39851
61120,38828
61671,38828
" /> 
<polyline style="fill-rule:evenodd;"
points="74915,32435
75639,31712
76029,32101
75305,32825
74915,32435
" /> 
<polyline style="fill-rule:evenodd;"
points="73858,31378
74581,30654
74971,31044
74247,31767
73858,31378
" /> 
<polyline style="fill-rule:evenodd;"
points="63959,41236
63959,40763
65179,40763
65179,41236
63959,41236
" /> 
<polyline style="fill-rule:evenodd;"
points="63959,42236
63959,41763
65179,41763
65179,42236
63959,42236
" /> 
<polyline style="fill-rule:evenodd;"
points="63959,43236
63959,42763
65179,42763
65179,43236
63959,43236
" /> 
<polyline style="fill-rule:evenodd;"
points="63959,44236
63959,43763
65179,43763
65179,44236
63959,44236
" /> 
<polyline style="fill-rule:evenodd;"
points="59707,44236
59707,43763
60927,43763
60927,44236
59707,44236
" /> 
<polyline style="fill-rule:evenodd;"
points="59707,43236
59707,42763
60927,42763
60927,43236
59707,43236
" /> 
<polyline style="fill-rule:evenodd;"
points="59707,42236
59707,41763
60927,41763
60927,42236
59707,42236
" /> 
<polyline style="fill-rule:evenodd;"
points="59707,41236
59707,40763
60927,40763
60927,41236
59707,41236
" /> 
<polyline style="fill-rule:evenodd;"
points="51795,50846
50811,50846
50811,50058
51795,50058
51795,50846
" /> 
<polyline style="fill-rule:evenodd;"
points="51795,52421
50811,52421
50811,51633
51795,51633
51795,52421
" /> 
<polyline style="fill-rule:evenodd;"
points="47027,27239
44861,27239
44861,24838
47027,24838
47027,27239
" /> 
<polyline style="fill-rule:evenodd;"
points="44625,24601
42460,24601
42460,22200
44625,22200
44625,24601
" /> 
<polyline style="fill-rule:evenodd;"
points="44625,27239
42460,27239
42460,24838
44625,24838
44625,27239
" /> 
<polyline style="fill-rule:evenodd;"
points="47027,24601
44861,24601
44861,22200
47027,22200
47027,24601
" /> 
<polyline style="fill-rule:evenodd;"
points="47011,30546
46066,30546
46066,28814
47011,28814
47011,30546
" /> 
<polyline style="fill-rule:evenodd;"
points="43420,30546
42476,30546
42476,28814
43420,28814
43420,30546
" /> 
<polyline style="fill-rule:evenodd;"
points="49028,29973
49658,29973
49658,30681
49028,30681
49028,29973
" /> 
<polyline style="fill-rule:evenodd;"
points="48280,28398
48910,28398
48910,29106
48280,29106
48280,28398
" /> 
<polyline style="fill-rule:evenodd;"
points="49776,28398
50406,28398
50406,29106
49776,29106
49776,28398
" /> 
<polyline style="fill-rule:evenodd;"
points="61671,29828
61671,30851
61120,30851
61120,29828
61671,29828
" /> 
<polyline style="fill-rule:evenodd;"
points="63167,29828
63167,30851
62616,30851
62616,29828
63167,29828
" /> 
<polyline style="fill-rule:evenodd;"
points="22251,27646
23196,27646
23196,28355
22251,28355
22251,27646
" /> 
<polyline style="fill-rule:evenodd;"
points="22251,30244
23196,30244
23196,30953
22251,30953
22251,30244
" /> 
<polyline style="fill-rule:evenodd;"
points="66474,39466
67170,38770
67726,39327
67030,40023
66474,39466
" /> 
<polyline style="fill-rule:evenodd;"
points="65360,38352
66056,37656
66613,38213
65917,38909
65360,38352
" /> 
<polyline style="fill-rule:evenodd;"
points="81907,33148
81907,34171
81356,34171
81356,33148
81907,33148
" /> 
<polyline style="fill-rule:evenodd;"
points="80411,33148
80411,34171
79860,34171
79860,33148
80411,33148
" /> 
<polyline style="fill-rule:evenodd;"
points="86031,26812
87055,26812
87055,27363
86031,27363
86031,26812
" /> 
<polyline style="fill-rule:evenodd;"
points="86031,25316
87055,25316
87055,25867
86031,25867
86031,25316
" /> 
</g> 
</svg>
