<?xml version="1.0" standalone="no"?>
 <!DOCTYPE svg PUBLIC "-//W3C//DTD SVG 1.1//EN" 
 "http://www.w3.org/Graphics/SVG/1.1/DTD/svg11.dtd"> 
<svg xmlns="http://www.w3.org/2000/svg" version="1.1" 
    width="29.7002cm" height="21.0007cm" viewBox="0 0 116930 82680 ">
<title>SVG Picture created as ThermocoupleLogger-B_Fab.svg date 2019/03/14 18:04:40 </title>
  <desc>Picture generated by PCBNEW </desc>
<g style="fill:#000000; fill-opacity:1;stroke:#000000; stroke-opacity:1;
stroke-linecap:round; stroke-linejoin:round; "
 transform="translate(0 0) scale(1 1)">
</g>
<g style="fill:#000000; fill-opacity:0.0; 
stroke:#000000; stroke-width:-0.000787402; stroke-opacity:1; 
stroke-linecap:round; stroke-linejoin:round;">
</g>
<g style="fill:#000000; fill-opacity:0.0; 
stroke:#000000; stroke-width:157.48; stroke-opacity:1; 
stroke-linecap:round; stroke-linejoin:round;">
<path d="M20386 62899
L20386 67324
" />
<path d="M99186 67332
L20390 67332
" />
<path d="M86465 21607
L99181 21607
" />
<path d="M99186 62940
L99186 67340
" />
<path d="M33226 62900
L51466 62900
" />
<path d="M29496 62900
L20386 62900
" />
<path d="M29536 60900
L20446 60900
" />
<path d="M51466 60900
L33226 60900
" />
<path d="M55102 62909
L92462 62909
" />
<path d="M92456 60910
L55096 60910
" />
<path d="M96086 60920
L99186 60920
" />
<path d="M96116 62920
L99189 62938
" />
<path d="M96093.7 60920.7 A1000.2 1000.2 0.0 0 0 96116.3 62920 " />
<path d="M92462.9 62909.9 A1000 1000 0.0 0 0 92446.3 60910 " />
<path d="M55095 60910.2 A1000 1000 0.0 0 0 55116.3 62910 " />
<path d="M51464.5 62900 A1000.2 1000.2 0.0 1 0 51466.3 60900 " />
<path d="M33216.3 60899.8 A1000.2 1000.2 0.0 1 0 33236.3 62900 " />
<path d="M29506.3 62900 A1000.2 1000.2 0.0 0 0 29545.5 60900 " />
<path d="M25546.3 21540.8 A1000.8 1000.8 0.0 0 0 25586.3 19540 " />
<path d="M61806.3 19580 A1000.8 1000.8 0.0 1 0 61806.3 21580 " />
<path d="M99226 19560
L99226 19560
" />
<path d="M86466 19560
L99226 19560
" />
<path d="M82806 21580
L61806 21580
" />
<path d="M61826 19580
L82786 19580
" />
<path d="M86466.3 19560 A1020 1020 0.0 0 0 86466.3 21600 " />
<path d="M82806.3 21580.2 A1000.2 1000.2 0.0 1 0 82786.3 19580 " />
<path d="M29206 21570
L58036 21570
" />
<path d="M58186 19590
L29176 19590
" />
<path d="M58066.3 21560 A990.202 990.202 0.0 1 0 58106.3 19580 " />
<path d="M25535 21544
L20449 21552
" />
<path d="M20486 19540
L25586 19540
" />
<path d="M20486 14340
L20486 19540
" />
<path d="M29198.2 19588 A996 996 0.0 0 0 29206.3 21580 " />
<path d="M99226 14320
L20496 14324
" />
<path d="M99226 19560
L99226 14320
" />
<path d="M99186 60920
L99186 21610
" />
<path d="M20446 60900
L20446 21569
" />
</g>
<g style="fill:#000000; fill-opacity:0.0; 
stroke:#000000; stroke-width:78.7402; stroke-opacity:1; 
stroke-linecap:round; stroke-linejoin:round;">
<path d="M66386 43780
L68410 45894
" />
<path d="M55586 43770
L53605 45900
" />
<path d="M63269.7 24758.9 A314.961 314.961 0.0 0 0 62954.8 24443.9 " />
<path d="M62009 25940
L59962 25940
" />
<path d="M59962.6 38695.9 A1023.62 1023.62 0.0 0 0 62009.9 38695.9 " />
<path d="M62009 38695
L62009 25940
" />
<path d="M59962 25940
L59962 38695
" />
<path d="M62954 24443
L59017 24443
" />
<path d="M59962.6 45798.3 A7955.89 7955.89 0.0 0 0 62009.9 30018.7 " />
<path d="M60825.9 42894 A4988.05 4988.05 0.0 0 0 62009.9 33026.6 " />
<path d="M60847.8 39715.9 A1812.73 1812.73 0.0 0 0 62009.9 36412.4 " />
<path d="M59962.6 36412.4 A1812.73 1812.73 0.0 0 0 61124.7 39715.9 " />
<path d="M59962.6 33026.6 A4988.05 4988.05 0.0 0 0 61146.6 42894 " />
<path d="M59962.6 30018.7 A7955.89 7955.89 0.0 0 0 62009.9 45798.3 " />
<path d="M59017.8 24443.9 A314.961 314.961 0.0 0 0 58702.8 24758.9 " />
<path d="M58702 24758
L58702 26688
" />
<path d="M63269 26688
L63269 24758
" />
<path d="M63269.7 26688 A708.661 708.661 0.0 0 0 63736 27354 " />
<path d="M58236.5 27354 A708.661 708.661 0.0 0 0 58702.8 26688 " />
<path d="M60959.9 48813.6 A10905.2 10905.2 0.0 0 0 63742.2 27357.3 " />
<path d="M58230.4 27357.3 A10905.2 10905.2 0.0 0 0 61012.6 48813.6 " />
<path d="M47457 31438
L48148 32128
" />
<path d="M46344 32551
L47457 31438
" />
<path d="M47034 33241
L46344 32551
" />
<path d="M48148 32128
L47034 33241
" />
<path d="M46208 34088
L45094 35201
" />
<path d="M45094 35201
L44404 34511
" />
<path d="M44404 34511
L45517 33398
" />
<path d="M45517 33398
L46208 34088
" />
</g>
<g style="fill:#000000; fill-opacity:0.0; 
stroke:#000000; stroke-width:118.11; stroke-opacity:1; 
stroke-linecap:round; stroke-linejoin:round;">
<path d="M92318 54782
L92318 53995
L92580 54557
L92842 53995
L92842 54782
" />
<path d="M93330 54782
L93255 54745
L93217 54707
L93180 54632
L93180 54407
L93217 54332
L93255 54295
L93330 54257
L93442 54257
L93517 54295
L93555 54332
L93592 54407
L93592 54632
L93555 54707
L93517 54745
L93442 54782
L93330 54782
" />
<path d="M94267 54257
L94267 54782
" />
<path d="M93930 54257
L93930 54670
L93967 54745
L94042 54782
L94155 54782
L94230 54745
L94267 54707
" />
<path d="M94642 54257
L94642 54782
" />
<path d="M94642 54332
L94680 54295
L94755 54257
L94867 54257
L94942 54295
L94980 54370
L94980 54782
" />
<path d="M95242 54257
L95542 54257
" />
<path d="M95355 53995
L95355 54670
L95392 54745
L95467 54782
L95542 54782
" />
<path d="M95805 54782
L95805 54257
" />
<path d="M95805 53995
L95767 54032
L95805 54070
L95842 54032
L95805 53995
L95805 54070
" />
<path d="M96180 54257
L96180 54782
" />
<path d="M96180 54332
L96217 54295
L96292 54257
L96405 54257
L96479 54295
L96517 54370
L96517 54782
" />
<path d="M97229 54257
L97229 54895
L97192 54970
L97154 55007
L97079 55045
L96967 55045
L96892 55007
" />
<path d="M97229 54745
L97154 54782
L97004 54782
L96929 54745
L96892 54707
L96854 54632
L96854 54407
L96892 54332
L96929 54295
L97004 54257
L97154 54257
L97229 54295
" />
<path d="M97417 54857
L98017 54857
" />
<path d="M98204 54782
L98204 53995
" />
<path d="M98204 54370
L98654 54370
" />
<path d="M98654 54782
L98654 53995
" />
<path d="M99142 54782
L99067 54745
L99029 54707
L98992 54632
L98992 54407
L99029 54332
L99067 54295
L99142 54257
L99254 54257
L99329 54295
L99367 54332
L99404 54407
L99404 54632
L99367 54707
L99329 54745
L99254 54782
L99142 54782
" />
<path d="M99854 54782
L99779 54745
L99742 54670
L99742 53995
" />
<path d="M100454 54745
L100379 54782
L100229 54782
L100154 54745
L100117 54670
L100117 54370
L100154 54295
L100229 54257
L100379 54257
L100454 54295
L100491 54370
L100491 54445
L100117 54520
" />
<path d="M95118 57696
L95118 56908
L95381 57471
L95643 56908
L95643 57696
" />
<path d="M96018 57696
L96018 56908
" />
<path d="M96468 57696
L96131 57246
" />
<path d="M96468 56908
L96018 57358
" />
<path d="M96731 56908
L97218 56908
L96956 57208
L97068 57208
L97143 57246
L97181 57283
L97218 57358
L97218 57546
L97181 57621
L97143 57658
L97068 57696
L96843 57696
L96768 57658
L96731 57621
" />
<path d="M19318 54782
L19318 53995
L19580 54557
L19842 53995
L19842 54782
" />
<path d="M20330 54782
L20255 54745
L20217 54707
L20180 54632
L20180 54407
L20217 54332
L20255 54295
L20330 54257
L20442 54257
L20517 54295
L20555 54332
L20592 54407
L20592 54632
L20555 54707
L20517 54745
L20442 54782
L20330 54782
" />
<path d="M21267 54257
L21267 54782
" />
<path d="M20930 54257
L20930 54670
L20967 54745
L21042 54782
L21155 54782
L21230 54745
L21267 54707
" />
<path d="M21642 54257
L21642 54782
" />
<path d="M21642 54332
L21680 54295
L21755 54257
L21867 54257
L21942 54295
L21980 54370
L21980 54782
" />
<path d="M22242 54257
L22542 54257
" />
<path d="M22355 53995
L22355 54670
L22392 54745
L22467 54782
L22542 54782
" />
<path d="M22805 54782
L22805 54257
" />
<path d="M22805 53995
L22767 54032
L22805 54070
L22842 54032
L22805 53995
L22805 54070
" />
<path d="M23180 54257
L23180 54782
" />
<path d="M23180 54332
L23217 54295
L23292 54257
L23405 54257
L23479 54295
L23517 54370
L23517 54782
" />
<path d="M24229 54257
L24229 54895
L24192 54970
L24154 55007
L24079 55045
L23967 55045
L23892 55007
" />
<path d="M24229 54745
L24154 54782
L24004 54782
L23929 54745
L23892 54707
L23854 54632
L23854 54407
L23892 54332
L23929 54295
L24004 54257
L24154 54257
L24229 54295
" />
<path d="M24417 54857
L25017 54857
" />
<path d="M25204 54782
L25204 53995
" />
<path d="M25204 54370
L25654 54370
" />
<path d="M25654 54782
L25654 53995
" />
<path d="M26142 54782
L26067 54745
L26029 54707
L25992 54632
L25992 54407
L26029 54332
L26067 54295
L26142 54257
L26254 54257
L26329 54295
L26367 54332
L26404 54407
L26404 54632
L26367 54707
L26329 54745
L26254 54782
L26142 54782
" />
<path d="M26854 54782
L26779 54745
L26742 54670
L26742 53995
" />
<path d="M27454 54745
L27379 54782
L27229 54782
L27154 54745
L27117 54670
L27117 54370
L27154 54295
L27229 54257
L27379 54257
L27454 54295
L27491 54370
L27491 54445
L27117 54520
" />
<path d="M22118 57696
L22118 56908
L22381 57471
L22643 56908
L22643 57696
" />
<path d="M23018 57696
L23018 56908
" />
<path d="M23468 57696
L23131 57246
" />
<path d="M23468 56908
L23018 57358
" />
<path d="M24143 57171
L24143 57696
" />
<path d="M23956 56871
L23768 57433
L24256 57433
" />
<path d="M49606 34038
L49606 34526
L49306 34263
L49306 34376
L49268 34451
L49231 34488
L49156 34526
L48969 34526
L48894 34488
L48856 34451
L48819 34376
L48819 34151
L48856 34076
L48894 34038
" />
<path d="M49606 34751
L48819 35013
L49606 35276
" />
<path d="M48556 36363
L48556 36176
L49681 36176
L49681 36363
" />
<path d="M48894 37113
L48856 37076
L48819 36963
L48819 36888
L48856 36776
L48931 36701
L49006 36663
L49156 36626
L49268 36626
L49418 36663
L49493 36701
L49568 36776
L49606 36888
L49606 36963
L49568 37076
L49531 37113
" />
<path d="M48819 37901
L49193 37638
" />
<path d="M48819 37451
L49606 37451
L49606 37751
L49568 37826
L49531 37863
L49456 37901
L49343 37901
L49268 37863
L49231 37826
L49193 37751
L49193 37451
" />
<path d="M49531 38200
L49568 38238
L49606 38313
L49606 38500
L49568 38575
L49531 38613
L49456 38650
L49381 38650
L49268 38613
L48819 38163
L48819 38650
" />
<path d="M49606 39138
L49606 39213
L49568 39288
L49531 39325
L49456 39363
L49306 39400
L49118 39400
L48969 39363
L48894 39325
L48856 39288
L48819 39213
L48819 39138
L48856 39063
L48894 39025
L48969 38988
L49118 38950
L49306 38950
L49456 38988
L49531 39025
L49568 39063
L49606 39138
" />
<path d="M49606 39663
L49606 40150
L49306 39888
L49306 40000
L49268 40075
L49231 40113
L49156 40150
L48969 40150
L48894 40113
L48856 40075
L48819 40000
L48819 39775
L48856 39700
L48894 39663
" />
<path d="M49531 40450
L49568 40488
L49606 40563
L49606 40750
L49568 40825
L49531 40863
L49456 40900
L49381 40900
L49268 40863
L48819 40413
L48819 40900
" />
<path d="M48556 41163
L48556 41350
L49681 41350
L49681 41163
" />
<path d="M45662 32479
L45343 32797
" />
<path d="M45503 32638
L44946 32081
L44972 32214
L44972 32320
L44946 32399
" />
<path d="M45449 31577
L45503 31524
L45582 31498
L45635 31498
L45715 31524
L45847 31604
L45980 31736
L46059 31869
L46086 31948
L46086 32001
L46059 32081
L46006 32134
L45927 32161
L45874 32161
L45794 32134
L45662 32054
L45529 31922
L45449 31789
L45423 31710
L45423 31657
L45449 31577
" />
<path d="M45980 31047
L46033 30994
L46112 30967
L46165 30967
L46245 30994
L46377 31073
L46510 31206
L46590 31339
L46616 31418
L46616 31471
L46590 31551
L46537 31604
L46457 31630
L46404 31630
L46324 31604
L46192 31524
L46059 31392
L45980 31259
L45953 31180
L45953 31127
L45980 31047
" />
<path d="M46590 30808
L46961 31180
" />
<path d="M46643 30861
L46643 30808
L46669 30729
L46749 30649
L46828 30623
L46908 30649
L47199 30941
" />
<path d="M47358 30199
L47173 30384
" />
<path d="M47464 30676
L46908 30119
L47173 29854
" />
<path d="M47922 33731
L47922 33784
L47869 33891
L47816 33944
L47710 33997
L47604 33997
L47524 33970
L47392 33891
L47312 33811
L47233 33678
L47206 33599
L47206 33493
L47259 33387
L47312 33334
L47418 33281
L47471 33281
" />
<path d="M47683 33069
L47683 33016
L47710 32936
L47842 32803
L47922 32777
L47975 32777
L48054 32803
L48107 32857
L48160 32963
L48160 33599
L48505 33254
" />
<path d="M49035 32724
L48717 33042
" />
<path d="M48876 32883
L48320 32326
L48346 32459
L48346 32565
L48320 32644
" />
<path d="M43722 34439
L43403 34757
" />
<path d="M43563 34598
L43006 34041
L43032 34174
L43032 34280
L43006 34359
" />
<path d="M43509 33537
L43563 33484
L43642 33458
L43695 33458
L43775 33484
L43907 33564
L44040 33696
L44119 33829
L44146 33908
L44146 33961
L44119 34041
L44066 34094
L43987 34121
L43934 34121
L43854 34094
L43722 34014
L43589 33882
L43509 33749
L43483 33670
L43483 33617
L43509 33537
" />
<path d="M44040 33007
L44093 32954
L44172 32927
L44225 32927
L44305 32954
L44437 33033
L44570 33166
L44650 33299
L44676 33378
L44676 33431
L44650 33511
L44597 33564
L44517 33590
L44464 33590
L44384 33564
L44252 33484
L44119 33352
L44040 33219
L44013 33140
L44013 33087
L44040 33007
" />
<path d="M44650 32768
L45021 33140
" />
<path d="M44703 32821
L44703 32768
L44729 32689
L44809 32609
L44888 32583
L44968 32609
L45259 32901
" />
<path d="M45418 32159
L45233 32344
" />
<path d="M45524 32636
L44968 32079
L45233 31814
" />
<path d="M45982 35691
L45982 35744
L45929 35851
L45876 35904
L45770 35957
L45664 35957
L45584 35930
L45452 35851
L45372 35771
L45293 35638
L45266 35559
L45266 35453
L45319 35347
L45372 35294
L45478 35241
L45531 35241
" />
<path d="M45743 35029
L45743 34976
L45770 34896
L45902 34763
L45982 34737
L46035 34737
L46114 34763
L46167 34817
L46220 34923
L46220 35559
L46565 35214
" />
<path d="M46273 34498
L46273 34445
L46300 34366
L46433 34233
L46512 34207
L46565 34207
L46645 34233
L46698 34286
L46751 34392
L46751 35029
L47095 34684
" />
</g> 
</svg>
