<?xml version="1.0" standalone="no"?>
 <!DOCTYPE svg PUBLIC "-//W3C//DTD SVG 1.1//EN" 
 "http://www.w3.org/Graphics/SVG/1.1/DTD/svg11.dtd"> 
<svg xmlns="http://www.w3.org/2000/svg" version="1.1" 
    width="29.7002cm" height="21.0007cm" viewBox="0 0 116930 82680 ">
<title>SVG Picture created as ThermocoupleLogger-B_Mask.svg date 2019/03/14 18:04:39 </title>
  <desc>Picture generated by PCBNEW </desc>
<g style="fill:#000000; fill-opacity:1;stroke:#000000; stroke-opacity:1;
stroke-linecap:round; stroke-linejoin:round; "
 transform="translate(0 0) scale(1 1)">
</g>
<g style="fill:#000000; fill-opacity:0.0; 
stroke:#000000; stroke-width:-0.000787402; stroke-opacity:1; 
stroke-linecap:round; stroke-linejoin:round;">
</g>
<g style="fill:#000000; fill-opacity:0.0; 
stroke:#000000; stroke-width:157.48; stroke-opacity:1; 
stroke-linecap:round; stroke-linejoin:round;">
<path d="M20386 62899
L20386 67324
" />
<path d="M99186 67332
L20390 67332
" />
<path d="M86465 21607
L99181 21607
" />
<path d="M99186 62940
L99186 67340
" />
<path d="M33226 62900
L51466 62900
" />
<path d="M29496 62900
L20386 62900
" />
<path d="M29536 60900
L20446 60900
" />
<path d="M51466 60900
L33226 60900
" />
<path d="M55102 62909
L92462 62909
" />
<path d="M92456 60910
L55096 60910
" />
<path d="M96086 60920
L99186 60920
" />
<path d="M96116 62920
L99189 62938
" />
<path d="M96093.7 60920.7 A1000.2 1000.2 0.0 0 0 96116.3 62920 " />
<path d="M92462.9 62909.9 A1000 1000 0.0 0 0 92446.3 60910 " />
<path d="M55095 60910.2 A1000 1000 0.0 0 0 55116.3 62910 " />
<path d="M51464.5 62900 A1000.2 1000.2 0.0 1 0 51466.3 60900 " />
<path d="M33216.3 60899.8 A1000.2 1000.2 0.0 1 0 33236.3 62900 " />
<path d="M29506.3 62900 A1000.2 1000.2 0.0 0 0 29545.5 60900 " />
<path d="M25546.3 21540.8 A1000.8 1000.8 0.0 0 0 25586.3 19540 " />
<path d="M61806.3 19580 A1000.8 1000.8 0.0 1 0 61806.3 21580 " />
<path d="M99226 19560
L99226 19560
" />
<path d="M86466 19560
L99226 19560
" />
<path d="M82806 21580
L61806 21580
" />
<path d="M61826 19580
L82786 19580
" />
<path d="M86466.3 19560 A1020 1020 0.0 0 0 86466.3 21600 " />
<path d="M82806.3 21580.2 A1000.2 1000.2 0.0 1 0 82786.3 19580 " />
<path d="M29206 21570
L58036 21570
" />
<path d="M58186 19590
L29176 19590
" />
<path d="M58066.3 21560 A990.202 990.202 0.0 1 0 58106.3 19580 " />
<path d="M25535 21544
L20449 21552
" />
<path d="M20486 19540
L25586 19540
" />
<path d="M20486 14340
L20486 19540
" />
<path d="M29198.2 19588 A996 996 0.0 0 0 29206.3 21580 " />
<path d="M99226 14320
L20496 14324
" />
<path d="M99226 19560
L99226 14320
" />
<path d="M99186 60920
L99186 21610
" />
<path d="M20446 60900
L20446 21569
" />
</g>
<g style="fill:#000000; fill-opacity:1.0; 
stroke:#000000; stroke-width:0; stroke-opacity:1; 
stroke-linecap:round; stroke-linejoin:round;">
<polyline style="fill-rule:evenodd;"
points="26114,62881
25935,62955
25774,63063
25637,63200
25529,63361
25455,63541
25417,63731
25417,63925
25455,64115
25529,64294
25637,64455
25774,64592
25935,64700
26114,64774
26305,64812
26498,64812
26689,64774
26868,64700
27029,64592
27166,64455
27274,64294
27348,64115
27386,63925
27386,63731
27348,63541
27274,63361
27166,63200
27029,63063
26868,62955
26689,62881
26498,62843
26305,62843
26114,62881
" /> 
<polyline style="fill-rule:evenodd;"
points="89107,62881
88927,62955
88766,63063
88629,63200
88521,63361
88447,63541
88409,63731
88409,63925
88447,64115
88521,64294
88629,64455
88766,64592
88927,64700
89107,64774
89297,64812
89491,64812
89681,64774
89860,64700
90021,64592
90158,64455
90266,64294
90340,64115
90378,63925
90378,63731
90340,63541
90266,63361
90158,63200
90021,63063
89860,62955
89681,62881
89491,62843
89297,62843
89107,62881
" /> 
<polyline style="fill-rule:evenodd;"
points="53877,62581
53848,62586
53812,62601
53780,62623
53753,62650
53731,62682
53716,62718
53709,62756
53709,62795
53716,62833
53731,62869
53753,62901
53780,62929
53812,62950
53848,62965
53877,62971
53886,62972
53925,62972
53935,62971
53963,62965
53999,62950
54031,62929
54059,62901
54080,62869
54095,62833
54103,62795
54103,62756
54095,62718
54080,62682
54059,62650
54031,62623
53999,62601
53963,62586
53935,62581
53925,62579
53886,62579
53877,62581
" /> 
<polyline style="fill-rule:evenodd;"
points="93627,62581
93598,62586
93563,62601
93530,62623
93503,62650
93481,62682
93467,62718
93459,62756
93459,62795
93467,62833
93481,62869
93503,62901
93530,62929
93563,62950
93598,62965
93627,62971
93636,62972
93675,62972
93685,62971
93713,62965
93749,62950
93781,62929
93809,62901
93830,62869
93845,62833
93853,62795
93853,62756
93845,62718
93830,62682
93809,62650
93781,62623
93749,62601
93713,62586
93685,62581
93675,62579
93636,62579
93627,62581
" /> 
<polyline style="fill-rule:evenodd;"
points="94257,62581
94228,62586
94193,62601
94160,62623
94133,62650
94111,62682
94096,62718
94089,62756
94089,62795
94096,62833
94111,62869
94133,62901
94160,62929
94193,62950
94228,62965
94257,62971
94266,62972
94305,62972
94315,62971
94343,62965
94379,62950
94411,62929
94439,62901
94460,62869
94475,62833
94483,62795
94483,62756
94475,62718
94460,62682
94439,62650
94411,62623
94379,62601
94343,62586
94315,62581
94305,62579
94266,62579
94257,62581
" /> 
<polyline style="fill-rule:evenodd;"
points="94887,62581
94858,62586
94822,62601
94790,62623
94763,62650
94741,62682
94726,62718
94719,62756
94719,62795
94726,62833
94741,62869
94763,62901
94790,62929
94822,62950
94858,62965
94887,62971
94896,62972
94935,62972
94945,62971
94973,62965
95009,62950
95041,62929
95069,62901
95090,62869
95105,62833
95113,62795
95113,62756
95105,62718
95090,62682
95069,62650
95041,62623
95009,62601
94973,62586
94945,62581
94935,62579
94896,62579
94887,62581
" /> 
<polyline style="fill-rule:evenodd;"
points="52617,62581
52588,62586
52553,62601
52520,62623
52493,62650
52471,62682
52457,62718
52449,62756
52449,62795
52457,62833
52471,62869
52493,62901
52520,62929
52553,62950
52588,62965
52617,62971
52626,62972
52665,62972
52675,62971
52703,62965
52739,62950
52771,62929
52799,62901
52820,62869
52835,62833
52843,62795
52843,62756
52835,62718
52820,62682
52799,62650
52771,62623
52739,62601
52703,62586
52675,62581
52665,62579
52626,62579
52617,62581
" /> 
<polyline style="fill-rule:evenodd;"
points="53247,62581
53218,62586
53183,62601
53150,62623
53123,62650
53101,62682
53086,62718
53079,62756
53079,62795
53086,62833
53101,62869
53123,62901
53150,62929
53183,62950
53218,62965
53247,62971
53256,62972
53295,62972
53305,62971
53333,62965
53369,62950
53401,62929
53429,62901
53450,62869
53465,62833
53473,62795
53473,62756
53465,62718
53450,62682
53429,62650
53401,62623
53369,62601
53333,62586
53305,62581
53295,62579
53256,62579
53247,62581
" /> 
<polyline style="fill-rule:evenodd;"
points="30707,62565
30678,62570
30643,62585
30610,62607
30583,62634
30561,62666
30546,62702
30539,62740
30539,62779
30546,62817
30561,62853
30583,62885
30610,62912
30643,62934
30678,62949
30707,62954
30716,62956
30755,62956
30765,62954
30793,62949
30829,62934
30861,62912
30889,62885
30910,62853
30925,62817
30933,62779
30933,62740
30925,62702
30910,62666
30889,62634
30861,62607
30829,62585
30793,62570
30765,62565
30755,62563
30716,62563
30707,62565
" /> 
<polyline style="fill-rule:evenodd;"
points="31967,62565
31938,62570
31902,62585
31870,62607
31843,62634
31821,62666
31806,62702
31799,62740
31799,62779
31806,62817
31821,62853
31843,62885
31870,62912
31902,62934
31938,62949
31967,62954
31976,62956
32015,62956
32024,62954
32053,62949
32089,62934
32121,62912
32149,62885
32170,62853
32185,62817
32192,62779
32192,62740
32185,62702
32170,62666
32149,62634
32121,62607
32089,62585
32053,62570
32024,62565
32015,62563
31976,62563
31967,62565
" /> 
<polyline style="fill-rule:evenodd;"
points="31337,62565
31308,62570
31272,62585
31240,62607
31213,62634
31191,62666
31176,62702
31169,62740
31169,62779
31176,62817
31191,62853
31213,62885
31240,62912
31272,62934
31308,62949
31337,62954
31346,62956
31385,62956
31395,62954
31423,62949
31459,62934
31491,62912
31519,62885
31540,62853
31555,62817
31563,62779
31563,62740
31555,62702
31540,62666
31519,62634
31491,62607
31459,62585
31423,62570
31395,62565
31385,62563
31346,62563
31337,62565
" /> 
<polyline style="fill-rule:evenodd;"
points="94887,60848
94858,60854
94822,60869
94790,60890
94763,60918
94741,60950
94726,60986
94719,61024
94719,61063
94726,61101
94741,61137
94763,61169
94790,61196
94822,61218
94858,61233
94887,61238
94896,61240
94935,61240
94945,61238
94973,61233
95009,61218
95041,61196
95069,61169
95090,61137
95105,61101
95113,61063
95113,61024
95105,60986
95090,60950
95069,60918
95041,60890
95009,60869
94973,60854
94945,60848
94935,60847
94896,60847
94887,60848
" /> 
<polyline style="fill-rule:evenodd;"
points="53247,60848
53218,60854
53183,60869
53150,60890
53123,60918
53101,60950
53086,60986
53079,61024
53079,61063
53086,61101
53101,61137
53123,61169
53150,61196
53183,61218
53218,61233
53247,61238
53256,61240
53295,61240
53305,61238
53333,61233
53369,61218
53401,61196
53429,61169
53450,61137
53465,61101
53473,61063
53473,61024
53465,60986
53450,60950
53429,60918
53401,60890
53369,60869
53333,60854
53305,60848
53295,60847
53256,60847
53247,60848
" /> 
<polyline style="fill-rule:evenodd;"
points="94257,60848
94228,60854
94193,60869
94160,60890
94133,60918
94111,60950
94096,60986
94089,61024
94089,61063
94096,61101
94111,61137
94133,61169
94160,61196
94193,61218
94228,61233
94257,61238
94266,61240
94305,61240
94315,61238
94343,61233
94379,61218
94411,61196
94439,61169
94460,61137
94475,61101
94483,61063
94483,61024
94475,60986
94460,60950
94439,60918
94411,60890
94379,60869
94343,60854
94315,60848
94305,60847
94266,60847
94257,60848
" /> 
<polyline style="fill-rule:evenodd;"
points="93627,60848
93598,60854
93563,60869
93530,60890
93503,60918
93481,60950
93467,60986
93459,61024
93459,61063
93467,61101
93481,61137
93503,61169
93530,61196
93563,61218
93598,61233
93627,61238
93636,61240
93675,61240
93685,61238
93713,61233
93749,61218
93781,61196
93809,61169
93830,61137
93845,61101
93853,61063
93853,61024
93845,60986
93830,60950
93809,60918
93781,60890
93749,60869
93713,60854
93685,60848
93675,60847
93636,60847
93627,60848
" /> 
<polyline style="fill-rule:evenodd;"
points="53877,60848
53848,60854
53812,60869
53780,60890
53753,60918
53731,60950
53716,60986
53709,61024
53709,61063
53716,61101
53731,61137
53753,61169
53780,61196
53812,61218
53848,61233
53877,61238
53886,61240
53925,61240
53935,61238
53963,61233
53999,61218
54031,61196
54059,61169
54080,61137
54095,61101
54103,61063
54103,61024
54095,60986
54080,60950
54059,60918
54031,60890
53999,60869
53963,60854
53935,60848
53925,60847
53886,60847
53877,60848
" /> 
<polyline style="fill-rule:evenodd;"
points="52617,60848
52588,60854
52553,60869
52520,60890
52493,60918
52471,60950
52457,60986
52449,61024
52449,61063
52457,61101
52471,61137
52493,61169
52520,61196
52553,61218
52588,61233
52617,61238
52626,61240
52665,61240
52675,61238
52703,61233
52739,61218
52771,61196
52799,61169
52820,61137
52835,61101
52843,61063
52843,61024
52835,60986
52820,60950
52799,60918
52771,60890
52739,60869
52703,60854
52675,60848
52665,60847
52626,60847
52617,60848
" /> 
<polyline style="fill-rule:evenodd;"
points="30707,60832
30678,60838
30643,60853
30610,60874
30583,60902
30561,60934
30546,60970
30539,61008
30539,61047
30546,61085
30561,61120
30583,61153
30610,61180
30643,61202
30678,61217
30707,61222
30716,61224
30755,61224
30765,61222
30793,61217
30829,61202
30861,61180
30889,61153
30910,61120
30925,61085
30933,61047
30933,61008
30925,60970
30910,60934
30889,60902
30861,60874
30829,60853
30793,60838
30765,60832
30755,60830
30716,60830
30707,60832
" /> 
<polyline style="fill-rule:evenodd;"
points="31337,60832
31308,60838
31272,60853
31240,60874
31213,60902
31191,60934
31176,60970
31169,61008
31169,61047
31176,61085
31191,61120
31213,61153
31240,61180
31272,61202
31308,61217
31337,61222
31346,61224
31385,61224
31395,61222
31423,61217
31459,61202
31491,61180
31519,61153
31540,61120
31555,61085
31563,61047
31563,61008
31555,60970
31540,60934
31519,60902
31491,60874
31459,60853
31423,60838
31395,60832
31385,60830
31346,60830
31337,60832
" /> 
<polyline style="fill-rule:evenodd;"
points="31967,60832
31938,60838
31902,60853
31870,60874
31843,60902
31821,60934
31806,60970
31799,61008
31799,61047
31806,61085
31821,61120
31843,61153
31870,61180
31902,61202
31938,61217
31967,61222
31976,61224
32015,61224
32024,61222
32053,61217
32089,61202
32121,61180
32149,61153
32170,61120
32185,61085
32192,61047
32192,61008
32185,60970
32170,60934
32149,60902
32121,60874
32089,60853
32053,60838
32024,60832
32015,60830
31976,60830
31967,60832
" /> 
<polyline style="fill-rule:evenodd;"
points="22766,55295
22411,55442
22379,55455
22363,55466
22031,55688
21734,55984
21502,56332
21341,56719
21260,57130
21260,57549
21341,57960
21502,58347
21734,58695
22031,58991
22031,58991
22379,59224
22379,59224
22379,59224
22766,59384
23176,59465
23595,59465
24006,59384
24393,59224
24393,59224
24393,59224
24741,58991
24741,58991
25037,58695
25270,58347
25430,57960
25512,57549
25512,57130
25430,56719
25270,56332
25037,55984
24741,55688
24408,55466
24393,55455
24361,55442
24006,55295
23595,55214
23176,55214
22766,55295
" /> 
<polyline style="fill-rule:evenodd;"
points="95766,55295
95411,55442
95379,55455
95363,55466
95031,55688
94734,55984
94502,56332
94341,56719
94260,57130
94260,57549
94341,57960
94502,58347
94734,58695
95031,58991
95031,58991
95379,59224
95379,59224
95379,59224
95766,59384
96176,59465
96595,59465
97006,59384
97393,59224
97393,59224
97393,59224
97741,58991
97741,58991
98037,58695
98270,58347
98430,57960
98512,57549
98512,57130
98430,56719
98270,56332
98037,55984
97741,55688
97408,55466
97393,55455
97361,55442
97006,55295
96595,55214
96176,55214
95766,55295
" /> 
<polyline style="fill-rule:evenodd;"
points="77937,52828
79315,52828
79315,51451
77937,51451
77937,52828
" /> 
<polyline style="fill-rule:evenodd;"
points="85137,52828
86515,52828
86515,51451
85137,51451
85137,52828
" /> 
<polyline style="fill-rule:evenodd;"
points="92337,52797
93715,52797
93715,51419
92337,51419
92337,52797
" /> 
<polyline style="fill-rule:evenodd;"
points="70797,52777
72175,52777
72175,51399
70797,51399
70797,52777
" /> 
<polyline style="fill-rule:evenodd;"
points="41277,52688
42655,52688
42655,51311
41277,51311
41277,52688
" /> 
<polyline style="fill-rule:evenodd;"
points="48497,52428
49875,52428
49875,51051
48497,51051
48497,52428
" /> 
<polyline style="fill-rule:evenodd;"
points="34097,52428
35475,52428
35475,51051
34097,51051
34097,52428
" /> 
<polyline style="fill-rule:evenodd;"
points="26897,52428
28275,52428
28275,51051
26897,51051
26897,52428
" /> 
<polyline style="fill-rule:evenodd;"
points="78425,49508
78299,49560
78187,49636
78091,49732
78015,49845
77963,49970
77937,50103
77937,50239
77963,50372
78015,50497
78091,50610
78187,50706
78299,50782
78425,50833
78558,50860
78694,50860
78827,50833
78952,50782
79065,50706
79161,50610
79236,50497
79288,50372
79315,50239
79315,50103
79288,49970
79236,49845
79161,49732
79065,49636
78952,49560
78827,49508
78694,49482
78558,49482
78425,49508
" /> 
<polyline style="fill-rule:evenodd;"
points="85625,49508
85499,49560
85387,49636
85291,49732
85215,49845
85163,49970
85137,50103
85137,50239
85163,50372
85215,50497
85291,50610
85387,50706
85499,50782
85625,50833
85758,50860
85894,50860
86027,50833
86152,50782
86265,50706
86361,50610
86436,50497
86488,50372
86515,50239
86515,50103
86488,49970
86436,49845
86361,49732
86265,49636
86152,49560
86027,49508
85894,49482
85758,49482
85625,49508
" /> 
<polyline style="fill-rule:evenodd;"
points="92825,49477
92699,49529
92587,49604
92491,49700
92415,49813
92363,49939
92337,50072
92337,50207
92363,50340
92415,50466
92491,50579
92587,50675
92699,50750
92825,50802
92958,50828
93094,50828
93227,50802
93352,50750
93465,50675
93561,50579
93636,50466
93688,50340
93715,50207
93715,50072
93688,49939
93636,49813
93561,49700
93465,49604
93352,49529
93227,49477
93094,49451
92958,49451
92825,49477
" /> 
<polyline style="fill-rule:evenodd;"
points="71285,49457
71159,49509
71047,49584
70951,49680
70875,49793
70823,49919
70797,50052
70797,50187
70823,50320
70875,50446
70951,50559
71047,50655
71159,50730
71285,50782
71418,50808
71554,50808
71687,50782
71812,50730
71925,50655
72021,50559
72096,50446
72148,50320
72175,50187
72175,50052
72148,49919
72096,49793
72021,49680
71925,49584
71812,49509
71687,49457
71554,49431
71418,49431
71285,49457
" /> 
<polyline style="fill-rule:evenodd;"
points="41765,49368
41639,49420
41527,49496
41431,49592
41355,49705
41303,49830
41277,49963
41277,50099
41303,50232
41355,50357
41431,50470
41527,50566
41639,50642
41765,50693
41898,50720
42034,50720
42167,50693
42292,50642
42405,50566
42501,50470
42576,50357
42628,50232
42655,50099
42655,49963
42628,49830
42576,49705
42501,49592
42405,49496
42292,49420
42167,49368
42034,49342
41898,49342
41765,49368
" /> 
<polyline style="fill-rule:evenodd;"
points="34585,49108
34459,49160
34347,49236
34251,49332
34175,49445
34123,49570
34097,49703
34097,49839
34123,49972
34175,50097
34251,50210
34347,50306
34459,50382
34585,50433
34718,50460
34854,50460
34987,50433
35112,50382
35225,50306
35321,50210
35396,50097
35448,49972
35475,49839
35475,49703
35448,49570
35396,49445
35321,49332
35225,49236
35112,49160
34987,49108
34854,49082
34718,49082
34585,49108
" /> 
<polyline style="fill-rule:evenodd;"
points="27385,49108
27259,49160
27147,49236
27051,49332
26975,49445
26923,49570
26897,49703
26897,49839
26923,49972
26975,50097
27051,50210
27147,50306
27259,50382
27385,50433
27518,50460
27654,50460
27787,50433
27912,50382
28025,50306
28121,50210
28196,50097
28248,49972
28275,49839
28275,49703
28248,49570
28196,49445
28121,49332
28025,49236
27912,49160
27787,49108
27654,49082
27518,49082
27385,49108
" /> 
<polyline style="fill-rule:evenodd;"
points="48985,49108
48859,49160
48747,49236
48651,49332
48575,49445
48523,49570
48497,49703
48497,49839
48523,49972
48575,50097
48651,50210
48747,50306
48859,50382
48985,50433
49118,50460
49254,50460
49387,50433
49512,50382
49625,50306
49721,50210
49796,50097
49848,49972
49875,49839
49875,49703
49848,49570
49796,49445
49721,49332
49625,49236
49512,49160
49387,49108
49254,49082
49118,49082
48985,49108
" /> 
<polyline style="fill-rule:evenodd;"
points="30395,42600
30268,42638
30152,42700
30050,42784
29967,42886
29904,43002
29866,43128
29853,43260
29866,43391
29904,43517
29967,43633
30050,43735
30152,43819
30268,43881
30395,43919
30493,43929
30559,43929
30657,43919
30783,43881
30899,43819
31001,43735
31085,43633
31147,43517
31185,43391
31198,43260
31185,43128
31147,43002
31085,42886
31001,42784
30899,42700
30783,42638
30657,42600
30559,42590
30493,42590
30395,42600
" /> 
<polyline style="fill-rule:evenodd;"
points="32395,42600
32268,42638
32152,42700
32050,42784
31967,42886
31904,43002
31866,43128
31853,43260
31866,43391
31904,43517
31967,43633
32050,43735
32152,43819
32268,43881
32395,43919
32493,43929
32559,43929
32657,43919
32783,43881
32899,43819
33001,43735
33085,43633
33147,43517
33185,43391
33198,43260
33185,43128
33147,43002
33085,42886
33001,42784
32899,42700
32783,42638
32657,42600
32559,42590
32493,42590
32395,42600
" /> 
<polyline style="fill-rule:evenodd;"
points="34395,42600
34268,42638
34152,42700
34050,42784
33967,42886
33904,43002
33866,43128
33853,43260
33866,43391
33904,43517
33967,43633
34050,43735
34152,43819
34268,43881
34395,43919
34493,43929
34559,43929
34657,43919
34783,43881
34899,43819
35001,43735
35085,43633
35147,43517
35185,43391
35198,43260
35185,43128
35147,43002
35085,42886
35001,42784
34899,42700
34783,42638
34657,42600
34559,42590
34493,42590
34395,42600
" /> 
<polyline style="fill-rule:evenodd;"
points="36395,42600
36268,42638
36152,42700
36050,42784
35967,42886
35904,43002
35866,43128
35853,43260
35866,43391
35904,43517
35967,43633
36050,43735
36152,43819
36268,43881
36395,43919
36493,43929
36559,43929
36657,43919
36783,43881
36899,43819
37001,43735
37085,43633
37147,43517
37185,43391
37198,43260
37185,43128
37147,43002
37085,42886
37001,42784
36899,42700
36783,42638
36657,42600
36559,42590
36493,42590
36395,42600
" /> 
<polyline style="fill-rule:evenodd;"
points="37856,43929
39195,43929
39195,42590
37856,42590
37856,43929
" /> 
<polyline style="fill-rule:evenodd;"
points="44155,42580
44028,42618
43912,42680
43810,42764
43727,42866
43664,42982
43626,43108
43613,43240
43626,43371
43664,43497
43727,43613
43810,43715
43912,43799
44028,43861
44155,43899
44253,43909
44319,43909
44417,43899
44543,43861
44659,43799
44761,43715
44845,43613
44907,43497
44945,43371
44958,43240
44945,43108
44907,42982
44845,42866
44761,42764
44659,42680
44543,42618
44417,42580
44319,42570
44253,42570
44155,42580
" /> 
<polyline style="fill-rule:evenodd;"
points="45616,43909
46955,43909
46955,42570
45616,42570
45616,43909
" /> 
<polyline style="fill-rule:evenodd;"
points="42155,42580
42028,42618
41912,42680
41810,42764
41727,42866
41664,42982
41626,43108
41613,43240
41626,43371
41664,43497
41727,43613
41810,43715
41912,43799
42028,43861
42155,43899
42253,43909
42319,43909
42417,43899
42543,43861
42659,43799
42761,43715
42845,43613
42907,43497
42945,43371
42958,43240
42945,43108
42907,42982
42845,42866
42761,42764
42659,42680
42543,42618
42417,42580
42319,42570
42253,42570
42155,42580
" /> 
<polyline style="fill-rule:evenodd;"
points="60717,40923
60641,40938
60426,41027
60235,41154
60233,41156
60068,41320
60068,41320
59939,41514
59850,41729
59805,41957
59805,42190
59850,42418
59939,42633
59984,42700
60068,42826
60233,42991
60233,42991
60426,43120
60641,43209
60717,43224
60869,43254
61102,43254
61254,43224
61330,43209
61545,43120
61739,42991
61739,42991
61903,42826
61987,42700
62032,42633
62121,42418
62167,42190
62167,41957
62121,41729
62032,41514
61903,41320
61903,41320
61739,41156
61736,41154
61545,41027
61330,40938
61254,40923
61102,40892
60869,40892
60717,40923
" /> 
<polyline style="fill-rule:evenodd;"
points="76011,39164
75920,39182
75777,39242
75648,39328
75538,39438
75452,39567
75393,39710
75362,39862
75362,40017
75393,40169
75452,40312
75538,40441
75648,40551
75777,40637
75920,40697
76011,40715
76072,40727
76227,40727
76288,40715
76379,40697
76523,40637
76652,40551
76761,40441
76848,40312
76907,40169
76937,40017
76937,39862
76907,39710
76848,39567
76761,39438
76652,39328
76523,39242
76379,39182
76288,39164
76227,39152
76072,39152
76011,39164
" /> 
<polyline style="fill-rule:evenodd;"
points="72468,39164
72377,39182
72233,39242
72105,39328
71995,39438
71909,39567
71849,39710
71819,39862
71819,40017
71849,40169
71909,40312
71995,40441
72105,40551
72233,40637
72377,40697
72468,40715
72529,40727
72684,40727
72745,40715
72836,40697
72979,40637
73108,40551
73218,40441
73304,40312
73364,40169
73394,40017
73394,39862
73364,39710
73304,39567
73218,39438
73108,39328
72979,39242
72836,39182
72745,39164
72684,39152
72529,39152
72468,39164
" /> 
<polyline style="fill-rule:evenodd;"
points="80057,38757
81435,38757
81435,37379
80057,37379
80057,38757
" /> 
<polyline style="fill-rule:evenodd;"
points="80545,35437
80419,35489
80307,35564
80211,35660
80135,35773
80083,35899
80057,36032
80057,36167
80083,36300
80135,36426
80211,36539
80307,36635
80419,36710
80545,36762
80678,36788
80814,36788
80947,36762
81072,36710
81185,36635
81281,36539
81356,36426
81408,36300
81435,36167
81435,36032
81408,35899
81356,35773
81281,35660
81185,35564
81072,35489
80947,35437
80814,35411
80678,35411
80545,35437
" /> 
<polyline style="fill-rule:evenodd;"
points="76011,34046
75920,34064
75777,34124
75648,34210
75538,34319
75452,34448
75393,34592
75390,34604
75362,34744
75362,34899
75374,34960
75393,35051
75452,35194
75538,35323
75648,35433
75777,35519
75920,35579
76011,35597
76072,35609
76227,35609
76288,35597
76379,35579
76523,35519
76652,35433
76761,35323
76848,35194
76907,35051
76925,34960
76937,34899
76937,34744
76909,34604
76907,34592
76848,34448
76761,34319
76652,34210
76523,34124
76379,34064
76288,34046
76227,34034
76072,34034
76011,34046
" /> 
<polyline style="fill-rule:evenodd;"
points="72468,34046
72377,34064
72233,34124
72105,34210
71995,34319
71909,34448
71849,34592
71847,34604
71819,34744
71819,34899
71831,34960
71849,35051
71909,35194
71995,35323
72105,35433
72233,35519
72377,35579
72468,35597
72529,35609
72684,35609
72745,35597
72836,35579
72979,35519
73108,35433
73218,35323
73304,35194
73364,35051
73382,34960
73394,34899
73394,34744
73366,34604
73364,34592
73304,34448
73218,34319
73108,34210
72979,34124
72836,34064
72745,34046
72684,34034
72529,34034
72468,34046
" /> 
<polyline style="fill-rule:evenodd;"
points="44123,34787
44819,35483
45375,34926
44679,34230
44123,34787
" /> 
<polyline style="fill-rule:evenodd;"
points="88617,34273
88513,34305
88418,34356
88334,34425
88265,34508
88214,34604
88182,34708
88172,34816
88182,34924
88214,35028
88265,35124
88334,35208
88418,35277
88513,35328
88617,35359
88698,35367
89855,35367
89936,35359
90040,35328
90135,35277
90219,35208
90288,35124
90339,35028
90371,34924
90382,34816
90371,34708
90339,34604
90288,34508
90219,34425
90135,34356
90040,34305
89936,34273
89855,34265
88698,34265
88617,34273
" /> 
<polyline style="fill-rule:evenodd;"
points="45236,33673
45932,34369
46489,33812
45793,33116
45236,33673
" /> 
<polyline style="fill-rule:evenodd;"
points="97177,34048
98594,34048
98594,32631
97177,32631
97177,34048
" /> 
<polyline style="fill-rule:evenodd;"
points="93679,32658
93550,32711
93434,32789
93335,32888
93258,33004
93204,33133
93177,33270
93177,33409
93204,33546
93258,33675
93335,33791
93434,33890
93550,33968
93679,34021
93816,34048
93956,34048
94092,34021
94221,33968
94338,33890
94436,33791
94514,33675
94567,33546
94594,33409
94594,33270
94567,33133
94514,33004
94436,32888
94338,32789
94221,32711
94092,32658
93956,32631
93816,32631
93679,32658
" /> 
<polyline style="fill-rule:evenodd;"
points="95679,32658
95550,32711
95434,32789
95335,32888
95258,33004
95204,33133
95177,33270
95177,33409
95204,33546
95258,33675
95335,33791
95434,33890
95550,33968
95679,34021
95816,34048
95956,34048
96092,34021
96221,33968
96338,33890
96436,33791
96514,33675
96567,33546
96594,33409
96594,33270
96567,33133
96514,33004
96436,32888
96338,32789
96221,32711
96092,32658
95956,32631
95816,32631
95679,32658
" /> 
<polyline style="fill-rule:evenodd;"
points="91609,31438
91506,31470
91410,31521
91326,31590
91257,31674
91206,31770
91174,31873
91166,31954
91166,33111
91174,33192
91206,33296
91257,33392
91326,33476
91410,33544
91506,33596
91609,33627
91718,33638
91826,33627
91929,33596
92025,33544
92109,33476
92178,33392
92229,33296
92261,33192
92269,33111
92269,31954
92261,31873
92229,31770
92178,31674
92109,31590
92025,31521
91929,31470
91826,31438
91718,31428
91609,31438
" /> 
<polyline style="fill-rule:evenodd;"
points="46063,32827
46759,33523
47315,32966
46619,32270
46063,32827
" /> 
<polyline style="fill-rule:evenodd;"
points="47176,31713
47872,32409
48429,31852
47733,31156
47176,31713
" /> 
<polyline style="fill-rule:evenodd;"
points="89633,30866
89511,30916
89401,30989
89308,31082
89235,31192
89184,31314
89158,31443
89158,31575
89184,31704
89235,31826
89308,31936
89401,32029
89511,32102
89633,32153
89762,32178
89894,32178
90023,32153
90145,32102
90254,32029
90348,31936
90421,31826
90471,31704
90497,31575
90497,31443
90471,31314
90421,31192
90348,31082
90254,30989
90145,30916
90023,30866
89894,30840
89762,30840
89633,30866
" /> 
<polyline style="fill-rule:evenodd;"
points="37883,30452
37792,30470
37649,30530
37520,30616
37410,30726
37324,30855
37265,30998
37248,31082
37234,31150
37234,31305
37246,31366
37265,31457
37324,31600
37410,31729
37520,31839
37649,31925
37792,31985
37883,32003
37944,32015
38099,32015
38160,32003
38251,31985
38395,31925
38524,31839
38633,31729
38720,31600
38779,31457
38797,31366
38809,31305
38809,31150
38796,31082
38779,30998
38720,30855
38633,30726
38524,30616
38395,30530
38251,30470
38160,30452
38099,30440
37944,30440
37883,30452
" /> 
<polyline style="fill-rule:evenodd;"
points="34340,30452
34249,30470
34105,30530
33977,30616
33867,30726
33781,30855
33721,30998
33704,31082
33691,31150
33691,31305
33703,31366
33721,31457
33781,31600
33867,31729
33977,31839
34105,31925
34249,31985
34340,32003
34401,32015
34556,32015
34617,32003
34708,31985
34851,31925
34980,31839
35090,31729
35176,31600
35236,31457
35254,31366
35266,31305
35266,31150
35252,31082
35236,30998
35176,30855
35090,30726
34980,30616
34851,30530
34708,30470
34617,30452
34556,30440
34401,30440
34340,30452
" /> 
<polyline style="fill-rule:evenodd;"
points="87845,25683
87845,25683
87845,25683
87755,25710
87672,25754
87600,25814
87569,25852
87541,25886
87506,25952
87496,25969
87484,26008
87469,26058
87462,26128
87462,27126
87469,27196
87469,27196
87469,27196
87496,27286
87541,27368
87600,27441
87672,27500
87755,27544
87845,27572
87845,27572
87845,27572
87938,27581
88031,27572
88031,27572
88031,27572
88121,27544
88203,27500
88276,27441
88335,27368
88380,27286
88407,27196
88407,27196
88407,27196
88414,27126
88414,26128
88407,26058
88407,26058
88380,25969
88335,25886
88276,25814
88236,25781
88203,25754
88121,25710
88121,25710
88031,25683
88031,25683
88031,25683
87938,25674
87845,25683
" /> 
<polyline style="fill-rule:evenodd;"
points="83484,26157
83359,26209
83246,26285
83150,26381
83074,26493
83022,26619
82996,26752
82996,26888
83022,27021
83074,27146
83150,27259
83246,27355
83359,27430
83484,27482
83617,27509
83753,27509
83886,27482
84011,27430
84124,27355
84220,27259
84296,27146
84347,27021
84374,26888
84374,26752
84347,26619
84296,26493
84220,26381
84124,26285
84011,26209
83886,26157
83753,26131
83617,26131
83484,26157
" /> 
<polyline style="fill-rule:evenodd;"
points="59805,27121
62167,27121
62167,24758
59805,24758
59805,27121
" /> 
<polyline style="fill-rule:evenodd;"
points="37883,25334
37792,25352
37649,25412
37520,25498
37410,25607
37324,25736
37265,25880
37254,25935
37234,26032
37234,26187
37239,26209
37265,26339
37324,26482
37410,26611
37520,26721
37649,26807
37792,26867
37883,26885
37944,26897
38099,26897
38160,26885
38251,26867
38395,26807
38524,26721
38633,26611
38720,26482
38779,26339
38805,26209
38809,26187
38809,26032
38790,25935
38779,25880
38720,25736
38633,25607
38524,25498
38395,25412
38251,25352
38160,25334
38099,25322
37944,25322
37883,25334
" /> 
<polyline style="fill-rule:evenodd;"
points="34340,25334
34249,25352
34105,25412
33977,25498
33867,25607
33781,25736
33721,25880
33710,25935
33691,26032
33691,26187
33695,26209
33721,26339
33781,26482
33867,26611
33977,26721
34105,26807
34249,26867
34340,26885
34401,26897
34556,26897
34617,26885
34708,26867
34851,26807
34980,26721
35090,26611
35176,26482
35236,26339
35261,26209
35266,26187
35266,26032
35247,25935
35236,25880
35176,25736
35090,25607
34980,25498
34851,25412
34708,25352
34617,25334
34556,25322
34401,25322
34340,25334
" /> 
<polyline style="fill-rule:evenodd;"
points="48835,25480
48708,25518
48592,25580
48490,25664
48407,25766
48344,25882
48306,26008
48293,26140
48306,26271
48344,26397
48407,26513
48490,26615
48592,26699
48708,26761
48835,26799
48933,26809
48999,26809
49097,26799
49223,26761
49339,26699
49441,26615
49525,26513
49587,26397
49625,26271
49638,26140
49625,26008
49587,25882
49525,25766
49441,25664
49339,25580
49223,25518
49097,25480
48999,25470
48933,25470
48835,25480
" /> 
<polyline style="fill-rule:evenodd;"
points="50835,25480
50708,25518
50592,25580
50490,25664
50407,25766
50344,25882
50306,26008
50293,26140
50306,26271
50344,26397
50407,26513
50490,26615
50592,26699
50708,26761
50835,26799
50933,26809
50999,26809
51097,26799
51223,26761
51339,26699
51441,26615
51525,26513
51587,26397
51625,26271
51638,26140
51625,26008
51587,25882
51525,25766
51441,25664
51339,25580
51223,25518
51097,25480
50999,25470
50933,25470
50835,25480
" /> 
<polyline style="fill-rule:evenodd;"
points="52296,26809
53635,26809
53635,25470
52296,25470
52296,26809
" /> 
<polyline style="fill-rule:evenodd;"
points="23006,22535
22651,22682
22619,22695
22367,22864
22271,22928
21974,23224
21974,23224
21755,23553
21742,23572
21581,23959
21500,24370
21500,24789
21581,25200
21742,25587
21742,25587
21865,25771
21974,25935
22271,26231
22271,26231
22619,26464
22619,26464
22619,26464
23006,26624
23416,26705
23835,26705
24246,26624
24633,26464
24633,26464
24633,26464
24981,26231
24981,26231
25277,25935
25386,25771
25510,25587
25510,25587
25670,25200
25752,24789
25752,24370
25670,23959
25510,23572
25497,23553
25277,23224
25277,23224
24981,22928
24885,22864
24633,22695
24601,22682
24246,22535
23835,22454
23416,22454
23006,22535
" /> 
<polyline style="fill-rule:evenodd;"
points="89633,25354
89511,25404
89401,25477
89308,25571
89235,25680
89184,25802
89158,25931
89158,26063
89184,26193
89235,26314
89308,26424
89401,26517
89511,26590
89633,26641
89762,26667
89894,26667
90023,26641
90145,26590
90254,26517
90348,26424
90421,26314
90471,26193
90497,26063
90497,25931
90471,25802
90421,25680
90348,25571
90254,25477
90145,25404
90023,25354
89894,25328
89762,25328
89633,25354
" /> 
<polyline style="fill-rule:evenodd;"
points="95726,22435
95371,22582
95339,22595
95209,22682
94991,22828
94694,23124
94694,23124
94463,23471
94462,23472
94301,23859
94220,24270
94220,24689
94301,25100
94455,25470
94462,25487
94642,25756
94694,25835
94991,26131
94991,26131
95339,26364
95339,26364
95339,26364
95726,26524
96136,26605
96555,26605
96966,26524
97353,26364
97353,26364
97353,26364
97701,26131
97701,26131
97997,25835
98050,25756
98230,25487
98237,25470
98390,25100
98472,24689
98472,24270
98390,23859
98230,23472
98229,23471
97997,23124
97997,23124
97701,22828
97483,22682
97353,22595
97321,22582
96966,22435
96555,22354
96136,22354
95726,22435
" /> 
<polyline style="fill-rule:evenodd;"
points="91624,24187
91624,24187
91624,24187
91535,24214
91452,24258
91380,24318
91347,24357
91320,24390
91320,24390
91276,24473
91249,24562
91249,24562
91242,24632
91242,25630
91249,25700
91249,25700
91249,25700
91276,25790
91320,25872
91380,25945
91452,26004
91535,26048
91624,26075
91624,26075
91624,26075
91718,26085
91811,26075
91811,26075
91811,26075
91900,26048
91983,26004
92055,25945
92115,25872
92159,25790
92186,25700
92186,25700
92186,25700
92193,25630
92193,24632
92186,24562
92186,24562
92159,24473
92115,24390
92055,24318
92008,24279
91983,24258
91900,24214
91900,24214
91811,24187
91811,24187
91811,24187
91718,24178
91624,24187
" /> 
<polyline style="fill-rule:evenodd;"
points="82996,25540
84374,25540
84374,24162
82996,24162
82996,25540
" /> 
<polyline style="fill-rule:evenodd;"
points="87845,23478
87845,23478
87845,23478
87755,23505
87672,23550
87600,23609
87582,23631
87541,23681
87501,23755
87496,23764
87486,23799
87469,23854
87462,23924
87462,24921
87469,24991
87469,24991
87469,24991
87496,25081
87541,25164
87600,25236
87672,25295
87755,25340
87845,25367
87845,25367
87845,25367
87938,25376
88031,25367
88031,25367
88031,25367
88121,25340
88203,25295
88276,25236
88335,25164
88380,25081
88407,24991
88407,24991
88407,24991
88414,24921
88414,23924
88407,23854
88407,23854
88380,23764
88335,23681
88276,23609
88231,23572
88203,23550
88121,23505
88121,23505
88031,23478
88031,23478
88031,23478
87938,23469
87845,23478
" /> 
<polyline style="fill-rule:evenodd;"
points="48835,23480
48708,23518
48592,23580
48490,23664
48407,23766
48344,23882
48306,24008
48293,24140
48306,24271
48344,24397
48407,24513
48490,24615
48592,24699
48708,24761
48835,24799
48933,24809
48999,24809
49097,24799
49223,24761
49339,24699
49441,24615
49525,24513
49587,24397
49625,24271
49638,24140
49625,24008
49587,23882
49525,23766
49441,23664
49339,23580
49223,23518
49097,23480
48999,23470
48933,23470
48835,23480
" /> 
<polyline style="fill-rule:evenodd;"
points="50835,23480
50708,23518
50592,23580
50490,23664
50407,23766
50344,23882
50306,24008
50293,24140
50306,24271
50344,24397
50407,24513
50490,24615
50592,24699
50708,24761
50835,24799
50933,24809
50999,24809
51097,24799
51223,24761
51339,24699
51441,24615
51525,24513
51587,24397
51625,24271
51638,24140
51625,24008
51587,23882
51525,23766
51441,23664
51339,23580
51223,23518
51097,23480
50999,23470
50933,23470
50835,23480
" /> 
<polyline style="fill-rule:evenodd;"
points="52835,23480
52708,23518
52592,23580
52490,23664
52407,23766
52344,23882
52306,24008
52293,24140
52306,24271
52344,24397
52407,24513
52490,24615
52592,24699
52708,24761
52835,24799
52933,24809
52999,24809
53097,24799
53223,24761
53339,24699
53441,24615
53525,24513
53587,24397
53625,24271
53638,24140
53625,24008
53587,23882
53525,23766
53441,23664
53339,23580
53223,23518
53097,23480
52999,23470
52933,23470
52835,23480
" /> 
<polyline style="fill-rule:evenodd;"
points="40455,22680
40328,22718
40212,22780
40110,22864
40027,22966
39964,23082
39926,23208
39913,23340
39926,23471
39964,23597
40027,23713
40110,23815
40212,23899
40328,23961
40455,23999
40553,24009
40619,24009
40717,23999
40843,23961
40959,23899
41061,23815
41145,23713
41207,23597
41245,23471
41258,23340
41245,23208
41207,23082
41145,22966
41061,22864
40959,22780
40843,22718
40717,22680
40619,22670
40553,22670
40455,22680
" /> 
<polyline style="fill-rule:evenodd;"
points="38455,22680
38328,22718
38212,22780
38110,22864
38027,22966
37964,23082
37926,23208
37913,23340
37926,23471
37964,23597
38027,23713
38110,23815
38212,23899
38328,23961
38455,23999
38553,24009
38619,24009
38717,23999
38843,23961
38959,23899
39061,23815
39145,23713
39207,23597
39245,23471
39258,23340
39245,23208
39207,23082
39145,22966
39061,22864
38959,22780
38843,22718
38717,22680
38619,22670
38553,22670
38455,22680
" /> 
<polyline style="fill-rule:evenodd;"
points="36455,22680
36328,22718
36212,22780
36110,22864
36027,22966
35964,23082
35926,23208
35913,23340
35926,23471
35964,23597
36027,23713
36110,23815
36212,23899
36328,23961
36455,23999
36553,24009
36619,24009
36717,23999
36843,23961
36959,23899
37061,23815
37145,23713
37207,23597
37245,23471
37258,23340
37245,23208
37207,23082
37145,22966
37061,22864
36959,22780
36843,22718
36717,22680
36619,22670
36553,22670
36455,22680
" /> 
<polyline style="fill-rule:evenodd;"
points="34455,22680
34328,22718
34212,22780
34110,22864
34027,22966
33964,23082
33926,23208
33913,23340
33926,23471
33964,23597
34027,23713
34110,23815
34212,23899
34328,23961
34455,23999
34553,24009
34619,24009
34717,23999
34843,23961
34959,23899
35061,23815
35145,23713
35207,23597
35245,23471
35258,23340
35245,23208
35207,23082
35145,22966
35061,22864
34959,22780
34843,22718
34717,22680
34619,22670
34553,22670
34455,22680
" /> 
<polyline style="fill-rule:evenodd;"
points="32455,22680
32328,22718
32212,22780
32110,22864
32027,22966
31964,23082
31926,23208
31913,23340
31926,23471
31964,23597
32027,23713
32110,23815
32212,23899
32328,23961
32455,23999
32553,24009
32619,24009
32717,23999
32843,23961
32959,23899
33061,23815
33145,23713
33207,23597
33245,23471
33258,23340
33245,23208
33207,23082
33145,22966
33061,22864
32959,22780
32843,22718
32717,22680
32619,22670
32553,22670
32455,22680
" /> 
<polyline style="fill-rule:evenodd;"
points="29916,24009
31255,24009
31255,22670
29916,22670
29916,24009
" /> 
<polyline style="fill-rule:evenodd;"
points="92254,21982
92254,21982
92254,21982
92165,22009
92082,22053
92010,22113
91977,22153
91950,22185
91906,22268
91879,22358
91872,22427
91872,23425
91879,23495
91879,23495
91879,23495
91906,23585
91950,23668
92010,23740
92082,23799
92165,23844
92254,23871
92254,23871
92254,23871
92347,23880
92441,23871
92441,23871
92441,23871
92530,23844
92613,23799
92685,23740
92745,23668
92789,23585
92816,23495
92816,23495
92816,23495
92823,23425
92823,22427
92816,22358
92816,22358
92789,22268
92745,22185
92685,22113
92646,22080
92613,22053
92530,22009
92530,22009
92441,21982
92441,21982
92441,21982
92347,21973
92254,21982
" /> 
<polyline style="fill-rule:evenodd;"
points="59897,21251
59868,21256
59833,21271
59800,21293
59773,21320
59751,21352
59736,21388
59729,21426
59729,21465
59736,21503
59751,21539
59773,21571
59800,21599
59833,21620
59868,21635
59897,21641
59906,21642
59945,21642
59955,21641
59983,21635
60019,21620
60051,21599
60079,21571
60100,21539
60115,21503
60123,21465
60123,21426
60115,21388
60100,21352
60079,21320
60051,21293
60019,21271
59983,21256
59955,21251
59945,21249
59906,21249
59897,21251
" /> 
<polyline style="fill-rule:evenodd;"
points="60527,21251
60498,21256
60462,21271
60430,21293
60403,21320
60381,21352
60366,21388
60359,21426
60359,21465
60366,21503
60381,21539
60403,21571
60430,21599
60462,21620
60498,21635
60527,21641
60536,21642
60575,21642
60585,21641
60613,21635
60649,21620
60681,21599
60709,21571
60730,21539
60745,21503
60753,21465
60753,21426
60745,21388
60730,21352
60709,21320
60681,21293
60649,21271
60613,21256
60585,21251
60575,21249
60536,21249
60527,21251
" /> 
<polyline style="fill-rule:evenodd;"
points="85247,21251
85218,21256
85182,21271
85150,21293
85123,21320
85101,21352
85086,21388
85079,21426
85079,21465
85086,21503
85101,21539
85123,21571
85150,21599
85182,21620
85218,21635
85247,21641
85256,21642
85295,21642
85305,21641
85333,21635
85369,21620
85401,21599
85429,21571
85450,21539
85465,21503
85473,21465
85473,21426
85465,21388
85450,21352
85429,21320
85401,21293
85369,21271
85333,21256
85305,21251
85295,21249
85256,21249
85247,21251
" /> 
<polyline style="fill-rule:evenodd;"
points="83987,21251
83958,21256
83923,21271
83890,21293
83863,21320
83841,21352
83827,21388
83819,21426
83819,21465
83827,21503
83841,21539
83863,21571
83890,21599
83923,21620
83958,21635
83987,21641
83996,21642
84035,21642
84045,21641
84073,21635
84109,21620
84141,21599
84169,21571
84190,21539
84205,21503
84213,21465
84213,21426
84205,21388
84190,21352
84169,21320
84141,21293
84109,21271
84073,21256
84045,21251
84035,21249
83996,21249
83987,21251
" /> 
<polyline style="fill-rule:evenodd;"
points="59267,21251
59238,21256
59203,21271
59170,21293
59143,21320
59121,21352
59107,21388
59099,21426
59099,21465
59107,21503
59121,21539
59143,21571
59170,21599
59203,21620
59238,21635
59267,21641
59276,21642
59315,21642
59325,21641
59353,21635
59389,21620
59421,21599
59449,21571
59470,21539
59485,21503
59493,21465
59493,21426
59485,21388
59470,21352
59449,21320
59421,21293
59389,21271
59353,21256
59325,21251
59315,21249
59276,21249
59267,21251
" /> 
<polyline style="fill-rule:evenodd;"
points="84617,21251
84588,21256
84553,21271
84520,21293
84493,21320
84471,21352
84456,21388
84449,21426
84449,21465
84456,21503
84471,21539
84493,21571
84520,21599
84553,21620
84588,21635
84617,21641
84626,21642
84665,21642
84675,21641
84703,21635
84739,21620
84771,21599
84799,21571
84820,21539
84835,21503
84843,21465
84843,21426
84835,21388
84820,21352
84799,21320
84771,21293
84739,21271
84703,21256
84675,21251
84665,21249
84626,21249
84617,21251
" /> 
<polyline style="fill-rule:evenodd;"
points="26727,21211
26698,21216
26663,21231
26630,21253
26603,21280
26581,21312
26567,21348
26559,21386
26559,21425
26567,21463
26581,21499
26603,21531
26630,21559
26663,21580
26698,21595
26727,21601
26736,21602
26775,21602
26785,21601
26813,21595
26849,21580
26881,21559
26909,21531
26930,21499
26945,21463
26953,21425
26953,21386
26945,21348
26930,21312
26909,21280
26881,21253
26849,21231
26813,21216
26785,21211
26775,21209
26736,21209
26727,21211
" /> 
<polyline style="fill-rule:evenodd;"
points="27357,21211
27328,21216
27293,21231
27260,21253
27233,21280
27211,21312
27196,21348
27189,21386
27189,21425
27196,21463
27211,21499
27233,21531
27260,21559
27293,21580
27328,21595
27357,21601
27366,21602
27405,21602
27415,21601
27443,21595
27479,21580
27511,21559
27539,21531
27560,21499
27575,21463
27583,21425
27583,21386
27575,21348
27560,21312
27539,21280
27511,21253
27479,21231
27443,21216
27415,21211
27405,21209
27366,21209
27357,21211
" /> 
<polyline style="fill-rule:evenodd;"
points="27987,21211
27958,21216
27922,21231
27890,21253
27863,21280
27841,21312
27826,21348
27819,21386
27819,21425
27826,21463
27841,21499
27863,21531
27890,21559
27922,21580
27958,21595
27987,21601
27996,21602
28035,21602
28045,21601
28073,21595
28109,21580
28141,21559
28169,21531
28190,21499
28205,21463
28213,21425
28213,21386
28205,21348
28190,21312
28169,21280
28141,21253
28109,21231
28073,21216
28045,21211
28035,21209
27996,21209
27987,21211
" /> 
<polyline style="fill-rule:evenodd;"
points="84617,19518
84588,19524
84553,19539
84520,19560
84493,19588
84471,19620
84456,19656
84449,19694
84449,19733
84456,19771
84471,19807
84493,19839
84520,19866
84553,19888
84588,19903
84617,19908
84626,19910
84665,19910
84675,19908
84703,19903
84739,19888
84771,19866
84799,19839
84820,19807
84835,19771
84843,19733
84843,19694
84835,19656
84820,19620
84799,19588
84771,19560
84739,19539
84703,19524
84675,19518
84665,19517
84626,19517
84617,19518
" /> 
<polyline style="fill-rule:evenodd;"
points="85247,19518
85218,19524
85182,19539
85150,19560
85123,19588
85101,19620
85086,19656
85079,19694
85079,19733
85086,19771
85101,19807
85123,19839
85150,19866
85182,19888
85218,19903
85247,19908
85256,19910
85295,19910
85305,19908
85333,19903
85369,19888
85401,19866
85429,19839
85450,19807
85465,19771
85473,19733
85473,19694
85465,19656
85450,19620
85429,19588
85401,19560
85369,19539
85333,19524
85305,19518
85295,19517
85256,19517
85247,19518
" /> 
<polyline style="fill-rule:evenodd;"
points="60527,19518
60498,19524
60462,19539
60430,19560
60403,19588
60381,19620
60366,19656
60359,19694
60359,19733
60366,19771
60381,19807
60403,19839
60430,19866
60462,19888
60498,19903
60527,19908
60536,19910
60575,19910
60585,19908
60613,19903
60649,19888
60681,19866
60709,19839
60730,19807
60745,19771
60753,19733
60753,19694
60745,19656
60730,19620
60709,19588
60681,19560
60649,19539
60613,19524
60585,19518
60575,19517
60536,19517
60527,19518
" /> 
<polyline style="fill-rule:evenodd;"
points="83987,19518
83958,19524
83923,19539
83890,19560
83863,19588
83841,19620
83827,19656
83819,19694
83819,19733
83827,19771
83841,19807
83863,19839
83890,19866
83923,19888
83958,19903
83987,19908
83996,19910
84035,19910
84045,19908
84073,19903
84109,19888
84141,19866
84169,19839
84190,19807
84205,19771
84213,19733
84213,19694
84205,19656
84190,19620
84169,19588
84141,19560
84109,19539
84073,19524
84045,19518
84035,19517
83996,19517
83987,19518
" /> 
<polyline style="fill-rule:evenodd;"
points="59897,19518
59868,19524
59833,19539
59800,19560
59773,19588
59751,19620
59736,19656
59729,19694
59729,19733
59736,19771
59751,19807
59773,19839
59800,19866
59833,19888
59868,19903
59897,19908
59906,19910
59945,19910
59955,19908
59983,19903
60019,19888
60051,19866
60079,19839
60100,19807
60115,19771
60123,19733
60123,19694
60115,19656
60100,19620
60079,19588
60051,19560
60019,19539
59983,19524
59955,19518
59945,19517
59906,19517
59897,19518
" /> 
<polyline style="fill-rule:evenodd;"
points="59267,19518
59238,19524
59203,19539
59170,19560
59143,19588
59121,19620
59107,19656
59099,19694
59099,19733
59107,19771
59121,19807
59143,19839
59170,19866
59203,19888
59238,19903
59267,19908
59276,19910
59315,19910
59325,19908
59353,19903
59389,19888
59421,19866
59449,19839
59470,19807
59485,19771
59493,19733
59493,19694
59485,19656
59470,19620
59449,19588
59421,19560
59389,19539
59353,19524
59325,19518
59315,19517
59276,19517
59267,19518
" /> 
<polyline style="fill-rule:evenodd;"
points="27357,19478
27328,19484
27293,19499
27260,19520
27233,19548
27211,19580
27196,19616
27189,19654
27189,19693
27196,19731
27211,19767
27233,19799
27260,19826
27293,19848
27328,19863
27357,19868
27366,19870
27405,19870
27415,19868
27443,19863
27479,19848
27511,19826
27539,19799
27560,19767
27575,19731
27583,19693
27583,19654
27575,19616
27560,19580
27539,19548
27511,19520
27479,19499
27443,19484
27415,19478
27405,19477
27366,19477
27357,19478
" /> 
<polyline style="fill-rule:evenodd;"
points="26727,19478
26698,19484
26663,19499
26630,19520
26603,19548
26581,19580
26567,19616
26559,19654
26559,19693
26567,19731
26581,19767
26603,19799
26630,19826
26663,19848
26698,19863
26727,19868
26736,19870
26775,19870
26785,19868
26813,19863
26849,19848
26881,19826
26909,19799
26930,19767
26945,19731
26953,19693
26953,19654
26945,19616
26930,19580
26909,19548
26881,19520
26849,19499
26813,19484
26785,19478
26775,19477
26736,19477
26727,19478
" /> 
<polyline style="fill-rule:evenodd;"
points="27987,19478
27958,19484
27922,19499
27890,19520
27863,19548
27841,19580
27826,19616
27819,19654
27819,19693
27826,19731
27841,19767
27863,19799
27890,19826
27922,19848
27958,19863
27987,19868
27996,19870
28035,19870
28045,19868
28073,19863
28109,19848
28141,19826
28169,19799
28190,19767
28205,19731
28213,19693
28213,19654
28205,19616
28190,19580
28169,19548
28141,19520
28109,19499
28073,19484
28045,19478
28035,19477
27996,19477
27987,19478
" /> 
<polyline style="fill-rule:evenodd;"
points="89107,15637
88927,15711
88766,15819
88629,15956
88521,16117
88447,16296
88409,16487
88409,16681
88447,16871
88521,17050
88629,17211
88766,17348
88927,17456
89107,17530
89297,17568
89491,17568
89681,17530
89860,17456
90021,17348
90158,17211
90266,17050
90340,16871
90378,16681
90378,16487
90340,16296
90266,16117
90158,15956
90021,15819
89860,15711
89681,15637
89491,15599
89297,15599
89107,15637
" /> 
<polyline style="fill-rule:evenodd;"
points="33988,15637
33809,15711
33648,15819
33511,15956
33403,16117
33329,16296
33291,16487
33291,16681
33329,16871
33403,17050
33511,17211
33648,17348
33809,17456
33988,17530
34179,17568
34372,17568
34563,17530
34742,17456
34903,17348
35040,17211
35148,17050
35222,16871
35260,16681
35260,16487
35222,16296
35148,16117
35040,15956
34903,15819
34742,15711
34563,15637
34372,15599
34179,15599
33988,15637
" /> 
</g> 
</svg>
