<?xml version="1.0" standalone="no"?>
 <!DOCTYPE svg PUBLIC "-//W3C//DTD SVG 1.1//EN" 
 "http://www.w3.org/Graphics/SVG/1.1/DTD/svg11.dtd"> 
<svg xmlns="http://www.w3.org/2000/svg" version="1.1" 
    width="29.7002cm" height="21.0007cm" viewBox="0 0 116930 82680 ">
<title>SVG Picture created as ThermocoupleLogger-Eco1_User.svg date 2019/03/14 18:04:39 </title>
  <desc>Picture generated by PCBNEW </desc>
<g style="fill:#000000; fill-opacity:1;stroke:#000000; stroke-opacity:1;
stroke-linecap:round; stroke-linejoin:round; "
 transform="translate(0 0) scale(1 1)">
</g>
<g style="fill:#000000; fill-opacity:0.0; 
stroke:#000000; stroke-width:-0.000787402; stroke-opacity:1; 
stroke-linecap:round; stroke-linejoin:round;">
</g>
<g style="fill:#000000; fill-opacity:0.0; 
stroke:#000000; stroke-width:157.48; stroke-opacity:1; 
stroke-linecap:round; stroke-linejoin:round;">
<path d="M96543 62899
L96543 67324
" />
<path d="M17743 67332
L96539 67332
" />
<path d="M30465 21607
L17748 21607
" />
<path d="M17743 62940
L17743 67340
" />
<path d="M83703 62900
L65463 62900
" />
<path d="M87433 62900
L96543 62900
" />
<path d="M87393 60900
L96483 60900
" />
<path d="M65463 60900
L83703 60900
" />
<path d="M61827 62909
L24467 62909
" />
<path d="M24473 60910
L61833 60910
" />
<path d="M20843 60920
L17743 60920
" />
<path d="M20813 62920
L17740 62938
" />
<path d="M20813.7 62920 A1000.2 1000.2 0.0 0 0 20836.3 60920.7 " />
<path d="M24483.7 60910 A1000 1000 0.0 0 0 24467.1 62909.9 " />
<path d="M61813.7 62910 A1000 1000 0.0 0 0 61835 60910.2 " />
<path d="M65463.7 60900 A1000.2 1000.2 0.0 1 0 65465.5 62900 " />
<path d="M83693.7 62900 A1000.2 1000.2 0.0 1 0 83713.7 60899.8 " />
<path d="M87384.5 60900 A1000.2 1000.2 0.0 0 0 87423.7 62900 " />
<path d="M91343.7 19540 A1000.8 1000.8 0.0 0 0 91383.7 21540.8 " />
<path d="M55123.7 21580 A1000.8 1000.8 0.0 1 0 55123.7 19580 " />
<path d="M17703 19560
L17703 19560
" />
<path d="M30463 19560
L17703 19560
" />
<path d="M34123 21580
L55123 21580
" />
<path d="M55103 19580
L34143 19580
" />
<path d="M30463.7 21600 A1020 1020 0.0 0 0 30463.7 19560 " />
<path d="M34143.7 19580 A1000.2 1000.2 0.0 1 0 34123.7 21580.2 " />
<path d="M87723 21570
L58893 21570
" />
<path d="M58743 19590
L87753 19590
" />
<path d="M58823.7 19580 A990.202 990.202 0.0 0 0 58863.7 21560 " />
<path d="M91394 21544
L96480 21552
" />
<path d="M96443 19540
L91343 19540
" />
<path d="M96443 14340
L96443 19540
" />
<path d="M87723.7 21580 A996 996 0.0 0 0 87731.8 19588 " />
<path d="M17703 14320
L96433 14324
" />
<path d="M17703 19560
L17703 14320
" />
<path d="M17743 60920
L17743 21610
" />
<path d="M96483 60900
L96483 21569
" />
</g>
<g style="fill:#000000; fill-opacity:0.0; 
stroke:#000000; stroke-width:2000; stroke-opacity:1; 
stroke-linecap:round; stroke-linejoin:round;">
<path d="M91378 20540
L91378 20540
" />
<path d="M87709 20540
L87709 20540
" />
<path d="M87398 61893
L87398 61893
" />
<path d="M83729 61893
L83729 61893
" />
<path d="M24478 61910
L24478 61910
" />
<path d="M20809 61910
L20809 61910
" />
<path d="M65488 61910
L65488 61910
" />
<path d="M61819 61910
L61819 61910
" />
<path d="M34118 20580
L34118 20580
" />
<path d="M30449 20580
L30449 20580
" />
<path d="M58838 20580
L58838 20580
" />
<path d="M55169 20580
L55169 20580
" />
</g>
<g style="fill:#000000; fill-opacity:0.0; 
stroke:#000000; stroke-width:23.622; stroke-opacity:1; 
stroke-linecap:round; stroke-linejoin:round;">
<path d="M85765 33091
L85777 33102
L85788 33136
L85788 33158
L85777 33192
L85754 33215
L85732 33226
L85687 33237
L85653 33237
L85608 33226
L85585 33215
L85563 33192
L85552 33158
L85552 33136
L85563 33102
L85574 33091
" />
<path d="M85552 32945
L85552 32900
L85563 32877
L85585 32855
L85630 32843
L85709 32843
L85754 32855
L85777 32877
L85788 32900
L85788 32945
L85777 32967
L85754 32990
L85709 33001
L85630 33001
L85585 32990
L85563 32967
L85552 32945
" />
<path d="M85788 32742
L85552 32742
L85788 32607
L85552 32607
" />
<path d="M85788 32371
L85788 32506
" />
<path d="M85788 32438
L85552 32438
L85585 32461
L85608 32483
L85619 32506
" />
</g> 
</svg>
