<?xml version="1.0" standalone="no"?>
 <!DOCTYPE svg PUBLIC "-//W3C//DTD SVG 1.1//EN" 
 "http://www.w3.org/Graphics/SVG/1.1/DTD/svg11.dtd"> 
<svg xmlns="http://www.w3.org/2000/svg" version="1.1" 
    width="29.7002cm" height="21.0007cm" viewBox="0 0 116930 82680 ">
<title>SVG Picture created as ThermocoupleLogger-Dwgs_User.svg date 2019/03/14 18:04:39 </title>
  <desc>Picture generated by PCBNEW </desc>
<g style="fill:#000000; fill-opacity:1;stroke:#000000; stroke-opacity:1;
stroke-linecap:round; stroke-linejoin:round; "
 transform="translate(0 0) scale(1 1)">
</g>
<g style="fill:#000000; fill-opacity:0.0; 
stroke:#000000; stroke-width:-0.000787402; stroke-opacity:1; 
stroke-linecap:round; stroke-linejoin:round;">
</g>
<g style="fill:#000000; fill-opacity:0.0; 
stroke:#000000; stroke-width:157.48; stroke-opacity:1; 
stroke-linecap:round; stroke-linejoin:round;">
<path d="M96543 62899
L96543 67324
" />
<path d="M17743 67332
L96539 67332
" />
<path d="M30465 21607
L17748 21607
" />
<path d="M17743 62940
L17743 67340
" />
<path d="M83703 62900
L65463 62900
" />
<path d="M87433 62900
L96543 62900
" />
<path d="M87393 60900
L96483 60900
" />
<path d="M65463 60900
L83703 60900
" />
<path d="M61827 62909
L24467 62909
" />
<path d="M24473 60910
L61833 60910
" />
<path d="M20843 60920
L17743 60920
" />
<path d="M20813 62920
L17740 62938
" />
<path d="M20813.7 62920 A1000.2 1000.2 0.0 0 0 20836.3 60920.7 " />
<path d="M24483.7 60910 A1000 1000 0.0 0 0 24467.1 62909.9 " />
<path d="M61813.7 62910 A1000 1000 0.0 0 0 61835 60910.2 " />
<path d="M65463.7 60900 A1000.2 1000.2 0.0 1 0 65465.5 62900 " />
<path d="M83693.7 62900 A1000.2 1000.2 0.0 1 0 83713.7 60899.8 " />
<path d="M87384.5 60900 A1000.2 1000.2 0.0 0 0 87423.7 62900 " />
<path d="M91343.7 19540 A1000.8 1000.8 0.0 0 0 91383.7 21540.8 " />
<path d="M55123.7 21580 A1000.8 1000.8 0.0 1 0 55123.7 19580 " />
<path d="M17703 19560
L17703 19560
" />
<path d="M30463 19560
L17703 19560
" />
<path d="M34123 21580
L55123 21580
" />
<path d="M55103 19580
L34143 19580
" />
<path d="M30463.7 21600 A1020 1020 0.0 0 0 30463.7 19560 " />
<path d="M34143.7 19580 A1000.2 1000.2 0.0 1 0 34123.7 21580.2 " />
<path d="M87723 21570
L58893 21570
" />
<path d="M58743 19590
L87753 19590
" />
<path d="M58823.7 19580 A990.202 990.202 0.0 0 0 58863.7 21560 " />
<path d="M91394 21544
L96480 21552
" />
<path d="M96443 19540
L91343 19540
" />
<path d="M96443 14340
L96443 19540
" />
<path d="M87723.7 21580 A996 996 0.0 0 0 87731.8 19588 " />
<path d="M17703 14320
L96433 14324
" />
<path d="M17703 19560
L17703 14320
" />
<path d="M17743 60920
L17743 21610
" />
<path d="M96483 60900
L96483 21569
" />
</g>
<g style="fill:#000000; fill-opacity:0.0; 
stroke:#000000; stroke-width:39.3701; stroke-opacity:1; 
stroke-linecap:round; stroke-linejoin:round;">
<path d="M28873 34856
L29660 34856
" />
<path d="M28873 35446
L28873 34856
" />
<path d="M26314 34856
L26314 35446
" />
<path d="M24542 34856
L26314 34856
" />
<path d="M29267 20682
L24936 20682
" />
<path d="M29267 22257
L29267 20682
" />
<path d="M29660 22257
L29267 22257
" />
<path d="M29660 34856
L29660 22257
" />
<path d="M26314 35446
L28873 35446
" />
<path d="M24542 27572
L24542 34856
" />
<path d="M23952 27572
L24542 27572
" />
<path d="M23952 25800
L23952 27572
" />
<path d="M24542 25800
L23952 25800
" />
<path d="M24542 24029
L24542 25800
" />
<path d="M23952 24029
L24542 24029
" />
<path d="M23952 21863
L23952 24029
" />
<path d="M24936 21863
L23952 21863
" />
<path d="M24936 20682
L24936 21863
" />
</g>
<g style="fill:#000000; fill-opacity:0.0; 
stroke:#000000; stroke-width:157.48; stroke-opacity:1; 
stroke-linecap:round; stroke-linejoin:round;">
<path d="M29463 22454
L29463 23438
" />
<path d="M25133 21863
L25133 20879
" />
<path d="M29070 20879
L29070 22454
" />
<path d="M25133 20879
L29070 20879
" />
<path d="M29070 22454
L29463 22454
" />
</g>
<g style="fill:#000000; fill-opacity:0.0; 
stroke:#000000; stroke-width:78.7402; stroke-opacity:1; 
stroke-linecap:round; stroke-linejoin:round;">
<path d="M28440 35131
L26865 35131
" />
<path d="M28440 34501
L28440 35131
" />
<path d="M26865 34501
L28440 34501
" />
<path d="M26865 35131
L26865 34501
" />
<path d="M24897 33320
L24897 31745
" />
<path d="M25526 33320
L24897 33320
" />
<path d="M25526 31745
L25526 33320
" />
<path d="M24897 31745
L25526 31745
" />
<path d="M28715 27218
L28715 26037
" />
<path d="M29267 27218
L28715 27218
" />
<path d="M29267 26037
L29267 27218
" />
<path d="M28715 26037
L29267 26037
" />
<path d="M24936 25722
L24936 24541
" />
<path d="M25487 25722
L24936 25722
" />
<path d="M25487 24541
L25487 25722
" />
<path d="M24936 24541
L25487 24541
" />
<path d="M28715 24895
L28715 23950
" />
<path d="M29267 24895
L28715 24895
" />
<path d="M29267 23950
L29267 24895
" />
<path d="M28715 23950
L29267 23950
" />
<path d="M24306 23399
L24306 22454
" />
<path d="M24857 23399
L24306 23399
" />
<path d="M24857 22454
L24857 23399
" />
<path d="M24306 22454
L24857 22454
" />
</g>
<g style="fill:#000000; fill-opacity:0.0; 
stroke:#000000; stroke-width:39.3701; stroke-opacity:1; 
stroke-linecap:round; stroke-linejoin:round;">
<circle cx="87709.1" cy="20540" r="47.2441" /> 
<circle cx="91378.4" cy="20540" r="47.2441" /> 
<circle cx="83729.2" cy="61893.9" r="47.2441" /> 
<circle cx="87398.5" cy="61893.9" r="47.2441" /> 
<circle cx="20809.1" cy="61910" r="47.2441" /> 
<circle cx="24478.4" cy="61910" r="47.2441" /> 
<circle cx="61819.1" cy="61910" r="47.2441" /> 
<circle cx="65488.4" cy="61910" r="47.2441" /> 
<circle cx="30449.1" cy="20580" r="47.2441" /> 
<circle cx="34118.4" cy="20580" r="47.2441" /> 
<circle cx="55169.1" cy="20580" r="47.2441" /> 
<circle cx="58838.4" cy="20580" r="47.2441" /> 
</g> 
</svg>
