<?xml version="1.0" standalone="no"?>
 <!DOCTYPE svg PUBLIC "-//W3C//DTD SVG 1.1//EN" 
 "http://www.w3.org/Graphics/SVG/1.1/DTD/svg11.dtd"> 
<svg xmlns="http://www.w3.org/2000/svg" version="1.1" 
    width="29.7002cm" height="21.0007cm" viewBox="0 0 116930 82680 ">
<title>SVG Picture created as ThermocoupleLogger-F_SilkS.svg date 2019/03/14 18:04:39 </title>
  <desc>Picture generated by PCBNEW </desc>
<g style="fill:#000000; fill-opacity:1;stroke:#000000; stroke-opacity:1;
stroke-linecap:round; stroke-linejoin:round; "
 transform="translate(0 0) scale(1 1)">
</g>
<g style="fill:#000000; fill-opacity:0.0; 
stroke:#000000; stroke-width:-0.000787402; stroke-opacity:1; 
stroke-linecap:round; stroke-linejoin:round;">
</g>
<g style="fill:#000000; fill-opacity:0.0; 
stroke:#000000; stroke-width:157.48; stroke-opacity:1; 
stroke-linecap:round; stroke-linejoin:round;">
<path d="M96543 62899
L96543 67324
" />
<path d="M17743 67332
L96539 67332
" />
</g>
<g style="fill:#000000; fill-opacity:0.0; 
stroke:#000000; stroke-width:118.11; stroke-opacity:1; 
stroke-linecap:round; stroke-linejoin:round;">
<path d="M34367 41924
L34517 41924
L34592 41962
L34667 42037
L34705 42187
L34705 42449
L34667 42599
L34592 42674
L34517 42712
L34367 42712
L34292 42674
L34217 42599
L34180 42449
L34180 42187
L34217 42037
L34292 41962
L34367 41924
" />
<path d="M35042 42187
L35042 42712
" />
<path d="M35042 42262
L35080 42224
L35155 42187
L35267 42187
L35342 42224
L35380 42299
L35380 42712
" />
<path d="M36317 41887
L35642 42899
" />
<path d="M36729 41924
L36879 41924
L36954 41962
L37029 42037
L37067 42187
L37067 42449
L37029 42599
L36954 42674
L36879 42712
L36729 42712
L36654 42674
L36579 42599
L36542 42449
L36542 42187
L36579 42037
L36654 41962
L36729 41924
" />
<path d="M37292 42187
L37592 42187
" />
<path d="M37404 42712
L37404 42037
L37442 41962
L37517 41924
L37592 41924
" />
<path d="M37742 42187
L38042 42187
" />
<path d="M37854 42712
L37854 42037
L37892 41962
L37967 41924
L38042 41924
" />
</g>
<g style="fill:#000000; fill-opacity:0.0; 
stroke:#000000; stroke-width:157.48; stroke-opacity:1; 
stroke-linecap:round; stroke-linejoin:round;">
<path d="M30465 21607
L17748 21607
" />
<path d="M17743 62940
L17743 67340
" />
<path d="M83703 62900
L65463 62900
" />
<path d="M87433 62900
L96543 62900
" />
<path d="M87393 60900
L96483 60900
" />
<path d="M65463 60900
L83703 60900
" />
<path d="M61827 62909
L24467 62909
" />
<path d="M24473 60910
L61833 60910
" />
<path d="M20843 60920
L17743 60920
" />
<path d="M20813 62920
L17740 62938
" />
<path d="M20813.7 62920 A1000.2 1000.2 0.0 0 0 20836.3 60920.7 " />
<path d="M24483.7 60910 A1000 1000 0.0 0 0 24467.1 62909.9 " />
<path d="M61813.7 62910 A1000 1000 0.0 0 0 61835 60910.2 " />
<path d="M65463.7 60900 A1000.2 1000.2 0.0 1 0 65465.5 62900 " />
<path d="M83693.7 62900 A1000.2 1000.2 0.0 1 0 83713.7 60899.8 " />
<path d="M87384.5 60900 A1000.2 1000.2 0.0 0 0 87423.7 62900 " />
<path d="M91343.7 19540 A1000.8 1000.8 0.0 0 0 91383.7 21540.8 " />
<path d="M55123.7 21580 A1000.8 1000.8 0.0 1 0 55123.7 19580 " />
<path d="M17703 19560
L17703 19560
" />
<path d="M30463 19560
L17703 19560
" />
<path d="M34123 21580
L55123 21580
" />
<path d="M55103 19580
L34143 19580
" />
<path d="M30463.7 21600 A1020 1020 0.0 0 0 30463.7 19560 " />
<path d="M34143.7 19580 A1000.2 1000.2 0.0 1 0 34123.7 21580.2 " />
<path d="M87723 21570
L58893 21570
" />
<path d="M58743 19590
L87753 19590
" />
<path d="M58823.7 19580 A990.202 990.202 0.0 0 0 58863.7 21560 " />
<path d="M91394 21544
L96480 21552
" />
<path d="M96443 19540
L91343 19540
" />
<path d="M96443 14340
L96443 19540
" />
<path d="M87723.7 21580 A996 996 0.0 0 0 87731.8 19588 " />
<path d="M17703 14320
L96433 14324
" />
<path d="M17703 19560
L17703 14320
" />
</g>
<g style="fill:#000000; fill-opacity:0.0; 
stroke:#000000; stroke-width:236.22; stroke-opacity:1; 
stroke-linecap:round; stroke-linejoin:round;">
<path d="M20638 38874
L20638 37693
L20919 37693
L21088 37749
L21200 37861
L21256 37974
L21313 38199
L21313 38368
L21256 38593
L21200 38705
L21088 38818
L20919 38874
L20638 38874
" />
<path d="M22269 38818
L22156 38874
L21931 38874
L21819 38818
L21763 38705
L21763 38255
L21819 38143
L21931 38086
L22156 38086
L22269 38143
L22325 38255
L22325 38368
L21763 38480
" />
<path d="M22775 38818
L22887 38874
L23112 38874
L23225 38818
L23281 38705
L23281 38649
L23225 38536
L23112 38480
L22944 38480
L22831 38424
L22775 38311
L22775 38255
L22831 38143
L22944 38086
L23112 38086
L23225 38143
" />
<path d="M23787 38874
L23787 38086
" />
<path d="M23787 37693
L23731 37749
L23787 37805
L23844 37749
L23787 37693
L23787 37805
" />
<path d="M24856 38086
L24856 39043
L24800 39155
L24743 39211
L24631 39268
L24462 39268
L24350 39211
" />
<path d="M24856 38818
L24743 38874
L24518 38874
L24406 38818
L24350 38761
L24294 38649
L24294 38311
L24350 38199
L24406 38143
L24518 38086
L24743 38086
L24856 38143
" />
<path d="M25418 38086
L25418 38874
" />
<path d="M25418 38199
L25475 38143
L25587 38086
L25756 38086
L25868 38143
L25925 38255
L25925 38874
" />
<path d="M26937 38818
L26824 38874
L26599 38874
L26487 38818
L26431 38705
L26431 38255
L26487 38143
L26599 38086
L26824 38086
L26937 38143
L26993 38255
L26993 38368
L26431 38480
" />
<path d="M28006 38874
L28006 37693
" />
<path d="M28006 38818
L27893 38874
L27668 38874
L27556 38818
L27499 38761
L27443 38649
L27443 38311
L27499 38199
L27556 38143
L27668 38086
L27893 38086
L28006 38143
" />
<path d="M29355 38086
L29580 38874
L29805 38311
L30030 38874
L30255 38086
" />
<path d="M30705 38874
L30705 38086
" />
<path d="M30705 37693
L30649 37749
L30705 37805
L30761 37749
L30705 37693
L30705 37805
" />
<path d="M31099 38086
L31549 38086
" />
<path d="M31268 37693
L31268 38705
L31324 38818
L31436 38874
L31549 38874
" />
<path d="M31943 38874
L31943 37693
" />
<path d="M32449 38874
L32449 38255
L32393 38143
L32280 38086
L32111 38086
L31999 38143
L31943 38199
" />
</g>
<g style="fill:#000000; fill-opacity:0.0; 
stroke:#000000; stroke-width:157.48; stroke-opacity:1; 
stroke-linecap:round; stroke-linejoin:round;">
<path d="M65306 58396
L65236 58358
L65086 58358
L65006 58396
L64922 58471
L64875 58546
L64856 58696
L64884 58771
L64950 58846
L65020 58883
L65170 58883
L65250 58846
" />
<path d="M65194 58096
L65002 58133
L64800 58246
L64664 58433
L64603 58621
L64617 58808
L64706 58996
L64880 59108
L65062 59146
L65255 59108
L65456 58996
L65592 58808
L65653 58621
L65639 58433
L65550 58246
L65376 58133
L65194 58096
" />
<path d="M66267 58208
L66197 58771
L66145 58883
L66061 58958
L65944 58996
L65869 58996
" />
<path d="M66656 58996
L66586 58958
L66553 58921
L66525 58846
L66553 58621
L66600 58546
L66642 58508
L66722 58471
L66834 58471
L66904 58508
L66937 58546
L66965 58621
L66937 58846
L66890 58921
L66848 58958
L66768 58996
L66656 58996
" />
<path d="M67256 58996
L67354 58208
" />
<path d="M67593 58996
L67645 58583
L67617 58508
L67547 58471
L67434 58471
L67354 58508
L67312 58546
" />
<path d="M68034 58471
L67968 58996
" />
<path d="M68025 58546
L68067 58508
L68146 58471
L68259 58471
L68329 58508
L68357 58583
L68306 58996
" />
<path d="M69281 58996
L69379 58208
L69679 58208
L69749 58246
L69782 58283
L69810 58358
L69796 58471
L69749 58546
L69707 58583
L69627 58621
L69328 58621
" />
<path d="M70406 58996
L70457 58583
L70429 58508
L70359 58471
L70209 58471
L70129 58508
" />
<path d="M70410 58958
L70331 58996
L70143 58996
L70073 58958
L70045 58883
L70054 58808
L70101 58733
L70181 58696
L70368 58696
L70448 58658
" />
<path d="M70734 58471
L71034 58471
" />
<path d="M70879 58208
L70795 58883
L70823 58958
L70893 58996
L70968 58996
" />
<path d="M71535 58958
L71455 58996
L71305 58996
L71235 58958
L71207 58883
L71244 58583
L71291 58508
L71371 58471
L71521 58471
L71591 58508
L71619 58583
L71610 58658
L71226 58733
" />
<path d="M71905 58996
L71971 58471
" />
<path d="M71962 58546
L72004 58508
L72083 58471
L72196 58471
L72266 58508
L72294 58583
L72243 58996
" />
<path d="M72294 58583
L72341 58508
L72421 58471
L72533 58471
L72604 58508
L72632 58583
L72580 58996
" />
<path d="M73293 58996
L73344 58583
L73316 58508
L73246 58471
L73096 58471
L73016 58508
" />
<path d="M73297 58958
L73218 58996
L73030 58996
L72960 58958
L72932 58883
L72941 58808
L72988 58733
L73068 58696
L73255 58696
L73335 58658
" />
<path d="M73733 58471
L73668 58996
" />
<path d="M73724 58546
L73766 58508
L73846 58471
L73958 58471
L74029 58508
L74057 58583
L74005 58996
" />
<path d="M74422 58958
L74418 58996
L74371 59071
L74328 59108
" />
<path d="M75678 58208
L75608 58771
L75556 58883
L75472 58958
L75355 58996
L75280 58996
" />
<path d="M75955 58996
L76053 58208
L76353 58208
L76424 58246
L76456 58283
L76484 58358
L76470 58471
L76424 58546
L76381 58583
L76302 58621
L76002 58621
" />
<path d="M77394 58583
L77656 58583
" />
<path d="M77717 58996
L77342 58996
L77441 58208
L77816 58208
" />
<path d="M78120 58471
L78055 58996
" />
<path d="M78111 58546
L78153 58508
L78233 58471
L78345 58471
L78415 58508
L78444 58583
L78392 58996
" />
<path d="M78720 58471
L79020 58471
" />
<path d="M78865 58208
L78781 58883
L78809 58958
L78879 58996
L78954 58996
" />
<path d="M79522 58958
L79442 58996
L79292 58996
L79222 58958
L79193 58883
L79231 58583
L79278 58508
L79358 58471
L79508 58471
L79578 58508
L79606 58583
L79597 58658
L79212 58733
" />
<path d="M79892 58996
L79957 58471
" />
<path d="M79939 58621
L79986 58546
L80028 58508
L80107 58471
L80182 58471
" />
<path d="M80445 58471
L80346 59258
" />
<path d="M80440 58508
L80520 58471
L80670 58471
L80740 58508
L80773 58546
L80801 58621
L80773 58846
L80726 58921
L80684 58958
L80604 58996
L80454 58996
L80384 58958
" />
<path d="M81092 58996
L81157 58471
" />
<path d="M81139 58621
L81185 58546
L81228 58508
L81307 58471
L81382 58471
" />
<path d="M81579 58996
L81645 58471
" />
<path d="M81678 58208
L81635 58246
L81668 58283
L81710 58246
L81678 58208
L81668 58283
" />
<path d="M81921 58958
L81992 58996
L82142 58996
L82221 58958
L82268 58883
L82273 58846
L82245 58771
L82174 58733
L82062 58733
L81992 58696
L81963 58621
L81968 58583
L82015 58508
L82095 58471
L82207 58471
L82277 58508
" />
<path d="M82896 58958
L82816 58996
L82666 58996
L82596 58958
L82568 58883
L82606 58583
L82652 58508
L82732 58471
L82882 58471
L82952 58508
L82981 58583
L82971 58658
L82587 58733
" />
<path d="M83234 58958
L83304 58996
L83454 58996
L83534 58958
L83580 58883
L83585 58846
L83557 58771
L83487 58733
L83374 58733
L83304 58696
L83276 58621
L83280 58583
L83327 58508
L83407 58471
L83520 58471
L83590 58508
" />
</g>
<g style="fill:#000000; fill-opacity:0.0; 
stroke:#000000; stroke-width:236.22; stroke-opacity:1; 
stroke-linecap:round; stroke-linejoin:round;">
<path d="M44553 55193
L45228 55193
" />
<path d="M44890 56374
L44890 55193
" />
<path d="M46296 56261
L46240 56318
L46071 56374
L45959 56374
L45790 56318
L45678 56205
L45621 56093
L45565 55868
L45565 55699
L45621 55474
L45678 55361
L45790 55249
L45959 55193
L46071 55193
L46240 55249
L46296 55305
" />
<path d="M46971 55699
L46859 55643
L46803 55586
L46746 55474
L46746 55418
L46803 55305
L46859 55249
L46971 55193
L47196 55193
L47309 55249
L47365 55305
L47421 55418
L47421 55474
L47365 55586
L47309 55643
L47196 55699
L46971 55699
L46859 55755
L46803 55811
L46746 55924
L46746 56149
L46803 56261
L46859 56318
L46971 56374
L47196 56374
L47309 56318
L47365 56261
L47421 56149
L47421 55924
L47365 55811
L47309 55755
L47196 55699
" />
<path d="M37053 55193
L37728 55193
" />
<path d="M37390 56374
L37390 55193
" />
<path d="M38796 56261
L38740 56318
L38571 56374
L38459 56374
L38290 56318
L38178 56205
L38121 56093
L38065 55868
L38065 55699
L38121 55474
L38178 55361
L38290 55249
L38459 55193
L38571 55193
L38740 55249
L38796 55305
" />
<path d="M39190 55193
L39977 55193
L39471 56374
" />
<path d="M29553 55193
L30228 55193
" />
<path d="M29890 56374
L29890 55193
" />
<path d="M31296 56261
L31240 56318
L31071 56374
L30959 56374
L30790 56318
L30678 56205
L30621 56093
L30565 55868
L30565 55699
L30621 55474
L30678 55361
L30790 55249
L30959 55193
L31071 55193
L31240 55249
L31296 55305
" />
<path d="M32309 55193
L32084 55193
L31971 55249
L31915 55305
L31803 55474
L31746 55699
L31746 56149
L31803 56261
L31859 56318
L31971 56374
L32196 56374
L32309 56318
L32365 56261
L32421 56149
L32421 55868
L32365 55755
L32309 55699
L32196 55643
L31971 55643
L31859 55699
L31803 55755
L31746 55868
" />
<path d="M23053 55193
L23728 55193
" />
<path d="M23390 56374
L23390 55193
" />
<path d="M24796 56261
L24740 56318
L24571 56374
L24459 56374
L24290 56318
L24178 56205
L24121 56093
L24065 55868
L24065 55699
L24121 55474
L24178 55361
L24290 55249
L24459 55193
L24571 55193
L24740 55249
L24796 55305
" />
<path d="M25865 55193
L25303 55193
L25246 55755
L25303 55699
L25415 55643
L25696 55643
L25809 55699
L25865 55755
L25921 55868
L25921 56149
L25865 56261
L25809 56318
L25696 56374
L25415 56374
L25303 56318
L25246 56261
" />
<path d="M88053 54693
L88728 54693
" />
<path d="M88390 55874
L88390 54693
" />
<path d="M89796 55761
L89740 55818
L89571 55874
L89459 55874
L89290 55818
L89178 55705
L89121 55593
L89065 55368
L89065 55199
L89121 54974
L89178 54861
L89290 54749
L89459 54693
L89571 54693
L89740 54749
L89796 54805
" />
<path d="M90809 55086
L90809 55874
" />
<path d="M90527 54636
L90246 55480
L90977 55480
" />
<path d="M81053 54693
L81728 54693
" />
<path d="M81390 55874
L81390 54693
" />
<path d="M82796 55761
L82740 55818
L82571 55874
L82459 55874
L82290 55818
L82178 55705
L82121 55593
L82065 55368
L82065 55199
L82121 54974
L82178 54861
L82290 54749
L82459 54693
L82571 54693
L82740 54749
L82796 54805
" />
<path d="M83190 54693
L83921 54693
L83527 55143
L83696 55143
L83809 55199
L83865 55255
L83921 55368
L83921 55649
L83865 55761
L83809 55818
L83696 55874
L83359 55874
L83246 55818
L83190 55761
" />
<path d="M74053 54693
L74728 54693
" />
<path d="M74390 55874
L74390 54693
" />
<path d="M75796 55761
L75740 55818
L75571 55874
L75459 55874
L75290 55818
L75178 55705
L75121 55593
L75065 55368
L75065 55199
L75121 54974
L75178 54861
L75290 54749
L75459 54693
L75571 54693
L75740 54749
L75796 54805
" />
<path d="M76246 54805
L76303 54749
L76415 54693
L76696 54693
L76809 54749
L76865 54805
L76921 54918
L76921 55030
L76865 55199
L76190 55874
L76921 55874
" />
<path d="M66453 54533
L67128 54533
" />
<path d="M66790 55714
L66790 54533
" />
<path d="M68196 55601
L68140 55658
L67971 55714
L67859 55714
L67690 55658
L67578 55545
L67521 55433
L67465 55208
L67465 55039
L67521 54814
L67578 54701
L67690 54589
L67859 54533
L67971 54533
L68140 54589
L68196 54645
" />
<path d="M69321 55714
L68646 55714
" />
<path d="M68984 55714
L68984 54533
L68871 54701
L68759 54814
L68646 54870
" />
<path d="M26073 58359
L25961 58303
L25905 58246
L25848 58134
L25848 58078
L25905 57965
L25961 57909
L26073 57853
L26298 57853
L26411 57909
L26467 57965
L26523 58078
L26523 58134
L26467 58246
L26411 58303
L26298 58359
L26073 58359
L25961 58415
L25905 58471
L25848 58584
L25848 58809
L25905 58921
L25961 58978
L26073 59034
L26298 59034
L26411 58978
L26467 58921
L26523 58809
L26523 58584
L26467 58471
L26411 58415
L26298 58359
" />
<path d="M27030 58584
L27929 58584
" />
<path d="M29167 58921
L29111 58978
L28942 59034
L28829 59034
L28661 58978
L28548 58865
L28492 58753
L28436 58528
L28436 58359
L28492 58134
L28548 58021
L28661 57909
L28829 57853
L28942 57853
L29111 57909
L29167 57965
" />
<path d="M29673 59034
L29673 57853
" />
<path d="M30179 59034
L30179 58415
L30123 58303
L30010 58246
L29842 58246
L29729 58303
L29673 58359
" />
<path d="M31248 59034
L31248 58415
L31191 58303
L31079 58246
L30854 58246
L30742 58303
" />
<path d="M31248 58978
L31135 59034
L30854 59034
L30742 58978
L30685 58865
L30685 58753
L30742 58640
L30854 58584
L31135 58584
L31248 58528
" />
<path d="M31810 58246
L31810 59034
" />
<path d="M31810 58359
L31866 58303
L31979 58246
L32148 58246
L32260 58303
L32316 58415
L32316 59034
" />
<path d="M32879 58246
L32879 59034
" />
<path d="M32879 58359
L32935 58303
L33048 58246
L33216 58246
L33329 58303
L33385 58415
L33385 59034
" />
<path d="M34397 58978
L34285 59034
L34060 59034
L33947 58978
L33891 58865
L33891 58415
L33947 58303
L34060 58246
L34285 58246
L34397 58303
L34454 58415
L34454 58528
L33891 58640
" />
<path d="M35129 59034
L35016 58978
L34960 58865
L34960 57853
" />
<path d="M36310 57853
L36985 57853
" />
<path d="M36647 59034
L36647 57853
" />
<path d="M37378 59034
L37378 57853
" />
<path d="M37884 59034
L37884 58415
L37828 58303
L37716 58246
L37547 58246
L37434 58303
L37378 58359
" />
<path d="M38897 58978
L38784 59034
L38559 59034
L38447 58978
L38391 58865
L38391 58415
L38447 58303
L38559 58246
L38784 58246
L38897 58303
L38953 58415
L38953 58528
L38391 58640
" />
<path d="M39459 59034
L39459 58246
" />
<path d="M39459 58471
L39515 58359
L39572 58303
L39684 58246
L39797 58246
" />
<path d="M40190 59034
L40190 58246
" />
<path d="M40190 58359
L40247 58303
L40359 58246
L40528 58246
L40640 58303
L40697 58415
L40697 59034
" />
<path d="M40697 58415
L40753 58303
L40865 58246
L41034 58246
L41147 58303
L41203 58415
L41203 59034
" />
<path d="M41934 59034
L41821 58978
L41765 58921
L41709 58809
L41709 58471
L41765 58359
L41821 58303
L41934 58246
L42103 58246
L42215 58303
L42271 58359
L42328 58471
L42328 58809
L42271 58921
L42215 58978
L42103 59034
L41934 59034
" />
<path d="M43340 58978
L43227 59034
L43003 59034
L42890 58978
L42834 58921
L42778 58809
L42778 58471
L42834 58359
L42890 58303
L43003 58246
L43227 58246
L43340 58303
" />
<path d="M44015 59034
L43902 58978
L43846 58921
L43790 58809
L43790 58471
L43846 58359
L43902 58303
L44015 58246
L44184 58246
L44296 58303
L44352 58359
L44409 58471
L44409 58809
L44352 58921
L44296 58978
L44184 59034
L44015 59034
" />
<path d="M45421 58246
L45421 59034
" />
<path d="M44915 58246
L44915 58865
L44971 58978
L45084 59034
L45252 59034
L45365 58978
L45421 58921
" />
<path d="M45983 58246
L45983 59428
" />
<path d="M45983 58303
L46096 58246
L46321 58246
L46433 58303
L46490 58359
L46546 58471
L46546 58809
L46490 58921
L46433 58978
L46321 59034
L46096 59034
L45983 58978
" />
<path d="M47221 59034
L47108 58978
L47052 58865
L47052 57853
" />
<path d="M48121 58978
L48008 59034
L47783 59034
L47671 58978
L47614 58865
L47614 58415
L47671 58303
L47783 58246
L48008 58246
L48121 58303
L48177 58415
L48177 58528
L47614 58640
" />
<path d="M49583 59034
L49583 57853
L49864 57853
L50033 57909
L50145 58021
L50202 58134
L50258 58359
L50258 58528
L50202 58753
L50145 58865
L50033 58978
L49864 59034
L49583 59034
" />
<path d="M51270 59034
L51270 58415
L51214 58303
L51102 58246
L50877 58246
L50764 58303
" />
<path d="M51270 58978
L51158 59034
L50877 59034
L50764 58978
L50708 58865
L50708 58753
L50764 58640
L50877 58584
L51158 58584
L51270 58528
" />
<path d="M51664 58246
L52114 58246
" />
<path d="M51833 57853
L51833 58865
L51889 58978
L52001 59034
L52114 59034
" />
<path d="M53014 59034
L53014 58415
L52958 58303
L52845 58246
L52620 58246
L52508 58303
" />
<path d="M53014 58978
L52901 59034
L52620 59034
L52508 58978
L52451 58865
L52451 58753
L52508 58640
L52620 58584
L52901 58584
L53014 58528
" />
<path d="M53745 59034
L53632 58978
L53576 58865
L53576 57853
" />
<path d="M54364 59034
L54251 58978
L54195 58921
L54139 58809
L54139 58471
L54195 58359
L54251 58303
L54364 58246
L54532 58246
L54645 58303
L54701 58359
L54757 58471
L54757 58809
L54701 58921
L54645 58978
L54532 59034
L54364 59034
" />
<path d="M55770 58246
L55770 59203
L55713 59315
L55657 59371
L55545 59428
L55376 59428
L55263 59371
" />
<path d="M55770 58978
L55657 59034
L55432 59034
L55320 58978
L55263 58921
L55207 58809
L55207 58471
L55263 58359
L55320 58303
L55432 58246
L55657 58246
L55770 58303
" />
<path d="M56838 58246
L56838 59203
L56782 59315
L56726 59371
L56613 59428
L56445 59428
L56332 59371
" />
<path d="M56838 58978
L56726 59034
L56501 59034
L56388 58978
L56332 58921
L56276 58809
L56276 58471
L56332 58359
L56388 58303
L56501 58246
L56726 58246
L56838 58303
" />
<path d="M57851 58978
L57738 59034
L57513 59034
L57401 58978
L57344 58865
L57344 58415
L57401 58303
L57513 58246
L57738 58246
L57851 58303
L57907 58415
L57907 58528
L57344 58640
" />
<path d="M58413 59034
L58413 58246
" />
<path d="M58413 58471
L58469 58359
L58526 58303
L58638 58246
L58751 58246
" />
</g>
<g style="fill:#000000; fill-opacity:0.0; 
stroke:#000000; stroke-width:118.11; stroke-opacity:1; 
stroke-linecap:round; stroke-linejoin:round;">
<path d="M39895 42598
L40007 42636
L40195 42636
L40270 42598
L40307 42561
L40345 42486
L40345 42411
L40307 42336
L40270 42298
L40195 42261
L40045 42223
L39970 42186
L39932 42148
L39895 42073
L39895 41998
L39932 41923
L39970 41886
L40045 41848
L40232 41848
L40345 41886
" />
<path d="M40982 42598
L40907 42636
L40757 42636
L40682 42598
L40645 42523
L40645 42223
L40682 42148
L40757 42111
L40907 42111
L40982 42148
L41020 42223
L41020 42298
L40645 42373
" />
<path d="M41470 42636
L41395 42598
L41357 42523
L41357 41848
" />
<path d="M42069 42598
L41994 42636
L41844 42636
L41769 42598
L41732 42523
L41732 42223
L41769 42148
L41844 42111
L41994 42111
L42069 42148
L42107 42223
L42107 42298
L41732 42373
" />
<path d="M42782 42598
L42707 42636
L42557 42636
L42482 42598
L42444 42561
L42407 42486
L42407 42261
L42444 42186
L42482 42148
L42557 42111
L42707 42111
L42782 42148
" />
<path d="M43007 42111
L43307 42111
" />
<path d="M43119 41848
L43119 42523
L43157 42598
L43232 42636
L43307 42636
" />
<path d="M34120 41538
L34232 41576
L34420 41576
L34495 41538
L34532 41501
L34570 41426
L34570 41351
L34532 41276
L34495 41238
L34420 41201
L34270 41163
L34195 41126
L34157 41088
L34120 41013
L34120 40938
L34157 40863
L34195 40826
L34270 40788
L34457 40788
L34570 40826
" />
<path d="M34832 41051
L34982 41576
L35132 41201
L35282 41576
L35432 41051
" />
<path d="M35732 41576
L35732 41051
" />
<path d="M35732 40788
L35695 40826
L35732 40863
L35770 40826
L35732 40788
L35732 40863
" />
<path d="M35994 41051
L36294 41051
" />
<path d="M36107 40788
L36107 41463
L36144 41538
L36219 41576
L36294 41576
" />
<path d="M36894 41538
L36819 41576
L36669 41576
L36594 41538
L36557 41501
L36519 41426
L36519 41201
L36557 41126
L36594 41088
L36669 41051
L36819 41051
L36894 41088
" />
<path d="M37232 41576
L37232 40788
" />
<path d="M37569 41576
L37569 41163
L37532 41088
L37457 41051
L37344 41051
L37269 41088
L37232 41126
" />
<path d="M70712 23596
L70712 22808
L70900 22808
L71012 22846
L71087 22921
L71125 22996
L71162 23146
L71162 23258
L71125 23408
L71087 23483
L71012 23558
L70900 23596
L70712 23596
" />
<path d="M71500 23596
L71500 23071
" />
<path d="M71500 22808
L71462 22846
L71500 22883
L71537 22846
L71500 22808
L71500 22883
" />
<path d="M71837 23558
L71912 23596
L72062 23596
L72137 23558
L72175 23483
L72175 23446
L72137 23371
L72062 23333
L71950 23333
L71875 23296
L71837 23221
L71837 23183
L71875 23108
L71950 23071
L72062 23071
L72137 23108
" />
<path d="M72512 23071
L72512 23858
" />
<path d="M72512 23108
L72587 23071
L72737 23071
L72812 23108
L72849 23146
L72887 23221
L72887 23446
L72849 23521
L72812 23558
L72737 23596
L72587 23596
L72512 23558
" />
<path d="M73337 23596
L73262 23558
L73224 23483
L73224 22808
" />
<path d="M73974 23596
L73974 23183
L73937 23108
L73862 23071
L73712 23071
L73637 23108
" />
<path d="M73974 23558
L73899 23596
L73712 23596
L73637 23558
L73599 23483
L73599 23408
L73637 23333
L73712 23296
L73899 23296
L73974 23258
" />
<path d="M74274 23071
L74462 23596
" />
<path d="M74649 23071
L74462 23596
L74387 23783
L74349 23821
L74274 23858
" />
<path d="M69587 45258
L69700 45296
L69887 45296
L69962 45258
L70000 45221
L70037 45146
L70037 45071
L70000 44996
L69962 44958
L69887 44921
L69737 44883
L69662 44846
L69625 44808
L69587 44733
L69587 44658
L69625 44583
L69662 44546
L69737 44508
L69925 44508
L70037 44546
" />
<path d="M70675 45258
L70600 45296
L70450 45296
L70375 45258
L70337 45183
L70337 44883
L70375 44808
L70450 44771
L70600 44771
L70675 44808
L70712 44883
L70712 44958
L70337 45033
" />
<path d="M71050 45296
L71050 44771
" />
<path d="M71050 44921
L71087 44846
L71124 44808
L71199 44771
L71274 44771
" />
<path d="M71537 45296
L71537 44771
" />
<path d="M71537 44508
L71499 44546
L71537 44583
L71574 44546
L71537 44508
L71537 44583
" />
<path d="M72249 45296
L72249 44883
L72212 44808
L72137 44771
L71987 44771
L71912 44808
" />
<path d="M72249 45258
L72174 45296
L71987 45296
L71912 45258
L71874 45183
L71874 45108
L71912 45033
L71987 44996
L72174 44996
L72249 44958
" />
<path d="M72737 45296
L72662 45258
L72624 45183
L72624 44508
" />
<path d="M77387 44883
L77650 44883
" />
<path d="M77762 45296
L77387 45296
L77387 44508
L77762 44508
" />
<path d="M78100 44771
L78100 45296
" />
<path d="M78100 44846
L78137 44808
L78212 44771
L78325 44771
L78400 44808
L78437 44883
L78437 45296
" />
<path d="M79150 45258
L79075 45296
L78925 45296
L78850 45258
L78812 45221
L78775 45146
L78775 44921
L78812 44846
L78850 44808
L78925 44771
L79075 44771
L79150 44808
" />
<path d="M79599 45296
L79524 45258
L79487 45221
L79450 45146
L79450 44921
L79487 44846
L79524 44808
L79599 44771
L79712 44771
L79787 44808
L79824 44846
L79862 44921
L79862 45146
L79824 45221
L79787 45258
L79712 45296
L79599 45296
" />
<path d="M80537 45296
L80537 44508
" />
<path d="M80537 45258
L80462 45296
L80312 45296
L80237 45258
L80199 45221
L80162 45146
L80162 44921
L80199 44846
L80237 44808
L80312 44771
L80462 44771
L80537 44808
" />
<path d="M81212 45258
L81137 45296
L80987 45296
L80912 45258
L80874 45183
L80874 44883
L80912 44808
L80987 44771
L81137 44771
L81212 44808
L81249 44883
L81249 44958
L80874 45033
" />
<path d="M81587 45296
L81587 44771
" />
<path d="M81587 44921
L81624 44846
L81662 44808
L81737 44771
L81812 44771
" />
</g>
<g style="fill:#000000; fill-opacity:0.0; 
stroke:#000000; stroke-width:157.48; stroke-opacity:1; 
stroke-linecap:round; stroke-linejoin:round;">
<path d="M17743 60920
L17743 21610
" />
<path d="M96483 60900
L96483 21569
" />
</g>
<g style="fill:#000000; fill-opacity:0.0; 
stroke:#000000; stroke-width:78.7402; stroke-opacity:1; 
stroke-linecap:round; stroke-linejoin:round;">
<circle cx="23558.4" cy="22848.2" r="196.85" /> 
</g>
<g style="fill:#000000; fill-opacity:0.0; 
stroke:#000000; stroke-width:157.48; stroke-opacity:1; 
stroke-linecap:round; stroke-linejoin:round;">
<path d="M24148 26194
L24739 26194
" />
<path d="M24148 27178
L24148 26194
" />
<path d="M24739 27178
L24148 27178
" />
<path d="M24739 31312
L24739 27178
" />
<path d="M24739 34659
L24739 33674
" />
<path d="M26314 34659
L24739 34659
" />
<path d="M29463 34659
L28873 34659
" />
<path d="M29463 27769
L29463 34659
" />
</g>
<g style="fill:#000000; fill-opacity:0.0; 
stroke:#000000; stroke-width:94.4882; stroke-opacity:1; 
stroke-linecap:round; stroke-linejoin:round;">
<path d="M81269 25913
L80088 25913
" />
<path d="M78120 26897
L78120 30440
" />
<path d="M80088 31424
L81269 31424
" />
<path d="M83238 30440
L83238 26897
" />
<path d="M43141 34625
L41960 34625
" />
<path d="M39992 35609
L39992 39152
" />
<path d="M41960 40136
L43141 40136
" />
<path d="M45110 39152
L45110 35609
" />
<path d="M62632 32792
L61687 32792
" />
<path d="M61687 31407
L62632 31407
" />
<path d="M21651 27528
L21651 30599
" />
<path d="M20076 27528
L20076 30599
" />
<path d="M21651 27528
L20076 27528
" />
<path d="M40220 22182
L36614 22182
" />
<path d="M40819 22780
L40220 22182
" />
<path d="M40220 26379
L40819 25780
" />
<path d="M36614 26379
L40220 26379
" />
<path d="M40819 25780
L40819 25158
" />
<path d="M40819 22780
L40819 23402
" />
<path d="M36614 22182
L36614 23402
" />
<path d="M36614 26379
L36614 25158
" />
<path d="M63187 34609
L63187 35759
" />
<path d="M60699 34609
L60699 36310
" />
<path d="M60699 34609
L61431 34609
" />
<path d="M63187 34609
L62455 34609
" />
<path d="M76047 25838
L76180 25705
" />
<path d="M75044 24836
L76047 25838
" />
<path d="M74042 27843
L73040 26841
" />
<path d="M72817 25059
L73263 24613
" />
<path d="M76269 27620
L75824 28066
" />
<path d="M76492 27843
L76269 27620
" />
<path d="M36614 31058
L36614 29837
" />
<path d="M36614 26861
L36614 28081
" />
<path d="M40819 27459
L40819 28081
" />
<path d="M40819 30459
L40819 29837
" />
<path d="M36614 31058
L40220 31058
" />
<path d="M40220 31058
L40819 30459
" />
<path d="M40819 27459
L40220 26861
" />
<path d="M40220 26861
L36614 26861
" />
<path d="M35173 22843
L30488 22843
" />
<path d="M30488 22843
L30488 28828
" />
<path d="M30488 28828
L35173 28828
" />
<path d="M35173 28828
L35173 22843
" />
<path d="M35173 25442
L34583 25442
" />
<path d="M34583 25442
L34583 26229
" />
<path d="M34583 26229
L35173 26229
" />
<path d="M35173 26229
L35173 25442
" />
<path d="M35173 22843
L34583 22843
" />
<path d="M34583 22843
L34583 24261
" />
<path d="M34583 24261
L35173 24261
" />
<path d="M35173 24261
L35173 22843
" />
<path d="M35173 27410
L34583 27410
" />
<path d="M34583 27410
L34583 28828
" />
<path d="M34583 28828
L35173 28828
" />
<path d="M35173 28828
L35173 27410
" />
<path d="M33402 22843
L33402 23434
" />
<path d="M33402 23434
L31079 23434
" />
<path d="M31079 23434
L31079 25836
" />
<path d="M33402 28828
L33402 28237
" />
<path d="M33402 28237
L31079 28237
" />
<path d="M31079 28237
L31079 25836
" />
<path d="M35409 24576
L35409 22607
" />
<path d="M35409 22607
L33441 22607
" />
<path d="M19815 34190
L19815 34313
" />
<path d="M19815 32366
L19815 32489
" />
<path d="M20224.1 34190.4 A1181.1 1181.1 0.0 0 0 21863.5 34190.3 " />
<path d="M21863.5 32489.7 A1181.1 1181.1 0.0 0 0 20224.1 32489.6 " />
<path d="M19815.4 34312.8 A1566.93 1566.93 0.0 0 0 22360.5 34189.3 " />
<path d="M22360.5 32490.7 A1566.93 1566.93 0.0 0 0 19815.4 32367.2 " />
</g>
<g style="fill:#000000; fill-opacity:0.0; 
stroke:#000000; stroke-width:78.7402; stroke-opacity:1; 
stroke-linecap:round; stroke-linejoin:round;">
<path d="M87709.1 21540 A1000 1000 0.0 0 0 87709.1 19540 " />
<path d="M91378.4 19540 A1000 1000 0.0 0 0 91378.4 21540 " />
<path d="M83729.2 62893.9 A1000 1000 0.0 0 0 83729.2 60893.9 " />
<path d="M87398.5 60893.9 A1000 1000 0.0 0 0 87398.5 62893.9 " />
<path d="M20809.1 62910 A1000 1000 0.0 0 0 20809.1 60910 " />
<path d="M24478.4 60910 A1000 1000 0.0 0 0 24478.4 62910 " />
<path d="M61819.1 62910 A1000 1000 0.0 0 0 61819.1 60910 " />
<path d="M65488.4 60910 A1000 1000 0.0 0 0 65488.4 62910 " />
<path d="M30449.1 21580 A1000 1000 0.0 0 0 30449.1 19580 " />
<path d="M34118.4 19580 A1000 1000 0.0 0 0 34118.4 21580 " />
<path d="M55169.1 21580 A1000 1000 0.0 0 0 55169.1 19580 " />
<path d="M58838.4 19580 A1000 1000 0.0 0 0 58838.4 21580 " />
</g>
<g style="fill:#000000; fill-opacity:1.0; 
stroke:#000000; stroke-width:7.87402; stroke-opacity:1; 
stroke-linecap:round; stroke-linejoin:round;">
<polyline style="fill-rule:evenodd;"
points="23784,40058
23801,40064
23816,40077
23828,40100
23837,40135
23845,40184
23851,40251
23856,40337
23859,40446
23861,40579
23863,40740
23863,40930
23863,41152
23863,41409
23863,41703
23863,41750
23863,42045
23863,42303
23863,42526
23862,42717
23861,42878
23860,43012
23858,43121
23856,43209
23853,43276
23850,43326
23846,43362
23842,43387
23837,43401
23832,43408
23823,43414
23807,43419
23782,43423
23744,43426
23691,43430
23622,43432
23532,43434
23421,43436
23285,43437
23121,43438
22928,43439
22703,43439
22443,43439
22146,43439
22103,43440
21801,43439
21536,43439
21307,43439
21109,43438
20942,43437
20802,43436
20688,43434
20596,43432
20523,43430
20469,43427
20429,43423
20402,43419
20385,43414
20376,43409
20375,43408
20369,43399
20364,43383
20360,43357
20356,43319
20353,43266
20350,43195
20348,43104
20347,42991
20345,42853
20344,42687
20344,42490
20343,42261
20343,41997
20343,41750
20343,41454
20344,41196
20344,40973
20345,40782
20346,40621
20347,40525
20563,40525
20571,40545
20592,40588
20603,40609
20612,40628
20619,40648
20625,40673
20630,40708
20634,40754
20637,40815
20639,40895
20641,40998
20642,41125
20643,41281
20643,41469
20643,41692
20643,41800
20643,42007
20642,42203
20641,42383
20639,42543
20637,42681
20635,42792
20632,42873
20629,42920
20627,42931
20608,42962
20587,43005
20564,43060
20979,43059
21101,43058
21207,43056
21291,43054
21347,43050
21371,43046
21371,43044
21347,43017
21319,42972
21316,42965
21304,42936
21296,42897
21290,42841
21286,42763
21284,42658
21283,42518
21283,42510
21284,42371
21287,42258
21291,42177
21297,42130
21303,42120
21326,42135
21356,42172
21358,42175
21389,42219
21416,42250
21440,42279
21472,42328
21483,42347
21516,42399
21565,42469
21621,42543
21632,42557
21717,42669
21788,42777
21842,42873
21875,42952
21883,42998
21883,43060
22770,43060
22761,43049
22883,43049
22902,43052
22955,43055
23036,43057
23138,43059
23255,43059
23263,43060
23402,43059
23506,43057
23577,43053
23621,43047
23640,43039
23643,43035
23631,43000
23613,42971
23605,42956
23599,42930
23595,42890
23591,42833
23588,42754
23586,42650
23584,42518
23584,42354
23583,42156
23583,42066
23583,41200
22902,41200
22933,41259
22941,41279
22947,41309
22952,41353
22956,41414
22959,41496
22961,41603
22962,41739
22963,41908
22963,42099
22963,42297
22963,42460
22962,42590
22960,42693
22958,42772
22954,42831
22950,42875
22943,42907
22936,42933
22926,42954
22923,42960
22899,43009
22885,43043
22883,43049
22761,43049
22722,43005
22687,42966
22665,42941
22663,42940
22618,42890
22561,42824
22502,42751
22448,42681
22408,42625
22392,42600
22360,42550
22310,42478
22249,42394
22183,42307
22120,42227
22071,42168
22024,42108
21979,42042
21976,42037
21875,41881
21800,41778
21745,41706
21809,41637
21864,41575
21935,41491
22014,41395
22091,41298
22159,41210
22181,41180
22421,40881
22610,40678
22766,40520
22337,40520
22191,40520
22080,40521
22000,40524
21945,40530
21911,40541
21892,40557
21885,40580
21883,40611
21883,40627
21871,40669
21840,40722
21826,40740
21780,40801
21731,40872
21713,40900
21679,40952
21653,40989
21644,41000
21620,41023
21581,41066
21534,41122
21486,41182
21443,41236
21414,41277
21403,41295
21390,41318
21357,41356
21343,41370
21283,41427
21283,41096
21284,40952
21289,40840
21298,40751
21312,40676
21333,40607
21353,40555
21356,40543
21349,40534
21327,40528
21287,40523
21222,40521
21129,40520
21001,40520
20965,40520
20843,40520
20736,40521
20650,40522
20591,40523
20564,40525
20563,40525
20347,40525
20347,40487
20349,40378
20351,40290
20353,40223
20357,40173
20360,40137
20365,40112
20370,40098
20375,40091
20384,40084
20402,40079
20430,40074
20472,40070
20530,40067
20608,40065
20707,40063
20832,40062
20985,40061
21170,40060
21388,40060
21643,40060
22923,40060
22923,40135
22939,40227
22981,40320
23040,40399
23081,40434
23171,40471
23274,40480
23379,40461
23476,40418
23553,40352
23565,40337
23602,40257
23619,40166
23628,40059
23714,40060
23741,40059
23764,40057
23784,40058
" /> 
<polyline style="fill-rule:evenodd;"
points="25432,40502
25465,40510
25520,40528
25596,40556
25680,40591
25764,40628
25839,40663
25894,40692
25918,40708
25911,40726
25885,40769
25847,40830
25801,40901
25752,40973
25706,41041
25667,41095
25642,41127
25619,41125
25578,41101
25544,41075
25429,41002
25300,40966
25175,40965
25041,40997
24927,41063
24835,41161
24765,41291
24717,41452
24691,41644
24689,41860
24705,42054
24741,42217
24797,42349
24874,42455
24974,42539
24997,42553
25058,42585
25114,42602
25184,42608
25233,42608
25359,42596
25468,42558
25574,42490
25613,42457
25656,42422
25685,42403
25691,42402
25708,42428
25739,42479
25779,42545
25824,42621
25868,42698
25908,42769
25940,42825
25958,42859
25960,42866
25940,42876
25895,42900
25833,42933
25830,42935
25702,42998
25589,43042
25477,43070
25352,43085
25233,43091
25081,43092
24962,43085
24890,43072
24707,43006
24540,42904
24390,42771
24262,42610
24159,42425
24084,42218
24080,42206
24051,42059
24037,41890
24035,41714
24048,41544
24074,41396
24081,41370
24161,41155
24273,40961
24416,40792
24587,40650
24603,40639
24743,40566
24907,40514
25084,40485
25262,40481
25432,40502
" /> 
<polyline style="fill-rule:evenodd;"
points="27072,41168
27211,41200
27304,41235
27377,41279
27442,41337
27484,41380
27519,41421
27546,41463
27568,41512
27584,41573
27596,41648
27605,41744
27612,41864
27616,42013
27620,42195
27622,42290
27625,42473
27628,42620
27632,42736
27636,42824
27640,42890
27646,42937
27653,42970
27661,42993
27669,43005
27704,43060
27066,43060
27053,42939
26975,42992
26852,43054
26710,43090
26560,43099
26416,43078
26390,43071
26243,43006
26124,42913
26035,42796
25978,42656
25955,42497
25955,42480
25956,42457
26529,42457
26532,42527
26540,42551
26590,42615
26664,42657
26754,42676
26847,42668
26877,42658
26946,42625
26989,42584
27013,42525
27023,42439
27023,42396
27023,42240
26893,42240
26764,42251
26655,42285
26579,42333
26546,42386
26529,42457
25956,42457
25957,42389
25968,42321
25991,42255
26009,42215
26092,42092
26205,41993
26350,41918
26525,41868
26730,41843
26841,41840
27029,41840
27018,41758
26989,41669
26933,41607
26849,41573
26738,41567
26603,41588
26463,41631
26397,41653
26346,41664
26321,41664
26320,41664
26307,41639
26283,41587
26254,41518
26223,41443
26195,41372
26174,41315
26164,41282
26163,41279
26180,41265
26215,41260
26255,41255
26324,41242
26409,41222
26470,41208
26679,41168
26883,41154
27072,41168
" /> 
<polyline style="fill-rule:evenodd;"
points="29608,41645
29609,41904
29610,42127
29611,42316
29613,42474
29615,42604
29617,42709
29620,42792
29623,42856
29627,42904
29631,42939
29637,42965
29643,42983
29649,42995
29684,43060
29043,43060
29043,43000
29041,42957
29034,42940
29034,42940
29014,42950
28972,42976
28951,42990
28847,43043
28721,43079
28588,43098
28462,43096
28383,43081
28238,43017
28108,42921
28002,42801
27954,42721
27901,42596
27866,42466
27848,42317
27844,42170
27844,42160
28474,42160
28478,42298
28488,42403
28508,42481
28539,42539
28583,42584
28609,42601
28693,42631
28792,42629
28898,42595
28917,42585
28993,42546
28999,42113
29004,41681
28951,41646
28901,41625
28831,41609
28785,41603
28715,41601
28669,41609
28629,41632
28609,41648
28556,41706
28517,41781
28492,41879
28478,42005
28474,42160
27844,42160
27857,41937
27894,41733
27956,41557
28042,41412
28151,41298
28282,41216
28435,41166
28466,41161
28557,41154
28658,41160
28757,41175
28846,41198
28915,41227
28953,41259
28969,41278
28982,41274
28991,41244
28998,41184
29001,41092
29003,40964
29003,40894
29003,40757
29001,40653
28998,40577
28992,40522
28984,40481
28973,40449
28965,40434
28928,40360
29602,40360
29608,41645
" /> 
</g>
<g style="fill:#000000; fill-opacity:1.0; 
stroke:#000000; stroke-width:118.11; stroke-opacity:1; 
stroke-linecap:round; stroke-linejoin:round;">
</g>
<g style="fill:#000000; fill-opacity:0.0; 
stroke:#000000; stroke-width:118.11; stroke-opacity:1; 
stroke-linecap:round; stroke-linejoin:round;">
<path d="M73429 34629
L74222 33835
" />
<path d="M69517 38791
L69698 38610
" />
<path d="M65481 34754
L65662 34573
" />
<path d="M69517 30717
L69336 30898
" />
<path d="M73554 34754
L73373 34935
" />
<path d="M69517 30717
L69698 30898
" />
<path d="M65481 34754
L65662 34935
" />
<path d="M69517 38791
L69336 38610
" />
<path d="M73554 34754
L73429 34629
" />
<path d="M85169 32253
L85169 29891
" />
<path d="M85878 32607
L85642 32607
" />
<path d="M85878 32843
L85878 32607
" />
<path d="M85642 32843
L85878 32843
" />
<path d="M85642 32607
L85642 32843
" />
<path d="M85957 28670
L91626 28670
" />
<path d="M96193 28670
L93831 28670
" />
<path d="M96193 30796
L96193 28670
" />
<path d="M93831 40245
L95642 40245
" />
<path d="M91626 40245
L85957 40245
" />
<path d="M85169 32253
L84146 32253
" />
<path d="M95957 31623
L96193 30796
" />
<path d="M95799 32489
L95957 31623
" />
<path d="M95681 33395
L95799 32489
" />
<path d="M95642 34458
L95681 33395
" />
<path d="M95642 40245
L95642 34458
" />
</g>
<g style="fill:#000000; fill-opacity:0.0; 
stroke:#000000; stroke-width:94.4882; stroke-opacity:1; 
stroke-linecap:round; stroke-linejoin:round;">
<path d="M34018 40312
L35986 40312
" />
<path d="M34018 38344
L34018 40312
" />
<path d="M38349 34682
L38349 37084
" />
<path d="M36026 34682
L38349 34682
" />
<path d="M36026 34092
L36026 34682
" />
<path d="M38349 39485
L38349 37084
" />
<path d="M36026 39485
L38349 39485
" />
<path d="M36026 40076
L36026 39485
" />
<path d="M34254 34092
L34254 35509
" />
<path d="M34845 34092
L34254 34092
" />
<path d="M34845 35509
L34845 34092
" />
<path d="M34254 35509
L34845 35509
" />
<path d="M34254 38659
L34254 40076
" />
<path d="M34845 38659
L34254 38659
" />
<path d="M34845 40076
L34845 38659
" />
<path d="M34254 40076
L34845 40076
" />
<path d="M34254 36690
L34254 37477
" />
<path d="M34845 36690
L34254 36690
" />
<path d="M34845 37477
L34845 36690
" />
<path d="M34254 37477
L34845 37477
" />
<path d="M34254 34092
L34254 40076
" />
<path d="M38939 34092
L34254 34092
" />
<path d="M38939 40076
L38939 34092
" />
<path d="M34254 40076
L38939 40076
" />
<path d="M62916 27187
L62916 26140
" />
<path d="M63963 27187
L62916 27187
" />
<path d="M64963 25140
L64963 27187
" />
<path d="M62916 25140
L64963 25140
" />
<path d="M62916 23092
L62916 25140
" />
<path d="M69010 23092
L62916 23092
" />
<path d="M69010 27187
L69010 23092
" />
<path d="M64963 27187
L69010 27187
" />
<path d="M72752 30366
L73309 29809
" />
<path d="M72362 28862
L71806 29419
" />
<path d="M71222 27642
L70666 28199
" />
<path d="M71612 29146
L72169 28589
" />
</g>
<g style="fill:#000000; fill-opacity:0.0; 
stroke:#000000; stroke-width:118.11; stroke-opacity:1; 
stroke-linecap:round; stroke-linejoin:round;">
<path d="M60020 31027
L60020 29826
" />
<path d="M51850 31027
L51850 37129
" />
<path d="M60236 31027
L60236 37129
" />
<path d="M51850 31027
L52130 31027
" />
<path d="M51850 37129
L52130 37129
" />
<path d="M60236 37129
L59957 37129
" />
<path d="M60236 31027
L60020 31027
" />
</g>
<g style="fill:#000000; fill-opacity:0.0; 
stroke:#000000; stroke-width:94.4882; stroke-opacity:1; 
stroke-linecap:round; stroke-linejoin:round;">
<path d="M83113 37173
L83113 36386
" />
<path d="M81774 36386
L81774 37173
" />
<path d="M77774 36398
L77774 37186
" />
<path d="M79113 37186
L79113 36398
" />
<path d="M81750 40052
L81750 39107
" />
<path d="M83136 39107
L83136 40052
" />
<path d="M79136 39107
L79136 40052
" />
<path d="M77750 40052
L77750 39107
" />
<path d="M81136 39107
L81136 40052
" />
<path d="M79750 40052
L79750 39107
" />
<path d="M81113 37173
L81113 36386
" />
<path d="M79774 36386
L79774 37173
" />
<path d="M77356 44307
L77356 43260
" />
<path d="M78403 44307
L77356 44307
" />
<path d="M79403 42212
L79403 44307
" />
<path d="M87450 42212
L79403 42212
" />
<path d="M87450 44307
L87450 42212
" />
<path d="M79403 44307
L87450 44307
" />
<path d="M63850 54772
L63850 53827
" />
<path d="M65236 53827
L65236 54772
" />
<path d="M42996 54067
L42996 55012
" />
<path d="M41610 55012
L41610 54067
" />
<path d="M73034 54007
L77719 54007
" />
<path d="M77719 54007
L77719 48023
" />
<path d="M77719 48023
L73034 48023
" />
<path d="M73034 48023
L73034 54007
" />
<path d="M73034 51409
L73625 51409
" />
<path d="M73625 51409
L73625 50622
" />
<path d="M73625 50622
L73034 50622
" />
<path d="M73034 50622
L73034 51409
" />
<path d="M73034 54007
L73625 54007
" />
<path d="M73625 54007
L73625 52590
" />
<path d="M73625 52590
L73034 52590
" />
<path d="M73034 52590
L73034 54007
" />
<path d="M73034 49440
L73625 49440
" />
<path d="M73625 49440
L73625 48023
" />
<path d="M73625 48023
L73034 48023
" />
<path d="M73034 48023
L73034 49440
" />
<path d="M74806 54007
L74806 53417
" />
<path d="M74806 53417
L77129 53417
" />
<path d="M77129 53417
L77129 51015
" />
<path d="M74806 48023
L74806 48614
" />
<path d="M74806 48614
L77129 48614
" />
<path d="M77129 48614
L77129 51015
" />
<path d="M72798 52275
L72798 54244
" />
<path d="M72798 54244
L74766 54244
" />
</g>
<g style="fill:#000000; fill-opacity:0.0; 
stroke:#000000; stroke-width:78.7402; stroke-opacity:1; 
stroke-linecap:round; stroke-linejoin:round;">
<path d="M62810 46273
L61511 46273
" />
<path d="M62810 47572
L62810 46273
" />
<path d="M62810 56406
L61511 56406
" />
<path d="M62810 55107
L62810 56406
" />
<path d="M52676 46273
L53976 46273
" />
<path d="M52676 47572
L52676 46273
" />
<path d="M53582 56406
L53976 56406
" />
<path d="M52676 55501
L53582 56406
" />
<path d="M52676 55107
L52676 55501
" />
</g>
<g style="fill:#000000; fill-opacity:0.0; 
stroke:#000000; stroke-width:94.4882; stroke-opacity:1; 
stroke-linecap:round; stroke-linejoin:round;">
<path d="M72436 47254
L72436 48199
" />
<path d="M71050 48199
L71050 47254
" />
<path d="M49737 24670
L48950 24670
" />
<path d="M48950 26009
L49737 26009
" />
<path d="M48950 24409
L49737 24409
" />
<path d="M49737 23070
L48950 23070
" />
<path d="M48950 27609
L49737 27609
" />
<path d="M49737 26270
L48950 26270
" />
<path d="M63874 50346
L63874 51133
" />
<path d="M65213 51133
L65213 50346
" />
<path d="M71074 50558
L71074 51346
" />
<path d="M72413 51346
L72413 50558
" />
<path d="M78274 50246
L78274 51033
" />
<path d="M79613 51033
L79613 50246
" />
<path d="M86813 51013
L86813 50226
" />
<path d="M85474 50226
L85474 51013
" />
<path d="M28622 51333
L28622 50546
" />
<path d="M27284 50546
L27284 51333
" />
<path d="M35773 51333
L35773 50546
" />
<path d="M34434 50546
L34434 51333
" />
<path d="M41684 50567
L41684 51355
" />
<path d="M43022 51355
L43022 50567
" />
<path d="M49913 51633
L49913 50846
" />
<path d="M48574 50846
L48574 51633
" />
<path d="M65236 47267
L65236 48212
" />
<path d="M63850 48212
L63850 47267
" />
<path d="M71050 54960
L71050 54015
" />
<path d="M72436 54015
L72436 54960
" />
<path d="M78250 47812
L78250 46867
" />
<path d="M79636 46867
L79636 47812
" />
<path d="M79636 53667
L79636 54612
" />
<path d="M78250 54612
L78250 53667
" />
<path d="M85450 47864
L85450 46919
" />
<path d="M86836 46919
L86836 47864
" />
<path d="M86836 53667
L86836 54612
" />
<path d="M85450 54612
L85450 53667
" />
<path d="M27260 48212
L27260 47267
" />
<path d="M28646 47267
L28646 48212
" />
<path d="M28596 54067
L28596 55012
" />
<path d="M27210 55012
L27210 54067
" />
<path d="M35796 47267
L35796 48212
" />
<path d="M34410 48212
L34410 47267
" />
<path d="M34410 55012
L34410 54067
" />
<path d="M35796 54067
L35796 55012
" />
<path d="M41610 48212
L41610 47267
" />
<path d="M42996 47267
L42996 48212
" />
<path d="M50596 47267
L50596 48212
" />
<path d="M49210 48212
L49210 47267
" />
<path d="M49210 55012
L49210 54067
" />
<path d="M50596 54067
L50596 55012
" />
<path d="M19776 28775
L19776 29720
" />
<path d="M18390 29720
L18390 28775
" />
<path d="M31694 32037
L31694 32982
" />
<path d="M30308 32982
L30308 32037
" />
<path d="M61671 38647
L62616 38647
" />
<path d="M62616 40032
L61671 40032
" />
<path d="M75099 30915
L75767 31584
" />
<path d="M74787 32564
L74119 31895
" />
<path d="M79978 53984
L81946 53984
" />
<path d="M79978 52015
L79978 53984
" />
<path d="M84309 48354
L84309 50755
" />
<path d="M81986 48354
L84309 48354
" />
<path d="M81986 47763
L81986 48354
" />
<path d="M84309 53157
L84309 50755
" />
<path d="M81986 53157
L84309 53157
" />
<path d="M81986 53747
L81986 53157
" />
<path d="M80214 47763
L80214 49180
" />
<path d="M80805 47763
L80214 47763
" />
<path d="M80805 49180
L80805 47763
" />
<path d="M80214 49180
L80805 49180
" />
<path d="M80214 52330
L80214 53747
" />
<path d="M80805 52330
L80214 52330
" />
<path d="M80805 53747
L80805 52330
" />
<path d="M80214 53747
L80805 53747
" />
<path d="M80214 50362
L80214 51149
" />
<path d="M80805 50362
L80214 50362
" />
<path d="M80805 51149
L80805 50362
" />
<path d="M80214 51149
L80805 51149
" />
<path d="M80214 47763
L80214 53747
" />
<path d="M84899 47763
L80214 47763
" />
<path d="M84899 53747
L84899 47763
" />
<path d="M80214 53747
L84899 53747
" />
<path d="M87414 53747
L92099 53747
" />
<path d="M92099 53747
L92099 47763
" />
<path d="M92099 47763
L87414 47763
" />
<path d="M87414 47763
L87414 53747
" />
<path d="M87414 51149
L88005 51149
" />
<path d="M88005 51149
L88005 50362
" />
<path d="M88005 50362
L87414 50362
" />
<path d="M87414 50362
L87414 51149
" />
<path d="M87414 53747
L88005 53747
" />
<path d="M88005 53747
L88005 52330
" />
<path d="M88005 52330
L87414 52330
" />
<path d="M87414 52330
L87414 53747
" />
<path d="M87414 49180
L88005 49180
" />
<path d="M88005 49180
L88005 47763
" />
<path d="M88005 47763
L87414 47763
" />
<path d="M87414 47763
L87414 49180
" />
<path d="M89186 53747
L89186 53157
" />
<path d="M89186 53157
L91509 53157
" />
<path d="M91509 53157
L91509 50755
" />
<path d="M89186 47763
L89186 48354
" />
<path d="M89186 48354
L91509 48354
" />
<path d="M91509 48354
L91509 50755
" />
<path d="M87178 52015
L87178 53984
" />
<path d="M87178 53984
L89146 53984
" />
<path d="M21738 54352
L23706 54352
" />
<path d="M21738 52384
L21738 54352
" />
<path d="M26069 48722
L26069 51124
" />
<path d="M23746 48722
L26069 48722
" />
<path d="M23746 48132
L23746 48722
" />
<path d="M26069 53525
L26069 51124
" />
<path d="M23746 53525
L26069 53525
" />
<path d="M23746 54116
L23746 53525
" />
<path d="M21974 48132
L21974 49549
" />
<path d="M22565 48132
L21974 48132
" />
<path d="M22565 49549
L22565 48132
" />
<path d="M21974 49549
L22565 49549
" />
<path d="M21974 52699
L21974 54116
" />
<path d="M22565 52699
L21974 52699
" />
<path d="M22565 54116
L22565 52699
" />
<path d="M21974 54116
L22565 54116
" />
<path d="M21974 50730
L21974 51517
" />
<path d="M22565 50730
L21974 50730
" />
<path d="M22565 51517
L22565 50730
" />
<path d="M21974 51517
L22565 51517
" />
<path d="M21974 48132
L21974 54116
" />
<path d="M26659 48132
L21974 48132
" />
<path d="M26659 54116
L26659 48132
" />
<path d="M21974 54116
L26659 54116
" />
<path d="M29174 54147
L33859 54147
" />
<path d="M33859 54147
L33859 48163
" />
<path d="M33859 48163
L29174 48163
" />
<path d="M29174 48163
L29174 54147
" />
<path d="M29174 51549
L29765 51549
" />
<path d="M29765 51549
L29765 50762
" />
<path d="M29765 50762
L29174 50762
" />
<path d="M29174 50762
L29174 51549
" />
<path d="M29174 54147
L29765 54147
" />
<path d="M29765 54147
L29765 52730
" />
<path d="M29765 52730
L29174 52730
" />
<path d="M29174 52730
L29174 54147
" />
<path d="M29174 49580
L29765 49580
" />
<path d="M29765 49580
L29765 48163
" />
<path d="M29765 48163
L29174 48163
" />
<path d="M29174 48163
L29174 49580
" />
<path d="M30946 54147
L30946 53557
" />
<path d="M30946 53557
L33269 53557
" />
<path d="M33269 53557
L33269 51155
" />
<path d="M30946 48163
L30946 48754
" />
<path d="M30946 48754
L33269 48754
" />
<path d="M33269 48754
L33269 51155
" />
<path d="M28938 52415
L28938 54384
" />
<path d="M28938 54384
L30906 54384
" />
<path d="M36138 54384
L38106 54384
" />
<path d="M36138 52415
L36138 54384
" />
<path d="M40469 48754
L40469 51155
" />
<path d="M38146 48754
L40469 48754
" />
<path d="M38146 48163
L38146 48754
" />
<path d="M40469 53557
L40469 51155
" />
<path d="M38146 53557
L40469 53557
" />
<path d="M38146 54147
L38146 53557
" />
<path d="M36374 48163
L36374 49580
" />
<path d="M36965 48163
L36374 48163
" />
<path d="M36965 49580
L36965 48163
" />
<path d="M36374 49580
L36965 49580
" />
<path d="M36374 52730
L36374 54147
" />
<path d="M36965 52730
L36374 52730
" />
<path d="M36965 54147
L36965 52730
" />
<path d="M36374 54147
L36965 54147
" />
<path d="M36374 50762
L36374 51549
" />
<path d="M36965 50762
L36374 50762
" />
<path d="M36965 51549
L36965 50762
" />
<path d="M36374 51549
L36965 51549
" />
<path d="M36374 48163
L36374 54147
" />
<path d="M41059 48163
L36374 48163
" />
<path d="M41059 54147
L41059 48163
" />
<path d="M36374 54147
L41059 54147
" />
<path d="M43514 54096
L48199 54096
" />
<path d="M48199 54096
L48199 48112
" />
<path d="M48199 48112
L43514 48112
" />
<path d="M43514 48112
L43514 54096
" />
<path d="M43514 51497
L44105 51497
" />
<path d="M44105 51497
L44105 50710
" />
<path d="M44105 50710
L43514 50710
" />
<path d="M43514 50710
L43514 51497
" />
<path d="M43514 54096
L44105 54096
" />
<path d="M44105 54096
L44105 52679
" />
<path d="M44105 52679
L43514 52679
" />
<path d="M43514 52679
L43514 54096
" />
<path d="M43514 49529
L44105 49529
" />
<path d="M44105 49529
L44105 48112
" />
<path d="M44105 48112
L43514 48112
" />
<path d="M43514 48112
L43514 49529
" />
<path d="M45286 54096
L45286 53505
" />
<path d="M45286 53505
L47609 53505
" />
<path d="M47609 53505
L47609 51104
" />
<path d="M45286 48112
L45286 48702
" />
<path d="M45286 48702
L47609 48702
" />
<path d="M47609 48702
L47609 51104
" />
<path d="M43278 52364
L43278 54332
" />
<path d="M43278 54332
L45246 54332
" />
<path d="M65814 53747
L70499 53747
" />
<path d="M70499 53747
L70499 47763
" />
<path d="M70499 47763
L65814 47763
" />
<path d="M65814 47763
L65814 53747
" />
<path d="M65814 51149
L66405 51149
" />
<path d="M66405 51149
L66405 50362
" />
<path d="M66405 50362
L65814 50362
" />
<path d="M65814 50362
L65814 51149
" />
<path d="M65814 53747
L66405 53747
" />
<path d="M66405 53747
L66405 52330
" />
<path d="M66405 52330
L65814 52330
" />
<path d="M65814 52330
L65814 53747
" />
<path d="M65814 49180
L66405 49180
" />
<path d="M66405 49180
L66405 47763
" />
<path d="M66405 47763
L65814 47763
" />
<path d="M65814 47763
L65814 49180
" />
<path d="M67586 53747
L67586 53157
" />
<path d="M67586 53157
L69909 53157
" />
<path d="M69909 53157
L69909 50755
" />
<path d="M67586 47763
L67586 48354
" />
<path d="M67586 48354
L69909 48354
" />
<path d="M69909 48354
L69909 50755
" />
<path d="M65578 52015
L65578 53984
" />
<path d="M65578 53984
L67546 53984
" />
</g>
<g style="fill:#000000; fill-opacity:0.0; 
stroke:#000000; stroke-width:118.11; stroke-opacity:1; 
stroke-linecap:round; stroke-linejoin:round;">
<path d="M60809 40511
L59707 40511
" />
<path d="M60809 44527
L64077 44527
" />
<path d="M60809 40472
L64077 40472
" />
<path d="M60809 44527
L60809 44413
" />
<path d="M64077 44527
L64077 44413
" />
<path d="M64077 40472
L64077 40586
" />
<path d="M60809 40472
L60809 40511
" />
</g>
<g style="fill:#000000; fill-opacity:0.0; 
stroke:#000000; stroke-width:94.4882; stroke-opacity:1; 
stroke-linecap:round; stroke-linejoin:round;">
<path d="M51973 51633
L51973 50846
" />
<path d="M50634 50846
L50634 51633
" />
<path d="M47247 28318
L47247 29184
" />
<path d="M47460 28318
L47247 28318
" />
<path d="M47460 27137
L47460 28318
" />
<path d="M42239 28318
L42239 30546
" />
<path d="M42027 28318
L42239 28318
" />
<path d="M42027 27137
L42027 28318
" />
<path d="M48099 30138
L48099 28988
" />
<path d="M50587 30138
L50587 28437
" />
<path d="M50587 30138
L49855 30138
" />
<path d="M48099 30138
L48831 30138
" />
<path d="M87390 22292
L87390 23340
" />
<path d="M86343 22292
L87390 22292
" />
<path d="M85343 24387
L85343 22292
" />
<path d="M75296 24387
L85343 24387
" />
<path d="M75296 22292
L75296 24387
" />
<path d="M85343 22292
L75296 22292
" />
<path d="M62616 31032
L61671 31032
" />
<path d="M61671 29647
L62616 29647
" />
<path d="M69596 44287
L69596 43240
" />
<path d="M70643 44287
L69596 44287
" />
<path d="M71643 44287
L71643 42192
" />
<path d="M71643 42192
L75690 42192
" />
<path d="M71643 44287
L75690 44287
" />
<path d="M75690 44287
L75690 42192
" />
<path d="M23511 27528
L21936 27528
" />
<path d="M21936 27528
L21936 30599
" />
<path d="M23511 27528
L23511 30599
" />
<path d="M65792 39034
L66348 39591
" />
<path d="M67295 38645
L66738 38088
" />
<path d="M80411 32967
L81356 32967
" />
<path d="M81356 34352
L80411 34352
" />
<path d="M87236 25867
L87236 26812
" />
<path d="M85850 26812
L85850 25867
" />
</g>
<g style="fill:#000000; fill-opacity:0.0; 
stroke:#000000; stroke-width:39.3701; stroke-opacity:1; 
stroke-linecap:round; stroke-linejoin:round;">
<path d="M23213 31546
L23776 31546
L23889 31584
L23964 31659
L24002 31772
L24002 31847
" />
<path d="M24002 30758
L24002 31209
" />
<path d="M24002 30983
L23213 30983
L23326 31058
L23401 31134
L23439 31209
" />
<path d="M28729 33254
L28729 33516
" />
<path d="M29142 33516
L28354 33516
L28354 33141
" />
<path d="M29067 32390
L29104 32428
L29142 32541
L29142 32616
L29104 32728
L29029 32803
L28954 32841
L28804 32878
L28691 32878
L28541 32841
L28466 32803
L28391 32728
L28354 32616
L28354 32541
L28391 32428
L28429 32390
" />
<path d="M28354 31715
L28354 31865
L28391 31940
L28429 31978
L28541 32053
L28691 32090
L28992 32090
L29067 32053
L29104 32015
L29142 31940
L29142 31790
L29104 31715
L29067 31677
L28992 31640
L28804 31640
L28729 31677
L28691 31715
L28654 31790
L28654 31940
L28691 32015
L28729 32053
L28804 32090
" />
<path d="M28691 31189
L28654 31264
L28616 31302
L28541 31339
L28504 31339
L28429 31302
L28391 31264
L28354 31189
L28354 31039
L28391 30964
L28429 30927
L28504 30889
L28541 30889
L28616 30927
L28654 30964
L28691 31039
L28691 31189
L28729 31264
L28766 31302
L28842 31339
L28992 31339
L29067 31302
L29104 31264
L29142 31189
L29142 31039
L29104 30964
L29067 30927
L28992 30889
L28842 30889
L28766 30927
L28729 30964
L28691 31039
" />
<path d="M29142 30138
L29142 30589
" />
<path d="M29142 30364
L28354 30364
L28466 30439
L28541 30514
L28579 30589
" />
<path d="M28429 29838
L28391 29801
L28354 29725
L28354 29538
L28391 29463
L28429 29425
L28504 29388
L28579 29388
L28691 29425
L29142 29876
L29142 29388
" />
<path d="M28354 29125
L28354 28599
L29142 28937
" />
</g>
<g style="fill:#000000; fill-opacity:0.0; 
stroke:#000000; stroke-width:118.11; stroke-opacity:1; 
stroke-linecap:round; stroke-linejoin:round;">
<path d="M84476 27747
L84513 27635
L84513 27447
L84476 27372
L84438 27335
L84363 27297
L84288 27297
L84213 27335
L84176 27372
L84138 27447
L84101 27597
L84064 27672
L84026 27710
L83951 27747
L83876 27747
L83801 27710
L83764 27672
L83726 27597
L83726 27410
L83764 27297
" />
<path d="M83726 27035
L84513 26847
L83951 26698
L84513 26548
L83726 26360
" />
<path d="M83801 26098
L83764 26060
L83726 25985
L83726 25798
L83764 25723
L83801 25685
L83876 25648
L83951 25648
L84064 25685
L84513 26135
L84513 25648
" />
<path d="M39523 38430
L39561 38318
L39561 38130
L39523 38055
L39486 38018
L39411 37980
L39336 37980
L39261 38018
L39223 38055
L39186 38130
L39148 38280
L39111 38355
L39073 38393
L38998 38430
L38923 38430
L38848 38393
L38811 38355
L38773 38280
L38773 38093
L38811 37980
" />
<path d="M38773 37718
L39561 37530
L38998 37380
L39561 37230
L38773 37043
" />
<path d="M38773 36818
L38773 36331
L39073 36593
L39073 36481
L39111 36406
L39148 36368
L39223 36331
L39411 36331
L39486 36368
L39523 36406
L39561 36481
L39561 36706
L39523 36781
L39486 36818
" />
<path d="M64028 32556
L63766 32181
" />
<path d="M63578 32556
L63578 31768
L63878 31768
L63953 31806
L63991 31843
L64028 31918
L64028 32031
L63991 32106
L63953 32143
L63878 32181
L63578 32181
" />
<path d="M64478 32106
L64403 32068
L64365 32031
L64328 31956
L64328 31918
L64365 31843
L64403 31806
L64478 31768
L64628 31768
L64703 31806
L64740 31843
L64778 31918
L64778 31956
L64740 32031
L64703 32068
L64628 32106
L64478 32106
L64403 32143
L64365 32181
L64328 32256
L64328 32406
L64365 32481
L64403 32518
L64478 32556
L64628 32556
L64703 32518
L64740 32481
L64778 32406
L64778 32256
L64740 32181
L64703 32143
L64628 32106
" />
</g>
<g style="fill:#000000; fill-opacity:0.0; 
stroke:#000000; stroke-width:98.4252; stroke-opacity:1; 
stroke-linecap:round; stroke-linejoin:round;">
<path d="M20553 27218
L20553 26824
L20646 26824
L20703 26843
L20740 26880
L20759 26918
L20778 26993
L20778 27049
L20759 27124
L20740 27161
L20703 27199
L20646 27218
L20553 27218
" />
<path d="M20928 26861
L20946 26843
L20984 26824
L21078 26824
L21115 26843
L21134 26861
L21153 26899
L21153 26936
L21134 26993
L20909 27218
L21153 27218
" />
</g>
<g style="fill:#000000; fill-opacity:0.0; 
stroke:#000000; stroke-width:118.11; stroke-opacity:1; 
stroke-linecap:round; stroke-linejoin:round;">
<path d="M42665 25692
L42703 25729
L42740 25842
L42740 25917
L42703 26029
L42628 26104
L42553 26142
L42403 26179
L42290 26179
L42140 26142
L42065 26104
L41990 26029
L41953 25917
L41953 25842
L41990 25729
L42028 25692
" />
<path d="M42028 25392
L41990 25355
L41953 25280
L41953 25092
L41990 25017
L42028 24980
L42103 24942
L42178 24942
L42290 24980
L42740 25430
L42740 24942
" />
<path d="M41078 22474
L41678 22474
" />
<path d="M41378 22774
L41378 22175
" />
<path d="M61410 37601
L61335 37563
L61260 37488
L61148 37376
L61073 37338
L60998 37338
" />
<path d="M61035 37526
L60960 37488
L60885 37413
L60848 37263
L60848 37001
L60885 36851
L60960 36776
L61035 36738
L61185 36738
L61260 36776
L61335 36851
L61373 37001
L61373 37263
L61335 37413
L61260 37488
L61185 37526
L61035 37526
" />
<path d="M62123 37526
L61673 37526
" />
<path d="M61898 37526
L61898 36738
L61823 36851
L61748 36926
L61673 36963
" />
<path d="M75871 29135
L75606 29400
" />
<path d="M75977 28658
L75871 29135
L76349 29029
" />
<path d="M76269 30063
L75951 29745
" />
<path d="M76110 29904
L76667 29347
L76534 29374
L76428 29374
L76349 29347
" />
<path d="M42698 30271
L42735 30308
L42773 30421
L42773 30496
L42735 30608
L42660 30683
L42585 30721
L42435 30758
L42323 30758
L42173 30721
L42098 30683
L42023 30608
L41985 30496
L41985 30421
L42023 30308
L42060 30271
" />
<path d="M42773 29521
L42773 29971
" />
<path d="M42773 29746
L41985 29746
L42098 29821
L42173 29896
L42210 29971
" />
<path d="M41078 27153
L41678 27153
" />
<path d="M41378 27453
L41378 26853
" />
<path d="M32307 29673
L32419 29711
L32457 29748
L32494 29823
L32494 29936
L32457 30011
L32419 30048
L32344 30086
L32044 30086
L32044 29298
L32307 29298
L32382 29336
L32419 29373
L32457 29448
L32457 29523
L32419 29598
L32382 29636
L32307 29673
L32044 29673
" />
<path d="M32719 29298
L33169 29298
" />
<path d="M32944 30086
L32944 29298
" />
<path d="M33844 30086
L33394 30086
" />
<path d="M33619 30086
L33619 29298
L33544 29411
L33469 29486
L33394 29523
" />
<path d="M22962 35596
L22962 34808
L23150 34808
L23262 34846
L23337 34921
L23375 34996
L23412 35146
L23412 35258
L23375 35408
L23337 35483
L23262 35558
L23150 35596
L22962 35596
" />
<path d="M24162 35596
L23712 35596
" />
<path d="M23937 35596
L23937 34808
L23862 34921
L23787 34996
L23712 35033
" />
<path d="M71060 40817
L70503 40260
" />
<path d="M71590 40181
L71590 40234
L71537 40340
L71484 40393
L71378 40446
L71272 40446
L71192 40419
L71060 40340
L70980 40260
L70901 40128
L70874 40048
L70874 39942
L70927 39836
L70980 39783
L71086 39730
L71139 39730
" />
<path d="M72173 39703
L71855 40022
" />
<path d="M72014 39862
L71457 39306
L71484 39438
L71484 39544
L71457 39624
" />
<path d="M34313 33487
L34426 33524
L34613 33524
L34688 33487
L34726 33449
L34763 33374
L34763 33299
L34726 33224
L34688 33187
L34613 33149
L34463 33112
L34388 33074
L34351 33037
L34313 32962
L34313 32887
L34351 32812
L34388 32774
L34463 32737
L34651 32737
L34763 32774
" />
<path d="M35026 32737
L35213 33524
L35363 32962
L35513 33524
L35701 32737
" />
<path d="M36413 33524
L35963 33524
" />
<path d="M36188 33524
L36188 32737
L36113 32849
L36038 32924
L35963 32962
" />
<path d="M62485 25721
L61697 25721
L61697 25421
L61735 25346
L61772 25308
L61847 25271
L61960 25271
L62035 25308
L62072 25346
L62110 25421
L62110 25721
" />
<path d="M62485 24521
L62485 24971
" />
<path d="M62485 24746
L61697 24746
L61810 24821
L61885 24896
L61922 24971
" />
<path d="M73233 31006
L73233 31059
L73180 31165
L73127 31218
L73021 31271
L72915 31271
L72836 31245
L72703 31165
L72624 31085
L72544 30953
L72517 30873
L72517 30767
L72570 30661
L72624 30608
L72730 30555
L72783 30555
" />
<path d="M73817 30529
L73498 30847
" />
<path d="M73658 30688
L73101 30131
L73127 30264
L73127 30370
L73101 30449
" />
<path d="M73923 29680
L74294 30051
" />
<path d="M73578 29601
L73843 30131
L74188 29786
" />
<path d="M70284 28196
L70284 28249
L70231 28355
L70178 28408
L70072 28461
L69966 28461
L69886 28435
L69754 28355
L69674 28276
L69595 28143
L69568 28064
L69568 27958
L69621 27852
L69674 27799
L69780 27746
L69833 27746
" />
<path d="M70867 27719
L70549 28037
" />
<path d="M70708 27878
L70152 27321
L70178 27454
L70178 27560
L70152 27639
" />
<path d="M70814 26659
L70549 26924
L70788 27215
L70788 27162
L70814 27083
L70947 26950
L71027 26924
L71080 26924
L71159 26950
L71292 27083
L71318 27162
L71318 27215
L71292 27295
L71159 27427
L71080 27454
L71027 27454
" />
<path d="M50712 36814
L51349 36814
L51424 36777
L51462 36739
L51499 36664
L51499 36514
L51462 36439
L51424 36402
L51349 36364
L50712 36364
" />
<path d="M51499 35577
L51499 36027
" />
<path d="M51499 35802
L50712 35802
L50825 35877
L50900 35952
L50937 36027
" />
<path d="M50712 35315
L50712 34827
L51012 35090
L51012 34977
L51050 34902
L51087 34865
L51162 34827
L51349 34827
L51424 34865
L51462 34902
L51499 34977
L51499 35202
L51462 35277
L51424 35315
" />
<path d="M82298 35104
L82268 35134
L82178 35164
L82118 35164
L82028 35134
L81968 35074
L81938 35014
L81908 34894
L81908 34805
L81938 34685
L81968 34625
L82028 34565
L82118 34535
L82178 34535
L82268 34565
L82298 34595
" />
<path d="M82898 35164
L82538 35164
" />
<path d="M82718 35164
L82718 34535
L82658 34625
L82598 34685
L82538 34715
" />
<path d="M83438 34535
L83318 34535
L83258 34565
L83228 34595
L83168 34685
L83138 34805
L83138 35044
L83168 35104
L83198 35134
L83258 35164
L83378 35164
L83438 35134
L83468 35104
L83498 35044
L83498 34894
L83468 34835
L83438 34805
L83378 34775
L83258 34775
L83198 34805
L83168 34835
L83138 34894
" />
<path d="M77938 35104
L77908 35134
L77818 35164
L77758 35164
L77668 35134
L77608 35074
L77578 35014
L77548 34894
L77548 34805
L77578 34685
L77608 34625
L77668 34565
L77758 34535
L77818 34535
L77908 34565
L77938 34595
" />
<path d="M78538 35164
L78178 35164
" />
<path d="M78358 35164
L78358 34535
L78298 34625
L78238 34685
L78178 34715
" />
<path d="M78748 34535
L79168 34535
L78898 35164
" />
<path d="M82412 41896
L82150 41521
" />
<path d="M81962 41896
L81962 41108
L82262 41108
L82337 41146
L82375 41183
L82412 41258
L82412 41371
L82375 41446
L82337 41483
L82262 41521
L81962 41521
" />
<path d="M83124 41108
L82749 41108
L82712 41483
L82749 41446
L82824 41408
L83012 41408
L83087 41446
L83124 41483
L83162 41558
L83162 41746
L83124 41821
L83087 41858
L83012 41896
L82824 41896
L82749 41858
L82712 41821
" />
<path d="M78312 41896
L78050 41521
" />
<path d="M77862 41896
L77862 41108
L78162 41108
L78237 41146
L78275 41183
L78312 41258
L78312 41371
L78275 41446
L78237 41483
L78162 41521
L77862 41521
" />
<path d="M78987 41108
L78837 41108
L78762 41146
L78724 41183
L78649 41296
L78612 41446
L78612 41746
L78649 41821
L78687 41858
L78762 41896
L78912 41896
L78987 41858
L79024 41821
L79062 41746
L79062 41558
L79024 41483
L78987 41446
L78912 41408
L78762 41408
L78687 41446
L78649 41483
L78612 41558
" />
<path d="M80512 41896
L80250 41521
" />
<path d="M80062 41896
L80062 41108
L80362 41108
L80437 41146
L80475 41183
L80512 41258
L80512 41371
L80475 41446
L80437 41483
L80362 41521
L80062 41521
" />
<path d="M80774 41108
L81299 41108
L80962 41896
" />
<path d="M80118 35104
L80088 35134
L79998 35164
L79938 35164
L79848 35134
L79788 35074
L79758 35014
L79728 34894
L79728 34805
L79758 34685
L79788 34625
L79848 34565
L79938 34535
L79998 34535
L80088 34565
L80118 34595
" />
<path d="M80718 35164
L80358 35164
" />
<path d="M80538 35164
L80538 34535
L80478 34625
L80418 34685
L80358 34715
" />
<path d="M81078 34805
L81018 34775
L80988 34745
L80958 34685
L80958 34655
L80988 34595
L81018 34565
L81078 34535
L81198 34535
L81258 34565
L81288 34595
L81318 34655
L81318 34685
L81288 34745
L81258 34775
L81198 34805
L81078 34805
L81018 34835
L80988 34865
L80958 34924
L80958 35044
L80988 35104
L81018 35134
L81078 35164
L81198 35164
L81258 35134
L81288 35104
L81318 35044
L81318 34924
L81288 34865
L81258 34835
L81198 34805
" />
<path d="M76137 43522
L76700 43522
L76812 43559
L76887 43634
L76925 43747
L76925 43822
" />
<path d="M76137 43222
L76137 42735
L76437 42997
L76437 42885
L76475 42810
L76512 42772
L76587 42735
L76775 42735
L76850 42772
L76887 42810
L76925 42885
L76925 43110
L76887 43185
L76850 43222
" />
<path d="M64512 56656
L64137 56656
L64137 55868
" />
<path d="M64737 55943
L64774 55906
L64849 55868
L65037 55868
L65112 55906
L65149 55943
L65187 56018
L65187 56093
L65149 56206
L64699 56656
L65187 56656
" />
<path d="M41897 57096
L41522 57096
L41522 56308
" />
<path d="M42572 57096
L42122 57096
" />
<path d="M42347 57096
L42347 56308
L42272 56421
L42197 56496
L42122 56533
" />
<path d="M43247 56571
L43247 57096
" />
<path d="M43059 56271
L42872 56833
L43359 56833
" />
<path d="M52843 44808
L52843 45446
L52881 45521
L52918 45558
L52993 45596
L53143 45596
L53218 45558
L53256 45521
L53293 45446
L53293 44808
" />
<path d="M54006 45071
L54006 45596
" />
<path d="M53818 44771
L53631 45333
L54118 45333
" />
<path d="M70012 47196
L69637 47196
L69637 46408
" />
<path d="M70199 46408
L70687 46408
L70424 46708
L70537 46708
L70612 46746
L70649 46783
L70687 46858
L70687 47046
L70649 47121
L70612 47158
L70537 47196
L70312 47196
L70237 47158
L70199 47121
" />
<path d="M51512 25721
L51475 25758
L51362 25796
L51287 25796
L51175 25758
L51100 25683
L51062 25608
L51025 25458
L51025 25346
L51062 25196
L51100 25121
L51175 25046
L51287 25008
L51362 25008
L51475 25046
L51512 25083
" />
<path d="M51774 25008
L52262 25008
L51999 25308
L52112 25308
L52187 25346
L52224 25383
L52262 25458
L52262 25646
L52224 25721
L52187 25758
L52112 25796
L51887 25796
L51812 25758
L51774 25721
" />
<path d="M51612 24121
L51575 24158
L51462 24196
L51387 24196
L51275 24158
L51200 24083
L51162 24008
L51125 23858
L51125 23746
L51162 23596
L51200 23521
L51275 23446
L51387 23408
L51462 23408
L51575 23446
L51612 23483
" />
<path d="M52287 23671
L52287 24196
" />
<path d="M52099 23371
L51912 23933
L52399 23933
" />
<path d="M51612 27321
L51575 27358
L51462 27396
L51387 27396
L51275 27358
L51200 27283
L51162 27208
L51125 27058
L51125 26946
L51162 26796
L51200 26721
L51275 26646
L51387 26608
L51462 26608
L51575 26646
L51612 26683
" />
<path d="M52324 26608
L51949 26608
L51912 26983
L51949 26946
L52024 26908
L52212 26908
L52287 26946
L52324 26983
L52362 27058
L52362 27246
L52324 27321
L52287 27358
L52212 27396
L52024 27396
L51949 27358
L51912 27321
" />
<path d="M64471 52816
L64445 52843
L64366 52869
L64314 52869
L64235 52843
L64183 52790
L64156 52738
L64130 52633
L64130 52554
L64156 52449
L64183 52396
L64235 52344
L64314 52318
L64366 52318
L64445 52344
L64471 52370
" />
<path d="M64944 52318
L64839 52318
L64786 52344
L64760 52370
L64708 52449
L64681 52554
L64681 52764
L64708 52816
L64734 52843
L64786 52869
L64891 52869
L64944 52843
L64970 52816
L64996 52764
L64996 52633
L64970 52580
L64944 52554
L64891 52528
L64786 52528
L64734 52554
L64708 52580
L64681 52633
" />
<path d="M71651 53036
L71625 53063
L71546 53089
L71494 53089
L71415 53063
L71363 53010
L71336 52958
L71310 52853
L71310 52774
L71336 52669
L71363 52616
L71415 52564
L71494 52538
L71546 52538
L71625 52564
L71651 52590
" />
<path d="M71835 52538
L72203 52538
L71966 53089
" />
<path d="M78851 52696
L78825 52723
L78746 52749
L78694 52749
L78615 52723
L78563 52670
L78536 52618
L78510 52513
L78510 52434
L78536 52329
L78563 52276
L78615 52224
L78694 52198
L78746 52198
L78825 52224
L78851 52250
" />
<path d="M79166 52434
L79114 52408
L79088 52381
L79061 52329
L79061 52303
L79088 52250
L79114 52224
L79166 52198
L79271 52198
L79324 52224
L79350 52250
L79376 52303
L79376 52329
L79350 52381
L79324 52408
L79271 52434
L79166 52434
L79114 52460
L79088 52486
L79061 52539
L79061 52644
L79088 52696
L79114 52723
L79166 52749
L79271 52749
L79324 52723
L79350 52696
L79376 52644
L79376 52539
L79350 52486
L79324 52460
L79271 52434
" />
<path d="M86051 52656
L86025 52683
L85946 52709
L85894 52709
L85815 52683
L85763 52630
L85736 52578
L85710 52473
L85710 52394
L85736 52289
L85763 52236
L85815 52184
L85894 52158
L85946 52158
L86025 52184
L86051 52210
" />
<path d="M86314 52709
L86419 52709
L86471 52683
L86498 52656
L86550 52578
L86576 52473
L86576 52263
L86550 52210
L86524 52184
L86471 52158
L86366 52158
L86314 52184
L86288 52210
L86261 52263
L86261 52394
L86288 52446
L86314 52473
L86366 52499
L86471 52499
L86524 52473
L86550 52446
L86576 52394
" />
</g>
<g style="fill:#000000; fill-opacity:0.0; 
stroke:#000000; stroke-width:98.4252; stroke-opacity:1; 
stroke-linecap:round; stroke-linejoin:round;">
<path d="M27670 52980
L27651 52999
L27595 53018
L27558 53018
L27501 52999
L27464 52961
L27445 52924
L27426 52849
L27426 52793
L27445 52718
L27464 52680
L27501 52643
L27558 52624
L27595 52624
L27651 52643
L27670 52661
" />
<path d="M28045 53018
L27820 53018
" />
<path d="M27933 53018
L27933 52624
L27895 52680
L27858 52718
L27820 52736
" />
<path d="M28289 52624
L28326 52624
L28364 52643
L28383 52661
L28401 52699
L28420 52774
L28420 52868
L28401 52943
L28383 52980
L28364 52999
L28326 53018
L28289 53018
L28251 52999
L28233 52980
L28214 52943
L28195 52868
L28195 52774
L28214 52699
L28233 52661
L28251 52643
L28289 52624
" />
<path d="M34830 52980
L34811 52999
L34755 53018
L34718 53018
L34661 52999
L34624 52961
L34605 52924
L34586 52849
L34586 52793
L34605 52718
L34624 52680
L34661 52643
L34718 52624
L34755 52624
L34811 52643
L34830 52661
" />
<path d="M35205 53018
L34980 53018
" />
<path d="M35093 53018
L35093 52624
L35055 52680
L35018 52718
L34980 52736
" />
<path d="M35580 53018
L35355 53018
" />
<path d="M35468 53018
L35468 52624
L35430 52680
L35393 52718
L35355 52736
" />
<path d="M42150 52980
L42131 52999
L42075 53018
L42038 53018
L41981 52999
L41944 52961
L41925 52924
L41906 52849
L41906 52793
L41925 52718
L41944 52680
L41981 52643
L42038 52624
L42075 52624
L42131 52643
L42150 52661
" />
<path d="M42525 53018
L42300 53018
" />
<path d="M42413 53018
L42413 52624
L42375 52680
L42338 52718
L42300 52736
" />
<path d="M42675 52661
L42694 52643
L42731 52624
L42825 52624
L42863 52643
L42881 52661
L42900 52699
L42900 52736
L42881 52793
L42656 53018
L42900 53018
" />
<path d="M48950 53140
L48931 53159
L48875 53178
L48838 53178
L48781 53159
L48744 53121
L48725 53084
L48706 53009
L48706 52953
L48725 52878
L48744 52840
L48781 52803
L48838 52784
L48875 52784
L48931 52803
L48950 52821
" />
<path d="M49325 53178
L49100 53178
" />
<path d="M49213 53178
L49213 52784
L49175 52840
L49138 52878
L49100 52896
" />
<path d="M49456 52784
L49700 52784
L49569 52934
L49625 52934
L49663 52953
L49681 52971
L49700 53009
L49700 53103
L49681 53140
L49663 53159
L49625 53178
L49513 53178
L49475 53159
L49456 53140
" />
</g>
<g style="fill:#000000; fill-opacity:0.0; 
stroke:#000000; stroke-width:118.11; stroke-opacity:1; 
stroke-linecap:round; stroke-linejoin:round;">
<path d="M64412 46096
L64037 46096
L64037 45308
" />
<path d="M65087 46096
L64637 46096
" />
<path d="M64862 46096
L64862 45308
L64787 45421
L64712 45496
L64637 45533
" />
<path d="M71612 56696
L71237 56696
L71237 55908
" />
<path d="M72212 56171
L72212 56696
" />
<path d="M72024 55871
L71837 56433
L72324 56433
" />
<path d="M77132 47216
L76757 47216
L76757 46428
" />
<path d="M77769 46428
L77394 46428
L77357 46803
L77394 46766
L77469 46728
L77657 46728
L77732 46766
L77769 46803
L77807 46878
L77807 47066
L77769 47141
L77732 47178
L77657 47216
L77469 47216
L77394 47178
L77357 47141
" />
<path d="M78812 56596
L78437 56596
L78437 55808
" />
<path d="M79412 55808
L79262 55808
L79187 55846
L79149 55883
L79074 55996
L79037 56146
L79037 56446
L79074 56521
L79112 56558
L79187 56596
L79337 56596
L79412 56558
L79449 56521
L79487 56446
L79487 56258
L79449 56183
L79412 56146
L79337 56108
L79187 56108
L79112 56146
L79074 56183
L79037 56258
" />
<path d="M84152 47136
L83777 47136
L83777 46348
" />
<path d="M84339 46348
L84864 46348
L84527 47136
" />
<path d="M86112 56696
L85737 56696
L85737 55908
" />
<path d="M86487 56246
L86412 56208
L86374 56171
L86337 56096
L86337 56058
L86374 55983
L86412 55946
L86487 55908
L86637 55908
L86712 55946
L86749 55983
L86787 56058
L86787 56096
L86749 56171
L86712 56208
L86637 56246
L86487 56246
L86412 56283
L86374 56321
L86337 56396
L86337 56546
L86374 56621
L86412 56658
L86487 56696
L86637 56696
L86712 56658
L86749 56621
L86787 56546
L86787 56396
L86749 56321
L86712 56283
L86637 56246
" />
<path d="M27672 45996
L27297 45996
L27297 45208
" />
<path d="M27972 45996
L28122 45996
L28197 45958
L28234 45921
L28309 45808
L28347 45658
L28347 45358
L28309 45283
L28272 45246
L28197 45208
L28047 45208
L27972 45246
L27934 45283
L27897 45358
L27897 45546
L27934 45621
L27972 45658
L28047 45696
L28197 45696
L28272 45658
L28309 45621
L28347 45546
" />
<path d="M27497 56996
L27122 56996
L27122 56208
" />
<path d="M28172 56996
L27722 56996
" />
<path d="M27947 56996
L27947 56208
L27872 56321
L27797 56396
L27722 56433
" />
<path d="M28659 56208
L28734 56208
L28809 56246
L28847 56283
L28884 56358
L28922 56508
L28922 56696
L28884 56846
L28847 56921
L28809 56958
L28734 56996
L28659 56996
L28584 56958
L28547 56921
L28509 56846
L28472 56696
L28472 56508
L28509 56358
L28547 56283
L28584 56246
L28659 56208
" />
<path d="M34597 46096
L34222 46096
L34222 45308
" />
<path d="M35272 46096
L34822 46096
" />
<path d="M35047 46096
L35047 45308
L34972 45421
L34897 45496
L34822 45533
" />
<path d="M36022 46096
L35572 46096
" />
<path d="M35797 46096
L35797 45308
L35722 45421
L35647 45496
L35572 45533
" />
<path d="M34597 57096
L34222 57096
L34222 56308
" />
<path d="M35272 57096
L34822 57096
" />
<path d="M35047 57096
L35047 56308
L34972 56421
L34897 56496
L34822 56533
" />
<path d="M35572 56383
L35609 56346
L35684 56308
L35872 56308
L35947 56346
L35984 56383
L36022 56458
L36022 56533
L35984 56646
L35534 57096
L36022 57096
" />
<path d="M41797 46196
L41422 46196
L41422 45408
" />
<path d="M42472 46196
L42022 46196
" />
<path d="M42247 46196
L42247 45408
L42172 45521
L42097 45596
L42022 45633
" />
<path d="M42734 45408
L43222 45408
L42959 45708
L43072 45708
L43147 45746
L43184 45783
L43222 45858
L43222 46046
L43184 46121
L43147 46158
L43072 46196
L42847 46196
L42772 46158
L42734 46121
" />
<path d="M49397 45996
L49022 45996
L49022 45208
" />
<path d="M50072 45996
L49622 45996
" />
<path d="M49847 45996
L49847 45208
L49772 45321
L49697 45396
L49622 45433
" />
<path d="M50784 45208
L50409 45208
L50372 45583
L50409 45546
L50484 45508
L50672 45508
L50747 45546
L50784 45583
L50822 45658
L50822 45846
L50784 45921
L50747 45958
L50672 45996
L50484 45996
L50409 45958
L50372 45921
" />
<path d="M49397 57096
L49022 57096
L49022 56308
" />
<path d="M50072 57096
L49622 57096
" />
<path d="M49847 57096
L49847 56308
L49772 56421
L49697 56496
L49622 56533
" />
<path d="M50747 56308
L50597 56308
L50522 56346
L50484 56383
L50409 56496
L50372 56646
L50372 56946
L50409 57021
L50447 57058
L50522 57096
L50672 57096
L50747 57058
L50784 57021
L50822 56946
L50822 56758
L50784 56683
L50747 56646
L50672 56608
L50522 56608
L50447 56646
L50409 56683
L50372 56758
" />
</g>
<g style="fill:#000000; fill-opacity:0.0; 
stroke:#000000; stroke-width:98.4252; stroke-opacity:1; 
stroke-linecap:round; stroke-linejoin:round;">
<path d="M19078 27818
L18946 27630
" />
<path d="M18853 27818
L18853 27424
L19003 27424
L19040 27443
L19059 27461
L19078 27499
L19078 27555
L19059 27593
L19040 27611
L19003 27630
L18853 27630
" />
<path d="M19453 27818
L19228 27818
" />
<path d="M19340 27818
L19340 27424
L19303 27480
L19265 27518
L19228 27536
" />
</g>
<g style="fill:#000000; fill-opacity:0.0; 
stroke:#000000; stroke-width:118.11; stroke-opacity:1; 
stroke-linecap:round; stroke-linejoin:round;">
<path d="M32657 32641
L32282 32903
" />
<path d="M32657 33091
L31869 33091
L31869 32791
L31907 32716
L31944 32678
L32019 32641
L32132 32641
L32207 32678
L32244 32716
L32282 32791
L32282 33091
" />
<path d="M31944 32341
L31907 32303
L31869 32228
L31869 32041
L31907 31966
L31944 31928
L32019 31891
L32094 31891
L32207 31928
L32657 32378
L32657 31891
" />
<path d="M64042 39948
L63780 39573
" />
<path d="M63592 39948
L63592 39160
L63892 39160
L63967 39198
L64005 39235
L64042 39310
L64042 39423
L64005 39498
L63967 39535
L63892 39573
L63592 39573
" />
<path d="M64304 39160
L64792 39160
L64529 39460
L64642 39460
L64717 39498
L64754 39535
L64792 39610
L64792 39798
L64754 39873
L64717 39910
L64642 39948
L64417 39948
L64342 39910
L64304 39873
" />
<path d="M75552 31155
L75631 30704
" />
<path d="M75234 30837
L75790 30280
L76002 30492
L76029 30571
L76029 30624
L76002 30704
L75923 30784
L75843 30810
L75790 30810
L75711 30784
L75499 30571
" />
<path d="M76400 31261
L76029 31632
" />
<path d="M76480 30916
L75949 31181
L76294 31526
" />
<path d="M58412 43414
L59049 43414
L59124 43377
L59162 43339
L59199 43264
L59199 43114
L59162 43039
L59124 43002
L59049 42964
L58412 42964
" />
<path d="M59199 42177
L59199 42627
" />
<path d="M59199 42402
L58412 42402
L58525 42477
L58600 42552
L58637 42627
" />
<path d="M58675 41502
L59199 41502
" />
<path d="M58375 41690
L58937 41877
L58937 41390
" />
</g>
<g style="fill:#000000; fill-opacity:0.0; 
stroke:#000000; stroke-width:98.4252; stroke-opacity:1; 
stroke-linecap:round; stroke-linejoin:round;">
<path d="M51210 53140
L51191 53159
L51135 53178
L51098 53178
L51041 53159
L51004 53121
L50985 53084
L50966 53009
L50966 52953
L50985 52878
L51004 52840
L51041 52803
L51098 52784
L51135 52784
L51191 52803
L51210 52821
" />
<path d="M51585 53178
L51360 53178
" />
<path d="M51473 53178
L51473 52784
L51435 52840
L51398 52878
L51360 52896
" />
<path d="M51773 53178
L51848 53178
L51885 53159
L51904 53140
L51941 53084
L51960 53009
L51960 52859
L51941 52821
L51923 52803
L51885 52784
L51810 52784
L51773 52803
L51754 52821
L51735 52859
L51735 52953
L51754 52990
L51773 53009
L51810 53028
L51885 53028
L51923 53009
L51941 52990
L51960 52953
" />
</g>
<g style="fill:#000000; fill-opacity:0.0; 
stroke:#000000; stroke-width:118.11; stroke-opacity:1; 
stroke-linecap:round; stroke-linejoin:round;">
<path d="M42243 31108
L42243 31746
L42281 31821
L42318 31858
L42393 31896
L42543 31896
L42618 31858
L42656 31821
L42693 31746
L42693 31108
" />
<path d="M43481 31896
L43031 31896
" />
<path d="M43256 31896
L43256 31108
L43181 31221
L43106 31296
L43031 31333
" />
<path d="M50881 30139
L51518 30139
L51593 30102
L51630 30064
L51668 29989
L51668 29839
L51630 29764
L51593 29727
L51518 29689
L50881 29689
" />
<path d="M50956 29352
L50918 29315
L50881 29240
L50881 29052
L50918 28977
L50956 28940
L51031 28902
L51106 28902
L51218 28940
L51668 29390
L51668 28902
" />
<path d="M87747 24314
L88384 24314
L88459 24277
L88497 24239
L88534 24164
L88534 24014
L88497 23939
L88459 23902
L88384 23864
L87747 23864
" />
<path d="M88534 23077
L88534 23527
" />
<path d="M88534 23302
L87747 23302
L87859 23377
L87934 23452
L87972 23527
" />
<path d="M87822 22777
L87784 22740
L87747 22665
L87747 22477
L87784 22402
L87822 22365
L87897 22327
L87972 22327
L88084 22365
L88534 22815
L88534 22327
" />
<path d="M64012 30896
L63750 30521
" />
<path d="M63562 30896
L63562 30108
L63862 30108
L63937 30146
L63975 30183
L64012 30258
L64012 30371
L63975 30446
L63937 30483
L63862 30521
L63562 30521
" />
<path d="M64387 30896
L64537 30896
L64612 30858
L64649 30821
L64724 30708
L64762 30558
L64762 30258
L64724 30183
L64687 30146
L64612 30108
L64462 30108
L64387 30146
L64349 30183
L64312 30258
L64312 30446
L64349 30521
L64387 30558
L64462 30596
L64612 30596
L64687 30558
L64724 30521
L64762 30446
" />
<path d="M68377 43502
L68940 43502
L69052 43539
L69127 43614
L69165 43727
L69165 43802
" />
<path d="M68452 43165
L68415 43127
L68377 43052
L68377 42865
L68415 42790
L68452 42752
L68527 42715
L68602 42715
L68715 42752
L69165 43202
L69165 42715
" />
</g>
<g style="fill:#000000; fill-opacity:0.0; 
stroke:#000000; stroke-width:98.4252; stroke-opacity:1; 
stroke-linecap:round; stroke-linejoin:round;">
<path d="M22513 26898
L22513 26504
L22606 26504
L22663 26523
L22700 26560
L22719 26598
L22738 26673
L22738 26729
L22719 26804
L22700 26841
L22663 26879
L22606 26898
L22513 26898
" />
<path d="M22869 26504
L23113 26504
L22981 26654
L23038 26654
L23075 26673
L23094 26691
L23113 26729
L23113 26823
L23094 26860
L23075 26879
L23038 26898
L22925 26898
L22888 26879
L22869 26860
" />
</g>
<g style="fill:#000000; fill-opacity:0.0; 
stroke:#000000; stroke-width:118.11; stroke-opacity:1; 
stroke-linecap:round; stroke-linejoin:round;">
<path d="M67590 40806
L67537 40806
L67431 40753
L67378 40700
L67325 40594
L67325 40488
L67352 40409
L67431 40276
L67511 40197
L67643 40117
L67723 40091
L67829 40091
L67935 40144
L67988 40197
L68041 40303
L68041 40356
" />
<path d="M68253 40568
L68306 40568
L68386 40594
L68518 40727
L68545 40806
L68545 40859
L68518 40939
L68465 40992
L68359 41045
L67723 41045
L68068 41390
" />
<path d="M68969 41178
L69022 41231
L69049 41310
L69049 41363
L69022 41443
L68943 41575
L68810 41708
L68678 41787
L68598 41814
L68545 41814
L68465 41787
L68412 41734
L68386 41655
L68386 41602
L68412 41522
L68492 41390
L68624 41257
L68757 41178
L68837 41151
L68890 41151
L68969 41178
" />
<path d="M82598 33984
L82388 33685
" />
<path d="M82238 33984
L82238 33355
L82478 33355
L82538 33385
L82568 33415
L82598 33475
L82598 33565
L82568 33625
L82538 33655
L82478 33685
L82238 33685
" />
<path d="M83198 33984
L82838 33984
" />
<path d="M83018 33984
L83018 33355
L82958 33445
L82898 33505
L82838 33535
" />
<path d="M83588 33355
L83648 33355
L83708 33385
L83738 33415
L83768 33475
L83798 33595
L83798 33744
L83768 33864
L83738 33924
L83708 33954
L83648 33984
L83588 33984
L83528 33954
L83498 33924
L83468 33864
L83438 33744
L83438 33595
L83468 33475
L83498 33415
L83528 33385
L83588 33355
" />
<path d="M88199 26846
L87824 27108
" />
<path d="M88199 27296
L87411 27296
L87411 26996
L87449 26921
L87486 26883
L87561 26846
L87674 26846
L87749 26883
L87786 26921
L87824 26996
L87824 27296
" />
<path d="M88199 26096
L88199 26546
" />
<path d="M88199 26321
L87411 26321
L87524 26396
L87599 26471
L87636 26546
" />
<path d="M88199 25346
L88199 25796
" />
<path d="M88199 25571
L87411 25571
L87524 25646
L87599 25721
L87636 25796
" />
</g> 
</svg>
