<?xml version="1.0" standalone="no"?>
 <!DOCTYPE svg PUBLIC "-//W3C//DTD SVG 1.1//EN" 
 "http://www.w3.org/Graphics/SVG/1.1/DTD/svg11.dtd"> 
<svg xmlns="http://www.w3.org/2000/svg" version="1.1" 
    width="29.7002cm" height="21.0007cm" viewBox="0 0 116930 82680 ">
<title>SVG Picture created as ThermocoupleLogger-B_Adhes.svg date 2019/03/14 17:10:03 </title>
  <desc>Picture generated by PCBNEW </desc>
<g style="fill:#000000; fill-opacity:1;stroke:#000000; stroke-opacity:1;
stroke-linecap:round; stroke-linejoin:round; "
 transform="translate(0 0) scale(1 1)">
</g>
<g style="fill:#000000; fill-opacity:0.0; 
stroke:#000000; stroke-width:-0.000787402; stroke-opacity:1; 
stroke-linecap:round; stroke-linejoin:round;">
</g>
<g style="fill:#000000; fill-opacity:0.0; 
stroke:#000000; stroke-width:157.48; stroke-opacity:1; 
stroke-linecap:round; stroke-linejoin:round;">
<path d="M30465 17956
L17748 17956
" />
<path d="M17748 63696
L96543 64088
" />
<path d="M96543 64090
L96543 59288
" />
<path d="M17743 59288
L17743 63688
" />
<path d="M83703 59248
L65463 59248
" />
<path d="M87433 59248
L96543 59264
" />
<path d="M87393 57248
L96483 57248
" />
<path d="M65463 57248
L83703 57248
" />
<path d="M61827 59258
L24467 59258
" />
<path d="M24473 57258
L61833 57258
" />
<path d="M20843 57268
L17743 57268
" />
<path d="M20813 59268
L17740 59287
" />
<path d="M20813.7 59268.8 A1000.2 1000.2 0.0 0 0 20836.3 57269.5 " />
<path d="M24483.7 57258.8 A1000 1000 0.0 0 0 24467.1 59258.7 " />
<path d="M61813.7 59258.8 A1000 1000 0.0 0 0 61835 57259 " />
<path d="M65463.7 57248.8 A1000.2 1000.2 0.0 1 0 65465.5 59248.8 " />
<path d="M83693.7 59248.8 A1000.2 1000.2 0.0 1 0 83713.7 57248.6 " />
<path d="M87384.5 57248.8 A1000.2 1000.2 0.0 0 0 87423.7 59248.8 " />
<path d="M91343.7 15888.8 A1000.8 1000.8 0.0 0 0 91383.7 17889.6 " />
<path d="M55123.7 17928.8 A1000.8 1000.8 0.0 1 0 55123.7 15928.8 " />
<path d="M17703 15908
L17703 15908
" />
<path d="M30463 15908
L17703 15908
" />
<path d="M34123 17928
L55123 17928
" />
<path d="M55103 15928
L34143 15928
" />
<path d="M30463.7 17948.8 A1020 1020 0.0 0 0 30463.7 15908.8 " />
<path d="M34143.7 15928.8 A1000.2 1000.2 0.0 1 0 34123.7 17929 " />
<path d="M87723 17918
L58893 17918
" />
<path d="M58743 15938
L87753 15938
" />
<path d="M58823.7 15928.8 A990.202 990.202 0.0 0 0 58863.7 17908.8 " />
<path d="M91394 17893
L96480 17901
" />
<path d="M96443 15888
L91343 15888
" />
<path d="M96443 10688
L96443 15888
" />
<path d="M87723.7 17928.8 A996 996 0.0 0 0 87731.8 15936.9 " />
<path d="M17703 10668
L96433 10673
" />
<path d="M17703 15908
L17703 10668
" />
<path d="M17743 57268
L17743 17958
" />
<path d="M96483 57248
L96483 17918
" />
</g> 
</svg>
