<?xml version="1.0" standalone="no"?>
 <!DOCTYPE svg PUBLIC "-//W3C//DTD SVG 1.1//EN" 
 "http://www.w3.org/Graphics/SVG/1.1/DTD/svg11.dtd"> 
<svg xmlns="http://www.w3.org/2000/svg" version="1.1" 
    width="29.7002cm" height="21.0007cm" viewBox="0 0 116930 82680 ">
<title>SVG Picture created as ThermocoupleLogger-B_Fab.svg date 2019/03/14 17:10:03 </title>
  <desc>Picture generated by PCBNEW </desc>
<g style="fill:#000000; fill-opacity:1;stroke:#000000; stroke-opacity:1;
stroke-linecap:round; stroke-linejoin:round; "
 transform="translate(0 0) scale(1 1)">
</g>
<g style="fill:#000000; fill-opacity:0.0; 
stroke:#000000; stroke-width:-0.000787402; stroke-opacity:1; 
stroke-linecap:round; stroke-linejoin:round;">
</g>
<g style="fill:#000000; fill-opacity:0.0; 
stroke:#000000; stroke-width:157.48; stroke-opacity:1; 
stroke-linecap:round; stroke-linejoin:round;">
<path d="M30465 17956
L17748 17956
" />
<path d="M17748 63696
L96543 64088
" />
<path d="M96543 64090
L96543 59288
" />
<path d="M17743 59288
L17743 63688
" />
<path d="M83703 59248
L65463 59248
" />
<path d="M87433 59248
L96543 59264
" />
<path d="M87393 57248
L96483 57248
" />
<path d="M65463 57248
L83703 57248
" />
<path d="M61827 59258
L24467 59258
" />
<path d="M24473 57258
L61833 57258
" />
<path d="M20843 57268
L17743 57268
" />
<path d="M20813 59268
L17740 59287
" />
<path d="M20813.7 59268.8 A1000.2 1000.2 0.0 0 0 20836.3 57269.5 " />
<path d="M24483.7 57258.8 A1000 1000 0.0 0 0 24467.1 59258.7 " />
<path d="M61813.7 59258.8 A1000 1000 0.0 0 0 61835 57259 " />
<path d="M65463.7 57248.8 A1000.2 1000.2 0.0 1 0 65465.5 59248.8 " />
<path d="M83693.7 59248.8 A1000.2 1000.2 0.0 1 0 83713.7 57248.6 " />
<path d="M87384.5 57248.8 A1000.2 1000.2 0.0 0 0 87423.7 59248.8 " />
<path d="M91343.7 15888.8 A1000.8 1000.8 0.0 0 0 91383.7 17889.6 " />
<path d="M55123.7 17928.8 A1000.8 1000.8 0.0 1 0 55123.7 15928.8 " />
<path d="M17703 15908
L17703 15908
" />
<path d="M30463 15908
L17703 15908
" />
<path d="M34123 17928
L55123 17928
" />
<path d="M55103 15928
L34143 15928
" />
<path d="M30463.7 17948.8 A1020 1020 0.0 0 0 30463.7 15908.8 " />
<path d="M34143.7 15928.8 A1000.2 1000.2 0.0 1 0 34123.7 17929 " />
<path d="M87723 17918
L58893 17918
" />
<path d="M58743 15938
L87753 15938
" />
<path d="M58823.7 15928.8 A990.202 990.202 0.0 0 0 58863.7 17908.8 " />
<path d="M91394 17893
L96480 17901
" />
<path d="M96443 15888
L91343 15888
" />
<path d="M96443 10688
L96443 15888
" />
<path d="M87723.7 17928.8 A996 996 0.0 0 0 87731.8 15936.9 " />
<path d="M17703 10668
L96433 10673
" />
<path d="M17703 15908
L17703 10668
" />
<path d="M17743 57268
L17743 17958
" />
<path d="M96483 57248
L96483 17918
" />
</g>
<g style="fill:#000000; fill-opacity:0.0; 
stroke:#000000; stroke-width:78.7402; stroke-opacity:1; 
stroke-linecap:round; stroke-linejoin:round;">
<path d="M50543 40128
L48519 42243
" />
<path d="M61343 40118
L63324 42249
" />
<path d="M53975.2 20792.8 A314.961 314.961 0.0 0 0 53660.3 21107.7 " />
<path d="M54920 22288
L56967 22288
" />
<path d="M54920.1 35044.7 A1023.62 1023.62 0.0 0 0 56967.4 35044.7 " />
<path d="M54920 35044
L54920 22288
" />
<path d="M56967 22288
L56967 35044
" />
<path d="M53975 20792
L57912 20792
" />
<path d="M54920.1 26367.6 A7955.89 7955.89 0.0 0 0 56967.4 42147.1 " />
<path d="M54920.1 29375.4 A4988.05 4988.05 0.0 0 0 56104.1 39242.8 " />
<path d="M54920.1 32761.3 A1812.73 1812.73 0.0 0 0 56082.2 36064.8 " />
<path d="M55805.3 36064.8 A1812.73 1812.73 0.0 0 0 56967.4 32761.3 " />
<path d="M55783.4 39242.8 A4988.05 4988.05 0.0 0 0 56967.4 29375.4 " />
<path d="M54920.1 42147.1 A7955.89 7955.89 0.0 0 0 56967.4 26367.6 " />
<path d="M58227.2 21107.7 A314.961 314.961 0.0 0 0 57912.2 20792.8 " />
<path d="M58227 21107
L58227 23036
" />
<path d="M53660 23036
L53660 21107
" />
<path d="M53194 23702.8 A708.661 708.661 0.0 0 0 53660.3 23036.9 " />
<path d="M58227.2 23036.9 A708.661 708.661 0.0 0 0 58693.5 23702.8 " />
<path d="M53187.8 23706.1 A10905.2 10905.2 0.0 0 0 55970.1 45162.4 " />
<path d="M55917.4 45162.4 A10905.2 10905.2 0.0 0 0 58699.6 23706.1 " />
<path d="M69472 27786
L68781 28477
" />
<path d="M70585 28900
L69472 27786
" />
<path d="M69895 29590
L70585 28900
" />
<path d="M68781 28477
L69895 29590
" />
<path d="M70721 30437
L71835 31550
" />
<path d="M71835 31550
L72525 30860
" />
<path d="M72525 30860
L71412 29746
" />
<path d="M71412 29746
L70721 30437
" />
</g>
<g style="fill:#000000; fill-opacity:0.0; 
stroke:#000000; stroke-width:118.11; stroke-opacity:1; 
stroke-linecap:round; stroke-linejoin:round;">
<path d="M24611 51131
L24611 50344
L24349 50906
L24087 50344
L24087 51131
" />
<path d="M23599 51131
L23674 51094
L23712 51056
L23749 50981
L23749 50756
L23712 50681
L23674 50644
L23599 50606
L23487 50606
L23412 50644
L23374 50681
L23337 50756
L23337 50981
L23374 51056
L23412 51094
L23487 51131
L23599 51131
" />
<path d="M22662 50606
L22662 51131
" />
<path d="M22999 50606
L22999 51019
L22962 51094
L22887 51131
L22774 51131
L22699 51094
L22662 51056
" />
<path d="M22287 50606
L22287 51131
" />
<path d="M22287 50681
L22249 50644
L22174 50606
L22062 50606
L21987 50644
L21949 50719
L21949 51131
" />
<path d="M21687 50606
L21387 50606
" />
<path d="M21574 50344
L21574 51019
L21537 51094
L21462 51131
L21387 51131
" />
<path d="M21124 51131
L21124 50606
" />
<path d="M21124 50344
L21162 50381
L21124 50419
L21087 50381
L21124 50344
L21124 50419
" />
<path d="M20749 50606
L20749 51131
" />
<path d="M20749 50681
L20712 50644
L20637 50606
L20524 50606
L20450 50644
L20412 50719
L20412 51131
" />
<path d="M19700 50606
L19700 51244
L19737 51319
L19775 51356
L19850 51394
L19962 51394
L20037 51356
" />
<path d="M19700 51094
L19775 51131
L19925 51131
L20000 51094
L20037 51056
L20075 50981
L20075 50756
L20037 50681
L20000 50644
L19925 50606
L19775 50606
L19700 50644
" />
<path d="M19512 51206
L18912 51206
" />
<path d="M18725 51131
L18725 50344
" />
<path d="M18725 50719
L18275 50719
" />
<path d="M18275 51131
L18275 50344
" />
<path d="M17787 51131
L17862 51094
L17900 51056
L17937 50981
L17937 50756
L17900 50681
L17862 50644
L17787 50606
L17675 50606
L17600 50644
L17562 50681
L17525 50756
L17525 50981
L17562 51056
L17600 51094
L17675 51131
L17787 51131
" />
<path d="M17075 51131
L17150 51094
L17187 51019
L17187 50344
" />
<path d="M16475 51094
L16550 51131
L16700 51131
L16775 51094
L16812 51019
L16812 50719
L16775 50644
L16700 50606
L16550 50606
L16475 50644
L16438 50719
L16438 50794
L16812 50869
" />
<path d="M21811 54045
L21811 53257
L21548 53820
L21286 53257
L21286 54045
" />
<path d="M20911 54045
L20911 53257
" />
<path d="M20461 54045
L20798 53595
" />
<path d="M20461 53257
L20911 53707
" />
<path d="M20198 53257
L19711 53257
L19973 53557
L19861 53557
L19786 53595
L19748 53632
L19711 53707
L19711 53895
L19748 53970
L19786 54007
L19861 54045
L20086 54045
L20161 54007
L20198 53970
" />
<path d="M97611 51131
L97611 50344
L97349 50906
L97087 50344
L97087 51131
" />
<path d="M96599 51131
L96674 51094
L96712 51056
L96749 50981
L96749 50756
L96712 50681
L96674 50644
L96599 50606
L96487 50606
L96412 50644
L96374 50681
L96337 50756
L96337 50981
L96374 51056
L96412 51094
L96487 51131
L96599 51131
" />
<path d="M95662 50606
L95662 51131
" />
<path d="M95999 50606
L95999 51019
L95962 51094
L95887 51131
L95774 51131
L95699 51094
L95662 51056
" />
<path d="M95287 50606
L95287 51131
" />
<path d="M95287 50681
L95249 50644
L95174 50606
L95062 50606
L94987 50644
L94949 50719
L94949 51131
" />
<path d="M94687 50606
L94387 50606
" />
<path d="M94574 50344
L94574 51019
L94537 51094
L94462 51131
L94387 51131
" />
<path d="M94124 51131
L94124 50606
" />
<path d="M94124 50344
L94162 50381
L94124 50419
L94087 50381
L94124 50344
L94124 50419
" />
<path d="M93749 50606
L93749 51131
" />
<path d="M93749 50681
L93712 50644
L93637 50606
L93524 50606
L93450 50644
L93412 50719
L93412 51131
" />
<path d="M92700 50606
L92700 51244
L92737 51319
L92775 51356
L92850 51394
L92962 51394
L93037 51356
" />
<path d="M92700 51094
L92775 51131
L92925 51131
L93000 51094
L93037 51056
L93075 50981
L93075 50756
L93037 50681
L93000 50644
L92925 50606
L92775 50606
L92700 50644
" />
<path d="M92512 51206
L91912 51206
" />
<path d="M91725 51131
L91725 50344
" />
<path d="M91725 50719
L91275 50719
" />
<path d="M91275 51131
L91275 50344
" />
<path d="M90787 51131
L90862 51094
L90900 51056
L90937 50981
L90937 50756
L90900 50681
L90862 50644
L90787 50606
L90675 50606
L90600 50644
L90562 50681
L90525 50756
L90525 50981
L90562 51056
L90600 51094
L90675 51131
L90787 51131
" />
<path d="M90075 51131
L90150 51094
L90187 51019
L90187 50344
" />
<path d="M89475 51094
L89550 51131
L89700 51131
L89775 51094
L89812 51019
L89812 50719
L89775 50644
L89700 50606
L89550 50606
L89475 50644
L89438 50719
L89438 50794
L89812 50869
" />
<path d="M94811 54045
L94811 53257
L94548 53820
L94286 53257
L94286 54045
" />
<path d="M93911 54045
L93911 53257
" />
<path d="M93461 54045
L93798 53595
" />
<path d="M93461 53257
L93911 53707
" />
<path d="M92786 53520
L92786 54045
" />
<path d="M92973 53220
L93161 53782
L92673 53782
" />
<path d="M67323 30387
L67323 30875
L67623 30612
L67623 30725
L67661 30800
L67698 30837
L67773 30875
L67960 30875
L68035 30837
L68073 30800
L68110 30725
L68110 30500
L68073 30425
L68035 30387
" />
<path d="M67323 31100
L68110 31362
L67323 31625
" />
<path d="M68373 32712
L68373 32525
L67248 32525
L67248 32712
" />
<path d="M68035 33462
L68073 33424
L68110 33312
L68110 33237
L68073 33124
L67998 33049
L67923 33012
L67773 32974
L67661 32974
L67511 33012
L67436 33049
L67361 33124
L67323 33237
L67323 33312
L67361 33424
L67398 33462
" />
<path d="M68110 34249
L67736 33987
" />
<path d="M68110 33799
L67323 33799
L67323 34099
L67361 34174
L67398 34212
L67473 34249
L67586 34249
L67661 34212
L67698 34174
L67736 34099
L67736 33799
" />
<path d="M67398 34549
L67361 34587
L67323 34662
L67323 34849
L67361 34924
L67398 34962
L67473 34999
L67548 34999
L67661 34962
L68110 34512
L68110 34999
" />
<path d="M67323 35487
L67323 35562
L67361 35637
L67398 35674
L67473 35712
L67623 35749
L67811 35749
L67960 35712
L68035 35674
L68073 35637
L68110 35562
L68110 35487
L68073 35412
L68035 35374
L67960 35337
L67811 35299
L67623 35299
L67473 35337
L67398 35374
L67361 35412
L67323 35487
" />
<path d="M67323 36012
L67323 36499
L67623 36237
L67623 36349
L67661 36424
L67698 36462
L67773 36499
L67960 36499
L68035 36462
L68073 36424
L68110 36349
L68110 36124
L68073 36049
L68035 36012
" />
<path d="M67398 36799
L67361 36837
L67323 36911
L67323 37099
L67361 37174
L67398 37211
L67473 37249
L67548 37249
L67661 37211
L68110 36762
L68110 37249
" />
<path d="M68373 37511
L68373 37699
L67248 37699
L67248 37511
" />
<path d="M71267 28828
L71586 29146
" />
<path d="M71426 28987
L71983 28430
L71957 28562
L71957 28668
L71983 28748
" />
<path d="M71480 27926
L71426 27873
L71347 27847
L71294 27847
L71214 27873
L71082 27953
L70949 28085
L70870 28218
L70843 28297
L70843 28350
L70870 28430
L70923 28483
L71002 28509
L71055 28509
L71135 28483
L71267 28403
L71400 28271
L71480 28138
L71506 28059
L71506 28006
L71480 27926
" />
<path d="M70949 27396
L70896 27343
L70817 27316
L70764 27316
L70684 27343
L70552 27422
L70419 27555
L70339 27687
L70313 27767
L70313 27820
L70339 27900
L70392 27953
L70472 27979
L70525 27979
L70605 27953
L70737 27873
L70870 27740
L70949 27608
L70976 27528
L70976 27475
L70949 27396
" />
<path d="M70339 27157
L69968 27528
" />
<path d="M70286 27210
L70286 27157
L70260 27078
L70180 26998
L70101 26972
L70021 26998
L69730 27290
" />
<path d="M69571 26547
L69756 26733
" />
<path d="M69465 27025
L70021 26468
L69756 26203
" />
<path d="M69007 30080
L69007 30133
L69060 30239
L69113 30292
L69219 30345
L69325 30345
L69405 30319
L69537 30239
L69617 30160
L69696 30027
L69723 29948
L69723 29842
L69670 29736
L69617 29683
L69511 29630
L69458 29630
" />
<path d="M69246 29417
L69246 29364
L69219 29285
L69087 29152
L69007 29126
L68954 29126
L68875 29152
L68822 29205
L68769 29311
L68769 29948
L68424 29603
" />
<path d="M67894 29073
L68212 29391
" />
<path d="M68053 29232
L68609 28675
L68583 28808
L68583 28914
L68609 28993
" />
<path d="M73207 30788
L73526 31106
" />
<path d="M73366 30947
L73923 30390
L73897 30522
L73897 30628
L73923 30708
" />
<path d="M73420 29886
L73366 29833
L73287 29807
L73234 29807
L73154 29833
L73022 29913
L72889 30045
L72810 30178
L72783 30257
L72783 30310
L72810 30390
L72863 30443
L72942 30469
L72995 30469
L73075 30443
L73207 30363
L73340 30231
L73420 30098
L73446 30019
L73446 29966
L73420 29886
" />
<path d="M72889 29356
L72836 29303
L72757 29276
L72704 29276
L72624 29303
L72492 29382
L72359 29515
L72279 29647
L72253 29727
L72253 29780
L72279 29860
L72332 29913
L72412 29939
L72465 29939
L72545 29913
L72677 29833
L72810 29700
L72889 29568
L72916 29488
L72916 29435
L72889 29356
" />
<path d="M72279 29117
L71908 29488
" />
<path d="M72226 29170
L72226 29117
L72200 29038
L72120 28958
L72041 28932
L71961 28958
L71670 29250
" />
<path d="M71511 28507
L71696 28693
" />
<path d="M71405 28985
L71961 28428
L71696 28163
" />
<path d="M70947 32040
L70947 32093
L71000 32199
L71053 32252
L71159 32305
L71265 32305
L71345 32279
L71477 32199
L71557 32120
L71636 31987
L71663 31908
L71663 31802
L71610 31696
L71557 31643
L71451 31590
L71398 31590
" />
<path d="M71186 31377
L71186 31324
L71159 31245
L71027 31112
L70947 31086
L70894 31086
L70815 31112
L70762 31165
L70709 31271
L70709 31908
L70364 31563
" />
<path d="M70656 30847
L70656 30794
L70629 30715
L70496 30582
L70417 30556
L70364 30556
L70284 30582
L70231 30635
L70178 30741
L70178 31377
L69834 31033
" />
</g> 
</svg>
