<?xml version="1.0" standalone="no"?>
 <!DOCTYPE svg PUBLIC "-//W3C//DTD SVG 1.1//EN" 
 "http://www.w3.org/Graphics/SVG/1.1/DTD/svg11.dtd"> 
<svg xmlns="http://www.w3.org/2000/svg" version="1.1" 
    width="29.7002cm" height="21.0007cm" viewBox="0 0 116930 82680 ">
<title>SVG Picture created as ThermocoupleLogger-Dwgs_User.svg date 2019/03/14 17:10:03 </title>
  <desc>Picture generated by PCBNEW </desc>
<g style="fill:#000000; fill-opacity:1;stroke:#000000; stroke-opacity:1;
stroke-linecap:round; stroke-linejoin:round; "
 transform="translate(0 0) scale(1 1)">
</g>
<g style="fill:#000000; fill-opacity:0.0; 
stroke:#000000; stroke-width:-0.000787402; stroke-opacity:1; 
stroke-linecap:round; stroke-linejoin:round;">
</g>
<g style="fill:#000000; fill-opacity:0.0; 
stroke:#000000; stroke-width:157.48; stroke-opacity:1; 
stroke-linecap:round; stroke-linejoin:round;">
<path d="M30465 17956
L17748 17956
" />
<path d="M17748 63696
L96543 64088
" />
<path d="M96543 64090
L96543 59288
" />
<path d="M17743 59288
L17743 63688
" />
<path d="M83703 59248
L65463 59248
" />
<path d="M87433 59248
L96543 59264
" />
<path d="M87393 57248
L96483 57248
" />
<path d="M65463 57248
L83703 57248
" />
<path d="M61827 59258
L24467 59258
" />
<path d="M24473 57258
L61833 57258
" />
<path d="M20843 57268
L17743 57268
" />
<path d="M20813 59268
L17740 59287
" />
<path d="M20813.7 59268.8 A1000.2 1000.2 0.0 0 0 20836.3 57269.5 " />
<path d="M24483.7 57258.8 A1000 1000 0.0 0 0 24467.1 59258.7 " />
<path d="M61813.7 59258.8 A1000 1000 0.0 0 0 61835 57259 " />
<path d="M65463.7 57248.8 A1000.2 1000.2 0.0 1 0 65465.5 59248.8 " />
<path d="M83693.7 59248.8 A1000.2 1000.2 0.0 1 0 83713.7 57248.6 " />
<path d="M87384.5 57248.8 A1000.2 1000.2 0.0 0 0 87423.7 59248.8 " />
<path d="M91343.7 15888.8 A1000.8 1000.8 0.0 0 0 91383.7 17889.6 " />
<path d="M55123.7 17928.8 A1000.8 1000.8 0.0 1 0 55123.7 15928.8 " />
<path d="M17703 15908
L17703 15908
" />
<path d="M30463 15908
L17703 15908
" />
<path d="M34123 17928
L55123 17928
" />
<path d="M55103 15928
L34143 15928
" />
<path d="M30463.7 17948.8 A1020 1020 0.0 0 0 30463.7 15908.8 " />
<path d="M34143.7 15928.8 A1000.2 1000.2 0.0 1 0 34123.7 17929 " />
<path d="M87723 17918
L58893 17918
" />
<path d="M58743 15938
L87753 15938
" />
<path d="M58823.7 15928.8 A990.202 990.202 0.0 0 0 58863.7 17908.8 " />
<path d="M91394 17893
L96480 17901
" />
<path d="M96443 15888
L91343 15888
" />
<path d="M96443 10688
L96443 15888
" />
<path d="M87723.7 17928.8 A996 996 0.0 0 0 87731.8 15936.9 " />
<path d="M17703 10668
L96433 10673
" />
<path d="M17703 15908
L17703 10668
" />
<path d="M17743 57268
L17743 17958
" />
<path d="M96483 57248
L96483 17918
" />
</g>
<g style="fill:#000000; fill-opacity:0.0; 
stroke:#000000; stroke-width:39.3701; stroke-opacity:1; 
stroke-linecap:round; stroke-linejoin:round;">
<path d="M28873 31204
L29660 31204
" />
<path d="M28873 31795
L28873 31204
" />
<path d="M26314 31204
L26314 31795
" />
<path d="M24542 31204
L26314 31204
" />
<path d="M29267 17031
L24936 17031
" />
<path d="M29267 18606
L29267 17031
" />
<path d="M29660 18606
L29267 18606
" />
<path d="M29660 31204
L29660 18606
" />
<path d="M26314 31795
L28873 31795
" />
<path d="M24542 23921
L24542 31204
" />
<path d="M23952 23921
L24542 23921
" />
<path d="M23952 22149
L23952 23921
" />
<path d="M24542 22149
L23952 22149
" />
<path d="M24542 20378
L24542 22149
" />
<path d="M23952 20378
L24542 20378
" />
<path d="M23952 18212
L23952 20378
" />
<path d="M24936 18212
L23952 18212
" />
<path d="M24936 17031
L24936 18212
" />
</g>
<g style="fill:#000000; fill-opacity:0.0; 
stroke:#000000; stroke-width:157.48; stroke-opacity:1; 
stroke-linecap:round; stroke-linejoin:round;">
<path d="M29070 17228
L29070 18803
" />
<path d="M25133 17228
L29070 17228
" />
<path d="M29070 18803
L29463 18803
" />
</g>
<g style="fill:#000000; fill-opacity:0.0; 
stroke:#000000; stroke-width:78.7402; stroke-opacity:1; 
stroke-linecap:round; stroke-linejoin:round;">
<path d="M28440 31480
L26865 31480
" />
<path d="M28440 30850
L28440 31480
" />
<path d="M26865 30850
L28440 30850
" />
<path d="M26865 31480
L26865 30850
" />
<path d="M24897 29669
L24897 28094
" />
<path d="M25526 29669
L24897 29669
" />
<path d="M25526 28094
L25526 29669
" />
<path d="M24897 28094
L25526 28094
" />
<path d="M28715 23567
L28715 22385
" />
<path d="M29267 23567
L28715 23567
" />
<path d="M29267 22385
L29267 23567
" />
<path d="M28715 22385
L29267 22385
" />
<path d="M24936 22071
L24936 20889
" />
<path d="M25487 22071
L24936 22071
" />
<path d="M25487 20889
L25487 22071
" />
<path d="M24936 20889
L25487 20889
" />
<path d="M28715 21244
L28715 20299
" />
<path d="M29267 21244
L28715 21244
" />
<path d="M29267 20299
L29267 21244
" />
<path d="M28715 20299
L29267 20299
" />
<path d="M24306 19748
L24306 18803
" />
<path d="M24857 19748
L24306 19748
" />
<path d="M24857 18803
L24857 19748
" />
<path d="M24306 18803
L24857 18803
" />
</g>
<g style="fill:#000000; fill-opacity:0.0; 
stroke:#000000; stroke-width:39.3701; stroke-opacity:1; 
stroke-linecap:round; stroke-linejoin:round;">
<circle cx="87709.1" cy="16888.8" r="47.2441" /> 
<circle cx="91378.4" cy="16888.8" r="47.2441" /> 
<circle cx="83729.2" cy="58242.7" r="47.2441" /> 
<circle cx="87398.5" cy="58242.7" r="47.2441" /> 
<circle cx="20809.1" cy="58258.8" r="47.2441" /> 
<circle cx="24478.4" cy="58258.8" r="47.2441" /> 
<circle cx="61819.1" cy="58258.8" r="47.2441" /> 
<circle cx="65488.4" cy="58258.8" r="47.2441" /> 
<circle cx="30449.1" cy="16928.8" r="47.2441" /> 
<circle cx="34118.4" cy="16928.8" r="47.2441" /> 
<circle cx="55169.1" cy="16928.8" r="47.2441" /> 
<circle cx="58838.4" cy="16928.8" r="47.2441" /> 
</g> 
</svg>
