<?xml version="1.0" standalone="no"?>
 <!DOCTYPE svg PUBLIC "-//W3C//DTD SVG 1.1//EN" 
 "http://www.w3.org/Graphics/SVG/1.1/DTD/svg11.dtd"> 
<svg xmlns="http://www.w3.org/2000/svg" version="1.1" 
    width="29.7002cm" height="21.0007cm" viewBox="0 0 116930 82680 ">
<title>SVG Picture created as ThermocoupleLogger-F_Mask.svg date 2019/03/14 17:10:03 </title>
  <desc>Picture generated by PCBNEW </desc>
<g style="fill:#000000; fill-opacity:1;stroke:#000000; stroke-opacity:1;
stroke-linecap:round; stroke-linejoin:round; "
 transform="translate(0 0) scale(1 1)">
</g>
<g style="fill:#000000; fill-opacity:0.0; 
stroke:#000000; stroke-width:-0.000787402; stroke-opacity:1; 
stroke-linecap:round; stroke-linejoin:round;">
</g>
<g style="fill:#000000; fill-opacity:0.0; 
stroke:#000000; stroke-width:157.48; stroke-opacity:1; 
stroke-linecap:round; stroke-linejoin:round;">
<path d="M30465 17956
L17748 17956
" />
<path d="M17748 63696
L96543 64088
" />
<path d="M96543 64090
L96543 59288
" />
<path d="M17743 59288
L17743 63688
" />
<path d="M83703 59248
L65463 59248
" />
<path d="M87433 59248
L96543 59264
" />
<path d="M87393 57248
L96483 57248
" />
<path d="M65463 57248
L83703 57248
" />
<path d="M61827 59258
L24467 59258
" />
<path d="M24473 57258
L61833 57258
" />
<path d="M20843 57268
L17743 57268
" />
<path d="M20813 59268
L17740 59287
" />
<path d="M20813.7 59268.8 A1000.2 1000.2 0.0 0 0 20836.3 57269.5 " />
<path d="M24483.7 57258.8 A1000 1000 0.0 0 0 24467.1 59258.7 " />
<path d="M61813.7 59258.8 A1000 1000 0.0 0 0 61835 57259 " />
<path d="M65463.7 57248.8 A1000.2 1000.2 0.0 1 0 65465.5 59248.8 " />
<path d="M83693.7 59248.8 A1000.2 1000.2 0.0 1 0 83713.7 57248.6 " />
<path d="M87384.5 57248.8 A1000.2 1000.2 0.0 0 0 87423.7 59248.8 " />
<path d="M91343.7 15888.8 A1000.8 1000.8 0.0 0 0 91383.7 17889.6 " />
<path d="M55123.7 17928.8 A1000.8 1000.8 0.0 1 0 55123.7 15928.8 " />
<path d="M17703 15908
L17703 15908
" />
<path d="M30463 15908
L17703 15908
" />
<path d="M34123 17928
L55123 17928
" />
<path d="M55103 15928
L34143 15928
" />
<path d="M30463.7 17948.8 A1020 1020 0.0 0 0 30463.7 15908.8 " />
<path d="M34143.7 15928.8 A1000.2 1000.2 0.0 1 0 34123.7 17929 " />
<path d="M87723 17918
L58893 17918
" />
<path d="M58743 15938
L87753 15938
" />
<path d="M58823.7 15928.8 A990.202 990.202 0.0 0 0 58863.7 17908.8 " />
<path d="M91394 17893
L96480 17901
" />
<path d="M96443 15888
L91343 15888
" />
<path d="M96443 10688
L96443 15888
" />
<path d="M87723.7 17928.8 A996 996 0.0 0 0 87731.8 15936.9 " />
<path d="M17703 10668
L96433 10673
" />
<path d="M17703 15908
L17703 10668
" />
<path d="M17743 57268
L17743 17958
" />
<path d="M96483 57248
L96483 17918
" />
</g>
<g style="fill:#000000; fill-opacity:1.0; 
stroke:#000000; stroke-width:7.87402; stroke-opacity:1; 
stroke-linecap:round; stroke-linejoin:round;">
<polyline style="fill-rule:evenodd;"
points="22337,36868
22766,36868
22610,37027
22350,37313
22181,37528
22120,37610
22045,37705
21966,37802
21891,37892
21829,37964
21809,37986
21745,38055
21800,38127
21907,38276
21976,38385
22019,38450
22067,38513
22071,38517
22125,38583
22189,38663
22254,38750
22315,38833
22364,38904
22392,38949
22419,38991
22465,39052
22522,39124
22581,39196
22635,39258
22663,39288
22682,39309
22715,39346
22722,39353
22770,39408
21883,39408
21883,39347
21870,39286
21833,39204
21775,39104
21701,38995
21632,38905
21576,38833
21524,38761
21487,38704
21483,38695
21451,38643
21423,38605
21416,38598
21389,38568
21358,38523
21328,38485
21304,38468
21303,38468
21296,38488
21290,38544
21286,38633
21284,38753
21283,38859
21284,39000
21286,39108
21289,39186
21295,39243
21304,39283
21315,39313
21316,39314
21344,39361
21369,39391
21371,39393
21359,39397
21312,39401
21236,39404
21137,39407
21019,39408
20979,39408
20564,39408
20587,39353
20610,39307
20627,39279
20630,39256
20633,39197
20635,39105
20638,38984
20640,38838
20641,38670
20642,38484
20643,38284
20643,38149
20643,37909
20643,37707
20642,37537
20642,37398
20640,37285
20638,37196
20636,37127
20632,37075
20627,37036
20622,37007
20615,36985
20607,36966
20603,36958
20579,36910
20565,36879
20563,36874
20582,36872
20635,36871
20716,36870
20820,36869
20939,36868
20965,36868
21102,36869
21203,36869
21274,36872
21320,36875
21345,36881
21355,36889
21354,36900
21353,36903
21327,36973
21308,37043
21295,37121
21287,37216
21284,37335
21283,37445
21283,37776
21343,37718
21381,37679
21402,37649
21403,37644
21415,37624
21446,37581
21490,37526
21538,37467
21585,37411
21622,37369
21644,37348
21661,37327
21691,37283
21713,37248
21759,37179
21809,37111
21826,37089
21862,37036
21882,36988
21883,36975
21884,36941
21888,36915
21901,36896
21929,36883
21974,36875
22043,36870
22141,36869
22271,36868
22337,36868
" /> 
<polyline style="fill-rule:evenodd;"
points="23583,38414
23583,38628
23584,38805
23585,38950
23587,39064
23589,39153
23593,39219
23597,39265
23603,39296
23610,39315
23613,39319
23633,39349
23642,39371
23634,39387
23605,39398
23552,39404
23469,39407
23353,39408
23263,39408
23145,39408
23042,39406
22959,39404
22905,39401
22883,39398
22883,39398
22892,39375
22912,39330
22923,39308
22933,39287
22942,39263
22948,39233
22953,39192
22957,39136
22960,39063
22962,38966
22963,38842
22963,38688
22963,38499
22963,38448
22963,38245
22962,38079
22961,37945
22959,37839
22956,37758
22952,37698
22947,37656
22940,37626
22933,37607
22902,37548
23583,37548
23583,38414
" /> 
<polyline style="fill-rule:evenodd;"
points="23394,36158
23486,36210
23560,36291
23594,36359
23619,36468
23611,36576
23574,36672
23564,36687
23493,36756
23400,36803
23295,36827
23190,36824
23098,36793
23081,36783
23016,36721
22963,36636
22930,36543
22923,36488
22938,36402
22978,36312
23034,36234
23078,36196
23182,36148
23290,36136
23394,36158
" /> 
</g>
<g style="fill:#000000; fill-opacity:1.0; 
stroke:#000000; stroke-width:0; stroke-opacity:1; 
stroke-linecap:round; stroke-linejoin:round;">
<polyline style="fill-rule:evenodd;"
points="90815,59230
90994,59304
91155,59412
91292,59549
91400,59710
91474,59889
91512,60080
91512,60273
91474,60464
91400,60643
91292,60804
91155,60941
90994,61049
90815,61123
90624,61161
90431,61161
90240,61123
90061,61049
89900,60941
89763,60804
89655,60643
89581,60464
89543,60273
89543,60080
89581,59889
89655,59710
89763,59549
89900,59412
90061,59304
90240,59230
90431,59192
90624,59192
90815,59230
" /> 
<polyline style="fill-rule:evenodd;"
points="27822,59230
28002,59304
28163,59412
28300,59549
28408,59710
28482,59889
28520,60080
28520,60273
28482,60464
28408,60643
28300,60804
28163,60941
28002,61049
27822,61123
27632,61161
27438,61161
27248,61123
27069,61049
26908,60941
26771,60804
26663,60643
26589,60464
26551,60273
26551,60080
26589,59889
26663,59710
26771,59549
26908,59412
27069,59304
27248,59230
27438,59192
27632,59192
27822,59230
" /> 
<polyline style="fill-rule:evenodd;"
points="63052,58930
63081,58935
63117,58950
63149,58972
63176,58999
63198,59031
63213,59067
63220,59105
63220,59144
63213,59182
63198,59218
63176,59250
63149,59277
63117,59299
63081,59314
63052,59319
63043,59321
63004,59321
62994,59319
62966,59314
62930,59299
62898,59277
62870,59250
62849,59218
62834,59182
62826,59144
62826,59105
62834,59067
62849,59031
62870,58999
62898,58972
62930,58950
62966,58935
62994,58930
63004,58928
63043,58928
63052,58930
" /> 
<polyline style="fill-rule:evenodd;"
points="23302,58930
23331,58935
23366,58950
23399,58972
23426,58999
23448,59031
23462,59067
23470,59105
23470,59144
23462,59182
23448,59218
23426,59250
23399,59277
23366,59299
23331,59314
23302,59319
23293,59321
23254,59321
23244,59319
23216,59314
23180,59299
23148,59277
23120,59250
23099,59218
23084,59182
23076,59144
23076,59105
23084,59067
23099,59031
23120,58999
23148,58972
23180,58950
23216,58935
23244,58930
23254,58928
23293,58928
23302,58930
" /> 
<polyline style="fill-rule:evenodd;"
points="22672,58930
22701,58935
22736,58950
22769,58972
22796,58999
22818,59031
22833,59067
22840,59105
22840,59144
22833,59182
22818,59218
22796,59250
22769,59277
22736,59299
22701,59314
22672,59319
22663,59321
22624,59321
22614,59319
22586,59314
22550,59299
22518,59277
22490,59250
22469,59218
22454,59182
22446,59144
22446,59105
22454,59067
22469,59031
22490,58999
22518,58972
22550,58950
22586,58935
22614,58930
22624,58928
22663,58928
22672,58930
" /> 
<polyline style="fill-rule:evenodd;"
points="22042,58930
22071,58935
22107,58950
22139,58972
22166,58999
22188,59031
22203,59067
22210,59105
22210,59144
22203,59182
22188,59218
22166,59250
22139,59277
22107,59299
22071,59314
22042,59319
22033,59321
21994,59321
21984,59319
21956,59314
21920,59299
21888,59277
21860,59250
21839,59218
21824,59182
21816,59144
21816,59105
21824,59067
21839,59031
21860,58999
21888,58972
21920,58950
21956,58935
21984,58930
21994,58928
22033,58928
22042,58930
" /> 
<polyline style="fill-rule:evenodd;"
points="64312,58930
64341,58935
64376,58950
64409,58972
64436,58999
64458,59031
64472,59067
64480,59105
64480,59144
64472,59182
64458,59218
64436,59250
64409,59277
64376,59299
64341,59314
64312,59319
64303,59321
64264,59321
64254,59319
64226,59314
64190,59299
64158,59277
64130,59250
64109,59218
64094,59182
64086,59144
64086,59105
64094,59067
64109,59031
64130,58999
64158,58972
64190,58950
64226,58935
64254,58930
64264,58928
64303,58928
64312,58930
" /> 
<polyline style="fill-rule:evenodd;"
points="63682,58930
63711,58935
63746,58950
63779,58972
63806,58999
63828,59031
63843,59067
63850,59105
63850,59144
63843,59182
63828,59218
63806,59250
63779,59277
63746,59299
63711,59314
63682,59319
63673,59321
63634,59321
63624,59319
63596,59314
63560,59299
63528,59277
63500,59250
63479,59218
63464,59182
63456,59144
63456,59105
63464,59067
63479,59031
63500,58999
63528,58972
63560,58950
63596,58935
63624,58930
63634,58928
63673,58928
63682,58930
" /> 
<polyline style="fill-rule:evenodd;"
points="86222,58913
86251,58919
86286,58934
86319,58955
86346,58983
86368,59015
86383,59051
86390,59089
86390,59128
86383,59166
86368,59202
86346,59234
86319,59261
86286,59283
86251,59298
86222,59303
86213,59305
86174,59305
86164,59303
86136,59298
86100,59283
86068,59261
86040,59234
86019,59202
86004,59166
85996,59128
85996,59089
86004,59051
86019,59015
86040,58983
86068,58955
86100,58934
86136,58919
86164,58913
86174,58911
86213,58911
86222,58913
" /> 
<polyline style="fill-rule:evenodd;"
points="84962,58913
84991,58919
85027,58934
85059,58955
85086,58983
85108,59015
85123,59051
85130,59089
85130,59128
85123,59166
85108,59202
85086,59234
85059,59261
85027,59283
84991,59298
84962,59303
84953,59305
84914,59305
84905,59303
84876,59298
84840,59283
84808,59261
84780,59234
84759,59202
84744,59166
84737,59128
84737,59089
84744,59051
84759,59015
84780,58983
84808,58955
84840,58934
84876,58919
84905,58913
84914,58911
84953,58911
84962,58913
" /> 
<polyline style="fill-rule:evenodd;"
points="85592,58913
85621,58919
85657,58934
85689,58955
85716,58983
85738,59015
85753,59051
85760,59089
85760,59128
85753,59166
85738,59202
85716,59234
85689,59261
85657,59283
85621,59298
85592,59303
85583,59305
85544,59305
85534,59303
85506,59298
85470,59283
85438,59261
85410,59234
85389,59202
85374,59166
85366,59128
85366,59089
85374,59051
85389,59015
85410,58983
85438,58955
85470,58934
85506,58919
85534,58913
85544,58911
85583,58911
85592,58913
" /> 
<polyline style="fill-rule:evenodd;"
points="63682,57197
63711,57203
63746,57218
63779,57239
63806,57267
63828,57299
63843,57335
63850,57373
63850,57412
63843,57450
63828,57485
63806,57518
63779,57545
63746,57567
63711,57581
63682,57587
63673,57589
63634,57589
63624,57587
63596,57581
63560,57567
63528,57545
63500,57518
63479,57485
63464,57450
63456,57412
63456,57373
63464,57335
63479,57299
63500,57267
63528,57239
63560,57218
63596,57203
63624,57197
63634,57195
63673,57195
63682,57197
" /> 
<polyline style="fill-rule:evenodd;"
points="22672,57197
22701,57203
22736,57218
22769,57239
22796,57267
22818,57299
22833,57335
22840,57373
22840,57412
22833,57450
22818,57485
22796,57518
22769,57545
22736,57567
22701,57581
22672,57587
22663,57589
22624,57589
22614,57587
22586,57581
22550,57567
22518,57545
22490,57518
22469,57485
22454,57450
22446,57412
22446,57373
22454,57335
22469,57299
22490,57267
22518,57239
22550,57218
22586,57203
22614,57197
22624,57195
22663,57195
22672,57197
" /> 
<polyline style="fill-rule:evenodd;"
points="22042,57197
22071,57203
22107,57218
22139,57239
22166,57267
22188,57299
22203,57335
22210,57373
22210,57412
22203,57450
22188,57485
22166,57518
22139,57545
22107,57567
22071,57581
22042,57587
22033,57589
21994,57589
21984,57587
21956,57581
21920,57567
21888,57545
21860,57518
21839,57485
21824,57450
21816,57412
21816,57373
21824,57335
21839,57299
21860,57267
21888,57239
21920,57218
21956,57203
21984,57197
21994,57195
22033,57195
22042,57197
" /> 
<polyline style="fill-rule:evenodd;"
points="63052,57197
63081,57203
63117,57218
63149,57239
63176,57267
63198,57299
63213,57335
63220,57373
63220,57412
63213,57450
63198,57485
63176,57518
63149,57545
63117,57567
63081,57581
63052,57587
63043,57589
63004,57589
62994,57587
62966,57581
62930,57567
62898,57545
62870,57518
62849,57485
62834,57450
62826,57412
62826,57373
62834,57335
62849,57299
62870,57267
62898,57239
62930,57218
62966,57203
62994,57197
63004,57195
63043,57195
63052,57197
" /> 
<polyline style="fill-rule:evenodd;"
points="23302,57197
23331,57203
23366,57218
23399,57239
23426,57267
23448,57299
23462,57335
23470,57373
23470,57412
23462,57450
23448,57485
23426,57518
23399,57545
23366,57567
23331,57581
23302,57587
23293,57589
23254,57589
23244,57587
23216,57581
23180,57567
23148,57545
23120,57518
23099,57485
23084,57450
23076,57412
23076,57373
23084,57335
23099,57299
23120,57267
23148,57239
23180,57218
23216,57203
23244,57197
23254,57195
23293,57195
23302,57197
" /> 
<polyline style="fill-rule:evenodd;"
points="64312,57197
64341,57203
64376,57218
64409,57239
64436,57267
64458,57299
64472,57335
64480,57373
64480,57412
64472,57450
64458,57485
64436,57518
64409,57545
64376,57567
64341,57581
64312,57587
64303,57589
64264,57589
64254,57587
64226,57581
64190,57567
64158,57545
64130,57518
64109,57485
64094,57450
64086,57412
64086,57373
64094,57335
64109,57299
64130,57267
64158,57239
64190,57218
64226,57203
64254,57197
64264,57195
64303,57195
64312,57197
" /> 
<polyline style="fill-rule:evenodd;"
points="86222,57181
86251,57187
86286,57202
86319,57223
86346,57251
86368,57283
86383,57319
86390,57357
86390,57395
86383,57433
86368,57469
86346,57502
86319,57529
86286,57550
86251,57565
86222,57571
86213,57573
86174,57573
86164,57571
86136,57565
86100,57550
86068,57529
86040,57502
86019,57469
86004,57433
85996,57395
85996,57357
86004,57319
86019,57283
86040,57251
86068,57223
86100,57202
86136,57187
86164,57181
86174,57179
86213,57179
86222,57181
" /> 
<polyline style="fill-rule:evenodd;"
points="85592,57181
85621,57187
85657,57202
85689,57223
85716,57251
85738,57283
85753,57319
85760,57357
85760,57395
85753,57433
85738,57469
85716,57502
85689,57529
85657,57550
85621,57565
85592,57571
85583,57573
85544,57573
85534,57571
85506,57565
85470,57550
85438,57529
85410,57502
85389,57469
85374,57433
85366,57395
85366,57357
85374,57319
85389,57283
85410,57251
85438,57223
85470,57202
85506,57187
85534,57181
85544,57179
85583,57179
85592,57181
" /> 
<polyline style="fill-rule:evenodd;"
points="84962,57181
84991,57187
85027,57202
85059,57223
85086,57251
85108,57283
85123,57319
85130,57357
85130,57395
85123,57433
85108,57469
85086,57502
85059,57529
85027,57550
84991,57565
84962,57571
84953,57573
84914,57573
84905,57571
84876,57565
84840,57550
84808,57529
84780,57502
84759,57469
84744,57433
84737,57395
84737,57357
84744,57319
84759,57283
84780,57251
84808,57223
84840,57202
84876,57187
84905,57181
84914,57179
84953,57179
84962,57181
" /> 
<polyline style="fill-rule:evenodd;"
points="94163,51644
94518,51791
94550,51804
94566,51815
94898,52037
95195,52333
95427,52681
95588,53068
95669,53479
95669,53898
95588,54308
95427,54695
95195,55044
94898,55340
94898,55340
94550,55572
94550,55572
94550,55572
94163,55733
93753,55814
93334,55814
92923,55733
92536,55572
92536,55572
92536,55572
92188,55340
92188,55340
91892,55044
91659,54695
91499,54308
91417,53898
91417,53479
91499,53068
91659,52681
91892,52333
92188,52037
92521,51815
92536,51804
92568,51791
92923,51644
93334,51562
93753,51562
94163,51644
" /> 
<polyline style="fill-rule:evenodd;"
points="21163,51644
21518,51791
21550,51804
21566,51815
21898,52037
22195,52333
22427,52681
22588,53068
22669,53479
22669,53898
22588,54308
22427,54695
22195,55044
21898,55340
21898,55340
21550,55572
21550,55572
21550,55572
21163,55733
20753,55814
20334,55814
19923,55733
19536,55572
19536,55572
19536,55572
19188,55340
19188,55340
18892,55044
18659,54695
18499,54308
18417,53898
18417,53479
18499,53068
18659,52681
18892,52333
19188,52037
19521,51815
19536,51804
19568,51791
19923,51644
20334,51562
20753,51562
21163,51644
" /> 
<polyline style="fill-rule:evenodd;"
points="59019,52637
58468,52637
58468,51121
59019,51121
59019,52637
" /> 
<polyline style="fill-rule:evenodd;"
points="56019,52637
55468,52637
55468,51121
56019,51121
56019,52637
" /> 
<polyline style="fill-rule:evenodd;"
points="61019,52637
60468,52637
60468,51121
61019,51121
61019,52637
" /> 
<polyline style="fill-rule:evenodd;"
points="60019,52637
59468,52637
59468,51121
60019,51121
60019,52637
" /> 
<polyline style="fill-rule:evenodd;"
points="55019,52637
54468,52637
54468,51121
55019,51121
55019,52637
" /> 
<polyline style="fill-rule:evenodd;"
points="57019,52637
56468,52637
56468,51121
57019,51121
57019,52637
" /> 
<polyline style="fill-rule:evenodd;"
points="58019,52637
57468,52637
57468,51121
58019,51121
58019,52637
" /> 
<polyline style="fill-rule:evenodd;"
points="50415,51912
49391,51912
49391,51361
50415,51361
50415,51912
" /> 
<polyline style="fill-rule:evenodd;"
points="28415,51912
27391,51912
27391,51361
28415,51361
28415,51912
" /> 
<polyline style="fill-rule:evenodd;"
points="42815,51912
41791,51912
41791,51361
42815,51361
42815,51912
" /> 
<polyline style="fill-rule:evenodd;"
points="35615,51912
34591,51912
34591,51361
35615,51361
35615,51912
" /> 
<polyline style="fill-rule:evenodd;"
points="72255,51860
71231,51860
71231,51309
72255,51309
72255,51860
" /> 
<polyline style="fill-rule:evenodd;"
points="65055,51672
64031,51672
64031,51121
65055,51121
65055,51672
" /> 
<polyline style="fill-rule:evenodd;"
points="86655,51512
85631,51512
85631,50961
86655,50961
86655,51512
" /> 
<polyline style="fill-rule:evenodd;"
points="79455,51512
78431,51512
78431,50961
79455,50961
79455,51512
" /> 
<polyline style="fill-rule:evenodd;"
points="62692,50964
61176,50964
61176,50413
62692,50413
62692,50964
" /> 
<polyline style="fill-rule:evenodd;"
points="54310,50964
52794,50964
52794,50413
54310,50413
54310,50964
" /> 
<polyline style="fill-rule:evenodd;"
points="50415,50416
49391,50416
49391,49865
50415,49865
50415,50416
" /> 
<polyline style="fill-rule:evenodd;"
points="28415,50416
27391,50416
27391,49865
28415,49865
28415,50416
" /> 
<polyline style="fill-rule:evenodd;"
points="42815,50416
41791,50416
41791,49865
42815,49865
42815,50416
" /> 
<polyline style="fill-rule:evenodd;"
points="35615,50416
34591,50416
34591,49865
35615,49865
35615,50416
" /> 
<polyline style="fill-rule:evenodd;"
points="72255,50364
71231,50364
71231,49813
72255,49813
72255,50364
" /> 
<polyline style="fill-rule:evenodd;"
points="65055,50176
64031,50176
64031,49625
65055,49625
65055,50176
" /> 
<polyline style="fill-rule:evenodd;"
points="86655,50016
85631,50016
85631,49465
86655,49465
86655,50016
" /> 
<polyline style="fill-rule:evenodd;"
points="79455,50016
78431,50016
78431,49465
79455,49465
79455,50016
" /> 
<polyline style="fill-rule:evenodd;"
points="54310,49964
52794,49964
52794,49413
54310,49413
54310,49964
" /> 
<polyline style="fill-rule:evenodd;"
points="62692,49964
61176,49964
61176,49413
62692,49413
62692,49964
" /> 
<polyline style="fill-rule:evenodd;"
points="38992,49177
37614,49177
37614,47799
38992,47799
38992,49177
" /> 
<polyline style="fill-rule:evenodd;"
points="31792,49177
30414,49177
30414,47799
31792,47799
31792,49177
" /> 
<polyline style="fill-rule:evenodd;"
points="24592,49146
23214,49146
23214,47768
24592,47768
24592,49146
" /> 
<polyline style="fill-rule:evenodd;"
points="46132,49126
44754,49126
44754,47748
46132,47748
46132,49126
" /> 
<polyline style="fill-rule:evenodd;"
points="75652,49037
74274,49037
74274,47659
75652,47659
75652,49037
" /> 
<polyline style="fill-rule:evenodd;"
points="62692,48964
61176,48964
61176,48413
62692,48413
62692,48964
" /> 
<polyline style="fill-rule:evenodd;"
points="54310,48964
52794,48964
52794,48413
54310,48413
54310,48964
" /> 
<polyline style="fill-rule:evenodd;"
points="90032,48777
88654,48777
88654,47399
90032,47399
90032,48777
" /> 
<polyline style="fill-rule:evenodd;"
points="82832,48777
81454,48777
81454,47399
82832,47399
82832,48777
" /> 
<polyline style="fill-rule:evenodd;"
points="68432,48777
67054,48777
67054,47399
68432,47399
68432,48777
" /> 
<polyline style="fill-rule:evenodd;"
points="51795,48769
50811,48769
50811,47982
51795,47982
51795,48769
" /> 
<polyline style="fill-rule:evenodd;"
points="49735,48769
48751,48769
48751,47982
49735,47982
49735,48769
" /> 
<polyline style="fill-rule:evenodd;"
points="42845,48491
41861,48491
41861,47704
42845,47704
42845,48491
" /> 
<polyline style="fill-rule:evenodd;"
points="72235,48482
71251,48482
71251,47695
72235,47695
72235,48482
" /> 
<polyline style="fill-rule:evenodd;"
points="35595,48469
34611,48469
34611,47682
35595,47682
35595,48469
" /> 
<polyline style="fill-rule:evenodd;"
points="28445,48469
27461,48469
27461,47682
28445,47682
28445,48469
" /> 
<polyline style="fill-rule:evenodd;"
points="65035,48269
64051,48269
64051,47482
65035,47482
65035,48269
" /> 
<polyline style="fill-rule:evenodd;"
points="79435,48169
78451,48169
78451,47382
79435,47382
79435,48169
" /> 
<polyline style="fill-rule:evenodd;"
points="86635,48149
85651,48149
85651,47362
86635,47362
86635,48149
" /> 
<polyline style="fill-rule:evenodd;"
points="62692,47964
61176,47964
61176,47413
62692,47413
62692,47964
" /> 
<polyline style="fill-rule:evenodd;"
points="54310,47964
52794,47964
52794,47413
54310,47413
54310,47964
" /> 
<polyline style="fill-rule:evenodd;"
points="31304,45857
31430,45909
31542,45985
31638,46081
31714,46193
31766,46319
31792,46452
31792,46588
31766,46721
31714,46846
31638,46959
31542,47055
31430,47130
31304,47182
31171,47209
31035,47209
30902,47182
30777,47130
30664,47055
30568,46959
30493,46846
30441,46721
30414,46588
30414,46452
30441,46319
30493,46193
30568,46081
30664,45985
30777,45909
30902,45857
31035,45831
31171,45831
31304,45857
" /> 
<polyline style="fill-rule:evenodd;"
points="38504,45857
38630,45909
38742,45985
38838,46081
38914,46193
38966,46319
38992,46452
38992,46588
38966,46721
38914,46846
38838,46959
38742,47055
38630,47130
38504,47182
38371,47209
38235,47209
38102,47182
37977,47130
37864,47055
37768,46959
37693,46846
37641,46721
37614,46588
37614,46452
37641,46319
37693,46193
37768,46081
37864,45985
37977,45909
38102,45857
38235,45831
38371,45831
38504,45857
" /> 
<polyline style="fill-rule:evenodd;"
points="49735,47195
48751,47195
48751,46407
49735,46407
49735,47195
" /> 
<polyline style="fill-rule:evenodd;"
points="51795,47195
50811,47195
50811,46407
51795,46407
51795,47195
" /> 
<polyline style="fill-rule:evenodd;"
points="24104,45826
24230,45878
24342,45953
24438,46049
24514,46162
24566,46287
24592,46420
24592,46556
24566,46689
24514,46815
24438,46928
24342,47023
24230,47099
24104,47151
23971,47177
23835,47177
23702,47151
23577,47099
23464,47023
23368,46928
23293,46815
23241,46689
23214,46556
23214,46420
23241,46287
23293,46162
23368,46049
23464,45953
23577,45878
23702,45826
23835,45799
23971,45799
24104,45826
" /> 
<polyline style="fill-rule:evenodd;"
points="45644,45806
45770,45858
45882,45933
45978,46029
46054,46142
46106,46267
46132,46400
46132,46536
46106,46669
46054,46795
45978,46908
45882,47003
45770,47079
45644,47131
45511,47157
45375,47157
45242,47131
45117,47079
45004,47003
44908,46908
44833,46795
44781,46669
44754,46536
44754,46400
44781,46267
44833,46142
44908,46029
45004,45933
45117,45858
45242,45806
45375,45779
45511,45779
45644,45806
" /> 
<polyline style="fill-rule:evenodd;"
points="75164,45717
75290,45769
75402,45845
75498,45941
75574,46053
75626,46179
75652,46312
75652,46448
75626,46581
75574,46706
75498,46819
75402,46915
75290,46990
75164,47042
75031,47069
74895,47069
74762,47042
74637,46990
74524,46915
74428,46819
74353,46706
74301,46581
74274,46448
74274,46312
74301,46179
74353,46053
74428,45941
74524,45845
74637,45769
74762,45717
74895,45691
75031,45691
75164,45717
" /> 
<polyline style="fill-rule:evenodd;"
points="54310,46964
52794,46964
52794,46413
54310,46413
54310,46964
" /> 
<polyline style="fill-rule:evenodd;"
points="62692,46964
61176,46964
61176,46413
62692,46413
62692,46964
" /> 
<polyline style="fill-rule:evenodd;"
points="42845,46916
41861,46916
41861,46129
42845,46129
42845,46916
" /> 
<polyline style="fill-rule:evenodd;"
points="72235,46907
71251,46907
71251,46120
72235,46120
72235,46907
" /> 
<polyline style="fill-rule:evenodd;"
points="35595,46895
34611,46895
34611,46107
35595,46107
35595,46895
" /> 
<polyline style="fill-rule:evenodd;"
points="28445,46895
27461,46895
27461,46107
28445,46107
28445,46895
" /> 
<polyline style="fill-rule:evenodd;"
points="82344,45457
82470,45509
82582,45585
82678,45681
82754,45793
82806,45919
82832,46052
82832,46188
82806,46321
82754,46446
82678,46559
82582,46655
82470,46730
82344,46782
82211,46809
82075,46809
81942,46782
81817,46730
81704,46655
81608,46559
81533,46446
81481,46321
81454,46188
81454,46052
81481,45919
81533,45793
81608,45681
81704,45585
81817,45509
81942,45457
82075,45431
82211,45431
82344,45457
" /> 
<polyline style="fill-rule:evenodd;"
points="89544,45457
89670,45509
89782,45585
89878,45681
89954,45793
90006,45919
90032,46052
90032,46188
90006,46321
89954,46446
89878,46559
89782,46655
89670,46730
89544,46782
89411,46809
89275,46809
89142,46782
89017,46730
88904,46655
88808,46559
88733,46446
88681,46321
88654,46188
88654,46052
88681,45919
88733,45793
88808,45681
88904,45585
89017,45509
89142,45457
89275,45431
89411,45431
89544,45457
" /> 
<polyline style="fill-rule:evenodd;"
points="67944,45457
68070,45509
68182,45585
68278,45681
68354,45793
68406,45919
68432,46052
68432,46188
68406,46321
68354,46446
68278,46559
68182,46655
68070,46730
67944,46782
67811,46809
67675,46809
67542,46782
67417,46730
67304,46655
67208,46559
67133,46446
67081,46321
67054,46188
67054,46052
67081,45919
67133,45793
67208,45681
67304,45585
67417,45509
67542,45457
67675,45431
67811,45431
67944,45457
" /> 
<polyline style="fill-rule:evenodd;"
points="65035,46695
64051,46695
64051,45907
65035,45907
65035,46695
" /> 
<polyline style="fill-rule:evenodd;"
points="79435,46595
78451,46595
78451,45807
79435,45807
79435,46595
" /> 
<polyline style="fill-rule:evenodd;"
points="86635,46575
85651,46575
85651,45787
86635,45787
86635,46575
" /> 
<polyline style="fill-rule:evenodd;"
points="54310,45964
52794,45964
52794,45413
54310,45413
54310,45964
" /> 
<polyline style="fill-rule:evenodd;"
points="62692,45964
61176,45964
61176,45413
62692,45413
62692,45964
" /> 
<polyline style="fill-rule:evenodd;"
points="50415,45112
49391,45112
49391,44561
50415,44561
50415,45112
" /> 
<polyline style="fill-rule:evenodd;"
points="42815,45112
41791,45112
41791,44561
42815,44561
42815,45112
" /> 
<polyline style="fill-rule:evenodd;"
points="65055,45112
64031,45112
64031,44561
65055,44561
65055,45112
" /> 
<polyline style="fill-rule:evenodd;"
points="35615,45112
34591,45112
34591,44561
35615,44561
35615,45112
" /> 
<polyline style="fill-rule:evenodd;"
points="28465,45112
27441,45112
27441,44561
28465,44561
28465,45112
" /> 
<polyline style="fill-rule:evenodd;"
points="72255,45099
71231,45099
71231,44548
72255,44548
72255,45099
" /> 
<polyline style="fill-rule:evenodd;"
points="54310,44964
52794,44964
52794,44413
54310,44413
54310,44964
" /> 
<polyline style="fill-rule:evenodd;"
points="62692,44964
61176,44964
61176,44413
62692,44413
62692,44964
" /> 
<polyline style="fill-rule:evenodd;"
points="86655,44764
85631,44764
85631,44213
86655,44213
86655,44764
" /> 
<polyline style="fill-rule:evenodd;"
points="79455,44712
78431,44712
78431,44161
79455,44161
79455,44712
" /> 
<polyline style="fill-rule:evenodd;"
points="56019,44255
55468,44255
55468,42740
56019,42740
56019,44255
" /> 
<polyline style="fill-rule:evenodd;"
points="55019,44255
54468,44255
54468,42740
55019,42740
55019,44255
" /> 
<polyline style="fill-rule:evenodd;"
points="57019,44255
56468,44255
56468,42740
57019,42740
57019,44255
" /> 
<polyline style="fill-rule:evenodd;"
points="59019,44255
58468,44255
58468,42740
59019,42740
59019,44255
" /> 
<polyline style="fill-rule:evenodd;"
points="60019,44255
59468,44255
59468,42740
60019,42740
60019,44255
" /> 
<polyline style="fill-rule:evenodd;"
points="58019,44255
57468,44255
57468,42740
58019,42740
58019,44255
" /> 
<polyline style="fill-rule:evenodd;"
points="61019,44255
60468,44255
60468,42740
61019,42740
61019,44255
" /> 
<polyline style="fill-rule:evenodd;"
points="28465,43616
27441,43616
27441,43065
28465,43065
28465,43616
" /> 
<polyline style="fill-rule:evenodd;"
points="35615,43616
34591,43616
34591,43065
35615,43065
35615,43616
" /> 
<polyline style="fill-rule:evenodd;"
points="65055,43616
64031,43616
64031,43065
65055,43065
65055,43616
" /> 
<polyline style="fill-rule:evenodd;"
points="50415,43616
49391,43616
49391,43065
50415,43065
50415,43616
" /> 
<polyline style="fill-rule:evenodd;"
points="42815,43616
41791,43616
41791,43065
42815,43065
42815,43616
" /> 
<polyline style="fill-rule:evenodd;"
points="72255,43603
71231,43603
71231,43052
72255,43052
72255,43603
" /> 
<polyline style="fill-rule:evenodd;"
points="86655,43268
85631,43268
85631,42717
86655,42717
86655,43268
" /> 
<polyline style="fill-rule:evenodd;"
points="79455,43216
78431,43216
78431,42665
79455,42665
79455,43216
" /> 
<polyline style="fill-rule:evenodd;"
points="65179,40585
63959,40585
63959,40112
65179,40112
65179,40585
" /> 
<polyline style="fill-rule:evenodd;"
points="60927,40585
59707,40585
59707,40112
60927,40112
60927,40585
" /> 
<polyline style="fill-rule:evenodd;"
points="82534,38949
82661,38987
82777,39049
82879,39133
82962,39235
83025,39351
83063,39477
83076,39608
83063,39740
83025,39866
82962,39982
82879,40084
82777,40168
82661,40230
82534,40268
82436,40278
82370,40278
82272,40268
82146,40230
82030,40168
81928,40084
81844,39982
81782,39866
81744,39740
81731,39608
81744,39477
81782,39351
81844,39235
81928,39133
82030,39049
82146,38987
82272,38949
82370,38939
82436,38939
82534,38949
" /> 
<polyline style="fill-rule:evenodd;"
points="80534,38949
80661,38987
80777,39049
80879,39133
80962,39235
81025,39351
81063,39477
81076,39608
81063,39740
81025,39866
80962,39982
80879,40084
80777,40168
80661,40230
80534,40268
80436,40278
80370,40278
80272,40268
80146,40230
80030,40168
79928,40084
79844,39982
79782,39866
79744,39740
79731,39608
79744,39477
79782,39351
79844,39235
79928,39133
80030,39049
80146,38987
80272,38949
80370,38939
80436,38939
80534,38949
" /> 
<polyline style="fill-rule:evenodd;"
points="79073,40278
77734,40278
77734,38939
79073,38939
79073,40278
" /> 
<polyline style="fill-rule:evenodd;"
points="84534,38949
84661,38987
84777,39049
84879,39133
84962,39235
85025,39351
85063,39477
85076,39608
85063,39740
85025,39866
84962,39982
84879,40084
84777,40168
84661,40230
84534,40268
84436,40278
84370,40278
84272,40268
84146,40230
84030,40168
83928,40084
83844,39982
83782,39866
83744,39740
83731,39608
83744,39477
83782,39351
83844,39235
83928,39133
84030,39049
84146,38987
84272,38949
84370,38939
84436,38939
84534,38949
" /> 
<polyline style="fill-rule:evenodd;"
points="86534,38949
86661,38987
86777,39049
86879,39133
86962,39235
87025,39351
87063,39477
87076,39608
87063,39740
87025,39866
86962,39982
86879,40084
86777,40168
86661,40230
86534,40268
86436,40278
86370,40278
86272,40268
86146,40230
86030,40168
85928,40084
85844,39982
85782,39866
85744,39740
85731,39608
85744,39477
85782,39351
85844,39235
85928,39133
86030,39049
86146,38987
86272,38949
86370,38939
86436,38939
86534,38949
" /> 
<polyline style="fill-rule:evenodd;"
points="71313,40258
69974,40258
69974,38919
71313,38919
71313,40258
" /> 
<polyline style="fill-rule:evenodd;"
points="72774,38929
72901,38967
73017,39029
73119,39113
73202,39215
73265,39331
73303,39457
73316,39588
73303,39720
73265,39846
73202,39962
73119,40064
73017,40148
72901,40210
72774,40248
72676,40258
72610,40258
72512,40248
72386,40210
72270,40148
72168,40064
72084,39962
72022,39846
71984,39720
71971,39588
71984,39457
72022,39331
72084,39215
72168,39113
72270,39029
72386,38967
72512,38929
72610,38919
72676,38919
72774,38929
" /> 
<polyline style="fill-rule:evenodd;"
points="74774,38929
74901,38967
75017,39029
75119,39113
75202,39215
75265,39331
75303,39457
75316,39588
75303,39720
75265,39846
75202,39962
75119,40064
75017,40148
74901,40210
74774,40248
74676,40258
74610,40258
74512,40248
74386,40210
74270,40148
74168,40064
74084,39962
74022,39846
73984,39720
73971,39588
73984,39457
74022,39331
74084,39215
74168,39113
74270,39029
74386,38967
74512,38929
74610,38919
74676,38919
74774,38929
" /> 
<polyline style="fill-rule:evenodd;"
points="56212,37271
56288,37286
56503,37375
56694,37503
56696,37505
56861,37669
56861,37669
56990,37863
57079,38078
57124,38306
57124,38539
57079,38767
56990,38982
56902,39113
56861,39175
56696,39340
56696,39340
56503,39469
56288,39558
56212,39573
56060,39603
55827,39603
55675,39573
55599,39558
55384,39469
55190,39340
55190,39340
55026,39175
54984,39113
54897,38982
54808,38767
54762,38539
54762,38306
54808,38078
54897,37863
55026,37669
55026,37669
55190,37505
55193,37503
55384,37375
55599,37286
55675,37271
55827,37241
56060,37241
56212,37271
" /> 
<polyline style="fill-rule:evenodd;"
points="60927,39585
59707,39585
59707,39112
60927,39112
60927,39585
" /> 
<polyline style="fill-rule:evenodd;"
points="65179,39585
63959,39585
63959,39112
65179,39112
65179,39585
" /> 
<polyline style="fill-rule:evenodd;"
points="60927,38585
59707,38585
59707,38112
60927,38112
60927,38585
" /> 
<polyline style="fill-rule:evenodd;"
points="65179,38585
63959,38585
63959,38112
65179,38112
65179,38585
" /> 
<polyline style="fill-rule:evenodd;"
points="44948,37792
43924,37792
43924,36571
44948,36571
44948,37792
" /> 
<polyline style="fill-rule:evenodd;"
points="41404,37792
40381,37792
40381,36571
41404,36571
41404,37792
" /> 
<polyline style="fill-rule:evenodd;"
points="65179,37585
63959,37585
63959,37112
65179,37112
65179,37585
" /> 
<polyline style="fill-rule:evenodd;"
points="60927,37585
59707,37585
59707,37112
60927,37112
60927,37585
" /> 
<polyline style="fill-rule:evenodd;"
points="85405,36338
85407,36357
85413,36376
85422,36393
85434,36408
85449,36420
85466,36429
85485,36434
85504,36436
85720,36436
85720,37381
84618,37381
84618,36377
84616,36358
84611,36340
84601,36323
84589,36308
84574,36295
84557,36286
84539,36281
84520,36279
84146,36279
84146,35728
85405,35728
85405,36338
" /> 
<polyline style="fill-rule:evenodd;"
points="93594,37381
91862,37381
91862,36436
93594,36436
93594,37381
" /> 
<polyline style="fill-rule:evenodd;"
points="82955,36952
81931,36952
81931,36401
82955,36401
82955,36952
" /> 
<polyline style="fill-rule:evenodd;"
points="80955,36952
79931,36952
79931,36401
80955,36401
80955,36952
" /> 
<polyline style="fill-rule:evenodd;"
points="78955,36952
77931,36952
77931,36401
78955,36401
78955,36952
" /> 
<polyline style="fill-rule:evenodd;"
points="67726,35675
67030,36371
66474,35815
67170,35119
67726,35675
" /> 
<polyline style="fill-rule:evenodd;"
points="63167,36200
62616,36200
62616,35177
63167,35177
63167,36200
" /> 
<polyline style="fill-rule:evenodd;"
points="61671,36200
61120,36200
61120,35177
61671,35177
61671,36200
" /> 
<polyline style="fill-rule:evenodd;"
points="69308,34736
68418,35627
68111,35320
69002,34430
69308,34736
" /> 
<polyline style="fill-rule:evenodd;"
points="70923,35320
70617,35627
69726,34736
70032,34430
70923,35320
" /> 
<polyline style="fill-rule:evenodd;"
points="82955,35456
81931,35456
81931,34905
82955,34905
82955,35456
" /> 
<polyline style="fill-rule:evenodd;"
points="80955,35456
79931,35456
79931,34905
80955,34905
80955,35456
" /> 
<polyline style="fill-rule:evenodd;"
points="78955,35456
77931,35456
77931,34905
78955,34905
78955,35456
" /> 
<polyline style="fill-rule:evenodd;"
points="85405,35413
84146,35413
84146,34862
85405,34862
85405,35413
" /> 
<polyline style="fill-rule:evenodd;"
points="66613,34562
65917,35258
65360,34701
66056,34005
66613,34562
" /> 
<polyline style="fill-rule:evenodd;"
points="68863,34290
67972,35181
67666,34875
68557,33984
68863,34290
" /> 
<polyline style="fill-rule:evenodd;"
points="71369,34875
71062,35181
70171,34290
70478,33984
71369,34875
" /> 
<polyline style="fill-rule:evenodd;"
points="36872,35106
35494,35106
35494,33728
36872,33728
36872,35106
" /> 
<polyline style="fill-rule:evenodd;"
points="68418,33845
67527,34736
66775,33984
67666,33093
68418,33845
" /> 
<polyline style="fill-rule:evenodd;"
points="72259,33984
71508,34736
70617,33845
71369,33093
72259,33984
" /> 
<polyline style="fill-rule:evenodd;"
points="54779,34679
54307,34679
54307,33498
54779,33498
54779,34679
" /> 
<polyline style="fill-rule:evenodd;"
points="56779,34679
56307,34679
56307,33498
56779,33498
56779,34679
" /> 
<polyline style="fill-rule:evenodd;"
points="57779,34679
57307,34679
57307,33498
57779,33498
57779,34679
" /> 
<polyline style="fill-rule:evenodd;"
points="58779,34679
58307,34679
58307,33498
58779,33498
58779,34679
" /> 
<polyline style="fill-rule:evenodd;"
points="59779,34679
59307,34679
59307,33498
59779,33498
59779,34679
" /> 
<polyline style="fill-rule:evenodd;"
points="55779,34679
55307,34679
55307,33498
55779,33498
55779,34679
" /> 
<polyline style="fill-rule:evenodd;"
points="53779,34679
53307,34679
53307,33498
53779,33498
53779,34679
" /> 
<polyline style="fill-rule:evenodd;"
points="52779,34679
52307,34679
52307,33498
52779,33498
52779,34679
" /> 
<polyline style="fill-rule:evenodd;"
points="85405,34547
84146,34547
84146,33995
85405,33995
85405,34547
" /> 
<polyline style="fill-rule:evenodd;"
points="78935,34322
77951,34322
77951,33535
78935,33535
78935,34322
" /> 
<polyline style="fill-rule:evenodd;"
points="82935,34309
81951,34309
81951,33522
82935,33522
82935,34309
" /> 
<polyline style="fill-rule:evenodd;"
points="80935,34309
79951,34309
79951,33522
80935,33522
80935,34309
" /> 
<polyline style="fill-rule:evenodd;"
points="73150,33093
72399,33845
71508,32954
72259,32202
73150,33093
" /> 
<polyline style="fill-rule:evenodd;"
points="67527,32954
66636,33845
65884,33093
66775,32202
67527,32954
" /> 
<polyline style="fill-rule:evenodd;"
points="85405,33680
84146,33680
84146,33129
85405,33129
85405,33680
" /> 
<polyline style="fill-rule:evenodd;"
points="36384,31786
36510,31838
36622,31913
36718,32009
36794,32122
36846,32247
36872,32380
36872,32516
36846,32649
36794,32775
36718,32888
36622,32983
36510,33059
36384,33111
36251,33137
36115,33137
35982,33111
35857,33059
35744,32983
35648,32888
35573,32775
35521,32649
35494,32516
35494,32380
35521,32247
35573,32122
35648,32009
35744,31913
35857,31838
35982,31786
36115,31759
36251,31759
36384,31786
" /> 
<polyline style="fill-rule:evenodd;"
points="66636,32063
65745,32954
65439,32648
66330,31757
66636,32063
" /> 
<polyline style="fill-rule:evenodd;"
points="73596,32648
73289,32954
72399,32063
72705,31757
73596,32648
" /> 
<polyline style="fill-rule:evenodd;"
points="85405,32814
84146,32814
84146,32263
85405,32263
85405,32814
" /> 
<polyline style="fill-rule:evenodd;"
points="78935,32747
77951,32747
77951,31960
78935,31960
78935,32747
" /> 
<polyline style="fill-rule:evenodd;"
points="82935,32735
81951,32735
81951,31947
82935,31947
82935,32735
" /> 
<polyline style="fill-rule:evenodd;"
points="80935,32735
79951,32735
79951,31947
80935,31947
80935,32735
" /> 
<polyline style="fill-rule:evenodd;"
points="63006,32698
62376,32698
62376,31989
63006,31989
63006,32698
" /> 
<polyline style="fill-rule:evenodd;"
points="61510,32698
60880,32698
60880,31989
61510,31989
61510,32698
" /> 
<polyline style="fill-rule:evenodd;"
points="66190,31618
65300,32509
64993,32202
65884,31312
66190,31618
" /> 
<polyline style="fill-rule:evenodd;"
points="74041,32202
73735,32509
72844,31618
73150,31312
74041,32202
" /> 
<polyline style="fill-rule:evenodd;"
points="85405,31948
84146,31948
84146,31397
85405,31397
85405,31948
" /> 
<polyline style="fill-rule:evenodd;"
points="28312,30622
28416,30653
28511,30705
28595,30773
28664,30857
28715,30953
28747,31057
28757,31165
28747,31273
28715,31377
28664,31473
28595,31557
28511,31626
28416,31677
28312,31708
28231,31716
27074,31716
26993,31708
26889,31677
26794,31626
26710,31557
26641,31473
26590,31377
26558,31273
26547,31165
26558,31057
26590,30953
26641,30857
26710,30773
26794,30705
26889,30653
26993,30622
27074,30614
28231,30614
28312,30622
" /> 
<polyline style="fill-rule:evenodd;"
points="41404,31532
40381,31532
40381,30312
41404,30312
41404,31532
" /> 
<polyline style="fill-rule:evenodd;"
points="44948,31532
43924,31532
43924,30312
44948,30312
44948,31532
" /> 
<polyline style="fill-rule:evenodd;"
points="62258,31123
61628,31123
61628,30415
62258,30415
62258,31123
" /> 
<polyline style="fill-rule:evenodd;"
points="85405,31082
84146,31082
84146,30531
85405,30531
85405,31082
" /> 
<polyline style="fill-rule:evenodd;"
points="74041,30003
73150,30894
72844,30588
73735,29697
74041,30003
" /> 
<polyline style="fill-rule:evenodd;"
points="66190,30588
65884,30894
64993,30003
65300,29697
66190,30588
" /> 
<polyline style="fill-rule:evenodd;"
points="81907,30520
81356,30520
81356,29497
81907,29497
81907,30520
" /> 
<polyline style="fill-rule:evenodd;"
points="80411,30520
79860,30520
79860,29497
80411,29497
80411,30520
" /> 
<polyline style="fill-rule:evenodd;"
points="73596,29558
72705,30449
72399,30142
73289,29251
73596,29558
" /> 
<polyline style="fill-rule:evenodd;"
points="66636,30142
66330,30449
65439,29558
65745,29251
66636,30142
" /> 
<polyline style="fill-rule:evenodd;"
points="19752,30397
18335,30397
18335,28980
19752,28980
19752,30397
" /> 
<polyline style="fill-rule:evenodd;"
points="21250,29007
21379,29060
21495,29138
21594,29237
21671,29353
21725,29482
21752,29619
21752,29758
21725,29895
21671,30024
21594,30140
21495,30239
21379,30316
21250,30370
21113,30397
20973,30397
20837,30370
20708,30316
20591,30239
20493,30140
20415,30024
20362,29895
20335,29758
20335,29619
20362,29482
20415,29353
20493,29237
20591,29138
20708,29060
20837,29007
20973,28980
21113,28980
21250,29007
" /> 
<polyline style="fill-rule:evenodd;"
points="23250,29007
23379,29060
23495,29138
23594,29237
23671,29353
23725,29482
23752,29619
23752,29758
23725,29895
23671,30024
23594,30140
23495,30239
23379,30316
23250,30370
23113,30397
22973,30397
22837,30370
22708,30316
22591,30239
22493,30140
22415,30024
22362,29895
22335,29758
22335,29619
22362,29482
22415,29353
22493,29237
22591,29138
22708,29060
22837,29007
22973,28980
23113,28980
23250,29007
" /> 
<polyline style="fill-rule:evenodd;"
points="85405,30216
84146,30216
84146,29665
85405,29665
85405,30216
" /> 
<polyline style="fill-rule:evenodd;"
points="67527,29251
66775,30003
65884,29112
66636,28361
67527,29251
" /> 
<polyline style="fill-rule:evenodd;"
points="73150,29112
72259,30003
71508,29251
72399,28361
73150,29112
" /> 
<polyline style="fill-rule:evenodd;"
points="25320,27787
25423,27819
25519,27870
25603,27939
25672,28023
25723,28118
25755,28222
25763,28303
25763,29460
25755,29541
25723,29645
25672,29740
25603,29824
25519,29893
25423,29944
25320,29976
25211,29987
25103,29976
25000,29944
24904,29893
24820,29824
24751,29740
24700,29645
24668,29541
24660,29460
24660,28303
24668,28222
24700,28118
24751,28023
24820,27939
24904,27870
25000,27819
25103,27787
25211,27777
25320,27787
" /> 
<polyline style="fill-rule:evenodd;"
points="31513,29882
30489,29882
30489,29331
31513,29331
31513,29882
" /> 
<polyline style="fill-rule:evenodd;"
points="85405,29350
84146,29350
84146,28799
85405,28799
85405,29350
" /> 
<polyline style="fill-rule:evenodd;"
points="76029,28450
75305,29174
74915,28784
75639,28060
76029,28450
" /> 
<polyline style="fill-rule:evenodd;"
points="68418,28361
67666,29112
66775,28221
67527,27470
68418,28361
" /> 
<polyline style="fill-rule:evenodd;"
points="72259,28221
71369,29112
70617,28361
71508,27470
72259,28221
" /> 
<polyline style="fill-rule:evenodd;"
points="79283,29028
78260,29028
78260,27808
79283,27808
79283,29028
" /> 
<polyline style="fill-rule:evenodd;"
points="82827,29028
81803,29028
81803,27808
82827,27808
82827,29028
" /> 
<polyline style="fill-rule:evenodd;"
points="61687,28960
61136,28960
61136,27937
61687,27937
61687,28960
" /> 
<polyline style="fill-rule:evenodd;"
points="63183,28960
62632,28960
62632,27937
63183,27937
63183,28960
" /> 
<polyline style="fill-rule:evenodd;"
points="27296,27214
27418,27265
27528,27338
27621,27431
27694,27541
27745,27663
27771,27792
27771,27924
27745,28053
27694,28175
27621,28285
27528,28378
27418,28451
27296,28501
27167,28527
27035,28527
26906,28501
26784,28451
26675,28378
26581,28285
26508,28175
26458,28053
26432,27924
26432,27792
26458,27663
26508,27541
26581,27431
26675,27338
26784,27265
26906,27214
27035,27189
27167,27189
27296,27214
" /> 
<polyline style="fill-rule:evenodd;"
points="31513,28386
30489,28386
30489,27835
31513,27835
31513,28386
" /> 
<polyline style="fill-rule:evenodd;"
points="71369,27331
70478,28221
70171,27915
71062,27024
71369,27331
" /> 
<polyline style="fill-rule:evenodd;"
points="68863,27915
68557,28221
67666,27331
67972,27024
68863,27915
" /> 
<polyline style="fill-rule:evenodd;"
points="74971,27392
74247,28116
73858,27726
74581,27003
74971,27392
" /> 
<polyline style="fill-rule:evenodd;"
points="69308,27470
69002,27776
68111,26885
68418,26579
69308,27470
" /> 
<polyline style="fill-rule:evenodd;"
points="70923,26885
70032,27776
69726,27470
70617,26579
70923,26885
" /> 
<polyline style="fill-rule:evenodd;"
points="59779,27356
59307,27356
59307,26175
59779,26175
59779,27356
" /> 
<polyline style="fill-rule:evenodd;"
points="58779,27356
58307,27356
58307,26175
58779,26175
58779,27356
" /> 
<polyline style="fill-rule:evenodd;"
points="57779,27356
57307,27356
57307,26175
57779,26175
57779,27356
" /> 
<polyline style="fill-rule:evenodd;"
points="56779,27356
56307,27356
56307,26175
56779,26175
56779,27356
" /> 
<polyline style="fill-rule:evenodd;"
points="55779,27356
55307,27356
55307,26175
55779,26175
55779,27356
" /> 
<polyline style="fill-rule:evenodd;"
points="54779,27356
54307,27356
54307,26175
54779,26175
54779,27356
" /> 
<polyline style="fill-rule:evenodd;"
points="53779,27356
53307,27356
53307,26175
53779,26175
53779,27356
" /> 
<polyline style="fill-rule:evenodd;"
points="52779,27356
52307,27356
52307,26175
52779,26175
52779,27356
" /> 
<polyline style="fill-rule:evenodd;"
points="23196,27302
22251,27302
22251,26593
23196,26593
23196,27302
" /> 
<polyline style="fill-rule:evenodd;"
points="21336,27302
20391,27302
20391,26593
21336,26593
21336,27302
" /> 
<polyline style="fill-rule:evenodd;"
points="63167,27200
62616,27200
62616,26177
63167,26177
63167,27200
" /> 
<polyline style="fill-rule:evenodd;"
points="61671,27200
61120,27200
61120,26177
61671,26177
61671,27200
" /> 
<polyline style="fill-rule:evenodd;"
points="72627,26589
72070,27146
71374,26450
71931,25893
72627,26589
" /> 
<polyline style="fill-rule:evenodd;"
points="49658,27030
49028,27030
49028,26321
49658,26321
49658,27030
" /> 
<polyline style="fill-rule:evenodd;"
points="43420,26895
42476,26895
42476,25163
43420,25163
43420,26895
" /> 
<polyline style="fill-rule:evenodd;"
points="47011,26895
46066,26895
46066,25163
47011,25163
47011,26895
" /> 
<polyline style="fill-rule:evenodd;"
points="19595,26620
18571,26620
18571,26069
19595,26069
19595,26620
" /> 
<polyline style="fill-rule:evenodd;"
points="85720,26043
84618,26043
84618,24783
85720,24783
85720,26043
" /> 
<polyline style="fill-rule:evenodd;"
points="73740,25476
73184,26032
72488,25336
73044,24780
73740,25476
" /> 
<polyline style="fill-rule:evenodd;"
points="71487,25369
70930,25926
70234,25230
70791,24673
71487,25369
" /> 
<polyline style="fill-rule:evenodd;"
points="41630,25918
39268,25918
39268,24658
41630,24658
41630,25918
" /> 
<polyline style="fill-rule:evenodd;"
points="38165,25918
35803,25918
35803,24658
38165,24658
38165,25918
" /> 
<polyline style="fill-rule:evenodd;"
points="50406,25455
49776,25455
49776,24747
50406,24747
50406,25455
" /> 
<polyline style="fill-rule:evenodd;"
points="48910,25455
48280,25455
48280,24747
48910,24747
48910,25455
" /> 
<polyline style="fill-rule:evenodd;"
points="75824,24637
75156,25305
74153,24303
74822,23635
75824,24637
" /> 
<polyline style="fill-rule:evenodd;"
points="93594,25177
91862,25177
91862,24232
93594,24232
93594,25177
" /> 
<polyline style="fill-rule:evenodd;"
points="19595,25124
18571,25124
18571,24573
19595,24573
19595,25124
" /> 
<polyline style="fill-rule:evenodd;"
points="72600,24256
72044,24812
71348,24116
71904,23560
72600,24256
" /> 
<polyline style="fill-rule:evenodd;"
points="21336,24703
20391,24703
20391,23995
21336,23995
21336,24703
" /> 
<polyline style="fill-rule:evenodd;"
points="23196,24703
22251,24703
22251,23995
23196,23995
23196,24703
" /> 
<polyline style="fill-rule:evenodd;"
points="77160,23301
76492,23969
75490,22967
76158,22299
77160,23301
" /> 
<polyline style="fill-rule:evenodd;"
points="29084,22032
29084,22032
29084,22032
29174,22059
29257,22103
29329,22163
29360,22200
29388,22235
29422,22299
29433,22318
29445,22357
29460,22407
29467,22477
29467,23475
29460,23545
29433,23635
29432,23635
29388,23717
29329,23790
29257,23849
29174,23893
29084,23920
29084,23920
29084,23920
28991,23930
28898,23920
28898,23920
28898,23920
28808,23893
28726,23849
28653,23790
28594,23717
28550,23635
28549,23635
28522,23545
28515,23475
28515,22477
28522,22407
28522,22407
28549,22318
28594,22235
28653,22163
28693,22130
28726,22103
28808,22059
28808,22059
28898,22032
28898,22032
28898,22032
28991,22023
29084,22032
" /> 
<polyline style="fill-rule:evenodd;"
points="33445,22506
33570,22558
33683,22633
33779,22729
33855,22842
33907,22968
33933,23101
33933,23236
33907,23370
33855,23495
33779,23608
33683,23704
33570,23779
33445,23831
33312,23858
33176,23858
33043,23831
32918,23779
32805,23704
32709,23608
32633,23495
32582,23370
32555,23236
32555,23101
32582,22968
32633,22842
32709,22729
32805,22633
32918,22558
33043,22506
33176,22480
33312,22480
33445,22506
" /> 
<polyline style="fill-rule:evenodd;"
points="48950,23780
48162,23780
48162,22796
48950,22796
48950,23780
" /> 
<polyline style="fill-rule:evenodd;"
points="50524,23780
49737,23780
49737,22796
50524,22796
50524,23780
" /> 
<polyline style="fill-rule:evenodd;"
points="87055,23712
86031,23712
86031,23161
87055,23161
87055,23712
" /> 
<polyline style="fill-rule:evenodd;"
points="47027,23588
42460,23588
42460,18549
47027,18549
47027,23588
" /> 
<polyline style="fill-rule:evenodd;"
points="57124,23469
54762,23469
54762,21107
57124,21107
57124,23469
" /> 
<polyline style="fill-rule:evenodd;"
points="66094,21829
66221,21867
66337,21929
66439,22013
66522,22115
66585,22231
66623,22357
66636,22488
66623,22620
66585,22746
66522,22862
66439,22964
66337,23048
66221,23110
66094,23148
65996,23158
65930,23158
65832,23148
65706,23110
65590,23048
65488,22964
65404,22862
65342,22746
65304,22620
65291,22488
65304,22357
65342,22231
65404,22115
65488,22013
65590,21929
65706,21867
65832,21829
65930,21819
65996,21819
66094,21829
" /> 
<polyline style="fill-rule:evenodd;"
points="64633,23158
63294,23158
63294,21819
64633,21819
64633,23158
" /> 
<polyline style="fill-rule:evenodd;"
points="68094,21829
68221,21867
68337,21929
68439,22013
68522,22115
68585,22231
68623,22357
68636,22488
68623,22620
68585,22746
68522,22862
68439,22964
68337,23048
68221,23110
68094,23148
67996,23158
67930,23158
67832,23148
67706,23110
67590,23048
67488,22964
67404,22862
67342,22746
67304,22620
67291,22488
67304,22357
67342,22231
67404,22115
67488,22013
67590,21929
67706,21867
67832,21829
67930,21819
67996,21819
68094,21829
" /> 
<polyline style="fill-rule:evenodd;"
points="73597,22410
72929,23078
71926,22076
72595,21408
73597,22410
" /> 
<polyline style="fill-rule:evenodd;"
points="93923,18884
94278,19031
94310,19044
94562,19213
94658,19277
94955,19573
94955,19573
95174,19902
95187,19921
95348,20308
95429,20719
95429,21138
95348,21548
95187,21935
95187,21935
95064,22120
94955,22284
94658,22580
94658,22580
94310,22812
94310,22812
94310,22812
93923,22973
93513,23054
93094,23054
92683,22973
92296,22812
92296,22812
92296,22812
91948,22580
91948,22580
91652,22284
91543,22120
91419,21935
91419,21935
91259,21548
91177,21138
91177,20719
91259,20308
91419,19921
91432,19902
91652,19573
91652,19573
91948,19277
92044,19213
92296,19044
92328,19031
92683,18884
93094,18802
93513,18802
93923,18884
" /> 
<polyline style="fill-rule:evenodd;"
points="27296,21703
27418,21753
27528,21826
27621,21919
27694,22029
27745,22151
27771,22280
27771,22412
27745,22541
27694,22663
27621,22773
27528,22866
27418,22939
27296,22990
27167,23015
27035,23015
26906,22990
26784,22939
26675,22866
26581,22773
26508,22663
26458,22541
26432,22412
26432,22280
26458,22151
26508,22029
26581,21919
26675,21826
26784,21753
26906,21703
27035,21677
27167,21677
27296,21703
" /> 
<polyline style="fill-rule:evenodd;"
points="21203,18784
21558,18931
21590,18944
21720,19031
21938,19177
22235,19473
22235,19473
22466,19820
22467,19821
22628,20208
22709,20619
22709,21038
22628,21448
22474,21819
22467,21835
22287,22105
22235,22184
21938,22480
21938,22480
21590,22712
21590,22712
21590,22712
21203,22873
20793,22954
20374,22954
19963,22873
19576,22712
19576,22712
19576,22712
19228,22480
19228,22480
18932,22184
18879,22105
18699,21835
18692,21819
18539,21448
18457,21038
18457,20619
18539,20208
18699,19821
18700,19820
18932,19473
18932,19473
19228,19177
19446,19031
19576,18944
19608,18931
19963,18784
20374,18702
20793,18702
21203,18784
" /> 
<polyline style="fill-rule:evenodd;"
points="82827,22769
81803,22769
81803,21548
82827,21548
82827,22769
" /> 
<polyline style="fill-rule:evenodd;"
points="79283,22769
78260,22769
78260,21548
79283,21548
79283,22769
" /> 
<polyline style="fill-rule:evenodd;"
points="25305,20536
25305,20536
25305,20536
25394,20563
25477,20607
25549,20666
25582,20706
25609,20739
25609,20739
25653,20822
25680,20911
25680,20911
25687,20981
25687,21979
25680,22049
25680,22049
25680,22049
25653,22138
25609,22221
25549,22293
25477,22353
25394,22397
25305,22424
25305,22424
25305,22424
25211,22433
25118,22424
25118,22424
25118,22424
25029,22397
24946,22353
24874,22293
24814,22221
24770,22138
24743,22049
24743,22049
24743,22049
24736,21979
24736,20981
24743,20911
24743,20911
24770,20822
24814,20739
24874,20666
24921,20628
24946,20607
25029,20563
25029,20563
25118,20536
25118,20536
25118,20536
25211,20526
25305,20536
" /> 
<polyline style="fill-rule:evenodd;"
points="87055,22216
86031,22216
86031,21665
87055,21665
87055,22216
" /> 
<polyline style="fill-rule:evenodd;"
points="50524,22180
49737,22180
49737,21196
50524,21196
50524,22180
" /> 
<polyline style="fill-rule:evenodd;"
points="48950,22180
48162,22180
48162,21196
48950,21196
48950,22180
" /> 
<polyline style="fill-rule:evenodd;"
points="33933,21889
32555,21889
32555,20511
33933,20511
33933,21889
" /> 
<polyline style="fill-rule:evenodd;"
points="74933,21074
74265,21742
73263,20740
73931,20071
74933,21074
" /> 
<polyline style="fill-rule:evenodd;"
points="29084,19827
29084,19827
29084,19827
29174,19854
29257,19898
29329,19958
29347,19980
29388,20030
29428,20104
29433,20113
29443,20148
29460,20202
29467,20272
29467,21270
29460,21340
29460,21340
29460,21340
29433,21430
29388,21512
29329,21585
29257,21644
29174,21688
29084,21716
29084,21716
29084,21716
28991,21725
28898,21716
28898,21716
28898,21716
28808,21688
28726,21644
28653,21585
28594,21512
28549,21430
28522,21340
28522,21340
28522,21340
28515,21270
28515,20272
28522,20202
28522,20202
28549,20113
28594,20030
28653,19958
28698,19921
28726,19898
28808,19854
28808,19854
28898,19827
28898,19827
28898,19827
28991,19818
29084,19827
" /> 
<polyline style="fill-rule:evenodd;"
points="41630,21240
39268,21240
39268,19980
41630,19980
41630,21240
" /> 
<polyline style="fill-rule:evenodd;"
points="38165,21240
35803,21240
35803,19980
38165,19980
38165,21240
" /> 
<polyline style="fill-rule:evenodd;"
points="64094,19829
64221,19867
64337,19929
64439,20013
64522,20115
64585,20231
64623,20357
64636,20488
64623,20620
64585,20746
64522,20862
64439,20964
64337,21048
64221,21110
64094,21148
63996,21158
63930,21158
63832,21148
63706,21110
63590,21048
63488,20964
63404,20862
63342,20746
63304,20620
63291,20488
63304,20357
63342,20231
63404,20115
63488,20013
63590,19929
63706,19867
63832,19829
63930,19819
63996,19819
64094,19829
" /> 
<polyline style="fill-rule:evenodd;"
points="66094,19829
66221,19867
66337,19929
66439,20013
66522,20115
66585,20231
66623,20357
66636,20488
66623,20620
66585,20746
66522,20862
66439,20964
66337,21048
66221,21110
66094,21148
65996,21158
65930,21158
65832,21148
65706,21110
65590,21048
65488,20964
65404,20862
65342,20746
65304,20620
65291,20488
65304,20357
65342,20231
65404,20115
65488,20013
65590,19929
65706,19867
65832,19829
65930,19819
65996,19819
66094,19829
" /> 
<polyline style="fill-rule:evenodd;"
points="68094,19829
68221,19867
68337,19929
68439,20013
68522,20115
68585,20231
68623,20357
68636,20488
68623,20620
68585,20746
68522,20862
68439,20964
68337,21048
68221,21110
68094,21148
67996,21158
67930,21158
67832,21148
67706,21110
67590,21048
67488,20964
67404,20862
67342,20746
67304,20620
67291,20488
67304,20357
67342,20231
67404,20115
67488,20013
67590,19929
67706,19867
67832,19829
67930,19819
67996,19819
68094,19829
" /> 
<polyline style="fill-rule:evenodd;"
points="50524,20580
49737,20580
49737,19596
50524,19596
50524,20580
" /> 
<polyline style="fill-rule:evenodd;"
points="48950,20580
48162,20580
48162,19596
48950,19596
48950,20580
" /> 
<polyline style="fill-rule:evenodd;"
points="84474,19029
84601,19067
84717,19129
84819,19213
84902,19315
84965,19431
85003,19557
85016,19688
85003,19820
84965,19946
84902,20062
84819,20164
84717,20248
84601,20310
84474,20348
84376,20358
84310,20358
84212,20348
84086,20310
83970,20248
83868,20164
83784,20062
83722,19946
83684,19820
83671,19688
83684,19557
83722,19431
83784,19315
83868,19213
83970,19129
84086,19067
84212,19029
84310,19019
84376,19019
84474,19029
" /> 
<polyline style="fill-rule:evenodd;"
points="76474,19029
76601,19067
76717,19129
76819,19213
76902,19315
76965,19431
77003,19557
77016,19688
77003,19820
76965,19946
76902,20062
76819,20164
76717,20248
76601,20310
76474,20348
76376,20358
76310,20358
76212,20348
76086,20310
75970,20248
75868,20164
75784,20062
75722,19946
75684,19820
75671,19688
75684,19557
75722,19431
75784,19315
75868,19213
75970,19129
76086,19067
76212,19029
76310,19019
76376,19019
76474,19029
" /> 
<polyline style="fill-rule:evenodd;"
points="78474,19029
78601,19067
78717,19129
78819,19213
78902,19315
78965,19431
79003,19557
79016,19688
79003,19820
78965,19946
78902,20062
78819,20164
78717,20248
78601,20310
78474,20348
78376,20358
78310,20358
78212,20348
78086,20310
77970,20248
77868,20164
77784,20062
77722,19946
77684,19820
77671,19688
77684,19557
77722,19431
77784,19315
77868,19213
77970,19129
78086,19067
78212,19029
78310,19019
78376,19019
78474,19029
" /> 
<polyline style="fill-rule:evenodd;"
points="80474,19029
80601,19067
80717,19129
80819,19213
80902,19315
80965,19431
81003,19557
81016,19688
81003,19820
80965,19946
80902,20062
80819,20164
80717,20248
80601,20310
80474,20348
80376,20358
80310,20358
80212,20348
80086,20310
79970,20248
79868,20164
79784,20062
79722,19946
79684,19820
79671,19688
79684,19557
79722,19431
79784,19315
79868,19213
79970,19129
80086,19067
80212,19029
80310,19019
80376,19019
80474,19029
" /> 
<polyline style="fill-rule:evenodd;"
points="82474,19029
82601,19067
82717,19129
82819,19213
82902,19315
82965,19431
83003,19557
83016,19688
83003,19820
82965,19946
82902,20062
82819,20164
82717,20248
82601,20310
82474,20348
82376,20358
82310,20358
82212,20348
82086,20310
81970,20248
81868,20164
81784,20062
81722,19946
81684,19820
81671,19688
81684,19557
81722,19431
81784,19315
81868,19213
81970,19129
82086,19067
82212,19029
82310,19019
82376,19019
82474,19029
" /> 
<polyline style="fill-rule:evenodd;"
points="87013,20358
85674,20358
85674,19019
87013,19019
87013,20358
" /> 
<polyline style="fill-rule:evenodd;"
points="24675,18331
24675,18331
24675,18331
24764,18358
24847,18402
24919,18462
24952,18502
24979,18534
25023,18617
25050,18706
25057,18776
25057,19774
25050,19844
25050,19844
25050,19844
25023,19934
24979,20016
24919,20089
24847,20148
24764,20192
24675,20220
24675,20220
24675,20220
24582,20229
24488,20220
24488,20220
24488,20220
24399,20192
24316,20148
24244,20089
24184,20016
24140,19934
24113,19844
24113,19844
24113,19844
24106,19774
24106,18776
24113,18706
24113,18706
24140,18617
24184,18534
24244,18462
24283,18429
24316,18402
24399,18358
24399,18358
24488,18331
24488,18331
24488,18331
24582,18322
24675,18331
" /> 
<polyline style="fill-rule:evenodd;"
points="32312,17600
32341,17605
32376,17620
32409,17642
32436,17669
32458,17701
32473,17737
32480,17775
32480,17814
32473,17852
32458,17888
32436,17920
32409,17947
32376,17969
32341,17984
32312,17989
32303,17991
32264,17991
32254,17989
32226,17984
32190,17969
32158,17947
32130,17920
32109,17888
32094,17852
32086,17814
32086,17775
32094,17737
32109,17701
32130,17669
32158,17642
32190,17620
32226,17605
32254,17600
32264,17598
32303,17598
32312,17600
" /> 
<polyline style="fill-rule:evenodd;"
points="32942,17600
32971,17605
33006,17620
33039,17642
33066,17669
33088,17701
33102,17737
33110,17775
33110,17814
33102,17852
33088,17888
33066,17920
33039,17947
33006,17969
32971,17984
32942,17989
32933,17991
32894,17991
32884,17989
32856,17984
32820,17969
32788,17947
32760,17920
32739,17888
32724,17852
32716,17814
32716,17775
32724,17737
32739,17701
32760,17669
32788,17642
32820,17620
32856,17605
32884,17600
32894,17598
32933,17598
32942,17600
" /> 
<polyline style="fill-rule:evenodd;"
points="31682,17600
31711,17605
31747,17620
31779,17642
31806,17669
31828,17701
31843,17737
31850,17775
31850,17814
31843,17852
31828,17888
31806,17920
31779,17947
31747,17969
31711,17984
31682,17989
31673,17991
31634,17991
31624,17989
31596,17984
31560,17969
31528,17947
31500,17920
31479,17888
31464,17852
31456,17814
31456,17775
31464,17737
31479,17701
31500,17669
31528,17642
31560,17620
31596,17605
31624,17600
31634,17598
31673,17598
31682,17600
" /> 
<polyline style="fill-rule:evenodd;"
points="57662,17600
57691,17605
57726,17620
57759,17642
57786,17669
57808,17701
57822,17737
57830,17775
57830,17814
57822,17852
57808,17888
57786,17920
57759,17947
57726,17969
57691,17984
57662,17989
57653,17991
57614,17991
57604,17989
57576,17984
57540,17969
57508,17947
57480,17920
57459,17888
57444,17852
57436,17814
57436,17775
57444,17737
57459,17701
57480,17669
57508,17642
57540,17620
57576,17605
57604,17600
57614,17598
57653,17598
57662,17600
" /> 
<polyline style="fill-rule:evenodd;"
points="56402,17600
56431,17605
56467,17620
56499,17642
56526,17669
56548,17701
56563,17737
56570,17775
56570,17814
56563,17852
56548,17888
56526,17920
56499,17947
56467,17969
56431,17984
56402,17989
56393,17991
56354,17991
56344,17989
56316,17984
56280,17969
56248,17947
56220,17920
56199,17888
56184,17852
56176,17814
56176,17775
56184,17737
56199,17701
56220,17669
56248,17642
56280,17620
56316,17605
56344,17600
56354,17598
56393,17598
56402,17600
" /> 
<polyline style="fill-rule:evenodd;"
points="57032,17600
57061,17605
57096,17620
57129,17642
57156,17669
57178,17701
57193,17737
57200,17775
57200,17814
57193,17852
57178,17888
57156,17920
57129,17947
57096,17969
57061,17984
57032,17989
57023,17991
56984,17991
56974,17989
56946,17984
56910,17969
56878,17947
56850,17920
56829,17888
56814,17852
56806,17814
56806,17775
56814,17737
56829,17701
56850,17669
56878,17642
56910,17620
56946,17605
56974,17600
56984,17598
57023,17598
57032,17600
" /> 
<polyline style="fill-rule:evenodd;"
points="88942,17560
88971,17565
89007,17580
89039,17602
89066,17629
89088,17661
89103,17697
89110,17735
89110,17774
89103,17812
89088,17848
89066,17880
89039,17907
89007,17929
88971,17944
88942,17949
88933,17951
88894,17951
88884,17949
88856,17944
88820,17929
88788,17907
88760,17880
88739,17848
88724,17812
88716,17774
88716,17735
88724,17697
88739,17661
88760,17629
88788,17602
88820,17580
88856,17565
88884,17560
88894,17558
88933,17558
88942,17560
" /> 
<polyline style="fill-rule:evenodd;"
points="90202,17560
90231,17565
90266,17580
90299,17602
90326,17629
90348,17661
90362,17697
90370,17735
90370,17774
90362,17812
90348,17848
90326,17880
90299,17907
90266,17929
90231,17944
90202,17949
90193,17951
90154,17951
90144,17949
90116,17944
90080,17929
90048,17907
90020,17880
89999,17848
89984,17812
89976,17774
89976,17735
89984,17697
89999,17661
90020,17629
90048,17602
90080,17580
90116,17565
90144,17560
90154,17558
90193,17558
90202,17560
" /> 
<polyline style="fill-rule:evenodd;"
points="89572,17560
89601,17565
89636,17580
89669,17602
89696,17629
89718,17661
89733,17697
89740,17735
89740,17774
89733,17812
89718,17848
89696,17880
89669,17907
89636,17929
89601,17944
89572,17949
89563,17951
89524,17951
89514,17949
89486,17944
89450,17929
89418,17907
89390,17880
89369,17848
89354,17812
89346,17774
89346,17735
89354,17697
89369,17661
89390,17629
89418,17602
89450,17580
89486,17565
89514,17560
89524,17558
89563,17558
89572,17560
" /> 
<polyline style="fill-rule:evenodd;"
points="57662,15867
57691,15873
57726,15888
57759,15909
57786,15937
57808,15969
57822,16005
57830,16043
57830,16082
57822,16120
57808,16155
57786,16188
57759,16215
57726,16237
57691,16251
57662,16257
57653,16259
57614,16259
57604,16257
57576,16251
57540,16237
57508,16215
57480,16188
57459,16155
57444,16120
57436,16082
57436,16043
57444,16005
57459,15969
57480,15937
57508,15909
57540,15888
57576,15873
57604,15867
57614,15865
57653,15865
57662,15867
" /> 
<polyline style="fill-rule:evenodd;"
points="57032,15867
57061,15873
57096,15888
57129,15909
57156,15937
57178,15969
57193,16005
57200,16043
57200,16082
57193,16120
57178,16155
57156,16188
57129,16215
57096,16237
57061,16251
57032,16257
57023,16259
56984,16259
56974,16257
56946,16251
56910,16237
56878,16215
56850,16188
56829,16155
56814,16120
56806,16082
56806,16043
56814,16005
56829,15969
56850,15937
56878,15909
56910,15888
56946,15873
56974,15867
56984,15865
57023,15865
57032,15867
" /> 
<polyline style="fill-rule:evenodd;"
points="56402,15867
56431,15873
56467,15888
56499,15909
56526,15937
56548,15969
56563,16005
56570,16043
56570,16082
56563,16120
56548,16155
56526,16188
56499,16215
56467,16237
56431,16251
56402,16257
56393,16259
56354,16259
56344,16257
56316,16251
56280,16237
56248,16215
56220,16188
56199,16155
56184,16120
56176,16082
56176,16043
56184,16005
56199,15969
56220,15937
56248,15909
56280,15888
56316,15873
56344,15867
56354,15865
56393,15865
56402,15867
" /> 
<polyline style="fill-rule:evenodd;"
points="32942,15867
32971,15873
33006,15888
33039,15909
33066,15937
33088,15969
33102,16005
33110,16043
33110,16082
33102,16120
33088,16155
33066,16188
33039,16215
33006,16237
32971,16251
32942,16257
32933,16259
32894,16259
32884,16257
32856,16251
32820,16237
32788,16215
32760,16188
32739,16155
32724,16120
32716,16082
32716,16043
32724,16005
32739,15969
32760,15937
32788,15909
32820,15888
32856,15873
32884,15867
32894,15865
32933,15865
32942,15867
" /> 
<polyline style="fill-rule:evenodd;"
points="32312,15867
32341,15873
32376,15888
32409,15909
32436,15937
32458,15969
32473,16005
32480,16043
32480,16082
32473,16120
32458,16155
32436,16188
32409,16215
32376,16237
32341,16251
32312,16257
32303,16259
32264,16259
32254,16257
32226,16251
32190,16237
32158,16215
32130,16188
32109,16155
32094,16120
32086,16082
32086,16043
32094,16005
32109,15969
32130,15937
32158,15909
32190,15888
32226,15873
32254,15867
32264,15865
32303,15865
32312,15867
" /> 
<polyline style="fill-rule:evenodd;"
points="31682,15867
31711,15873
31747,15888
31779,15909
31806,15937
31828,15969
31843,16005
31850,16043
31850,16082
31843,16120
31828,16155
31806,16188
31779,16215
31747,16237
31711,16251
31682,16257
31673,16259
31634,16259
31624,16257
31596,16251
31560,16237
31528,16215
31500,16188
31479,16155
31464,16120
31456,16082
31456,16043
31464,16005
31479,15969
31500,15937
31528,15909
31560,15888
31596,15873
31624,15867
31634,15865
31673,15865
31682,15867
" /> 
<polyline style="fill-rule:evenodd;"
points="90202,15827
90231,15833
90266,15848
90299,15869
90326,15897
90348,15929
90362,15965
90370,16003
90370,16042
90362,16080
90348,16115
90326,16148
90299,16175
90266,16197
90231,16211
90202,16217
90193,16219
90154,16219
90144,16217
90116,16211
90080,16197
90048,16175
90020,16148
89999,16115
89984,16080
89976,16042
89976,16003
89984,15965
89999,15929
90020,15897
90048,15869
90080,15848
90116,15833
90144,15827
90154,15825
90193,15825
90202,15827
" /> 
<polyline style="fill-rule:evenodd;"
points="89572,15827
89601,15833
89636,15848
89669,15869
89696,15897
89718,15929
89733,15965
89740,16003
89740,16042
89733,16080
89718,16115
89696,16148
89669,16175
89636,16197
89601,16211
89572,16217
89563,16219
89524,16219
89514,16217
89486,16211
89450,16197
89418,16175
89390,16148
89369,16115
89354,16080
89346,16042
89346,16003
89354,15965
89369,15929
89390,15897
89418,15869
89450,15848
89486,15833
89514,15827
89524,15825
89563,15825
89572,15827
" /> 
<polyline style="fill-rule:evenodd;"
points="88942,15827
88971,15833
89007,15848
89039,15869
89066,15897
89088,15929
89103,15965
89110,16003
89110,16042
89103,16080
89088,16115
89066,16148
89039,16175
89007,16197
88971,16211
88942,16217
88933,16219
88894,16219
88884,16217
88856,16211
88820,16197
88788,16175
88760,16148
88739,16115
88724,16080
88716,16042
88716,16003
88724,15965
88739,15929
88760,15897
88788,15869
88820,15848
88856,15833
88884,15827
88894,15825
88933,15825
88942,15827
" /> 
<polyline style="fill-rule:evenodd;"
points="82941,11986
83120,12060
83281,12168
83418,12305
83526,12466
83600,12645
83638,12835
83638,13029
83600,13220
83526,13399
83418,13560
83281,13697
83120,13805
82941,13879
82750,13917
82557,13917
82366,13879
82187,13805
82026,13697
81889,13560
81781,13399
81707,13220
81669,13029
81669,12835
81707,12645
81781,12466
81889,12305
82026,12168
82187,12060
82366,11986
82557,11948
82750,11948
82941,11986
" /> 
<polyline style="fill-rule:evenodd;"
points="27822,11986
28002,12060
28163,12168
28300,12305
28408,12466
28482,12645
28520,12835
28520,13029
28482,13220
28408,13399
28300,13560
28163,13697
28002,13805
27822,13879
27632,13917
27438,13917
27248,13879
27069,13805
26908,13697
26771,13560
26663,13399
26589,13220
26551,13029
26551,12835
26589,12645
26663,12466
26771,12305
26908,12168
27069,12060
27248,11986
27438,11948
27632,11948
27822,11986
" /> 
</g> 
</svg>
