<?xml version="1.0" standalone="no"?>
 <!DOCTYPE svg PUBLIC "-//W3C//DTD SVG 1.1//EN" 
 "http://www.w3.org/Graphics/SVG/1.1/DTD/svg11.dtd"> 
<svg xmlns="http://www.w3.org/2000/svg" version="1.1" 
    width="29.7002cm" height="21.0007cm" viewBox="0 0 116930 82680 ">
<title>SVG Picture created as ThermocoupleLogger-B_SilkS.svg date 2019/03/14 17:10:03 </title>
  <desc>Picture generated by PCBNEW </desc>
<g style="fill:#000000; fill-opacity:1;stroke:#000000; stroke-opacity:1;
stroke-linecap:round; stroke-linejoin:round; "
 transform="translate(0 0) scale(1 1)">
</g>
<g style="fill:#000000; fill-opacity:0.0; 
stroke:#000000; stroke-width:-0.000787402; stroke-opacity:1; 
stroke-linecap:round; stroke-linejoin:round;">
</g>
<g style="fill:#000000; fill-opacity:0.0; 
stroke:#000000; stroke-width:157.48; stroke-opacity:1; 
stroke-linecap:round; stroke-linejoin:round;">
<path d="M30465 17956
L17748 17956
" />
<path d="M17748 63696
L96543 64088
" />
<path d="M96543 64090
L96543 59288
" />
<path d="M17743 59288
L17743 63688
" />
<path d="M83703 59248
L65463 59248
" />
<path d="M87433 59248
L96543 59264
" />
<path d="M87393 57248
L96483 57248
" />
<path d="M65463 57248
L83703 57248
" />
<path d="M61827 59258
L24467 59258
" />
<path d="M24473 57258
L61833 57258
" />
<path d="M20843 57268
L17743 57268
" />
<path d="M20813 59268
L17740 59287
" />
<path d="M20813.7 59268.8 A1000.2 1000.2 0.0 0 0 20836.3 57269.5 " />
<path d="M24483.7 57258.8 A1000 1000 0.0 0 0 24467.1 59258.7 " />
<path d="M61813.7 59258.8 A1000 1000 0.0 0 0 61835 57259 " />
<path d="M65463.7 57248.8 A1000.2 1000.2 0.0 1 0 65465.5 59248.8 " />
<path d="M83693.7 59248.8 A1000.2 1000.2 0.0 1 0 83713.7 57248.6 " />
<path d="M87384.5 57248.8 A1000.2 1000.2 0.0 0 0 87423.7 59248.8 " />
<path d="M91343.7 15888.8 A1000.8 1000.8 0.0 0 0 91383.7 17889.6 " />
<path d="M55123.7 17928.8 A1000.8 1000.8 0.0 1 0 55123.7 15928.8 " />
<path d="M17703 15908
L17703 15908
" />
<path d="M30463 15908
L17703 15908
" />
<path d="M34123 17928
L55123 17928
" />
<path d="M55103 15928
L34143 15928
" />
<path d="M30463.7 17948.8 A1020 1020 0.0 0 0 30463.7 15908.8 " />
<path d="M34143.7 15928.8 A1000.2 1000.2 0.0 1 0 34123.7 17929 " />
<path d="M87723 17918
L58893 17918
" />
<path d="M58743 15938
L87753 15938
" />
<path d="M58823.7 15928.8 A990.202 990.202 0.0 0 0 58863.7 17908.8 " />
<path d="M91394 17893
L96480 17901
" />
<path d="M96443 15888
L91343 15888
" />
<path d="M96443 10688
L96443 15888
" />
<path d="M87723.7 17928.8 A996 996 0.0 0 0 87731.8 15936.9 " />
<path d="M17703 10668
L96433 10673
" />
<path d="M17703 15908
L17703 10668
" />
<path d="M17743 57268
L17743 17958
" />
<path d="M96483 57248
L96483 17918
" />
</g>
<g style="fill:#000000; fill-opacity:1.0; 
stroke:#000000; stroke-width:0; stroke-opacity:1; 
stroke-linecap:round; stroke-linejoin:round;">
<polyline style="fill-rule:evenodd;"
points="18601,32666
18601,32351
18286,32351
18286,32666
18601,32666
" /> 
<polyline style="fill-rule:evenodd;"
points="18916,32666
18916,32351
18601,32351
18601,32666
18916,32666
" /> 
<polyline style="fill-rule:evenodd;"
points="19231,32666
19231,32351
18916,32351
18916,32666
19231,32666
" /> 
<polyline style="fill-rule:evenodd;"
points="19546,32666
19546,32351
19231,32351
19231,32666
19546,32666
" /> 
<polyline style="fill-rule:evenodd;"
points="19861,32666
19861,32351
19546,32351
19546,32666
19861,32666
" /> 
<polyline style="fill-rule:evenodd;"
points="20176,32666
20176,32351
19861,32351
19861,32666
20176,32666
" /> 
<polyline style="fill-rule:evenodd;"
points="20491,32666
20491,32351
20176,32351
20176,32666
20491,32666
" /> 
<polyline style="fill-rule:evenodd;"
points="21436,32666
21436,32351
21121,32351
21121,32666
21436,32666
" /> 
<polyline style="fill-rule:evenodd;"
points="22066,32666
22066,32351
21751,32351
21751,32666
22066,32666
" /> 
<polyline style="fill-rule:evenodd;"
points="23011,32666
23011,32351
22696,32351
22696,32666
23011,32666
" /> 
<polyline style="fill-rule:evenodd;"
points="23326,32666
23326,32351
23011,32351
23011,32666
23326,32666
" /> 
<polyline style="fill-rule:evenodd;"
points="25216,32666
25216,32351
24901,32351
24901,32666
25216,32666
" /> 
<polyline style="fill-rule:evenodd;"
points="25530,32666
25530,32351
25216,32351
25216,32666
25530,32666
" /> 
<polyline style="fill-rule:evenodd;"
points="26160,32666
26160,32351
25845,32351
25845,32666
26160,32666
" /> 
<polyline style="fill-rule:evenodd;"
points="26790,32666
26790,32351
26475,32351
26475,32666
26790,32666
" /> 
<polyline style="fill-rule:evenodd;"
points="27105,32666
27105,32351
26790,32351
26790,32666
27105,32666
" /> 
<polyline style="fill-rule:evenodd;"
points="27420,32666
27420,32351
27105,32351
27105,32666
27420,32666
" /> 
<polyline style="fill-rule:evenodd;"
points="27735,32666
27735,32351
27420,32351
27420,32666
27735,32666
" /> 
<polyline style="fill-rule:evenodd;"
points="28050,32666
28050,32351
27735,32351
27735,32666
28050,32666
" /> 
<polyline style="fill-rule:evenodd;"
points="28365,32666
28365,32351
28050,32351
28050,32666
28365,32666
" /> 
<polyline style="fill-rule:evenodd;"
points="28680,32666
28680,32351
28365,32351
28365,32666
28680,32666
" /> 
<polyline style="fill-rule:evenodd;"
points="18601,32981
18601,32666
18286,32666
18286,32981
18601,32981
" /> 
<polyline style="fill-rule:evenodd;"
points="20491,32981
20491,32666
20176,32666
20176,32981
20491,32981
" /> 
<polyline style="fill-rule:evenodd;"
points="21436,32981
21436,32666
21121,32666
21121,32981
21436,32981
" /> 
<polyline style="fill-rule:evenodd;"
points="21751,32981
21751,32666
21436,32666
21436,32981
21751,32981
" /> 
<polyline style="fill-rule:evenodd;"
points="22381,32981
22381,32666
22066,32666
22066,32981
22381,32981
" /> 
<polyline style="fill-rule:evenodd;"
points="23326,32981
23326,32666
23011,32666
23011,32981
23326,32981
" /> 
<polyline style="fill-rule:evenodd;"
points="23641,32981
23641,32666
23326,32666
23326,32981
23641,32981
" /> 
<polyline style="fill-rule:evenodd;"
points="24271,32981
24271,32666
23956,32666
23956,32981
24271,32981
" /> 
<polyline style="fill-rule:evenodd;"
points="24901,32981
24901,32666
24586,32666
24586,32981
24901,32981
" /> 
<polyline style="fill-rule:evenodd;"
points="25216,32981
25216,32666
24901,32666
24901,32981
25216,32981
" /> 
<polyline style="fill-rule:evenodd;"
points="26790,32981
26790,32666
26475,32666
26475,32981
26790,32981
" /> 
<polyline style="fill-rule:evenodd;"
points="28680,32981
28680,32666
28365,32666
28365,32981
28680,32981
" /> 
<polyline style="fill-rule:evenodd;"
points="18601,33296
18601,32981
18286,32981
18286,33296
18601,33296
" /> 
<polyline style="fill-rule:evenodd;"
points="19231,33296
19231,32981
18916,32981
18916,33296
19231,33296
" /> 
<polyline style="fill-rule:evenodd;"
points="19546,33296
19546,32981
19231,32981
19231,33296
19546,33296
" /> 
<polyline style="fill-rule:evenodd;"
points="19861,33296
19861,32981
19546,32981
19546,33296
19861,33296
" /> 
<polyline style="fill-rule:evenodd;"
points="20491,33296
20491,32981
20176,32981
20176,33296
20491,33296
" /> 
<polyline style="fill-rule:evenodd;"
points="21121,33296
21121,32981
20806,32981
20806,33296
21121,33296
" /> 
<polyline style="fill-rule:evenodd;"
points="22066,33296
22066,32981
21751,32981
21751,33296
22066,33296
" /> 
<polyline style="fill-rule:evenodd;"
points="22381,33296
22381,32981
22066,32981
22066,33296
22381,33296
" /> 
<polyline style="fill-rule:evenodd;"
points="23011,33296
23011,32981
22696,32981
22696,33296
23011,33296
" /> 
<polyline style="fill-rule:evenodd;"
points="23326,33296
23326,32981
23011,32981
23011,33296
23326,33296
" /> 
<polyline style="fill-rule:evenodd;"
points="25216,33296
25216,32981
24901,32981
24901,33296
25216,33296
" /> 
<polyline style="fill-rule:evenodd;"
points="25530,33296
25530,32981
25216,32981
25216,33296
25530,33296
" /> 
<polyline style="fill-rule:evenodd;"
points="26160,33296
26160,32981
25845,32981
25845,33296
26160,33296
" /> 
<polyline style="fill-rule:evenodd;"
points="26790,33296
26790,32981
26475,32981
26475,33296
26790,33296
" /> 
<polyline style="fill-rule:evenodd;"
points="27420,33296
27420,32981
27105,32981
27105,33296
27420,33296
" /> 
<polyline style="fill-rule:evenodd;"
points="27735,33296
27735,32981
27420,32981
27420,33296
27735,33296
" /> 
<polyline style="fill-rule:evenodd;"
points="28050,33296
28050,32981
27735,32981
27735,33296
28050,33296
" /> 
<polyline style="fill-rule:evenodd;"
points="28680,33296
28680,32981
28365,32981
28365,33296
28680,33296
" /> 
<polyline style="fill-rule:evenodd;"
points="18601,33611
18601,33296
18286,33296
18286,33611
18601,33611
" /> 
<polyline style="fill-rule:evenodd;"
points="19231,33611
19231,33296
18916,33296
18916,33611
19231,33611
" /> 
<polyline style="fill-rule:evenodd;"
points="19546,33611
19546,33296
19231,33296
19231,33611
19546,33611
" /> 
<polyline style="fill-rule:evenodd;"
points="19861,33611
19861,33296
19546,33296
19546,33611
19861,33611
" /> 
<polyline style="fill-rule:evenodd;"
points="20491,33611
20491,33296
20176,33296
20176,33611
20491,33611
" /> 
<polyline style="fill-rule:evenodd;"
points="21121,33611
21121,33296
20806,33296
20806,33611
21121,33611
" /> 
<polyline style="fill-rule:evenodd;"
points="21436,33611
21436,33296
21121,33296
21121,33611
21436,33611
" /> 
<polyline style="fill-rule:evenodd;"
points="22066,33611
22066,33296
21751,33296
21751,33611
22066,33611
" /> 
<polyline style="fill-rule:evenodd;"
points="23326,33611
23326,33296
23011,33296
23011,33611
23326,33611
" /> 
<polyline style="fill-rule:evenodd;"
points="24271,33611
24271,33296
23956,33296
23956,33611
24271,33611
" /> 
<polyline style="fill-rule:evenodd;"
points="25216,33611
25216,33296
24901,33296
24901,33611
25216,33611
" /> 
<polyline style="fill-rule:evenodd;"
points="26160,33611
26160,33296
25845,33296
25845,33611
26160,33611
" /> 
<polyline style="fill-rule:evenodd;"
points="26790,33611
26790,33296
26475,33296
26475,33611
26790,33611
" /> 
<polyline style="fill-rule:evenodd;"
points="27420,33611
27420,33296
27105,33296
27105,33611
27420,33611
" /> 
<polyline style="fill-rule:evenodd;"
points="27735,33611
27735,33296
27420,33296
27420,33611
27735,33611
" /> 
<polyline style="fill-rule:evenodd;"
points="28050,33611
28050,33296
27735,33296
27735,33611
28050,33611
" /> 
<polyline style="fill-rule:evenodd;"
points="28680,33611
28680,33296
28365,33296
28365,33611
28680,33611
" /> 
<polyline style="fill-rule:evenodd;"
points="18601,33926
18601,33611
18286,33611
18286,33926
18601,33926
" /> 
<polyline style="fill-rule:evenodd;"
points="19231,33926
19231,33611
18916,33611
18916,33926
19231,33926
" /> 
<polyline style="fill-rule:evenodd;"
points="19546,33926
19546,33611
19231,33611
19231,33926
19546,33926
" /> 
<polyline style="fill-rule:evenodd;"
points="19861,33926
19861,33611
19546,33611
19546,33926
19861,33926
" /> 
<polyline style="fill-rule:evenodd;"
points="20491,33926
20491,33611
20176,33611
20176,33926
20491,33926
" /> 
<polyline style="fill-rule:evenodd;"
points="21121,33926
21121,33611
20806,33611
20806,33926
21121,33926
" /> 
<polyline style="fill-rule:evenodd;"
points="22066,33926
22066,33611
21751,33611
21751,33926
22066,33926
" /> 
<polyline style="fill-rule:evenodd;"
points="22381,33926
22381,33611
22066,33611
22066,33926
22381,33926
" /> 
<polyline style="fill-rule:evenodd;"
points="22696,33926
22696,33611
22381,33611
22381,33926
22696,33926
" /> 
<polyline style="fill-rule:evenodd;"
points="23011,33926
23011,33611
22696,33611
22696,33926
23011,33926
" /> 
<polyline style="fill-rule:evenodd;"
points="23326,33926
23326,33611
23011,33611
23011,33926
23326,33926
" /> 
<polyline style="fill-rule:evenodd;"
points="23641,33926
23641,33611
23326,33611
23326,33926
23641,33926
" /> 
<polyline style="fill-rule:evenodd;"
points="23956,33926
23956,33611
23641,33611
23641,33926
23956,33926
" /> 
<polyline style="fill-rule:evenodd;"
points="24901,33926
24901,33611
24586,33611
24586,33926
24901,33926
" /> 
<polyline style="fill-rule:evenodd;"
points="25530,33926
25530,33611
25216,33611
25216,33926
25530,33926
" /> 
<polyline style="fill-rule:evenodd;"
points="26790,33926
26790,33611
26475,33611
26475,33926
26790,33926
" /> 
<polyline style="fill-rule:evenodd;"
points="27420,33926
27420,33611
27105,33611
27105,33926
27420,33926
" /> 
<polyline style="fill-rule:evenodd;"
points="27735,33926
27735,33611
27420,33611
27420,33926
27735,33926
" /> 
<polyline style="fill-rule:evenodd;"
points="28050,33926
28050,33611
27735,33611
27735,33926
28050,33926
" /> 
<polyline style="fill-rule:evenodd;"
points="28680,33926
28680,33611
28365,33611
28365,33926
28680,33926
" /> 
<polyline style="fill-rule:evenodd;"
points="18601,34241
18601,33926
18286,33926
18286,34241
18601,34241
" /> 
<polyline style="fill-rule:evenodd;"
points="20491,34241
20491,33926
20176,33926
20176,34241
20491,34241
" /> 
<polyline style="fill-rule:evenodd;"
points="21121,34241
21121,33926
20806,33926
20806,34241
21121,34241
" /> 
<polyline style="fill-rule:evenodd;"
points="21436,34241
21436,33926
21121,33926
21121,34241
21436,34241
" /> 
<polyline style="fill-rule:evenodd;"
points="21751,34241
21751,33926
21436,33926
21436,34241
21751,34241
" /> 
<polyline style="fill-rule:evenodd;"
points="22696,34241
22696,33926
22381,33926
22381,34241
22696,34241
" /> 
<polyline style="fill-rule:evenodd;"
points="23011,34241
23011,33926
22696,33926
22696,34241
23011,34241
" /> 
<polyline style="fill-rule:evenodd;"
points="23956,34241
23956,33926
23641,33926
23641,34241
23956,34241
" /> 
<polyline style="fill-rule:evenodd;"
points="24586,34241
24586,33926
24271,33926
24271,34241
24586,34241
" /> 
<polyline style="fill-rule:evenodd;"
points="25530,34241
25530,33926
25216,33926
25216,34241
25530,34241
" /> 
<polyline style="fill-rule:evenodd;"
points="25845,34241
25845,33926
25530,33926
25530,34241
25845,34241
" /> 
<polyline style="fill-rule:evenodd;"
points="26160,34241
26160,33926
25845,33926
25845,34241
26160,34241
" /> 
<polyline style="fill-rule:evenodd;"
points="26790,34241
26790,33926
26475,33926
26475,34241
26790,34241
" /> 
<polyline style="fill-rule:evenodd;"
points="28680,34241
28680,33926
28365,33926
28365,34241
28680,34241
" /> 
<polyline style="fill-rule:evenodd;"
points="18601,34556
18601,34241
18286,34241
18286,34556
18601,34556
" /> 
<polyline style="fill-rule:evenodd;"
points="18916,34556
18916,34241
18601,34241
18601,34556
18916,34556
" /> 
<polyline style="fill-rule:evenodd;"
points="19231,34556
19231,34241
18916,34241
18916,34556
19231,34556
" /> 
<polyline style="fill-rule:evenodd;"
points="19546,34556
19546,34241
19231,34241
19231,34556
19546,34556
" /> 
<polyline style="fill-rule:evenodd;"
points="19861,34556
19861,34241
19546,34241
19546,34556
19861,34556
" /> 
<polyline style="fill-rule:evenodd;"
points="20176,34556
20176,34241
19861,34241
19861,34556
20176,34556
" /> 
<polyline style="fill-rule:evenodd;"
points="20491,34556
20491,34241
20176,34241
20176,34556
20491,34556
" /> 
<polyline style="fill-rule:evenodd;"
points="21121,34556
21121,34241
20806,34241
20806,34556
21121,34556
" /> 
<polyline style="fill-rule:evenodd;"
points="21751,34556
21751,34241
21436,34241
21436,34556
21751,34556
" /> 
<polyline style="fill-rule:evenodd;"
points="22381,34556
22381,34241
22066,34241
22066,34556
22381,34556
" /> 
<polyline style="fill-rule:evenodd;"
points="23011,34556
23011,34241
22696,34241
22696,34556
23011,34556
" /> 
<polyline style="fill-rule:evenodd;"
points="23641,34556
23641,34241
23326,34241
23326,34556
23641,34556
" /> 
<polyline style="fill-rule:evenodd;"
points="24271,34556
24271,34241
23956,34241
23956,34556
24271,34556
" /> 
<polyline style="fill-rule:evenodd;"
points="24901,34556
24901,34241
24586,34241
24586,34556
24901,34556
" /> 
<polyline style="fill-rule:evenodd;"
points="25530,34556
25530,34241
25216,34241
25216,34556
25530,34556
" /> 
<polyline style="fill-rule:evenodd;"
points="26160,34556
26160,34241
25845,34241
25845,34556
26160,34556
" /> 
<polyline style="fill-rule:evenodd;"
points="26790,34556
26790,34241
26475,34241
26475,34556
26790,34556
" /> 
<polyline style="fill-rule:evenodd;"
points="27105,34556
27105,34241
26790,34241
26790,34556
27105,34556
" /> 
<polyline style="fill-rule:evenodd;"
points="27420,34556
27420,34241
27105,34241
27105,34556
27420,34556
" /> 
<polyline style="fill-rule:evenodd;"
points="27735,34556
27735,34241
27420,34241
27420,34556
27735,34556
" /> 
<polyline style="fill-rule:evenodd;"
points="28050,34556
28050,34241
27735,34241
27735,34556
28050,34556
" /> 
<polyline style="fill-rule:evenodd;"
points="28365,34556
28365,34241
28050,34241
28050,34556
28365,34556
" /> 
<polyline style="fill-rule:evenodd;"
points="28680,34556
28680,34241
28365,34241
28365,34556
28680,34556
" /> 
<polyline style="fill-rule:evenodd;"
points="21121,34871
21121,34556
20806,34556
20806,34871
21121,34871
" /> 
<polyline style="fill-rule:evenodd;"
points="21436,34871
21436,34556
21121,34556
21121,34871
21436,34871
" /> 
<polyline style="fill-rule:evenodd;"
points="21751,34871
21751,34556
21436,34556
21436,34871
21751,34871
" /> 
<polyline style="fill-rule:evenodd;"
points="22066,34871
22066,34556
21751,34556
21751,34871
22066,34871
" /> 
<polyline style="fill-rule:evenodd;"
points="22381,34871
22381,34556
22066,34556
22066,34871
22381,34871
" /> 
<polyline style="fill-rule:evenodd;"
points="22696,34871
22696,34556
22381,34556
22381,34871
22696,34871
" /> 
<polyline style="fill-rule:evenodd;"
points="23641,34871
23641,34556
23326,34556
23326,34871
23641,34871
" /> 
<polyline style="fill-rule:evenodd;"
points="23956,34871
23956,34556
23641,34556
23641,34871
23956,34871
" /> 
<polyline style="fill-rule:evenodd;"
points="24271,34871
24271,34556
23956,34556
23956,34871
24271,34871
" /> 
<polyline style="fill-rule:evenodd;"
points="24586,34871
24586,34556
24271,34556
24271,34871
24586,34871
" /> 
<polyline style="fill-rule:evenodd;"
points="24901,34871
24901,34556
24586,34556
24586,34871
24901,34871
" /> 
<polyline style="fill-rule:evenodd;"
points="25845,34871
25845,34556
25530,34556
25530,34871
25845,34871
" /> 
<polyline style="fill-rule:evenodd;"
points="18601,35186
18601,34871
18286,34871
18286,35186
18601,35186
" /> 
<polyline style="fill-rule:evenodd;"
points="19231,35186
19231,34871
18916,34871
18916,35186
19231,35186
" /> 
<polyline style="fill-rule:evenodd;"
points="19546,35186
19546,34871
19231,34871
19231,35186
19546,35186
" /> 
<polyline style="fill-rule:evenodd;"
points="19861,35186
19861,34871
19546,34871
19546,35186
19861,35186
" /> 
<polyline style="fill-rule:evenodd;"
points="20176,35186
20176,34871
19861,34871
19861,35186
20176,35186
" /> 
<polyline style="fill-rule:evenodd;"
points="20491,35186
20491,34871
20176,34871
20176,35186
20491,35186
" /> 
<polyline style="fill-rule:evenodd;"
points="23011,35186
23011,34871
22696,34871
22696,35186
23011,35186
" /> 
<polyline style="fill-rule:evenodd;"
points="24586,35186
24586,34871
24271,34871
24271,35186
24586,35186
" /> 
<polyline style="fill-rule:evenodd;"
points="25216,35186
25216,34871
24901,34871
24901,35186
25216,35186
" /> 
<polyline style="fill-rule:evenodd;"
points="25530,35186
25530,34871
25216,34871
25216,35186
25530,35186
" /> 
<polyline style="fill-rule:evenodd;"
points="25845,35186
25845,34871
25530,34871
25530,35186
25845,35186
" /> 
<polyline style="fill-rule:evenodd;"
points="26160,35186
26160,34871
25845,34871
25845,35186
26160,35186
" /> 
<polyline style="fill-rule:evenodd;"
points="26790,35186
26790,34871
26475,34871
26475,35186
26790,35186
" /> 
<polyline style="fill-rule:evenodd;"
points="27105,35186
27105,34871
26790,34871
26790,35186
27105,35186
" /> 
<polyline style="fill-rule:evenodd;"
points="27420,35186
27420,34871
27105,34871
27105,35186
27420,35186
" /> 
<polyline style="fill-rule:evenodd;"
points="27735,35186
27735,34871
27420,34871
27420,35186
27735,35186
" /> 
<polyline style="fill-rule:evenodd;"
points="28050,35186
28050,34871
27735,34871
27735,35186
28050,35186
" /> 
<polyline style="fill-rule:evenodd;"
points="18916,35501
18916,35186
18601,35186
18601,35501
18916,35501
" /> 
<polyline style="fill-rule:evenodd;"
points="19231,35501
19231,35186
18916,35186
18916,35501
19231,35501
" /> 
<polyline style="fill-rule:evenodd;"
points="20806,35501
20806,35186
20491,35186
20491,35501
20806,35501
" /> 
<polyline style="fill-rule:evenodd;"
points="21121,35501
21121,35186
20806,35186
20806,35501
21121,35501
" /> 
<polyline style="fill-rule:evenodd;"
points="21436,35501
21436,35186
21121,35186
21121,35501
21436,35501
" /> 
<polyline style="fill-rule:evenodd;"
points="22381,35501
22381,35186
22066,35186
22066,35501
22381,35501
" /> 
<polyline style="fill-rule:evenodd;"
points="22696,35501
22696,35186
22381,35186
22381,35501
22696,35501
" /> 
<polyline style="fill-rule:evenodd;"
points="23326,35501
23326,35186
23011,35186
23011,35501
23326,35501
" /> 
<polyline style="fill-rule:evenodd;"
points="23641,35501
23641,35186
23326,35186
23326,35501
23641,35501
" /> 
<polyline style="fill-rule:evenodd;"
points="23956,35501
23956,35186
23641,35186
23641,35501
23956,35501
" /> 
<polyline style="fill-rule:evenodd;"
points="24271,35501
24271,35186
23956,35186
23956,35501
24271,35501
" /> 
<polyline style="fill-rule:evenodd;"
points="24901,35501
24901,35186
24586,35186
24586,35501
24901,35501
" /> 
<polyline style="fill-rule:evenodd;"
points="26475,35501
26475,35186
26160,35186
26160,35501
26475,35501
" /> 
<polyline style="fill-rule:evenodd;"
points="27105,35501
27105,35186
26790,35186
26790,35501
27105,35501
" /> 
<polyline style="fill-rule:evenodd;"
points="27735,35501
27735,35186
27420,35186
27420,35501
27735,35501
" /> 
<polyline style="fill-rule:evenodd;"
points="28050,35501
28050,35186
27735,35186
27735,35501
28050,35501
" /> 
<polyline style="fill-rule:evenodd;"
points="28365,35501
28365,35186
28050,35186
28050,35501
28365,35501
" /> 
<polyline style="fill-rule:evenodd;"
points="20491,35816
20491,35501
20176,35501
20176,35816
20491,35816
" /> 
<polyline style="fill-rule:evenodd;"
points="21121,35816
21121,35501
20806,35501
20806,35816
21121,35816
" /> 
<polyline style="fill-rule:evenodd;"
points="21751,35816
21751,35501
21436,35501
21436,35816
21751,35816
" /> 
<polyline style="fill-rule:evenodd;"
points="22381,35816
22381,35501
22066,35501
22066,35816
22381,35816
" /> 
<polyline style="fill-rule:evenodd;"
points="22696,35816
22696,35501
22381,35501
22381,35816
22696,35816
" /> 
<polyline style="fill-rule:evenodd;"
points="23011,35816
23011,35501
22696,35501
22696,35816
23011,35816
" /> 
<polyline style="fill-rule:evenodd;"
points="23956,35816
23956,35501
23641,35501
23641,35816
23956,35816
" /> 
<polyline style="fill-rule:evenodd;"
points="24586,35816
24586,35501
24271,35501
24271,35816
24586,35816
" /> 
<polyline style="fill-rule:evenodd;"
points="25530,35816
25530,35501
25216,35501
25216,35816
25530,35816
" /> 
<polyline style="fill-rule:evenodd;"
points="25845,35816
25845,35501
25530,35501
25530,35816
25845,35816
" /> 
<polyline style="fill-rule:evenodd;"
points="26160,35816
26160,35501
25845,35501
25845,35816
26160,35816
" /> 
<polyline style="fill-rule:evenodd;"
points="28050,35816
28050,35501
27735,35501
27735,35816
28050,35816
" /> 
<polyline style="fill-rule:evenodd;"
points="18601,36131
18601,35816
18286,35816
18286,36131
18601,36131
" /> 
<polyline style="fill-rule:evenodd;"
points="19231,36131
19231,35816
18916,35816
18916,36131
19231,36131
" /> 
<polyline style="fill-rule:evenodd;"
points="19546,36131
19546,35816
19231,35816
19231,36131
19546,36131
" /> 
<polyline style="fill-rule:evenodd;"
points="20176,36131
20176,35816
19861,35816
19861,36131
20176,36131
" /> 
<polyline style="fill-rule:evenodd;"
points="21121,36131
21121,35816
20806,35816
20806,36131
21121,36131
" /> 
<polyline style="fill-rule:evenodd;"
points="21751,36131
21751,35816
21436,35816
21436,36131
21751,36131
" /> 
<polyline style="fill-rule:evenodd;"
points="22381,36131
22381,35816
22066,35816
22066,36131
22381,36131
" /> 
<polyline style="fill-rule:evenodd;"
points="22696,36131
22696,35816
22381,35816
22381,36131
22696,36131
" /> 
<polyline style="fill-rule:evenodd;"
points="23641,36131
23641,35816
23326,35816
23326,36131
23641,36131
" /> 
<polyline style="fill-rule:evenodd;"
points="23956,36131
23956,35816
23641,35816
23641,36131
23956,36131
" /> 
<polyline style="fill-rule:evenodd;"
points="24271,36131
24271,35816
23956,35816
23956,36131
24271,36131
" /> 
<polyline style="fill-rule:evenodd;"
points="24586,36131
24586,35816
24271,35816
24271,36131
24586,36131
" /> 
<polyline style="fill-rule:evenodd;"
points="24901,36131
24901,35816
24586,35816
24586,36131
24901,36131
" /> 
<polyline style="fill-rule:evenodd;"
points="25845,36131
25845,35816
25530,35816
25530,36131
25845,36131
" /> 
<polyline style="fill-rule:evenodd;"
points="26475,36131
26475,35816
26160,35816
26160,36131
26475,36131
" /> 
<polyline style="fill-rule:evenodd;"
points="27105,36131
27105,35816
26790,35816
26790,36131
27105,36131
" /> 
<polyline style="fill-rule:evenodd;"
points="27735,36131
27735,35816
27420,35816
27420,36131
27735,36131
" /> 
<polyline style="fill-rule:evenodd;"
points="28050,36131
28050,35816
27735,35816
27735,36131
28050,36131
" /> 
<polyline style="fill-rule:evenodd;"
points="28365,36131
28365,35816
28050,35816
28050,36131
28365,36131
" /> 
<polyline style="fill-rule:evenodd;"
points="18601,36446
18601,36131
18286,36131
18286,36446
18601,36446
" /> 
<polyline style="fill-rule:evenodd;"
points="18916,36446
18916,36131
18601,36131
18601,36446
18916,36446
" /> 
<polyline style="fill-rule:evenodd;"
points="20176,36446
20176,36131
19861,36131
19861,36446
20176,36446
" /> 
<polyline style="fill-rule:evenodd;"
points="20491,36446
20491,36131
20176,36131
20176,36446
20491,36446
" /> 
<polyline style="fill-rule:evenodd;"
points="21436,36446
21436,36131
21121,36131
21121,36446
21436,36446
" /> 
<polyline style="fill-rule:evenodd;"
points="23011,36446
23011,36131
22696,36131
22696,36446
23011,36446
" /> 
<polyline style="fill-rule:evenodd;"
points="23641,36446
23641,36131
23326,36131
23326,36446
23641,36446
" /> 
<polyline style="fill-rule:evenodd;"
points="24586,36446
24586,36131
24271,36131
24271,36446
24586,36446
" /> 
<polyline style="fill-rule:evenodd;"
points="24901,36446
24901,36131
24586,36131
24586,36446
24901,36446
" /> 
<polyline style="fill-rule:evenodd;"
points="25216,36446
25216,36131
24901,36131
24901,36446
25216,36446
" /> 
<polyline style="fill-rule:evenodd;"
points="25530,36446
25530,36131
25216,36131
25216,36446
25530,36446
" /> 
<polyline style="fill-rule:evenodd;"
points="25845,36446
25845,36131
25530,36131
25530,36446
25845,36446
" /> 
<polyline style="fill-rule:evenodd;"
points="27105,36446
27105,36131
26790,36131
26790,36446
27105,36446
" /> 
<polyline style="fill-rule:evenodd;"
points="19861,36761
19861,36446
19546,36446
19546,36761
19861,36761
" /> 
<polyline style="fill-rule:evenodd;"
points="20176,36761
20176,36446
19861,36446
19861,36761
20176,36761
" /> 
<polyline style="fill-rule:evenodd;"
points="21121,36761
21121,36446
20806,36446
20806,36761
21121,36761
" /> 
<polyline style="fill-rule:evenodd;"
points="22381,36761
22381,36446
22066,36446
22066,36761
22381,36761
" /> 
<polyline style="fill-rule:evenodd;"
points="22696,36761
22696,36446
22381,36446
22381,36761
22696,36761
" /> 
<polyline style="fill-rule:evenodd;"
points="23326,36761
23326,36446
23011,36446
23011,36761
23326,36761
" /> 
<polyline style="fill-rule:evenodd;"
points="24271,36761
24271,36446
23956,36446
23956,36761
24271,36761
" /> 
<polyline style="fill-rule:evenodd;"
points="25216,36761
25216,36446
24901,36446
24901,36761
25216,36761
" /> 
<polyline style="fill-rule:evenodd;"
points="26160,36761
26160,36446
25845,36446
25845,36761
26160,36761
" /> 
<polyline style="fill-rule:evenodd;"
points="26475,36761
26475,36446
26160,36446
26160,36761
26475,36761
" /> 
<polyline style="fill-rule:evenodd;"
points="27420,36761
27420,36446
27105,36446
27105,36761
27420,36761
" /> 
<polyline style="fill-rule:evenodd;"
points="27735,36761
27735,36446
27420,36446
27420,36761
27735,36761
" /> 
<polyline style="fill-rule:evenodd;"
points="28680,36761
28680,36446
28365,36446
28365,36761
28680,36761
" /> 
<polyline style="fill-rule:evenodd;"
points="18916,37076
18916,36761
18601,36761
18601,37076
18916,37076
" /> 
<polyline style="fill-rule:evenodd;"
points="19546,37076
19546,36761
19231,36761
19231,37076
19546,37076
" /> 
<polyline style="fill-rule:evenodd;"
points="19861,37076
19861,36761
19546,36761
19546,37076
19861,37076
" /> 
<polyline style="fill-rule:evenodd;"
points="20491,37076
20491,36761
20176,36761
20176,37076
20491,37076
" /> 
<polyline style="fill-rule:evenodd;"
points="20806,37076
20806,36761
20491,36761
20491,37076
20806,37076
" /> 
<polyline style="fill-rule:evenodd;"
points="21121,37076
21121,36761
20806,36761
20806,37076
21121,37076
" /> 
<polyline style="fill-rule:evenodd;"
points="21436,37076
21436,36761
21121,36761
21121,37076
21436,37076
" /> 
<polyline style="fill-rule:evenodd;"
points="21751,37076
21751,36761
21436,36761
21436,37076
21751,37076
" /> 
<polyline style="fill-rule:evenodd;"
points="22066,37076
22066,36761
21751,36761
21751,37076
22066,37076
" /> 
<polyline style="fill-rule:evenodd;"
points="22696,37076
22696,36761
22381,36761
22381,37076
22696,37076
" /> 
<polyline style="fill-rule:evenodd;"
points="23011,37076
23011,36761
22696,36761
22696,37076
23011,37076
" /> 
<polyline style="fill-rule:evenodd;"
points="23326,37076
23326,36761
23011,36761
23011,37076
23326,37076
" /> 
<polyline style="fill-rule:evenodd;"
points="23641,37076
23641,36761
23326,36761
23326,37076
23641,37076
" /> 
<polyline style="fill-rule:evenodd;"
points="24271,37076
24271,36761
23956,36761
23956,37076
24271,37076
" /> 
<polyline style="fill-rule:evenodd;"
points="24901,37076
24901,36761
24586,36761
24586,37076
24901,37076
" /> 
<polyline style="fill-rule:evenodd;"
points="25216,37076
25216,36761
24901,36761
24901,37076
25216,37076
" /> 
<polyline style="fill-rule:evenodd;"
points="26475,37076
26475,36761
26160,36761
26160,37076
26475,37076
" /> 
<polyline style="fill-rule:evenodd;"
points="26790,37076
26790,36761
26475,36761
26475,37076
26790,37076
" /> 
<polyline style="fill-rule:evenodd;"
points="27105,37076
27105,36761
26790,36761
26790,37076
27105,37076
" /> 
<polyline style="fill-rule:evenodd;"
points="27420,37076
27420,36761
27105,36761
27105,37076
27420,37076
" /> 
<polyline style="fill-rule:evenodd;"
points="28365,37076
28365,36761
28050,36761
28050,37076
28365,37076
" /> 
<polyline style="fill-rule:evenodd;"
points="18601,37391
18601,37076
18286,37076
18286,37391
18601,37391
" /> 
<polyline style="fill-rule:evenodd;"
points="19231,37391
19231,37076
18916,37076
18916,37391
19231,37391
" /> 
<polyline style="fill-rule:evenodd;"
points="19546,37391
19546,37076
19231,37076
19231,37391
19546,37391
" /> 
<polyline style="fill-rule:evenodd;"
points="20176,37391
20176,37076
19861,37076
19861,37391
20176,37391
" /> 
<polyline style="fill-rule:evenodd;"
points="20806,37391
20806,37076
20491,37076
20491,37391
20806,37391
" /> 
<polyline style="fill-rule:evenodd;"
points="21121,37391
21121,37076
20806,37076
20806,37391
21121,37391
" /> 
<polyline style="fill-rule:evenodd;"
points="21751,37391
21751,37076
21436,37076
21436,37391
21751,37391
" /> 
<polyline style="fill-rule:evenodd;"
points="22066,37391
22066,37076
21751,37076
21751,37391
22066,37391
" /> 
<polyline style="fill-rule:evenodd;"
points="22696,37391
22696,37076
22381,37076
22381,37391
22696,37391
" /> 
<polyline style="fill-rule:evenodd;"
points="23011,37391
23011,37076
22696,37076
22696,37391
23011,37391
" /> 
<polyline style="fill-rule:evenodd;"
points="23326,37391
23326,37076
23011,37076
23011,37391
23326,37391
" /> 
<polyline style="fill-rule:evenodd;"
points="25216,37391
25216,37076
24901,37076
24901,37391
25216,37391
" /> 
<polyline style="fill-rule:evenodd;"
points="25530,37391
25530,37076
25216,37076
25216,37391
25530,37391
" /> 
<polyline style="fill-rule:evenodd;"
points="26160,37391
26160,37076
25845,37076
25845,37391
26160,37391
" /> 
<polyline style="fill-rule:evenodd;"
points="26790,37391
26790,37076
26475,37076
26475,37391
26790,37391
" /> 
<polyline style="fill-rule:evenodd;"
points="27420,37391
27420,37076
27105,37076
27105,37391
27420,37391
" /> 
<polyline style="fill-rule:evenodd;"
points="27735,37391
27735,37076
27420,37076
27420,37391
27735,37391
" /> 
<polyline style="fill-rule:evenodd;"
points="28680,37391
28680,37076
28365,37076
28365,37391
28680,37391
" /> 
<polyline style="fill-rule:evenodd;"
points="19546,37706
19546,37391
19231,37391
19231,37706
19546,37706
" /> 
<polyline style="fill-rule:evenodd;"
points="19861,37706
19861,37391
19546,37391
19546,37706
19861,37706
" /> 
<polyline style="fill-rule:evenodd;"
points="20176,37706
20176,37391
19861,37391
19861,37706
20176,37706
" /> 
<polyline style="fill-rule:evenodd;"
points="20491,37706
20491,37391
20176,37391
20176,37706
20491,37706
" /> 
<polyline style="fill-rule:evenodd;"
points="21121,37706
21121,37391
20806,37391
20806,37706
21121,37706
" /> 
<polyline style="fill-rule:evenodd;"
points="21436,37706
21436,37391
21121,37391
21121,37706
21436,37706
" /> 
<polyline style="fill-rule:evenodd;"
points="22066,37706
22066,37391
21751,37391
21751,37706
22066,37706
" /> 
<polyline style="fill-rule:evenodd;"
points="23011,37706
23011,37391
22696,37391
22696,37706
23011,37706
" /> 
<polyline style="fill-rule:evenodd;"
points="23326,37706
23326,37391
23011,37391
23011,37706
23326,37706
" /> 
<polyline style="fill-rule:evenodd;"
points="23641,37706
23641,37391
23326,37391
23326,37706
23641,37706
" /> 
<polyline style="fill-rule:evenodd;"
points="24271,37706
24271,37391
23956,37391
23956,37706
24271,37706
" /> 
<polyline style="fill-rule:evenodd;"
points="24901,37706
24901,37391
24586,37391
24586,37706
24901,37706
" /> 
<polyline style="fill-rule:evenodd;"
points="25216,37706
25216,37391
24901,37391
24901,37706
25216,37706
" /> 
<polyline style="fill-rule:evenodd;"
points="26475,37706
26475,37391
26160,37391
26160,37706
26475,37706
" /> 
<polyline style="fill-rule:evenodd;"
points="26790,37706
26790,37391
26475,37391
26475,37706
26790,37706
" /> 
<polyline style="fill-rule:evenodd;"
points="27105,37706
27105,37391
26790,37391
26790,37706
27105,37706
" /> 
<polyline style="fill-rule:evenodd;"
points="28050,37706
28050,37391
27735,37391
27735,37706
28050,37706
" /> 
<polyline style="fill-rule:evenodd;"
points="28365,37706
28365,37391
28050,37391
28050,37706
28365,37706
" /> 
<polyline style="fill-rule:evenodd;"
points="18601,38021
18601,37706
18286,37706
18286,38021
18601,38021
" /> 
<polyline style="fill-rule:evenodd;"
points="19231,38021
19231,37706
18916,37706
18916,38021
19231,38021
" /> 
<polyline style="fill-rule:evenodd;"
points="19546,38021
19546,37706
19231,37706
19231,38021
19546,38021
" /> 
<polyline style="fill-rule:evenodd;"
points="21121,38021
21121,37706
20806,37706
20806,38021
21121,38021
" /> 
<polyline style="fill-rule:evenodd;"
points="21436,38021
21436,37706
21121,37706
21121,38021
21436,38021
" /> 
<polyline style="fill-rule:evenodd;"
points="21751,38021
21751,37706
21436,37706
21436,38021
21751,38021
" /> 
<polyline style="fill-rule:evenodd;"
points="23326,38021
23326,37706
23011,37706
23011,38021
23326,38021
" /> 
<polyline style="fill-rule:evenodd;"
points="25216,38021
25216,37706
24901,37706
24901,38021
25216,38021
" /> 
<polyline style="fill-rule:evenodd;"
points="25530,38021
25530,37706
25216,37706
25216,38021
25530,38021
" /> 
<polyline style="fill-rule:evenodd;"
points="26160,38021
26160,37706
25845,37706
25845,38021
26160,38021
" /> 
<polyline style="fill-rule:evenodd;"
points="27420,38021
27420,37706
27105,37706
27105,38021
27420,38021
" /> 
<polyline style="fill-rule:evenodd;"
points="27735,38021
27735,37706
27420,37706
27420,38021
27735,38021
" /> 
<polyline style="fill-rule:evenodd;"
points="28050,38021
28050,37706
27735,37706
27735,38021
28050,38021
" /> 
<polyline style="fill-rule:evenodd;"
points="18601,38336
18601,38021
18286,38021
18286,38336
18601,38336
" /> 
<polyline style="fill-rule:evenodd;"
points="18916,38336
18916,38021
18601,38021
18601,38336
18916,38336
" /> 
<polyline style="fill-rule:evenodd;"
points="19231,38336
19231,38021
18916,38021
18916,38336
19231,38336
" /> 
<polyline style="fill-rule:evenodd;"
points="19861,38336
19861,38021
19546,38021
19546,38336
19861,38336
" /> 
<polyline style="fill-rule:evenodd;"
points="20176,38336
20176,38021
19861,38021
19861,38336
20176,38336
" /> 
<polyline style="fill-rule:evenodd;"
points="20491,38336
20491,38021
20176,38021
20176,38336
20491,38336
" /> 
<polyline style="fill-rule:evenodd;"
points="20806,38336
20806,38021
20491,38021
20491,38336
20806,38336
" /> 
<polyline style="fill-rule:evenodd;"
points="21751,38336
21751,38021
21436,38021
21436,38336
21751,38336
" /> 
<polyline style="fill-rule:evenodd;"
points="22381,38336
22381,38021
22066,38021
22066,38336
22381,38336
" /> 
<polyline style="fill-rule:evenodd;"
points="22696,38336
22696,38021
22381,38021
22381,38336
22696,38336
" /> 
<polyline style="fill-rule:evenodd;"
points="23011,38336
23011,38021
22696,38021
22696,38336
23011,38336
" /> 
<polyline style="fill-rule:evenodd;"
points="23326,38336
23326,38021
23011,38021
23011,38336
23326,38336
" /> 
<polyline style="fill-rule:evenodd;"
points="23641,38336
23641,38021
23326,38021
23326,38336
23641,38336
" /> 
<polyline style="fill-rule:evenodd;"
points="24271,38336
24271,38021
23956,38021
23956,38336
24271,38336
" /> 
<polyline style="fill-rule:evenodd;"
points="24901,38336
24901,38021
24586,38021
24586,38336
24901,38336
" /> 
<polyline style="fill-rule:evenodd;"
points="25216,38336
25216,38021
24901,38021
24901,38336
25216,38336
" /> 
<polyline style="fill-rule:evenodd;"
points="26475,38336
26475,38021
26160,38021
26160,38336
26475,38336
" /> 
<polyline style="fill-rule:evenodd;"
points="26790,38336
26790,38021
26475,38021
26475,38336
26790,38336
" /> 
<polyline style="fill-rule:evenodd;"
points="27105,38336
27105,38021
26790,38021
26790,38336
27105,38336
" /> 
<polyline style="fill-rule:evenodd;"
points="27420,38336
27420,38021
27105,38021
27105,38336
27420,38336
" /> 
<polyline style="fill-rule:evenodd;"
points="27735,38336
27735,38021
27420,38021
27420,38336
27735,38336
" /> 
<polyline style="fill-rule:evenodd;"
points="28050,38336
28050,38021
27735,38021
27735,38336
28050,38336
" /> 
<polyline style="fill-rule:evenodd;"
points="28365,38336
28365,38021
28050,38021
28050,38336
28365,38336
" /> 
<polyline style="fill-rule:evenodd;"
points="28680,38336
28680,38021
28365,38021
28365,38336
28680,38336
" /> 
<polyline style="fill-rule:evenodd;"
points="18916,38651
18916,38336
18601,38336
18601,38651
18916,38651
" /> 
<polyline style="fill-rule:evenodd;"
points="19546,38651
19546,38336
19231,38336
19231,38651
19546,38651
" /> 
<polyline style="fill-rule:evenodd;"
points="20176,38651
20176,38336
19861,38336
19861,38651
20176,38651
" /> 
<polyline style="fill-rule:evenodd;"
points="21121,38651
21121,38336
20806,38336
20806,38651
21121,38651
" /> 
<polyline style="fill-rule:evenodd;"
points="21751,38651
21751,38336
21436,38336
21436,38651
21751,38651
" /> 
<polyline style="fill-rule:evenodd;"
points="22066,38651
22066,38336
21751,38336
21751,38651
22066,38651
" /> 
<polyline style="fill-rule:evenodd;"
points="22381,38651
22381,38336
22066,38336
22066,38651
22381,38651
" /> 
<polyline style="fill-rule:evenodd;"
points="23011,38651
23011,38336
22696,38336
22696,38651
23011,38651
" /> 
<polyline style="fill-rule:evenodd;"
points="23326,38651
23326,38336
23011,38336
23011,38651
23326,38651
" /> 
<polyline style="fill-rule:evenodd;"
points="25216,38651
25216,38336
24901,38336
24901,38651
25216,38651
" /> 
<polyline style="fill-rule:evenodd;"
points="25530,38651
25530,38336
25216,38336
25216,38651
25530,38651
" /> 
<polyline style="fill-rule:evenodd;"
points="26160,38651
26160,38336
25845,38336
25845,38651
26160,38651
" /> 
<polyline style="fill-rule:evenodd;"
points="26790,38651
26790,38336
26475,38336
26475,38651
26790,38651
" /> 
<polyline style="fill-rule:evenodd;"
points="27420,38651
27420,38336
27105,38336
27105,38651
27420,38651
" /> 
<polyline style="fill-rule:evenodd;"
points="28050,38651
28050,38336
27735,38336
27735,38651
28050,38651
" /> 
<polyline style="fill-rule:evenodd;"
points="28680,38651
28680,38336
28365,38336
28365,38651
28680,38651
" /> 
<polyline style="fill-rule:evenodd;"
points="19861,38966
19861,38651
19546,38651
19546,38966
19861,38966
" /> 
<polyline style="fill-rule:evenodd;"
points="20491,38966
20491,38651
20176,38651
20176,38966
20491,38966
" /> 
<polyline style="fill-rule:evenodd;"
points="21121,38966
21121,38651
20806,38651
20806,38966
21121,38966
" /> 
<polyline style="fill-rule:evenodd;"
points="21751,38966
21751,38651
21436,38651
21436,38966
21751,38966
" /> 
<polyline style="fill-rule:evenodd;"
points="23326,38966
23326,38651
23011,38651
23011,38966
23326,38966
" /> 
<polyline style="fill-rule:evenodd;"
points="24271,38966
24271,38651
23956,38651
23956,38966
24271,38966
" /> 
<polyline style="fill-rule:evenodd;"
points="25216,38966
25216,38651
24901,38651
24901,38966
25216,38966
" /> 
<polyline style="fill-rule:evenodd;"
points="26160,38966
26160,38651
25845,38651
25845,38966
26160,38966
" /> 
<polyline style="fill-rule:evenodd;"
points="26475,38966
26475,38651
26160,38651
26160,38966
26475,38966
" /> 
<polyline style="fill-rule:evenodd;"
points="26790,38966
26790,38651
26475,38651
26475,38966
26790,38966
" /> 
<polyline style="fill-rule:evenodd;"
points="27735,38966
27735,38651
27420,38651
27420,38966
27735,38966
" /> 
<polyline style="fill-rule:evenodd;"
points="28365,38966
28365,38651
28050,38651
28050,38966
28365,38966
" /> 
<polyline style="fill-rule:evenodd;"
points="28680,38966
28680,38651
28365,38651
28365,38966
28680,38966
" /> 
<polyline style="fill-rule:evenodd;"
points="18601,39281
18601,38966
18286,38966
18286,39281
18601,39281
" /> 
<polyline style="fill-rule:evenodd;"
points="19231,39281
19231,38966
18916,38966
18916,39281
19231,39281
" /> 
<polyline style="fill-rule:evenodd;"
points="19546,39281
19546,38966
19231,38966
19231,39281
19546,39281
" /> 
<polyline style="fill-rule:evenodd;"
points="20176,39281
20176,38966
19861,38966
19861,39281
20176,39281
" /> 
<polyline style="fill-rule:evenodd;"
points="20806,39281
20806,38966
20491,38966
20491,39281
20806,39281
" /> 
<polyline style="fill-rule:evenodd;"
points="21436,39281
21436,38966
21121,38966
21121,39281
21436,39281
" /> 
<polyline style="fill-rule:evenodd;"
points="23326,39281
23326,38966
23011,38966
23011,39281
23326,39281
" /> 
<polyline style="fill-rule:evenodd;"
points="23641,39281
23641,38966
23326,38966
23326,39281
23641,39281
" /> 
<polyline style="fill-rule:evenodd;"
points="23956,39281
23956,38966
23641,38966
23641,39281
23956,39281
" /> 
<polyline style="fill-rule:evenodd;"
points="24901,39281
24901,38966
24586,38966
24586,39281
24901,39281
" /> 
<polyline style="fill-rule:evenodd;"
points="25530,39281
25530,38966
25216,38966
25216,39281
25530,39281
" /> 
<polyline style="fill-rule:evenodd;"
points="27105,39281
27105,38966
26790,38966
26790,39281
27105,39281
" /> 
<polyline style="fill-rule:evenodd;"
points="28050,39281
28050,38966
27735,38966
27735,39281
28050,39281
" /> 
<polyline style="fill-rule:evenodd;"
points="28365,39281
28365,38966
28050,38966
28050,39281
28365,39281
" /> 
<polyline style="fill-rule:evenodd;"
points="28680,39281
28680,38966
28365,38966
28365,39281
28680,39281
" /> 
<polyline style="fill-rule:evenodd;"
points="18601,39596
18601,39281
18286,39281
18286,39596
18601,39596
" /> 
<polyline style="fill-rule:evenodd;"
points="19861,39596
19861,39281
19546,39281
19546,39596
19861,39596
" /> 
<polyline style="fill-rule:evenodd;"
points="20491,39596
20491,39281
20176,39281
20176,39596
20491,39596
" /> 
<polyline style="fill-rule:evenodd;"
points="21751,39596
21751,39281
21436,39281
21436,39596
21751,39596
" /> 
<polyline style="fill-rule:evenodd;"
points="22066,39596
22066,39281
21751,39281
21751,39596
22066,39596
" /> 
<polyline style="fill-rule:evenodd;"
points="22696,39596
22696,39281
22381,39281
22381,39596
22696,39596
" /> 
<polyline style="fill-rule:evenodd;"
points="23956,39596
23956,39281
23641,39281
23641,39596
23956,39596
" /> 
<polyline style="fill-rule:evenodd;"
points="24586,39596
24586,39281
24271,39281
24271,39596
24586,39596
" /> 
<polyline style="fill-rule:evenodd;"
points="25530,39596
25530,39281
25216,39281
25216,39596
25530,39596
" /> 
<polyline style="fill-rule:evenodd;"
points="25845,39596
25845,39281
25530,39281
25530,39596
25845,39596
" /> 
<polyline style="fill-rule:evenodd;"
points="26160,39596
26160,39281
25845,39281
25845,39596
26160,39596
" /> 
<polyline style="fill-rule:evenodd;"
points="27735,39596
27735,39281
27420,39281
27420,39596
27735,39596
" /> 
<polyline style="fill-rule:evenodd;"
points="28050,39596
28050,39281
27735,39281
27735,39596
28050,39596
" /> 
<polyline style="fill-rule:evenodd;"
points="18601,39911
18601,39596
18286,39596
18286,39911
18601,39911
" /> 
<polyline style="fill-rule:evenodd;"
points="19546,39911
19546,39596
19231,39596
19231,39911
19546,39911
" /> 
<polyline style="fill-rule:evenodd;"
points="19861,39911
19861,39596
19546,39596
19546,39911
19861,39911
" /> 
<polyline style="fill-rule:evenodd;"
points="20806,39911
20806,39596
20491,39596
20491,39911
20806,39911
" /> 
<polyline style="fill-rule:evenodd;"
points="21436,39911
21436,39596
21121,39596
21121,39911
21436,39911
" /> 
<polyline style="fill-rule:evenodd;"
points="22066,39911
22066,39596
21751,39596
21751,39911
22066,39911
" /> 
<polyline style="fill-rule:evenodd;"
points="22381,39911
22381,39596
22066,39596
22066,39911
22381,39911
" /> 
<polyline style="fill-rule:evenodd;"
points="22696,39911
22696,39596
22381,39596
22381,39911
22696,39911
" /> 
<polyline style="fill-rule:evenodd;"
points="23011,39911
23011,39596
22696,39596
22696,39911
23011,39911
" /> 
<polyline style="fill-rule:evenodd;"
points="23641,39911
23641,39596
23326,39596
23326,39911
23641,39911
" /> 
<polyline style="fill-rule:evenodd;"
points="23956,39911
23956,39596
23641,39596
23641,39911
23956,39911
" /> 
<polyline style="fill-rule:evenodd;"
points="24271,39911
24271,39596
23956,39596
23956,39911
24271,39911
" /> 
<polyline style="fill-rule:evenodd;"
points="24586,39911
24586,39596
24271,39596
24271,39911
24586,39911
" /> 
<polyline style="fill-rule:evenodd;"
points="24901,39911
24901,39596
24586,39596
24586,39911
24901,39911
" /> 
<polyline style="fill-rule:evenodd;"
points="25845,39911
25845,39596
25530,39596
25530,39911
25845,39911
" /> 
<polyline style="fill-rule:evenodd;"
points="26475,39911
26475,39596
26160,39596
26160,39911
26475,39911
" /> 
<polyline style="fill-rule:evenodd;"
points="27105,39911
27105,39596
26790,39596
26790,39911
27105,39911
" /> 
<polyline style="fill-rule:evenodd;"
points="28050,39911
28050,39596
27735,39596
27735,39911
28050,39911
" /> 
<polyline style="fill-rule:evenodd;"
points="28365,39911
28365,39596
28050,39596
28050,39911
28365,39911
" /> 
<polyline style="fill-rule:evenodd;"
points="18601,40225
18601,39911
18286,39911
18286,40225
18601,40225
" /> 
<polyline style="fill-rule:evenodd;"
points="19546,40225
19546,39911
19231,39911
19231,40225
19546,40225
" /> 
<polyline style="fill-rule:evenodd;"
points="20176,40225
20176,39911
19861,39911
19861,40225
20176,40225
" /> 
<polyline style="fill-rule:evenodd;"
points="20491,40225
20491,39911
20176,39911
20176,40225
20491,40225
" /> 
<polyline style="fill-rule:evenodd;"
points="20806,40225
20806,39911
20491,39911
20491,40225
20806,40225
" /> 
<polyline style="fill-rule:evenodd;"
points="21121,40225
21121,39911
20806,39911
20806,40225
21121,40225
" /> 
<polyline style="fill-rule:evenodd;"
points="22381,40225
22381,39911
22066,39911
22066,40225
22381,40225
" /> 
<polyline style="fill-rule:evenodd;"
points="22696,40225
22696,39911
22381,39911
22381,40225
22696,40225
" /> 
<polyline style="fill-rule:evenodd;"
points="23011,40225
23011,39911
22696,39911
22696,40225
23011,40225
" /> 
<polyline style="fill-rule:evenodd;"
points="24586,40225
24586,39911
24271,39911
24271,40225
24586,40225
" /> 
<polyline style="fill-rule:evenodd;"
points="25216,40225
25216,39911
24901,39911
24901,40225
25216,40225
" /> 
<polyline style="fill-rule:evenodd;"
points="25530,40225
25530,39911
25216,39911
25216,40225
25530,40225
" /> 
<polyline style="fill-rule:evenodd;"
points="25845,40225
25845,39911
25530,39911
25530,40225
25845,40225
" /> 
<polyline style="fill-rule:evenodd;"
points="26160,40225
26160,39911
25845,39911
25845,40225
26160,40225
" /> 
<polyline style="fill-rule:evenodd;"
points="26475,40225
26475,39911
26160,39911
26160,40225
26475,40225
" /> 
<polyline style="fill-rule:evenodd;"
points="26790,40225
26790,39911
26475,39911
26475,40225
26790,40225
" /> 
<polyline style="fill-rule:evenodd;"
points="27105,40225
27105,39911
26790,39911
26790,40225
27105,40225
" /> 
<polyline style="fill-rule:evenodd;"
points="27420,40225
27420,39911
27105,39911
27105,40225
27420,40225
" /> 
<polyline style="fill-rule:evenodd;"
points="27735,40225
27735,39911
27420,39911
27420,40225
27735,40225
" /> 
<polyline style="fill-rule:evenodd;"
points="28050,40225
28050,39911
27735,39911
27735,40225
28050,40225
" /> 
<polyline style="fill-rule:evenodd;"
points="28365,40225
28365,39911
28050,39911
28050,40225
28365,40225
" /> 
<polyline style="fill-rule:evenodd;"
points="21121,40540
21121,40225
20806,40225
20806,40540
21121,40540
" /> 
<polyline style="fill-rule:evenodd;"
points="21751,40540
21751,40225
21436,40225
21436,40540
21751,40540
" /> 
<polyline style="fill-rule:evenodd;"
points="22066,40540
22066,40225
21751,40225
21751,40540
22066,40540
" /> 
<polyline style="fill-rule:evenodd;"
points="22696,40540
22696,40225
22381,40225
22381,40540
22696,40540
" /> 
<polyline style="fill-rule:evenodd;"
points="23326,40540
23326,40225
23011,40225
23011,40540
23326,40540
" /> 
<polyline style="fill-rule:evenodd;"
points="23641,40540
23641,40225
23326,40225
23326,40540
23641,40540
" /> 
<polyline style="fill-rule:evenodd;"
points="23956,40540
23956,40225
23641,40225
23641,40540
23956,40540
" /> 
<polyline style="fill-rule:evenodd;"
points="24271,40540
24271,40225
23956,40225
23956,40540
24271,40540
" /> 
<polyline style="fill-rule:evenodd;"
points="24901,40540
24901,40225
24586,40225
24586,40540
24901,40540
" /> 
<polyline style="fill-rule:evenodd;"
points="26160,40540
26160,40225
25845,40225
25845,40540
26160,40540
" /> 
<polyline style="fill-rule:evenodd;"
points="27420,40540
27420,40225
27105,40225
27105,40540
27420,40540
" /> 
<polyline style="fill-rule:evenodd;"
points="27735,40540
27735,40225
27420,40225
27420,40540
27735,40540
" /> 
<polyline style="fill-rule:evenodd;"
points="28050,40540
28050,40225
27735,40225
27735,40540
28050,40540
" /> 
<polyline style="fill-rule:evenodd;"
points="28365,40540
28365,40225
28050,40225
28050,40540
28365,40540
" /> 
<polyline style="fill-rule:evenodd;"
points="18601,40855
18601,40540
18286,40540
18286,40855
18601,40855
" /> 
<polyline style="fill-rule:evenodd;"
points="18916,40855
18916,40540
18601,40540
18601,40855
18916,40855
" /> 
<polyline style="fill-rule:evenodd;"
points="19231,40855
19231,40540
18916,40540
18916,40855
19231,40855
" /> 
<polyline style="fill-rule:evenodd;"
points="19546,40855
19546,40540
19231,40540
19231,40855
19546,40855
" /> 
<polyline style="fill-rule:evenodd;"
points="19861,40855
19861,40540
19546,40540
19546,40855
19861,40855
" /> 
<polyline style="fill-rule:evenodd;"
points="20176,40855
20176,40540
19861,40540
19861,40855
20176,40855
" /> 
<polyline style="fill-rule:evenodd;"
points="20491,40855
20491,40540
20176,40540
20176,40855
20491,40855
" /> 
<polyline style="fill-rule:evenodd;"
points="21751,40855
21751,40540
21436,40540
21436,40855
21751,40855
" /> 
<polyline style="fill-rule:evenodd;"
points="22381,40855
22381,40540
22066,40540
22066,40855
22381,40855
" /> 
<polyline style="fill-rule:evenodd;"
points="23011,40855
23011,40540
22696,40540
22696,40855
23011,40855
" /> 
<polyline style="fill-rule:evenodd;"
points="23956,40855
23956,40540
23641,40540
23641,40855
23956,40855
" /> 
<polyline style="fill-rule:evenodd;"
points="24586,40855
24586,40540
24271,40540
24271,40855
24586,40855
" /> 
<polyline style="fill-rule:evenodd;"
points="25530,40855
25530,40540
25216,40540
25216,40855
25530,40855
" /> 
<polyline style="fill-rule:evenodd;"
points="26160,40855
26160,40540
25845,40540
25845,40855
26160,40855
" /> 
<polyline style="fill-rule:evenodd;"
points="26790,40855
26790,40540
26475,40540
26475,40855
26790,40855
" /> 
<polyline style="fill-rule:evenodd;"
points="27420,40855
27420,40540
27105,40540
27105,40855
27420,40855
" /> 
<polyline style="fill-rule:evenodd;"
points="18601,41170
18601,40855
18286,40855
18286,41170
18601,41170
" /> 
<polyline style="fill-rule:evenodd;"
points="20491,41170
20491,40855
20176,40855
20176,41170
20491,41170
" /> 
<polyline style="fill-rule:evenodd;"
points="21121,41170
21121,40855
20806,40855
20806,41170
21121,41170
" /> 
<polyline style="fill-rule:evenodd;"
points="22066,41170
22066,40855
21751,40855
21751,41170
22066,41170
" /> 
<polyline style="fill-rule:evenodd;"
points="22381,41170
22381,40855
22066,40855
22066,41170
22381,41170
" /> 
<polyline style="fill-rule:evenodd;"
points="22696,41170
22696,40855
22381,40855
22381,41170
22696,41170
" /> 
<polyline style="fill-rule:evenodd;"
points="23011,41170
23011,40855
22696,40855
22696,41170
23011,41170
" /> 
<polyline style="fill-rule:evenodd;"
points="23641,41170
23641,40855
23326,40855
23326,41170
23641,41170
" /> 
<polyline style="fill-rule:evenodd;"
points="23956,41170
23956,40855
23641,40855
23641,41170
23956,41170
" /> 
<polyline style="fill-rule:evenodd;"
points="24271,41170
24271,40855
23956,40855
23956,41170
24271,41170
" /> 
<polyline style="fill-rule:evenodd;"
points="24586,41170
24586,40855
24271,40855
24271,41170
24586,41170
" /> 
<polyline style="fill-rule:evenodd;"
points="24901,41170
24901,40855
24586,40855
24586,41170
24901,41170
" /> 
<polyline style="fill-rule:evenodd;"
points="25845,41170
25845,40855
25530,40855
25530,41170
25845,41170
" /> 
<polyline style="fill-rule:evenodd;"
points="26160,41170
26160,40855
25845,40855
25845,41170
26160,41170
" /> 
<polyline style="fill-rule:evenodd;"
points="27420,41170
27420,40855
27105,40855
27105,41170
27420,41170
" /> 
<polyline style="fill-rule:evenodd;"
points="28050,41170
28050,40855
27735,40855
27735,41170
28050,41170
" /> 
<polyline style="fill-rule:evenodd;"
points="28365,41170
28365,40855
28050,40855
28050,41170
28365,41170
" /> 
<polyline style="fill-rule:evenodd;"
points="18601,41485
18601,41170
18286,41170
18286,41485
18601,41485
" /> 
<polyline style="fill-rule:evenodd;"
points="19231,41485
19231,41170
18916,41170
18916,41485
19231,41485
" /> 
<polyline style="fill-rule:evenodd;"
points="19546,41485
19546,41170
19231,41170
19231,41485
19546,41485
" /> 
<polyline style="fill-rule:evenodd;"
points="19861,41485
19861,41170
19546,41170
19546,41485
19861,41485
" /> 
<polyline style="fill-rule:evenodd;"
points="20491,41485
20491,41170
20176,41170
20176,41485
20491,41485
" /> 
<polyline style="fill-rule:evenodd;"
points="21121,41485
21121,41170
20806,41170
20806,41485
21121,41485
" /> 
<polyline style="fill-rule:evenodd;"
points="21436,41485
21436,41170
21121,41170
21121,41485
21436,41485
" /> 
<polyline style="fill-rule:evenodd;"
points="22066,41485
22066,41170
21751,41170
21751,41485
22066,41485
" /> 
<polyline style="fill-rule:evenodd;"
points="23011,41485
23011,41170
22696,41170
22696,41485
23011,41485
" /> 
<polyline style="fill-rule:evenodd;"
points="23641,41485
23641,41170
23326,41170
23326,41485
23641,41485
" /> 
<polyline style="fill-rule:evenodd;"
points="24586,41485
24586,41170
24271,41170
24271,41485
24586,41485
" /> 
<polyline style="fill-rule:evenodd;"
points="24901,41485
24901,41170
24586,41170
24586,41485
24901,41485
" /> 
<polyline style="fill-rule:evenodd;"
points="25216,41485
25216,41170
24901,41170
24901,41485
25216,41485
" /> 
<polyline style="fill-rule:evenodd;"
points="25530,41485
25530,41170
25216,41170
25216,41485
25530,41485
" /> 
<polyline style="fill-rule:evenodd;"
points="25845,41485
25845,41170
25530,41170
25530,41485
25845,41485
" /> 
<polyline style="fill-rule:evenodd;"
points="26160,41485
26160,41170
25845,41170
25845,41485
26160,41485
" /> 
<polyline style="fill-rule:evenodd;"
points="26475,41485
26475,41170
26160,41170
26160,41485
26475,41485
" /> 
<polyline style="fill-rule:evenodd;"
points="26790,41485
26790,41170
26475,41170
26475,41485
26790,41485
" /> 
<polyline style="fill-rule:evenodd;"
points="27105,41485
27105,41170
26790,41170
26790,41485
27105,41485
" /> 
<polyline style="fill-rule:evenodd;"
points="27420,41485
27420,41170
27105,41170
27105,41485
27420,41485
" /> 
<polyline style="fill-rule:evenodd;"
points="27735,41485
27735,41170
27420,41170
27420,41485
27735,41485
" /> 
<polyline style="fill-rule:evenodd;"
points="18601,41800
18601,41485
18286,41485
18286,41800
18601,41800
" /> 
<polyline style="fill-rule:evenodd;"
points="19231,41800
19231,41485
18916,41485
18916,41800
19231,41800
" /> 
<polyline style="fill-rule:evenodd;"
points="19546,41800
19546,41485
19231,41485
19231,41800
19546,41800
" /> 
<polyline style="fill-rule:evenodd;"
points="19861,41800
19861,41485
19546,41485
19546,41800
19861,41800
" /> 
<polyline style="fill-rule:evenodd;"
points="20491,41800
20491,41485
20176,41485
20176,41800
20491,41800
" /> 
<polyline style="fill-rule:evenodd;"
points="21121,41800
21121,41485
20806,41485
20806,41800
21121,41800
" /> 
<polyline style="fill-rule:evenodd;"
points="21436,41800
21436,41485
21121,41485
21121,41800
21436,41800
" /> 
<polyline style="fill-rule:evenodd;"
points="23011,41800
23011,41485
22696,41485
22696,41800
23011,41800
" /> 
<polyline style="fill-rule:evenodd;"
points="23326,41800
23326,41485
23011,41485
23011,41800
23326,41800
" /> 
<polyline style="fill-rule:evenodd;"
points="24271,41800
24271,41485
23956,41485
23956,41800
24271,41800
" /> 
<polyline style="fill-rule:evenodd;"
points="25216,41800
25216,41485
24901,41485
24901,41800
25216,41800
" /> 
<polyline style="fill-rule:evenodd;"
points="27105,41800
27105,41485
26790,41485
26790,41800
27105,41800
" /> 
<polyline style="fill-rule:evenodd;"
points="27735,41800
27735,41485
27420,41485
27420,41800
27735,41800
" /> 
<polyline style="fill-rule:evenodd;"
points="18601,42115
18601,41800
18286,41800
18286,42115
18601,42115
" /> 
<polyline style="fill-rule:evenodd;"
points="19231,42115
19231,41800
18916,41800
18916,42115
19231,42115
" /> 
<polyline style="fill-rule:evenodd;"
points="19546,42115
19546,41800
19231,41800
19231,42115
19546,42115
" /> 
<polyline style="fill-rule:evenodd;"
points="19861,42115
19861,41800
19546,41800
19546,42115
19861,42115
" /> 
<polyline style="fill-rule:evenodd;"
points="20491,42115
20491,41800
20176,41800
20176,42115
20491,42115
" /> 
<polyline style="fill-rule:evenodd;"
points="21121,42115
21121,41800
20806,41800
20806,42115
21121,42115
" /> 
<polyline style="fill-rule:evenodd;"
points="21436,42115
21436,41800
21121,41800
21121,42115
21436,42115
" /> 
<polyline style="fill-rule:evenodd;"
points="21751,42115
21751,41800
21436,41800
21436,42115
21751,42115
" /> 
<polyline style="fill-rule:evenodd;"
points="22066,42115
22066,41800
21751,41800
21751,42115
22066,42115
" /> 
<polyline style="fill-rule:evenodd;"
points="22381,42115
22381,41800
22066,41800
22066,42115
22381,42115
" /> 
<polyline style="fill-rule:evenodd;"
points="23011,42115
23011,41800
22696,41800
22696,42115
23011,42115
" /> 
<polyline style="fill-rule:evenodd;"
points="23326,42115
23326,41800
23011,41800
23011,42115
23326,42115
" /> 
<polyline style="fill-rule:evenodd;"
points="23641,42115
23641,41800
23326,41800
23326,42115
23641,42115
" /> 
<polyline style="fill-rule:evenodd;"
points="24271,42115
24271,41800
23956,41800
23956,42115
24271,42115
" /> 
<polyline style="fill-rule:evenodd;"
points="24901,42115
24901,41800
24586,41800
24586,42115
24901,42115
" /> 
<polyline style="fill-rule:evenodd;"
points="25216,42115
25216,41800
24901,41800
24901,42115
25216,42115
" /> 
<polyline style="fill-rule:evenodd;"
points="25845,42115
25845,41800
25530,41800
25530,42115
25845,42115
" /> 
<polyline style="fill-rule:evenodd;"
points="26475,42115
26475,41800
26160,41800
26160,42115
26475,42115
" /> 
<polyline style="fill-rule:evenodd;"
points="27105,42115
27105,41800
26790,41800
26790,42115
27105,42115
" /> 
<polyline style="fill-rule:evenodd;"
points="18601,42430
18601,42115
18286,42115
18286,42430
18601,42430
" /> 
<polyline style="fill-rule:evenodd;"
points="20491,42430
20491,42115
20176,42115
20176,42430
20491,42430
" /> 
<polyline style="fill-rule:evenodd;"
points="21436,42430
21436,42115
21121,42115
21121,42430
21436,42430
" /> 
<polyline style="fill-rule:evenodd;"
points="21751,42430
21751,42115
21436,42115
21436,42430
21751,42430
" /> 
<polyline style="fill-rule:evenodd;"
points="22381,42430
22381,42115
22066,42115
22066,42430
22381,42430
" /> 
<polyline style="fill-rule:evenodd;"
points="22696,42430
22696,42115
22381,42115
22381,42430
22696,42430
" /> 
<polyline style="fill-rule:evenodd;"
points="23326,42430
23326,42115
23011,42115
23011,42430
23326,42430
" /> 
<polyline style="fill-rule:evenodd;"
points="25216,42430
25216,42115
24901,42115
24901,42430
25216,42430
" /> 
<polyline style="fill-rule:evenodd;"
points="25530,42430
25530,42115
25216,42115
25216,42430
25530,42430
" /> 
<polyline style="fill-rule:evenodd;"
points="25845,42430
25845,42115
25530,42115
25530,42430
25845,42430
" /> 
<polyline style="fill-rule:evenodd;"
points="26160,42430
26160,42115
25845,42115
25845,42430
26160,42430
" /> 
<polyline style="fill-rule:evenodd;"
points="27420,42430
27420,42115
27105,42115
27105,42430
27420,42430
" /> 
<polyline style="fill-rule:evenodd;"
points="27735,42430
27735,42115
27420,42115
27420,42430
27735,42430
" /> 
<polyline style="fill-rule:evenodd;"
points="18601,42745
18601,42430
18286,42430
18286,42745
18601,42745
" /> 
<polyline style="fill-rule:evenodd;"
points="18916,42745
18916,42430
18601,42430
18601,42745
18916,42745
" /> 
<polyline style="fill-rule:evenodd;"
points="19231,42745
19231,42430
18916,42430
18916,42745
19231,42745
" /> 
<polyline style="fill-rule:evenodd;"
points="19546,42745
19546,42430
19231,42430
19231,42745
19546,42745
" /> 
<polyline style="fill-rule:evenodd;"
points="19861,42745
19861,42430
19546,42430
19546,42745
19861,42745
" /> 
<polyline style="fill-rule:evenodd;"
points="20176,42745
20176,42430
19861,42430
19861,42745
20176,42745
" /> 
<polyline style="fill-rule:evenodd;"
points="20491,42745
20491,42430
20176,42430
20176,42745
20491,42745
" /> 
<polyline style="fill-rule:evenodd;"
points="21121,42745
21121,42430
20806,42430
20806,42745
21121,42745
" /> 
<polyline style="fill-rule:evenodd;"
points="22066,42745
22066,42430
21751,42430
21751,42745
22066,42745
" /> 
<polyline style="fill-rule:evenodd;"
points="22381,42745
22381,42430
22066,42430
22066,42745
22381,42745
" /> 
<polyline style="fill-rule:evenodd;"
points="23011,42745
23011,42430
22696,42430
22696,42745
23011,42745
" /> 
<polyline style="fill-rule:evenodd;"
points="23326,42745
23326,42430
23011,42430
23011,42745
23326,42745
" /> 
<polyline style="fill-rule:evenodd;"
points="23641,42745
23641,42430
23326,42430
23326,42745
23641,42745
" /> 
<polyline style="fill-rule:evenodd;"
points="24271,42745
24271,42430
23956,42430
23956,42745
24271,42745
" /> 
<polyline style="fill-rule:evenodd;"
points="24901,42745
24901,42430
24586,42430
24586,42745
24901,42745
" /> 
<polyline style="fill-rule:evenodd;"
points="25216,42745
25216,42430
24901,42430
24901,42745
25216,42745
" /> 
<polyline style="fill-rule:evenodd;"
points="26160,42745
26160,42430
25845,42430
25845,42745
26160,42745
" /> 
<polyline style="fill-rule:evenodd;"
points="26475,42745
26475,42430
26160,42430
26160,42745
26475,42745
" /> 
<polyline style="fill-rule:evenodd;"
points="27105,42745
27105,42430
26790,42430
26790,42745
27105,42745
" /> 
<polyline style="fill-rule:evenodd;"
points="28050,42745
28050,42430
27735,42430
27735,42745
28050,42745
" /> 
<polyline style="fill-rule:evenodd;"
points="28365,42745
28365,42430
28050,42430
28050,42745
28365,42745
" /> 
</g>
<g style="fill:#000000; fill-opacity:1.0; 
stroke:#000000; stroke-width:94.4882; stroke-opacity:1; 
stroke-linecap:round; stroke-linejoin:round;">
</g>
<g style="fill:#000000; fill-opacity:0.0; 
stroke:#000000; stroke-width:94.4882; stroke-opacity:1; 
stroke-linecap:round; stroke-linejoin:round;">
<path d="M53975 20674
L57912 20674
" />
<path d="M58345.3 21107.7 A433.071 433.071 0.0 0 0 57912.2 20674.6 " />
<path d="M53975.2 20674.6 A433.071 433.071 0.0 0 0 53542.2 21107.7 " />
<path d="M58345 21107
L58345 23036
" />
<path d="M53542 23036
L53542 21107
" />
<path d="M53153.6 23591.8 A590.551 590.551 0.0 0 0 53542.2 23036.9 " />
<path d="M58345.3 23036.9 A590.551 590.551 0.0 0 0 58733.9 23591.8 " />
<path d="M53172.1 23588 A11023.4 11023.4 0.0 0 0 55955.7 45280.7 " />
<path d="M55931.7 45280.7 A11023.4 11023.4 0.0 0 0 58715.4 23588 " />
<path d="M69488 29440
L68932 28883
" />
<path d="M69878 27937
L70435 28493
" />
<path d="M71818 29897
L72375 30453
" />
<path d="M71428 31400
L70872 30843
" />
</g>
<g style="fill:#000000; fill-opacity:0.0; 
stroke:#000000; stroke-width:118.11; stroke-opacity:1; 
stroke-linecap:round; stroke-linejoin:round;">
<path d="M25455 30592
L25683 30592
L25798 30649
L25855 30706
L25969 30878
L26026 31106
L26026 31563
L25969 31678
L25912 31735
L25798 31792
L25569 31792
L25455 31735
L25398 31678
L25340 31563
L25340 31278
L25398 31163
L25455 31106
L25569 31049
L25798 31049
L25912 31106
L25969 31163
L26026 31278
" />
<path d="M24312 31792
L24312 30592
" />
<path d="M24312 31735
L24426 31792
L24655 31792
L24769 31735
L24826 31678
L24883 31563
L24883 31221
L24826 31106
L24769 31049
L24655 30992
L24426 30992
L24312 31049
" />
<path d="M23283 31735
L23398 31792
L23626 31792
L23740 31735
L23798 31621
L23798 31163
L23740 31049
L23626 30992
L23398 30992
L23283 31049
L23226 31163
L23226 31278
L23798 31392
" />
<path d="M22198 30592
L22426 30592
L22540 30649
L22598 30706
L22712 30878
L22769 31106
L22769 31563
L22712 31678
L22655 31735
L22540 31792
L22312 31792
L22198 31735
L22140 31678
L22083 31563
L22083 31278
L22140 31163
L22198 31106
L22312 31049
L22540 31049
L22655 31106
L22712 31163
L22769 31278
" />
<path d="M21683 30592
L20940 30592
L21340 31049
L21169 31049
L21055 31106
L20998 31163
L20940 31278
L20940 31563
L20998 31678
L21055 31735
L21169 31792
L21512 31792
L21626 31735
L21683 31678
" />
<path d="M52344 20685
L52381 20798
L52419 20835
L52494 20873
L52606 20873
L52681 20835
L52719 20798
L52756 20723
L52756 20423
L51969 20423
L51969 20685
L52006 20760
L52044 20798
L52119 20835
L52194 20835
L52269 20798
L52306 20760
L52344 20685
L52344 20423
" />
<path d="M51969 21098
L51969 21548
" />
<path d="M52756 21323
L51969 21323
" />
<path d="M52044 21773
L52006 21810
L51969 21885
L51969 22073
L52006 22148
L52044 22185
L52119 22223
L52194 22223
L52306 22185
L52756 21735
L52756 22223
" />
<path d="M56028 24004
L56028 24904
" />
<path d="M56478 24454
L55578 24454
" />
<path d="M69007 30080
L69007 30133
L69060 30239
L69113 30292
L69219 30345
L69325 30345
L69405 30319
L69537 30239
L69617 30160
L69696 30027
L69723 29948
L69723 29842
L69670 29736
L69617 29683
L69511 29630
L69458 29630
" />
<path d="M69246 29417
L69246 29364
L69219 29285
L69087 29152
L69007 29126
L68954 29126
L68875 29152
L68822 29205
L68769 29311
L68769 29948
L68424 29603
" />
<path d="M67894 29073
L68212 29391
" />
<path d="M68053 29232
L68609 28675
L68583 28808
L68583 28914
L68609 28993
" />
<path d="M70947 32040
L70947 32093
L71000 32199
L71053 32252
L71159 32305
L71265 32305
L71345 32279
L71477 32199
L71557 32120
L71636 31987
L71663 31908
L71663 31802
L71610 31696
L71557 31643
L71451 31590
L71398 31590
" />
<path d="M71186 31377
L71186 31324
L71159 31245
L71027 31112
L70947 31086
L70894 31086
L70815 31112
L70762 31165
L70709 31271
L70709 31908
L70364 31563
" />
<path d="M70656 30847
L70656 30794
L70629 30715
L70496 30582
L70417 30556
L70364 30556
L70284 30582
L70231 30635
L70178 30741
L70178 31377
L69834 31033
" />
</g> 
</svg>
