<?xml version="1.0" standalone="no"?>
 <!DOCTYPE svg PUBLIC "-//W3C//DTD SVG 1.1//EN" 
 "http://www.w3.org/Graphics/SVG/1.1/DTD/svg11.dtd"> 
<svg xmlns="http://www.w3.org/2000/svg" version="1.1" 
    width="29.7002cm" height="21.0007cm" viewBox="0 0 116930 82680 ">
<title>SVG Picture created as ThermocoupleLogger-F_CrtYd.svg date 2019/03/14 17:10:03 </title>
  <desc>Picture generated by PCBNEW </desc>
<g style="fill:#000000; fill-opacity:1;stroke:#000000; stroke-opacity:1;
stroke-linecap:round; stroke-linejoin:round; "
 transform="translate(0 0) scale(1 1)">
</g>
<g style="fill:#000000; fill-opacity:0.0; 
stroke:#000000; stroke-width:-0.000787402; stroke-opacity:1; 
stroke-linecap:round; stroke-linejoin:round;">
</g>
<g style="fill:#000000; fill-opacity:0.0; 
stroke:#000000; stroke-width:157.48; stroke-opacity:1; 
stroke-linecap:round; stroke-linejoin:round;">
<path d="M30465 17956
L17748 17956
" />
<path d="M17748 63696
L96543 64088
" />
<path d="M96543 64090
L96543 59288
" />
<path d="M17743 59288
L17743 63688
" />
<path d="M83703 59248
L65463 59248
" />
<path d="M87433 59248
L96543 59264
" />
<path d="M87393 57248
L96483 57248
" />
<path d="M65463 57248
L83703 57248
" />
<path d="M61827 59258
L24467 59258
" />
<path d="M24473 57258
L61833 57258
" />
<path d="M20843 57268
L17743 57268
" />
<path d="M20813 59268
L17740 59287
" />
<path d="M20813.7 59268.8 A1000.2 1000.2 0.0 0 0 20836.3 57269.5 " />
<path d="M24483.7 57258.8 A1000 1000 0.0 0 0 24467.1 59258.7 " />
<path d="M61813.7 59258.8 A1000 1000 0.0 0 0 61835 57259 " />
<path d="M65463.7 57248.8 A1000.2 1000.2 0.0 1 0 65465.5 59248.8 " />
<path d="M83693.7 59248.8 A1000.2 1000.2 0.0 1 0 83713.7 57248.6 " />
<path d="M87384.5 57248.8 A1000.2 1000.2 0.0 0 0 87423.7 59248.8 " />
<path d="M91343.7 15888.8 A1000.8 1000.8 0.0 0 0 91383.7 17889.6 " />
<path d="M55123.7 17928.8 A1000.8 1000.8 0.0 1 0 55123.7 15928.8 " />
<path d="M17703 15908
L17703 15908
" />
<path d="M30463 15908
L17703 15908
" />
<path d="M34123 17928
L55123 17928
" />
<path d="M55103 15928
L34143 15928
" />
<path d="M30463.7 17948.8 A1020 1020 0.0 0 0 30463.7 15908.8 " />
<path d="M34143.7 15928.8 A1000.2 1000.2 0.0 1 0 34123.7 17929 " />
<path d="M87723 17918
L58893 17918
" />
<path d="M58743 15938
L87753 15938
" />
<path d="M58823.7 15928.8 A990.202 990.202 0.0 0 0 58863.7 17908.8 " />
<path d="M91394 17893
L96480 17901
" />
<path d="M96443 15888
L91343 15888
" />
<path d="M96443 10688
L96443 15888
" />
<path d="M87723.7 17928.8 A996 996 0.0 0 0 87731.8 15936.9 " />
<path d="M17703 10668
L96433 10673
" />
<path d="M17703 15908
L17703 10668
" />
<path d="M17743 57268
L17743 17958
" />
<path d="M96483 57248
L96483 17918
" />
</g>
<g style="fill:#000000; fill-opacity:0.0; 
stroke:#000000; stroke-width:39.3701; stroke-opacity:1; 
stroke-linecap:round; stroke-linejoin:round;">
<path d="M60939 27740
L63380 27740
" />
<path d="M60939 27740
L60939 29157
" />
<path d="M63380 29157
L63380 27740
" />
<path d="M63380 29157
L60939 29157
" />
<path d="M21769 23798
L19958 23798
" />
<path d="M19958 27499
L19958 23798
" />
<path d="M21769 27499
L19958 27499
" />
<path d="M21769 23798
L21769 27499
" />
<path d="M35606 18452
L41827 18452
" />
<path d="M35606 18452
L35606 22806
" />
<path d="M41827 22806
L41827 18452
" />
<path d="M41827 22806
L35606 22806
" />
<path d="M63321 32895
L60565 32895
" />
<path d="M63321 30218
L63321 32895
" />
<path d="M60565 30218
L63321 30218
" />
<path d="M60565 32895
L60565 30218
" />
<circle cx="20583.7" cy="20828.8" r="2322.83" /> 
<circle cx="93303.7" cy="20928.8" r="2322.83" /> 
<path d="M71592 22076
L75156 25639
" />
<path d="M73931 19737
L71592 22076
" />
<path d="M77494 23301
L73931 19737
" />
<path d="M75156 25639
L77494 23301
" />
<path d="M41827 27485
L35606 27485
" />
<path d="M41827 27485
L41827 23131
" />
<path d="M35606 23131
L35606 27485
" />
<path d="M35606 23131
L41827 23131
" />
<path d="M35488 18877
L30173 18877
" />
<path d="M30173 18877
L30173 25491
" />
<path d="M30173 25491
L35488 25491
" />
<path d="M35488 25491
L35488 18877
" />
<path d="M23965 27917
L18138 27917
" />
<path d="M23965 31460
L23965 27917
" />
<path d="M18138 31460
L23965 31460
" />
<path d="M18138 27917
L18138 31460
" />
<circle cx="27535.9" cy="12932.9" r="2165.35" /> 
<circle cx="82654" cy="12932.9" r="2165.35" /> 
<circle cx="27535.9" cy="60177" r="2165.35" /> 
<circle cx="90528" cy="60177" r="2165.35" /> 
<path d="M77630 29225
L83457 29225
" />
<path d="M77630 21351
L77630 29225
" />
<path d="M83457 21351
L77630 21351
" />
<path d="M83457 29225
L83457 21351
" />
<path d="M69517 25201
L63615 31103
" />
<path d="M75419 31103
L69517 37005
" />
<path d="M69517 37005
L63615 31103
" />
<path d="M75419 31103
L69517 25201
" />
<path d="M93831 24704
L96587 24704
" />
<path d="M93831 23917
L93831 24704
" />
<path d="M91665 23917
L93831 23917
" />
<path d="M91665 24704
L91665 23917
" />
<path d="M85957 24704
L91665 24704
" />
<path d="M85957 24507
L85957 24704
" />
<path d="M84382 24507
L85957 24507
" />
<path d="M84382 26279
L84382 24507
" />
<path d="M84972 26279
L84382 26279
" />
<path d="M84972 28641
L84972 26279
" />
<path d="M83988 28641
L84972 28641
" />
<path d="M83988 36515
L83988 28641
" />
<path d="M84382 36515
L83988 36515
" />
<path d="M84382 37696
L84382 36515
" />
<path d="M85957 37696
L84382 37696
" />
<path d="M85957 36909
L85957 37696
" />
<path d="M91665 36909
L85957 36909
" />
<path d="M91665 37696
L91665 36909
" />
<path d="M93831 37696
L91665 37696
" />
<path d="M93831 36909
L93831 37696
" />
<path d="M96587 36909
L93831 36909
" />
<path d="M33939 30125
L33939 36740
" />
<path d="M39254 30125
L33939 30125
" />
<path d="M39254 36740
L39254 30125
" />
<path d="M33939 36740
L39254 36740
" />
<path d="M62546 19063
L62546 23906
" />
<path d="M69357 19063
L62546 19063
" />
<path d="M69357 23906
L69357 19063
" />
<path d="M62546 23906
L69357 23906
" />
<path d="M74022 25478
L72073 27427
" />
<path d="M74022 25478
L73047 24504
" />
<path d="M71098 26453
L72073 27427
" />
<path d="M71098 26453
L73047 24504
" />
<path d="M69958 25233
L71907 23284
" />
<path d="M69958 25233
L70933 26207
" />
<path d="M72882 24258
L71907 23284
" />
<path d="M72882 24258
L70933 26207
" />
<path d="M51713 25978
L51713 34876
" />
<path d="M60374 25978
L60374 34876
" />
<path d="M60374 34876
L51713 34876
" />
<path d="M60374 25978
L51713 25978
" />
<path d="M83128 31750
L83128 34506
" />
<path d="M83128 31750
L81750 31750
" />
<path d="M81750 34506
L83128 34506
" />
<path d="M81750 34506
L81750 31750
" />
<path d="M77750 34519
L77750 31763
" />
<path d="M77750 34519
L79128 34519
" />
<path d="M79128 31763
L77750 31763
" />
<path d="M79128 31763
L79128 34519
" />
<path d="M83152 34708
L83152 37149
" />
<path d="M83152 34708
L81735 34708
" />
<path d="M81735 37149
L83152 37149
" />
<path d="M81735 37149
L81735 34708
" />
<path d="M77735 37149
L77735 34708
" />
<path d="M77735 37149
L79152 37149
" />
<path d="M79152 34708
L77735 34708
" />
<path d="M79152 34708
L79152 37149
" />
<path d="M79735 37149
L79735 34708
" />
<path d="M79735 37149
L81152 37149
" />
<path d="M81152 34708
L79735 34708
" />
<path d="M81152 34708
L81152 37149
" />
<path d="M81128 31750
L81128 34506
" />
<path d="M81128 31750
L79750 31750
" />
<path d="M79750 34506
L81128 34506
" />
<path d="M79750 34506
L79750 31750
" />
<path d="M76986 38191
L76986 41026
" />
<path d="M87813 38191
L76986 38191
" />
<path d="M87813 41026
L87813 38191
" />
<path d="M76986 41026
L87813 41026
" />
<path d="M63756 49388
L65331 49388
" />
<path d="M63756 51908
L65331 51908
" />
<path d="M65331 51908
L65331 49388
" />
<path d="M63756 51908
L63756 49388
" />
<path d="M41516 52148
L41516 49628
" />
<path d="M43091 52148
L43091 49628
" />
<path d="M41516 52148
L43091 52148
" />
<path d="M41516 49628
L43091 49628
" />
<path d="M72719 50671
L78034 50671
" />
<path d="M78034 50671
L78034 44057
" />
<path d="M78034 44057
L72719 44057
" />
<path d="M72719 44057
L72719 50671
" />
<path d="M52428 42373
L52428 53003
" />
<path d="M63058 42373
L52428 42373
" />
<path d="M63058 53003
L63058 42373
" />
<path d="M52428 53003
L63058 53003
" />
<path d="M70956 45336
L70956 42816
" />
<path d="M72531 45336
L72531 42816
" />
<path d="M70956 45336
L72531 45336
" />
<path d="M70956 42816
L72531 42816
" />
<path d="M47965 21003
L50721 21003
" />
<path d="M47965 21003
L47965 22381
" />
<path d="M50721 22381
L50721 21003
" />
<path d="M50721 22381
L47965 22381
" />
<path d="M50721 20781
L47965 20781
" />
<path d="M50721 20781
L50721 19403
" />
<path d="M47965 19403
L47965 20781
" />
<path d="M47965 19403
L50721 19403
" />
<path d="M50721 23973
L47965 23973
" />
<path d="M50721 23973
L50721 22595
" />
<path d="M47965 22595
L47965 23973
" />
<path d="M47965 22595
L50721 22595
" />
<path d="M63858 48466
L63858 45710
" />
<path d="M63858 48466
L65236 48466
" />
<path d="M65236 45710
L63858 45710
" />
<path d="M65236 45710
L65236 48466
" />
<path d="M71058 48679
L71058 45923
" />
<path d="M71058 48679
L72436 48679
" />
<path d="M72436 45923
L71058 45923
" />
<path d="M72436 45923
L72436 48679
" />
<path d="M78258 48366
L78258 45610
" />
<path d="M78258 48366
L79636 48366
" />
<path d="M79636 45610
L78258 45610
" />
<path d="M79636 45610
L79636 48366
" />
<path d="M86836 45590
L86836 48346
" />
<path d="M86836 45590
L85458 45590
" />
<path d="M85458 48346
L86836 48346
" />
<path d="M85458 48346
L85458 45590
" />
<path d="M28646 45910
L28646 48666
" />
<path d="M28646 45910
L27268 45910
" />
<path d="M27268 48666
L28646 48666
" />
<path d="M27268 48666
L27268 45910
" />
<path d="M35796 45910
L35796 48666
" />
<path d="M35796 45910
L34418 45910
" />
<path d="M34418 48666
L35796 48666
" />
<path d="M34418 48666
L34418 45910
" />
<path d="M41668 48688
L41668 45932
" />
<path d="M41668 48688
L43046 48688
" />
<path d="M43046 45932
L41668 45932
" />
<path d="M43046 45932
L43046 48688
" />
<path d="M49936 46210
L49936 48966
" />
<path d="M49936 46210
L48558 46210
" />
<path d="M48558 48966
L49936 48966
" />
<path d="M48558 48966
L48558 46210
" />
<path d="M63756 45348
L63756 42828
" />
<path d="M65331 45348
L65331 42828
" />
<path d="M63756 45348
L65331 45348
" />
<path d="M63756 42828
L65331 42828
" />
<path d="M70956 49577
L72531 49577
" />
<path d="M70956 52096
L72531 52096
" />
<path d="M72531 52096
L72531 49577
" />
<path d="M70956 52096
L70956 49577
" />
<path d="M78156 42428
L79731 42428
" />
<path d="M78156 44948
L79731 44948
" />
<path d="M79731 44948
L79731 42428
" />
<path d="M78156 44948
L78156 42428
" />
<path d="M78156 51748
L78156 49228
" />
<path d="M79731 51748
L79731 49228
" />
<path d="M78156 51748
L79731 51748
" />
<path d="M78156 49228
L79731 49228
" />
<path d="M85356 42480
L86931 42480
" />
<path d="M85356 45000
L86931 45000
" />
<path d="M86931 45000
L86931 42480
" />
<path d="M85356 45000
L85356 42480
" />
<path d="M85356 51748
L85356 49228
" />
<path d="M86931 51748
L86931 49228
" />
<path d="M85356 51748
L86931 51748
" />
<path d="M85356 49228
L86931 49228
" />
<path d="M27166 42828
L28740 42828
" />
<path d="M27166 45348
L28740 45348
" />
<path d="M28740 45348
L28740 42828
" />
<path d="M27166 45348
L27166 42828
" />
<path d="M27116 52148
L27116 49628
" />
<path d="M28691 52148
L28691 49628
" />
<path d="M27116 52148
L28691 52148
" />
<path d="M27116 49628
L28691 49628
" />
<path d="M34316 45348
L34316 42828
" />
<path d="M35891 45348
L35891 42828
" />
<path d="M34316 45348
L35891 45348
" />
<path d="M34316 42828
L35891 42828
" />
<path d="M34316 49628
L35891 49628
" />
<path d="M34316 52148
L35891 52148
" />
<path d="M35891 52148
L35891 49628
" />
<path d="M34316 52148
L34316 49628
" />
<path d="M41516 42828
L43091 42828
" />
<path d="M41516 45348
L43091 45348
" />
<path d="M43091 45348
L43091 42828
" />
<path d="M41516 45348
L41516 42828
" />
<path d="M49116 45348
L49116 42828
" />
<path d="M50691 45348
L50691 42828
" />
<path d="M49116 45348
L50691 45348
" />
<path d="M49116 42828
L50691 42828
" />
<path d="M49116 49628
L50691 49628
" />
<path d="M49116 52148
L50691 52148
" />
<path d="M50691 52148
L50691 49628
" />
<path d="M49116 52148
L49116 49628
" />
<path d="M18375 26817
L18375 24376
" />
<path d="M18375 26817
L19792 26817
" />
<path d="M19792 24376
L18375 24376
" />
<path d="M19792 24376
L19792 26817
" />
<path d="M30293 30079
L30293 27638
" />
<path d="M30293 30079
L31710 30079
" />
<path d="M31710 27638
L30293 27638
" />
<path d="M31710 27638
L31710 30079
" />
<path d="M63364 36397
L60923 36397
" />
<path d="M63364 36397
L63364 34980
" />
<path d="M60923 34980
L60923 36397
" />
<path d="M60923 34980
L63364 34980
" />
<path d="M75305 29452
L73579 27726
" />
<path d="M75305 29452
L76307 28450
" />
<path d="M74581 26724
L73579 27726
" />
<path d="M74581 26724
L76307 28450
" />
<path d="M79899 43797
L79899 50411
" />
<path d="M85214 43797
L79899 43797
" />
<path d="M85214 50411
L85214 43797
" />
<path d="M79899 50411
L85214 50411
" />
<path d="M87099 50411
L92414 50411
" />
<path d="M92414 50411
L92414 43797
" />
<path d="M92414 43797
L87099 43797
" />
<path d="M87099 43797
L87099 50411
" />
<path d="M21659 44165
L21659 50780
" />
<path d="M26974 44165
L21659 44165
" />
<path d="M26974 50780
L26974 44165
" />
<path d="M21659 50780
L26974 50780
" />
<path d="M28859 50811
L34174 50811
" />
<path d="M34174 50811
L34174 44197
" />
<path d="M34174 44197
L28859 44197
" />
<path d="M28859 44197
L28859 50811
" />
<path d="M36059 44197
L36059 50811
" />
<path d="M41374 44197
L36059 44197
" />
<path d="M41374 50811
L41374 44197
" />
<path d="M36059 50811
L41374 50811
" />
<path d="M43199 50760
L48514 50760
" />
<path d="M48514 50760
L48514 44145
" />
<path d="M48514 44145
L43199 44145
" />
<path d="M43199 44145
L43199 50760
" />
<path d="M39751 37989
L45577 37989
" />
<path d="M39751 30115
L39751 37989
" />
<path d="M45577 30115
L39751 30115
" />
<path d="M45577 37989
L45577 30115
" />
<path d="M65499 50411
L70814 50411
" />
<path d="M70814 50411
L70814 43797
" />
<path d="M70814 43797
L65499 43797
" />
<path d="M65499 43797
L65499 50411
" />
<path d="M59506 40974
L65380 40974
" />
<path d="M59506 36722
L65380 36722
" />
<path d="M65380 36722
L65380 40974
" />
<path d="M59506 36722
L59506 40974
" />
<path d="M51988 46210
L51988 48966
" />
<path d="M51988 46210
L50610 46210
" />
<path d="M50610 48966
L51988 48966
" />
<path d="M50610 48966
L50610 46210
" />
<path d="M41987 18352
L41987 27092
" />
<path d="M47499 18352
L41987 18352
" />
<path d="M47499 27092
L47499 18352
" />
<path d="M41987 27092
L47499 27092
" />
<path d="M47965 24550
L50721 24550
" />
<path d="M47965 27227
L47965 24550
" />
<path d="M50721 27227
L47965 27227
" />
<path d="M50721 24550
L50721 27227
" />
<path d="M87761 21106
L87761 18271
" />
<path d="M74926 21106
L87761 21106
" />
<path d="M74926 18271
L74926 21106
" />
<path d="M87761 18271
L74926 18271
" />
<path d="M60923 25980
L63364 25980
" />
<path d="M60923 25980
L60923 27397
" />
<path d="M63364 27397
L63364 25980
" />
<path d="M63364 27397
L60923 27397
" />
<path d="M69226 38171
L69226 41006
" />
<path d="M76037 38171
L69226 38171
" />
<path d="M76037 41006
L76037 38171
" />
<path d="M69226 41006
L76037 41006
" />
<path d="M23629 23798
L23629 27499
" />
<path d="M23629 27499
L21818 27499
" />
<path d="M21818 27499
L21818 23798
" />
<path d="M23629 23798
L21818 23798
" />
<path d="M67033 36647
L65084 34698
" />
<path d="M67033 36647
L68008 35673
" />
<path d="M66059 33724
L65084 34698
" />
<path d="M66059 33724
L68008 35673
" />
<path d="M82104 30717
L79663 30717
" />
<path d="M82104 30717
L82104 29300
" />
<path d="M79663 29300
L79663 30717
" />
<path d="M79663 29300
L82104 29300
" />
<path d="M85835 23909
L85835 21468
" />
<path d="M85835 23909
L87252 23909
" />
<path d="M87252 21468
L85835 21468
" />
<path d="M87252 21468
L87252 23909
" />
</g> 
</svg>
