<?xml version="1.0" standalone="no"?>
 <!DOCTYPE svg PUBLIC "-//W3C//DTD SVG 1.1//EN" 
 "http://www.w3.org/Graphics/SVG/1.1/DTD/svg11.dtd"> 
<svg xmlns="http://www.w3.org/2000/svg" version="1.1" 
    width="29.7002cm" height="21.0007cm" viewBox="0 0 116930 82680 ">
<title>SVG Picture created as ThermocoupleLogger-B_CrtYd.svg date 2019/03/15 21:00:30 </title>
  <desc>Picture generated by PCBNEW </desc>
<g style="fill:#000000; fill-opacity:1;stroke:#000000; stroke-opacity:1;
stroke-linecap:round; stroke-linejoin:round; "
 transform="translate(0 0) scale(1 1)">
</g>
<g style="fill:#000000; fill-opacity:0.0; 
stroke:#000000; stroke-width:-0.000787402; stroke-opacity:1; 
stroke-linecap:round; stroke-linejoin:round;">
</g>
<g style="fill:#000000; fill-opacity:0.0; 
stroke:#000000; stroke-width:78.7402; stroke-opacity:1; 
stroke-linecap:round; stroke-linejoin:round;">
<path d="M23465 12875
L23465 73375
" />
<path d="M93465 68993
L93465 68993
" />
<path d="M93465 12875
L23465 12875
" />
<path d="M93465 73375
L23465 73375
" />
<path d="M93465 12875
L93465 73375
" />
<path d="M93465 13875
L93465 13875
" />
</g>
<g style="fill:#000000; fill-opacity:0.0; 
stroke:#000000; stroke-width:39.3701; stroke-opacity:1; 
stroke-linecap:round; stroke-linejoin:round;">
<path d="M88141.4 55840.8 A9255.77 9255.77 0.0 0 0 70074.7 58729.4 " />
<path d="M70074.7 58621.5 A9255.77 9255.77 0.0 0 0 88141.4 61510.1 " />
<path d="M88136 55831.4 A433.071 433.071 0.0 0 0 88543 56116.4 " />
<path d="M88543 61234.5 A433.071 433.071 0.0 0 0 88136 61519.4 " />
<path d="M93227 61234
L88542 61234
" />
<path d="M93227 56116
L88542 56116
" />
<path d="M93227 56116
L93227 61234
" />
</g> 
</svg>
