<?xml version="1.0" standalone="no"?>
 <!DOCTYPE svg PUBLIC "-//W3C//DTD SVG 1.1//EN" 
 "http://www.w3.org/Graphics/SVG/1.1/DTD/svg11.dtd"> 
<svg xmlns="http://www.w3.org/2000/svg" version="1.1" 
    width="29.7002cm" height="21.0007cm" viewBox="0 0 116930 82680 ">
<title>SVG Picture created as ThermocoupleLogger-Eco1_User.svg date 2019/03/15 21:00:30 </title>
  <desc>Picture generated by PCBNEW </desc>
<g style="fill:#000000; fill-opacity:1;stroke:#000000; stroke-opacity:1;
stroke-linecap:round; stroke-linejoin:round; "
 transform="translate(0 0) scale(1 1)">
</g>
<g style="fill:#000000; fill-opacity:0.0; 
stroke:#000000; stroke-width:-0.000787402; stroke-opacity:1; 
stroke-linecap:round; stroke-linejoin:round;">
</g>
<g style="fill:#000000; fill-opacity:0.0; 
stroke:#000000; stroke-width:78.7402; stroke-opacity:1; 
stroke-linecap:round; stroke-linejoin:round;">
<path d="M93465 12875
L93465 73375
" />
<path d="M23465 68993
L23465 68993
" />
<path d="M23465 12875
L93465 12875
" />
<path d="M23465 73375
L93465 73375
" />
<path d="M23465 12875
L23465 73375
" />
<path d="M23465 13875
L23465 13875
" />
</g>
<g style="fill:#000000; fill-opacity:1.0; 
stroke:#000000; stroke-width:118.11; stroke-opacity:1; 
stroke-linecap:round; stroke-linejoin:round;">
<polyline style="fill-rule:evenodd;"
points="38965,35875
38965,38475
37865,38475
37865,35775
38965,35775
38965,35875
" /> 
</g>
<g style="fill:#000000; fill-opacity:0.0; 
stroke:#000000; stroke-width:118.11; stroke-opacity:1; 
stroke-linecap:round; stroke-linejoin:round;">
</g>
<g style="fill:#000000; fill-opacity:0.0; 
stroke:#000000; stroke-width:23.622; stroke-opacity:1; 
stroke-linecap:round; stroke-linejoin:round;">
<path d="M58473 23840
L58631 24076
" />
<path d="M58631 23840
L58473 24076
" />
<path d="M58710 24065
L58743 24076
L58800 24076
L58822 24065
L58833 24054
L58845 24031
L58845 24009
L58833 23986
L58822 23975
L58800 23964
L58755 23953
L58732 23941
L58721 23930
L58710 23908
L58710 23885
L58721 23863
L58732 23851
L58755 23840
L58811 23840
L58845 23851
" />
<path d="M59070 24076
L58935 24076
" />
<path d="M59002 24076
L59002 23840
L58980 23874
L58957 23896
L58935 23908
" />
</g> 
</svg>
