<?xml version="1.0" standalone="no"?>
 <!DOCTYPE svg PUBLIC "-//W3C//DTD SVG 1.1//EN" 
 "http://www.w3.org/Graphics/SVG/1.1/DTD/svg11.dtd"> 
<svg xmlns="http://www.w3.org/2000/svg" version="1.1" 
    width="29.7002cm" height="21.0007cm" viewBox="0 0 116930 82680 ">
<title>SVG Picture created as ThermocoupleLogger-B_Fab.svg date 2019/03/15 21:00:30 </title>
  <desc>Picture generated by PCBNEW </desc>
<g style="fill:#000000; fill-opacity:1;stroke:#000000; stroke-opacity:1;
stroke-linecap:round; stroke-linejoin:round; "
 transform="translate(0 0) scale(1 1)">
</g>
<g style="fill:#000000; fill-opacity:0.0; 
stroke:#000000; stroke-width:-0.000787402; stroke-opacity:1; 
stroke-linecap:round; stroke-linejoin:round;">
</g>
<g style="fill:#000000; fill-opacity:0.0; 
stroke:#000000; stroke-width:78.7402; stroke-opacity:1; 
stroke-linecap:round; stroke-linejoin:round;">
<path d="M23465 12875
L23465 73375
" />
<path d="M93465 68993
L93465 68993
" />
<path d="M93465 12875
L23465 12875
" />
<path d="M93465 73375
L23465 73375
" />
<path d="M93465 12875
L93465 73375
" />
<path d="M93465 13875
L93465 13875
" />
<path d="M87877 55925.7 A708.661 708.661 0.0 0 0 88543 56392 " />
<path d="M87873.7 55919.5 A8976.81 8976.81 0.0 0 0 70353.7 58734.8 " />
<path d="M70353.7 58616.1 A8976.81 8976.81 0.0 0 0 87873.7 61431.3 " />
<path d="M87204.4 57651.8 A7940.27 7940.27 0.0 0 0 71456.3 59699.1 " />
<path d="M84212.2 57651.8 A4988.05 4988.05 0.0 0 0 74344.9 58835.8 " />
<path d="M80826.4 57651.8 A1812.73 1812.73 0.0 0 0 77522.9 58813.9 " />
<path d="M72738 52595
L73458 53255
" />
<path d="M72738 64755
L73478 64075
" />
<path d="M77522.9 58537 A1812.73 1812.73 0.0 0 0 80826.4 59699.1 " />
<path d="M74344.9 58515.1 A4988.05 4988.05 0.0 0 0 84212.2 59699.1 " />
<path d="M71456.3 57651.8 A7940.27 7940.27 0.0 0 0 87204.4 59699.1 " />
<path d="M88518 60958
L92637 60958
" />
<path d="M92637 56391
L88518 56391
" />
<path d="M92952 60643
L92952 56706
" />
<path d="M91298 57651
L78542 57651
" />
<path d="M78542 59699
L91298 59699
" />
<path d="M88543 60958.9 A708.661 708.661 0.0 0 0 87877 61425.2 " />
<path d="M78543 57651.8 A1023.62 1023.62 0.0 0 0 78543 59699.1 " />
<path d="M91298 59699
L91298 57651
" />
<path d="M92952.4 56706.9 A314.961 314.961 0.0 0 0 92637.4 56392 " />
<path d="M92637.4 60958.9 A314.961 314.961 0.0 0 0 92952.4 60643.9 " />
</g>
<g style="fill:#000000; fill-opacity:0.0; 
stroke:#000000; stroke-width:118.11; stroke-opacity:1; 
stroke-linecap:round; stroke-linejoin:round;">
<path d="M77856 48382
L77969 48420
L78006 48457
L78044 48532
L78044 48645
L78006 48720
L77969 48757
L77894 48795
L77594 48795
L77594 48008
L77856 48008
L77931 48045
L77969 48083
L78006 48157
L78006 48232
L77969 48307
L77931 48345
L77856 48382
L77594 48382
" />
<path d="M78719 48795
L78719 48382
L78681 48307
L78606 48270
L78456 48270
L78381 48307
" />
<path d="M78719 48757
L78644 48795
L78456 48795
L78381 48757
L78344 48682
L78344 48607
L78381 48532
L78456 48495
L78644 48495
L78719 48457
" />
<path d="M78981 48270
L79281 48270
" />
<path d="M79094 48008
L79094 48682
L79131 48757
L79206 48795
L79281 48795
" />
<path d="M79431 48270
L79731 48270
" />
<path d="M79544 48008
L79544 48682
L79581 48757
L79656 48795
L79731 48795
" />
<path d="M80293 48757
L80218 48795
L80069 48795
L79994 48757
L79956 48682
L79956 48382
L79994 48307
L80069 48270
L80218 48270
L80293 48307
L80331 48382
L80331 48457
L79956 48532
" />
<path d="M80668 48795
L80668 48270
" />
<path d="M80668 48420
L80706 48345
L80743 48307
L80818 48270
L80893 48270
" />
<path d="M81081 48270
L81268 48795
" />
<path d="M81456 48270
L81268 48795
L81193 48982
L81156 49020
L81081 49057
" />
<path d="M90680 58619
L90792 58656
L90830 58694
L90867 58769
L90867 58881
L90830 58956
L90792 58994
L90717 59031
L90417 59031
L90417 58244
L90680 58244
L90755 58281
L90792 58319
L90830 58394
L90830 58469
L90792 58544
L90755 58581
L90680 58619
L90417 58619
" />
<path d="M91092 58244
L91542 58244
" />
<path d="M91317 59031
L91317 58244
" />
<path d="M91767 58319
L91805 58281
L91880 58244
L92067 58244
L92142 58281
L92179 58319
L92217 58394
L92217 58469
L92179 58581
L91730 59031
L92217 59031
" />
</g> 
</svg>
