<?xml version="1.0" standalone="no"?>
 <!DOCTYPE svg PUBLIC "-//W3C//DTD SVG 1.1//EN" 
 "http://www.w3.org/Graphics/SVG/1.1/DTD/svg11.dtd"> 
<svg xmlns="http://www.w3.org/2000/svg" version="1.1" 
    width="29.7002cm" height="21.0007cm" viewBox="0 0 116930 82680 ">
<title>SVG Picture created as ThermocoupleLogger-B_Mask.svg date 2019/03/28 11:02:09 </title>
  <desc>Picture generated by PCBNEW </desc>
<g style="fill:#000000; fill-opacity:1;stroke:#000000; stroke-opacity:1;
stroke-linecap:round; stroke-linejoin:round; "
 transform="translate(0 0) scale(1 1)">
</g>
<g style="fill:#000000; fill-opacity:0.0; 
stroke:#000000; stroke-width:-0.000787402; stroke-opacity:1; 
stroke-linecap:round; stroke-linejoin:round;">
</g>
<g style="fill:#000000; fill-opacity:0.0; 
stroke:#000000; stroke-width:78.7402; stroke-opacity:1; 
stroke-linecap:round; stroke-linejoin:round;">
<path d="M93734 12875
L93734 73375
" />
<path d="M23734 68993
L23734 68993
" />
<path d="M23734 12875
L93734 12875
" />
<path d="M23734 73375
L93734 73375
" />
<path d="M23734 12875
L23734 73375
" />
<path d="M23734 13875
L23734 13875
" />
</g>
<g style="fill:#000000; fill-opacity:1.0; 
stroke:#000000; stroke-width:0; stroke-opacity:1; 
stroke-linecap:round; stroke-linejoin:round;">
<path style="fill:#000000; fill-opacity:1.0; 
stroke:#000000; stroke-width:0; stroke-opacity:1; 
stroke-linecap:round; stroke-linejoin:round;fill-rule:evenodd;"
d="M 32097,69597
32160,69616
32223,69635
32223,69635
32339,69698
32441,69781
32525,69883
32587,69999
32625,70126
32635,70224
32635,70526
32625,70624
32587,70750
32525,70867
32441,70969
32339,71052
32223,71114
32097,71153
31966,71166
31834,71153
31742,71125
31708,71114
31650,71084
31592,71052
31490,70969
31406,70867
31344,70750
31306,70624
31296,70526
31296,70224
31306,70126
31344,69999
31406,69883
31490,69781
31592,69698
31708,69635
31708,69635
31771,69616
31834,69597
31966,69584
32097,69597
Z" /> 
<path style="fill:#000000; fill-opacity:1.0; 
stroke:#000000; stroke-width:0; stroke-opacity:1; 
stroke-linecap:round; stroke-linejoin:round;fill-rule:evenodd;"
d="M 39097,69597
39160,69616
39223,69635
39223,69635
39339,69698
39441,69781
39525,69883
39587,69999
39625,70126
39635,70224
39635,70526
39625,70624
39587,70750
39525,70867
39441,70969
39339,71052
39223,71114
39097,71153
38966,71166
38834,71153
38742,71125
38708,71114
38650,71084
38592,71052
38490,70969
38406,70867
38344,70750
38306,70624
38296,70526
38296,70224
38306,70126
38344,69999
38406,69883
38490,69781
38592,69698
38708,69635
38708,69635
38771,69616
38834,69597
38966,69584
39097,69597
Z" /> 
<path style="fill:#000000; fill-opacity:1.0; 
stroke:#000000; stroke-width:0; stroke-opacity:1; 
stroke-linecap:round; stroke-linejoin:round;fill-rule:evenodd;"
d="M 46097,69597
46160,69616
46223,69635
46223,69635
46339,69698
46441,69781
46525,69883
46587,69999
46625,70126
46635,70224
46635,70526
46625,70624
46587,70750
46525,70867
46441,70969
46339,71052
46223,71114
46097,71153
45966,71166
45834,71153
45742,71125
45708,71114
45650,71084
45592,71052
45490,70969
45406,70867
45344,70750
45306,70624
45296,70526
45296,70224
45306,70126
45344,69999
45406,69883
45490,69781
45592,69698
45708,69635
45708,69635
45771,69616
45834,69597
45966,69584
46097,69597
Z" /> 
<path style="fill:#000000; fill-opacity:1.0; 
stroke:#000000; stroke-width:0; stroke-opacity:1; 
stroke-linecap:round; stroke-linejoin:round;fill-rule:evenodd;"
d="M 53097,69597
53160,69616
53223,69635
53223,69635
53339,69698
53441,69781
53525,69883
53587,69999
53625,70126
53635,70224
53635,70526
53625,70624
53587,70750
53525,70867
53441,70969
53339,71052
53223,71114
53097,71153
52966,71166
52834,71153
52742,71125
52708,71114
52650,71084
52592,71052
52490,70969
52406,70867
52344,70750
52306,70624
52296,70526
52296,70224
52306,70126
52344,69999
52406,69883
52490,69781
52592,69698
52708,69635
52708,69635
52771,69616
52834,69597
52966,69584
53097,69597
Z" /> 
<path style="fill:#000000; fill-opacity:1.0; 
stroke:#000000; stroke-width:0; stroke-opacity:1; 
stroke-linecap:round; stroke-linejoin:round;fill-rule:evenodd;"
d="M 60097,69597
60160,69616
60223,69635
60223,69635
60339,69698
60441,69781
60525,69883
60587,69999
60625,70126
60635,70224
60635,70526
60625,70624
60587,70750
60525,70867
60441,70969
60339,71052
60223,71114
60097,71153
59966,71166
59834,71153
59742,71125
59708,71114
59650,71084
59592,71052
59490,70969
59406,70867
59344,70750
59306,70624
59296,70526
59296,70224
59306,70126
59344,69999
59406,69883
59490,69781
59592,69698
59708,69635
59708,69635
59771,69616
59834,69597
59966,69584
60097,69597
Z" /> 
<path style="fill:#000000; fill-opacity:1.0; 
stroke:#000000; stroke-width:0; stroke-opacity:1; 
stroke-linecap:round; stroke-linejoin:round;fill-rule:evenodd;"
d="M 67065,69597
67128,69616
67191,69635
67191,69635
67308,69698
67410,69781
67493,69883
67555,69999
67594,70126
67603,70224
67603,70526
67594,70624
67555,70750
67493,70867
67410,70969
67308,71052
67191,71114
67065,71153
66934,71166
66803,71153
66711,71125
66677,71114
66619,71084
66560,71052
66459,70969
66375,70867
66313,70750
66274,70624
66265,70526
66265,70224
66274,70126
66313,69999
66375,69883
66459,69781
66560,69698
66677,69635
66677,69635
66740,69616
66803,69597
66934,69584
67065,69597
Z" /> 
<path style="fill:#000000; fill-opacity:1.0; 
stroke:#000000; stroke-width:0; stroke-opacity:1; 
stroke-linecap:round; stroke-linejoin:round;fill-rule:evenodd;"
d="M 74065,69597
74128,69616
74191,69635
74191,69635
74308,69698
74410,69781
74493,69883
74555,69999
74594,70126
74603,70224
74603,70526
74594,70624
74555,70750
74493,70867
74410,70969
74308,71052
74191,71114
74065,71153
73934,71166
73803,71153
73711,71125
73677,71114
73619,71084
73560,71052
73459,70969
73375,70867
73313,70750
73274,70624
73265,70526
73265,70224
73274,70126
73313,69999
73375,69883
73459,69781
73560,69698
73677,69635
73677,69635
73740,69616
73803,69597
73934,69584
74065,69597
Z" /> 
<path style="fill:#000000; fill-opacity:1.0; 
stroke:#000000; stroke-width:0; stroke-opacity:1; 
stroke-linecap:round; stroke-linejoin:round;fill-rule:evenodd;"
d="M 81065,69597
81128,69616
81191,69635
81191,69635
81308,69698
81410,69781
81493,69883
81555,69999
81594,70126
81603,70224
81603,70526
81594,70624
81555,70750
81493,70867
81410,70969
81308,71052
81191,71114
81065,71153
80934,71166
80803,71153
80711,71125
80677,71114
80619,71084
80560,71052
80459,70969
80375,70867
80313,70750
80274,70624
80265,70526
80265,70224
80274,70126
80313,69999
80375,69883
80459,69781
80560,69698
80677,69635
80677,69635
80740,69616
80803,69597
80934,69584
81065,69597
Z" /> 
<path style="fill:#000000; fill-opacity:1.0; 
stroke:#000000; stroke-width:0; stroke-opacity:1; 
stroke-linecap:round; stroke-linejoin:round;fill-rule:evenodd;"
d="M 34501,69590
34525,69598
34546,69609
34566,69625
34581,69644
34593,69666
34600,69690
34603,69720
34603,71030
34600,71060
34593,71084
34581,71105
34566,71125
34546,71140
34525,71152
34501,71159
34471,71162
33397,71162
33367,71159
33344,71152
33322,71140
33302,71125
33287,71105
33275,71084
33268,71060
33265,71030
33265,69720
33268,69690
33275,69666
33287,69644
33302,69625
33322,69609
33344,69598
33367,69590
33397,69588
34471,69588
34501,69590
Z" /> 
<path style="fill:#000000; fill-opacity:1.0; 
stroke:#000000; stroke-width:0; stroke-opacity:1; 
stroke-linecap:round; stroke-linejoin:round;fill-rule:evenodd;"
d="M 41501,69590
41525,69598
41546,69609
41566,69625
41581,69644
41593,69666
41600,69690
41603,69720
41603,71030
41600,71060
41593,71084
41581,71105
41566,71125
41546,71140
41525,71152
41501,71159
41471,71162
40397,71162
40367,71159
40344,71152
40322,71140
40302,71125
40287,71105
40275,71084
40268,71060
40265,71030
40265,69720
40268,69690
40275,69666
40287,69644
40302,69625
40322,69609
40344,69598
40367,69590
40397,69588
41471,69588
41501,69590
Z" /> 
<path style="fill:#000000; fill-opacity:1.0; 
stroke:#000000; stroke-width:0; stroke-opacity:1; 
stroke-linecap:round; stroke-linejoin:round;fill-rule:evenodd;"
d="M 83469,69590
83493,69598
83515,69609
83534,69625
83550,69644
83562,69666
83569,69690
83572,69720
83572,71030
83569,71060
83562,71084
83550,71105
83534,71125
83515,71140
83493,71152
83469,71159
83440,71162
82365,71162
82336,71159
82312,71152
82290,71140
82271,71125
82255,71105
82243,71084
82236,71060
82233,71030
82233,69720
82236,69690
82243,69666
82255,69644
82271,69625
82290,69609
82312,69598
82336,69590
82365,69588
83440,69588
83469,69590
Z" /> 
<path style="fill:#000000; fill-opacity:1.0; 
stroke:#000000; stroke-width:0; stroke-opacity:1; 
stroke-linecap:round; stroke-linejoin:round;fill-rule:evenodd;"
d="M 48501,69590
48525,69598
48546,69609
48566,69625
48581,69644
48593,69666
48600,69690
48603,69720
48603,71030
48600,71060
48593,71084
48581,71105
48566,71125
48546,71140
48525,71152
48501,71159
48471,71162
47397,71162
47367,71159
47344,71152
47322,71140
47302,71125
47287,71105
47275,71084
47268,71060
47265,71030
47265,69720
47268,69690
47275,69666
47287,69644
47302,69625
47322,69609
47344,69598
47367,69590
47397,69588
48471,69588
48501,69590
Z" /> 
<path style="fill:#000000; fill-opacity:1.0; 
stroke:#000000; stroke-width:0; stroke-opacity:1; 
stroke-linecap:round; stroke-linejoin:round;fill-rule:evenodd;"
d="M 76469,69590
76493,69598
76515,69609
76534,69625
76550,69644
76562,69666
76569,69690
76572,69720
76572,71030
76569,71060
76562,71084
76550,71105
76534,71125
76515,71140
76493,71152
76469,71159
76440,71162
75365,71162
75336,71159
75312,71152
75290,71140
75271,71125
75255,71105
75243,71084
75236,71060
75233,71030
75233,69720
75236,69690
75243,69666
75255,69644
75271,69625
75290,69609
75312,69598
75336,69590
75365,69588
76440,69588
76469,69590
Z" /> 
<path style="fill:#000000; fill-opacity:1.0; 
stroke:#000000; stroke-width:0; stroke-opacity:1; 
stroke-linecap:round; stroke-linejoin:round;fill-rule:evenodd;"
d="M 55501,69590
55525,69598
55546,69609
55566,69625
55581,69644
55593,69666
55600,69690
55603,69720
55603,71030
55600,71060
55593,71084
55581,71105
55566,71125
55546,71140
55525,71152
55501,71159
55471,71162
54397,71162
54367,71159
54344,71152
54322,71140
54302,71125
54287,71105
54275,71084
54268,71060
54265,71030
54265,69720
54268,69690
54275,69666
54287,69644
54302,69625
54322,69609
54344,69598
54367,69590
54397,69588
55471,69588
55501,69590
Z" /> 
<path style="fill:#000000; fill-opacity:1.0; 
stroke:#000000; stroke-width:0; stroke-opacity:1; 
stroke-linecap:round; stroke-linejoin:round;fill-rule:evenodd;"
d="M 69469,69590
69493,69598
69515,69609
69534,69625
69550,69644
69562,69666
69569,69690
69572,69720
69572,71030
69569,71060
69562,71084
69550,71105
69534,71125
69515,71140
69493,71152
69469,71159
69440,71162
68365,71162
68336,71159
68312,71152
68290,71140
68271,71125
68255,71105
68243,71084
68236,71060
68233,71030
68233,69720
68236,69690
68243,69666
68255,69644
68271,69625
68290,69609
68312,69598
68336,69590
68365,69588
69440,69588
69469,69590
Z" /> 
<path style="fill:#000000; fill-opacity:1.0; 
stroke:#000000; stroke-width:0; stroke-opacity:1; 
stroke-linecap:round; stroke-linejoin:round;fill-rule:evenodd;"
d="M 62501,69590
62525,69598
62546,69609
62566,69625
62581,69644
62593,69666
62600,69690
62603,69720
62603,71030
62600,71060
62593,71084
62581,71105
62566,71125
62546,71140
62525,71152
62501,71159
62471,71162
61397,71162
61367,71159
61344,71152
61322,71140
61302,71125
61287,71105
61275,71084
61268,71060
61265,71030
61265,69720
61268,69690
61275,69666
61287,69644
61302,69625
61322,69609
61344,69598
61367,69590
61397,69588
62471,69588
62501,69590
Z" /> 
<path style="fill:#000000; fill-opacity:1.0; 
stroke:#000000; stroke-width:0; stroke-opacity:1; 
stroke-linecap:round; stroke-linejoin:round;fill-rule:evenodd;"
d="M 27081,59856
24719,59856
24719,57494
27081,57494
27081,59856
Z" /> 
<path style="fill:#000000; fill-opacity:1.0; 
stroke:#000000; stroke-width:0; stroke-opacity:1; 
stroke-linecap:round; stroke-linejoin:round;fill-rule:evenodd;"
d="M 42379,57539
42594,57628
42594,57628
42691,57693
42787,57758
42951,57922
43081,58115
43170,58330
43215,58559
43215,58791
43170,59019
43088,59217
43081,59234
42951,59428
42787,59592
42594,59722
42594,59722
42594,59722
42379,59811
42150,59856
41918,59856
41690,59811
41475,59722
41475,59722
41475,59722
41281,59592
41117,59428
40987,59234
40980,59217
40898,59019
40853,58791
40853,58559
40898,58330
40987,58115
41117,57922
41281,57758
41377,57693
41475,57628
41475,57628
41690,57539
41918,57494
42150,57494
42379,57539
Z" /> 
<path style="fill:#000000; fill-opacity:1.0; 
stroke:#000000; stroke-width:0; stroke-opacity:1; 
stroke-linecap:round; stroke-linejoin:round;fill-rule:evenodd;"
d="M 48796,58348
48858,58354
48976,58390
48976,58390
49086,58449
49086,58449
49086,58449
49182,58527
49260,58623
49319,58733
49355,58851
49367,58975
49355,59098
49319,59217
49319,59217
49260,59327
49182,59423
49086,59501
48976,59560
48976,59560
48858,59596
48796,59602
48765,59605
48703,59605
48672,59602
48611,59596
48492,59560
48492,59560
48382,59501
48286,59423
48208,59327
48149,59217
48149,59217
48113,59098
48101,58975
48113,58851
48149,58733
48208,58623
48286,58527
48382,58449
48382,58449
48382,58449
48492,58390
48492,58390
48611,58354
48672,58348
48703,58345
48765,58345
48796,58348
Z" /> 
<path style="fill:#000000; fill-opacity:1.0; 
stroke:#000000; stroke-width:0; stroke-opacity:1; 
stroke-linecap:round; stroke-linejoin:round;fill-rule:evenodd;"
d="M 50796,58348
50858,58354
50976,58390
50976,58390
51086,58449
51086,58449
51086,58449
51182,58527
51260,58623
51319,58733
51355,58851
51367,58975
51355,59098
51319,59217
51319,59217
51260,59327
51182,59423
51086,59501
50976,59560
50976,59560
50858,59596
50796,59602
50765,59605
50703,59605
50672,59602
50611,59596
50492,59560
50492,59560
50382,59501
50286,59423
50208,59327
50149,59217
50149,59217
50113,59098
50101,58975
50113,58851
50149,58733
50208,58623
50286,58527
50382,58449
50382,58449
50382,58449
50492,58390
50492,58390
50611,58354
50672,58348
50703,58345
50765,58345
50796,58348
Z" /> 
<path style="fill:#000000; fill-opacity:1.0; 
stroke:#000000; stroke-width:0; stroke-opacity:1; 
stroke-linecap:round; stroke-linejoin:round;fill-rule:evenodd;"
d="M 52796,58348
52858,58354
52976,58390
52976,58390
53086,58449
53086,58449
53086,58449
53182,58527
53260,58623
53319,58733
53355,58851
53367,58975
53355,59098
53319,59217
53319,59217
53260,59327
53182,59423
53086,59501
52976,59560
52976,59560
52858,59596
52796,59602
52765,59605
52703,59605
52672,59602
52611,59596
52492,59560
52492,59560
52382,59501
52286,59423
52208,59327
52149,59217
52149,59217
52113,59098
52101,58975
52113,58851
52149,58733
52208,58623
52286,58527
52382,58449
52382,58449
52382,58449
52492,58390
52492,58390
52611,58354
52672,58348
52703,58345
52765,58345
52796,58348
Z" /> 
<path style="fill:#000000; fill-opacity:1.0; 
stroke:#000000; stroke-width:0; stroke-opacity:1; 
stroke-linecap:round; stroke-linejoin:round;fill-rule:evenodd;"
d="M 54796,58348
54858,58354
54976,58390
54976,58390
55086,58449
55086,58449
55086,58449
55182,58527
55260,58623
55319,58733
55355,58851
55367,58975
55355,59098
55319,59217
55319,59217
55260,59327
55182,59423
55086,59501
54976,59560
54976,59560
54858,59596
54796,59602
54765,59605
54703,59605
54672,59602
54611,59596
54492,59560
54492,59560
54382,59501
54286,59423
54208,59327
54149,59217
54149,59217
54113,59098
54101,58975
54113,58851
54149,58733
54208,58623
54286,58527
54382,58449
54382,58449
54382,58449
54492,58390
54492,58390
54611,58354
54672,58348
54703,58345
54765,58345
54796,58348
Z" /> 
<path style="fill:#000000; fill-opacity:1.0; 
stroke:#000000; stroke-width:0; stroke-opacity:1; 
stroke-linecap:round; stroke-linejoin:round;fill-rule:evenodd;"
d="M 56796,58348
56858,58354
56976,58390
56976,58390
57086,58449
57086,58449
57086,58449
57182,58527
57260,58623
57319,58733
57355,58851
57367,58975
57355,59098
57319,59217
57319,59217
57260,59327
57182,59423
57086,59501
56976,59560
56976,59560
56858,59596
56796,59602
56765,59605
56703,59605
56672,59602
56611,59596
56492,59560
56492,59560
56382,59501
56286,59423
56208,59327
56149,59217
56149,59217
56113,59098
56101,58975
56113,58851
56149,58733
56208,58623
56286,58527
56382,58449
56382,58449
56382,58449
56492,58390
56492,58390
56611,58354
56672,58348
56703,58345
56765,58345
56796,58348
Z" /> 
<path style="fill:#000000; fill-opacity:1.0; 
stroke:#000000; stroke-width:0; stroke-opacity:1; 
stroke-linecap:round; stroke-linejoin:round;fill-rule:evenodd;"
d="M 58796,58348
58858,58354
58976,58390
58976,58390
59086,58449
59086,58449
59086,58449
59182,58527
59260,58623
59319,58733
59355,58851
59367,58975
59355,59098
59319,59217
59319,59217
59260,59327
59182,59423
59086,59501
58976,59560
58976,59560
58858,59596
58796,59602
58765,59605
58703,59605
58672,59602
58611,59596
58492,59560
58492,59560
58382,59501
58286,59423
58208,59327
58149,59217
58149,59217
58113,59098
58101,58975
58113,58851
58149,58733
58208,58623
58286,58527
58382,58449
58382,58449
58382,58449
58492,58390
58492,58390
58611,58354
58672,58348
58703,58345
58765,58345
58796,58348
Z" /> 
<path style="fill:#000000; fill-opacity:1.0; 
stroke:#000000; stroke-width:0; stroke-opacity:1; 
stroke-linecap:round; stroke-linejoin:round;fill-rule:evenodd;"
d="M 60796,58348
60858,58354
60976,58390
60976,58390
61086,58449
61086,58449
61086,58449
61182,58527
61260,58623
61319,58733
61355,58851
61367,58975
61355,59098
61319,59217
61319,59217
61260,59327
61182,59423
61086,59501
60976,59560
60976,59560
60858,59596
60796,59602
60765,59605
60703,59605
60672,59602
60611,59596
60492,59560
60492,59560
60382,59501
60286,59423
60208,59327
60149,59217
60149,59217
60113,59098
60101,58975
60113,58851
60149,58733
60208,58623
60286,58527
60382,58449
60382,58449
60382,58449
60492,58390
60492,58390
60611,58354
60672,58348
60703,58345
60765,58345
60796,58348
Z" /> 
<path style="fill:#000000; fill-opacity:1.0; 
stroke:#000000; stroke-width:0; stroke-opacity:1; 
stroke-linecap:round; stroke-linejoin:round;fill-rule:evenodd;"
d="M 62796,58348
62858,58354
62976,58390
62976,58390
63086,58449
63086,58449
63086,58449
63182,58527
63260,58623
63319,58733
63355,58851
63367,58975
63355,59098
63319,59217
63319,59217
63260,59327
63182,59423
63086,59501
62976,59560
62976,59560
62858,59596
62796,59602
62765,59605
62703,59605
62672,59602
62611,59596
62492,59560
62492,59560
62382,59501
62286,59423
62208,59327
62149,59217
62149,59217
62113,59098
62101,58975
62113,58851
62149,58733
62208,58623
62286,58527
62382,58449
62382,58449
62382,58449
62492,58390
62492,58390
62611,58354
62672,58348
62703,58345
62765,58345
62796,58348
Z" /> 
<path style="fill:#000000; fill-opacity:1.0; 
stroke:#000000; stroke-width:0; stroke-opacity:1; 
stroke-linecap:round; stroke-linejoin:round;fill-rule:evenodd;"
d="M 64796,58348
64858,58354
64976,58390
64976,58390
65086,58449
65086,58449
65086,58449
65182,58527
65260,58623
65319,58733
65355,58851
65367,58975
65355,59098
65319,59217
65319,59217
65260,59327
65182,59423
65086,59501
64976,59560
64976,59560
64858,59596
64796,59602
64765,59605
64703,59605
64672,59602
64611,59596
64492,59560
64492,59560
64382,59501
64286,59423
64208,59327
64149,59217
64149,59217
64113,59098
64101,58975
64113,58851
64149,58733
64208,58623
64286,58527
64382,58449
64382,58449
64382,58449
64492,58390
64492,58390
64611,58354
64672,58348
64703,58345
64765,58345
64796,58348
Z" /> 
<path style="fill:#000000; fill-opacity:1.0; 
stroke:#000000; stroke-width:0; stroke-opacity:1; 
stroke-linecap:round; stroke-linejoin:round;fill-rule:evenodd;"
d="M 66796,58348
66858,58354
66976,58390
66976,58390
67086,58449
67086,58449
67086,58449
67182,58527
67260,58623
67319,58733
67355,58851
67367,58975
67355,59098
67319,59217
67319,59217
67260,59327
67182,59423
67086,59501
66976,59560
66976,59560
66858,59596
66796,59602
66765,59605
66703,59605
66672,59602
66611,59596
66492,59560
66492,59560
66382,59501
66286,59423
66208,59327
66149,59217
66149,59217
66113,59098
66101,58975
66113,58851
66149,58733
66208,58623
66286,58527
66382,58449
66382,58449
66382,58449
66492,58390
66492,58390
66611,58354
66672,58348
66703,58345
66765,58345
66796,58348
Z" /> 
<path style="fill:#000000; fill-opacity:1.0; 
stroke:#000000; stroke-width:0; stroke-opacity:1; 
stroke-linecap:round; stroke-linejoin:round;fill-rule:evenodd;"
d="M 68796,58348
68858,58354
68976,58390
68976,58390
69086,58449
69086,58449
69086,58449
69182,58527
69260,58623
69319,58733
69355,58851
69367,58975
69355,59098
69319,59217
69319,59217
69260,59327
69182,59423
69086,59501
68976,59560
68976,59560
68858,59596
68796,59602
68765,59605
68703,59605
68672,59602
68611,59596
68492,59560
68492,59560
68382,59501
68286,59423
68208,59327
68149,59217
68149,59217
68113,59098
68101,58975
68113,58851
68149,58733
68208,58623
68286,58527
68382,58449
68382,58449
68382,58449
68492,58390
68492,58390
68611,58354
68672,58348
68703,58345
68765,58345
68796,58348
Z" /> 
<path style="fill:#000000; fill-opacity:1.0; 
stroke:#000000; stroke-width:0; stroke-opacity:1; 
stroke-linecap:round; stroke-linejoin:round;fill-rule:evenodd;"
d="M 70796,58348
70858,58354
70976,58390
70976,58390
71086,58449
71086,58449
71086,58449
71182,58527
71260,58623
71319,58733
71355,58851
71367,58975
71355,59098
71319,59217
71319,59217
71260,59327
71182,59423
71086,59501
70976,59560
70976,59560
70858,59596
70796,59602
70765,59605
70703,59605
70672,59602
70611,59596
70492,59560
70492,59560
70382,59501
70286,59423
70208,59327
70149,59217
70149,59217
70113,59098
70101,58975
70113,58851
70149,58733
70208,58623
70286,58527
70382,58449
70382,58449
70382,58449
70492,58390
70492,58390
70611,58354
70672,58348
70703,58345
70765,58345
70796,58348
Z" /> 
<path style="fill:#000000; fill-opacity:1.0; 
stroke:#000000; stroke-width:0; stroke-opacity:1; 
stroke-linecap:round; stroke-linejoin:round;fill-rule:evenodd;"
d="M 46796,58348
46858,58354
46976,58390
46976,58390
47086,58449
47086,58449
47086,58449
47182,58527
47260,58623
47319,58733
47355,58851
47367,58975
47355,59098
47319,59217
47319,59217
47260,59327
47182,59423
47086,59501
46976,59560
46976,59560
46858,59596
46796,59602
46765,59605
46703,59605
46672,59602
46611,59596
46492,59560
46492,59560
46382,59501
46286,59423
46208,59327
46149,59217
46149,59217
46113,59098
46101,58975
46113,58851
46149,58733
46208,58623
46286,58527
46382,58449
46382,58449
46382,58449
46492,58390
46492,58390
46611,58354
46672,58348
46703,58345
46765,58345
46796,58348
Z" /> 
<path style="fill:#000000; fill-opacity:1.0; 
stroke:#000000; stroke-width:0; stroke-opacity:1; 
stroke-linecap:round; stroke-linejoin:round;fill-rule:evenodd;"
d="M 44796,58348
44858,58354
44976,58390
44976,58390
45086,58449
45086,58449
45086,58449
45182,58527
45260,58623
45319,58733
45355,58851
45367,58975
45355,59098
45319,59217
45319,59217
45260,59327
45182,59423
45086,59501
44976,59560
44976,59560
44858,59596
44796,59602
44765,59605
44703,59605
44672,59602
44611,59596
44492,59560
44492,59560
44382,59501
44286,59423
44208,59327
44149,59217
44149,59217
44113,59098
44101,58975
44113,58851
44149,58733
44208,58623
44286,58527
44382,58449
44382,58449
44382,58449
44492,58390
44492,58390
44611,58354
44672,58348
44703,58345
44765,58345
44796,58348
Z" /> 
<path style="fill:#000000; fill-opacity:1.0; 
stroke:#000000; stroke-width:0; stroke-opacity:1; 
stroke-linecap:round; stroke-linejoin:round;fill-rule:evenodd;"
d="M 76296,53548
76358,53554
76476,53590
76476,53590
76586,53649
76586,53649
76586,53649
76682,53727
76760,53823
76819,53933
76855,54051
76867,54175
76855,54298
76819,54417
76819,54417
76760,54527
76682,54623
76586,54701
76476,54760
76476,54760
76358,54796
76296,54802
76265,54805
76203,54805
76172,54802
76111,54796
75992,54760
75992,54760
75882,54701
75786,54623
75708,54527
75649,54417
75649,54417
75613,54298
75601,54175
75613,54051
75649,53933
75708,53823
75786,53727
75882,53649
75882,53649
75882,53649
75992,53590
75992,53590
76111,53554
76172,53548
76203,53545
76265,53545
76296,53548
Z" /> 
<path style="fill:#000000; fill-opacity:1.0; 
stroke:#000000; stroke-width:0; stroke-opacity:1; 
stroke-linecap:round; stroke-linejoin:round;fill-rule:evenodd;"
d="M 82864,54805
81604,54805
81604,53545
82864,53545
82864,54805
Z" /> 
<path style="fill:#000000; fill-opacity:1.0; 
stroke:#000000; stroke-width:0; stroke-opacity:1; 
stroke-linecap:round; stroke-linejoin:round;fill-rule:evenodd;"
d="M 82296,51548
82358,51554
82476,51590
82476,51590
82586,51649
82586,51649
82586,51649
82682,51727
82760,51823
82819,51933
82855,52051
82867,52175
82855,52298
82819,52417
82819,52417
82760,52527
82682,52623
82586,52701
82476,52760
82476,52760
82358,52796
82296,52802
82265,52805
82203,52805
82172,52802
82111,52796
81992,52760
81992,52760
81882,52701
81786,52623
81708,52527
81649,52417
81649,52417
81613,52298
81601,52175
81613,52051
81649,51933
81708,51823
81786,51727
81882,51649
81882,51649
81882,51649
81992,51590
81992,51590
82111,51554
82172,51548
82203,51545
82265,51545
82296,51548
Z" /> 
<path style="fill:#000000; fill-opacity:1.0; 
stroke:#000000; stroke-width:0; stroke-opacity:1; 
stroke-linecap:round; stroke-linejoin:round;fill-rule:evenodd;"
d="M 76296,51548
76358,51554
76476,51590
76476,51590
76586,51649
76586,51649
76586,51649
76682,51727
76760,51823
76819,51933
76855,52051
76867,52175
76855,52298
76819,52417
76819,52417
76760,52527
76682,52623
76586,52701
76476,52760
76476,52760
76358,52796
76296,52802
76265,52805
76203,52805
76172,52802
76111,52796
75992,52760
75992,52760
75882,52701
75786,52623
75708,52527
75649,52417
75649,52417
75613,52298
75601,52175
75613,52051
75649,51933
75708,51823
75786,51727
75882,51649
75882,51649
75882,51649
75992,51590
75992,51590
76111,51554
76172,51548
76203,51545
76265,51545
76296,51548
Z" /> 
<path style="fill:#000000; fill-opacity:1.0; 
stroke:#000000; stroke-width:0; stroke-opacity:1; 
stroke-linecap:round; stroke-linejoin:round;fill-rule:evenodd;"
d="M 76296,49548
76358,49554
76476,49590
76476,49590
76586,49649
76586,49649
76586,49649
76682,49727
76760,49823
76819,49933
76855,50051
76867,50175
76855,50298
76819,50417
76819,50417
76760,50527
76682,50623
76586,50701
76476,50760
76476,50760
76358,50796
76296,50802
76265,50805
76203,50805
76172,50802
76111,50796
75992,50760
75992,50760
75882,50701
75786,50623
75708,50527
75649,50417
75649,50417
75613,50298
75601,50175
75613,50051
75649,49933
75708,49823
75786,49727
75882,49649
75882,49649
75882,49649
75992,49590
75992,49590
76111,49554
76172,49548
76203,49545
76265,49545
76296,49548
Z" /> 
<path style="fill:#000000; fill-opacity:1.0; 
stroke:#000000; stroke-width:0; stroke-opacity:1; 
stroke-linecap:round; stroke-linejoin:round;fill-rule:evenodd;"
d="M 82296,49548
82358,49554
82476,49590
82476,49590
82586,49649
82586,49649
82586,49649
82682,49727
82760,49823
82819,49933
82855,50051
82867,50175
82855,50298
82819,50417
82819,50417
82760,50527
82682,50623
82586,50701
82476,50760
82476,50760
82358,50796
82296,50802
82265,50805
82203,50805
82172,50802
82111,50796
81992,50760
81992,50760
81882,50701
81786,50623
81708,50527
81649,50417
81649,50417
81613,50298
81601,50175
81613,50051
81649,49933
81708,49823
81786,49727
81882,49649
81882,49649
81882,49649
81992,49590
81992,49590
82111,49554
82172,49548
82203,49545
82265,49545
82296,49548
Z" /> 
<path style="fill:#000000; fill-opacity:1.0; 
stroke:#000000; stroke-width:0; stroke-opacity:1; 
stroke-linecap:round; stroke-linejoin:round;fill-rule:evenodd;"
d="M 76296,47548
76358,47554
76476,47590
76476,47590
76586,47649
76682,47727
76760,47823
76819,47933
76819,47933
76855,48051
76867,48175
76855,48298
76819,48417
76819,48417
76760,48527
76682,48623
76586,48701
76476,48760
76476,48760
76358,48796
76296,48802
76265,48805
76203,48805
76172,48802
76111,48796
75992,48760
75992,48760
75882,48701
75786,48623
75708,48527
75649,48417
75649,48417
75613,48298
75601,48175
75613,48051
75649,47933
75649,47933
75708,47823
75786,47727
75882,47649
75992,47590
75992,47590
76111,47554
76172,47548
76203,47545
76265,47545
76296,47548
Z" /> 
<path style="fill:#000000; fill-opacity:1.0; 
stroke:#000000; stroke-width:0; stroke-opacity:1; 
stroke-linecap:round; stroke-linejoin:round;fill-rule:evenodd;"
d="M 82296,47548
82358,47554
82476,47590
82476,47590
82586,47649
82682,47727
82760,47823
82819,47933
82819,47933
82855,48051
82867,48175
82855,48298
82819,48417
82819,48417
82760,48527
82682,48623
82586,48701
82476,48760
82476,48760
82358,48796
82296,48802
82265,48805
82203,48805
82172,48802
82111,48796
81992,48760
81992,48760
81882,48701
81786,48623
81708,48527
81649,48417
81649,48417
81613,48298
81601,48175
81613,48051
81649,47933
81649,47933
81708,47823
81786,47727
81882,47649
81992,47590
81992,47590
82111,47554
82172,47548
82203,47545
82265,47545
82296,47548
Z" /> 
<path style="fill:#000000; fill-opacity:1.0; 
stroke:#000000; stroke-width:0; stroke-opacity:1; 
stroke-linecap:round; stroke-linejoin:round;fill-rule:evenodd;"
d="M 36797,46717
36849,46733
36923,46755
36923,46755
37039,46817
37141,46901
37225,47003
37287,47119
37325,47245
37335,47344
37335,47606
37325,47705
37325,47705
37289,47823
37287,47831
37225,47947
37141,48049
37039,48133
36923,48195
36797,48233
36666,48246
36534,48233
36442,48205
36408,48195
36350,48164
36292,48133
36190,48049
36106,47947
36044,47831
36006,47705
35996,47606
35996,47344
36006,47245
36044,47119
36106,47003
36190,46901
36292,46817
36408,46755
36408,46755
36482,46733
36534,46717
36666,46704
36797,46717
Z" /> 
<path style="fill:#000000; fill-opacity:1.0; 
stroke:#000000; stroke-width:0; stroke-opacity:1; 
stroke-linecap:round; stroke-linejoin:round;fill-rule:evenodd;"
d="M 34828,46717
34880,46733
34954,46755
34954,46755
35071,46817
35173,46901
35256,47003
35318,47119
35357,47245
35366,47344
35366,47606
35357,47705
35357,47705
35321,47823
35318,47831
35256,47947
35173,48049
35071,48133
34954,48195
34828,48233
34697,48246
34566,48233
34474,48205
34440,48195
34382,48164
34323,48133
34222,48049
34138,47947
34076,47831
34037,47705
34028,47606
34028,47344
34037,47245
34076,47119
34138,47003
34222,46901
34323,46817
34440,46755
34440,46755
34514,46733
34566,46717
34697,46704
34828,46717
Z" /> 
<path style="fill:#000000; fill-opacity:1.0; 
stroke:#000000; stroke-width:0; stroke-opacity:1; 
stroke-linecap:round; stroke-linejoin:round;fill-rule:evenodd;"
d="M 28923,46717
28975,46733
29049,46755
29049,46755
29165,46817
29267,46901
29351,47003
29413,47119
29451,47245
29461,47344
29461,47606
29451,47705
29451,47705
29415,47823
29413,47831
29351,47947
29267,48049
29165,48133
29049,48195
28923,48233
28792,48246
28660,48233
28568,48205
28534,48195
28476,48164
28418,48133
28316,48049
28232,47947
28170,47831
28132,47705
28122,47606
28122,47344
28132,47245
28170,47119
28232,47003
28316,46901
28418,46817
28534,46755
28534,46755
28608,46733
28660,46717
28792,46704
28923,46717
Z" /> 
<path style="fill:#000000; fill-opacity:1.0; 
stroke:#000000; stroke-width:0; stroke-opacity:1; 
stroke-linecap:round; stroke-linejoin:round;fill-rule:evenodd;"
d="M 32860,46717
32912,46733
32986,46755
32986,46755
33102,46817
33204,46901
33288,47003
33350,47119
33388,47245
33398,47344
33398,47606
33388,47705
33388,47705
33352,47823
33350,47831
33288,47947
33204,48049
33102,48133
32986,48195
32860,48233
32729,48246
32597,48233
32505,48205
32471,48195
32413,48164
32355,48133
32253,48049
32169,47947
32107,47831
32069,47705
32059,47606
32059,47344
32069,47245
32107,47119
32169,47003
32253,46901
32355,46817
32471,46755
32471,46755
32545,46733
32597,46717
32729,46704
32860,46717
Z" /> 
<path style="fill:#000000; fill-opacity:1.0; 
stroke:#000000; stroke-width:0; stroke-opacity:1; 
stroke-linecap:round; stroke-linejoin:round;fill-rule:evenodd;"
d="M 30891,46717
30943,46733
31017,46755
31017,46755
31134,46817
31236,46901
31319,47003
31381,47119
31420,47245
31429,47344
31429,47606
31420,47705
31420,47705
31384,47823
31381,47831
31319,47947
31236,48049
31134,48133
31017,48195
30891,48233
30760,48246
30629,48233
30537,48205
30503,48195
30445,48164
30386,48133
30285,48049
30201,47947
30139,47831
30100,47705
30091,47606
30091,47344
30100,47245
30139,47119
30201,47003
30285,46901
30386,46817
30503,46755
30503,46755
30577,46733
30629,46717
30760,46704
30891,46717
Z" /> 
<path style="fill:#000000; fill-opacity:1.0; 
stroke:#000000; stroke-width:0; stroke-opacity:1; 
stroke-linecap:round; stroke-linejoin:round;fill-rule:evenodd;"
d="M 39201,46710
39225,46717
39246,46729
39266,46745
39281,46764
39293,46786
39300,46810
39303,46839
39303,48110
39300,48140
39293,48164
39281,48186
39266,48205
39246,48221
39225,48233
39201,48240
39171,48243
38097,48243
38067,48240
38044,48233
38022,48221
38002,48205
37987,48186
37975,48164
37968,48140
37965,48110
37965,46839
37968,46810
37975,46786
37987,46764
38002,46745
38022,46729
38044,46717
38067,46710
38097,46707
39171,46707
39201,46710
Z" /> 
<path style="fill:#000000; fill-opacity:1.0; 
stroke:#000000; stroke-width:0; stroke-opacity:1; 
stroke-linecap:round; stroke-linejoin:round;fill-rule:evenodd;"
d="M 62796,46348
62858,46354
62976,46390
62976,46390
63086,46449
63182,46527
63260,46623
63317,46729
63319,46733
63355,46851
63367,46975
63355,47098
63319,47217
63319,47217
63260,47327
63182,47423
63086,47501
63004,47545
62976,47560
62858,47596
62796,47602
62765,47605
62703,47605
62672,47602
62611,47596
62492,47560
62464,47545
62382,47501
62286,47423
62208,47327
62149,47217
62149,47217
62113,47098
62101,46975
62113,46851
62149,46733
62151,46729
62208,46623
62286,46527
62382,46449
62492,46390
62492,46390
62611,46354
62672,46348
62703,46345
62765,46345
62796,46348
Z" /> 
<path style="fill:#000000; fill-opacity:1.0; 
stroke:#000000; stroke-width:0; stroke-opacity:1; 
stroke-linecap:round; stroke-linejoin:round;fill-rule:evenodd;"
d="M 48796,46348
48858,46354
48976,46390
48976,46390
49086,46449
49182,46527
49260,46623
49317,46729
49319,46733
49355,46851
49367,46975
49355,47098
49319,47217
49319,47217
49260,47327
49182,47423
49086,47501
49004,47545
48976,47560
48858,47596
48796,47602
48765,47605
48703,47605
48672,47602
48611,47596
48492,47560
48464,47545
48382,47501
48286,47423
48208,47327
48149,47217
48149,47217
48113,47098
48101,46975
48113,46851
48149,46733
48151,46729
48208,46623
48286,46527
48382,46449
48492,46390
48492,46390
48611,46354
48672,46348
48703,46345
48765,46345
48796,46348
Z" /> 
<path style="fill:#000000; fill-opacity:1.0; 
stroke:#000000; stroke-width:0; stroke-opacity:1; 
stroke-linecap:round; stroke-linejoin:round;fill-rule:evenodd;"
d="M 50796,46348
50858,46354
50976,46390
50976,46390
51086,46449
51182,46527
51260,46623
51317,46729
51319,46733
51355,46851
51367,46975
51355,47098
51319,47217
51319,47217
51260,47327
51182,47423
51086,47501
51004,47545
50976,47560
50858,47596
50796,47602
50765,47605
50703,47605
50672,47602
50611,47596
50492,47560
50464,47545
50382,47501
50286,47423
50208,47327
50149,47217
50149,47217
50113,47098
50101,46975
50113,46851
50149,46733
50151,46729
50208,46623
50286,46527
50382,46449
50492,46390
50492,46390
50611,46354
50672,46348
50703,46345
50765,46345
50796,46348
Z" /> 
<path style="fill:#000000; fill-opacity:1.0; 
stroke:#000000; stroke-width:0; stroke-opacity:1; 
stroke-linecap:round; stroke-linejoin:round;fill-rule:evenodd;"
d="M 46796,46348
46858,46354
46976,46390
46976,46390
47086,46449
47182,46527
47260,46623
47317,46729
47319,46733
47355,46851
47367,46975
47355,47098
47319,47217
47319,47217
47260,47327
47182,47423
47086,47501
47004,47545
46976,47560
46858,47596
46796,47602
46765,47605
46703,47605
46672,47602
46611,47596
46492,47560
46464,47545
46382,47501
46286,47423
46208,47327
46149,47217
46149,47217
46113,47098
46101,46975
46113,46851
46149,46733
46151,46729
46208,46623
46286,46527
46382,46449
46492,46390
46492,46390
46611,46354
46672,46348
46703,46345
46765,46345
46796,46348
Z" /> 
<path style="fill:#000000; fill-opacity:1.0; 
stroke:#000000; stroke-width:0; stroke-opacity:1; 
stroke-linecap:round; stroke-linejoin:round;fill-rule:evenodd;"
d="M 71364,47605
70104,47605
70104,46345
71364,46345
71364,47605
Z" /> 
<path style="fill:#000000; fill-opacity:1.0; 
stroke:#000000; stroke-width:0; stroke-opacity:1; 
stroke-linecap:round; stroke-linejoin:round;fill-rule:evenodd;"
d="M 44796,46348
44858,46354
44976,46390
44976,46390
45086,46449
45182,46527
45260,46623
45317,46729
45319,46733
45355,46851
45367,46975
45355,47098
45319,47217
45319,47217
45260,47327
45182,47423
45086,47501
45004,47545
44976,47560
44858,47596
44796,47602
44765,47605
44703,47605
44672,47602
44611,47596
44492,47560
44464,47545
44382,47501
44286,47423
44208,47327
44149,47217
44149,47217
44113,47098
44101,46975
44113,46851
44149,46733
44151,46729
44208,46623
44286,46527
44382,46449
44492,46390
44492,46390
44611,46354
44672,46348
44703,46345
44765,46345
44796,46348
Z" /> 
<path style="fill:#000000; fill-opacity:1.0; 
stroke:#000000; stroke-width:0; stroke-opacity:1; 
stroke-linecap:round; stroke-linejoin:round;fill-rule:evenodd;"
d="M 68796,46348
68858,46354
68976,46390
68976,46390
69086,46449
69182,46527
69260,46623
69317,46729
69319,46733
69355,46851
69367,46975
69355,47098
69319,47217
69319,47217
69260,47327
69182,47423
69086,47501
69004,47545
68976,47560
68858,47596
68796,47602
68765,47605
68703,47605
68672,47602
68611,47596
68492,47560
68464,47545
68382,47501
68286,47423
68208,47327
68149,47217
68149,47217
68113,47098
68101,46975
68113,46851
68149,46733
68151,46729
68208,46623
68286,46527
68382,46449
68492,46390
68492,46390
68611,46354
68672,46348
68703,46345
68765,46345
68796,46348
Z" /> 
<path style="fill:#000000; fill-opacity:1.0; 
stroke:#000000; stroke-width:0; stroke-opacity:1; 
stroke-linecap:round; stroke-linejoin:round;fill-rule:evenodd;"
d="M 66796,46348
66858,46354
66976,46390
66976,46390
67086,46449
67182,46527
67260,46623
67317,46729
67319,46733
67355,46851
67367,46975
67355,47098
67319,47217
67319,47217
67260,47327
67182,47423
67086,47501
67004,47545
66976,47560
66858,47596
66796,47602
66765,47605
66703,47605
66672,47602
66611,47596
66492,47560
66464,47545
66382,47501
66286,47423
66208,47327
66149,47217
66149,47217
66113,47098
66101,46975
66113,46851
66149,46733
66151,46729
66208,46623
66286,46527
66382,46449
66492,46390
66492,46390
66611,46354
66672,46348
66703,46345
66765,46345
66796,46348
Z" /> 
<path style="fill:#000000; fill-opacity:1.0; 
stroke:#000000; stroke-width:0; stroke-opacity:1; 
stroke-linecap:round; stroke-linejoin:round;fill-rule:evenodd;"
d="M 60796,46348
60858,46354
60976,46390
60976,46390
61086,46449
61182,46527
61260,46623
61317,46729
61319,46733
61355,46851
61367,46975
61355,47098
61319,47217
61319,47217
61260,47327
61182,47423
61086,47501
61004,47545
60976,47560
60858,47596
60796,47602
60765,47605
60703,47605
60672,47602
60611,47596
60492,47560
60464,47545
60382,47501
60286,47423
60208,47327
60149,47217
60149,47217
60113,47098
60101,46975
60113,46851
60149,46733
60151,46729
60208,46623
60286,46527
60382,46449
60492,46390
60492,46390
60611,46354
60672,46348
60703,46345
60765,46345
60796,46348
Z" /> 
<path style="fill:#000000; fill-opacity:1.0; 
stroke:#000000; stroke-width:0; stroke-opacity:1; 
stroke-linecap:round; stroke-linejoin:round;fill-rule:evenodd;"
d="M 54796,46348
54858,46354
54976,46390
54976,46390
55086,46449
55182,46527
55260,46623
55317,46729
55319,46733
55355,46851
55367,46975
55355,47098
55319,47217
55319,47217
55260,47327
55182,47423
55086,47501
55004,47545
54976,47560
54858,47596
54796,47602
54765,47605
54703,47605
54672,47602
54611,47596
54492,47560
54464,47545
54382,47501
54286,47423
54208,47327
54149,47217
54149,47217
54113,47098
54101,46975
54113,46851
54149,46733
54151,46729
54208,46623
54286,46527
54382,46449
54492,46390
54492,46390
54611,46354
54672,46348
54703,46345
54765,46345
54796,46348
Z" /> 
<path style="fill:#000000; fill-opacity:1.0; 
stroke:#000000; stroke-width:0; stroke-opacity:1; 
stroke-linecap:round; stroke-linejoin:round;fill-rule:evenodd;"
d="M 56796,46348
56858,46354
56976,46390
56976,46390
57086,46449
57182,46527
57260,46623
57317,46729
57319,46733
57355,46851
57367,46975
57355,47098
57319,47217
57319,47217
57260,47327
57182,47423
57086,47501
57004,47545
56976,47560
56858,47596
56796,47602
56765,47605
56703,47605
56672,47602
56611,47596
56492,47560
56464,47545
56382,47501
56286,47423
56208,47327
56149,47217
56149,47217
56113,47098
56101,46975
56113,46851
56149,46733
56151,46729
56208,46623
56286,46527
56382,46449
56492,46390
56492,46390
56611,46354
56672,46348
56703,46345
56765,46345
56796,46348
Z" /> 
<path style="fill:#000000; fill-opacity:1.0; 
stroke:#000000; stroke-width:0; stroke-opacity:1; 
stroke-linecap:round; stroke-linejoin:round;fill-rule:evenodd;"
d="M 58796,46348
58858,46354
58976,46390
58976,46390
59086,46449
59182,46527
59260,46623
59317,46729
59319,46733
59355,46851
59367,46975
59355,47098
59319,47217
59319,47217
59260,47327
59182,47423
59086,47501
59004,47545
58976,47560
58858,47596
58796,47602
58765,47605
58703,47605
58672,47602
58611,47596
58492,47560
58464,47545
58382,47501
58286,47423
58208,47327
58149,47217
58149,47217
58113,47098
58101,46975
58113,46851
58149,46733
58151,46729
58208,46623
58286,46527
58382,46449
58492,46390
58492,46390
58611,46354
58672,46348
58703,46345
58765,46345
58796,46348
Z" /> 
<path style="fill:#000000; fill-opacity:1.0; 
stroke:#000000; stroke-width:0; stroke-opacity:1; 
stroke-linecap:round; stroke-linejoin:round;fill-rule:evenodd;"
d="M 64796,46348
64858,46354
64976,46390
64976,46390
65086,46449
65182,46527
65260,46623
65317,46729
65319,46733
65355,46851
65367,46975
65355,47098
65319,47217
65319,47217
65260,47327
65182,47423
65086,47501
65004,47545
64976,47560
64858,47596
64796,47602
64765,47605
64703,47605
64672,47602
64611,47596
64492,47560
64464,47545
64382,47501
64286,47423
64208,47327
64149,47217
64149,47217
64113,47098
64101,46975
64113,46851
64149,46733
64151,46729
64208,46623
64286,46527
64382,46449
64492,46390
64492,46390
64611,46354
64672,46348
64703,46345
64765,46345
64796,46348
Z" /> 
<path style="fill:#000000; fill-opacity:1.0; 
stroke:#000000; stroke-width:0; stroke-opacity:1; 
stroke-linecap:round; stroke-linejoin:round;fill-rule:evenodd;"
d="M 52796,46348
52858,46354
52976,46390
52976,46390
53086,46449
53182,46527
53260,46623
53317,46729
53319,46733
53355,46851
53367,46975
53355,47098
53319,47217
53319,47217
53260,47327
53182,47423
53086,47501
53004,47545
52976,47560
52858,47596
52796,47602
52765,47605
52703,47605
52672,47602
52611,47596
52492,47560
52464,47545
52382,47501
52286,47423
52208,47327
52149,47217
52149,47217
52113,47098
52101,46975
52113,46851
52149,46733
52151,46729
52208,46623
52286,46527
52382,46449
52492,46390
52492,46390
52611,46354
52672,46348
52703,46345
52765,46345
52796,46348
Z" /> 
<path style="fill:#000000; fill-opacity:1.0; 
stroke:#000000; stroke-width:0; stroke-opacity:1; 
stroke-linecap:round; stroke-linejoin:round;fill-rule:evenodd;"
d="M 82296,45548
82358,45554
82476,45590
82476,45590
82586,45649
82682,45727
82760,45823
82777,45854
82819,45933
82855,46051
82867,46175
82855,46298
82819,46417
82819,46417
82760,46527
82682,46623
82586,46701
82512,46740
82476,46760
82358,46796
82296,46802
82265,46805
82203,46805
82172,46802
82111,46796
81992,46760
81956,46740
81882,46701
81786,46623
81708,46527
81649,46417
81649,46417
81613,46298
81601,46175
81613,46051
81649,45933
81692,45854
81708,45823
81786,45727
81882,45649
81992,45590
81992,45590
82111,45554
82172,45548
82203,45545
82265,45545
82296,45548
Z" /> 
<path style="fill:#000000; fill-opacity:1.0; 
stroke:#000000; stroke-width:0; stroke-opacity:1; 
stroke-linecap:round; stroke-linejoin:round;fill-rule:evenodd;"
d="M 76296,45548
76358,45554
76476,45590
76476,45590
76586,45649
76682,45727
76760,45823
76777,45854
76819,45933
76855,46051
76867,46175
76855,46298
76819,46417
76819,46417
76760,46527
76682,46623
76586,46701
76512,46740
76476,46760
76358,46796
76296,46802
76265,46805
76203,46805
76172,46802
76111,46796
75992,46760
75956,46740
75882,46701
75786,46623
75708,46527
75649,46417
75649,46417
75613,46298
75601,46175
75613,46051
75649,45933
75692,45854
75708,45823
75786,45727
75882,45649
75992,45590
75992,45590
76111,45554
76172,45548
76203,45545
76265,45545
76296,45548
Z" /> 
<path style="fill:#000000; fill-opacity:1.0; 
stroke:#000000; stroke-width:0; stroke-opacity:1; 
stroke-linecap:round; stroke-linejoin:round;fill-rule:evenodd;"
d="M 40032,45446
40118,45481
40195,45533
40261,45599
40313,45676
40348,45762
40366,45854
40366,45947
40348,46038
40313,46124
40261,46201
40195,46267
40118,46319
40032,46354
39940,46373
39847,46373
39756,46354
39670,46319
39593,46267
39527,46201
39475,46124
39440,46038
39421,45947
39421,45854
39440,45762
39475,45676
39527,45599
39593,45533
39670,45481
39756,45446
39847,45428
39940,45428
40032,45446
Z" /> 
<path style="fill:#000000; fill-opacity:1.0; 
stroke:#000000; stroke-width:0; stroke-opacity:1; 
stroke-linecap:round; stroke-linejoin:round;fill-rule:evenodd;"
d="M 82296,43548
82358,43554
82476,43590
82476,43590
82586,43649
82586,43649
82586,43649
82682,43727
82760,43823
82819,43933
82855,44051
82867,44175
82855,44298
82819,44417
82819,44417
82760,44527
82682,44623
82586,44701
82476,44760
82476,44760
82358,44796
82296,44802
82265,44805
82203,44805
82172,44802
82111,44796
81992,44760
81992,44760
81882,44701
81786,44623
81708,44527
81649,44417
81649,44417
81613,44298
81601,44175
81613,44051
81649,43933
81708,43823
81786,43727
81882,43649
81882,43649
81882,43649
81992,43590
81992,43590
82111,43554
82172,43548
82203,43545
82265,43545
82296,43548
Z" /> 
<path style="fill:#000000; fill-opacity:1.0; 
stroke:#000000; stroke-width:0; stroke-opacity:1; 
stroke-linecap:round; stroke-linejoin:round;fill-rule:evenodd;"
d="M 76296,43548
76358,43554
76476,43590
76476,43590
76586,43649
76586,43649
76586,43649
76682,43727
76760,43823
76819,43933
76855,44051
76867,44175
76855,44298
76819,44417
76819,44417
76760,44527
76682,44623
76586,44701
76476,44760
76476,44760
76358,44796
76296,44802
76265,44805
76203,44805
76172,44802
76111,44796
75992,44760
75992,44760
75882,44701
75786,44623
75708,44527
75649,44417
75649,44417
75613,44298
75601,44175
75613,44051
75649,43933
75708,43823
75786,43727
75882,43649
75882,43649
75882,43649
75992,43590
75992,43590
76111,43554
76172,43548
76203,43545
76265,43545
76296,43548
Z" /> 
<path style="fill:#000000; fill-opacity:1.0; 
stroke:#000000; stroke-width:0; stroke-opacity:1; 
stroke-linecap:round; stroke-linejoin:round;fill-rule:evenodd;"
d="M 60064,42907
60171,42952
60268,43016
60350,43098
60415,43195
60459,43303
60482,43417
60482,43533
60459,43647
60415,43755
60350,43851
60268,43934
60171,43998
60064,44043
59950,44065
59833,44065
59719,44043
59612,43998
59515,43934
59433,43851
59368,43755
59324,43647
59301,43533
59301,43417
59324,43303
59368,43195
59433,43098
59515,43016
59612,42952
59719,42907
59833,42884
59950,42884
60064,42907
Z" /> 
<path style="fill:#000000; fill-opacity:1.0; 
stroke:#000000; stroke-width:0; stroke-opacity:1; 
stroke-linecap:round; stroke-linejoin:round;fill-rule:evenodd;"
d="M 63906,42907
64014,42952
64111,43016
64193,43098
64257,43195
64302,43303
64325,43417
64325,43533
64302,43647
64257,43755
64193,43851
64111,43934
64014,43998
63906,44043
63792,44065
63676,44065
63562,44043
63454,43998
63358,43934
63275,43851
63211,43755
63166,43647
63144,43533
63144,43417
63166,43303
63211,43195
63275,43098
63358,43016
63454,42952
63562,42907
63676,42884
63792,42884
63906,42907
Z" /> 
<path style="fill:#000000; fill-opacity:1.0; 
stroke:#000000; stroke-width:0; stroke-opacity:1; 
stroke-linecap:round; stroke-linejoin:round;fill-rule:evenodd;"
d="M 82296,41548
82358,41554
82476,41590
82476,41590
82586,41649
82682,41727
82760,41823
82819,41933
82819,41933
82855,42051
82867,42175
82855,42298
82819,42417
82819,42417
82760,42527
82682,42623
82586,42701
82476,42760
82476,42760
82358,42796
82296,42802
82265,42805
82203,42805
82172,42802
82111,42796
81992,42760
81992,42760
81882,42701
81786,42623
81708,42527
81649,42417
81649,42417
81613,42298
81601,42175
81613,42051
81649,41933
81649,41933
81708,41823
81786,41727
81882,41649
81992,41590
81992,41590
82111,41554
82172,41548
82203,41545
82265,41545
82296,41548
Z" /> 
<path style="fill:#000000; fill-opacity:1.0; 
stroke:#000000; stroke-width:0; stroke-opacity:1; 
stroke-linecap:round; stroke-linejoin:round;fill-rule:evenodd;"
d="M 76296,41548
76358,41554
76476,41590
76476,41590
76586,41649
76682,41727
76760,41823
76819,41933
76819,41933
76855,42051
76867,42175
76855,42298
76819,42417
76819,42417
76760,42527
76682,42623
76586,42701
76476,42760
76476,42760
76358,42796
76296,42802
76265,42805
76203,42805
76172,42802
76111,42796
75992,42760
75992,42760
75882,42701
75786,42623
75708,42527
75649,42417
75649,42417
75613,42298
75601,42175
75613,42051
75649,41933
75649,41933
75708,41823
75786,41727
75882,41649
75992,41590
75992,41590
76111,41554
76172,41548
76203,41545
76265,41545
76296,41548
Z" /> 
<path style="fill:#000000; fill-opacity:1.0; 
stroke:#000000; stroke-width:0; stroke-opacity:1; 
stroke-linecap:round; stroke-linejoin:round;fill-rule:evenodd;"
d="M 27973,40877
27973,40877
27973,40877
28107,40917
28107,40917
28107,40917
28230,40983
28338,41071
28426,41179
28492,41302
28532,41436
28546,41575
28532,41714
28532,41714
28532,41714
28499,41823
28492,41847
28426,41971
28338,42078
28230,42167
28107,42233
28107,42233
28107,42233
27973,42273
27973,42273
27973,42273
27869,42284
27799,42284
27695,42273
27695,42273
27695,42273
27562,42233
27562,42233
27562,42233
27438,42167
27331,42078
27242,41971
27176,41847
27169,41823
27136,41714
27136,41714
27136,41714
27122,41575
27136,41436
27176,41302
27242,41179
27331,41071
27438,40983
27562,40917
27562,40917
27562,40917
27695,40877
27695,40877
27695,40877
27799,40866
27869,40866
27973,40877
Z" /> 
<path style="fill:#000000; fill-opacity:1.0; 
stroke:#000000; stroke-width:0; stroke-opacity:1; 
stroke-linecap:round; stroke-linejoin:round;fill-rule:evenodd;"
d="M 32543,42284
31125,42284
31125,40866
32543,40866
32543,42284
Z" /> 
<path style="fill:#000000; fill-opacity:1.0; 
stroke:#000000; stroke-width:0; stroke-opacity:1; 
stroke-linecap:round; stroke-linejoin:round;fill-rule:evenodd;"
d="M 29973,40877
29973,40877
29973,40877
30107,40917
30107,40917
30107,40917
30230,40983
30338,41071
30426,41179
30492,41302
30532,41436
30546,41575
30532,41714
30532,41714
30532,41714
30499,41823
30492,41847
30426,41971
30338,42078
30230,42167
30107,42233
30107,42233
30107,42233
29973,42273
29973,42273
29973,42273
29869,42284
29799,42284
29695,42273
29695,42273
29695,42273
29562,42233
29562,42233
29562,42233
29438,42167
29331,42078
29242,41971
29176,41847
29169,41823
29136,41714
29136,41714
29136,41714
29122,41575
29136,41436
29176,41302
29242,41179
29331,41071
29438,40983
29562,40917
29562,40917
29562,40917
29695,40877
29695,40877
29695,40877
29799,40866
29869,40866
29973,40877
Z" /> 
<path style="fill:#000000; fill-opacity:1.0; 
stroke:#000000; stroke-width:0; stroke-opacity:1; 
stroke-linecap:round; stroke-linejoin:round;fill-rule:evenodd;"
d="M 56996,39448
57058,39454
57176,39490
57176,39490
57286,39549
57286,39549
57286,39549
57382,39627
57460,39723
57519,39833
57555,39951
57567,40075
57555,40198
57519,40317
57519,40317
57460,40427
57382,40523
57286,40601
57176,40660
57176,40660
57058,40696
56996,40702
56965,40705
56903,40705
56872,40702
56811,40696
56692,40660
56692,40660
56582,40601
56486,40523
56408,40427
56349,40317
56349,40317
56313,40198
56301,40075
56313,39951
56349,39833
56408,39723
56486,39627
56582,39549
56582,39549
56582,39549
56692,39490
56692,39490
56811,39454
56872,39448
56903,39445
56965,39445
56996,39448
Z" /> 
<path style="fill:#000000; fill-opacity:1.0; 
stroke:#000000; stroke-width:0; stroke-opacity:1; 
stroke-linecap:round; stroke-linejoin:round;fill-rule:evenodd;"
d="M 60996,39448
61058,39454
61176,39490
61176,39490
61286,39549
61286,39549
61286,39549
61382,39627
61460,39723
61519,39833
61555,39951
61567,40075
61555,40198
61519,40317
61519,40317
61460,40427
61382,40523
61286,40601
61176,40660
61176,40660
61058,40696
60996,40702
60965,40705
60903,40705
60872,40702
60811,40696
60692,40660
60692,40660
60582,40601
60486,40523
60408,40427
60349,40317
60349,40317
60313,40198
60301,40075
60313,39951
60349,39833
60408,39723
60486,39627
60582,39549
60582,39549
60582,39549
60692,39490
60692,39490
60811,39454
60872,39448
60903,39445
60965,39445
60996,39448
Z" /> 
<path style="fill:#000000; fill-opacity:1.0; 
stroke:#000000; stroke-width:0; stroke-opacity:1; 
stroke-linecap:round; stroke-linejoin:round;fill-rule:evenodd;"
d="M 54996,39448
55058,39454
55176,39490
55176,39490
55286,39549
55286,39549
55286,39549
55382,39627
55460,39723
55519,39833
55555,39951
55567,40075
55555,40198
55519,40317
55519,40317
55460,40427
55382,40523
55286,40601
55176,40660
55176,40660
55058,40696
54996,40702
54965,40705
54903,40705
54872,40702
54811,40696
54692,40660
54692,40660
54582,40601
54486,40523
54408,40427
54349,40317
54349,40317
54313,40198
54301,40075
54313,39951
54349,39833
54408,39723
54486,39627
54582,39549
54582,39549
54582,39549
54692,39490
54692,39490
54811,39454
54872,39448
54903,39445
54965,39445
54996,39448
Z" /> 
<path style="fill:#000000; fill-opacity:1.0; 
stroke:#000000; stroke-width:0; stroke-opacity:1; 
stroke-linecap:round; stroke-linejoin:round;fill-rule:evenodd;"
d="M 70996,39448
71058,39454
71176,39490
71176,39490
71286,39549
71286,39549
71286,39549
71382,39627
71460,39723
71519,39833
71555,39951
71567,40075
71555,40198
71519,40317
71519,40317
71460,40427
71382,40523
71286,40601
71176,40660
71176,40660
71058,40696
70996,40702
70965,40705
70903,40705
70872,40702
70811,40696
70692,40660
70692,40660
70582,40601
70486,40523
70408,40427
70349,40317
70349,40317
70313,40198
70301,40075
70313,39951
70349,39833
70408,39723
70486,39627
70582,39549
70582,39549
70582,39549
70692,39490
70692,39490
70811,39454
70872,39448
70903,39445
70965,39445
70996,39448
Z" /> 
<path style="fill:#000000; fill-opacity:1.0; 
stroke:#000000; stroke-width:0; stroke-opacity:1; 
stroke-linecap:round; stroke-linejoin:round;fill-rule:evenodd;"
d="M 52996,39448
53058,39454
53176,39490
53176,39490
53286,39549
53286,39549
53286,39549
53382,39627
53460,39723
53519,39833
53555,39951
53567,40075
53555,40198
53519,40317
53519,40317
53460,40427
53382,40523
53286,40601
53176,40660
53176,40660
53058,40696
52996,40702
52965,40705
52903,40705
52872,40702
52811,40696
52692,40660
52692,40660
52582,40601
52486,40523
52408,40427
52349,40317
52349,40317
52313,40198
52301,40075
52313,39951
52349,39833
52408,39723
52486,39627
52582,39549
52582,39549
52582,39549
52692,39490
52692,39490
52811,39454
52872,39448
52903,39445
52965,39445
52996,39448
Z" /> 
<path style="fill:#000000; fill-opacity:1.0; 
stroke:#000000; stroke-width:0; stroke-opacity:1; 
stroke-linecap:round; stroke-linejoin:round;fill-rule:evenodd;"
d="M 68996,39448
69058,39454
69176,39490
69176,39490
69286,39549
69286,39549
69286,39549
69382,39627
69460,39723
69519,39833
69555,39951
69567,40075
69555,40198
69519,40317
69519,40317
69460,40427
69382,40523
69286,40601
69176,40660
69176,40660
69058,40696
68996,40702
68965,40705
68903,40705
68872,40702
68811,40696
68692,40660
68692,40660
68582,40601
68486,40523
68408,40427
68349,40317
68349,40317
68313,40198
68301,40075
68313,39951
68349,39833
68408,39723
68486,39627
68582,39549
68582,39549
68582,39549
68692,39490
68692,39490
68811,39454
68872,39448
68903,39445
68965,39445
68996,39448
Z" /> 
<path style="fill:#000000; fill-opacity:1.0; 
stroke:#000000; stroke-width:0; stroke-opacity:1; 
stroke-linecap:round; stroke-linejoin:round;fill-rule:evenodd;"
d="M 50996,39448
51058,39454
51176,39490
51176,39490
51286,39549
51286,39549
51286,39549
51382,39627
51460,39723
51519,39833
51555,39951
51567,40075
51555,40198
51519,40317
51519,40317
51460,40427
51382,40523
51286,40601
51176,40660
51176,40660
51058,40696
50996,40702
50965,40705
50903,40705
50872,40702
50811,40696
50692,40660
50692,40660
50582,40601
50486,40523
50408,40427
50349,40317
50349,40317
50313,40198
50301,40075
50313,39951
50349,39833
50408,39723
50486,39627
50582,39549
50582,39549
50582,39549
50692,39490
50692,39490
50811,39454
50872,39448
50903,39445
50965,39445
50996,39448
Z" /> 
<path style="fill:#000000; fill-opacity:1.0; 
stroke:#000000; stroke-width:0; stroke-opacity:1; 
stroke-linecap:round; stroke-linejoin:round;fill-rule:evenodd;"
d="M 48996,39448
49058,39454
49176,39490
49176,39490
49286,39549
49286,39549
49286,39549
49382,39627
49460,39723
49519,39833
49555,39951
49567,40075
49555,40198
49519,40317
49519,40317
49460,40427
49382,40523
49286,40601
49176,40660
49176,40660
49058,40696
48996,40702
48965,40705
48903,40705
48872,40702
48811,40696
48692,40660
48692,40660
48582,40601
48486,40523
48408,40427
48349,40317
48349,40317
48313,40198
48301,40075
48313,39951
48349,39833
48408,39723
48486,39627
48582,39549
48582,39549
48582,39549
48692,39490
48692,39490
48811,39454
48872,39448
48903,39445
48965,39445
48996,39448
Z" /> 
<path style="fill:#000000; fill-opacity:1.0; 
stroke:#000000; stroke-width:0; stroke-opacity:1; 
stroke-linecap:round; stroke-linejoin:round;fill-rule:evenodd;"
d="M 46996,39448
47058,39454
47176,39490
47176,39490
47286,39549
47286,39549
47286,39549
47382,39627
47460,39723
47519,39833
47555,39951
47567,40075
47555,40198
47519,40317
47519,40317
47460,40427
47382,40523
47286,40601
47176,40660
47176,40660
47058,40696
46996,40702
46965,40705
46903,40705
46872,40702
46811,40696
46692,40660
46692,40660
46582,40601
46486,40523
46408,40427
46349,40317
46349,40317
46313,40198
46301,40075
46313,39951
46349,39833
46408,39723
46486,39627
46582,39549
46582,39549
46582,39549
46692,39490
46692,39490
46811,39454
46872,39448
46903,39445
46965,39445
46996,39448
Z" /> 
<path style="fill:#000000; fill-opacity:1.0; 
stroke:#000000; stroke-width:0; stroke-opacity:1; 
stroke-linecap:round; stroke-linejoin:round;fill-rule:evenodd;"
d="M 45564,40705
44304,40705
44304,39445
45564,39445
45564,40705
Z" /> 
<path style="fill:#000000; fill-opacity:1.0; 
stroke:#000000; stroke-width:0; stroke-opacity:1; 
stroke-linecap:round; stroke-linejoin:round;fill-rule:evenodd;"
d="M 66996,39448
67058,39454
67176,39490
67176,39490
67286,39549
67286,39549
67286,39549
67382,39627
67460,39723
67519,39833
67555,39951
67567,40075
67555,40198
67519,40317
67519,40317
67460,40427
67382,40523
67286,40601
67176,40660
67176,40660
67058,40696
66996,40702
66965,40705
66903,40705
66872,40702
66811,40696
66692,40660
66692,40660
66582,40601
66486,40523
66408,40427
66349,40317
66349,40317
66313,40198
66301,40075
66313,39951
66349,39833
66408,39723
66486,39627
66582,39549
66582,39549
66582,39549
66692,39490
66692,39490
66811,39454
66872,39448
66903,39445
66965,39445
66996,39448
Z" /> 
<path style="fill:#000000; fill-opacity:1.0; 
stroke:#000000; stroke-width:0; stroke-opacity:1; 
stroke-linecap:round; stroke-linejoin:round;fill-rule:evenodd;"
d="M 64996,39448
65058,39454
65176,39490
65176,39490
65286,39549
65286,39549
65286,39549
65382,39627
65460,39723
65519,39833
65555,39951
65567,40075
65555,40198
65519,40317
65519,40317
65460,40427
65382,40523
65286,40601
65176,40660
65176,40660
65058,40696
64996,40702
64965,40705
64903,40705
64872,40702
64811,40696
64692,40660
64692,40660
64582,40601
64486,40523
64408,40427
64349,40317
64349,40317
64313,40198
64301,40075
64313,39951
64349,39833
64408,39723
64486,39627
64582,39549
64582,39549
64582,39549
64692,39490
64692,39490
64811,39454
64872,39448
64903,39445
64965,39445
64996,39448
Z" /> 
<path style="fill:#000000; fill-opacity:1.0; 
stroke:#000000; stroke-width:0; stroke-opacity:1; 
stroke-linecap:round; stroke-linejoin:round;fill-rule:evenodd;"
d="M 62996,39448
63058,39454
63176,39490
63176,39490
63286,39549
63286,39549
63286,39549
63382,39627
63460,39723
63519,39833
63555,39951
63567,40075
63555,40198
63519,40317
63519,40317
63460,40427
63382,40523
63286,40601
63176,40660
63176,40660
63058,40696
62996,40702
62965,40705
62903,40705
62872,40702
62811,40696
62692,40660
62692,40660
62582,40601
62486,40523
62408,40427
62349,40317
62349,40317
62313,40198
62301,40075
62313,39951
62349,39833
62408,39723
62486,39627
62582,39549
62582,39549
62582,39549
62692,39490
62692,39490
62811,39454
62872,39448
62903,39445
62965,39445
62996,39448
Z" /> 
<path style="fill:#000000; fill-opacity:1.0; 
stroke:#000000; stroke-width:0; stroke-opacity:1; 
stroke-linecap:round; stroke-linejoin:round;fill-rule:evenodd;"
d="M 58996,39448
59058,39454
59176,39490
59176,39490
59286,39549
59286,39549
59286,39549
59382,39627
59460,39723
59519,39833
59555,39951
59567,40075
59555,40198
59519,40317
59519,40317
59460,40427
59382,40523
59286,40601
59176,40660
59176,40660
59058,40696
58996,40702
58965,40705
58903,40705
58872,40702
58811,40696
58692,40660
58692,40660
58582,40601
58486,40523
58408,40427
58349,40317
58349,40317
58313,40198
58301,40075
58313,39951
58349,39833
58408,39723
58486,39627
58582,39549
58582,39549
58582,39549
58692,39490
58692,39490
58811,39454
58872,39448
58903,39445
58965,39445
58996,39448
Z" /> 
<path style="fill:#000000; fill-opacity:1.0; 
stroke:#000000; stroke-width:0; stroke-opacity:1; 
stroke-linecap:round; stroke-linejoin:round;fill-rule:evenodd;"
d="M 77903,38944
76565,38944
76565,37606
77903,37606
77903,38944
Z" /> 
<path style="fill:#000000; fill-opacity:1.0; 
stroke:#000000; stroke-width:0; stroke-opacity:1; 
stroke-linecap:round; stroke-linejoin:round;fill-rule:evenodd;"
d="M 75365,37615
75428,37634
75491,37654
75491,37654
75608,37716
75710,37799
75793,37901
75806,37926
75855,38018
75866,38054
75894,38144
75907,38275
75894,38406
75855,38532
75793,38649
75710,38750
75608,38834
75491,38896
75491,38896
75428,38915
75365,38935
75267,38944
75201,38944
75103,38935
75040,38915
74977,38896
74977,38896
74860,38834
74759,38750
74675,38649
74613,38532
74574,38406
74562,38275
74574,38144
74602,38054
74613,38018
74662,37926
74675,37901
74759,37799
74860,37716
74977,37654
74977,37654
75040,37634
75103,37615
75201,37606
75267,37606
75365,37615
Z" /> 
<path style="fill:#000000; fill-opacity:1.0; 
stroke:#000000; stroke-width:0; stroke-opacity:1; 
stroke-linecap:round; stroke-linejoin:round;fill-rule:evenodd;"
d="M 34749,37296
34749,37296
34749,37296
34821,37326
34853,37348
34885,37369
34940,37424
34983,37488
35013,37560
35028,37636
35028,37714
35013,37790
35013,37790
34983,37861
34940,37926
34885,37981
34821,38024
34821,38024
34821,38024
34749,38054
34673,38069
34595,38069
34519,38054
34448,38024
34448,38024
34448,38024
34383,37981
34328,37926
34285,37861
34255,37790
34255,37790
34240,37714
34240,37636
34255,37560
34285,37488
34328,37424
34383,37369
34415,37348
34448,37326
34519,37296
34519,37296
34519,37296
34595,37281
34673,37281
34749,37296
Z" /> 
<path style="fill:#000000; fill-opacity:1.0; 
stroke:#000000; stroke-width:0; stroke-opacity:1; 
stroke-linecap:round; stroke-linejoin:round;fill-rule:evenodd;"
d="M 77365,35615
77428,35634
77491,35654
77491,35654
77608,35716
77710,35799
77793,35901
77855,36018
77894,36144
77907,36275
77894,36406
77894,36406
77857,36528
77855,36532
77793,36649
77710,36750
77608,36834
77491,36896
77491,36896
77428,36915
77365,36935
77267,36944
77201,36944
77103,36935
77040,36915
76977,36896
76977,36896
76860,36834
76759,36750
76675,36649
76613,36532
76611,36528
76574,36406
76574,36406
76562,36275
76574,36144
76613,36018
76675,35901
76759,35799
76860,35716
76977,35654
76977,35654
77040,35634
77103,35615
77201,35606
77267,35606
77365,35615
Z" /> 
<path style="fill:#000000; fill-opacity:1.0; 
stroke:#000000; stroke-width:0; stroke-opacity:1; 
stroke-linecap:round; stroke-linejoin:round;fill-rule:evenodd;"
d="M 75365,35615
75428,35634
75491,35654
75491,35654
75608,35716
75710,35799
75793,35901
75855,36018
75894,36144
75907,36275
75894,36406
75894,36406
75857,36528
75855,36532
75793,36649
75710,36750
75608,36834
75491,36896
75491,36896
75428,36915
75365,36935
75267,36944
75201,36944
75103,36935
75040,36915
74977,36896
74977,36896
74860,36834
74759,36750
74675,36649
74613,36532
74611,36528
74574,36406
74574,36406
74562,36275
74574,36144
74613,36018
74675,35901
74759,35799
74860,35716
74977,35654
74977,35654
75040,35634
75103,35615
75201,35606
75267,35606
75365,35615
Z" /> 
<path style="fill:#000000; fill-opacity:1.0; 
stroke:#000000; stroke-width:0; stroke-opacity:1; 
stroke-linecap:round; stroke-linejoin:round;fill-rule:evenodd;"
d="M 34749,35800
34749,35800
34749,35800
34821,35830
34853,35852
34885,35873
34940,35928
34983,35992
35013,36064
35028,36140
35028,36218
35013,36294
35013,36294
34983,36365
34940,36430
34885,36485
34821,36528
34821,36528
34821,36528
34749,36557
34673,36573
34595,36573
34519,36557
34448,36528
34448,36528
34448,36528
34383,36485
34328,36430
34285,36365
34255,36294
34255,36294
34240,36218
34240,36140
34255,36064
34285,35992
34328,35928
34383,35873
34415,35852
34448,35830
34519,35800
34519,35800
34519,35800
34595,35785
34673,35785
34749,35800
Z" /> 
<path style="fill:#000000; fill-opacity:1.0; 
stroke:#000000; stroke-width:0; stroke-opacity:1; 
stroke-linecap:round; stroke-linejoin:round;fill-rule:evenodd;"
d="M 75365,33615
75405,33627
75491,33654
75491,33654
75608,33716
75710,33799
75793,33901
75855,34018
75894,34144
75907,34275
75894,34406
75855,34532
75793,34649
75710,34750
75608,34834
75491,34896
75491,34896
75428,34915
75365,34935
75267,34944
75201,34944
75103,34935
75040,34915
74977,34896
74977,34896
74860,34834
74759,34750
74675,34649
74613,34532
74574,34406
74562,34275
74574,34144
74613,34018
74675,33901
74759,33799
74860,33716
74977,33654
74977,33654
75063,33627
75103,33615
75201,33606
75267,33606
75365,33615
Z" /> 
<path style="fill:#000000; fill-opacity:1.0; 
stroke:#000000; stroke-width:0; stroke-opacity:1; 
stroke-linecap:round; stroke-linejoin:round;fill-rule:evenodd;"
d="M 77365,33615
77405,33627
77491,33654
77491,33654
77608,33716
77710,33799
77793,33901
77855,34018
77894,34144
77907,34275
77894,34406
77855,34532
77793,34649
77710,34750
77608,34834
77491,34896
77491,34896
77428,34915
77365,34935
77267,34944
77201,34944
77103,34935
77040,34915
76977,34896
76977,34896
76860,34834
76759,34750
76675,34649
76613,34532
76574,34406
76562,34275
76574,34144
76613,34018
76675,33901
76759,33799
76860,33716
76977,33654
76977,33654
77063,33627
77103,33615
77201,33606
77267,33606
77365,33615
Z" /> 
<path style="fill:#000000; fill-opacity:1.0; 
stroke:#000000; stroke-width:0; stroke-opacity:1; 
stroke-linecap:round; stroke-linejoin:round;fill-rule:evenodd;"
d="M 52996,33448
53058,33454
53176,33490
53176,33490
53286,33549
53286,33549
53286,33549
53382,33627
53460,33723
53519,33833
53555,33951
53567,34075
53555,34198
53519,34317
53519,34317
53460,34427
53382,34523
53286,34601
53176,34660
53176,34660
53058,34696
52996,34702
52965,34705
52903,34705
52872,34702
52811,34696
52692,34660
52692,34660
52582,34601
52486,34523
52408,34427
52349,34317
52349,34317
52313,34198
52301,34075
52313,33951
52349,33833
52408,33723
52486,33627
52582,33549
52582,33549
52582,33549
52692,33490
52692,33490
52811,33454
52872,33448
52903,33445
52965,33445
52996,33448
Z" /> 
<path style="fill:#000000; fill-opacity:1.0; 
stroke:#000000; stroke-width:0; stroke-opacity:1; 
stroke-linecap:round; stroke-linejoin:round;fill-rule:evenodd;"
d="M 54996,33448
55058,33454
55176,33490
55176,33490
55286,33549
55286,33549
55286,33549
55382,33627
55460,33723
55519,33833
55555,33951
55567,34075
55555,34198
55519,34317
55519,34317
55460,34427
55382,34523
55286,34601
55176,34660
55176,34660
55058,34696
54996,34702
54965,34705
54903,34705
54872,34702
54811,34696
54692,34660
54692,34660
54582,34601
54486,34523
54408,34427
54349,34317
54349,34317
54313,34198
54301,34075
54313,33951
54349,33833
54408,33723
54486,33627
54582,33549
54582,33549
54582,33549
54692,33490
54692,33490
54811,33454
54872,33448
54903,33445
54965,33445
54996,33448
Z" /> 
<path style="fill:#000000; fill-opacity:1.0; 
stroke:#000000; stroke-width:0; stroke-opacity:1; 
stroke-linecap:round; stroke-linejoin:round;fill-rule:evenodd;"
d="M 56996,33448
57058,33454
57176,33490
57176,33490
57286,33549
57286,33549
57286,33549
57382,33627
57460,33723
57519,33833
57555,33951
57567,34075
57555,34198
57519,34317
57519,34317
57460,34427
57382,34523
57286,34601
57176,34660
57176,34660
57058,34696
56996,34702
56965,34705
56903,34705
56872,34702
56811,34696
56692,34660
56692,34660
56582,34601
56486,34523
56408,34427
56349,34317
56349,34317
56313,34198
56301,34075
56313,33951
56349,33833
56408,33723
56486,33627
56582,33549
56582,33549
56582,33549
56692,33490
56692,33490
56811,33454
56872,33448
56903,33445
56965,33445
56996,33448
Z" /> 
<path style="fill:#000000; fill-opacity:1.0; 
stroke:#000000; stroke-width:0; stroke-opacity:1; 
stroke-linecap:round; stroke-linejoin:round;fill-rule:evenodd;"
d="M 58996,33448
59058,33454
59176,33490
59176,33490
59286,33549
59286,33549
59286,33549
59382,33627
59460,33723
59519,33833
59555,33951
59567,34075
59555,34198
59519,34317
59519,34317
59460,34427
59382,34523
59286,34601
59176,34660
59176,34660
59058,34696
58996,34702
58965,34705
58903,34705
58872,34702
58811,34696
58692,34660
58692,34660
58582,34601
58486,34523
58408,34427
58349,34317
58349,34317
58313,34198
58301,34075
58313,33951
58349,33833
58408,33723
58486,33627
58582,33549
58582,33549
58582,33549
58692,33490
58692,33490
58811,33454
58872,33448
58903,33445
58965,33445
58996,33448
Z" /> 
<path style="fill:#000000; fill-opacity:1.0; 
stroke:#000000; stroke-width:0; stroke-opacity:1; 
stroke-linecap:round; stroke-linejoin:round;fill-rule:evenodd;"
d="M 66996,33448
67058,33454
67176,33490
67176,33490
67286,33549
67286,33549
67286,33549
67382,33627
67460,33723
67519,33833
67555,33951
67567,34075
67555,34198
67519,34317
67519,34317
67460,34427
67382,34523
67286,34601
67176,34660
67176,34660
67058,34696
66996,34702
66965,34705
66903,34705
66872,34702
66811,34696
66692,34660
66692,34660
66582,34601
66486,34523
66408,34427
66349,34317
66349,34317
66313,34198
66301,34075
66313,33951
66349,33833
66408,33723
66486,33627
66582,33549
66582,33549
66582,33549
66692,33490
66692,33490
66811,33454
66872,33448
66903,33445
66965,33445
66996,33448
Z" /> 
<path style="fill:#000000; fill-opacity:1.0; 
stroke:#000000; stroke-width:0; stroke-opacity:1; 
stroke-linecap:round; stroke-linejoin:round;fill-rule:evenodd;"
d="M 50996,33448
51058,33454
51176,33490
51176,33490
51286,33549
51286,33549
51286,33549
51382,33627
51460,33723
51519,33833
51555,33951
51567,34075
51555,34198
51519,34317
51519,34317
51460,34427
51382,34523
51286,34601
51176,34660
51176,34660
51058,34696
50996,34702
50965,34705
50903,34705
50872,34702
50811,34696
50692,34660
50692,34660
50582,34601
50486,34523
50408,34427
50349,34317
50349,34317
50313,34198
50301,34075
50313,33951
50349,33833
50408,33723
50486,33627
50582,33549
50582,33549
50582,33549
50692,33490
50692,33490
50811,33454
50872,33448
50903,33445
50965,33445
50996,33448
Z" /> 
<path style="fill:#000000; fill-opacity:1.0; 
stroke:#000000; stroke-width:0; stroke-opacity:1; 
stroke-linecap:round; stroke-linejoin:round;fill-rule:evenodd;"
d="M 48996,33448
49058,33454
49176,33490
49176,33490
49286,33549
49286,33549
49286,33549
49382,33627
49460,33723
49519,33833
49555,33951
49567,34075
49555,34198
49519,34317
49519,34317
49460,34427
49382,34523
49286,34601
49176,34660
49176,34660
49058,34696
48996,34702
48965,34705
48903,34705
48872,34702
48811,34696
48692,34660
48692,34660
48582,34601
48486,34523
48408,34427
48349,34317
48349,34317
48313,34198
48301,34075
48313,33951
48349,33833
48408,33723
48486,33627
48582,33549
48582,33549
48582,33549
48692,33490
48692,33490
48811,33454
48872,33448
48903,33445
48965,33445
48996,33448
Z" /> 
<path style="fill:#000000; fill-opacity:1.0; 
stroke:#000000; stroke-width:0; stroke-opacity:1; 
stroke-linecap:round; stroke-linejoin:round;fill-rule:evenodd;"
d="M 60996,33448
61058,33454
61176,33490
61176,33490
61286,33549
61286,33549
61286,33549
61382,33627
61460,33723
61519,33833
61555,33951
61567,34075
61555,34198
61519,34317
61519,34317
61460,34427
61382,34523
61286,34601
61176,34660
61176,34660
61058,34696
60996,34702
60965,34705
60903,34705
60872,34702
60811,34696
60692,34660
60692,34660
60582,34601
60486,34523
60408,34427
60349,34317
60349,34317
60313,34198
60301,34075
60313,33951
60349,33833
60408,33723
60486,33627
60582,33549
60582,33549
60582,33549
60692,33490
60692,33490
60811,33454
60872,33448
60903,33445
60965,33445
60996,33448
Z" /> 
<path style="fill:#000000; fill-opacity:1.0; 
stroke:#000000; stroke-width:0; stroke-opacity:1; 
stroke-linecap:round; stroke-linejoin:round;fill-rule:evenodd;"
d="M 64996,33448
65058,33454
65176,33490
65176,33490
65286,33549
65286,33549
65286,33549
65382,33627
65460,33723
65519,33833
65555,33951
65567,34075
65555,34198
65519,34317
65519,34317
65460,34427
65382,34523
65286,34601
65176,34660
65176,34660
65058,34696
64996,34702
64965,34705
64903,34705
64872,34702
64811,34696
64692,34660
64692,34660
64582,34601
64486,34523
64408,34427
64349,34317
64349,34317
64313,34198
64301,34075
64313,33951
64349,33833
64408,33723
64486,33627
64582,33549
64582,33549
64582,33549
64692,33490
64692,33490
64811,33454
64872,33448
64903,33445
64965,33445
64996,33448
Z" /> 
<path style="fill:#000000; fill-opacity:1.0; 
stroke:#000000; stroke-width:0; stroke-opacity:1; 
stroke-linecap:round; stroke-linejoin:round;fill-rule:evenodd;"
d="M 44996,33448
45058,33454
45176,33490
45176,33490
45286,33549
45286,33549
45286,33549
45382,33627
45460,33723
45519,33833
45555,33951
45567,34075
45555,34198
45519,34317
45519,34317
45460,34427
45382,34523
45286,34601
45176,34660
45176,34660
45058,34696
44996,34702
44965,34705
44903,34705
44872,34702
44811,34696
44692,34660
44692,34660
44582,34601
44486,34523
44408,34427
44349,34317
44349,34317
44313,34198
44301,34075
44313,33951
44349,33833
44408,33723
44486,33627
44582,33549
44582,33549
44582,33549
44692,33490
44692,33490
44811,33454
44872,33448
44903,33445
44965,33445
44996,33448
Z" /> 
<path style="fill:#000000; fill-opacity:1.0; 
stroke:#000000; stroke-width:0; stroke-opacity:1; 
stroke-linecap:round; stroke-linejoin:round;fill-rule:evenodd;"
d="M 46996,33448
47058,33454
47176,33490
47176,33490
47286,33549
47286,33549
47286,33549
47382,33627
47460,33723
47519,33833
47555,33951
47567,34075
47555,34198
47519,34317
47519,34317
47460,34427
47382,34523
47286,34601
47176,34660
47176,34660
47058,34696
46996,34702
46965,34705
46903,34705
46872,34702
46811,34696
46692,34660
46692,34660
46582,34601
46486,34523
46408,34427
46349,34317
46349,34317
46313,34198
46301,34075
46313,33951
46349,33833
46408,33723
46486,33627
46582,33549
46582,33549
46582,33549
46692,33490
46692,33490
46811,33454
46872,33448
46903,33445
46965,33445
46996,33448
Z" /> 
<path style="fill:#000000; fill-opacity:1.0; 
stroke:#000000; stroke-width:0; stroke-opacity:1; 
stroke-linecap:round; stroke-linejoin:round;fill-rule:evenodd;"
d="M 68996,33448
69058,33454
69176,33490
69176,33490
69286,33549
69286,33549
69286,33549
69382,33627
69460,33723
69519,33833
69555,33951
69567,34075
69555,34198
69519,34317
69519,34317
69460,34427
69382,34523
69286,34601
69176,34660
69176,34660
69058,34696
68996,34702
68965,34705
68903,34705
68872,34702
68811,34696
68692,34660
68692,34660
68582,34601
68486,34523
68408,34427
68349,34317
68349,34317
68313,34198
68301,34075
68313,33951
68349,33833
68408,33723
68486,33627
68582,33549
68582,33549
68582,33549
68692,33490
68692,33490
68811,33454
68872,33448
68903,33445
68965,33445
68996,33448
Z" /> 
<path style="fill:#000000; fill-opacity:1.0; 
stroke:#000000; stroke-width:0; stroke-opacity:1; 
stroke-linecap:round; stroke-linejoin:round;fill-rule:evenodd;"
d="M 62996,33448
63058,33454
63176,33490
63176,33490
63286,33549
63286,33549
63286,33549
63382,33627
63460,33723
63519,33833
63555,33951
63567,34075
63555,34198
63519,34317
63519,34317
63460,34427
63382,34523
63286,34601
63176,34660
63176,34660
63058,34696
62996,34702
62965,34705
62903,34705
62872,34702
62811,34696
62692,34660
62692,34660
62582,34601
62486,34523
62408,34427
62349,34317
62349,34317
62313,34198
62301,34075
62313,33951
62349,33833
62408,33723
62486,33627
62582,33549
62582,33549
62582,33549
62692,33490
62692,33490
62811,33454
62872,33448
62903,33445
62965,33445
62996,33448
Z" /> 
<path style="fill:#000000; fill-opacity:1.0; 
stroke:#000000; stroke-width:0; stroke-opacity:1; 
stroke-linecap:round; stroke-linejoin:round;fill-rule:evenodd;"
d="M 70996,33448
71058,33454
71176,33490
71176,33490
71286,33549
71286,33549
71286,33549
71382,33627
71460,33723
71519,33833
71555,33951
71567,34075
71555,34198
71519,34317
71519,34317
71460,34427
71382,34523
71286,34601
71176,34660
71176,34660
71058,34696
70996,34702
70965,34705
70903,34705
70872,34702
70811,34696
70692,34660
70692,34660
70582,34601
70486,34523
70408,34427
70349,34317
70349,34317
70313,34198
70301,34075
70313,33951
70349,33833
70408,33723
70486,33627
70582,33549
70582,33549
70582,33549
70692,33490
70692,33490
70811,33454
70872,33448
70903,33445
70965,33445
70996,33448
Z" /> 
<path style="fill:#000000; fill-opacity:1.0; 
stroke:#000000; stroke-width:0; stroke-opacity:1; 
stroke-linecap:round; stroke-linejoin:round;fill-rule:evenodd;"
d="M 55595,30708
55646,30718
55789,30777
55918,30863
56028,30973
56114,31102
56173,31245
56203,31397
56203,31552
56173,31705
56114,31848
56028,31977
55918,32087
55789,32173
55646,32232
55595,32242
55494,32262
55338,32262
55237,32242
55186,32232
55043,32173
54914,32087
54804,31977
54718,31848
54659,31705
54629,31552
54629,31397
54659,31245
54718,31102
54804,30973
54914,30863
55043,30777
55186,30718
55237,30708
55338,30688
55494,30688
55595,30708
Z" /> 
<path style="fill:#000000; fill-opacity:1.0; 
stroke:#000000; stroke-width:0; stroke-opacity:1; 
stroke-linecap:round; stroke-linejoin:round;fill-rule:evenodd;"
d="M 60713,30708
60764,30718
60907,30777
61036,30863
61146,30973
61232,31102
61291,31245
61321,31397
61321,31552
61291,31705
61232,31848
61146,31977
61036,32087
60907,32173
60764,32232
60713,32242
60612,32262
60457,32262
60355,32242
60304,32232
60161,32173
60032,32087
59922,31977
59836,31848
59777,31705
59747,31552
59747,31397
59777,31245
59836,31102
59922,30973
60032,30863
60161,30777
60304,30718
60355,30708
60457,30688
60612,30688
60713,30708
Z" /> 
<path style="fill:#000000; fill-opacity:1.0; 
stroke:#000000; stroke-width:0; stroke-opacity:1; 
stroke-linecap:round; stroke-linejoin:round;fill-rule:evenodd;"
d="M 52240,30215
52304,30221
52425,30258
52467,30271
52618,30351
52749,30460
52858,30591
52938,30742
52938,30742
52988,30905
53004,31075
52988,31245
52951,31366
52938,31408
52858,31558
52749,31690
52618,31799
52467,31879
52425,31892
52304,31929
52240,31935
52177,31941
52092,31941
52028,31935
51964,31929
51843,31892
51801,31879
51651,31799
51519,31690
51410,31558
51330,31408
51317,31366
51280,31245
51264,31075
51280,30905
51330,30742
51330,30742
51410,30591
51519,30460
51651,30351
51801,30271
51843,30258
51964,30221
52028,30215
52092,30209
52177,30209
52240,30215
Z" /> 
<path style="fill:#000000; fill-opacity:1.0; 
stroke:#000000; stroke-width:0; stroke-opacity:1; 
stroke-linecap:round; stroke-linejoin:round;fill-rule:evenodd;"
d="M 45000,31941
43268,31941
43268,30209
45000,30209
45000,31941
Z" /> 
<path style="fill:#000000; fill-opacity:1.0; 
stroke:#000000; stroke-width:0; stroke-opacity:1; 
stroke-linecap:round; stroke-linejoin:round;fill-rule:evenodd;"
d="M 55595,27164
55646,27174
55789,27234
55918,27320
56028,27430
56114,27559
56173,27702
56203,27854
56203,28009
56173,28161
56114,28305
56028,28434
55918,28543
55789,28629
55646,28689
55595,28699
55494,28719
55338,28719
55237,28699
55186,28689
55043,28629
54914,28543
54804,28434
54718,28305
54659,28161
54629,28009
54629,27854
54659,27702
54718,27559
54804,27430
54914,27320
55043,27234
55186,27174
55237,27164
55338,27144
55494,27144
55595,27164
Z" /> 
<path style="fill:#000000; fill-opacity:1.0; 
stroke:#000000; stroke-width:0; stroke-opacity:1; 
stroke-linecap:round; stroke-linejoin:round;fill-rule:evenodd;"
d="M 60713,27164
60764,27174
60907,27234
61036,27320
61146,27430
61232,27559
61291,27702
61321,27854
61321,28009
61291,28161
61232,28305
61146,28434
61036,28543
60907,28629
60764,28689
60713,28699
60612,28719
60457,28719
60355,28699
60304,28689
60161,28629
60032,28543
59922,28434
59836,28305
59777,28161
59747,28009
59747,27854
59777,27702
59836,27559
59922,27430
60032,27320
60161,27234
60304,27174
60355,27164
60457,27144
60612,27144
60713,27164
Z" /> 
<path style="fill:#000000; fill-opacity:1.0; 
stroke:#000000; stroke-width:0; stroke-opacity:1; 
stroke-linecap:round; stroke-linejoin:round;fill-rule:evenodd;"
d="M 27604,26061
27667,26080
27730,26099
27730,26099
27846,26161
27948,26245
28032,26347
28094,26463
28132,26589
28145,26720
28132,26852
28094,26978
28032,27094
27948,27196
27846,27280
27730,27342
27730,27342
27667,27361
27604,27380
27505,27390
27243,27390
27144,27380
27081,27361
27018,27342
27018,27342
26902,27280
26800,27196
26716,27094
26654,26978
26616,26852
26603,26720
26616,26589
26654,26463
26716,26347
26800,26245
26902,26161
27018,26099
27018,26099
27081,26080
27144,26061
27243,26051
27505,26051
27604,26061
Z" /> 
<path style="fill:#000000; fill-opacity:1.0; 
stroke:#000000; stroke-width:0; stroke-opacity:1; 
stroke-linecap:round; stroke-linejoin:round;fill-rule:evenodd;"
d="M 27604,24092
27667,24111
27730,24131
27730,24131
27846,24193
27948,24276
28029,24375
28032,24378
28094,24495
28097,24506
28132,24621
28145,24752
28132,24883
28117,24934
28098,24996
28094,25009
28032,25126
27948,25227
27846,25311
27730,25373
27730,25373
27667,25392
27604,25412
27505,25421
27243,25421
27144,25412
27081,25392
27018,25373
27018,25373
26902,25311
26800,25227
26716,25126
26654,25009
26650,24996
26631,24934
26616,24883
26603,24752
26616,24621
26651,24506
26654,24495
26716,24378
26719,24375
26800,24276
26902,24193
27018,24131
27018,24131
27081,24111
27144,24092
27243,24083
27505,24083
27604,24092
Z" /> 
<path style="fill:#000000; fill-opacity:1.0; 
stroke:#000000; stroke-width:0; stroke-opacity:1; 
stroke-linecap:round; stroke-linejoin:round;fill-rule:evenodd;"
d="M 51112,25177
48356,25177
48356,22421
51112,22421
51112,25177
Z" /> 
<path style="fill:#000000; fill-opacity:1.0; 
stroke:#000000; stroke-width:0; stroke-opacity:1; 
stroke-linecap:round; stroke-linejoin:round;fill-rule:evenodd;"
d="M 42183,23715
42246,23734
42310,23754
42310,23754
42426,23816
42528,23899
42611,24001
42674,24118
42674,24118
42677,24131
42712,24244
42725,24375
42712,24506
42712,24506
42677,24621
42674,24632
42611,24749
42528,24850
42426,24934
42310,24996
42310,24996
42246,25015
42183,25035
42085,25044
41783,25044
41685,25035
41622,25015
41559,24996
41559,24996
41442,24934
41340,24850
41257,24749
41195,24632
41191,24621
41156,24506
41156,24506
41143,24375
41156,24244
41191,24131
41195,24118
41195,24118
41257,24001
41340,23899
41442,23816
41559,23754
41559,23754
41622,23734
41685,23715
41783,23706
42085,23706
42183,23715
Z" /> 
<path style="fill:#000000; fill-opacity:1.0; 
stroke:#000000; stroke-width:0; stroke-opacity:1; 
stroke-linecap:round; stroke-linejoin:round;fill-rule:evenodd;"
d="M 34821,24925
33247,24925
33247,23425
34821,23425
34821,24925
Z" /> 
<path style="fill:#000000; fill-opacity:1.0; 
stroke:#000000; stroke-width:0; stroke-opacity:1; 
stroke-linecap:round; stroke-linejoin:round;fill-rule:evenodd;"
d="M 27604,22124
27667,22143
27730,22162
27730,22162
27846,22224
27948,22308
28015,22390
28032,22410
28094,22526
28113,22589
28132,22652
28145,22783
28132,22915
28094,23041
28032,23157
27948,23259
27846,23343
27730,23405
27730,23405
27667,23424
27604,23443
27505,23453
27243,23453
27144,23443
27081,23424
27018,23405
27018,23405
26902,23343
26800,23259
26716,23157
26654,23041
26616,22915
26603,22783
26616,22652
26635,22589
26654,22526
26716,22410
26733,22390
26800,22308
26902,22224
27018,22162
27018,22162
27081,22143
27144,22124
27243,22114
27505,22114
27604,22124
Z" /> 
<path style="fill:#000000; fill-opacity:1.0; 
stroke:#000000; stroke-width:0; stroke-opacity:1; 
stroke-linecap:round; stroke-linejoin:round;fill-rule:evenodd;"
d="M 42619,21740
42643,21747
42665,21759
42684,21775
42700,21794
42711,21816
42719,21840
42721,21869
42721,22944
42719,22973
42711,22997
42700,23019
42684,23038
42665,23054
42643,23066
42619,23073
42589,23076
41279,23076
41249,23073
41225,23066
41204,23054
41184,23038
41169,23019
41157,22997
41150,22973
41147,22944
41147,21869
41150,21840
41157,21816
41169,21794
41184,21775
41204,21759
41225,21747
41249,21740
41279,21737
42589,21737
42619,21740
Z" /> 
<path style="fill:#000000; fill-opacity:1.0; 
stroke:#000000; stroke-width:0; stroke-opacity:1; 
stroke-linecap:round; stroke-linejoin:round;fill-rule:evenodd;"
d="M 34218,21436
34360,21479
34490,21548
34604,21642
34698,21756
34768,21887
34811,22028
34825,22175
34811,22322
34768,22463
34698,22594
34604,22708
34490,22802
34360,22871
34218,22914
34108,22925
33960,22925
33850,22914
33708,22871
33578,22802
33464,22708
33370,22594
33300,22463
33258,22322
33243,22175
33258,22028
33300,21887
33370,21756
33464,21642
33578,21548
33708,21479
33850,21436
33960,21425
34108,21425
34218,21436
Z" /> 
<path style="fill:#000000; fill-opacity:1.0; 
stroke:#000000; stroke-width:0; stroke-opacity:1; 
stroke-linecap:round; stroke-linejoin:round;fill-rule:evenodd;"
d="M 46896,20072
47016,20108
47127,20167
47224,20247
47303,20344
47362,20454
47398,20574
47411,20704
47411,22170
47398,22300
47362,22420
47303,22530
47224,22627
47127,22707
47016,22766
46896,22802
46767,22815
45300,22815
45170,22802
45050,22766
44940,22707
44843,22627
44764,22530
44704,22420
44668,22300
44655,22170
44655,20704
44668,20574
44704,20454
44764,20344
44843,20247
44940,20167
45050,20108
45170,20072
45300,20059
46767,20059
46896,20072
Z" /> 
<path style="fill:#000000; fill-opacity:1.0; 
stroke:#000000; stroke-width:0; stroke-opacity:1; 
stroke-linecap:round; stroke-linejoin:round;fill-rule:evenodd;"
d="M 28039,20149
28063,20156
28085,20168
28104,20183
28120,20203
28132,20224
28139,20248
28142,20278
28142,21352
28139,21382
28132,21405
28120,21427
28104,21447
28085,21462
28063,21474
28039,21481
28010,21484
26739,21484
26709,21481
26685,21474
26663,21462
26644,21447
26628,21427
26616,21405
26609,21382
26606,21352
26606,20278
26609,20248
26616,20224
26628,20203
26644,20183
26663,20168
26685,20156
26709,20149
26739,20146
28010,20146
28039,20149
Z" /> 
<path style="fill:#000000; fill-opacity:1.0; 
stroke:#000000; stroke-width:0; stroke-opacity:1; 
stroke-linecap:round; stroke-linejoin:round;fill-rule:evenodd;"
d="M 34218,19436
34360,19479
34490,19548
34604,19642
34698,19756
34768,19887
34811,20028
34825,20175
34811,20322
34768,20463
34698,20594
34604,20708
34490,20802
34360,20871
34218,20914
34108,20925
33960,20925
33850,20914
33708,20871
33578,20802
33464,20708
33370,20594
33300,20463
33258,20322
33243,20175
33258,20028
33300,19887
33370,19756
33464,19642
33578,19548
33708,19479
33850,19436
33960,19425
34108,19425
34218,19436
Z" /> 
<path style="fill:#000000; fill-opacity:1.0; 
stroke:#000000; stroke-width:0; stroke-opacity:1; 
stroke-linecap:round; stroke-linejoin:round;fill-rule:evenodd;"
d="M 50676,17905
50778,17935
50871,17985
50953,18053
51020,18135
51070,18228
51101,18330
51112,18440
51112,19710
51101,19820
51070,19922
51020,20015
50953,20097
50871,20164
50778,20214
50676,20245
50566,20256
48902,20256
48792,20245
48690,20214
48597,20164
48515,20097
48448,20015
48398,19922
48367,19820
48356,19710
48356,18440
48367,18330
48398,18228
48448,18135
48515,18053
48597,17985
48690,17935
48792,17905
48902,17894
50566,17894
50676,17905
Z" /> 
<path style="fill:#000000; fill-opacity:1.0; 
stroke:#000000; stroke-width:0; stroke-opacity:1; 
stroke-linecap:round; stroke-linejoin:round;fill-rule:evenodd;"
d="M 74331,17551
74382,17561
74525,17620
74654,17707
74764,17816
74850,17945
74909,18089
74909,18089
74940,18241
74940,18396
74922,18484
74909,18548
74850,18691
74764,18820
74654,18930
74525,19016
74382,19075
74331,19085
74230,19106
74075,19106
73973,19085
73923,19075
73779,19016
73650,18930
73541,18820
73454,18691
73395,18548
73382,18484
73365,18396
73365,18241
73395,18089
73395,18089
73454,17945
73541,17816
73650,17707
73779,17620
73923,17561
73973,17551
74075,17531
74230,17531
74331,17551
Z" /> 
<path style="fill:#000000; fill-opacity:1.0; 
stroke:#000000; stroke-width:0; stroke-opacity:1; 
stroke-linecap:round; stroke-linejoin:round;fill-rule:evenodd;"
d="M 69213,17551
69264,17561
69407,17620
69536,17707
69646,17816
69732,17945
69791,18089
69791,18089
69821,18241
69821,18396
69804,18484
69791,18548
69732,18691
69646,18820
69536,18930
69407,19016
69264,19075
69213,19085
69112,19106
68957,19106
68855,19085
68804,19075
68661,19016
68532,18930
68422,18820
68336,18691
68277,18548
68264,18484
68247,18396
68247,18241
68277,18089
68277,18089
68336,17945
68422,17816
68532,17707
68661,17620
68804,17561
68855,17551
68957,17531
69112,17531
69213,17551
Z" /> 
<path style="fill:#000000; fill-opacity:1.0; 
stroke:#000000; stroke-width:0; stroke-opacity:1; 
stroke-linecap:round; stroke-linejoin:round;fill-rule:evenodd;"
d="M 74331,14008
74382,14018
74525,14077
74654,14163
74764,14273
74850,14402
74909,14545
74940,14697
74940,14852
74909,15005
74850,15148
74764,15277
74654,15387
74525,15473
74382,15532
74331,15542
74230,15562
74075,15562
73973,15542
73923,15532
73779,15473
73650,15387
73541,15277
73454,15148
73395,15005
73365,14852
73365,14697
73395,14545
73454,14402
73541,14273
73650,14163
73779,14077
73923,14018
73973,14008
74075,13988
74230,13988
74331,14008
Z" /> 
<path style="fill:#000000; fill-opacity:1.0; 
stroke:#000000; stroke-width:0; stroke-opacity:1; 
stroke-linecap:round; stroke-linejoin:round;fill-rule:evenodd;"
d="M 69213,14008
69264,14018
69407,14077
69536,14163
69646,14273
69732,14402
69791,14545
69821,14697
69821,14852
69791,15005
69732,15148
69646,15277
69536,15387
69407,15473
69264,15532
69213,15542
69112,15562
68957,15562
68855,15542
68804,15532
68661,15473
68532,15387
68422,15277
68336,15148
68277,15005
68247,14852
68247,14697
68277,14545
68336,14402
68422,14273
68532,14163
68661,14077
68804,14018
68855,14008
68957,13988
69112,13988
69213,14008
Z" /> 
</g> 
</svg>
