<?xml version="1.0" standalone="no"?>
 <!DOCTYPE svg PUBLIC "-//W3C//DTD SVG 1.1//EN" 
 "http://www.w3.org/Graphics/SVG/1.1/DTD/svg11.dtd"> 
<svg xmlns="http://www.w3.org/2000/svg" version="1.1" 
    width="29.7002cm" height="21.0007cm" viewBox="0 0 116930 82680 ">
<title>SVG Picture created as ThermocoupleLogger-F_Paste.svg date 2019/03/28 11:02:09 </title>
  <desc>Picture generated by PCBNEW </desc>
<g style="fill:#000000; fill-opacity:1;stroke:#000000; stroke-opacity:1;
stroke-linecap:round; stroke-linejoin:round; "
 transform="translate(0 0) scale(1 1)">
</g>
<g style="fill:#000000; fill-opacity:0.0; 
stroke:#000000; stroke-width:-0.000787402; stroke-opacity:1; 
stroke-linecap:round; stroke-linejoin:round;">
</g>
<g style="fill:#000000; fill-opacity:0.0; 
stroke:#000000; stroke-width:78.7402; stroke-opacity:1; 
stroke-linecap:round; stroke-linejoin:round;">
<path d="M93734 12875
L93734 73375
" />
<path d="M23734 68993
L23734 68993
" />
<path d="M23734 12875
L93734 12875
" />
<path d="M23734 73375
L93734 73375
" />
<path d="M23734 12875
L23734 73375
" />
<path d="M23734 13875
L23734 13875
" />
<g >
</g>
<g >
</g>
<g >
</g>
<g >
</g>
<g >
</g>
<g >
</g>
<g >
</g>
<g >
</g>
<g >
</g>
<g >
</g>
<g >
</g>
<g >
</g>
<g style="fill:#000000; fill-opacity:0.0; 
stroke:#000000; stroke-width:0; stroke-opacity:1; 
stroke-linecap:round; stroke-linejoin:round;">
</g>
<g style="fill:#000000; fill-opacity:1.0; 
stroke:#000000; stroke-width:0; stroke-opacity:1; 
stroke-linecap:round; stroke-linejoin:round;">
<path style="fill:#000000; fill-opacity:1.0; 
stroke:#000000; stroke-width:0; stroke-opacity:1; 
stroke-linecap:round; stroke-linejoin:round;fill-rule:evenodd;"
d="M 36321,39239
38053,39239
38053,39711
36321,39711
36321,39239
Z" /> 
<path style="fill:#000000; fill-opacity:1.0; 
stroke:#000000; stroke-width:0; stroke-opacity:1; 
stroke-linecap:round; stroke-linejoin:round;fill-rule:evenodd;"
d="M 40415,39239
42147,39239
42147,39711
40415,39711
40415,39239
Z" /> 
<path style="fill:#000000; fill-opacity:1.0; 
stroke:#000000; stroke-width:0; stroke-opacity:1; 
stroke-linecap:round; stroke-linejoin:round;fill-rule:evenodd;"
d="M 36321,38239
38053,38239
38053,38711
36321,38711
36321,38239
Z" /> 
<path style="fill:#000000; fill-opacity:1.0; 
stroke:#000000; stroke-width:0; stroke-opacity:1; 
stroke-linecap:round; stroke-linejoin:round;fill-rule:evenodd;"
d="M 40415,38239
42147,38239
42147,38711
40415,38711
40415,38239
Z" /> 
<path style="fill:#000000; fill-opacity:1.0; 
stroke:#000000; stroke-width:0; stroke-opacity:1; 
stroke-linecap:round; stroke-linejoin:round;fill-rule:evenodd;"
d="M 36321,37239
38053,37239
38053,37711
36321,37711
36321,37239
Z" /> 
<path style="fill:#000000; fill-opacity:1.0; 
stroke:#000000; stroke-width:0; stroke-opacity:1; 
stroke-linecap:round; stroke-linejoin:round;fill-rule:evenodd;"
d="M 40415,37239
42147,37239
42147,37711
40415,37711
40415,37239
Z" /> 
<path style="fill:#000000; fill-opacity:1.0; 
stroke:#000000; stroke-width:0; stroke-opacity:1; 
stroke-linecap:round; stroke-linejoin:round;fill-rule:evenodd;"
d="M 36321,36239
38053,36239
38053,36711
36321,36711
36321,36239
Z" /> 
<path style="fill:#000000; fill-opacity:1.0; 
stroke:#000000; stroke-width:0; stroke-opacity:1; 
stroke-linecap:round; stroke-linejoin:round;fill-rule:evenodd;"
d="M 40415,36239
42147,36239
42147,36711
40415,36711
40415,36239
Z" /> 
</g>
<g >
<path style="fill:#000000; fill-opacity:1.0; 
stroke:#000000; stroke-width:0; stroke-opacity:1; 
stroke-linecap:round; stroke-linejoin:round;fill-rule:evenodd;"
d="M 40086,27559
40106,27562
40124,27567
40142,27573
40160,27582
40177,27592
40192,27603
40206,27616
40219,27630
40231,27646
40241,27662
40249,27680
40256,27698
40260,27717
40263,27736
40264,27755
40264,29547
40263,29566
40260,29585
40256,29604
40249,29622
40241,29639
40231,29656
40219,29671
40206,29686
40192,29699
40177,29710
40160,29720
40142,29728
40124,29735
40106,29740
40086,29742
40067,29743
39201,29743
39182,29742
39163,29740
39144,29735
39126,29728
39108,29720
39092,29710
39076,29699
39062,29686
39049,29671
39037,29656
39027,29639
39019,29622
39013,29604
39008,29585
39005,29566
39004,29547
39004,27755
39005,27736
39008,27717
39013,27698
39019,27680
39027,27662
39037,27646
39049,27630
39062,27616
39076,27603
39092,27592
39108,27582
39126,27573
39144,27567
39163,27562
39182,27559
39201,27558
40067,27558
40086,27559
Z" /> 
<path style="fill:#000000; fill-opacity:1.0; 
stroke:#000000; stroke-width:0; stroke-opacity:1; 
stroke-linecap:round; stroke-linejoin:round;fill-rule:evenodd;"
d="M 40086,30807
40106,30810
40124,30815
40142,30821
40160,30830
40177,30840
40192,30851
40206,30864
40219,30878
40231,30894
40241,30910
40249,30928
40256,30946
40260,30965
40263,30984
40264,31003
40264,32795
40263,32814
40260,32833
40256,32852
40249,32870
40241,32887
40231,32904
40219,32919
40206,32934
40192,32947
40177,32958
40160,32968
40142,32976
40124,32983
40106,32988
40086,32991
40067,32991
39201,32991
39182,32991
39163,32988
39144,32983
39126,32976
39108,32968
39092,32958
39076,32947
39062,32934
39049,32919
39037,32904
39027,32887
39019,32870
39013,32852
39008,32833
39005,32814
39004,32795
39004,31003
39005,30984
39008,30965
39013,30946
39019,30928
39027,30910
39037,30894
39049,30878
39062,30864
39076,30851
39092,30840
39108,30830
39126,30821
39144,30815
39163,30810
39182,30807
39201,30806
40067,30806
40086,30807
Z" /> 
</g>
<g >
</g>
<g >
</g>
<g >
<path style="fill:#000000; fill-opacity:1.0; 
stroke:#000000; stroke-width:0; stroke-opacity:1; 
stroke-linecap:round; stroke-linejoin:round;fill-rule:evenodd;"
d="M 55070,16056
55070,17788
54125,17788
54125,16056
55070,16056
Z" /> 
<path style="fill:#000000; fill-opacity:1.0; 
stroke:#000000; stroke-width:0; stroke-opacity:1; 
stroke-linecap:round; stroke-linejoin:round;fill-rule:evenodd;"
d="M 67275,16056
67275,17788
66330,17788
66330,16056
67275,16056
Z" /> 
<path style="fill:#000000; fill-opacity:1.0; 
stroke:#000000; stroke-width:0; stroke-opacity:1; 
stroke-linecap:round; stroke-linejoin:round;fill-rule:evenodd;"
d="M 55936,23930
55936,25032
54677,25032
54677,23930
55936,23930
Z" /> 
<path style="fill:#000000; fill-opacity:1.0; 
stroke:#000000; stroke-width:0; stroke-opacity:1; 
stroke-linecap:round; stroke-linejoin:round;fill-rule:evenodd;"
d="M 67275,23930
67275,25032
66330,25032
66330,23930
67275,23930
Z" /> 
<path style="fill:#000000; fill-opacity:1.0; 
stroke:#000000; stroke-width:0; stroke-opacity:1; 
stroke-linecap:round; stroke-linejoin:round;fill-rule:evenodd;"
d="M 66173,24245
66173,25505
65621,25505
65621,24245
66173,24245
Z" /> 
<path style="fill:#000000; fill-opacity:1.0; 
stroke:#000000; stroke-width:0; stroke-opacity:1; 
stroke-linecap:round; stroke-linejoin:round;fill-rule:evenodd;"
d="M 64440,24245
64440,25505
63889,25505
63889,24245
64440,24245
Z" /> 
<path style="fill:#000000; fill-opacity:1.0; 
stroke:#000000; stroke-width:0; stroke-opacity:1; 
stroke-linecap:round; stroke-linejoin:round;fill-rule:evenodd;"
d="M 65307,24245
65307,25505
64755,25505
64755,24245
65307,24245
Z" /> 
<path style="fill:#000000; fill-opacity:1.0; 
stroke:#000000; stroke-width:0; stroke-opacity:1; 
stroke-linecap:round; stroke-linejoin:round;fill-rule:evenodd;"
d="M 63574,24245
63574,25505
63023,25505
63023,24245
63574,24245
Z" /> 
<path style="fill:#000000; fill-opacity:1.0; 
stroke:#000000; stroke-width:0; stroke-opacity:1; 
stroke-linecap:round; stroke-linejoin:round;fill-rule:evenodd;"
d="M 62708,24245
62708,25505
62157,25505
62157,24245
62708,24245
Z" /> 
<path style="fill:#000000; fill-opacity:1.0; 
stroke:#000000; stroke-width:0; stroke-opacity:1; 
stroke-linecap:round; stroke-linejoin:round;fill-rule:evenodd;"
d="M 61842,24245
61842,25505
61291,25505
61291,24245
61842,24245
Z" /> 
<path style="fill:#000000; fill-opacity:1.0; 
stroke:#000000; stroke-width:0; stroke-opacity:1; 
stroke-linecap:round; stroke-linejoin:round;fill-rule:evenodd;"
d="M 59244,24245
59244,25505
58692,25505
58692,24245
59244,24245
Z" /> 
<path style="fill:#000000; fill-opacity:1.0; 
stroke:#000000; stroke-width:0; stroke-opacity:1; 
stroke-linecap:round; stroke-linejoin:round;fill-rule:evenodd;"
d="M 60110,24245
60110,25505
59558,25505
59558,24245
60110,24245
Z" /> 
<path style="fill:#000000; fill-opacity:1.0; 
stroke:#000000; stroke-width:0; stroke-opacity:1; 
stroke-linecap:round; stroke-linejoin:round;fill-rule:evenodd;"
d="M 60976,24245
60976,25505
60425,25505
60425,24245
60976,24245
Z" /> 
</g>
<g >
</g>
<g >
</g>
<g >
</g>
<g >
</g>
<g >
</g>
<g >
</g>
<g >
<path style="fill:#000000; fill-opacity:1.0; 
stroke:#000000; stroke-width:0; stroke-opacity:1; 
stroke-linecap:round; stroke-linejoin:round;fill-rule:evenodd;"
d="M 32614,33343
31432,33343
31432,31768
32614,31768
32614,33343
Z" /> 
<path style="fill:#000000; fill-opacity:1.0; 
stroke:#000000; stroke-width:0; stroke-opacity:1; 
stroke-linecap:round; stroke-linejoin:round;fill-rule:evenodd;"
d="M 36236,33343
35055,33343
35055,31768
36236,31768
36236,33343
Z" /> 
<path style="fill:#000000; fill-opacity:1.0; 
stroke:#000000; stroke-width:0; stroke-opacity:1; 
stroke-linecap:round; stroke-linejoin:round;fill-rule:evenodd;"
d="M 34425,33343
33244,33343
33244,31768
34425,31768
34425,33343
Z" /> 
<path style="fill:#000000; fill-opacity:1.0; 
stroke:#000000; stroke-width:0; stroke-opacity:1; 
stroke-linecap:round; stroke-linejoin:round;fill-rule:evenodd;"
d="M 35330,28382
32338,28382
32338,26807
35330,26807
35330,28382
Z" /> 
</g>
<g >
</g>
<g >
<path style="fill:#000000; fill-opacity:1.0; 
stroke:#000000; stroke-width:0; stroke-opacity:1; 
stroke-linecap:round; stroke-linejoin:round;fill-rule:evenodd;"
d="M 40983,18019
40983,18531
40022,18531
40022,18019
40983,18019
Z" /> 
<path style="fill:#000000; fill-opacity:1.0; 
stroke:#000000; stroke-width:0; stroke-opacity:1; 
stroke-linecap:round; stroke-linejoin:round;fill-rule:evenodd;"
d="M 43046,17271
43046,17783
42085,17783
42085,17271
43046,17271
Z" /> 
<path style="fill:#000000; fill-opacity:1.0; 
stroke:#000000; stroke-width:0; stroke-opacity:1; 
stroke-linecap:round; stroke-linejoin:round;fill-rule:evenodd;"
d="M 43046,18767
43046,19279
42085,19279
42085,18767
43046,18767
Z" /> 
</g>
<g >
</g>
<g >
</g>
<g >
</g>
<g >
<path style="fill:#000000; fill-opacity:1.0; 
stroke:#000000; stroke-width:0; stroke-opacity:1; 
stroke-linecap:round; stroke-linejoin:round;fill-rule:evenodd;"
d="M 37511,21821
37157,21821
37157,21349
37511,21349
37511,21821
Z" /> 
<path style="fill:#000000; fill-opacity:1.0; 
stroke:#000000; stroke-width:0; stroke-opacity:1; 
stroke-linecap:round; stroke-linejoin:round;fill-rule:evenodd;"
d="M 37511,23475
37157,23475
37157,23002
37511,23002
37511,23475
Z" /> 
</g>
<g >
<path style="fill:#000000; fill-opacity:1.0; 
stroke:#000000; stroke-width:0; stroke-opacity:1; 
stroke-linecap:round; stroke-linejoin:round;fill-rule:evenodd;"
d="M 74707,26130
73762,26130
73762,25421
74707,25421
74707,26130
Z" /> 
<path style="fill:#000000; fill-opacity:1.0; 
stroke:#000000; stroke-width:0; stroke-opacity:1; 
stroke-linecap:round; stroke-linejoin:round;fill-rule:evenodd;"
d="M 74707,28728
73762,28728
73762,28020
74707,28020
74707,28728
Z" /> 
</g>
<g >
<path style="fill:#000000; fill-opacity:1.0; 
stroke:#000000; stroke-width:0; stroke-opacity:1; 
stroke-linecap:round; stroke-linejoin:round;fill-rule:evenodd;"
d="M 71807,26130
70862,26130
70862,25421
71807,25421
71807,26130
Z" /> 
<path style="fill:#000000; fill-opacity:1.0; 
stroke:#000000; stroke-width:0; stroke-opacity:1; 
stroke-linecap:round; stroke-linejoin:round;fill-rule:evenodd;"
d="M 71807,28728
70862,28728
70862,28020
71807,28020
71807,28728
Z" /> 
</g>
<g >
<path style="fill:#000000; fill-opacity:1.0; 
stroke:#000000; stroke-width:0; stroke-opacity:1; 
stroke-linecap:round; stroke-linejoin:round;fill-rule:evenodd;"
d="M 69087,26130
68142,26130
68142,25421
69087,25421
69087,26130
Z" /> 
<path style="fill:#000000; fill-opacity:1.0; 
stroke:#000000; stroke-width:0; stroke-opacity:1; 
stroke-linecap:round; stroke-linejoin:round;fill-rule:evenodd;"
d="M 69087,28728
68142,28728
68142,28020
69087,28020
69087,28728
Z" /> 
</g>
<g >
<path style="fill:#000000; fill-opacity:1.0; 
stroke:#000000; stroke-width:0; stroke-opacity:1; 
stroke-linecap:round; stroke-linejoin:round;fill-rule:evenodd;"
d="M 35783,43025
35802,43027
35820,43032
35838,43038
35855,43046
35871,43056
35886,43067
35900,43080
35913,43094
35924,43109
35933,43125
35942,43142
35948,43160
35952,43178
35955,43197
35956,43216
35956,43934
35955,43953
35952,43972
35948,43990
35942,44008
35933,44025
35924,44041
35913,44056
35900,44070
35886,44083
35871,44094
35855,44103
35838,44112
35820,44118
35802,44122
35783,44125
35764,44126
35380,44126
35362,44125
35343,44122
35325,44118
35307,44112
35290,44103
35274,44094
35259,44083
35245,44070
35232,44056
35221,44041
35211,44025
35203,44008
35197,43990
35192,43972
35189,43953
35188,43934
35188,43216
35189,43197
35192,43178
35197,43160
35203,43142
35211,43125
35221,43109
35232,43094
35245,43080
35259,43067
35274,43056
35290,43046
35307,43038
35325,43032
35343,43027
35362,43025
35380,43024
35764,43024
35783,43025
Z" /> 
<path style="fill:#000000; fill-opacity:1.0; 
stroke:#000000; stroke-width:0; stroke-opacity:1; 
stroke-linecap:round; stroke-linejoin:round;fill-rule:evenodd;"
d="M 34307,43025
34325,43027
34344,43032
34361,43038
34378,43046
34394,43056
34410,43067
34424,43080
34436,43094
34447,43109
34457,43125
34465,43142
34471,43160
34476,43178
34479,43197
34480,43216
34480,43934
34479,43953
34476,43972
34471,43990
34465,44008
34457,44025
34447,44041
34436,44056
34424,44070
34410,44083
34394,44094
34378,44103
34361,44112
34344,44118
34325,44122
34307,44125
34288,44126
33904,44126
33885,44125
33867,44122
33848,44118
33831,44112
33813,44103
33797,44094
33782,44083
33768,44070
33756,44056
33744,44041
33735,44025
33727,44008
33720,43990
33716,43972
33713,43953
33712,43934
33712,43216
33713,43197
33716,43178
33720,43160
33727,43142
33735,43125
33744,43109
33756,43094
33768,43080
33782,43067
33797,43056
33813,43046
33831,43038
33848,43032
33867,43027
33885,43025
33904,43024
34288,43024
34307,43025
Z" /> 
</g>
<g >
<path style="fill:#000000; fill-opacity:1.0; 
stroke:#000000; stroke-width:0; stroke-opacity:1; 
stroke-linecap:round; stroke-linejoin:round;fill-rule:evenodd;"
d="M 35783,41275
35802,41277
35820,41282
35838,41288
35855,41296
35871,41306
35886,41317
35900,41330
35913,41344
35924,41359
35933,41375
35942,41392
35948,41410
35952,41428
35955,41447
35956,41466
35956,42184
35955,42203
35952,42222
35948,42240
35942,42258
35933,42275
35924,42291
35913,42306
35900,42320
35886,42333
35871,42344
35855,42353
35838,42362
35820,42368
35802,42372
35783,42375
35764,42376
35380,42376
35362,42375
35343,42372
35325,42368
35307,42362
35290,42353
35274,42344
35259,42333
35245,42320
35232,42306
35221,42291
35211,42275
35203,42258
35197,42240
35192,42222
35189,42203
35188,42184
35188,41466
35189,41447
35192,41428
35197,41410
35203,41392
35211,41375
35221,41359
35232,41344
35245,41330
35259,41317
35274,41306
35290,41296
35307,41288
35325,41282
35343,41277
35362,41275
35380,41274
35764,41274
35783,41275
Z" /> 
<path style="fill:#000000; fill-opacity:1.0; 
stroke:#000000; stroke-width:0; stroke-opacity:1; 
stroke-linecap:round; stroke-linejoin:round;fill-rule:evenodd;"
d="M 34307,41275
34325,41277
34344,41282
34361,41288
34378,41296
34394,41306
34410,41317
34424,41330
34436,41344
34447,41359
34457,41375
34465,41392
34471,41410
34476,41428
34479,41447
34480,41466
34480,42184
34479,42203
34476,42222
34471,42240
34465,42258
34457,42275
34447,42291
34436,42306
34424,42320
34410,42333
34394,42344
34378,42353
34361,42362
34344,42368
34325,42372
34307,42375
34288,42376
33904,42376
33885,42375
33867,42372
33848,42368
33831,42362
33813,42353
33797,42344
33782,42333
33768,42320
33756,42306
33744,42291
33735,42275
33727,42258
33720,42240
33716,42222
33713,42203
33712,42184
33712,41466
33713,41447
33716,41428
33720,41410
33727,41392
33735,41375
33744,41359
33756,41344
33768,41330
33782,41317
33797,41306
33813,41296
33831,41288
33848,41282
33867,41277
33885,41275
33904,41274
34288,41274
34307,41275
Z" /> 
</g>
<g >
<path style="fill:#000000; fill-opacity:1.0; 
stroke:#000000; stroke-width:0; stroke-opacity:1; 
stroke-linecap:round; stroke-linejoin:round;fill-rule:evenodd;"
d="M 51812,44030
51831,44033
51849,44038
51867,44044
51884,44052
51900,44062
51915,44073
51929,44085
51942,44099
51953,44115
51963,44131
51971,44148
51977,44165
51982,44184
51984,44202
51985,44221
51985,44605
51984,44624
51982,44642
51977,44661
51971,44678
51963,44696
51953,44712
51942,44727
51929,44741
51915,44753
51900,44765
51884,44774
51867,44782
51849,44789
51831,44793
51812,44796
51793,44797
51075,44797
51056,44796
51037,44793
51019,44789
51001,44782
50984,44774
50968,44765
50953,44753
50939,44741
50926,44727
50915,44712
50906,44696
50897,44678
50891,44661
50887,44642
50884,44624
50883,44605
50883,44221
50884,44202
50887,44184
50891,44165
50897,44148
50906,44131
50915,44115
50926,44099
50939,44085
50953,44073
50968,44062
50984,44052
51001,44044
51019,44038
51037,44033
51056,44030
51075,44029
51793,44029
51812,44030
Z" /> 
<path style="fill:#000000; fill-opacity:1.0; 
stroke:#000000; stroke-width:0; stroke-opacity:1; 
stroke-linecap:round; stroke-linejoin:round;fill-rule:evenodd;"
d="M 51812,42554
51831,42557
51849,42561
51867,42567
51884,42576
51900,42585
51915,42596
51929,42609
51942,42623
51953,42638
51963,42654
51971,42671
51977,42689
51982,42707
51984,42726
51985,42745
51985,43129
51984,43147
51982,43166
51977,43184
51971,43202
51963,43219
51953,43235
51942,43250
51929,43264
51915,43277
51900,43288
51884,43298
51867,43306
51849,43312
51831,43317
51812,43320
51793,43321
51075,43321
51056,43320
51037,43317
51019,43312
51001,43306
50984,43298
50968,43288
50953,43277
50939,43264
50926,43250
50915,43235
50906,43219
50897,43202
50891,43184
50887,43166
50884,43147
50883,43129
50883,42745
50884,42726
50887,42707
50891,42689
50897,42671
50906,42654
50915,42638
50926,42623
50939,42609
50953,42596
50968,42585
50984,42576
51001,42567
51019,42561
51037,42557
51056,42554
51075,42553
51793,42553
51812,42554
Z" /> 
</g>
<g >
<path style="fill:#000000; fill-opacity:1.0; 
stroke:#000000; stroke-width:0; stroke-opacity:1; 
stroke-linecap:round; stroke-linejoin:round;fill-rule:evenodd;"
d="M 38912,17154
38931,17157
38949,17161
38967,17167
38984,17176
39000,17185
39015,17196
39029,17209
39042,17223
39053,17238
39063,17254
39071,17271
39077,17289
39082,17307
39084,17326
39085,17345
39085,17729
39084,17747
39082,17766
39077,17784
39071,17802
39063,17819
39053,17835
39042,17850
39029,17864
39015,17877
39000,17888
38984,17898
38967,17906
38949,17912
38931,17917
38912,17920
38893,17921
38175,17921
38156,17920
38137,17917
38119,17912
38101,17906
38084,17898
38068,17888
38053,17877
38039,17864
38026,17850
38015,17835
38006,17819
37997,17802
37991,17784
37987,17766
37984,17747
37983,17729
37983,17345
37984,17326
37987,17307
37991,17289
37997,17271
38006,17254
38015,17238
38026,17223
38039,17209
38053,17196
38068,17185
38084,17176
38101,17167
38119,17161
38137,17157
38156,17154
38175,17153
38893,17153
38912,17154
Z" /> 
<path style="fill:#000000; fill-opacity:1.0; 
stroke:#000000; stroke-width:0; stroke-opacity:1; 
stroke-linecap:round; stroke-linejoin:round;fill-rule:evenodd;"
d="M 38912,18630
38931,18633
38949,18638
38967,18644
38984,18652
39000,18662
39015,18673
39029,18685
39042,18699
39053,18715
39063,18731
39071,18748
39077,18765
39082,18784
39084,18802
39085,18821
39085,19205
39084,19224
39082,19242
39077,19261
39071,19278
39063,19296
39053,19312
39042,19327
39029,19341
39015,19353
39000,19365
38984,19374
38967,19382
38949,19389
38931,19393
38912,19396
38893,19397
38175,19397
38156,19396
38137,19393
38119,19389
38101,19382
38084,19374
38068,19365
38053,19353
38039,19341
38026,19327
38015,19312
38006,19296
37997,19278
37991,19261
37987,19242
37984,19224
37983,19205
37983,18821
37984,18802
37987,18784
37991,18765
37997,18748
38006,18731
38015,18715
38026,18699
38039,18685
38053,18673
38068,18662
38084,18652
38101,18644
38119,18638
38137,18633
38156,18630
38175,18629
38893,18629
38912,18630
Z" /> 
</g>
<g >
<path style="fill:#000000; fill-opacity:1.0; 
stroke:#000000; stroke-width:0; stroke-opacity:1; 
stroke-linecap:round; stroke-linejoin:round;fill-rule:evenodd;"
d="M 67212,30254
67231,30257
67249,30261
67267,30267
67284,30276
67300,30285
67315,30296
67329,30309
67342,30323
67353,30338
67363,30354
67371,30371
67377,30389
67382,30407
67384,30426
67385,30445
67385,30829
67384,30847
67382,30866
67377,30884
67371,30902
67363,30919
67353,30935
67342,30950
67329,30964
67315,30977
67300,30988
67284,30998
67267,31006
67249,31012
67231,31017
67212,31020
67193,31021
66475,31021
66456,31020
66437,31017
66419,31012
66401,31006
66384,30998
66368,30988
66353,30977
66339,30964
66326,30950
66315,30935
66306,30919
66297,30902
66291,30884
66287,30866
66284,30847
66283,30829
66283,30445
66284,30426
66287,30407
66291,30389
66297,30371
66306,30354
66315,30338
66326,30323
66339,30309
66353,30296
66368,30285
66384,30276
66401,30267
66419,30261
66437,30257
66456,30254
66475,30253
67193,30253
67212,30254
Z" /> 
<path style="fill:#000000; fill-opacity:1.0; 
stroke:#000000; stroke-width:0; stroke-opacity:1; 
stroke-linecap:round; stroke-linejoin:round;fill-rule:evenodd;"
d="M 67212,31730
67231,31733
67249,31738
67267,31744
67284,31752
67300,31762
67315,31773
67329,31785
67342,31799
67353,31815
67363,31831
67371,31848
67377,31865
67382,31884
67384,31902
67385,31921
67385,32305
67384,32324
67382,32342
67377,32361
67371,32378
67363,32396
67353,32412
67342,32427
67329,32441
67315,32453
67300,32465
67284,32474
67267,32482
67249,32489
67231,32493
67212,32496
67193,32497
66475,32497
66456,32496
66437,32493
66419,32489
66401,32482
66384,32474
66368,32465
66353,32453
66339,32441
66326,32427
66315,32412
66306,32396
66297,32378
66291,32361
66287,32342
66284,32324
66283,32305
66283,31921
66284,31902
66287,31884
66291,31865
66297,31848
66306,31831
66315,31815
66326,31799
66339,31785
66353,31773
66368,31762
66384,31752
66401,31744
66419,31738
66437,31733
66456,31730
66475,31729
67193,31729
67212,31730
Z" /> 
</g>
<g >
<path style="fill:#000000; fill-opacity:1.0; 
stroke:#000000; stroke-width:0; stroke-opacity:1; 
stroke-linecap:round; stroke-linejoin:round;fill-rule:evenodd;"
d="M 63512,26254
63531,26257
63549,26261
63567,26267
63584,26276
63600,26285
63615,26296
63629,26309
63642,26323
63653,26338
63663,26354
63671,26371
63677,26389
63682,26407
63684,26426
63685,26445
63685,26829
63684,26847
63682,26866
63677,26884
63671,26902
63663,26919
63653,26935
63642,26950
63629,26964
63615,26977
63600,26988
63584,26998
63567,27006
63549,27012
63531,27017
63512,27020
63493,27021
62775,27021
62756,27020
62737,27017
62719,27012
62701,27006
62684,26998
62668,26988
62653,26977
62639,26964
62626,26950
62615,26935
62606,26919
62597,26902
62591,26884
62587,26866
62584,26847
62583,26829
62583,26445
62584,26426
62587,26407
62591,26389
62597,26371
62606,26354
62615,26338
62626,26323
62639,26309
62653,26296
62668,26285
62684,26276
62701,26267
62719,26261
62737,26257
62756,26254
62775,26253
63493,26253
63512,26254
Z" /> 
<path style="fill:#000000; fill-opacity:1.0; 
stroke:#000000; stroke-width:0; stroke-opacity:1; 
stroke-linecap:round; stroke-linejoin:round;fill-rule:evenodd;"
d="M 63512,27730
63531,27733
63549,27738
63567,27744
63584,27752
63600,27762
63615,27773
63629,27785
63642,27799
63653,27815
63663,27831
63671,27848
63677,27865
63682,27884
63684,27902
63685,27921
63685,28305
63684,28324
63682,28342
63677,28361
63671,28378
63663,28396
63653,28412
63642,28427
63629,28441
63615,28453
63600,28465
63584,28474
63567,28482
63549,28489
63531,28493
63512,28496
63493,28497
62775,28497
62756,28496
62737,28493
62719,28489
62701,28482
62684,28474
62668,28465
62653,28453
62639,28441
62626,28427
62615,28412
62606,28396
62597,28378
62591,28361
62587,28342
62584,28324
62583,28305
62583,27921
62584,27902
62587,27884
62591,27865
62597,27848
62606,27831
62615,27815
62626,27799
62639,27785
62653,27773
62668,27762
62684,27752
62701,27744
62719,27738
62737,27733
62756,27730
62775,27729
63493,27729
63512,27730
Z" /> 
</g>
<g >
<path style="fill:#000000; fill-opacity:1.0; 
stroke:#000000; stroke-width:0; stroke-opacity:1; 
stroke-linecap:round; stroke-linejoin:round;fill-rule:evenodd;"
d="M 69612,30254
69631,30257
69649,30261
69667,30267
69684,30276
69700,30285
69715,30296
69729,30309
69742,30323
69753,30338
69763,30354
69771,30371
69777,30389
69782,30407
69784,30426
69785,30445
69785,30829
69784,30847
69782,30866
69777,30884
69771,30902
69763,30919
69753,30935
69742,30950
69729,30964
69715,30977
69700,30988
69684,30998
69667,31006
69649,31012
69631,31017
69612,31020
69593,31021
68875,31021
68856,31020
68837,31017
68819,31012
68801,31006
68784,30998
68768,30988
68753,30977
68739,30964
68726,30950
68715,30935
68706,30919
68697,30902
68691,30884
68687,30866
68684,30847
68683,30829
68683,30445
68684,30426
68687,30407
68691,30389
68697,30371
68706,30354
68715,30338
68726,30323
68739,30309
68753,30296
68768,30285
68784,30276
68801,30267
68819,30261
68837,30257
68856,30254
68875,30253
69593,30253
69612,30254
Z" /> 
<path style="fill:#000000; fill-opacity:1.0; 
stroke:#000000; stroke-width:0; stroke-opacity:1; 
stroke-linecap:round; stroke-linejoin:round;fill-rule:evenodd;"
d="M 69612,31730
69631,31733
69649,31738
69667,31744
69684,31752
69700,31762
69715,31773
69729,31785
69742,31799
69753,31815
69763,31831
69771,31848
69777,31865
69782,31884
69784,31902
69785,31921
69785,32305
69784,32324
69782,32342
69777,32361
69771,32378
69763,32396
69753,32412
69742,32427
69729,32441
69715,32453
69700,32465
69684,32474
69667,32482
69649,32489
69631,32493
69612,32496
69593,32497
68875,32497
68856,32496
68837,32493
68819,32489
68801,32482
68784,32474
68768,32465
68753,32453
68739,32441
68726,32427
68715,32412
68706,32396
68697,32378
68691,32361
68687,32342
68684,32324
68683,32305
68683,31921
68684,31902
68687,31884
68691,31865
68697,31848
68706,31831
68715,31815
68726,31799
68739,31785
68753,31773
68768,31762
68784,31752
68801,31744
68819,31738
68837,31733
68856,31730
68875,31729
69593,31729
69612,31730
Z" /> 
</g>
<g >
<path style="fill:#000000; fill-opacity:1.0; 
stroke:#000000; stroke-width:0; stroke-opacity:1; 
stroke-linecap:round; stroke-linejoin:round;fill-rule:evenodd;"
d="M 29707,36325
29725,36327
29744,36332
29761,36338
29778,36346
29794,36356
29810,36367
29824,36380
29836,36394
29847,36409
29857,36425
29865,36442
29871,36460
29876,36478
29879,36497
29880,36516
29880,37234
29879,37253
29876,37272
29871,37290
29865,37308
29857,37325
29847,37341
29836,37356
29824,37370
29810,37383
29794,37394
29778,37403
29761,37412
29744,37418
29725,37422
29707,37425
29688,37426
29304,37426
29285,37425
29267,37422
29248,37418
29231,37412
29213,37403
29197,37394
29182,37383
29168,37370
29156,37356
29144,37341
29135,37325
29127,37308
29120,37290
29116,37272
29113,37253
29112,37234
29112,36516
29113,36497
29116,36478
29120,36460
29127,36442
29135,36425
29144,36409
29156,36394
29168,36380
29182,36367
29197,36356
29213,36346
29231,36338
29248,36332
29267,36327
29285,36325
29304,36324
29688,36324
29707,36325
Z" /> 
<path style="fill:#000000; fill-opacity:1.0; 
stroke:#000000; stroke-width:0; stroke-opacity:1; 
stroke-linecap:round; stroke-linejoin:round;fill-rule:evenodd;"
d="M 31183,36325
31202,36327
31220,36332
31238,36338
31255,36346
31271,36356
31286,36367
31300,36380
31313,36394
31324,36409
31333,36425
31342,36442
31348,36460
31352,36478
31355,36497
31356,36516
31356,37234
31355,37253
31352,37272
31348,37290
31342,37308
31333,37325
31324,37341
31313,37356
31300,37370
31286,37383
31271,37394
31255,37403
31238,37412
31220,37418
31202,37422
31183,37425
31164,37426
30780,37426
30762,37425
30743,37422
30725,37418
30707,37412
30690,37403
30674,37394
30659,37383
30645,37370
30632,37356
30621,37341
30611,37325
30603,37308
30597,37290
30592,37272
30589,37253
30588,37234
30588,36516
30589,36497
30592,36478
30597,36460
30603,36442
30611,36425
30621,36409
30632,36394
30645,36380
30659,36367
30674,36356
30690,36346
30707,36338
30725,36332
30743,36327
30762,36325
30780,36324
31164,36324
31183,36325
Z" /> 
</g>
<g >
<path style="fill:#000000; fill-opacity:1.0; 
stroke:#000000; stroke-width:0; stroke-opacity:1; 
stroke-linecap:round; stroke-linejoin:round;fill-rule:evenodd;"
d="M 62312,64254
62331,64257
62349,64261
62367,64267
62384,64276
62400,64285
62415,64296
62429,64309
62442,64323
62453,64338
62463,64354
62471,64371
62477,64389
62482,64407
62484,64426
62485,64445
62485,64829
62484,64847
62482,64866
62477,64884
62471,64902
62463,64919
62453,64935
62442,64950
62429,64964
62415,64977
62400,64988
62384,64998
62367,65006
62349,65012
62331,65017
62312,65020
62293,65021
61575,65021
61556,65020
61537,65017
61519,65012
61501,65006
61484,64998
61468,64988
61453,64977
61439,64964
61426,64950
61415,64935
61406,64919
61397,64902
61391,64884
61387,64866
61384,64847
61383,64829
61383,64445
61384,64426
61387,64407
61391,64389
61397,64371
61406,64354
61415,64338
61426,64323
61439,64309
61453,64296
61468,64285
61484,64276
61501,64267
61519,64261
61537,64257
61556,64254
61575,64253
62293,64253
62312,64254
Z" /> 
<path style="fill:#000000; fill-opacity:1.0; 
stroke:#000000; stroke-width:0; stroke-opacity:1; 
stroke-linecap:round; stroke-linejoin:round;fill-rule:evenodd;"
d="M 62312,65730
62331,65733
62349,65738
62367,65744
62384,65752
62400,65762
62415,65773
62429,65785
62442,65799
62453,65815
62463,65831
62471,65848
62477,65865
62482,65884
62484,65902
62485,65921
62485,66305
62484,66324
62482,66342
62477,66361
62471,66378
62463,66396
62453,66412
62442,66427
62429,66441
62415,66453
62400,66465
62384,66474
62367,66482
62349,66489
62331,66493
62312,66496
62293,66497
61575,66497
61556,66496
61537,66493
61519,66489
61501,66482
61484,66474
61468,66465
61453,66453
61439,66441
61426,66427
61415,66412
61406,66396
61397,66378
61391,66361
61387,66342
61384,66324
61383,66305
61383,65921
61384,65902
61387,65884
61391,65865
61397,65848
61406,65831
61415,65815
61426,65799
61439,65785
61453,65773
61468,65762
61484,65752
61501,65744
61519,65738
61537,65733
61556,65730
61575,65729
62293,65729
62312,65730
Z" /> 
</g>
<g >
<path style="fill:#000000; fill-opacity:1.0; 
stroke:#000000; stroke-width:0; stroke-opacity:1; 
stroke-linecap:round; stroke-linejoin:round;fill-rule:evenodd;"
d="M 74312,65730
74331,65733
74349,65738
74367,65744
74384,65752
74400,65762
74415,65773
74429,65785
74442,65799
74453,65815
74463,65831
74471,65848
74477,65865
74482,65884
74484,65902
74485,65921
74485,66305
74484,66324
74482,66342
74477,66361
74471,66378
74463,66396
74453,66412
74442,66427
74429,66441
74415,66453
74400,66465
74384,66474
74367,66482
74349,66489
74331,66493
74312,66496
74293,66497
73575,66497
73556,66496
73537,66493
73519,66489
73501,66482
73484,66474
73468,66465
73453,66453
73439,66441
73426,66427
73415,66412
73406,66396
73397,66378
73391,66361
73387,66342
73384,66324
73383,66305
73383,65921
73384,65902
73387,65884
73391,65865
73397,65848
73406,65831
73415,65815
73426,65799
73439,65785
73453,65773
73468,65762
73484,65752
73501,65744
73519,65738
73537,65733
73556,65730
73575,65729
74293,65729
74312,65730
Z" /> 
<path style="fill:#000000; fill-opacity:1.0; 
stroke:#000000; stroke-width:0; stroke-opacity:1; 
stroke-linecap:round; stroke-linejoin:round;fill-rule:evenodd;"
d="M 74312,64254
74331,64257
74349,64261
74367,64267
74384,64276
74400,64285
74415,64296
74429,64309
74442,64323
74453,64338
74463,64354
74471,64371
74477,64389
74482,64407
74484,64426
74485,64445
74485,64829
74484,64847
74482,64866
74477,64884
74471,64902
74463,64919
74453,64935
74442,64950
74429,64964
74415,64977
74400,64988
74384,64998
74367,65006
74349,65012
74331,65017
74312,65020
74293,65021
73575,65021
73556,65020
73537,65017
73519,65012
73501,65006
73484,64998
73468,64988
73453,64977
73439,64964
73426,64950
73415,64935
73406,64919
73397,64902
73391,64884
73387,64866
73384,64847
73383,64829
73383,64445
73384,64426
73387,64407
73391,64389
73397,64371
73406,64354
73415,64338
73426,64323
73439,64309
73453,64296
73468,64285
73484,64276
73501,64267
73519,64261
73537,64257
73556,64254
73575,64253
74293,64253
74312,64254
Z" /> 
</g>
<g >
<path style="fill:#000000; fill-opacity:1.0; 
stroke:#000000; stroke-width:0; stroke-opacity:1; 
stroke-linecap:round; stroke-linejoin:round;fill-rule:evenodd;"
d="M 34312,64214
34331,64217
34349,64221
34367,64227
34384,64236
34400,64245
34415,64256
34429,64269
34442,64283
34453,64298
34463,64314
34471,64331
34477,64349
34482,64367
34484,64386
34485,64405
34485,64789
34484,64807
34482,64826
34477,64844
34471,64862
34463,64879
34453,64895
34442,64910
34429,64924
34415,64937
34400,64948
34384,64958
34367,64966
34349,64972
34331,64977
34312,64980
34293,64981
33575,64981
33556,64980
33537,64977
33519,64972
33501,64966
33484,64958
33468,64948
33453,64937
33439,64924
33426,64910
33415,64895
33406,64879
33397,64862
33391,64844
33387,64826
33384,64807
33383,64789
33383,64405
33384,64386
33387,64367
33391,64349
33397,64331
33406,64314
33415,64298
33426,64283
33439,64269
33453,64256
33468,64245
33484,64236
33501,64227
33519,64221
33537,64217
33556,64214
33575,64213
34293,64213
34312,64214
Z" /> 
<path style="fill:#000000; fill-opacity:1.0; 
stroke:#000000; stroke-width:0; stroke-opacity:1; 
stroke-linecap:round; stroke-linejoin:round;fill-rule:evenodd;"
d="M 34312,65690
34331,65693
34349,65698
34367,65704
34384,65712
34400,65722
34415,65733
34429,65745
34442,65759
34453,65775
34463,65791
34471,65808
34477,65825
34482,65844
34484,65862
34485,65881
34485,66265
34484,66284
34482,66302
34477,66321
34471,66338
34463,66356
34453,66372
34442,66387
34429,66401
34415,66413
34400,66425
34384,66434
34367,66442
34349,66449
34331,66453
34312,66456
34293,66457
33575,66457
33556,66456
33537,66453
33519,66449
33501,66442
33484,66434
33468,66425
33453,66413
33439,66401
33426,66387
33415,66372
33406,66356
33397,66338
33391,66321
33387,66302
33384,66284
33383,66265
33383,65881
33384,65862
33387,65844
33391,65825
33397,65808
33406,65791
33415,65775
33426,65759
33439,65745
33453,65733
33468,65722
33484,65712
33501,65704
33519,65698
33537,65693
33556,65690
33575,65689
34293,65689
34312,65690
Z" /> 
</g>
<g >
<path style="fill:#000000; fill-opacity:1.0; 
stroke:#000000; stroke-width:0; stroke-opacity:1; 
stroke-linecap:round; stroke-linejoin:round;fill-rule:evenodd;"
d="M 32352,65690
32371,65693
32389,65698
32407,65704
32424,65712
32440,65722
32455,65733
32469,65745
32482,65759
32493,65775
32503,65791
32511,65808
32517,65825
32522,65844
32524,65862
32525,65881
32525,66265
32524,66284
32522,66302
32517,66321
32511,66338
32503,66356
32493,66372
32482,66387
32469,66401
32455,66413
32440,66425
32424,66434
32407,66442
32389,66449
32371,66453
32352,66456
32333,66457
31615,66457
31596,66456
31577,66453
31559,66449
31541,66442
31524,66434
31508,66425
31493,66413
31479,66401
31466,66387
31455,66372
31446,66356
31437,66338
31431,66321
31427,66302
31424,66284
31423,66265
31423,65881
31424,65862
31427,65844
31431,65825
31437,65808
31446,65791
31455,65775
31466,65759
31479,65745
31493,65733
31508,65722
31524,65712
31541,65704
31559,65698
31577,65693
31596,65690
31615,65689
32333,65689
32352,65690
Z" /> 
<path style="fill:#000000; fill-opacity:1.0; 
stroke:#000000; stroke-width:0; stroke-opacity:1; 
stroke-linecap:round; stroke-linejoin:round;fill-rule:evenodd;"
d="M 32352,64214
32371,64217
32389,64221
32407,64227
32424,64236
32440,64245
32455,64256
32469,64269
32482,64283
32493,64298
32503,64314
32511,64331
32517,64349
32522,64367
32524,64386
32525,64405
32525,64789
32524,64807
32522,64826
32517,64844
32511,64862
32503,64879
32493,64895
32482,64910
32469,64924
32455,64937
32440,64948
32424,64958
32407,64966
32389,64972
32371,64977
32352,64980
32333,64981
31615,64981
31596,64980
31577,64977
31559,64972
31541,64966
31524,64958
31508,64948
31493,64937
31479,64924
31466,64910
31455,64895
31446,64879
31437,64862
31431,64844
31427,64826
31424,64807
31423,64789
31423,64405
31424,64386
31427,64367
31431,64349
31437,64331
31446,64314
31455,64298
31466,64283
31479,64269
31493,64256
31508,64245
31524,64236
31541,64227
31559,64221
31577,64217
31596,64214
31615,64213
32333,64213
32352,64214
Z" /> 
</g>
<g >
<path style="fill:#000000; fill-opacity:1.0; 
stroke:#000000; stroke-width:0; stroke-opacity:1; 
stroke-linecap:round; stroke-linejoin:round;fill-rule:evenodd;"
d="M 39312,65730
39331,65733
39349,65738
39367,65744
39384,65752
39400,65762
39415,65773
39429,65785
39442,65799
39453,65815
39463,65831
39471,65848
39477,65865
39482,65884
39484,65902
39485,65921
39485,66305
39484,66324
39482,66342
39477,66361
39471,66378
39463,66396
39453,66412
39442,66427
39429,66441
39415,66453
39400,66465
39384,66474
39367,66482
39349,66489
39331,66493
39312,66496
39293,66497
38575,66497
38556,66496
38537,66493
38519,66489
38501,66482
38484,66474
38468,66465
38453,66453
38439,66441
38426,66427
38415,66412
38406,66396
38397,66378
38391,66361
38387,66342
38384,66324
38383,66305
38383,65921
38384,65902
38387,65884
38391,65865
38397,65848
38406,65831
38415,65815
38426,65799
38439,65785
38453,65773
38468,65762
38484,65752
38501,65744
38519,65738
38537,65733
38556,65730
38575,65729
39293,65729
39312,65730
Z" /> 
<path style="fill:#000000; fill-opacity:1.0; 
stroke:#000000; stroke-width:0; stroke-opacity:1; 
stroke-linecap:round; stroke-linejoin:round;fill-rule:evenodd;"
d="M 39312,64254
39331,64257
39349,64261
39367,64267
39384,64276
39400,64285
39415,64296
39429,64309
39442,64323
39453,64338
39463,64354
39471,64371
39477,64389
39482,64407
39484,64426
39485,64445
39485,64829
39484,64847
39482,64866
39477,64884
39471,64902
39463,64919
39453,64935
39442,64950
39429,64964
39415,64977
39400,64988
39384,64998
39367,65006
39349,65012
39331,65017
39312,65020
39293,65021
38575,65021
38556,65020
38537,65017
38519,65012
38501,65006
38484,64998
38468,64988
38453,64977
38439,64964
38426,64950
38415,64935
38406,64919
38397,64902
38391,64884
38387,64866
38384,64847
38383,64829
38383,64445
38384,64426
38387,64407
38391,64389
38397,64371
38406,64354
38415,64338
38426,64323
38439,64309
38453,64296
38468,64285
38484,64276
38501,64267
38519,64261
38537,64257
38556,64254
38575,64253
39293,64253
39312,64254
Z" /> 
</g>
<g >
<path style="fill:#000000; fill-opacity:1.0; 
stroke:#000000; stroke-width:0; stroke-opacity:1; 
stroke-linecap:round; stroke-linejoin:round;fill-rule:evenodd;"
d="M 46312,65730
46331,65733
46349,65738
46367,65744
46384,65752
46400,65762
46415,65773
46429,65785
46442,65799
46453,65815
46463,65831
46471,65848
46477,65865
46482,65884
46484,65902
46485,65921
46485,66305
46484,66324
46482,66342
46477,66361
46471,66378
46463,66396
46453,66412
46442,66427
46429,66441
46415,66453
46400,66465
46384,66474
46367,66482
46349,66489
46331,66493
46312,66496
46293,66497
45575,66497
45556,66496
45537,66493
45519,66489
45501,66482
45484,66474
45468,66465
45453,66453
45439,66441
45426,66427
45415,66412
45406,66396
45397,66378
45391,66361
45387,66342
45384,66324
45383,66305
45383,65921
45384,65902
45387,65884
45391,65865
45397,65848
45406,65831
45415,65815
45426,65799
45439,65785
45453,65773
45468,65762
45484,65752
45501,65744
45519,65738
45537,65733
45556,65730
45575,65729
46293,65729
46312,65730
Z" /> 
<path style="fill:#000000; fill-opacity:1.0; 
stroke:#000000; stroke-width:0; stroke-opacity:1; 
stroke-linecap:round; stroke-linejoin:round;fill-rule:evenodd;"
d="M 46312,64254
46331,64257
46349,64261
46367,64267
46384,64276
46400,64285
46415,64296
46429,64309
46442,64323
46453,64338
46463,64354
46471,64371
46477,64389
46482,64407
46484,64426
46485,64445
46485,64829
46484,64847
46482,64866
46477,64884
46471,64902
46463,64919
46453,64935
46442,64950
46429,64964
46415,64977
46400,64988
46384,64998
46367,65006
46349,65012
46331,65017
46312,65020
46293,65021
45575,65021
45556,65020
45537,65017
45519,65012
45501,65006
45484,64998
45468,64988
45453,64977
45439,64964
45426,64950
45415,64935
45406,64919
45397,64902
45391,64884
45387,64866
45384,64847
45383,64829
45383,64445
45384,64426
45387,64407
45391,64389
45397,64371
45406,64354
45415,64338
45426,64323
45439,64309
45453,64296
45468,64285
45484,64276
45501,64267
45519,64261
45537,64257
45556,64254
45575,64253
46293,64253
46312,64254
Z" /> 
</g>
<g >
<path style="fill:#000000; fill-opacity:1.0; 
stroke:#000000; stroke-width:0; stroke-opacity:1; 
stroke-linecap:round; stroke-linejoin:round;fill-rule:evenodd;"
d="M 53312,65730
53331,65733
53349,65738
53367,65744
53384,65752
53400,65762
53415,65773
53429,65785
53442,65799
53453,65815
53463,65831
53471,65848
53477,65865
53482,65884
53484,65902
53485,65921
53485,66305
53484,66324
53482,66342
53477,66361
53471,66378
53463,66396
53453,66412
53442,66427
53429,66441
53415,66453
53400,66465
53384,66474
53367,66482
53349,66489
53331,66493
53312,66496
53293,66497
52575,66497
52556,66496
52537,66493
52519,66489
52501,66482
52484,66474
52468,66465
52453,66453
52439,66441
52426,66427
52415,66412
52406,66396
52397,66378
52391,66361
52387,66342
52384,66324
52383,66305
52383,65921
52384,65902
52387,65884
52391,65865
52397,65848
52406,65831
52415,65815
52426,65799
52439,65785
52453,65773
52468,65762
52484,65752
52501,65744
52519,65738
52537,65733
52556,65730
52575,65729
53293,65729
53312,65730
Z" /> 
<path style="fill:#000000; fill-opacity:1.0; 
stroke:#000000; stroke-width:0; stroke-opacity:1; 
stroke-linecap:round; stroke-linejoin:round;fill-rule:evenodd;"
d="M 53312,64254
53331,64257
53349,64261
53367,64267
53384,64276
53400,64285
53415,64296
53429,64309
53442,64323
53453,64338
53463,64354
53471,64371
53477,64389
53482,64407
53484,64426
53485,64445
53485,64829
53484,64847
53482,64866
53477,64884
53471,64902
53463,64919
53453,64935
53442,64950
53429,64964
53415,64977
53400,64988
53384,64998
53367,65006
53349,65012
53331,65017
53312,65020
53293,65021
52575,65021
52556,65020
52537,65017
52519,65012
52501,65006
52484,64998
52468,64988
52453,64977
52439,64964
52426,64950
52415,64935
52406,64919
52397,64902
52391,64884
52387,64866
52384,64847
52383,64829
52383,64445
52384,64426
52387,64407
52391,64389
52397,64371
52406,64354
52415,64338
52426,64323
52439,64309
52453,64296
52468,64285
52484,64276
52501,64267
52519,64261
52537,64257
52556,64254
52575,64253
53293,64253
53312,64254
Z" /> 
</g>
<g >
<path style="fill:#000000; fill-opacity:1.0; 
stroke:#000000; stroke-width:0; stroke-opacity:1; 
stroke-linecap:round; stroke-linejoin:round;fill-rule:evenodd;"
d="M 60312,65730
60331,65733
60349,65738
60367,65744
60384,65752
60400,65762
60415,65773
60429,65785
60442,65799
60453,65815
60463,65831
60471,65848
60477,65865
60482,65884
60484,65902
60485,65921
60485,66305
60484,66324
60482,66342
60477,66361
60471,66378
60463,66396
60453,66412
60442,66427
60429,66441
60415,66453
60400,66465
60384,66474
60367,66482
60349,66489
60331,66493
60312,66496
60293,66497
59575,66497
59556,66496
59537,66493
59519,66489
59501,66482
59484,66474
59468,66465
59453,66453
59439,66441
59426,66427
59415,66412
59406,66396
59397,66378
59391,66361
59387,66342
59384,66324
59383,66305
59383,65921
59384,65902
59387,65884
59391,65865
59397,65848
59406,65831
59415,65815
59426,65799
59439,65785
59453,65773
59468,65762
59484,65752
59501,65744
59519,65738
59537,65733
59556,65730
59575,65729
60293,65729
60312,65730
Z" /> 
<path style="fill:#000000; fill-opacity:1.0; 
stroke:#000000; stroke-width:0; stroke-opacity:1; 
stroke-linecap:round; stroke-linejoin:round;fill-rule:evenodd;"
d="M 60312,64254
60331,64257
60349,64261
60367,64267
60384,64276
60400,64285
60415,64296
60429,64309
60442,64323
60453,64338
60463,64354
60471,64371
60477,64389
60482,64407
60484,64426
60485,64445
60485,64829
60484,64847
60482,64866
60477,64884
60471,64902
60463,64919
60453,64935
60442,64950
60429,64964
60415,64977
60400,64988
60384,64998
60367,65006
60349,65012
60331,65017
60312,65020
60293,65021
59575,65021
59556,65020
59537,65017
59519,65012
59501,65006
59484,64998
59468,64988
59453,64977
59439,64964
59426,64950
59415,64935
59406,64919
59397,64902
59391,64884
59387,64866
59384,64847
59383,64829
59383,64445
59384,64426
59387,64407
59391,64389
59397,64371
59406,64354
59415,64338
59426,64323
59439,64309
59453,64296
59468,64285
59484,64276
59501,64267
59519,64261
59537,64257
59556,64254
59575,64253
60293,64253
60312,64254
Z" /> 
</g>
<g >
<path style="fill:#000000; fill-opacity:1.0; 
stroke:#000000; stroke-width:0; stroke-opacity:1; 
stroke-linecap:round; stroke-linejoin:round;fill-rule:evenodd;"
d="M 67312,65730
67331,65733
67349,65738
67367,65744
67384,65752
67400,65762
67415,65773
67429,65785
67442,65799
67453,65815
67463,65831
67471,65848
67477,65865
67482,65884
67484,65902
67485,65921
67485,66305
67484,66324
67482,66342
67477,66361
67471,66378
67463,66396
67453,66412
67442,66427
67429,66441
67415,66453
67400,66465
67384,66474
67367,66482
67349,66489
67331,66493
67312,66496
67293,66497
66575,66497
66556,66496
66537,66493
66519,66489
66501,66482
66484,66474
66468,66465
66453,66453
66439,66441
66426,66427
66415,66412
66406,66396
66397,66378
66391,66361
66387,66342
66384,66324
66383,66305
66383,65921
66384,65902
66387,65884
66391,65865
66397,65848
66406,65831
66415,65815
66426,65799
66439,65785
66453,65773
66468,65762
66484,65752
66501,65744
66519,65738
66537,65733
66556,65730
66575,65729
67293,65729
67312,65730
Z" /> 
<path style="fill:#000000; fill-opacity:1.0; 
stroke:#000000; stroke-width:0; stroke-opacity:1; 
stroke-linecap:round; stroke-linejoin:round;fill-rule:evenodd;"
d="M 67312,64254
67331,64257
67349,64261
67367,64267
67384,64276
67400,64285
67415,64296
67429,64309
67442,64323
67453,64338
67463,64354
67471,64371
67477,64389
67482,64407
67484,64426
67485,64445
67485,64829
67484,64847
67482,64866
67477,64884
67471,64902
67463,64919
67453,64935
67442,64950
67429,64964
67415,64977
67400,64988
67384,64998
67367,65006
67349,65012
67331,65017
67312,65020
67293,65021
66575,65021
66556,65020
66537,65017
66519,65012
66501,65006
66484,64998
66468,64988
66453,64977
66439,64964
66426,64950
66415,64935
66406,64919
66397,64902
66391,64884
66387,64866
66384,64847
66383,64829
66383,64445
66384,64426
66387,64407
66391,64389
66397,64371
66406,64354
66415,64338
66426,64323
66439,64309
66453,64296
66468,64285
66484,64276
66501,64267
66519,64261
66537,64257
66556,64254
66575,64253
67293,64253
67312,64254
Z" /> 
</g>
<g >
<path style="fill:#000000; fill-opacity:1.0; 
stroke:#000000; stroke-width:0; stroke-opacity:1; 
stroke-linecap:round; stroke-linejoin:round;fill-rule:evenodd;"
d="M 81312,65730
81331,65733
81349,65738
81367,65744
81384,65752
81400,65762
81415,65773
81429,65785
81442,65799
81453,65815
81463,65831
81471,65848
81477,65865
81482,65884
81484,65902
81485,65921
81485,66305
81484,66324
81482,66342
81477,66361
81471,66378
81463,66396
81453,66412
81442,66427
81429,66441
81415,66453
81400,66465
81384,66474
81367,66482
81349,66489
81331,66493
81312,66496
81293,66497
80575,66497
80556,66496
80537,66493
80519,66489
80501,66482
80484,66474
80468,66465
80453,66453
80439,66441
80426,66427
80415,66412
80406,66396
80397,66378
80391,66361
80387,66342
80384,66324
80383,66305
80383,65921
80384,65902
80387,65884
80391,65865
80397,65848
80406,65831
80415,65815
80426,65799
80439,65785
80453,65773
80468,65762
80484,65752
80501,65744
80519,65738
80537,65733
80556,65730
80575,65729
81293,65729
81312,65730
Z" /> 
<path style="fill:#000000; fill-opacity:1.0; 
stroke:#000000; stroke-width:0; stroke-opacity:1; 
stroke-linecap:round; stroke-linejoin:round;fill-rule:evenodd;"
d="M 81312,64254
81331,64257
81349,64261
81367,64267
81384,64276
81400,64285
81415,64296
81429,64309
81442,64323
81453,64338
81463,64354
81471,64371
81477,64389
81482,64407
81484,64426
81485,64445
81485,64829
81484,64847
81482,64866
81477,64884
81471,64902
81463,64919
81453,64935
81442,64950
81429,64964
81415,64977
81400,64988
81384,64998
81367,65006
81349,65012
81331,65017
81312,65020
81293,65021
80575,65021
80556,65020
80537,65017
80519,65012
80501,65006
80484,64998
80468,64988
80453,64977
80439,64964
80426,64950
80415,64935
80406,64919
80397,64902
80391,64884
80387,64866
80384,64847
80383,64829
80383,64445
80384,64426
80387,64407
80391,64389
80397,64371
80406,64354
80415,64338
80426,64323
80439,64309
80453,64296
80468,64285
80484,64276
80501,64267
80519,64261
80537,64257
80556,64254
80575,64253
81293,64253
81312,64254
Z" /> 
</g>
<g >
<path style="fill:#000000; fill-opacity:1.0; 
stroke:#000000; stroke-width:0; stroke-opacity:1; 
stroke-linecap:round; stroke-linejoin:round;fill-rule:evenodd;"
d="M 41312,64254
41331,64257
41349,64261
41367,64267
41384,64276
41400,64285
41415,64296
41429,64309
41442,64323
41453,64338
41463,64354
41471,64371
41477,64389
41482,64407
41484,64426
41485,64445
41485,64829
41484,64847
41482,64866
41477,64884
41471,64902
41463,64919
41453,64935
41442,64950
41429,64964
41415,64977
41400,64988
41384,64998
41367,65006
41349,65012
41331,65017
41312,65020
41293,65021
40575,65021
40556,65020
40537,65017
40519,65012
40501,65006
40484,64998
40468,64988
40453,64977
40439,64964
40426,64950
40415,64935
40406,64919
40397,64902
40391,64884
40387,64866
40384,64847
40383,64829
40383,64445
40384,64426
40387,64407
40391,64389
40397,64371
40406,64354
40415,64338
40426,64323
40439,64309
40453,64296
40468,64285
40484,64276
40501,64267
40519,64261
40537,64257
40556,64254
40575,64253
41293,64253
41312,64254
Z" /> 
<path style="fill:#000000; fill-opacity:1.0; 
stroke:#000000; stroke-width:0; stroke-opacity:1; 
stroke-linecap:round; stroke-linejoin:round;fill-rule:evenodd;"
d="M 41312,65730
41331,65733
41349,65738
41367,65744
41384,65752
41400,65762
41415,65773
41429,65785
41442,65799
41453,65815
41463,65831
41471,65848
41477,65865
41482,65884
41484,65902
41485,65921
41485,66305
41484,66324
41482,66342
41477,66361
41471,66378
41463,66396
41453,66412
41442,66427
41429,66441
41415,66453
41400,66465
41384,66474
41367,66482
41349,66489
41331,66493
41312,66496
41293,66497
40575,66497
40556,66496
40537,66493
40519,66489
40501,66482
40484,66474
40468,66465
40453,66453
40439,66441
40426,66427
40415,66412
40406,66396
40397,66378
40391,66361
40387,66342
40384,66324
40383,66305
40383,65921
40384,65902
40387,65884
40391,65865
40397,65848
40406,65831
40415,65815
40426,65799
40439,65785
40453,65773
40468,65762
40484,65752
40501,65744
40519,65738
40537,65733
40556,65730
40575,65729
41293,65729
41312,65730
Z" /> 
</g>
<g >
<path style="fill:#000000; fill-opacity:1.0; 
stroke:#000000; stroke-width:0; stroke-opacity:1; 
stroke-linecap:round; stroke-linejoin:round;fill-rule:evenodd;"
d="M 48312,64254
48331,64257
48349,64261
48367,64267
48384,64276
48400,64285
48415,64296
48429,64309
48442,64323
48453,64338
48463,64354
48471,64371
48477,64389
48482,64407
48484,64426
48485,64445
48485,64829
48484,64847
48482,64866
48477,64884
48471,64902
48463,64919
48453,64935
48442,64950
48429,64964
48415,64977
48400,64988
48384,64998
48367,65006
48349,65012
48331,65017
48312,65020
48293,65021
47575,65021
47556,65020
47537,65017
47519,65012
47501,65006
47484,64998
47468,64988
47453,64977
47439,64964
47426,64950
47415,64935
47406,64919
47397,64902
47391,64884
47387,64866
47384,64847
47383,64829
47383,64445
47384,64426
47387,64407
47391,64389
47397,64371
47406,64354
47415,64338
47426,64323
47439,64309
47453,64296
47468,64285
47484,64276
47501,64267
47519,64261
47537,64257
47556,64254
47575,64253
48293,64253
48312,64254
Z" /> 
<path style="fill:#000000; fill-opacity:1.0; 
stroke:#000000; stroke-width:0; stroke-opacity:1; 
stroke-linecap:round; stroke-linejoin:round;fill-rule:evenodd;"
d="M 48312,65730
48331,65733
48349,65738
48367,65744
48384,65752
48400,65762
48415,65773
48429,65785
48442,65799
48453,65815
48463,65831
48471,65848
48477,65865
48482,65884
48484,65902
48485,65921
48485,66305
48484,66324
48482,66342
48477,66361
48471,66378
48463,66396
48453,66412
48442,66427
48429,66441
48415,66453
48400,66465
48384,66474
48367,66482
48349,66489
48331,66493
48312,66496
48293,66497
47575,66497
47556,66496
47537,66493
47519,66489
47501,66482
47484,66474
47468,66465
47453,66453
47439,66441
47426,66427
47415,66412
47406,66396
47397,66378
47391,66361
47387,66342
47384,66324
47383,66305
47383,65921
47384,65902
47387,65884
47391,65865
47397,65848
47406,65831
47415,65815
47426,65799
47439,65785
47453,65773
47468,65762
47484,65752
47501,65744
47519,65738
47537,65733
47556,65730
47575,65729
48293,65729
48312,65730
Z" /> 
</g>
<g >
<path style="fill:#000000; fill-opacity:1.0; 
stroke:#000000; stroke-width:0; stroke-opacity:1; 
stroke-linecap:round; stroke-linejoin:round;fill-rule:evenodd;"
d="M 55312,64254
55331,64257
55349,64261
55367,64267
55384,64276
55400,64285
55415,64296
55429,64309
55442,64323
55453,64338
55463,64354
55471,64371
55477,64389
55482,64407
55484,64426
55485,64445
55485,64829
55484,64847
55482,64866
55477,64884
55471,64902
55463,64919
55453,64935
55442,64950
55429,64964
55415,64977
55400,64988
55384,64998
55367,65006
55349,65012
55331,65017
55312,65020
55293,65021
54575,65021
54556,65020
54537,65017
54519,65012
54501,65006
54484,64998
54468,64988
54453,64977
54439,64964
54426,64950
54415,64935
54406,64919
54397,64902
54391,64884
54387,64866
54384,64847
54383,64829
54383,64445
54384,64426
54387,64407
54391,64389
54397,64371
54406,64354
54415,64338
54426,64323
54439,64309
54453,64296
54468,64285
54484,64276
54501,64267
54519,64261
54537,64257
54556,64254
54575,64253
55293,64253
55312,64254
Z" /> 
<path style="fill:#000000; fill-opacity:1.0; 
stroke:#000000; stroke-width:0; stroke-opacity:1; 
stroke-linecap:round; stroke-linejoin:round;fill-rule:evenodd;"
d="M 55312,65730
55331,65733
55349,65738
55367,65744
55384,65752
55400,65762
55415,65773
55429,65785
55442,65799
55453,65815
55463,65831
55471,65848
55477,65865
55482,65884
55484,65902
55485,65921
55485,66305
55484,66324
55482,66342
55477,66361
55471,66378
55463,66396
55453,66412
55442,66427
55429,66441
55415,66453
55400,66465
55384,66474
55367,66482
55349,66489
55331,66493
55312,66496
55293,66497
54575,66497
54556,66496
54537,66493
54519,66489
54501,66482
54484,66474
54468,66465
54453,66453
54439,66441
54426,66427
54415,66412
54406,66396
54397,66378
54391,66361
54387,66342
54384,66324
54383,66305
54383,65921
54384,65902
54387,65884
54391,65865
54397,65848
54406,65831
54415,65815
54426,65799
54439,65785
54453,65773
54468,65762
54484,65752
54501,65744
54519,65738
54537,65733
54556,65730
54575,65729
55293,65729
55312,65730
Z" /> 
</g>
<g >
<path style="fill:#000000; fill-opacity:1.0; 
stroke:#000000; stroke-width:0; stroke-opacity:1; 
stroke-linecap:round; stroke-linejoin:round;fill-rule:evenodd;"
d="M 69312,64254
69331,64257
69349,64261
69367,64267
69384,64276
69400,64285
69415,64296
69429,64309
69442,64323
69453,64338
69463,64354
69471,64371
69477,64389
69482,64407
69484,64426
69485,64445
69485,64829
69484,64847
69482,64866
69477,64884
69471,64902
69463,64919
69453,64935
69442,64950
69429,64964
69415,64977
69400,64988
69384,64998
69367,65006
69349,65012
69331,65017
69312,65020
69293,65021
68575,65021
68556,65020
68537,65017
68519,65012
68501,65006
68484,64998
68468,64988
68453,64977
68439,64964
68426,64950
68415,64935
68406,64919
68397,64902
68391,64884
68387,64866
68384,64847
68383,64829
68383,64445
68384,64426
68387,64407
68391,64389
68397,64371
68406,64354
68415,64338
68426,64323
68439,64309
68453,64296
68468,64285
68484,64276
68501,64267
68519,64261
68537,64257
68556,64254
68575,64253
69293,64253
69312,64254
Z" /> 
<path style="fill:#000000; fill-opacity:1.0; 
stroke:#000000; stroke-width:0; stroke-opacity:1; 
stroke-linecap:round; stroke-linejoin:round;fill-rule:evenodd;"
d="M 69312,65730
69331,65733
69349,65738
69367,65744
69384,65752
69400,65762
69415,65773
69429,65785
69442,65799
69453,65815
69463,65831
69471,65848
69477,65865
69482,65884
69484,65902
69485,65921
69485,66305
69484,66324
69482,66342
69477,66361
69471,66378
69463,66396
69453,66412
69442,66427
69429,66441
69415,66453
69400,66465
69384,66474
69367,66482
69349,66489
69331,66493
69312,66496
69293,66497
68575,66497
68556,66496
68537,66493
68519,66489
68501,66482
68484,66474
68468,66465
68453,66453
68439,66441
68426,66427
68415,66412
68406,66396
68397,66378
68391,66361
68387,66342
68384,66324
68383,66305
68383,65921
68384,65902
68387,65884
68391,65865
68397,65848
68406,65831
68415,65815
68426,65799
68439,65785
68453,65773
68468,65762
68484,65752
68501,65744
68519,65738
68537,65733
68556,65730
68575,65729
69293,65729
69312,65730
Z" /> 
</g>
<g >
<path style="fill:#000000; fill-opacity:1.0; 
stroke:#000000; stroke-width:0; stroke-opacity:1; 
stroke-linecap:round; stroke-linejoin:round;fill-rule:evenodd;"
d="M 76312,64254
76331,64257
76349,64261
76367,64267
76384,64276
76400,64285
76415,64296
76429,64309
76442,64323
76453,64338
76463,64354
76471,64371
76477,64389
76482,64407
76484,64426
76485,64445
76485,64829
76484,64847
76482,64866
76477,64884
76471,64902
76463,64919
76453,64935
76442,64950
76429,64964
76415,64977
76400,64988
76384,64998
76367,65006
76349,65012
76331,65017
76312,65020
76293,65021
75575,65021
75556,65020
75537,65017
75519,65012
75501,65006
75484,64998
75468,64988
75453,64977
75439,64964
75426,64950
75415,64935
75406,64919
75397,64902
75391,64884
75387,64866
75384,64847
75383,64829
75383,64445
75384,64426
75387,64407
75391,64389
75397,64371
75406,64354
75415,64338
75426,64323
75439,64309
75453,64296
75468,64285
75484,64276
75501,64267
75519,64261
75537,64257
75556,64254
75575,64253
76293,64253
76312,64254
Z" /> 
<path style="fill:#000000; fill-opacity:1.0; 
stroke:#000000; stroke-width:0; stroke-opacity:1; 
stroke-linecap:round; stroke-linejoin:round;fill-rule:evenodd;"
d="M 76312,65730
76331,65733
76349,65738
76367,65744
76384,65752
76400,65762
76415,65773
76429,65785
76442,65799
76453,65815
76463,65831
76471,65848
76477,65865
76482,65884
76484,65902
76485,65921
76485,66305
76484,66324
76482,66342
76477,66361
76471,66378
76463,66396
76453,66412
76442,66427
76429,66441
76415,66453
76400,66465
76384,66474
76367,66482
76349,66489
76331,66493
76312,66496
76293,66497
75575,66497
75556,66496
75537,66493
75519,66489
75501,66482
75484,66474
75468,66465
75453,66453
75439,66441
75426,66427
75415,66412
75406,66396
75397,66378
75391,66361
75387,66342
75384,66324
75383,66305
75383,65921
75384,65902
75387,65884
75391,65865
75397,65848
75406,65831
75415,65815
75426,65799
75439,65785
75453,65773
75468,65762
75484,65752
75501,65744
75519,65738
75537,65733
75556,65730
75575,65729
76293,65729
76312,65730
Z" /> 
</g>
<g >
<path style="fill:#000000; fill-opacity:1.0; 
stroke:#000000; stroke-width:0; stroke-opacity:1; 
stroke-linecap:round; stroke-linejoin:round;fill-rule:evenodd;"
d="M 83312,64254
83331,64257
83349,64261
83367,64267
83384,64276
83400,64285
83415,64296
83429,64309
83442,64323
83453,64338
83463,64354
83471,64371
83477,64389
83482,64407
83484,64426
83485,64445
83485,64829
83484,64847
83482,64866
83477,64884
83471,64902
83463,64919
83453,64935
83442,64950
83429,64964
83415,64977
83400,64988
83384,64998
83367,65006
83349,65012
83331,65017
83312,65020
83293,65021
82575,65021
82556,65020
82537,65017
82519,65012
82501,65006
82484,64998
82468,64988
82453,64977
82439,64964
82426,64950
82415,64935
82406,64919
82397,64902
82391,64884
82387,64866
82384,64847
82383,64829
82383,64445
82384,64426
82387,64407
82391,64389
82397,64371
82406,64354
82415,64338
82426,64323
82439,64309
82453,64296
82468,64285
82484,64276
82501,64267
82519,64261
82537,64257
82556,64254
82575,64253
83293,64253
83312,64254
Z" /> 
<path style="fill:#000000; fill-opacity:1.0; 
stroke:#000000; stroke-width:0; stroke-opacity:1; 
stroke-linecap:round; stroke-linejoin:round;fill-rule:evenodd;"
d="M 83312,65730
83331,65733
83349,65738
83367,65744
83384,65752
83400,65762
83415,65773
83429,65785
83442,65799
83453,65815
83463,65831
83471,65848
83477,65865
83482,65884
83484,65902
83485,65921
83485,66305
83484,66324
83482,66342
83477,66361
83471,66378
83463,66396
83453,66412
83442,66427
83429,66441
83415,66453
83400,66465
83384,66474
83367,66482
83349,66489
83331,66493
83312,66496
83293,66497
82575,66497
82556,66496
82537,66493
82519,66489
82501,66482
82484,66474
82468,66465
82453,66453
82439,66441
82426,66427
82415,66412
82406,66396
82397,66378
82391,66361
82387,66342
82384,66324
82383,66305
82383,65921
82384,65902
82387,65884
82391,65865
82397,65848
82406,65831
82415,65815
82426,65799
82439,65785
82453,65773
82468,65762
82484,65752
82501,65744
82519,65738
82537,65733
82556,65730
82575,65729
83293,65729
83312,65730
Z" /> 
</g>
<g >
<path style="fill:#000000; fill-opacity:1.0; 
stroke:#000000; stroke-width:0; stroke-opacity:1; 
stroke-linecap:round; stroke-linejoin:round;fill-rule:evenodd;"
d="M 33883,62425
33902,62427
33920,62432
33938,62438
33955,62446
33971,62456
33986,62467
34000,62480
34013,62494
34024,62509
34033,62525
34042,62542
34048,62560
34052,62578
34055,62597
34056,62616
34056,63334
34055,63353
34052,63372
34048,63390
34042,63408
34033,63425
34024,63441
34013,63456
34000,63470
33986,63483
33971,63494
33955,63503
33938,63512
33920,63518
33902,63522
33883,63525
33864,63526
33480,63526
33462,63525
33443,63522
33425,63518
33407,63512
33390,63503
33374,63494
33359,63483
33345,63470
33332,63456
33321,63441
33311,63425
33303,63408
33297,63390
33292,63372
33289,63353
33288,63334
33288,62616
33289,62597
33292,62578
33297,62560
33303,62542
33311,62525
33321,62509
33332,62494
33345,62480
33359,62467
33374,62456
33390,62446
33407,62438
33425,62432
33443,62427
33462,62425
33480,62424
33864,62424
33883,62425
Z" /> 
<path style="fill:#000000; fill-opacity:1.0; 
stroke:#000000; stroke-width:0; stroke-opacity:1; 
stroke-linecap:round; stroke-linejoin:round;fill-rule:evenodd;"
d="M 32407,62425
32425,62427
32444,62432
32461,62438
32478,62446
32494,62456
32510,62467
32524,62480
32536,62494
32547,62509
32557,62525
32565,62542
32571,62560
32576,62578
32579,62597
32580,62616
32580,63334
32579,63353
32576,63372
32571,63390
32565,63408
32557,63425
32547,63441
32536,63456
32524,63470
32510,63483
32494,63494
32478,63503
32461,63512
32444,63518
32425,63522
32407,63525
32388,63526
32004,63526
31985,63525
31967,63522
31948,63518
31931,63512
31913,63503
31897,63494
31882,63483
31868,63470
31856,63456
31844,63441
31835,63425
31827,63408
31820,63390
31816,63372
31813,63353
31812,63334
31812,62616
31813,62597
31816,62578
31820,62560
31827,62542
31835,62525
31844,62509
31856,62494
31868,62480
31882,62467
31897,62456
31913,62446
31931,62438
31948,62432
31967,62427
31985,62425
32004,62424
32388,62424
32407,62425
Z" /> 
</g>
<g >
<path style="fill:#000000; fill-opacity:1.0; 
stroke:#000000; stroke-width:0; stroke-opacity:1; 
stroke-linecap:round; stroke-linejoin:round;fill-rule:evenodd;"
d="M 68883,62425
68902,62427
68920,62432
68938,62438
68955,62446
68971,62456
68986,62467
69000,62480
69013,62494
69024,62509
69033,62525
69042,62542
69048,62560
69052,62578
69055,62597
69056,62616
69056,63334
69055,63353
69052,63372
69048,63390
69042,63408
69033,63425
69024,63441
69013,63456
69000,63470
68986,63483
68971,63494
68955,63503
68938,63512
68920,63518
68902,63522
68883,63525
68864,63526
68480,63526
68462,63525
68443,63522
68425,63518
68407,63512
68390,63503
68374,63494
68359,63483
68345,63470
68332,63456
68321,63441
68311,63425
68303,63408
68297,63390
68292,63372
68289,63353
68288,63334
68288,62616
68289,62597
68292,62578
68297,62560
68303,62542
68311,62525
68321,62509
68332,62494
68345,62480
68359,62467
68374,62456
68390,62446
68407,62438
68425,62432
68443,62427
68462,62425
68480,62424
68864,62424
68883,62425
Z" /> 
<path style="fill:#000000; fill-opacity:1.0; 
stroke:#000000; stroke-width:0; stroke-opacity:1; 
stroke-linecap:round; stroke-linejoin:round;fill-rule:evenodd;"
d="M 67407,62425
67425,62427
67444,62432
67461,62438
67478,62446
67494,62456
67510,62467
67524,62480
67536,62494
67547,62509
67557,62525
67565,62542
67571,62560
67576,62578
67579,62597
67580,62616
67580,63334
67579,63353
67576,63372
67571,63390
67565,63408
67557,63425
67547,63441
67536,63456
67524,63470
67510,63483
67494,63494
67478,63503
67461,63512
67444,63518
67425,63522
67407,63525
67388,63526
67004,63526
66985,63525
66967,63522
66948,63518
66931,63512
66913,63503
66897,63494
66882,63483
66868,63470
66856,63456
66844,63441
66835,63425
66827,63408
66820,63390
66816,63372
66813,63353
66812,63334
66812,62616
66813,62597
66816,62578
66820,62560
66827,62542
66835,62525
66844,62509
66856,62494
66868,62480
66882,62467
66897,62456
66913,62446
66931,62438
66948,62432
66967,62427
66985,62425
67004,62424
67388,62424
67407,62425
Z" /> 
</g>
<g >
<path style="fill:#000000; fill-opacity:1.0; 
stroke:#000000; stroke-width:0; stroke-opacity:1; 
stroke-linecap:round; stroke-linejoin:round;fill-rule:evenodd;"
d="M 61883,62425
61902,62427
61920,62432
61938,62438
61955,62446
61971,62456
61986,62467
62000,62480
62013,62494
62024,62509
62033,62525
62042,62542
62048,62560
62052,62578
62055,62597
62056,62616
62056,63334
62055,63353
62052,63372
62048,63390
62042,63408
62033,63425
62024,63441
62013,63456
62000,63470
61986,63483
61971,63494
61955,63503
61938,63512
61920,63518
61902,63522
61883,63525
61864,63526
61480,63526
61462,63525
61443,63522
61425,63518
61407,63512
61390,63503
61374,63494
61359,63483
61345,63470
61332,63456
61321,63441
61311,63425
61303,63408
61297,63390
61292,63372
61289,63353
61288,63334
61288,62616
61289,62597
61292,62578
61297,62560
61303,62542
61311,62525
61321,62509
61332,62494
61345,62480
61359,62467
61374,62456
61390,62446
61407,62438
61425,62432
61443,62427
61462,62425
61480,62424
61864,62424
61883,62425
Z" /> 
<path style="fill:#000000; fill-opacity:1.0; 
stroke:#000000; stroke-width:0; stroke-opacity:1; 
stroke-linecap:round; stroke-linejoin:round;fill-rule:evenodd;"
d="M 60407,62425
60425,62427
60444,62432
60461,62438
60478,62446
60494,62456
60510,62467
60524,62480
60536,62494
60547,62509
60557,62525
60565,62542
60571,62560
60576,62578
60579,62597
60580,62616
60580,63334
60579,63353
60576,63372
60571,63390
60565,63408
60557,63425
60547,63441
60536,63456
60524,63470
60510,63483
60494,63494
60478,63503
60461,63512
60444,63518
60425,63522
60407,63525
60388,63526
60004,63526
59985,63525
59967,63522
59948,63518
59931,63512
59913,63503
59897,63494
59882,63483
59868,63470
59856,63456
59844,63441
59835,63425
59827,63408
59820,63390
59816,63372
59813,63353
59812,63334
59812,62616
59813,62597
59816,62578
59820,62560
59827,62542
59835,62525
59844,62509
59856,62494
59868,62480
59882,62467
59897,62456
59913,62446
59931,62438
59948,62432
59967,62427
59985,62425
60004,62424
60388,62424
60407,62425
Z" /> 
</g>
<g >
<path style="fill:#000000; fill-opacity:1.0; 
stroke:#000000; stroke-width:0; stroke-opacity:1; 
stroke-linecap:round; stroke-linejoin:round;fill-rule:evenodd;"
d="M 40883,62425
40902,62427
40920,62432
40938,62438
40955,62446
40971,62456
40986,62467
41000,62480
41013,62494
41024,62509
41033,62525
41042,62542
41048,62560
41052,62578
41055,62597
41056,62616
41056,63334
41055,63353
41052,63372
41048,63390
41042,63408
41033,63425
41024,63441
41013,63456
41000,63470
40986,63483
40971,63494
40955,63503
40938,63512
40920,63518
40902,63522
40883,63525
40864,63526
40480,63526
40462,63525
40443,63522
40425,63518
40407,63512
40390,63503
40374,63494
40359,63483
40345,63470
40332,63456
40321,63441
40311,63425
40303,63408
40297,63390
40292,63372
40289,63353
40288,63334
40288,62616
40289,62597
40292,62578
40297,62560
40303,62542
40311,62525
40321,62509
40332,62494
40345,62480
40359,62467
40374,62456
40390,62446
40407,62438
40425,62432
40443,62427
40462,62425
40480,62424
40864,62424
40883,62425
Z" /> 
<path style="fill:#000000; fill-opacity:1.0; 
stroke:#000000; stroke-width:0; stroke-opacity:1; 
stroke-linecap:round; stroke-linejoin:round;fill-rule:evenodd;"
d="M 39407,62425
39425,62427
39444,62432
39461,62438
39478,62446
39494,62456
39510,62467
39524,62480
39536,62494
39547,62509
39557,62525
39565,62542
39571,62560
39576,62578
39579,62597
39580,62616
39580,63334
39579,63353
39576,63372
39571,63390
39565,63408
39557,63425
39547,63441
39536,63456
39524,63470
39510,63483
39494,63494
39478,63503
39461,63512
39444,63518
39425,63522
39407,63525
39388,63526
39004,63526
38985,63525
38967,63522
38948,63518
38931,63512
38913,63503
38897,63494
38882,63483
38868,63470
38856,63456
38844,63441
38835,63425
38827,63408
38820,63390
38816,63372
38813,63353
38812,63334
38812,62616
38813,62597
38816,62578
38820,62560
38827,62542
38835,62525
38844,62509
38856,62494
38868,62480
38882,62467
38897,62456
38913,62446
38931,62438
38948,62432
38967,62427
38985,62425
39004,62424
39388,62424
39407,62425
Z" /> 
</g>
<g >
<path style="fill:#000000; fill-opacity:1.0; 
stroke:#000000; stroke-width:0; stroke-opacity:1; 
stroke-linecap:round; stroke-linejoin:round;fill-rule:evenodd;"
d="M 47883,62425
47902,62427
47920,62432
47938,62438
47955,62446
47971,62456
47986,62467
48000,62480
48013,62494
48024,62509
48033,62525
48042,62542
48048,62560
48052,62578
48055,62597
48056,62616
48056,63334
48055,63353
48052,63372
48048,63390
48042,63408
48033,63425
48024,63441
48013,63456
48000,63470
47986,63483
47971,63494
47955,63503
47938,63512
47920,63518
47902,63522
47883,63525
47864,63526
47480,63526
47462,63525
47443,63522
47425,63518
47407,63512
47390,63503
47374,63494
47359,63483
47345,63470
47332,63456
47321,63441
47311,63425
47303,63408
47297,63390
47292,63372
47289,63353
47288,63334
47288,62616
47289,62597
47292,62578
47297,62560
47303,62542
47311,62525
47321,62509
47332,62494
47345,62480
47359,62467
47374,62456
47390,62446
47407,62438
47425,62432
47443,62427
47462,62425
47480,62424
47864,62424
47883,62425
Z" /> 
<path style="fill:#000000; fill-opacity:1.0; 
stroke:#000000; stroke-width:0; stroke-opacity:1; 
stroke-linecap:round; stroke-linejoin:round;fill-rule:evenodd;"
d="M 46407,62425
46425,62427
46444,62432
46461,62438
46478,62446
46494,62456
46510,62467
46524,62480
46536,62494
46547,62509
46557,62525
46565,62542
46571,62560
46576,62578
46579,62597
46580,62616
46580,63334
46579,63353
46576,63372
46571,63390
46565,63408
46557,63425
46547,63441
46536,63456
46524,63470
46510,63483
46494,63494
46478,63503
46461,63512
46444,63518
46425,63522
46407,63525
46388,63526
46004,63526
45985,63525
45967,63522
45948,63518
45931,63512
45913,63503
45897,63494
45882,63483
45868,63470
45856,63456
45844,63441
45835,63425
45827,63408
45820,63390
45816,63372
45813,63353
45812,63334
45812,62616
45813,62597
45816,62578
45820,62560
45827,62542
45835,62525
45844,62509
45856,62494
45868,62480
45882,62467
45897,62456
45913,62446
45931,62438
45948,62432
45967,62427
45985,62425
46004,62424
46388,62424
46407,62425
Z" /> 
</g>
<g >
<path style="fill:#000000; fill-opacity:1.0; 
stroke:#000000; stroke-width:0; stroke-opacity:1; 
stroke-linecap:round; stroke-linejoin:round;fill-rule:evenodd;"
d="M 54883,62425
54902,62427
54920,62432
54938,62438
54955,62446
54971,62456
54986,62467
55000,62480
55013,62494
55024,62509
55033,62525
55042,62542
55048,62560
55052,62578
55055,62597
55056,62616
55056,63334
55055,63353
55052,63372
55048,63390
55042,63408
55033,63425
55024,63441
55013,63456
55000,63470
54986,63483
54971,63494
54955,63503
54938,63512
54920,63518
54902,63522
54883,63525
54864,63526
54480,63526
54462,63525
54443,63522
54425,63518
54407,63512
54390,63503
54374,63494
54359,63483
54345,63470
54332,63456
54321,63441
54311,63425
54303,63408
54297,63390
54292,63372
54289,63353
54288,63334
54288,62616
54289,62597
54292,62578
54297,62560
54303,62542
54311,62525
54321,62509
54332,62494
54345,62480
54359,62467
54374,62456
54390,62446
54407,62438
54425,62432
54443,62427
54462,62425
54480,62424
54864,62424
54883,62425
Z" /> 
<path style="fill:#000000; fill-opacity:1.0; 
stroke:#000000; stroke-width:0; stroke-opacity:1; 
stroke-linecap:round; stroke-linejoin:round;fill-rule:evenodd;"
d="M 53407,62425
53425,62427
53444,62432
53461,62438
53478,62446
53494,62456
53510,62467
53524,62480
53536,62494
53547,62509
53557,62525
53565,62542
53571,62560
53576,62578
53579,62597
53580,62616
53580,63334
53579,63353
53576,63372
53571,63390
53565,63408
53557,63425
53547,63441
53536,63456
53524,63470
53510,63483
53494,63494
53478,63503
53461,63512
53444,63518
53425,63522
53407,63525
53388,63526
53004,63526
52985,63525
52967,63522
52948,63518
52931,63512
52913,63503
52897,63494
52882,63483
52868,63470
52856,63456
52844,63441
52835,63425
52827,63408
52820,63390
52816,63372
52813,63353
52812,63334
52812,62616
52813,62597
52816,62578
52820,62560
52827,62542
52835,62525
52844,62509
52856,62494
52868,62480
52882,62467
52897,62456
52913,62446
52931,62438
52948,62432
52967,62427
52985,62425
53004,62424
53388,62424
53407,62425
Z" /> 
</g>
<g >
<path style="fill:#000000; fill-opacity:1.0; 
stroke:#000000; stroke-width:0; stroke-opacity:1; 
stroke-linecap:round; stroke-linejoin:round;fill-rule:evenodd;"
d="M 75883,62425
75902,62427
75920,62432
75938,62438
75955,62446
75971,62456
75986,62467
76000,62480
76013,62494
76024,62509
76033,62525
76042,62542
76048,62560
76052,62578
76055,62597
76056,62616
76056,63334
76055,63353
76052,63372
76048,63390
76042,63408
76033,63425
76024,63441
76013,63456
76000,63470
75986,63483
75971,63494
75955,63503
75938,63512
75920,63518
75902,63522
75883,63525
75864,63526
75480,63526
75462,63525
75443,63522
75425,63518
75407,63512
75390,63503
75374,63494
75359,63483
75345,63470
75332,63456
75321,63441
75311,63425
75303,63408
75297,63390
75292,63372
75289,63353
75288,63334
75288,62616
75289,62597
75292,62578
75297,62560
75303,62542
75311,62525
75321,62509
75332,62494
75345,62480
75359,62467
75374,62456
75390,62446
75407,62438
75425,62432
75443,62427
75462,62425
75480,62424
75864,62424
75883,62425
Z" /> 
<path style="fill:#000000; fill-opacity:1.0; 
stroke:#000000; stroke-width:0; stroke-opacity:1; 
stroke-linecap:round; stroke-linejoin:round;fill-rule:evenodd;"
d="M 74407,62425
74425,62427
74444,62432
74461,62438
74478,62446
74494,62456
74510,62467
74524,62480
74536,62494
74547,62509
74557,62525
74565,62542
74571,62560
74576,62578
74579,62597
74580,62616
74580,63334
74579,63353
74576,63372
74571,63390
74565,63408
74557,63425
74547,63441
74536,63456
74524,63470
74510,63483
74494,63494
74478,63503
74461,63512
74444,63518
74425,63522
74407,63525
74388,63526
74004,63526
73985,63525
73967,63522
73948,63518
73931,63512
73913,63503
73897,63494
73882,63483
73868,63470
73856,63456
73844,63441
73835,63425
73827,63408
73820,63390
73816,63372
73813,63353
73812,63334
73812,62616
73813,62597
73816,62578
73820,62560
73827,62542
73835,62525
73844,62509
73856,62494
73868,62480
73882,62467
73897,62456
73913,62446
73931,62438
73948,62432
73967,62427
73985,62425
74004,62424
74388,62424
74407,62425
Z" /> 
</g>
<g >
<path style="fill:#000000; fill-opacity:1.0; 
stroke:#000000; stroke-width:0; stroke-opacity:1; 
stroke-linecap:round; stroke-linejoin:round;fill-rule:evenodd;"
d="M 82883,62425
82902,62427
82920,62432
82938,62438
82955,62446
82971,62456
82986,62467
83000,62480
83013,62494
83024,62509
83033,62525
83042,62542
83048,62560
83052,62578
83055,62597
83056,62616
83056,63334
83055,63353
83052,63372
83048,63390
83042,63408
83033,63425
83024,63441
83013,63456
83000,63470
82986,63483
82971,63494
82955,63503
82938,63512
82920,63518
82902,63522
82883,63525
82864,63526
82480,63526
82462,63525
82443,63522
82425,63518
82407,63512
82390,63503
82374,63494
82359,63483
82345,63470
82332,63456
82321,63441
82311,63425
82303,63408
82297,63390
82292,63372
82289,63353
82288,63334
82288,62616
82289,62597
82292,62578
82297,62560
82303,62542
82311,62525
82321,62509
82332,62494
82345,62480
82359,62467
82374,62456
82390,62446
82407,62438
82425,62432
82443,62427
82462,62425
82480,62424
82864,62424
82883,62425
Z" /> 
<path style="fill:#000000; fill-opacity:1.0; 
stroke:#000000; stroke-width:0; stroke-opacity:1; 
stroke-linecap:round; stroke-linejoin:round;fill-rule:evenodd;"
d="M 81407,62425
81425,62427
81444,62432
81461,62438
81478,62446
81494,62456
81510,62467
81524,62480
81536,62494
81547,62509
81557,62525
81565,62542
81571,62560
81576,62578
81579,62597
81580,62616
81580,63334
81579,63353
81576,63372
81571,63390
81565,63408
81557,63425
81547,63441
81536,63456
81524,63470
81510,63483
81494,63494
81478,63503
81461,63512
81444,63518
81425,63522
81407,63525
81388,63526
81004,63526
80985,63525
80967,63522
80948,63518
80931,63512
80913,63503
80897,63494
80882,63483
80868,63470
80856,63456
80844,63441
80835,63425
80827,63408
80820,63390
80816,63372
80813,63353
80812,63334
80812,62616
80813,62597
80816,62578
80820,62560
80827,62542
80835,62525
80844,62509
80856,62494
80868,62480
80882,62467
80897,62456
80913,62446
80931,62438
80948,62432
80967,62427
80985,62425
81004,62424
81388,62424
81407,62425
Z" /> 
</g>
<g >
<path style="fill:#000000; fill-opacity:1.0; 
stroke:#000000; stroke-width:0; stroke-opacity:1; 
stroke-linecap:round; stroke-linejoin:round;fill-rule:evenodd;"
d="M 38607,14925
38625,14927
38644,14932
38661,14938
38678,14946
38694,14956
38710,14967
38724,14980
38736,14994
38747,15009
38757,15025
38765,15042
38771,15060
38776,15078
38779,15097
38780,15116
38780,15834
38779,15853
38776,15872
38771,15890
38765,15908
38757,15925
38747,15941
38736,15956
38724,15970
38710,15983
38694,15994
38678,16003
38661,16012
38644,16018
38625,16022
38607,16025
38588,16026
38204,16026
38185,16025
38167,16022
38148,16018
38131,16012
38113,16003
38097,15994
38082,15983
38068,15970
38056,15956
38044,15941
38035,15925
38027,15908
38020,15890
38016,15872
38013,15853
38012,15834
38012,15116
38013,15097
38016,15078
38020,15060
38027,15042
38035,15025
38044,15009
38056,14994
38068,14980
38082,14967
38097,14956
38113,14946
38131,14938
38148,14932
38167,14927
38185,14925
38204,14924
38588,14924
38607,14925
Z" /> 
<path style="fill:#000000; fill-opacity:1.0; 
stroke:#000000; stroke-width:0; stroke-opacity:1; 
stroke-linecap:round; stroke-linejoin:round;fill-rule:evenodd;"
d="M 40083,14925
40102,14927
40120,14932
40138,14938
40155,14946
40171,14956
40186,14967
40200,14980
40213,14994
40224,15009
40233,15025
40242,15042
40248,15060
40252,15078
40255,15097
40256,15116
40256,15834
40255,15853
40252,15872
40248,15890
40242,15908
40233,15925
40224,15941
40213,15956
40200,15970
40186,15983
40171,15994
40155,16003
40138,16012
40120,16018
40102,16022
40083,16025
40064,16026
39680,16026
39662,16025
39643,16022
39625,16018
39607,16012
39590,16003
39574,15994
39559,15983
39545,15970
39532,15956
39521,15941
39511,15925
39503,15908
39497,15890
39492,15872
39489,15853
39488,15834
39488,15116
39489,15097
39492,15078
39497,15060
39503,15042
39511,15025
39521,15009
39532,14994
39545,14980
39559,14967
39574,14956
39590,14946
39607,14938
39625,14932
39643,14927
39662,14925
39680,14924
40064,14924
40083,14925
Z" /> 
</g>
<g >
<path style="fill:#000000; fill-opacity:1.0; 
stroke:#000000; stroke-width:0; stroke-opacity:1; 
stroke-linecap:round; stroke-linejoin:round;fill-rule:evenodd;"
d="M 55312,43830
55331,43833
55349,43838
55367,43844
55384,43852
55400,43862
55415,43873
55429,43885
55442,43899
55453,43915
55463,43931
55471,43948
55477,43965
55482,43984
55484,44002
55485,44021
55485,44405
55484,44424
55482,44442
55477,44461
55471,44478
55463,44496
55453,44512
55442,44527
55429,44541
55415,44553
55400,44565
55384,44574
55367,44582
55349,44589
55331,44593
55312,44596
55293,44597
54575,44597
54556,44596
54537,44593
54519,44589
54501,44582
54484,44574
54468,44565
54453,44553
54439,44541
54426,44527
54415,44512
54406,44496
54397,44478
54391,44461
54387,44442
54384,44424
54383,44405
54383,44021
54384,44002
54387,43984
54391,43965
54397,43948
54406,43931
54415,43915
54426,43899
54439,43885
54453,43873
54468,43862
54484,43852
54501,43844
54519,43838
54537,43833
54556,43830
54575,43829
55293,43829
55312,43830
Z" /> 
<path style="fill:#000000; fill-opacity:1.0; 
stroke:#000000; stroke-width:0; stroke-opacity:1; 
stroke-linecap:round; stroke-linejoin:round;fill-rule:evenodd;"
d="M 55312,42354
55331,42357
55349,42361
55367,42367
55384,42376
55400,42385
55415,42396
55429,42409
55442,42423
55453,42438
55463,42454
55471,42471
55477,42489
55482,42507
55484,42526
55485,42545
55485,42929
55484,42947
55482,42966
55477,42984
55471,43002
55463,43019
55453,43035
55442,43050
55429,43064
55415,43077
55400,43088
55384,43098
55367,43106
55349,43112
55331,43117
55312,43120
55293,43121
54575,43121
54556,43120
54537,43117
54519,43112
54501,43106
54484,43098
54468,43088
54453,43077
54439,43064
54426,43050
54415,43035
54406,43019
54397,43002
54391,42984
54387,42966
54384,42947
54383,42929
54383,42545
54384,42526
54387,42507
54391,42489
54397,42471
54406,42454
54415,42438
54426,42423
54439,42409
54453,42396
54468,42385
54484,42376
54501,42367
54519,42361
54537,42357
54556,42354
54575,42353
55293,42353
55312,42354
Z" /> 
</g>
<g >
<path style="fill:#000000; fill-opacity:1.0; 
stroke:#000000; stroke-width:0; stroke-opacity:1; 
stroke-linecap:round; stroke-linejoin:round;fill-rule:evenodd;"
d="M 74612,53530
74631,53533
74649,53538
74667,53544
74684,53552
74700,53562
74715,53573
74729,53585
74742,53599
74753,53615
74763,53631
74771,53648
74777,53665
74782,53684
74784,53702
74785,53721
74785,54105
74784,54124
74782,54142
74777,54161
74771,54178
74763,54196
74753,54212
74742,54227
74729,54241
74715,54253
74700,54265
74684,54274
74667,54282
74649,54289
74631,54293
74612,54296
74593,54297
73875,54297
73856,54296
73837,54293
73819,54289
73801,54282
73784,54274
73768,54265
73753,54253
73739,54241
73726,54227
73715,54212
73706,54196
73697,54178
73691,54161
73687,54142
73684,54124
73683,54105
73683,53721
73684,53702
73687,53684
73691,53665
73697,53648
73706,53631
73715,53615
73726,53599
73739,53585
73753,53573
73768,53562
73784,53552
73801,53544
73819,53538
73837,53533
73856,53530
73875,53529
74593,53529
74612,53530
Z" /> 
<path style="fill:#000000; fill-opacity:1.0; 
stroke:#000000; stroke-width:0; stroke-opacity:1; 
stroke-linecap:round; stroke-linejoin:round;fill-rule:evenodd;"
d="M 74612,52054
74631,52057
74649,52061
74667,52067
74684,52076
74700,52085
74715,52096
74729,52109
74742,52123
74753,52138
74763,52154
74771,52171
74777,52189
74782,52207
74784,52226
74785,52245
74785,52629
74784,52647
74782,52666
74777,52684
74771,52702
74763,52719
74753,52735
74742,52750
74729,52764
74715,52777
74700,52788
74684,52798
74667,52806
74649,52812
74631,52817
74612,52820
74593,52821
73875,52821
73856,52820
73837,52817
73819,52812
73801,52806
73784,52798
73768,52788
73753,52777
73739,52764
73726,52750
73715,52735
73706,52719
73697,52702
73691,52684
73687,52666
73684,52647
73683,52629
73683,52245
73684,52226
73687,52207
73691,52189
73697,52171
73706,52154
73715,52138
73726,52123
73739,52109
73753,52096
73768,52085
73784,52076
73801,52067
73819,52061
73837,52057
73856,52054
73875,52053
74593,52053
74612,52054
Z" /> 
</g>
<g >
<path style="fill:#000000; fill-opacity:1.0; 
stroke:#000000; stroke-width:0; stroke-opacity:1; 
stroke-linecap:round; stroke-linejoin:round;fill-rule:evenodd;"
d="M 31183,34325
31202,34327
31220,34332
31238,34338
31255,34346
31271,34356
31286,34367
31300,34380
31313,34394
31324,34409
31333,34425
31342,34442
31348,34460
31352,34478
31355,34497
31356,34516
31356,35234
31355,35253
31352,35272
31348,35290
31342,35308
31333,35325
31324,35341
31313,35356
31300,35370
31286,35383
31271,35394
31255,35403
31238,35412
31220,35418
31202,35422
31183,35425
31164,35426
30780,35426
30762,35425
30743,35422
30725,35418
30707,35412
30690,35403
30674,35394
30659,35383
30645,35370
30632,35356
30621,35341
30611,35325
30603,35308
30597,35290
30592,35272
30589,35253
30588,35234
30588,34516
30589,34497
30592,34478
30597,34460
30603,34442
30611,34425
30621,34409
30632,34394
30645,34380
30659,34367
30674,34356
30690,34346
30707,34338
30725,34332
30743,34327
30762,34325
30780,34324
31164,34324
31183,34325
Z" /> 
<path style="fill:#000000; fill-opacity:1.0; 
stroke:#000000; stroke-width:0; stroke-opacity:1; 
stroke-linecap:round; stroke-linejoin:round;fill-rule:evenodd;"
d="M 29707,34325
29725,34327
29744,34332
29761,34338
29778,34346
29794,34356
29810,34367
29824,34380
29836,34394
29847,34409
29857,34425
29865,34442
29871,34460
29876,34478
29879,34497
29880,34516
29880,35234
29879,35253
29876,35272
29871,35290
29865,35308
29857,35325
29847,35341
29836,35356
29824,35370
29810,35383
29794,35394
29778,35403
29761,35412
29744,35418
29725,35422
29707,35425
29688,35426
29304,35426
29285,35425
29267,35422
29248,35418
29231,35412
29213,35403
29197,35394
29182,35383
29168,35370
29156,35356
29144,35341
29135,35325
29127,35308
29120,35290
29116,35272
29113,35253
29112,35234
29112,34516
29113,34497
29116,34478
29120,34460
29127,34442
29135,34425
29144,34409
29156,34394
29168,34380
29182,34367
29197,34356
29213,34346
29231,34338
29248,34332
29267,34327
29285,34325
29304,34324
29688,34324
29707,34325
Z" /> 
</g>
<g >
<path style="fill:#000000; fill-opacity:1.0; 
stroke:#000000; stroke-width:0; stroke-opacity:1; 
stroke-linecap:round; stroke-linejoin:round;fill-rule:evenodd;"
d="M 69112,43630
69131,43633
69149,43638
69167,43644
69184,43652
69200,43662
69215,43673
69229,43685
69242,43699
69253,43715
69263,43731
69271,43748
69277,43765
69282,43784
69284,43802
69285,43821
69285,44205
69284,44224
69282,44242
69277,44261
69271,44278
69263,44296
69253,44312
69242,44327
69229,44341
69215,44353
69200,44365
69184,44374
69167,44382
69149,44389
69131,44393
69112,44396
69093,44397
68375,44397
68356,44396
68337,44393
68319,44389
68301,44382
68284,44374
68268,44365
68253,44353
68239,44341
68226,44327
68215,44312
68206,44296
68197,44278
68191,44261
68187,44242
68184,44224
68183,44205
68183,43821
68184,43802
68187,43784
68191,43765
68197,43748
68206,43731
68215,43715
68226,43699
68239,43685
68253,43673
68268,43662
68284,43652
68301,43644
68319,43638
68337,43633
68356,43630
68375,43629
69093,43629
69112,43630
Z" /> 
<path style="fill:#000000; fill-opacity:1.0; 
stroke:#000000; stroke-width:0; stroke-opacity:1; 
stroke-linecap:round; stroke-linejoin:round;fill-rule:evenodd;"
d="M 69112,42154
69131,42157
69149,42161
69167,42167
69184,42176
69200,42185
69215,42196
69229,42209
69242,42223
69253,42238
69263,42254
69271,42271
69277,42289
69282,42307
69284,42326
69285,42345
69285,42729
69284,42747
69282,42766
69277,42784
69271,42802
69263,42819
69253,42835
69242,42850
69229,42864
69215,42877
69200,42888
69184,42898
69167,42906
69149,42912
69131,42917
69112,42920
69093,42921
68375,42921
68356,42920
68337,42917
68319,42912
68301,42906
68284,42898
68268,42888
68253,42877
68239,42864
68226,42850
68215,42835
68206,42819
68197,42802
68191,42784
68187,42766
68184,42747
68183,42729
68183,42345
68184,42326
68187,42307
68191,42289
68197,42271
68206,42254
68215,42238
68226,42223
68239,42209
68253,42196
68268,42185
68284,42176
68301,42167
68319,42161
68337,42157
68356,42154
68375,42153
69093,42153
69112,42154
Z" /> 
</g>
<g >
</g>
<g >
<path style="fill:#000000; fill-opacity:1.0; 
stroke:#000000; stroke-width:0; stroke-opacity:1; 
stroke-linecap:round; stroke-linejoin:round;fill-rule:evenodd;"
d="M 36597,15246
36617,15249
36635,15253
36653,15260
36671,15268
36688,15278
36703,15290
36717,15303
36730,15317
36742,15332
36752,15349
36760,15367
36767,15385
36771,15403
36774,15423
36775,15442
36775,16308
36774,16327
36771,16346
36767,16365
36760,16383
36752,16401
36742,16417
36730,16433
36717,16447
36703,16460
36688,16472
36671,16482
36653,16490
36635,16496
36617,16501
36597,16504
36578,16505
34925,16505
34905,16504
34886,16501
34867,16496
34849,16490
34832,16482
34815,16472
34800,16460
34785,16447
34772,16433
34761,16417
34751,16401
34743,16383
34736,16365
34732,16346
34729,16327
34728,16308
34728,15442
34729,15423
34732,15403
34736,15385
34743,15367
34751,15349
34761,15332
34772,15317
34785,15303
34800,15290
34815,15278
34832,15268
34849,15260
34867,15253
34886,15249
34905,15246
34925,15245
36578,15245
36597,15246
Z" /> 
<path style="fill:#000000; fill-opacity:1.0; 
stroke:#000000; stroke-width:0; stroke-opacity:1; 
stroke-linecap:round; stroke-linejoin:round;fill-rule:evenodd;"
d="M 33763,15246
33782,15249
33801,15253
33819,15260
33836,15268
33853,15278
33868,15290
33883,15303
33896,15317
33907,15332
33917,15349
33925,15367
33932,15385
33937,15403
33939,15423
33940,15442
33940,16308
33939,16327
33937,16346
33932,16365
33925,16383
33917,16401
33907,16417
33896,16433
33883,16447
33868,16460
33853,16472
33836,16482
33819,16490
33801,16496
33782,16501
33763,16504
33744,16505
32090,16505
32071,16504
32052,16501
32033,16496
32015,16490
31997,16482
31981,16472
31965,16460
31951,16447
31938,16433
31926,16417
31916,16401
31908,16383
31902,16365
31897,16346
31894,16327
31893,16308
31893,15442
31894,15423
31897,15403
31902,15385
31908,15367
31916,15349
31926,15332
31938,15317
31951,15303
31965,15290
31981,15278
31997,15268
32015,15260
32033,15253
32052,15249
32071,15246
32090,15245
33744,15245
33763,15246
Z" /> 
</g>
<g >
<path style="fill:#000000; fill-opacity:1.0; 
stroke:#000000; stroke-width:0; stroke-opacity:1; 
stroke-linecap:round; stroke-linejoin:round;fill-rule:evenodd;"
d="M 80912,36954
80931,36957
80949,36961
80967,36967
80984,36976
81000,36985
81015,36996
81029,37009
81042,37023
81053,37038
81063,37054
81071,37071
81077,37089
81082,37107
81084,37126
81085,37145
81085,37529
81084,37547
81082,37566
81077,37584
81071,37602
81063,37619
81053,37635
81042,37650
81029,37664
81015,37677
81000,37688
80984,37698
80967,37706
80949,37712
80931,37717
80912,37720
80893,37721
80175,37721
80156,37720
80137,37717
80119,37712
80101,37706
80084,37698
80068,37688
80053,37677
80039,37664
80026,37650
80015,37635
80006,37619
79997,37602
79991,37584
79987,37566
79984,37547
79983,37529
79983,37145
79984,37126
79987,37107
79991,37089
79997,37071
80006,37054
80015,37038
80026,37023
80039,37009
80053,36996
80068,36985
80084,36976
80101,36967
80119,36961
80137,36957
80156,36954
80175,36953
80893,36953
80912,36954
Z" /> 
<path style="fill:#000000; fill-opacity:1.0; 
stroke:#000000; stroke-width:0; stroke-opacity:1; 
stroke-linecap:round; stroke-linejoin:round;fill-rule:evenodd;"
d="M 80912,38430
80931,38433
80949,38438
80967,38444
80984,38452
81000,38462
81015,38473
81029,38485
81042,38499
81053,38515
81063,38531
81071,38548
81077,38565
81082,38584
81084,38602
81085,38621
81085,39005
81084,39024
81082,39042
81077,39061
81071,39078
81063,39096
81053,39112
81042,39127
81029,39141
81015,39153
81000,39165
80984,39174
80967,39182
80949,39189
80931,39193
80912,39196
80893,39197
80175,39197
80156,39196
80137,39193
80119,39189
80101,39182
80084,39174
80068,39165
80053,39153
80039,39141
80026,39127
80015,39112
80006,39096
79997,39078
79991,39061
79987,39042
79984,39024
79983,39005
79983,38621
79984,38602
79987,38584
79991,38565
79997,38548
80006,38531
80015,38515
80026,38499
80039,38485
80053,38473
80068,38462
80084,38452
80101,38444
80119,38438
80137,38433
80156,38430
80175,38429
80893,38429
80912,38430
Z" /> 
</g>
<g >
</g>
<g >
</g>
<g >
</g>
</g> 
</svg>
