<?xml version="1.0" standalone="no"?>
 <!DOCTYPE svg PUBLIC "-//W3C//DTD SVG 1.1//EN" 
 "http://www.w3.org/Graphics/SVG/1.1/DTD/svg11.dtd"> 
<svg xmlns="http://www.w3.org/2000/svg" version="1.1" 
    width="29.7002cm" height="21.0007cm" viewBox="0 0 116930 82680 ">
<title>SVG Picture created as ThermocoupleLogger-Cmts_User.svg date 2019/03/28 11:02:09 </title>
  <desc>Picture generated by PCBNEW </desc>
<g style="fill:#000000; fill-opacity:1;stroke:#000000; stroke-opacity:1;
stroke-linecap:round; stroke-linejoin:round; "
 transform="translate(0 0) scale(1 1)">
</g>
<g style="fill:#000000; fill-opacity:0.0; 
stroke:#000000; stroke-width:-0.000787402; stroke-opacity:1; 
stroke-linecap:round; stroke-linejoin:round;">
</g>
<g style="fill:#000000; fill-opacity:0.0; 
stroke:#000000; stroke-width:78.7402; stroke-opacity:1; 
stroke-linecap:round; stroke-linejoin:round;">
<path d="M93734 12875
L93734 73375
" />
<path d="M23734 68993
L23734 68993
" />
<path d="M23734 12875
L93734 12875
" />
<path d="M23734 73375
L93734 73375
" />
<path d="M23734 12875
L23734 73375
" />
<path d="M23734 13875
L23734 13875
" />
</g>
<g style="fill:#000000; fill-opacity:0.0; 
stroke:#000000; stroke-width:39.3701; stroke-opacity:1; 
stroke-linecap:round; stroke-linejoin:round;">
<path d="M67787 13064
L66212 13064
" />
<path d="M66212 13064
L65425 13851
" />
<path d="M65425 13851
L57551 13851
" />
<path d="M57551 13851
L56763 13064
" />
<path d="M56763 13064
L53614 13064
" />
<g >
</g>
<g >
</g>
<g >
</g>
<g >
</g>
<g >
</g>
<g >
</g>
<g >
</g>
<g >
</g>
<g >
</g>
<g >
</g>
<g >
</g>
<g >
</g>
<g >
</g>
<g >
</g>
<g >
</g>
<g >
</g>
<g >
</g>
<g >
</g>
<g >
</g>
<g >
</g>
<g >
</g>
<g >
</g>
<g >
</g>
<g >
</g>
<g >
</g>
<g >
</g>
<g >
</g>
<g >
</g>
<g >
</g>
<g >
</g>
<g >
</g>
<g >
</g>
<g >
</g>
<g >
</g>
<g >
</g>
<g >
</g>
<g >
</g>
<g >
</g>
<g >
</g>
<g >
</g>
<g >
</g>
<g >
</g>
<g >
</g>
<g >
</g>
<g >
</g>
<g >
</g>
<g >
</g>
<g >
</g>
<g >
</g>
<g >
</g>
<g >
</g>
<g >
</g>
<g >
</g>
<g >
</g>
<g >
</g>
<g >
</g>
<g >
</g>
<g >
</g>
<g >
</g>
<g >
</g>
<g >
</g>
<g >
</g>
<g >
</g>
<g >
</g>
<g >
</g>
<g >
</g>
<g >
</g>
<g >
</g>
<g >
</g>
<g >
</g>
<g >
</g>
<g >
</g>
<path d="M33835 37450
L33835 37174
L33940 37174
L33966 37187
L33980 37200
L33993 37227
L33993 37266
L33980 37292
L33966 37305
L33940 37318
L33835 37318
" />
<path d="M34242 37450
L34111 37450
L34111 37174
" />
<path d="M34321 37371
L34452 37371
" />
<path d="M34295 37450
L34386 37174
L34478 37450
" />
<path d="M34570 37450
L34570 37174
L34728 37450
L34728 37174
" />
<path d="M34859 37305
L34951 37305
" />
<path d="M34990 37450
L34859 37450
L34859 37174
L34990 37174
" />
<path d="M33814 36663
L33787 36650
L33748 36650
L33709 36663
L33682 36689
L33669 36716
L33656 36768
L33656 36807
L33669 36860
L33682 36886
L33709 36912
L33748 36926
L33774 36926
L33814 36912
L33827 36899
L33827 36807
L33774 36807
" />
<path d="M34102 36926
L34010 36794
" />
<path d="M33945 36926
L33945 36650
L34050 36650
L34076 36663
L34089 36676
L34102 36703
L34102 36742
L34089 36768
L34076 36781
L34050 36794
L33945 36794
" />
<path d="M34273 36650
L34325 36650
L34352 36663
L34378 36689
L34391 36742
L34391 36834
L34378 36886
L34352 36912
L34325 36926
L34273 36926
L34247 36912
L34220 36886
L34207 36834
L34207 36742
L34220 36689
L34247 36663
L34273 36650
" />
<path d="M34509 36650
L34509 36873
L34522 36899
L34535 36912
L34562 36926
L34614 36926
L34640 36912
L34653 36899
L34667 36873
L34667 36650
" />
<path d="M34798 36926
L34798 36650
L34955 36926
L34955 36650
" />
<path d="M35087 36926
L35087 36650
L35152 36650
L35192 36663
L35218 36689
L35231 36716
L35244 36768
L35244 36807
L35231 36860
L35218 36886
L35192 36912
L35152 36926
L35087 36926
" />
<path d="M34024 36388
L33892 36388
L33892 36112
" />
<path d="M34168 36112
L34220 36112
L34247 36125
L34273 36151
L34286 36204
L34286 36296
L34273 36348
L34247 36374
L34220 36388
L34168 36388
L34142 36374
L34115 36348
L34102 36296
L34102 36204
L34115 36151
L34142 36125
L34168 36112
" />
<path d="M34562 36361
L34548 36374
L34509 36388
L34483 36388
L34444 36374
L34417 36348
L34404 36322
L34391 36269
L34391 36230
L34404 36178
L34417 36151
L34444 36125
L34483 36112
L34509 36112
L34548 36125
L34562 36138
" />
<path d="M34667 36309
L34798 36309
" />
<path d="M34640 36388
L34732 36112
L34824 36388
" />
<path d="M35047 36388
L34916 36388
L34916 36112
" />
<path d="M38723 38037
L38526 38037
L38723 37925
L38526 37925
" />
<path d="M38526 37794
L38526 37756
L38536 37737
L38554 37719
L38592 37709
L38658 37709
L38695 37719
L38714 37737
L38723 37756
L38723 37794
L38714 37812
L38695 37831
L38658 37840
L38592 37840
L38554 37831
L38536 37812
L38526 37794
" />
<path d="M38723 37362
L38629 37428
" />
<path d="M38723 37475
L38526 37475
L38526 37400
L38536 37381
L38545 37372
L38564 37362
L38592 37362
L38611 37372
L38620 37381
L38629 37400
L38629 37475
" />
<path d="M38526 37241
L38526 37203
L38536 37184
L38554 37166
L38592 37156
L38658 37156
L38695 37166
L38714 37184
L38723 37203
L38723 37241
L38714 37259
L38695 37278
L38658 37287
L38592 37287
L38554 37278
L38536 37259
L38526 37241
" />
<path d="M38526 37072
L38686 37072
L38704 37062
L38714 37053
L38723 37034
L38723 36997
L38714 36978
L38704 36969
L38686 36959
L38526 36959
" />
<path d="M38526 36894
L38526 36781
" />
<path d="M38723 36837
L38526 36837
" />
<path d="M38723 36716
L38526 36716
" />
<path d="M38723 36622
L38526 36622
L38723 36509
L38526 36509
" />
<path d="M38536 36313
L38526 36331
L38526 36359
L38536 36388
L38554 36406
L38573 36416
L38611 36425
L38639 36425
L38676 36416
L38695 36406
L38714 36388
L38723 36359
L38723 36341
L38714 36313
L38704 36303
L38639 36303
L38639 36341
" />
<g >
</g>
</g> 
</svg>
