<?xml version="1.0" standalone="no"?>
 <!DOCTYPE svg PUBLIC "-//W3C//DTD SVG 1.1//EN" 
 "http://www.w3.org/Graphics/SVG/1.1/DTD/svg11.dtd"> 
<svg xmlns="http://www.w3.org/2000/svg" version="1.1" 
    width="29.7002cm" height="21.0007cm" viewBox="0 0 116930 82680 ">
<title>SVG Picture created as ThermocoupleLogger-B_Fab.svg date 2019/03/28 11:02:09 </title>
  <desc>Picture generated by PCBNEW </desc>
<g style="fill:#000000; fill-opacity:1;stroke:#000000; stroke-opacity:1;
stroke-linecap:round; stroke-linejoin:round; "
 transform="translate(0 0) scale(1 1)">
</g>
<g style="fill:#000000; fill-opacity:0.0; 
stroke:#000000; stroke-width:-0.000787402; stroke-opacity:1; 
stroke-linecap:round; stroke-linejoin:round;">
</g>
<g style="fill:#000000; fill-opacity:0.0; 
stroke:#000000; stroke-width:78.7402; stroke-opacity:1; 
stroke-linecap:round; stroke-linejoin:round;">
<path d="M93734 12875
L93734 73375
" />
<path d="M23734 68993
L23734 68993
" />
<path d="M23734 12875
L93734 12875
" />
<path d="M23734 73375
L93734 73375
" />
<path d="M23734 12875
L23734 73375
" />
<path d="M23734 13875
L23734 13875
" />
<path d="M24247.2 60643.9 A314.961 314.961 0.0 0 0 24562.1 60958.9 " />
<path d="M24562.1 56392 A314.961 314.961 0.0 0 0 24247.2 56706.9 " />
<path d="M25900 59699
L25900 57651
" />
<path d="M38656.6 59699.1 A1023.62 1023.62 0.0 0 0 38656.6 57651.8 " />
<path d="M29322.5 61425.2 A708.661 708.661 0.0 0 0 28656.6 60958.9 " />
<path d="M38656 59699
L25900 59699
" />
<path d="M25900 57651
L38656 57651
" />
<path d="M24247 60643
L24247 56706
" />
<path d="M24562 56391
L28680 56391
" />
<path d="M28680 60958
L24562 60958
" />
<path d="M29995.2 59699.1 A7940.27 7940.27 0.0 0 0 45743.2 57651.8 " />
<path d="M32987.3 59699.1 A4988.05 4988.05 0.0 0 0 42854.7 58515.1 " />
<path d="M36373.1 59699.1 A1812.73 1812.73 0.0 0 0 39676.7 58537 " />
<path d="M44460 64755
L43720 64075
" />
<path d="M44460 52595
L43740 53255
" />
<path d="M39676.7 58813.9 A1812.73 1812.73 0.0 0 0 36373.1 57651.8 " />
<path d="M42854.7 58835.8 A4988.05 4988.05 0.0 0 0 32987.3 57651.8 " />
<path d="M45743.2 59699.1 A7940.27 7940.27 0.0 0 0 29995.2 57651.8 " />
<path d="M29325.9 61431.3 A8976.81 8976.81 0.0 0 0 46845.8 58616.1 " />
<path d="M46845.8 58734.8 A8976.81 8976.81 0.0 0 0 29325.9 55919.5 " />
<path d="M28656.6 56392 A708.661 708.661 0.0 0 0 29322.5 55925.7 " />
<g >
</g>
<g >
</g>
<g >
</g>
<g >
</g>
<g >
</g>
<g >
</g>
<g >
</g>
<g >
</g>
<g >
</g>
<g >
</g>
<g >
</g>
<g >
</g>
<g >
</g>
<g >
</g>
<g >
</g>
<g >
</g>
<g >
</g>
<g >
</g>
<g >
</g>
<g >
</g>
<g >
</g>
<g >
</g>
<g >
</g>
<g >
</g>
<g >
</g>
<g >
</g>
<g >
</g>
<g >
</g>
<g >
</g>
<g >
</g>
<g >
</g>
<g >
</g>
<g >
</g>
<g >
</g>
<g >
</g>
<g >
</g>
<g >
</g>
<g >
</g>
<g >
</g>
<g >
</g>
<g >
</g>
<g >
</g>
<g >
</g>
<g >
</g>
<g >
</g>
<g >
</g>
<g >
</g>
<g >
</g>
<g >
</g>
<g >
</g>
<g >
</g>
<g >
</g>
<g >
</g>
<g >
</g>
<g >
</g>
<g >
</g>
<g >
</g>
<g >
</g>
<g >
</g>
<g >
</g>
<g >
</g>
<g >
</g>
<g >
</g>
<g >
</g>
<g >
</g>
<g >
</g>
<g >
</g>
<g >
</g>
<g >
</g>
<g >
</g>
<g >
</g>
<g >
</g>
</g>
<g style="fill:#000000; fill-opacity:0.0; 
stroke:#000000; stroke-width:118.11; stroke-opacity:1; 
stroke-linecap:round; stroke-linejoin:round;">
<path d="M39342 48382
L39230 48420
L39192 48457
L39155 48532
L39155 48645
L39192 48720
L39230 48757
L39305 48795
L39605 48795
L39605 48008
L39342 48008
L39267 48045
L39230 48083
L39192 48157
L39192 48232
L39230 48307
L39267 48345
L39342 48382
L39605 48382
" />
<path d="M38480 48795
L38480 48382
L38517 48307
L38592 48270
L38742 48270
L38817 48307
" />
<path d="M38480 48757
L38555 48795
L38742 48795
L38817 48757
L38855 48682
L38855 48607
L38817 48532
L38742 48495
L38555 48495
L38480 48457
" />
<path d="M38217 48270
L37917 48270
" />
<path d="M38105 48008
L38105 48682
L38067 48757
L37992 48795
L37917 48795
" />
<path d="M37767 48270
L37468 48270
" />
<path d="M37655 48008
L37655 48682
L37617 48757
L37543 48795
L37468 48795
" />
<path d="M36905 48757
L36980 48795
L37130 48795
L37205 48757
L37243 48682
L37243 48382
L37205 48307
L37130 48270
L36980 48270
L36905 48307
L36868 48382
L36868 48457
L37243 48532
" />
<path d="M36530 48795
L36530 48270
" />
<path d="M36530 48420
L36493 48345
L36455 48307
L36380 48270
L36305 48270
" />
<path d="M36118 48270
L35930 48795
" />
<path d="M35743 48270
L35930 48795
L36005 48982
L36043 49020
L36118 49057
" />
<path d="M26519 58619
L26406 58656
L26369 58694
L26331 58769
L26331 58881
L26369 58956
L26406 58994
L26481 59031
L26781 59031
L26781 58244
L26519 58244
L26444 58281
L26406 58319
L26369 58394
L26369 58469
L26406 58544
L26444 58581
L26519 58619
L26781 58619
" />
<path d="M26106 58244
L25656 58244
" />
<path d="M25881 59031
L25881 58244
" />
<path d="M25432 58319
L25394 58281
L25319 58244
L25132 58244
L25057 58281
L25019 58319
L24982 58394
L24982 58469
L25019 58581
L25469 59031
L24982 59031
" />
<g >
</g>
</g> 
</svg>
