<?xml version="1.0" standalone="no"?>
 <!DOCTYPE svg PUBLIC "-//W3C//DTD SVG 1.1//EN" 
 "http://www.w3.org/Graphics/SVG/1.1/DTD/svg11.dtd"> 
<svg xmlns="http://www.w3.org/2000/svg" version="1.1" 
    width="29.7002cm" height="21.0007cm" viewBox="0 0 116930 82680 ">
<title>SVG Picture created as ThermocoupleLogger-F_SilkS.svg date 2019/03/28 11:02:09 </title>
  <desc>Picture generated by PCBNEW </desc>
<g style="fill:#000000; fill-opacity:1;stroke:#000000; stroke-opacity:1;
stroke-linecap:round; stroke-linejoin:round; "
 transform="translate(0 0) scale(1 1)">
</g>
<g style="fill:#000000; fill-opacity:0.0; 
stroke:#000000; stroke-width:-0.000787402; stroke-opacity:1; 
stroke-linecap:round; stroke-linejoin:round;">
</g>
<g style="fill:#000000; fill-opacity:0.0; 
stroke:#000000; stroke-width:78.7402; stroke-opacity:1; 
stroke-linecap:round; stroke-linejoin:round;">
<path d="M93734 12875
L93734 73375
" />
<path d="M23734 68993
L23734 68993
" />
<path d="M23734 12875
L93734 12875
" />
</g>
<g style="fill:#000000; fill-opacity:0.0; 
stroke:#000000; stroke-width:196.85; stroke-opacity:1; 
stroke-linecap:round; stroke-linejoin:round;">
<path d="M25378 30553
L25415 30483
L25415 30333
L25378 30253
L25303 30169
L25228 30122
L25078 30103
L25003 30131
L24928 30197
L24890 30267
L24890 30417
L24928 30497
" />
<path d="M25678 30441
L25640 30248
L25528 30047
L25340 29911
L25153 29850
L24965 29864
L24778 29953
L24665 30127
L24628 30309
L24665 30502
L24778 30703
L24965 30839
L25153 30900
L25340 30886
L25528 30797
L25640 30623
L25678 30441
" />
<path d="M25490 31242
L25528 31284
L25565 31364
L25565 31551
L25528 31622
L25490 31654
L25415 31683
L25340 31673
L25228 31622
L24778 31115
L24778 31603
" />
<path d="M25565 32189
L25565 32264
L25528 32334
L25490 32367
L25415 32395
L25265 32414
L25078 32390
L24928 32334
L24853 32287
L24815 32245
L24778 32165
L24778 32090
L24815 32020
L24853 31987
L24928 31959
L25078 31940
L25265 31964
L25415 32020
L25490 32067
L25528 32109
L25565 32189
" />
<path d="M24778 33103
L24778 32653
" />
<path d="M24778 32878
L25565 32976
L25453 32887
L25378 32803
L25340 32723
" />
<path d="M25565 33464
L25565 33989
L24778 33553
" />
<path d="M24815 34232
L24778 34228
L24703 34181
L24665 34139
" />
<path d="M25565 35488
L25003 35418
L24890 35367
L24815 35282
L24778 35165
L24778 35090
" />
<path d="M24778 35765
L25565 35863
L25565 36163
L25528 36234
L25490 36266
L25415 36295
L25303 36280
L25228 36234
L25190 36191
L25153 36112
L25153 35812
" />
<path d="M25190 37204
L25190 37466
" />
<path d="M24778 37527
L24778 37152
L25565 37251
L25565 37626
" />
<path d="M25303 37930
L24778 37865
" />
<path d="M25228 37921
L25265 37963
L25303 38043
L25303 38155
L25265 38226
L25190 38254
L24778 38202
" />
<path d="M25303 38530
L25303 38830
" />
<path d="M25565 38675
L24890 38591
L24815 38619
L24778 38690
L24778 38765
" />
<path d="M24815 39332
L24778 39252
L24778 39102
L24815 39032
L24890 39004
L25190 39041
L25265 39088
L25303 39168
L25303 39318
L25265 39388
L25190 39416
L25115 39407
L25040 39022
" />
<path d="M24778 39702
L25303 39768
" />
<path d="M25153 39749
L25228 39796
L25265 39838
L25303 39918
L25303 39993
" />
<path d="M25303 40255
L24515 40157
" />
<path d="M25265 40250
L25303 40330
L25303 40480
L25265 40550
L25228 40583
L25153 40611
L24928 40583
L24853 40536
L24815 40494
L24778 40414
L24778 40264
L24815 40194
" />
<path d="M24778 40902
L25303 40967
" />
<path d="M25153 40949
L25228 40996
L25265 41038
L25303 41117
L25303 41192
" />
<path d="M24778 41389
L25303 41455
" />
<path d="M25565 41488
L25528 41445
L25490 41478
L25528 41520
L25565 41488
L25490 41478
" />
<path d="M24815 41731
L24778 41802
L24778 41952
L24815 42031
L24890 42078
L24928 42083
L25003 42055
L25040 41984
L25040 41872
L25078 41802
L25153 41774
L25190 41778
L25265 41825
L25303 41905
L25303 42017
L25265 42088
" />
<path d="M24815 42706
L24778 42627
L24778 42477
L24815 42406
L24890 42378
L25190 42416
L25265 42463
L25303 42542
L25303 42692
L25265 42762
L25190 42791
L25115 42781
L25040 42397
" />
<path d="M24815 43044
L24778 43114
L24778 43264
L24815 43344
L24890 43391
L24928 43395
L25003 43367
L25040 43297
L25040 43184
L25078 43114
L25153 43086
L25190 43091
L25265 43137
L25303 43217
L25303 43330
L25265 43400
" />
</g>
<g style="fill:#000000; fill-opacity:0.0; 
stroke:#000000; stroke-width:236.22; stroke-opacity:1; 
stroke-linecap:round; stroke-linejoin:round;">
<path d="M69384 14459
L70284 14459
" />
<path d="M74184 14459
L75084 14459
" />
<path d="M74634 14909
L74634 14009
" />
</g>
<g style="fill:#000000; fill-opacity:0.0; 
stroke:#000000; stroke-width:118.11; stroke-opacity:1; 
stroke-linecap:round; stroke-linejoin:round;">
<path d="M70559 20831
L70297 20456
" />
<path d="M70109 20831
L70109 20044
L70409 20044
L70484 20081
L70522 20119
L70559 20194
L70559 20306
L70522 20381
L70484 20419
L70409 20456
L70109 20456
" />
<path d="M71197 20794
L71122 20831
L70972 20831
L70897 20794
L70859 20719
L70859 20419
L70897 20344
L70972 20306
L71122 20306
L71197 20344
L71234 20419
L71234 20494
L70859 20569
" />
<path d="M71534 20794
L71609 20831
L71759 20831
L71834 20794
L71872 20719
L71872 20681
L71834 20606
L71759 20569
L71647 20569
L71572 20531
L71534 20456
L71534 20419
L71572 20344
L71647 20306
L71759 20306
L71834 20344
" />
<path d="M72509 20794
L72434 20831
L72284 20831
L72209 20794
L72171 20719
L72171 20419
L72209 20344
L72284 20306
L72434 20306
L72509 20344
L72546 20419
L72546 20494
L72171 20569
" />
<path d="M72771 20306
L73071 20306
" />
<path d="M72884 20044
L72884 20719
L72921 20794
L72996 20831
L73071 20831
" />
</g>
<g style="fill:#000000; fill-opacity:0.0; 
stroke:#000000; stroke-width:236.22; stroke-opacity:1; 
stroke-linecap:round; stroke-linejoin:round;">
<path d="M91393 68048
L91337 68161
L91281 68217
L91168 68273
L91112 68273
L91000 68217
L90944 68161
L90887 68048
L90887 67823
L90944 67711
L91000 67654
L91112 67598
L91168 67598
L91281 67654
L91337 67711
L91393 67823
L91393 68048
L91450 68161
L91506 68217
L91618 68273
L91843 68273
L91956 68217
L92012 68161
L92068 68048
L92068 67823
L92012 67711
L91956 67654
L91843 67598
L91618 67598
L91506 67654
L91450 67711
L91393 67823
" />
<path d="M91618 67092
L91618 66192
" />
<path d="M91956 64955
L92012 65011
L92068 65180
L92068 65292
L92012 65461
L91900 65573
L91787 65630
L91562 65686
L91393 65686
L91168 65630
L91056 65573
L90944 65461
L90887 65292
L90887 65180
L90944 65011
L91000 64955
" />
<path d="M92068 64449
L90887 64449
" />
<path d="M92068 63942
L91450 63942
L91337 63999
L91281 64111
L91281 64280
L91337 64392
L91393 64449
" />
<path d="M92068 62874
L91450 62874
L91337 62930
L91281 63043
L91281 63268
L91337 63380
" />
<path d="M92012 62874
L92068 62986
L92068 63268
L92012 63380
L91900 63436
L91787 63436
L91675 63380
L91618 63268
L91618 62986
L91562 62874
" />
<path d="M91281 62311
L92068 62311
" />
<path d="M91393 62311
L91337 62255
L91281 62143
L91281 61974
L91337 61861
L91450 61805
L92068 61805
" />
<path d="M91281 61243
L92068 61243
" />
<path d="M91393 61243
L91337 61187
L91281 61074
L91281 60905
L91337 60793
L91450 60737
L92068 60737
" />
<path d="M92012 59724
L92068 59837
L92068 60062
L92012 60174
L91900 60230
L91450 60230
L91337 60174
L91281 60062
L91281 59837
L91337 59724
L91450 59668
L91562 59668
L91675 60230
" />
<path d="M92068 58993
L92012 59106
L91900 59162
L90887 59162
" />
<path d="M90887 57812
L90887 57137
" />
<path d="M92068 57474
L90887 57474
" />
<path d="M92068 56743
L90887 56743
" />
<path d="M92068 56237
L91450 56237
L91337 56293
L91281 56406
L91281 56575
L91337 56687
L91393 56743
" />
<path d="M92012 55225
L92068 55337
L92068 55562
L92012 55675
L91900 55731
L91450 55731
L91337 55675
L91281 55562
L91281 55337
L91337 55225
L91450 55169
L91562 55169
L91675 55731
" />
<path d="M92068 54662
L91281 54662
" />
<path d="M91506 54662
L91393 54606
L91337 54550
L91281 54437
L91281 54325
" />
<path d="M92068 53931
L91281 53931
" />
<path d="M91393 53931
L91337 53875
L91281 53762
L91281 53594
L91337 53481
L91450 53425
L92068 53425
" />
<path d="M91450 53425
L91337 53369
L91281 53256
L91281 53088
L91337 52975
L91450 52919
L92068 52919
" />
<path d="M92068 52188
L92012 52300
L91956 52356
L91843 52413
L91506 52413
L91393 52356
L91337 52300
L91281 52188
L91281 52019
L91337 51906
L91393 51850
L91506 51794
L91843 51794
L91956 51850
L92012 51906
L92068 52019
L92068 52188
" />
<path d="M92012 50782
L92068 50894
L92068 51119
L92012 51232
L91956 51288
L91843 51344
L91506 51344
L91393 51288
L91337 51232
L91281 51119
L91281 50894
L91337 50782
" />
<path d="M92068 50107
L92012 50219
L91956 50275
L91843 50332
L91506 50332
L91393 50275
L91337 50219
L91281 50107
L91281 49938
L91337 49825
L91393 49769
L91506 49713
L91843 49713
L91956 49769
L92012 49825
L92068 49938
L92068 50107
" />
<path d="M91281 48701
L92068 48701
" />
<path d="M91281 49207
L91900 49207
L92012 49151
L92068 49038
L92068 48869
L92012 48757
L91956 48701
" />
<path d="M91281 48138
L92462 48138
" />
<path d="M91337 48138
L91281 48026
L91281 47801
L91337 47688
L91393 47632
L91506 47576
L91843 47576
L91956 47632
L92012 47688
L92068 47801
L92068 48026
L92012 48138
" />
<path d="M92068 46901
L92012 47013
L91900 47070
L90887 47070
" />
<path d="M92012 46001
L92068 46113
L92068 46338
L92012 46451
L91900 46507
L91450 46507
L91337 46451
L91281 46338
L91281 46113
L91337 46001
L91450 45945
L91562 45945
L91675 46507
" />
<path d="M92068 44370
L92012 44482
L91900 44539
L90887 44539
" />
<path d="M92068 43751
L92012 43864
L91956 43920
L91843 43976
L91506 43976
L91393 43920
L91337 43864
L91281 43751
L91281 43582
L91337 43470
L91393 43414
L91506 43357
L91843 43357
L91956 43414
L92012 43470
L92068 43582
L92068 43751
" />
<path d="M91281 42345
L92237 42345
L92350 42401
L92406 42458
L92462 42570
L92462 42739
L92406 42851
" />
<path d="M92012 42345
L92068 42458
L92068 42683
L92012 42795
L91956 42851
L91843 42908
L91506 42908
L91393 42851
L91337 42795
L91281 42683
L91281 42458
L91337 42345
" />
<path d="M91281 41277
L92237 41277
L92350 41333
L92406 41389
L92462 41501
L92462 41670
L92406 41783
" />
<path d="M92012 41277
L92068 41389
L92068 41614
L92012 41726
L91956 41783
L91843 41839
L91506 41839
L91393 41783
L91337 41726
L91281 41614
L91281 41389
L91337 41277
" />
<path d="M92012 40264
L92068 40377
L92068 40602
L92012 40714
L91900 40770
L91450 40770
L91337 40714
L91281 40602
L91281 40377
L91337 40264
L91450 40208
L91562 40208
L91675 40770
" />
<path d="M92068 39702
L91281 39702
" />
<path d="M91506 39702
L91393 39645
L91337 39589
L91281 39477
L91281 39364
" />
</g>
<g style="fill:#000000; fill-opacity:0.0; 
stroke:#000000; stroke-width:78.7402; stroke-opacity:1; 
stroke-linecap:round; stroke-linejoin:round;">
<path d="M23734 73375
L93734 73375
" />
<path d="M23734 12875
L23734 73375
" />
<path d="M23734 13875
L23734 13875
" />
</g>
<g style="fill:#000000; fill-opacity:0.0; 
stroke:#000000; stroke-width:118.11; stroke-opacity:1; 
stroke-linecap:round; stroke-linejoin:round;">
<path d="M30203 52231
L30203 51444
L30391 51444
L30503 51481
L30578 51556
L30616 51631
L30653 51781
L30653 51894
L30616 52044
L30578 52119
L30503 52194
L30391 52231
L30203 52231
" />
<path d="M30990 52231
L30990 51706
" />
<path d="M30990 51444
L30953 51481
L30990 51519
L31028 51481
L30990 51444
L30990 51519
" />
<path d="M31328 52194
L31403 52231
L31553 52231
L31628 52194
L31665 52119
L31665 52081
L31628 52006
L31553 51969
L31440 51969
L31365 51931
L31328 51856
L31328 51819
L31365 51744
L31440 51706
L31553 51706
L31628 51744
" />
<path d="M32003 51706
L32003 52494
" />
<path d="M32003 51744
L32078 51706
L32228 51706
L32303 51744
L32340 51781
L32378 51856
L32378 52081
L32340 52156
L32303 52194
L32228 52231
L32078 52231
L32003 52194
" />
<path d="M32828 52231
L32753 52194
L32715 52119
L32715 51444
" />
<path d="M33465 52231
L33465 51819
L33428 51744
L33353 51706
L33203 51706
L33128 51744
" />
<path d="M33465 52194
L33390 52231
L33203 52231
L33128 52194
L33090 52119
L33090 52044
L33128 51969
L33203 51931
L33390 51931
L33465 51894
" />
<path d="M33765 51706
L33953 52231
" />
<path d="M34140 51706
L33953 52231
L33878 52419
L33840 52456
L33765 52494
" />
</g>
<g style="fill:#000000; fill-opacity:0.0; 
stroke:#000000; stroke-width:94.4882; stroke-opacity:1; 
stroke-linecap:round; stroke-linejoin:round;">
<path d="M52687 24665
L53514 24665
" />
<path d="M53514 23839
L53514 24665
" />
<path d="M46112 19862
L46112 12933
" />
<path d="M46112 12933
L53356 12933
" />
<path d="M48238 24508
L46112 24508
" />
<path d="M46112 24508
L46112 23012
" />
<path d="M53356 12933
L53356 24508
" />
<path d="M53356 24508
L51309 24508
" />
<path d="M43178 72540
L43178 71556
" />
<path d="M42194 72540
L43178 72540
" />
<path d="M37548 68210
L39950 68210
" />
<path d="M37548 70532
L37548 68210
" />
<path d="M36958 70532
L37548 70532
" />
<path d="M42351 68210
L39950 68210
" />
<path d="M42351 70532
L42351 68210
" />
<path d="M42942 70532
L42351 70532
" />
<path d="M36958 72304
L38375 72304
" />
<path d="M36958 71714
L36958 72304
" />
<path d="M38375 71714
L36958 71714
" />
<path d="M38375 72304
L38375 71714
" />
<path d="M41525 72304
L42942 72304
" />
<path d="M41525 71714
L41525 72304
" />
<path d="M42942 71714
L41525 71714
" />
<path d="M42942 72304
L42942 71714
" />
<path d="M39556 72304
L40344 72304
" />
<path d="M39556 71714
L39556 72304
" />
<path d="M40344 71714
L39556 71714
" />
<path d="M40344 72304
L40344 71714
" />
<path d="M36950 72312
L42950 72312
" />
<path d="M36950 67611
L36950 72312
" />
<path d="M42950 67611
L36950 67611
" />
<path d="M42950 72312
L42950 67611
" />
<path d="M50178 72540
L50178 71556
" />
<path d="M49194 72540
L50178 72540
" />
<path d="M44548 68210
L46950 68210
" />
<path d="M44548 70532
L44548 68210
" />
<path d="M43958 70532
L44548 70532
" />
<path d="M49351 68210
L46950 68210
" />
<path d="M49351 70532
L49351 68210
" />
<path d="M49942 70532
L49351 70532
" />
<path d="M43958 72304
L45375 72304
" />
<path d="M43958 71714
L43958 72304
" />
<path d="M45375 71714
L43958 71714
" />
<path d="M45375 72304
L45375 71714
" />
<path d="M48525 72304
L49942 72304
" />
<path d="M48525 71714
L48525 72304
" />
<path d="M49942 71714
L48525 71714
" />
<path d="M49942 72304
L49942 71714
" />
<path d="M46556 72304
L47344 72304
" />
<path d="M46556 71714
L46556 72304
" />
<path d="M47344 71714
L46556 71714
" />
<path d="M47344 72304
L47344 71714
" />
<path d="M43950 72312
L49950 72312
" />
<path d="M43950 67611
L43950 72312
" />
<path d="M49950 67611
L43950 67611
" />
<path d="M49950 72312
L49950 67611
" />
<path d="M57178 72540
L57178 71556
" />
<path d="M56194 72540
L57178 72540
" />
<path d="M51548 68210
L53950 68210
" />
<path d="M51548 70532
L51548 68210
" />
<path d="M50958 70532
L51548 70532
" />
<path d="M56351 68210
L53950 68210
" />
<path d="M56351 70532
L56351 68210
" />
<path d="M56942 70532
L56351 70532
" />
<path d="M50958 72304
L52375 72304
" />
<path d="M50958 71714
L50958 72304
" />
<path d="M52375 71714
L50958 71714
" />
<path d="M52375 72304
L52375 71714
" />
<path d="M55525 72304
L56942 72304
" />
<path d="M55525 71714
L55525 72304
" />
<path d="M56942 71714
L55525 71714
" />
<path d="M56942 72304
L56942 71714
" />
<path d="M53556 72304
L54344 72304
" />
<path d="M53556 71714
L53556 72304
" />
<path d="M54344 71714
L53556 71714
" />
<path d="M54344 72304
L54344 71714
" />
<path d="M50950 72312
L56950 72312
" />
<path d="M50950 67611
L50950 72312
" />
<path d="M56950 67611
L50950 67611
" />
<path d="M56950 72312
L56950 67611
" />
<path d="M64178 72540
L64178 71556
" />
<path d="M63194 72540
L64178 72540
" />
<path d="M58548 68210
L60950 68210
" />
<path d="M58548 70532
L58548 68210
" />
<path d="M57958 70532
L58548 70532
" />
<path d="M63351 68210
L60950 68210
" />
<path d="M63351 70532
L63351 68210
" />
<path d="M63942 70532
L63351 70532
" />
<path d="M57958 72304
L59375 72304
" />
<path d="M57958 71714
L57958 72304
" />
<path d="M59375 71714
L57958 71714
" />
<path d="M59375 72304
L59375 71714
" />
<path d="M62525 72304
L63942 72304
" />
<path d="M62525 71714
L62525 72304
" />
<path d="M63942 71714
L62525 71714
" />
<path d="M63942 72304
L63942 71714
" />
<path d="M60556 72304
L61344 72304
" />
<path d="M60556 71714
L60556 72304
" />
<path d="M61344 71714
L60556 71714
" />
<path d="M61344 72304
L61344 71714
" />
<path d="M57950 72312
L63950 72312
" />
<path d="M57950 67611
L57950 72312
" />
<path d="M63950 67611
L57950 67611
" />
<path d="M63950 72312
L63950 67611
" />
<path d="M71147 72540
L71147 71556
" />
<path d="M70162 72540
L71147 72540
" />
<path d="M65517 68210
L67918 68210
" />
<path d="M65517 70532
L65517 68210
" />
<path d="M64926 70532
L65517 70532
" />
<path d="M70320 68210
L67918 68210
" />
<path d="M70320 70532
L70320 68210
" />
<path d="M70910 70532
L70320 70532
" />
<path d="M64926 72304
L66344 72304
" />
<path d="M64926 71714
L64926 72304
" />
<path d="M66344 71714
L64926 71714
" />
<path d="M66344 72304
L66344 71714
" />
<path d="M69493 72304
L70910 72304
" />
<path d="M69493 71714
L69493 72304
" />
<path d="M70910 71714
L69493 71714
" />
<path d="M70910 72304
L70910 71714
" />
<path d="M67525 72304
L68312 72304
" />
<path d="M67525 71714
L67525 72304
" />
<path d="M68312 71714
L67525 71714
" />
<path d="M68312 72304
L68312 71714
" />
<path d="M64918 72312
L70918 72312
" />
<path d="M64918 67611
L64918 72312
" />
<path d="M70918 67611
L64918 67611
" />
<path d="M70918 72312
L70918 67611
" />
<path d="M78147 72540
L78147 71556
" />
<path d="M77162 72540
L78147 72540
" />
<path d="M72517 68210
L74918 68210
" />
<path d="M72517 70532
L72517 68210
" />
<path d="M71926 70532
L72517 70532
" />
<path d="M77320 68210
L74918 68210
" />
<path d="M77320 70532
L77320 68210
" />
<path d="M77910 70532
L77320 70532
" />
<path d="M71926 72304
L73344 72304
" />
<path d="M71926 71714
L71926 72304
" />
<path d="M73344 71714
L71926 71714
" />
<path d="M73344 72304
L73344 71714
" />
<path d="M76493 72304
L77910 72304
" />
<path d="M76493 71714
L76493 72304
" />
<path d="M77910 71714
L76493 71714
" />
<path d="M77910 72304
L77910 71714
" />
<path d="M74525 72304
L75312 72304
" />
<path d="M74525 71714
L74525 72304
" />
<path d="M75312 71714
L74525 71714
" />
<path d="M75312 72304
L75312 71714
" />
<path d="M71918 72312
L77918 72312
" />
<path d="M71918 67611
L71918 72312
" />
<path d="M77918 67611
L71918 67611
" />
<path d="M77918 72312
L77918 67611
" />
<path d="M85147 72540
L85147 71556
" />
<path d="M84162 72540
L85147 72540
" />
<path d="M79517 68210
L81918 68210
" />
<path d="M79517 70532
L79517 68210
" />
<path d="M78926 70532
L79517 70532
" />
<path d="M84320 68210
L81918 68210
" />
<path d="M84320 70532
L84320 68210
" />
<path d="M84910 70532
L84320 70532
" />
<path d="M78926 72304
L80344 72304
" />
<path d="M78926 71714
L78926 72304
" />
<path d="M80344 71714
L78926 71714
" />
<path d="M80344 72304
L80344 71714
" />
<path d="M83493 72304
L84910 72304
" />
<path d="M83493 71714
L83493 72304
" />
<path d="M84910 71714
L83493 71714
" />
<path d="M84910 72304
L84910 71714
" />
<path d="M81525 72304
L82312 72304
" />
<path d="M81525 71714
L81525 72304
" />
<path d="M82312 71714
L81525 71714
" />
<path d="M82312 72304
L82312 71714
" />
<path d="M78918 72312
L84918 72312
" />
<path d="M78918 67611
L78918 72312
" />
<path d="M84918 67611
L78918 67611
" />
<path d="M84918 72312
L84918 67611
" />
<path d="M34057.5 36179.2 A944.882 944.882 0.0 0 0 34057.3 37675.4 " />
<path d="M35211.8 37675.4 A944.882 944.882 0.0 0 0 35211.6 36179.2 " />
<path d="M36178 72540
L36178 71556
" />
<path d="M35194 72540
L36178 72540
" />
<path d="M30548 68210
L32950 68210
" />
<path d="M30548 70532
L30548 68210
" />
<path d="M29958 70532
L30548 70532
" />
<path d="M35351 68210
L32950 68210
" />
<path d="M35351 70532
L35351 68210
" />
<path d="M35942 70532
L35351 70532
" />
<path d="M29958 72304
L31375 72304
" />
<path d="M29958 71714
L29958 72304
" />
<path d="M31375 71714
L29958 71714
" />
<path d="M31375 72304
L31375 71714
" />
<path d="M34525 72304
L35942 72304
" />
<path d="M34525 71714
L34525 72304
" />
<path d="M35942 71714
L34525 71714
" />
<path d="M35942 72304
L35942 71714
" />
<path d="M32556 72304
L33344 72304
" />
<path d="M32556 71714
L32556 72304
" />
<path d="M33344 71714
L32556 71714
" />
<path d="M33344 72304
L33344 71714
" />
<path d="M29950 72312
L35950 72312
" />
<path d="M29950 67611
L29950 72312
" />
<path d="M35950 67611
L29950 67611
" />
<path d="M35950 72312
L35950 67611
" />
</g>
<g style="fill:#000000; fill-opacity:0.0; 
stroke:#000000; stroke-width:118.11; stroke-opacity:1; 
stroke-linecap:round; stroke-linejoin:round;">
<path d="M35927 40105
L35927 36475
" />
<path d="M42541 40105
L35927 40105
" />
<path d="M42541 35845
L42541 40105
" />
<path d="M36557 35845
L42541 35845
" />
<path d="M35927 36475
L36557 35845
" />
</g>
<g style="fill:#000000; fill-opacity:0.0; 
stroke:#000000; stroke-width:94.4882; stroke-opacity:1; 
stroke-linecap:round; stroke-linejoin:round;">
<path d="M37461 32448
L38799 32448
" />
<path d="M41807 32448
L40469 32448
" />
<path d="M41807 28940
L41807 32448
" />
<path d="M37461 28940
L37461 32448
" />
<path d="M38299 28102
L38799 28102
" />
<path d="M40969 28102
L40469 28102
" />
<path d="M40969 28102
L41807 28940
" />
<path d="M38299 28102
L37461 28940
" />
<path d="M43871 20391
L39170 20391
" />
<path d="M39170 20391
L39170 26391
" />
<path d="M39170 26391
L43871 26391
" />
<path d="M43871 26391
L43871 20391
" />
<path d="M43863 22997
L43273 22997
" />
<path d="M43273 22997
L43273 23784
" />
<path d="M43273 23784
L43863 23784
" />
<path d="M43863 23784
L43863 22997
" />
<path d="M43863 20399
L43273 20399
" />
<path d="M43273 20399
L43273 21816
" />
<path d="M43273 21816
L43863 21816
" />
<path d="M43863 21816
L43863 20399
" />
<path d="M43863 24965
L43273 24965
" />
<path d="M43273 24965
L43273 26383
" />
<path d="M43273 26383
L43863 26383
" />
<path d="M43863 26383
L43863 24965
" />
<path d="M42092 20399
L42092 20989
" />
<path d="M42092 20989
L39769 20989
" />
<path d="M39769 20989
L39769 23391
" />
<path d="M42092 26383
L42092 25792
" />
<path d="M42092 25792
L39769 25792
" />
<path d="M39769 25792
L39769 23391
" />
<path d="M44099 21147
L44099 20162
" />
<path d="M44099 20162
L43115 20162
" />
<path d="M40650 49412
L40650 44711
" />
<path d="M40650 44711
L26776 44711
" />
<path d="M26776 44711
L26776 49412
" />
<path d="M26776 49412
L40650 49412
" />
<path d="M38044 49404
L38044 48814
" />
<path d="M38044 48814
L29382 48814
" />
<path d="M29382 48814
L29382 49404
" />
<path d="M29382 49404
L38044 49404
" />
<path d="M40642 49404
L40642 48814
" />
<path d="M40642 48814
L39225 48814
" />
<path d="M39225 48814
L39225 49404
" />
<path d="M39225 49404
L40642 49404
" />
<path d="M28201 49404
L28201 48814
" />
<path d="M28201 48814
L26784 48814
" />
<path d="M26784 48814
L26784 49404
" />
<path d="M26784 49404
L28201 49404
" />
<path d="M40642 47632
L40051 47632
" />
<path d="M40051 47632
L40051 46577
" />
<path d="M33713 45310
L39217 45310
" />
<path d="M26784 47632
L27374 47632
" />
<path d="M27374 47632
L27374 45310
" />
<path d="M27374 45310
L33713 45310
" />
<path d="M39894 49640
L40878 49640
" />
<path d="M40878 49640
L40878 48656
" />
</g>
<g style="fill:#000000; fill-opacity:0.0; 
stroke:#000000; stroke-width:118.11; stroke-opacity:1; 
stroke-linecap:round; stroke-linejoin:round;">
<path d="M66488 14009
L60700 14009
" />
<path d="M60700 14009
L59637 13969
" />
<path d="M59637 13969
L58732 13851
" />
<path d="M58732 13851
L57866 13694
" />
<path d="M57866 13694
L57039 13458
" />
<path d="M58495 24481
L58495 25505
" />
<path d="M66488 18025
L66488 23694
" />
<path d="M66488 15820
L66488 14009
" />
<path d="M57039 13458
L54913 13458
" />
<path d="M54913 13458
L54913 15820
" />
<path d="M54913 23694
L54913 18025
" />
<path d="M58850 24009
L59086 24009
" />
<path d="M59086 24009
L59086 23773
" />
<path d="M59086 23773
L58850 23773
" />
<path d="M58850 23773
L58850 24009
" />
<path d="M58495 24481
L56133 24481
" />
</g>
<g style="fill:#000000; fill-opacity:0.0; 
stroke:#000000; stroke-width:94.4882; stroke-opacity:1; 
stroke-linecap:round; stroke-linejoin:round;">
<path d="M28573 41150
L28573 40496
" />
<path d="M28573 43244
L28573 42000
" />
<path d="M31094 40748
L31094 40496
" />
<path d="M31094 43244
L31094 42402
" />
<path d="M26590 43244
L26590 40496
" />
<path d="M33078 43244
L33078 40496
" />
<path d="M33078 40496
L26590 40496
" />
<path d="M33078 43244
L26590 43244
" />
<path d="M77147 55222
L78447 55222
" />
<path d="M77147 41128
L77147 55222
" />
<path d="M81321 41128
L77147 41128
" />
<path d="M81321 55222
L81321 41128
" />
<path d="M80021 55222
L81321 55222
" />
<path d="M80022 55222.7 A787.402 787.402 0.0 0 0 78447.2 55222.7 " />
<path d="M46607 29917
L46607 32232
" />
<path d="M46795 29917
L46795 32232
" />
<path d="M46701 29917
L46701 32232
" />
<path d="M51079 31075
L50276 31075
" />
<path d="M45189 31075
L45992 31075
" />
<path d="M50276 29917
L45992 29917
" />
<path d="M50276 32232
L50276 29917
" />
<path d="M45992 32232
L50276 32232
" />
<path d="M45992 29917
L45992 32232
" />
<path d="M55219 29113
L55219 30294
" />
<path d="M56203 32262
L59747 32262
" />
<path d="M60731 30294
L60731 29113
" />
<path d="M59747 27144
L56203 27144
" />
<path d="M68837 15956
L68837 17137
" />
<path d="M69821 19106
L73365 19106
" />
<path d="M74349 17137
L74349 15956
" />
<path d="M73365 13988
L69821 13988
" />
<path d="M78281 39322
L77234 39322
" />
<path d="M78281 38275
L78281 39322
" />
<path d="M76234 39322
L74187 39322
" />
<path d="M76234 37275
L76234 39322
" />
<path d="M78281 37275
L76234 37275
" />
<path d="M74187 39322
L74187 33228
" />
<path d="M78281 37275
L78281 33228
" />
<path d="M78281 33228
L74187 33228
" />
<path d="M31149 33303
L31149 28571
" />
<path d="M36519 31532
L36519 28571
" />
<path d="M31149 28571
L32141 28571
" />
<path d="M36519 28571
L35527 28571
" />
<path d="M31459 20717
L32648 20717
" />
<path d="M31459 23632
L32648 23632
" />
<path d="M32648 26206
L32648 18143
" />
<path d="M31459 18143
L35114 18143
" />
<path d="M31459 26206
L35114 26206
" />
<path d="M35114 26206
L35114 18143
" />
<path d="M31459 26206
L31459 18143
" />
<path d="M40802 19464
L42715 19464
" />
<path d="M40786 19456
L40786 18669
" />
<path d="M40786 17054
L42243 17054
" />
<path d="M40786 17881
L40786 17054
" />
<path d="M43887 34988
L43887 36288
" />
<path d="M71981 34988
L43887 34988
" />
<path d="M71981 39162
L71981 34988
" />
<path d="M43887 39162
L71981 39162
" />
<path d="M43887 37862
L43887 39162
" />
<path d="M43887.3 37862.8 A787.402 787.402 0.0 0 0 43887.3 36288 " />
<path d="M71781 58062
L71781 53762
" />
<path d="M43687 58062
L71781 58062
" />
<path d="M43687 47888
L43687 58062
" />
<path d="M71781 47888
L43687 47888
" />
<path d="M71781 52188
L71781 47888
" />
<path d="M71781.8 52188 A787.402 787.402 0.0 0 0 71781.8 53762.8 " />
<path d="M59352.7 41487.2 A1988.19 1988.19 0.0 0 0 59352.7 45463.6 " />
<path d="M64273.9 45463.6 A1988.19 1988.19 0.0 0 0 64273.9 41487.2 " />
<path d="M64273 41487
L59352 41487
" />
<path d="M64273 45463
L59352 45463
" />
<path d="M36665 23593
L36665 21585
" />
<path d="M38003 23593
L38003 21585
" />
<path d="M36665 23593
L38003 23593
" />
<path d="M73447 28847
L73447 25776
" />
<path d="M75021 28847
L75021 25776
" />
<path d="M73447 28847
L75021 28847
" />
<path d="M70547 28847
L70547 25776
" />
<path d="M72121 28847
L72121 25776
" />
<path d="M70547 28847
L72121 28847
" />
<path d="M67827 28847
L67827 25776
" />
<path d="M69401 28847
L69401 25776
" />
<path d="M67827 28847
L69401 28847
" />
<path d="M34630 44134
L35038 44134
" />
<path d="M34630 43016
L35038 43016
" />
<path d="M34630 42384
L35038 42384
" />
<path d="M34630 41266
L35038 41266
" />
<path d="M50875 43471
L50875 43879
" />
<path d="M51993 43471
L51993 43879
" />
<path d="M39093 18479
L39093 18071
" />
<path d="M37975 18479
L37975 18071
" />
<path d="M67393 31579
L67393 31171
" />
<path d="M66275 31579
L66275 31171
" />
<path d="M63693 27579
L63693 27171
" />
<path d="M62575 27579
L62575 27171
" />
<path d="M69793 31579
L69793 31171
" />
<path d="M68675 31579
L68675 31171
" />
<path d="M30438 36316
L30030 36316
" />
<path d="M30438 37434
L30030 37434
" />
<path d="M62493 65579
L62493 65171
" />
<path d="M61375 65579
L61375 65171
" />
<path d="M73375 65171
L73375 65579
" />
<path d="M74493 65171
L74493 65579
" />
<path d="M34493 65539
L34493 65131
" />
<path d="M33375 65539
L33375 65131
" />
<path d="M31415 65131
L31415 65539
" />
<path d="M32533 65131
L32533 65539
" />
<path d="M38375 65171
L38375 65579
" />
<path d="M39493 65171
L39493 65579
" />
<path d="M45375 65171
L45375 65579
" />
<path d="M46493 65171
L46493 65579
" />
<path d="M52375 65171
L52375 65579
" />
<path d="M53493 65171
L53493 65579
" />
<path d="M59375 65171
L59375 65579
" />
<path d="M60493 65171
L60493 65579
" />
<path d="M66375 65171
L66375 65579
" />
<path d="M67493 65171
L67493 65579
" />
<path d="M80375 65171
L80375 65579
" />
<path d="M81493 65171
L81493 65579
" />
<path d="M41493 65579
L41493 65171
" />
<path d="M40375 65579
L40375 65171
" />
<path d="M48493 65579
L48493 65171
" />
<path d="M47375 65579
L47375 65171
" />
<path d="M55493 65579
L55493 65171
" />
<path d="M54375 65579
L54375 65171
" />
<path d="M69493 65579
L69493 65171
" />
<path d="M68375 65579
L68375 65171
" />
<path d="M76493 65579
L76493 65171
" />
<path d="M75375 65579
L75375 65171
" />
<path d="M83493 65579
L83493 65171
" />
<path d="M82375 65579
L82375 65171
" />
<path d="M32730 63534
L33138 63534
" />
<path d="M32730 62416
L33138 62416
" />
<path d="M67730 63534
L68138 63534
" />
<path d="M67730 62416
L68138 62416
" />
<path d="M60730 63534
L61138 63534
" />
<path d="M60730 62416
L61138 62416
" />
<path d="M39730 63534
L40138 63534
" />
<path d="M39730 62416
L40138 62416
" />
<path d="M46730 63534
L47138 63534
" />
<path d="M46730 62416
L47138 62416
" />
<path d="M53730 63534
L54138 63534
" />
<path d="M53730 62416
L54138 62416
" />
<path d="M74730 63534
L75138 63534
" />
<path d="M74730 62416
L75138 62416
" />
<path d="M81730 63534
L82138 63534
" />
<path d="M81730 62416
L82138 62416
" />
<path d="M39338 14916
L38930 14916
" />
<path d="M39338 16034
L38930 16034
" />
<path d="M54375 43271
L54375 43679
" />
<path d="M55493 43271
L55493 43679
" />
<path d="M73675 52971
L73675 53379
" />
<path d="M74793 52971
L74793 53379
" />
<path d="M30030 35434
L30438 35434
" />
<path d="M30030 34316
L30438 34316
" />
<path d="M68175 43071
L68175 43479
" />
<path d="M69293 43071
L69293 43479
" />
<path d="M29539 18571
L28555 18571
" />
<path d="M29539 19555
L29539 18571
" />
<path d="M25209 28138
L25209 23768
" />
<path d="M27532 28138
L25209 28138
" />
<path d="M27532 28728
L27532 28138
" />
<path d="M25209 19398
L25209 23768
" />
<path d="M27532 19398
L25209 19398
" />
<path d="M27532 18807
L27532 19398
" />
<path d="M29303 28728
L29303 27311
" />
<path d="M28713 28728
L29303 28728
" />
<path d="M28713 27311
L28713 28728
" />
<path d="M29303 27311
L28713 27311
" />
<path d="M29303 20224
L29303 18807
" />
<path d="M28713 20224
L29303 20224
" />
<path d="M28713 18807
L28713 20224
" />
<path d="M29303 18807
L28713 18807
" />
<path d="M29303 26130
L29303 21405
" />
<path d="M28713 26130
L29303 26130
" />
<path d="M28713 21405
L28713 26130
" />
<path d="M29303 21405
L28713 21405
" />
<path d="M29311 28736
L29311 18799
" />
<path d="M24610 28736
L29311 28736
" />
<path d="M24610 18799
L24610 28736
" />
<path d="M29311 18799
L24610 18799
" />
<path d="M32169 14450
L32169 14843
" />
<path d="M31972 14647
L32366 14647
" />
<path d="M32555 16816
L33393 17654
" />
<path d="M32555 14934
L33393 14095
" />
<path d="M32555 14934
L32555 15040
" />
<path d="M32555 16816
L32555 16710
" />
<path d="M33393 17654
L36114 17654
" />
<path d="M33393 14095
L36114 14095
" />
<path d="M36114 14095
L36114 15040
" />
<path d="M36114 17654
L36114 16710
" />
<path d="M81093 38279
L81093 37871
" />
<path d="M79975 38279
L79975 37871
" />
<g >
</g>
<g >
</g>
<g >
</g>
<g >
</g>
<g >
</g>
<g >
</g>
<g >
</g>
<g >
</g>
<g >
</g>
<g >
</g>
<g >
</g>
<g >
</g>
<g >
</g>
<g >
</g>
<g >
</g>
<g >
</g>
<g >
</g>
<g >
</g>
<g >
</g>
<g >
</g>
<g >
</g>
<g >
</g>
<g >
</g>
<g >
</g>
<g >
</g>
<g >
</g>
<g >
</g>
<g >
</g>
<g >
</g>
<g >
</g>
<g >
</g>
<g >
</g>
<g >
</g>
<g >
</g>
<g >
</g>
<g >
</g>
<g >
</g>
<g >
</g>
<g >
</g>
<g >
</g>
<g >
</g>
<g >
</g>
<g >
</g>
<g >
</g>
<g >
</g>
<g >
</g>
<g >
</g>
<g >
</g>
<g >
</g>
<g >
</g>
<g >
</g>
<g >
</g>
<g >
</g>
<g >
</g>
<g >
</g>
<g >
</g>
<g >
</g>
<g >
</g>
<g >
</g>
<g >
</g>
<g >
</g>
<g >
</g>
<g >
</g>
<g >
</g>
<g >
</g>
<g >
</g>
<g >
</g>
<g >
</g>
<g >
</g>
<g >
</g>
<g >
</g>
<g >
</g>
</g>
<g style="fill:#000000; fill-opacity:0.0; 
stroke:#000000; stroke-width:118.11; stroke-opacity:1; 
stroke-linecap:round; stroke-linejoin:round;">
<path d="M44775 17408
L45338 17408
L45450 17446
L45525 17521
L45563 17633
L45563 17708
" />
<path d="M45563 16621
L45563 17071
" />
<path d="M45563 16846
L44775 16846
L44888 16921
L44963 16996
L45000 17071
" />
<path d="M36734 66244
L36734 66881
L36772 66956
L36809 66994
L36884 67031
L37034 67031
L37109 66994
L37147 66956
L37184 66881
L37184 66244
" />
<path d="M37896 66506
L37896 67031
" />
<path d="M37709 66206
L37522 66769
L38009 66769
" />
<path d="M43734 66244
L43734 66881
L43772 66956
L43809 66994
L43884 67031
L44034 67031
L44109 66994
L44147 66956
L44184 66881
L44184 66244
" />
<path d="M44934 66244
L44559 66244
L44522 66619
L44559 66581
L44634 66544
L44822 66544
L44896 66581
L44934 66619
L44971 66694
L44971 66881
L44934 66956
L44896 66994
L44822 67031
L44634 67031
L44559 66994
L44522 66956
" />
<path d="M50734 66244
L50734 66881
L50772 66956
L50809 66994
L50884 67031
L51034 67031
L51109 66994
L51147 66956
L51184 66881
L51184 66244
" />
<path d="M51896 66244
L51747 66244
L51672 66281
L51634 66319
L51559 66431
L51522 66581
L51522 66881
L51559 66956
L51597 66994
L51672 67031
L51822 67031
L51896 66994
L51934 66956
L51971 66881
L51971 66694
L51934 66619
L51896 66581
L51822 66544
L51672 66544
L51597 66581
L51559 66619
L51522 66694
" />
<path d="M57734 66244
L57734 66881
L57772 66956
L57809 66994
L57884 67031
L58034 67031
L58109 66994
L58147 66956
L58184 66881
L58184 66244
" />
<path d="M58484 66244
L59009 66244
L58672 67031
" />
<path d="M64734 66244
L64734 66881
L64772 66956
L64809 66994
L64884 67031
L65034 67031
L65109 66994
L65147 66956
L65184 66881
L65184 66244
" />
<path d="M65672 66581
L65597 66544
L65559 66506
L65522 66431
L65522 66394
L65559 66319
L65597 66281
L65672 66244
L65822 66244
L65896 66281
L65934 66319
L65971 66394
L65971 66431
L65934 66506
L65896 66544
L65822 66581
L65672 66581
L65597 66619
L65559 66656
L65522 66731
L65522 66881
L65559 66956
L65597 66994
L65672 67031
L65822 67031
L65896 66994
L65934 66956
L65971 66881
L65971 66731
L65934 66656
L65896 66619
L65822 66581
" />
<path d="M71734 66244
L71734 66881
L71772 66956
L71809 66994
L71884 67031
L72034 67031
L72109 66994
L72147 66956
L72184 66881
L72184 66244
" />
<path d="M72597 67031
L72747 67031
L72822 66994
L72859 66956
L72934 66844
L72971 66694
L72971 66394
L72934 66319
L72896 66281
L72822 66244
L72672 66244
L72597 66281
L72559 66319
L72522 66394
L72522 66581
L72559 66656
L72597 66694
L72672 66731
L72822 66731
L72896 66694
L72934 66656
L72971 66581
" />
<path d="M78159 66244
L78159 66881
L78197 66956
L78234 66994
L78309 67031
L78459 67031
L78534 66994
L78572 66956
L78609 66881
L78609 66244
" />
<path d="M79397 67031
L78947 67031
" />
<path d="M79172 67031
L79172 66244
L79097 66356
L79022 66431
L78947 66469
" />
<path d="M79884 66244
L79959 66244
L80034 66281
L80071 66319
L80109 66394
L80146 66544
L80146 66731
L80109 66881
L80071 66956
L80034 66994
L79959 67031
L79884 67031
L79809 66994
L79771 66956
L79734 66881
L79696 66731
L79696 66544
L79734 66394
L79771 66319
L79809 66281
L79884 66244
" />
<path d="M32883 37302
L33258 37302
" />
<path d="M32471 37564
L32883 37302
L32471 37039
" />
<path d="M32546 36814
L32508 36777
L32471 36702
L32471 36514
L32508 36439
L32546 36402
L32621 36364
L32696 36364
L32808 36402
L33258 36852
L33258 36364
" />
<path d="M29734 66244
L29734 66881
L29772 66956
L29809 66994
L29884 67031
L30034 67031
L30109 66994
L30147 66956
L30184 66881
L30184 66244
" />
<path d="M30484 66244
L30971 66244
L30709 66544
L30822 66544
L30896 66581
L30934 66619
L30971 66694
L30971 66881
L30934 66956
L30896 66994
L30822 67031
L30597 67031
L30522 66994
L30484 66956
" />
<path d="M38259 34626
L38259 35264
L38297 35339
L38334 35376
L38409 35414
L38559 35414
L38634 35376
L38672 35339
L38709 35264
L38709 34626
" />
<path d="M39497 35414
L39047 35414
" />
<path d="M39272 35414
L39272 34626
L39197 34739
L39122 34814
L39047 34851
" />
<path d="M40209 34626
L39834 34626
L39796 35001
L39834 34964
L39909 34926
L40096 34926
L40171 34964
L40209 35001
L40246 35076
L40246 35264
L40209 35339
L40171 35376
L40096 35414
L39909 35414
L39834 35376
L39796 35339
" />
<path d="M42829 30406
L42866 30444
L42904 30556
L42904 30631
L42866 30744
L42791 30819
L42716 30856
L42566 30894
L42454 30894
L42304 30856
L42229 30819
L42154 30744
L42116 30631
L42116 30556
L42154 30444
L42191 30406
" />
<path d="M42191 30106
L42154 30069
L42116 29994
L42116 29806
L42154 29731
L42191 29694
L42266 29656
L42341 29656
L42454 29694
L42904 30144
L42904 29656
" />
<path d="M44673 24009
L44711 23897
L44748 23859
L44823 23822
L44936 23822
L45011 23859
L45048 23897
L45086 23972
L45086 24272
L44298 24272
L44298 24009
L44336 23934
L44373 23897
L44448 23859
L44523 23859
L44598 23897
L44636 23934
L44673 24009
L44673 24272
" />
<path d="M44298 23597
L44298 23147
" />
<path d="M45086 23372
L44298 23372
" />
<path d="M45086 22472
L45086 22922
" />
<path d="M45086 22697
L44298 22697
L44411 22772
L44486 22847
L44523 22922
" />
<path d="M32738 49839
L32738 50476
L32775 50551
L32813 50589
L32888 50626
L33038 50626
L33113 50589
L33150 50551
L33188 50476
L33188 49839
" />
<path d="M33975 50626
L33525 50626
" />
<path d="M33750 50626
L33750 49839
L33675 49951
L33600 50026
L33525 50064
" />
<path d="M34275 49914
L34313 49877
L34388 49839
L34575 49839
L34650 49877
L34688 49914
L34725 49989
L34725 50064
L34688 50176
L34238 50626
L34725 50626
" />
<path d="M29759 44463
L29684 44425
L29609 44350
L29497 44238
L29422 44200
L29347 44200
" />
<path d="M29384 44388
L29309 44350
L29234 44275
L29197 44125
L29197 43863
L29234 43713
L29309 43638
L29384 43600
L29534 43600
L29609 43638
L29684 43713
L29722 43863
L29722 44125
L29684 44275
L29609 44350
L29534 44388
L29384 44388
" />
<path d="M30022 43675
L30059 43638
L30134 43600
L30322 43600
L30396 43638
L30434 43675
L30471 43750
L30471 43825
L30434 43938
L29984 44388
L30471 44388
" />
<path d="M83303 54350
L83940 54350
L84015 54312
L84053 54275
L84090 54200
L84090 54050
L84053 53975
L84015 53937
L83940 53900
L83303 53900
" />
<path d="M84090 53112
L84090 53562
" />
<path d="M84090 53337
L83303 53337
L83415 53412
L83490 53487
L83528 53562
" />
<path d="M83303 52850
L83303 52363
L83603 52625
L83603 52513
L83640 52438
L83678 52400
L83753 52363
L83940 52363
L84015 52400
L84053 52438
L84090 52513
L84090 52738
L84053 52813
L84015 52850
" />
<path d="M47553 29534
L47553 28746
L47740 28746
L47853 28784
L47928 28859
L47965 28934
L48003 29084
L48003 29196
L47965 29346
L47928 29421
L47853 29496
L47740 29534
L47553 29534
" />
<path d="M48753 29534
L48303 29534
" />
<path d="M48528 29534
L48528 28746
L48453 28859
L48378 28934
L48303 28971
" />
<path d="M43928 29778
L43928 28990
" />
<path d="M44378 29778
L44040 29328
" />
<path d="M44378 28990
L43928 29440
" />
<path d="M56925 33368
L57038 33406
L57225 33406
L57300 33368
L57338 33331
L57375 33256
L57375 33181
L57338 33106
L57300 33068
L57225 33031
L57075 32993
L57000 32956
L56963 32919
L56925 32844
L56925 32769
L56963 32694
L57000 32656
L57075 32619
L57263 32619
L57375 32656
" />
<path d="M57638 32619
L57825 33406
L57975 32844
L58125 33406
L58312 32619
" />
<path d="M58575 32694
L58612 32656
L58687 32619
L58875 32619
L58950 32656
L58987 32694
L59025 32769
L59025 32844
L58987 32956
L58537 33406
L59025 33406
" />
<path d="M70543 20212
L70656 20249
L70843 20249
L70918 20212
L70956 20174
L70993 20099
L70993 20024
L70956 19949
L70918 19912
L70843 19874
L70693 19837
L70618 19799
L70581 19762
L70543 19687
L70543 19612
L70581 19537
L70618 19499
L70693 19462
L70881 19462
L70993 19499
" />
<path d="M71256 19462
L71443 20249
L71593 19687
L71743 20249
L71931 19462
" />
<path d="M72643 20249
L72193 20249
" />
<path d="M72418 20249
L72418 19462
L72343 19574
L72268 19649
L72193 19687
" />
<path d="M75653 40466
L75653 39678
L75953 39678
L76028 39716
L76065 39753
L76103 39828
L76103 39941
L76065 40016
L76028 40053
L75953 40091
L75653 40091
" />
<path d="M76853 40466
L76403 40466
" />
<path d="M76628 40466
L76628 39678
L76553 39791
L76478 39866
L76403 39903
" />
<path d="M29860 30675
L30497 30675
L30572 30637
L30609 30600
L30647 30525
L30647 30375
L30609 30300
L30572 30262
L30497 30225
L29860 30225
" />
<path d="M30647 29438
L30647 29887
" />
<path d="M30647 29662
L29860 29662
L29972 29737
L30047 29812
L30085 29887
" />
<path d="M30241 22775
L30878 22775
L30953 22737
L30991 22700
L31028 22625
L31028 22475
L30991 22400
L30953 22362
L30878 22325
L30241 22325
" />
<path d="M30316 21987
L30278 21950
L30241 21875
L30241 21687
L30278 21613
L30316 21575
L30391 21538
L30466 21538
L30578 21575
L31028 22025
L31028 21538
" />
<path d="M41659 16806
L41584 16769
L41509 16694
L41397 16581
L41322 16544
L41247 16544
" />
<path d="M41284 16731
L41209 16694
L41134 16619
L41097 16469
L41097 16206
L41134 16056
L41209 15981
L41284 15944
L41434 15944
L41509 15981
L41584 16056
L41622 16206
L41622 16469
L41584 16619
L41509 16694
L41434 16731
L41284 16731
" />
<path d="M42371 16731
L41922 16731
" />
<path d="M42147 16731
L42147 15944
L42072 16056
L41997 16131
L41922 16169
" />
<path d="M42621 38050
L43258 38050
L43333 38012
L43371 37975
L43408 37900
L43408 37750
L43371 37675
L43333 37637
L43258 37600
L42621 37600
" />
<path d="M43408 36812
L43408 37262
" />
<path d="M43408 37037
L42621 37037
L42733 37112
L42808 37187
L42846 37262
" />
<path d="M42883 36138
L43408 36138
" />
<path d="M42583 36325
L43146 36513
L43146 36025
" />
<path d="M72138 53950
L72775 53950
L72850 53912
L72887 53875
L72925 53800
L72925 53650
L72887 53575
L72850 53537
L72775 53500
L72138 53500
" />
<path d="M72925 52712
L72925 53162
" />
<path d="M72925 52937
L72138 52937
L72250 53012
L72325 53087
L72362 53162
" />
<path d="M72925 51963
L72925 52413
" />
<path d="M72925 52188
L72138 52188
L72250 52263
L72325 52338
L72362 52413
" />
<path d="M61438 46232
L61438 46607
" />
<path d="M61175 45819
L61438 46232
L61700 45819
" />
<path d="M62375 46607
L61925 46607
" />
<path d="M62150 46607
L62150 45819
L62075 45932
L62000 46007
L61925 46044
" />
<path d="M36234 22993
L35446 22993
L35446 22806
L35484 22693
L35559 22618
L35634 22581
L35784 22543
L35896 22543
L36046 22581
L36121 22618
L36196 22693
L36234 22806
L36234 22993
" />
<path d="M35521 22243
L35484 22206
L35446 22131
L35446 21943
L35484 21868
L35521 21831
L35596 21793
L35671 21793
L35784 21831
L36234 22281
L36234 21793
" />
<path d="M73015 27656
L72228 27656
L72228 27469
L72266 27356
L72341 27281
L72416 27244
L72566 27206
L72678 27206
L72828 27244
L72903 27281
L72978 27356
L73015 27469
L73015 27656
" />
<path d="M72491 26531
L73015 26531
" />
<path d="M72191 26719
L72753 26906
L72753 26419
" />
<path d="M70115 27656
L69328 27656
L69328 27469
L69366 27356
L69441 27281
L69516 27244
L69666 27206
L69778 27206
L69928 27244
L70003 27281
L70078 27356
L70115 27469
L70115 27656
" />
<path d="M69328 26944
L69328 26456
L69628 26719
L69628 26606
L69666 26531
L69703 26494
L69778 26456
L69965 26456
L70040 26494
L70078 26531
L70115 26606
L70115 26831
L70078 26906
L70040 26944
" />
<path d="M67395 27656
L66608 27656
L66608 27469
L66646 27356
L66721 27281
L66796 27244
L66946 27206
L67058 27206
L67208 27244
L67283 27281
L67358 27356
L67395 27469
L67395 27656
" />
<path d="M66608 26494
L66608 26869
L66983 26906
L66946 26869
L66908 26794
L66908 26606
L66946 26531
L66983 26494
L67058 26456
L67245 26456
L67320 26494
L67358 26531
L67395 26606
L67395 26794
L67358 26869
L67320 26906
" />
<path d="M34703 42632
L34440 42257
" />
<path d="M34253 42632
L34253 41845
L34553 41845
L34628 41882
L34665 41920
L34703 41995
L34703 42107
L34665 42182
L34628 42219
L34553 42257
L34253 42257
" />
<path d="M34965 41845
L35490 41845
L35153 42632
" />
<path d="M34703 40882
L34440 40507
" />
<path d="M34253 40882
L34253 40095
L34553 40095
L34628 40132
L34665 40170
L34703 40245
L34703 40357
L34665 40432
L34628 40469
L34553 40507
L34253 40507
" />
<path d="M35378 40095
L35228 40095
L35153 40132
L35115 40170
L35040 40282
L35003 40432
L35003 40732
L35040 40807
L35078 40844
L35153 40882
L35303 40882
L35378 40844
L35415 40807
L35453 40732
L35453 40544
L35415 40469
L35378 40432
L35303 40394
L35153 40394
L35078 40432
L35040 40469
L35003 40544
" />
<path d="M53089 43806
L52715 44069
" />
<path d="M53089 44256
L52302 44256
L52302 43956
L52340 43881
L52377 43844
L52452 43806
L52565 43806
L52640 43844
L52677 43881
L52715 43956
L52715 44256
" />
<path d="M52640 43356
L52602 43431
L52565 43469
L52490 43506
L52452 43506
L52377 43469
L52340 43431
L52302 43356
L52302 43206
L52340 43131
L52377 43094
L52452 43056
L52490 43056
L52565 43094
L52602 43131
L52640 43206
L52640 43356
L52677 43431
L52715 43469
L52790 43506
L52940 43506
L53014 43469
L53052 43431
L53089 43356
L53089 43206
L53052 43131
L53014 43094
L52940 43056
L52790 43056
L52715 43094
L52677 43131
L52640 43206
" />
<path d="M37591 18406
L37216 18669
" />
<path d="M37591 18856
L36804 18856
L36804 18556
L36841 18481
L36879 18444
L36954 18406
L37066 18406
L37141 18444
L37179 18481
L37216 18556
L37216 18856
" />
<path d="M37591 17656
L37591 18106
" />
<path d="M37591 17881
L36804 17881
L36916 17956
L36991 18031
L37029 18106
" />
<path d="M65891 31506
L65516 31769
" />
<path d="M65891 31956
L65104 31956
L65104 31656
L65141 31581
L65179 31544
L65254 31506
L65366 31506
L65441 31544
L65479 31581
L65516 31656
L65516 31956
" />
<path d="M65366 30831
L65891 30831
" />
<path d="M65066 31019
L65629 31206
L65629 30719
" />
<path d="M62191 27506
L61816 27769
" />
<path d="M62191 27956
L61404 27956
L61404 27656
L61441 27581
L61479 27544
L61554 27506
L61666 27506
L61741 27544
L61779 27581
L61816 27656
L61816 27956
" />
<path d="M61404 26794
L61404 27169
L61779 27206
L61741 27169
L61704 27094
L61704 26906
L61741 26831
L61779 26794
L61854 26756
L62041 26756
L62116 26794
L62154 26831
L62191 26906
L62191 27094
L62154 27169
L62116 27206
" />
<path d="M68291 31506
L67916 31769
" />
<path d="M68291 31956
L67504 31956
L67504 31656
L67541 31581
L67579 31544
L67654 31506
L67766 31506
L67841 31544
L67879 31581
L67916 31656
L67916 31956
" />
<path d="M67504 31244
L67504 30756
L67804 31019
L67804 30906
L67841 30831
L67879 30794
L67954 30756
L68141 30756
L68216 30794
L68254 30831
L68291 30906
L68291 31131
L68254 31206
L68216 31244
" />
<path d="M30103 38530
L29840 38155
" />
<path d="M29653 38530
L29653 37743
L29953 37743
L30028 37780
L30065 37818
L30103 37893
L30103 38005
L30065 38080
L30028 38118
L29953 38155
L29653 38155
" />
<path d="M30403 37818
L30440 37780
L30515 37743
L30703 37743
L30778 37780
L30815 37818
L30853 37893
L30853 37968
L30815 38080
L30365 38530
L30853 38530
" />
<path d="M63890 65881
L63890 66256
L63103 66256
" />
<path d="M63890 65206
L63890 65656
" />
<path d="M63890 65431
L63103 65431
L63215 65506
L63290 65581
L63328 65656
" />
<path d="M63103 64944
L63103 64456
L63403 64719
L63403 64606
L63440 64531
L63478 64494
L63553 64456
L63740 64456
L63815 64494
L63853 64531
L63890 64606
L63890 64831
L63853 64906
L63815 64944
" />
<path d="M72890 65506
L72890 65881
L72103 65881
" />
<path d="M72103 65319
L72103 64794
L72890 65131
" />
<path d="M35890 65406
L35890 65781
L35103 65781
" />
<path d="M35890 65106
L35890 64956
L35853 64881
L35815 64844
L35703 64769
L35553 64731
L35253 64731
L35178 64769
L35140 64806
L35103 64881
L35103 65031
L35140 65106
L35178 65144
L35253 65181
L35440 65181
L35515 65144
L35553 65106
L35590 65031
L35590 64881
L35553 64806
L35515 64769
L35440 64731
" />
<path d="M30690 65466
L30690 65841
L29903 65841
" />
<path d="M30690 64791
L30690 65241
" />
<path d="M30690 65016
L29903 65016
L30015 65091
L30090 65166
L30128 65241
" />
<path d="M37790 65506
L37790 65881
L37003 65881
" />
<path d="M37078 65281
L37040 65244
L37003 65169
L37003 64981
L37040 64906
L37078 64869
L37153 64831
L37228 64831
L37340 64869
L37790 65319
L37790 64831
" />
<path d="M44790 65506
L44790 65881
L44003 65881
" />
<path d="M44003 65319
L44003 64831
L44303 65094
L44303 64981
L44340 64906
L44378 64869
L44453 64831
L44640 64831
L44715 64869
L44753 64906
L44790 64981
L44790 65206
L44753 65281
L44715 65319
" />
<path d="M51890 65506
L51890 65881
L51103 65881
" />
<path d="M51365 64906
L51890 64906
" />
<path d="M51065 65094
L51628 65281
L51628 64794
" />
<path d="M58890 65506
L58890 65881
L58103 65881
" />
<path d="M58103 64869
L58103 65244
L58478 65281
L58440 65244
L58403 65169
L58403 64981
L58440 64906
L58478 64869
L58553 64831
L58740 64831
L58815 64869
L58853 64906
L58890 64981
L58890 65169
L58853 65244
L58815 65281
" />
<path d="M65890 65506
L65890 65881
L65103 65881
" />
<path d="M65103 64906
L65103 65056
L65140 65131
L65178 65169
L65290 65244
L65440 65281
L65740 65281
L65815 65244
L65853 65206
L65890 65131
L65890 64981
L65853 64906
L65815 64869
L65740 64831
L65553 64831
L65478 64869
L65440 64906
L65403 64981
L65403 65131
L65440 65206
L65478 65244
L65553 65281
" />
<path d="M79890 65506
L79890 65881
L79103 65881
" />
<path d="M79440 65131
L79403 65206
L79365 65244
L79290 65281
L79253 65281
L79178 65244
L79140 65206
L79103 65131
L79103 64981
L79140 64906
L79178 64869
L79253 64831
L79290 64831
L79365 64869
L79403 64906
L79440 64981
L79440 65131
L79478 65206
L79515 65244
L79590 65281
L79740 65281
L79815 65244
L79853 65206
L79890 65131
L79890 64981
L79853 64906
L79815 64869
L79740 64831
L79590 64831
L79515 64869
L79478 64906
L79440 64981
" />
<path d="M42890 65881
L42890 66256
L42103 66256
" />
<path d="M42890 65206
L42890 65656
" />
<path d="M42890 65431
L42103 65431
L42215 65506
L42290 65581
L42328 65656
" />
<path d="M42103 64719
L42103 64644
L42140 64569
L42178 64531
L42253 64494
L42403 64456
L42590 64456
L42740 64494
L42815 64531
L42853 64569
L42890 64644
L42890 64719
L42853 64794
L42815 64831
L42740 64869
L42590 64906
L42403 64906
L42253 64869
L42178 64831
L42140 64794
L42103 64719
" />
<path d="M49790 65881
L49790 66256
L49003 66256
" />
<path d="M49790 65206
L49790 65656
" />
<path d="M49790 65431
L49003 65431
L49115 65506
L49190 65581
L49228 65656
" />
<path d="M49790 64456
L49790 64906
" />
<path d="M49790 64681
L49003 64681
L49115 64756
L49190 64831
L49228 64906
" />
<path d="M56890 65881
L56890 66256
L56103 66256
" />
<path d="M56890 65206
L56890 65656
" />
<path d="M56890 65431
L56103 65431
L56215 65506
L56290 65581
L56328 65656
" />
<path d="M56178 64906
L56140 64869
L56103 64794
L56103 64606
L56140 64531
L56178 64494
L56253 64456
L56328 64456
L56440 64494
L56890 64944
L56890 64456
" />
<path d="M70790 65881
L70790 66256
L70003 66256
" />
<path d="M70790 65206
L70790 65656
" />
<path d="M70790 65431
L70003 65431
L70115 65506
L70190 65581
L70228 65656
" />
<path d="M70265 64531
L70790 64531
" />
<path d="M69965 64719
L70528 64906
L70528 64419
" />
<path d="M77790 65881
L77790 66256
L77003 66256
" />
<path d="M77790 65206
L77790 65656
" />
<path d="M77790 65431
L77003 65431
L77115 65506
L77190 65581
L77228 65656
" />
<path d="M77003 64494
L77003 64869
L77378 64906
L77340 64869
L77303 64794
L77303 64606
L77340 64531
L77378 64494
L77453 64456
L77640 64456
L77715 64494
L77753 64531
L77790 64606
L77790 64794
L77753 64869
L77715 64906
" />
<path d="M84890 65881
L84890 66256
L84103 66256
" />
<path d="M84890 65206
L84890 65656
" />
<path d="M84890 65431
L84103 65431
L84215 65506
L84290 65581
L84328 65656
" />
<path d="M84103 64531
L84103 64681
L84140 64756
L84178 64794
L84290 64869
L84440 64906
L84740 64906
L84815 64869
L84853 64831
L84890 64756
L84890 64606
L84853 64531
L84815 64494
L84740 64456
L84553 64456
L84478 64494
L84440 64531
L84403 64606
L84403 64756
L84440 64831
L84478 64869
L84553 64906
" />
<path d="M32803 61957
L32765 61994
L32653 62032
L32578 62032
L32465 61994
L32390 61919
L32353 61844
L32315 61694
L32315 61582
L32353 61432
L32390 61357
L32465 61282
L32578 61245
L32653 61245
L32765 61282
L32803 61320
" />
<path d="M33515 61245
L33140 61245
L33103 61619
L33140 61582
L33215 61544
L33403 61544
L33478 61582
L33515 61619
L33553 61694
L33553 61882
L33515 61957
L33478 61994
L33403 62032
L33215 62032
L33140 61994
L33103 61957
" />
<path d="M67428 61957
L67390 61994
L67278 62032
L67203 62032
L67090 61994
L67015 61919
L66978 61844
L66940 61694
L66940 61582
L66978 61432
L67015 61357
L67090 61282
L67203 61245
L67278 61245
L67390 61282
L67428 61320
" />
<path d="M68178 62032
L67728 62032
" />
<path d="M67953 62032
L67953 61245
L67878 61357
L67803 61432
L67728 61469
" />
<path d="M68665 61245
L68740 61245
L68815 61282
L68853 61320
L68890 61395
L68928 61544
L68928 61732
L68890 61882
L68853 61957
L68815 61994
L68740 62032
L68665 62032
L68590 61994
L68553 61957
L68515 61882
L68478 61732
L68478 61544
L68515 61395
L68553 61320
L68590 61282
L68665 61245
" />
<path d="M60803 61957
L60765 61994
L60653 62032
L60578 62032
L60465 61994
L60390 61919
L60353 61844
L60315 61694
L60315 61582
L60353 61432
L60390 61357
L60465 61282
L60578 61245
L60653 61245
L60765 61282
L60803 61320
" />
<path d="M61178 62032
L61328 62032
L61403 61994
L61440 61957
L61515 61844
L61553 61694
L61553 61395
L61515 61320
L61478 61282
L61403 61245
L61253 61245
L61178 61282
L61140 61320
L61103 61395
L61103 61582
L61140 61657
L61178 61694
L61253 61732
L61403 61732
L61478 61694
L61515 61657
L61553 61582
" />
<path d="M39803 61957
L39765 61994
L39653 62032
L39578 62032
L39465 61994
L39390 61919
L39353 61844
L39315 61694
L39315 61582
L39353 61432
L39390 61357
L39465 61282
L39578 61245
L39653 61245
L39765 61282
L39803 61320
" />
<path d="M40478 61245
L40328 61245
L40253 61282
L40215 61320
L40140 61432
L40103 61582
L40103 61882
L40140 61957
L40178 61994
L40253 62032
L40403 62032
L40478 61994
L40515 61957
L40553 61882
L40553 61694
L40515 61619
L40478 61582
L40403 61544
L40253 61544
L40178 61582
L40140 61619
L40103 61694
" />
<path d="M46803 61957
L46765 61994
L46653 62032
L46578 62032
L46465 61994
L46390 61919
L46353 61844
L46315 61694
L46315 61582
L46353 61432
L46390 61357
L46465 61282
L46578 61245
L46653 61245
L46765 61282
L46803 61320
" />
<path d="M47065 61245
L47590 61245
L47253 62032
" />
<path d="M53803 61957
L53765 61994
L53653 62032
L53578 62032
L53465 61994
L53390 61919
L53353 61844
L53315 61694
L53315 61582
L53353 61432
L53390 61357
L53465 61282
L53578 61245
L53653 61245
L53765 61282
L53803 61320
" />
<path d="M54253 61582
L54178 61544
L54140 61507
L54103 61432
L54103 61395
L54140 61320
L54178 61282
L54253 61245
L54403 61245
L54478 61282
L54515 61320
L54553 61395
L54553 61432
L54515 61507
L54478 61544
L54403 61582
L54253 61582
L54178 61619
L54140 61657
L54103 61732
L54103 61882
L54140 61957
L54178 61994
L54253 62032
L54403 62032
L54478 61994
L54515 61957
L54553 61882
L54553 61732
L54515 61657
L54478 61619
L54403 61582
" />
<path d="M74428 61957
L74390 61994
L74278 62032
L74203 62032
L74090 61994
L74015 61919
L73978 61844
L73940 61694
L73940 61582
L73978 61432
L74015 61357
L74090 61282
L74203 61245
L74278 61245
L74390 61282
L74428 61320
" />
<path d="M75178 62032
L74728 62032
" />
<path d="M74953 62032
L74953 61245
L74878 61357
L74803 61432
L74728 61469
" />
<path d="M75928 62032
L75478 62032
" />
<path d="M75703 62032
L75703 61245
L75628 61357
L75553 61432
L75478 61469
" />
<path d="M81428 61957
L81390 61994
L81278 62032
L81203 62032
L81090 61994
L81015 61919
L80978 61844
L80940 61694
L80940 61582
L80978 61432
L81015 61357
L81090 61282
L81203 61245
L81278 61245
L81390 61282
L81428 61320
" />
<path d="M82178 62032
L81728 62032
" />
<path d="M81953 62032
L81953 61245
L81878 61357
L81803 61432
L81728 61469
" />
<path d="M82478 61320
L82515 61282
L82590 61245
L82778 61245
L82853 61282
L82890 61320
L82928 61395
L82928 61469
L82890 61582
L82440 62032
L82928 62032
" />
<path d="M39003 17055
L38965 17093
L38853 17130
L38778 17130
L38665 17093
L38590 17018
L38553 16943
L38515 16793
L38515 16680
L38553 16530
L38590 16455
L38665 16380
L38778 16343
L38853 16343
L38965 16380
L39003 16418
" />
<path d="M39265 16343
L39753 16343
L39490 16643
L39603 16643
L39678 16680
L39715 16718
L39753 16793
L39753 16980
L39715 17055
L39678 17093
L39603 17130
L39378 17130
L39303 17093
L39265 17055
" />
<path d="M56514 43981
L56552 44019
L56589 44131
L56589 44206
L56552 44319
L56477 44394
L56402 44431
L56252 44469
L56140 44469
L55990 44431
L55915 44394
L55840 44319
L55802 44206
L55802 44131
L55840 44019
L55877 43981
" />
<path d="M56589 43231
L56589 43681
" />
<path d="M56589 43456
L55802 43456
L55915 43531
L55990 43606
L56027 43681
" />
<path d="M55802 42519
L55802 42894
L56177 42931
L56140 42894
L56102 42819
L56102 42631
L56140 42556
L56177 42519
L56252 42481
L56440 42481
L56514 42519
L56552 42556
L56589 42631
L56589 42819
L56552 42894
L56514 42931
" />
<path d="M75814 53681
L75852 53719
L75889 53831
L75889 53906
L75852 54019
L75777 54094
L75702 54131
L75552 54169
L75440 54169
L75290 54131
L75215 54094
L75140 54019
L75102 53906
L75102 53831
L75140 53719
L75177 53681
" />
<path d="M75889 52931
L75889 53381
" />
<path d="M75889 53156
L75102 53156
L75215 53231
L75290 53306
L75327 53381
" />
<path d="M75102 52669
L75102 52181
L75402 52444
L75402 52331
L75440 52256
L75477 52219
L75552 52181
L75740 52181
L75814 52219
L75852 52256
L75889 52331
L75889 52556
L75852 52631
L75814 52669
" />
<path d="M30103 33857
L30065 33894
L29953 33932
L29878 33932
L29765 33894
L29690 33819
L29653 33744
L29615 33594
L29615 33482
L29653 33332
L29690 33257
L29765 33182
L29878 33145
L29953 33145
L30065 33182
L30103 33220
" />
<path d="M30853 33932
L30403 33932
" />
<path d="M30628 33932
L30628 33145
L30553 33257
L30478 33332
L30403 33369
" />
<path d="M70314 43781
L70352 43819
L70389 43931
L70389 44006
L70352 44119
L70277 44194
L70202 44231
L70052 44269
L69940 44269
L69790 44231
L69715 44194
L69640 44119
L69602 44006
L69602 43931
L69640 43819
L69677 43781
" />
<path d="M70389 43031
L70389 43481
" />
<path d="M70389 43256
L69602 43256
L69715 43331
L69790 43406
L69827 43481
" />
<path d="M69865 42356
L70389 42356
" />
<path d="M69565 42544
L70127 42731
L70127 42244
" />
<path d="M30526 24349
L29738 24349
L29738 24049
L29776 23974
L29813 23936
L29888 23899
L30001 23899
L30076 23936
L30113 23974
L30151 24049
L30151 24349
" />
<path d="M29813 23599
L29776 23561
L29738 23486
L29738 23299
L29776 23224
L29813 23187
L29888 23149
L29963 23149
L30076 23187
L30526 23636
L30526 23149
" />
<path d="M31003 17756
L30965 17794
L30853 17831
L30778 17831
L30665 17794
L30590 17719
L30553 17644
L30515 17494
L30515 17381
L30553 17231
L30590 17156
L30665 17081
L30778 17044
L30853 17044
L30965 17081
L31003 17119
" />
<path d="M31678 17306
L31678 17831
" />
<path d="M31490 17006
L31303 17569
L31790 17569
" />
<path d="M79591 38206
L79216 38469
" />
<path d="M79591 38656
L78804 38656
L78804 38356
L78841 38281
L78879 38244
L78954 38206
L79066 38206
L79141 38244
L79179 38281
L79216 38356
L79216 38656
" />
<path d="M79591 37831
L79591 37681
L79554 37606
L79516 37569
L79404 37494
L79254 37456
L78954 37456
L78879 37494
L78841 37531
L78804 37606
L78804 37756
L78841 37831
L78879 37869
L78954 37906
L79141 37906
L79216 37869
L79254 37831
L79291 37756
L79291 37606
L79254 37531
L79216 37494
L79141 37456
" />
<g >
</g>
</g> 
</svg>
