<?xml version="1.0" standalone="no"?>
 <!DOCTYPE svg PUBLIC "-//W3C//DTD SVG 1.1//EN" 
 "http://www.w3.org/Graphics/SVG/1.1/DTD/svg11.dtd"> 
<svg xmlns="http://www.w3.org/2000/svg" version="1.1" 
    width="29.7002cm" height="21.0007cm" viewBox="0 0 116930 82680 ">
<title>SVG Picture created as ThermocoupleLogger-F_CrtYd.svg date 2019/03/28 11:02:09 </title>
  <desc>Picture generated by PCBNEW </desc>
<g style="fill:#000000; fill-opacity:1;stroke:#000000; stroke-opacity:1;
stroke-linecap:round; stroke-linejoin:round; "
 transform="translate(0 0) scale(1 1)">
</g>
<g style="fill:#000000; fill-opacity:0.0; 
stroke:#000000; stroke-width:-0.000787402; stroke-opacity:1; 
stroke-linecap:round; stroke-linejoin:round;">
</g>
<g style="fill:#000000; fill-opacity:0.0; 
stroke:#000000; stroke-width:78.7402; stroke-opacity:1; 
stroke-linecap:round; stroke-linejoin:round;">
<path d="M93734 12875
L93734 73375
" />
<path d="M23734 68993
L23734 68993
" />
<path d="M23734 12875
L93734 12875
" />
<path d="M23734 73375
L93734 73375
" />
<path d="M23734 12875
L23734 73375
" />
<path d="M23734 13875
L23734 13875
" />
</g>
<g style="fill:#000000; fill-opacity:0.0; 
stroke:#000000; stroke-width:39.3701; stroke-opacity:1; 
stroke-linecap:round; stroke-linejoin:round;">
<path d="M53277 24587
L53474 24587
" />
<path d="M53474 24587
L53474 12776
" />
<path d="M53277 24587
L51309 24587
" />
<path d="M51309 24587
L51309 25374
" />
<path d="M51309 25374
L48159 25374
" />
<path d="M48159 25374
L48159 24587
" />
<path d="M48159 24587
L45994 24587
" />
<path d="M45994 24587
L45994 23012
" />
<path d="M45994 23012
L44419 23012
" />
<path d="M44419 23012
L44419 19862
" />
<path d="M44419 19862
L45994 19862
" />
<path d="M45994 19862
L45994 12776
" />
<path d="M45994 12776
L53474 12776
" />
<path d="M36643 72619
L43257 72619
" />
<path d="M36643 67304
L36643 72619
" />
<path d="M43257 67304
L36643 67304
" />
<path d="M43257 72619
L43257 67304
" />
<path d="M43643 72619
L50257 72619
" />
<path d="M43643 67304
L43643 72619
" />
<path d="M50257 67304
L43643 67304
" />
<path d="M50257 72619
L50257 67304
" />
<path d="M50643 72619
L57257 72619
" />
<path d="M50643 67304
L50643 72619
" />
<path d="M57257 67304
L50643 67304
" />
<path d="M57257 72619
L57257 67304
" />
<path d="M57643 72619
L64257 72619
" />
<path d="M57643 67304
L57643 72619
" />
<path d="M64257 67304
L57643 67304
" />
<path d="M64257 72619
L64257 67304
" />
<path d="M64611 72619
L71225 72619
" />
<path d="M64611 67304
L64611 72619
" />
<path d="M71225 67304
L64611 67304
" />
<path d="M71225 72619
L71225 67304
" />
<path d="M71611 72619
L78225 72619
" />
<path d="M71611 67304
L71611 72619
" />
<path d="M78225 67304
L71611 67304
" />
<path d="M78225 72619
L78225 67304
" />
<path d="M78611 72619
L85225 72619
" />
<path d="M78611 67304
L78611 72619
" />
<path d="M85225 67304
L78611 67304
" />
<path d="M85225 72619
L85225 67304
" />
<circle cx="34634.6" cy="36927.4" r="1338.58" /> 
<path d="M29643 72619
L36257 72619
" />
<path d="M29643 67304
L29643 72619
" />
<path d="M36257 67304
L29643 67304
" />
<path d="M36257 72619
L36257 67304
" />
<path d="M35809 35731
L42659 35731
" />
<path d="M35809 40219
L35809 35731
" />
<path d="M42659 40219
L35809 40219
" />
<path d="M42659 35731
L42659 40219
" />
<path d="M41918 32558
L40461 32558
" />
<path d="M40461 32558
L40461 33188
" />
<path d="M40461 33188
L38807 33188
" />
<path d="M38807 33188
L38807 32558
" />
<path d="M38807 32558
L37351 32558
" />
<path d="M37351 28897
L37351 32558
" />
<path d="M41918 28897
L41918 32558
" />
<path d="M38256 27991
L37351 28897
" />
<path d="M41012 27991
L41918 28897
" />
<path d="M41012 27991
L40461 27991
" />
<path d="M38807 27991
L38256 27991
" />
<path d="M40461 27991
L40461 27362
" />
<path d="M40461 27362
L38807 27362
" />
<path d="M38807 27362
L38807 27991
" />
<path d="M44178 20084
L38863 20084
" />
<path d="M38863 20084
L38863 26698
" />
<path d="M38863 26698
L44178 26698
" />
<path d="M44178 26698
L44178 20084
" />
<path d="M40957 49719
L40957 44404
" />
<path d="M40957 44404
L26469 44404
" />
<path d="M26469 44404
L26469 49719
" />
<path d="M26469 49719
L40957 49719
" />
<path d="M66803 13064
L66803 15820
" />
<path d="M66803 15820
L67590 15820
" />
<path d="M67590 15820
L67590 17985
" />
<path d="M67590 17985
L66803 17985
" />
<path d="M66803 17985
L66803 23694
" />
<path d="M66803 23694
L67590 23694
" />
<path d="M67590 23694
L67590 25269
" />
<path d="M67590 25269
L66409 25269
" />
<path d="M66409 25269
L66409 25662
" />
<path d="M66409 25662
L58535 25662
" />
<path d="M58535 25662
L58535 24678
" />
<path d="M58535 24678
L56173 24678
" />
<path d="M56173 24678
L56173 25269
" />
<path d="M56173 25269
L54401 25269
" />
<path d="M54401 25269
L54401 23694
" />
<path d="M54401 23694
L54598 23694
" />
<path d="M54598 23694
L54598 17985
" />
<path d="M54598 17985
L53810 17985
" />
<path d="M53810 17985
L53810 15820
" />
<path d="M53810 15820
L54598 15820
" />
<path d="M54598 15820
L54598 13064
" />
<path d="M26488 43347
L33181 43347
" />
<path d="M26488 40394
L26488 43347
" />
<path d="M33181 40394
L26488 40394
" />
<path d="M33181 43347
L33181 40394
" />
<path d="M75384 55395
L83100 55395
" />
<path d="M75384 40947
L75384 55395
" />
<path d="M83100 40947
L75384 40947
" />
<path d="M83100 55395
L83100 40947
" />
<path d="M53197 29815
L43071 29815
" />
<path d="M53197 32335
L53197 29815
" />
<path d="M43071 32335
L53197 32335
" />
<path d="M43071 29815
L43071 32335
" />
<path d="M54235 32459
L54235 26947
" />
<path d="M54432 26751
L61518 26751
" />
<path d="M61715 26947
L61715 32459
" />
<path d="M61518 32656
L54432 32656
" />
<path d="M61715 26751
L61518 26751
" />
<path d="M61715 26947
L61715 26751
" />
<path d="M61715 32656
L61518 32656
" />
<path d="M61715 32459
L61715 32656
" />
<path d="M54235 32656
L54235 32459
" />
<path d="M54432 32656
L54235 32656
" />
<path d="M54235 26751
L54235 26947
" />
<path d="M54432 26751
L54235 26751
" />
<path d="M67853 19302
L67853 13791
" />
<path d="M68050 13594
L75136 13594
" />
<path d="M75333 13791
L75333 19302
" />
<path d="M75136 19499
L68050 19499
" />
<path d="M75333 13594
L75136 13594
" />
<path d="M75333 13791
L75333 13594
" />
<path d="M75333 19499
L75136 19499
" />
<path d="M75333 19302
L75333 19499
" />
<path d="M67853 19499
L67853 19302
" />
<path d="M68050 19499
L67853 19499
" />
<path d="M67853 13594
L67853 13791
" />
<path d="M68050 13594
L67853 13594
" />
<path d="M73809 39692
L78651 39692
" />
<path d="M73809 32881
L73809 39692
" />
<path d="M78651 32881
L73809 32881
" />
<path d="M78651 39692
L78651 32881
" />
<path d="M30999 33540
L36669 33540
" />
<path d="M36669 33540
L36669 26610
" />
<path d="M36669 26610
L30999 26610
" />
<path d="M30999 26610
L30999 33540
" />
<path d="M31357 18041
L31357 26309
" />
<path d="M35223 18041
L31357 18041
" />
<path d="M35223 26309
L35223 18041
" />
<path d="M31357 26309
L35223 26309
" />
<path d="M39825 16936
L43243 16936
" />
<path d="M39825 16936
L39825 19614
" />
<path d="M43243 19614
L43243 16936
" />
<path d="M43243 19614
L39825 19614
" />
<path d="M43714 33225
L43714 40941
" />
<path d="M72139 33225
L43714 33225
" />
<path d="M72139 40941
L72139 33225
" />
<path d="M43714 40941
L72139 40941
" />
<path d="M71955 59810
L71955 46148
" />
<path d="M43529 59810
L71955 59810
" />
<path d="M43529 46148
L43529 59810
" />
<path d="M71955 46148
L43529 46148
" />
<path d="M57120 45680
L66490 45680
" />
<path d="M57120 41270
L57120 45680
" />
<path d="M66490 41270
L57120 41270
" />
<path d="M66490 45680
L66490 41270
" />
<path d="M36586 23672
L38082 23672
" />
<path d="M38082 23672
L38082 21152
" />
<path d="M36586 21152
L38082 21152
" />
<path d="M36586 23672
L36586 21152
" />
<path d="M73329 28925
L75140 28925
" />
<path d="M75140 25225
L75140 28925
" />
<path d="M73329 25225
L75140 25225
" />
<path d="M73329 28925
L73329 25225
" />
<path d="M70429 28925
L72240 28925
" />
<path d="M72240 25225
L72240 28925
" />
<path d="M70429 25225
L72240 25225
" />
<path d="M70429 28925
L70429 25225
" />
<path d="M67709 28925
L69520 28925
" />
<path d="M69520 25225
L69520 28925
" />
<path d="M67709 25225
L69520 25225
" />
<path d="M67709 28925
L67709 25225
" />
<path d="M36157 44323
L33511 44323
" />
<path d="M36157 42827
L36157 44323
" />
<path d="M33511 42827
L36157 42827
" />
<path d="M33511 44323
L33511 42827
" />
<path d="M36157 42573
L33511 42573
" />
<path d="M36157 41077
L36157 42573
" />
<path d="M33511 41077
L36157 41077
" />
<path d="M33511 42573
L33511 41077
" />
<path d="M50686 44998
L50686 42352
" />
<path d="M52182 44998
L50686 44998
" />
<path d="M52182 42352
L52182 44998
" />
<path d="M50686 42352
L52182 42352
" />
<path d="M39282 16952
L39282 19598
" />
<path d="M37786 16952
L39282 16952
" />
<path d="M37786 19598
L37786 16952
" />
<path d="M39282 19598
L37786 19598
" />
<path d="M67582 30052
L67582 32698
" />
<path d="M66086 30052
L67582 30052
" />
<path d="M66086 32698
L66086 30052
" />
<path d="M67582 32698
L66086 32698
" />
<path d="M63882 26052
L63882 28698
" />
<path d="M62386 26052
L63882 26052
" />
<path d="M62386 28698
L62386 26052
" />
<path d="M63882 28698
L62386 28698
" />
<path d="M69982 30052
L69982 32698
" />
<path d="M68486 30052
L69982 30052
" />
<path d="M68486 32698
L68486 30052
" />
<path d="M69982 32698
L68486 32698
" />
<path d="M28911 36127
L31557 36127
" />
<path d="M28911 37623
L28911 36127
" />
<path d="M31557 37623
L28911 37623
" />
<path d="M31557 36127
L31557 37623
" />
<path d="M62682 64052
L62682 66698
" />
<path d="M61186 64052
L62682 64052
" />
<path d="M61186 66698
L61186 64052
" />
<path d="M62682 66698
L61186 66698
" />
<path d="M73186 66698
L73186 64052
" />
<path d="M74682 66698
L73186 66698
" />
<path d="M74682 64052
L74682 66698
" />
<path d="M73186 64052
L74682 64052
" />
<path d="M34682 64012
L34682 66658
" />
<path d="M33186 64012
L34682 64012
" />
<path d="M33186 66658
L33186 64012
" />
<path d="M34682 66658
L33186 66658
" />
<path d="M31226 66658
L31226 64012
" />
<path d="M32722 66658
L31226 66658
" />
<path d="M32722 64012
L32722 66658
" />
<path d="M31226 64012
L32722 64012
" />
<path d="M38186 66698
L38186 64052
" />
<path d="M39682 66698
L38186 66698
" />
<path d="M39682 64052
L39682 66698
" />
<path d="M38186 64052
L39682 64052
" />
<path d="M45186 66698
L45186 64052
" />
<path d="M46682 66698
L45186 66698
" />
<path d="M46682 64052
L46682 66698
" />
<path d="M45186 64052
L46682 64052
" />
<path d="M52186 66698
L52186 64052
" />
<path d="M53682 66698
L52186 66698
" />
<path d="M53682 64052
L53682 66698
" />
<path d="M52186 64052
L53682 64052
" />
<path d="M59186 66698
L59186 64052
" />
<path d="M60682 66698
L59186 66698
" />
<path d="M60682 64052
L60682 66698
" />
<path d="M59186 64052
L60682 64052
" />
<path d="M66186 66698
L66186 64052
" />
<path d="M67682 66698
L66186 66698
" />
<path d="M67682 64052
L67682 66698
" />
<path d="M66186 64052
L67682 64052
" />
<path d="M80186 66698
L80186 64052
" />
<path d="M81682 66698
L80186 66698
" />
<path d="M81682 64052
L81682 66698
" />
<path d="M80186 64052
L81682 64052
" />
<path d="M41682 64052
L41682 66698
" />
<path d="M40186 64052
L41682 64052
" />
<path d="M40186 66698
L40186 64052
" />
<path d="M41682 66698
L40186 66698
" />
<path d="M48682 64052
L48682 66698
" />
<path d="M47186 64052
L48682 64052
" />
<path d="M47186 66698
L47186 64052
" />
<path d="M48682 66698
L47186 66698
" />
<path d="M55682 64052
L55682 66698
" />
<path d="M54186 64052
L55682 64052
" />
<path d="M54186 66698
L54186 64052
" />
<path d="M55682 66698
L54186 66698
" />
<path d="M69682 64052
L69682 66698
" />
<path d="M68186 64052
L69682 64052
" />
<path d="M68186 66698
L68186 64052
" />
<path d="M69682 66698
L68186 66698
" />
<path d="M76682 64052
L76682 66698
" />
<path d="M75186 64052
L76682 64052
" />
<path d="M75186 66698
L75186 64052
" />
<path d="M76682 66698
L75186 66698
" />
<path d="M83682 64052
L83682 66698
" />
<path d="M82186 64052
L83682 64052
" />
<path d="M82186 66698
L82186 64052
" />
<path d="M83682 66698
L82186 66698
" />
<path d="M34257 63723
L31611 63723
" />
<path d="M34257 62227
L34257 63723
" />
<path d="M31611 62227
L34257 62227
" />
<path d="M31611 63723
L31611 62227
" />
<path d="M69257 63723
L66611 63723
" />
<path d="M69257 62227
L69257 63723
" />
<path d="M66611 62227
L69257 62227
" />
<path d="M66611 63723
L66611 62227
" />
<path d="M62257 63723
L59611 63723
" />
<path d="M62257 62227
L62257 63723
" />
<path d="M59611 62227
L62257 62227
" />
<path d="M59611 63723
L59611 62227
" />
<path d="M41257 63723
L38611 63723
" />
<path d="M41257 62227
L41257 63723
" />
<path d="M38611 62227
L41257 62227
" />
<path d="M38611 63723
L38611 62227
" />
<path d="M48257 63723
L45611 63723
" />
<path d="M48257 62227
L48257 63723
" />
<path d="M45611 62227
L48257 62227
" />
<path d="M45611 63723
L45611 62227
" />
<path d="M55257 63723
L52611 63723
" />
<path d="M55257 62227
L55257 63723
" />
<path d="M52611 62227
L55257 62227
" />
<path d="M52611 63723
L52611 62227
" />
<path d="M76257 63723
L73611 63723
" />
<path d="M76257 62227
L76257 63723
" />
<path d="M73611 62227
L76257 62227
" />
<path d="M73611 63723
L73611 62227
" />
<path d="M83257 63723
L80611 63723
" />
<path d="M83257 62227
L83257 63723
" />
<path d="M80611 62227
L83257 62227
" />
<path d="M80611 63723
L80611 62227
" />
<path d="M37811 14727
L40457 14727
" />
<path d="M37811 16223
L37811 14727
" />
<path d="M40457 16223
L37811 16223
" />
<path d="M40457 14727
L40457 16223
" />
<path d="M54186 44798
L54186 42152
" />
<path d="M55682 44798
L54186 44798
" />
<path d="M55682 42152
L55682 44798
" />
<path d="M54186 42152
L55682 42152
" />
<path d="M73486 54498
L73486 51852
" />
<path d="M74982 54498
L73486 54498
" />
<path d="M74982 51852
L74982 54498
" />
<path d="M73486 51852
L74982 51852
" />
<path d="M31557 35623
L28911 35623
" />
<path d="M31557 34127
L31557 35623
" />
<path d="M28911 34127
L31557 34127
" />
<path d="M28911 35623
L28911 34127
" />
<path d="M67986 44598
L67986 41952
" />
<path d="M69482 44598
L67986 44598
" />
<path d="M69482 41952
L69482 44598
" />
<path d="M67986 41952
L69482 41952
" />
<path d="M29618 29043
L29618 18492
" />
<path d="M24303 29043
L29618 29043
" />
<path d="M24303 18492
L24303 29043
" />
<path d="M29618 18492
L24303 18492
" />
<path d="M31696 16702
L32444 16702
" />
<path d="M31696 15048
L31696 16702
" />
<path d="M32444 15048
L31696 15048
" />
<path d="M32444 16702
L32444 16859
" />
<path d="M32444 14891
L32444 15048
" />
<path d="M32444 14891
L33350 13985
" />
<path d="M32444 16859
L33350 17765
" />
<path d="M33350 13985
L36224 13985
" />
<path d="M33350 17765
L36224 17765
" />
<path d="M36224 16702
L36224 17765
" />
<path d="M36972 16702
L36224 16702
" />
<path d="M36972 15048
L36972 16702
" />
<path d="M36224 15048
L36972 15048
" />
<path d="M36224 13985
L36224 15048
" />
<path d="M81282 36752
L81282 39398
" />
<path d="M79786 36752
L81282 36752
" />
<path d="M79786 39398
L79786 36752
" />
<path d="M81282 39398
L79786 39398
" />
<g >
</g>
<g >
</g>
<g >
</g>
<g >
</g>
<g >
</g>
<g >
</g>
<g >
</g>
<g >
</g>
<g >
</g>
<g >
</g>
<g >
</g>
<g >
</g>
<g >
</g>
<g >
</g>
<g >
</g>
<g >
</g>
<g >
</g>
<g >
</g>
<g >
</g>
<g >
</g>
<g >
</g>
<g >
</g>
<g >
</g>
<g >
</g>
<g >
</g>
<g >
</g>
<g >
</g>
<g >
</g>
<g >
</g>
<g >
</g>
<g >
</g>
<g >
</g>
<g >
</g>
<g >
</g>
<g >
</g>
<g >
</g>
<g >
</g>
<g >
</g>
<g >
</g>
<g >
</g>
<g >
</g>
<g >
</g>
<g >
</g>
<g >
</g>
<g >
</g>
<g >
</g>
<g >
</g>
<g >
</g>
<g >
</g>
<g >
</g>
<g >
</g>
<g >
</g>
<g >
</g>
<g >
</g>
<g >
</g>
<g >
</g>
<g >
</g>
<g >
</g>
<g >
</g>
<g >
</g>
<g >
</g>
<g >
</g>
<g >
</g>
<g >
</g>
<g >
</g>
<g >
</g>
<g >
</g>
<g >
</g>
<g >
</g>
<g >
</g>
<g >
</g>
<g >
</g>
<g >
</g>
</g> 
</svg>
